<?xml version="1.0" standalone="no"?>
<!DOCTYPE svg PUBLIC "-//W3C//DTD SVG 1.1//EN" "http://www.w3.org/Graphics/SVG/1.1/DTD/svg11.dtd" >
<svg xmlns="http://www.w3.org/2000/svg" xmlns:xlink="http://www.w3.org/1999/xlink" version="1.1">
<metadata>
Created by FontForge 20170731 at Fri Apr 12 15:38:40 2019
 By Aleksey,,,
Copyright (c) 2018 by Alexis Navarro Miranda. All rights reserved. Desktop use is strictly prohibited.
</metadata>
<defs>
<font id="MenaGrotesk-UltraBoldItalic" horiz-adv-x="0" >
  <font-face 
    font-family="Mena Grotesk UltraBold Italic"
    font-weight="800"
    font-style="italic"
    font-stretch="normal"
    units-per-em="2048"
    panose-1="0 0 9 0 0 0 0 0 0 0"
    ascent="1638"
    descent="-410"
    x-height="1061"
    cap-height="1450"
    bbox="-760 -631 2602.39 2136"
    underline-thickness="0"
    underline-position="0"
    unicode-range="U+0020-FB02"
  />
<missing-glyph horiz-adv-x="1402" 
d="M1233 682h186l-12 -61h-125q-37 -144 -121 -251.5t-203 -162.5l-36 -207h-58l37 207q-74 -59 -188 -119l-8 170h-103l-65 -170q-106 65 -148 121l-37 -209h-55l37 209q-209 113 -182 412h-125l12 61h186q-51 -295 119 -414l23 125q-63 95 -35 260q32 183 139 281l90 520
h608l-92 -524q68 -99 37 -277q-27 -161 -123 -258l-22 -127q213 118 264 414zM635 1407l188 -193l256 193h-444zM848 1188l190 -197l70 393zM528 995l258 193l-188 192zM946 1024l-133 137l-182 -137q80 23 162 23q84 0 153 -23zM666 328q338 0 395 325q29 166 -42 252
t-237 86q-338 0 -397 -338q-29 -159 43 -242t238 -83zM608 922l92 30l-6 -34l-92 -31zM924 887l-82 31l6 34l82 -30zM721 819q-11 -51 -64 -51q-25 0 -38 14.5t-9 36.5q10 56 66 58q24 0 36.5 -15.5t8.5 -42.5zM848 877q25 0 39 -16.5t10 -41.5q-11 -51 -68 -51
q-23 0 -35 14.5t-8 36.5q10 58 62 58zM823 696l-180 -20l8 39l178 20zM518 160l49 119q-97 17 -155 63l-13 -74q44 -64 119 -108zM911 266l13 76q-72 -46 -176 -63l8 -119q80 37 155 106zM647 207q29 0 23 -31q-5 -29 -33 -29q-34 0 -29 29q6 31 39 31zM627 94q27 0 24 -28
q-6 -31 -35 -31q-33 0 -26 31q1 28 37 28z" />
    <glyph glyph-name="uniFB01" unicode="fi" horiz-adv-x="1378" 
d="M657 1061h709l-188 -1061h-367l137 782h-340l-137 -782h-367l138 782h-199l51 279h197l26 151q28 165 165 269q136 102 329 102q113 0 176 -24l-45 -263h-123q-64 0 -96.5 -28.5t-44.5 -96.5zM1018 1229l55 317h387l-55 -317h-387z" />
    <glyph glyph-name="uniFB02" unicode="fl" horiz-adv-x="1486" 
d="M659 1061h275l-49 -279h-275l-137 -782h-369l140 782h-199l49 279h199l26 151q27 166 163 269q136 102 329 102q137 0 215 -24l-45 -263h-160q-63 0 -97 -29.5t-44 -95.5zM1485 1563l-211 -1182q-10 -61 10.5 -88t79.5 -27h51l-45 -266q-88 -20 -186 -20q-156 0 -235 97
q-79 96 -50 257l217 1229h369z" />
    <glyph glyph-name="f_f.liga" unicode="ff" horiz-adv-x="1624" 
d="M1765 1296h-231q-61 0 -94 -28.5t-47 -96.5l-19 -110h344l-49 -279h-344l-137 -782h-369l137 782h-346l-139 -782h-367l138 782h-199l51 279h197l20 110q28 165 164 269q135 102 328 102q120 0 186 -20l-45 -267h-131q-63 0 -97 -29.5t-44 -95.5l-13 -69h347l26 151
q31 166 166 269q135 102 328 102q149 0 286 -20z" />
    <glyph glyph-name="f_f_i.liga" unicode="ffi" horiz-adv-x="2095" 
d="M1374 1061h707l-187 -1061h-368l139 782h-340l-137 -782h-369l137 782h-346l-139 -782h-367l138 782h-199l51 279h197l20 110q28 165 164 269q135 102 328 102q120 0 186 -20l-45 -267h-131q-63 0 -97 -29.5t-44 -95.5l-13 -69h347l26 151q31 166 166 269
q135 102 328 102q115 0 178 -24l-45 -263h-125q-61 0 -94 -28.5t-47 -96.5zM1733 1229l55 317h389l-55 -317h-389z" />
    <glyph glyph-name="f_f_l.liga" unicode="ffl" horiz-adv-x="2203" 
d="M1374 1061h275l-47 -279h-277l-137 -782h-367l137 782h-348l-137 -782h-369l138 782h-197l49 279h199l22 133q28 161 157 255q128 93 321 93q125 0 194 -20l-45 -267h-133q-63 0 -94 -25.5t-41 -86.5l-15 -82h349l30 174q28 161 157 255q127 93 321 93q143 0 227 -24
l-47 -263h-164q-63 0 -94 -25.5t-41 -86.5zM2200 1563l-209 -1182q-10 -61 10.5 -88t77.5 -27h53l-47 -266q-85 -20 -187 -20q-157 0 -233 97q-77 97 -49 257l217 1229h367z" />
    <glyph glyph-name=".notdef" horiz-adv-x="1402" 
d="M1233 682h186l-12 -61h-125q-37 -144 -121 -251.5t-203 -162.5l-36 -207h-58l37 207q-74 -59 -188 -119l-8 170h-103l-65 -170q-106 65 -148 121l-37 -209h-55l37 209q-209 113 -182 412h-125l12 61h186q-51 -295 119 -414l23 125q-63 95 -35 260q32 183 139 281l90 520
h608l-92 -524q68 -99 37 -277q-27 -161 -123 -258l-22 -127q213 118 264 414zM635 1407l188 -193l256 193h-444zM848 1188l190 -197l70 393zM528 995l258 193l-188 192zM946 1024l-133 137l-182 -137q80 23 162 23q84 0 153 -23zM666 328q338 0 395 325q29 166 -42 252
t-237 86q-338 0 -397 -338q-29 -159 43 -242t238 -83zM608 922l92 30l-6 -34l-92 -31zM924 887l-82 31l6 34l82 -30zM721 819q-11 -51 -64 -51q-25 0 -38 14.5t-9 36.5q10 56 66 58q24 0 36.5 -15.5t8.5 -42.5zM848 877q25 0 39 -16.5t10 -41.5q-11 -51 -68 -51
q-23 0 -35 14.5t-8 36.5q10 58 62 58zM823 696l-180 -20l8 39l178 20zM518 160l49 119q-97 17 -155 63l-13 -74q44 -64 119 -108zM911 266l13 76q-72 -46 -176 -63l8 -119q80 37 155 106zM647 207q29 0 23 -31q-5 -29 -33 -29q-34 0 -29 29q6 31 39 31zM627 94q27 0 24 -28
q-6 -31 -35 -31q-33 0 -26 31q1 28 37 28z" />
    <glyph glyph-name="glyph1" 
 />
    <glyph glyph-name="glyph2" horiz-adv-x="681" 
 />
    <glyph glyph-name="space" unicode=" " horiz-adv-x="409" 
 />
    <glyph glyph-name="exclam" unicode="!" horiz-adv-x="641" 
d="M293 1450h377l-66 -379l-151 -543h-265l39 543zM29 0l67 379h396l-68 -379h-395z" />
    <glyph glyph-name="quotedbl" unicode="&#x22;" horiz-adv-x="892" 
d="M174 901l55 549h324l-137 -549h-242zM608 901l56 549h323l-137 -549h-242z" />
    <glyph glyph-name="numbersign" unicode="#" horiz-adv-x="1576" 
d="M1599 1118l-38 -217h-281l-96 -360h256l-39 -217h-277l-86 -324h-245l86 324h-318l-86 -324h-246l86 324h-286l37 217h307l96 360h-283l39 217h303l88 332h248l-88 -332h316l88 332h247l-88 -332h260zM621 541h315l96 360h-315z" />
    <glyph glyph-name="dollar" unicode="$" horiz-adv-x="1439" 
d="M1436 983h-387q18 100 -32 145.5t-181 45.5q-236 0 -254 -115q-10 -57 48 -91t247 -67q306 -52 418 -163q109 -111 75 -304q-28 -173 -181 -295q-151 -120 -386 -155l-29 -164h-311l26 157q-238 28 -361 160q-122 131 -87 326h387q-16 -99 42.5 -143t207.5 -44
q262 0 283 111q8 39 -5 60q-13 22 -81 49q-72 27 -207 49q-302 51 -417 159q-115 106 -81 300q33 183 191 310q157 126 393 159l24 141h312l-27 -148q205 -39 306 -167q100 -127 67 -316z" />
    <glyph glyph-name="percent" unicode="%" horiz-adv-x="1550" 
d="M453 754q-170 0 -258 100q-89 100 -60 264q28 163 152 264q123 99 293 99q172 0 260 -100t59 -263q-28 -163 -151 -264q-122 -100 -295 -100zM1284 1450h379l-471 -668h-338zM401 1014q28 -39 91 -39q61 0 106 39q44 38 55 104q12 63 -18.5 103.5t-91.5 40.5
q-62 0 -106 -39t-56 -105q-10 -66 20 -104zM1036 -31q-169 0 -258 101q-88 100 -59 264q28 161 152 262q121 100 294 100q172 0 259 -100q87 -101 59 -262q-28 -163 -152 -264t-295 -101zM438 668h338l-428 -668h-379zM985 229q28 -39 91 -39q61 0 106 39q44 38 55 105
q12 63 -18.5 103t-91.5 40q-62 0 -106 -39t-56 -104q-10 -65 20 -105z" />
    <glyph glyph-name="ampersand" unicode="&#x26;" horiz-adv-x="1486" 
d="M1245 270l248 -270h-457l-63 68q-197 -98 -414 -99q-292 0 -449 115q-159 116 -126 303q18 117 112 207t256 143q-77 89 -103 165q-26 77 -7 179q33 181 198 290q164 110 404 110q245 0 373 -109q129 -110 98 -291q-23 -129 -144 -225t-327 -151l209 -228q42 88 61 211
h346q-44 -232 -215 -418zM623 1063q-16 -81 88 -209q212 67 235 209q12 72 -21.5 103.5t-121.5 31.5q-81 0 -122.5 -31.5t-57.5 -103.5zM608 250q100 0 180 16l-294 318q-99 -52 -119 -150q-16 -96 39.5 -140t193.5 -44z" />
    <glyph glyph-name="quotesingle" unicode="'" horiz-adv-x="458" 
d="M174 901l55 549h324l-137 -549h-242z" />
    <glyph glyph-name="parenleft" unicode="(" horiz-adv-x="686" 
d="M494 1563h327q-257 -483 -342 -979q-88 -489 -2 -979h-327q-143 487 -58 979q87 490 402 979z" />
    <glyph glyph-name="parenright" unicode=")" horiz-adv-x="681" 
d="M207 -395h-328q521 972 346 1958h328q145 -498 57 -979q-85 -489 -403 -979z" />
    <glyph glyph-name="asterisk" unicode="*" horiz-adv-x="671" 
d="M598 1481l-145 -287l-43 287h188zM332 1448l121 -254l-265 104zM756 1298l-303 -104l211 254zM156 1223l297 -29l-287 -154zM684 1040l-231 154l307 29zM205 977l248 217l-93 -299zM440 895l13 299l170 -217z" />
    <glyph glyph-name="plus" unicode="+" horiz-adv-x="1038" 
d="M668 670h317l-43 -246h-319l-56 -318l-243 -2l55 320h-320l43 246h320l55 317h246z" />
    <glyph glyph-name="comma" unicode="," horiz-adv-x="604" 
d="M31 63l57 316h395l-67 -379q-31 -171 -165 -275q-133 -102 -329 -102l29 162q123 0 186.5 46t81.5 149z" />
    <glyph glyph-name="hyphen" unicode="-" horiz-adv-x="698" 
d="M86 662h580l-48 -279h-579z" />
    <glyph glyph-name="period" unicode="." horiz-adv-x="587" 
d="M4 0l68 379h395l-68 -379h-395z" />
    <glyph glyph-name="slash" unicode="/" horiz-adv-x="628" 
d="M-152 -395l693 1958h256l-691 -1958h-258z" />
    <glyph glyph-name="zero" unicode="0" horiz-adv-x="1519" 
d="M1196 177q-224 -208 -534 -208t-461 208q-152 209 -92 548q58 339 284 548q224 208 535 208q310 0 461 -208q151 -207 92 -548q-60 -339 -285 -548zM524 409q51 -100 199 -100q147 0 231 100q84 99 123 316q39 218 -11 317t-197 99q-148 0 -233 -98.5t-124 -317.5
q-39 -217 12 -316z" />
    <glyph glyph-name="one" unicode="1" horiz-adv-x="1062" 
d="M461 1450h626l-253 -1450h-396l146 819l86 426l-238 -201l-350 -270l78 445z" />
    <glyph glyph-name="two" unicode="2" horiz-adv-x="1282" 
d="M1122 0h-1142l98 557l633 223q94 37 134 85q41 48 54 132q16 90 -18.5 132t-122.5 42q-93 0 -146 -58.5t-75 -188.5h-387q45 249 230 404q184 153 445 153q257 0 381 -132q125 -133 86 -350q-27 -152 -134 -265t-284 -177l-411 -154l-254 -73l291 8h682z" />
    <glyph glyph-name="three" unicode="3" horiz-adv-x="1325" 
d="M1309 1090q-21 -127 -137.5 -205t-317.5 -94q222 -24 319.5 -124t67.5 -264q-33 -195 -221 -314q-189 -120 -461 -120q-270 0 -409 145q-139 144 -99 382h387q-20 -113 22 -164t151 -51q108 0 164 37.5t71 121.5q12 71 -25 109.5t-125 38.5h-198l47 258h186
q67 0 109.5 46t54.5 126q14 80 -18.5 116.5t-118.5 36.5q-90 0 -141.5 -52.5t-71.5 -166.5h-387q44 238 225 384q181 145 442 145q247 0 383 -107q134 -108 101 -284z" />
    <glyph glyph-name="four" unicode="4" horiz-adv-x="1341" 
d="M633 252h-627l113 645l461 553h657l-158 -895h224l-54 -303h-223l-43 -252h-395zM834 1343l-658 -794l252 6h258l72 416z" />
    <glyph glyph-name="five" unicode="5" horiz-adv-x="1306" 
d="M1264 1112h-463l-219 4l-103 -426q157 246 424 246q186 0 279 -126q92 -127 55 -331q-40 -229 -230 -369q-191 -141 -456 -141q-268 0 -406 144q-139 142 -98 374h387q-20 -109 20 -157.5t148 -48.5q106 0 163.5 45.5t76.5 144.5q16 102 -25 147.5t-147 45.5
q-120 0 -215 -80h-340l204 866h1004z" />
    <glyph glyph-name="six" unicode="6" horiz-adv-x="1425" 
d="M1421 1004h-370q14 88 -27 126.5t-150 38.5q-150 0 -236 -107t-130 -345l-14 -80q58 128 186 205q127 76 285 76q211 0 320 -118q108 -118 73 -313q-40 -232 -230 -375q-191 -143 -460 -143q-333 0 -479 194t-83 554q62 345 289 554q228 210 539 210q257 0 391 -131
t96 -346zM760 641q-244 0 -273 -174q-18 -98 32 -143t177 -45q119 0 179.5 44t76.5 140q16 94 -28.5 136t-163.5 42z" />
    <glyph glyph-name="seven" unicode="7" horiz-adv-x="1171" 
d="M205 1450h1079l-55 -328h-2l-47 -276q-224 -88 -402 -321q-180 -234 -231 -525h-412q89 496 520 847q223 182 508 273l-395 -8h-623z" />
    <glyph glyph-name="eight" unicode="8" horiz-adv-x="1460" 
d="M1430 1073q-47 -260 -388 -332q178 -39 257 -133.5t53 -238.5q-33 -180 -230 -290q-199 -110 -491 -110t-453 110q-160 109 -127 290q53 295 441 372q-320 72 -273 332q33 183 220 295q187 113 458 113t419 -113q147 -113 114 -295zM604 1012q-16 -94 26 -135t153 -41
t168 41.5t73 134.5q16 92 -26 133t-152 41q-111 0 -168.5 -41t-73.5 -133zM969 442q16 96 -36.5 139.5t-187.5 43.5q-133 0 -201.5 -43.5t-84.5 -139.5q-16 -94 37 -136t186 -42q135 0 203 42t84 136z" />
    <glyph glyph-name="nine" unicode="9" horiz-adv-x="1425" 
d="M827 1481q335 0 480 -192q145 -193 82 -556q-62 -345 -289 -554q-228 -210 -539 -210q-257 0 -390 131t-95 346h370q-16 -88 25 -126.5t152 -38.5q147 0 234 107.5t130 344.5l12 76q-61 -127 -186 -202t-281 -75q-211 0 -320 118t-75 313q41 234 231 376q188 142 459 142
zM737 809q245 0 273 174q16 96 -34.5 141t-176.5 45q-119 0 -178.5 -43t-75.5 -139q-16 -94 28.5 -136t163.5 -42z" />
    <glyph glyph-name="colon" unicode=":" horiz-adv-x="587" 
d="M119 645l67 379h396l-68 -379h-395zM4 0l68 379h395l-68 -379h-395z" />
    <glyph glyph-name="semicolon" unicode=";" horiz-adv-x="604" 
d="M133 645l68 379h395l-68 -379h-395zM31 63l57 316h395l-67 -379q-31 -171 -165 -275q-133 -102 -329 -102l29 162q123 0 186.5 46t81.5 149z" />
    <glyph glyph-name="less" unicode="&#x3c;" horiz-adv-x="923" 
d="M764 72l-721 262l76 422l811 262l-45 -260l-752 -213l678 -213z" />
    <glyph glyph-name="equal" unicode="=" horiz-adv-x="1079" 
d="M162 907h891l-43 -243h-891zM78 430h891l-43 -244h-891z" />
    <glyph glyph-name="greater" unicode="&#x3e;" horiz-adv-x="921" 
d="M809 334l-811 -262l45 260l752 213l-676 213l45 260l721 -262z" />
    <glyph glyph-name="question" unicode="?" horiz-adv-x="1124" 
d="M731 1481q237 0 362 -115t91 -301q-51 -293 -457 -395l-59 -17l-37 -157h-254l39 288l205 58q110 28 156 65q43 35 57 105q16 96 -20 139t-132 43q-109 0 -169 -55.5t-83 -180.5h-332q39 237 214 380q176 143 419 143zM614 0h-395l66 379h395z" />
    <glyph glyph-name="at" unicode="@" horiz-adv-x="2111" 
d="M1225 1485q441 0 667 -247t156 -650q-30 -169 -89.5 -296t-135.5 -194q-144 -127 -314 -127q-164 0 -238.5 74t-60.5 221q-69 -138 -176 -215.5t-233 -77.5q-193 0 -285 155t-47 404q43 251 189 406q145 154 339 154q125 0 208 -72t106 -201l37 209h352l-117 -661
q-13 -78 3 -102t71 -23q65 1 112 73q47 71 78 256q63 358 -104.5 546t-550.5 188q-379 0 -613 -198q-235 -198 -300 -572q-68 -375 97 -573t544 -198q306 0 536 140l-37 -209q-239 -111 -530 -111q-443 0 -666 261q-225 261 -149 690q77 428 393 689q317 261 758 261z
M995 254q106 0 166 66.5t84 211.5q27 145 -9 212t-140 67q-105 0 -164.5 -66t-85.5 -212q-27 -145 9 -212t140 -67z" />
    <glyph glyph-name="A" unicode="A" horiz-adv-x="1611" 
d="M1513 0h-411l-41 328h-569l-158 -328h-402l697 1450h698zM813 1001l-178 -372h389l-47 372l-27 320z" />
    <glyph glyph-name="B" unicode="B" horiz-adv-x="1478" 
d="M1493 1114q-23 -125 -117 -206t-243 -105q167 -41 239 -143.5t45 -253.5q-33 -182 -174 -294q-140 -112 -342 -112h-858l256 1450h805q200 0 309 -92q107 -92 80 -244zM909 1145h-270l-51 -289h272q96 0 145.5 34t63.5 109q12 78 -26 112t-134 34zM1006 455
q14 78 -23 112.5t-133 34.5h-307l-51 -297h307q96 0 145.5 36t61.5 114z" />
    <glyph glyph-name="C" unicode="C" horiz-adv-x="1544" 
d="M214 177q-165 208 -105 548q58 338 298 548q238 208 568 208q299 0 457 -161q157 -160 112 -427h-387q23 129 -34.5 188.5t-207.5 59.5q-172 0 -268 -98q-96 -99 -135 -318t22.5 -319.5t233.5 -100.5q150 0 227.5 53.5t100.5 171.5h387q-45 -256 -260 -408
q-214 -153 -514 -153q-330 0 -495 208z" />
    <glyph glyph-name="D" unicode="D" horiz-adv-x="1597" 
d="M299 1450h647q332 0 501 -199t112 -526q-59 -325 -297 -525q-239 -200 -572 -200h-647zM1155 725q68 395 -283 395h-237l-141 -798h239q350 0 422 403z" />
    <glyph glyph-name="E" unicode="E" horiz-adv-x="1312" 
d="M1391 1450l-58 -330h-698l-43 -241h665l-51 -297h-665l-45 -252h704l-59 -330h-1098l256 1450h1092z" />
    <glyph glyph-name="F" unicode="F" horiz-adv-x="1253" 
d="M1370 1450l-57 -330h-678l-45 -254h653l-51 -297h-653l-101 -569h-395l256 1450h1071z" />
    <glyph glyph-name="G" unicode="G" horiz-adv-x="1611" 
d="M1579 911h-387q23 119 -39.5 174.5t-220.5 55.5q-181 0 -281 -98t-139 -318q-39 -223 25.5 -323.5t246.5 -100.5q156 0 239 56.5t110 181.5h-373l47 262h764l-141 -801h-347l66 369q-150 -398 -539 -400q-287 0 -425 201t-81 539q63 349 306 561q242 211 581 211
q309 0 472 -157q162 -157 116 -413z" />
    <glyph glyph-name="H" unicode="H" horiz-adv-x="1652" 
d="M1186 895l96 555h395l-256 -1450h-393l98 565h-589l-99 -565h-395l256 1450h393l-96 -555h590z" />
    <glyph glyph-name="I" unicode="I" horiz-adv-x="667" 
d="M43 0l256 1450h393l-254 -1450h-395z" />
    <glyph glyph-name="J" unicode="J" horiz-adv-x="1331" 
d="M33 547h385q-20 -126 16.5 -182t141.5 -56q104 0 161.5 60.5t81.5 195.5l156 885h393l-166 -938q-44 -245 -232 -393q-190 -150 -456 -150q-262 0 -394 159t-87 419z" />
    <glyph glyph-name="K" unicode="K" horiz-adv-x="1566" 
d="M1239 1450h461l-715 -713l512 -737h-496l-325 487l-117 201l-121 -688h-395l256 1450h395l-121 -682l185 203z" />
    <glyph glyph-name="L" unicode="L" horiz-adv-x="1236" 
d="M692 1450l-196 -1120h661l-59 -330h-1055l256 1450h393z" />
    <glyph glyph-name="M" unicode="M" horiz-adv-x="2105" 
d="M1460 1450h670l-256 -1450h-399l163 924l76 368l-495 -1292h-517l-43 1294l-55 -370l-162 -924h-399l256 1450h684l37 -870l-10 -347l110 347z" />
    <glyph glyph-name="N" unicode="N" horiz-adv-x="1722" 
d="M1231 727l127 723h389l-254 -1450h-688l-158 1300l-86 -567l-129 -733h-389l256 1450h690l158 -1276z" />
    <glyph glyph-name="O" unicode="O" horiz-adv-x="1650" 
d="M1309 177q-244 -208 -582 -208q-339 0 -508 208q-170 209 -110 548q58 339 303 548q242 208 581 208t508 -208t111 -548q-60 -339 -303 -548zM539 406q65 -101 248 -101q181 0 282 101q100 100 139 319q39 218 -26 318q-66 98 -248 98q-181 0 -282 -98
q-101 -100 -140 -318q-39 -219 27 -319z" />
    <glyph glyph-name="P" unicode="P" horiz-adv-x="1384" 
d="M299 1450h756q211 0 316 -135q104 -136 65 -354q-39 -222 -190 -356q-151 -136 -363 -136h-363l-82 -469h-395zM1032 961q18 96 -17.5 140t-131.5 44h-244l-66 -371h246q96 0 146.5 44.5t66.5 142.5z" />
    <glyph glyph-name="Q" unicode="Q" horiz-adv-x="1617" 
d="M408 1273q238 208 569 208q330 0 496 -208q164 -208 106 -548q-49 -268 -225 -463l155 -168l-268 -229l-137 201q-187 -95 -395 -97q-330 0 -495 208t-105 548q58 339 299 548zM646 1043q-95 -100 -134 -318q-39 -219 23 -317q61 -99 235 -99q74 0 127 13l-186 190
l268 229l149 -204q32 89 48 188q39 218 -23.5 317t-236.5 99q-175 0 -270 -98z" />
    <glyph glyph-name="R" unicode="R" horiz-adv-x="1433" 
d="M1473 1001q-25 -143 -106 -251.5t-202 -163.5l92 -176l166 -410h-442l-209 530h-242l-92 -530h-395l256 1450h784q211 0 318 -123t72 -326zM911 1145h-272l-59 -336h272q96 0 147.5 41t67.5 131q14 86 -22.5 125t-133.5 39z" />
    <glyph glyph-name="S" unicode="S" horiz-adv-x="1439" 
d="M623 -31q-301 0 -462 137q-161 136 -120 357h387q-16 -99 42.5 -143t207.5 -44q262 0 283 111q8 39 -5 60q-13 22 -81 49q-72 27 -207 49q-302 51 -417 159q-115 106 -81 300q39 213 238 345q198 132 487 132q283 0 432 -137q148 -138 109 -361h-387q18 100 -32 145.5
t-181 45.5q-236 0 -254 -115q-10 -57 48 -91t247 -67q306 -52 418 -163q109 -111 75 -304q-35 -209 -241 -337q-208 -128 -506 -128z" />
    <glyph glyph-name="T" unicode="T" horiz-adv-x="1361" 
d="M186 1450h1315l-59 -330h-459l-199 -1120h-393l199 1120h-463z" />
    <glyph glyph-name="U" unicode="U" horiz-adv-x="1564" 
d="M121 520l166 930h393l-158 -889q-23 -133 29.5 -192.5t192.5 -59.5q139 0 211.5 59.5t95.5 192.5l157 889h394l-164 -930q-44 -248 -251 -399q-209 -152 -505 -152q-294 0 -449 152t-112 399z" />
    <glyph glyph-name="V" unicode="V" horiz-adv-x="1529" 
d="M836 449l464 1001h400l-680 -1450h-686l-170 1450h411l111 -1001l23 -293z" />
    <glyph glyph-name="W" unicode="W" horiz-adv-x="2457" 
d="M1782 449l364 1001h447l-574 -1450h-663l-10 899l10 334l-109 -334l-325 -899h-666l-63 1450h446l16 -1001l-8 -279l88 279l352 1001h613l2 -1001l-12 -279z" />
    <glyph glyph-name="X" unicode="X" horiz-adv-x="1628" 
d="M1315 1450h440l-555 -676l348 -774h-446l-176 391l-95 256l-184 -256l-313 -391h-440l610 760l-324 690h449l149 -324l94 -254l181 254z" />
    <glyph glyph-name="Y" unicode="Y" horiz-adv-x="1458" 
d="M1233 1450h409l-739 -1071l-65 -379h-396l68 379l-360 1071h430l145 -459l57 -260l150 260z" />
    <glyph glyph-name="Z" unicode="Z" horiz-adv-x="1372" 
d="M1206 0h-1210l106 606l1176 520l-303 -6h-772l57 330h1198l-106 -598l-1198 -530l313 8h799z" />
    <glyph glyph-name="bracketleft" unicode="[" horiz-adv-x="774" 
d="M918 1563l-52 -295l-286 6l-242 -1380l287 6l-52 -295h-655l346 1958h654z" />
    <glyph glyph-name="backslash" unicode="\" horiz-adv-x="956" 
d="M195 1563h239l346 -1958h-239z" />
    <glyph glyph-name="bracketright" unicode="]" horiz-adv-x="774" 
d="M221 1563h653l-344 -1958h-655l53 295l285 -6l244 1380l-287 -6z" />
    <glyph glyph-name="asciicircum" unicode="^" horiz-adv-x="958" 
d="M854 1450l117 -512h-266l-76 446l-230 -446h-268l299 512h424z" />
    <glyph glyph-name="underscore" unicode="_" horiz-adv-x="1171" 
d="M-37 -31h1047l-45 -262h-1047z" />
    <glyph glyph-name="grave" unicode="`" horiz-adv-x="530" 
d="M238 1563h331l25 -361h-256z" />
    <glyph glyph-name="a" unicode="a" horiz-adv-x="1193" 
d="M1126 258h2l-45 -258q-91 -20 -172 -20q-136 0 -198 51.5t-51 158.5q-62 -102 -167.5 -161.5t-234.5 -59.5q-138 0 -212 72q-73 72 -52 190q40 231 360 285q305 50 367 74l6 41q16 97 -7.5 139.5t-94.5 42.5q-72 0 -112 -46t-58 -149h-351q39 215 199 345
q161 129 383 129q215 0 323 -119q107 -119 72 -318l-49 -272q-14 -83 1 -103q15 -22 91 -22zM469 213q87 0 145.5 49.5t73.5 143.5l2 -3l6 39q-86 -26 -182 -49q-81 -18 -109 -38q-29 -21 -36 -64q-8 -39 16.5 -58.5t83.5 -19.5z" />
    <glyph glyph-name="b" unicode="b" horiz-adv-x="1320" 
d="M924 1092q193 0 285 -155q91 -154 46 -406q-45 -253 -190 -407q-146 -155 -340 -155q-125 0 -208 72t-105 199l-41 -240h-353l275 1563h369l-130 -727q70 122 172 189t220 67zM792 317q58 65 85 214q26 147 -10 214q-36 66 -140 66q-98 0 -155.5 -56.5t-86.5 -179.5
l-14 -88q-14 -125 23.5 -181t134.5 -56q105 0 163 67z" />
    <glyph glyph-name="c" unicode="c" horiz-adv-x="1224" 
d="M793 418h352q-35 -203 -200 -326t-398 -123q-259 0 -393 155q-134 156 -88 406q46 252 232 407q185 155 445 155q233 0 354 -129q120 -129 83 -342h-353q16 100 -15 145t-118 45q-105 0 -164 -66t-88 -215q-25 -148 11 -214t143 -66q168 0 197 168z" />
    <glyph glyph-name="d" unicode="d" horiz-adv-x="1316" 
d="M901 856l125 707h369l-277 -1563h-352l47 270q-70 -142 -179 -221.5t-237 -79.5q-193 0 -285 155q-92 156 -46 406q46 252 191 407q144 155 339 155q117 0 196.5 -61.5t108.5 -174.5zM594 250q105 0 164 66.5t86 214.5q26 147 -9.5 213.5t-142.5 66.5q-104 0 -162.5 -66
t-87.5 -215q-25 -147 11.5 -213.5t140.5 -66.5z" />
    <glyph glyph-name="e" unicode="e" horiz-adv-x="1245" 
d="M735 1092q246 0 372 -138q126 -139 87 -364l-27 -144h-735q-4 -106 36 -155t132 -49q174 0 195 116h352q-32 -175 -198 -281q-167 -108 -410 -108q-257 0 -388 155q-131 156 -85 406q47 252 230 407q184 155 439 155zM467 631l199 4h172q8 96 -28 140t-122 44
q-162 0 -221 -188z" />
    <glyph glyph-name="f" unicode="f" horiz-adv-x="907" 
d="M1049 1296h-230q-64 0 -96.5 -28.5t-44.5 -96.5l-21 -110h347l-52 -279h-344l-137 -782h-367l138 782h-199l51 279h197l26 151q28 165 165 269q136 102 329 102q151 0 285 -20z" />
    <glyph glyph-name="g" unicode="g" horiz-adv-x="1196" 
d="M1343 1282l-47 -270q-182 0 -225 -45q97 -98 68 -250q-32 -171 -191 -274q-160 -105 -403 -105q-133 0 -226 31q-7 -13 -12 -35q-8 -41 19.5 -59.5t99.5 -18.5h360q169 0 258 -82q89 -83 64 -215q-32 -170 -211 -273q-180 -102 -459 -102q-274 0 -420 72t-127 190
q10 60 62 104t127 58q-94 72 -76 180q27 145 203 232q-157 106 -123 297q32 170 190 273q158 102 402 102q161 0 266 -43q35 119 128 176t273 57zM770 717q12 70 -19.5 100.5t-115.5 30.5q-89 0 -129.5 -29.5t-54.5 -101.5q-14 -74 16.5 -104.5t120.5 -30.5q84 0 126 31.5
t56 103.5zM653 -37h-415q-9 -24 -13 -47q-13 -72 36 -96q51 -23 214 -23q160 0 214 19q57 20 67 78q8 39 -14.5 54t-88.5 15z" />
    <glyph glyph-name="h" unicode="h" horiz-adv-x="1312" 
d="M954 1092q168 0 243 -96.5t44 -270.5l-127 -725h-369l105 588q18 106 -10.5 151t-114.5 45q-201 0 -240 -221v2l-100 -565h-367l275 1563h369l-132 -736q75 127 184.5 196t239.5 69z" />
    <glyph glyph-name="i" unicode="i" horiz-adv-x="587" 
d="M225 1229l56 309h387l-54 -309h-389zM18 0l189 1061h366l-186 -1061h-369z" />
    <glyph glyph-name="j" unicode="j" horiz-adv-x="583" 
d="M223 1229l53 309h390l-56 -309h-387zM14 -8l189 1069h368l-194 -1104q-31 -167 -162 -271q-130 -102 -317 -102q-81 0 -152 21l45 266h94q58 0 88.5 28t40.5 93z" />
    <glyph glyph-name="k" unicode="k" horiz-adv-x="1318" 
d="M956 1061h410l-500 -502l387 -559h-469l-235 360l-76 134l-88 -494h-367l275 1563h369l-177 -992l125 138z" />
    <glyph glyph-name="l" unicode="l" horiz-adv-x="655" 
d="M651 1563l-209 -1182q-10 -61 10.5 -88t77.5 -27h54l-47 -266q-85 -20 -187 -20q-157 0 -233 97q-77 97 -49 257l217 1229h366z" />
    <glyph glyph-name="m" unicode="m" horiz-adv-x="2025" 
d="M1669 1092q168 0 243 -95.5t44 -271.5l-129 -725h-367l103 588q18 106 -8.5 151t-108.5 45q-201 0 -240 -221v4l-100 -567h-367l103 588q18 106 -9.5 151t-109.5 45q-199 0 -238 -221v2l-100 -565h-367l187 1061h352l-45 -258q73 136 187 212q115 77 249 77
q145 0 221 -73t72 -208q73 132 184.5 206.5t243.5 74.5z" />
    <glyph glyph-name="n" unicode="n" horiz-adv-x="1312" 
d="M954 1092q168 0 243 -96.5t44 -270.5l-127 -725h-369l105 588q18 106 -10.5 151t-114.5 45q-201 0 -240 -221v2l-100 -565h-367l187 1061h354l-47 -260q72 138 188 214.5t254 76.5z" />
    <glyph glyph-name="o" unicode="o" horiz-adv-x="1286" 
d="M991 124q-187 -155 -446 -155q-260 0 -392 155q-134 155 -87 406q46 252 232 407q185 155 446 155q260 0 391 -155t86 -406q-45 -252 -230 -407zM453 317q36 -67 141 -67t163 67q59 66 87 213q27 146 -9.5 213.5t-141.5 67.5t-164.5 -66.5t-86.5 -214.5q-25 -146 11 -213
z" />
    <glyph glyph-name="p" unicode="p" horiz-adv-x="1320" 
d="M926 1092q192 0 284 -155q90 -155 45 -406q-45 -253 -189 -407q-144 -155 -339 -155q-116 0 -196 61t-109 171l-107 -596h-366l256 1456h352l-49 -277q69 146 178 227t240 81zM794 317q58 65 85 214q25 147 -9 214q-36 66 -141 66q-96 0 -154.5 -55.5t-85.5 -173.5
l-16 -93q-16 -125 21.5 -182t136.5 -57q105 0 163 67z" />
    <glyph glyph-name="q" unicode="q" horiz-adv-x="1320" 
d="M909 821l41 240h355l-258 -1456h-367l111 624q-72 -124 -175 -192t-219 -68q-193 0 -285 155q-92 156 -46 407q45 252 190 406q146 155 340 155q127 0 209 -71t104 -200zM594 250q99 0 155.5 58t86.5 186l12 67q18 132 -18.5 191t-137.5 59q-104 0 -163.5 -66.5
t-86.5 -214.5q-25 -147 11.5 -213.5t140.5 -66.5z" />
    <glyph glyph-name="r" unicode="r" horiz-adv-x="876" 
d="M870 1092q59 0 95 -17l-62 -346h-211q-162 0 -207 -164l-100 -565h-367l187 1061h352l-53 -299q56 151 154 240q99 90 212 90z" />
    <glyph glyph-name="s" unicode="s" horiz-adv-x="1136" 
d="M471 -31q-239 0 -367 100q-129 99 -100 261h352q-10 -63 28 -91t132 -28q164 0 176 78q8 41 -30 64q-37 21 -179 38q-223 23 -316 104t-67 234q27 163 184 263q155 100 382 100q225 0 346 -103t92 -272h-352q10 70 -21 101.5t-110 31.5q-148 0 -164 -82q-10 -45 34 -66
q41 -21 181 -38q237 -26 328 -106q92 -82 67 -228q-27 -162 -191 -261q-164 -100 -405 -100z" />
    <glyph glyph-name="t" unicode="t" horiz-adv-x="942" 
d="M952 782h-348l-69 -391q-10 -69 12 -97t88 -28h227l-45 -266q-143 -20 -295 -20q-190 0 -289 101q-100 100 -71 265l76 436h-199l49 279h201l61 309h359l-56 -309h348z" />
    <glyph glyph-name="u" unicode="u" horiz-adv-x="1302" 
d="M821 492l101 569h366l-186 -1061h-352l41 238q-73 -128 -185.5 -198.5t-247.5 -70.5q-166 0 -239.5 95.5t-42.5 271.5l127 725h368l-104 -588q-18 -106 9.5 -151.5t111.5 -45.5q197 0 233 218v-2z" />
    <glyph glyph-name="v" unicode="v" horiz-adv-x="1239" 
d="M670 428l278 633h375l-475 -1061h-639l-98 1061h383l53 -633l10 -291z" />
    <glyph glyph-name="w" unicode="w" horiz-adv-x="1878" 
d="M1380 428l226 633h356l-399 -1061h-568l2 616l13 236l-70 -236l-215 -616h-584l-24 1061h381l6 -633l-17 -270l76 270l211 633h559l-14 -633l-19 -262z" />
    <glyph glyph-name="x" unicode="x" horiz-adv-x="1292" 
d="M969 1061h405l-405 -537l225 -524h-397l-111 291l-47 180l-123 -180l-223 -291h-406l451 553l-215 508h397l111 -281l41 -151l94 151z" />
    <glyph glyph-name="y" unicode="y" horiz-adv-x="1239" 
d="M670 428l278 633h375l-524 -1172q-63 -140 -197 -223q-134 -82 -305 -82q-139 0 -274 21l47 266h213q150 0 188 90l16 39h-278l-98 1061h383l53 -633l10 -291z" />
    <glyph glyph-name="z" unicode="z" horiz-adv-x="1060" 
d="M895 0h-901l88 498l772 288l-303 -8h-410l52 283h880l-90 -502l-758 -285l289 9h430z" />
    <glyph glyph-name="braceleft" unicode="{" horiz-adv-x="815" 
d="M764 1583q92 0 203 -24l-45 -246h-88q-74 0 -97 -21q-24 -23 -39 -104l-55 -326q-23 -142 -122 -210t-290 -68q187 0 262.5 -69t51.5 -210l-58 -325q-14 -83 2 -104q15 -21 89 -21h88l-43 -246q-115 -25 -211 -25q-195 0 -258 64q-65 65 -33 235l69 398q14 91 -11 123
q-26 32 -109 32h-99l54 295h98q83 0 121 33t51 123l72 397q28 168 116 234q86 65 281 65z" />
    <glyph glyph-name="bar" unicode="|" horiz-adv-x="516" 
d="M-27 -395l346 1958h242l-344 -1958h-244z" />
    <glyph glyph-name="braceright" unicode="}" horiz-adv-x="817" 
d="M766 731h98l-53 -295h-98q-83 0 -121 -32q-36 -32 -53 -123l-70 -398q-28 -168 -116 -234q-88 -65 -281 -65q-100 0 -203 25l43 246h88q75 0 98 20q22 22 35 105l60 325q25 143 123 211t288 68q-191 0 -264.5 66.5t-48.5 211.5l55 326q14 84 0 105q-14 20 -90 20h-88
l45 246q111 25 211 24q195 0 258 -64q63 -65 33 -235l-70 -397q-16 -90 11 -123q26 -33 110 -33z" />
    <glyph glyph-name="asciitilde" unicode="~" horiz-adv-x="1230" 
d="M268 356h-221q32 171 144 280t260 109q85 0 151 -32q68 -35 117 -67q52 -34 112 -34q53 0 91.5 37t46.5 92h221q-33 -177 -143 -283t-261 -106q-128 0 -211 67q-82 66 -169 66q-54 0 -92 -37t-46 -92z" />
    <glyph glyph-name="exclamdown" unicode="&#xa1;" horiz-adv-x="641" 
d="M612 1061l-67 -379h-395l67 379h395zM348 -389h-377l68 379l151 542h265l-39 -542z" />
    <glyph glyph-name="cent" unicode="&#xa2;" horiz-adv-x="1206" 
d="M1214 815h-352q16 101 -15 146t-118 45q-105 0 -164 -66.5t-88 -214.5q-25 -148 11 -214.5t143 -66.5q167 0 196 168h353q-32 -174 -158 -288q-128 -117 -313 -150l-25 -143h-278l26 149q-189 40 -280 187q-91 145 -52 358q39 214 180 359q140 146 345 186l22 133h279
l-23 -129q173 -33 259 -156q85 -122 52 -303z" />
    <glyph glyph-name="sterling" unicode="&#xa3;" horiz-adv-x="1327" 
d="M1341 979h-387q18 103 -15 149t-126 46q-98 0 -149.5 -42t-65.5 -135q-12 -74 33 -188h416l-37 -219h-351q-59 -206 -387 -264l158 4h801l-60 -330h-1183l75 416q109 24 168 65t74 109h-205l37 219h105q-57 116 -37 231q33 198 216 320q182 121 447 121q252 0 382 -138
q130 -139 91 -364z" />
    <glyph glyph-name="currency" unicode="&#xa4;" horiz-adv-x="1411" 
d="M1444 1180l-189 -160q55 -130 25 -301q-32 -171 -129 -301l131 -160l-192 -164l-132 160q-140 -78 -315 -78q-174 0 -287 78l-188 -160l-135 164l186 158q-55 128 -24 303q28 165 131 301l-131 160l192 163l131 -159q140 78 316 78q174 0 288 -78l187 159zM522 528
q58 -73 171 -73q112 0 194 73q82 72 105 191q22 118 -35 192q-59 72 -173 72q-112 0 -195 -72q-84 -75 -106 -192q-20 -119 39 -191z" />
    <glyph glyph-name="yen" unicode="&#xa5;" horiz-adv-x="1458" 
d="M1233 1450h409l-507 -737h211l-39 -215h-320l-69 -99h372l-37 -215h-383l-32 -184h-396l33 184h-385l37 215h377l-33 99h-328l39 215h215l-247 737h430l145 -459l57 -260l150 260z" />
    <glyph glyph-name="brokenbar" unicode="&#xa6;" horiz-adv-x="518" 
d="M426 788h-244l137 775h242zM217 -395h-242l136 774h243z" />
    <glyph glyph-name="section" unicode="&#xa7;" horiz-adv-x="1423" 
d="M1409 983h-387q18 100 -32 145.5t-179 45.5q-231 0 -256 -115q-10 -55 50 -87t249 -65q304 -52 417 -164q111 -113 77 -309l-70 -385q-38 -210 -236 -337q-200 -128 -489 -128q-294 0 -448 136q-156 136 -115 358h387q-18 -98 37 -142.5t196 -44.5q232 0 258 111
q6 35 -6 56q-13 21 -80 46q-69 25 -209 48q-300 51 -416 161q-115 109 -81 305l69 386q39 213 238 345t487 132q281 0 430 -137q148 -138 109 -361zM690 631q-206 34 -350 94l-2 -14q-16 -88 6 -133q21 -46 109 -80q93 -36 282 -70q240 -44 363 -100l4 22q14 80 -6 124
q-21 44 -115 83q-97 40 -291 74z" />
    <glyph glyph-name="dieresis" unicode="&#xa8;" horiz-adv-x="841" 
d="M178 1229l55 309h322l-53 -309h-324zM588 1229l53 309h324l-56 -309h-321z" />
    <glyph glyph-name="copyright" unicode="&#xa9;" horiz-adv-x="1658" 
d="M1330 177q-250 -208 -599 -208q-348 0 -525 208q-176 208 -118 548q58 338 310 548q250 208 600 208q348 0 525 -208q176 -208 118 -548q-60 -339 -311 -548zM760 131q266 0 459 163q193 164 239 431q47 266 -87 430t-402 164q-266 0 -460 -164t-239 -430
q-45 -267 89 -431q133 -163 401 -163zM985 645h272q-27 -153 -148 -244q-122 -92 -296 -92q-193 0 -292 115q-99 116 -66 303q34 186 173 300q138 114 333 114q173 0 261 -96q89 -98 62 -254h-272q23 131 -88 131q-76 0 -118 -46.5t-58 -148.5q-16 -106 7.5 -152.5
t96.5 -46.5q115 0 133 117z" />
    <glyph glyph-name="ordfeminine" unicode="&#xaa;" horiz-adv-x="888" 
d="M862 782h2l-30 -166q-75 -14 -129 -14q-176 0 -164 135q-89 -141 -260 -141q-100 0 -152.5 47t-38.5 123q26 143 254 182q205 38 236 49l4 27q18 104 -68 104q-45 0 -69.5 -26.5t-34.5 -85.5h-248q22 139 133 222q110 83 262 83q150 0 224 -77t51 -206l-31 -174
q-8 -54 2 -67q11 -15 57 -15zM416 760q108 0 137 96l8 43q-34 -11 -115 -29q-52 -13 -70 -25q-18 -11 -24 -36q-4 -25 11.5 -37t52.5 -12z" />
    <glyph glyph-name="guillemotleft" unicode="&#xab;" horiz-adv-x="1140" 
d="M283 915h403l-448 -387l311 -387h-402l-141 185l33 184l39 221zM782 915h404l-449 -387l312 -387h-402l-141 185l33 184l39 221z" />
    <glyph glyph-name="logicalnot" unicode="&#xac;" horiz-adv-x="1081" 
d="M102 674h926l-92 -508l-244 -2l47 264h-682z" />
    <glyph glyph-name="registered" unicode="&#xae;" horiz-adv-x="1040" 
d="M324 1355q152 126 364 126q214 0 320 -126q106 -125 71 -333q-37 -207 -189 -333q-153 -126 -364 -126q-212 0 -318 126q-108 126 -71 333q34 206 187 333zM950 1022q29 155 -49 249q-78 95 -233 95q-154 0 -264 -95q-112 -95 -140 -249q-27 -154 51 -248t232 -94
q157 0 266 94q110 95 137 248zM444 1237h254q72 0 109 -37t27 -98q-13 -75 -76 -115l26 -41l47 -112h-165l-52 127h-73l-23 -127h-145zM641 1128h-70l-12 -69h70q51 0 57 37q2 18 -8 25t-37 7z" />
    <glyph glyph-name="overscore" unicode="&#xaf;" horiz-adv-x="696" 
d="M229 1524h586l-49 -279h-584z" />
    <glyph glyph-name="degree" unicode="&#xb0;" horiz-adv-x="837" 
d="M754 854q-122 -100 -295 -100q-172 0 -259 100q-87 101 -59 264q27 163 151 263t294 100q172 0 260 -100t59 -263q-28 -163 -151 -264zM402 1011q30 -40 94 -40q63 0 109 40t59 107q10 67 -21 107.5t-94 40.5q-64 0 -110 -41t-56 -107q-12 -68 19 -107z" />
    <glyph glyph-name="plusminus" unicode="&#xb1;" horiz-adv-x="1036" 
d="M731 1036l-39 -219h316l-43 -244h-316l-39 -221l-245 -2l38 223h-317l43 244h317l39 219h246zM870 43h-878l43 244h878z" />
    <glyph glyph-name="uni00B2" unicode="&#xb2;" horiz-adv-x="782" 
d="M786 813h-684l62 350l358 92q84 26 96 101q13 88 -65 88q-83 0 -109 -123h-258q26 136 137 219q111 84 267 84t233 -73q78 -74 56 -195q-29 -171 -267 -238l-213 -63l-131 -29l148 2h407z" />
    <glyph glyph-name="uni00B3" unicode="&#xb3;" horiz-adv-x="823" 
d="M903 1409q-27 -146 -256 -162q250 -25 217 -219q-19 -109 -134 -174q-114 -66 -281 -66q-161 0 -243 81q-83 82 -61 210h258q-13 -88 82 -88q113 0 121 72q4 30 -17 45.5t-67 15.5h-106l26 154h101q70 0 84 68q6 38 -10 57t-54 18q-84 0 -100 -90h-260q25 133 132 213
t263 80q152 0 238 -60q85 -61 67 -155z" />
    <glyph glyph-name="acute" unicode="&#xb4;" horiz-adv-x="530" 
d="M174 1202l152 361h331l-227 -361h-256z" />
    <glyph glyph-name="paragraph" unicode="&#xb6;" horiz-adv-x="1736" 
d="M682 1450h1192l-57 -330h-197l-268 -1515h-363l268 1515h-196l-268 -1515h-363l166 938h-76q-210 0 -317 125t-70 330q38 204 188 328q149 124 361 124z" />
    <glyph glyph-name="middot" unicode="&#xb7;" horiz-adv-x="567" 
d="M55 354l70 396h395l-69 -396h-396z" />
    <glyph glyph-name="cedilla" unicode="&#xb8;" horiz-adv-x="544" 
d="M182 -102h21q78 0 118.5 -45.5t26.5 -118.5q-13 -81 -76 -133q-64 -50 -151 -50h-240l27 146h162q49 0 55 37q8 37 -43 37h-143l20 120l66 109h213z" />
    <glyph glyph-name="uni00B9" unicode="&#xb9;" horiz-adv-x="653" 
d="M287 1589h442l-137 -776h-262l78 436l47 240l-129 -119l-244 -188l51 288z" />
    <glyph glyph-name="ordmasculine" unicode="&#xba;" horiz-adv-x="868" 
d="M727 697q-122 -101 -291 -101t-255 101q-85 100 -56 264q28 161 151 261q122 99 289 99t253 -99q85 -100 56 -261q-27 -163 -147 -264zM390 831q19 -40 81 -40t96 40q35 39 51 130q14 84 -8 126t-80 41q-118 0 -147 -167q-14 -90 7 -130z" />
    <glyph glyph-name="guillemotright" unicode="&#xbb;" horiz-adv-x="1140" 
d="M633 731l-29 -168l-43 -237l-205 -185h-403l448 387l-311 387h402zM991 915l142 -184l-29 -168l-43 -237l-205 -185h-403l448 387l-311 387h401z" />
    <glyph glyph-name="onequarter" unicode="&#xbc;" horiz-adv-x="1556" 
d="M-12 0l1382 1450h281l-1383 -1450h-280zM457 1153l41 209l-113 -105l-211 -161l45 254l133 100h387l-118 -676h-232zM1053 676h362l-69 -395h96l-29 -168h-96l-21 -113h-229l20 113h-270l60 346zM895 279l123 2h100l29 165l37 193z" />
    <glyph glyph-name="onehalf" unicode="&#xbd;" horiz-adv-x="1570" 
d="M-12 0l1380 1450h281l-1381 -1450h-280zM461 1153l41 207l-113 -103l-211 -161l45 254l131 100h387l-116 -676h-232zM1245 707q133 0 200 -64q67 -65 50 -170q-25 -147 -231 -207l-187 -57l-112 -25l129 2h354l-33 -186h-596l53 305l314 82q70 18 82 86q13 76 -56 76
q-75 0 -94 -109h-225q22 120 119 194q95 73 233 73z" />
    <glyph glyph-name="threequarters" unicode="&#xbe;" horiz-adv-x="1611" 
d="M403 754q-140 0 -211 70q-73 68 -53 184h226q-13 -78 69 -78q90 0 105 61q8 56 -70 56h-94l24 133h88q55 0 70 57q12 68 -55 68q-72 0 -86 -78h-226q22 113 115 185q91 69 227 69q134 0 207 -52q73 -53 60 -135q-20 -125 -209 -143q203 -27 176 -188q-16 -94 -117 -151
q-100 -58 -246 -58zM33 0l1382 1450h281l-1383 -1450h-280zM1106 676h362l-69 -395h96l-29 -168h-96l-20 -113h-230l21 113h-271l60 346zM946 279l125 2h100l29 165l37 193z" />
    <glyph glyph-name="questiondown" unicode="&#xbf;" horiz-adv-x="1128" 
d="M508 1061h395l-67 -379h-396zM690 102h332q-39 -237 -214 -379q-176 -143 -419 -143q-237 0 -361 115q-125 115 -91 301q51 293 456 395l62 17l37 157h251l-38 -289l-205 -57q-110 -28 -155 -64q-45 -37 -58 -106q-16 -96 19.5 -139t131.5 -43q112 0 172 55.5t80 179.5z
" />
    <glyph glyph-name="Agrave" unicode="&#xc0;" horiz-adv-x="1611" 
d="M1116 1952l25 -361h-256l-101 361h332zM1513 0h-411l-41 328h-569l-158 -328h-402l697 1450h698zM813 1001l-178 -372h389l-47 372l-27 320z" />
    <glyph glyph-name="Aacute" unicode="&#xc1;" horiz-adv-x="1611" 
d="M1018 1952h332l-228 -361h-256zM1513 0h-411l-41 328h-569l-158 -328h-402l697 1450h698zM813 1001l-178 -372h389l-47 372l-27 320z" />
    <glyph glyph-name="Acircumflex" unicode="&#xc2;" horiz-adv-x="1611" 
d="M1130 1591l-69 301l-176 -301h-289l240 361h471l112 -361h-289zM1513 0h-411l-41 328h-569l-158 -328h-402l697 1450h698zM813 1001l-178 -372h389l-47 372l-27 320z" />
    <glyph glyph-name="Atilde" unicode="&#xc3;" horiz-adv-x="1611" 
d="M893 1700q-85 0 -98 -84h-172q59 326 299 326q60 0 139 -44q78 -45 125 -45q86 0 96 84h172q-26 -163 -100 -244.5t-195 -80.5q-60 0 -140 44t-126 44zM1513 0h-411l-41 328h-569l-158 -328h-402l697 1450h698zM813 1001l-178 -372h389l-47 372l-27 320z" />
    <glyph glyph-name="Adieresis" unicode="&#xc4;" horiz-adv-x="1611" 
d="M700 1927h322l-53 -309h-324zM1108 1927h324l-56 -309h-321zM1513 0h-411l-41 328h-569l-158 -328h-402l697 1450h698zM813 1001l-178 -372h389l-47 372l-27 320z" />
    <glyph glyph-name="Aring" unicode="&#xc5;" horiz-adv-x="1611" 
d="M1008 1581q-98 0 -148.5 52.5t-35.5 138.5q14 86 84 138q68 52 167 52q96 0 146.5 -52t36.5 -138q-15 -86 -84 -138q-71 -53 -166 -53zM971 1772q-6 -33 8 -47.5t51 -14.5q68 0 82 62q7 61 -59 61q-75 0 -82 -61zM1513 0h-411l-41 328h-569l-158 -328h-402l697 1450h698z
M813 1001l-178 -372h389l-47 372l-27 320z" />
    <glyph glyph-name="AE" unicode="&#xc6;" horiz-adv-x="2144" 
d="M2222 1450l-57 -330h-795l31 -241h688l-51 -297h-600l32 -252h562l-60 -330h-870l-41 328h-569l-158 -328h-402l697 1450h1593zM813 1001l-178 -372h389l-47 372l-27 320z" />
    <glyph glyph-name="Ccedilla" unicode="&#xc7;" horiz-adv-x="1544" 
d="M1544 893h-387q23 129 -34.5 188.5t-207.5 59.5q-172 0 -268 -98q-96 -99 -135 -318t22.5 -319.5t233.5 -100.5q150 0 227.5 53.5t100.5 171.5h387q-44 -237 -228 -385q-187 -150 -454 -172l-41 -75h20q78 0 119 -45.5t27 -118.5q-13 -81 -77 -133q-64 -50 -151 -50h-239
l26 146h162q49 0 55 37q8 37 -43 37h-143l21 120l51 86q-272 39 -402 241q-131 203 -77 507q58 338 298 548q238 208 568 208q299 0 457 -161q157 -160 112 -427z" />
    <glyph glyph-name="Egrave" unicode="&#xc8;" horiz-adv-x="1312" 
d="M983 1952l25 -361h-256l-101 361h332zM1391 1450l-58 -330h-698l-43 -241h665l-51 -297h-665l-45 -252h704l-59 -330h-1098l256 1450h1092z" />
    <glyph glyph-name="Eacute" unicode="&#xc9;" horiz-adv-x="1312" 
d="M883 1952h331l-227 -361h-256zM1391 1450l-58 -330h-698l-43 -241h665l-51 -297h-665l-45 -252h704l-59 -330h-1098l256 1450h1092z" />
    <glyph glyph-name="Ecircumflex" unicode="&#xca;" horiz-adv-x="1312" 
d="M997 1591l-69 301l-176 -301h-289l239 361h472l112 -361h-289zM1391 1450l-58 -330h-698l-43 -241h665l-51 -297h-665l-45 -252h704l-59 -330h-1098l256 1450h1092z" />
    <glyph glyph-name="Edieresis" unicode="&#xcb;" horiz-adv-x="1312" 
d="M565 1927h322l-53 -309h-324zM973 1927h323l-55 -309h-321zM1391 1450l-58 -330h-698l-43 -241h665l-51 -297h-665l-45 -252h704l-59 -330h-1098l256 1450h1092z" />
    <glyph glyph-name="Igrave" unicode="&#xcc;" horiz-adv-x="667" 
d="M299 1952h332l24 -361h-256zM43 0l256 1450h393l-254 -1450h-395z" />
    <glyph glyph-name="Iacute" unicode="&#xcd;" horiz-adv-x="667" 
d="M381 1591l151 361h332l-227 -361h-256zM43 0l256 1450h393l-254 -1450h-395z" />
    <glyph glyph-name="Icircumflex" unicode="&#xce;" horiz-adv-x="667" 
d="M645 1591l-70 301l-176 -301h-288l239 361h471l113 -361h-289zM438 0h-395l256 1450h393z" />
    <glyph glyph-name="Idieresis" unicode="&#xcf;" horiz-adv-x="667" 
d="M160 1618l55 309h322l-54 -309h-323zM569 1618l54 309h323l-55 -309h-322zM43 0l256 1450h393l-254 -1450h-395z" />
    <glyph glyph-name="Eth" unicode="&#xd0;" horiz-adv-x="1597" 
d="M299 1450h647q332 0 501 -199t112 -526q-59 -325 -297 -525q-239 -200 -572 -200h-647l104 596h-153l47 264h154zM1155 725q68 395 -283 395h-237l-45 -260h268l-47 -264h-268l-49 -274h239q350 0 422 403z" />
    <glyph glyph-name="Ntilde" unicode="&#xd1;" horiz-adv-x="1722" 
d="M952 1700q-84 0 -98 -84h-172q59 326 299 326q60 0 139 -44q78 -45 125 -45q85 0 96 84h172q-26 -163 -99.5 -244.5t-194.5 -80.5q-60 0 -140 44t-127 44zM1231 727l127 723h389l-254 -1450h-688l-158 1300l-86 -567l-129 -733h-389l256 1450h690l158 -1276z" />
    <glyph glyph-name="Ograve" unicode="&#xd2;" horiz-adv-x="1650" 
d="M791 1952h331l25 -361h-256zM1309 177q-244 -208 -582 -208q-339 0 -508 208q-170 209 -110 548q58 339 303 548q242 208 581 208t508 -208t111 -548q-60 -339 -303 -548zM539 406q65 -101 248 -101q181 0 282 101q100 100 139 319q39 218 -26 318q-66 98 -248 98
q-181 0 -282 -98q-101 -100 -140 -318q-39 -219 27 -319z" />
    <glyph glyph-name="Oacute" unicode="&#xd3;" horiz-adv-x="1650" 
d="M872 1591l152 361h332l-228 -361h-256zM1309 177q-244 -208 -582 -208q-339 0 -508 208q-170 209 -110 548q58 339 303 548q242 208 581 208t508 -208t111 -548q-60 -339 -303 -548zM539 406q65 -101 248 -101q181 0 282 101q100 100 139 319q39 218 -26 318
q-66 98 -248 98q-181 0 -282 -98q-101 -100 -140 -318q-39 -219 27 -319z" />
    <glyph glyph-name="Ocircumflex" unicode="&#xd4;" horiz-adv-x="1650" 
d="M1137 1591l-70 301l-176 -301h-289l240 361h471l112 -361h-288zM412 1273q242 208 581 208t508 -208t111 -548q-60 -339 -303 -548q-244 -208 -582 -208q-339 0 -508 208q-170 209 -110 548q58 339 303 548zM1069 406q100 100 139 319q39 218 -26 318q-66 98 -248 98
q-181 0 -282 -98q-101 -100 -140 -318q-39 -219 27 -319q65 -101 248 -101q181 0 282 101z" />
    <glyph glyph-name="Otilde" unicode="&#xd5;" horiz-adv-x="1650" 
d="M1165 1612q-60 0 -140 44t-126 44q-85 0 -98 -84h-172q59 326 299 326q60 0 139 -44q78 -45 125 -45q86 0 96 84h172q-52 -325 -295 -325zM1309 177q-244 -208 -582 -208q-339 0 -508 208q-170 209 -110 548q58 339 303 548q242 208 581 208t508 -208t111 -548
q-60 -339 -303 -548zM539 406q65 -101 248 -101q181 0 282 101q100 100 139 319q39 218 -26 318q-66 98 -248 98q-181 0 -282 -98q-101 -100 -140 -318q-39 -219 27 -319z" />
    <glyph glyph-name="Odieresis" unicode="&#xd6;" horiz-adv-x="1650" 
d="M651 1618l56 309h321l-53 -309h-324zM1061 1618l53 309h324l-56 -309h-321zM1309 177q-244 -208 -582 -208q-339 0 -508 208q-170 209 -110 548q58 339 303 548q242 208 581 208t508 -208t111 -548q-60 -339 -303 -548zM539 406q65 -101 248 -101q181 0 282 101
q100 100 139 319q39 218 -26 318q-66 98 -248 98q-181 0 -282 -98q-101 -100 -140 -318q-39 -219 27 -319z" />
    <glyph glyph-name="multiply" unicode="&#xd7;" horiz-adv-x="976" 
d="M813 954l133 -159l-293 -250l205 -248l-188 -160l-205 248l-293 -248l-135 158l295 252l-207 250l188 159l207 -249z" />
    <glyph glyph-name="Oslash" unicode="&#xd8;" horiz-adv-x="1650" 
d="M1323 1563h365l-207 -267q197 -212 131 -571q-58 -339 -303 -548q-244 -208 -582 -208q-143 0 -254 39l-115 -147h-364l237 303q-184 206 -122 561q58 339 303 548q242 208 581 208q125 0 240 -33zM512 725q-23 -132 -10 -213l489 627q-24 2 -57 2q-181 0 -282 -98
q-101 -100 -140 -318zM1208 725q26 141 6 233l-505 -649q44 -4 77 -4q182 0 282.5 100.5t139.5 319.5z" />
    <glyph glyph-name="Ugrave" unicode="&#xd9;" horiz-adv-x="1564" 
d="M745 1952h332l25 -361h-256zM121 520l166 930h393l-158 -889q-23 -133 29.5 -192.5t192.5 -59.5q139 0 211.5 59.5t95.5 192.5l157 889h394l-164 -930q-44 -248 -251 -399q-209 -152 -505 -152q-294 0 -449 152t-112 399z" />
    <glyph glyph-name="Uacute" unicode="&#xda;" horiz-adv-x="1564" 
d="M827 1591l152 361h332l-228 -361h-256zM121 520l166 930h393l-158 -889q-23 -133 29.5 -192.5t192.5 -59.5q139 0 211.5 59.5t95.5 192.5l157 889h394l-164 -930q-44 -248 -251 -399q-209 -152 -505 -152q-294 0 -449 152t-112 399z" />
    <glyph glyph-name="Ucircumflex" unicode="&#xdb;" horiz-adv-x="1564" 
d="M1092 1591l-70 301l-176 -301h-289l240 361h471l112 -361h-288zM1051 561l157 889h394l-164 -930q-44 -248 -251 -399q-209 -152 -505 -152q-294 0 -449 152t-112 399l166 930h393l-158 -889q-23 -133 29.5 -192.5t192.5 -59.5q139 0 211.5 59.5t95.5 192.5z" />
    <glyph glyph-name="Udieresis" unicode="&#xdc;" horiz-adv-x="1564" 
d="M606 1618l56 309h321l-53 -309h-324zM1016 1618l53 309h324l-56 -309h-321zM121 520l166 930h393l-158 -889q-23 -133 29.5 -192.5t192.5 -59.5q139 0 211.5 59.5t95.5 192.5l157 889h394l-164 -930q-44 -248 -251 -399q-209 -152 -505 -152q-294 0 -449 152t-112 399z
" />
    <glyph glyph-name="Yacute" unicode="&#xdd;" horiz-adv-x="1458" 
d="M948 1952h332l-227 -361h-256zM1233 1450h409l-739 -1071l-65 -379h-396l68 379l-360 1071h430l145 -459l57 -260l150 260z" />
    <glyph glyph-name="Thorn" unicode="&#xde;" horiz-adv-x="1382" 
d="M651 1221h363q210 0 317 -134q105 -135 66 -356q-41 -221 -195 -356t-371 -135h-352l-41 -240h-395l256 1450h393zM925 590q53 45 69 141q16 95 -19 140q-35 44 -131 44h-246l-63 -370h243q94 0 147 45z" />
    <glyph glyph-name="germandbls" unicode="&#xdf;" horiz-adv-x="1497" 
d="M1157 866q-88 -43 -113 -64q-26 -23 -32 -52q-4 -31 20 -49.5t90 -32.5q377 -77 326 -349q-28 -157 -175 -254q-147 -96 -358 -96q-205 0 -312 99q-107 98 -79 260h336q-10 -66 12.5 -94.5t85.5 -28.5q100 0 117 78q6 41 -21 64q-29 23 -128 42q-331 70 -291 307
q20 115 89 196t202 146q82 39 118 71q33 30 39 65q10 63 -36.5 92.5t-159.5 29.5q-143 0 -216 -45t-89 -143l-195 -1108h-369l207 1171q33 189 228 304q194 116 481 116q267 0 412 -109q146 -110 114 -288q-18 -102 -90.5 -179.5t-212.5 -148.5z" />
    <glyph glyph-name="agrave" unicode="&#xe0;" horiz-adv-x="1193" 
d="M823 1563l25 -361h-256l-100 361h331zM1126 258h2l-45 -258q-91 -20 -172 -20q-136 0 -198 51.5t-51 158.5q-62 -102 -167.5 -161.5t-234.5 -59.5q-138 0 -212 72q-73 72 -52 190q40 231 360 285q305 50 367 74l6 41q16 97 -7.5 139.5t-94.5 42.5q-72 0 -112 -46
t-58 -149h-351q39 215 199 345q161 129 383 129q215 0 323 -119q107 -119 72 -318l-49 -272q-14 -83 1 -103q15 -22 91 -22zM469 213q87 0 145.5 49.5t73.5 143.5l2 -3l6 39q-86 -26 -182 -49q-81 -18 -109 -38q-29 -21 -36 -64q-8 -39 16.5 -58.5t83.5 -19.5z" />
    <glyph glyph-name="aacute" unicode="&#xe1;" horiz-adv-x="1193" 
d="M721 1563h332l-228 -361h-256zM1126 258h2l-45 -258q-91 -20 -172 -20q-136 0 -198 51.5t-51 158.5q-62 -102 -167.5 -161.5t-234.5 -59.5q-138 0 -212 72q-73 72 -52 190q40 231 360 285q305 50 367 74l6 41q16 97 -7.5 139.5t-94.5 42.5q-72 0 -112 -46t-58 -149h-351
q39 215 199 345q161 129 383 129q215 0 323 -119q107 -119 72 -318l-49 -272q-14 -83 1 -103q15 -22 91 -22zM469 213q87 0 145.5 49.5t73.5 143.5l2 -3l6 39q-86 -26 -182 -49q-81 -18 -109 -38q-29 -21 -36 -64q-8 -39 16.5 -58.5t83.5 -19.5z" />
    <glyph glyph-name="acircumflex" unicode="&#xe2;" horiz-adv-x="1193" 
d="M834 1202l-70 301l-176 -301h-289l240 361h471l112 -361h-288zM1126 258h2l-45 -258q-91 -20 -172 -20q-136 0 -198 51.5t-51 158.5q-62 -102 -167.5 -161.5t-234.5 -59.5q-138 0 -212 72q-73 72 -52 190q40 231 360 285q305 50 367 74l6 41q16 97 -7.5 139.5t-94.5 42.5
q-72 0 -112 -46t-58 -149h-351q39 215 199 345q161 129 383 129q215 0 323 -119q107 -119 72 -318l-49 -272q-14 -83 1 -103q15 -22 91 -22zM469 213q87 0 145.5 49.5t73.5 143.5l2 -3l6 39q-86 -26 -182 -49q-81 -18 -109 -38q-29 -21 -36 -64q-8 -39 16.5 -58.5
t83.5 -19.5z" />
    <glyph glyph-name="atilde" unicode="&#xe3;" horiz-adv-x="1193" 
d="M596 1311q-85 0 -98 -84h-172q29 163 104 244.5t195 80.5q60 0 139 -44t125 -44q85 0 96 84h172q-26 -163 -100 -244.5t-195 -80.5q-60 0 -140 44t-126 44zM1083 655l-49 -272q-14 -83 2 -103q15 -22 90 -22h2l-45 -258q-91 -20 -172 -20q-136 0 -198 51.5t-51 158.5
q-62 -102 -167.5 -161.5t-234.5 -59.5q-138 0 -212 72q-73 72 -52 190q40 231 360 285q305 50 367 74l6 41q16 97 -7.5 139.5t-94.5 42.5q-72 0 -112 -46t-58 -149h-351q39 215 199 345q161 129 383 129q215 0 323 -119q107 -119 72 -318zM469 213q87 0 145.5 49.5
t73.5 143.5l2 -3l6 39q-86 -26 -182 -49q-81 -18 -109 -38q-29 -21 -36 -64q-8 -39 16.5 -58.5t83.5 -19.5z" />
    <glyph glyph-name="adieresis" unicode="&#xe4;" horiz-adv-x="1193" 
d="M403 1538h322l-53 -309h-324zM811 1538h324l-56 -309h-321zM1083 655l-49 -272q-14 -83 2 -103q15 -22 90 -22h2l-45 -258q-91 -20 -172 -20q-136 0 -198 51.5t-51 158.5q-62 -102 -167.5 -161.5t-234.5 -59.5q-138 0 -212 72q-73 72 -52 190q40 231 360 285
q305 50 367 74l6 41q16 97 -7.5 139.5t-94.5 42.5q-72 0 -112 -46t-58 -149h-351q39 215 199 345q161 129 383 129q215 0 323 -119q107 -119 72 -318zM469 213q87 0 145.5 49.5t73.5 143.5l2 -3l6 39q-86 -26 -182 -49q-81 -18 -109 -38q-29 -21 -36 -64q-8 -39 16.5 -58.5
t83.5 -19.5z" />
    <glyph glyph-name="aring" unicode="&#xe5;" horiz-adv-x="1193" 
d="M711 1192q-98 0 -148.5 52t-35.5 138q14 87 84 139q68 52 167 52q96 0 146.5 -52.5t36.5 -138.5q-15 -86 -84 -138q-70 -52 -166 -52zM674 1382q-6 -33 8 -47t51 -14q69 0 82 61q7 61 -59 62q-75 -2 -82 -62zM1126 258h2l-45 -258q-91 -20 -172 -20q-136 0 -198 51.5
t-51 158.5q-62 -102 -167.5 -161.5t-234.5 -59.5q-138 0 -212 72q-73 72 -52 190q40 231 360 285q305 50 367 74l6 41q16 97 -7.5 139.5t-94.5 42.5q-72 0 -112 -46t-58 -149h-351q39 215 199 345q161 129 383 129q215 0 323 -119q107 -119 72 -318l-49 -272q-14 -83 1 -103
q15 -22 91 -22zM469 213q87 0 145.5 49.5t73.5 143.5l2 -3l6 39q-86 -26 -182 -49q-81 -18 -109 -38q-29 -21 -36 -64q-8 -39 16.5 -58.5t83.5 -19.5z" />
    <glyph glyph-name="ae" unicode="&#xe6;" horiz-adv-x="1892" 
d="M1382 1092q246 0 372 -138q126 -139 87 -364l-26 -144h-736q-4 -106 36 -155t132 -49q169 0 195 114l352 2q-32 -175 -197 -281q-167 -108 -411 -108q-162 0 -273.5 66.5t-158.5 189.5q-62 -114 -184 -185q-120 -71 -273 -71q-159 0 -242 72q-82 71 -59 190
q40 229 364 285q305 50 367 74l6 41q16 96 -8.5 139t-93.5 43q-72 0 -112 -46t-58 -149h-350q38 214 198 344t383 130q205 0 301 -127q166 127 389 127zM1114 631l199 4h172q8 96 -28 140t-122 44q-162 0 -221 -188zM473 213q87 0 145.5 49.5t73.5 143.5h2l6 34
q-42 -14 -182 -47q-86 -19 -114 -39q-29 -20 -35 -63q-8 -39 17.5 -58.5t86.5 -19.5z" />
    <glyph glyph-name="ccedilla" unicode="&#xe7;" horiz-adv-x="1224" 
d="M1180 621h-353q16 100 -15 145t-118 45q-105 0 -164 -66t-88 -215q-25 -148 11 -214t143 -66q168 0 197 168h352q-33 -185 -172 -303q-141 -120 -342 -142l-41 -75h20q78 0 119 -45.5t27 -118.5q-13 -81 -77 -133q-64 -50 -151 -50h-239l26 146h162q49 0 55 37
q8 37 -43 37h-143l21 120l53 89q-201 38 -297 184q-96 147 -57 366q46 252 232 407q185 155 445 155q233 0 354 -129q120 -129 83 -342z" />
    <glyph glyph-name="egrave" unicode="&#xe8;" horiz-adv-x="1245" 
d="M866 1563l25 -361h-256l-100 361h331zM735 1092q246 0 372 -138q126 -139 87 -364l-27 -144h-735q-4 -106 36 -155t132 -49q174 0 195 116h352q-32 -175 -198 -281q-167 -108 -410 -108q-257 0 -388 155q-131 156 -85 406q47 252 230 407q184 155 439 155zM467 631l199 4
h172q8 96 -28 140t-122 44q-162 0 -221 -188z" />
    <glyph glyph-name="eacute" unicode="&#xe9;" horiz-adv-x="1245" 
d="M764 1563h332l-228 -361h-256zM735 1092q246 0 372 -138q126 -139 87 -364l-27 -144h-735q-4 -106 36 -155t132 -49q174 0 195 116h352q-32 -175 -198 -281q-167 -108 -410 -108q-257 0 -388 155q-131 156 -85 406q47 252 230 407q184 155 439 155zM467 631l199 4h172
q8 96 -28 140t-122 44q-162 0 -221 -188z" />
    <glyph glyph-name="ecircumflex" unicode="&#xea;" horiz-adv-x="1245" 
d="M879 1202l-70 301l-176 -301h-289l240 361h471l112 -361h-288zM735 1092q246 0 372 -138q126 -139 87 -364l-27 -144h-735q-4 -106 36 -155t132 -49q174 0 195 116h352q-32 -175 -198 -281q-167 -108 -410 -108q-257 0 -388 155q-131 156 -85 406q47 252 230 407
q184 155 439 155zM467 631l199 4h172q8 96 -28 140t-122 44q-162 0 -221 -188z" />
    <glyph glyph-name="edieresis" unicode="&#xeb;" horiz-adv-x="1245" 
d="M446 1538h322l-53 -309h-324zM854 1538h324l-56 -309h-321zM735 1092q246 0 372 -138q126 -139 87 -364l-27 -144h-735q-4 -106 36 -155t132 -49q174 0 195 116h352q-32 -175 -198 -281q-167 -108 -410 -108q-257 0 -388 155q-131 156 -85 406q47 252 230 407
q184 155 439 155zM467 631l199 4h172q8 96 -28 140t-122 44q-162 0 -221 -188z" />
    <glyph glyph-name="igrave" unicode="&#xec;" horiz-adv-x="583" 
d="M195 1563h331l25 -361h-256zM18 0l187 1061h368l-188 -1061h-367z" />
    <glyph glyph-name="iacute" unicode="&#xed;" horiz-adv-x="583" 
d="M272 1202l152 361h332l-228 -361h-256zM18 0l187 1061h368l-188 -1061h-367z" />
    <glyph glyph-name="icircumflex" unicode="&#xee;" horiz-adv-x="583" 
d="M537 1202l-70 301l-176 -301h-289l240 361h471l112 -361h-288zM385 0h-367l187 1061h368z" />
    <glyph glyph-name="idieresis" unicode="&#xef;" horiz-adv-x="583" 
d="M51 1229l55 309h322l-53 -309h-324zM461 1229l53 309h324l-56 -309h-321zM18 0l187 1061h368l-188 -1061h-367z" />
    <glyph glyph-name="eth" unicode="&#xf0;" horiz-adv-x="1255" 
d="M1178 1579l-166 -149q156 -102 219 -283t24 -414q-62 -344 -261 -554q-201 -210 -468 -210q-250 0 -378 153t-85 400q41 219 188 353q145 133 347 133q127 0 211 -59.5t111 -166.5l6 33q29 165 -4 242q-33 78 -150 108l-98 -90h-281l135 121l-237 25l65 372l387 -61
q47 -6 84 -19l70 66h281zM453 318q36 -64 139 -64q102 0 160 64q56 62 82 206q27 134 -7.5 195t-136.5 61q-105 0 -165 -62t-83 -196q-25 -140 11 -204z" />
    <glyph glyph-name="ntilde" unicode="&#xf1;" horiz-adv-x="1312" 
d="M680 1311q-84 0 -98 -84h-172q29 163 104 244.5t195 80.5q60 0 139 -44t125 -44q85 0 96 84h172q-26 -163 -100 -244.5t-195 -80.5q-60 0 -140 44t-126 44zM954 1092q168 0 243 -96.5t44 -270.5l-127 -725h-369l105 588q18 106 -10.5 151t-114.5 45q-201 0 -240 -221v2
l-100 -565h-367l187 1061h354l-47 -260q72 138 188 214.5t254 76.5z" />
    <glyph glyph-name="ograve" unicode="&#xf2;" horiz-adv-x="1286" 
d="M543 1563h331l25 -361h-256zM991 124q-187 -155 -446 -155q-260 0 -392 155q-134 155 -87 406q46 252 232 407q185 155 446 155q260 0 391 -155t86 -406q-45 -252 -230 -407zM453 317q36 -67 141 -67t163 67q59 66 87 213q27 146 -9.5 213.5t-141.5 67.5t-164.5 -66.5
t-86.5 -214.5q-25 -146 11 -213z" />
    <glyph glyph-name="oacute" unicode="&#xf3;" horiz-adv-x="1286" 
d="M621 1202l151 361h332l-227 -361h-256zM991 124q-187 -155 -446 -155q-260 0 -392 155q-134 155 -87 406q46 252 232 407q185 155 446 155q260 0 391 -155t86 -406q-45 -252 -230 -407zM453 317q36 -67 141 -67t163 67q59 66 87 213q27 146 -9.5 213.5t-141.5 67.5
t-164.5 -66.5t-86.5 -214.5q-25 -146 11 -213z" />
    <glyph glyph-name="ocircumflex" unicode="&#xf4;" horiz-adv-x="1286" 
d="M885 1202l-70 301l-176 -301h-289l240 361h471l113 -361h-289zM298 937q185 155 446 155q260 0 391 -155t86 -406q-45 -252 -230 -407q-187 -155 -446 -155q-260 0 -392 155q-134 155 -87 406q46 252 232 407zM844 530q27 146 -9.5 213.5t-141.5 67.5t-164.5 -66.5
t-86.5 -214.5q-25 -147 11 -213.5t141 -66.5q104 0 162.5 66t87.5 214z" />
    <glyph glyph-name="otilde" unicode="&#xf5;" horiz-adv-x="1286" 
d="M913 1223q-60 0 -140 44t-126 44q-85 0 -98 -84h-172q29 163 104 244.5t195 80.5q60 0 139 -44t125 -44q86 0 96 84h172q-52 -325 -295 -325zM991 124q-187 -155 -446 -155q-260 0 -392 155q-134 155 -87 406q46 252 232 407q185 155 446 155q260 0 391 -155t86 -406
q-45 -252 -230 -407zM453 317q36 -67 141 -67t163 67q59 66 87 213q27 146 -9.5 213.5t-141.5 67.5t-164.5 -66.5t-86.5 -214.5q-25 -146 11 -213z" />
    <glyph glyph-name="odieresis" unicode="&#xf6;" horiz-adv-x="1286" 
d="M399 1229l56 309h321l-53 -309h-324zM809 1229l53 309h324l-56 -309h-321zM991 124q-187 -155 -446 -155q-260 0 -392 155q-134 155 -87 406q46 252 232 407q185 155 446 155q260 0 391 -155t86 -406q-45 -252 -230 -407zM453 317q36 -67 141 -67t163 67q59 66 87 213
q27 146 -9.5 213.5t-141.5 67.5t-164.5 -66.5t-86.5 -214.5q-25 -146 11 -213z" />
    <glyph glyph-name="divide" unicode="&#xf7;" horiz-adv-x="1046" 
d="M430 770l47 264h273l-48 -264h-272zM102 670h891l-43 -246h-891zM301 43l47 264h273l-46 -264h-274z" />
    <glyph glyph-name="oslash" unicode="&#xf8;" horiz-adv-x="1286" 
d="M1085 1188h244l-207 -238q146 -154 99 -420q-45 -251 -230 -406q-187 -155 -446 -155q-136 0 -238 43l-135 -155h-246l230 264q-135 156 -90 409q46 252 232 407q185 155 445 155q121 0 226 -39zM442 530q-5 -28 -10 -92l320 367q-28 6 -60 6q-104 0 -163.5 -67
t-86.5 -214zM844 530q10 50 10 113l-332 -383q33 -10 72 -10q104 0 162.5 66t87.5 214z" />
    <glyph glyph-name="ugrave" unicode="&#xf9;" horiz-adv-x="1302" 
d="M879 1563l24 -361h-256l-100 361h332zM821 492l101 569h366l-186 -1061h-352l41 238q-73 -128 -185.5 -198.5t-247.5 -70.5q-166 0 -239.5 95.5t-42.5 271.5l127 725h368l-104 -588q-18 -106 9.5 -151.5t111.5 -45.5q197 0 233 218v-2z" />
    <glyph glyph-name="uacute" unicode="&#xfa;" horiz-adv-x="1302" 
d="M776 1563h332l-227 -361h-256zM821 492l101 569h366l-186 -1061h-352l41 238q-73 -128 -185.5 -198.5t-247.5 -70.5q-166 0 -239.5 95.5t-42.5 271.5l127 725h368l-104 -588q-18 -106 9.5 -151.5t111.5 -45.5q197 0 233 218v-2z" />
    <glyph glyph-name="ucircumflex" unicode="&#xfb;" horiz-adv-x="1302" 
d="M889 1202l-70 301l-176 -301h-289l240 361h471l113 -361h-289zM821 492l101 569h366l-186 -1061h-352l41 238q-73 -128 -185.5 -198.5t-247.5 -70.5q-166 0 -239.5 95.5t-42.5 271.5l127 725h368l-104 -588q-18 -106 9.5 -151.5t111.5 -45.5q197 0 233 218v-2z" />
    <glyph glyph-name="udieresis" unicode="&#xfc;" horiz-adv-x="1302" 
d="M459 1538h321l-53 -309h-324zM866 1538h324l-55 -309h-322zM821 492l101 569h366l-186 -1061h-352l41 238q-73 -128 -185.5 -198.5t-247.5 -70.5q-166 0 -239.5 95.5t-42.5 271.5l127 725h368l-104 -588q-18 -106 9.5 -151.5t111.5 -45.5q197 0 233 218v-2z" />
    <glyph glyph-name="yacute" unicode="&#xfd;" horiz-adv-x="1239" 
d="M748 1563h331l-227 -361h-256zM670 428l278 633h375l-524 -1172q-63 -140 -197 -223q-134 -82 -305 -82q-139 0 -274 21l47 266h213q150 0 188 90l16 39h-278l-98 1061h383l53 -633l10 -291z" />
    <glyph glyph-name="thorn" unicode="&#xfe;" horiz-adv-x="1320" 
d="M924 1092q193 0 285 -155q91 -154 46 -406q-45 -253 -190 -407q-146 -155 -340 -155q-117 0 -195.5 60.5t-109.5 171.5l-111 -633h-368l352 1995h352l-137 -775q70 144 179 224t237 80zM793 317q59 67 86 214q25 147 -9 214q-36 66 -141 66t-164 -66.5t-85 -213.5
q-27 -148 9 -214q34 -67 140 -67q104 0 164 67z" />
    <glyph glyph-name="ydieresis" unicode="&#xff;" horiz-adv-x="1239" 
d="M430 1538h322l-54 -309h-323zM838 1538h323l-55 -309h-322zM670 428l278 633h375l-524 -1172q-63 -140 -197 -223q-134 -82 -305 -82q-139 0 -274 21l47 266h213q150 0 188 90l16 39h-278l-98 1061h383l53 -633l10 -291z" />
    <glyph glyph-name="Amacron" unicode="&#x100;" horiz-adv-x="1611" 
d="M770 1913h586l-49 -279h-584zM1513 0h-411l-41 328h-569l-158 -328h-402l697 1450h698zM813 1001l-178 -372h389l-47 372l-27 320z" />
    <glyph glyph-name="amacron" unicode="&#x101;" horiz-adv-x="1193" 
d="M473 1524h586l-49 -279h-584zM1126 258h2l-45 -258q-91 -20 -172 -20q-136 0 -198 51.5t-51 158.5q-62 -102 -167.5 -161.5t-234.5 -59.5q-138 0 -212 72q-73 72 -52 190q40 231 360 285q305 50 367 74l6 41q16 97 -7.5 139.5t-94.5 42.5q-72 0 -112 -46t-58 -149h-351
q39 215 199 345q161 129 383 129q215 0 323 -119q107 -119 72 -318l-49 -272q-14 -83 1 -103q15 -22 91 -22zM469 213q87 0 145.5 49.5t73.5 143.5l2 -3l6 39q-86 -26 -182 -49q-81 -18 -109 -38q-29 -21 -36 -64q-8 -39 16.5 -58.5t83.5 -19.5z" />
    <glyph glyph-name="Abreve" unicode="&#x102;" horiz-adv-x="1611" 
d="M1269 1675q-106 -94 -261 -94q-156 0 -228 93q-73 92 -41 278h230q-16 -82 2 -119t74 -37q55 0 85 36.5t48 119.5h229q-33 -184 -138 -277zM1513 0h-411l-41 328h-569l-158 -328h-402l697 1450h698zM813 1001l-178 -372h389l-47 372l-27 320z" />
    <glyph glyph-name="abreve" unicode="&#x103;" horiz-adv-x="1193" 
d="M972 1286q-106 -94 -261 -94q-156 0 -228 93q-73 92 -41 278h230q-16 -82 2 -119t74 -37q55 0 85 36.5t48 119.5h229q-33 -184 -138 -277zM1126 258h2l-45 -258q-91 -20 -172 -20q-136 0 -198 51.5t-51 158.5q-62 -102 -167.5 -161.5t-234.5 -59.5q-138 0 -212 72
q-73 72 -52 190q40 231 360 285q305 50 367 74l6 41q16 97 -7.5 139.5t-94.5 42.5q-72 0 -112 -46t-58 -149h-351q39 215 199 345q161 129 383 129q215 0 323 -119q107 -119 72 -318l-49 -272q-14 -83 1 -103q15 -22 91 -22zM469 213q87 0 145.5 49.5t73.5 143.5l2 -3l6 39
q-86 -26 -182 -49q-81 -18 -109 -38q-29 -21 -36 -64q-8 -39 16.5 -58.5t83.5 -19.5z" />
    <glyph glyph-name="Aogonek" unicode="&#x104;" horiz-adv-x="1611" 
d="M1337 0l-127 -139q-37 -39 -39 -62q-4 -18 7.5 -28.5t38.5 -10.5h102l-37 -209h-283q-79 0 -114 37.5t-25 102.5q17 77 86 149l154 160h2l-41 328h-569l-158 -328h-402l697 1450h698l186 -1450h-176zM813 1001l-178 -372h389l-47 372l-27 320z" />
    <glyph glyph-name="aogonek" unicode="&#x105;" horiz-adv-x="1193" 
d="M1028 -10l-117 -129q-37 -39 -39 -62q-4 -18 7.5 -28.5t38.5 -10.5h102l-37 -209h-283q-79 0 -114 37.5t-25 102.5q17 77 86 149l146 152q-145 40 -131 198q-62 -102 -167.5 -161.5t-234.5 -59.5q-138 0 -212 72q-73 72 -52 190q40 231 360 285q305 50 367 74l6 41
q16 97 -7.5 139.5t-94.5 42.5q-72 0 -112 -46t-58 -149h-351q39 215 199 345q161 129 383 129q215 0 323 -119q107 -119 72 -318l-49 -272q-14 -83 2 -103q15 -22 90 -22h2l-45 -258zM469 213q87 0 145.5 49.5t73.5 143.5l2 -3l6 39q-86 -26 -182 -49q-81 -18 -109 -38
q-29 -21 -36 -64q-8 -39 16.5 -58.5t83.5 -19.5z" />
    <glyph glyph-name="Cacute" unicode="&#x106;" horiz-adv-x="1544" 
d="M852 1591l152 361h331l-227 -361h-256zM214 177q-165 208 -105 548q58 338 298 548q238 208 568 208q299 0 457 -161q157 -160 112 -427h-387q23 129 -34.5 188.5t-207.5 59.5q-172 0 -268 -98q-96 -99 -135 -318t22.5 -319.5t233.5 -100.5q150 0 227.5 53.5t100.5 171.5
h387q-45 -256 -260 -408q-214 -153 -514 -153q-330 0 -495 208z" />
    <glyph glyph-name="cacute" unicode="&#x107;" horiz-adv-x="1224" 
d="M602 1202l152 361h331l-227 -361h-256zM793 418h352q-35 -203 -200 -326t-398 -123q-259 0 -393 155q-134 156 -88 406q46 252 232 407q185 155 445 155q233 0 354 -129q120 -129 83 -342h-353q16 100 -15 145t-118 45q-105 0 -164 -66t-88 -215q-25 -148 11 -214
t143 -66q168 0 197 168z" />
    <glyph glyph-name="Ccircumflex" unicode="&#x108;" horiz-adv-x="1544" 
d="M1116 1591l-69 301l-177 -301h-288l239 361h471l113 -361h-289zM1544 893h-387q23 129 -34.5 188.5t-207.5 59.5q-172 0 -268 -98q-96 -99 -135 -318t22.5 -319.5t233.5 -100.5q150 0 227.5 53.5t100.5 171.5h387q-45 -256 -260 -408q-214 -153 -514 -153
q-330 0 -495 208t-105 548q58 338 298 548q238 208 568 208q299 0 457 -161q157 -160 112 -427z" />
    <glyph glyph-name="ccircumflex" unicode="&#x109;" horiz-adv-x="1224" 
d="M868 1202l-69 301l-176 -301h-289l239 361h471l113 -361h-289zM1180 621h-353q16 100 -15 145t-118 45q-105 0 -164 -66t-88 -215q-25 -148 11 -214t143 -66q168 0 197 168h352q-35 -203 -200 -326t-398 -123q-259 0 -393 155q-134 156 -88 406q46 252 232 407
q185 155 445 155q233 0 354 -129q120 -129 83 -342z" />
    <glyph glyph-name="Cdotaccent" unicode="&#x10a;" horiz-adv-x="1544" 
d="M803 1618l55 309h387l-53 -309h-389zM214 177q-165 208 -105 548q58 338 298 548q238 208 568 208q299 0 457 -161q157 -160 112 -427h-387q23 129 -34.5 188.5t-207.5 59.5q-172 0 -268 -98q-96 -99 -135 -318t22.5 -319.5t233.5 -100.5q150 0 227.5 53.5t100.5 171.5
h387q-45 -256 -260 -408q-214 -153 -514 -153q-330 0 -495 208z" />
    <glyph glyph-name="cdotaccent" unicode="&#x10b;" horiz-adv-x="1224" 
d="M555 1229l55 309h387l-53 -309h-389zM793 418h352q-35 -203 -200 -326t-398 -123q-259 0 -393 155q-134 156 -88 406q46 252 232 407q185 155 445 155q233 0 354 -129q120 -129 83 -342h-353q16 100 -15 145t-118 45q-105 0 -164 -66t-88 -215q-25 -148 11 -214t143 -66
q168 0 197 168z" />
    <glyph glyph-name="Ccaron" unicode="&#x10c;" horiz-adv-x="1544" 
d="M1229 1591h-471l-113 361h289l70 -301l176 301h288zM1544 893h-387q23 129 -34.5 188.5t-207.5 59.5q-172 0 -268 -98q-96 -99 -135 -318t22.5 -319.5t233.5 -100.5q150 0 227.5 53.5t100.5 171.5h387q-45 -256 -260 -408q-214 -153 -514 -153q-330 0 -495 208t-105 548
q58 338 298 548q238 208 568 208q299 0 457 -161q157 -160 112 -427z" />
    <glyph glyph-name="ccaron" unicode="&#x10d;" horiz-adv-x="1224" 
d="M979 1202h-471l-113 361h289l70 -301l176 301h289zM743 1092q233 0 354 -129q120 -129 83 -342h-353q16 100 -15 145t-118 45q-105 0 -164 -66t-88 -215q-25 -148 11 -214t143 -66q168 0 197 168h352q-35 -203 -200 -326t-398 -123q-259 0 -393 155q-134 156 -88 406
q46 252 232 407q185 155 445 155z" />
    <glyph glyph-name="Dcaron" unicode="&#x10e;" horiz-adv-x="1597" 
d="M1223 1591h-471l-113 361h289l69 -301l177 301h288zM299 1450h647q332 0 501 -199t112 -526q-59 -325 -297 -525q-239 -200 -572 -200h-647zM1155 725q68 395 -283 395h-237l-141 -798h239q350 0 422 403z" />
    <glyph glyph-name="dcaron" unicode="&#x10f;" horiz-adv-x="1316" 
d="M901 856l125 707h369l-277 -1563h-352l47 270q-70 -142 -179 -221.5t-237 -79.5q-193 0 -285 155q-92 156 -46 406q46 252 191 407q144 155 339 155q117 0 196.5 -61.5t108.5 -174.5zM1468 1376l35 187h332l-41 -230q-23 -125 -134 -199q-113 -75 -274 -75l25 141
q94 0 141 28.5t58 94.5zM594 250q105 0 164 66.5t86 214.5q26 147 -9.5 213.5t-142.5 66.5q-104 0 -162.5 -66t-87.5 -215q-25 -147 11.5 -213.5t140.5 -66.5z" />
    <glyph glyph-name="Dcroat" unicode="&#x110;" horiz-adv-x="1597" 
d="M299 1450h647q332 0 501 -199t112 -526q-59 -325 -297 -525q-239 -200 -572 -200h-647l104 596h-153l47 264h154zM1155 725q68 395 -283 395h-237l-45 -260h268l-47 -264h-268l-49 -274h239q350 0 422 403z" />
    <glyph glyph-name="dslash" unicode="&#x111;" horiz-adv-x="1316" 
d="M1372 1432h125l-43 -244h-125l-211 -1188h-352l47 270q-70 -142 -179 -221.5t-237 -79.5q-193 0 -285 155q-92 156 -46 406q46 252 191 407q144 155 339 155q117 0 196.5 -61.5t108.5 -174.5l60 332h-406l43 244h406l22 131h369zM594 250q105 0 164 66.5t86 214.5
q26 147 -9.5 213.5t-142.5 66.5q-104 0 -162.5 -66t-87.5 -215q-25 -147 11.5 -213.5t140.5 -66.5z" />
    <glyph glyph-name="Emacron" unicode="&#x112;" horiz-adv-x="1312" 
d="M637 1913h586l-49 -279h-584zM1391 1450l-58 -330h-698l-43 -241h665l-51 -297h-665l-45 -252h704l-59 -330h-1098l256 1450h1092z" />
    <glyph glyph-name="emacron" unicode="&#x113;" horiz-adv-x="1245" 
d="M518 1524h586l-49 -279h-584zM735 1092q246 0 372 -138q126 -139 87 -364l-27 -144h-735q-4 -106 36 -155t132 -49q174 0 195 116h352q-32 -175 -198 -281q-167 -108 -410 -108q-257 0 -388 155q-131 156 -85 406q47 252 230 407q184 155 439 155zM467 631l199 4h172
q8 96 -28 140t-122 44q-162 0 -221 -188z" />
    <glyph glyph-name="Ebreve" unicode="&#x114;" horiz-adv-x="1312" 
d="M1134 1675q-106 -94 -261 -94t-229 93q-73 93 -40 278h230q-16 -82 2 -119t74 -37q55 0 85.5 36.5t46.5 119.5h230q-33 -184 -138 -277zM1391 1450l-58 -330h-698l-43 -241h665l-51 -297h-665l-45 -252h704l-59 -330h-1098l256 1450h1092z" />
    <glyph glyph-name="ebreve" unicode="&#x115;" horiz-adv-x="1245" 
d="M1015 1286q-106 -94 -261 -94q-156 0 -228 93q-73 92 -41 278h230q-16 -82 2 -119t74 -37q55 0 85 36.5t48 119.5h229q-33 -184 -138 -277zM735 1092q246 0 372 -138q126 -139 87 -364l-27 -144h-735q-4 -106 36 -155t132 -49q174 0 195 116h352q-32 -175 -198 -281
q-167 -108 -410 -108q-257 0 -388 155q-131 156 -85 406q47 252 230 407q184 155 439 155zM467 631l199 4h172q8 96 -28 140t-122 44q-162 0 -221 -188z" />
    <glyph glyph-name="Edotaccent" unicode="&#x116;" horiz-adv-x="1312" 
d="M739 1927h387l-53 -309h-389zM1391 1450l-58 -330h-698l-43 -241h665l-51 -297h-665l-45 -252h704l-59 -330h-1098l256 1450h1092z" />
    <glyph glyph-name="edotaccent" unicode="&#x117;" horiz-adv-x="1245" 
d="M621 1538h387l-54 -309h-389zM735 1092q246 0 372 -138q126 -139 87 -364l-27 -144h-735q-4 -106 36 -155t132 -49q174 0 195 116h352q-32 -175 -198 -281q-167 -108 -410 -108q-257 0 -388 155q-131 156 -85 406q47 252 230 407q184 155 439 155zM467 631l199 4h172
q8 96 -28 140t-122 44q-162 0 -221 -188z" />
    <glyph glyph-name="Eogonek" unicode="&#x118;" horiz-adv-x="1312" 
d="M1391 1450l-58 -330h-698l-43 -241h665l-51 -297h-665l-45 -252h704l-59 -330h-8l-127 -139q-37 -39 -39 -62q-4 -18 7.5 -28.5t37.5 -10.5h102l-37 -209h-282q-79 0 -114.5 37.5t-25.5 102.5q17 77 86 149l154 160h-852l256 1450h1092z" />
    <glyph glyph-name="eogonek" unicode="&#x119;" horiz-adv-x="1245" 
d="M735 1092q246 0 372 -138q126 -139 87 -364l-27 -144h-735q-4 -106 36 -155t132 -49q174 0 195 116h352q-22 -128 -124 -224t-257 -136l-125 -137q-37 -39 -39 -62q-4 -18 7.5 -28.5t37.5 -10.5h103l-37 -209h-283q-79 0 -114 37.5t-25 102.5q17 77 86 149l125 129
q-242 12 -360 166q-119 155 -76 395q47 252 230 407q184 155 439 155zM467 631l199 4h172q8 96 -28 140t-122 44q-162 0 -221 -188z" />
    <glyph glyph-name="Ecaron" unicode="&#x11a;" horiz-adv-x="1312" 
d="M1108 1591h-471l-113 361h289l70 -301l176 301h289zM1391 1450l-58 -330h-698l-43 -241h665l-51 -297h-665l-45 -252h704l-59 -330h-1098l256 1450h1092z" />
    <glyph glyph-name="ecaron" unicode="&#x11b;" horiz-adv-x="1245" 
d="M989 1202h-471l-112 361h288l70 -301l176 301h289zM735 1092q246 0 372 -138q126 -139 87 -364l-27 -144h-735q-4 -106 36 -155t132 -49q174 0 195 116h352q-32 -175 -198 -281q-167 -108 -410 -108q-257 0 -388 155q-131 156 -85 406q47 252 230 407q184 155 439 155z
M467 631l199 4h172q8 96 -28 140t-122 44q-162 0 -221 -188z" />
    <glyph glyph-name="Gcircumflex" unicode="&#x11c;" horiz-adv-x="1611" 
d="M1137 1591l-70 301l-176 -301h-289l240 361h471l112 -361h-288zM1579 911h-387q23 119 -39.5 174.5t-220.5 55.5q-181 0 -281 -98t-139 -318q-39 -223 25.5 -323.5t246.5 -100.5q156 0 239 56.5t110 181.5h-373l47 262h764l-141 -801h-347l66 369q-150 -398 -539 -400
q-287 0 -425 201t-81 539q63 349 306 561q242 211 581 211q309 0 472 -157q162 -157 116 -413z" />
    <glyph glyph-name="gcircumflex" unicode="&#x11d;" horiz-adv-x="1196" 
d="M1343 1282l-47 -270q-182 0 -225 -45q97 -98 68 -250q-32 -171 -191 -274q-160 -105 -403 -105q-133 0 -226 31q-7 -13 -12 -35q-8 -41 19.5 -59.5t99.5 -18.5h360q169 0 258 -82q89 -83 64 -215q-32 -170 -211 -273q-180 -102 -459 -102q-274 0 -420 72t-127 190
q10 60 62 104t127 58q-94 72 -76 180q27 145 203 232q-157 106 -123 297q32 170 190 273q158 102 402 102q161 0 266 -43q28 97 96 153h-219l-69 301l-177 -301h-288l239 361h471l101 -324q90 43 247 43zM770 717q12 70 -19.5 100.5t-115.5 30.5q-89 0 -129.5 -29.5
t-54.5 -101.5q-14 -74 16.5 -104.5t120.5 -30.5q84 0 126 31.5t56 103.5zM653 -37h-415q-9 -24 -13 -47q-13 -72 36 -96q51 -23 214 -23q160 0 214 19q57 20 67 78q8 39 -14.5 54t-88.5 15z" />
    <glyph glyph-name="Gbreve" unicode="&#x11e;" horiz-adv-x="1611" 
d="M1275 1675q-106 -94 -261 -94q-156 0 -228 93q-73 92 -41 278h230q-16 -82 2 -119t74 -37q55 0 85 36.5t48 119.5h229q-33 -184 -138 -277zM1579 911h-387q23 119 -39.5 174.5t-220.5 55.5q-181 0 -281 -98t-139 -318q-39 -223 25.5 -323.5t246.5 -100.5q156 0 239 56.5
t110 181.5h-373l47 262h764l-141 -801h-347l66 369q-150 -398 -539 -400q-287 0 -425 201t-81 539q63 349 306 561q242 211 581 211q309 0 472 -157q162 -157 116 -413z" />
    <glyph glyph-name="gbreve" unicode="&#x11f;" horiz-adv-x="1196" 
d="M958 1286q-106 -94 -261 -94t-229 93q-73 93 -40 278h229q-16 -81 2.5 -118.5t73.5 -37.5t86 37t47 119h230q-33 -184 -138 -277zM1343 1282l-47 -270q-182 0 -225 -45q97 -98 68 -250q-32 -171 -191 -274q-160 -105 -403 -105q-133 0 -226 31q-7 -13 -12 -35
q-8 -41 19.5 -59.5t99.5 -18.5h360q169 0 258 -82q89 -83 64 -215q-32 -170 -211 -273q-180 -102 -459 -102q-274 0 -420 72t-127 190q10 60 62 104t127 58q-94 72 -76 180q27 145 203 232q-157 106 -123 297q32 170 190 273q158 102 402 102q161 0 266 -43q35 119 128 176
t273 57zM770 717q12 70 -19.5 100.5t-115.5 30.5q-89 0 -129.5 -29.5t-54.5 -101.5q-14 -74 16.5 -104.5t120.5 -30.5q84 0 126 31.5t56 103.5zM653 -37h-415q-9 -24 -13 -47q-13 -72 36 -96q51 -23 214 -23q160 0 214 19q57 20 67 78q8 39 -14.5 54t-88.5 15z" />
    <glyph glyph-name="Gdotaccent" unicode="&#x120;" horiz-adv-x="1611" 
d="M879 1927h387l-54 -309h-389zM1579 911h-387q23 119 -39.5 174.5t-220.5 55.5q-181 0 -281 -98t-139 -318q-39 -223 25.5 -323.5t246.5 -100.5q156 0 239 56.5t110 181.5h-373l47 262h764l-141 -801h-347l66 369q-150 -398 -539 -400q-287 0 -425 201t-81 539
q63 349 306 561q242 211 581 211q309 0 472 -157q162 -157 116 -413z" />
    <glyph glyph-name="gdotaccent" unicode="&#x121;" horiz-adv-x="1196" 
d="M561 1538h387l-53 -309h-389zM1343 1282l-47 -270q-182 0 -225 -45q97 -98 68 -250q-32 -171 -191 -274q-160 -105 -403 -105q-133 0 -226 31q-7 -13 -12 -35q-8 -41 19.5 -59.5t99.5 -18.5h360q169 0 258 -82q89 -83 64 -215q-32 -170 -211 -273q-180 -102 -459 -102
q-274 0 -420 72t-127 190q10 60 62 104t127 58q-94 72 -76 180q27 145 203 232q-157 106 -123 297q32 170 190 273q158 102 402 102q161 0 266 -43q35 119 128 176t273 57zM770 717q12 70 -19.5 100.5t-115.5 30.5q-89 0 -129.5 -29.5t-54.5 -101.5q-14 -74 16.5 -104.5
t120.5 -30.5q84 0 126 31.5t56 103.5zM653 -37h-415q-9 -24 -13 -47q-13 -72 36 -96q51 -23 214 -23q160 0 214 19q57 20 67 78q8 39 -14.5 54t-88.5 15z" />
    <glyph glyph-name="uni0122" unicode="&#x122;" horiz-adv-x="1611" 
d="M1579 911h-387q23 119 -39.5 174.5t-220.5 55.5q-181 0 -281 -98t-139 -318q-39 -223 25.5 -323.5t246.5 -100.5q156 0 239 56.5t110 181.5h-373l47 262h764l-141 -801h-347l66 369q-150 -398 -539 -400q-287 0 -425 201t-81 539q63 349 306 561q242 211 581 211
q309 0 472 -157q162 -157 116 -413zM649 -369l-141 54l35 188h329l-38 -229q-23 -125 -134 -200q-112 -75 -276 -75l25 139q93 0 140.5 29.5t59.5 93.5z" />
    <glyph glyph-name="uni0123" unicode="&#x123;" horiz-adv-x="1196" 
d="M741 1442l156 -53l-33 -187h-346l39 230q23 125 139 199q115 73 285 73l-25 -141q-196 0 -215 -121zM1343 1282l-47 -270q-182 0 -225 -45q97 -98 68 -250q-32 -171 -191 -274q-160 -105 -403 -105q-133 0 -226 31q-7 -13 -12 -35q-8 -41 19.5 -59.5t99.5 -18.5h360
q169 0 258 -82q89 -83 64 -215q-32 -170 -211 -273q-180 -102 -459 -102q-274 0 -420 72t-127 190q10 60 62 104t127 58q-94 72 -76 180q27 145 203 232q-157 106 -123 297q32 170 190 273q158 102 402 102q161 0 266 -43q35 119 128 176t273 57zM770 717q12 70 -19.5 100.5
t-115.5 30.5q-89 0 -129.5 -29.5t-54.5 -101.5q-14 -74 16.5 -104.5t120.5 -30.5q84 0 126 31.5t56 103.5zM653 -37h-415q-9 -24 -13 -47q-13 -72 36 -96q51 -23 214 -23q160 0 214 19q57 20 67 78q8 39 -14.5 54t-88.5 15z" />
    <glyph glyph-name="Hcircumflex" unicode="&#x124;" horiz-adv-x="1652" 
d="M1128 1591l-69 301l-176 -301h-289l240 361h471l112 -361h-289zM1186 895l96 555h395l-256 -1450h-393l98 565h-589l-99 -565h-395l256 1450h393l-96 -555h590z" />
    <glyph glyph-name="hcircumflex" unicode="&#x125;" horiz-adv-x="1312" 
d="M705 1710l-70 301l-176 -301h-289l240 361h471l112 -361h-288zM954 1092q168 0 243 -96.5t44 -270.5l-127 -725h-369l105 588q18 106 -10.5 151t-114.5 45q-201 0 -240 -221v2l-100 -565h-367l275 1563h369l-132 -736q75 127 184.5 196t239.5 69z" />
    <glyph glyph-name="Hbar" unicode="&#x126;" horiz-adv-x="1652" 
d="M1653 1313h151l-47 -262h-149l-187 -1051h-393l98 565h-589l-99 -565h-395l186 1051h-161l47 262h159l25 137h393l-24 -137h589l25 137h395zM596 895h590l26 156h-589z" />
    <glyph glyph-name="hbar" unicode="&#x127;" horiz-adv-x="1312" 
d="M954 1092q168 0 243 -96.5t44 -270.5l-127 -725h-369l105 588q18 106 -10.5 151t-114.5 45q-201 0 -240 -221v2l-100 -565h-367l209 1186h-194l43 244h194l23 133h369l-25 -133h340l-43 -244h-340l-64 -359q75 127 184.5 196t239.5 69z" />
    <glyph glyph-name="Itilde" unicode="&#x128;" horiz-adv-x="667" 
d="M674 1612q-60 0 -140 44t-126 44q-84 0 -99 -84h-172q59 326 299 326q60 0 139 -44q78 -45 125 -45q86 0 97 84h172q-52 -325 -295 -325zM43 0l256 1450h393l-254 -1450h-395z" />
    <glyph glyph-name="itilde" unicode="&#x129;" horiz-adv-x="583" 
d="M565 1223q-60 0 -140 44t-126 44q-85 0 -98 -84h-172q29 163 104 244.5t195 80.5q60 0 139 -44t125 -44q86 0 96 84h172q-52 -325 -295 -325zM18 0l187 1061h368l-188 -1061h-367z" />
    <glyph glyph-name="Imacron" unicode="&#x12a;" horiz-adv-x="667" 
d="M285 1913h585l-49 -279h-583zM43 0l256 1450h393l-254 -1450h-395z" />
    <glyph glyph-name="imacron" unicode="&#x12b;" horiz-adv-x="583" 
d="M176 1524h586l-49 -279h-584zM18 0l187 1061h368l-188 -1061h-367z" />
    <glyph glyph-name="Ibreve" unicode="&#x12c;" horiz-adv-x="667" 
d="M690 1952h230q-33 -181 -137 -276t-262 -95q-159 0 -230 94.5t-39 276.5h229q-16 -81 2.5 -118.5t73.5 -37.5t86 37t47 119zM43 0l256 1450h393l-254 -1450h-395z" />
    <glyph glyph-name="ibreve" unicode="&#x12d;" horiz-adv-x="583" 
d="M584 1563h229q-33 -181 -137 -276t-262 -95q-159 0 -230 94.5t-39 276.5h230q-16 -82 2 -119t74 -37q55 0 85 36.5t48 119.5zM18 0l187 1061h368l-188 -1061h-367z" />
    <glyph glyph-name="Iogonek" unicode="&#x12e;" horiz-adv-x="667" 
d="M43 0l256 1450h393l-254 -1450h-2l-127 -139q-37 -39 -39 -62q-4 -18 7.5 -28.5t37.5 -10.5h103l-37 -209h-283q-79 0 -114 37.5t-25 102.5q17 77 86 149l154 160h-156z" />
    <glyph glyph-name="iogonek" unicode="&#x12f;" horiz-adv-x="583" 
d="M223 1229l56 309h387l-54 -309h-389zM147 0h-129l187 1061h368l-188 -1061l-127 -139q-37 -39 -39 -62q-4 -18 7.5 -28.5t37.5 -10.5h103l-37 -209h-283q-79 0 -114 37.5t-25 102.5q17 77 86 149z" />
    <glyph glyph-name="Idot" unicode="&#x130;" horiz-adv-x="667" 
d="M332 1618l55 309h387l-53 -309h-389zM43 0l256 1450h393l-254 -1450h-395z" />
    <glyph glyph-name="dotlessi" unicode="&#x131;" horiz-adv-x="583" 
d="M18 0l187 1061h368l-188 -1061h-367z" />
    <glyph glyph-name="IJ" unicode="&#x132;" horiz-adv-x="1316" 
d="M98 301h531q67 0 103 33.5t50 105.5l179 1010h393l-185 -1049q-34 -194 -201 -313t-407 -119q-290 0 -512 56zM143 524l164 926h393l-163 -926h-394z" />
    <glyph glyph-name="ij" unicode="&#x133;" horiz-adv-x="1171" 
d="M281 1538h387l-54 -309h-389zM811 1229l53 309h389l-55 -309h-387zM207 1061h366l-186 -1061h-369zM602 -8l189 1069h368l-194 -1104q-31 -167 -162 -271q-131 -102 -318 -102q-82 0 -151 21l45 266h94q58 0 88.5 28t40.5 93z" />
    <glyph glyph-name="Jcircumflex" unicode="&#x134;" horiz-adv-x="1331" 
d="M1319 1591l-70 301l-176 -301h-289l240 361h471l113 -361h-289zM819 565l156 885h393l-166 -938q-44 -245 -232 -393q-190 -150 -456 -150q-262 0 -394 159t-87 419h385q-20 -126 16.5 -182t141.5 -56q104 0 161 60.5t82 195.5z" />
    <glyph glyph-name="jcircumflex" unicode="&#x135;" horiz-adv-x="573" 
d="M535 1202l-70 301l-176 -301h-289l240 361h471l112 -361h-288zM14 -8l189 1069h368l-194 -1104q-31 -167 -162 -271q-130 -102 -317 -102q-81 0 -152 21l45 266h94q58 0 88.5 28t40.5 93z" />
    <glyph glyph-name="uni0136" unicode="&#x136;" horiz-adv-x="1566" 
d="M1239 1450h461l-715 -713l512 -737h-496l-325 487l-117 201l-121 -688h-395l256 1450h395l-121 -682l185 203zM637 -369l-141 54l34 188h330l-39 -229q-23 -125 -134 -200q-113 -75 -275 -75l24 139q93 0 141 30t60 93z" />
    <glyph glyph-name="uni0137" unicode="&#x137;" horiz-adv-x="1318" 
d="M956 1061h410l-500 -502l387 -559h-469l-235 360l-76 134l-88 -494h-367l275 1563h369l-177 -992l125 138zM485 -369l-141 54l35 188h330l-39 -229q-23 -125 -134 -200q-112 -75 -276 -75l25 139q93 0 140.5 29.5t59.5 93.5z" />
    <glyph glyph-name="kgreenlandic" unicode="&#x138;" horiz-adv-x="1318" 
d="M956 1061h410l-500 -502l387 -559h-469l-235 360l-76 134l-88 -494h-367l187 1061h368l-86 -490l123 138z" />
    <glyph glyph-name="Lacute" unicode="&#x139;" horiz-adv-x="1236" 
d="M532 1952h332l-227 -361h-256zM692 1450l-196 -1120h661l-59 -330h-1055l256 1450h393z" />
    <glyph glyph-name="lacute" unicode="&#x13a;" horiz-adv-x="655" 
d="M494 2015h331l-227 -360h-256zM285 1563h366l-209 -1182q-10 -61 10.5 -88t77.5 -27h54l-47 -266q-85 -20 -187 -20q-157 0 -233 97q-77 97 -49 257z" />
    <glyph glyph-name="uni013B" unicode="&#x13b;" horiz-adv-x="1236" 
d="M692 1450l-196 -1120h661l-59 -330h-1055l256 1450h393zM500 -369l-142 54l35 188h330l-39 -229q-23 -125 -134 -200q-112 -75 -276 -75l25 139q93 0 140.5 29.5t60.5 93.5z" />
    <glyph glyph-name="uni013C" unicode="&#x13c;" horiz-adv-x="655" 
d="M651 1563l-209 -1182q-10 -61 10.5 -88t77.5 -27h54l-47 -266q-85 -20 -187 -20q-157 0 -233 97q-77 97 -49 257l217 1229h366zM217 -369l-141 54l35 188h329l-39 -229q-23 -125 -134 -200t-275 -75l24 139q93 0 141 30t60 93z" />
    <glyph glyph-name="Lcaron" unicode="&#x13d;" horiz-adv-x="1236" 
d="M299 1450h393l-196 -1120h661l-59 -330h-1055zM836 1264l34 186h332l-41 -229q-23 -125 -134 -200q-113 -75 -273 -75l24 141q94 0 141.5 29t57.5 94z" />
    <glyph glyph-name="lcaron" unicode="&#x13e;" horiz-adv-x="655" 
d="M285 1563h366l-209 -1182q-10 -61 10.5 -88t77.5 -27h54l-47 -266q-85 -20 -187 -20q-157 0 -233 97q-77 97 -49 257zM737 1376l35 187h332l-41 -230q-23 -125 -134 -199q-113 -75 -274 -75l25 141q94 0 141 28.5t58 94.5z" />
    <glyph glyph-name="Ldot" unicode="&#x13f;" horiz-adv-x="1236" 
d="M692 1450l-196 -1120h661l-59 -330h-1055l256 1450h393zM1112 983l-65 -367h-367l65 367h367z" />
    <glyph glyph-name="ldot" unicode="&#x140;" horiz-adv-x="1200" 
d="M651 1563l-209 -1182q-10 -61 10.5 -88t77.5 -27h54l-47 -266q-85 -20 -187 -20q-157 0 -233 97q-77 97 -49 257l217 1229h366zM647 584l62 356h356l-64 -356h-354z" />
    <glyph glyph-name="Lslash" unicode="&#x141;" horiz-adv-x="1236" 
d="M541 582l-45 -252h661l-59 -330h-1055l78 440l-131 -53l57 320l129 53l123 690h393l-96 -549l397 160l-55 -320z" />
    <glyph glyph-name="lslash" unicode="&#x142;" horiz-adv-x="655" 
d="M692 713l-217 -142l-33 -190q-10 -61 10.5 -88t77.5 -27h54l-47 -266q-85 -20 -187 -20q-157 0 -233 97q-77 97 -49 257l16 90l-131 -84l57 330l131 84l144 809h366l-116 -660l215 139z" />
    <glyph glyph-name="Nacute" unicode="&#x143;" horiz-adv-x="1722" 
d="M1077 1952h332l-227 -361h-256zM1231 727l127 723h389l-254 -1450h-688l-158 1300l-86 -567l-129 -733h-389l256 1450h690l158 -1276z" />
    <glyph glyph-name="nacute" unicode="&#x144;" horiz-adv-x="1312" 
d="M805 1563h332l-228 -361h-256zM954 1092q168 0 243 -96.5t44 -270.5l-127 -725h-369l105 588q18 106 -10.5 151t-114.5 45q-201 0 -240 -221v2l-100 -565h-367l187 1061h354l-47 -260q72 138 188 214.5t254 76.5z" />
    <glyph glyph-name="uni0145" unicode="&#x145;" horiz-adv-x="1722" 
d="M1231 727l127 723h389l-254 -1450h-688l-158 1300l-86 -567l-129 -733h-389l256 1450h690l158 -1276zM707 -369l-142 54l35 188h330l-39 -229q-23 -125 -134 -200q-113 -75 -276 -75l25 139q93 0 140.5 29.5t60.5 93.5z" />
    <glyph glyph-name="uni0146" unicode="&#x146;" horiz-adv-x="1312" 
d="M954 1092q168 0 243 -96.5t44 -270.5l-127 -725h-369l105 588q18 106 -10.5 151t-114.5 45q-201 0 -240 -221v2l-100 -565h-367l187 1061h354l-47 -260q72 138 188 214.5t254 76.5zM485 -369l-141 54l35 188h330l-39 -229q-23 -125 -134 -200q-112 -75 -276 -75l25 139
q93 0 140.5 29.5t59.5 93.5z" />
    <glyph glyph-name="Ncaron" unicode="&#x147;" horiz-adv-x="1722" 
d="M1303 1591h-472l-112 361h289l69 -301l176 301h289zM1231 727l127 723h389l-254 -1450h-688l-158 1300l-86 -567l-129 -733h-389l256 1450h690l158 -1276z" />
    <glyph glyph-name="ncaron" unicode="&#x148;" horiz-adv-x="1312" 
d="M1028 1202h-471l-113 361h289l70 -301l176 301h289zM954 1092q168 0 243 -96.5t44 -270.5l-127 -725h-369l105 588q18 106 -10.5 151t-114.5 45q-201 0 -240 -221v2l-100 -565h-367l187 1061h354l-47 -260q72 138 188 214.5t254 76.5z" />
    <glyph glyph-name="napostrophe" unicode="&#x149;" horiz-adv-x="1644" 
d="M518 1450l-47 -268q-27 -147 -142 -234q-115 -88 -292 -88l24 146q105 0 160 35.5t70 115.5l-156 80l37 213h346zM1286 1092q168 0 244 -95.5t45 -271.5l-129 -725h-367l103 588q18 106 -9.5 151t-113.5 45q-202 0 -240 -221l-2 6l-98 -569h-369l189 1061h352l-45 -260
q72 138 187 214.5t253 76.5z" />
    <glyph glyph-name="Eng" unicode="&#x14a;" horiz-adv-x="1722" 
d="M1231 727l127 723h389l-254 -1450l-10 -59q-28 -159 -161 -259q-133 -98 -318 -98q-86 0 -168 21l45 266h94q59 0 88 28.5t43 98.5v2h-301l-158 1300l-86 -567l-129 -733h-389l256 1450h690l158 -1276z" />
    <glyph glyph-name="eng" unicode="&#x14b;" horiz-adv-x="1312" 
d="M954 1092q168 0 243 -96.5t44 -270.5l-137 -793q-32 -168 -162 -270t-317 -102q-80 0 -152 20l45 266h94q57 0 88 30.5t41 96.5l109 615q16 107 -12 151.5t-113 44.5q-201 0 -240 -221l-98 -563h-369l187 1061h354l-45 -256q75 136 189.5 211.5t250.5 75.5z" />
    <glyph glyph-name="Omacron" unicode="&#x14c;" horiz-adv-x="1650" 
d="M776 1913h586l-49 -279h-584zM1309 177q-244 -208 -582 -208q-339 0 -508 208q-170 209 -110 548q58 339 303 548q242 208 581 208t508 -208t111 -548q-60 -339 -303 -548zM539 406q65 -101 248 -101q181 0 282 101q100 100 139 319q39 218 -26 318q-66 98 -248 98
q-181 0 -282 -98q-101 -100 -140 -318q-39 -219 27 -319z" />
    <glyph glyph-name="omacron" unicode="&#x14d;" horiz-adv-x="1286" 
d="M524 1524h586l-49 -279h-584zM991 124q-187 -155 -446 -155q-260 0 -392 155q-134 155 -87 406q46 252 232 407q185 155 446 155q260 0 391 -155t86 -406q-45 -252 -230 -407zM453 317q36 -67 141 -67t163 67q59 66 87 213q27 146 -9.5 213.5t-141.5 67.5t-164.5 -66.5
t-86.5 -214.5q-25 -146 11 -213z" />
    <glyph glyph-name="Obreve" unicode="&#x14e;" horiz-adv-x="1650" 
d="M1184 1952h229q-33 -181 -137 -276t-262 -95q-159 0 -230 94.5t-39 276.5h230q-16 -82 2 -119t74 -37q55 0 85 36.5t48 119.5zM1309 177q-244 -208 -582 -208q-339 0 -508 208q-170 209 -110 548q58 339 303 548q242 208 581 208t508 -208t111 -548q-60 -339 -303 -548z
M539 406q65 -101 248 -101q181 0 282 101q100 100 139 319q39 218 -26 318q-66 98 -248 98q-181 0 -282 -98q-101 -100 -140 -318q-39 -219 27 -319z" />
    <glyph glyph-name="obreve" unicode="&#x14f;" horiz-adv-x="1286" 
d="M932 1563h229q-33 -181 -137 -276t-262 -95q-159 0 -229.5 94.5t-38.5 276.5h229q-16 -82 2 -119t74 -37q55 0 85 36.5t48 119.5zM991 124q-187 -155 -446 -155q-260 0 -392 155q-134 155 -87 406q46 252 232 407q185 155 446 155q260 0 391 -155t86 -406
q-45 -252 -230 -407zM453 317q36 -67 141 -67t163 67q59 66 87 213q27 146 -9.5 213.5t-141.5 67.5t-164.5 -66.5t-86.5 -214.5q-25 -146 11 -213z" />
    <glyph glyph-name="Ohungarumlaut" unicode="&#x150;" horiz-adv-x="1650" 
d="M715 1591l145 361h281l-170 -361h-256zM1053 1591l151 361h332l-227 -361h-256zM1309 177q-244 -208 -582 -208q-339 0 -508 208q-170 209 -110 548q58 339 303 548q242 208 581 208t508 -208t111 -548q-60 -339 -303 -548zM539 406q65 -101 248 -101q181 0 282 101
q100 100 139 319q39 218 -26 318q-66 98 -248 98q-181 0 -282 -98q-101 -100 -140 -318q-39 -219 27 -319z" />
    <glyph glyph-name="ohungarumlaut" unicode="&#x151;" horiz-adv-x="1286" 
d="M459 1202l145 361h281l-170 -361h-256zM797 1202l151 361h332l-227 -361h-256zM991 124q-187 -155 -446 -155q-260 0 -392 155q-134 155 -87 406q46 252 232 407q185 155 446 155q260 0 391 -155t86 -406q-45 -252 -230 -407zM453 317q36 -67 141 -67t163 67
q59 66 87 213q27 146 -9.5 213.5t-141.5 67.5t-164.5 -66.5t-86.5 -214.5q-25 -146 11 -213z" />
    <glyph glyph-name="OE" unicode="&#x152;" horiz-adv-x="2232" 
d="M2312 1450l-59 -330h-688l-43 -241h657l-53 -297h-658l-45 -252h697l-58 -330h-1343q-332 0 -500 200t-110 525q57 327 295 526q236 199 571 199h1337zM791 322h237l141 798h-239q-350 0 -418 -395q-70 -403 279 -403z" />
    <glyph glyph-name="oe" unicode="&#x153;" horiz-adv-x="2015" 
d="M1505 1092q246 0 372 -138q126 -139 85 -364l-25 -144h-735q-6 -106 34 -155t132 -49q174 0 195 114l352 2q-29 -174 -197 -281q-168 -108 -411 -108q-232 0 -351 158q-170 -158 -411 -158q-260 0 -392 155q-134 155 -87 406q46 252 232 407q185 155 445 155
q238 0 355 -158q170 158 407 158zM1235 631l201 4h172q8 96 -28.5 140t-123.5 44q-162 0 -221 -188zM759 317q58 65 85 214q26 147 -10 214q-38 66 -141 66q-104 0 -163 -66t-88 -215q-25 -147 11 -213.5t141 -66.5q107 0 165 67z" />
    <glyph glyph-name="Racute" unicode="&#x154;" horiz-adv-x="1433" 
d="M946 1952h332l-227 -361h-256zM1473 1001q-25 -143 -106 -251.5t-202 -163.5l92 -176l166 -410h-442l-209 530h-242l-92 -530h-395l256 1450h784q211 0 318 -123t72 -326zM911 1145h-272l-59 -336h272q96 0 147.5 41t67.5 131q14 86 -22.5 125t-133.5 39z" />
    <glyph glyph-name="racute" unicode="&#x155;" horiz-adv-x="876" 
d="M643 1563h332l-227 -361h-256zM557 1061l-53 -299q56 151 155 240q99 90 211 90q59 0 95 -17l-62 -346h-211q-162 0 -207 -164l-100 -565h-367l187 1061h352z" />
    <glyph glyph-name="uni0156" unicode="&#x156;" horiz-adv-x="1433" 
d="M1473 1001q-25 -143 -106 -251.5t-202 -163.5l92 -176l166 -410h-442l-209 530h-242l-92 -530h-395l256 1450h784q211 0 318 -123t72 -326zM911 1145h-272l-59 -336h272q96 0 147.5 41t67.5 131q14 86 -22.5 125t-133.5 39zM621 -369l-142 54l35 188h330l-39 -229
q-23 -125 -134 -200q-113 -75 -276 -75l25 139q93 0 140.5 29.5t60.5 93.5z" />
    <glyph glyph-name="uni0157" unicode="&#x157;" horiz-adv-x="876" 
d="M870 1092q59 0 95 -17l-62 -346h-211q-162 0 -207 -164l-100 -565h-367l187 1061h352l-53 -299q56 151 154 240q99 90 212 90zM121 -369l-141 54l34 188h330l-39 -229q-23 -125 -134 -200q-113 -75 -275 -75l24 139q93 0 141 30t60 93z" />
    <glyph glyph-name="Rcaron" unicode="&#x158;" horiz-adv-x="1433" 
d="M1171 1591h-471l-112 361h289l69 -301l176 301h289zM1473 1001q-25 -143 -106 -251.5t-202 -163.5l92 -176l166 -410h-442l-209 530h-242l-92 -530h-395l256 1450h784q211 0 318 -123t72 -326zM911 1145h-272l-59 -336h272q96 0 147.5 41t67.5 131q14 86 -22.5 125
t-133.5 39z" />
    <glyph glyph-name="rcaron" unicode="&#x159;" horiz-adv-x="876" 
d="M866 1202h-471l-112 361h288l70 -301l176 301h289zM557 1061l-53 -299q56 151 155 240q99 90 211 90q59 0 95 -17l-62 -346h-211q-162 0 -207 -164l-100 -565h-367l187 1061h352z" />
    <glyph glyph-name="Sacute" unicode="&#x15a;" horiz-adv-x="1439" 
d="M776 1591l152 361h332l-228 -361h-256zM623 -31q-301 0 -462 137q-161 136 -120 357h387q-16 -99 42.5 -143t207.5 -44q262 0 283 111q8 39 -5 60q-13 22 -81 49q-72 27 -207 49q-302 51 -417 159q-115 106 -81 300q39 213 238 345q198 132 487 132q283 0 432 -137
q148 -138 109 -361h-387q18 100 -32 145.5t-181 45.5q-236 0 -254 -115q-10 -57 48 -91t247 -67q306 -52 418 -163q109 -111 75 -304q-35 -209 -241 -337q-208 -128 -506 -128z" />
    <glyph glyph-name="sacute" unicode="&#x15b;" horiz-adv-x="1136" 
d="M528 1202l152 361h332l-228 -361h-256zM471 -31q-239 0 -367 100q-129 99 -100 261h352q-10 -63 28 -91t132 -28q164 0 176 78q8 41 -30 64q-37 21 -179 38q-223 23 -316 104t-67 234q27 163 184 263q155 100 382 100q225 0 346 -103t92 -272h-352q10 70 -21 101.5
t-110 31.5q-148 0 -164 -82q-10 -45 34 -66q41 -21 181 -38q237 -26 328 -106q92 -82 67 -228q-27 -162 -191 -261q-164 -100 -405 -100z" />
    <glyph glyph-name="Scircumflex" unicode="&#x15c;" horiz-adv-x="1439" 
d="M1040 1591l-69 301l-176 -301h-289l239 361h472l112 -361h-289zM1436 983h-387q18 100 -32 145.5t-181 45.5q-236 0 -254 -115q-10 -57 48 -91t247 -67q306 -52 418 -163q109 -111 75 -304q-35 -209 -241 -337q-208 -128 -506 -128q-301 0 -462 137q-161 136 -120 357
h387q-16 -99 42.5 -143t207.5 -44q262 0 283 111q8 39 -5 60q-13 22 -81 49q-72 27 -207 49q-302 51 -417 159q-115 106 -81 300q39 213 238 345q198 132 487 132q283 0 432 -137q148 -138 109 -361z" />
    <glyph glyph-name="scircumflex" unicode="&#x15d;" horiz-adv-x="1136" 
d="M795 1202l-70 301l-176 -301h-289l240 361h471l112 -361h-288zM1104 717h-352q10 70 -21 101.5t-110 31.5q-148 0 -164 -82q-10 -45 34 -66q41 -21 181 -38q237 -26 328 -106q92 -82 67 -228q-27 -162 -191 -261q-164 -100 -405 -100q-239 0 -367 100q-129 99 -100 261
h352q-10 -63 28 -91t132 -28q164 0 176 78q8 41 -30 64q-37 21 -179 38q-223 23 -316 104t-67 234q27 163 184 263q155 100 382 100q225 0 346 -103t92 -272z" />
    <glyph glyph-name="Scedilla" unicode="&#x15e;" horiz-adv-x="1439" 
d="M1436 983h-387q18 100 -32 145.5t-181 45.5q-236 0 -254 -115q-10 -57 48 -91t247 -67q306 -52 418 -163q109 -111 75 -304q-33 -185 -203 -310q-168 -123 -424 -149l-41 -77h21q78 0 119 -46t26 -118q-13 -81 -76 -133q-64 -50 -151 -50h-240l27 146h162q49 0 55 37
q8 37 -43 37h-143l20 120l49 82q-257 22 -391 155q-134 132 -96 335h387q-16 -99 42.5 -143t207.5 -44q262 0 283 111q8 39 -5 60q-13 22 -81 49q-72 27 -207 49q-302 51 -417 159q-115 106 -81 300q39 213 238 345q198 132 487 132q283 0 432 -137q148 -138 109 -361z" />
    <glyph glyph-name="scedilla" unicode="&#x15f;" horiz-adv-x="1136" 
d="M1104 717h-352q10 70 -21 101.5t-110 31.5q-148 0 -164 -82q-10 -45 34 -66q41 -21 181 -38q237 -26 328 -106q92 -82 67 -228q-25 -140 -153 -235q-127 -94 -322 -120l-43 -77h20q78 0 119 -45.5t27 -118.5q-13 -81 -77 -133q-64 -50 -151 -50h-239l26 146h162
q49 0 56 37q4 18 -6.5 27.5t-36.5 9.5h-144l21 120l49 82q-195 19 -296 116q-102 95 -75 241h352q-10 -63 28 -91t132 -28q164 0 176 78q8 41 -30 64q-37 21 -179 38q-223 23 -316 104t-67 234q27 163 184 263q155 100 382 100q225 0 346 -103t92 -272z" />
    <glyph glyph-name="Scaron" unicode="&#x160;" horiz-adv-x="1439" 
d="M1151 1591h-471l-113 361h289l70 -301l176 301h289zM1436 983h-387q18 100 -32 145.5t-181 45.5q-236 0 -254 -115q-10 -57 48 -91t247 -67q306 -52 418 -163q109 -111 75 -304q-35 -209 -241 -337q-208 -128 -506 -128q-301 0 -462 137q-161 136 -120 357h387
q-16 -99 42.5 -143t207.5 -44q262 0 283 111q8 39 -5 60q-13 22 -81 49q-72 27 -207 49q-302 51 -417 159q-115 106 -81 300q39 213 238 345q198 132 487 132q283 0 432 -137q148 -138 109 -361z" />
    <glyph glyph-name="scaron" unicode="&#x161;" horiz-adv-x="1136" 
d="M905 1202h-471l-112 361h288l70 -301l176 301h289zM284 992q155 100 382 100q225 0 346 -103t92 -272h-352q10 70 -21 101.5t-110 31.5q-148 0 -164 -82q-10 -45 34 -66q41 -21 181 -38q237 -26 328 -106q92 -82 67 -228q-27 -162 -191 -261q-164 -100 -405 -100
q-239 0 -367 100q-129 99 -100 261h352q-10 -63 28 -91t132 -28q164 0 176 78q8 41 -30 64q-37 21 -179 38q-223 23 -316 104t-67 234q27 163 184 263z" />
    <glyph glyph-name="uni0162" unicode="&#x162;" horiz-adv-x="1361" 
d="M983 1120l-199 -1120h-84l-55 -102h21q78 0 118.5 -45.5t26.5 -118.5q-13 -81 -76 -133q-64 -50 -151 -50h-240l27 146h161q49 0 56 37q4 18 -6.5 27.5t-36.5 9.5h-144l21 120l65 109h-96l199 1120h-463l59 330h1315l-59 -330h-459z" />
    <glyph glyph-name="uni0163" unicode="&#x163;" horiz-adv-x="942" 
d="M952 782h-348l-69 -391q-10 -69 12 -97t88 -28h227l-45 -266q-103 -15 -233 -20l-45 -82h20q78 0 119 -45.5t27 -118.5q-13 -81 -77 -133q-64 -50 -151 -50h-239l26 146h162q49 0 55 37q8 37 -43 37h-143l20 120l64 107q-124 35 -182 127.5t-35 220.5l76 436h-199l49 279
h201l61 309h359l-56 -309h348z" />
    <glyph glyph-name="Tcaron" unicode="&#x164;" horiz-adv-x="1361" 
d="M1102 1591h-471l-113 361h289l70 -301l176 301h288zM186 1450h1315l-59 -330h-459l-199 -1120h-393l199 1120h-463z" />
    <glyph glyph-name="tcaron" unicode="&#x165;" horiz-adv-x="942" 
d="M854 1483l35 186h332l-41 -229q-23 -125 -134 -200q-113 -75 -274 -75l25 142q94 0 141 28.5t57 94.5zM350 1370h359l-56 -309h348l-49 -279h-348l-69 -391q-10 -69 12 -97t88 -28h227l-45 -266q-143 -20 -295 -20q-190 0 -289 101q-100 100 -71 265l76 436h-199l49 279
h201z" />
    <glyph glyph-name="Tbar" unicode="&#x166;" horiz-adv-x="1361" 
d="M1501 1450l-59 -330h-459l-47 -266h367l-48 -262h-366l-105 -592h-393l105 592h-369l47 262h369l47 266h-463l59 330h1315z" />
    <glyph glyph-name="tbar" unicode="&#x167;" horiz-adv-x="946" 
d="M1001 1061l-49 -279h-348l-24 -139h354l-37 -211h-354l-8 -41q-10 -69 12 -97t88 -28h227l-45 -266q-143 -20 -295 -20q-190 0 -289 101q-100 100 -71 265l14 86h-190l37 211h190l25 139h-199l49 279h201l61 309h359l-56 -309h348z" />
    <glyph glyph-name="Utilde" unicode="&#x168;" horiz-adv-x="1564" 
d="M1120 1612q-60 0 -140 44t-126 44q-84 0 -98 -84h-172q59 326 299 326q60 0 139 -44q78 -45 125 -45q85 0 96 84h172q-52 -325 -295 -325zM121 520l166 930h393l-158 -889q-23 -133 29.5 -192.5t192.5 -59.5q139 0 211.5 59.5t95.5 192.5l157 889h394l-164 -930
q-44 -248 -251 -399q-209 -152 -505 -152q-294 0 -449 152t-112 399z" />
    <glyph glyph-name="utilde" unicode="&#x169;" horiz-adv-x="1302" 
d="M651 1311q-85 0 -98 -84h-172q29 163 104 244.5t195 80.5q60 0 139 -44t125 -44q86 0 96 84h172q-26 -163 -99.5 -244.5t-194.5 -80.5q-60 0 -140 44t-127 44zM821 492l101 569h366l-186 -1061h-352l41 238q-73 -128 -185.5 -198.5t-247.5 -70.5q-166 0 -239.5 95.5
t-42.5 271.5l127 725h368l-104 -588q-18 -106 9.5 -151.5t111.5 -45.5q197 0 233 218v-2z" />
    <glyph glyph-name="Umacron" unicode="&#x16a;" horiz-adv-x="1564" 
d="M731 1913h586l-49 -279h-584zM121 520l166 930h393l-158 -889q-23 -133 29.5 -192.5t192.5 -59.5q139 0 211.5 59.5t95.5 192.5l157 889h394l-164 -930q-44 -248 -251 -399q-209 -152 -505 -152q-294 0 -449 152t-112 399z" />
    <glyph glyph-name="umacron" unicode="&#x16b;" horiz-adv-x="1302" 
d="M528 1524h586l-49 -279h-584zM821 492l101 569h366l-186 -1061h-352l41 238q-73 -128 -185.5 -198.5t-247.5 -70.5q-166 0 -239.5 95.5t-42.5 271.5l127 725h368l-104 -588q-18 -106 9.5 -151.5t111.5 -45.5q197 0 233 218v-2z" />
    <glyph glyph-name="Ubreve" unicode="&#x16c;" horiz-adv-x="1564" 
d="M1139 1952h229q-33 -181 -137 -276t-262 -95q-159 0 -230 94.5t-39 276.5h230q-16 -82 2 -119t74 -37q55 0 85 36.5t48 119.5zM121 520l166 930h393l-158 -889q-23 -133 29.5 -192.5t192.5 -59.5q139 0 211.5 59.5t95.5 192.5l157 889h394l-164 -930q-44 -248 -251 -399
q-209 -152 -505 -152q-294 0 -449 152t-112 399z" />
    <glyph glyph-name="ubreve" unicode="&#x16d;" horiz-adv-x="1302" 
d="M1027 1286q-104 -94 -261 -94q-156 0 -228 93q-73 93 -40 278h229q-16 -81 2.5 -118.5t73.5 -37.5t86 37t47 119h229q-33 -184 -138 -277zM821 492l101 569h366l-186 -1061h-352l41 238q-73 -128 -185.5 -198.5t-247.5 -70.5q-166 0 -239.5 95.5t-42.5 271.5l127 725h368
l-104 -588q-18 -106 9.5 -151.5t111.5 -45.5q197 0 233 218v-2z" />
    <glyph glyph-name="Uring" unicode="&#x16e;" horiz-adv-x="1564" 
d="M969 1581q-98 0 -148.5 52.5t-35.5 138.5q13 86 84 138q68 52 167 52q96 0 146.5 -52t36.5 -138q-15 -86 -84 -138q-71 -53 -166 -53zM991 1710q68 0 82 62q7 61 -59 61q-75 0 -82 -61q-6 -33 8 -47.5t51 -14.5zM121 520l166 930h393l-158 -889q-23 -133 29.5 -192.5
t192.5 -59.5q139 0 211.5 59.5t95.5 192.5l157 889h394l-164 -930q-44 -248 -251 -399q-209 -152 -505 -152q-294 0 -449 152t-112 399z" />
    <glyph glyph-name="uring" unicode="&#x16f;" horiz-adv-x="1302" 
d="M766 1192q-98 0 -148.5 52t-35.5 138q14 87 84 139q68 52 168 52q96 0 146 -52.5t36 -138.5q-15 -86 -84 -138q-70 -52 -166 -52zM729 1382q-6 -33 8.5 -47t50.5 -14q69 0 82 61q7 61 -59 62q-75 -2 -82 -62zM821 492l101 569h366l-186 -1061h-352l41 238
q-73 -128 -185.5 -198.5t-247.5 -70.5q-166 0 -239.5 95.5t-42.5 271.5l127 725h368l-104 -588q-18 -106 9.5 -151.5t111.5 -45.5q197 0 233 218v-2z" />
    <glyph glyph-name="Uhungarumlaut" unicode="&#x170;" horiz-adv-x="1564" 
d="M672 1591l145 361h281l-170 -361h-256zM1010 1591l151 361h332l-227 -361h-256zM121 520l166 930h393l-158 -889q-23 -133 29.5 -192.5t192.5 -59.5q139 0 211.5 59.5t95.5 192.5l157 889h394l-164 -930q-44 -248 -251 -399q-209 -152 -505 -152q-294 0 -449 152
t-112 399z" />
    <glyph glyph-name="uhungarumlaut" unicode="&#x171;" horiz-adv-x="1302" 
d="M608 1563h281l-170 -361h-256zM1284 1563l-227 -361h-256l151 361h332zM821 492l101 569h366l-186 -1061h-352l41 238q-73 -128 -185.5 -198.5t-247.5 -70.5q-166 0 -239.5 95.5t-42.5 271.5l127 725h368l-104 -588q-18 -106 9.5 -151.5t111.5 -45.5q197 0 233 218v-2z
" />
    <glyph glyph-name="Uogonek" unicode="&#x172;" horiz-adv-x="1564" 
d="M1051 561l157 889h394l-164 -930q-33 -194 -169 -330q-138 -138 -343 -190l-127 -139q-37 -39 -39 -62q-4 -18 7.5 -28.5t37.5 -10.5h102l-37 -209h-282q-79 0 -114.5 37.5t-24.5 102.5q17 77 86 149l124 129q-285 6 -432 157q-147 149 -106 394l166 930h393l-158 -889
q-23 -133 29.5 -192.5t192.5 -59.5q139 0 211.5 59.5t95.5 192.5z" />
    <glyph glyph-name="uogonek" unicode="&#x173;" horiz-adv-x="1302" 
d="M1102 0l-127 -139q-37 -39 -39 -62q-4 -18 7.5 -28.5t37.5 -10.5h102l-36 -209h-283q-79 0 -114.5 37.5t-24.5 102.5q17 77 86 149l153 160h-114l41 238q-73 -128 -185.5 -198.5t-247.5 -70.5q-166 0 -239.5 95.5t-42.5 271.5l127 725h368l-104 -588q-18 -106 9.5 -151.5
t111.5 -45.5q197 0 233 218v-2l101 569h366z" />
    <glyph glyph-name="Wcircumflex" unicode="&#x174;" horiz-adv-x="2457" 
d="M1542 1591l-69 301l-177 -301h-288l239 361h471l113 -361h-289zM1782 449l364 1001h447l-574 -1450h-663l-10 899l10 334l-109 -334l-325 -899h-666l-63 1450h446l16 -1001l-8 -279l88 279l352 1001h613l2 -1001l-12 -279z" />
    <glyph glyph-name="wcircumflex" unicode="&#x175;" horiz-adv-x="1878" 
d="M1200 1202l-70 301l-176 -301h-288l239 361h471l113 -361h-289zM1380 428l226 633h356l-399 -1061h-568l2 616l13 236l-70 -236l-215 -616h-584l-24 1061h381l6 -633l-17 -270l76 270l211 633h559l-14 -633l-19 -262z" />
    <glyph glyph-name="Ycircumflex" unicode="&#x176;" horiz-adv-x="1458" 
d="M1061 1591l-70 301l-176 -301h-289l240 361h471l113 -361h-289zM1233 1450h409l-739 -1071l-65 -379h-396l68 379l-360 1071h430l145 -459l57 -260l150 260z" />
    <glyph glyph-name="ycircumflex" unicode="&#x177;" horiz-adv-x="1239" 
d="M862 1202l-69 301l-177 -301h-288l239 361h471l113 -361h-289zM670 428l278 633h375l-524 -1172q-63 -140 -197 -223q-134 -82 -305 -82q-139 0 -274 21l47 266h213q150 0 188 90l16 39h-278l-98 1061h383l53 -633l10 -291z" />
    <glyph glyph-name="Ydieresis" unicode="&#x178;" horiz-adv-x="1458" 
d="M631 1927h321l-53 -309h-324zM1038 1927h324l-55 -309h-322zM1233 1450h409l-739 -1071l-65 -379h-396l68 379l-360 1071h430l145 -459l57 -260l150 260z" />
    <glyph glyph-name="Zacute" unicode="&#x179;" horiz-adv-x="1372" 
d="M762 1591l151 361h332l-227 -361h-256zM1206 0h-1210l106 606l1176 520l-303 -6h-772l57 330h1198l-106 -598l-1198 -530l313 8h799z" />
    <glyph glyph-name="zacute" unicode="&#x17a;" horiz-adv-x="1060" 
d="M514 1202l152 361h331l-227 -361h-256zM895 0h-901l88 498l772 288l-303 -8h-410l52 283h880l-90 -502l-758 -285l289 9h430z" />
    <glyph glyph-name="Zdotaccent" unicode="&#x17b;" horiz-adv-x="1372" 
d="M713 1618l55 309h387l-53 -309h-389zM1206 0h-1210l106 606l1176 520l-303 -6h-772l57 330h1198l-106 -598l-1198 -530l313 8h799z" />
    <glyph glyph-name="zdotaccent" unicode="&#x17c;" horiz-adv-x="1060" 
d="M467 1229l55 309h387l-53 -309h-389zM895 0h-901l88 498l772 288l-303 -8h-410l52 283h880l-90 -502l-758 -285l289 9h430z" />
    <glyph glyph-name="Zcaron" unicode="&#x17d;" horiz-adv-x="1372" 
d="M1137 1591h-471l-113 361h289l69 -301l176 301h289zM260 1450h1198l-106 -598l-1198 -530l313 8h799l-60 -330h-1210l106 606l1176 520l-303 -6h-772z" />
    <glyph glyph-name="zcaron" unicode="&#x17e;" horiz-adv-x="1060" 
d="M891 1202h-471l-113 361h289l70 -301l176 301h288zM551 778h-410l52 283h880l-90 -502l-758 -285l289 9h430l-49 -283h-901l88 498l772 288z" />
    <glyph glyph-name="uni018F" unicode="&#x18f;" horiz-adv-x="1560" 
d="M924 1481q328 0 493 -208q163 -208 105 -548q-57 -339 -296 -548q-238 -208 -569 -208q-305 0 -465 159t-114 427l43 240h1007q20 182 -42 264t-222 82q-152 0 -232.5 -55.5t-101.5 -176.5h-387q47 266 272 419q224 153 509 153zM715 303q262 0 356 244h-608
q-20 -127 40 -185.5t212 -58.5z" />
    <glyph glyph-name="florin" unicode="&#x192;" horiz-adv-x="1034" 
d="M1071 1296h-229q-63 0 -97 -29.5t-45 -95.5l-20 -110h344l-49 -279h-342l-209 -1181h-369l209 1181h-198l49 279h198l27 151q28 165 164 269q135 102 327 102q149 0 287 -20z" />
    <glyph glyph-name="uni019D" unicode="&#x19d;" horiz-adv-x="1695" 
d="M1204 727l127 723h389l-256 -1450h-686l-160 1292l-83 -559l-129 -733l-11 -59q-27 -160 -160 -259q-134 -98 -321 -98q-86 0 -168 21l45 266h94q57 0 88 30t43 99l254 1450h693l157 -1276z" />
    <glyph glyph-name="Gcaron" unicode="&#x1e6;" horiz-adv-x="1611" 
d="M1249 1591h-471l-112 361h288l70 -301l176 301h289zM1579 911h-387q23 119 -39.5 174.5t-220.5 55.5q-181 0 -281 -98t-139 -318q-39 -223 25.5 -323.5t246.5 -100.5q156 0 239 56.5t110 181.5h-373l47 262h764l-141 -801h-347l66 369q-150 -398 -539 -400
q-287 0 -425 201t-81 539q63 349 306 561q242 211 581 211q309 0 472 -157q162 -157 116 -413z" />
    <glyph glyph-name="gcaron" unicode="&#x1e7;" horiz-adv-x="1196" 
d="M930 1202h-471l-113 361h289l70 -301l176 301h288zM1343 1282l-47 -270q-182 0 -225 -45q97 -98 68 -250q-32 -171 -191 -274q-160 -105 -403 -105q-133 0 -226 31q-7 -13 -12 -35q-8 -41 19.5 -59.5t99.5 -18.5h360q169 0 258 -82q89 -83 64 -215q-32 -170 -211 -273
q-180 -102 -459 -102q-274 0 -420 72t-127 190q10 60 62 104t127 58q-94 72 -76 180q27 145 203 232q-157 106 -123 297q32 170 190 273q158 102 402 102q161 0 266 -43q35 119 128 176t273 57zM770 717q12 70 -19.5 100.5t-115.5 30.5q-89 0 -129.5 -29.5t-54.5 -101.5
q-14 -74 16.5 -104.5t120.5 -30.5q84 0 126 31.5t56 103.5zM653 -37h-415q-9 -24 -13 -47q-13 -72 36 -96q51 -23 214 -23q160 0 214 19q57 20 67 78q8 39 -14.5 54t-88.5 15z" />
    <glyph glyph-name="uni01EA" unicode="&#x1ea;" horiz-adv-x="1650" 
d="M412 1273q242 208 581 208t508 -208t111 -548q-49 -274 -222 -466q-172 -193 -423 -259l-127 -139q-37 -39 -39 -62q-4 -18 7.5 -28.5t37.5 -10.5h102l-37 -209h-282q-79 0 -114.5 37.5t-25.5 102.5q17 77 86 149l125 129q-327 11 -487 216q-162 206 -104 540
q58 339 303 548zM1069 406q100 100 139 319q39 218 -26 318q-66 98 -248 98q-181 0 -282 -98q-101 -100 -140 -318q-39 -219 27 -319q65 -101 248 -101q181 0 282 101z" />
    <glyph glyph-name="uni01EB" unicode="&#x1eb;" horiz-adv-x="1286" 
d="M298 937q185 155 446 155q260 0 391 -155t86 -407q-38 -207 -170 -348q-135 -144 -326 -190l-119 -131q-37 -39 -39 -62q-4 -18 7.5 -28.5t37.5 -10.5h103l-37 -209h-283q-79 0 -114 37.5t-25 102.5q17 77 86 149l127 133q-225 22 -335 175q-111 152 -68 382
q46 252 232 407zM844 530q27 146 -9.5 213.5t-141.5 67.5t-164.5 -66.5t-86.5 -214.5q-25 -147 11 -213.5t141 -66.5q104 0 162.5 66t87.5 214z" />
    <glyph glyph-name="Aringacute" unicode="&#x1fa;" horiz-adv-x="1611" 
d="M1173 1634q-71 -53 -167 -53q-97 0 -147 53t-35 138q13 85 83 138q67 52 166 52h10l72 174h268l-192 -238q39 -50 26 -126q-13 -86 -84 -138zM969 1772q-10 -60 59 -62q74 0 82 62q6 33 -8 47t-51 14q-69 0 -82 -61zM1513 0h-411l-41 328h-569l-158 -328h-402l697 1450
h698zM813 1001l-178 -372h389l-47 372l-27 320z" />
    <glyph glyph-name="aringacute" unicode="&#x1fb;" horiz-adv-x="1193" 
d="M705 1192q-98 0 -148.5 52t-35.5 138q14 87 84 139q68 52 167 52h8l72 174h270l-194 -238q39 -45 26 -127q-13 -85 -83 -138q-70 -52 -166 -52zM668 1382q-6 -33 8 -47t51 -14q72 0 82 61q7 61 -59 62q-72 -1 -82 -62zM1126 258h2l-45 -258q-91 -20 -172 -20
q-136 0 -198 51.5t-51 158.5q-62 -102 -167.5 -161.5t-234.5 -59.5q-138 0 -212 72q-73 72 -52 190q40 231 360 285q305 50 367 74l6 41q16 97 -7.5 139.5t-94.5 42.5q-72 0 -112 -46t-58 -149h-351q39 215 199 345q161 129 383 129q215 0 323 -119q107 -119 72 -318
l-49 -272q-14 -83 1 -103q15 -22 91 -22zM469 213q87 0 145.5 49.5t73.5 143.5l2 -3l6 39q-86 -26 -182 -49q-81 -18 -109 -38q-29 -21 -36 -64q-8 -39 16.5 -58.5t83.5 -19.5z" />
    <glyph glyph-name="AEacute" unicode="&#x1fc;" horiz-adv-x="2144" 
d="M1401 1952h332l-228 -361h-256zM2222 1450l-57 -330h-795l31 -241h688l-51 -297h-600l32 -252h562l-60 -330h-870l-41 328h-569l-158 -328h-402l697 1450h1593zM813 1001l-178 -372h389l-47 372l-27 320z" />
    <glyph glyph-name="aeacute" unicode="&#x1fd;" horiz-adv-x="1892" 
d="M1081 1563h332l-227 -361h-256zM1382 1092q246 0 372 -138q126 -139 87 -364l-26 -144h-736q-4 -106 36 -155t132 -49q169 0 195 114l352 2q-32 -175 -197 -281q-167 -108 -411 -108q-162 0 -273.5 66.5t-158.5 189.5q-62 -114 -184 -185q-120 -71 -273 -71
q-159 0 -242 72q-82 71 -59 190q40 229 364 285q305 50 367 74l6 41q16 96 -8.5 139t-93.5 43q-72 0 -112 -46t-58 -149h-350q38 214 198 344t383 130q205 0 301 -127q166 127 389 127zM1114 631l199 4h172q8 96 -28 140t-122 44q-162 0 -221 -188zM473 213q87 0 145.5 49.5
t73.5 143.5h2l6 34q-42 -14 -182 -47q-86 -19 -114 -39q-29 -20 -35 -63q-8 -39 17.5 -58.5t86.5 -19.5z" />
    <glyph glyph-name="Oslashacute" unicode="&#x1fe;" horiz-adv-x="1650" 
d="M985 1952h332l-227 -361h-256zM1323 1563h365l-207 -267q197 -212 131 -571q-58 -339 -303 -548q-244 -208 -582 -208q-143 0 -254 39l-115 -147h-364l237 303q-184 206 -122 561q58 339 303 548q242 208 581 208q125 0 240 -33zM512 725q-23 -132 -10 -213l489 627
q-24 2 -57 2q-181 0 -282 -98q-101 -100 -140 -318zM1208 725q26 141 6 233l-505 -649q44 -4 77 -4q182 0 282.5 100.5t139.5 319.5z" />
    <glyph glyph-name="oslashacute" unicode="&#x1ff;" horiz-adv-x="1286" 
d="M758 1563h332l-228 -361h-256zM1085 1188h244l-207 -238q146 -154 99 -420q-45 -251 -230 -406q-187 -155 -446 -155q-136 0 -238 43l-135 -155h-246l230 264q-135 156 -90 409q46 252 232 407q185 155 445 155q121 0 226 -39zM442 530q-5 -28 -10 -92l320 367
q-28 6 -60 6q-104 0 -163.5 -67t-86.5 -214zM844 530q10 50 10 113l-332 -383q33 -10 72 -10q104 0 162.5 66t87.5 214z" />
    <glyph glyph-name="uni0218" unicode="&#x218;" horiz-adv-x="1439" 
d="M623 -31q-301 0 -462 137q-161 136 -120 357h387q-16 -99 42.5 -143t207.5 -44q262 0 283 111q8 39 -5 60q-13 22 -81 49q-72 27 -207 49q-302 51 -417 159q-115 106 -81 300q39 213 238 345q198 132 487 132q283 0 432 -137q148 -138 109 -361h-387q18 100 -32 145.5
t-181 45.5q-236 0 -254 -115q-10 -57 48 -91t247 -67q306 -52 418 -163q109 -111 75 -304q-35 -209 -241 -337q-208 -128 -506 -128zM424 -315l35 188h329l-38 -229q-23 -125 -134 -200q-112 -75 -276 -75l25 139q93 0 140.5 29.5t59.5 93.5z" />
    <glyph glyph-name="uni0219" unicode="&#x219;" horiz-adv-x="1136" 
d="M471 -31q-239 0 -367 100q-129 99 -100 261h352q-10 -63 28 -91t132 -28q164 0 176 78q8 41 -30 64q-37 21 -179 38q-223 23 -316 104t-67 234q27 163 184 263q155 100 382 100q225 0 346 -103t92 -272h-352q10 70 -21 101.5t-110 31.5q-148 0 -164 -82q-10 -45 34 -66
q41 -21 181 -38q237 -26 328 -106q92 -82 67 -228q-27 -162 -191 -261q-164 -100 -405 -100zM268 -315l35 188h330l-39 -229q-23 -125 -134 -200q-112 -75 -276 -75l25 139q93 0 140.5 29.5t60.5 93.5z" />
    <glyph glyph-name="uni021A" unicode="&#x21a;" horiz-adv-x="1361" 
d="M186 1450h1315l-59 -330h-459l-199 -1120h-393l199 1120h-463zM508 -369l-141 54l34 188h330l-39 -229q-23 -125 -134 -200q-112 -75 -275 -75l24 139q93 0 141 30t60 93z" />
    <glyph glyph-name="uni021B" unicode="&#x21b;" horiz-adv-x="942" 
d="M952 782h-348l-69 -391q-10 -69 12 -97t88 -28h227l-45 -266q-143 -20 -295 -20q-190 0 -289 101q-100 100 -71 265l76 436h-199l49 279h201l61 309h359l-56 -309h348zM401 -369l-141 54l35 188h330l-39 -229q-23 -125 -134 -200q-112 -75 -276 -75l25 139
q93 0 140.5 29.5t59.5 93.5z" />
    <glyph glyph-name="uni0232" unicode="&#x232;" horiz-adv-x="1458" 
d="M700 1913h586l-49 -279h-584zM1233 1450h409l-739 -1071l-65 -379h-396l68 379l-360 1071h430l145 -459l57 -260l150 260z" />
    <glyph glyph-name="uni0233" unicode="&#x233;" horiz-adv-x="1239" 
d="M502 1524h585l-49 -279h-583zM670 428l278 633h375l-524 -1172q-63 -140 -197 -223q-134 -82 -305 -82q-139 0 -274 21l47 266h213q150 0 188 90l16 39h-278l-98 1061h383l53 -633l10 -291z" />
    <glyph glyph-name="uni0237" unicode="&#x237;" horiz-adv-x="573" 
d="M14 -8l189 1069h368l-194 -1104q-31 -167 -162 -271q-130 -102 -317 -102q-81 0 -152 21l45 266h94q58 0 88.5 28t40.5 93z" />
    <glyph glyph-name="uni0259" unicode="&#x259;" horiz-adv-x="1245" 
d="M711 1092q256 0 386 -154t85 -403q-45 -255 -229 -410q-185 -156 -441 -156q-246 0 -372 139q-126 138 -85 363l21 125h735q14 116 -25.5 169.5t-136.5 53.5q-172 0 -196 -129h-353q33 180 200 291q166 111 411 111zM561 242q155 0 213 168l-194 -2h-170
q-4 -87 31.5 -126.5t119.5 -39.5z" />
    <glyph glyph-name="uni0272" unicode="&#x272;" horiz-adv-x="1312" 
d="M954 1092q168 0 243 -96.5t44 -270.5l-127 -725h-369l105 588q18 106 -10.5 151t-114.5 45q-201 0 -240 -221v2l-112 -633q-28 -168 -161 -270q-132 -102 -316 -102q-79 0 -154 20l47 266h94q57 0 87 30t42 97l191 1088h354l-45 -260q72 138 188 214.5t254 76.5z" />
    <glyph glyph-name="circumflex" unicode="&#x2c6;" horiz-adv-x="933" 
d="M414 1563h471l112 -361h-288l-70 301l-176 -301h-289z" />
    <glyph glyph-name="caron" unicode="&#x2c7;" horiz-adv-x="933" 
d="M596 1262l176 301h289l-240 -361h-471l-112 361h288z" />
    <glyph glyph-name="breve" unicode="&#x2d8;" horiz-adv-x="778" 
d="M676 1563h229q-33 -181 -137 -276t-262 -95q-159 0 -229.5 94.5t-38.5 276.5h229q-16 -82 2 -119t74 -37q55 0 85 36.5t48 119.5z" />
    <glyph glyph-name="dotaccent" unicode="&#x2d9;" horiz-adv-x="497" 
d="M178 1229l55 309h388l-54 -309h-389z" />
    <glyph glyph-name="ring" unicode="&#x2da;" horiz-adv-x="544" 
d="M389 1192q-98 0 -148.5 52t-35.5 138q14 87 84 139q68 52 168 52q96 0 146 -52.5t36 -138.5q-13 -86 -84 -138q-70 -52 -166 -52zM412 1321q69 0 82 61q7 61 -60 62q-74 0 -82 -62q-6 -33 8.5 -47t51.5 -14z" />
    <glyph glyph-name="ogonek" unicode="&#x2db;" horiz-adv-x="555" 
d="M365 -240l-37 -209h-283q-79 0 -114 37.5t-25 102.5q17 77 86 149l153 160h238l-127 -139q-37 -39 -39 -62q-4 -18 7.5 -28.5t37.5 -10.5h103z" />
    <glyph glyph-name="tilde" unicode="&#x2dc;" horiz-adv-x="886" 
d="M715 1223q-60 0 -140 44t-126 44q-84 0 -99 -84h-172q29 163 104 244.5t195 80.5q60 0 139 -44t125 -44q87 0 97 84h172q-52 -325 -295 -325z" />
    <glyph glyph-name="hungarumlaut" unicode="&#x2dd;" horiz-adv-x="868" 
d="M174 1202l145 361h281l-170 -361h-256zM512 1202l152 361h331l-227 -361h-256z" />
    <glyph glyph-name="gravecomb" unicode="&#x300;" 
d="M-293 1563h332l24 -361h-256z" />
    <glyph glyph-name="acutecomb" unicode="&#x301;" 
d="M-356 1202l151 361h332l-227 -361h-256z" />
    <glyph glyph-name="uni0302" unicode="&#x302;" 
d="M-520 1563h471l112 -361h-288l-70 301l-176 -301h-289z" />
    <glyph glyph-name="tildecomb" unicode="&#x303;" 
d="M-172 1223q-60 0 -140 44t-126 44q-84 0 -99 -84h-172q29 163 104 244.5t195 80.5q60 0 139 -44t126 -44q85 0 96 84h172q-52 -325 -295 -325z" />
    <glyph glyph-name="uni0304" unicode="&#x304;" 
d="M-467 1524h586l-49 -279h-584z" />
    <glyph glyph-name="uni0306" unicode="&#x306;" 
d="M-102 1563h229q-33 -181 -137.5 -276t-262.5 -95t-229 94.5t-39 276.5h230q-16 -82 2 -119t73 -37t86 36.5t48 119.5z" />
    <glyph glyph-name="uni0307" unicode="&#x307;" 
d="M-319 1229l55 309h387l-53 -309h-389z" />
    <glyph glyph-name="uni0308" unicode="&#x308;" 
d="M-664 1229l56 309h321l-53 -309h-324zM-254 1229l53 309h324l-55 -309h-322z" />
    <glyph glyph-name="uni030A" unicode="&#x30a;" 
d="M-156 1192q-98 0 -148 52t-36 138q14 87 84 139t168 52q96 0 146.5 -52.5t36.5 -138.5q-15 -86 -85 -138t-166 -52zM-133 1321q69 0 82 61q7 61 -60 62q-74 0 -82 -62q-6 -33 8.5 -47t51.5 -14z" />
    <glyph glyph-name="uni030B" unicode="&#x30b;" 
d="M-694 1202l145 361h281l-170 -361h-256zM-356 1202l151 361h332l-227 -361h-256z" />
    <glyph glyph-name="uni030C" unicode="&#x30c;" 
d="M-338 1262l176 301h289l-240 -361h-471l-112 361h288z" />
    <glyph glyph-name="uni0312" unicode="&#x312;" 
d="M68 1389l-33 -187h-346l39 230q23 126 138 199t286 73l-25 -141q-196 0 -215 -121z" />
    <glyph glyph-name="dotbelowcomb" unicode="&#x323;" 
d="M-612 -436l53 309h389l-55 -309h-387z" />
    <glyph glyph-name="uni0326" unicode="&#x326;" 
d="M-537 -315l35 188h330l-39 -229q-23 -125 -135 -200q-111 -75 -275 -75l25 139q93 0 140.5 29.5t60.5 93.5z" />
    <glyph glyph-name="uni0327" unicode="&#x327;" 
d="M-362 -102h20q78 0 119 -46t26 -118q-13 -81 -77 -133q-62 -50 -150 -50h-240l27 146h162q49 0 55 37q8 37 -43 37h-143l20 120l66 109h213z" />
    <glyph glyph-name="uni0328" unicode="&#x328;" 
d="M-190 -240l-37 -209h-283q-79 0 -114 37.5t-25 102.5q17 77 86 149l153 160h238l-127 -139q-37 -39 -39 -62q-4 -18 7.5 -28.5t37.5 -10.5h103z" />
    <glyph glyph-name="uni0394" unicode="&#x394;" horiz-adv-x="1433" 
d="M539 1450h696l151 -1149l-53 -301h-1401l54 301zM860 1323l-139 -322l-336 -700h590l-88 700z" />
    <glyph glyph-name="uni03A9" unicode="&#x3a9;" horiz-adv-x="1630" 
d="M635 0h-651l53 303h129l375 -24q-225 41 -336 195q-111 153 -70 374q51 285 284 459q232 174 562 174q331 0 504 -174q172 -174 121 -459q-40 -222 -205 -376q-163 -152 -404 -193l385 24h129l-53 -303h-651l86 485q250 37 301 312q31 180 -33.5 262t-238.5 82
t-267.5 -82t-124.5 -262q-51 -274 191 -312z" />
    <glyph glyph-name="uni03BC" unicode="&#x3bc;" horiz-adv-x="1300" 
d="M821 492l101 569h366l-186 -1061h-354l43 240q-72 -123 -183 -190.5t-243 -67.5h-3l-65 -377h-350l164 930l92 526h368l-104 -588q-18 -106 9.5 -151.5t111.5 -45.5q195 0 233 218v-2z" />
    <glyph glyph-name="pi" unicode="&#x3c0;" horiz-adv-x="1454" 
d="M1473 782h-187l-72 -401q-10 -57 8.5 -83t71.5 -26h90l-45 -266q-80 -20 -157 -20q-182 0 -275 99q-94 98 -65 261l78 436h-297l-138 -782h-366l137 782h-188l49 279h1405z" />
    <glyph glyph-name="Wgrave" unicode="&#x1e80;" horiz-adv-x="2457" 
d="M1528 1952l24 -361h-256l-100 361h332zM1782 449l364 1001h447l-574 -1450h-663l-10 899l10 334l-109 -334l-325 -899h-666l-63 1450h446l16 -1001l-8 -279l88 279l352 1001h613l2 -1001l-12 -279z" />
    <glyph glyph-name="wgrave" unicode="&#x1e81;" horiz-adv-x="1878" 
d="M1190 1563l24 -361h-256l-100 361h332zM1380 428l226 633h356l-399 -1061h-568l2 616l13 236l-70 -236l-215 -616h-584l-24 1061h381l6 -633l-17 -270l76 270l211 633h559l-14 -633l-19 -262z" />
    <glyph glyph-name="Wacute" unicode="&#x1e82;" horiz-adv-x="2457" 
d="M1430 1952h331l-227 -361h-256zM1782 449l364 1001h447l-574 -1450h-663l-10 899l10 334l-109 -334l-325 -899h-666l-63 1450h446l16 -1001l-8 -279l88 279l352 1001h613l2 -1001l-12 -279z" />
    <glyph glyph-name="wacute" unicode="&#x1e83;" horiz-adv-x="1878" 
d="M1087 1563h332l-227 -361h-256zM1380 428l226 633h356l-399 -1061h-568l2 616l13 236l-70 -236l-215 -616h-584l-24 1061h381l6 -633l-17 -270l76 270l211 633h559l-14 -633l-19 -262z" />
    <glyph glyph-name="Wdieresis" unicode="&#x1e84;" horiz-adv-x="2457" 
d="M1112 1927h322l-54 -309h-323zM1520 1927h323l-55 -309h-322zM1782 449l364 1001h447l-574 -1450h-663l-10 899l10 334l-109 -334l-325 -899h-666l-63 1450h446l16 -1001l-8 -279l88 279l352 1001h613l2 -1001l-12 -279z" />
    <glyph glyph-name="wdieresis" unicode="&#x1e85;" horiz-adv-x="1878" 
d="M770 1538h322l-54 -309h-323zM1178 1538h323l-55 -309h-322zM1380 428l226 633h356l-399 -1061h-568l2 616l13 236l-70 -236l-215 -616h-584l-24 1061h381l6 -633l-17 -270l76 270l211 633h559l-14 -633l-19 -262z" />
    <glyph glyph-name="uni1EA0" unicode="&#x1ea0;" horiz-adv-x="1611" 
d="M1327 1450l186 -1450h-411l-41 328h-569l-158 -328h-402l697 1450h698zM813 1001l-178 -372h389l-47 372l-27 320zM844 -436h-387l53 309h389z" />
    <glyph glyph-name="uni1EA1" unicode="&#x1ea1;" horiz-adv-x="1193" 
d="M1126 258h2l-45 -258q-91 -20 -172 -20q-136 0 -198 51.5t-51 158.5q-62 -102 -167.5 -161.5t-234.5 -59.5q-138 0 -212 72q-73 72 -52 190q40 231 360 285q305 50 367 74l6 41q16 97 -7.5 139.5t-94.5 42.5q-72 0 -112 -46t-58 -149h-351q39 215 199 345
q161 129 383 129q215 0 323 -119q107 -119 72 -318l-49 -272q-14 -83 1 -103q15 -22 91 -22zM469 213q87 0 145.5 49.5t73.5 143.5l2 -3l6 39q-86 -26 -182 -49q-81 -18 -109 -38q-29 -21 -36 -64q-8 -39 16.5 -58.5t83.5 -19.5zM645 -436h-387l53 309h389z" />
    <glyph glyph-name="uni1EB8" unicode="&#x1eb8;" horiz-adv-x="1312" 
d="M1391 1450l-58 -330h-698l-43 -241h665l-51 -297h-665l-45 -252h704l-59 -330h-1098l256 1450h1092zM715 -436h-387l53 309h389z" />
    <glyph glyph-name="uni1EB9" unicode="&#x1eb9;" horiz-adv-x="1245" 
d="M735 1092q246 0 372 -138q126 -139 87 -364l-27 -144h-735q-4 -106 36 -155t132 -49q174 0 195 116h352q-32 -175 -198 -281q-167 -108 -410 -108q-257 0 -388 155q-131 156 -85 406q47 252 230 407q184 155 439 155zM467 631l199 4h172q8 96 -28 140t-122 44
q-162 0 -221 -188zM659 -436h-387l54 309h389z" />
    <glyph glyph-name="uni1EBC" unicode="&#x1ebc;" horiz-adv-x="1312" 
d="M758 1700q-84 0 -99 -84h-172q59 326 299 326q60 0 140 -44q78 -45 125 -45q85 0 96 84h172q-26 -163 -100 -244.5t-195 -80.5q-60 0 -140 44t-126 44zM1391 1450l-58 -330h-698l-43 -241h665l-51 -297h-665l-45 -252h704l-59 -330h-1098l256 1450h1092z" />
    <glyph glyph-name="uni1EBD" unicode="&#x1ebd;" horiz-adv-x="1245" 
d="M639 1311q-85 0 -98 -84h-172q29 163 104 244.5t195 80.5q60 0 139 -44t125 -44q86 0 96 84h172q-26 -163 -100 -244.5t-195 -80.5q-60 0 -140 44t-126 44zM735 1092q246 0 372 -138q126 -139 87 -364l-27 -144h-735q-4 -106 36 -155t132 -49q174 0 195 116h352
q-32 -175 -198 -281q-167 -108 -410 -108q-257 0 -388 155q-131 156 -85 406q47 252 230 407q184 155 439 155zM467 631l199 4h172q8 96 -28 140t-122 44q-162 0 -221 -188z" />
    <glyph glyph-name="uni1ECA" unicode="&#x1eca;" horiz-adv-x="667" 
d="M43 0l256 1450h393l-254 -1450h-395zM-29 -436l54 309h389l-56 -309h-387z" />
    <glyph glyph-name="uni1ECB" unicode="&#x1ecb;" horiz-adv-x="587" 
d="M225 1229l56 309h387l-54 -309h-389zM18 0l189 1061h366l-186 -1061h-369zM-72 -436l54 309h389l-56 -309h-387z" />
    <glyph glyph-name="uni1ECC" unicode="&#x1ecc;" horiz-adv-x="1650" 
d="M1309 177q-244 -208 -582 -208q-339 0 -508 208q-170 209 -110 548q58 339 303 548q242 208 581 208t508 -208t111 -548q-60 -339 -303 -548zM539 406q65 -101 248 -101q181 0 282 101q100 100 139 319q39 218 -26 318q-66 98 -248 98q-181 0 -282 -98
q-101 -100 -140 -318q-39 -219 27 -319zM463 -436l53 309h389l-55 -309h-387z" />
    <glyph glyph-name="uni1ECD" unicode="&#x1ecd;" horiz-adv-x="1286" 
d="M991 124q-187 -155 -446 -155q-260 0 -392 155q-134 155 -87 406q46 252 232 407q185 155 446 155q260 0 391 -155t86 -406q-45 -252 -230 -407zM453 317q36 -67 141 -67t163 67q59 66 87 213q27 146 -9.5 213.5t-141.5 67.5t-164.5 -66.5t-86.5 -214.5q-25 -146 11 -213
zM281 -436l53 309h389l-55 -309h-387z" />
    <glyph glyph-name="uni1EE4" unicode="&#x1ee4;" horiz-adv-x="1564" 
d="M121 520l166 930h393l-158 -889q-23 -133 29.5 -192.5t192.5 -59.5q139 0 211.5 59.5t95.5 192.5l157 889h394l-164 -930q-44 -248 -251 -399q-209 -152 -505 -152q-294 0 -449 152t-112 399zM418 -436l53 309h389l-55 -309h-387z" />
    <glyph glyph-name="uni1EE5" unicode="&#x1ee5;" horiz-adv-x="1302" 
d="M821 492l101 569h366l-186 -1061h-352l41 238q-73 -128 -185.5 -198.5t-247.5 -70.5q-166 0 -239.5 95.5t-42.5 271.5l127 725h368l-104 -588q-18 -106 9.5 -151.5t111.5 -45.5q197 0 233 218v-2zM672 -436h-387l53 309h389z" />
    <glyph glyph-name="Ygrave" unicode="&#x1ef2;" horiz-adv-x="1458" 
d="M1047 1952l24 -361h-256l-100 361h332zM1233 1450h409l-739 -1071l-65 -379h-396l68 379l-360 1071h430l145 -459l57 -260l150 260z" />
    <glyph glyph-name="ygrave" unicode="&#x1ef3;" horiz-adv-x="1239" 
d="M850 1563l24 -361h-256l-100 361h332zM670 428l278 633h375l-524 -1172q-63 -140 -197 -223q-134 -82 -305 -82q-139 0 -274 21l47 266h213q150 0 188 90l16 39h-278l-98 1061h383l53 -633l10 -291z" />
    <glyph glyph-name="uni1EF8" unicode="&#x1ef8;" horiz-adv-x="1458" 
d="M823 1700q-85 0 -98 -84h-172q59 326 299 326q60 0 139 -44q78 -45 125 -45q86 0 96 84h172q-26 -163 -99.5 -244.5t-194.5 -80.5q-60 0 -140 44t-127 44zM1233 1450h409l-739 -1071l-65 -379h-396l68 379l-360 1071h430l145 -459l57 -260l150 260z" />
    <glyph glyph-name="uni1EF9" unicode="&#x1ef9;" horiz-adv-x="1239" 
d="M623 1311q-84 0 -99 -84h-172q29 163 104 244.5t195 80.5q60 0 139 -44t125 -44q87 0 97 84h172q-26 -163 -100 -244.5t-195 -80.5q-60 0 -140 44t-126 44zM670 428l278 633h375l-524 -1172q-63 -140 -197 -223q-134 -82 -305 -82q-139 0 -274 21l47 266h213
q150 0 188 90l16 39h-278l-98 1061h383l53 -633l10 -291z" />
    <glyph glyph-name="endash" unicode="&#x2013;" horiz-adv-x="1177" 
d="M86 662h1059l-47 -279h-1059z" />
    <glyph glyph-name="emdash" unicode="&#x2014;" horiz-adv-x="1761" 
d="M86 662h1643l-48 -279h-1642z" />
    <glyph glyph-name="quoteleft" unicode="&#x2018;" horiz-adv-x="526" 
d="M532 1104l-36 -213h-346l47 268q27 146 143 235q116 87 291 87l-27 -146q-105 0 -160 -35.5t-69 -115.5z" />
    <glyph glyph-name="quoteright" unicode="&#x2019;" horiz-adv-x="528" 
d="M221 1237l37 213h346l-47 -268q-27 -147 -142 -234q-115 -88 -292 -88l24 146q105 0 160 35.5t70 115.5z" />
    <glyph glyph-name="quotesinglbase" unicode="&#x201a;" horiz-adv-x="604" 
d="M31 63l57 316h395l-67 -379q-31 -171 -165 -275q-133 -102 -329 -102l29 162q123 0 186.5 46t81.5 149z" />
    <glyph glyph-name="quotedblleft" unicode="&#x201c;" horiz-adv-x="954" 
d="M958 1104l-36 -213h-347l48 268q27 146 143 235q116 87 291 87l-27 -146q-105 0 -160 -35.5t-69 -115.5zM535 1096l-37 -205h-346l45 258q25 145 141 231t293 86l-27 -145q-106 0 -159.5 -34t-67.5 -109z" />
    <glyph glyph-name="quotedblright" unicode="&#x201d;" horiz-adv-x="954" 
d="M221 1237l37 213h346l-47 -268q-27 -147 -142 -234q-115 -88 -292 -88l24 146q105 0 160 35.5t70 115.5zM645 1245l37 205h346l-45 -260q-25 -145 -140 -230q-116 -86 -294 -86l24 144q106 0 160.5 34.5t69.5 110.5z" />
    <glyph glyph-name="quotedblbase" unicode="&#x201e;" horiz-adv-x="604" 
d="M31 63l57 316h395l-67 -379q-31 -171 -165 -275q-133 -102 -329 -102l29 162q123 0 186.5 46t81.5 149z" />
    <glyph glyph-name="dagger" unicode="&#x2020;" horiz-adv-x="952" 
d="M690 762h260l-49 -273h-260l-57 -323h-344l57 323h-262l49 273h260l121 688h346z" />
    <glyph glyph-name="daggerdbl" unicode="&#x2021;" horiz-adv-x="952" 
d="M1028 1214l-45 -264h-262l-53 -309h260l-47 -264h-260l-43 -244h-345l43 244h-262l47 264h263l53 309h-260l45 264h262l41 236h344l-41 -236h260z" />
    <glyph glyph-name="bullet" unicode="&#x2022;" horiz-adv-x="679" 
d="M45 293l90 508h506l-90 -508h-506z" />
    <glyph glyph-name="ellipsis" unicode="&#x2026;" horiz-adv-x="1613" 
d="M6 0l64 360h374l-61 -360h-377zM528 0l62 360h377l-64 -360h-375zM1049 0l63 360h377l-64 -360h-376z" />
    <glyph glyph-name="perthousand" unicode="&#x2030;" horiz-adv-x="2154" 
d="M453 754q-170 0 -258 100q-89 100 -60 264q28 163 152 264q123 99 293 99q172 0 260 -100t59 -263q-28 -163 -151 -264q-122 -100 -295 -100zM1663 1450l-471 -668h-338l430 668h379zM381 1118q-10 -66 20 -104.5t91 -38.5t106 40t55 103q12 63 -18.5 102.5t-91.5 39.5
t-105.5 -39.5t-56.5 -102.5zM1788 696q163 0 245 -100t54 -262q-28 -163 -146 -264q-119 -101 -280 -101q-120 0 -194 64t-87 178q-51 -114 -147.5 -178t-216.5 -64q-161 0 -244 101q-82 99 -53 264q28 161 146 262q115 100 278 100q120 0 194 -64t86 -175q51 112 148 175.5
t217 63.5zM-31 0l469 668h338l-428 -668h-379zM1237 334q10 66 -19.5 103.5t-90.5 37.5q-62 0 -107 -39t-55 -102q-12 -66 18.5 -105t92.5 -39t105.5 39t55.5 105zM1841 334q10 66 -19.5 103.5t-90.5 37.5q-62 0 -107 -39t-55 -102q-12 -66 18.5 -105t92.5 -39t105.5 39
t55.5 105z" />
    <glyph glyph-name="guilsinglleft" unicode="&#x2039;" horiz-adv-x="641" 
d="M147 141l-141 185l72 405l205 184h403l-448 -387l311 -387h-402z" />
    <glyph glyph-name="guilsinglright" unicode="&#x203a;" horiz-adv-x="641" 
d="M356 141h-403l448 387l-311 387h402l141 -184l-72 -405z" />
    <glyph glyph-name="fraction" unicode="&#x2044;" horiz-adv-x="393" 
d="M-598 0l1380 1450h281l-1380 -1450h-281z" />
    <glyph glyph-name="uni20AA" unicode="&#x20aa;" horiz-adv-x="1863" 
d="M43 0l256 1450h360l-253 -1450h-363zM1346 424l180 1026h360l-178 -1014q-38 -198 -171 -316q-133 -120 -320 -120h-701l186 1061h263l-138 -778h349q80 0 117.5 31.5t52.5 109.5zM977 1167h-367l49 283h390q164 0 247 -101q82 -102 54 -270l-121 -690h-264l112 637
q14 78 -8 109.5t-92 31.5z" />
    <glyph glyph-name="Euro" unicode="&#x20ac;" horiz-adv-x="1538" 
d="M1026 1481q284 0 436 -161q150 -161 105 -427h-387q23 129 -28.5 188.5t-184.5 59.5q-211 0 -303 -180h323l-63 -199h-875l33 199h176q103 241 308 381q203 139 460 139zM819 305q135 0 205 53.5t92 171.5h387q-45 -257 -250 -408q-205 -153 -493 -153q-253 0 -405 136
q-155 135 -177 370h-180l33 199h862l-64 -199h-245q32 -170 235 -170z" />
    <glyph glyph-name="uni2113" unicode="&#x2113;" horiz-adv-x="1062" 
d="M795 1583q189 0 281 -144q91 -144 50 -380q-44 -243 -204 -391q-162 -150 -381 -150h-9l-24 -137q-10 -61 11.5 -88t78.5 -27h207l-45 -260q-139 -27 -293 -26q-191 0 -277 90.5t-57 263.5l33 184h-143l45 254h143l65 371q33 198 177 320q143 120 342 120zM809 1059
q25 144 16 202q-11 56 -61 56q-51 0 -78 -45q-28 -46 -47 -162l-61 -338h16q92 0 139 63q48 63 76 224z" />
    <glyph glyph-name="uni2116" unicode="&#x2116;" horiz-adv-x="2547" 
d="M1952 1385q128 96 307 96q181 0 272 -96q91 -97 66 -255q-29 -158 -156 -254t-307 -96t-271 97q-91 96 -64 254q25 156 153 254zM1147 174l84 553l127 723h389l-254 -1450h-688l-158 1300l-86 -567l-129 -733h-389l256 1450h690zM2316 1130q12 74 -10 107t-83 33
q-62 0 -96 -33t-48 -107q-27 -141 92 -141q123 0 145 141zM2234 395h-336l50 281h336z" />
    <glyph glyph-name="trademark" unicode="&#x2122;" horiz-adv-x="1953" 
d="M104 1450h711l-37 -211h-225l-80 -455h-258l80 455h-227zM1589 1450h457l-117 -666h-258l74 422l35 164l-224 -586h-391l-18 594l-27 -172l-73 -422h-259l119 666h463l16 -399l-4 -162l52 162z" />
    <glyph glyph-name="onethird" unicode="&#x2153;" horiz-adv-x="1597" 
d="M-12 0l1382 1450h281l-1383 -1450h-280zM467 1153l43 209l-113 -105l-211 -161l45 254l134 100h387l-119 -676h-232zM1255 707q134 0 207 -52q74 -53 60 -137q-22 -124 -217 -141q104 -10 150 -59t32 -130q-16 -94 -115 -151q-100 -57 -246 -57q-139 0 -212 70
q-74 70 -52 183h223q-7 -39 11 -58.5t61 -18.5q88 0 103 61q6 25 -12 40t-58 15h-92l22 134h88q60 0 70 57q6 34 -7.5 51t-45.5 16q-75 0 -88 -79h-224q19 115 114 186q92 70 228 70z" />
    <glyph glyph-name="twothirds" unicode="&#x2154;" horiz-adv-x="1656" 
d="M377 963h354l-31 -189h-596l54 305l313 82q39 12 57.5 31.5t24.5 54.5q13 76 -57 76q-74 0 -93 -106h-225q22 118 119 192q96 72 233 72q134 0 202 -63q67 -64 48 -169q-29 -148 -231 -209l-187 -55l-112 -24zM47 0l1380 1450h281l-1380 -1450h-281zM1305 707
q134 0 207 -52t59 -137q-26 -129 -217 -141q104 -10 150 -59.5t34 -129.5q-17 -95 -116 -151q-100 -57 -246 -57q-139 0 -212 70q-73 68 -53 183h226q-7 -39 10.5 -58.5t58.5 -18.5q90 0 105 61q8 55 -70 55h-94l24 134h89q58 0 69 57q6 34 -7.5 51t-47.5 16q-73 0 -86 -79
h-225q22 116 115 187q92 69 227 69z" />
    <glyph glyph-name="oneeighth" unicode="&#x215b;" horiz-adv-x="1613" 
d="M-16 0l1382 1450h281l-1383 -1450h-280zM451 1153l43 207l-113 -103l-211 -161l45 254l133 100h387l-119 -676h-231zM1264 707q136 0 213 -54q75 -56 59 -143q-23 -126 -195 -160q176 -38 152 -178q-13 -87 -112 -140q-98 -52 -244 -52q-147 0 -226 52t-63 140
q25 141 215 178q-162 34 -139 160q16 87 111 143q95 54 229 54zM1143 469q-12 -72 68 -72q79 0 92 72q14 74 -68 74q-80 0 -92 -74zM1270 219q8 39 -11.5 56.5t-68.5 17.5q-91 0 -105 -74q-6 -41 12.5 -58.5t67.5 -17.5q92 0 105 76z" />
    <glyph glyph-name="threeeighths" unicode="&#x215c;" horiz-adv-x="1660" 
d="M406 754q-139 0 -212 70q-73 68 -53 184h226q-17 -78 69 -78q92 0 105 61q4 27 -14.5 41.5t-57.5 14.5h-94l24 133h88q59 0 70 57q14 68 -55 68q-72 0 -86 -78h-223q19 114 113 185q93 69 229 69q133 0 206 -51q71 -52 58 -136q-20 -125 -209 -143q203 -27 176 -188
q-16 -94 -115 -151q-100 -58 -245 -58zM31 0l1382 1450h281l-1383 -1450h-280zM1309 707q137 0 213 -54q75 -56 59 -143q-23 -126 -195 -160q176 -38 152 -178q-13 -87 -112 -140q-98 -52 -244 -52q-147 0 -226 52t-63 140q25 141 215 178q-162 34 -139 160q16 87 111 143
q94 54 229 54zM1188 469q-12 -72 68 -72q78 0 92 72q14 74 -68 74q-80 0 -92 -74zM1315 219q8 39 -11.5 56.5t-68.5 17.5q-91 0 -105 -74q-6 -41 12.5 -58.5t67.5 -17.5q92 0 105 76z" />
    <glyph glyph-name="fiveeighths" unicode="&#x215d;" horiz-adv-x="1642" 
d="M-4 0l1380 1450h281l-1381 -1450h-280zM634 821q-92 -67 -228 -67q-135 0 -206 68t-50 175h223q-7 -39 8.5 -58.5t52.5 -18.5q69 0 82 73q14 86 -55 86q-55 0 -96 -41h-201l96 412h535l-31 -182h-242l-104 2l-39 -168q77 104 203 104q90 0 135 -57t28 -152
q-18 -108 -111 -176zM1060 653q93 54 230 54q136 0 213 -54q76 -55 60 -143q-23 -125 -197 -160q178 -37 154 -178q-13 -87 -112 -140q-98 -52 -247 -52q-145 0 -224 52q-78 52 -65 140q25 139 215 178q-160 34 -137 160q16 88 110 143zM1167 469q-12 -72 68 -72q81 0 94 72
q12 74 -67 74q-83 0 -95 -74zM1296 219q8 38 -11.5 56t-67.5 18q-92 0 -107 -74q-6 -39 13.5 -57.5t66.5 -18.5q93 0 106 76z" />
    <glyph glyph-name="seveneighths" unicode="&#x215e;" horiz-adv-x="1591" 
d="M-41 0l1382 1450h281l-1382 -1450h-281zM516 774h-233q27 158 144 294q114 135 302 200l-151 -2h-293l30 184h508l-28 -162l-27 -147q-86 -33 -156 -133t-96 -234zM1011 653q93 54 230 54t212 -54q74 -55 58 -143q-23 -125 -194 -160q176 -38 151 -178q-13 -87 -111 -140
q-97 -52 -245 -52q-145 0 -224 52q-78 52 -65 140q25 139 215 178q-160 34 -137 160q16 88 110 143zM1118 469q-12 -72 68 -72t92 72q14 74 -66 74q-82 0 -94 -74zM1247 219q8 38 -12 56t-68 18q-94 0 -106 -74q-6 -39 13.5 -57.5t66.5 -18.5q93 0 106 76z" />
    <glyph glyph-name="arrowleft" unicode="&#x2190;" horiz-adv-x="1513" 
d="M612 848l916 22l-53 -299l-904 23l301 -342l-231 -195l-547 664l780 665l160 -194z" />
    <glyph glyph-name="arrowup" unicode="&#x2191;" horiz-adv-x="1468" 
d="M901 1473l547 -664l-229 -197l-277 359l-139 -905h-299l184 911l-407 -363l-162 195z" />
    <glyph glyph-name="arrowright" unicode="&#x2192;" horiz-adv-x="1513" 
d="M711 1192l227 194l547 -665l-780 -664l-162 195l420 342l-912 -23l53 299l906 -22z" />
    <glyph glyph-name="arrowdown" unicode="&#x2193;" horiz-adv-x="1468" 
d="M856 520l408 361l161 -193l-782 -663l-547 663l230 195l276 -357l139 906h299z" />
    <glyph glyph-name="arrowboth" unicode="&#x2194;" horiz-adv-x="2172" 
d="M1354 1202l227 197l530 -645l-757 -643l-158 196l403 328h-1052l289 -328l-228 -196l-530 643l758 645l159 -197l-399 -323h1042z" />
    <glyph glyph-name="arrowupdn" unicode="&#x2195;" horiz-adv-x="1409" 
d="M948 1204l-180 -1014l393 351l158 -189l-760 -643l-530 643l225 189l270 -357l181 1026l-402 -360l-153 182l757 647l531 -645l-217 -184z" />
    <glyph glyph-name="uni2196" unicode="&#x2196;" horiz-adv-x="1236" 
d="M614 1034l551 -626l-250 -211l-509 657l-74 -498l-275 2l164 938l940 2l-49 -274z" />
    <glyph glyph-name="uni2197" unicode="&#x2197;" horiz-adv-x="1234" 
d="M299 1032l49 277l936 -2l-164 -938l-276 -2l100 495l-739 -655l-174 211l770 626z" />
    <glyph glyph-name="uni2198" unicode="&#x2198;" horiz-adv-x="1239" 
d="M918 698l77 502h277l-168 -938h-938l47 277l492 -15l-545 625l248 211z" />
    <glyph glyph-name="uni2199" unicode="&#x2199;" horiz-adv-x="1239" 
d="M1122 1360l174 -211l-766 -625l500 15l-51 -277h-938l164 938h274l-98 -500z" />
    <glyph glyph-name="partialdiff" unicode="&#x2202;" horiz-adv-x="1261" 
d="M336 1593l387 -61q290 -46 430 -264q139 -217 82 -535q-58 -343 -259 -554q-200 -210 -468 -210q-251 0 -379 152q-127 151 -84 401q39 220 186 353q145 133 347 133q126 0 210 -59t111 -165l6 31q33 188 -18 265q-52 78 -223 100l-394 41zM433 318q36 -64 139 -64
t161 64q58 62 82 206q25 135 -10 195.5t-135 60.5q-105 0 -164.5 -61.5t-83.5 -196.5q-25 -140 11 -204z" />
    <glyph glyph-name="product" unicode="&#x220f;" horiz-adv-x="1597" 
d="M250 1450h1423l-59 -330h-201l-268 -1515h-377l268 1515h-266l-268 -1515h-379l268 1515h-201z" />
    <glyph glyph-name="summation" unicode="&#x2211;" horiz-adv-x="1134" 
d="M903 -397l-1009 2l106 590l625 258l211 75l-183 74l-536 258l104 590l1008 -2l-58 -330h-481l-446 15l737 -347l-92 -520l-866 -348l458 14h482z" />
    <glyph glyph-name="minus" unicode="&#x2212;" horiz-adv-x="1026" 
d="M102 670h871l-43 -246h-871z" />
    <glyph glyph-name="uni2215" unicode="&#x2215;" horiz-adv-x="727" 
d="M-152 -395l693 1958h354l-690 -1958h-357z" />
    <glyph glyph-name="uni2219" unicode="&#x2219;" horiz-adv-x="600" 
d="M37 313l82 469h469l-82 -469h-469z" />
    <glyph glyph-name="radical" unicode="&#x221a;" horiz-adv-x="1341" 
d="M944 1450h621l-60 -330h-342l-551 -1515h-589l-39 1061h329l15 -682l-4 -297l100 297z" />
    <glyph glyph-name="infinity" unicode="&#x221e;" horiz-adv-x="2025" 
d="M1556 1012q216 0 329 -126q112 -125 77 -333q-39 -207 -194 -333q-156 -126 -373 -126q-273 0 -422 242q-239 -242 -514 -242q-213 0 -319 127q-107 128 -68 332q34 206 187 333q152 126 362 126q158 0 258 -64q99 -63 172 -178q230 242 505 242zM555 356q78 0 146.5 47
t158.5 150q-52 102 -105.5 149.5t-131.5 47.5q-104 0 -159.5 -47.5t-73.5 -149.5q-19 -102 21 -149.5t144 -47.5zM1642 553q18 102 -21.5 149.5t-143.5 47.5q-80 0 -151.5 -47.5t-160.5 -149.5q54 -102 109 -149.5t135 -47.5q104 0 158.5 46t74.5 151z" />
    <glyph glyph-name="integral" unicode="&#x222b;" horiz-adv-x="942" 
d="M877 1481q105 0 202 -21l-49 -266h-143q-121 0 -142 -125l-196 -1114q-28 -165 -164 -269q-135 -102 -328 -102q-105 0 -200 21l47 266h143q63 0 97 29.5t44 95.5l197 1114q28 165 164 269q135 102 328 102z" />
    <glyph glyph-name="approxequal" unicode="&#x2248;" horiz-adv-x="1230" 
d="M311 600h-221q32 171 144 280t260 109q86 0 151 -33q63 -34 116 -67t111 -33t95 39t45 90h221q-33 -177 -143 -283t-263 -106q-110 0 -210 67q-101 66 -168 66q-53 0 -91.5 -37t-46.5 -92zM221 92h-221q32 171 144 280t259 109q66 0 123.5 -19t90.5 -47q79 -67 167 -67
q53 0 91 37t47 92h221q-33 -177 -143 -283t-261 -106q-110 0 -211 67q-102 66 -170 66q-53 0 -90.5 -37t-46.5 -92z" />
    <glyph glyph-name="notequal" unicode="&#x2260;" horiz-adv-x="1079" 
d="M1053 907l-45 -243h-260l-183 -234h404l-43 -244h-543l-115 -141h-233l115 141h-115l43 244h254l182 234h-397l43 243h532l121 150h234l-121 -150h127z" />
    <glyph glyph-name="lessequal" unicode="&#x2264;" horiz-adv-x="1036" 
d="M913 291l-843 186l67 389l912 187l-43 -242l-818 -139l770 -137zM-8 43l43 244h878l-43 -244h-878z" />
    <glyph glyph-name="greaterequal" unicode="&#x2265;" horiz-adv-x="1036" 
d="M948 477l-911 -186l43 244l817 137l-770 139l43 242l846 -187zM37 287h876l-43 -244h-876z" />
    <glyph glyph-name="uni2460" unicode="&#x2460;" horiz-adv-x="1699" 
d="M1351 177q-250 -208 -599 -208t-526 208t-117 548q58 338 310 548q250 208 599 208q348 0 525 -208q176 -208 118 -548q-58 -338 -310 -548zM780 131q267 0 460 163q194 164 239 431q47 266 -87 430q-135 164 -403 164q-265 0 -458 -164q-193 -163 -240 -430
q-45 -268 88 -431t401 -163zM772 891l-244 -184l52 288l153 119h443l-138 -778h-262l76 436l49 240z" />
    <glyph glyph-name="uni2461" unicode="&#x2461;" horiz-adv-x="1699" 
d="M1351 177q-250 -208 -599 -208t-526 208t-117 548q58 338 310 548q250 208 599 208q348 0 525 -208q176 -208 118 -548q-58 -338 -310 -548zM780 131q267 0 460 163q194 164 239 431q47 266 -87 430q-135 164 -403 164q-265 0 -458 -164q-193 -163 -240 -430
q-45 -268 88 -431t401 -163zM1171 336h-684l60 348l360 92q82 25 94 101q13 88 -65 88q-86 0 -107 -125h-258q26 138 137 221q111 84 267 84q155 0 232 -74t57 -194q-31 -168 -269 -238l-211 -66l-127 -28l144 4h407z" />
    <glyph glyph-name="uni2462" unicode="&#x2462;" horiz-adv-x="1699" 
d="M1351 177q-250 -208 -599 -208t-526 208t-117 548q58 338 310 548q250 208 599 208q348 0 525 -208q176 -208 118 -548q-58 -338 -310 -548zM780 131q267 0 460 163q194 164 239 431q47 266 -87 430q-135 164 -403 164q-265 0 -458 -164q-193 -163 -240 -430
q-45 -268 88 -431t401 -163zM500 600h258q-13 -88 82 -88q109 0 121 70q5 31 -15.5 47t-66.5 16h-107l27 154h100q68 0 82 65q13 78 -63 78q-45 0 -68 -21t-33 -69h-258q26 134 133 213q107 80 261 80q152 0 238 -59q86 -60 66 -158q-12 -69 -76 -111.5t-171 -50.5
q121 -12 173 -68.5t36 -148.5q-18 -109 -132 -174q-114 -66 -282 -66q-162 0 -245 80t-60 211z" />
    <glyph glyph-name="uni2463" unicode="&#x2463;" horiz-adv-x="1699" 
d="M1351 177q-250 -208 -599 -208t-526 208t-117 548q58 338 310 548q250 208 599 208q348 0 525 -208q176 -208 118 -548q-58 -338 -310 -548zM780 131q267 0 460 163q194 164 239 431q47 266 -87 430q-135 164 -403 164q-265 0 -458 -164q-193 -163 -240 -430
q-45 -268 88 -431t401 -163zM811 467h-311l71 397l201 250h418l-80 -455h109l-35 -192h-109l-22 -131h-265zM924 1071l-334 -416l88 2l168 2l31 191z" />
    <glyph glyph-name="uni2464" unicode="&#x2464;" horiz-adv-x="1699" 
d="M1351 177q-250 -208 -599 -208t-526 208t-117 548q58 338 310 548q250 208 599 208q348 0 525 -208q176 -208 118 -548q-58 -338 -310 -548zM780 131q267 0 460 163q194 164 239 431q47 266 -87 430q-135 164 -403 164q-265 0 -458 -164q-193 -163 -240 -430
q-45 -268 88 -431t401 -163zM518 592h258q-14 -92 70 -92q80 0 94 84q18 100 -63 100q-58 0 -113 -47h-229l112 475h615l-37 -207h-275l-121 2l-47 -202q84 124 236 122q104 0 157 -65q52 -65 31 -172q-22 -128 -129 -204q-107 -77 -262 -77t-238 78q-82 77 -59 205z" />
    <glyph glyph-name="uni2465" unicode="&#x2465;" horiz-adv-x="1699" 
d="M1351 177q-250 -208 -599 -208t-526 208t-117 548q58 338 310 548q250 208 599 208q348 0 525 -208q176 -208 118 -548q-58 -338 -310 -548zM780 131q267 0 460 163q194 164 239 431q47 266 -87 430q-135 164 -403 164q-265 0 -458 -164q-193 -163 -240 -430
q-45 -268 88 -431t401 -163zM504 723q33 188 162 305t305 117q161 0 244 -73q82 -73 63 -191h-258q6 39 -12.5 55t-69.5 16q-69 0 -109.5 -54.5t-60.5 -174.5q-3 -16 -8 -47q33 66 102 104.5t156 38.5q112 0 171 -63q58 -64 40 -166q-22 -127 -131 -204q-110 -77 -264 -77
q-195 0 -281 106.5t-49 307.5zM756 590q-6 -41 18.5 -60.5t81.5 -19.5q94 0 109 80q8 45 -10.5 64.5t-69.5 19.5q-113 0 -129 -84z" />
    <glyph glyph-name="uni2466" unicode="&#x2466;" horiz-adv-x="1699" 
d="M1351 177q-250 -208 -599 -208t-526 208t-117 548q58 338 310 548q250 208 599 208q348 0 525 -208q176 -208 118 -548q-58 -338 -310 -548zM780 131q267 0 460 163q194 164 239 431q47 266 -87 430q-135 164 -403 164q-265 0 -458 -164q-193 -163 -240 -430
q-45 -268 88 -431t401 -163zM973 901h-336l35 213h583l-61 -356q-100 -39 -181 -154q-81 -116 -108 -268h-270q32 181 163 336q132 154 341 231z" />
    <glyph glyph-name="uni2467" unicode="&#x2467;" horiz-adv-x="1699" 
d="M1351 177q-250 -208 -599 -208t-526 208t-117 548q58 338 310 548q250 208 599 208q348 0 525 -208q176 -208 118 -548q-58 -338 -310 -548zM780 131q267 0 460 163q194 164 239 431q47 266 -87 430q-135 164 -403 164q-265 0 -458 -164q-193 -163 -240 -430
q-45 -268 88 -431t401 -163zM479 530q32 164 250 207q-186 37 -162 183q18 100 126 163q109 62 266 62t243 -62q86 -64 70 -163q-26 -146 -228 -183q207 -44 179 -207q-18 -100 -130 -160q-112 -61 -280 -61q-170 0 -261 61q-91 60 -73 160zM819 870q-7 -40 12.5 -60
t65.5 -19q92 0 107 79q8 45 -10.5 65.5t-67.5 20.5q-93 0 -107 -86zM754 586q-8 -45 14.5 -66.5t77.5 -21.5q106 0 121 88q8 44 -14 63t-79 19q-107 0 -120 -82z" />
    <glyph glyph-name="uni2468" unicode="&#x2468;" horiz-adv-x="1699" 
d="M1351 177q-250 -208 -599 -208t-526 208t-117 548q58 338 310 548q250 208 599 208q348 0 525 -208q176 -208 118 -548q-58 -338 -310 -548zM780 131q267 0 460 163q194 164 239 431q47 266 -87 430q-135 164 -403 164q-265 0 -458 -164q-193 -163 -240 -430
q-45 -268 88 -431t401 -163zM555 864q23 128 132 204q109 77 263 77q195 0 281 -107.5t51 -308.5q-33 -189 -162 -304q-130 -116 -305 -116q-159 0 -244 74q-84 73 -61 195h258q-8 -41 10.5 -59.5t69.5 -18.5q130 0 170 229l8 47q-35 -66 -102 -104.5t-148 -38.5
q-119 0 -179 64q-60 63 -42 167zM819 864q-6 -45 12.5 -64.5t69.5 -19.5q113 0 127 84q8 41 -16 59.5t-84 18.5q-92 0 -109 -78z" />
    <glyph glyph-name="uni24EA" unicode="&#x24ea;" horiz-adv-x="1699" 
d="M1351 177q-250 -208 -599 -208t-526 208t-117 548q58 338 310 548q250 208 599 208q348 0 525 -208q176 -208 118 -548q-58 -338 -310 -548zM780 131q267 0 460 163q194 164 239 431q47 266 -87 430q-135 164 -403 164q-265 0 -458 -164q-193 -163 -240 -430
q-45 -268 88 -431t401 -163zM1118 424q-128 -115 -305 -115q-176 0 -266 115t-58 303q34 187 164 303q128 115 306 115q177 0 265 -115q89 -116 56 -303t-162 -303zM762 584q22 -43 90 -43t107 43q39 45 55 141q16 97 -6 141q-22 43 -90 43q-69 0 -106 -43q-38 -44 -56 -141
q-16 -97 6 -141z" />
    <glyph glyph-name="uni24FF" unicode="&#x24ff;" horiz-adv-x="1699" 
d="M1351 178q-251 -209 -599 -209q-349 0 -526 209q-177 208 -117 549q58 337 310 546q250 208 599 208q348 0 525 -208t118 -546q-58 -340 -310 -549zM546 424q88 -115 265 -115q176 0 306 115t163 303q33 187 -56 303q-88 115 -265 115q-178 0 -306 -115
q-130 -116 -164 -303q-33 -187 57 -303zM959 584q-39 -43 -107 -43t-90 43q-22 44 -6 141q18 98 56 141t106 43t90 -43q22 -44 6 -141q-16 -96 -55 -141z" />
    <glyph glyph-name="lozenge" unicode="&#x25ca;" horiz-adv-x="1298" 
d="M508 1450h610l154 -725l-412 -725h-610l-154 725zM442 725l125 -657l359 657l-125 661z" />
    <glyph glyph-name="uni2766" unicode="&#x2766;" horiz-adv-x="942" 
d="M31 395h-33l55 307h33q-5 -30 14 -28q13 0 18 5.5t7 22.5h528l-55 -307h-526q2 18 -1 23.5t-16 5.5q-19 0 -24 -29zM647 408l49 282q109 0 174 -44t54 -97q-12 -54 -90 -97q-79 -44 -187 -44zM567 436l6 37h-460l-7 -37h461z" />
    <glyph glyph-name="uni2776" unicode="&#x2776;" horiz-adv-x="1699" 
d="M1351 178q-251 -209 -599 -209q-349 0 -526 209q-177 208 -117 549q58 337 310 546q250 208 599 208q348 0 525 -208t118 -546q-58 -340 -310 -549zM580 995l-52 -288l244 184l129 121l-49 -240l-76 -436h262l138 778h-443z" />
    <glyph glyph-name="uni2777" unicode="&#x2777;" horiz-adv-x="1699" 
d="M1351 178q-251 -209 -599 -209q-349 0 -526 209q-177 208 -117 549q58 337 310 546q250 208 599 208q348 0 525 -208t118 -546q-58 -340 -310 -549zM547 684l-60 -348h684l37 213h-407l-144 -4l127 28l211 66q238 70 269 238q20 121 -57 195q-76 73 -232 73t-267 -84
q-111 -83 -137 -221h258q20 125 107 125q80 0 65 -88q-12 -76 -94 -101z" />
    <glyph glyph-name="uni2778" unicode="&#x2778;" horiz-adv-x="1699" 
d="M1351 178q-251 -209 -599 -209q-349 0 -526 209q-177 208 -117 549q58 337 310 546q250 208 599 208q348 0 525 -208t118 -546q-58 -340 -310 -549zM758 600h-258q-23 -131 60 -211t245 -80q168 0 282 66q113 65 132 174q16 92 -36 148.5t-173 68.5q108 8 171.5 50.5
t75.5 111.5q18 98 -66 158q-86 59 -238 59q-154 0 -261 -80q-107 -79 -133 -213h258q10 48 33 69t68 21q78 0 63 -78q-14 -67 -82 -65h-100l-27 -154h107q46 0 66.5 -16t15.5 -47q-12 -70 -121 -70q-95 0 -82 88z" />
    <glyph glyph-name="uni2779" unicode="&#x2779;" horiz-adv-x="1699" 
d="M1351 178q-251 -209 -599 -209q-349 0 -526 209q-177 208 -117 549q58 337 310 546q250 208 599 208q348 0 525 -208t118 -546q-58 -340 -310 -549zM571 864l-71 -397h311l-23 -131h265l22 131h109l35 192h-109l80 455h-418zM678 657l-88 -2l334 416l-47 -221l-31 -191z
" />
    <glyph glyph-name="uni277A" unicode="&#x277a;" horiz-adv-x="1699" 
d="M1351 178q-251 -209 -599 -209q-349 0 -526 209q-177 208 -117 549q58 337 310 546q250 208 599 208q348 0 525 -208t118 -546q-58 -340 -310 -549zM776 592h-258q-23 -128 59 -205q83 -78 238 -78q156 0 263 77q105 76 128 204q20 107 -32 172q-53 65 -156 65
q-152 0 -236 -122l47 202l121 -2h275l37 207h-615l-112 -475h229q53 47 113 47q82 0 63 -100q-14 -84 -94 -84q-84 0 -70 92z" />
    <glyph glyph-name="uni277B" unicode="&#x277b;" horiz-adv-x="1699" 
d="M1351 178q-251 -209 -599 -209q-349 0 -526 209q-177 208 -117 549q58 337 310 546q250 208 599 208q348 0 525 -208t118 -546q-58 -340 -310 -549zM504 723q-37 -201 49 -307.5t281 -106.5q155 0 264 77t131 204q18 102 -40 166q-59 63 -171 63q-87 0 -156 -38
t-104 -105l10 47q20 120 60.5 174.5t107.5 54.5q52 0 71 -16t11 -55h260q20 119 -64 192q-84 72 -243 72q-176 0 -305 -117t-162 -305zM756 590q16 84 129 84q51 0 69.5 -19.5t10.5 -64.5q-14 -80 -109 -80q-57 0 -81.5 19.5t-18.5 60.5z" />
    <glyph glyph-name="uni277C" unicode="&#x277c;" horiz-adv-x="1699" 
d="M1351 178q-251 -209 -599 -209q-349 0 -526 209q-177 208 -117 549q58 337 310 546q250 208 599 208q348 0 525 -208t118 -546q-58 -340 -310 -549zM672 1114l-35 -213h336l166 2q-209 -77 -341 -231q-132 -156 -165 -336h270q28 152 110 269q81 114 179 153l63 356h-583
z" />
    <glyph glyph-name="uni277D" unicode="&#x277d;" horiz-adv-x="1699" 
d="M1351 178q-251 -209 -599 -209q-349 0 -526 209q-177 208 -117 549q58 337 310 546q250 208 599 208q348 0 525 -208t118 -546q-58 -340 -310 -549zM479 530q-18 -100 73 -160q91 -61 261 -61q168 0 280 61q111 60 130 160q29 164 -179 207q202 37 228 183q16 99 -70 163
q-86 62 -243 62q-158 0 -265 -62q-108 -63 -127 -163q-25 -146 162 -183q-218 -43 -250 -207zM819 870q14 86 107 86q49 0 67.5 -20.5t10.5 -65.5q-14 -80 -106 -80q-93 0 -79 80zM754 586q13 82 120 82q56 0 78.5 -19t14.5 -63q-13 -88 -121 -88q-55 0 -77.5 21.5
t-14.5 66.5z" />
    <glyph glyph-name="uni277E" unicode="&#x277e;" horiz-adv-x="1699" 
d="M1351 178q-251 -209 -599 -209q-349 0 -526 209q-177 208 -117 549q58 337 310 546q250 208 599 208q348 0 525 -208t118 -546q-58 -340 -310 -549zM555 864q-18 -104 42 -167q60 -64 179 -64q81 0 147.5 38.5t102.5 104.5l-8 -47q-40 -229 -170 -229q-51 0 -69.5 18.5
t-10.5 59.5h-258q-23 -122 61 -195q85 -74 244 -74q175 0 305 116q129 115 162 304q35 201 -51 308.5t-281 107.5q-155 0 -264 -77t-131 -204zM819 864q17 78 109 78q60 0 84 -18.5t16 -59.5q-14 -84 -127 -84q-51 0 -69.5 19.5t-12.5 64.5z" />
    <glyph glyph-name="uniF8FF" unicode="&#xf8ff;" horiz-adv-x="1204" 
d="M1116 1180l27 -230l-8 -6q-62 98 -139 122q-80 25 -343 26q-13 -207 -14 -295q87 1 148 44q59 43 110 144h6l-22 -145q-90 -75 -242 -80v-66q0 -119 4 -291q133 0 199 3q0 172 -15 284q-36 11 -88 19v6q143 27 246 71l2 -6q-41 -45 -54 -118q-13 -71 -13 -279
q0 -221 12 -340l78 -37v-6h-332v6l151 53q11 97 13 295q-88 2 -197 2q2 -34 2 -72q0 -41 2 -71l-108 -66l-4 7q7 56 20 202q-109 0 -197 -2q0 -198 13 -295l153 -53v-6h-333v6l77 37q11 113 13 340q0 207 -12 280q-14 73 -56 117l2 6q92 -42 246 -71v-6q-46 -7 -88 -19
q-13 -112 -15 -284q133 0 199 -3q6 125 6 291v70q-132 18 -215 103q-85 86 -92 210q-75 -12 -109 -39q-36 -28 -79 -94l-9 6q17 137 23 189l8 41q52 -33 168 -39q13 138 116 226q101 87 253 87q113 0 223 -65l31 57l12 -8q-20 -101 -21 -221h-4q-56 203 -241 204
q-114 2 -190 -77q-77 -80 -87 -207q82 -2 248 -2q286 0 374 9t138 36h4zM350 1087q4 -108 63 -185q59 -76 150 -99q-2 144 -12 289q-132 -2 -201 -5z" />
    <glyph glyph-name="I.ss02" horiz-adv-x="1187" 
d="M1237 1450l-57 -330h-283l-141 -790h284l-57 -330h-963l60 330h282l140 790h-285l59 330h961z" />
    <glyph glyph-name="Iacute.ss02" horiz-adv-x="1187" 
d="M793 1952h331l-227 -361h-256zM1237 1450l-57 -330h-283l-141 -790h284l-57 -330h-963l60 330h282l140 790h-285l59 330h961z" />
    <glyph glyph-name="Ibreve.ss02" horiz-adv-x="1187" 
d="M1044 1675q-106 -94 -261 -94t-229 93q-73 93 -40 278h229q-16 -81 2.5 -118.5t73.5 -37.5t86 37t47 119h230q-33 -184 -138 -277zM1237 1450l-57 -330h-283l-141 -790h284l-57 -330h-963l60 330h282l140 790h-285l59 330h961z" />
    <glyph glyph-name="Icircumflex.ss02" horiz-adv-x="1187" 
d="M905 1591l-69 301l-177 -301h-288l239 361h471l113 -361h-289zM1237 1450l-57 -330h-283l-141 -790h284l-57 -330h-963l60 330h282l140 790h-285l59 330h961z" />
    <glyph glyph-name="Idieresis.ss02" horiz-adv-x="1187" 
d="M475 1927h322l-54 -309h-323zM883 1927h323l-55 -309h-322zM1237 1450l-57 -330h-283l-141 -790h284l-57 -330h-963l60 330h282l140 790h-285l59 330h961z" />
    <glyph glyph-name="Idotaccent.ss02" horiz-adv-x="1187" 
d="M647 1927h387l-53 -309h-389zM1237 1450l-57 -330h-283l-141 -790h284l-57 -330h-963l60 330h282l140 790h-285l59 330h961z" />
    <glyph glyph-name="uni1ECA.ss02" horiz-adv-x="1187" 
d="M1237 1450l-57 -330h-283l-141 -790h284l-57 -330h-963l60 330h282l140 790h-285l59 330h961zM618 -436h-387l54 309h389z" />
    <glyph glyph-name="Igrave.ss02" horiz-adv-x="1187" 
d="M891 1952l24 -361h-256l-100 361h332zM1237 1450l-57 -330h-283l-141 -790h284l-57 -330h-963l60 330h282l140 790h-285l59 330h961z" />
    <glyph glyph-name="Imacron.ss02" horiz-adv-x="1187" 
d="M545 1913h585l-49 -279h-583zM1237 1450l-57 -330h-283l-141 -790h284l-57 -330h-963l60 330h282l140 790h-285l59 330h961z" />
    <glyph glyph-name="Iogonek.ss02" horiz-adv-x="1187" 
d="M1237 1450l-57 -330h-283l-141 -790h284l-57 -330h-285l-127 -139q-37 -39 -39 -62q-4 -18 7.5 -28.5t38.5 -10.5h102l-37 -209h-283q-79 0 -114 37.5t-25 102.5q17 77 86 149l154 160h-441l60 330h282l140 790h-285l59 330h961z" />
    <glyph glyph-name="Itilde.ss02" horiz-adv-x="1187" 
d="M668 1700q-84 0 -99 -84h-172q59 326 299 326q60 0 139 -44q78 -45 126 -45q85 0 96 84h172q-26 -163 -100 -244.5t-195 -80.5q-60 0 -140 44t-126 44zM1237 1450l-57 -330h-283l-141 -790h284l-57 -330h-963l60 330h282l140 790h-285l59 330h961z" />
    <glyph glyph-name="Z.ss03" horiz-adv-x="1355" 
d="M1198 0h-1210l104 590l1094 543l-219 -13h-772l57 330h1198l-102 -582l-1117 -553l228 15h798z" />
    <glyph glyph-name="Zacute.ss03" horiz-adv-x="1355" 
d="M754 1591l151 361h332l-227 -361h-256zM1198 0h-1210l104 590l1094 543l-219 -13h-772l57 330h1198l-102 -582l-1117 -553l228 15h798z" />
    <glyph glyph-name="Zcaron.ss03" horiz-adv-x="1355" 
d="M1128 1591h-471l-112 361h289l69 -301l176 301h289zM252 1450h1198l-102 -582l-1117 -553l228 15h798l-59 -330h-1210l104 590l1094 543l-219 -13h-772z" />
    <glyph glyph-name="Zdotaccent.ss03" horiz-adv-x="1355" 
d="M705 1618l55 309h387l-53 -309h-389zM1198 0h-1210l104 590l1094 543l-219 -13h-772l57 330h1198l-102 -582l-1117 -553l228 15h798z" />
    <glyph glyph-name="a.salt" horiz-adv-x="1320" 
d="M909 821l41 240h355l-187 -1061h-352l45 268q-69 -142 -177 -220.5t-237 -78.5q-193 0 -285 155q-92 156 -46 406q46 252 191 407q144 155 339 155q127 0 209 -71t104 -200zM594 250q99 0 155.5 58t86.5 186l14 75q16 126 -21.5 184t-136.5 58q-104 0 -162.5 -66
t-87.5 -215q-25 -147 11.5 -213.5t140.5 -66.5z" />
    <glyph glyph-name="aacute.salt" horiz-adv-x="1320" 
d="M801 1563h332l-228 -361h-256zM909 821l41 240h355l-187 -1061h-352l45 268q-69 -142 -177 -220.5t-237 -78.5q-193 0 -285 155q-92 156 -46 406q46 252 191 407q144 155 339 155q127 0 209 -71t104 -200zM594 250q99 0 155.5 58t86.5 186l14 75q16 126 -21.5 184
t-136.5 58q-104 0 -162.5 -66t-87.5 -215q-25 -147 11.5 -213.5t140.5 -66.5z" />
    <glyph glyph-name="abreve.salt" horiz-adv-x="1320" 
d="M1050 1286q-106 -94 -261 -94t-229 93q-73 93 -40 278h230q-16 -82 2 -119t74 -37q55 0 85.5 36.5t46.5 119.5h230q-33 -184 -138 -277zM909 821l41 240h355l-187 -1061h-352l45 268q-69 -142 -177 -220.5t-237 -78.5q-193 0 -285 155q-92 156 -46 406q46 252 191 407
q144 155 339 155q127 0 209 -71t104 -200zM594 250q99 0 155.5 58t86.5 186l14 75q16 126 -21.5 184t-136.5 58q-104 0 -162.5 -66t-87.5 -215q-25 -147 11.5 -213.5t140.5 -66.5z" />
    <glyph glyph-name="acircumflex.salt" horiz-adv-x="1320" 
d="M913 1202l-69 301l-176 -301h-289l239 361h472l112 -361h-289zM909 821l41 240h355l-187 -1061h-352l45 268q-69 -142 -177 -220.5t-237 -78.5q-193 0 -285 155q-92 156 -46 406q46 252 191 407q144 155 339 155q127 0 209 -71t104 -200zM594 250q99 0 155.5 58t86.5 186
l14 75q16 126 -21.5 184t-136.5 58q-104 0 -162.5 -66t-87.5 -215q-25 -147 11.5 -213.5t140.5 -66.5z" />
    <glyph glyph-name="adieresis.salt" horiz-adv-x="1320" 
d="M483 1538h322l-53 -309h-324zM891 1538h323l-55 -309h-321zM909 821l41 240h355l-187 -1061h-352l45 268q-69 -142 -177 -220.5t-237 -78.5q-193 0 -285 155q-92 156 -46 406q46 252 191 407q144 155 339 155q127 0 209 -71t104 -200zM594 250q99 0 155.5 58t86.5 186
l14 75q16 126 -21.5 184t-136.5 58q-104 0 -162.5 -66t-87.5 -215q-25 -147 11.5 -213.5t140.5 -66.5z" />
    <glyph glyph-name="uni1EA1.salt" horiz-adv-x="1320" 
d="M909 821l41 240h355l-187 -1061h-352l45 268q-69 -142 -177 -220.5t-237 -78.5q-193 0 -285 155q-92 156 -46 406q46 252 191 407q144 155 339 155q127 0 209 -71t104 -200zM594 250q99 0 155.5 58t86.5 186l14 75q16 126 -21.5 184t-136.5 58q-104 0 -162.5 -66
t-87.5 -215q-25 -147 11.5 -213.5t140.5 -66.5zM727 -436h-387l53 309h389z" />
    <glyph glyph-name="agrave.salt" horiz-adv-x="1320" 
d="M901 1563l25 -361h-256l-101 361h332zM909 821l41 240h355l-187 -1061h-352l45 268q-69 -142 -177 -220.5t-237 -78.5q-193 0 -285 155q-92 156 -46 406q46 252 191 407q144 155 339 155q127 0 209 -71t104 -200zM594 250q99 0 155.5 58t86.5 186l14 75q16 126 -21.5 184
t-136.5 58q-104 0 -162.5 -66t-87.5 -215q-25 -147 11.5 -213.5t140.5 -66.5z" />
    <glyph glyph-name="amacron.salt" horiz-adv-x="1320" 
d="M553 1524h586l-49 -279h-584zM909 821l41 240h355l-187 -1061h-352l45 268q-69 -142 -177 -220.5t-237 -78.5q-193 0 -285 155q-92 156 -46 406q46 252 191 407q144 155 339 155q127 0 209 -71t104 -200zM594 250q99 0 155.5 58t86.5 186l14 75q16 126 -21.5 184
t-136.5 58q-104 0 -162.5 -66t-87.5 -215q-25 -147 11.5 -213.5t140.5 -66.5z" />
    <glyph glyph-name="aogonek.salt" horiz-adv-x="1320" 
d="M1118 0l-127 -139q-37 -39 -39 -62q-4 -18 7.5 -28.5t37.5 -10.5h103l-37 -209h-283q-79 0 -114 37.5t-25 102.5q17 77 86 149l154 160h-115l45 268q-69 -142 -177 -220.5t-237 -78.5q-193 0 -285 155q-92 156 -46 406q46 252 191 407q144 155 339 155q127 0 209 -71
t104 -200l41 240h355zM594 250q99 0 155.5 58t86.5 186l14 75q16 126 -21.5 184t-136.5 58q-104 0 -162.5 -66t-87.5 -215q-25 -147 11.5 -213.5t140.5 -66.5z" />
    <glyph glyph-name="aring.salt" horiz-adv-x="1320" 
d="M788 1192q-98 0 -148 52t-36 138q14 87 84 139t168 52q96 0 146.5 -52.5t36.5 -138.5q-15 -86 -85 -138t-166 -52zM752 1382q-6 -33 8 -47t51 -14q69 0 82 61q7 61 -59 62q-75 -2 -82 -62zM909 821l41 240h355l-187 -1061h-352l45 268q-69 -142 -177 -220.5t-237 -78.5
q-193 0 -285 155q-92 156 -46 406q46 252 191 407q144 155 339 155q127 0 209 -71t104 -200zM594 250q99 0 155.5 58t86.5 186l14 75q16 126 -21.5 184t-136.5 58q-104 0 -162.5 -66t-87.5 -215q-25 -147 11.5 -213.5t140.5 -66.5z" />
    <glyph glyph-name="aringacute.salt" horiz-adv-x="1320" 
d="M956 1244q-70 -52 -167 -52q-98 0 -147 52q-50 53 -35 138q14 86 83 139q67 52 166 52h8l74 174h268l-192 -238q39 -51 26 -127q-14 -86 -84 -138zM752 1382q-6 -33 8 -47t51 -14q75 0 82 61q4 33 -9.5 47.5t-49.5 14.5q-72 -1 -82 -62zM909 821l41 240h355l-187 -1061
h-352l45 268q-69 -142 -177 -220.5t-237 -78.5q-193 0 -285 155q-92 156 -46 406q46 252 191 407q144 155 339 155q127 0 209 -71t104 -200zM594 250q99 0 155.5 58t86.5 186l14 75q16 126 -21.5 184t-136.5 58q-104 0 -162.5 -66t-87.5 -215q-25 -147 11.5 -213.5
t140.5 -66.5z" />
    <glyph glyph-name="atilde.salt" horiz-adv-x="1320" 
d="M676 1311q-84 0 -98 -84h-172q29 163 104 244.5t195 80.5q60 0 139 -44t125 -44q85 0 96 84h172q-26 -163 -100 -244.5t-195 -80.5q-60 0 -140 44t-126 44zM909 821l41 240h355l-187 -1061h-352l45 268q-69 -142 -177 -220.5t-237 -78.5q-193 0 -285 155q-92 156 -46 406
q46 252 191 407q144 155 339 155q127 0 209 -71t104 -200zM594 250q99 0 155.5 58t86.5 186l14 75q16 126 -21.5 184t-136.5 58q-104 0 -162.5 -66t-87.5 -215q-25 -147 11.5 -213.5t140.5 -66.5z" />
    <glyph glyph-name="g.salt" horiz-adv-x="1316" 
d="M903 815l43 246h354l-178 -1006q-38 -213 -217 -342q-180 -129 -438 -129q-253 0 -384 124t-97 329h352q-16 -94 26 -137t152 -43q106 0 165.5 62.5t84.5 197.5l29 164q-69 -112 -170.5 -176t-216.5 -64q-192 0 -287 147q-94 144 -53 375q40 238 185 384q144 145 339 145
q129 0 210 -72.5t101 -204.5zM604 315q182 0 236 215l10 66q14 113 -24.5 164t-135.5 51q-106 0 -164.5 -58.5t-79.5 -189.5q-23 -126 15.5 -187t142.5 -61z" />
    <glyph glyph-name="gbreve.salt" horiz-adv-x="1316" 
d="M1044 1286q-106 -94 -261 -94t-229 93q-73 93 -40 278h229q-16 -81 2.5 -118.5t73.5 -37.5t86 37t47 119h230q-33 -184 -138 -277zM903 815l43 246h354l-178 -1006q-38 -213 -217 -342q-180 -129 -438 -129q-253 0 -384 124t-97 329h352q-16 -94 26 -137t152 -43
q106 0 165.5 62.5t84.5 197.5l29 164q-69 -112 -170.5 -176t-216.5 -64q-192 0 -287 147q-94 144 -53 375q40 238 185 384q144 145 339 145q129 0 210 -72.5t101 -204.5zM604 315q182 0 236 215l10 66q14 113 -24.5 164t-135.5 51q-106 0 -164.5 -58.5t-79.5 -189.5
q-23 -126 15.5 -187t142.5 -61z" />
    <glyph glyph-name="gcaron.salt" horiz-adv-x="1316" 
d="M1018 1202h-471l-113 361h289l70 -301l176 301h288zM903 815l43 246h354l-178 -1006q-38 -213 -217 -342q-180 -129 -438 -129q-253 0 -384 124t-97 329h352q-16 -94 26 -137t152 -43q106 0 165.5 62.5t84.5 197.5l29 164q-69 -112 -170.5 -176t-216.5 -64
q-192 0 -287 147q-94 144 -53 375q40 238 185 384q144 145 339 145q129 0 210 -72.5t101 -204.5zM604 315q182 0 236 215l10 66q14 113 -24.5 164t-135.5 51q-106 0 -164.5 -58.5t-79.5 -189.5q-23 -126 15.5 -187t142.5 -61z" />
    <glyph glyph-name="gcircumflex.salt" horiz-adv-x="1316" 
d="M907 1202l-69 301l-176 -301h-289l239 361h471l113 -361h-289zM903 815l43 246h354l-178 -1006q-38 -213 -217 -342q-180 -129 -438 -129q-253 0 -384 124t-97 329h352q-16 -94 26 -137t152 -43q106 0 165.5 62.5t84.5 197.5l29 164q-69 -112 -170.5 -176t-216.5 -64
q-192 0 -287 147q-94 144 -53 375q40 238 185 384q144 145 339 145q129 0 210 -72.5t101 -204.5zM604 315q182 0 236 215l10 66q14 113 -24.5 164t-135.5 51q-106 0 -164.5 -58.5t-79.5 -189.5q-23 -126 15.5 -187t142.5 -61z" />
    <glyph glyph-name="uni0123.salt" horiz-adv-x="1316" 
d="M827 1442l156 -53l-33 -187h-346l39 230q23 125 139 199q115 73 285 73l-25 -141q-196 0 -215 -121zM903 815l43 246h354l-178 -1006q-38 -213 -217 -342q-180 -129 -438 -129q-253 0 -384 124t-97 329h352q-16 -94 26 -137t152 -43q106 0 165.5 62.5t84.5 197.5l29 164
q-69 -112 -170.5 -176t-216.5 -64q-192 0 -287 147q-94 144 -53 375q40 238 185 384q144 145 339 145q129 0 210 -72.5t101 -204.5zM604 315q182 0 236 215l10 66q14 113 -24.5 164t-135.5 51q-106 0 -164.5 -58.5t-79.5 -189.5q-23 -126 15.5 -187t142.5 -61z" />
    <glyph glyph-name="gdotaccent.salt" horiz-adv-x="1316" 
d="M649 1538h387l-53 -309h-389zM903 815l43 246h354l-178 -1006q-38 -213 -217 -342q-180 -129 -438 -129q-253 0 -384 124t-97 329h352q-16 -94 26 -137t152 -43q106 0 165.5 62.5t84.5 197.5l29 164q-69 -112 -170.5 -176t-216.5 -64q-192 0 -287 147q-94 144 -53 375
q40 238 185 384q144 145 339 145q129 0 210 -72.5t101 -204.5zM604 315q182 0 236 215l10 66q14 113 -24.5 164t-135.5 51q-106 0 -164.5 -58.5t-79.5 -189.5q-23 -126 15.5 -187t142.5 -61z" />
    <glyph glyph-name="l.salt" horiz-adv-x="585" 
d="M18 0l275 1563h369l-277 -1563h-367z" />
    <glyph glyph-name="lacute.salt" horiz-adv-x="585" 
d="M352 1655l152 360h332l-228 -360h-256zM18 0l275 1563h369l-277 -1563h-367z" />
    <glyph glyph-name="lcaron.salt" horiz-adv-x="585" 
d="M18 0l275 1563h369l-277 -1563h-367zM748 1376l34 187h332l-41 -230q-23 -125 -134 -199q-113 -75 -273 -75l24 141q95 0 142 29t57 94z" />
    <glyph glyph-name="uni013C.salt" horiz-adv-x="585" 
d="M18 0l275 1563h369l-277 -1563h-367zM-20 -315l34 188h330l-39 -229q-23 -125 -134 -200q-113 -75 -275 -75l24 139q93 0 141 30t60 93z" />
    <glyph glyph-name="ldot.salt" horiz-adv-x="968" 
d="M18 0l275 1563h369l-277 -1563h-367zM559 584l64 356h356l-64 -356h-356z" />
    <glyph glyph-name="lslash.salt" horiz-adv-x="604" 
d="M547 920l186 120l-57 -329l-187 -123l-104 -588h-367l76 428l-139 -88l59 330l138 88l141 805h369z" />
    <glyph glyph-name="y.salt" horiz-adv-x="1239" 
d="M670 428l278 633h375l-649 -1456h-359l174 395h-280l-98 1061h383l51 -633l10 -291z" />
    <glyph glyph-name="yacute.salt" horiz-adv-x="1239" 
d="M760 1563h332l-228 -361h-256zM670 428l278 633h375l-649 -1456h-359l174 395h-280l-98 1061h383l51 -633l10 -291z" />
    <glyph glyph-name="ycircumflex.salt" horiz-adv-x="1239" 
d="M872 1202l-69 301l-176 -301h-289l240 361h471l112 -361h-289zM670 428l278 633h375l-649 -1456h-359l174 395h-280l-98 1061h383l51 -633l10 -291z" />
    <glyph glyph-name="ydieresis.salt" horiz-adv-x="1239" 
d="M442 1538h322l-53 -309h-324zM850 1538h324l-56 -309h-321zM670 428l278 633h375l-649 -1456h-359l174 395h-280l-98 1061h383l51 -633l10 -291z" />
    <glyph glyph-name="ygrave.salt" horiz-adv-x="1239" 
d="M862 1563l25 -361h-256l-101 361h332zM670 428l278 633h375l-649 -1456h-359l174 395h-280l-98 1061h383l51 -633l10 -291z" />
    <glyph glyph-name="uni0233.salt" horiz-adv-x="1239" 
d="M512 1524h586l-49 -279h-584zM670 428l278 633h375l-649 -1456h-359l174 395h-280l-98 1061h383l51 -633l10 -291z" />
    <glyph glyph-name="uni1EF9.salt" horiz-adv-x="1239" 
d="M635 1311q-85 0 -98 -84h-172q29 163 104 244.5t195 80.5q60 0 139 -44t125 -44q86 0 96 84h172q-26 -163 -100 -244.5t-195 -80.5q-60 0 -140 44t-126 44zM670 428l278 633h375l-649 -1456h-359l174 395h-280l-98 1061h383l51 -633l10 -291z" />
    <glyph glyph-name="z.ss03" horiz-adv-x="1058" 
d="M885 0h-901l79 461l705 330l-227 -13h-410l51 283h881l-84 -465l-692 -326l217 13h430z" />
    <glyph glyph-name="zacute.ss03" horiz-adv-x="1058" 
d="M504 1202l151 361h332l-227 -361h-256zM885 0h-901l79 461l705 330l-227 -13h-410l51 283h881l-84 -465l-692 -326l217 13h430z" />
    <glyph glyph-name="zcaron.ss03" horiz-adv-x="1058" 
d="M881 1202h-471l-113 361h289l69 -301l176 301h289zM541 778h-410l51 283h881l-84 -465l-692 -326l217 13h430l-49 -283h-901l79 461l705 330z" />
    <glyph glyph-name="zdotaccent.ss03" horiz-adv-x="1058" 
d="M457 1229l55 309h387l-53 -309h-389zM885 0h-901l79 461l705 330l-227 -13h-410l51 283h881l-84 -465l-692 -326l217 13h430z" />
    <glyph glyph-name="f_f_j.dlig" horiz-adv-x="2095" 
d="M1374 1061h707l-193 -1104q-31 -167 -162 -271q-130 -102 -317 -102q-81 0 -154 21l48 266h94q57 0 88 29t41 92l139 790h-340l-137 -782h-369l139 782h-348l-139 -782h-367l138 782h-199l51 279h197l20 110q28 165 164 269q135 102 328 102q122 0 188 -20l-47 -267h-131
q-63 0 -97 -29.5t-44 -95.5l-13 -69h349l26 151q28 165 164 269q135 102 328 102q112 0 180 -24l-47 -263h-125q-61 0 -94 -28.5t-47 -96.5zM1733 1229l57 317h387l-55 -317h-389z" />
    <glyph glyph-name="f_iacute.dlig" horiz-adv-x="1376" 
d="M657 1061h709l-188 -1061h-367l137 782h-340l-137 -782h-367l138 782h-199l51 279h197l26 151q28 165 165 269q136 102 329 102q127 0 211 -22l-47 -265h-156q-64 0 -96.5 -28.5t-44.5 -96.5zM1217 1563h331l-227 -361h-256z" />
    <glyph glyph-name="f_j.dlig" horiz-adv-x="1378" 
d="M657 1061h709l-195 -1104q-32 -168 -161 -271q-130 -102 -318 -102q-82 0 -151 21l45 266h94q58 0 88.5 28t40.5 93l139 790h-340l-137 -782h-367l138 782h-199l51 279h197l26 151q28 165 165 269q136 102 329 102q108 0 178 -22l-47 -265h-123q-64 0 -96.5 -28.5
t-44.5 -96.5zM1018 1229l55 317h387l-55 -317h-387z" />
    <glyph glyph-name="f_t.dlig" horiz-adv-x="1681" 
d="M1692 782h-346l-70 -391q-12 -68 10.5 -96.5t87.5 -28.5h230l-48 -266q-138 -20 -292 -20q-193 0 -292 101q-100 100 -71 265l76 436h-367l-137 -782h-369l138 782h-197l49 279h197l26 151q28 165 165 269q136 102 327 102q133 0 217 -22l-45 -265h-162q-118 0 -141 -125
l-19 -110h369l64 309h356l-55 -309h348z" />
    <glyph glyph-name="t_t.dlig" horiz-adv-x="1708" 
d="M1718 782h-346l-69 -391q-12 -68 10 -96.5t88 -28.5h229l-47 -266q-143 -20 -293 -20q-193 0 -292 101q-99 100 -70 265l76 436h-400l-69 -391q-10 -69 12 -97t88 -28h170l-47 -264q-102 -23 -236 -22q-190 0 -289 101q-100 100 -71 265l76 436h-199l49 279h201l57 268
h356l-47 -268h400l63 309h357l-56 -309h348z" />
    <glyph glyph-name="f_f_l.liga.salt" horiz-adv-x="2123" 
d="M1649 1061l-50 -279h-274l-137 -782h-369l137 782h-346l-139 -782h-367l138 782h-199l51 279h199l22 133q29 162 156 255t320 93q125 0 194 -20l-45 -267h-133q-63 0 -93 -25.5t-40 -86.5l-15 -82h347l30 174q28 162 158 255q129 93 322 93q143 0 227 -24l-47 -263h-166
q-63 0 -93 -25.5t-42 -86.5l-21 -123h275zM1554 0l277 1563h367l-275 -1563h-369z" />
    <glyph glyph-name="uniFB02.aalt" horiz-adv-x="1406" 
d="M934 1061l-51 -279h-275l-137 -782h-367l138 782h-199l51 279h197l26 151q28 165 165 269q136 102 329 102q135 0 213 -24l-45 -263h-160q-64 0 -96.5 -28.5t-44.5 -96.5l-21 -110h277zM840 0l274 1563h369l-277 -1563h-366z" />
    <glyph glyph-name="A.c2sc" horiz-adv-x="1333" 
d="M1229 0h-359l-28 217h-443l-104 -217h-365l531 1092h620zM659 754l-127 -265h275l-35 265l-18 211z" />
    <glyph glyph-name="Aacute.aalt" horiz-adv-x="1333" 
d="M809 1563h332l-228 -361h-256zM1229 0h-359l-28 217h-443l-104 -217h-365l531 1092h620zM659 754l-127 -265h275l-35 265l-18 211z" />
    <glyph glyph-name="Abreve.aalt" horiz-adv-x="1333" 
d="M1060 1286q-106 -94 -261 -94q-156 0 -228 93q-73 92 -41 278h230q-16 -82 2 -119t74 -37q55 0 85 36.5t48 119.5h229q-33 -184 -138 -277zM1229 0h-359l-28 217h-443l-104 -217h-365l531 1092h620zM659 754l-127 -265h275l-35 265l-18 211z" />
    <glyph glyph-name="Acircumflex.aalt" horiz-adv-x="1333" 
d="M922 1202l-70 301l-176 -301h-289l240 361h471l112 -361h-288zM1229 0h-359l-28 217h-443l-104 -217h-365l531 1092h620zM659 754l-127 -265h275l-35 265l-18 211z" />
    <glyph glyph-name="Adieresis.aalt" horiz-adv-x="1333" 
d="M492 1538h321l-53 -309h-324zM899 1538h324l-56 -309h-321zM1229 0h-359l-28 217h-443l-104 -217h-365l531 1092h620zM659 754l-127 -265h275l-35 265l-18 211z" />
    <glyph glyph-name="uni1EA0.aalt" horiz-adv-x="1333" 
d="M1081 1092l148 -1092h-359l-28 217h-443l-104 -217h-365l531 1092h620zM659 754l-127 -265h275l-35 265l-18 211zM707 -436h-388l54 309h389z" />
    <glyph glyph-name="Agrave.aalt" horiz-adv-x="1333" 
d="M911 1563l25 -361h-256l-100 361h331zM1229 0h-359l-28 217h-443l-104 -217h-365l531 1092h620zM659 754l-127 -265h275l-35 265l-18 211z" />
    <glyph glyph-name="Amacron.aalt" horiz-adv-x="1333" 
d="M561 1524h586l-49 -279h-584zM1229 0h-359l-28 217h-443l-104 -217h-365l531 1092h620zM659 754l-127 -265h275l-35 265l-18 211z" />
    <glyph glyph-name="Aogonek.aalt" horiz-adv-x="1333" 
d="M1108 0l-127 -139q-37 -39 -39 -62q-4 -18 7.5 -28.5t37.5 -10.5h103l-37 -209h-283q-79 0 -114 37.5t-25 102.5q17 77 86 149l153 160l-28 217h-443l-104 -217h-365l531 1092h620l148 -1092h-121zM659 754l-127 -265h275l-35 265l-18 211z" />
    <glyph glyph-name="Aring.aalt" horiz-adv-x="1333" 
d="M799 1192q-98 0 -148.5 52t-35.5 138q14 87 84 139q68 52 167 52q96 0 146.5 -52.5t36.5 -138.5q-15 -86 -84 -138q-70 -52 -166 -52zM762 1382q-6 -33 8 -47t51 -14q69 0 82 61q7 61 -59 62q-75 -2 -82 -62zM1229 0h-359l-28 217h-443l-104 -217h-365l531 1092h620z
M659 754l-127 -265h275l-35 265l-18 211z" />
    <glyph glyph-name="Aringacute.aalt" horiz-adv-x="1333" 
d="M782 1192q-98 0 -148 52t-36 138q14 87 84 139t168 52h8l72 174h270l-194 -238q39 -45 26 -127q-14 -86 -84 -138t-166 -52zM745 1382q-6 -33 8.5 -47t51.5 -14q72 0 82 61q7 61 -60 62q-72 -1 -82 -62zM1229 0h-359l-28 217h-443l-104 -217h-365l531 1092h620zM659 754
l-127 -265h275l-35 265l-18 211z" />
    <glyph glyph-name="Atilde.aalt" horiz-adv-x="1333" 
d="M684 1311q-84 0 -98 -84h-172q29 163 104 244.5t195 80.5q60 0 139 -44t125 -44q85 0 96 84h172q-26 -163 -100 -244.5t-195 -80.5q-60 0 -140 44t-126 44zM461 1092h620l148 -1092h-359l-28 217h-443l-104 -217h-365zM659 754l-127 -265h275l-35 265l-18 211z" />
    <glyph glyph-name="AE.aalt" horiz-adv-x="1794" 
d="M1798 1092l-49 -279h-631l21 -147h567l-39 -234h-498l23 -153h467l-49 -279h-742l-28 217h-443l-104 -217h-363l531 1092h1337zM657 754l-127 -265h273l-35 265l-18 213z" />
    <glyph glyph-name="AEacute.aalt" horiz-adv-x="1794" 
d="M1071 1563h332l-227 -361h-256zM1798 1092l-49 -279h-631l21 -147h567l-39 -234h-498l23 -153h467l-49 -279h-742l-28 217h-443l-104 -217h-363l531 1092h1337zM657 754l-127 -265h273l-35 265l-18 213z" />
    <glyph glyph-name="B.aalt" horiz-adv-x="1253" 
d="M1237 838q-35 -197 -307 -232q294 -57 250 -299q-22 -136 -142 -222q-119 -85 -290 -85h-711l192 1092h703q158 0 242 -69q82 -70 63 -185zM729 846h-176l-35 -199h176q135 0 154 103q8 51 -19.5 73.5t-99.5 22.5zM809 348q10 55 -17.5 80t-97.5 25h-209l-36 -207h208
q134 0 152 102z" />
    <glyph glyph-name="C.aalt" horiz-adv-x="1259" 
d="M72 541q46 256 236 414q187 157 450 157q244 0 369 -131t87 -344h-362q16 101 -17 145.5t-126 44.5q-109 0 -170.5 -68.5t-87.5 -217.5q-27 -152 10 -219.5t145 -67.5q97 0 147 38t64 124h361q-33 -201 -205 -324q-173 -123 -416 -123q-263 0 -397 158q-133 157 -88 414z
" />
    <glyph glyph-name="Cacute.aalt" horiz-adv-x="1259" 
d="M631 1202l151 361h332l-227 -361h-256zM72 541q46 256 236 414q187 157 450 157q244 0 369 -131t87 -344h-362q16 101 -17 145.5t-126 44.5q-109 0 -170.5 -68.5t-87.5 -217.5q-27 -152 10 -219.5t145 -67.5q97 0 147 38t64 124h361q-33 -201 -205 -324
q-173 -123 -416 -123q-263 0 -397 158q-133 157 -88 414z" />
    <glyph glyph-name="Ccaron.aalt" horiz-adv-x="1259" 
d="M1006 1202h-471l-113 361h289l69 -301l176 301h289zM758 1112q244 0 369 -131t87 -344h-362q16 101 -17 145.5t-126 44.5q-109 0 -170.5 -68.5t-87.5 -217.5q-27 -152 10 -219.5t145 -67.5q97 0 147 38t64 124h361q-33 -201 -205 -324q-173 -123 -416 -123
q-263 0 -397 158q-133 157 -88 414q46 256 236 414q187 157 450 157z" />
    <glyph glyph-name="Ccedilla.aalt" horiz-adv-x="1259" 
d="M1214 637h-362q16 101 -17 145.5t-126 44.5q-109 0 -170.5 -68.5t-87.5 -217.5q-27 -152 10 -219.5t145 -67.5q97 0 147 38t64 124h361q-32 -182 -173 -299q-144 -120 -352 -142l-41 -77h21q78 0 119 -46t26 -118q-13 -81 -76 -133q-64 -50 -151 -50h-240l27 146h162
q49 0 55 37q8 37 -43 37h-143l20 120l53 86q-210 34 -310 187q-99 151 -60 377q46 256 236 414q187 157 450 157q244 0 369 -131t87 -344z" />
    <glyph glyph-name="Ccircumflex.aalt" horiz-adv-x="1259" 
d="M895 1202l-70 301l-176 -301h-289l240 361h471l113 -361h-289zM1214 637h-362q16 101 -17 145.5t-126 44.5q-109 0 -170.5 -68.5t-87.5 -217.5q-27 -152 10 -219.5t145 -67.5q97 0 147 38t64 124h361q-33 -201 -205 -324q-173 -123 -416 -123q-263 0 -397 158
q-133 157 -88 414q46 256 236 414q187 157 450 157q244 0 369 -131t87 -344z" />
    <glyph glyph-name="Cdotaccent.aalt" horiz-adv-x="1259" 
d="M582 1229l55 309h387l-53 -309h-389zM72 541q46 256 236 414q187 157 450 157q244 0 369 -131t87 -344h-362q16 101 -17 145.5t-126 44.5q-109 0 -170.5 -68.5t-87.5 -217.5q-27 -152 10 -219.5t145 -67.5q97 0 147 38t64 124h361q-33 -201 -205 -324
q-173 -123 -416 -123q-263 0 -397 158q-133 157 -88 414z" />
    <glyph glyph-name="D.aalt" horiz-adv-x="1357" 
d="M229 1092h559q266 0 405 -150q138 -152 95 -395q-44 -247 -233 -396q-190 -151 -457 -151h-561zM911 547q50 266 -215 266h-149l-92 -534h147q264 0 309 268z" />
    <glyph glyph-name="Eth.aalt" horiz-adv-x="1357" 
d="M229 1092h559q266 0 405 -150q138 -152 95 -395q-44 -247 -233 -396q-190 -151 -457 -151h-561l78 438h-121l39 226h121zM911 547q50 266 -215 266h-149l-25 -149h217l-41 -226h-217l-26 -159h147q264 0 309 268z" />
    <glyph glyph-name="Dcaron.aalt" horiz-adv-x="1357" 
d="M1018 1202h-471l-113 361h289l70 -301l176 301h288zM229 1092h559q266 0 405 -150q138 -152 95 -395q-44 -247 -233 -396q-190 -151 -457 -151h-561zM911 547q50 266 -215 266h-149l-92 -534h147q264 0 309 268z" />
    <glyph glyph-name="Dcroat.aalt" horiz-adv-x="1357" 
d="M229 1092h559q266 0 405 -150q138 -152 95 -395q-44 -247 -233 -396q-190 -151 -457 -151h-561l78 438h-121l39 226h121zM911 547q50 266 -215 266h-149l-25 -149h217l-41 -226h-217l-26 -159h147q264 0 309 268z" />
    <glyph glyph-name="E.aalt" horiz-adv-x="1126" 
d="M1130 1092l-49 -279h-534l-25 -147h518l-41 -234h-518l-26 -153h536l-49 -279h-905l192 1092h901z" />
    <glyph glyph-name="Eacute.aalt" horiz-adv-x="1126" 
d="M707 1563h331l-227 -361h-256zM1130 1092l-49 -279h-534l-25 -147h518l-41 -234h-518l-26 -153h536l-49 -279h-905l192 1092h901z" />
    <glyph glyph-name="Ebreve.aalt" horiz-adv-x="1126" 
d="M958 1286q-106 -94 -261 -94t-229 93q-73 93 -40 278h229q-16 -81 2.5 -118.5t73.5 -37.5t86 37t47 119h230q-33 -184 -138 -277zM1130 1092l-49 -279h-534l-25 -147h518l-41 -234h-518l-26 -153h536l-49 -279h-905l192 1092h901z" />
    <glyph glyph-name="Ecaron.aalt" horiz-adv-x="1126" 
d="M930 1202h-471l-113 361h289l70 -301l176 301h288zM229 1092h901l-49 -279h-534l-25 -147h518l-41 -234h-518l-26 -153h536l-49 -279h-905z" />
    <glyph glyph-name="Ecircumflex.aalt" horiz-adv-x="1126" 
d="M819 1202l-69 301l-177 -301h-288l239 361h471l113 -361h-289zM1130 1092l-49 -279h-534l-25 -147h518l-41 -234h-518l-26 -153h536l-49 -279h-905l192 1092h901z" />
    <glyph glyph-name="Edieresis.aalt" horiz-adv-x="1126" 
d="M389 1538h322l-54 -309h-323zM797 1538h323l-55 -309h-322zM1130 1092l-49 -279h-534l-25 -147h518l-41 -234h-518l-26 -153h536l-49 -279h-905l192 1092h901z" />
    <glyph glyph-name="Edotaccent.aalt" horiz-adv-x="1126" 
d="M561 1538h387l-53 -309h-389zM1130 1092l-49 -279h-534l-25 -147h518l-41 -234h-518l-26 -153h536l-49 -279h-905l192 1092h901z" />
    <glyph glyph-name="uni1EB8.aalt" horiz-adv-x="1126" 
d="M1130 1092l-49 -279h-534l-25 -147h518l-41 -234h-518l-26 -153h536l-49 -279h-905l192 1092h901zM627 -436h-387l53 309h389z" />
    <glyph glyph-name="Egrave.aalt" horiz-adv-x="1126" 
d="M809 1563l25 -361h-256l-101 361h332zM1130 1092l-49 -279h-534l-25 -147h518l-41 -234h-518l-26 -153h536l-49 -279h-905l192 1092h901z" />
    <glyph glyph-name="Emacron.aalt" horiz-adv-x="1126" 
d="M459 1524h585l-49 -279h-583zM1130 1092l-49 -279h-534l-25 -147h518l-41 -234h-518l-26 -153h536l-49 -279h-905l192 1092h901z" />
    <glyph glyph-name="Eogonek.aalt" horiz-adv-x="1126" 
d="M1130 1092l-49 -279h-534l-25 -147h518l-41 -234h-518l-26 -153h536l-49 -279l-127 -139q-37 -39 -39 -62q-4 -18 7.5 -28.5t37.5 -10.5h103l-37 -209h-283q-79 0 -114 37.5t-25 102.5q17 77 86 149l154 160h-668l192 1092h901z" />
    <glyph glyph-name="uni1EBC.aalt" horiz-adv-x="1126" 
d="M582 1311q-84 0 -99 -84h-172q29 163 104 244.5t195 80.5q60 0 139 -44t125 -44q86 0 97 84h172q-26 -163 -100 -244.5t-195 -80.5q-60 0 -140 44t-126 44zM229 1092h901l-49 -279h-534l-25 -147h518l-41 -234h-518l-26 -153h536l-49 -279h-905z" />
    <glyph glyph-name="uni018F.aalt" horiz-adv-x="1282" 
d="M735 1112q260 0 393 -157q132 -157 87 -414q-47 -257 -234 -414q-188 -158 -451 -158q-250 0 -378 141q-129 140 -89 369l21 123h762q12 121 -29 177.5t-143 56.5q-190 0 -211 -142h-354q33 186 206 302t420 116zM580 246q163 0 225 170l-295 -4l-94 10q-4 -92 35 -134
t129 -42z" />
    <glyph glyph-name="F.aalt" horiz-adv-x="1087" 
d="M1114 1092l-49 -279h-518l-25 -147h502l-41 -234h-502l-75 -432h-369l192 1092h885z" />
    <glyph glyph-name="G.aalt" horiz-adv-x="1327" 
d="M1253 674h-362q16 81 -23.5 117t-142.5 36q-117 0 -182.5 -67.5t-91.5 -218.5q-27 -151 15 -219t159 -68q175 0 219 129h-228l35 201h596l-102 -584h-328l53 305q-100 -336 -419 -336q-217 0 -321 150q-105 149 -60 401q46 270 241 431q194 161 465 161q250 0 381 -120
q131 -122 96 -318z" />
    <glyph glyph-name="Gbreve.aalt" horiz-adv-x="1327" 
d="M1054 1286q-106 -94 -261 -94q-156 0 -228 93q-73 92 -41 278h230q-16 -82 2 -119t74 -37q55 0 85 36.5t48 119.5h229q-33 -184 -138 -277zM1253 674h-362q16 81 -23.5 117t-142.5 36q-117 0 -182.5 -67.5t-91.5 -218.5q-27 -151 15 -219t159 -68q175 0 219 129h-228
l35 201h596l-102 -584h-328l53 305q-100 -336 -419 -336q-217 0 -321 150q-105 149 -60 401q46 270 241 431q194 161 465 161q250 0 381 -120q131 -122 96 -318z" />
    <glyph glyph-name="Gcaron.aalt" horiz-adv-x="1327" 
d="M1028 1202h-471l-113 361h289l70 -301l176 301h289zM776 1112q251 0 381 -121t96 -317h-362q16 81 -23.5 117t-142.5 36q-117 0 -182.5 -67.5t-91.5 -218.5q-27 -151 15 -219t159 -68q175 0 219 129h-228l35 201h596l-102 -584h-328l53 305q-100 -336 -419 -336
q-217 0 -321 150q-105 149 -60 401q46 270 241 431q194 161 465 161z" />
    <glyph glyph-name="Gcircumflex.aalt" horiz-adv-x="1327" 
d="M915 1202l-69 301l-176 -301h-289l240 361h471l112 -361h-289zM1253 674h-362q16 81 -23.5 117t-142.5 36q-117 0 -182.5 -67.5t-91.5 -218.5q-27 -151 15 -219t159 -68q175 0 219 129h-228l35 201h596l-102 -584h-328l53 305q-100 -336 -419 -336q-217 0 -321 150
q-105 149 -60 401q46 270 241 431q194 161 465 161q250 0 381 -120q131 -122 96 -318z" />
    <glyph glyph-name="uni0122.aalt" horiz-adv-x="1327" 
d="M1253 674h-362q16 81 -23.5 117t-142.5 36q-117 0 -182.5 -67.5t-91.5 -218.5q-27 -151 15 -219t159 -68q175 0 219 129h-228l35 201h596l-102 -584h-328l53 305q-100 -336 -419 -336q-217 0 -321 150q-105 149 -60 401q46 270 241 431q194 161 465 161q250 0 381 -120
q131 -122 96 -318zM520 -369l-141 54l35 188h329l-38 -229q-23 -125 -134 -200q-113 -75 -276 -75l24 139q93 0 141 30t60 93z" />
    <glyph glyph-name="Gdotaccent.aalt" horiz-adv-x="1327" 
d="M657 1538h387l-53 -309h-389zM1253 674h-362q16 81 -23.5 117t-142.5 36q-117 0 -182.5 -67.5t-91.5 -218.5q-27 -151 15 -219t159 -68q175 0 219 129h-228l35 201h596l-102 -584h-328l53 305q-100 -336 -419 -336q-217 0 -321 150q-105 149 -60 401q46 270 241 431
q194 161 465 161q250 0 381 -120q131 -122 96 -318z" />
    <glyph glyph-name="H.aalt" horiz-adv-x="1400" 
d="M930 690l71 402h367l-190 -1092h-369l72 412h-404l-71 -412h-369l192 1092h367l-70 -402h404z" />
    <glyph glyph-name="Hbar.aalt" horiz-adv-x="1400" 
d="M1348 977h102l-33 -176h-100l-139 -801h-369l72 412h-404l-71 -412h-369l141 801h-104l30 176h105l20 115h367l-21 -115h406l20 115h367zM526 690h404l20 111h-405z" />
    <glyph glyph-name="Hcircumflex.aalt" horiz-adv-x="1400" 
d="M922 1202l-70 301l-176 -301h-289l240 361h471l112 -361h-288zM930 690l71 402h367l-190 -1092h-369l72 412h-404l-71 -412h-369l192 1092h367l-70 -402h404z" />
    <glyph glyph-name="i.aalt" horiz-adv-x="628" 
d="M37 0l192 1092h367l-190 -1092h-369z" />
    <glyph glyph-name="iacute.aalt" horiz-adv-x="628" 
d="M293 1202l151 361h332l-227 -361h-256zM37 0l192 1092h367l-190 -1092h-369z" />
    <glyph glyph-name="ibreve.aalt" horiz-adv-x="628" 
d="M604 1563h230q-33 -181 -137 -276t-262 -95q-159 0 -230 94.5t-39 276.5h229q-16 -81 2.5 -118.5t73.5 -37.5t86 37t47 119zM37 0l192 1092h367l-190 -1092h-369z" />
    <glyph glyph-name="icircumflex.aalt" horiz-adv-x="628" 
d="M557 1202l-70 301l-176 -301h-288l239 361h471l113 -361h-289zM406 0h-369l192 1092h367z" />
    <glyph glyph-name="idieresis.aalt" horiz-adv-x="628" 
d="M72 1229l55 309h322l-54 -309h-323zM481 1229l54 309h323l-55 -309h-322zM37 0l192 1092h367l-190 -1092h-369z" />
    <glyph glyph-name="Idotaccent.c2sc" horiz-adv-x="628" 
d="M244 1229l55 309h387l-53 -309h-389zM37 0l192 1092h367l-190 -1092h-369z" />
    <glyph glyph-name="uni1ECB.aalt" horiz-adv-x="628" 
d="M37 0l192 1092h367l-190 -1092h-369zM-49 -436l53 309h389l-55 -309h-387z" />
    <glyph glyph-name="igrave.aalt" horiz-adv-x="628" 
d="M215 1563h332l24 -361h-256zM37 0l192 1092h367l-190 -1092h-369z" />
    <glyph glyph-name="IJ.aalt" horiz-adv-x="1212" 
d="M84 258h483q121 0 144 123l125 711h366l-129 -744q-31 -174 -180 -276q-149 -103 -399 -103q-247 0 -455 35zM121 446l115 646h366l-115 -646h-366z" />
    <glyph glyph-name="imacron.aalt" horiz-adv-x="628" 
d="M197 1524h585l-49 -279h-583zM37 0l192 1092h367l-190 -1092h-369z" />
    <glyph glyph-name="iogonek.aalt" horiz-adv-x="628" 
d="M37 0l192 1092h367l-190 -1092h-3l-127 -139q-36 -38 -38 -62q-4 -18 7.5 -28.5t37.5 -10.5h102l-37 -209h-282q-79 0 -114.5 37.5t-25.5 102.5q17 77 86 149l154 160h-129z" />
    <glyph glyph-name="itilde.aalt" horiz-adv-x="628" 
d="M586 1223q-60 0 -140 44t-127 44q-85 0 -98 -84h-172q29 163 104 244.5t195 80.5q60 0 139 -44t125 -44q86 0 97 84h172q-52 -325 -295 -325zM37 0l192 1092h367l-190 -1092h-369z" />
    <glyph glyph-name="J.aalt" horiz-adv-x="1120" 
d="M-12 432h358q-16 -94 10 -136t101 -42q72 0 112.5 41t57.5 129l116 668h367l-125 -707q-33 -185 -192 -301q-160 -115 -387 -115q-225 0 -340 127q-116 128 -78 336z" />
    <glyph glyph-name="Jcircumflex.aalt" horiz-adv-x="1120" 
d="M1063 1202l-70 301l-176 -301h-289l240 361h471l113 -361h-289zM627 424l116 668h367l-125 -707q-33 -185 -192 -301q-160 -115 -387 -115q-225 0 -340 127q-116 128 -78 336h358q-16 -94 10 -136t101 -42q72 0 113 41t57 129z" />
    <glyph glyph-name="K.aalt" horiz-adv-x="1376" 
d="M1012 1092h413l-538 -537l389 -555h-445l-237 358l-98 160l-90 -518h-369l192 1092h367l-90 -517l153 164z" />
    <glyph glyph-name="uni0136.aalt" horiz-adv-x="1376" 
d="M1012 1092h413l-538 -537l389 -555h-445l-237 358l-98 160l-90 -518h-369l192 1092h367l-90 -517l153 164zM532 -369l-141 54l35 188h330l-39 -229q-23 -125 -134 -200q-113 -75 -276 -75l25 139q93 0 140.5 29.5t59.5 93.5z" />
    <glyph glyph-name="L.aalt" horiz-adv-x="1062" 
d="M596 1092l-141 -813h534l-49 -279h-903l192 1092h367z" />
    <glyph glyph-name="Lacute.aalt" horiz-adv-x="1062" 
d="M444 1563h332l-227 -361h-256zM596 1092l-141 -813h534l-49 -279h-903l192 1092h367z" />
    <glyph glyph-name="Lcaron.aalt" horiz-adv-x="1062" 
d="M229 1092h367l-141 -813h534l-49 -279h-903zM688 905l35 187h332l-41 -230q-23 -125 -134 -199q-112 -75 -274 -75l25 141q94 0 141 28.5t57 94.5z" />
    <glyph glyph-name="uni013B.aalt" horiz-adv-x="1062" 
d="M596 1092l-141 -813h534l-49 -279h-903l192 1092h367zM393 -369l-141 54l35 188h329l-38 -229q-23 -125 -134 -200q-112 -75 -276 -75l25 139q93 0 140.5 29.5t59.5 93.5z" />
    <glyph glyph-name="Ldot.aalt" horiz-adv-x="1062" 
d="M596 1092l-141 -813h534l-49 -279h-903l192 1092h367zM958 827l-55 -309h-309l55 309h309z" />
    <glyph glyph-name="Lslash.aalt" horiz-adv-x="1062" 
d="M489 475l-34 -196h534l-49 -279h-903l61 348l-116 -47l45 250l114 47l88 494h367l-64 -367l336 141l-43 -250z" />
    <glyph glyph-name="M.aalt" horiz-adv-x="1843" 
d="M1180 1092h630l-192 -1092h-365l117 662l62 305l-355 -967h-495l-19 965l-45 -303l-117 -662h-364l192 1092h641l7 -656l-19 -291l84 291z" />
    <glyph glyph-name="N.aalt" horiz-adv-x="1509" 
d="M1016 549l96 543h365l-193 -1092h-639l-84 961l-63 -410l-97 -551h-364l192 1092h639l86 -947z" />
    <glyph glyph-name="Nacute.aalt" horiz-adv-x="1509" 
d="M889 1563h332l-228 -361h-256zM1016 549l96 543h365l-193 -1092h-639l-84 961l-63 -410l-97 -551h-364l192 1092h639l86 -947z" />
    <glyph glyph-name="Ncaron.aalt" horiz-adv-x="1509" 
d="M1114 1202h-471l-113 361h289l70 -301l176 301h289zM1016 549l96 543h365l-193 -1092h-639l-84 961l-63 -410l-97 -551h-364l192 1092h639l86 -947z" />
    <glyph glyph-name="uni0145.aalt" horiz-adv-x="1509" 
d="M1016 549l96 543h365l-193 -1092h-639l-84 961l-63 -410l-97 -551h-364l192 1092h639l86 -947zM590 -369l-141 54l34 188h330l-39 -229q-23 -125 -134 -200q-112 -75 -275 -75l24 139q93 0 141 30t60 93z" />
    <glyph glyph-name="Eng.aalt" horiz-adv-x="1509" 
d="M1016 549l96 543h365l-193 -1092l-6 -43q-27 -167 -159 -271q-132 -102 -316 -102q-81 0 -154 21l45 266h94q58 0 88.5 28t43.5 93l2 8h-277l-84 961l-63 -410l-97 -551h-364l192 1092h639l86 -947z" />
    <glyph glyph-name="uni019D.aalt" horiz-adv-x="1509" 
d="M1016 549l96 543h365l-193 -1092h-639l-84 961l-63 -410l-97 -551l-6 -43q-27 -167 -158 -271q-131 -102 -317 -102q-80 0 -153 21l47 266h94q58 0 87.5 29t41.5 100l192 1092h639l86 -947z" />
    <glyph glyph-name="Ntilde.aalt" horiz-adv-x="1509" 
d="M764 1311q-84 0 -98 -84h-172q29 163 104 244.5t195 80.5q60 0 139 -44t125 -44q85 0 96 84h172q-26 -163 -100 -244.5t-195 -80.5q-60 0 -140 44t-126 44zM1016 549l96 543h365l-193 -1092h-639l-84 961l-63 -410l-97 -551h-364l192 1092h639l86 -947z" />
    <glyph glyph-name="O.c2sc" horiz-adv-x="1339" 
d="M1034 127q-194 -158 -462 -158q-269 0 -407 158q-138 157 -93 414t240 414q193 157 462 157q268 0 406 -157q137 -158 92 -414q-45 -257 -238 -414zM465 322q41 -68 158 -68q115 0 180 68q63 68 90 219q27 152 -13 219t-157 67q-118 0 -182 -67q-66 -68 -90 -219
q-27 -151 14 -219z" />
    <glyph glyph-name="Oacute.aalt" horiz-adv-x="1339" 
d="M647 1202l152 361h331l-227 -361h-256zM1034 127q-194 -158 -462 -158q-269 0 -407 158q-138 157 -93 414t240 414q193 157 462 157q268 0 406 -157q137 -158 92 -414q-45 -257 -238 -414zM465 322q41 -68 158 -68q115 0 180 68q63 68 90 219q27 152 -13 219t-157 67
q-118 0 -182 -67q-66 -68 -90 -219q-27 -151 14 -219z" />
    <glyph glyph-name="Obreve.aalt" horiz-adv-x="1339" 
d="M958 1563h230q-33 -181 -137 -276t-262 -95q-159 0 -230 94.5t-39 276.5h230q-16 -82 2 -119t74 -37q55 0 85.5 36.5t46.5 119.5zM1034 127q-194 -158 -462 -158q-269 0 -407 158q-138 157 -93 414t240 414q193 157 462 157q268 0 406 -157q137 -158 92 -414
q-45 -257 -238 -414zM465 322q41 -68 158 -68q115 0 180 68q63 68 90 219q27 152 -13 219t-157 67q-118 0 -182 -67q-66 -68 -90 -219q-27 -151 14 -219z" />
    <glyph glyph-name="Ocircumflex.aalt" horiz-adv-x="1339" 
d="M911 1202l-69 301l-176 -301h-289l239 361h471l113 -361h-289zM312 955q193 157 462 157q268 0 406 -157q137 -158 92 -414q-45 -257 -238 -414q-194 -158 -462 -158q-269 0 -407 158q-138 157 -93 414t240 414zM803 322q63 68 90 219q27 152 -13 219t-157 67
q-118 0 -183 -68t-89 -218q-27 -152 14 -219.5t158 -67.5q115 0 180 68z" />
    <glyph glyph-name="Odieresis.aalt" horiz-adv-x="1339" 
d="M426 1229l55 309h322l-53 -309h-324zM836 1229l53 309h323l-55 -309h-321zM1034 127q-194 -158 -462 -158q-269 0 -407 158q-138 157 -93 414t240 414q193 157 462 157q268 0 406 -157q137 -158 92 -414q-45 -257 -238 -414zM465 322q41 -68 158 -68q115 0 180 68
q63 68 90 219q27 152 -13 219t-157 67q-118 0 -182 -67q-66 -68 -90 -219q-27 -151 14 -219z" />
    <glyph glyph-name="uni1ECC.aalt" horiz-adv-x="1339" 
d="M1034 127q-194 -158 -462 -158q-269 0 -407 158q-138 157 -93 414t240 414q193 157 462 157q268 0 406 -157q137 -158 92 -414q-45 -257 -238 -414zM465 322q41 -68 158 -68q115 0 180 68q63 68 90 219q27 152 -13 219t-157 67q-118 0 -182 -67q-66 -68 -90 -219
q-27 -151 14 -219zM307 -436l53 309h390l-56 -309h-387z" />
    <glyph glyph-name="Ograve.aalt" horiz-adv-x="1339" 
d="M569 1563h332l25 -361h-256zM1034 127q-194 -158 -462 -158q-269 0 -407 158q-138 157 -93 414t240 414q193 157 462 157q268 0 406 -157q137 -158 92 -414q-45 -257 -238 -414zM465 322q41 -68 158 -68q115 0 180 68q63 68 90 219q27 152 -13 219t-157 67
q-118 0 -182 -67q-66 -68 -90 -219q-27 -151 14 -219z" />
    <glyph glyph-name="Ohungarumlaut.aalt" horiz-adv-x="1339" 
d="M485 1202l146 361h280l-170 -361h-256zM823 1202l152 361h332l-228 -361h-256zM1034 127q-194 -158 -462 -158q-269 0 -407 158q-138 157 -93 414t240 414q193 157 462 157q268 0 406 -157q137 -158 92 -414q-45 -257 -238 -414zM465 322q41 -68 158 -68q115 0 180 68
q63 68 90 219q27 152 -13 219t-157 67q-118 0 -182 -67q-66 -68 -90 -219q-27 -151 14 -219z" />
    <glyph glyph-name="Omacron.aalt" horiz-adv-x="1339" 
d="M551 1524h586l-50 -279h-583zM1034 127q-194 -158 -462 -158q-269 0 -407 158q-138 157 -93 414t240 414q193 157 462 157q268 0 406 -157q137 -158 92 -414q-45 -257 -238 -414zM465 322q41 -68 158 -68q115 0 180 68q63 68 90 219q27 152 -13 219t-157 67
q-118 0 -182 -67q-66 -68 -90 -219q-27 -151 14 -219z" />
    <glyph glyph-name="uni01EA.aalt" horiz-adv-x="1339" 
d="M312 955q193 157 462 157q268 0 406 -157q137 -158 92 -414q-34 -199 -164 -342q-128 -143 -317 -199l-127 -139q-37 -39 -39 -62q-4 -18 7.5 -28.5t37.5 -10.5h102l-37 -209h-282q-79 0 -114.5 37.5t-25.5 102.5q17 77 86 149l125 131q-247 13 -372 169
q-125 155 -80 401q45 257 240 414zM803 322q63 68 90 219q27 152 -13 219t-157 67q-118 0 -183 -68t-89 -218q-27 -152 14 -219.5t158 -67.5q115 0 180 68z" />
    <glyph glyph-name="Oslash.aalt" horiz-adv-x="1339" 
d="M1335 1208l-184 -223q170 -158 121 -444q-45 -257 -238 -414q-194 -158 -463 -158q-131 0 -227 37l-123 -149h-241l204 247q-162 162 -112 437q45 257 240 414q193 157 462 157q123 0 213 -33l107 129h241zM451 541q-12 -79 -11 -125l336 407q-29 4 -53 4
q-118 0 -182.5 -67.5t-89.5 -218.5zM893 541q16 89 10 143l-348 -424q32 -6 68 -6q117 0 180 67t90 220z" />
    <glyph glyph-name="Oslashacute.aalt" horiz-adv-x="1339" 
d="M782 1563h332l-227 -361h-256zM1335 1208l-184 -223q170 -158 121 -444q-45 -257 -238 -414q-194 -158 -463 -158q-131 0 -227 37l-123 -149h-241l204 247q-162 162 -112 437q45 257 240 414q193 157 462 157q123 0 213 -33l107 129h241zM451 541q-12 -79 -11 -125
l336 407q-29 4 -53 4q-118 0 -182.5 -67.5t-89.5 -218.5zM893 541q16 89 10 143l-348 -424q32 -6 68 -6q117 0 180 67t90 220z" />
    <glyph glyph-name="Otilde.aalt" horiz-adv-x="1339" 
d="M940 1223q-60 0 -140 44t-126 44q-84 0 -99 -84h-172q29 163 104 244.5t195 80.5q60 0 140 -44q79 -44 125 -44q85 0 96 84h172q-52 -325 -295 -325zM1034 127q-194 -158 -462 -158q-269 0 -407 158q-138 157 -93 414t240 414q193 157 462 157q268 0 406 -157
q137 -158 92 -414q-45 -257 -238 -414zM465 322q41 -68 158 -68q115 0 180 68q63 68 90 219q27 152 -13 219t-157 67q-118 0 -182 -67q-66 -68 -90 -219q-27 -151 14 -219z" />
    <glyph glyph-name="OE.aalt" horiz-adv-x="1843" 
d="M1849 1092l-49 -279h-526l-27 -147h510l-41 -234h-510l-26 -153h528l-47 -279h-1090q-267 0 -403 151q-136 150 -96 396q43 243 234 395q190 150 458 150h1085zM666 279h147l92 534h-145q-259 0 -309 -266q-45 -268 215 -268z" />
    <glyph glyph-name="P.aalt" horiz-adv-x="1208" 
d="M229 1092h668q176 0 266 -106q90 -107 60 -281q-32 -171 -160 -274q-129 -105 -309 -105h-293l-58 -326h-366zM844 705q10 55 -18.5 81.5t-98.5 26.5h-180l-39 -215h180q72 0 109 25t47 82z" />
    <glyph glyph-name="Thorn.aalt" horiz-adv-x="1208" 
d="M567 934h303q176 0 266 -106q89 -108 58 -281q-32 -169 -159 -273q-128 -104 -308 -104h-293l-31 -170h-366l192 1092h367zM815 547q10 57 -17.5 82.5t-99.5 25.5h-180l-37 -215h181q137 2 153 107z" />
    <glyph glyph-name="Q.aalt" horiz-adv-x="1339" 
d="M1272 541q-39 -229 -201 -381l103 -111l-199 -172l-107 150q-138 -56 -297 -58q-268 0 -406 158q-138 157 -93 414q46 257 240 414q191 157 462 157q268 0 406 -157q137 -158 92 -414zM542 760q-66 -69 -91 -219q-27 -151 14 -219t158 -68q35 0 59 2l-102 115l184 159
l96 -124q16 46 33 135q27 152 -13 219t-157 67t-181 -67z" />
    <glyph glyph-name="R.aalt" horiz-adv-x="1308" 
d="M1235 717q-34 -196 -203 -297l60 -113l127 -307h-412l-143 352h-199l-62 -352h-366l192 1092h680q176 0 267 -103q90 -104 59 -272zM739 813h-192l-37 -213h192q72 0 108 25t46 82q10 55 -18.5 80.5t-98.5 25.5z" />
    <glyph glyph-name="Racute.aalt" horiz-adv-x="1308" 
d="M784 1563h332l-227 -361h-256zM1235 717q-34 -196 -203 -297l60 -113l127 -307h-412l-143 352h-199l-62 -352h-366l192 1092h680q176 0 267 -103q90 -104 59 -272zM739 813h-192l-37 -213h192q72 0 108 25t46 82q10 55 -18.5 80.5t-98.5 25.5z" />
    <glyph glyph-name="Rcaron.aalt" horiz-adv-x="1308" 
d="M1010 1202h-471l-113 361h289l69 -301l177 301h288zM229 1092h680q176 0 267 -103q90 -104 59 -272q-34 -196 -203 -297l60 -113l127 -307h-412l-143 352h-199l-62 -352h-366zM739 813h-192l-37 -213h192q72 0 108 25t46 82q10 55 -18.5 80.5t-98.5 25.5z" />
    <glyph glyph-name="uni0156.aalt" horiz-adv-x="1308" 
d="M1235 717q-34 -196 -203 -297l60 -113l127 -307h-412l-143 352h-199l-62 -352h-366l192 1092h680q176 0 267 -103q90 -104 59 -272zM739 813h-192l-37 -213h192q72 0 108 25t46 82q10 55 -18.5 80.5t-98.5 25.5zM510 -369l-141 54l34 188h330l-39 -229
q-23 -125 -134 -200t-275 -75l24 139q93 0 141 30t60 93z" />
    <glyph glyph-name="S.aalt" horiz-adv-x="1236" 
d="M29 336h360q-10 -61 32.5 -90t143.5 -29q182 0 197 78q3 28 -11 42t-63 26t-160 26q-233 25 -334.5 113t-72.5 246q32 164 194 264q161 100 398 100q240 0 369 -105q128 -107 98 -276h-361q12 70 -24.5 101.5t-128.5 31.5q-164 0 -179 -82q-7 -39 42 -58q50 -20 196 -36
q257 -28 352 -110q93 -82 68 -236q-32 -171 -200 -271q-169 -102 -425 -102q-249 0 -385 101q-134 100 -106 266z" />
    <glyph glyph-name="Sacute.aalt" horiz-adv-x="1236" 
d="M592 1202l151 361h332l-227 -361h-256zM29 336h360q-10 -61 32.5 -90t143.5 -29q182 0 197 78q3 28 -11 42t-63 26t-160 26q-233 25 -334.5 113t-72.5 246q32 164 194 264q161 100 398 100q240 0 369 -105q128 -107 98 -276h-361q12 70 -24.5 101.5t-128.5 31.5
q-164 0 -179 -82q-7 -39 42 -58q50 -20 196 -36q257 -28 352 -110q93 -82 68 -236q-32 -171 -200 -271q-169 -102 -425 -102q-249 0 -385 101q-134 100 -106 266z" />
    <glyph glyph-name="Scaron.aalt" horiz-adv-x="1236" 
d="M969 1202h-471l-113 361h289l69 -301l177 301h288zM713 1112q240 0 369 -105q128 -107 98 -276h-361q12 70 -24.5 101.5t-128.5 31.5q-164 0 -179 -82q-7 -39 42 -58q50 -20 196 -36q257 -28 352 -110q93 -82 68 -236q-32 -171 -200 -271q-169 -102 -425 -102
q-249 0 -385 101q-134 100 -106 266h360q-10 -61 32.5 -90t143.5 -29q182 0 197 78q3 28 -11 42t-63 26t-160 26q-233 25 -334.5 113t-72.5 246q32 164 194 264q161 100 398 100z" />
    <glyph glyph-name="Scedilla.c2sc" horiz-adv-x="1236" 
d="M1180 731h-361q12 70 -24.5 101.5t-128.5 31.5q-164 0 -179 -82q-7 -39 42 -58q50 -20 196 -36q257 -28 352 -110q93 -82 68 -236q-27 -152 -167 -250t-357 -119l-41 -75h20q78 0 119 -46t26 -118q-13 -81 -76 -133q-64 -50 -151 -50h-239l26 146h162q49 0 55 37
q8 37 -43 37h-143l20 120l52 84q-198 22 -302 119q-104 96 -77 242h360q-10 -61 32.5 -90t143.5 -29q182 0 197 78q3 28 -11 42t-63 26t-160 26q-233 25 -334.5 113t-72.5 246q32 164 194 264q161 100 398 100q240 0 369 -105q129 -107 98 -276z" />
    <glyph glyph-name="Scircumflex.aalt" horiz-adv-x="1236" 
d="M856 1202l-70 301l-176 -301h-288l239 361h471l113 -361h-289zM1180 731h-361q12 70 -24.5 101.5t-128.5 31.5q-164 0 -179 -82q-7 -39 42 -58q50 -20 196 -36q257 -28 352 -110q93 -82 68 -236q-32 -171 -200 -271q-169 -102 -425 -102q-249 0 -385 101
q-134 100 -106 266h360q-10 -61 32.5 -90t143.5 -29q182 0 197 78q3 28 -11 42t-63 26t-160 26q-233 25 -334.5 113t-72.5 246q32 164 194 264q161 100 398 100q240 0 369 -105q129 -107 98 -276z" />
    <glyph glyph-name="uni0218.aalt" horiz-adv-x="1236" 
d="M29 336h360q-10 -61 32.5 -90t143.5 -29q182 0 197 78q3 28 -11 42t-63 26t-160 26q-233 25 -334.5 113t-72.5 246q32 164 194 264q161 100 398 100q240 0 369 -105q128 -107 98 -276h-361q12 70 -24.5 101.5t-128.5 31.5q-164 0 -179 -82q-7 -39 42 -58q50 -20 196 -36
q257 -28 352 -110q93 -82 68 -236q-32 -171 -200 -271q-169 -102 -425 -102q-249 0 -385 101q-134 100 -106 266zM301 -315l35 188h330l-39 -229q-23 -125 -134 -200q-113 -75 -276 -75l25 139q93 0 140.5 29.5t59.5 93.5z" />
    <glyph glyph-name="T.aalt" horiz-adv-x="1110" 
d="M109 1092h1089l-49 -279h-361l-143 -813h-369l144 813h-361z" />
    <glyph glyph-name="Tbar.aalt" horiz-adv-x="1110" 
d="M1198 1092l-49 -279h-361l-34 -203h266l-37 -209h-266l-72 -401h-369l72 401h-280l36 209h281l35 203h-361l50 279h1089z" />
    <glyph glyph-name="Tcaron.aalt" horiz-adv-x="1110" 
d="M907 1202h-471l-112 361h288l70 -301l176 301h289zM109 1092h1089l-49 -279h-361l-143 -813h-369l144 813h-361z" />
    <glyph glyph-name="uni0162.c2sc" horiz-adv-x="1110" 
d="M788 813l-143 -813h-74l-55 -102h21q78 0 118.5 -45.5t26.5 -118.5q-13 -81 -76 -133q-64 -50 -151 -50h-240l27 146h161q49 0 56 37q4 18 -6.5 27.5t-36.5 9.5h-144l21 120l65 109h-82l144 813h-361l50 279h1089l-49 -279h-361z" />
    <glyph glyph-name="uni021A.aalt" horiz-adv-x="1110" 
d="M109 1092h1089l-49 -279h-361l-143 -813h-369l144 813h-361zM379 -369l-141 54l34 188h330l-39 -229q-23 -125 -134 -200q-113 -75 -275 -75l24 139q93 0 141 30t60 93z" />
    <glyph glyph-name="U.aalt" horiz-adv-x="1308" 
d="M88 412l121 680h366l-112 -648q-18 -100 15.5 -145t127.5 -45t144.5 45t68.5 145l113 648h366l-118 -680q-34 -200 -207 -321q-173 -122 -418 -122q-243 0 -373 122q-129 121 -94 321z" />
    <glyph glyph-name="Uacute.aalt" horiz-adv-x="1308" 
d="M631 1202l151 361h332l-227 -361h-256zM88 412l121 680h366l-112 -648q-18 -100 15.5 -145t127.5 -45t144.5 45t68.5 145l113 648h366l-118 -680q-34 -200 -207 -321q-173 -122 -418 -122q-243 0 -373 122q-129 121 -94 321z" />
    <glyph glyph-name="Ubreve.aalt" horiz-adv-x="1308" 
d="M942 1563h229q-33 -181 -137 -276t-262 -95q-159 0 -229.5 94.5t-38.5 276.5h229q-16 -81 2.5 -118.5t73.5 -37.5t86 37t47 119zM88 412l121 680h366l-112 -648q-18 -100 15.5 -145t127.5 -45t144.5 45t68.5 145l113 648h366l-118 -680q-34 -200 -207 -321
q-173 -122 -418 -122q-243 0 -373 122q-129 121 -94 321z" />
    <glyph glyph-name="Ucircumflex.aalt" horiz-adv-x="1308" 
d="M897 1202l-70 301l-176 -301h-289l240 361h471l113 -361h-289zM819 444l113 648h366l-118 -680q-34 -200 -207 -321q-173 -122 -418 -122q-243 0 -373 122q-129 121 -94 321l121 680h366l-112 -648q-18 -100 15.5 -145t127.5 -45t144.5 45t68.5 145z" />
    <glyph glyph-name="Udieresis.aalt" horiz-adv-x="1308" 
d="M410 1229l55 309h321l-53 -309h-323zM819 1229l53 309h324l-55 -309h-322zM88 412l121 680h366l-112 -648q-18 -100 15.5 -145t127.5 -45t144.5 45t68.5 145l113 648h366l-118 -680q-34 -200 -207 -321q-173 -122 -418 -122q-243 0 -373 122q-129 121 -94 321z" />
    <glyph glyph-name="uni1EE4.aalt" horiz-adv-x="1308" 
d="M88 412l121 680h366l-112 -648q-18 -100 15.5 -145t127.5 -45t144.5 45t68.5 145l113 648h366l-118 -680q-34 -200 -207 -321q-173 -122 -418 -122q-243 0 -373 122q-129 121 -94 321zM291 -436l53 309h389l-55 -309h-387z" />
    <glyph glyph-name="Ugrave.aalt" horiz-adv-x="1308" 
d="M553 1563h332l24 -361h-256zM88 412l121 680h366l-112 -648q-18 -100 15.5 -145t127.5 -45t144.5 45t68.5 145l113 648h366l-118 -680q-34 -200 -207 -321q-173 -122 -418 -122q-243 0 -373 122q-129 121 -94 321z" />
    <glyph glyph-name="Uhungarumlaut.aalt" horiz-adv-x="1308" 
d="M469 1202l145 361h281l-170 -361h-256zM807 1202l151 361h332l-227 -361h-256zM88 412l121 680h366l-112 -648q-18 -100 15.5 -145t127.5 -45t144.5 45t68.5 145l113 648h366l-118 -680q-34 -200 -207 -321q-173 -122 -418 -122q-243 0 -373 122q-129 121 -94 321z" />
    <glyph glyph-name="Umacron.aalt" horiz-adv-x="1308" 
d="M537 1524h585l-49 -279h-584zM88 412l121 680h366l-112 -648q-18 -100 15.5 -145t127.5 -45t144.5 45t68.5 145l113 648h366l-118 -680q-34 -200 -207 -321q-173 -122 -418 -122q-243 0 -373 122q-129 121 -94 321z" />
    <glyph glyph-name="Uogonek.aalt" horiz-adv-x="1308" 
d="M819 444l113 648h366l-118 -680q-27 -151 -133 -258q-106 -109 -269 -156l-127 -137q-37 -39 -39 -62q-4 -18 7.5 -28.5t37.5 -10.5h103l-37 -209h-283q-79 0 -114 37.5t-25 102.5q17 77 86 149l125 131q-226 11 -341 130q-116 121 -83 311l121 680h366l-112 -648
q-18 -100 15.5 -145t127.5 -45t144.5 45t68.5 145z" />
    <glyph glyph-name="Uring.aalt" horiz-adv-x="1308" 
d="M772 1192q-98 0 -148.5 52t-35.5 138q14 87 84 139q68 52 168 52q96 0 146 -52.5t36 -138.5t-84 -138t-166 -52zM795 1321q69 0 82 61q7 61 -60 62q-74 0 -82 -62q-6 -33 8.5 -47t51.5 -14zM88 412l121 680h366l-112 -648q-18 -100 15.5 -145t127.5 -45t144.5 45
t68.5 145l113 648h366l-118 -680q-34 -200 -207 -321q-173 -122 -418 -122q-243 0 -373 122q-129 121 -94 321z" />
    <glyph glyph-name="Utilde.aalt" horiz-adv-x="1308" 
d="M924 1223q-60 0 -140 44t-127 44q-85 0 -98 -84h-172q29 163 104 244.5t195 80.5q60 0 139 -44t125 -44q86 0 97 84h172q-52 -325 -295 -325zM88 412l121 680h366l-112 -648q-18 -100 15.5 -145t127.5 -45t144.5 45t68.5 145l113 648h366l-118 -680q-34 -200 -207 -321
q-173 -122 -418 -122q-243 0 -373 122q-129 121 -94 321z" />
    <glyph glyph-name="V.aalt" horiz-adv-x="1331" 
d="M692 338l363 754h364l-532 -1092h-639l-148 1092h379l101 -754l18 -211z" />
    <glyph glyph-name="W.aalt" horiz-adv-x="2027" 
d="M1446 338l283 754h385l-433 -1092h-577l-12 676l8 289l-92 -289l-250 -676h-580l-47 1092h387l19 -754l-5 -195l60 195l270 754h522l5 -754l-9 -197z" />
    <glyph glyph-name="Wacute.aalt" horiz-adv-x="2027" 
d="M1169 1563h332l-227 -361h-256zM1446 338l283 754h385l-433 -1092h-577l-12 676l8 289l-92 -289l-250 -676h-580l-47 1092h387l19 -754l-5 -195l60 195l270 754h522l5 -754l-9 -197z" />
    <glyph glyph-name="Wcircumflex.aalt" horiz-adv-x="2027" 
d="M1284 1202l-70 301l-176 -301h-288l239 361h471l113 -361h-289zM1446 338l283 754h385l-433 -1092h-577l-12 676l8 289l-92 -289l-250 -676h-580l-47 1092h387l19 -754l-5 -195l60 195l270 754h522l5 -754l-9 -197z" />
    <glyph glyph-name="Wdieresis.aalt" horiz-adv-x="2027" 
d="M852 1538h322l-54 -309h-323zM1260 1538h323l-55 -309h-322zM1446 338l283 754h385l-433 -1092h-577l-12 676l8 289l-92 -289l-250 -676h-580l-47 1092h387l19 -754l-5 -195l60 195l270 754h522l5 -754l-9 -197z" />
    <glyph glyph-name="Wgrave.aalt" horiz-adv-x="2027" 
d="M1272 1563l24 -361h-256l-100 361h332zM1446 338l283 754h385l-433 -1092h-577l-12 676l8 289l-92 -289l-250 -676h-580l-47 1092h387l19 -754l-5 -195l60 195l270 754h522l5 -754l-9 -197z" />
    <glyph glyph-name="X.aalt" horiz-adv-x="1425" 
d="M1079 1092h406l-418 -510l262 -582h-411l-134 295l-71 197l-142 -197l-235 -295h-408l459 569l-242 523h412l113 -244l71 -197l142 197z" />
    <glyph glyph-name="Y.aalt" horiz-adv-x="1255" 
d="M995 1092h385l-596 -775l-57 -317h-367l56 311l-324 781h397l123 -334l45 -148l97 148z" />
    <glyph glyph-name="Yacute.aalt" horiz-adv-x="1255" 
d="M766 1563h332l-228 -361h-256zM995 1092h385l-596 -775l-57 -317h-367l56 311l-324 781h397l123 -334l45 -148l97 148z" />
    <glyph glyph-name="Ycircumflex.aalt" horiz-adv-x="1255" 
d="M881 1202l-70 301l-176 -301h-289l240 361h471l112 -361h-288zM995 1092h385l-596 -775l-57 -317h-367l56 311l-324 781h397l123 -334l45 -148l97 148z" />
    <glyph glyph-name="Ydieresis.aalt" horiz-adv-x="1255" 
d="M449 1538h321l-53 -309h-324zM856 1538h324l-56 -309h-321zM995 1092h385l-596 -775l-57 -317h-367l56 311l-324 781h397l123 -334l45 -148l97 148z" />
    <glyph glyph-name="Ygrave.aalt" horiz-adv-x="1255" 
d="M868 1563l25 -361h-256l-100 361h331zM995 1092h385l-596 -775l-57 -317h-367l56 311l-324 781h397l123 -334l45 -148l97 148z" />
    <glyph glyph-name="uni0232.aalt" horiz-adv-x="1255" 
d="M520 1524h586l-49 -279h-584zM995 1092h385l-596 -775l-57 -317h-367l56 311l-324 781h397l123 -334l45 -148l97 148z" />
    <glyph glyph-name="uni1EF8.aalt" horiz-adv-x="1255" 
d="M641 1311q-85 0 -98 -84h-172q29 163 104 244.5t195 80.5q60 0 139 -44t125 -44q86 0 96 84h172q-26 -163 -100 -244.5t-195 -80.5q-60 0 -140 44t-126 44zM995 1092h385l-596 -775l-57 -317h-367l56 311l-324 781h397l123 -334l45 -148l97 148z" />
    <glyph glyph-name="Z.c2sc" horiz-adv-x="1083" 
d="M922 0h-936l98 547l821 270l-164 -4h-604l49 279h924l-96 -549l-819 -269l151 5h625z" />
    </font>
</defs>
</svg>
