<?xml version="1.0" standalone="no"?>
<!DOCTYPE svg PUBLIC "-//W3C//DTD SVG 1.1//EN" "http://www.w3.org/Graphics/SVG/1.1/DTD/svg11.dtd" >
<svg xmlns="http://www.w3.org/2000/svg" xmlns:xlink="http://www.w3.org/1999/xlink" version="1.1">
<metadata>
Created by FontForge 20170731 at Fri Apr 12 15:38:41 2019
 By Aleksey,,,
Copyright (c) 2018 by Alexis Navarro Miranda. All rights reserved. Desktop use is strictly prohibited.
</metadata>
<defs>
<font id="MenaGrotesk-Black" horiz-adv-x="1361" >
  <font-face 
    font-family="Mena Grotesk Black"
    font-weight="900"
    font-stretch="normal"
    units-per-em="2048"
    panose-1="0 0 10 0 0 0 0 0 0 0"
    ascent="1597"
    descent="-451"
    x-height="1065"
    cap-height="1454"
    bbox="-961 -645 2603 2140"
    underline-thickness="0"
    underline-position="0"
    unicode-range="U+0020-FB02"
  />
<missing-glyph horiz-adv-x="1523" 
d="M1266 682h186v-61h-125q-12 -143 -77.5 -251t-174.5 -163v-207h-57v207q-60 -58 -168 -119l-37 170h-102l-37 -170q-114 64 -168 121v-209h-55v209q-227 113 -254 412h-125v61h186q0 -296 193 -414v125q-80 95 -80 260q0 179 88 279v522h608v-524q86 -98 86 -277
q0 -162 -78 -258v-127q191 119 191 414zM539 1407l223 -193l223 193h-446zM793 1188l225 -197v393zM508 995l223 193l-223 192v-385zM920 1024l-158 137l-158 -137q71 22 158.5 22t157.5 -22zM510 411q86 -83 252 -83t252 83t86 242q0 166 -86 252t-252 86t-252 -86
t-86 -252q0 -159 86 -242zM600 922l86 30v-34l-86 -31v35zM922 887l-88 31v34l88 -30v-35zM729 819q0 -23 -15.5 -37t-37.5 -14q-25 0 -41.5 14.5t-16.5 36.5q0 26 16.5 42t41.5 16q24 0 38.5 -15.5t14.5 -42.5zM848 877q25 0 41 -15.5t16 -42.5q0 -23 -16.5 -37t-40.5 -14
q-23 0 -38 14.5t-15 36.5q0 27 14.5 42.5t38.5 15.5zM854 696l-176 -20v39l176 20v-39zM643 160l29 119q-100 16 -166 63v-74q56 -64 137 -108zM1018 266v76q-66 -47 -166 -63l29 -119q80 41 137 106zM764 207q29 0 29 -31q0 -29 -29 -29q-33 0 -33 29q0 31 33 31zM764 94
q29 0 29 -28q0 -31 -29 -31q-33 0 -33 31q0 28 33 28z" />
    <glyph glyph-name="uniFB01" unicode="fi" horiz-adv-x="1394" 
d="M608 1065h705v-1065h-410v758h-295v-758h-409v758h-195v307h195v143q0 170 122 275q122 104 322 104q110 0 176 -26v-291h-104q-105 0 -107 -107v-98zM893 1217v329h430v-329h-430z" />
    <glyph glyph-name="uniFB02" unicode="fl" horiz-adv-x="1527" 
d="M199 1065v143q0 170 122 275q122 104 322 104q131 0 217 -26v-291h-145q-105 0 -107 -107v-98h250v-307h-250v-758h-409v758h-195v307h195zM1454 297h43v-297q-92 -20 -197 -20q-164 0 -263 101t-99 267v1219h410v-1164q0 -106 106 -106z" />
    <glyph glyph-name="f_f.liga" unicode="ff" horiz-adv-x="1638" 
d="M1647 1270h-228q-106 0 -106 -107v-98h332v-307h-332v-758h-410v758h-295v-758h-409v758h-195v307h195v102q0 170 122 275q122 104 322 104q107 0 176 -20v-297h-104q-105 0 -107 -107v-57h295v143q0 170 122 275q122 104 323 104q148 0 299 -20v-297z" />
    <glyph glyph-name="f_f_i.liga" unicode="ffi" horiz-adv-x="2099" 
d="M1313 1065h704v-1065h-409v758h-295v-758h-410v758h-295v-758h-409v758h-195v307h195v102q0 170 122 275q122 104 322 104q107 0 176 -20v-297h-104q-105 0 -107 -107v-57h295v143q0 170 122 275q122 104 323 104q110 0 176 -26v-291h-105q-106 0 -106 -107v-98z
M1597 1217v329h431v-329h-431z" />
    <glyph glyph-name="f_f_l.liga" unicode="ffl" horiz-adv-x="2232" 
d="M903 1065v143q0 170 122 275q122 104 323 104q128 0 217 -24v-293h-146q-106 0 -106 -107v-98h250v-307h-250v-758h-410v758h-295v-758h-409v758h-195v307h195v102q0 170 122 275q122 104 322 104q107 0 176 -20v-297h-104q-105 0 -107 -107v-57h295zM2159 297h43v-297
q-92 -20 -197 -20q-164 0 -263 101q-100 100 -100 267v1219h410v-1164q1 -106 107 -106z" />
    <glyph glyph-name=".notdef" horiz-adv-x="1523" 
d="M1266 682h186v-61h-125q-12 -143 -77.5 -251t-174.5 -163v-207h-57v207q-60 -58 -168 -119l-37 170h-102l-37 -170q-114 64 -168 121v-209h-55v209q-227 113 -254 412h-125v61h186q0 -296 193 -414v125q-80 95 -80 260q0 179 88 279v522h608v-524q86 -98 86 -277
q0 -162 -78 -258v-127q191 119 191 414zM539 1407l223 -193l223 193h-446zM793 1188l225 -197v393zM508 995l223 193l-223 192v-385zM920 1024l-158 137l-158 -137q71 22 158.5 22t157.5 -22zM510 411q86 -83 252 -83t252 83t86 242q0 166 -86 252t-252 86t-252 -86
t-86 -252q0 -159 86 -242zM600 922l86 30v-34l-86 -31v35zM922 887l-88 31v34l88 -30v-35zM729 819q0 -23 -15.5 -37t-37.5 -14q-25 0 -41.5 14.5t-16.5 36.5q0 26 16.5 42t41.5 16q24 0 38.5 -15.5t14.5 -42.5zM848 877q25 0 41 -15.5t16 -42.5q0 -23 -16.5 -37t-40.5 -14
q-23 0 -38 14.5t-15 36.5q0 27 14.5 42.5t38.5 15.5zM854 696l-176 -20v39l176 20v-39zM643 160l29 119q-100 16 -166 63v-74q56 -64 137 -108zM1018 266v76q-66 -47 -166 -63l29 -119q80 41 137 106zM764 207q29 0 29 -31q0 -29 -29 -29q-33 0 -33 29q0 31 33 31zM764 94
q29 0 29 -28q0 -31 -29 -31q-33 0 -33 31q0 28 33 28z" />
    <glyph glyph-name="glyph1" horiz-adv-x="0" 
 />
    <glyph glyph-name="glyph2" horiz-adv-x="681" 
 />
    <glyph glyph-name="space" unicode=" " horiz-adv-x="409" 
 />
    <glyph glyph-name="exclam" unicode="!" horiz-adv-x="634" 
d="M106 1454h420v-391l-59 -510h-301l-60 510v391zM102 0v410h430v-410h-430z" />
    <glyph glyph-name="quotedbl" unicode="&#x22;" horiz-adv-x="942" 
d="M113 905l-41 549h348l-41 -549h-266zM563 905l-41 549h348l-41 -549h-266z" />
    <glyph glyph-name="numbersign" unicode="#" horiz-adv-x="1622" 
d="M1591 1147v-236h-305l-98 -368h258v-236h-322l-82 -307h-266l82 307h-299l-82 -307h-266l82 307h-262v236h325l99 368h-279v236h342l82 307h266l-82 -307h299l82 307h267l-82 -307h241zM623 543h299l98 368h-299z" />
    <glyph glyph-name="dollar" unicode="$" horiz-adv-x="1447" 
d="M1407 446q0 -176 -131 -298q-130 -123 -356 -162v-170h-353v164q-241 34 -384 164q-142 127 -142 321h430q0 -84 60.5 -121t193.5 -37q231 0 231 86q0 32 -13 49q-13 16 -78 39q-69 22 -197 41q-320 51 -456 162q-138 111 -138 311q0 187 132 314q131 126 361 164v145
h353v-150q210 -40 333 -169q121 -127 121 -310h-430q0 84 -50 121t-163 37q-207 0 -207 -90q0 -46 59 -75q56 -27 232 -56q328 -51 460 -165t132 -315z" />
    <glyph glyph-name="percent" unicode="%" horiz-adv-x="1581" 
d="M709 846q-109 -103 -285 -103q-177 0 -284 103q-109 102 -109 268t109 269q108 102 284 102t285 -102q108 -103 108 -269t-108 -268zM1128 1454h420l-344 -678h-379zM332 1016q34 -37 92 -37t92 37q35 38 35 99q0 60 -35 98q-35 36 -92 36q-58 0 -92 -36q-35 -38 -35 -98
q0 -61 35 -99zM1442 72q-109 -103 -285 -103q-177 0 -284 103q-109 102 -109 268t109 269q108 102 284 102q175 0 285 -102q108 -104 108 -269q0 -166 -108 -268zM393 678h379l-303 -678h-420zM1065 242q34 -37 92 -37t92 37q35 38 35 98t-35 98q-34 37 -92 37t-92 -37
q-35 -38 -35 -98t35 -98z" />
    <glyph glyph-name="ampersand" unicode="&#x26;" horiz-adv-x="1517" 
d="M1352 274l299 -274h-504l-64 57q-180 -88 -383 -88q-300 0 -485 117q-184 117 -184 309q0 236 303 344q-93 89 -131 162q-39 73 -39 174q0 185 154 297q154 113 405 113q256 0 413 -112q156 -113 156 -298q0 -252 -407 -375l217 -198q20 78 20 192h379q0 -230 -149 -420z
M731 1178q-72 0 -104.5 -29t-32.5 -92q0 -71 113 -189q176 66 176 189q0 63 -36 92t-116 29zM700 276q81 0 134 9l-310 278q-63 -45 -63 -119q0 -88 57 -128t182 -40z" />
    <glyph glyph-name="quotesingle" unicode="'" horiz-adv-x="491" 
d="M113 905l-41 549h348l-41 -549h-266z" />
    <glyph glyph-name="parenleft" unicode="(" horiz-adv-x="724" 
d="M303 1567h371q-172 -480 -172 -983q0 -500 172 -983h-371q-231 492 -231 983q0 496 231 983z" />
    <glyph glyph-name="parenright" unicode=")" horiz-adv-x="724" 
d="M381 -399h-371q172 482 172 983q0 500 -172 983h371q231 -492 231 -983q0 -496 -231 -983z" />
    <glyph glyph-name="asterisk" unicode="*" horiz-adv-x="667" 
d="M434 1485l-100 -287l-101 287h201zM172 1456l162 -258l-287 100zM621 1298l-287 -100l162 258zM31 1233l303 -35l-258 -160zM592 1038l-258 160l303 35zM119 983l215 215l-35 -301zM369 897l-35 301l215 -215z" />
    <glyph glyph-name="plus" unicode="+" horiz-adv-x="1042" 
d="M655 684h316v-266h-316v-316l-266 -2v318h-317v266h317v315h266v-315z" />
    <glyph glyph-name="comma" unicode="," horiz-adv-x="614" 
d="M92 66v344h430v-410q0 -175 -126 -281q-125 -106 -330 -106v174q129 0 188 46t59 147z" />
    <glyph glyph-name="hyphen" unicode="-" horiz-adv-x="708" 
d="M61 676h607v-307h-607v307z" />
    <glyph glyph-name="period" unicode="." horiz-adv-x="614" 
d="M92 0v410h430v-410h-430z" />
    <glyph glyph-name="slash" unicode="/" horiz-adv-x="614" 
d="M-20 -399l348 1966h276l-348 -1966h-276z" />
    <glyph glyph-name="zero" unicode="0" horiz-adv-x="1523" 
d="M1270 178q-194 -209 -508 -209q-316 0 -508 209q-193 208 -193 549t193 549q192 209 508 209q314 0 508 -209q192 -208 192 -549t-192 -549zM572 438q58 -90 190 -90q131 0 191 90q59 91 59 289t-59 289q-60 90 -191 90q-132 0 -190 -90q-60 -90 -60 -289t60 -289z" />
    <glyph glyph-name="one" unicode="1" horiz-adv-x="1110" 
d="M303 1454h694v-1454h-440v754l12 465l-227 -226l-291 -262v498z" />
    <glyph glyph-name="two" unicode="2" horiz-adv-x="1273" 
d="M535 449l-277 -78l293 8h672v-379h-1151v625l594 184q67 18 94.5 61t27.5 121t-32.5 115t-104.5 37q-74 0 -108.5 -51.5t-34.5 -163.5h-430q0 250 162 404q161 153 428 153q260 0 411 -135q150 -136 150 -357q0 -156 -90 -270.5t-254 -165.5z" />
    <glyph glyph-name="three" unicode="3" horiz-adv-x="1314" 
d="M819 805q228 -24 346.5 -127.5t118.5 -267.5q0 -198 -171 -320q-170 -121 -451 -121q-273 0 -442 149q-169 148 -169 392h430q0 -104 42.5 -151.5t133.5 -47.5q93 0 135 35t42 113q0 53 -39 84.5t-113 31.5h-178v287h178q50 0 76 42t26 112q0 66 -32.5 96.5t-104.5 30.5
t-104.5 -47t-32.5 -150h-430q0 243 161 392q161 147 425 147q256 0 413 -106q156 -107 156 -281q0 -125 -107 -202t-309 -91z" />
    <glyph glyph-name="four" unicode="4" horiz-adv-x="1339" 
d="M1110 571h199v-338h-199v-233h-440v233h-609v723l312 498h737v-883zM188 565l263 6h219v375l10 397z" />
    <glyph glyph-name="five" unicode="5" horiz-adv-x="1314" 
d="M856 944q182 0 295 -125t113 -330q0 -234 -169 -376q-169 -144 -443 -144q-275 0 -443 147q-168 146 -168 384h430q0 -98 42 -143.5t134 -45.5q93 0 134 40q42 41 42 128t-42 128q-41 40 -134 40q-100 0 -172 -72h-381l51 879h1035v-379h-445l-231 4l-23 -401
q52 127 148 196.5t227 69.5z" />
    <glyph glyph-name="six" unicode="6" horiz-adv-x="1458" 
d="M920 920q212 0 339 -117t127 -307q0 -238 -167 -382q-167 -145 -449 -145q-346 0 -527.5 191.5t-181.5 556.5q0 345 195 557q195 211 514 211q264 0 424 -132t160 -352h-410q0 75 -42.5 108.5t-139.5 33.5q-131 0 -191.5 -101.5t-60.5 -324.5v-82q38 132 147 208
q110 77 263 77zM737 311q106 0 152.5 36t46.5 118q0 81 -46 116t-153 35q-209 0 -209 -151q0 -80 50 -117t159 -37z" />
    <glyph glyph-name="seven" unicode="7" horiz-adv-x="1179" 
d="M31 1075v379h1097v-676q-198 -53 -331 -267q-135 -214 -135 -511h-461q0 356 206 654q101 147 267 261q168 114 379 170l-404 -10h-618z" />
    <glyph glyph-name="eight" unicode="8" horiz-adv-x="1486" 
d="M1028 743q387 -78 387 -372q0 -180 -184 -291q-185 -111 -487 -111q-304 0 -488 111q-184 109 -184 291q0 295 387 372q-342 72 -342 332q0 185 172 297q173 113 455 113t454 -112t172 -298q0 -260 -342 -332zM886 1125q-44 38 -142 38q-99 0 -143 -38t-44 -121
q0 -84 44 -122t143 -38q98 0 142 38t44 122q0 83 -44 121zM568 330q56 -39 176 -39q121 0 176 39t55 125t-55 125q-56 38 -176 38t-176 -38q-56 -39 -56 -125t56 -125z" />
    <glyph glyph-name="nine" unicode="9" horiz-adv-x="1458" 
d="M688 1485q346 0 527.5 -191.5t181.5 -556.5q0 -345 -194 -557q-195 -211 -515 -211q-263 0 -424 132q-160 132 -160 352h410q0 -75 42.5 -108.5t139.5 -33.5q131 0 191.5 101.5t60.5 324.5v82q-38 -131 -146 -207q-110 -77 -263 -77q-211 0 -339 117q-128 116 -128 306
q0 238 168 383q166 144 448 144zM721 838q209 0 209 151q0 80 -50.5 117t-158.5 37q-106 0 -152.5 -36t-46.5 -118q0 -80 46.5 -115.5t152.5 -35.5z" />
    <glyph glyph-name="colon" unicode=":" horiz-adv-x="614" 
d="M92 645v410h430v-410h-430zM92 0v410h430v-410h-430z" />
    <glyph glyph-name="semicolon" unicode=";" horiz-adv-x="614" 
d="M92 645v410h430v-410h-430zM92 66v344h430v-410q0 -175 -126 -281q-125 -106 -330 -106v174q129 0 188 46t59 147z" />
    <glyph glyph-name="less" unicode="&#x3c;" horiz-adv-x="917" 
d="M72 782l774 254v-284l-729 -201l729 -201v-284l-774 253v463z" />
    <glyph glyph-name="equal" unicode="=" horiz-adv-x="1042" 
d="M72 930h899v-266h-899v266zM72 438h899v-266h-899v266z" />
    <glyph glyph-name="greater" unicode="&#x3e;" horiz-adv-x="917" 
d="M72 752v284l774 -254v-463l-774 -253v284l729 201z" />
    <glyph glyph-name="question" unicode="?" horiz-adv-x="1150" 
d="M569 1485q243 0 392 -115q149 -116 149 -303q0 -292 -397 -401l-56 -15l-8 -139h-287l-10 274l205 64q102 33 138 63q36 29 36 88q0 87 -39 126.5t-123 39.5q-100 0 -145 -52t-45 -167h-369q0 242 154 390q153 147 405 147zM721 0h-430v410h430v-410z" />
    <glyph glyph-name="at" unicode="@" horiz-adv-x="2109" 
d="M342 1223q269 262 713 262q441 0 713 -245q270 -244 270 -646q0 -323 -119 -474q-118 -151 -317 -151q-343 0 -371 307q-41 -142 -135 -225q-94 -82 -222 -82q-188 0 -302 155q-115 154 -115 409q0 254 115 408q114 155 302 155q128 0 223 -75.5t136 -209.5v213h393v-633
q0 -77 19 -100q17 -25 67 -23q59 2 89 69q30 66 30 236q0 352 -199 538q-200 185 -577 185q-375 0 -572.5 -195.5t-197.5 -567.5q0 -373 197.5 -568.5t572.5 -195.5q292 0 489 143v-225q-211 -105 -489 -107q-443 0 -712 262q-271 262 -271 691q0 427 270 690zM917 341
q39 -60 130 -60q89 0 130 60q40 59 40 192q0 132 -40 191q-41 60 -130 60q-91 0 -130 -60q-40 -59 -40 -191q0 -133 40 -192z" />
    <glyph glyph-name="A" unicode="A" horiz-adv-x="1660" 
d="M1651 0h-461l-88 301h-553l-88 -301h-451l430 1454h781zM745 983l-102 -350h365l-103 350l-80 328z" />
    <glyph glyph-name="B" unicode="B" horiz-adv-x="1495" 
d="M1100 813q178 -41 271 -146t93 -259q0 -183 -121 -295q-122 -113 -321 -113h-909v1454h856q200 0 322 -91q122 -92 122 -239q0 -129 -80 -208.5t-233 -102.5zM799 1116h-246v-246h246q86 0 125 29t39 94q0 63 -39 93t-125 30zM553 338h278q86 0 124 30.5t38 98.5
t-37.5 97.5t-124.5 29.5h-278v-256z" />
    <glyph glyph-name="C" unicode="C" horiz-adv-x="1544" 
d="M265 178q-204 208 -204 549t204 549q204 209 538 209q308 0 495 -166t187 -436h-430q0 117 -60.5 170t-191.5 53q-152 0 -221.5 -90t-69.5 -289q0 -201 69.5 -292t221.5 -91q133 0 193.5 47t60.5 154h430q0 -260 -188 -418q-190 -158 -496 -158q-334 0 -538 209z" />
    <glyph glyph-name="D" unicode="D" horiz-adv-x="1595" 
d="M113 1454h669q339 0 545 -199q207 -199 207 -528q0 -327 -207 -527q-208 -200 -545 -200h-669v1454zM553 358h215q315 0 315 369q0 358 -315 358h-215v-727z" />
    <glyph glyph-name="E" unicode="E" horiz-adv-x="1347" 
d="M553 567v-198h692v-369h-1132v1454h1130v-369h-690v-190h659v-328h-659z" />
    <glyph glyph-name="F" unicode="F" horiz-adv-x="1284" 
d="M1223 1454v-369h-670v-202h649v-328h-649v-555h-440v1454h1110z" />
    <glyph glyph-name="G" unicode="G" horiz-adv-x="1636" 
d="M762 526v287h772v-813h-389v375q-37 -198 -153 -302t-308 -104q-284 0 -453 199q-170 200 -170 539q0 354 209 566t553 212q316 0 509 -160q194 -161 194 -422h-430q0 106 -64.5 154.5t-208.5 48.5q-164 0 -237.5 -90t-73.5 -289q0 -205 73.5 -297t237.5 -92
q139 0 204 44t71 144h-336z" />
    <glyph glyph-name="H" unicode="H" horiz-adv-x="1648" 
d="M1096 915v539h440v-1454h-440v547h-543v-547h-440v1454h440v-539h543z" />
    <glyph glyph-name="I" unicode="I" horiz-adv-x="665" 
d="M113 0v1454h440v-1454h-440z" />
    <glyph glyph-name="J" unicode="J" horiz-adv-x="1351" 
d="M31 569h430q0 -117 41 -169t133 -52t133 58.5t41 187.5v860h440v-926q0 -252 -169 -405q-169 -154 -445 -154q-271 0 -438 165q-166 165 -166 435z" />
    <glyph glyph-name="K" unicode="K" horiz-adv-x="1622" 
d="M1569 1454l-549 -713l612 -741h-557l-375 477l-145 205v-682h-442v1454h442v-678l143 209l361 469h510z" />
    <glyph glyph-name="L" unicode="L" horiz-adv-x="1245" 
d="M553 1454v-1085h651v-369h-1091v1454h440z" />
    <glyph glyph-name="M" unicode="M" horiz-adv-x="2127" 
d="M1268 1454h747v-1454h-446v860l12 410l-229 -1270h-570l-235 1274l12 -414v-860h-446v1454h764l147 -801l51 -381l49 381z" />
    <glyph glyph-name="N" unicode="N" horiz-adv-x="1736" 
d="M1190 799v655h434v-1454h-770l-322 1272l15 -617v-655h-434v1454h774l317 -1251z" />
    <glyph glyph-name="O" unicode="O" horiz-adv-x="1646" 
d="M1375 178q-211 -209 -552 -209t-552 209q-210 208 -210 549t210 549q211 209 552 209t552 -209q210 -208 210 -549t-210 -549zM586 435q73 -91 237 -91q165 0 238 91q74 92 74 292q0 199 -74 289t-238 90t-237.5 -90t-73.5 -289q0 -200 74 -292z" />
    <glyph glyph-name="P" unicode="P" horiz-adv-x="1411" 
d="M113 1454h796q213 0 342 -139t129 -368t-129 -369t-342 -140h-356v-438h-440v1454zM553 776h215q84 0 123 41t39 129t-39 129t-123 41h-215v-340z" />
    <glyph glyph-name="Q" unicode="Q" horiz-adv-x="1605" 
d="M1409 279l172 -154l-254 -254l-160 188q-168 -90 -364 -90q-334 0 -538 209q-204 208 -204 549t204 549q204 209 538 209t538 -209q203 -209 203 -549q0 -251 -135 -448zM582 1016q-70 -89 -70 -289t70 -289q69 -90 221 -90q36 0 76 4l-213 183l254 253l167 -188
q5 50 7 127q0 198 -69.5 288.5t-221.5 90.5t-221 -90z" />
    <glyph glyph-name="R" unicode="R" horiz-adv-x="1531" 
d="M1542 0h-493l-277 510h-219v-510h-440v1454h827q213 0 342 -126t129 -331q0 -289 -211 -419l127 -187zM799 1116h-246v-299h246q84 0 123 37t39 119q0 75 -39 109t-123 34z" />
    <glyph glyph-name="S" unicode="S" horiz-adv-x="1447" 
d="M1219 100q-190 -131 -496 -131t-494 137t-188 359h430q0 -84 60.5 -121t193.5 -37q231 0 231 86q0 32 -13 49q-13 16 -78 39q-69 22 -197 41q-320 51 -456 162q-138 111 -138 311q0 218 182 355q181 135 479 135q288 0 463 -136q176 -137 176 -360h-430q0 84 -50 121
t-163 37q-207 0 -207 -90q0 -46 59 -75q56 -27 232 -56q328 -51 460 -165t132 -315q0 -215 -188 -346z" />
    <glyph glyph-name="T" unicode="T" horiz-adv-x="1370" 
d="M20 1454h1330v-369h-445v-1085h-440v1085h-445v369z" />
    <glyph glyph-name="U" unicode="U" horiz-adv-x="1556" 
d="M102 528v926h441v-876q0 -121 55 -175.5t180 -54.5t180.5 54.5t55.5 175.5v876h440v-926q0 -252 -185 -405q-185 -154 -491 -154t-490 154q-186 153 -186 405z" />
    <glyph glyph-name="V" unicode="V" horiz-adv-x="1566" 
d="M858 471l268 983h451l-410 -1454h-768l-409 1454h461l266 -983l71 -291z" />
    <glyph glyph-name="W" unicode="W" horiz-adv-x="2504" 
d="M1817 471l161 983h506l-297 -1454h-745l-146 862l-43 326l-45 -326l-145 -862h-746l-297 1454h506l162 -983l37 -268l31 268l155 983h682l156 -983l31 -268z" />
    <glyph glyph-name="X" unicode="X" horiz-adv-x="1652" 
d="M1626 1454l-414 -676l465 -778h-501l-218 369l-135 260l-135 -260l-215 -369h-493l454 762l-424 692h504l174 -297l137 -262l136 262l174 297h491z" />
    <glyph glyph-name="Y" unicode="Y" horiz-adv-x="1499" 
d="M1063 1454h461l-555 -1098v-356h-441v356l-553 1098h482l205 -436l100 -262l100 262z" />
    <glyph glyph-name="Z" unicode="Z" horiz-adv-x="1400" 
d="M186 360l318 9h815v-369h-1237v674l1102 418l-305 -7h-787v369h1223v-663z" />
    <glyph glyph-name="bracketleft" unicode="[" horiz-adv-x="817" 
d="M807 1567v-328l-295 4v-1319l295 4v-327h-705v1966h705z" />
    <glyph glyph-name="backslash" unicode="\" horiz-adv-x="614" 
d="M10 1567h277l348 -1966h-277z" />
    <glyph glyph-name="bracketright" unicode="]" horiz-adv-x="817" 
d="M10 1567h705v-1966h-705v327l295 -4v1319l-295 -4v328z" />
    <glyph glyph-name="asciicircum" unicode="^" horiz-adv-x="952" 
d="M711 1454l211 -528h-295l-150 465l-149 -465h-297l215 528h465z" />
    <glyph glyph-name="underscore" unicode="_" horiz-adv-x="1185" 
d="M61 -31h1063v-286h-1063v286z" />
    <glyph glyph-name="grave" unicode="`" horiz-adv-x="612" 
d="M92 1567h357l71 -369h-280z" />
    <glyph glyph-name="a" unicode="a" horiz-adv-x="1196" 
d="M1178 287h2v-287q-78 -20 -174 -20q-288 0 -310 204q-45 -97 -138 -155q-93 -60 -218 -60q-138 0 -224 72q-85 72 -85 190q0 115 81 189t232 98q294 50 338 70v51q0 78 -24.5 111.5t-82.5 33.5q-59 0 -84.5 -40.5t-25.5 -133.5h-387q0 220 141 354q141 132 371 132
q218 0 349 -121q132 -122 132 -320v-243q0 -82 18 -103q16 -22 89 -22zM535 233q68 0 107.5 42t39.5 124v31q-46 -16 -131 -37q-74 -17 -98 -35q-23 -18 -23 -57q2 -68 105 -68z" />
    <glyph glyph-name="b" unicode="b" horiz-adv-x="1312" 
d="M844 1096q187 0 303 -155q115 -154 115 -408q0 -255 -115 -409q-116 -155 -303 -155q-128 0 -223 75.5t-136 209.5v-254h-393v1567h410v-736q48 126 137 195.5t205 69.5zM542 341q41 -60 130 -60q90 0 130 60q40 59 40 192q0 132 -40 191q-40 60 -130 60t-130 -60
q-40 -59 -40 -191q0 -133 40 -192z" />
    <glyph glyph-name="c" unicode="c" horiz-adv-x="1222" 
d="M788 436h390q0 -211 -146 -339q-148 -128 -387 -128q-267 0 -431 155q-163 154 -163 409q0 254 163 408q164 155 431 155q240 0 387 -135q146 -137 146 -355h-390q0 94 -33.5 136t-109.5 42q-92 0 -133 -59t-41 -192q0 -134 41 -193t133 -59q76 0 109.5 36.5t33.5 118.5z
" />
    <glyph glyph-name="d" unicode="d" horiz-adv-x="1304" 
d="M811 856v711h410v-1567h-394v285q-40 -146 -136 -231q-94 -85 -222 -85q-187 0 -303 155q-115 154 -115 409q0 254 115 408q116 155 303 155q116 0 204.5 -63t137.5 -177zM511 341q41 -60 130 -60t130 60q40 59 40 192q0 132 -40 191q-41 60 -130 60t-130 -60
q-40 -59 -40 -191q0 -133 40 -192z" />
    <glyph glyph-name="e" unicode="e" horiz-adv-x="1249" 
d="M1198 586v-148h-721q12 -88 54 -128t120 -40q152 0 152 99h389q0 -181 -153 -290q-155 -110 -404 -110q-262 0 -423 155t-161 409q0 253 161 408t423 155q254 0 409 -140q154 -141 154 -370zM477 635l187 4h131q-8 81 -46.5 118.5t-113.5 37.5q-133 0 -158 -160z" />
    <glyph glyph-name="f" unicode="f" horiz-adv-x="933" 
d="M942 1270h-227q-105 0 -107 -107v-98h332v-307h-332v-758h-409v758h-195v307h195v143q0 170 122 275q122 104 322 104q148 0 299 -20v-297z" />
    <glyph glyph-name="g" unicode="g" horiz-adv-x="1220" 
d="M1247 1300v-296q-181 0 -219 -39q111 -97 111 -250q0 -169 -147 -276q-149 -107 -402 -107q-122 0 -219 24v-14q0 -74 131 -74h362q171 0 274 -82t103 -217q0 -176 -167 -283q-166 -106 -458 -106q-283 0 -445 69q-163 70 -163 187q0 60 43 104t115 58q-104 77 -105 178
q0 154 168 236q-188 107 -188 303q0 174 147 278q145 103 402 103q152 0 272 -39q17 126 105 184q89 59 280 59zM590 598q75 0 107 27t32 90q0 60 -32.5 87t-106.5 27q-79 0 -110 -26t-31 -88q0 -64 30.5 -90.5t110.5 -26.5zM766 -55h-401q-1 -7 -3 -29q0 -67 52 -89
q50 -22 202 -22q149 0 197 16q49 16 49 66q0 33 -21 45.5t-75 12.5z" />
    <glyph glyph-name="h" unicode="h" horiz-adv-x="1300" 
d="M877 1096q166 0 253 -92.5t87 -268.5v-735h-410v584q0 90 -32 130t-101 40q-90 0 -131 -47.5t-41 -153.5v-553h-410v1567h410v-752q45 132 144 206.5t231 74.5z" />
    <glyph glyph-name="i" unicode="i" horiz-adv-x="583" 
d="M82 1217v329h430v-329h-430zM92 0v1065h410v-1065h-410z" />
    <glyph glyph-name="j" unicode="j" horiz-adv-x="604" 
d="M102 1217v329h430v-329h-430zM113 -2v1067h409v-1106q0 -170 -119 -275q-121 -104 -315 -104q-78 0 -156 21v297h84q97 0 97 100z" />
    <glyph glyph-name="k" unicode="k" horiz-adv-x="1343" 
d="M1303 1065l-379 -502l460 -563h-518l-272 354l-92 133v-487h-410v1567h410v-983l92 135l258 346h451z" />
    <glyph glyph-name="l" unicode="l" horiz-adv-x="681" 
d="M608 297h43v-297q-92 -20 -196 -20q-164 0 -263 101q-100 100 -100 267v1219h410v-1164q0 -106 106 -106z" />
    <glyph glyph-name="m" unicode="m" horiz-adv-x="2002" 
d="M1579 1096q166 0 253 -92.5t87 -268.5v-735h-410v584q0 88 -30.5 129t-98.5 41q-90 0 -130 -47.5t-40 -153.5v-553h-409v584q0 88 -31 129t-98 41q-90 0 -130 -47.5t-40 -153.5v-553h-410v1065h393v-283q40 144 143 230q100 84 242 84q298 0 336 -287q44 134 142 210
q98 77 231 77z" />
    <glyph glyph-name="n" unicode="n" horiz-adv-x="1300" 
d="M877 1096q166 0 253 -92.5t87 -268.5v-735h-410v584q0 90 -32 130t-101 40q-90 0 -131 -47.5t-41 -153.5v-553h-410v1065h393v-283q40 144 144 230q104 84 248 84z" />
    <glyph glyph-name="o" unicode="o" horiz-adv-x="1282" 
d="M1069 124q-163 -155 -428 -155t-428 155q-162 154 -162 409q0 253 162 408q163 155 428 155t428 -155q162 -155 162 -408q0 -255 -162 -409zM511 341q41 -60 130 -60t130 60q40 59 40 192q0 132 -40 191q-41 60 -130 60t-130 -60q-40 -59 -40 -191q0 -133 40 -192z" />
    <glyph glyph-name="p" unicode="p" horiz-adv-x="1312" 
d="M844 1096q187 0 303 -155q115 -154 115 -408q0 -255 -115 -409q-116 -155 -303 -155q-116 0 -204.5 63t-137.5 177v-608h-410v1464h393v-285q40 146 137 232q94 84 222 84zM542 341q41 -60 130 -60q90 0 130 60q40 59 40 192q0 132 -40 191q-40 60 -130 60t-130 -60
q-40 -59 -40 -191q0 -133 40 -192z" />
    <glyph glyph-name="q" unicode="q" horiz-adv-x="1306" 
d="M827 811v254h394v-1464h-410v632q-47 -126 -136 -195t-206 -69q-187 0 -303 155q-115 154 -115 409q0 254 115 408q116 155 303 155q128 0 222 -75.5t136 -209.5zM511 341q41 -60 130 -60t130 60q40 59 40 192q0 132 -40 191q-41 60 -130 60t-130 -60q-40 -59 -40 -191
q0 -133 40 -192z" />
    <glyph glyph-name="r" unicode="r" horiz-adv-x="903" 
d="M784 1096q58 0 99 -15v-393h-236q-76 0 -110.5 -41t-34.5 -131v-516h-410v1065h393v-342q18 167 101 271q82 102 198 102z" />
    <glyph glyph-name="s" unicode="s" horiz-adv-x="1150" 
d="M565 -31q-244 0 -392 100q-148 99 -148 261h389q0 -96 153 -97q142 0 144 62q0 35 -39 53q-40 17 -170 29q-233 20 -344 103t-111 241q0 169 144 272q142 103 376 103q232 0 374 -103t142 -274h-389q0 113 -129 113q-129 -2 -129 -66q0 -39 44 -57q41 -18 171 -29
q248 -20 359 -102q110 -83 110 -234q0 -170 -152 -272q-152 -103 -403 -103z" />
    <glyph glyph-name="t" unicode="t" horiz-adv-x="983" 
d="M715 297h227v-297q-151 -20 -299 -20q-200 0 -322 104t-122 274v400h-195v307h197l8 309h399v-309h332v-307h-332v-355q1 -106 107 -106z" />
    <glyph glyph-name="u" unicode="u" horiz-adv-x="1300" 
d="M799 512v553h409v-1065h-393v256q-45 -134 -145 -210q-101 -77 -238 -77q-166 0 -253 92.5t-87 268.5v735h410v-584q0 -88 30.5 -129t98.5 -41q88 0 128 47.5t40 153.5z" />
    <glyph glyph-name="v" unicode="v" horiz-adv-x="1269" 
d="M700 465l140 600h420l-265 -1065h-721l-264 1065h428l137 -600l62 -320z" />
    <glyph glyph-name="w" unicode="w" horiz-adv-x="1896" 
d="M1403 465l90 600h393l-186 -1065h-633l-86 588l-23 229l-24 -229l-86 -588h-651l-187 1065h424l92 -600l29 -270l23 270l73 600h627l74 -600l22 -264z" />
    <glyph glyph-name="x" unicode="x" horiz-adv-x="1300" 
d="M1296 1065l-284 -526l309 -539h-453l-143 283l-68 174l-82 -174l-157 -283h-438l327 537l-305 528h453l149 -281l58 -143l55 143l141 281h438z" />
    <glyph glyph-name="y" unicode="y" horiz-adv-x="1269" 
d="M700 465l140 600h420l-287 -1159q-39 -154 -168 -240q-130 -86 -316 -86q-147 0 -299 21v297h228q155 0 174 88l4 14h-322l-264 1065h428l137 -600l62 -320z" />
    <glyph glyph-name="z" unicode="z" horiz-adv-x="1067" 
d="M289 301l305 10h401v-311h-913v545l711 219l-320 -10h-381v311h893v-549z" />
    <glyph glyph-name="braceleft" unicode="{" horiz-adv-x="829" 
d="M627 1165v-286q0 -152 -89 -223q-88 -72 -294 -72q201 0 292 -72t91 -223v-287q0 -85 19 -105q18 -20 89 -20h84v-272q-115 -25 -215 -25q-206 0 -286 69q-80 71 -80 251v360q0 91 -32 126q-31 34 -116 34h-90v328h90q85 0 116 34q32 34 32 125v361q0 179 80 250
q80 69 286 69q98 0 215 -24v-273h-84q-72 0 -90 -20q-18 -21 -18 -105z" />
    <glyph glyph-name="bar" unicode="|" horiz-adv-x="481" 
d="M113 -399v1966h256v-1966h-256z" />
    <glyph glyph-name="braceright" unicode="}" horiz-adv-x="829" 
d="M739 748h90v-328h-90q-84 0 -115 -34q-32 -35 -32 -126v-360q0 -179 -80 -250q-79 -70 -287 -70q-100 0 -215 25v272h84q71 0 91 20q18 21 18 105v287q0 152 91 223.5t292 71.5q-206 0 -294 72q-89 71 -89 223v286q0 84 -18 105q-20 20 -91 20h-84v273q117 26 215 24
q207 0 287 -69q80 -71 80 -250v-361q0 -91 32 -125q31 -34 115 -34z" />
    <glyph glyph-name="asciitilde" unicode="~" horiz-adv-x="1243" 
d="M309 336h-237q0 180 97 295q97 114 251 114q109 0 225 -62t178 -62q53 0 82 35t29 89h237q0 -193 -96 -301t-252 -108q-109 0 -223 63q-116 62 -180 62q-53 0 -82 -35.5t-29 -89.5z" />
    <glyph glyph-name="exclamdown" unicode="&#xa1;" horiz-adv-x="645" 
d="M543 1065v-410h-430v410h430zM539 -389h-420v391l59 510h301l60 -510v-391z" />
    <glyph glyph-name="cent" unicode="&#xa2;" horiz-adv-x="1228" 
d="M645 475q76 0 109.5 37t33.5 119h390q0 -175 -104 -297q-104 -120 -288 -158v-145h-311v151q-198 47 -310 192q-114 144 -114 353t114 354q115 145 310 191v131h311v-127q180 -38 286 -164q106 -127 106 -311h-390q0 94 -33.5 136t-109.5 42q-92 0 -133 -59.5t-41 -192.5
t41 -192.5t133 -59.5z" />
    <glyph glyph-name="sterling" unicode="&#xa3;" horiz-adv-x="1351" 
d="M354 365l125 4h821v-369h-1208v449q188 35 211 139h-203v235h95q-87 120 -89 234q0 192 167 311q167 117 440 117q263 0 423 -142t160 -374h-430q0 94 -36 136t-117 42q-82 0 -119 -35t-37 -111q0 -69 78 -178h387v-235h-322q-45 -172 -346 -223z" />
    <glyph glyph-name="currency" unicode="&#xa4;" horiz-adv-x="1409" 
d="M1337 1171l-159 -159q73 -128 73 -293t-73 -293l159 -160l-180 -180l-162 162q-125 -72 -290 -72q-167 0 -291 72l-162 -162l-180 180l159 160q-74 131 -73 293q0 165 73 293l-159 159l180 181l162 -162q124 72 291 72q165 0 290 -72l162 162zM539 548q63 -65 166 -65
q101 0 166 65q63 64 63 171t-63 171q-64 64 -166 64q-103 0 -166 -64q-64 -64 -64 -171t64 -171z" />
    <glyph glyph-name="yen" unicode="&#xa5;" horiz-adv-x="1499" 
d="M1063 1454h461l-365 -721h195v-235h-314l-41 -82h355v-236h-385v-180h-441v180h-383v236h353l-41 82h-312v235h193l-363 721h482l205 -436l100 -262l100 262z" />
    <glyph glyph-name="brokenbar" unicode="&#xa6;" horiz-adv-x="481" 
d="M369 791h-256v776h256v-776zM369 -399h-256v776h256v-776z" />
    <glyph glyph-name="section" unicode="&#xa7;" horiz-adv-x="1435" 
d="M793 934q325 -51 459 -168q132 -117 132 -320v-389q0 -215 -182 -346t-481 -131q-298 0 -479 136q-183 136 -183 360h430q0 -84 55.5 -121t178.5 -37q211 0 211 86q0 30 -13 44q-14 15 -79 35q-62 18 -197 40q-321 50 -456 164q-138 114 -138 319v389q0 219 183 355
q182 135 479 135q288 0 463 -136q176 -137 176 -360h-430q0 84 -50.5 121t-162.5 37q-207 0 -207 -90q0 -42 59 -68q62 -27 232 -55zM752 428q238 -38 387 -96v20q0 84 -28 127t-125 80q-95 37 -300 70q-230 38 -369 92v-12q0 -91 28 -135q28 -46 119 -79q89 -34 288 -67z
" />
    <glyph glyph-name="dieresis" unicode="&#xa8;" horiz-adv-x="956" 
d="M92 1217v329h348v-329h-348zM516 1217v329h348v-329h-348z" />
    <glyph glyph-name="copyright" unicode="&#xa9;" horiz-adv-x="1667" 
d="M1401 178q-215 -209 -567 -209q-353 0 -568 209t-215 549t215 549t568 209q352 0 567 -209t215 -549t-215 -549zM402 298q163 -163 432 -163t432 163q164 164 164 429t-164 429q-163 163 -432 163t-432 -163q-164 -164 -164 -429t164 -429zM956 657h299q0 -156 -109 -252
q-110 -96 -286 -96q-200 0 -322 116t-122 305q0 188 123 303q123 114 321 114q177 0 286 -100t109 -265h-299q0 123 -96 123q-63 0 -92 -42t-29 -134q0 -93 29 -135.5t92 -42.5q96 0 96 106z" />
    <glyph glyph-name="ordfeminine" unicode="&#xaa;" horiz-adv-x="882" 
d="M762 1036v-155q0 -53 12 -67q12 -15 57 -15v-185q-59 -14 -131 -14q-185 0 -198 133q-66 -139 -232 -139q-100 0 -159.5 46t-59.5 124q0 145 221 184q194 34 220 45v33q0 84 -70 84q-72 0 -72 -102h-270q0 143 97 228t255 85q150 0 240 -78t90 -207zM395 770
q44 0 70.5 26t26.5 76v21q-27 -10 -86 -25q-49 -12 -63.5 -22t-14.5 -33q-1 -22 16 -32.5t51 -10.5z" />
    <glyph glyph-name="guillemotleft" unicode="&#xab;" horiz-adv-x="1167" 
d="M197 918h448l-379 -390l379 -389h-448l-146 160v459zM709 918h448l-379 -390l379 -389h-448l-146 160v459z" />
    <glyph glyph-name="logicalnot" unicode="&#xac;" horiz-adv-x="1095" 
d="M72 684h952v-528l-266 -2v264h-686v266z" />
    <glyph glyph-name="registered" unicode="&#xae;" horiz-adv-x="1064" 
d="M183 1357q133 128 350 128q216 0 349 -128q132 -127 132 -339t-132 -339q-133 -128 -349 -128q-217 0 -350 128q-132 127 -132 339t132 339zM279 766q96 -96 254 -96q157 0 254 96q96 96 96 252t-96 252q-97 96 -254 96q-158 0 -254 -96q-97 -96 -97 -252t97 -252z
M698 985l39 -47l62 -111h-181l-67 125h-74v-125h-155v412h262q76 0 122 -38t46 -101q-1 -71 -54 -115zM547 1122h-70v-63h70q45 0 45 33q0 32 -45 30z" />
    <glyph glyph-name="overscore" unicode="&#xaf;" horiz-adv-x="770" 
d="M92 1536h586v-307h-586v307z" />
    <glyph glyph-name="degree" unicode="&#xb0;" horiz-adv-x="847" 
d="M709 846q-109 -103 -285 -103q-177 0 -284 103q-109 102 -109 268t109 269q108 102 284 102t285 -102q108 -103 108 -269t-108 -268zM332 1016q34 -37 92 -37t92 37q35 38 35 99q0 60 -35 98q-35 36 -92 36q-58 0 -92 -36q-35 -38 -35 -98q0 -61 35 -99z" />
    <glyph glyph-name="plusminus" unicode="&#xb1;" horiz-adv-x="1042" 
d="M655 1051v-213h316v-267h-316v-213l-266 -2v215h-317v267h317v213h266zM971 39h-899v266h899v-266z" />
    <glyph glyph-name="uni00B2" unicode="&#xb2;" horiz-adv-x="794" 
d="M330 1059l-135 -27l143 2h416v-235h-707v379l354 79q70 16 70 95q0 86 -76 86t-76 -125h-278q0 141 101 228q100 87 262 87q161 0 256 -75q94 -76 94 -201q0 -182 -230 -242z" />
    <glyph glyph-name="uni00B3" unicode="&#xb3;" horiz-adv-x="833" 
d="M518 1247q131 -14 197.5 -72t66.5 -153q0 -110 -105 -178q-107 -68 -280 -68q-165 0 -266 84q-100 84 -100 219h278q0 -86 88 -86q97 0 99 68q0 55 -88 55h-99v162h99q59 0 59 63q0 70 -66 70q-77 0 -75 -86h-279q0 138 97 220q97 83 257 83q158 0 257 -60
q98 -62 98 -157q0 -73 -61 -115.5t-177 -48.5z" />
    <glyph glyph-name="acute" unicode="&#xb4;" horiz-adv-x="612" 
d="M92 1198l72 369h356l-147 -369h-281z" />
    <glyph glyph-name="paragraph" unicode="&#xb6;" horiz-adv-x="1783" 
d="M502 1454h1251v-369h-184v-1484h-400v1484h-194v-1484h-400v919h-73q-212 0 -342 128q-129 128 -129 339t129 339q130 128 342 128z" />
    <glyph glyph-name="middot" unicode="&#xb7;" horiz-adv-x="573" 
d="M72 338v430h430v-430h-430z" />
    <glyph glyph-name="cedilla" unicode="&#xb8;" horiz-adv-x="632" 
d="M358 -100h11q78 0 125 -45t47 -121q0 -81 -53 -134q-54 -51 -140 -51h-256v152h166q43 0 43 33t-43 33h-147v124l47 109h239z" />
    <glyph glyph-name="uni00B9" unicode="&#xb9;" horiz-adv-x="681" 
d="M158 1593h473v-794h-287v413l6 267l-123 -138l-207 -186v315z" />
    <glyph glyph-name="ordmasculine" unicode="&#xba;" horiz-adv-x="864" 
d="M709 695q-106 -101 -277 -101q-172 0 -276 101q-105 101 -105 264t105 263q104 99 276 99t277 -99q104 -101 104 -263q0 -163 -104 -264zM332 958q0 -153 100 -153t100 153q0 152 -100 152t-100 -152z" />
    <glyph glyph-name="guillemotright" unicode="&#xbb;" horiz-adv-x="1167" 
d="M604 758v-459l-145 -160h-449l379 389l-379 390h449zM522 918h449l145 -160v-459l-145 -160h-449l379 389z" />
    <glyph glyph-name="onequarter" unicode="&#xbc;" horiz-adv-x="1581" 
d="M334 1122l6 232l-109 -119l-180 -162v275l121 106h412v-690h-250v358zM82 0l1122 1454h307l-1122 -1454h-307zM1436 291h94v-180h-94v-111h-250v111h-268v370l126 209h392v-399zM971 289l131 2h84v158l6 202z" />
    <glyph glyph-name="onehalf" unicode="&#xbd;" horiz-adv-x="1599" 
d="M334 1122l6 232l-109 -119l-180 -162v275l121 106h412v-690h-250v358zM82 0l1122 1454h307l-1122 -1454h-307zM1180 225l-117 -22l125 2h360v-205h-614v330l309 69q58 13 60 82q0 74 -66 74t-66 -109h-241q0 122 86 199q85 76 229 76q140 0 222 -65q81 -66 81 -175
q0 -159 -198 -211z" />
    <glyph glyph-name="threequarters" unicode="&#xbe;" horiz-adv-x="1648" 
d="M705 958q0 -96 -92 -155q-93 -60 -242 -60q-143 0 -231 73q-89 74 -89 192h242q0 -76 78 -76q84 0 84 59q0 49 -76 49h-86v140h86q51 0 51 55q0 61 -57 61q-66 0 -66 -75h-241q0 121 84 193q83 71 223 71q139 0 224 -52t85 -137q0 -61 -52.5 -99t-150.5 -44
q226 -25 226 -195zM141 0l1123 1454h307l-1122 -1454h-308zM1503 291h94v-180h-94v-111h-250v111h-268v370l127 209h391v-399zM1038 289l131 2h84v158l7 202z" />
    <glyph glyph-name="questiondown" unicode="&#xbf;" horiz-adv-x="1161" 
d="M440 1065h430v-410h-430v410zM782 117h369q0 -241 -153 -390q-154 -147 -406 -147q-243 0 -391 115q-150 115 -150 303q0 291 398 401l55 15l8 139h287l10 -274l-205 -64q-101 -33 -138 -62q-36 -30 -36 -90q0 -87 38.5 -126t123.5 -39q100 0 145 52t45 167z" />
    <glyph glyph-name="Agrave" unicode="&#xc0;" horiz-adv-x="1660" 
d="M911 1956l72 -369h-281l-147 369h356zM1651 0h-461l-88 301h-553l-88 -301h-451l430 1454h781zM745 983l-102 -350h365l-103 350l-80 328z" />
    <glyph glyph-name="Aacute" unicode="&#xc1;" horiz-adv-x="1660" 
d="M752 1956h356l-147 -369h-281zM1651 0h-461l-88 301h-553l-88 -301h-451l430 1454h781zM745 983l-102 -350h365l-103 350l-80 328z" />
    <glyph glyph-name="Acircumflex" unicode="&#xc2;" horiz-adv-x="1660" 
d="M954 1587l-118 311l-119 -311h-316l172 369h525l172 -369h-316zM1651 0h-461l-88 301h-553l-88 -301h-451l430 1454h781zM745 983l-102 -350h365l-103 350l-80 328z" />
    <glyph glyph-name="Atilde" unicode="&#xc3;" horiz-adv-x="1660" 
d="M709 1688q-82 0 -82 -80h-185q0 173 60 257.5t186 84.5q59 0 143 -42t130 -42q41 0 61.5 20t19.5 60h185q0 -176 -58 -259t-188 -83q-59 0 -143 42t-129 42zM1651 0h-461l-88 301h-553l-88 -301h-451l430 1454h781zM745 983l-102 -350h365l-103 350l-80 328z" />
    <glyph glyph-name="Adieresis" unicode="&#xc4;" horiz-adv-x="1660" 
d="M449 1935h348v-329h-348v329zM872 1935h349v-329h-349v329zM1651 0h-461l-88 301h-553l-88 -301h-451l430 1454h781zM745 983l-102 -350h365l-103 350l-80 328z" />
    <glyph glyph-name="Aring" unicode="&#xc5;" horiz-adv-x="1660" 
d="M998 1630q-62 -53 -162 -53t-162 53t-62 142q0 88 62 141t162 53t162 -53q61 -52 61 -141q0 -90 -61 -142zM901 1772q0 57 -65 57q-66 0 -66 -57q0 -58 66 -58q65 0 65 58zM1651 0h-461l-88 301h-553l-88 -301h-451l430 1454h781zM745 983l-102 -350h365l-103 350
l-80 328z" />
    <glyph glyph-name="AE" unicode="&#xc6;" horiz-adv-x="2215" 
d="M1483 567l59 -198h572v-369h-924l-88 301h-553l-88 -301h-451l430 1454h1671v-369h-782l57 -190h695v-328h-598zM745 983l-102 -350h365l-103 350l-80 328z" />
    <glyph glyph-name="Ccedilla" unicode="&#xc7;" horiz-adv-x="1544" 
d="M1057 545h430q0 -237 -156 -388q-158 -154 -422 -182l-28 -75h10q78 0 125 -45t47 -121q0 -81 -53 -134q-54 -51 -140 -51h-256v152h166q43 0 43 33t-43 33h-147v124l37 89q-279 40 -444 242q-165 200 -165 505q0 341 204 549q204 209 538 209q308 0 495 -166t187 -436
h-430q0 117 -60.5 170t-191.5 53q-152 0 -221.5 -90t-69.5 -289q0 -201 69.5 -292t221.5 -91q133 0 193.5 47t60.5 154z" />
    <glyph glyph-name="Egrave" unicode="&#xc8;" horiz-adv-x="1347" 
d="M760 1956l71 -369h-280l-148 369h357zM553 567v-198h692v-369h-1132v1454h1130v-369h-690v-190h659v-328h-659z" />
    <glyph glyph-name="Eacute" unicode="&#xc9;" horiz-adv-x="1347" 
d="M600 1956h356l-147 -369h-281zM553 567v-198h692v-369h-1132v1454h1130v-369h-690v-190h659v-328h-659z" />
    <glyph glyph-name="Ecircumflex" unicode="&#xca;" horiz-adv-x="1347" 
d="M803 1587l-119 311l-119 -311h-315l172 369h524l172 -369h-315zM553 567v-198h692v-369h-1132v1454h1130v-369h-690v-190h659v-328h-659z" />
    <glyph glyph-name="Edieresis" unicode="&#xcb;" horiz-adv-x="1347" 
d="M297 1935h348v-329h-348v329zM721 1935h348v-329h-348v329zM553 567v-198h692v-369h-1132v1454h1130v-369h-690v-190h659v-328h-659z" />
    <glyph glyph-name="Igrave" unicode="&#xcc;" horiz-adv-x="665" 
d="M53 1956h357l71 -369h-280zM113 0v1454h440v-1454h-440z" />
    <glyph glyph-name="Iacute" unicode="&#xcd;" horiz-adv-x="665" 
d="M178 1587l72 369h356l-147 -369h-281zM113 0v1454h440v-1454h-440z" />
    <glyph glyph-name="Icircumflex" unicode="&#xce;" horiz-adv-x="665" 
d="M453 1587l-119 311l-119 -311h-315l172 369h524l172 -369h-315zM553 0h-440v1454h440v-1454z" />
    <glyph glyph-name="Idieresis" unicode="&#xcf;" horiz-adv-x="665" 
d="M-53 1606v329h348v-329h-348zM371 1606v329h348v-329h-348zM113 0v1454h440v-1454h-440z" />
    <glyph glyph-name="Eth" unicode="&#xd0;" horiz-adv-x="1605" 
d="M123 1454h670q339 0 545 -199q206 -200 206 -528q0 -327 -207 -527q-208 -200 -544 -200h-670v590h-143v287h143v577zM563 358h215q314 0 316 369q0 358 -316 358h-215v-208h246v-287h-246v-232z" />
    <glyph glyph-name="Ntilde" unicode="&#xd1;" horiz-adv-x="1736" 
d="M762 1688q-82 0 -82 -80h-184q0 173 59.5 257.5t185.5 84.5q59 0 144 -42q84 -42 129 -42q82 0 82 80h184q0 -176 -58 -259t-188 -83q-59 0 -143 42t-129 42zM1190 799v655h434v-1454h-770l-322 1272l15 -617v-655h-434v1454h774l317 -1251z" />
    <glyph glyph-name="Ograve" unicode="&#xd2;" horiz-adv-x="1646" 
d="M543 1956h356l72 -369h-281zM1375 178q-211 -209 -552 -209t-552 209q-210 208 -210 549t210 549q211 209 552 209t552 -209q210 -208 210 -549t-210 -549zM586 435q73 -91 237 -91q165 0 238 91q74 92 74 292q0 199 -74 289t-238 90t-237.5 -90t-73.5 -289
q0 -200 74 -292z" />
    <glyph glyph-name="Oacute" unicode="&#xd3;" horiz-adv-x="1646" 
d="M668 1587l71 369h357l-148 -369h-280zM1375 178q-211 -209 -552 -209t-552 209q-210 208 -210 549t210 549q211 209 552 209t552 -209q210 -208 210 -549t-210 -549zM586 435q73 -91 237 -91q165 0 238 91q74 92 74 292q0 199 -74 289t-238 90t-237.5 -90t-73.5 -289
q0 -200 74 -292z" />
    <glyph glyph-name="Ocircumflex" unicode="&#xd4;" horiz-adv-x="1646" 
d="M942 1587l-119 311l-118 -311h-316l172 369h524l172 -369h-315zM271 1276q211 209 552 209t552 -209q210 -208 210 -549t-210 -549q-211 -209 -552 -209t-552 209q-210 208 -210 549t210 549zM586 435q73 -91 237 -91q165 0 238 91q74 92 74 292q0 199 -74 289t-238 90
t-237.5 -90t-73.5 -289q0 -200 74 -292z" />
    <glyph glyph-name="Otilde" unicode="&#xd5;" horiz-adv-x="1646" 
d="M969 1604q-59 0 -143 42q-86 42 -130 42q-82 0 -82 -80h-184q0 173 60 257.5t186 84.5q59 0 143 -42t129 -42q82 0 82 80h184q0 -176 -57.5 -259t-187.5 -83zM1375 178q-211 -209 -552 -209t-552 209q-210 208 -210 549t210 549q211 209 552 209t552 -209
q210 -208 210 -549t-210 -549zM586 435q73 -91 237 -91q165 0 238 91q74 92 74 292q0 199 -74 289t-238 90t-237.5 -90t-73.5 -289q0 -200 74 -292z" />
    <glyph glyph-name="Odieresis" unicode="&#xd6;" horiz-adv-x="1646" 
d="M436 1606v329h348v-329h-348zM860 1606v329h348v-329h-348zM1375 178q-211 -209 -552 -209t-552 209q-210 208 -210 549t210 549q211 209 552 209t552 -209q210 -208 210 -549t-210 -549zM586 435q73 -91 237 -91q165 0 238 91q74 92 74 292q0 199 -74 289t-238 90
t-237.5 -90t-73.5 -289q0 -200 74 -292z" />
    <glyph glyph-name="multiply" unicode="&#xd7;" horiz-adv-x="962" 
d="M727 969l174 -174l-244 -244l244 -246l-174 -174l-244 246l-245 -246l-177 172l248 248l-248 246l175 174l247 -246z" />
    <glyph glyph-name="Oslash" unicode="&#xd8;" horiz-adv-x="1646" 
d="M1532 1567l-164 -283q217 -211 217 -557q0 -341 -210 -549q-211 -209 -552 -209q-101 0 -207 23l-77 -135h-422l174 301q-229 211 -230 569q0 341 210 549q211 209 552 209q123 0 224 -27l63 109h422zM512 727q0 -101 16 -164l314 543h-19q-164 0 -237.5 -90t-73.5 -289z
M821 344h2q164 0 238 91t74 292q0 66 -11 137z" />
    <glyph glyph-name="Ugrave" unicode="&#xd9;" horiz-adv-x="1556" 
d="M498 1956h356l72 -369h-281zM102 528v926h441v-876q0 -121 55 -175.5t180 -54.5t180.5 54.5t55.5 175.5v876h440v-926q0 -252 -185 -405q-185 -154 -491 -154t-490 154q-186 153 -186 405z" />
    <glyph glyph-name="Uacute" unicode="&#xda;" horiz-adv-x="1556" 
d="M623 1587l71 369h357l-148 -369h-280zM102 528v926h441v-876q0 -121 55 -175.5t180 -54.5t180.5 54.5t55.5 175.5v876h440v-926q0 -252 -185 -405q-185 -154 -491 -154t-490 154q-186 153 -186 405z" />
    <glyph glyph-name="Ucircumflex" unicode="&#xdb;" horiz-adv-x="1556" 
d="M897 1587l-119 311l-119 -311h-315l172 369h524l172 -369h-315zM1014 578v876h440v-926q0 -252 -185 -405q-185 -154 -491 -154t-490 154q-186 153 -186 405v926h441v-876q0 -121 55 -175.5t180 -54.5t180.5 54.5t55.5 175.5z" />
    <glyph glyph-name="Udieresis" unicode="&#xdc;" horiz-adv-x="1556" 
d="M391 1606v329h348v-329h-348zM815 1606v329h348v-329h-348zM102 528v926h441v-876q0 -121 55 -175.5t180 -54.5t180.5 54.5t55.5 175.5v876h440v-926q0 -252 -185 -405q-185 -154 -491 -154t-490 154q-186 153 -186 405z" />
    <glyph glyph-name="Yacute" unicode="&#xdd;" horiz-adv-x="1499" 
d="M686 1956h356l-147 -369h-281zM1063 1454h461l-555 -1098v-356h-441v356l-553 1098h482l205 -436l100 -262l100 262z" />
    <glyph glyph-name="Thorn" unicode="&#xde;" horiz-adv-x="1400" 
d="M553 1241h356q213 0 342 -139q129 -140 129 -368q0 -230 -129 -369q-129 -140 -342 -140h-356v-225h-440v1454h440v-213zM553 563h215q84 0 123 41t39 129t-39 129t-123 41h-215v-340z" />
    <glyph glyph-name="germandbls" unicode="&#xdf;" horiz-adv-x="1503" 
d="M1116 678q188 -33 287.5 -122t99.5 -224q0 -164 -134 -263q-133 -100 -351 -100q-206 0 -334 98q-127 97 -127 257h369q0 -51 21.5 -74t70.5 -23q76 0 76 62q0 31 -29 48q-31 18 -117 34q-352 66 -352 317q0 116 54.5 200.5t172.5 153.5q72 40 101 67q26 26 26 56
q0 104 -190 105q-135 0 -196.5 -42t-61.5 -134v-1094h-410v1167q0 195 183 313q181 117 479 117q274 0 443 -112t169 -297q0 -103 -59 -180.5t-189 -153.5q-69 -39 -91 -59q-19 -19 -19 -45q-2 -54 108 -72z" />
    <glyph glyph-name="agrave" unicode="&#xe0;" horiz-adv-x="1196" 
d="M670 1567l71 -369h-280l-148 369h357zM1178 287h2v-287q-78 -20 -174 -20q-288 0 -310 204q-45 -97 -138 -155q-93 -60 -218 -60q-138 0 -224 72q-85 72 -85 190q0 115 81 189t232 98q294 50 338 70v51q0 78 -24.5 111.5t-82.5 33.5q-59 0 -84.5 -40.5t-25.5 -133.5h-387
q0 220 141 354q141 132 371 132q218 0 349 -121q132 -122 132 -320v-243q0 -82 18 -103q16 -22 89 -22zM535 233q68 0 107.5 42t39.5 124v31q-46 -16 -131 -37q-74 -17 -98 -35q-23 -18 -23 -57q2 -68 105 -68z" />
    <glyph glyph-name="aacute" unicode="&#xe1;" horiz-adv-x="1196" 
d="M506 1567h356l-147 -369h-281zM1178 287h2v-287q-78 -20 -174 -20q-288 0 -310 204q-45 -97 -138 -155q-93 -60 -218 -60q-138 0 -224 72q-85 72 -85 190q0 115 81 189t232 98q294 50 338 70v51q0 78 -24.5 111.5t-82.5 33.5q-59 0 -84.5 -40.5t-25.5 -133.5h-387
q0 220 141 354q141 132 371 132q218 0 349 -121q132 -122 132 -320v-243q0 -82 18 -103q16 -22 89 -22zM535 233q68 0 107.5 42t39.5 124v31q-46 -16 -131 -37q-74 -17 -98 -35q-23 -18 -23 -57q2 -68 105 -68z" />
    <glyph glyph-name="acircumflex" unicode="&#xe2;" horiz-adv-x="1196" 
d="M709 1198l-119 311l-119 -311h-315l172 369h524l172 -369h-315zM1178 287h2v-287q-78 -20 -174 -20q-288 0 -310 204q-45 -97 -138 -155q-93 -60 -218 -60q-138 0 -224 72q-85 72 -85 190q0 115 81 189t232 98q294 50 338 70v51q0 78 -24.5 111.5t-82.5 33.5
q-59 0 -84.5 -40.5t-25.5 -133.5h-387q0 220 141 354q141 132 371 132q218 0 349 -121q132 -122 132 -320v-243q0 -82 18 -103q16 -22 89 -22zM535 233q68 0 107.5 42t39.5 124v31q-46 -16 -131 -37q-74 -17 -98 -35q-23 -18 -23 -57q2 -68 105 -68z" />
    <glyph glyph-name="atilde" unicode="&#xe3;" horiz-adv-x="1196" 
d="M463 1298q-82 0 -82 -79h-184q0 173 59.5 257.5t185.5 84.5q58 0 144 -42q84 -42 129 -42q82 0 82 79h184q0 -176 -58 -259t-188 -83q-59 0 -143 42t-129 42zM1178 287h2v-287q-78 -20 -174 -20q-288 0 -310 204q-45 -97 -138 -155q-93 -60 -218 -60q-138 0 -224 72
q-85 72 -85 190q0 115 81 189t232 98q294 50 338 70v51q0 78 -24.5 111.5t-82.5 33.5q-59 0 -84.5 -40.5t-25.5 -133.5h-387q0 220 141 354q141 132 371 132q218 0 349 -121q132 -122 132 -320v-243q0 -82 18 -103q16 -22 89 -22zM535 233q68 0 107.5 42t39.5 124v31
q-46 -16 -131 -37q-74 -17 -98 -35q-23 -18 -23 -57q2 -68 105 -68z" />
    <glyph glyph-name="adieresis" unicode="&#xe4;" horiz-adv-x="1196" 
d="M203 1546h348v-329h-348v329zM627 1546h348v-329h-348v329zM1178 287h2v-287q-78 -20 -174 -20q-288 0 -310 204q-45 -97 -138 -155q-93 -60 -218 -60q-138 0 -224 72q-85 72 -85 190q0 115 81 189t232 98q294 50 338 70v51q0 78 -24.5 111.5t-82.5 33.5
q-59 0 -84.5 -40.5t-25.5 -133.5h-387q0 220 141 354q141 132 371 132q218 0 349 -121q132 -122 132 -320v-243q0 -82 18 -103q16 -22 89 -22zM535 233q68 0 107.5 42t39.5 124v31q-46 -16 -131 -37q-74 -17 -98 -35q-23 -18 -23 -57q2 -68 105 -68z" />
    <glyph glyph-name="aring" unicode="&#xe5;" horiz-adv-x="1196" 
d="M752 1241q-62 -53 -162 -53t-162 53q-61 52 -61 141q0 88 61 142q62 53 162 53t162 -53q61 -54 61 -142q0 -89 -61 -141zM655 1383q0 57 -65 57q-66 0 -66 -57q0 -58 66 -58q65 0 65 58zM1178 287h2v-287q-78 -20 -174 -20q-288 0 -310 204q-45 -97 -138 -155
q-93 -60 -218 -60q-138 0 -224 72q-85 72 -85 190q0 115 81 189t232 98q294 50 338 70v51q0 78 -24.5 111.5t-82.5 33.5q-59 0 -84.5 -40.5t-25.5 -133.5h-387q0 220 141 354q141 132 371 132q218 0 349 -121q132 -122 132 -320v-243q0 -82 18 -103q16 -22 89 -22zM535 233
q68 0 107.5 42t39.5 124v31q-46 -16 -131 -37q-74 -17 -98 -35q-23 -18 -23 -57q2 -68 105 -68z" />
    <glyph glyph-name="ae" unicode="&#xe6;" horiz-adv-x="1880" 
d="M1829 586v-148h-721q12 -88 54 -128t120 -40q152 0 152 95l389 4q0 -181 -153 -290q-155 -110 -404 -110q-326 0 -480 244q-44 -108 -152 -176q-106 -68 -253 -68q-164 0 -257 72t-93 190q0 115 81 189t232 98q294 50 338 70v51q0 78 -24.5 111.5t-82.5 33.5
q-59 0 -84.5 -40.5t-25.5 -133.5h-387q0 220 141 353q140 133 371 133q194 0 313 -115q146 115 363 115q254 0 409 -140q154 -141 154 -370zM1108 635l186 4h131q-8 81 -47 118.5t-112 37.5q-133 0 -158 -160zM535 233q68 0 107.5 42t39.5 124v31q-46 -16 -131 -37
q-74 -17 -98 -35q-23 -18 -23 -57q2 -68 105 -68z" />
    <glyph glyph-name="ccedilla" unicode="&#xe7;" horiz-adv-x="1222" 
d="M645 281q76 0 109.5 36.5t33.5 118.5h390q0 -187 -119 -312q-117 -123 -322 -149l-28 -75h10q78 0 125 -45t47 -121q0 -81 -53 -134q-54 -51 -140 -51h-256v152h166q43 0 43 33t-43 33h-147v124l39 93q-206 39 -328 186q-121 146 -121 362q0 255 163 409q164 155 431 155
q240 0 387 -135q146 -137 146 -355h-390q0 94 -33.5 136t-109.5 42q-92 0 -133 -59t-41 -192q0 -134 41 -193t133 -59z" />
    <glyph glyph-name="egrave" unicode="&#xe8;" horiz-adv-x="1249" 
d="M715 1567l71 -369h-280l-148 369h357zM1198 586v-148h-721q12 -88 54 -128t120 -40q152 0 152 99h389q0 -181 -153 -290q-155 -110 -404 -110q-262 0 -423 155t-161 409q0 253 161 408t423 155q254 0 409 -140q154 -141 154 -370zM477 635l187 4h131q-8 81 -46.5 118.5
t-113.5 37.5q-133 0 -158 -160z" />
    <glyph glyph-name="eacute" unicode="&#xe9;" horiz-adv-x="1249" 
d="M551 1567h356l-147 -369h-281zM1198 586v-148h-721q12 -88 54 -128t120 -40q152 0 152 99h389q0 -181 -153 -290q-155 -110 -404 -110q-262 0 -423 155t-161 409q0 253 161 408t423 155q254 0 409 -140q154 -141 154 -370zM477 635l187 4h131q-8 81 -46.5 118.5
t-113.5 37.5q-133 0 -158 -160z" />
    <glyph glyph-name="ecircumflex" unicode="&#xea;" horiz-adv-x="1249" 
d="M754 1198l-119 311l-119 -311h-315l172 369h524l172 -369h-315zM1198 586v-148h-721q12 -88 54 -128t120 -40q152 0 152 99h389q0 -181 -153 -290q-155 -110 -404 -110q-262 0 -423 155t-161 409q0 253 161 408t423 155q254 0 409 -140q154 -141 154 -370zM477 635l187 4
h131q-8 81 -46.5 118.5t-113.5 37.5q-133 0 -158 -160z" />
    <glyph glyph-name="edieresis" unicode="&#xeb;" horiz-adv-x="1249" 
d="M248 1546h348v-329h-348v329zM672 1546h348v-329h-348v329zM1198 586v-148h-721q12 -88 54 -128t120 -40q152 0 152 99h389q0 -181 -153 -290q-155 -110 -404 -110q-262 0 -423 155t-161 409q0 253 161 408t423 155q254 0 409 -140q154 -141 154 -370zM477 635l187 4h131
q-8 81 -46.5 118.5t-113.5 37.5q-133 0 -158 -160z" />
    <glyph glyph-name="igrave" unicode="&#xec;" horiz-adv-x="585" 
d="M20 1567h357l72 -369h-281zM92 0v1065h410v-1065h-410z" />
    <glyph glyph-name="iacute" unicode="&#xed;" horiz-adv-x="585" 
d="M141 1198l72 369h356l-147 -369h-281zM92 0v1065h410v-1065h-410z" />
    <glyph glyph-name="icircumflex" unicode="&#xee;" horiz-adv-x="585" 
d="M416 1198l-119 311l-119 -311h-315l172 369h524l172 -369h-315zM502 0h-410v1065h410v-1065z" />
    <glyph glyph-name="idieresis" unicode="&#xef;" horiz-adv-x="585" 
d="M-90 1217v329h348v-329h-348zM334 1217v329h348v-329h-348zM92 0v1065h410v-1065h-410z" />
    <glyph glyph-name="eth" unicode="&#xf0;" horiz-adv-x="1261" 
d="M987 1587l-129 -143q173 -100 274 -285q99 -186 99 -422q0 -345 -167 -557q-166 -211 -441 -211q-256 0 -414 155t-158 406q0 214 122 348q121 132 321 132q126 0 219.5 -58t138.5 -164v52q0 144 -46 212q-47 68 -161 89l-65 -76h-301l90 98l-215 15v419l426 -59
q16 -1 57 -10l49 59h301zM641 281q90 0 130 59.5t40 191.5q0 123 -39 178.5t-127 55.5q-90 0 -132 -56.5t-42 -179.5q0 -131 41 -190t129 -59z" />
    <glyph glyph-name="ntilde" unicode="&#xf1;" horiz-adv-x="1300" 
d="M539 1298q-82 0 -82 -79h-185q0 173 60 257.5t186 84.5q59 0 143 -42t130 -42q41 0 61.5 19.5t19.5 59.5h185q0 -176 -58 -259t-188 -83q-59 0 -143 42t-129 42zM877 1096q166 0 253 -92.5t87 -268.5v-735h-410v584q0 90 -32 130t-101 40q-90 0 -131 -47.5t-41 -153.5
v-553h-410v1065h393v-283q40 144 144 230q104 84 248 84z" />
    <glyph glyph-name="ograve" unicode="&#xf2;" horiz-adv-x="1282" 
d="M365 1567h356l72 -369h-281zM1069 124q-163 -155 -428 -155t-428 155q-162 154 -162 409q0 253 162 408q163 155 428 155t428 -155q162 -155 162 -408q0 -255 -162 -409zM511 341q41 -60 130 -60t130 60q40 59 40 192q0 132 -40 191q-41 60 -130 60t-130 -60
q-40 -59 -40 -191q0 -133 40 -192z" />
    <glyph glyph-name="oacute" unicode="&#xf3;" horiz-adv-x="1282" 
d="M485 1198l72 369h356l-147 -369h-281zM1069 124q-163 -155 -428 -155t-428 155q-162 154 -162 409q0 253 162 408q163 155 428 155t428 -155q162 -155 162 -408q0 -255 -162 -409zM511 341q41 -60 130 -60t130 60q40 59 40 192q0 132 -40 191q-41 60 -130 60t-130 -60
q-40 -59 -40 -191q0 -133 40 -192z" />
    <glyph glyph-name="ocircumflex" unicode="&#xf4;" horiz-adv-x="1282" 
d="M760 1198l-119 311l-119 -311h-315l172 369h524l172 -369h-315zM213 941q163 155 428 155t428 -155q162 -155 162 -408q0 -255 -162 -409q-163 -155 -428 -155t-428 155q-162 154 -162 409q0 253 162 408zM511 341q41 -60 130 -60t130 60q40 59 40 192q0 132 -40 191
q-41 60 -130 60t-130 -60q-40 -59 -40 -191q0 -133 40 -192z" />
    <glyph glyph-name="otilde" unicode="&#xf5;" horiz-adv-x="1282" 
d="M786 1214q-59 0 -143 42t-129 42q-82 0 -82 -79h-184q0 173 60 257.5t186 84.5q59 0 143 -42t129 -42q82 0 82 79h184q0 -176 -58 -259t-188 -83zM1069 124q-163 -155 -428 -155t-428 155q-162 154 -162 409q0 253 162 408q163 155 428 155t428 -155q162 -155 162 -408
q0 -255 -162 -409zM511 341q41 -60 130 -60t130 60q40 59 40 192q0 132 -40 191q-41 60 -130 60t-130 -60q-40 -59 -40 -191q0 -133 40 -192z" />
    <glyph glyph-name="odieresis" unicode="&#xf6;" horiz-adv-x="1282" 
d="M254 1217v329h348v-329h-348zM678 1217v329h348v-329h-348zM1069 124q-163 -155 -428 -155t-428 155q-162 154 -162 409q0 253 162 408q163 155 428 155t428 -155q162 -155 162 -408q0 -255 -162 -409zM511 341q41 -60 130 -60t130 60q40 59 40 192q0 132 -40 191
q-41 60 -130 60t-130 -60q-40 -59 -40 -191q0 -133 40 -192z" />
    <glyph glyph-name="divide" unicode="&#xf7;" horiz-adv-x="1042" 
d="M383 766v266h279v-266h-279zM72 684h899v-266h-899v266zM383 49v266h279v-266h-279z" />
    <glyph glyph-name="oslash" unicode="&#xf8;" horiz-adv-x="1282" 
d="M1245 1188l-170 -252q156 -156 156 -404q0 -254 -162 -408q-163 -155 -428 -155q-103 0 -203 27l-94 -139h-311l180 266q-162 158 -162 409q0 254 162 409q163 155 428 155q115 0 211 -31l82 123h311zM471 532v-28l188 280h-18q-90 0 -130 -60t-40 -192zM631 281h10
q90 0 130 59.5t40 191.5v15z" />
    <glyph glyph-name="ugrave" unicode="&#xf9;" horiz-adv-x="1300" 
d="M731 1567l72 -369h-281l-147 369h356zM799 512v553h409v-1065h-393v256q-45 -134 -145 -210q-101 -77 -238 -77q-166 0 -253 92.5t-87 268.5v735h410v-584q0 -88 30.5 -129t98.5 -41q88 0 128 47.5t40 153.5z" />
    <glyph glyph-name="uacute" unicode="&#xfa;" horiz-adv-x="1300" 
d="M567 1567h357l-148 -369h-280zM799 512v553h409v-1065h-393v256q-45 -134 -145 -210q-101 -77 -238 -77q-166 0 -253 92.5t-87 268.5v735h410v-584q0 -88 30.5 -129t98.5 -41q88 0 128 47.5t40 153.5z" />
    <glyph glyph-name="ucircumflex" unicode="&#xfb;" horiz-adv-x="1300" 
d="M770 1198l-119 311l-119 -311h-315l172 369h524l172 -369h-315zM799 512v553h409v-1065h-393v256q-45 -134 -145 -210q-101 -77 -238 -77q-166 0 -253 92.5t-87 268.5v735h410v-584q0 -88 30.5 -129t98.5 -41q88 0 128 47.5t40 153.5z" />
    <glyph glyph-name="udieresis" unicode="&#xfc;" horiz-adv-x="1300" 
d="M264 1546h348v-329h-348v329zM688 1546h348v-329h-348v329zM799 512v553h409v-1065h-393v256q-45 -134 -145 -210q-101 -77 -238 -77q-166 0 -253 92.5t-87 268.5v735h410v-584q0 -88 30.5 -129t98.5 -41q88 0 128 47.5t40 153.5z" />
    <glyph glyph-name="yacute" unicode="&#xfd;" horiz-adv-x="1269" 
d="M555 1567h356l-147 -369h-281zM700 465l140 600h420l-287 -1159q-39 -154 -168 -240q-130 -86 -316 -86q-147 0 -299 21v297h228q155 0 174 88l4 14h-322l-264 1065h428l137 -600l62 -320z" />
    <glyph glyph-name="thorn" unicode="&#xfe;" horiz-adv-x="1312" 
d="M844 1096q187 0 303 -155q115 -154 115 -408q0 -255 -115 -409q-116 -155 -303 -155q-116 0 -204.5 63t-137.5 177v-639h-410v1997h393v-787q40 146 137 232q94 84 222 84zM542 341q41 -60 130 -60q90 0 130 60q40 59 40 192q0 132 -40 191q-40 60 -130 60t-130 -60
q-40 -59 -40 -191q0 -133 40 -192z" />
    <glyph glyph-name="ydieresis" unicode="&#xff;" horiz-adv-x="1269" 
d="M252 1546h348v-329h-348v329zM676 1546h348v-329h-348v329zM700 465l140 600h420l-287 -1159q-39 -154 -168 -240q-130 -86 -316 -86q-147 0 -299 21v297h228q155 0 174 88l4 14h-322l-264 1065h428l137 -600l62 -320z" />
    <glyph glyph-name="Amacron" unicode="&#x100;" horiz-adv-x="1660" 
d="M543 1925h585v-307h-585v307zM1651 0h-461l-88 301h-553l-88 -301h-451l430 1454h781zM745 983l-102 -350h365l-103 350l-80 328z" />
    <glyph glyph-name="amacron" unicode="&#x101;" horiz-adv-x="1196" 
d="M297 1536h586v-307h-586v307zM1178 287h2v-287q-78 -20 -174 -20q-288 0 -310 204q-45 -97 -138 -155q-93 -60 -218 -60q-138 0 -224 72q-85 72 -85 190q0 115 81 189t232 98q294 50 338 70v51q0 78 -24.5 111.5t-82.5 33.5q-59 0 -84.5 -40.5t-25.5 -133.5h-387
q0 220 141 354q141 132 371 132q218 0 349 -121q132 -122 132 -320v-243q0 -82 18 -103q16 -22 89 -22zM535 233q68 0 107.5 42t39.5 124v31q-46 -16 -131 -37q-74 -17 -98 -35q-23 -18 -23 -57q2 -68 105 -68z" />
    <glyph glyph-name="Abreve" unicode="&#x102;" horiz-adv-x="1660" 
d="M1088 1669q-92 -92 -252 -92q-162 0 -252 92q-90 91 -90 287h245q0 -143 97 -143q48 -1 72 35t24 108h246q0 -196 -90 -287zM1651 0h-461l-88 301h-553l-88 -301h-451l430 1454h781zM745 983l-102 -350h365l-103 350l-80 328z" />
    <glyph glyph-name="abreve" unicode="&#x103;" horiz-adv-x="1196" 
d="M842 1280q-90 -92 -252 -92t-252 92t-90 287h246q0 -143 96 -143q48 -1 72 35t24 108h246q0 -195 -90 -287zM1178 287h2v-287q-78 -20 -174 -20q-288 0 -310 204q-45 -97 -138 -155q-93 -60 -218 -60q-138 0 -224 72q-85 72 -85 190q0 115 81 189t232 98q294 50 338 70
v51q0 78 -24.5 111.5t-82.5 33.5q-59 0 -84.5 -40.5t-25.5 -133.5h-387q0 220 141 354q141 132 371 132q218 0 349 -121q132 -122 132 -320v-243q0 -82 18 -103q16 -22 89 -22zM535 233q68 0 107.5 42t39.5 124v31q-46 -16 -131 -37q-74 -17 -98 -35q-23 -18 -23 -57
q2 -68 105 -68z" />
    <glyph glyph-name="Aogonek" unicode="&#x104;" horiz-adv-x="1660" 
d="M1339 -184q0 -37 47 -37h95v-230h-303q-78 0 -119 38t-41 102q0 75 55 151l117 160l-88 301h-553l-88 -301h-451l430 1454h781l430 -1454h-197l-90 -129q-25 -31 -25 -55zM745 983l-102 -350h365l-103 350l-80 328z" />
    <glyph glyph-name="aogonek" unicode="&#x105;" horiz-adv-x="1196" 
d="M1180 0l-45 -10l-84 -119q-25 -32 -25 -55q0 -37 47 -37h94v-230h-303q-78 0 -118.5 38t-40.5 102q0 75 55 151l112 154q-158 38 -176 190q-45 -97 -138 -155q-93 -60 -218 -60q-138 0 -224 72q-85 72 -85 190q0 115 81 189t232 98q294 50 338 70v51q0 78 -24.5 111.5
t-82.5 33.5q-59 0 -84.5 -40.5t-25.5 -133.5h-387q0 220 141 354q141 132 371 132q218 0 349 -121q132 -122 132 -320v-243q0 -82 18 -103q16 -22 89 -22h2v-287zM535 233q68 0 107.5 42t39.5 124v31q-46 -16 -131 -37q-74 -17 -98 -35q-23 -18 -23 -57q2 -68 105 -68z" />
    <glyph glyph-name="Cacute" unicode="&#x106;" horiz-adv-x="1544" 
d="M639 1587l72 369h356l-147 -369h-281zM265 178q-204 208 -204 549t204 549q204 209 538 209q308 0 495 -166t187 -436h-430q0 117 -60.5 170t-191.5 53q-152 0 -221.5 -90t-69.5 -289q0 -201 69.5 -292t221.5 -91q133 0 193.5 47t60.5 154h430q0 -260 -188 -418
q-190 -158 -496 -158q-334 0 -538 209z" />
    <glyph glyph-name="cacute" unicode="&#x107;" horiz-adv-x="1222" 
d="M467 1198l72 369h356l-147 -369h-281zM788 436h390q0 -211 -146 -339q-148 -128 -387 -128q-267 0 -431 155q-163 154 -163 409q0 254 163 408q164 155 431 155q240 0 387 -135q146 -137 146 -355h-390q0 94 -33.5 136t-109.5 42q-92 0 -133 -59t-41 -192q0 -134 41 -193
t133 -59q76 0 109.5 36.5t33.5 118.5z" />
    <glyph glyph-name="Ccircumflex" unicode="&#x108;" horiz-adv-x="1544" 
d="M913 1587l-118 311l-119 -311h-316l172 369h525l172 -369h-316zM1057 545h430q0 -260 -188 -418q-190 -158 -496 -158q-334 0 -538 209q-204 208 -204 549t204 549q204 209 538 209q308 0 495 -166t187 -436h-430q0 117 -60.5 170t-191.5 53q-152 0 -221.5 -90
t-69.5 -289q0 -201 69.5 -292t221.5 -91q133 0 193.5 47.5t60.5 153.5z" />
    <glyph glyph-name="ccircumflex" unicode="&#x109;" horiz-adv-x="1222" 
d="M741 1198l-118 311l-119 -311h-316l172 369h525l172 -369h-316zM645 281q76 0 109.5 36.5t33.5 118.5h390q0 -211 -146 -339q-148 -128 -387 -128q-267 0 -431 155q-163 154 -163 409q0 254 163 408q164 155 431 155q240 0 387 -135q146 -137 146 -355h-390
q0 94 -33.5 136t-109.5 42q-92 0 -133 -59t-41 -192q0 -134 41 -193t133 -59z" />
    <glyph glyph-name="Cdotaccent" unicode="&#x10a;" horiz-adv-x="1544" 
d="M580 1606v329h430v-329h-430zM265 178q-204 208 -204 549t204 549q204 209 538 209q308 0 495 -166t187 -436h-430q0 117 -60.5 170t-191.5 53q-152 0 -221.5 -90t-69.5 -289q0 -201 69.5 -292t221.5 -91q133 0 193.5 47t60.5 154h430q0 -260 -188 -418
q-190 -158 -496 -158q-334 0 -538 209z" />
    <glyph glyph-name="cdotaccent" unicode="&#x10b;" horiz-adv-x="1222" 
d="M408 1217v329h430v-329h-430zM788 436h390q0 -211 -146 -339q-148 -128 -387 -128q-267 0 -431 155q-163 154 -163 409q0 254 163 408q164 155 431 155q240 0 387 -135q146 -137 146 -355h-390q0 94 -33.5 136t-109.5 42q-92 0 -133 -59t-41 -192q0 -134 41 -193t133 -59
q76 0 109.5 36.5t33.5 118.5z" />
    <glyph glyph-name="Ccaron" unicode="&#x10c;" horiz-adv-x="1544" 
d="M1057 1587h-525l-172 369h316l119 -311l118 311h316zM1057 545h430q0 -260 -188 -418q-190 -158 -496 -158q-334 0 -538 209q-204 208 -204 549t204 549q204 209 538 209q308 0 495 -166t187 -436h-430q0 117 -60.5 170t-191.5 53q-152 0 -221.5 -90t-69.5 -289
q0 -201 69.5 -292t221.5 -91q133 0 193.5 47.5t60.5 153.5z" />
    <glyph glyph-name="ccaron" unicode="&#x10d;" horiz-adv-x="1222" 
d="M885 1198h-525l-172 369h316l119 -312l118 312h316zM645 281q76 0 109.5 36.5t33.5 118.5h390q0 -211 -146 -339q-148 -128 -387 -128q-267 0 -431 155q-163 154 -163 409q0 254 163 408q164 155 431 155q240 0 387 -135q146 -137 146 -355h-390q0 94 -33.5 136
t-109.5 42q-92 0 -133 -59t-41 -192q0 -134 41 -193t133 -59z" />
    <glyph glyph-name="Dcaron" unicode="&#x10e;" horiz-adv-x="1595" 
d="M1067 1587h-524l-172 369h315l119 -311l119 311h315zM113 1454h669q339 0 545 -199q207 -199 207 -528q0 -327 -207 -527q-208 -200 -545 -200h-669v1454zM553 358h215q315 0 315 369q0 358 -315 358h-215v-727z" />
    <glyph glyph-name="dcaron" unicode="&#x10f;" horiz-adv-x="1304" 
d="M811 856v711h410v-1567h-394v285q-40 -146 -136 -231q-94 -85 -222 -85q-187 0 -303 155q-115 154 -115 409q0 254 115 408q116 155 303 155q116 0 204.5 -63t137.5 -177zM1321 1366v201h358v-246q0 -127 -105 -206q-106 -79 -280 -79v154q99 0 143 28.5t44 94.5z
M511 341q41 -60 130 -60t130 60q40 59 40 192q0 132 -40 191q-41 60 -130 60t-130 -60q-40 -59 -40 -191q0 -133 40 -192z" />
    <glyph glyph-name="Dcroat" unicode="&#x110;" horiz-adv-x="1605" 
d="M123 1454h670q339 0 545 -199q206 -200 206 -528q0 -327 -207 -527q-208 -200 -544 -200h-670v590h-143v287h143v577zM563 358h215q314 0 316 369q0 358 -316 358h-215v-208h246v-287h-246v-232z" />
    <glyph glyph-name="dslash" unicode="&#x111;" horiz-adv-x="1302" 
d="M1221 1436h163v-267h-163v-1169h-394v285q-40 -146 -136 -231q-94 -85 -222 -85q-187 0 -303 155q-115 154 -115 409q0 254 115 408q116 155 303 155q116 0 204.5 -63t137.5 -177v313h-362v267h362v131h410v-131zM511 341q41 -60 130 -60t130 60q40 59 40 192
q0 132 -40 191q-41 60 -130 60t-130 -60q-40 -59 -40 -191q0 -133 40 -192z" />
    <glyph glyph-name="Emacron" unicode="&#x112;" horiz-adv-x="1347" 
d="M391 1925h586v-307h-586v307zM553 567v-198h692v-369h-1132v1454h1130v-369h-690v-190h659v-328h-659z" />
    <glyph glyph-name="emacron" unicode="&#x113;" horiz-adv-x="1249" 
d="M342 1536h586v-307h-586v307zM1198 586v-148h-721q12 -88 54 -128t120 -40q152 0 152 99h389q0 -181 -153 -290q-155 -110 -404 -110q-262 0 -423 155t-161 409q0 253 161 408t423 155q254 0 409 -140q154 -141 154 -370zM477 635l187 4h131q-8 81 -46.5 118.5
t-113.5 37.5q-133 0 -158 -160z" />
    <glyph glyph-name="Ebreve" unicode="&#x114;" horiz-adv-x="1347" 
d="M936 1669q-90 -92 -252 -92t-252 92q-90 91 -90 287h246q0 -143 96 -143q48 -1 72 35t24 108h246q0 -196 -90 -287zM553 567v-198h692v-369h-1132v1454h1130v-369h-690v-190h659v-328h-659z" />
    <glyph glyph-name="ebreve" unicode="&#x115;" horiz-adv-x="1249" 
d="M887 1280q-90 -92 -252 -92t-252 92t-90 287h246q0 -143 96 -143q48 -1 72 35t24 108h246q0 -195 -90 -287zM1198 586v-148h-721q12 -88 54 -128t120 -40q152 0 152 99h389q0 -181 -153 -290q-155 -110 -404 -110q-262 0 -423 155t-161 409q0 253 161 408t423 155
q254 0 409 -140q154 -141 154 -370zM477 635l187 4h131q-8 81 -46.5 118.5t-113.5 37.5q-133 0 -158 -160z" />
    <glyph glyph-name="Edotaccent" unicode="&#x116;" horiz-adv-x="1347" 
d="M469 1935h430v-329h-430v329zM553 567v-198h692v-369h-1132v1454h1130v-369h-690v-190h659v-328h-659z" />
    <glyph glyph-name="edotaccent" unicode="&#x117;" horiz-adv-x="1249" 
d="M420 1546h430v-329h-430v329zM1198 586v-148h-721q12 -88 54 -128t120 -40q152 0 152 99h389q0 -181 -153 -290q-155 -110 -404 -110q-262 0 -423 155t-161 409q0 253 161 408t423 155q254 0 409 -140q154 -141 154 -370zM477 635l187 4h131q-8 81 -46.5 118.5
t-113.5 37.5q-133 0 -158 -160z" />
    <glyph glyph-name="Eogonek" unicode="&#x118;" horiz-adv-x="1347" 
d="M1178 -221h94v-230h-303q-78 0 -119 38t-41 102q0 75 55 151l117 160h-868v1454h1130v-369h-690v-190h659v-328h-659v-198h692v-369l-90 -129q-25 -32 -25 -55q1 -37 48 -37z" />
    <glyph glyph-name="eogonek" unicode="&#x119;" horiz-adv-x="1249" 
d="M1198 586v-148h-721q12 -88 54 -128t120 -40q152 0 152 99h389q0 -135 -87 -232.5t-243 -138.5l-88 -127q-25 -33 -24 -55q0 -37 47 -37h94v-230h-303q-78 0 -119 38t-41 102q0 75 55 151l97 131q-241 17 -384 169q-145 152 -145 392q0 254 161 409t423 155
q254 0 409 -140q154 -141 154 -370zM477 635l187 4h131q-8 81 -46.5 118.5t-113.5 37.5q-133 0 -158 -160z" />
    <glyph glyph-name="Ecaron" unicode="&#x11a;" horiz-adv-x="1347" 
d="M946 1587h-524l-172 369h315l119 -311l119 311h315zM553 567v-198h692v-369h-1132v1454h1130v-369h-690v-190h659v-328h-659z" />
    <glyph glyph-name="ecaron" unicode="&#x11b;" horiz-adv-x="1249" 
d="M897 1198h-524l-172 369h315l119 -312l119 312h315zM1198 586v-148h-721q12 -88 54 -128t120 -40q152 0 152 99h389q0 -181 -153 -290q-155 -110 -404 -110q-262 0 -423 155t-161 409q0 253 161 408t423 155q254 0 409 -140q154 -141 154 -370zM477 635l187 4h131
q-8 81 -46.5 118.5t-113.5 37.5q-133 0 -158 -160z" />
    <glyph glyph-name="Gcircumflex" unicode="&#x11c;" horiz-adv-x="1636" 
d="M942 1587l-119 311l-118 -311h-316l172 369h524l172 -369h-315zM762 526v287h772v-813h-389v375q-37 -198 -153 -302t-308 -104q-284 0 -453 199q-170 200 -170 539q0 354 209 566t553 212q316 0 509 -160q194 -161 194 -422h-430q0 106 -64.5 154.5t-208.5 48.5
q-164 0 -237.5 -90t-73.5 -289q0 -205 73.5 -297t237.5 -92q139 0 204 44t71 144h-336z" />
    <glyph glyph-name="gcircumflex" unicode="&#x11d;" horiz-adv-x="1220" 
d="M1247 1300v-296q-181 0 -219 -39q111 -97 111 -250q0 -169 -147 -276q-149 -107 -402 -107q-122 0 -219 24v-14q0 -74 131 -74h362q171 0 274 -82t103 -217q0 -176 -167 -283q-166 -106 -458 -106q-283 0 -445 69q-163 70 -163 187q0 60 43 104t115 58q-104 77 -105 178
q0 154 168 236q-188 107 -188 303q0 174 147 278q145 103 402 103q152 0 272 -39q12 92 58 141h-211l-119 311l-119 -311h-315l172 369h524l145 -310q85 43 250 43zM590 598q75 0 107 27t32 90q0 60 -32.5 87t-106.5 27q-79 0 -110 -26t-31 -88q0 -64 30.5 -90.5
t110.5 -26.5zM766 -55h-401q-1 -7 -3 -29q0 -67 52 -89q50 -22 202 -22q149 0 197 16q49 16 49 66q0 33 -21 45.5t-75 12.5z" />
    <glyph glyph-name="Gbreve" unicode="&#x11e;" horiz-adv-x="1636" 
d="M1075 1669q-90 -92 -251 -92q-162 0 -252 92q-91 91 -91 287h246q0 -143 97 -143q48 -1 72 35t24 108h245q0 -196 -90 -287zM762 526v287h772v-813h-389v375q-37 -198 -153 -302t-308 -104q-284 0 -453 199q-170 200 -170 539q0 354 209 566t553 212q316 0 509 -160
q194 -161 194 -422h-430q0 106 -64.5 154.5t-208.5 48.5q-164 0 -237.5 -90t-73.5 -289q0 -205 73.5 -297t237.5 -92q139 0 204 44t71 144h-336z" />
    <glyph glyph-name="gbreve" unicode="&#x11f;" horiz-adv-x="1220" 
d="M842 1280q-90 -92 -252 -92t-252 92t-90 287h246q0 -143 96 -143q48 -1 72 35t24 108h246q0 -195 -90 -287zM1247 1300v-296q-181 0 -219 -39q111 -97 111 -250q0 -169 -147 -276q-149 -107 -402 -107q-122 0 -219 24v-14q0 -74 131 -74h362q171 0 274 -82t103 -217
q0 -176 -167 -283q-166 -106 -458 -106q-283 0 -445 69q-163 70 -163 187q0 60 43 104t115 58q-104 77 -105 178q0 154 168 236q-188 107 -188 303q0 174 147 278q145 103 402 103q152 0 272 -39q17 126 105 184q89 59 280 59zM590 598q75 0 107 27t32 90q0 60 -32.5 87
t-106.5 27q-79 0 -110 -26t-31 -88q0 -64 30.5 -90.5t110.5 -26.5zM766 -55h-401q-1 -7 -3 -29q0 -67 52 -89q50 -22 202 -22q149 0 197 16q49 16 49 66q0 33 -21 45.5t-75 12.5z" />
    <glyph glyph-name="Gdotaccent" unicode="&#x120;" horiz-adv-x="1636" 
d="M608 1935h430v-329h-430v329zM762 526v287h772v-813h-389v375q-37 -198 -153 -302t-308 -104q-284 0 -453 199q-170 200 -170 539q0 354 209 566t553 212q316 0 509 -160q194 -161 194 -422h-430q0 106 -64.5 154.5t-208.5 48.5q-164 0 -237.5 -90t-73.5 -289
q0 -205 73.5 -297t237.5 -92q139 0 204 44t71 144h-336z" />
    <glyph glyph-name="gdotaccent" unicode="&#x121;" horiz-adv-x="1220" 
d="M375 1546h430v-329h-430v329zM1247 1300v-296q-181 0 -219 -39q111 -97 111 -250q0 -169 -147 -276q-149 -107 -402 -107q-122 0 -219 24v-14q0 -74 131 -74h362q171 0 274 -82t103 -217q0 -176 -167 -283q-166 -106 -458 -106q-283 0 -445 69q-163 70 -163 187
q0 60 43 104t115 58q-104 77 -105 178q0 154 168 236q-188 107 -188 303q0 174 147 278q145 103 402 103q152 0 272 -39q17 126 105 184q89 59 280 59zM590 598q75 0 107 27t32 90q0 60 -32.5 87t-106.5 27q-79 0 -110 -26t-31 -88q0 -64 30.5 -90.5t110.5 -26.5zM766 -55
h-401q-1 -7 -3 -29q0 -67 52 -89q50 -22 202 -22q149 0 197 16q49 16 49 66q0 33 -21 45.5t-75 12.5z" />
    <glyph glyph-name="uni0122" unicode="&#x122;" horiz-adv-x="1636" 
d="M762 526v287h772v-813h-389v375q-37 -198 -153 -302t-308 -104q-284 0 -453 199q-170 200 -170 539q0 354 209 566t553 212q316 0 509 -160q194 -161 194 -422h-430q0 106 -64.5 154.5t-208.5 48.5q-164 0 -237.5 -90t-73.5 -289q0 -205 73.5 -297t237.5 -92
q139 0 204 44t71 144h-336zM803 -369l-160 54v200h358v-245q0 -126 -105 -206q-104 -79 -280 -79v153q98 0 142.5 29t44.5 94z" />
    <glyph glyph-name="uni0123" unicode="&#x123;" horiz-adv-x="1220" 
d="M598 1452l180 -53v-201h-379v246q0 127 112 206t294 79v-154q-109 0 -158 -28.5t-49 -94.5zM1247 1300v-296q-181 0 -219 -39q111 -97 111 -250q0 -169 -147 -276q-149 -107 -402 -107q-122 0 -219 24v-14q0 -74 131 -74h362q171 0 274 -82t103 -217q0 -176 -167 -283
q-166 -106 -458 -106q-283 0 -445 69q-163 70 -163 187q0 60 43 104t115 58q-104 77 -105 178q0 154 168 236q-188 107 -188 303q0 174 147 278q145 103 402 103q152 0 272 -39q17 126 105 184q89 59 280 59zM590 598q75 0 107 27t32 90q0 60 -32.5 87t-106.5 27
q-79 0 -110 -26t-31 -88q0 -64 30.5 -90.5t110.5 -26.5zM766 -55h-401q-1 -7 -3 -29q0 -67 52 -89q50 -22 202 -22q149 0 197 16q49 16 49 66q0 33 -21 45.5t-75 12.5z" />
    <glyph glyph-name="Hcircumflex" unicode="&#x124;" horiz-adv-x="1648" 
d="M934 1587l-119 311l-119 -311h-315l172 369h524l172 -369h-315zM1096 915v539h440v-1454h-440v547h-543v-547h-440v1454h440v-539h543z" />
    <glyph glyph-name="hcircumflex" unicode="&#x125;" horiz-adv-x="1300" 
d="M416 1700l-119 311l-119 -311h-315l172 368h524l172 -368h-315zM877 1096q166 0 253 -92.5t87 -268.5v-735h-410v584q0 90 -32 130t-101 40q-90 0 -131 -47.5t-41 -153.5v-553h-410v1567h410v-752q45 132 144 206.5t231 74.5z" />
    <glyph glyph-name="Hbar" unicode="&#x126;" horiz-adv-x="1771" 
d="M1597 1335h144v-286h-144v-1049h-440v547h-543v-547h-440v1049h-143v286h143v119h440v-119h543v119h440v-119zM614 915h543v134h-543v-134z" />
    <glyph glyph-name="hbar" unicode="&#x127;" horiz-adv-x="1300" 
d="M877 1096q166 0 253 -92.5t87 -268.5v-735h-410v584q0 90 -32 130t-101 40q-90 0 -131 -47.5t-41 -153.5v-553h-410v1167h-164v267h164v133h410v-133h362v-267h-362v-352q45 132 144 206.5t231 74.5z" />
    <glyph glyph-name="Itilde" unicode="&#x128;" horiz-adv-x="665" 
d="M479 1604q-59 0 -143 42t-129 42q-82 0 -82 -80h-184q0 173 59.5 257.5t185.5 84.5q58 0 144 -42q84 -42 129 -42q82 0 82 80h184q0 -176 -58 -259t-188 -83zM113 0v1454h440v-1454h-440z" />
    <glyph glyph-name="itilde" unicode="&#x129;" horiz-adv-x="585" 
d="M442 1214q-59 0 -143 42t-129 42q-82 0 -82 -79h-184q0 173 60 257.5t186 84.5q59 0 143 -42t129 -42q82 0 82 79h184q0 -176 -58 -259t-188 -83zM92 0v1065h410v-1065h-410z" />
    <glyph glyph-name="Imacron" unicode="&#x12a;" horiz-adv-x="665" 
d="M41 1925h586v-307h-586v307zM113 0v1454h440v-1454h-440z" />
    <glyph glyph-name="imacron" unicode="&#x12b;" horiz-adv-x="585" 
d="M4 1536h586v-307h-586v307zM92 0v1065h410v-1065h-410z" />
    <glyph glyph-name="Ibreve" unicode="&#x12c;" horiz-adv-x="665" 
d="M430 1956h246q0 -191 -88 -285t-254 -94t-254 94t-88 285h246q0 -143 96 -143q48 -1 72 35t24 108zM113 0v1454h440v-1454h-440z" />
    <glyph glyph-name="ibreve" unicode="&#x12d;" horiz-adv-x="585" 
d="M393 1567h246q0 -191 -88 -285t-254 -94t-254 94t-88 285h246q0 -143 96 -143q48 -1 72 35t24 108zM92 0v1065h410v-1065h-410z" />
    <glyph glyph-name="Iogonek" unicode="&#x12e;" horiz-adv-x="665" 
d="M485 -221h95v-230h-304q-78 0 -118.5 38t-40.5 102q0 75 55 151l117 160h-176v1454h440v-1454l-90 -129q-25 -32 -25 -55q0 -37 47 -37z" />
    <glyph glyph-name="iogonek" unicode="&#x12f;" horiz-adv-x="585" 
d="M82 1546h430v-329h-430v329zM434 -221h94v-230h-303q-78 0 -118.5 38t-40.5 102q0 75 55 151l117 160h-146v1065h410v-1065l-90 -129q-25 -32 -25 -55q0 -37 47 -37z" />
    <glyph glyph-name="Idot" unicode="&#x130;" horiz-adv-x="665" 
d="M119 1606v329h430v-329h-430zM113 0v1454h440v-1454h-440z" />
    <glyph glyph-name="dotlessi" unicode="&#x131;" horiz-adv-x="585" 
d="M92 0v1065h410v-1065h-410z" />
    <glyph glyph-name="IJ" unicode="&#x132;" horiz-adv-x="1306" 
d="M92 338h576q96 0 96 100v1016h440v-1065q0 -189 -150 -304q-152 -116 -397 -116q-311 0 -565 60v309zM98 553v901h441v-901h-441z" />
    <glyph glyph-name="ij" unicode="&#x133;" horiz-adv-x="1187" 
d="M512 1217h-430v329h430v-329zM686 1217v329h430v-329h-430zM502 0h-410v1065h410v-1065zM696 -2v1067h410v-1106q0 -170 -120 -275q-121 -104 -314 -104q-78 0 -156 21v297h84q96 0 96 100z" />
    <glyph glyph-name="Jcircumflex" unicode="&#x134;" horiz-adv-x="1351" 
d="M1151 1587l-119 311l-119 -311h-315l172 369h524l172 -369h-315zM809 594v860h440v-926q0 -252 -169 -405q-169 -154 -445 -154q-271 0 -438 165q-166 165 -166 435h430q0 -117 41 -169t133 -52t133 58.5t41 187.5z" />
    <glyph glyph-name="jcircumflex" unicode="&#x135;" horiz-adv-x="593" 
d="M436 1198l-119 311l-118 -311h-316l172 369h525l172 -369h-316zM113 -2v1067h409v-1106q0 -170 -119 -275q-121 -104 -315 -104q-78 0 -156 21v297h84q97 0 97 100z" />
    <glyph glyph-name="uni0136" unicode="&#x136;" horiz-adv-x="1622" 
d="M1569 1454l-549 -713l612 -741h-557l-375 477l-145 205v-682h-442v1454h442v-678l143 209l361 469h510zM776 -369l-160 54v200h359v-245q0 -126 -105 -206q-106 -79 -280 -79v153q98 0 142 29t44 94z" />
    <glyph glyph-name="uni0137" unicode="&#x137;" horiz-adv-x="1343" 
d="M1303 1065l-379 -502l460 -563h-518l-272 354l-92 133v-487h-410v1567h410v-983l92 135l258 346h451zM651 -369l-159 54v200h358v-245q0 -126 -105 -206q-106 -79 -280 -79v153q98 0 142 29t44 94z" />
    <glyph glyph-name="kgreenlandic" unicode="&#x138;" horiz-adv-x="1343" 
d="M1303 1065l-379 -502l460 -563h-518l-272 354l-92 133v-487h-410v1065h410v-481l92 135l258 346h451z" />
    <glyph glyph-name="Lacute" unicode="&#x139;" horiz-adv-x="1245" 
d="M250 1956h356l-147 -369h-281zM553 1454v-1085h651v-369h-1091v1454h440z" />
    <glyph glyph-name="lacute" unicode="&#x13a;" horiz-adv-x="681" 
d="M213 2028h356l-147 -369h-281zM608 297h43v-297q-92 -20 -196 -20q-164 0 -263 101q-100 100 -100 267v1219h410v-1164q0 -106 106 -106z" />
    <glyph glyph-name="uni013B" unicode="&#x13b;" horiz-adv-x="1245" 
d="M553 1454v-1085h651v-369h-1091v1454h440zM649 -369l-160 54v200h359v-245q0 -126 -105 -206q-106 -79 -280 -79v153q98 0 142 29t44 94z" />
    <glyph glyph-name="uni013C" unicode="&#x13c;" horiz-adv-x="681" 
d="M608 297h43v-297q-92 -20 -196 -20q-164 0 -263 101q-100 100 -100 267v1219h410v-1164q0 -106 106 -106zM360 -369l-159 54v200h358v-245q0 -126 -105 -206q-106 -79 -280 -79v153q98 0 142 29t44 94z" />
    <glyph glyph-name="Lcaron" unicode="&#x13d;" horiz-adv-x="1245" 
d="M553 1454v-1085h651v-369h-1091v1454h440zM1065 1454v-246q0 -127 -105 -205q-106 -79 -280 -79v153q98 0 142 29t44 94l-159 53v201h358z" />
    <glyph glyph-name="lcaron" unicode="&#x13e;" horiz-adv-x="681" 
d="M502 1567v-1164q0 -106 106 -106h43v-297q-92 -20 -196 -20q-164 0 -263 101q-100 100 -100 267v1219h410zM608 1366v201h359v-246q0 -127 -105 -206q-106 -79 -280 -79v154q99 0 142.5 28.5t43.5 94.5z" />
    <glyph glyph-name="Ldot" unicode="&#x13f;" horiz-adv-x="1245" 
d="M553 1454v-1085h651v-369h-1091v1454h440zM709 995h391v-391h-391v391z" />
    <glyph glyph-name="ldot" unicode="&#x140;" horiz-adv-x="1034" 
d="M502 1567v-1164q0 -106 106 -106h43v-297q-92 -20 -196 -20q-164 0 -263 101q-100 100 -100 267v1219h410zM604 565v391h391v-391h-391z" />
    <glyph glyph-name="Lslash" unicode="&#x141;" horiz-adv-x="1245" 
d="M553 565v-196h651v-369h-1091v412l-113 -47v356l113 47v686h440v-532l344 143v-356z" />
    <glyph glyph-name="lslash" unicode="&#x142;" horiz-adv-x="690" 
d="M682 1049v-367l-176 -127v-152q0 -106 106 -106h43v-297q-92 -20 -196 -20q-164 0 -263 101q-100 100 -100 267v49l-123 -86v367l123 86v803h410v-645z" />
    <glyph glyph-name="Nacute" unicode="&#x143;" horiz-adv-x="1736" 
d="M805 1956h356l-147 -369h-281zM1190 799v655h434v-1454h-770l-322 1272l15 -617v-655h-434v1454h774l317 -1251z" />
    <glyph glyph-name="nacute" unicode="&#x144;" horiz-adv-x="1300" 
d="M582 1567h356l-147 -369h-281zM877 1096q166 0 253 -92.5t87 -268.5v-735h-410v584q0 90 -32 130t-101 40q-90 0 -131 -47.5t-41 -153.5v-553h-410v1065h393v-283q40 144 144 230q104 84 248 84z" />
    <glyph glyph-name="uni0145" unicode="&#x145;" horiz-adv-x="1736" 
d="M1190 799v655h434v-1454h-770l-322 1272l15 -617v-655h-434v1454h774l317 -1251zM874 -369l-159 54v200h358v-245q0 -126 -105 -206q-106 -79 -280 -79v153q98 0 142 29t44 94z" />
    <glyph glyph-name="uni0146" unicode="&#x146;" horiz-adv-x="1300" 
d="M877 1096q166 0 253 -92.5t87 -268.5v-735h-410v584q0 90 -32 130t-101 40q-90 0 -131 -47.5t-41 -153.5v-553h-410v1065h393v-283q40 144 144 230q104 84 248 84zM635 -369l-160 54v200h359v-245q0 -126 -105 -206q-106 -79 -280 -79v153q98 0 142 29t44 94z" />
    <glyph glyph-name="Ncaron" unicode="&#x147;" horiz-adv-x="1736" 
d="M1151 1587h-524l-172 369h315l119 -311l119 311h315zM1190 799v655h434v-1454h-770l-322 1272l15 -617v-655h-434v1454h774l317 -1251z" />
    <glyph glyph-name="ncaron" unicode="&#x148;" horiz-adv-x="1300" 
d="M928 1198h-525l-172 369h316l119 -312l118 312h316zM877 1096q166 0 253 -92.5t87 -268.5v-735h-410v584q0 90 -32 130t-101 40q-90 0 -131 -47.5t-41 -153.5v-553h-410v1065h393v-283q40 144 144 230q104 84 248 84z" />
    <glyph glyph-name="napostrophe" unicode="&#x149;" horiz-adv-x="1699" 
d="M227 1147l-180 86v221h369v-276q0 -152 -105 -244q-107 -92 -291 -92v153q109 0 158 36t49 116zM1276 1096q166 0 253 -92.5t87 -268.5v-735h-410v584q0 90 -31.5 130t-101.5 40q-90 0 -131 -47.5t-41 -153.5v-553h-409v1065h393v-283q40 144 144 230q102 84 247 84z" />
    <glyph glyph-name="Eng" unicode="&#x14a;" horiz-adv-x="1736" 
d="M1190 799v655h434v-1515q0 -162 -121 -261q-122 -98 -317 -98q-86 0 -176 21v297h84q96 0 96 100v2h-336l-322 1272l15 -617v-655h-434v1454h774l317 -1251z" />
    <glyph glyph-name="eng" unicode="&#x14b;" horiz-adv-x="1300" 
d="M877 1096q166 0 253 -92.5t87 -268.5v-807q0 -170 -120 -275q-121 -104 -315 -104q-78 0 -155 21v297h84q96 0 96 106v611q0 90 -32 130t-101 40q-90 0 -131 -47.5t-41 -153.5v-553h-410v1065h393v-283q40 144 144 230q104 84 248 84z" />
    <glyph glyph-name="Omacron" unicode="&#x14c;" horiz-adv-x="1646" 
d="M530 1925h586v-307h-586v307zM1375 178q-211 -209 -552 -209t-552 209q-210 208 -210 549t210 549q211 209 552 209t552 -209q210 -208 210 -549t-210 -549zM586 435q73 -91 237 -91q165 0 238 91q74 92 74 292q0 199 -74 289t-238 90t-237.5 -90t-73.5 -289
q0 -200 74 -292z" />
    <glyph glyph-name="omacron" unicode="&#x14d;" horiz-adv-x="1282" 
d="M348 1536h586v-307h-586v307zM1069 124q-163 -155 -428 -155t-428 155q-162 154 -162 409q0 253 162 408q163 155 428 155t428 -155q162 -155 162 -408q0 -255 -162 -409zM511 341q41 -60 130 -60t130 60q40 59 40 192q0 132 -40 191q-41 60 -130 60t-130 -60
q-40 -59 -40 -191q0 -133 40 -192z" />
    <glyph glyph-name="Obreve" unicode="&#x14e;" horiz-adv-x="1646" 
d="M920 1956h245q0 -191 -88 -285t-253 -94q-166 0 -254.5 94t-88.5 285h246q0 -143 97 -143q48 -1 72 35t24 108zM1375 178q-211 -209 -552 -209t-552 209q-210 208 -210 549t210 549q211 209 552 209t552 -209q210 -208 210 -549t-210 -549zM586 435q73 -91 237 -91
q165 0 238 91q74 92 74 292q0 199 -74 289t-238 90t-237.5 -90t-73.5 -289q0 -200 74 -292z" />
    <glyph glyph-name="obreve" unicode="&#x14f;" horiz-adv-x="1282" 
d="M737 1567h246q0 -191 -88 -285t-254 -94t-254 94t-88 285h246q0 -143 96 -143q48 -1 72 35t24 108zM1069 124q-163 -155 -428 -155t-428 155q-162 154 -162 409q0 253 162 408q163 155 428 155t428 -155q162 -155 162 -408q0 -255 -162 -409zM511 341q41 -60 130 -60
t130 60q40 59 40 192q0 132 -40 191q-41 60 -130 60t-130 -60q-40 -59 -40 -191q0 -133 40 -192z" />
    <glyph glyph-name="Ohungarumlaut" unicode="&#x150;" horiz-adv-x="1646" 
d="M504 1587l71 369h306l-97 -369h-280zM862 1587l72 369h356l-147 -369h-281zM1375 178q-211 -209 -552 -209t-552 209q-210 208 -210 549t210 549q211 209 552 209t552 -209q210 -208 210 -549t-210 -549zM586 435q73 -91 237 -91q165 0 238 91q74 92 74 292
q0 199 -74 289t-238 90t-237.5 -90t-73.5 -289q0 -200 74 -292z" />
    <glyph glyph-name="ohungarumlaut" unicode="&#x151;" horiz-adv-x="1282" 
d="M315 1198l72 369h305l-96 -369h-281zM674 1198l71 369h357l-148 -369h-280zM1069 124q-163 -155 -428 -155t-428 155q-162 154 -162 409q0 253 162 408q163 155 428 155t428 -155q162 -155 162 -408q0 -255 -162 -409zM511 341q41 -60 130 -60t130 60q40 59 40 192
q0 132 -40 191q-41 60 -130 60t-130 -60q-40 -59 -40 -191q0 -133 40 -192z" />
    <glyph glyph-name="OE" unicode="&#x152;" horiz-adv-x="2277" 
d="M1483 567v-198h692v-369h-1362q-337 0 -545 200q-207 200 -207 527q0 329 207 528q206 199 545 199h1360v-369h-690v-190h659v-328h-659zM827 358h215v727h-215q-315 0 -315 -358q0 -369 315 -369z" />
    <glyph glyph-name="oe" unicode="&#x153;" horiz-adv-x="1998" 
d="M1948 586v-148h-721q12 -88 54 -128t120 -40q76 0 114 24t37 71l390 4q0 -181 -154 -290q-155 -110 -404 -110q-227 0 -368 146q-144 -144 -375 -146q-265 0 -428 155q-162 154 -162 409q0 253 162 408q163 155 428 155q229 0 375 -146q140 144 368 146q254 0 409 -140
q155 -141 155 -370zM1227 635l186 4h131q-8 81 -46.5 118.5t-113.5 37.5q-132 0 -157 -160zM511 341q41 -60 130 -60t130 60q40 59 40 192q0 132 -40 191q-41 60 -130 60t-130 -60q-40 -59 -40 -191q0 -133 40 -192z" />
    <glyph glyph-name="Racute" unicode="&#x154;" horiz-adv-x="1531" 
d="M668 1956h356l-147 -369h-281zM1542 0h-493l-277 510h-219v-510h-440v1454h827q213 0 342 -126t129 -331q0 -289 -211 -419l127 -187zM799 1116h-246v-299h246q84 0 123 37t39 119q0 75 -39 109t-123 34z" />
    <glyph glyph-name="racute" unicode="&#x155;" horiz-adv-x="903" 
d="M428 1567h356l-147 -369h-281zM784 1096q58 0 99 -15v-393h-236q-76 0 -110.5 -41t-34.5 -131v-516h-410v1065h393v-342q18 167 101 271q82 102 198 102z" />
    <glyph glyph-name="uni0156" unicode="&#x156;" horiz-adv-x="1531" 
d="M1200 578l127 -187l215 -391h-493l-277 510h-219v-510h-440v1454h827q213 0 342 -126t129 -331q0 -289 -211 -419zM799 1116h-246v-299h246q84 0 123 37t39 119q0 75 -39 109t-123 34zM784 -369l-159 54v200h358v-245q0 -126 -105 -206q-106 -79 -280 -79v153
q98 0 142 29t44 94z" />
    <glyph glyph-name="uni0157" unicode="&#x157;" horiz-adv-x="903" 
d="M784 1096q58 0 99 -15v-393h-236q-76 0 -110.5 -41t-34.5 -131v-516h-410v1065h393v-342q18 167 101 271q82 102 198 102zM276 -369l-159 54v200h358v-245q0 -126 -105 -206q-106 -79 -280 -79v153q98 0 142 29t44 94z" />
    <glyph glyph-name="Rcaron" unicode="&#x158;" horiz-adv-x="1531" 
d="M1014 1587h-525l-172 369h316l119 -311l118 311h316zM1542 0h-493l-277 510h-219v-510h-440v1454h827q213 0 342 -126t129 -331q0 -289 -211 -419l127 -187zM799 1116h-246v-299h246q84 0 123 37t39 119q0 75 -39 109t-123 34z" />
    <glyph glyph-name="rcaron" unicode="&#x159;" horiz-adv-x="903" 
d="M774 1198h-524l-172 369h315l119 -312l119 312h315zM485 1065v-342q18 167 102 271q83 102 197 102q58 0 99 -15v-393h-236q-76 0 -110.5 -41t-34.5 -131v-516h-410v1065h393z" />
    <glyph glyph-name="Sacute" unicode="&#x15a;" horiz-adv-x="1447" 
d="M575 1587l72 369h357l-148 -369h-281zM1219 100q-190 -131 -496 -131t-494 137t-188 359h430q0 -84 60.5 -121t193.5 -37q231 0 231 86q0 32 -13 49q-13 16 -78 39q-69 22 -197 41q-320 51 -456 162q-138 111 -138 311q0 218 182 355q181 135 479 135q288 0 463 -136
q176 -137 176 -360h-430q0 84 -50 121t-163 37q-207 0 -207 -90q0 -46 59 -75q56 -27 232 -56q328 -51 460 -165t132 -315q0 -215 -188 -346z" />
    <glyph glyph-name="sacute" unicode="&#x15b;" horiz-adv-x="1150" 
d="M426 1198l72 369h356l-147 -369h-281zM565 -31q-244 0 -392 100q-148 99 -148 261h389q0 -96 153 -97q142 0 144 62q0 35 -39 53q-40 17 -170 29q-233 20 -344 103t-111 241q0 169 144 272q142 103 376 103q232 0 374 -103t142 -274h-389q0 113 -129 113
q-129 -2 -129 -66q0 -39 44 -57q41 -18 171 -29q248 -20 359 -102q110 -83 110 -234q0 -170 -152 -272q-152 -103 -403 -103z" />
    <glyph glyph-name="Scircumflex" unicode="&#x15c;" horiz-adv-x="1447" 
d="M850 1587l-119 311l-119 -311h-315l172 369h524l172 -369h-315zM815 926q328 -51 460 -165t132 -315q0 -215 -188 -346q-190 -131 -496 -131t-494 137t-188 359h430q0 -84 60.5 -121t193.5 -37q231 0 231 86q0 32 -13 49q-13 16 -78 39q-69 22 -197 41q-320 51 -456 162
q-138 111 -138 311q0 218 182 355q181 135 479 135q288 0 463 -136q176 -137 176 -360h-430q0 84 -50 121t-163 37q-207 0 -207 -90q0 -47 59 -74q59 -29 232 -57z" />
    <glyph glyph-name="scircumflex" unicode="&#x15d;" horiz-adv-x="1150" 
d="M700 1198l-118 311l-119 -311h-316l172 369h525l172 -369h-316zM651 680q248 -20 359 -102q110 -83 110 -234q0 -170 -152 -272q-152 -103 -403 -103q-244 0 -392 100q-148 99 -148 261h389q0 -96 153 -97q142 0 144 62q0 35 -39 53q-40 17 -170 29q-233 20 -344 103
t-111 241q0 169 144 272q142 103 376 103q232 0 374 -103t142 -274h-389q0 113 -129 113q-129 -2 -129 -66q0 -39 44 -57q41 -18 171 -29z" />
    <glyph glyph-name="Scedilla" unicode="&#x15e;" horiz-adv-x="1447" 
d="M1407 446q0 -191 -148 -315q-150 -126 -403 -154l-29 -77h11q78 0 125 -45t47 -121q0 -81 -53 -134q-54 -51 -140 -51h-256v152h166q43 0 43 33t-43 33h-147v124l36 82q-265 26 -419 157q-156 132 -156 335h430q0 -84 60.5 -121t193.5 -37q231 0 231 86q0 32 -13 49
q-13 16 -78 39q-69 22 -197 41q-320 51 -456 162q-138 111 -138 311q0 218 182 355q181 135 479 135q288 0 463 -136q176 -137 176 -360h-430q0 84 -50 121t-163 37q-207 0 -207 -90q0 -46 59 -75q56 -27 232 -56q328 -51 460 -165t132 -315z" />
    <glyph glyph-name="scedilla" unicode="&#x15f;" horiz-adv-x="1150" 
d="M1120 344q0 -144 -113 -242q-115 -98 -309 -125l-30 -77h10q78 0 125 -45t47 -121q0 -81 -53 -134q-54 -51 -140 -51h-256v152h166q43 0 43 33t-43 33h-147v124l37 84q-199 23 -315 117q-117 94 -117 238h389q0 -96 153 -97q142 0 144 62q0 35 -39 53q-40 17 -170 29
q-233 20 -344 103t-111 241q0 169 144 272q142 103 376 103q232 0 374 -103t142 -274h-389q0 113 -129 113q-129 -2 -129 -66q0 -39 44 -57q41 -18 171 -29q248 -20 359 -102q110 -83 110 -234z" />
    <glyph glyph-name="Scaron" unicode="&#x160;" horiz-adv-x="1447" 
d="M993 1587h-524l-172 369h315l119 -311l119 311h315zM815 926q328 -51 460 -165t132 -315q0 -215 -188 -346q-190 -131 -496 -131t-494 137t-188 359h430q0 -84 60.5 -121t193.5 -37q231 0 231 86q0 32 -13 49q-13 16 -78 39q-69 22 -197 41q-320 51 -456 162
q-138 111 -138 311q0 218 182 355q181 135 479 135q288 0 463 -136q176 -137 176 -360h-430q0 84 -50 121t-163 37q-207 0 -207 -90q0 -47 59 -74q59 -29 232 -57z" />
    <glyph glyph-name="scaron" unicode="&#x161;" horiz-adv-x="1150" 
d="M844 1198h-525l-172 369h316l119 -312l118 312h316zM651 680q248 -20 359 -102q110 -83 110 -234q0 -170 -152 -272q-152 -103 -403 -103q-244 0 -392 100q-148 99 -148 261h389q0 -96 153 -97q142 0 144 62q0 35 -39 53q-40 17 -170 29q-233 20 -344 103t-111 241
q0 169 144 272q142 103 376 103q232 0 374 -103t142 -274h-389q0 113 -129 113q-129 -2 -129 -66q0 -39 44 -57q41 -18 171 -29z" />
    <glyph glyph-name="uni0162" unicode="&#x162;" horiz-adv-x="1370" 
d="M905 1085v-1085h-94l-39 -100h10q78 0 125 -45t47 -121q0 -81 -53 -134q-53 -51 -139 -51h-256v152h166q43 0 43 33t-43 33h-148v124l47 109h-106v1085h-445v369h1330v-369h-445z" />
    <glyph glyph-name="uni0163" unicode="&#x163;" horiz-adv-x="983" 
d="M942 297v-297q-106 -15 -227 -20l-31 -80h10q78 0 125 -45t47 -121q0 -81 -53 -134q-52 -51 -139 -51h-256v152h166q43 0 43 33t-43 33h-148v124l47 109q-133 37 -208.5 131.5t-75.5 226.5v400h-195v307h197l8 309h399v-309h332v-307h-332v-355q0 -106 107 -106h227z" />
    <glyph glyph-name="Tcaron" unicode="&#x164;" horiz-adv-x="1370" 
d="M948 1587h-524l-172 369h315l119 -311l119 311h315zM20 1454h1330v-369h-445v-1085h-440v1085h-445v369z" />
    <glyph glyph-name="tcaron" unicode="&#x165;" horiz-adv-x="983" 
d="M725 1487v201h358v-246q0 -126 -105 -206q-106 -79 -280 -79v154q99 0 143 28.5t44 94.5zM608 758v-355q0 -106 107 -106h227v-297q-151 -20 -299 -20q-200 0 -322 104t-122 274v400h-195v307h197l8 309h399v-309h332v-307h-332z" />
    <glyph glyph-name="Tbar" unicode="&#x166;" horiz-adv-x="1370" 
d="M1350 1454v-369h-445v-215h369v-286h-369v-584h-440v584h-369v286h369v215h-445v369h1330z" />
    <glyph glyph-name="tbar" unicode="&#x167;" horiz-adv-x="983" 
d="M715 297h227v-297q-151 -20 -299 -20q-200 0 -322 104t-122 274v62h-195v225h195v113h-195v307h197l8 309h399v-309h332v-307h-332v-113h332v-225h-332v-17q1 -106 107 -106z" />
    <glyph glyph-name="Utilde" unicode="&#x168;" horiz-adv-x="1556" 
d="M924 1604q-59 0 -143 42q-85 42 -130 42q-82 0 -82 -80h-184q0 173 60 257.5t186 84.5q59 0 143 -42t129 -42q82 0 82 80h184q0 -176 -57.5 -259t-187.5 -83zM102 528v926h441v-876q0 -121 55 -175.5t180 -54.5t180.5 54.5t55.5 175.5v876h440v-926q0 -252 -185 -405
q-185 -154 -491 -154t-490 154q-186 153 -186 405z" />
    <glyph glyph-name="utilde" unicode="&#x169;" horiz-adv-x="1300" 
d="M524 1298q-82 0 -82 -79h-184q0 173 60 257.5t186 84.5q59 0 143 -42t129 -42q82 0 82 79h184q0 -176 -57.5 -259t-187.5 -83q-59 0 -143 42q-85 42 -130 42zM799 512v553h409v-1065h-393v256q-45 -134 -145 -210q-101 -77 -238 -77q-166 0 -253 92.5t-87 268.5v735h410
v-584q0 -88 30.5 -129t98.5 -41q88 0 128 47.5t40 153.5z" />
    <glyph glyph-name="Umacron" unicode="&#x16a;" horiz-adv-x="1556" 
d="M485 1925h586v-307h-586v307zM102 528v926h441v-876q0 -121 55 -175.5t180 -54.5t180.5 54.5t55.5 175.5v876h440v-926q0 -252 -185 -405q-185 -154 -491 -154t-490 154q-186 153 -186 405z" />
    <glyph glyph-name="umacron" unicode="&#x16b;" horiz-adv-x="1300" 
d="M358 1536h586v-307h-586v307zM799 512v553h409v-1065h-393v256q-45 -134 -145 -210q-101 -77 -238 -77q-166 0 -253 92.5t-87 268.5v735h410v-584q0 -88 30.5 -129t98.5 -41q88 0 128 47.5t40 153.5z" />
    <glyph glyph-name="Ubreve" unicode="&#x16c;" horiz-adv-x="1556" 
d="M874 1956h246q0 -191 -88 -285t-254 -94t-254 94t-88 285h246q0 -143 96 -143q48 -1 72 35t24 108zM102 528v926h441v-876q0 -121 55 -175.5t180 -54.5t180.5 54.5t55.5 175.5v876h440v-926q0 -252 -185 -405q-185 -154 -491 -154t-490 154q-186 153 -186 405z" />
    <glyph glyph-name="ubreve" unicode="&#x16d;" horiz-adv-x="1300" 
d="M903 1280q-90 -92 -252 -92t-252 92t-90 287h246q0 -143 97 -143q48 -1 72 35t24 108h245q0 -195 -90 -287zM799 512v553h409v-1065h-393v256q-45 -134 -145 -210q-101 -77 -238 -77q-166 0 -253 92.5t-87 268.5v735h410v-584q0 -88 30.5 -129t98.5 -41q88 0 128 47.5
t40 153.5z" />
    <glyph glyph-name="Uring" unicode="&#x16e;" horiz-adv-x="1556" 
d="M940 1630q-62 -53 -161 -53q-100 0 -162 53t-62 142q0 88 62 141t162 53q99 0 161 -53q61 -52 61 -141q0 -90 -61 -142zM713 1772q0 -58 66 -58q65 0 65 58q0 57 -65 57q-66 0 -66 -57zM102 528v926h441v-876q0 -121 55 -175.5t180 -54.5t180.5 54.5t55.5 175.5v876h440
v-926q0 -252 -185 -405q-185 -154 -491 -154t-490 154q-186 153 -186 405z" />
    <glyph glyph-name="uring" unicode="&#x16f;" horiz-adv-x="1300" 
d="M813 1241q-62 -53 -161 -53q-100 0 -162 53t-62 141t62 142q62 53 162 53q99 0 161 -53q61 -54 61 -142q0 -89 -61 -141zM717 1383q0 57 -65 57q-66 0 -66 -57q0 -58 66 -58q65 0 65 58zM799 512v553h409v-1065h-393v256q-45 -134 -145 -210q-101 -77 -238 -77
q-166 0 -253 92.5t-87 268.5v735h410v-584q0 -88 30.5 -129t98.5 -41q88 0 128 47.5t40 153.5z" />
    <glyph glyph-name="Uhungarumlaut" unicode="&#x170;" horiz-adv-x="1556" 
d="M459 1587l71 369h306l-97 -369h-280zM817 1587l72 369h356l-147 -369h-281zM102 528v926h441v-876q0 -121 55 -175.5t180 -54.5t180.5 54.5t55.5 175.5v876h440v-926q0 -252 -185 -405q-185 -154 -491 -154t-490 154q-186 153 -186 405z" />
    <glyph glyph-name="uhungarumlaut" unicode="&#x171;" horiz-adv-x="1300" 
d="M397 1567h305l-96 -369h-280zM1112 1567l-147 -369h-281l72 369h356zM799 512v553h409v-1065h-393v256q-45 -134 -145 -210q-101 -77 -238 -77q-166 0 -253 92.5t-87 268.5v735h410v-584q0 -88 30.5 -129t98.5 -41q88 0 128 47.5t40 153.5z" />
    <glyph glyph-name="Uogonek" unicode="&#x172;" horiz-adv-x="1556" 
d="M1014 578v876h440v-926q0 -197 -115 -336t-319 -192l-90 -129q-25 -32 -25 -55q0 -37 47 -37h95v-230h-304q-78 0 -118.5 38t-40.5 102q0 75 55 151l94 129q-287 12 -459 165t-172 394v926h441v-876q0 -121 55 -175.5t180 -54.5t180.5 54.5t55.5 175.5z" />
    <glyph glyph-name="uogonek" unicode="&#x173;" horiz-adv-x="1300" 
d="M1141 -221h94v-230h-303q-78 0 -119 38t-41 102q0 75 55 151l117 160h-129v256q-45 -134 -145 -210q-101 -77 -238 -77q-166 0 -253 92.5t-87 268.5v735h410v-584q0 -88 30.5 -129t98.5 -41q88 0 128 47.5t40 153.5v553h409v-1065l-90 -129q-25 -33 -24 -55q0 -37 47 -37
z" />
    <glyph glyph-name="Wcircumflex" unicode="&#x174;" horiz-adv-x="2504" 
d="M1372 1587l-119 311l-118 -311h-316l172 369h525l172 -369h-316zM1817 471l161 983h506l-297 -1454h-745l-146 862l-43 326l-45 -326l-145 -862h-746l-297 1454h506l162 -983l37 -268l31 268l155 983h682l156 -983l31 -268z" />
    <glyph glyph-name="wcircumflex" unicode="&#x175;" horiz-adv-x="1896" 
d="M1081 1198l-118 311l-119 -311h-316l172 369h525l172 -369h-316zM1403 465l90 600h393l-186 -1065h-633l-86 588l-23 229l-24 -229l-86 -588h-651l-187 1065h424l92 -600l29 -270l23 270l73 600h627l74 -600l22 -264z" />
    <glyph glyph-name="Ycircumflex" unicode="&#x176;" horiz-adv-x="1499" 
d="M889 1587l-119 311l-119 -311h-315l172 369h524l172 -369h-315zM1063 1454h461l-555 -1098v-356h-441v356l-553 1098h482l205 -436l100 -262l100 262z" />
    <glyph glyph-name="ycircumflex" unicode="&#x177;" horiz-adv-x="1269" 
d="M758 1198l-119 311l-119 -311h-315l172 369h524l172 -369h-315zM700 465l140 600h420l-287 -1159q-39 -154 -168 -240q-130 -86 -316 -86q-147 0 -299 21v297h228q155 0 174 88l4 14h-322l-264 1065h428l137 -600l62 -320z" />
    <glyph glyph-name="Ydieresis" unicode="&#x178;" horiz-adv-x="1499" 
d="M383 1935h348v-329h-348v329zM807 1935h348v-329h-348v329zM1063 1454h461l-555 -1098v-356h-441v356l-553 1098h482l205 -436l100 -262l100 262z" />
    <glyph glyph-name="Zacute" unicode="&#x179;" horiz-adv-x="1400" 
d="M643 1956h356l-147 -369h-281zM186 360l318 9h815v-369h-1237v674l1102 418l-305 -7h-787v369h1223v-663z" />
    <glyph glyph-name="zacute" unicode="&#x17a;" horiz-adv-x="1067" 
d="M455 1567h356l-147 -369h-281zM289 301l305 10h401v-311h-913v545l711 219l-320 -10h-381v311h893v-549z" />
    <glyph glyph-name="Zdotaccent" unicode="&#x17b;" horiz-adv-x="1400" 
d="M512 1935h430v-329h-430v329zM186 360l318 9h815v-369h-1237v674l1102 418l-305 -7h-787v369h1223v-663z" />
    <glyph glyph-name="zdotaccent" unicode="&#x17c;" horiz-adv-x="1067" 
d="M324 1546h430v-329h-430v329zM289 301l305 10h401v-311h-913v545l711 219l-320 -10h-381v311h893v-549z" />
    <glyph glyph-name="Zcaron" unicode="&#x17d;" horiz-adv-x="1400" 
d="M989 1587h-524l-172 369h315l119 -311l119 311h315zM186 360l318 9h815v-369h-1237v674l1102 418l-305 -7h-787v369h1223v-663z" />
    <glyph glyph-name="zcaron" unicode="&#x17e;" horiz-adv-x="1067" 
d="M801 1198h-525l-172 369h316l119 -312l118 312h316zM289 301l305 10h401v-311h-913v545l711 219l-320 -10h-381v311h893v-549z" />
    <glyph glyph-name="uni018F" unicode="&#x18f;" horiz-adv-x="1589" 
d="M786 1485q334 0 538 -209q204 -208 204 -549t-204 -549q-204 -209 -538 -209q-311 0 -502 158q-192 157 -192 418v260h983q-12 158 -80.5 229.5t-208.5 71.5q-138 0 -200 -48t-62 -155h-430q0 270 201 426q199 156 491 156zM786 340q217 0 271 199h-535
q2 -104 64.5 -151.5t199.5 -47.5z" />
    <glyph glyph-name="florin" unicode="&#x192;" horiz-adv-x="1058" 
d="M1026 1270h-227q-105 0 -125 -107l-17 -98h330l-53 -307h-332l-203 -1157h-409l203 1157h-195l53 307h197l24 143q29 170 170 275q140 104 340 104q146 0 297 -20z" />
    <glyph glyph-name="uni019D" unicode="&#x19d;" horiz-adv-x="1736" 
d="M1190 799v655h434v-1454h-770l-322 1272l15 -617v-716q0 -162 -121 -261q-122 -98 -317 -98q-85 0 -177 21v297h84q96 0 97 100v1456h774l317 -1251z" />
    <glyph glyph-name="Gcaron" unicode="&#x1e6;" horiz-adv-x="1636" 
d="M1085 1587h-524l-172 369h316l118 -311l119 311h315zM762 526v287h772v-813h-389v375q-37 -198 -153 -302t-308 -104q-284 0 -453 199q-170 200 -170 539q0 354 209 566t553 212q316 0 509 -160q194 -161 194 -422h-430q0 106 -64.5 154.5t-208.5 48.5q-164 0 -237.5 -90
t-73.5 -289q0 -205 73.5 -297t237.5 -92q139 0 204 44t71 144h-336z" />
    <glyph glyph-name="gcaron" unicode="&#x1e7;" horiz-adv-x="1220" 
d="M852 1198h-524l-172 369h315l119 -312l119 312h315zM1247 1300v-296q-181 0 -219 -39q111 -97 111 -250q0 -169 -147 -276q-149 -107 -402 -107q-122 0 -219 24v-14q0 -74 131 -74h362q171 0 274 -82t103 -217q0 -176 -167 -283q-166 -106 -458 -106q-283 0 -445 69
q-163 70 -163 187q0 60 43 104t115 58q-104 77 -105 178q0 154 168 236q-188 107 -188 303q0 174 147 278q145 103 402 103q152 0 272 -39q17 126 105 184q89 59 280 59zM590 598q75 0 107 27t32 90q0 60 -32.5 87t-106.5 27q-79 0 -110 -26t-31 -88q0 -64 30.5 -90.5
t110.5 -26.5zM766 -55h-401q-1 -7 -3 -29q0 -67 52 -89q50 -22 202 -22q149 0 197 16q49 16 49 66q0 33 -21 45.5t-75 12.5z" />
    <glyph glyph-name="uni01EA" unicode="&#x1ea;" horiz-adv-x="1646" 
d="M1061 0l-90 -129q-25 -32 -25 -55q0 -37 47 -37h94v-230h-303q-78 0 -118.5 38t-40.5 102q0 75 55 151l94 131q-322 16 -517 222q-196 205 -196 534q0 341 210 549q211 209 552 209t552 -209q210 -208 210 -549q0 -275 -140 -468q-139 -193 -384 -259zM512 727
q0 -201 73.5 -292t237.5 -91t238 91t74 292q0 199 -74 289t-238 90t-237.5 -90t-73.5 -289z" />
    <glyph glyph-name="uni01EB" unicode="&#x1eb;" horiz-adv-x="1282" 
d="M813 -10l-82 -119q-25 -33 -24 -55q0 -37 47 -37h94v-230h-303q-78 0 -119 38t-41 102q0 75 55 151l99 135q-223 28 -355 180q-133 149 -133 377q0 254 162 409q163 155 428 155t428 -155q162 -154 162 -409q0 -208 -112 -351q-113 -145 -306 -191zM511 724
q-40 -59 -40 -191q0 -133 40 -192q41 -60 130 -60t130 60q40 59 40 192q0 132 -40 191q-41 60 -130 60t-130 -60z" />
    <glyph glyph-name="Aringacute" unicode="&#x1fa;" horiz-adv-x="1660" 
d="M998 1631q-62 -54 -162 -54t-162 53t-62 142q0 88 62 141t162 53l34 174h295l-151 -244q45 -51 45 -124q0 -89 -61 -141zM901 1772q0 57 -65 57q-66 0 -66 -57q0 -58 66 -58q65 0 65 58zM1651 0h-461l-88 301h-553l-88 -301h-451l430 1454h781zM745 983l-102 -350h365
l-103 350l-80 328z" />
    <glyph glyph-name="aringacute" unicode="&#x1fb;" horiz-adv-x="1196" 
d="M752 1241q-62 -53 -162 -53t-162 53q-61 52 -61 141q0 88 61 142q62 53 162 53l35 174h295l-152 -244q45 -51 45 -125q0 -89 -61 -141zM655 1383q0 57 -65 57q-66 0 -66 -57q0 -58 66 -58q65 0 65 58zM1178 287h2v-287q-78 -20 -174 -20q-288 0 -310 204
q-45 -97 -138 -155q-93 -60 -218 -60q-138 0 -224 72q-85 72 -85 190q0 115 81 189t232 98q294 50 338 70v51q0 78 -24.5 111.5t-82.5 33.5q-59 0 -84.5 -40.5t-25.5 -133.5h-387q0 220 141 354q141 132 371 132q218 0 349 -121q132 -122 132 -320v-243q0 -82 18 -103
q16 -22 89 -22zM535 233q68 0 107.5 42t39.5 124v31q-46 -16 -131 -37q-74 -17 -98 -35q-23 -18 -23 -57q2 -68 105 -68z" />
    <glyph glyph-name="AEacute" unicode="&#x1fc;" horiz-adv-x="2215" 
d="M1139 1956h356l-147 -369h-281zM1483 567l59 -198h572v-369h-924l-88 301h-553l-88 -301h-451l430 1454h1671v-369h-782l57 -190h695v-328h-598zM745 983l-102 -350h365l-103 350l-80 328z" />
    <glyph glyph-name="aeacute" unicode="&#x1fd;" horiz-adv-x="1880" 
d="M862 1567h357l-148 -369h-280zM1829 586v-148h-721q12 -88 54 -128t120 -40q152 0 152 95l389 4q0 -181 -153 -290q-155 -110 -404 -110q-326 0 -480 244q-44 -108 -152 -176q-106 -68 -253 -68q-164 0 -257 72t-93 190q0 115 81 189t232 98q294 50 338 70v51
q0 78 -24.5 111.5t-82.5 33.5q-59 0 -84.5 -40.5t-25.5 -133.5h-387q0 220 141 353q140 133 371 133q194 0 313 -115q146 115 363 115q254 0 409 -140q154 -141 154 -370zM1108 635l186 4h131q-8 81 -47 118.5t-112 37.5q-133 0 -158 -160zM535 233q68 0 107.5 42t39.5 124
v31q-46 -16 -131 -37q-74 -17 -98 -35q-23 -18 -23 -57q2 -68 105 -68z" />
    <glyph glyph-name="Oslashacute" unicode="&#x1fe;" horiz-adv-x="1646" 
d="M739 1956h357l-148 -369h-280zM1532 1567l-164 -283q217 -211 217 -557q0 -341 -210 -549q-211 -209 -552 -209q-101 0 -207 23l-77 -135h-422l174 301q-229 211 -230 569q0 341 210 549q211 209 552 209q123 0 224 -27l63 109h422zM512 727q0 -101 16 -164l314 543h-19
q-164 0 -237.5 -90t-73.5 -289zM821 344h2q164 0 238 91t74 292q0 66 -11 137z" />
    <glyph glyph-name="oslashacute" unicode="&#x1ff;" horiz-adv-x="1282" 
d="M557 1567h356l-147 -369h-281zM1245 1188l-170 -252q156 -156 156 -404q0 -254 -162 -408q-163 -155 -428 -155q-103 0 -203 27l-94 -139h-311l180 266q-162 158 -162 409q0 254 162 409q163 155 428 155q115 0 211 -31l82 123h311zM471 532v-28l188 280h-18
q-90 0 -130 -60t-40 -192zM631 281h10q90 0 130 59.5t40 191.5v15z" />
    <glyph glyph-name="uni0218" unicode="&#x218;" horiz-adv-x="1447" 
d="M1219 100q-190 -131 -496 -131t-494 137t-188 359h430q0 -84 60.5 -121t193.5 -37q231 0 231 86q0 32 -13 49q-13 16 -78 39q-69 22 -197 41q-320 51 -456 162q-138 111 -138 311q0 218 182 355q181 135 479 135q288 0 463 -136q176 -137 176 -360h-430q0 84 -50 121
t-163 37q-207 0 -207 -90q0 -46 59 -75q56 -27 232 -56q328 -51 460 -165t132 -315q0 -215 -188 -346zM561 -315v200h359v-245q0 -126 -105 -206q-106 -79 -280 -79v153q98 0 142 29t44 94z" />
    <glyph glyph-name="uni0219" unicode="&#x219;" horiz-adv-x="1150" 
d="M565 -31q-244 0 -392 100q-148 99 -148 261h389q0 -96 153 -97q142 0 144 62q0 35 -39 53q-40 17 -170 29q-233 20 -344 103t-111 241q0 169 144 272q142 103 376 103q232 0 374 -103t142 -274h-389q0 113 -129 113q-129 -2 -129 -66q0 -39 44 -57q41 -18 171 -29
q248 -20 359 -102q110 -83 110 -234q0 -170 -152 -272q-152 -103 -403 -103zM401 -315v200h359v-245q0 -126 -105 -206q-106 -79 -280 -79v153q98 0 142 29t44 94z" />
    <glyph glyph-name="uni021A" unicode="&#x21a;" horiz-adv-x="1370" 
d="M20 1454h1330v-369h-445v-1085h-440v1085h-445v369zM666 -369l-160 54v200h358v-245q0 -126 -105 -206q-106 -79 -280 -79v153q98 0 142.5 29t44.5 94z" />
    <glyph glyph-name="uni021B" unicode="&#x21b;" horiz-adv-x="983" 
d="M715 297h227v-297q-151 -20 -299 -20q-200 0 -322 104t-122 274v400h-195v307h197l8 309h399v-309h332v-307h-332v-355q1 -106 107 -106zM578 -369l-160 54v200h358v-245q0 -126 -105 -206q-106 -79 -280 -79v153q98 0 142.5 29t44.5 94z" />
    <glyph glyph-name="uni0232" unicode="&#x232;" horiz-adv-x="1499" 
d="M477 1925h586v-307h-586v307zM1063 1454h461l-555 -1098v-356h-441v356l-553 1098h482l205 -436l100 -262l100 262z" />
    <glyph glyph-name="uni0233" unicode="&#x233;" horiz-adv-x="1269" 
d="M346 1536h586v-307h-586v307zM700 465l140 600h420l-287 -1159q-39 -154 -168 -240q-130 -86 -316 -86q-147 0 -299 21v297h228q155 0 174 88l4 14h-322l-264 1065h428l137 -600l62 -320z" />
    <glyph glyph-name="uni0237" unicode="&#x237;" horiz-adv-x="593" 
d="M113 -2v1067h409v-1106q0 -170 -119 -275q-121 -104 -315 -104q-78 0 -156 21v297h84q96 0 97 100z" />
    <glyph glyph-name="uni0259" unicode="&#x259;" horiz-adv-x="1249" 
d="M614 1096q262 0 423 -155t161 -408q0 -255 -160 -409q-161 -155 -424 -155q-254 0 -408 141q-155 140 -155 369v127h723q-8 98 -51 143.5t-125 45.5q-152 0 -152 -109h-389q0 185 154 297q154 113 403 113zM614 270q125 0 154 140l-182 -4h-129q22 -136 157 -136z" />
    <glyph glyph-name="uni0272" unicode="&#x272;" horiz-adv-x="1320" 
d="M897 1096q166 0 253 -92.5t87 -268.5v-735h-410v584q0 90 -31.5 130t-101.5 40q-90 0 -131 -47.5t-41 -153.5v-625q0 -170 -119 -275q-121 -104 -315 -104q-78 0 -156 21v297h84q96 0 97 106v1092h393v-283q40 144 144 230q102 84 247 84z" />
    <glyph glyph-name="circumflex" unicode="&#x2c6;" horiz-adv-x="1052" 
d="M264 1567h524l173 -369h-316l-119 311l-118 -311h-316z" />
    <glyph glyph-name="caron" unicode="&#x2c7;" horiz-adv-x="1052" 
d="M526 1255l119 312h316l-173 -369h-524l-172 369h316z" />
    <glyph glyph-name="breve" unicode="&#x2d8;" horiz-adv-x="868" 
d="M530 1567h246q0 -191 -88 -285t-254 -94t-254 94t-88 285h246q0 -143 96 -143q48 -1 72 35t24 108z" />
    <glyph glyph-name="dotaccent" unicode="&#x2d9;" horiz-adv-x="614" 
d="M92 1217v329h430v-329h-430z" />
    <glyph glyph-name="ring" unicode="&#x2da;" horiz-adv-x="569" 
d="M447 1241q-62 -53 -162 -53t-162 53t-62 141t62 142q62 53 162 53t162 -53q61 -54 61 -142q0 -89 -61 -141zM219 1383q0 -58 66 -58q65 0 65 58q0 57 -65 57q-66 0 -66 -57z" />
    <glyph glyph-name="ogonek" unicode="&#x2db;" horiz-adv-x="647" 
d="M555 -221v-230h-303q-78 0 -119 38t-41 102q0 75 55 151l117 160h264l-90 -129q-25 -33 -24 -55q0 -37 47 -37h94z" />
    <glyph glyph-name="tilde" unicode="&#x2dc;" horiz-adv-x="948" 
d="M621 1214q-59 0 -143 42q-85 42 -130 42q-82 0 -82 -79h-184q0 173 60 257.5t186 84.5q59 0 143 -42t129 -42q82 0 82 79h184q0 -176 -57.5 -259t-187.5 -83z" />
    <glyph glyph-name="hungarumlaut" unicode="&#x2dd;" horiz-adv-x="970" 
d="M92 1198l72 369h305l-96 -369h-281zM451 1198l71 369h357l-148 -369h-280z" />
    <glyph glyph-name="gravecomb" unicode="&#x300;" horiz-adv-x="0" 
d="M-520 1567h356l72 -369h-281z" />
    <glyph glyph-name="acutecomb" unicode="&#x301;" horiz-adv-x="0" 
d="M-520 1198l71 369h357l-148 -369h-280z" />
    <glyph glyph-name="uni0302" unicode="&#x302;" horiz-adv-x="0" 
d="M-788 1567h524l172 -369h-316l-118 311l-119 -311h-316z" />
    <glyph glyph-name="tildecomb" unicode="&#x303;" horiz-adv-x="0" 
d="M-328 1214q-59 0 -143 42t-129 42q-82 0 -82 -79h-184q0 173 59.5 257.5t185.5 84.5q59 0 143 -42q85 -42 130 -42q82 0 82 79h184q0 -176 -58 -259t-188 -83z" />
    <glyph glyph-name="uni0304" unicode="&#x304;" horiz-adv-x="0" 
d="M-678 1536h586v-307h-586v307z" />
    <glyph glyph-name="uni0306" unicode="&#x306;" horiz-adv-x="0" 
d="M-338 1567h246q0 -191 -88 -285t-254 -94t-254 94t-88 285h246q0 -143 96 -143q48 -1 72 35t24 108z" />
    <glyph glyph-name="uni0307" unicode="&#x307;" horiz-adv-x="0" 
d="M-522 1217v329h430v-329h-430z" />
    <glyph glyph-name="uni0308" unicode="&#x308;" horiz-adv-x="0" 
d="M-864 1217v329h348v-329h-348zM-440 1217v329h348v-329h-348z" />
    <glyph glyph-name="uni030A" unicode="&#x30a;" horiz-adv-x="0" 
d="M-123 1241q-62 -53 -162 -53t-162 53q-61 52 -61 141q0 88 61 142q62 53 162 53t162 -53q62 -54 62 -142t-62 -141zM-350 1383q0 -58 65 -58q66 0 66 58q0 57 -66 57q-65 0 -65 -57z" />
    <glyph glyph-name="uni030B" unicode="&#x30b;" horiz-adv-x="0" 
d="M-879 1198l72 369h305l-96 -369h-281zM-520 1198l71 369h357l-148 -369h-280z" />
    <glyph glyph-name="uni030C" unicode="&#x30c;" horiz-adv-x="0" 
d="M-526 1255l118 312h316l-172 -369h-524l-173 369h316z" />
    <glyph glyph-name="uni0312" unicode="&#x312;" horiz-adv-x="0" 
d="M-119 1399v-201h-379v246q0 127 112 206t294 79v-154q-109 0 -158 -28.5t-49 -94.5z" />
    <glyph glyph-name="dotbelowcomb" unicode="&#x323;" horiz-adv-x="0" 
d="M-502 -444v329h430v-329h-430z" />
    <glyph glyph-name="uni0326" unicode="&#x326;" horiz-adv-x="0" 
d="M-461 -315v200h359v-245q0 -127 -106 -206q-104 -79 -279 -79v153q98 0 142 29t44 94z" />
    <glyph glyph-name="uni0327" unicode="&#x327;" horiz-adv-x="0" 
d="M-274 -100h10q78 0 125 -45t47 -121q0 -82 -54 -134q-52 -51 -139 -51h-256v152h166q43 0 43 33t-43 33h-147v124l47 109h239z" />
    <glyph glyph-name="uni0328" unicode="&#x328;" horiz-adv-x="0" 
d="M-92 -221v-230h-303q-78 0 -119 38t-41 102q0 75 55 151l117 160h264l-90 -129q-26 -35 -24 -55q0 -37 47 -37h94z" />
    <glyph glyph-name="uni0394" unicode="&#x394;" horiz-adv-x="1507" 
d="M362 1454h781l334 -1122v-332h-1446v332zM748 1311l-80 -328l-189 -651h539l-191 651z" />
    <glyph glyph-name="uni03A9" unicode="&#x3a9;" horiz-adv-x="1599" 
d="M1038 309l408 29h102v-338h-678v541q219 25 220 268q0 156 -69.5 226.5t-221.5 70.5t-221.5 -70.5t-69.5 -226.5q0 -244 221 -268v-541h-678v338h103l407 -29q-234 44 -368 193q-136 148 -136 368q0 276 204 446q203 169 538 169t538 -169q203 -170 203 -446
q0 -217 -135 -367q-134 -150 -367 -194z" />
    <glyph glyph-name="uni03BC" unicode="&#x3bc;" horiz-adv-x="1300" 
d="M799 512v553h409v-1065h-393v260q-41 -117 -128 -188.5t-206 -85.5v-385h-389v1464h410v-584q0 -88 30.5 -129t98.5 -41q88 0 128 47.5t40 153.5z" />
    <glyph glyph-name="pi" unicode="&#x3c0;" horiz-adv-x="1427" 
d="M1327 297h84v-297q-80 -20 -156 -20q-195 0 -314 104q-120 103 -120 274v400h-243v-758h-410v758h-178v307h1419v-307h-178v-361q0 -100 96 -100z" />
    <glyph glyph-name="Wgrave" unicode="&#x1e80;" horiz-adv-x="2504" 
d="M1329 1956l72 -369h-281l-147 369h356zM1817 471l161 983h506l-297 -1454h-745l-146 862l-43 326l-45 -326l-145 -862h-746l-297 1454h506l162 -983l37 -268l31 268l155 983h682l156 -983l31 -268z" />
    <glyph glyph-name="wgrave" unicode="&#x1e81;" horiz-adv-x="1896" 
d="M1042 1567l72 -369h-280l-148 369h356zM1403 465l90 600h393l-186 -1065h-633l-86 588l-23 229l-24 -229l-86 -588h-651l-187 1065h424l92 -600l29 -270l23 270l73 600h627l74 -600l22 -264z" />
    <glyph glyph-name="Wacute" unicode="&#x1e82;" horiz-adv-x="2504" 
d="M1169 1956h357l-148 -369h-280zM1817 471l161 983h506l-297 -1454h-745l-146 862l-43 326l-45 -326l-145 -862h-746l-297 1454h506l162 -983l37 -268l31 268l155 983h682l156 -983l31 -268z" />
    <glyph glyph-name="wacute" unicode="&#x1e83;" horiz-adv-x="1896" 
d="M879 1567h356l-148 -369h-280zM1403 465l90 600h393l-186 -1065h-633l-86 588l-23 229l-24 -229l-86 -588h-651l-187 1065h424l92 -600l29 -270l23 270l73 600h627l74 -600l22 -264z" />
    <glyph glyph-name="Wdieresis" unicode="&#x1e84;" horiz-adv-x="2504" 
d="M866 1935h348v-329h-348v329zM1290 1935h348v-329h-348v329zM1817 471l161 983h506l-297 -1454h-745l-146 862l-43 326l-45 -326l-145 -862h-746l-297 1454h506l162 -983l37 -268l31 268l155 983h682l156 -983l31 -268z" />
    <glyph glyph-name="wdieresis" unicode="&#x1e85;" horiz-adv-x="1896" 
d="M575 1546h349v-329h-349v329zM999 1546h349v-329h-349v329zM1403 465l90 600h393l-186 -1065h-633l-86 588l-23 229l-24 -229l-86 -588h-651l-187 1065h424l92 -600l29 -270l23 270l73 600h627l74 -600l22 -264z" />
    <glyph glyph-name="uni1EA0" unicode="&#x1ea0;" horiz-adv-x="1660" 
d="M1221 1454l430 -1454h-461l-88 301h-553l-88 -301h-451l430 1454h781zM745 983l-102 -350h365l-103 350l-80 328zM1051 -444h-430v329h430v-329z" />
    <glyph glyph-name="uni1EA1" unicode="&#x1ea1;" horiz-adv-x="1196" 
d="M1178 287h2v-287q-78 -20 -174 -20q-288 0 -310 204q-45 -97 -138 -155q-93 -60 -218 -60q-138 0 -224 72q-85 72 -85 190q0 115 81 189t232 98q294 50 338 70v51q0 78 -24.5 111.5t-82.5 33.5q-59 0 -84.5 -40.5t-25.5 -133.5h-387q0 220 141 354q141 132 371 132
q218 0 349 -121q132 -122 132 -320v-243q0 -82 18 -103q16 -22 89 -22zM535 233q68 0 107.5 42t39.5 124v31q-46 -16 -131 -37q-74 -17 -98 -35q-23 -18 -23 -57q2 -68 105 -68zM836 -444h-430v329h430v-329z" />
    <glyph glyph-name="uni1EB8" unicode="&#x1eb8;" horiz-adv-x="1347" 
d="M553 567v-198h692v-369h-1132v1454h1130v-369h-690v-190h659v-328h-659zM899 -444h-430v329h430v-329z" />
    <glyph glyph-name="uni1EB9" unicode="&#x1eb9;" horiz-adv-x="1249" 
d="M1198 586v-148h-721q12 -88 54 -128t120 -40q152 0 152 99h389q0 -181 -153 -290q-155 -110 -404 -110q-262 0 -423 155t-161 409q0 253 161 408t423 155q254 0 409 -140q154 -141 154 -370zM477 635l187 4h131q-8 81 -46.5 118.5t-113.5 37.5q-133 0 -158 -160z
M850 -444h-430v329h430v-329z" />
    <glyph glyph-name="uni1EBC" unicode="&#x1ebc;" horiz-adv-x="1347" 
d="M557 1688q-82 0 -82 -80h-184q0 173 60 257.5t186 84.5q59 0 143 -42t129 -42q82 0 82 80h184q0 -176 -58 -259t-188 -83q-59 0 -143 42t-129 42zM553 567v-198h692v-369h-1132v1454h1130v-369h-690v-190h659v-328h-659z" />
    <glyph glyph-name="uni1EBD" unicode="&#x1ebd;" horiz-adv-x="1249" 
d="M508 1298q-82 0 -82 -79h-184q0 173 59.5 257.5t185.5 84.5q59 0 144 -42q84 -42 129 -42q82 0 82 79h184q0 -176 -58 -259t-188 -83q-59 0 -143 42t-129 42zM1198 586v-148h-721q12 -88 54 -128t120 -40q152 0 152 99h389q0 -181 -153 -290q-155 -110 -404 -110
q-262 0 -423 155t-161 409q0 253 161 408t423 155q254 0 409 -140q154 -141 154 -370zM477 635l187 4h131q-8 81 -46.5 118.5t-113.5 37.5q-133 0 -158 -160z" />
    <glyph glyph-name="uni1ECA" unicode="&#x1eca;" horiz-adv-x="665" 
d="M113 0v1454h440v-1454h-440zM119 -444v329h430v-329h-430z" />
    <glyph glyph-name="uni1ECB" unicode="&#x1ecb;" horiz-adv-x="583" 
d="M82 1217v329h430v-329h-430zM92 0v1065h410v-1065h-410zM78 -444v329h430v-329h-430z" />
    <glyph glyph-name="uni1ECC" unicode="&#x1ecc;" horiz-adv-x="1646" 
d="M1375 178q-211 -209 -552 -209t-552 209q-210 208 -210 549t210 549q211 209 552 209t552 -209q210 -208 210 -549t-210 -549zM586 435q73 -91 237 -91q165 0 238 91q74 92 74 292q0 199 -74 289t-238 90t-237.5 -90t-73.5 -289q0 -200 74 -292zM608 -444v329h430v-329
h-430z" />
    <glyph glyph-name="uni1ECD" unicode="&#x1ecd;" horiz-adv-x="1282" 
d="M1069 124q-163 -155 -428 -155t-428 155q-162 154 -162 409q0 253 162 408q163 155 428 155t428 -155q162 -155 162 -408q0 -255 -162 -409zM511 341q41 -60 130 -60t130 60q40 59 40 192q0 132 -40 191q-41 60 -130 60t-130 -60q-40 -59 -40 -191q0 -133 40 -192z
M426 -444v329h430v-329h-430z" />
    <glyph glyph-name="uni1EE4" unicode="&#x1ee4;" horiz-adv-x="1556" 
d="M102 528v926h441v-876q0 -121 55 -175.5t180 -54.5t180.5 54.5t55.5 175.5v876h440v-926q0 -252 -185 -405q-185 -154 -491 -154t-490 154q-186 153 -186 405zM563 -444v329h430v-329h-430z" />
    <glyph glyph-name="uni1EE5" unicode="&#x1ee5;" horiz-adv-x="1300" 
d="M799 512v553h409v-1065h-393v256q-45 -134 -145 -210q-101 -77 -238 -77q-166 0 -253 92.5t-87 268.5v735h410v-584q0 -88 30.5 -129t98.5 -41q88 0 128 47.5t40 153.5zM860 -444h-430v329h430v-329z" />
    <glyph glyph-name="Ygrave" unicode="&#x1ef2;" horiz-adv-x="1499" 
d="M846 1956l72 -369h-281l-148 369h357zM1063 1454h461l-555 -1098v-356h-441v356l-553 1098h482l205 -436l100 -262l100 262z" />
    <glyph glyph-name="ygrave" unicode="&#x1ef3;" horiz-adv-x="1269" 
d="M719 1567l72 -369h-281l-148 369h357zM700 465l140 600h420l-287 -1159q-39 -154 -168 -240q-130 -86 -316 -86q-147 0 -299 21v297h228q155 0 174 88l4 14h-322l-264 1065h428l137 -600l62 -320z" />
    <glyph glyph-name="uni1EF8" unicode="&#x1ef8;" horiz-adv-x="1499" 
d="M643 1688q-82 0 -82 -80h-184q0 173 60 257.5t186 84.5q59 0 143 -42t129 -42q82 0 82 80h184q0 -176 -58 -259t-188 -83q-59 0 -143 42t-129 42zM1063 1454h461l-555 -1098v-356h-441v356l-553 1098h482l205 -436l100 -262l100 262z" />
    <glyph glyph-name="uni1EF9" unicode="&#x1ef9;" horiz-adv-x="1269" 
d="M512 1298q-82 0 -82 -79h-184q0 173 60 257.5t186 84.5q59 0 143 -42t129 -42q82 0 82 79h184q0 -176 -58 -259t-188 -83q-59 0 -143 42t-129 42zM700 465l140 600h420l-287 -1159q-39 -154 -168 -240q-130 -86 -316 -86q-147 0 -299 21v297h228q155 0 174 88l4 14h-322
l-264 1065h428l137 -600l62 -320z" />
    <glyph glyph-name="endash" unicode="&#x2013;" horiz-adv-x="1185" 
d="M61 676h1084v-307h-1084v307z" />
    <glyph glyph-name="emdash" unicode="&#x2014;" horiz-adv-x="1779" 
d="M61 676h1678v-307h-1678v307z" />
    <glyph glyph-name="quoteleft" unicode="&#x2018;" horiz-adv-x="538" 
d="M440 1094v-222h-368v277q0 153 106 244q106 92 289 92v-154q-109 0 -158 -35.5t-49 -115.5z" />
    <glyph glyph-name="quoteright" unicode="&#x2019;" horiz-adv-x="548" 
d="M98 1233v221h369v-276q0 -152 -105 -244q-107 -92 -290 -92v153q109 0 158 36t49 116z" />
    <glyph glyph-name="quotesinglbase" unicode="&#x201a;" horiz-adv-x="587" 
d="M92 66v344h430v-410q0 -175 -126 -281q-125 -106 -330 -106v174q129 0 188 46t59 147z" />
    <glyph glyph-name="quotedblleft" unicode="&#x201c;" horiz-adv-x="968" 
d="M870 1094v-222h-368v277q0 153 106 244q106 92 289 92v-154q-109 0 -158 -35.5t-49 -115.5zM440 1087v-215h-368v271q0 150 106 240q105 90 289 90v-154q-108 0 -157.5 -35t-49.5 -110z" />
    <glyph glyph-name="quotedblright" unicode="&#x201d;" horiz-adv-x="978" 
d="M98 1233v221h369v-276q0 -152 -105 -244q-107 -92 -290 -92v153q109 0 158 36t49 116zM528 1239v215h369v-270q0 -150 -105 -240q-106 -90 -290 -90v154q109 0 158 34.5t49 110.5z" />
    <glyph glyph-name="quotedblbase" unicode="&#x201e;" horiz-adv-x="587" 
d="M92 66v344h430v-410q0 -175 -126 -281q-125 -106 -330 -106v174q129 0 188 46t59 147z" />
    <glyph glyph-name="dagger" unicode="&#x2020;" horiz-adv-x="997" 
d="M688 774h268v-297h-268v-327h-379v327h-268v297h268v680h379v-680z" />
    <glyph glyph-name="daggerdbl" unicode="&#x2021;" horiz-adv-x="997" 
d="M956 1217v-287h-268v-297h268v-287h-268v-237h-379v237h-268v287h268v297h-268v287h268v237h379v-237h268z" />
    <glyph glyph-name="bullet" unicode="&#x2022;" horiz-adv-x="696" 
d="M72 276v553h553v-553h-553z" />
    <glyph glyph-name="ellipsis" unicode="&#x2026;" horiz-adv-x="1687" 
d="M92 0v389h410v-389h-410zM639 0v389h410v-389h-410zM1186 0v389h409v-389h-409z" />
    <glyph glyph-name="perthousand" unicode="&#x2030;" horiz-adv-x="2215" 
d="M709 846q-109 -103 -285 -103q-177 0 -284 103q-109 102 -109 268t109 269q108 102 284 102t285 -102q108 -103 108 -269t-108 -268zM1128 1454h420l-344 -678h-379zM516 1213q-35 36 -92 36q-58 0 -92 -36q-35 -38 -35 -98q0 -61 35 -99q34 -37 92 -37t92 37
q35 38 35 99q0 60 -35 98zM1812 711q167 0 271 -102q102 -104 102 -269q0 -166 -102 -268q-103 -103 -271 -103q-127 0 -217 69q-90 67 -120 185q-32 -118 -121 -185q-90 -69 -217 -69q-168 0 -270 103q-103 102 -103 268t103 269q102 102 270 102q127 0 217 -69
q89 -68 121 -185q32 117 121 186q89 68 216 68zM49 0l344 678h379l-303 -678h-420zM1065 242q34 -37 92 -37t92 37q35 38 35 98t-35 98q-34 37 -92 37t-92 -37q-35 -38 -35 -98t35 -98zM1700 242q34 -37 92 -37t92 37q35 38 35 98t-35 98q-34 37 -92 37t-92 -37
q-35 -38 -35 -98t35 -98z" />
    <glyph glyph-name="guilsinglleft" unicode="&#x2039;" horiz-adv-x="655" 
d="M197 918h448l-379 -390l379 -389h-448l-146 160v459z" />
    <glyph glyph-name="guilsinglright" unicode="&#x203a;" horiz-adv-x="655" 
d="M10 918h449l145 -160v-459l-145 -160h-449l379 389z" />
    <glyph glyph-name="fraction" unicode="&#x2044;" horiz-adv-x="415" 
d="M-492 0l1123 1454h307l-1122 -1454h-308z" />
    <glyph glyph-name="uni20AA" unicode="&#x20aa;" horiz-adv-x="1863" 
d="M983 395v627q0 70 -24.5 97.5t-90.5 27.5h-356v-1147h-399v1454h780q163 0 266 -101q101 -103 101 -270v-688h-277zM1352 432v1022h399v-1001q0 -205 -117 -329q-118 -124 -311 -124h-719v1059h277v-752h336q76 0 105.5 26.5t29.5 98.5z" />
    <glyph glyph-name="Euro" unicode="&#x20ac;" horiz-adv-x="1548" 
d="M592 969h276l-30 -215h-879v215h174q63 240 247 378q183 138 443 138q298 0 480 -166q182 -167 182 -436h-430q0 117 -55.5 170t-176.5 53q-172 0 -231 -137zM1057 545h430q0 -260 -182 -418q-184 -158 -482 -158q-254 0 -436 134q-183 135 -250 364h-178v215h868
l-30 -215h-199q63 -123 225 -123q123 0 178.5 47.5t55.5 153.5z" />
    <glyph glyph-name="uni2113" unicode="&#x2113;" horiz-adv-x="1118" 
d="M608 512h-28v-109q0 -106 106 -106h227v-289q-144 -29 -319 -28q-208 0 -316 93t-108 275v164h-139v276h139v334q0 210 132 337q133 128 347 128q207 0 333 -148q126 -149 126 -390t-137 -389q-138 -148 -363 -148zM580 1081v-293h28q82 0 115 58q33 57 33 203
q0 139 -18 192q-20 53 -68 53q-50 0 -70 -47q-20 -48 -20 -166z" />
    <glyph glyph-name="uni2116" unicode="&#x2116;" horiz-adv-x="2643" 
d="M1875 1386q115 99 307 99q190 0 306 -99q115 -100 115 -264t-115 -264t-306 -100q-192 0 -307 100q-116 101 -116 264t116 264zM1204 203l-14 596v655h434v-1454h-770l-322 1272l15 -617v-655h-434v1454h774zM2071 1122q0 -133 111 -133q110 0 110 133q0 131 -110 131
q-111 0 -111 -131zM2363 358h-366v308h366v-308z" />
    <glyph glyph-name="trademark" unicode="&#x2122;" horiz-adv-x="2097" 
d="M31 1454h739v-233h-225v-443h-287v443h-227v233zM1561 1454h505v-676h-286v400l6 188l-105 -588h-430l-108 592l6 -192v-400h-287v676h514l70 -373l24 -178l23 178z" />
    <glyph glyph-name="onethird" unicode="&#x2153;" horiz-adv-x="1632" 
d="M334 1122l6 232l-109 -119l-180 -162v275l121 106h412v-690h-250v358zM72 0l1122 1454h307l-1122 -1454h-307zM1356 389q225 -26 225 -194q0 -96 -92 -155q-91 -60 -242 -60q-143 0 -231 73q-88 72 -88 191h241q0 -76 78 -76q84 0 84 59q0 49 -76 49h-86v140h86
q51 0 52 55q0 61 -58 61q-67 0 -65 -75h-242q0 121 84 193q85 71 224 71t224 -52t85 -137q0 -61 -53 -99t-150 -44z" />
    <glyph glyph-name="twothirds" unicode="&#x2154;" horiz-adv-x="1705" 
d="M55 1094l310 69q59 14 59 82q0 74 -65 74q-66 0 -66 -109h-242q0 122 86 199q85 76 230 76q140 0 222 -65q81 -66 81 -175q0 -159 -199 -211l-170 -45l-117 -22l125 2h361v-205h-615v330zM158 0l1122 1454h307l-1122 -1454h-307zM1430 389q225 -26 225 -194
q0 -96 -92 -155q-93 -60 -242 -60q-143 0 -231 73q-89 72 -89 191h242q0 -76 78 -76q84 0 84 59q0 49 -76 49h-86v140h86q51 0 51 55q0 61 -57 61q-66 0 -66 -75h-241q0 121 84 193q85 71 223 71q139 0 224 -52t85 -137q0 -61 -52.5 -99t-149.5 -44z" />
    <glyph glyph-name="oneeighth" unicode="&#x215b;" horiz-adv-x="1652" 
d="M334 1122l6 232l-109 -119l-180 -162v275l121 106h412v-690h-250v358zM82 0l1122 1454h307l-1122 -1454h-307zM1411 358q190 -37 191 -182q0 -91 -91 -143q-92 -53 -241 -53t-241 53q-91 52 -91 143q0 145 190 182q-174 34 -174 162q0 90 87 146q86 55 229 55
q142 0 228 -55q87 -56 87 -146q0 -128 -174 -162zM1341 478q0 69 -71 69q-72 0 -72 -69q0 -70 72 -70q71 0 71 70zM1188 227q0 -73 82 -73t82 73q0 70 -82 70t-82 -70z" />
    <glyph glyph-name="threeeighths" unicode="&#x215c;" horiz-adv-x="1712" 
d="M705 958q0 -96 -92 -155q-93 -60 -242 -60q-143 0 -231 73q-89 74 -89 192h242q0 -76 78 -76q84 0 84 59q0 49 -76 49h-86v140h86q51 0 51 55q0 61 -57 61q-66 0 -66 -75h-241q0 121 84 193q83 71 223 71q139 0 224 -52t85 -137q0 -61 -52.5 -99t-150.5 -44
q226 -25 226 -195zM141 0l1123 1454h307l-1122 -1454h-308zM1470 358q190 -37 191 -182q0 -91 -91 -143q-92 -53 -240 -53q-149 0 -241 53t-92 143q0 144 191 182q-174 34 -174 162q0 90 87 146q86 55 228 55q141 0 229 -55q87 -56 87 -146q-2 -128 -175 -162zM1401 478
q0 69 -72 69t-72 -69q0 -70 72 -70t72 70zM1247 227q0 -73 82 -73t82 73q0 70 -82 70t-82 -70z" />
    <glyph glyph-name="fiveeighths" unicode="&#x215d;" horiz-adv-x="1687" 
d="M358 920q59 0 60 67q0 82 -62 82q-45 0 -80 -35h-217l25 420h551v-197h-234l-112 3l-8 -168q55 110 186 108q91 0 146 -57q55 -58 55 -150q0 -114 -85 -181q-85 -69 -223 -69q-139 0 -224 70t-85 184h242q-2 -77 65 -77zM96 0l1123 1454h307l-1123 -1454h-307zM1446 358
q190 -37 190 -182q0 -91 -91 -143q-92 -53 -240 -53q-149 0 -241 53q-91 52 -91 143q0 145 190 182q-174 34 -174 162q0 90 87 146q86 55 229 55q142 0 228 -55q87 -56 87 -146q0 -128 -174 -162zM1376 478q0 69 -71 69q-72 0 -72 -69q0 -70 72 -70q71 0 71 70zM1223 227
q0 -73 82 -73q81 0 81 73q0 70 -81 70q-82 0 -82 -70z" />
    <glyph glyph-name="seveneighths" unicode="&#x215e;" horiz-adv-x="1622" 
d="M51 0l1123 1454h307l-1123 -1454h-307zM590 1257l-152 -4h-293v201h521v-332q-79 -26 -131 -123q-54 -97 -54 -235h-256q0 162 94 298q93 137 271 195zM1380 358q190 -37 191 -182q0 -91 -91 -143q-92 -53 -240 -53q-149 0 -241 53t-92 143q0 144 191 182
q-174 34 -174 162q0 90 87 146q86 55 228 55t228 -55q87 -56 87 -146q0 -128 -174 -162zM1311 478q0 69 -72 69t-72 -69q0 -70 72 -70t72 70zM1157 227q0 -73 82 -73t82 73q0 70 -82 70t-82 -70z" />
    <glyph glyph-name="arrowleft" unicode="&#x2190;" horiz-adv-x="1509" 
d="M575 856l873 25v-322l-868 23l335 -316l-210 -209l-664 664l664 665l208 -210z" />
    <glyph glyph-name="arrowup" unicode="&#x2191;" horiz-adv-x="1452" 
d="M727 1479l664 -664l-209 -211l-316 336l23 -868h-322l25 872l-320 -338l-211 209z" />
    <glyph glyph-name="arrowright" unicode="&#x2192;" horiz-adv-x="1509" 
d="M596 1176l209 210l663 -665l-663 -664l-211 209l336 316l-869 -23v322l873 -25z" />
    <glyph glyph-name="arrowdown" unicode="&#x2193;" horiz-adv-x="1452" 
d="M860 571l320 338l211 -209l-666 -663l-664 663l209 211l316 -336l-23 869h322z" />
    <glyph glyph-name="arrowboth" unicode="&#x2194;" horiz-adv-x="2185" 
d="M1270 1190l209 211l645 -645l-645 -643l-207 211l323 303h-1005l323 -303l-206 -211l-646 643l646 645l208 -211l-319 -299h993z" />
    <glyph glyph-name="arrowupdn" unicode="&#x2195;" horiz-adv-x="1390" 
d="M829 1180v-963l308 330l202 -201l-645 -645l-643 643l205 203l309 -336v975l-315 -340l-199 194l643 648l645 -646l-198 -196z" />
    <glyph glyph-name="uni2196" unicode="&#x2196;" horiz-adv-x="1239" 
d="M555 1028l633 -598l-227 -227l-596 628l14 -460l-297 2v938l938 2v-297z" />
    <glyph glyph-name="uni2197" unicode="&#x2197;" horiz-adv-x="1239" 
d="M219 1016v297l938 -2v-938l-297 -2l14 460l-595 -628l-228 227l633 598z" />
    <glyph glyph-name="uni2198" unicode="&#x2198;" horiz-adv-x="1243" 
d="M877 739l-13 465h297l-2 -938h-938l-2 297l461 -14l-629 596l228 227z" />
    <glyph glyph-name="uni2199" unicode="&#x2199;" horiz-adv-x="1243" 
d="M965 1372l227 -227l-629 -596l461 14l-2 -297h-938l-2 938h297l-12 -465z" />
    <glyph glyph-name="partialdiff" unicode="&#x2202;" horiz-adv-x="1261" 
d="M154 1597l426 -59q293 -41 472 -260q179 -220 179 -541q0 -345 -167 -557q-166 -211 -441 -211q-256 0 -414 155t-158 406q0 214 122 348q121 132 321 132q126 0 219.5 -58t138.5 -164v52q0 165 -61 233q-62 69 -218 76l-419 29v419zM641 281q90 0 130 59.5t40 191.5
q0 123 -39 178.5t-127 55.5q-90 0 -132 -56.5t-42 -179.5q0 -131 41 -190t129 -59z" />
    <glyph glyph-name="product" unicode="&#x220f;" horiz-adv-x="1587" 
d="M51 1454h1485v-369h-205v-1484h-420v1484h-235v-1484h-420v1484h-205v369z" />
    <glyph glyph-name="summation" unicode="&#x2211;" horiz-adv-x="1169" 
d="M975 242l-809 -291l522 16h410v-368l-1006 2l2 348v311l557 201l207 67l-207 68l-557 201v657l1002 -2l2 -369h-410l-514 17l801 -289v-569z" />
    <glyph glyph-name="minus" unicode="&#x2212;" horiz-adv-x="1042" 
d="M72 684h899v-266h-899v266z" />
    <glyph glyph-name="uni2215" unicode="&#x2215;" horiz-adv-x="737" 
d="M-20 -399l348 1966h399l-348 -1966h-399z" />
    <glyph glyph-name="uni2219" unicode="&#x2219;" horiz-adv-x="581" 
d="M41 303v500h500v-500h-500z" />
    <glyph glyph-name="radical" unicode="&#x221a;" horiz-adv-x="1392" 
d="M768 1454h635v-369h-324l-272 -1484h-666l-202 1065h366l117 -686l45 -293l45 293z" />
    <glyph glyph-name="infinity" unicode="&#x221e;" horiz-adv-x="2095" 
d="M1505 1032q223 0 361 -129q137 -129 137 -342t-137 -342q-136 -129 -361 -129q-276 0 -463 232q-190 -231 -473 -232q-215 0 -346 129t-131 342t131 342q130 129 346 129q283 0 473 -231q188 231 463 231zM631 377q73 0 129 47q52 44 119 137q-68 97 -123 140.5
t-125 43.5q-100 0 -145.5 -44t-45.5 -140t45.5 -140t145.5 -44zM1464 377q100 0 145.5 44t45.5 140t-45 140t-146 44q-72 0 -130 -44t-124 -140q64 -95 122.5 -139.5t131.5 -44.5z" />
    <glyph glyph-name="integral" unicode="&#x222b;" horiz-adv-x="956" 
d="M782 1485q108 0 215 -21l-53 -297h-145q-106 0 -125 -106l-195 -1102q-28 -169 -169 -275q-140 -104 -341 -104q-108 0 -215 21l53 297h146q106 0 125 106l194 1102q28 169 169 275q140 104 341 104z" />
    <glyph glyph-name="approxequal" unicode="&#x2248;" horiz-adv-x="1243" 
d="M309 604h-237q0 180 97 295t251 115q109 0 225 -62q115 -63 178 -63q53 0 82 35.5t29 89.5h237q0 -193 -96 -301q-96 -109 -252 -109q-109 0 -223 63q-116 62 -180 62q-53 0 -82 -35.5t-29 -89.5zM309 72h-237q0 180 97 295q97 114 251 114q109 0 225 -62
q115 -63 178 -63q53 0 82 35.5t29 89.5h237q0 -193 -96 -301t-252 -108q-109 0 -223 63q-116 62 -180 62q-53 0 -82 -35.5t-29 -89.5z" />
    <glyph glyph-name="notequal" unicode="&#x2260;" horiz-adv-x="1042" 
d="M971 930v-266h-260l-138 -226h398v-266h-551l-80 -125h-250l80 125h-98v266h252l137 226h-389v266h538l86 137h250l-86 -137h111z" />
    <glyph glyph-name="lessequal" unicode="&#x2264;" horiz-adv-x="1042" 
d="M72 891l899 172v-264l-815 -119l815 -119v-522h-899v266h856l-856 164v422z" />
    <glyph glyph-name="greaterequal" unicode="&#x2265;" horiz-adv-x="1042" 
d="M72 799v264l899 -172v-422l-856 -164h856v-266h-899v522l815 119z" />
    <glyph glyph-name="uni2460" unicode="&#x2460;" horiz-adv-x="1667" 
d="M1401 178q-215 -209 -567 -209q-353 0 -568 209t-215 549t215 549t568 209q352 0 567 -209t215 -549t-215 -549zM402 298q163 -163 432 -163t432 163q164 164 164 429t-164 429q-163 163 -432 163t-432 -163q-164 -164 -164 -429t164 -429zM674 870l-207 -184v315
l137 123h473v-794h-286v411l6 269z" />
    <glyph glyph-name="uni2461" unicode="&#x2461;" horiz-adv-x="1667" 
d="M1401 178q-215 -209 -567 -209q-353 0 -568 209t-215 549t215 549t568 209q352 0 567 -209t215 -549t-215 -549zM402 298q163 -163 432 -163t432 163q164 164 164 429t-164 429q-163 163 -432 163t-432 -163q-164 -164 -164 -429t164 -429zM1198 330h-706v375l354 79
q70 16 69 95q0 86 -75 86q-76 0 -76 -125h-279q0 141 101 228t262 87q162 0 256 -75q94 -76 94 -201q0 -178 -229 -242l-195 -53l-131 -25l139 2h416v-231z" />
    <glyph glyph-name="uni2462" unicode="&#x2462;" horiz-adv-x="1667" 
d="M1401 178q-215 -209 -567 -209q-353 0 -568 209t-215 549t215 549t568 209q352 0 567 -209t215 -549t-215 -549zM402 298q163 -163 432 -163t432 163q164 164 164 429t-164 429q-163 163 -432 163t-432 -163q-164 -164 -164 -429t164 -429zM459 606h278q0 -86 88 -86
q97 0 99 68q0 57 -88 57h-99v160h99q59 0 59 63q0 70 -66 70q-77 0 -75 -86h-279q0 138 97 220q97 83 257 83t258 -59q97 -60 97 -158q0 -73 -60 -115.5t-174 -48.5q128 -14 194 -72t66 -151q0 -113 -105 -180q-107 -68 -280 -68q-166 0 -266 84t-100 219z" />
    <glyph glyph-name="uni2463" unicode="&#x2463;" horiz-adv-x="1667" 
d="M1401 178q-215 -209 -567 -209q-353 0 -568 209t-215 549t215 549t568 209q352 0 567 -209t215 -549t-215 -549zM402 298q163 -163 432 -163t432 163q164 164 164 429t-164 429q-163 163 -432 163t-432 -163q-164 -164 -164 -429t164 -429zM793 457h-308v426l146 241h450
v-460h107v-207h-107v-127h-288v127zM799 1081l-254 -422l84 3l164 2v182z" />
    <glyph glyph-name="uni2464" unicode="&#x2464;" horiz-adv-x="1667" 
d="M1401 178q-215 -209 -567 -209q-353 0 -568 209t-215 549t215 549t568 209q352 0 567 -209t215 -549t-215 -549zM402 298q163 -163 432 -163t432 163q164 164 164 429t-164 429q-163 163 -432 163t-432 -163q-164 -164 -164 -429t164 -429zM479 596h279q0 -90 76 -90
q36 0 51.5 18t15.5 60q0 94 -70 94q-51 0 -92 -41h-250l29 487h633v-225h-268l-127 2l-13 -199q63 125 215 125q103 0 168 -65q64 -65 64 -172q0 -129 -97 -208t-257 -79q-161 0 -259 80t-98 213z" />
    <glyph glyph-name="uni2465" unicode="&#x2465;" horiz-adv-x="1667" 
d="M1401 178q-215 -209 -567 -209q-353 0 -568 209t-215 549t215 549t568 209q352 0 567 -209t215 -549t-215 -549zM402 298q163 -163 432 -163t432 163q164 164 164 429t-164 429q-163 163 -432 163t-432 -163q-164 -164 -164 -429t164 -429zM446 725q0 193 110 312
q109 118 290 118q163 0 263 -74q99 -75 99 -196h-278q0 35 -19.5 50t-64.5 15q-113 0 -113 -225v-53q23 70 84 109.5t148 39.5q113 0 180 -63q67 -64 67 -168q0 -129 -97 -208t-257 -79q-201 0 -306.5 107.5t-105.5 314.5zM745 590q0 -70 97 -70q45 0 64.5 16.5t19.5 53.5
q0 41 -19.5 59.5t-64.5 18.5q-97 0 -97 -78z" />
    <glyph glyph-name="uni2466" unicode="&#x2466;" horiz-adv-x="1667" 
d="M1401 178q-215 -209 -567 -209q-353 0 -568 209t-215 549t215 549t568 209q352 0 567 -209t215 -549t-215 -549zM402 298q163 -163 432 -163t432 163q164 164 164 429t-164 429q-163 163 -432 163t-432 -163q-164 -164 -164 -429t164 -429zM883 893h-336v231h598v-383
q-87 -27 -149 -140q-62 -115 -62 -271h-295q0 183 107 341q106 155 309 226z" />
    <glyph glyph-name="uni2467" unicode="&#x2467;" horiz-adv-x="1667" 
d="M1401 178q-215 -209 -567 -209q-353 0 -568 209t-215 549t215 549t568 209q352 0 567 -209t215 -549t-215 -549zM402 298q163 -163 432 -163t432 163q164 164 164 429t-164 429q-163 163 -432 163t-432 -163q-164 -164 -164 -429t164 -429zM453 528q0 166 217 211
q-199 40 -199 187q0 101 101 166q101 63 262 63t262 -63q100 -64 100 -166q0 -145 -199 -187q217 -45 217 -211q0 -102 -103 -163q-104 -62 -277 -62q-174 0 -278 62q-103 61 -103 163zM752 874q0 -80 82 -79q81 0 81 79q0 82 -81 82q-82 0 -82 -82zM739 588q0 -84 95 -84
q94 0 94 84q0 80 -94 80q-95 0 -95 -80z" />
    <glyph glyph-name="uni2468" unicode="&#x2468;" horiz-adv-x="1667" 
d="M1401 178q-215 -209 -567 -209q-353 0 -568 209t-215 549t215 549t568 209q352 0 567 -209t215 -549t-215 -549zM402 298q163 -163 432 -163t432 163q164 164 164 429t-164 429q-163 163 -432 163t-432 -163q-164 -164 -164 -429t164 -429zM471 868q0 128 98 208
q97 79 256 79q201 0 306.5 -107.5t105.5 -314.5q0 -193 -109 -311q-110 -119 -290 -119q-165 0 -263 76q-100 76 -100 201h279q0 -39 19.5 -55.5t64.5 -16.5q114 0 112 225v51q-20 -68 -79.5 -107.5t-141.5 -39.5q-117 0 -187 64q-71 63 -71 167zM758 868q0 -78 84 -77
q96 0 96 77q0 70 -96 70q-45 0 -64.5 -16.5t-19.5 -53.5z" />
    <glyph glyph-name="uni24EA" unicode="&#x24ea;" horiz-adv-x="1667" 
d="M1401 178q-215 -209 -567 -209q-353 0 -568 209t-215 549t215 549t568 209q352 0 567 -209t215 -549t-215 -549zM402 298q163 -163 432 -163t432 163q164 164 164 429t-164 429q-163 163 -432 163t-432 -163q-164 -164 -164 -429t164 -429zM1128 420q-112 -117 -294 -117
q-183 0 -294 117q-112 116 -112 310q0 193 112 309q111 116 294 116q181 0 294 -116q111 -117 111 -309q0 -193 -111 -310zM745 595q27 -40 89 -40q61 0 89 40q27 41 27 132q0 92 -27 133q-29 41 -89 41q-62 0 -89 -41q-28 -40 -28 -133q0 -92 28 -132z" />
    <glyph glyph-name="uni24FF" unicode="&#x24ff;" horiz-adv-x="1667" 
d="M1401 178q-215 -209 -567 -209q-353 0 -568 209t-215 551q0 339 215 548q214 208 568 208q353 0 567 -208q215 -209 215 -548q0 -342 -215 -551zM540 420q111 -117 294 -117q182 0 294 117q111 117 111 310q0 192 -111 309q-113 116 -294 116q-183 0 -294 -116
q-112 -116 -112 -309q0 -194 112 -310zM923 595q-28 -40 -89 -40q-62 0 -89 40q-28 40 -28 132q0 93 28 133q27 41 89 41q60 0 89 -41q27 -41 27 -133q0 -91 -27 -132z" />
    <glyph glyph-name="lozenge" unicode="&#x25ca;" horiz-adv-x="1339" 
d="M328 1454h688l272 -727l-274 -727h-688l-275 727zM438 727l232 -664l231 664l-231 666z" />
    <glyph glyph-name="uni2766" unicode="&#x2766;" horiz-adv-x="968" 
d="M53 395h-33v316h33q0 -29 21 -29q12 0 16 5.5t4 23.5h551v-316h-551q0 18 -4 23.5t-16 5.5q-19 0 -21 -29zM692 408v290q122 0 189 -43t67 -102t-67 -102t-189 -43zM604 436v37h-481v-37h481z" />
    <glyph glyph-name="uni2776" unicode="&#x2776;" horiz-adv-x="1667" 
d="M1400 179q-216 -210 -566 -210q-351 0 -567 210t-216 550q0 339 215 548q214 208 568 208q353 0 567 -208q215 -209 215 -548q0 -340 -216 -550zM467 1001v-315l207 184l123 140l-6 -269v-411h286v794h-473z" />
    <glyph glyph-name="uni2777" unicode="&#x2777;" horiz-adv-x="1667" 
d="M1400 179q-216 -210 -566 -210q-351 0 -567 210t-216 550q0 339 215 548q214 208 568 208q353 0 567 -208q215 -209 215 -548q0 -340 -216 -550zM492 705v-375h706v231h-416l-139 -2l131 25l195 53q229 63 229 242q0 125 -94 201q-94 75 -256 75q-161 0 -262 -87
t-101 -228h279q0 125 76 125q75 0 75 -86q0 -79 -69 -95z" />
    <glyph glyph-name="uni2778" unicode="&#x2778;" horiz-adv-x="1667" 
d="M1400 179q-216 -210 -566 -210q-351 0 -567 210t-216 550q0 339 215 548q214 208 568 208q353 0 567 -208q215 -209 215 -548q0 -340 -216 -550zM737 606h-278q0 -135 100 -219t266 -84q173 0 280 68q105 67 105 180q0 93 -66 151t-194 72q114 6 174 48.5t60 115.5
q0 98 -97 158q-98 59 -258 59q-161 0 -258 -83q-96 -83 -96 -220h279q0 86 75 86q66 0 66 -70q0 -63 -59 -63h-99v-160h99q88 0 88 -57q0 -68 -99 -68q-88 0 -88 86z" />
    <glyph glyph-name="uni2779" unicode="&#x2779;" horiz-adv-x="1667" 
d="M1400 179q-216 -210 -566 -210q-351 0 -567 210t-216 550q0 339 215 548q214 208 568 208q353 0 567 -208q215 -209 215 -548q0 -340 -216 -550zM485 883v-426h308v-127h288v127h107v207h-107v460h-450zM629 662l-84 -3l254 422l-6 -235v-182z" />
    <glyph glyph-name="uni277A" unicode="&#x277a;" horiz-adv-x="1667" 
d="M1400 179q-216 -210 -566 -210q-351 0 -567 210t-216 550q0 339 215 548q214 208 568 208q353 0 567 -208q215 -209 215 -548q0 -340 -216 -550zM758 596h-279q0 -133 98 -213t259 -80q160 0 257 79t97 208q0 106 -63 172q-65 65 -169 65q-152 0 -215 -125l13 199l127 -2
h268v225h-633l-29 -487h250q41 41 92 41q70 0 70 -94q0 -41 -15.5 -59.5t-51.5 -18.5q-76 0 -76 90z" />
    <glyph glyph-name="uni277B" unicode="&#x277b;" horiz-adv-x="1667" 
d="M1400 179q-216 -210 -566 -210q-351 0 -567 210t-216 550q0 339 215 548q214 208 568 208q353 0 567 -208q215 -209 215 -548q0 -340 -216 -550zM446 725q0 -207 105.5 -314.5t306.5 -107.5q160 0 257 79t97 208q0 104 -67 168q-67 63 -180 63q-87 0 -148 -39.5
t-84 -109.5v53q0 225 113 225q45 0 64.5 -15t19.5 -50h278q0 121 -99 196q-100 74 -263 74q-181 0 -290 -118q-110 -119 -110 -312zM745 590q0 78 97 78q45 0 64.5 -18.5t19.5 -59.5q0 -37 -19.5 -53.5t-64.5 -16.5q-97 0 -97 70z" />
    <glyph glyph-name="uni277C" unicode="&#x277c;" horiz-adv-x="1667" 
d="M1400 179q-216 -210 -566 -210q-351 0 -567 210t-216 550q0 339 215 548q214 208 568 208q353 0 567 -208q215 -209 215 -548q0 -340 -216 -550zM547 1124v-231h336l172 4q-203 -71 -309 -226q-107 -158 -107 -341h295q0 157 62 272q62 114 149 139v383h-598z" />
    <glyph glyph-name="uni277D" unicode="&#x277d;" horiz-adv-x="1667" 
d="M1400 179q-216 -210 -566 -210q-351 0 -567 210t-216 550q0 339 215 548q214 208 568 208q353 0 567 -208q215 -209 215 -548q0 -340 -216 -550zM453 528q0 -102 103 -163q104 -62 278 -62q173 0 277 62q103 61 103 163q0 166 -217 211q199 40 199 187q0 102 -100 166
q-101 63 -262 63q-162 0 -262 -63q-101 -65 -101 -166q0 -145 199 -187q-217 -45 -217 -211zM752 874q0 82 82 82q81 0 81 -82q0 -80 -81 -80q-82 0 -82 80zM739 588q0 80 95 80q94 0 94 -80q0 -84 -94 -84q-95 0 -95 84z" />
    <glyph glyph-name="uni277E" unicode="&#x277e;" horiz-adv-x="1667" 
d="M1400 179q-216 -210 -566 -210q-351 0 -567 210t-216 550q0 339 215 548q214 208 568 208q353 0 567 -208q215 -209 215 -548q0 -340 -216 -550zM471 868q0 -104 71 -167q70 -64 187 -64q81 0 141 40t80 107v-51q0 -225 -112 -225q-45 0 -64.5 16.5t-19.5 55.5h-279
q0 -125 100 -201q98 -76 263 -76q180 0 290 119q109 118 109 311q0 207 -105.5 314.5t-306.5 107.5q-160 0 -257 -79t-97 -208zM758 868q0 37 19.5 53.5t64.5 16.5q96 0 96 -70q0 -78 -96 -77q-84 -1 -84 77z" />
    <glyph glyph-name="uniF8FF" unicode="&#xf8ff;" horiz-adv-x="1204" 
d="M1116 1180l27 -230l-8 -6q-62 98 -139 122q-80 25 -343 26q-13 -207 -14 -295q87 1 148 44q59 43 110 144h6l-22 -145q-90 -75 -242 -80v-66q0 -119 4 -291q133 0 199 3q0 172 -15 284q-36 11 -88 19v6q143 27 246 71l2 -6q-41 -45 -54 -118q-13 -71 -13 -279
q0 -221 12 -340l78 -37v-6h-332v6l151 53q11 97 13 295q-88 2 -197 2q2 -34 2 -72q0 -41 2 -71l-108 -66l-4 7q7 56 20 202q-109 0 -197 -2q0 -198 13 -295l153 -53v-6h-333v6l77 37q11 113 13 340q0 207 -12 280q-14 73 -56 117l2 6q92 -42 246 -71v-6q-46 -7 -88 -19
q-13 -112 -15 -284q133 0 199 -3q6 125 6 291v70q-132 18 -215 103q-85 86 -92 210q-75 -12 -109 -39q-36 -28 -79 -94l-9 6q17 137 23 189l8 41q52 -33 168 -39q13 138 116 226q101 87 253 87q113 0 223 -65l31 57l12 -8q-20 -101 -21 -221h-4q-56 203 -241 204
q-114 2 -190 -77q-77 -80 -87 -207q82 -2 248 -2q286 0 374 9t138 36h4zM350 1087q4 -108 63 -185q59 -76 150 -99q-2 144 -12 289q-132 -2 -201 -5z" />
    <glyph glyph-name="I.ss02" horiz-adv-x="1226" 
d="M1114 1454v-369h-280v-716h280v-369h-1001v369h280v716h-280v369h1001z" />
    <glyph glyph-name="Iacute.ss02" horiz-adv-x="1226" 
d="M530 1956h357l-148 -369h-280zM1114 1454v-369h-280v-716h280v-369h-1001v369h280v716h-280v369h1001z" />
    <glyph glyph-name="Ibreve.ss02" horiz-adv-x="1226" 
d="M866 1669q-90 -92 -251 -92q-162 0 -252 92q-91 91 -91 287h246q0 -143 97 -143q48 -1 72 35t24 108h245q0 -196 -90 -287zM1114 1454v-369h-280v-716h280v-369h-1001v369h280v716h-280v369h1001z" />
    <glyph glyph-name="Icircumflex.ss02" horiz-adv-x="1226" 
d="M733 1587l-119 311l-118 -311h-316l172 369h525l172 -369h-316zM1114 1454v-369h-280v-716h280v-369h-1001v369h280v716h-280v369h1001z" />
    <glyph glyph-name="Idieresis.ss02" horiz-adv-x="1226" 
d="M227 1935h348v-329h-348v329zM651 1935h348v-329h-348v329zM1114 1454v-369h-280v-716h280v-369h-1001v369h280v716h-280v369h1001z" />
    <glyph glyph-name="Idotaccent.ss02" horiz-adv-x="1226" 
d="M399 1935h430v-329h-430v329zM1114 1454v-369h-280v-716h280v-369h-1001v369h280v716h-280v369h1001z" />
    <glyph glyph-name="uni1ECA.ss02" horiz-adv-x="1226" 
d="M1114 1454v-369h-280v-716h280v-369h-1001v369h280v716h-280v369h1001zM829 -444h-430v329h430v-329z" />
    <glyph glyph-name="Igrave.ss02" horiz-adv-x="1226" 
d="M690 1956l72 -369h-281l-147 369h356zM1114 1454v-369h-280v-716h280v-369h-1001v369h280v716h-280v369h1001z" />
    <glyph glyph-name="Imacron.ss02" horiz-adv-x="1226" 
d="M322 1925h585v-307h-585v307zM1114 1454v-369h-280v-716h280v-369h-1001v369h280v716h-280v369h1001z" />
    <glyph glyph-name="Iogonek.ss02" horiz-adv-x="1226" 
d="M1114 1454v-369h-280v-716h280v-369h-280l-91 -129q-25 -33 -24 -55q0 -37 47 -37h94v-230h-303q-78 0 -119 38t-41 102q0 74 56 151l116 160h-456v369h280v716h-280v369h1001z" />
    <glyph glyph-name="Itilde.ss02" horiz-adv-x="1226" 
d="M487 1688q-41 0 -61.5 -20t-19.5 -60h-185q0 173 60 257.5t186 84.5q59 0 143 -42t129 -42q82 0 82 80h185q0 -176 -58 -259t-188 -83q-59 0 -143 42q-85 42 -130 42zM1114 1454v-369h-280v-716h280v-369h-1001v369h280v716h-280v369h1001z" />
    <glyph glyph-name="Z.ss03" horiz-adv-x="1380" 
d="M281 352l213 17h815v-369h-1237v653l999 447l-203 -15h-786v369h1223v-643z" />
    <glyph glyph-name="Zacute.ss03" horiz-adv-x="1380" 
d="M633 1956h356l-147 -369h-281zM281 352l213 17h815v-369h-1237v653l999 447l-203 -15h-786v369h1223v-643z" />
    <glyph glyph-name="Zcaron.ss03" horiz-adv-x="1380" 
d="M979 1587h-524l-172 369h315l119 -311l119 311h315zM281 352l213 17h815v-369h-1237v653l999 447l-203 -15h-786v369h1223v-643z" />
    <glyph glyph-name="Zdotaccent.ss03" horiz-adv-x="1380" 
d="M502 1935h430v-329h-430v329zM281 352l213 17h815v-369h-1237v653l999 447l-203 -15h-786v369h1223v-643z" />
    <glyph glyph-name="a.salt" horiz-adv-x="1306" 
d="M827 811v254h394v-1065h-394v285q-40 -146 -136 -231q-94 -85 -222 -85q-187 0 -303 155q-115 154 -115 409q0 254 115 408q116 155 303 155q128 0 222 -75.5t136 -209.5zM511 341q41 -60 130 -60t130 60q40 59 40 192q0 132 -40 191q-41 60 -130 60t-130 -60
q-40 -59 -40 -191q0 -133 40 -192z" />
    <glyph glyph-name="aacute.salt" horiz-adv-x="1306" 
d="M588 1567h356l-147 -369h-281zM827 811v254h394v-1065h-394v285q-40 -146 -136 -231q-94 -85 -222 -85q-187 0 -303 155q-115 154 -115 409q0 254 115 408q116 155 303 155q128 0 222 -75.5t136 -209.5zM511 341q41 -60 130 -60t130 60q40 59 40 192q0 132 -40 191
q-41 60 -130 60t-130 -60q-40 -59 -40 -191q0 -133 40 -192z" />
    <glyph glyph-name="abreve.salt" horiz-adv-x="1306" 
d="M924 1280q-90 -92 -252 -92t-252 92t-90 287h245q0 -143 97 -143q48 -1 72 35t24 108h246q0 -195 -90 -287zM827 811v254h394v-1065h-394v285q-40 -146 -136 -231q-94 -85 -222 -85q-187 0 -303 155q-115 154 -115 409q0 254 115 408q116 155 303 155q128 0 222 -75.5
t136 -209.5zM511 341q41 -60 130 -60t130 60q40 59 40 192q0 132 -40 191q-41 60 -130 60t-130 -60q-40 -59 -40 -191q0 -133 40 -192z" />
    <glyph glyph-name="acircumflex.salt" horiz-adv-x="1306" 
d="M791 1198l-119 311l-119 -311h-315l172 369h524l172 -369h-315zM827 811v254h394v-1065h-394v285q-40 -146 -136 -231q-94 -85 -222 -85q-187 0 -303 155q-115 154 -115 409q0 254 115 408q116 155 303 155q128 0 222 -75.5t136 -209.5zM511 341q41 -60 130 -60t130 60
q40 59 40 192q0 132 -40 191q-41 60 -130 60t-130 -60q-40 -59 -40 -191q0 -133 40 -192z" />
    <glyph glyph-name="adieresis.salt" horiz-adv-x="1306" 
d="M285 1546h348v-329h-348v329zM709 1546h348v-329h-348v329zM827 811v254h394v-1065h-394v285q-40 -146 -136 -231q-94 -85 -222 -85q-187 0 -303 155q-115 154 -115 409q0 254 115 408q116 155 303 155q128 0 222 -75.5t136 -209.5zM511 341q41 -60 130 -60t130 60
q40 59 40 192q0 132 -40 191q-41 60 -130 60t-130 -60q-40 -59 -40 -191q0 -133 40 -192z" />
    <glyph glyph-name="uni1EA1.salt" horiz-adv-x="1306" 
d="M827 811v254h394v-1065h-394v285q-40 -146 -136 -231q-94 -85 -222 -85q-187 0 -303 155q-115 154 -115 409q0 254 115 408q116 155 303 155q128 0 222 -75.5t136 -209.5zM511 341q41 -60 130 -60t130 60q40 59 40 192q0 132 -40 191q-41 60 -130 60t-130 -60
q-40 -59 -40 -191q0 -133 40 -192zM918 -444h-431v329h431v-329z" />
    <glyph glyph-name="agrave.salt" horiz-adv-x="1306" 
d="M752 1567l71 -369h-280l-148 369h357zM827 811v254h394v-1065h-394v285q-40 -146 -136 -231q-94 -85 -222 -85q-187 0 -303 155q-115 154 -115 409q0 254 115 408q116 155 303 155q128 0 222 -75.5t136 -209.5zM511 341q41 -60 130 -60t130 60q40 59 40 192
q0 132 -40 191q-41 60 -130 60t-130 -60q-40 -59 -40 -191q0 -133 40 -192z" />
    <glyph glyph-name="amacron.salt" horiz-adv-x="1306" 
d="M379 1536h586v-307h-586v307zM827 811v254h394v-1065h-394v285q-40 -146 -136 -231q-94 -85 -222 -85q-187 0 -303 155q-115 154 -115 409q0 254 115 408q116 155 303 155q128 0 222 -75.5t136 -209.5zM511 341q41 -60 130 -60t130 60q40 59 40 192q0 132 -40 191
q-41 60 -130 60t-130 -60q-40 -59 -40 -191q0 -133 40 -192z" />
    <glyph glyph-name="aogonek.salt" horiz-adv-x="1306" 
d="M1153 -221h94v-230h-303q-78 0 -119 38t-41 102q0 74 56 151l116 160h-129v285q-40 -146 -136 -231q-94 -85 -222 -85q-187 0 -303 155q-115 154 -115 409q0 254 115 408q116 155 303 155q128 0 222 -75.5t136 -209.5v254h394v-1065l-91 -129q-25 -33 -24 -55
q0 -37 47 -37zM511 341q41 -60 130 -60t130 60q40 59 40 192q0 132 -40 191q-41 60 -130 60t-130 -60q-40 -59 -40 -191q0 -133 40 -192z" />
    <glyph glyph-name="aring.salt" horiz-adv-x="1306" 
d="M834 1241q-62 -53 -162 -53t-162 53q-61 52 -61 141q0 88 61 142q62 53 162 53t162 -53q61 -54 61 -142q0 -89 -61 -141zM737 1383q0 57 -65 57q-66 0 -66 -57q0 -58 66 -58q65 0 65 58zM827 811v254h394v-1065h-394v285q-40 -146 -136 -231q-94 -85 -222 -85
q-187 0 -303 155q-115 154 -115 409q0 254 115 408q116 155 303 155q128 0 222 -75.5t136 -209.5zM511 341q41 -60 130 -60t130 60q40 59 40 192q0 132 -40 191q-41 60 -130 60t-130 -60q-40 -59 -40 -191q0 -133 40 -192z" />
    <glyph glyph-name="aringacute.salt" horiz-adv-x="1306" 
d="M834 1241q-62 -53 -162 -53t-162 53q-61 52 -61 141q0 88 61 142q62 53 162 53l35 174h294l-151 -244q45 -51 45 -125q0 -89 -61 -141zM737 1383q0 57 -65 57q-66 0 -66 -57q0 -58 66 -58q65 0 65 58zM827 811v254h394v-1065h-394v285q-40 -146 -136 -231
q-94 -85 -222 -85q-187 0 -303 155q-115 154 -115 409q0 254 115 408q116 155 303 155q128 0 222 -75.5t136 -209.5zM511 341q41 -60 130 -60t130 60q40 59 40 192q0 132 -40 191q-41 60 -130 60t-130 -60q-40 -59 -40 -191q0 -133 40 -192z" />
    <glyph glyph-name="atilde.salt" horiz-adv-x="1306" 
d="M545 1298q-82 0 -82 -79h-184q0 173 59.5 257.5t185.5 84.5q58 0 144 -42q84 -42 129 -42q82 0 82 79h184q0 -176 -58 -259t-188 -83q-59 0 -143 42t-129 42zM827 811v254h394v-1065h-394v285q-40 -146 -136 -231q-94 -85 -222 -85q-187 0 -303 155q-115 154 -115 409
q0 254 115 408q116 155 303 155q128 0 222 -75.5t136 -209.5zM511 341q41 -60 130 -60t130 60q40 59 40 192q0 132 -40 191q-41 60 -130 60t-130 -60q-40 -59 -40 -191q0 -133 40 -192z" />
    <glyph glyph-name="g.salt" horiz-adv-x="1312" 
d="M834 811v254h393v-1010q0 -213 -162 -344q-163 -131 -428 -131q-255 0 -413 128t-158 339h329q-155 33 -246 174q-92 142 -92 342q0 241 115 387q116 146 303 146q128 0 223 -75.5t136 -209.5zM777 732q-40 52 -130 52t-130 -52t-40 -169q0 -221 170 -221t170 221
q0 117 -40 169zM500 -80q43 -37 137 -37q93 0 137 54q43 55 43 176v172q-48 -115 -137.5 -180.5t-204.5 -65.5h-20q1 -81 45 -119z" />
    <glyph glyph-name="gbreve.salt" horiz-adv-x="1312" 
d="M930 1280q-90 -92 -252 -92t-252 92t-90 287h246q0 -143 96 -143q48 -1 72 35t24 108h246q0 -195 -90 -287zM834 811v254h393v-1010q0 -213 -162 -344q-163 -131 -428 -131q-255 0 -413 128t-158 339h329q-155 33 -246 174q-92 142 -92 342q0 241 115 387
q116 146 303 146q128 0 223 -75.5t136 -209.5zM777 732q-40 52 -130 52t-130 -52t-40 -169q0 -221 170 -221t170 221q0 117 -40 169zM500 -80q43 -37 137 -37q93 0 137 54q43 55 43 176v172q-48 -115 -137.5 -180.5t-204.5 -65.5h-20q1 -81 45 -119z" />
    <glyph glyph-name="gcaron.salt" horiz-adv-x="1312" 
d="M940 1198h-524l-172 369h315l119 -312l119 312h315zM834 811v254h393v-1010q0 -213 -162 -344q-163 -131 -428 -131q-255 0 -413 128t-158 339h329q-155 33 -246 174q-92 142 -92 342q0 241 115 387q116 146 303 146q128 0 223 -75.5t136 -209.5zM777 732q-40 52 -130 52
t-130 -52t-40 -169q0 -221 170 -221t170 221q0 117 -40 169zM500 -80q43 -37 137 -37q93 0 137 54q43 55 43 176v172q-48 -115 -137.5 -180.5t-204.5 -65.5h-20q1 -81 45 -119z" />
    <glyph glyph-name="gcircumflex.salt" horiz-adv-x="1312" 
d="M797 1198l-119 311l-119 -311h-315l172 369h524l172 -369h-315zM834 811v254h393v-1010q0 -213 -162 -344q-163 -131 -428 -131q-255 0 -413 128t-158 339h329q-155 33 -246 174q-92 142 -92 342q0 241 115 387q116 146 303 146q128 0 223 -75.5t136 -209.5zM777 732
q-40 52 -130 52t-130 -52t-40 -169q0 -221 170 -221t170 221q0 117 -40 169zM500 -80q43 -37 137 -37q93 0 137 54q43 55 43 176v172q-48 -115 -137.5 -180.5t-204.5 -65.5h-20q1 -81 45 -119z" />
    <glyph glyph-name="uni0123.salt" horiz-adv-x="1312" 
d="M686 1452l180 -53v-201h-379v246q0 127 112 206t294 79v-154q-109 0 -158 -28.5t-49 -94.5zM834 811v254h393v-1010q0 -213 -162 -344q-163 -131 -428 -131q-255 0 -413 128t-158 339h329q-155 33 -246 174q-92 142 -92 342q0 241 115 387q116 146 303 146
q128 0 223 -75.5t136 -209.5zM777 732q-40 52 -130 52t-130 -52t-40 -169q0 -221 170 -221t170 221q0 117 -40 169zM500 -80q43 -37 137 -37q93 0 137 54q43 55 43 176v172q-48 -115 -137.5 -180.5t-204.5 -65.5h-20q1 -81 45 -119z" />
    <glyph glyph-name="gdotaccent.salt" horiz-adv-x="1312" 
d="M463 1546h430v-329h-430v329zM834 811v254h393v-1010q0 -213 -162 -344q-163 -131 -428 -131q-255 0 -413 128t-158 339h329q-155 33 -246 174q-92 142 -92 342q0 241 115 387q116 146 303 146q128 0 223 -75.5t136 -209.5zM777 732q-40 52 -130 52t-130 -52t-40 -169
q0 -221 170 -221t170 221q0 117 -40 169zM500 -80q43 -37 137 -37q93 0 137 54q43 55 43 176v172q-48 -115 -137.5 -180.5t-204.5 -65.5h-20q1 -81 45 -119z" />
    <glyph glyph-name="l.salt" horiz-adv-x="587" 
d="M92 0v1567h410v-1567h-410z" />
    <glyph glyph-name="lacute.salt" horiz-adv-x="587" 
d="M141 1659l72 369h356l-147 -369h-281zM92 0v1567h410v-1567h-410z" />
    <glyph glyph-name="lcaron.salt" horiz-adv-x="587" 
d="M92 0v1567h410v-1567h-410zM608 1366v201h359v-246q0 -127 -105 -206q-106 -79 -280 -79v154q99 0 142.5 28.5t43.5 94.5z" />
    <glyph glyph-name="uni013C.salt" horiz-adv-x="587" 
d="M92 0v1567h410v-1567h-410zM121 -315v200h358v-245q0 -126 -105 -206q-106 -79 -280 -79v153q98 0 142.5 29t44.5 94z" />
    <glyph glyph-name="ldot.salt" horiz-adv-x="1034" 
d="M92 0v1567h410v-1567h-410zM604 565v391h391v-391h-391z" />
    <glyph glyph-name="lslash.salt" horiz-adv-x="681" 
d="M506 936l156 113v-367l-156 -113v-569h-410v397l-123 -86v367l123 86v803h410v-631z" />
    <glyph glyph-name="y.salt" horiz-adv-x="1269" 
d="M700 465l140 600h420l-363 -1464h-397l94 399h-320l-264 1065h428l137 -600l62 -320z" />
    <glyph glyph-name="yacute.salt" horiz-adv-x="1269" 
d="M565 1567h357l-148 -369h-280zM700 465l140 600h420l-363 -1464h-397l94 399h-320l-264 1065h428l137 -600l62 -320z" />
    <glyph glyph-name="ycircumflex.salt" horiz-adv-x="1269" 
d="M768 1198l-119 311l-119 -311h-315l172 369h524l172 -369h-315zM700 465l140 600h420l-363 -1464h-397l94 399h-320l-264 1065h428l137 -600l62 -320z" />
    <glyph glyph-name="ydieresis.salt" horiz-adv-x="1269" 
d="M262 1546h348v-329h-348v329zM686 1546h348v-329h-348v329zM700 465l140 600h420l-363 -1464h-397l94 399h-320l-264 1065h428l137 -600l62 -320z" />
    <glyph glyph-name="ygrave.salt" horiz-adv-x="1269" 
d="M729 1567l72 -369h-281l-147 369h356zM700 465l140 600h420l-363 -1464h-397l94 399h-320l-264 1065h428l137 -600l62 -320z" />
    <glyph glyph-name="uni0233.salt" horiz-adv-x="1269" 
d="M356 1536h586v-307h-586v307zM700 465l140 600h420l-363 -1464h-397l94 399h-320l-264 1065h428l137 -600l62 -320z" />
    <glyph glyph-name="uni1EF9.salt" horiz-adv-x="1269" 
d="M522 1298q-82 0 -82 -79h-184q0 173 60 257.5t186 84.5q59 0 143 -42t129 -42q82 0 82 79h184q0 -176 -57.5 -259t-187.5 -83q-59 0 -143 42q-86 42 -130 42zM700 465l140 600h420l-363 -1464h-397l94 399h-320l-264 1065h428l137 -600l62 -320z" />
    <glyph glyph-name="z.ss03" horiz-adv-x="1067" 
d="M375 299l219 12h401v-311h-913v504l620 262l-229 -12h-381v311h893v-508z" />
    <glyph glyph-name="zacute.ss03" horiz-adv-x="1067" 
d="M455 1567h356l-147 -369h-281zM375 299l219 12h401v-311h-913v504l620 262l-229 -12h-381v311h893v-508z" />
    <glyph glyph-name="zcaron.ss03" horiz-adv-x="1067" 
d="M801 1198h-525l-172 369h316l119 -312l118 312h316zM375 299l219 12h401v-311h-913v504l620 262l-229 -12h-381v311h893v-508z" />
    <glyph glyph-name="zdotaccent.ss03" horiz-adv-x="1067" 
d="M324 1546h430v-329h-430v329zM375 299l219 12h401v-311h-913v504l620 262l-229 -12h-381v311h893v-508z" />
    <glyph glyph-name="f_f_j.dlig" horiz-adv-x="2099" 
d="M1313 1065h704v-1106q0 -170 -119 -275q-121 -104 -315 -104q-78 0 -156 21v297h84q96 0 97 100v760h-295v-758h-410v758h-295v-758h-409v758h-195v307h195v102q0 170 122 275q122 104 322 104q107 0 176 -20v-297h-104q-105 0 -107 -107v-57h295v143q0 170 122 275
q122 104 323 104q110 0 176 -26v-291h-105q-106 0 -106 -107v-98zM1597 1217v329h431v-329h-431z" />
    <glyph glyph-name="f_iacute.dlig" horiz-adv-x="1396" 
d="M608 1065h705v-1065h-410v758h-295v-758h-409v758h-195v307h195v143q0 170 122 275q122 104 322 104q122 0 217 -22v-295h-145q-105 0 -107 -107v-98zM1024 1567h356l-147 -369h-281z" />
    <glyph glyph-name="f_j.dlig" horiz-adv-x="1394" 
d="M608 1065h705v-1106q0 -170 -120 -275q-121 -104 -314 -104q-78 0 -156 21v297h84q96 0 96 100v760h-295v-758h-409v758h-195v307h195v143q0 170 122 275q122 104 322 104q106 0 176 -24v-293h-104q-105 0 -107 -107v-98zM893 1217v329h430v-329h-430z" />
    <glyph glyph-name="f_t.dlig" horiz-adv-x="1722" 
d="M1454 297h227v-297q-151 -20 -299 -20q-200 0 -322 104t-122 274v400h-330v-758h-409v758h-195v307h195v143q0 170 122 275q122 104 322 104q122 0 217 -22v-295h-145q-105 0 -107 -107v-98h332l8 309h400v-309h331v-307h-331v-355q0 -106 106 -106z" />
    <glyph glyph-name="t_t.dlig" horiz-adv-x="1748" 
d="M1481 297h227v-297q-151 -20 -299 -20q-200 0 -322 104t-122 274v400h-357v-355q0 -106 107 -106h153v-295q-106 -23 -225 -22q-200 0 -322 104t-122 274v400h-195v307h197l8 268h399v-268h359l8 309h399v-309h332v-307h-332v-355q1 -106 107 -106z" />
    <glyph glyph-name="f_f_l.liga.salt" horiz-adv-x="2138" 
d="M903 1065v143q0 170 122 275q122 104 323 104q128 0 217 -24v-293h-146q-106 0 -106 -107v-98h250v-307h-250v-758h-410v758h-295v-758h-409v758h-195v307h195v102q0 170 122 275q122 104 322 104q107 0 176 -20v-297h-104q-105 0 -107 -107v-57h295zM1642 0v1567h410
v-1567h-410z" />
    <glyph glyph-name="uniFB02.aalt" horiz-adv-x="1433" 
d="M199 1065v143q0 170 122 275q122 104 322 104q131 0 217 -26v-291h-145q-105 0 -107 -107v-98h250v-307h-250v-758h-409v758h-195v307h195zM938 0v1567h410v-1567h-410z" />
    <glyph glyph-name="A.c2sc" horiz-adv-x="1378" 
d="M1368 0h-420l-57 201h-418l-57 -201h-406l324 1096h710zM629 741l-70 -243h246l-72 243l-51 213z" />
    <glyph glyph-name="Aacute.aalt" horiz-adv-x="1378" 
d="M600 1567h356l-147 -369h-281zM1368 0h-420l-57 201h-418l-57 -201h-406l324 1096h710zM629 741l-70 -243h246l-72 243l-51 213z" />
    <glyph glyph-name="Abreve.aalt" horiz-adv-x="1378" 
d="M936 1280q-90 -92 -252 -92t-252 92t-90 287h246q0 -143 96 -143q48 -1 72 35t24 108h246q0 -195 -90 -287zM1368 0h-420l-57 201h-418l-57 -201h-406l324 1096h710zM629 741l-70 -243h246l-72 243l-51 213z" />
    <glyph glyph-name="Acircumflex.aalt" horiz-adv-x="1378" 
d="M803 1198l-119 311l-119 -311h-315l172 369h524l172 -369h-315zM1368 0h-420l-57 201h-418l-57 -201h-406l324 1096h710zM629 741l-70 -243h246l-72 243l-51 213z" />
    <glyph glyph-name="Adieresis.aalt" horiz-adv-x="1378" 
d="M297 1546h348v-329h-348v329zM721 1546h348v-329h-348v329zM1368 0h-420l-57 201h-418l-57 -201h-406l324 1096h710zM629 741l-70 -243h246l-72 243l-51 213z" />
    <glyph glyph-name="uni1EA0.aalt" horiz-adv-x="1378" 
d="M334 1096h710l324 -1096h-420l-57 201h-418l-57 -201h-406zM629 741l-70 -243h246l-72 243l-51 213zM905 -444h-430v329h430v-329z" />
    <glyph glyph-name="Agrave.aalt" horiz-adv-x="1378" 
d="M764 1567l72 -369h-281l-147 369h356zM1368 0h-420l-57 201h-418l-57 -201h-406l324 1096h710zM629 741l-70 -243h246l-72 243l-51 213z" />
    <glyph glyph-name="Amacron.aalt" horiz-adv-x="1378" 
d="M391 1536h586v-307h-586v307zM1368 0h-420l-57 201h-418l-57 -201h-406l324 1096h710zM629 741l-70 -243h246l-72 243l-51 213z" />
    <glyph glyph-name="Aogonek.aalt" horiz-adv-x="1378" 
d="M1098 -184q0 -37 47 -37h94v-230h-303q-78 0 -119 38t-41 102q0 75 55 151l117 160l-57 201h-418l-57 -201h-406l324 1096h710l324 -1096h-156l-90 -129q-24 -31 -24 -55zM629 741l-70 -243h246l-72 243l-51 213z" />
    <glyph glyph-name="Aring.aalt" horiz-adv-x="1378" 
d="M846 1241q-62 -53 -162 -53q-99 0 -161 53t-62 141t62 142q62 53 161 53q100 0 162 -53q61 -54 61 -142q0 -89 -61 -141zM750 1383q0 57 -66 57t-66 -57q0 -58 66 -58t66 58zM1368 0h-420l-57 201h-418l-57 -201h-406l324 1096h710zM629 741l-70 -243h246l-72 243
l-51 213z" />
    <glyph glyph-name="Aringacute.aalt" horiz-adv-x="1378" 
d="M846 1241q-62 -53 -162 -53q-99 0 -161 53t-62 141t62 142q62 53 161 53l35 174h295l-152 -244q45 -51 45 -125q0 -89 -61 -141zM750 1383q0 57 -66 57t-66 -57q0 -58 66 -58t66 58zM1368 0h-420l-57 201h-418l-57 -201h-406l324 1096h710zM629 741l-70 -243h246l-72 243
l-51 213z" />
    <glyph glyph-name="Atilde.aalt" horiz-adv-x="1378" 
d="M557 1298q-82 0 -82 -79h-184q0 173 60 257.5t186 84.5q59 0 143 -42t129 -42q82 0 82 79h184q0 -176 -58 -259t-188 -83q-59 0 -143 42t-129 42zM1368 0h-420l-57 201h-418l-57 -201h-406l324 1096h710zM629 741l-70 -243h246l-72 243l-51 213z" />
    <glyph glyph-name="AE.aalt" horiz-adv-x="1855" 
d="M1243 426l35 -119h485v-307h-815l-57 201h-418l-57 -201h-406l324 1096h1425v-308h-624l34 -112h574v-250h-500zM629 741l-70 -243h246l-72 243l-51 213z" />
    <glyph glyph-name="AEacute.aalt" horiz-adv-x="1855" 
d="M885 1567h356l-147 -369h-281zM1243 426l35 -119h485v-307h-815l-57 201h-418l-57 -201h-406l324 1096h1425v-308h-624l34 -112h574v-250h-500zM629 741l-70 -243h246l-72 243l-51 213z" />
    <glyph glyph-name="B.aalt" horiz-adv-x="1263" 
d="M928 614q154 -27 234.5 -104t80.5 -199q0 -139 -104 -225q-106 -86 -277 -86h-751v1096h751q155 0 250 -69q94 -69 94 -181q1 -100 -68.5 -158t-209.5 -74zM670 829h-150v-174h150q123 0 123 88q0 86 -123 86zM520 266h180q66 0 94.5 21.5t28.5 71.5q0 49 -28.5 70.5
t-94.5 21.5h-180v-185z" />
    <glyph glyph-name="C.aalt" horiz-adv-x="1265" 
d="M221 127q-164 158 -164 416t164 416q163 157 432 157q249 0 400 -133t151 -352h-399q0 90 -36 132t-116 42q-92 0 -134 -62.5t-42 -199.5t42 -199.5t134 -62.5q82 0 119 34.5t37 110.5h399q0 -207 -152 -332q-154 -125 -403 -125q-268 0 -432 158z" />
    <glyph glyph-name="Cacute.aalt" horiz-adv-x="1265" 
d="M494 1198l71 369h357l-148 -369h-280zM221 127q-164 158 -164 416t164 416q163 157 432 157q249 0 400 -133t151 -352h-399q0 90 -36 132t-116 42q-92 0 -134 -62.5t-42 -199.5t42 -199.5t134 -62.5q82 0 119 34.5t37 110.5h399q0 -207 -152 -332q-154 -125 -403 -125
q-268 0 -432 158z" />
    <glyph glyph-name="Ccaron.aalt" horiz-adv-x="1265" 
d="M911 1198h-524l-172 369h315l119 -312l119 312h315zM809 426h399q0 -207 -152 -332q-154 -125 -403 -125q-268 0 -432 158t-164 416t164 416q163 157 432 157q249 0 400 -133t151 -352h-399q0 90 -36 132t-116 42q-92 0 -134 -62.5t-42 -199.5t42 -199.5t134 -62.5
q82 0 119 34.5t37 110.5z" />
    <glyph glyph-name="Ccedilla.aalt" horiz-adv-x="1265" 
d="M809 426h399q0 -179 -119 -301q-120 -121 -325 -148l-29 -77h10q78 0 125.5 -45t47.5 -121q0 -81 -53 -134q-54 -51 -140 -51h-256v152h166q43 0 43 33t-43 33h-148v124l39 89q-217 37 -343 187t-126 376q0 258 164 416q163 157 432 157q249 0 400 -133t151 -352h-399
q0 90 -36 132t-116 42q-92 0 -134 -62.5t-42 -199.5t42 -199.5t134 -62.5q82 0 119 34.5t37 110.5z" />
    <glyph glyph-name="Ccircumflex.aalt" horiz-adv-x="1265" 
d="M768 1198l-119 311l-119 -311h-315l172 369h524l172 -369h-315zM809 426h399q0 -207 -152 -332q-154 -125 -403 -125q-268 0 -432 158t-164 416t164 416q163 157 432 157q249 0 400 -133t151 -352h-399q0 90 -36 132t-116 42q-92 0 -134 -62.5t-42 -199.5t42 -199.5
t134 -62.5q82 0 119 34.5t37 110.5z" />
    <glyph glyph-name="Cdotaccent.aalt" horiz-adv-x="1265" 
d="M434 1217v329h430v-329h-430zM221 127q-164 158 -164 416t164 416q163 157 432 157q249 0 400 -133t151 -352h-399q0 90 -36 132t-116 42q-92 0 -134 -62.5t-42 -199.5t42 -199.5t134 -62.5q82 0 119 34.5t37 110.5h399q0 -207 -152 -332q-154 -125 -403 -125
q-268 0 -432 158z" />
    <glyph glyph-name="D.aalt" horiz-adv-x="1357" 
d="M111 1096h583q272 0 439 -150q167 -152 167 -397q0 -248 -166 -398q-166 -151 -440 -151h-583v1096zM520 307h123q238 0 238 242q0 120 -59.5 180t-178.5 59h-123v-481z" />
    <glyph glyph-name="Eth.aalt" horiz-adv-x="1351" 
d="M111 1096h583q272 0 439 -150q167 -152 167 -397q0 -248 -166 -398q-166 -151 -440 -151h-583v430h-111v246h111v420zM520 307h123q238 0 238 242q0 120 -59.5 180t-178.5 59h-123v-112h195v-246h-195v-123z" />
    <glyph glyph-name="Dcaron.aalt" horiz-adv-x="1357" 
d="M922 1198h-525l-172 369h316l118 -312l119 312h316zM111 1096h583q272 0 439 -150q167 -152 167 -397q0 -248 -166 -398q-166 -151 -440 -151h-583v1096zM520 307h123q238 0 238 242q0 120 -59.5 180t-178.5 59h-123v-481z" />
    <glyph glyph-name="Dcroat.aalt" horiz-adv-x="1351" 
d="M111 1096h583q272 0 439 -150q167 -152 167 -397q0 -248 -166 -398q-166 -151 -440 -151h-583v430h-111v246h111v420zM520 307h123q238 0 238 242q0 120 -59.5 180t-178.5 59h-123v-112h195v-246h-195v-123z" />
    <glyph glyph-name="E.aalt" horiz-adv-x="1142" 
d="M520 426v-119h531v-307h-940v1096h936v-308h-527v-112h510v-250h-510z" />
    <glyph glyph-name="Eacute.aalt" horiz-adv-x="1142" 
d="M496 1567h356l-147 -369h-281zM520 426v-119h531v-307h-940v1096h936v-308h-527v-112h510v-250h-510z" />
    <glyph glyph-name="Ebreve.aalt" horiz-adv-x="1142" 
d="M832 1280q-92 -92 -252 -92q-162 0 -252 92t-90 287h245q0 -143 97 -143q48 -1 72 35t24 108h246q0 -195 -90 -287zM520 426v-119h531v-307h-940v1096h936v-308h-527v-112h510v-250h-510z" />
    <glyph glyph-name="Ecaron.aalt" horiz-adv-x="1142" 
d="M842 1198h-525l-172 369h316l119 -312l118 312h316zM520 426v-119h531v-307h-940v1096h936v-308h-527v-112h510v-250h-510z" />
    <glyph glyph-name="Ecircumflex.aalt" horiz-adv-x="1142" 
d="M698 1198l-118 311l-119 -311h-316l172 369h525l172 -369h-316zM520 426v-119h531v-307h-940v1096h936v-308h-527v-112h510v-250h-510z" />
    <glyph glyph-name="Edieresis.aalt" horiz-adv-x="1142" 
d="M193 1546h348v-329h-348v329zM616 1546h349v-329h-349v329zM520 426v-119h531v-307h-940v1096h936v-308h-527v-112h510v-250h-510z" />
    <glyph glyph-name="Edotaccent.aalt" horiz-adv-x="1142" 
d="M365 1546h430v-329h-430v329zM520 426v-119h531v-307h-940v1096h936v-308h-527v-112h510v-250h-510z" />
    <glyph glyph-name="uni1EB8.aalt" horiz-adv-x="1142" 
d="M520 426v-119h531v-307h-940v1096h936v-308h-527v-112h510v-250h-510zM795 -444h-430v329h430v-329z" />
    <glyph glyph-name="Egrave.aalt" horiz-adv-x="1142" 
d="M659 1567l72 -369h-280l-148 369h356zM520 426v-119h531v-307h-940v1096h936v-308h-527v-112h510v-250h-510z" />
    <glyph glyph-name="Emacron.aalt" horiz-adv-x="1142" 
d="M287 1536h585v-307h-585v307zM520 426v-119h531v-307h-940v1096h936v-308h-527v-112h510v-250h-510z" />
    <glyph glyph-name="Eogonek.aalt" horiz-adv-x="1142" 
d="M983 -221h94v-230h-303q-78 0 -119 38t-41 102q0 74 56 151l116 160h-675v1096h936v-308h-527v-112h510v-250h-510v-119h531v-307l-90 -129q-25 -32 -25 -55q0 -37 47 -37z" />
    <glyph glyph-name="uni1EBC.aalt" horiz-adv-x="1142" 
d="M453 1298q-82 0 -82 -79h-185q0 173 60 257.5t186 84.5q59 0 143 -42t130 -42q41 0 61.5 19.5t19.5 59.5h185q0 -176 -58 -259t-188 -83q-59 0 -143 42t-129 42zM520 426v-119h531v-307h-940v1096h936v-308h-527v-112h510v-250h-510z" />
    <glyph glyph-name="uni018F.aalt" horiz-adv-x="1296" 
d="M645 1116q268 0 431 -157t163 -416t-163 -416q-164 -158 -431 -158q-257 0 -415 144q-158 143 -158 376v121h745q-10 106 -55 155.5t-133 49.5q-162 0 -162 -119h-389q0 188 156 304q155 116 411 116zM645 270q131 0 164 144l-193 -4h-137q26 -140 166 -140z" />
    <glyph glyph-name="F.aalt" horiz-adv-x="1087" 
d="M1026 1096v-308h-506v-112h490v-250h-490v-426h-409v1096h915z" />
    <glyph glyph-name="G.aalt" horiz-adv-x="1331" 
d="M641 377v209h608v-586h-368v317q-35 -348 -355 -348q-213 0 -341 149t-128 400q0 274 168 436t449 162q253 0 410 -122q155 -122 155 -322h-399q0 70 -39 101.5t-127 31.5q-102 0 -149.5 -62.5t-47.5 -199.5t47 -199.5t150 -62.5q144 0 166 96h-199z" />
    <glyph glyph-name="Gbreve.aalt" horiz-adv-x="1331" 
d="M928 1280q-90 -92 -252 -92t-252 92t-90 287h246q0 -143 96 -143q48 -1 72 35t24 108h246q0 -195 -90 -287zM641 377v209h608v-586h-368v317q-35 -348 -355 -348q-213 0 -341 149t-128 400q0 274 168 436t449 162q253 0 410 -122q155 -122 155 -322h-399q0 70 -39 101.5
t-127 31.5q-102 0 -149.5 -62.5t-47.5 -199.5t47 -199.5t150 -62.5q144 0 166 96h-199z" />
    <glyph glyph-name="Gcaron.aalt" horiz-adv-x="1331" 
d="M938 1198h-524l-172 369h315l119 -312l119 312h315zM641 377v209h608v-586h-368v317q-35 -348 -355 -348q-213 0 -341 149t-128 400q0 274 168 436t449 162q253 0 410 -122q155 -122 155 -322h-399q0 70 -39 101.5t-127 31.5q-102 0 -149.5 -62.5t-47.5 -199.5t47 -199.5
t150 -62.5q144 0 166 96h-199z" />
    <glyph glyph-name="Gcircumflex.aalt" horiz-adv-x="1331" 
d="M795 1198l-119 311l-119 -311h-315l172 369h524l172 -369h-315zM641 377v209h608v-586h-368v317q-35 -348 -355 -348q-213 0 -341 149t-128 400q0 274 168 436t449 162q253 0 410 -122q155 -122 155 -322h-399q0 70 -39 101.5t-127 31.5q-102 0 -149.5 -62.5
t-47.5 -199.5t47 -199.5t150 -62.5q144 0 166 96h-199z" />
    <glyph glyph-name="uni0122.aalt" horiz-adv-x="1331" 
d="M641 377v209h608v-586h-368v317q-35 -348 -355 -348q-213 0 -341 149t-128 400q0 274 168 436t449 162q253 0 410 -122q155 -122 155 -322h-399q0 70 -39 101.5t-127 31.5q-102 0 -149.5 -62.5t-47.5 -199.5t47 -199.5t150 -62.5q144 0 166 96h-199zM680 -369l-160 54
v200h359v-245q0 -126 -105 -206q-106 -79 -280 -79v153q98 0 142 29t44 94z" />
    <glyph glyph-name="Gdotaccent.aalt" horiz-adv-x="1331" 
d="M461 1546h430v-329h-430v329zM641 377v209h608v-586h-368v317q-35 -348 -355 -348q-213 0 -341 149t-128 400q0 274 168 436t449 162q253 0 410 -122q155 -122 155 -322h-399q0 70 -39 101.5t-127 31.5q-102 0 -149.5 -62.5t-47.5 -199.5t47 -199.5t150 -62.5
q144 0 166 96h-199z" />
    <glyph glyph-name="H.aalt" horiz-adv-x="1402" 
d="M883 707v389h409v-1096h-409v399h-363v-399h-409v1096h409v-389h363z" />
    <glyph glyph-name="Hbar.aalt" horiz-adv-x="1394" 
d="M1292 989h88v-184h-88v-805h-409v399h-363v-399h-409v805h-97v184h97v107h409v-107h363v107h409v-107zM520 707h363v98h-363v-98z" />
    <glyph glyph-name="Hcircumflex.aalt" horiz-adv-x="1402" 
d="M793 1198l-119 311l-119 -311h-315l172 369h524l172 -369h-315zM883 707v389h409v-1096h-409v399h-363v-399h-409v1096h409v-389h363z" />
    <glyph glyph-name="i.aalt" horiz-adv-x="630" 
d="M111 0v1096h409v-1096h-409z" />
    <glyph glyph-name="iacute.aalt" horiz-adv-x="630" 
d="M160 1198l71 369h357l-148 -369h-280zM111 0v1096h409v-1096h-409z" />
    <glyph glyph-name="ibreve.aalt" horiz-adv-x="630" 
d="M412 1567h245q0 -191 -88 -285t-253 -94q-166 0 -254.5 94t-88.5 285h246q0 -143 97 -143q48 -1 72 35t24 108zM111 0v1096h409v-1096h-409z" />
    <glyph glyph-name="icircumflex.aalt" horiz-adv-x="630" 
d="M434 1198l-119 311l-118 -311h-316l172 369h525l172 -369h-316zM520 0h-409v1096h409v-1096z" />
    <glyph glyph-name="idieresis.aalt" horiz-adv-x="630" 
d="M-72 1217v329h348v-329h-348zM352 1217v329h348v-329h-348zM111 0v1096h409v-1096h-409z" />
    <glyph glyph-name="Idotaccent.c2sc" horiz-adv-x="630" 
d="M100 1217v329h430v-329h-430zM111 0v1096h409v-1096h-409z" />
    <glyph glyph-name="uni1ECB.aalt" horiz-adv-x="630" 
d="M111 0v1096h409v-1096h-409zM100 -444v329h430v-329h-430z" />
    <glyph glyph-name="igrave.aalt" horiz-adv-x="630" 
d="M39 1567h356l72 -369h-281zM111 0v1096h409v-1096h-409z" />
    <glyph glyph-name="IJ.aalt" horiz-adv-x="1239" 
d="M111 287h530q96 0 96 100v709h410v-748q0 -177 -136 -277q-136 -102 -401 -102q-277 0 -499 37v281zM115 471v625h409v-625h-409z" />
    <glyph glyph-name="imacron.aalt" horiz-adv-x="630" 
d="M23 1536h585v-307h-585v307zM111 0v1096h409v-1096h-409z" />
    <glyph glyph-name="iogonek.aalt" horiz-adv-x="630" 
d="M453 -221h94v-230h-303q-78 0 -119 38t-41 102q0 75 55 151l117 160h-145v1096h409v-1096l-90 -129q-25 -33 -24 -55q0 -37 47 -37z" />
    <glyph glyph-name="itilde.aalt" horiz-adv-x="630" 
d="M461 1214q-59 0 -143 42q-86 42 -130 42q-82 0 -82 -79h-184q0 173 60 257.5t186 84.5q59 0 143 -42t129 -42q82 0 82 79h185q0 -176 -58 -259t-188 -83zM111 0v1096h409v-1096h-409z" />
    <glyph glyph-name="J.aalt" horiz-adv-x="1165" 
d="M20 444h400q0 -86 29.5 -124.5t93.5 -38.5q63 0 92 38.5t29 122.5v654h409v-703q0 -190 -146 -307q-147 -117 -384 -117q-236 0 -379 131q-144 130 -144 344z" />
    <glyph glyph-name="Jcircumflex.aalt" horiz-adv-x="1165" 
d="M981 1198l-119 311l-119 -311h-315l172 369h524l172 -369h-315zM664 442v654h409v-703q0 -190 -146 -307q-147 -117 -384 -117q-236 0 -379 131q-144 130 -144 344h400q0 -86 29.5 -124.5t93.5 -38.5q63 0 92 38.5t29 122.5z" />
    <glyph glyph-name="K.aalt" horiz-adv-x="1376" 
d="M1358 1096l-414 -537l463 -559h-494l-282 360l-111 154v-514h-409v1096h409v-512l109 157l272 355h457z" />
    <glyph glyph-name="uni0136.aalt" horiz-adv-x="1376" 
d="M1358 1096l-414 -537l463 -559h-494l-282 360l-111 154v-514h-409v1096h409v-512l109 157l272 355h457zM698 -369l-159 54v200h358v-245q0 -126 -105 -206q-106 -79 -280 -79v153q98 0 142 29t44 94z" />
    <glyph glyph-name="L.aalt" horiz-adv-x="1071" 
d="M520 1096v-789h531v-307h-940v1096h409z" />
    <glyph glyph-name="Lacute.aalt" horiz-adv-x="1071" 
d="M231 1567h357l-148 -369h-280zM520 1096v-789h531v-307h-940v1096h409z" />
    <glyph glyph-name="Lcaron.aalt" horiz-adv-x="1071" 
d="M520 1096v-789h531v-307h-940v1096h409zM987 1096v-246q0 -126 -105 -206q-106 -79 -280 -79v154q99 0 142.5 28.5t43.5 94.5l-159 53v201h358z" />
    <glyph glyph-name="uni013B.aalt" horiz-adv-x="1071" 
d="M520 1096v-789h531v-307h-940v1096h409zM541 -369l-160 54v200h358v-245q0 -126 -105 -206q-106 -79 -280 -79v153q98 0 142.5 29t44.5 94z" />
    <glyph glyph-name="Ldot.aalt" horiz-adv-x="1071" 
d="M520 1096v-789h531v-307h-940v1096h409zM625 838h323v-324h-323v324z" />
    <glyph glyph-name="Lslash.aalt" horiz-adv-x="1071" 
d="M520 483v-176h531v-307h-940v344l-111 -47v274l111 47v478h409v-338l295 129v-275z" />
    <glyph glyph-name="M.aalt" horiz-adv-x="1865" 
d="M1057 1096h698v-1096h-405v606l10 334l-154 -940h-542l-158 944l10 -338v-606h-405v1096h710l86 -604l33 -324l31 324z" />
    <glyph glyph-name="N.aalt" horiz-adv-x="1523" 
d="M1008 602v494h405v-1096h-713l-192 932l8 -438v-494h-405v1096h712l193 -918z" />
    <glyph glyph-name="Nacute.aalt" horiz-adv-x="1523" 
d="M682 1567h356l-147 -369h-281zM1008 602v494h405v-1096h-713l-192 932l8 -438v-494h-405v1096h712l193 -918z" />
    <glyph glyph-name="Ncaron.aalt" horiz-adv-x="1523" 
d="M1028 1198h-524l-172 369h315l119 -312l119 312h315zM1008 602v494h405v-1096h-713l-192 932l8 -438v-494h-405v1096h712l193 -918z" />
    <glyph glyph-name="uni0145.aalt" horiz-adv-x="1523" 
d="M1008 602v494h405v-1096h-713l-192 932l8 -438v-494h-405v1096h712l193 -918zM745 -369l-159 54v200h358v-245q0 -126 -105 -206q-106 -79 -280 -79v153q98 0 142 29t44 94z" />
    <glyph glyph-name="Eng.aalt" horiz-adv-x="1523" 
d="M1008 1096h405v-1096h-4v-41q0 -170 -119 -275q-119 -104 -311 -104q-78 0 -156 21v297h84q96 0 97 100v2h-304l-192 932l8 -438v-494h-405v1096h712l193 -918l-8 424v494z" />
    <glyph glyph-name="uni019D.aalt" horiz-adv-x="1523" 
d="M1008 602v494h405v-1096h-713l-192 932l8 -438v-494h-4v-41q0 -170 -119 -275q-119 -104 -311 -104q-78 0 -156 21v297h84q96 0 96 100v10h5v1088h712l193 -918z" />
    <glyph glyph-name="Ntilde.aalt" horiz-adv-x="1523" 
d="M639 1298q-82 0 -82 -79h-184q0 173 60 257.5t185 84.5q58 0 144 -42q84 -42 129 -42q82 0 82 79h184q0 -176 -58 -259t-188 -83q-59 0 -143 42t-129 42zM1008 602v494h405v-1096h-713l-192 932l8 -438v-494h-405v1096h712l193 -918z" />
    <glyph glyph-name="O.c2sc" horiz-adv-x="1339" 
d="M1113 127q-170 -158 -443 -158q-274 0 -444 158q-169 157 -169 416t169 416t444 157q274 0 443 -157t169 -416t-169 -416zM523 344q47 -63 147 -63t146 63q46 61 46 199t-46 200q-47 62 -146 62q-100 0 -147 -62q-46 -62 -46 -200t46 -199z" />
    <glyph glyph-name="Oacute.aalt" horiz-adv-x="1339" 
d="M514 1198l72 369h356l-147 -369h-281zM1113 127q-170 -158 -443 -158q-274 0 -444 158q-169 157 -169 416t169 416t444 157q274 0 443 -157t169 -416t-169 -416zM523 344q47 -63 147 -63t146 63q46 61 46 199t-46 200q-47 62 -146 62q-100 0 -147 -62q-46 -62 -46 -200
t46 -199z" />
    <glyph glyph-name="Obreve.aalt" horiz-adv-x="1339" 
d="M766 1567h246q0 -191 -88.5 -285t-253.5 -94q-166 0 -254 94t-88 285h245q0 -143 97 -143q48 -1 72 35t24 108zM1113 127q-170 -158 -443 -158q-274 0 -444 158q-169 157 -169 416t169 416t444 157q274 0 443 -157t169 -416t-169 -416zM523 344q47 -63 147 -63t146 63
q46 61 46 199t-46 200q-47 62 -146 62q-100 0 -147 -62q-46 -62 -46 -200t46 -199z" />
    <glyph glyph-name="Ocircumflex.aalt" horiz-adv-x="1339" 
d="M788 1198l-118 311l-119 -311h-315l172 369h524l172 -369h-316zM226 959q169 157 444 157q274 0 443 -157t169 -416t-169 -416q-170 -158 -443 -158q-274 0 -444 158q-169 157 -169 416t169 416zM523 344q47 -63 147 -63t146 63q46 61 46 199t-46 200q-47 62 -146 62
q-100 0 -147 -62q-46 -62 -46 -200t46 -199z" />
    <glyph glyph-name="Odieresis.aalt" horiz-adv-x="1339" 
d="M283 1217v329h348v-329h-348zM707 1217v329h348v-329h-348zM1113 127q-170 -158 -443 -158q-274 0 -444 158q-169 157 -169 416t169 416t444 157q274 0 443 -157t169 -416t-169 -416zM523 344q47 -63 147 -63t146 63q46 61 46 199t-46 200q-47 62 -146 62
q-100 0 -147 -62q-46 -62 -46 -200t46 -199z" />
    <glyph glyph-name="uni1ECC.aalt" horiz-adv-x="1339" 
d="M1113 127q-170 -158 -443 -158q-274 0 -444 158q-169 157 -169 416t169 416t444 157q274 0 443 -157t169 -416t-169 -416zM523 344q47 -63 147 -63t146 63q46 61 46 199t-46 200q-47 62 -146 62q-100 0 -147 -62q-46 -62 -46 -200t46 -199zM455 -444v329h430v-329h-430z
" />
    <glyph glyph-name="Ograve.aalt" horiz-adv-x="1339" 
d="M393 1567h357l71 -369h-280zM1113 127q-170 -158 -443 -158q-274 0 -444 158q-169 157 -169 416t169 416t444 157q274 0 443 -157t169 -416t-169 -416zM523 344q47 -63 147 -63t146 63q46 61 46 199t-46 200q-47 62 -146 62q-100 0 -147 -62q-46 -62 -46 -200t46 -199z
" />
    <glyph glyph-name="Ohungarumlaut.aalt" horiz-adv-x="1339" 
d="M344 1198l72 369h305l-96 -369h-281zM702 1198l72 369h356l-147 -369h-281zM1113 127q-170 -158 -443 -158q-274 0 -444 158q-169 157 -169 416t169 416t444 157q274 0 443 -157t169 -416t-169 -416zM523 344q47 -63 147 -63t146 63q46 61 46 199t-46 200q-47 62 -146 62
q-100 0 -147 -62q-46 -62 -46 -200t46 -199z" />
    <glyph glyph-name="Omacron.aalt" horiz-adv-x="1339" 
d="M377 1536h586v-307h-586v307zM1113 127q-170 -158 -443 -158q-274 0 -444 158q-169 157 -169 416t169 416t444 157q274 0 443 -157t169 -416t-169 -416zM523 344q47 -63 147 -63t146 63q46 61 46 199t-46 200q-47 62 -146 62q-100 0 -147 -62q-46 -62 -46 -200t46 -199z
" />
    <glyph glyph-name="uni01EA.aalt" horiz-adv-x="1339" 
d="M887 0l-90 -129q-25 -32 -25 -55q0 -37 47 -37h94v-230h-303q-78 0 -118.5 38t-40.5 102q0 75 55 151l96 131q-246 19 -396 175q-149 155 -149 397q0 259 169 416t444 157q274 0 443 -157t169 -416q0 -201 -105 -345q-107 -146 -290 -198zM523 743q-46 -62 -46 -200
t46 -199q47 -63 147 -63t146 63q46 61 46 199t-46 200q-47 62 -146 62q-100 0 -147 -62z" />
    <glyph glyph-name="Oslash.aalt" horiz-adv-x="1339" 
d="M1245 1208l-147 -235q184 -157 184 -430q0 -259 -169 -416q-170 -158 -443 -158q-88 0 -185 21l-84 -133h-290l149 239q-203 164 -203 447q0 259 169 416t444 157q110 0 209 -29l75 121h291zM477 543q0 -51 6 -90l219 350q-14 2 -32 2q-100 0 -146.5 -62.5t-46.5 -199.5z
M666 281h4q100 0 146 62.5t46 199.5q0 31 -2 49z" />
    <glyph glyph-name="Oslashacute.aalt" horiz-adv-x="1339" 
d="M594 1567h356l-147 -369h-281zM1245 1208l-147 -235q184 -157 184 -430q0 -259 -169 -416q-170 -158 -443 -158q-88 0 -185 21l-84 -133h-290l149 239q-203 164 -203 447q0 259 169 416t444 157q110 0 209 -29l75 121h291zM477 543q0 -51 6 -90l219 350q-14 2 -32 2
q-100 0 -146.5 -62.5t-46.5 -199.5zM666 281h4q100 0 146 62.5t46 199.5q0 31 -2 49z" />
    <glyph glyph-name="Otilde.aalt" horiz-adv-x="1339" 
d="M815 1214q-59 0 -143 42t-129 42q-82 0 -82 -79h-185q0 173 60 257.5t186 84.5q58 0 144 -42q84 -42 129 -42q82 0 82 79h184q0 -176 -58 -259t-188 -83zM1113 127q-170 -158 -443 -158q-274 0 -444 158q-169 157 -169 416t169 416t444 157q274 0 443 -157t169 -416
t-169 -416zM523 344q47 -63 147 -63t146 63q46 61 46 199t-46 200q-47 62 -146 62q-100 0 -147 -62q-46 -62 -46 -200t46 -199z" />
    <glyph glyph-name="OE.aalt" horiz-adv-x="1867" 
d="M1245 426v-119h531v-307h-1112q-273 0 -439 151q-168 150 -168 398q0 245 167 397q167 150 440 150h1108v-308h-527v-112h510v-250h-510zM715 307h121v481h-121q-238 0 -238 -239q0 -242 238 -242z" />
    <glyph glyph-name="P.aalt" horiz-adv-x="1261" 
d="M111 1096h706q183 0 293 -109q111 -109 111 -291q0 -174 -111 -281q-111 -108 -293 -108h-297v-307h-409v1096zM520 604h160q121 0 121 92t-121 92h-160v-184z" />
    <glyph glyph-name="Thorn.aalt" horiz-adv-x="1228" 
d="M516 948h297q183 0 293 -109q111 -109 111 -290q0 -175 -111 -281q-111 -108 -293 -108h-297v-160h-410v1096h410v-148zM516 457h160q121 0 121 92t-121 92h-160v-184z" />
    <glyph glyph-name="Q.aalt" horiz-adv-x="1339" 
d="M1282 543q0 -228 -133 -379l113 -98l-185 -187l-125 144q-124 -53 -282 -54q-273 0 -443 158t-170 416q0 259 169 416t444 157q274 0 443 -157t169 -416zM523 743q-46 -62 -46 -200t46 -199q47 -63 147 -63h28l-112 104l168 172l106 -113q2 38 2 99q0 137 -45.5 199.5
t-146.5 62.5q-100 0 -147 -62z" />
    <glyph glyph-name="R.aalt" horiz-adv-x="1345" 
d="M1335 0h-456l-183 336h-176v-336h-409v1096h716q182 0 293 -105q111 -106 111 -280q0 -190 -139 -295l82 -121zM690 788h-170v-184h170q121 0 121 92t-121 92z" />
    <glyph glyph-name="Racute.aalt" horiz-adv-x="1345" 
d="M580 1567h356l-148 -369h-280zM1335 0h-456l-183 336h-176v-336h-409v1096h716q182 0 293 -105q111 -106 111 -280q0 -190 -139 -295l82 -121zM690 788h-170v-184h170q121 0 121 92t-121 92z" />
    <glyph glyph-name="Rcaron.aalt" horiz-adv-x="1345" 
d="M926 1198h-525l-172 369h316l119 -312l118 312h316zM1335 0h-456l-183 336h-176v-336h-409v1096h716q182 0 293 -105q111 -106 111 -280q0 -190 -139 -295l82 -121zM690 788h-170v-184h170q121 0 121 92t-121 92z" />
    <glyph glyph-name="uni0156.aalt" horiz-adv-x="1345" 
d="M1092 416l82 -121l161 -295h-456l-183 336h-176v-336h-409v1096h716q182 0 293 -105q111 -106 111 -280q0 -190 -139 -295zM690 788h-170v-184h170q121 0 121 92t-121 92zM668 -369l-160 54v200h358v-245q0 -126 -105 -206q-106 -79 -280 -79v153q98 0 142.5 29t44.5 94z
" />
    <glyph glyph-name="S.aalt" horiz-adv-x="1271" 
d="M57 336h400q0 -98 174 -98q164 0 164 63q-1 21 -14.5 31t-61.5 19t-156 20q-485 41 -485 370q0 169 151 272q149 103 396 103q248 0 401 -105q152 -107 152 -278h-400q0 60 -37 87.5t-118 27.5q-144 0 -146 -68q0 -34 49 -47q53 -14 191 -26q274 -26 385 -107
q112 -82 112 -244q0 -176 -158 -281q-158 -106 -427 -106q-256 0 -414 101t-158 266z" />
    <glyph glyph-name="Sacute.aalt" horiz-adv-x="1271" 
d="M477 1198l72 369h356l-147 -369h-281zM57 336h400q0 -98 174 -98q164 0 164 63q-1 21 -14.5 31t-61.5 19t-156 20q-485 41 -485 370q0 169 151 272q149 103 396 103q248 0 401 -105q152 -107 152 -278h-400q0 60 -37 87.5t-118 27.5q-144 0 -146 -68q0 -34 49 -47
q53 -14 191 -26q274 -26 385 -107q112 -82 112 -244q0 -176 -158 -281q-158 -106 -427 -106q-256 0 -414 101t-158 266z" />
    <glyph glyph-name="Scaron.aalt" horiz-adv-x="1271" 
d="M895 1198h-524l-172 369h315l119 -312l119 312h315zM717 707q274 -26 385 -107q112 -82 112 -244q0 -176 -158 -281q-158 -106 -427 -106q-256 0 -414 101t-158 266h400q0 -98 174 -98q164 0 164 63q-1 21 -14.5 31t-61.5 19t-156 20q-485 41 -485 370q0 169 151 272
q149 103 396 103q248 0 401 -105q152 -107 152 -278h-400q0 60 -37 87.5t-118 27.5q-144 0 -146 -68q0 -33 50 -47q52 -14 190 -26z" />
    <glyph glyph-name="Scedilla.c2sc" horiz-adv-x="1271" 
d="M1214 356q0 -156 -123 -257q-126 -102 -343 -124l-29 -75h10q78 0 125 -45t47 -121q0 -81 -53 -134q-52 -51 -139 -51h-256v152h165q42 0 44 33q0 33 -44 33h-147v124l37 84q-207 22 -329 119q-122 96 -122 242h400q0 -98 174 -98q164 0 164 63q-1 21 -14.5 31t-61.5 19
t-156 20q-485 41 -485 370q0 169 151 272q149 103 396 103q248 0 401 -105q152 -107 152 -278h-400q0 60 -37 87.5t-118 27.5q-144 0 -146 -68q0 -34 49 -47q53 -14 191 -26q274 -26 385 -107q112 -82 112 -244z" />
    <glyph glyph-name="Scircumflex.aalt" horiz-adv-x="1271" 
d="M752 1198l-119 311l-119 -311h-315l172 369h524l172 -369h-315zM717 707q274 -26 385 -107q112 -82 112 -244q0 -176 -158 -281q-158 -106 -427 -106q-256 0 -414 101t-158 266h400q0 -98 174 -98q164 0 164 63q-1 21 -14.5 31t-61.5 19t-156 20q-485 41 -485 370
q0 169 151 272q149 103 396 103q248 0 401 -105q152 -107 152 -278h-400q0 60 -37 87.5t-118 27.5q-144 0 -146 -68q0 -33 50 -47q52 -14 190 -26z" />
    <glyph glyph-name="uni0218.aalt" horiz-adv-x="1271" 
d="M57 336h400q0 -98 174 -98q164 0 164 63q-1 21 -14.5 31t-61.5 19t-156 20q-485 41 -485 370q0 169 151 272q149 103 396 103q248 0 401 -105q152 -107 152 -278h-400q0 60 -37 87.5t-118 27.5q-144 0 -146 -68q0 -34 49 -47q53 -14 191 -26q274 -26 385 -107
q112 -82 112 -244q0 -176 -158 -281q-158 -106 -427 -106q-256 0 -414 101t-158 266zM453 -315v200h358v-245q0 -126 -105 -206q-106 -79 -280 -79v153q98 0 142 29t44 94z" />
    <glyph glyph-name="T.aalt" horiz-adv-x="1138" 
d="M10 1096h1118v-308h-354v-788h-409v788h-355v308z" />
    <glyph glyph-name="Tbar.aalt" horiz-adv-x="1138" 
d="M1128 1096v-308h-354v-167h273v-226h-273v-395h-409v395h-275v226h275v167h-355v308h1118z" />
    <glyph glyph-name="Tcaron.aalt" horiz-adv-x="1138" 
d="M831 1198h-524l-172 369h316l118 -312l119 312h316zM10 1096h1118v-308h-354v-788h-409v788h-355v308z" />
    <glyph glyph-name="uni0162.c2sc" horiz-adv-x="1138" 
d="M774 788v-788h-80l-39 -100h11q78 0 125 -45t47 -121q0 -81 -53 -134q-54 -51 -140 -51h-256v152h166q43 0 43 33t-43 33h-147v124l47 109h-90v788h-355v308h1118v-308h-354z" />
    <glyph glyph-name="uni021A.aalt" horiz-adv-x="1138" 
d="M10 1096h1118v-308h-354v-788h-409v788h-355v308zM549 -369l-160 54v200h359v-245q0 -126 -105 -206q-106 -79 -281 -79v153q98 0 142.5 29t44.5 94z" />
    <glyph glyph-name="U.aalt" horiz-adv-x="1310" 
d="M92 414v682h410v-641q0 -91 36 -132.5t117 -41.5t117.5 41.5t36.5 132.5v641h410v-682q0 -201 -155 -323t-409 -122q-253 0 -408 122t-155 323z" />
    <glyph glyph-name="Uacute.aalt" horiz-adv-x="1310" 
d="M500 1198l71 369h357l-148 -369h-280zM92 414v682h410v-641q0 -91 36 -132.5t117 -41.5t117.5 41.5t36.5 132.5v641h410v-682q0 -201 -155 -323t-409 -122q-253 0 -408 122t-155 323z" />
    <glyph glyph-name="Ubreve.aalt" horiz-adv-x="1310" 
d="M752 1567h245q0 -191 -88 -285t-253 -94q-166 0 -254.5 94t-88.5 285h246q0 -143 97 -143q48 -1 72 35t24 108zM92 414v682h410v-641q0 -91 36 -132.5t117 -41.5t117.5 41.5t36.5 132.5v641h410v-682q0 -201 -155 -323t-409 -122q-253 0 -408 122t-155 323z" />
    <glyph glyph-name="Ucircumflex.aalt" horiz-adv-x="1310" 
d="M774 1198l-119 311l-118 -311h-316l172 369h525l172 -369h-316zM809 455v641h410v-682q0 -201 -155 -323t-409 -122q-253 0 -408 122t-155 323v682h410v-641q0 -91 36 -132.5t117 -41.5t117.5 41.5t36.5 132.5z" />
    <glyph glyph-name="Udieresis.aalt" horiz-adv-x="1310" 
d="M268 1217v329h348v-329h-348zM692 1217v329h348v-329h-348zM92 414v682h410v-641q0 -91 36 -132.5t117 -41.5t117.5 41.5t36.5 132.5v641h410v-682q0 -201 -155 -323t-409 -122q-253 0 -408 122t-155 323z" />
    <glyph glyph-name="uni1EE4.aalt" horiz-adv-x="1310" 
d="M92 414v682h410v-641q0 -91 36 -132.5t117 -41.5t117.5 41.5t36.5 132.5v641h410v-682q0 -201 -155 -323t-409 -122q-253 0 -408 122t-155 323zM440 -444v329h430v-329h-430z" />
    <glyph glyph-name="Ugrave.aalt" horiz-adv-x="1310" 
d="M379 1567h356l72 -369h-281zM92 414v682h410v-641q0 -91 36 -132.5t117 -41.5t117.5 41.5t36.5 132.5v641h410v-682q0 -201 -155 -323t-409 -122q-253 0 -408 122t-155 323z" />
    <glyph glyph-name="Uhungarumlaut.aalt" horiz-adv-x="1310" 
d="M330 1198l71 369h306l-97 -369h-280zM688 1198l72 369h356l-147 -369h-281zM92 414v682h410v-641q0 -91 36 -132.5t117 -41.5t117.5 41.5t36.5 132.5v641h410v-682q0 -201 -155 -323t-409 -122q-253 0 -408 122t-155 323z" />
    <glyph glyph-name="Umacron.aalt" horiz-adv-x="1310" 
d="M362 1536h586v-307h-586v307zM92 414v682h410v-641q0 -91 36 -132.5t117 -41.5t117.5 41.5t36.5 132.5v641h410v-682q0 -201 -155 -323t-409 -122q-253 0 -408 122t-155 323z" />
    <glyph glyph-name="Uogonek.aalt" horiz-adv-x="1310" 
d="M809 455v641h410v-682q0 -150 -91 -259q-93 -111 -249 -157l-91 -127q-25 -33 -24 -55q0 -37 47 -37h94v-230h-303q-78 0 -119 38t-41 102q0 74 56 151l96 131q-228 17 -364 136q-138 120 -138 307v682h410v-641q0 -91 36 -132.5t117 -41.5t117.5 41.5t36.5 132.5z" />
    <glyph glyph-name="Uring.aalt" horiz-adv-x="1310" 
d="M818 1241q-62 -53 -162 -53t-162 53t-62 141t62 142q62 53 162 53t162 -53q61 -54 61 -142q0 -89 -61 -141zM590 1383q0 -58 66 -58q65 0 65 58q0 57 -65 57q-66 0 -66 -57zM92 414v682h410v-641q0 -91 36 -132.5t117 -41.5t117.5 41.5t36.5 132.5v641h410v-682
q0 -201 -155 -323t-409 -122q-253 0 -408 122t-155 323z" />
    <glyph glyph-name="Utilde.aalt" horiz-adv-x="1310" 
d="M801 1214q-59 0 -143 42q-86 42 -130 42q-82 0 -82 -79h-184q0 173 60 257.5t186 84.5q59 0 143 -42t129 -42q82 0 82 79h185q0 -176 -58 -259t-188 -83zM92 414v682h410v-641q0 -91 36 -132.5t117 -41.5t117.5 41.5t36.5 132.5v641h410v-682q0 -201 -155 -323t-409 -122
q-253 0 -408 122t-155 323z" />
    <glyph glyph-name="V.aalt" horiz-adv-x="1378" 
d="M750 354l213 742h405l-324 -1096h-710l-324 1096h420l215 -742l51 -213z" />
    <glyph glyph-name="W.aalt" horiz-adv-x="2111" 
d="M1507 354l129 742h435l-224 -1096h-641l-110 649l-39 301l-41 -301l-111 -649h-641l-223 1096h434l129 -742l27 -192l22 192l117 742h571l117 -742l23 -192z" />
    <glyph glyph-name="Wacute.aalt" horiz-adv-x="2111" 
d="M993 1567h357l-148 -369h-280zM1507 354l129 742h435l-224 -1096h-641l-110 649l-39 301l-41 -301l-111 -649h-641l-223 1096h434l129 -742l27 -192l22 192l117 742h571l117 -742l23 -192z" />
    <glyph glyph-name="Wcircumflex.aalt" horiz-adv-x="2111" 
d="M1196 1198l-119 311l-119 -311h-315l172 369h524l172 -369h-315zM1507 354l129 742h435l-224 -1096h-641l-110 649l-39 301l-41 -301l-111 -649h-641l-223 1096h434l129 -742l27 -192l22 192l117 742h571l117 -742l23 -192z" />
    <glyph glyph-name="Wdieresis.aalt" horiz-adv-x="2111" 
d="M690 1546h348v-329h-348v329zM1114 1546h348v-329h-348v329zM1507 354l129 742h435l-224 -1096h-641l-110 649l-39 301l-41 -301l-111 -649h-641l-223 1096h434l129 -742l27 -192l22 192l117 742h571l117 -742l23 -192z" />
    <glyph glyph-name="Wgrave.aalt" horiz-adv-x="2111" 
d="M1157 1567l72 -369h-281l-147 369h356zM1507 354l129 742h435l-224 -1096h-641l-110 649l-39 301l-41 -301l-111 -649h-641l-223 1096h434l129 -742l27 -192l22 192l117 742h571l117 -742l23 -192z" />
    <glyph glyph-name="X.aalt" horiz-adv-x="1470" 
d="M1421 1096l-313 -510l352 -586h-461l-163 279l-105 202l-104 -202l-162 -279h-455l344 573l-319 523h461l131 -224l106 -204l105 204l131 224h452z" />
    <glyph glyph-name="Y.aalt" horiz-adv-x="1310" 
d="M891 1096h430l-461 -789v-307h-409v303l-461 793h444l170 -328l58 -127l57 127z" />
    <glyph glyph-name="Yacute.aalt" horiz-adv-x="1310" 
d="M571 1567h357l-148 -369h-280zM891 1096h430l-461 -789v-307h-409v303l-461 793h444l170 -328l58 -127l57 127z" />
    <glyph glyph-name="Ycircumflex.aalt" horiz-adv-x="1310" 
d="M774 1198l-119 311l-118 -311h-316l172 369h525l172 -369h-316zM891 1096h430l-461 -789v-307h-409v303l-461 793h444l170 -328l58 -127l57 127z" />
    <glyph glyph-name="Ydieresis.aalt" horiz-adv-x="1310" 
d="M268 1546h348v-329h-348v329zM692 1546h348v-329h-348v329zM891 1096h430l-461 -789v-307h-409v303l-461 793h444l170 -328l58 -127l57 127z" />
    <glyph glyph-name="Ygrave.aalt" horiz-adv-x="1310" 
d="M735 1567l72 -369h-281l-147 369h356zM891 1096h430l-461 -789v-307h-409v303l-461 793h444l170 -328l58 -127l57 127z" />
    <glyph glyph-name="uni0232.aalt" horiz-adv-x="1310" 
d="M362 1536h586v-307h-586v307zM891 1096h430l-461 -789v-307h-409v303l-461 793h444l170 -328l58 -127l57 127z" />
    <glyph glyph-name="uni1EF8.aalt" horiz-adv-x="1310" 
d="M528 1298q-82 0 -82 -79h-184q0 173 60 257.5t186 84.5q59 0 143 -42t129 -42q82 0 82 79h185q0 -176 -58 -259t-188 -83q-59 0 -143 42q-86 42 -130 42zM891 1096h430l-461 -789v-307h-409v303l-461 793h444l170 -328l58 -127l57 127z" />
    <glyph glyph-name="Z.c2sc" horiz-adv-x="1097" 
d="M248 303l143 4h635v-307h-954v610l774 183l-152 -5h-614v308h942v-611z" />
    <glyph glyph-name="Zacute.c2sc" horiz-adv-x="1097" 
d="M465 1567h356l-147 -369h-281zM248 303l143 4h635v-307h-954v610l774 183l-152 -5h-614v308h942v-611z" />
    <glyph glyph-name="Zcaron.c2sc" horiz-adv-x="1097" 
d="M811 1198h-524l-172 369h315l119 -312l119 312h315zM248 303l143 4h635v-307h-954v610l774 183l-152 -5h-614v308h942v-611z" />
    <glyph glyph-name="Zdotaccent.c2sc" horiz-adv-x="1097" 
d="M334 1546h430v-329h-430v329zM248 303l143 4h635v-307h-954v610l774 183l-152 -5h-614v308h942v-611z" />
    <glyph glyph-name="i.aalt.aalt" horiz-adv-x="954" 
d="M893 1096v-308h-211v-481h211v-307h-832v307h211v481h-211v308h832z" />
    <glyph glyph-name="iacute.aalt.aalt" horiz-adv-x="954" 
d="M393 1567h357l-148 -369h-280zM893 1096v-308h-211v-481h211v-307h-832v307h211v481h-211v308h832z" />
    <glyph glyph-name="ibreve.aalt.aalt" horiz-adv-x="954" 
d="M729 1280q-90 -92 -252 -92t-252 92t-90 287h246q0 -143 96 -143q48 -1 72 35t24 108h246q0 -195 -90 -287zM893 1096v-308h-211v-481h211v-307h-832v307h211v481h-211v308h832z" />
    <glyph glyph-name="icircumflex.aalt.aalt" horiz-adv-x="954" 
d="M596 1198l-119 311l-119 -311h-315l172 369h524l172 -369h-315zM61 1096h832v-308h-211v-481h211v-307h-832v307h211v481h-211v308z" />
    <glyph glyph-name="idieresis.aalt.aalt" horiz-adv-x="954" 
d="M90 1546h348v-329h-348v329zM514 1546h348v-329h-348v329zM893 1096v-308h-211v-481h211v-307h-832v307h211v481h-211v308h832z" />
    <glyph glyph-name="Idotaccent.c2sc.ss02" horiz-adv-x="954" 
d="M262 1546h430v-329h-430v329zM893 1096v-308h-211v-481h211v-307h-832v307h211v481h-211v308h832z" />
    <glyph glyph-name="uni1ECB.aalt.aalt" horiz-adv-x="954" 
d="M893 1096v-308h-211v-481h211v-307h-832v307h211v481h-211v308h832zM692 -444h-430v329h430v-329z" />
    <glyph glyph-name="igrave.aalt.aalt" horiz-adv-x="954" 
d="M557 1567l72 -369h-281l-147 369h356zM893 1096v-308h-211v-481h211v-307h-832v307h211v481h-211v308h832z" />
    <glyph glyph-name="imacron.aalt.aalt" horiz-adv-x="954" 
d="M184 1536h586v-307h-586v307zM893 1096v-308h-211v-481h211v-307h-832v307h211v481h-211v308h832z" />
    <glyph glyph-name="iogonek.aalt.aalt" horiz-adv-x="954" 
d="M893 1096v-308h-211v-481h211v-307h-211l-90 -129q-25 -32 -25 -55q0 -37 47 -37h95v-230h-303q-78 0 -119 38t-41 102q0 75 55 151l117 160h-357v307h211v481h-211v308h832z" />
    <glyph glyph-name="itilde.aalt.aalt" horiz-adv-x="954" 
d="M350 1298q-82 0 -82 -79h-184q0 173 60 257.5t186 84.5q59 0 143 -42t129 -42q82 0 82 79h184q0 -176 -57.5 -259t-187.5 -83q-59 0 -143 42q-86 42 -130 42zM893 1096v-308h-211v-481h211v-307h-832v307h211v481h-211v308h832z" />
    <glyph glyph-name="Z.c2sc.ss03" horiz-adv-x="1097" 
d="M346 305l86 2h594v-307h-954v559l676 232l-95 -3h-573v308h942v-559z" />
    <glyph glyph-name="Zacute.c2sc.ss03" horiz-adv-x="1097" 
d="M465 1567h356l-147 -369h-281zM346 305l86 2h594v-307h-954v559l676 232l-95 -3h-573v308h942v-559z" />
    <glyph glyph-name="Zcaron.c2sc.ss03" horiz-adv-x="1097" 
d="M811 1198h-524l-172 369h315l119 -312l119 312h315zM346 305l86 2h594v-307h-954v559l676 232l-95 -3h-573v308h942v-559z" />
    <glyph glyph-name="Zdotaccent.c2sc.ss03" horiz-adv-x="1097" 
d="M334 1546h430v-329h-430v329zM346 305l86 2h594v-307h-954v559l676 232l-95 -3h-573v308h942v-559z" />
    <glyph glyph-name="zero.case" horiz-adv-x="1523" 
d="M1270 178q-194 -209 -508 -209q-316 0 -508 209q-193 208 -193 549t193 549q192 209 508 209q314 0 508 -209q192 -208 192 -549t-192 -549zM572 438q58 -90 190 -90q131 0 191 90q59 91 59 289t-59 289q-60 90 -191 90q-132 0 -190 -90q-60 -90 -60 -289t60 -289z" />
    <glyph glyph-name="one.case" horiz-adv-x="1110" 
d="M303 1454h694v-1454h-440v754l12 465l-227 -226l-291 -262v498z" />
    <glyph glyph-name="two.case" horiz-adv-x="1273" 
d="M535 449l-277 -78l293 8h672v-379h-1151v625l594 184q67 18 94.5 61t27.5 121t-32.5 115t-104.5 37q-74 0 -108.5 -51.5t-34.5 -163.5h-430q0 250 162 404q161 153 428 153q260 0 411 -135q150 -136 150 -357q0 -156 -90 -270.5t-254 -165.5z" />
    <glyph glyph-name="three.case" horiz-adv-x="1314" 
d="M819 805q228 -24 346.5 -127.5t118.5 -267.5q0 -198 -171 -320q-170 -121 -451 -121q-273 0 -442 149q-169 148 -169 392h430q0 -104 42.5 -151.5t133.5 -47.5q93 0 135 35t42 113q0 53 -39 84.5t-113 31.5h-178v287h178q50 0 76 42t26 112q0 66 -32.5 96.5t-104.5 30.5
t-104.5 -47t-32.5 -150h-430q0 243 161 392q161 147 425 147q256 0 413 -106q156 -107 156 -281q0 -125 -107 -202t-309 -91z" />
    <glyph glyph-name="four.case" horiz-adv-x="1318" 
d="M1090 571h198v-338h-198v-233h-441v233h-608v734l311 487h738v-883zM162 565l268 6h219v375l10 397z" />
    <glyph glyph-name="five.case" horiz-adv-x="1314" 
d="M856 944q182 0 295 -125t113 -330q0 -234 -169 -376q-169 -144 -443 -144q-275 0 -443 147q-168 146 -168 384h430q0 -98 42 -143.5t134 -45.5q93 0 134 40q42 41 42 128t-42 128q-41 40 -134 40q-100 0 -172 -72h-381l51 879h1035v-379h-445l-231 4l-23 -401
q52 127 148 196.5t227 69.5z" />
    <glyph glyph-name="six.case" horiz-adv-x="1458" 
d="M920 920q212 0 339 -117t127 -307q0 -238 -167 -382q-167 -145 -449 -145q-346 0 -527.5 191.5t-181.5 556.5q0 345 195 557q195 211 514 211q264 0 424 -132t160 -352h-410q0 75 -42.5 108.5t-139.5 33.5q-131 0 -191.5 -101.5t-60.5 -324.5v-82q38 132 147 208
q110 77 263 77zM737 311q106 0 152.5 36t46.5 118q0 81 -46 116t-153 35q-209 0 -209 -151q0 -80 50 -117t159 -37z" />
    <glyph glyph-name="seven.case" horiz-adv-x="1179" 
d="M31 1075v379h1097v-676q-198 -53 -331 -267q-135 -214 -135 -511h-461q0 356 206 654q101 147 267 261q168 114 379 170l-404 -10h-618z" />
    <glyph glyph-name="eight.case" horiz-adv-x="1486" 
d="M1028 743q387 -78 387 -372q0 -180 -184 -291q-185 -111 -487 -111q-304 0 -488 111q-184 109 -184 291q0 295 387 372q-342 72 -342 332q0 185 172 297q173 113 455 113t454 -112t172 -298q0 -260 -342 -332zM886 1125q-44 38 -142 38q-99 0 -143 -38t-44 -121
q0 -84 44 -122t143 -38q98 0 142 38t44 122q0 83 -44 121zM568 330q56 -39 176 -39q121 0 176 39t55 125t-55 125q-56 38 -176 38t-176 -38q-56 -39 -56 -125t56 -125z" />
    <glyph glyph-name="nine.case" horiz-adv-x="1458" 
d="M688 1485q346 0 527.5 -191.5t181.5 -556.5q0 -345 -194 -557q-195 -211 -515 -211q-263 0 -424 132q-160 132 -160 352h410q0 -75 42.5 -108.5t139.5 -33.5q131 0 191.5 101.5t60.5 324.5v82q-38 -131 -146 -207q-110 -77 -263 -77q-211 0 -339 117q-128 116 -128 306
q0 238 168 383q166 144 448 144zM721 838q209 0 209 151q0 80 -50.5 117t-158.5 37q-106 0 -152.5 -36t-46.5 -118q0 -80 46.5 -115.5t152.5 -35.5z" />
    <glyph glyph-name="four.case.ss03" horiz-adv-x="1318" 
d="M1090 571h198v-338h-198v-233h-441v233h-608v549l469 672h580v-883zM231 567l199 4h219v375l6 225z" />
    <glyph glyph-name="zero.case.zero" horiz-adv-x="1523" 
d="M254 1276q192 209 508 209q314 0 508 -209q192 -208 192 -549t-192 -549q-194 -209 -508 -209q-316 0 -508 209q-193 208 -193 549t193 549zM762 1106q-131 0 -190.5 -90t-59.5 -289q0 -135 29 -227l299 596q-27 10 -78 10zM762 348q131 0 190.5 90t59.5 289
q0 161 -37 248l-307 -613q39 -14 94 -14z" />
    <glyph glyph-name="zero.oldstyle" horiz-adv-x="1318" 
d="M1101 127q-167 -158 -441 -158q-275 0 -442 158t-167 416t167 416q166 157 442 157q275 0 441 -157q167 -158 167 -416t-167 -416zM494 368q63 -67 166 -67q102 0 166 67q63 66 63 175q0 107 -63 175q-64 66 -166 66q-103 0 -166 -66q-64 -67 -64 -175q0 -110 64 -175z
" />
    <glyph glyph-name="one.oldstyle" horiz-adv-x="1320" 
d="M922 1096v-768h378v-328h-1239v328h451v67l12 488l-227 -228l-219 -198v430l233 209h611z" />
    <glyph glyph-name="two.oldstyle" horiz-adv-x="1140" 
d="M254 311l324 6h522v-317h-1039v496l455 110q97 26 130 50q34 24 34 75t-27.5 74.5t-89.5 23.5q-66 0 -94.5 -35.5t-28.5 -117.5h-389q0 199 141 320q139 120 371 120q227 0 367 -99q139 -99 139 -261q0 -131 -91 -212q-92 -82 -298 -134l-150 -37z" />
    <glyph glyph-name="three.oldstyle" horiz-adv-x="1214" 
d="M725 414q210 -17 334 -121q125 -105 125 -264q0 -219 -172 -334t-500 -115q-262 0 -471 60v299h547q92 0 134 30.5t42 98.5q0 59 -39 94t-113 35h-260v276h219q66 0 94.5 40.5t28.5 133.5q0 82 -30.5 120t-95.5 38q-66 0 -97 -44.5t-31 -142.5h-389q0 226 145 362
q143 136 379 136q230 0 369 -106t139 -281q0 -131 -94 -216q-95 -85 -264 -99z" />
    <glyph glyph-name="four.oldstyle" horiz-adv-x="1339" 
d="M1110 358h209v-338h-209v-419h-410v419h-628v658l348 418h690v-738zM164 354l317 4h219v230l11 424z" />
    <glyph glyph-name="five.oldstyle" horiz-adv-x="1191" 
d="M758 565q175 0 285 -125q108 -124 108 -329q0 -238 -176 -385q-176 -146 -463 -146q-262 0 -471 60v299h487q106 0 154.5 38.5t48.5 124.5q0 88 -41 127t-133 39q-111 0 -174 -92h-320l52 920h966v-338h-438l-227 4l-25 -455q47 121 144 189.5t223 68.5z" />
    <glyph glyph-name="six.oldstyle" horiz-adv-x="1337" 
d="M860 893q194 0 310 -112q116 -113 116 -296q0 -233 -156 -374q-157 -142 -419 -142q-322 0 -491 191.5t-169 556.5q0 347 200 553q199 205 572 205q250 0 451 -58v-301h-561q-131 0 -191.5 -95t-60.5 -304v-96q38 127 146 199q107 73 253 73zM678 281q100 0 144 40.5
t44 133.5q0 80 -44 115.5t-144 35.5q-199 0 -199 -151q0 -90 48.5 -132t150.5 -42z" />
    <glyph glyph-name="seven.oldstyle" horiz-adv-x="1058" 
d="M25 758v338h1003v-607q-198 -77 -331 -318q-134 -244 -134 -570h-430q0 384 220 715q221 332 601 450l-405 -8h-524z" />
    <glyph glyph-name="eight.oldstyle" horiz-adv-x="1302" 
d="M922 731q340 -76 340 -350q0 -187 -168 -299q-169 -113 -443 -113q-265 0 -438 114q-172 114 -172 298q0 274 340 350q-336 72 -336 334q0 188 167 304t440 116q272 0 439 -116q166 -115 166 -304q1 -131 -83 -214.5t-252 -119.5zM794 1134q-43 40 -142 40
q-100 0 -143 -40q-44 -41 -44 -130q0 -91 44 -130q43 -40 143 -40q99 0 142 40q44 39 44 130q0 89 -44 130zM461 444q0 -163 191 -163q190 0 190 163q0 86 -45 125t-145 39t-145.5 -39t-45.5 -125z" />
    <glyph glyph-name="nine.oldstyle" horiz-adv-x="1337" 
d="M627 1116q321 0 490 -197.5t169 -570.5q0 -354 -198 -561q-200 -207 -574 -207q-250 0 -451 58v301h562q132 0 192 97t60 312v113q-34 -129 -140 -204q-107 -75 -254 -75q-195 0 -313 115q-119 116 -119 303q0 233 157 375q158 141 419 141zM659 469q199 0 199 162
q0 90 -48 132t-151 42q-100 0 -144 -41t-44 -133q0 -87 44 -124.5t144 -37.5z" />
    <glyph glyph-name="four.oldstyle.ss03" horiz-adv-x="1339" 
d="M1110 358h209v-338h-209v-419h-410v419h-628v494l481 582h557v-738zM268 354l213 4h219v230l9 297z" />
    <glyph glyph-name="zero.oldstyle.zero" horiz-adv-x="1318" 
d="M218 959q166 157 442 157q275 0 441 -157q167 -158 167 -416t-167 -416t-441 -158q-275 0 -442 158t-167 416t167 416zM659 784q-102 0 -165 -66q-64 -67 -64 -175q0 -87 41 -148l305 361q-50 28 -117 28zM659 301q102 0 166 67q64 65 64 175q0 88 -41 147l-305 -360
q53 -29 116 -29z" />
    <glyph glyph-name="four.ss03" horiz-adv-x="1318" 
d="M1090 571h198v-338h-198v-233h-441v233h-608v549l469 672h580v-883zM231 567l199 4h219v375l6 225z" />
    <glyph glyph-name="zero.tnum" 
d="M1143 178q-176 -209 -463 -209t-463 209t-176 549t176 549t463 209t463 -209t176 -549t-176 -549zM537 438q45 -90 143 -90t143 90t45 289t-45 289t-143 90t-143 -90t-45 -289t45 -289z" />
    <glyph glyph-name="one.tnum" 
d="M1036 1454v-1085h277v-369h-1223v369h506v385l12 465l-227 -226l-291 -262v498l252 225h694z" />
    <glyph glyph-name="two.tnum" 
d="M575 449l-276 -78l293 8h672v-379h-1151v625l594 184q67 20 94.5 62.5t27.5 119.5q0 78 -32.5 115t-104.5 37q-74 0 -108.5 -51.5t-34.5 -163.5h-430q0 250 162 404q160 153 428 153q259 0 411 -135q150 -136 150 -357q0 -156 -90 -270.5t-254 -165.5z" />
    <glyph glyph-name="three.tnum" 
d="M823 805q228 -24 346.5 -127.5t118.5 -267.5q0 -198 -171 -320q-170 -121 -451 -121q-273 0 -442 149q-169 148 -169 392h430q0 -104 43 -151.5t134 -47.5q92 0 134 35t42 113q0 53 -39 84.5t-113 31.5h-178v287h178q50 0 76 42t26 112q0 66 -32.5 96.5t-103.5 30.5
q-72 0 -105 -47t-33 -150h-430q0 243 161 392q160 147 425 147q256 0 413 -106q156 -107 156 -281q0 -125 -107 -202t-309 -91z" />
    <glyph glyph-name="four.tnum" 
d="M1112 571h199v-338h-199v-233h-440v233h-609v734l312 487h737v-883zM184 565l269 6h219v375l10 397z" />
    <glyph glyph-name="five.tnum" 
d="M891 944q182 0 295 -125q112 -124 112 -330q0 -233 -168 -376q-170 -144 -443 -144q-275 0 -443 147q-168 146 -168 384h430q0 -98 42 -143.5t134 -45.5q93 0 134 40q42 41 42 128t-42 128q-41 40 -134 40q-100 0 -172 -72h-381l51 879h1034v-379h-444l-231 4l-23 -401
q52 127 148 196.5t227 69.5z" />
    <glyph glyph-name="six.tnum" 
d="M856 920q212 0 339 -117q128 -117 128 -307q0 -236 -165 -381q-166 -146 -431 -146q-332 0 -510 193q-178 191 -178 555q0 346 190 557q189 211 498 211q255 0 410 -132q153 -132 153 -352h-409q0 75 -38 108.5t-124 33.5q-121 0 -176.5 -102t-55.5 -324v-80
q34 130 134 207q97 76 235 76zM694 311q92 0 135 37t43 117t-42.5 115.5t-135.5 35.5q-188 0 -188 -151q0 -154 188 -154z" />
    <glyph glyph-name="seven.tnum" 
d="M121 1075v379h1118v-676q-197 -53 -332 -267t-135 -511h-461q0 353 206 654q101 147 267 261q168 114 379 170l-403 -10h-639z" />
    <glyph glyph-name="eight.tnum" 
d="M954 743q379 -79 379 -372q0 -180 -181 -291q-182 -111 -470 -111t-470 111q-181 109 -181 291q0 293 379 372q-334 73 -334 332q0 185 169 297q170 113 437 113q268 0 437 -112t169 -298q0 -259 -334 -332zM682 1163q-88 0 -127 -38t-39 -121q0 -84 39 -122t127 -38
q166 0 166 160q0 159 -166 159zM471 455q0 -164 211 -164t211 164q0 163 -211 163t-211 -163z" />
    <glyph glyph-name="nine.tnum" 
d="M635 1485q336 0 512 -191.5t176 -556.5q0 -345 -189 -557q-190 -211 -499 -211q-256 0 -409 132q-154 132 -154 352h409q0 -75 38 -108.5t124 -33.5q121 0 176 101.5t55 324.5v80q-34 -130 -133 -206q-97 -76 -235 -76q-212 0 -339 117q-128 116 -128 306q0 236 165 382
q164 145 431 145zM668 838q188 0 188 151q0 80 -45.5 117t-142.5 37q-93 0 -136 -37t-43 -117t43 -115.5t136 -35.5z" />
    <glyph glyph-name="glyph715" 
d="M1112 571h199v-338h-199v-233h-440v233h-609v549l469 672h580v-883zM254 567l199 4h219v375l6 225z" />
    <glyph glyph-name="zero.tnum.zero" 
d="M217 1276q176 209 463 209t463 -209t176 -549t-176 -549t-463 -209t-463 209t-176 549t176 549zM680 1106q-98 0 -143 -90t-45 -289q0 -101 12 -174l264 530q-40 23 -88 23zM680 348q98 0 143 90t45 289q0 109 -12 182l-268 -534q34 -27 92 -27z" />
    <glyph glyph-name="zero.zero" horiz-adv-x="1523" 
d="M254 1276q192 209 508 209q314 0 508 -209q192 -208 192 -549t-192 -549q-194 -209 -508 -209q-316 0 -508 209q-193 208 -193 549t193 549zM762 1106q-131 0 -190.5 -90t-59.5 -289q0 -135 29 -227l299 596q-27 10 -78 10zM762 348q131 0 190.5 90t59.5 289
q0 161 -37 248l-307 -613q39 -14 94 -14z" />
    </font>
</defs>
</svg>
