<?xml version="1.0" standalone="no"?>
<!DOCTYPE svg PUBLIC "-//W3C//DTD SVG 1.1//EN" "http://www.w3.org/Graphics/SVG/1.1/DTD/svg11.dtd" >
<svg xmlns="http://www.w3.org/2000/svg" xmlns:xlink="http://www.w3.org/1999/xlink" version="1.1">
<metadata>
Created by FontForge 20170731 at Fri Apr 12 15:38:31 2019
 By Aleksey,,,
Copyright (c) 2018 by Alexis Navarro Miranda. All rights reserved. Desktop use is strictly prohibited.
</metadata>
<defs>
<font id="MenaGrotesk-Thin" horiz-adv-x="1200" >
  <font-face 
    font-family="Mena Grotesk Thin"
    font-weight="250"
    font-stretch="normal"
    units-per-em="2048"
    panose-1="0 0 2 0 0 0 0 0 0 0"
    ascent="1638"
    descent="-410"
    x-height="1026"
    cap-height="1415"
    bbox="-770 -532 2169 2120"
    underline-thickness="0"
    underline-position="0"
    unicode-range="U+0020-FB02"
  />
<missing-glyph horiz-adv-x="1523" 
d="M1266 682h186v-61h-125q-12 -143 -77.5 -251t-174.5 -163v-207h-57v207q-60 -58 -168 -119l-37 170h-102l-37 -170q-114 64 -168 121v-209h-55v209q-227 113 -254 412h-125v61h186q0 -296 193 -414v125q-80 95 -80 260q0 179 88 279v522h608v-524q86 -98 86 -277
q0 -162 -78 -258v-127q191 119 191 414zM539 1407l223 -193l223 193h-446zM793 1188l225 -197v393zM508 995l223 193l-223 192v-385zM920 1024l-158 137l-158 -137q71 22 158.5 22t157.5 -22zM510 411q86 -83 252 -83t252 83t86 242q0 166 -86 252t-252 86t-252 -86
t-86 -252q0 -159 86 -242zM600 922l86 30v-34l-86 -31v35zM922 887l-88 31v34l88 -30v-35zM729 819q0 -23 -15.5 -37t-37.5 -14q-25 0 -41.5 14.5t-16.5 36.5q0 26 16.5 42t41.5 16q24 0 38.5 -15.5t14.5 -42.5zM848 877q25 0 41 -15.5t16 -42.5q0 -23 -16.5 -37t-40.5 -14
q-23 0 -38 14.5t-15 36.5q0 27 14.5 42.5t38.5 15.5zM854 696l-176 -20v39l176 20v-39zM643 160l29 119q-100 16 -166 63v-74q56 -64 137 -108zM1018 266v76q-66 -47 -166 -63l29 -119q80 41 137 106zM764 207q29 0 29 -31q0 -29 -29 -29q-33 0 -33 29q0 31 33 31zM764 94
q29 0 29 -28q0 -31 -29 -31q-33 0 -33 31q0 28 33 28z" />
    <glyph glyph-name="uniFB01" unicode="fi" horiz-adv-x="1263" 
d="M307 1026h717v-1026h-55v979h-662v-979h-55v979h-215v47h215v277q0 136 61 196t201 60q141 0 248 -13v-37h-240q-128 0 -172 -48q-43 -47 -43 -193v-242zM938 1325v129h117v-129h-117z" />
    <glyph glyph-name="uniFB02" unicode="fl" horiz-adv-x="1304" 
d="M252 1026v277q0 136 61 196t201 60q137 0 250 -13v-37h-242q-128 0 -172 -48q-43 -47 -43 -193v-242h449v-47h-449v-979h-55v979h-215v47h215zM1145 37h90v-37q-43 -12 -102 -12q-100 0 -144.5 49t-44.5 158v1351h57v-1315q0 -116 31 -154q31 -40 113 -40z" />
    <glyph glyph-name="f_f.liga" unicode="ff" horiz-adv-x="1427" 
d="M1487 1509h-244q-129 0 -172 -48q-43 -47 -43 -193v-242h451v-47h-451v-979h-55v979h-666v-979h-55v979h-215v47h215v207q0 135 60 196q59 60 202 60q159 0 252 -10v-37h-244q-129 0 -172 -49t-43 -195v-172h666v277q0 136 61 196t201 60q139 0 252 -13v-37z" />
    <glyph glyph-name="f_f_i.liga" unicode="ffi" horiz-adv-x="1984" 
d="M1028 1026h717v-1026h-55v979h-662v-979h-55v979h-666v-979h-55v979h-215v47h215v207q0 135 60 196q59 60 202 60q159 0 252 -10v-37h-244q-129 0 -172 -49t-43 -195v-172h666v277q0 136 61 196t201 60q141 0 248 -13v-37h-240q-129 0 -172 -48q-43 -47 -43 -193v-242z
M1659 1325v129h117v-129h-117z" />
    <glyph glyph-name="f_f_l.liga" unicode="ffl" horiz-adv-x="2027" 
d="M973 1026v287q0 133 57 190q58 56 199 56q143 0 256 -13v-37h-244q-129 0 -171 -46q-42 -47 -42 -189v-248h449v-47h-449v-979h-55v979h-666v-979h-55v979h-215v47h215v219q0 133 57 189q55 55 199 55q165 0 256 -10v-37h-244q-129 0 -171 -47t-42 -191v-178h666z
M1866 37h92v-37q-50 -12 -105 -12q-99 0 -143.5 49t-44.5 158v1351h57v-1315q0 -116 31 -154q31 -40 113 -40z" />
    <glyph glyph-name=".notdef" horiz-adv-x="1523" 
d="M1266 682h186v-61h-125q-12 -143 -77.5 -251t-174.5 -163v-207h-57v207q-60 -58 -168 -119l-37 170h-102l-37 -170q-114 64 -168 121v-209h-55v209q-227 113 -254 412h-125v61h186q0 -296 193 -414v125q-80 95 -80 260q0 179 88 279v522h608v-524q86 -98 86 -277
q0 -162 -78 -258v-127q191 119 191 414zM539 1407l223 -193l223 193h-446zM793 1188l225 -197v393zM508 995l223 193l-223 192v-385zM920 1024l-158 137l-158 -137q71 22 158.5 22t157.5 -22zM510 411q86 -83 252 -83t252 83t86 242q0 166 -86 252t-252 86t-252 -86
t-86 -252q0 -159 86 -242zM600 922l86 30v-34l-86 -31v35zM922 887l-88 31v34l88 -30v-35zM729 819q0 -23 -15.5 -37t-37.5 -14q-25 0 -41.5 14.5t-16.5 36.5q0 26 16.5 42t41.5 16q24 0 38.5 -15.5t14.5 -42.5zM848 877q25 0 41 -15.5t16 -42.5q0 -23 -16.5 -37t-40.5 -14
q-23 0 -38 14.5t-15 36.5q0 27 14.5 42.5t38.5 15.5zM854 696l-176 -20v39l176 20v-39zM643 160l29 119q-100 16 -166 63v-74q56 -64 137 -108zM1018 266v76q-66 -47 -166 -63l29 -119q80 41 137 106zM764 207q29 0 29 -31q0 -29 -29 -29q-33 0 -33 29q0 31 33 31zM764 94
q29 0 29 -28q0 -31 -29 -31q-33 0 -33 31q0 28 33 28z" />
    <glyph glyph-name="glyph1" horiz-adv-x="0" 
 />
    <glyph glyph-name="glyph2" horiz-adv-x="681" 
 />
    <glyph glyph-name="space" unicode=" " horiz-adv-x="409" 
 />
    <glyph glyph-name="exclam" unicode="!" horiz-adv-x="407" 
d="M174 1415h59v-311l-12 -729h-35l-12 729v311zM141 0v127h127v-127h-127z" />
    <glyph glyph-name="quotedbl" unicode="&#x22;" horiz-adv-x="464" 
d="M109 918l-11 497h66l-10 -497h-45zM311 918l-10 497h66l-11 -497h-45z" />
    <glyph glyph-name="numbersign" unicode="#" horiz-adv-x="1345" 
d="M1325 1006v-48h-303l-125 -466h289v-48h-301l-119 -444h-53l118 444h-466l-119 -444h-53l118 444h-291v48h304l125 466h-291v48h303l110 409h54l-111 -409h467l109 409h55l-111 -409h291zM377 492h467l125 466h-467z" />
    <glyph glyph-name="dollar" unicode="$" horiz-adv-x="1449" 
d="M1266 356q0 -166 -138 -268q-140 -102 -368 -111v-141h-51v141q-239 6 -382 133q-145 126 -145 326h60q0 -390 467 -401v663h-2q-289 55 -394 135q-106 79 -106 214q0 174 137 281q135 105 365 110v159h51v-159q218 -7 351 -134q132 -126 132 -325h-59q0 385 -424 401
v-632q289 -57 397 -148q109 -91 109 -244zM268 1057q0 -115 92 -181q91 -67 349 -118v622q-214 -4 -327.5 -87t-113.5 -236zM760 688v-653q216 4 331 85t113 226q-2 131 -93 209q-91 77 -351 133z" />
    <glyph glyph-name="percent" unicode="%" horiz-adv-x="1390" 
d="M399 831q-134 0 -217 83q-82 82 -82 221q0 138 82 220q83 83 217 83q133 0 216 -83t83 -220q0 -138 -83 -221t-216 -83zM1223 1415h63l-440 -616h-62zM222 951q67 -70 178 -70t178 70q67 68 67 184q0 113 -68 184q-69 70 -178 70q-111 0 -178 -70t-67 -184t68 -184z
M545 618h59l-436 -618h-64zM1208 62q-82 -82 -217 -82t-217 82q-82 81 -82 219q0 137 83 220t216 83q134 0 217 -83q82 -82 82 -220t-82 -219zM991 29q112 0 179 70q67 68 67 182q0 115 -67 185q-68 69 -178 69q-112 0 -179 -70q-68 -71 -68 -184t69 -182q67 -70 177 -70z
" />
    <glyph glyph-name="ampersand" unicode="&#x26;" horiz-adv-x="1374" 
d="M1126 217l244 -217h-82l-194 176q-169 -199 -465 -199q-229 0 -369 101q-141 100 -141 262q0 248 364 381l-30 29q-106 94 -155 170q-50 76 -50 159q0 160 106 260q105 99 277 99q169 0 272 -99q103 -100 103 -260q0 -125 -96 -209q-97 -83 -330 -163l512 -459
q92 142 92 373h59q0 -241 -117 -404zM309 1077q0 -71 42 -138q42 -69 169 -181l27 -25q247 90 323 159t76 185q0 156 -76.5 230.5t-238.5 74.5q-164 0 -243 -74.5t-79 -230.5zM629 33q290 0 432 172l-547 489q-179 -73 -257 -151q-77 -79 -77 -199q0 -311 449 -311z" />
    <glyph glyph-name="quotesingle" unicode="'" horiz-adv-x="262" 
d="M109 918l-11 497h66l-10 -497h-45z" />
    <glyph glyph-name="parenleft" unicode="(" horiz-adv-x="415" 
d="M326 1546h47q-199 -476 -199 -968q0 -496 199 -967h-47q-215 479 -215 966.5t215 968.5z" />
    <glyph glyph-name="parenright" unicode=")" horiz-adv-x="413" 
d="M88 -389h-47q199 476 199 969q0 495 -199 966h47q215 -479 215 -966.5t-215 -968.5z" />
    <glyph glyph-name="asterisk" unicode="*" horiz-adv-x="714" 
d="M385 1438l-29 -287l-26 287h55zM150 1350l206 -199l-241 158zM600 1309l-244 -158l209 199zM70 1112l286 39l-274 -92zM207 901l149 250l-98 -272zM633 1059l-277 92l289 -39zM457 879l-101 272l150 -250z" />
    <glyph glyph-name="plus" unicode="+" horiz-adv-x="1024" 
d="M539 559h383v-53h-383v-383h-54v383h-383v53h383v383h54v-383z" />
    <glyph glyph-name="comma" unicode="," horiz-adv-x="342" 
d="M115 14v113h127v-127q0 -101 -46 -162t-122 -61v49q115 0 114 154z" />
    <glyph glyph-name="hyphen" unicode="-" horiz-adv-x="636" 
d="M102 547h453v-53h-453v53z" />
    <glyph glyph-name="period" unicode="." horiz-adv-x="344" 
d="M117 0v127h127v-127h-127z" />
    <glyph glyph-name="slash" unicode="/" horiz-adv-x="446" 
d="M31 -389l340 1935h57l-340 -1935h-57z" />
    <glyph glyph-name="zero" unicode="0" horiz-adv-x="1529" 
d="M764 -23q-258 0 -417 202t-159 530q0 327 159 528t417 201q260 0 419 -201q158 -202 158 -528q0 -327 -158 -530q-159 -202 -419 -202zM764 35q252 0 383 172t131 502q0 329 -131 500t-383 171q-250 0 -381 -172t-131 -499q0 -330 131 -502t381 -172z" />
    <glyph glyph-name="one" unicode="1" horiz-adv-x="913" 
d="M502 1434h110v-1434h-59v1077l4 338l-104 -80l-306 -219v66z" />
    <glyph glyph-name="two" unicode="2" horiz-adv-x="1337" 
d="M178 51l369 4h663v-55h-1046v102l698 539q128 97 174 175q45 76 45 206q0 358 -403 358q-428 0 -428 -446h-62q0 226 136 365q135 139 354 139q208 0 336 -114q127 -114 127 -298q0 -236 -230 -412l-575 -446z" />
    <glyph glyph-name="three" unicode="3" horiz-adv-x="1325" 
d="M797 700q358 -25 358 -329q0 -175 -134 -285q-133 -109 -353 -109q-211 0 -340 126t-129 333h61q0 -205 99.5 -303t308.5 -98q219 0 321.5 80.5t102.5 251.5q0 158 -84 228.5t-273 70.5h-252v49h232q303 0 303 309q0 182 -87 268t-272 86q-194 0 -287 -102t-93 -313h-62
q0 214 121 344q122 131 319 131q191 0 307 -112q117 -112 117 -294q0 -135 -73.5 -223.5t-210.5 -108.5z" />
    <glyph glyph-name="four" unicode="4" horiz-adv-x="1267" 
d="M891 446h319v-49h-319v-397h-60v397h-757v103l710 915h107v-969zM92 442l268 4h471v605l5 348z" />
    <glyph glyph-name="five" unicode="5" horiz-adv-x="1277" 
d="M694 860q209 0 337 -122t128 -320q0 -197 -132 -317q-131 -121 -349 -121q-220 0 -353 117q-135 115 -135 306h64q0 -367 426 -366q416 0 416 381q0 387 -416 387q-141 0 -234 -46q-97 -47 -174 -149h-57l78 805h792v-51h-489l-256 4l-72 -731q62 101 176 162
q115 61 250 61z" />
    <glyph glyph-name="six" unicode="6" horiz-adv-x="1421" 
d="M735 899q224 0 360 -124t136 -326q0 -211 -135 -341q-136 -131 -357 -131q-250 0 -400 170q-151 169 -151 539q0 360 150 556q148 196 403 196q208 0 335 -109q128 -110 128 -291h-61q0 174 -97.5 256t-304.5 82q-251 0 -370 -162q-119 -164 -119 -528v-143
q22 155 156 256q131 100 327 100zM739 35q219 0 324.5 101.5t105.5 312.5q0 203 -106.5 298t-331.5 95q-221 0 -341 -105q-120 -107 -120 -266q0 -213 122.5 -324.5t346.5 -111.5z" />
    <glyph glyph-name="seven" unicode="7" horiz-adv-x="1126" 
d="M80 1364v51h993v-92q-270 -269 -429 -619q-159 -352 -159 -704h-59q0 371 173 737q171 360 466 631l-367 -4h-618z" />
    <glyph glyph-name="eight" unicode="8" horiz-adv-x="1366" 
d="M791 725q187 -22 298 -118q109 -94 109 -240q0 -174 -142 -282t-372 -108q-231 0 -373 108q-143 108 -143 282q0 145 111 240q111 96 299 118q-168 22 -266 107q-99 83 -99 212q0 176 130 285t341 109t340 -108q129 -109 129 -286q0 -130 -97 -212q-98 -85 -265 -107z
M276 1042q0 -138 109 -214q110 -78 299 -78q190 0 298 78q108 76 108 214q0 172 -99.5 255t-306.5 83q-209 0 -308.5 -83t-99.5 -255zM684 35q229 0 340 83t111 255q0 155 -119 241q-118 84 -332 84q-216 0 -334.5 -85t-118.5 -240q0 -172 111 -255t342 -83z" />
    <glyph glyph-name="nine" unicode="9" horiz-adv-x="1421" 
d="M682 1438q249 0 401 -170q150 -170 150 -539q0 -359 -144 -555q-146 -197 -391 -197q-217 0 -349 108t-132 284h62q0 -170 101 -250t318 -80q244 0 358 163q113 164 113 527v143q-22 -155 -155 -256q-133 -100 -328 -100q-223 0 -359 124q-137 125 -137 327
q0 211 136 341q134 130 356 130zM690 573q222 0 341 106q120 105 120 265q0 213 -122.5 324.5t-346.5 111.5q-219 0 -324.5 -101t-105.5 -312q0 -201 106.5 -297.5t331.5 -96.5z" />
    <glyph glyph-name="colon" unicode=":" horiz-adv-x="344" 
d="M117 645v127h127v-127h-127zM117 0v127h127v-127h-127z" />
    <glyph glyph-name="semicolon" unicode=";" horiz-adv-x="342" 
d="M115 645v127h127v-127h-127zM115 14v113h127v-127q0 -101 -46 -162t-122 -61v49q115 0 114 154z" />
    <glyph glyph-name="less" unicode="&#x3c;" horiz-adv-x="882" 
d="M84 578l696 340v-54l-678 -332l678 -333v-56l-696 342v93z" />
    <glyph glyph-name="equal" unicode="=" horiz-adv-x="1007" 
d="M102 764h787v-53h-787v53zM102 354h787v-53h-787v53z" />
    <glyph glyph-name="greater" unicode="&#x3e;" horiz-adv-x="882" 
d="M102 864v54l697 -340v-93l-697 -342v56l678 333z" />
    <glyph glyph-name="question" unicode="?" horiz-adv-x="1021" 
d="M475 1438q177 0 284 -100q107 -101 107 -267q0 -126 -74 -215q-74 -88 -206 -115l-94 -20l-13 -365h-30l-13 400l131 24q125 25 181.5 93.5t56.5 197.5q0 162 -79.5 236.5t-250.5 74.5q-176 0 -259 -82.5t-83 -259.5h-59q0 178 111 288q110 110 290 110zM528 0h-127v127
h127v-127z" />
    <glyph glyph-name="at" unicode="@" horiz-adv-x="2060" 
d="M989 1440q399 0 644 -248t245 -653q0 -254 -91 -402q-92 -149 -224 -149q-107 0 -154 48.5t-47 162.5v104q-41 -143 -151 -223q-112 -80 -259 -80q-207 0 -332 146q-126 146 -126 378q0 236 126 381q124 144 332 144q147 0 258 -81q112 -82 152 -223v281h53v-780
q0 -136 29 -174q28 -37 125 -37q254 0 254 504q0 391 -224 621q-225 229 -610 229q-395 0 -624 -234q-230 -236 -230 -637q0 -398 230 -633q230 -233 624 -233q293 0 508 141v-61q-218 -131 -508 -131q-410 0 -659 251q-250 251 -250 666q0 416 250 669q249 253 659 253z
M658 173q102 -122 299 -122q196 0 300 122q103 121 103 351q0 231 -102.5 351t-300.5 120q-199 0 -300.5 -119.5t-101.5 -351.5q0 -230 103 -351z" />
    <glyph glyph-name="A" unicode="A" horiz-adv-x="1351" 
d="M1292 0h-63l-199 492h-717l-192 -492h-62l553 1415h107zM575 1159l-241 -616h676l-250 616l-92 238z" />
    <glyph glyph-name="B" unicode="B" horiz-adv-x="1458" 
d="M958 727q146 -25 225 -117q79 -91 79 -225q0 -174 -115 -279q-115 -106 -305 -106h-541v1415h514q185 0 297 -97q113 -98 113 -257q0 -124 -71 -216q-70 -91 -196 -118zM795 1364h-435v-623h435q188 0 277 75.5t89 234.5q0 162 -88 237.5t-278 75.5zM360 51h461
q197 0 287 78.5t90 249.5q0 160 -86 236.5t-266 76.5h-486v-641z" />
    <glyph glyph-name="C" unicode="C" horiz-adv-x="1548" 
d="M188 709q0 328 177 529q176 200 466 200q250 0 405 -137q155 -138 155 -363h-62q0 442 -498 442q-281 0 -430 -174q-149 -175 -149 -497q0 -326 150 -500q148 -174 429 -174q245 0 371.5 108t126.5 316h60q0 -217 -155 -349q-154 -133 -403 -133q-291 0 -467 201
q-176 202 -176 531z" />
    <glyph glyph-name="D" unicode="D" horiz-adv-x="1646" 
d="M301 1415h528q283 0 456 -194q173 -196 173 -512q0 -318 -173 -514q-173 -195 -456 -195h-528v1415zM360 51h455q282 0 431 169t149 489q0 317 -149.5 486t-430.5 169h-455v-1313z" />
    <glyph glyph-name="E" unicode="E" horiz-adv-x="1386" 
d="M360 688v-637h789v-51h-848v1415h838v-51h-779v-625h738v-51h-738z" />
    <glyph glyph-name="F" unicode="F" horiz-adv-x="1226" 
d="M1118 1415v-51h-758v-635h717v-51h-717v-678h-59v1415h817z" />
    <glyph glyph-name="G" unicode="G" horiz-adv-x="1636" 
d="M729 637v51h692v-688h-51v418q-91 -439 -541 -441q-289 0 -465 201q-176 202 -176 531q0 327 179 529q179 200 469 200q262 0 422 -133q159 -133 159 -353h-61q0 428 -520 428q-280 0 -432 -174q-152 -175 -152 -497q0 -323 152 -499q151 -175 432 -175q260 0 394 153
t136 449h-637z" />
    <glyph glyph-name="H" unicode="H" horiz-adv-x="1648" 
d="M1290 739v676h60v-1415h-60v688h-930v-688h-59v1415h59v-676h930z" />
    <glyph glyph-name="I" unicode="I" horiz-adv-x="659" 
d="M301 0v1415h59v-1415h-59z" />
    <glyph glyph-name="J" unicode="J" horiz-adv-x="1216" 
d="M98 434h60q0 -399 387 -399q352 0 352 438v942h59v-950q0 -220 -112 -353q-112 -135 -299 -135q-201 0 -324 125t-123 332z" />
    <glyph glyph-name="K" unicode="K" horiz-adv-x="1351" 
d="M1292 1415l-852 -702l879 -713h-92l-652 526l-215 181v-707h-59v1415h59v-698l844 698h88z" />
    <glyph glyph-name="L" unicode="L" horiz-adv-x="1216" 
d="M360 1415v-1364h766v-51h-825v1415h59z" />
    <glyph glyph-name="M" unicode="M" horiz-adv-x="1978" 
d="M1573 1415h106v-1415h-61v1090l4 305l-592 -1395h-84l-590 1391l4 -301v-1090h-59v1415h105l514 -1212l69 -172l68 172z" />
    <glyph glyph-name="N" unicode="N" horiz-adv-x="1648" 
d="M1290 436v979h60v-1415h-105l-893 1395l8 -361v-1034h-59v1415h102l893 -1392z" />
    <glyph glyph-name="O" unicode="O" horiz-adv-x="1671" 
d="M844 -23q-295 0 -475 201q-181 200 -181 531q0 329 181 529q180 200 475 200q288 0 464 -201q175 -200 175 -528q0 -331 -175 -531q-176 -201 -464 -201zM844 35q276 0 426 175q149 176 149 499q0 322 -149 497q-150 174 -426 174q-285 0 -438 -174q-154 -173 -154 -497
t154 -499q153 -175 438 -175z" />
    <glyph glyph-name="P" unicode="P" horiz-adv-x="1343" 
d="M301 1415h533q183 0 292 -109t109 -292q0 -184 -111 -293q-112 -111 -295 -111h-469v-610h-59v1415zM360 662h457q182 0 268 86t86 266t-86 265t-268 85h-457v-702z" />
    <glyph glyph-name="Q" unicode="Q" horiz-adv-x="1671" 
d="M1315 188l287 -284l-39 -37l-283 285q-178 -173 -444 -175q-290 0 -469 201q-179 202 -179 531q0 327 179 529q179 200 469 200t469 -201q178 -200 178 -528q0 -317 -168 -521zM836 35q263 0 409 149l-262 262l39 39l258 -262q139 173 139 486q0 325 -151 498
q-152 173 -432 173t-432 -174q-152 -175 -152 -497q0 -323 152 -499q151 -175 432 -175z" />
    <glyph glyph-name="R" unicode="R" horiz-adv-x="1439" 
d="M1354 0h-72l-463 631h-459v-631h-59v1415h535q182 0 292 -107q109 -108 109 -284q0 -167 -97 -270q-97 -104 -261 -121l133 -172zM819 1364h-459v-684h459q353 0 355 344q0 174 -87.5 257t-267.5 83z" />
    <glyph glyph-name="S" unicode="S" horiz-adv-x="1449" 
d="M731 -23q-248 0 -398 126q-151 126 -151 333h60q0 -401 491 -401q229 0 351 81t120 230q-1 90 -40 152q-38 59 -147 110t-310 90q-289 55 -394 135q-106 79 -106 214q0 176 144 284q143 107 377 107q233 0 374 -126t141 -333h-59q0 401 -459 401q-221 0 -339 -83
t-118 -240q0 -119 100 -186q101 -69 377 -121q296 -57 408 -148q113 -92 113 -246q0 -171 -147 -274q-149 -105 -388 -105z" />
    <glyph glyph-name="T" unicode="T" horiz-adv-x="1273" 
d="M31 1415h1212v-51h-577v-1364h-60v1364h-575v51z" />
    <glyph glyph-name="U" unicode="U" horiz-adv-x="1585" 
d="M260 487v928h59v-919q0 -225 121 -343t353 -118q231 0 352 117.5t121 343.5v919h59v-928q0 -229 -146 -369q-147 -141 -386 -141q-241 0 -386 141q-147 140 -147 369z" />
    <glyph glyph-name="V" unicode="V" horiz-adv-x="1314" 
d="M758 258l454 1157h62l-555 -1415h-107l-571 1415h63l469 -1157l93 -240z" />
    <glyph glyph-name="W" unicode="W" horiz-adv-x="2166" 
d="M1649 258l385 1157h61l-471 -1415h-100l-373 1174l-68 225l-67 -225l-373 -1174h-100l-471 1415h61l383 -1157l76 -235l72 235l370 1157h101l368 -1157l72 -235z" />
    <glyph glyph-name="X" unicode="X" horiz-adv-x="1382" 
d="M1300 1415l-550 -672l591 -743h-69l-393 489l-189 242l-188 -242l-391 -489h-72l592 743l-551 672h72l352 -428l188 -231l539 659h69z" />
    <glyph glyph-name="Y" unicode="Y" horiz-adv-x="1267" 
d="M772 762l404 653h63l-573 -930v-485h-60v485l-575 930h65l406 -653l135 -230z" />
    <glyph glyph-name="Z" unicode="Z" horiz-adv-x="1253" 
d="M121 47l319 4h734v-51h-1072v106l1051 1264l-322 -6h-725v51h1063v-106z" />
    <glyph glyph-name="bracketleft" unicode="[" horiz-adv-x="546" 
d="M510 1546v-53l-254 4v-1837l254 4v-53h-311v1935h311z" />
    <glyph glyph-name="backslash" unicode="\" horiz-adv-x="446" 
d="M20 1546h56l340 -1935h-56z" />
    <glyph glyph-name="bracketright" unicode="]" horiz-adv-x="546" 
d="M39 1546h309v-1935h-309v53l254 -4v1837l-254 -4v53z" />
    <glyph glyph-name="asciicircum" unicode="^" horiz-adv-x="643" 
d="M367 1415l204 -409h-55l-192 391l-195 -391h-55l202 409h91z" />
    <glyph glyph-name="underscore" unicode="_" horiz-adv-x="1114" 
d="M113 -41h944v-49h-944v49z" />
    <glyph glyph-name="grave" unicode="`" horiz-adv-x="356" 
d="M88 1546h72l104 -286h-49z" />
    <glyph glyph-name="a" unicode="a" horiz-adv-x="1138" 
d="M1051 37h57v-37q-56 -12 -82 -12q-87 0 -124.5 48.5t-37.5 162.5v77q-44 -138 -157 -218q-115 -81 -277 -81q-133 0 -215 64q-82 63 -82 168q0 195 287 258q391 89 442 106v80q0 344 -315 344q-326 0 -326 -346h-57q0 178 107 288t276 110q168 0 268 -103t100 -276v-424
q0 -138 25 -173q26 -36 111 -36zM440 29q190 0 306 110t116 295v98q-46 -15 -428 -104q-120 -25 -180 -79t-59 -136q0 -90 63 -137t182 -47z" />
    <glyph glyph-name="b" unicode="b" horiz-adv-x="1347" 
d="M713 1049q207 0 333 -147q125 -149 125 -388q0 -241 -125 -389q-126 -148 -333 -148q-147 0 -258 81q-112 82 -152 223v-281h-53v1546h55v-796q43 140 153 220q109 79 255 79zM408 154q102 -123 301 -123q198 0 300 123q101 122 101 360q0 236 -102.5 358.5t-298.5 122.5
q-199 0 -301.5 -122.5t-102.5 -358.5q0 -239 103 -360z" />
    <glyph glyph-name="c" unicode="c" horiz-adv-x="1224" 
d="M993 334h58q0 -160 -113 -258q-112 -99 -297 -99q-212 0 -339 148q-128 148 -128 389q0 239 128 388q128 147 339 147q181 0 294 -107q112 -108 112 -283h-58q0 336 -348 336q-200 0 -302.5 -122t-102.5 -359q0 -238 103 -360.5t302 -122.5q352 0 352 303z" />
    <glyph glyph-name="d" unicode="d" horiz-adv-x="1337" 
d="M1040 754v792h58v-1546h-54v289q-39 -146 -150 -229q-113 -83 -261 -83q-207 0 -333 148q-126 147 -126 389q0 240 126 388q126 147 333 147q147 0 257 -78t150 -217zM338 154q102 -123 301 -123t300 123q101 122 101 360q0 236 -102 358.5t-299 122.5
q-199 0 -301 -122.5t-102 -358.5q0 -238 102 -360z" />
    <glyph glyph-name="e" unicode="e" horiz-adv-x="1251" 
d="M1081 559v-67h-845q4 -225 109.5 -343t301.5 -118q179 0 275 77t96 216h57q0 -143 -122 -245q-121 -102 -306 -102q-213 0 -343 148q-130 146 -130 389q0 240 127 388q127 147 336 147q199 0 322 -135q122 -137 122 -355zM236 535l323 4h471q-6 457 -393 456
q-193 0 -295 -117.5t-106 -342.5z" />
    <glyph glyph-name="f" unicode="f" horiz-adv-x="706" 
d="M766 1509h-244q-128 0 -172 -48q-43 -47 -43 -193v-242h451v-47h-451v-979h-55v979h-215v47h215v277q0 136 61 196t201 60q139 0 252 -13v-37z" />
    <glyph glyph-name="g" unicode="g" horiz-adv-x="1163" 
d="M1114 1165v-55q-115 0 -168 -39t-59 -127q106 -96 106 -246q0 -146 -113 -238q-113 -91 -300 -91q-150 0 -258 63q-119 -51 -119 -170q0 -143 145 -143h436q130 0 207 -67q78 -67 78 -179q0 -123 -132 -198q-133 -74 -349 -74q-220 0 -353 73q-135 73 -135 197
q0 70 47.5 125t131.5 82q-59 25 -93 73t-34 105t39.5 110.5t105.5 82.5q-129 95 -129 249q0 158 114 255q112 96 298 96q171 0 280 -82q16 199 254 198zM932 698q0 297 -352 297q-350 0 -351 -297q0 -280 351 -278q352 -1 352 278zM774 70h-461q-157 -57 -155 -197
q0 -219 430 -219q221 0 322.5 52.5t101.5 166.5q0 106 -54.5 151.5t-183.5 45.5z" />
    <glyph glyph-name="h" unicode="h" horiz-adv-x="1296" 
d="M690 1049q164 0 266 -107q101 -109 101 -283v-659h-58v633q0 186 -77.5 274t-241.5 88q-180 0 -277.5 -101t-97.5 -290v-604h-55v1546h55v-760q39 126 141 194.5t244 68.5z" />
    <glyph glyph-name="i" unicode="i" horiz-adv-x="544" 
d="M219 1325v125h117v-125h-117zM250 0v1026h55v-1026h-55z" />
    <glyph glyph-name="j" unicode="j" horiz-adv-x="544" 
d="M219 1325v125h117v-125h-117zM250 -170v1196h55v-1212q0 -112 -45 -162.5t-147 -50.5q-68 0 -107 10v37h96q94 0 121 33q27 35 27 149z" />
    <glyph glyph-name="k" unicode="k" horiz-adv-x="1036" 
d="M975 1026l-596 -491l639 -535h-84l-500 416l-129 110v-526h-55v1546h55v-1009l127 106l467 383h76z" />
    <glyph glyph-name="l" unicode="l" horiz-adv-x="610" 
d="M449 37h92v-37q-43 -12 -103 -12q-99 0 -143.5 49t-44.5 158v1351h55v-1343q0 -99 29 -133q28 -33 115 -33z" />
    <glyph glyph-name="m" unicode="m" horiz-adv-x="2019" 
d="M1421 1049q162 0 261 -106q98 -107 98 -284v-659h-56v633q0 186 -76.5 274t-238.5 88q-177 0 -272 -101t-95 -290v-604h-55v633q0 187 -75.5 274.5t-239.5 87.5q-177 0 -272 -101t-95 -290v-604h-55v1026h53v-246q36 130 137 199.5t244 69.5q134 0 229 -78
q94 -79 119 -211q35 140 136.5 214.5t252.5 74.5z" />
    <glyph glyph-name="n" unicode="n" horiz-adv-x="1296" 
d="M690 1049q164 0 266 -107q101 -109 101 -283v-659h-58v633q0 186 -77.5 274t-241.5 88q-180 0 -277.5 -101t-97.5 -290v-604h-55v1026h53v-246q39 130 140 199.5t247 69.5z" />
    <glyph glyph-name="o" unicode="o" horiz-adv-x="1275" 
d="M975 125q-127 -148 -336 -148q-210 0 -337 148q-128 148 -128 389q0 239 128 388q128 147 337 147t336 -147q127 -148 127 -388q0 -243 -127 -389zM338 154q102 -123 301 -123t300 123q101 122 101 360q0 236 -102 358.5t-299 122.5q-199 0 -301 -122.5t-102 -358.5
q0 -238 102 -360z" />
    <glyph glyph-name="p" unicode="p" horiz-adv-x="1347" 
d="M713 1049q207 0 333 -147q125 -149 125 -388q0 -241 -125 -389q-126 -148 -333 -148q-146 0 -255 79q-110 80 -153 216v-661h-55v1415h53v-283q40 142 152 225q111 81 258 81zM408 154q102 -123 301 -123q198 0 300 123q101 122 101 360q0 236 -102.5 358.5t-298.5 122.5
q-199 0 -301.5 -122.5t-102.5 -358.5q0 -239 103 -360z" />
    <glyph glyph-name="q" unicode="q" horiz-adv-x="1347" 
d="M1042 748v278h56v-1415h-58v663q-40 -137 -151 -218q-110 -79 -256 -79q-207 0 -333 148q-126 147 -126 389q0 240 126 388q126 147 333 147q146 0 259 -80q112 -79 150 -221zM338 154q102 -123 301 -123t300 123q101 122 101 360q0 236 -102 358.5t-299 122.5
q-199 0 -301 -122.5t-102 -358.5q0 -238 102 -360z" />
    <glyph glyph-name="r" unicode="r" horiz-adv-x="790" 
d="M631 1049q75 0 119 -15v-41h-127q-154 0 -236 -110.5t-82 -317.5v-565h-55v1026h53v-254q35 134 120.5 205.5t207.5 71.5z" />
    <glyph glyph-name="s" unicode="s" horiz-adv-x="1140" 
d="M592 -23q-204 0 -329 98q-124 97 -124 255h58q0 -299 397 -299q352 0 352 209q0 104 -80 160q-78 54 -288 92q-214 41 -310 106t-96 170q0 128 108 204q107 77 283 77q189 0 305 -96q115 -97 115 -255h-57q0 297 -365 297q-334 0 -334 -217q0 -96 85 -148q84 -52 306 -91
q201 -37 292 -105.5t91 -183.5q0 -123 -112 -198q-113 -75 -297 -75z" />
    <glyph glyph-name="t" unicode="t" horiz-adv-x="794" 
d="M512 37h244v-37q-111 -12 -252 -12q-142 0 -202 64q-60 63 -60 208v719h-215v47h215l4 309h51v-309h453v-47h-453v-700q0 -146 43 -193q43 -49 172 -49z" />
    <glyph glyph-name="u" unicode="u" horiz-adv-x="1284" 
d="M979 420v606h55v-1026h-53v244q-36 -128 -137.5 -197.5t-245.5 -69.5q-160 0 -259 109q-99 110 -99 283v657h57v-631q0 -188 76 -276t239 -88q178 0 272.5 100t94.5 289z" />
    <glyph glyph-name="v" unicode="v" horiz-adv-x="1054" 
d="M637 287l311 739h60l-435 -1026h-92l-434 1026h62l311 -739l108 -262z" />
    <glyph glyph-name="w" unicode="w" horiz-adv-x="1816" 
d="M1423 287l273 739h61l-383 -1026h-94l-274 739l-97 267l-96 -267l-276 -739h-95l-383 1026h62l274 -739l94 -264l97 264l274 739h96l275 -739l96 -264z" />
    <glyph glyph-name="x" unicode="x" horiz-adv-x="1095" 
d="M1010 1026l-404 -494l426 -532h-74l-409 524l-414 -524h-69l426 532l-406 494h74l262 -324l129 -161l127 159l264 326h68z" />
    <glyph glyph-name="y" unicode="y" horiz-adv-x="1054" 
d="M637 287l311 739h60l-519 -1223q-47 -113 -101 -158q-55 -44 -138 -44q-70 0 -109 10v41h99q83 0 118 28q35 29 74 121l86 199h-37l-434 1026h62l311 -739l106 -260z" />
    <glyph glyph-name="z" unicode="z" horiz-adv-x="999" 
d="M115 45l202 4h601v-49h-816v102l795 879l-205 -2h-579v47h794v-104z" />
    <glyph glyph-name="braceleft" unicode="{" horiz-adv-x="761" 
d="M434 1296v-499q0 -213 -198 -213q200 0 198 -213v-500q0 -144 35 -182q34 -37 178 -37h105v-33q-80 -18 -156 -18q-125 0 -173 51t-48 184v526q0 116 -43 156q-44 41 -160 41h-131v49h131q116 0 160 41q43 40 43 156v526q0 132 48 185q48 51 173 51q79 0 156 -19v-32
h-105q-144 0 -178 -37q-35 -38 -35 -183z" />
    <glyph glyph-name="bar" unicode="|" horiz-adv-x="657" 
d="M301 -389v1935h57v-1935h-57z" />
    <glyph glyph-name="braceright" unicode="}" horiz-adv-x="761" 
d="M594 608h131v-49h-131q-116 0 -160 -41q-43 -40 -43 -156v-526q0 -133 -48 -184t-173 -51q-76 0 -156 18v33h105q141 0 177 37q36 38 36 182v500q0 213 198 213q-200 0 -198 213v499q0 146 -36 183t-177 37h-105v32q77 17 156 19q125 0 173 -51q48 -53 48 -185v-526
q0 -116 43 -156q44 -41 160 -41z" />
    <glyph glyph-name="asciitilde" unicode="~" horiz-adv-x="1042" 
d="M156 432h-54q0 89 62 154q62 63 155 63q56 0 113 -27t98 -66t93 -66t100 -27q77 0 120 49q44 50 44 115h53q0 -91 -61 -153q-61 -64 -156 -64q-76 0 -143 46q-95 66 -131 92q-64 46 -130 46q-76 0 -119 -49q-44 -50 -44 -113z" />
    <glyph glyph-name="exclamdown" unicode="&#xa1;" horiz-adv-x="409" 
d="M268 1026v-127h-127v127h127zM233 -389h-57v311l10 729h37l10 -729v-311z" />
    <glyph glyph-name="cent" unicode="&#xa2;" horiz-adv-x="1224" 
d="M993 528h58q0 -154 -105 -250q-107 -97 -280 -104v-143h-52v143q-202 11 -320 156q-120 146 -120 379q0 231 120 378q120 145 320 156v160h52v-160q172 -7 277 -114q104 -107 104 -275h-58q0 324 -323 336v-965q328 7 327 303zM236 709q0 -465 378 -484v965
q-378 -18 -378 -481z" />
    <glyph glyph-name="sterling" unicode="&#xa3;" horiz-adv-x="1204" 
d="M94 45l320 6h690v-51h-1034v82q142 68 209 138q67 68 67 198q0 108 -65 235h-230v49h203q-82 160 -82 273q0 209 132 336q131 127 349 127q200 0 324 -116q123 -116 123 -304h-60q0 362 -387 362q-419 0 -417 -405q0 -117 81 -273h594v-49h-569q61 -122 61 -235
q0 -254 -309 -373z" />
    <glyph glyph-name="currency" unicode="&#xa4;" horiz-adv-x="1409" 
d="M1194 719q0 -204 -113 -340l185 -184l-39 -39l-183 182q-131 -125 -339 -125q-209 0 -340 125l-183 -182l-39 39l185 182q-113 136 -113 342q0 204 113 340l-187 184l39 39l182 -182q136 125 343 125q212 0 342 -127l182 184l39 -39l-185 -184q111 -137 111 -340z
M390 388q120 -126 315 -126q193 0 315 126q121 125 121 331t-121 331q-122 126 -315 126q-195 0 -315 -126t-120 -331t120 -331z" />
    <glyph glyph-name="yen" unicode="&#xa5;" horiz-adv-x="1267" 
d="M1176 1415h63l-559 -905h446v-47h-460v-205h460v-47h-460v-211h-60v211h-463v47h463v205h-463v47h449l-561 905h65l406 -653l135 -230l135 230z" />
    <glyph glyph-name="brokenbar" unicode="&#xa6;" horiz-adv-x="657" 
d="M358 803h-57v743h57v-743zM358 -389h-57v747h57v-747z" />
    <glyph glyph-name="section" unicode="&#xa7;" horiz-adv-x="1431" 
d="M727 750q296 -57 408 -148t112 -246v-379q0 -169 -143 -273q-142 -103 -377 -103q-243 0 -392 126t-149 332h60q0 -198 122.5 -299.5t360.5 -101.5q223 0 341 80t116 231q-1 88 -40 150q-38 59 -147 111q-111 52 -311 89q-291 57 -395 137q-105 80 -105 214v377
q0 176 144 284q143 107 377 107q229 0 369 -126q139 -126 139 -333h-62q0 197 -113.5 299t-334.5 102q-219 0 -338 -84t-119 -239q0 -119 99 -186q101 -69 378 -121zM727 371q368 -67 469 -211l2 184q-1 91 -41 153q-39 60 -151 111t-318 90q-354 68 -450 189v-205
q0 -119 101 -187q99 -68 388 -124z" />
    <glyph glyph-name="dieresis" unicode="&#xa8;" horiz-adv-x="595" 
d="M92 1325v125h119v-125h-119zM385 1325v125h119v-125h-119z" />
    <glyph glyph-name="copyright" unicode="&#xa9;" horiz-adv-x="1667" 
d="M1365 178q-203 -201 -531 -201q-330 0 -532 201t-202 531q0 328 202 529q203 200 532 200q328 0 531 -201q202 -201 202 -528q0 -330 -202 -531zM342 218q186 -187 492 -187q305 0 491 186t186 492q0 302 -186 490q-186 187 -491 187q-306 0 -492 -187
q-186 -188 -186 -490q0 -305 186 -491zM1116 575h55q0 -120 -87 -190q-87 -72 -228 -72q-160 0 -257 109q-97 107 -97 287q0 176 97 285q97 108 257 108q141 0 226 -79t85 -208h-53q0 238 -258 238q-297 0 -297 -344q0 -170 76 -258.5t221 -88.5q260 0 260 213z" />
    <glyph glyph-name="ordfeminine" unicode="&#xaa;" horiz-adv-x="851" 
d="M717 664h35v-27q-27 -8 -70 -8q-55 0 -79.5 31t-24.5 104v49q-30 -89 -104 -139.5t-177 -50.5q-87 0 -141 41t-54 106q0 130 189 170q209 46 284 66v53q0 209 -200 209q-201 0 -201 -211h-53q0 115 71 186q70 70 183 70q115 0 184 -66q68 -68 68 -178v-274q0 -85 17 -108
t73 -23zM303 668q122 0 198 68q74 68 74 182v55q-53 -16 -276 -68q-141 -35 -141 -131q0 -106 145 -106z" />
    <glyph glyph-name="guillemotleft" unicode="&#xab;" horiz-adv-x="876" 
d="M381 907h70l-371 -379l371 -378h-70l-330 337v82zM758 907h69l-370 -379l370 -378h-69l-330 337v82z" />
    <glyph glyph-name="logicalnot" unicode="&#xac;" horiz-adv-x="1005" 
d="M102 561h801v-340h-53v287h-748v53z" />
    <glyph glyph-name="registered" unicode="&#xae;" horiz-adv-x="1017" 
d="M218 1328q113 110 292 110t291 -110q110 -112 110 -291q0 -180 -110 -290q-112 -110 -291 -110q-181 0 -293 110q-111 109 -111 290q0 180 112 291zM510 680q160 0 257 99q97 97 97 258q0 160 -97 258q-98 98 -257 98q-161 0 -259 -98q-97 -98 -97 -258q0 -161 97 -258
q97 -99 259 -99zM582 1020l36 -45l95 -129h-49l-127 172h-125v-172h-45v395h190q55 0 90 -31t35 -82q0 -95 -100 -108zM535 1204h-123v-149h123q98 0 98 73q0 76 -98 76z" />
    <glyph glyph-name="overscore" unicode="&#xaf;" horiz-adv-x="710" 
d="M92 1419h526v-49h-526v49z" />
    <glyph glyph-name="degree" unicode="&#xb0;" horiz-adv-x="778" 
d="M605 914q-83 -83 -216 -83t-216 83t-83 221q0 137 83 220t216 83t216 -83t83 -220q0 -138 -83 -221zM389 879q113 0 181 71q67 70 67 185t-67 185q-68 71 -181 71q-111 0 -179 -71q-69 -70 -69 -185t69 -185q68 -71 179 -71z" />
    <glyph glyph-name="plusminus" unicode="&#xb1;" horiz-adv-x="944" 
d="M498 920v-285h344v-51h-344v-285h-52v285h-344v51h344v285h52zM842 125h-740v51h740v-51z" />
    <glyph glyph-name="uni00B2" unicode="&#xb2;" horiz-adv-x="663" 
d="M117 944l153 2h314v-51h-502v82l330 240q63 45 83 74q19 28 19 87q0 150 -176 150q-193 0 -193 -187h-59q0 106 70 173q68 67 180 67q106 0 171 -54q64 -54 64 -145q0 -65 -30.5 -111.5t-104.5 -99.5l-246 -178z" />
    <glyph glyph-name="uni00B3" unicode="&#xb3;" horiz-adv-x="638" 
d="M371 1235q186 -13 186 -162q0 -84 -67 -136t-176 -52q-110 0 -175 61q-67 60 -67 158h59q0 -86 44 -126t139 -40t138.5 33t43.5 104q0 66 -39 95.5t-127 29.5h-121v49h113q75 0 112.5 34t36.5 101q0 143 -160 144q-172 0 -172 -174h-59q0 102 64 165q64 62 167 62
q97 0 159 -53q60 -52 60 -137q2 -133 -159 -156z" />
    <glyph glyph-name="acute" unicode="&#xb4;" horiz-adv-x="378" 
d="M111 1260l104 286h72l-125 -286h-51z" />
    <glyph glyph-name="paragraph" unicode="&#xb6;" horiz-adv-x="1290" 
d="M461 1415h778v-51h-215v-1753h-59v1753h-314v-1753h-59v1077h-129q-181 0 -293 101q-111 101 -111 264q0 164 111 263t291 99z" />
    <glyph glyph-name="middot" unicode="&#xb7;" horiz-adv-x="358" 
d="M117 477v127h127v-127h-127z" />
    <glyph glyph-name="cedilla" unicode="&#xb8;" horiz-adv-x="487" 
d="M164 -156h80q69 0 111 -35.5t42 -93.5q0 -59 -43 -96t-112 -37h-150v45h154q51 0 72.5 20.5t21.5 67.5t-21.5 67.5t-72.5 20.5h-135v29l71 168h45z" />
    <glyph glyph-name="uni00B9" unicode="&#xb9;" horiz-adv-x="378" 
d="M147 1567h113v-672h-57v506l2 153l-60 -53l-125 -108v61z" />
    <glyph glyph-name="ordmasculine" unicode="&#xba;" horiz-adv-x="815" 
d="M629 717q-84 -94 -221 -94q-138 0 -222 94q-84 95 -84 250t84 251q84 95 222 95q137 0 221 -95q84 -96 84 -251t-84 -250zM221 745q65 -77 187 -77q121 0 186 77q63 77 63 222q0 299 -249 299q-252 0 -252 -299q0 -145 65 -222z" />
    <glyph glyph-name="guillemotright" unicode="&#xbb;" horiz-adv-x="876" 
d="M449 569v-82l-330 -337h-70l371 378l-371 379h70zM426 907h70l329 -338v-82l-329 -337h-70l371 378z" />
    <glyph glyph-name="onequarter" unicode="&#xbc;" horiz-adv-x="1456" 
d="M109 0l1179 1434h60l-1180 -1434h-59zM418 1272l4 133l-160 -141v55l109 96h98v-581h-51v438zM1085 582h91v-396h106v-45h-106v-141h-52v141h-288v95zM846 184l106 2h172v244l2 139z" />
    <glyph glyph-name="onehalf" unicode="&#xbd;" horiz-adv-x="1456" 
d="M109 0l1179 1434h60l-1180 -1434h-59zM420 1272l4 133l-160 -141v55l109 96h98v-581h-51v438zM981 92l-72 -49l140 2h272v-45h-434v78l284 209q58 41 74 66q17 25 17 75q0 129 -154 129q-168 0 -168 -164h-51q0 94 61 152q60 57 158 57q92 0 147.5 -47t55.5 -125
q0 -56 -26.5 -96t-90.5 -86z" />
    <glyph glyph-name="threequarters" unicode="&#xbe;" horiz-adv-x="1456" 
d="M395 877q160 0 160 120q0 57 -35 83t-110 26h-105v43h96q131 0 131 117q0 125 -139 125q-151 0 -149 -152h-54q0 90 55.5 144.5t147.5 54.5q86 0 139.5 -46t53.5 -120q0 -55 -35.5 -91t-101.5 -44q79 -7 118.5 -42.5t38.5 -99.5q0 -72 -58 -118t-153 -46q-93 0 -152 54
q-59 53 -59 137h54q-1 -73 38.5 -109t118.5 -36zM109 0l1179 1434h60l-1180 -1434h-59zM1051 582h88v-396h108v-45h-108v-141h-49v141h-289v95zM811 184l107 2h172v244l2 143z" />
    <glyph glyph-name="questiondown" unicode="&#xbf;" horiz-adv-x="1024" 
d="M496 1044h127v-126h-127v126zM891 4h59q0 -178 -110 -288q-110 -109 -291 -109q-177 0 -283 100q-108 101 -108 266q0 127 75 215q73 88 205 115l94 21l13 364h30l13 -399l-131 -25q-125 -25 -181.5 -93.5t-56.5 -197.5q0 -162 79.5 -236.5t250.5 -74.5q176 0 259 83
t83 259z" />
    <glyph glyph-name="Agrave" unicode="&#xc0;" horiz-adv-x="1351" 
d="M600 1935l105 -286h-50l-127 286h72zM1292 0h-63l-199 492h-717l-192 -492h-62l553 1415h107zM575 1159l-241 -616h676l-250 616l-92 238z" />
    <glyph glyph-name="Aacute" unicode="&#xc1;" horiz-adv-x="1351" 
d="M756 1935h71l-125 -286h-51zM1292 0h-63l-199 492h-717l-192 -492h-62l553 1415h107zM575 1159l-241 -616h676l-250 616l-92 238z" />
    <glyph glyph-name="Acircumflex" unicode="&#xc2;" horiz-adv-x="1351" 
d="M889 1649l-211 270l-211 -270h-68l230 286h96l229 -286h-65zM1292 0h-63l-199 492h-717l-192 -492h-62l553 1415h107zM575 1159l-241 -616h676l-250 616l-92 238z" />
    <glyph glyph-name="Atilde" unicode="&#xc3;" horiz-adv-x="1351" 
d="M520 1839q-69 0 -100 -40t-31 -128h-49q0 97 50 159q50 60 132 60q64 0 113 -43q51 -44 95 -86q46 -43 104 -43q70 0 101.5 39t31.5 129h49q0 -97 -50 -158q-51 -61 -132 -61q-48 0 -90.5 25t-70.5 61q-28 37 -68.5 61.5t-84.5 24.5zM1292 0h-63l-199 492h-717l-192 -492
h-62l553 1415h107zM575 1159l-241 -616h676l-250 616l-92 238z" />
    <glyph glyph-name="Adieresis" unicode="&#xc4;" horiz-adv-x="1351" 
d="M475 1839h117v-125h-117v125zM768 1839h117v-125h-117v125zM1292 0h-63l-199 492h-717l-192 -492h-62l553 1415h107zM575 1159l-241 -616h676l-250 616l-92 238z" />
    <glyph glyph-name="Aring" unicode="&#xc5;" horiz-adv-x="1351" 
d="M678 1638q-74 0 -120 42t-46 112q0 68 45.5 109t120.5 41q73 0 118.5 -41t45.5 -109q0 -69 -45.5 -111.5t-118.5 -42.5zM770 1874q-27 24 -92 24q-66 0 -93 -24q-28 -25 -28 -82q0 -61 26.5 -85t94.5 -24q66 0 92.5 24t26.5 85q0 56 -27 82zM1292 0h-63l-199 492h-717
l-192 -492h-62l553 1415h107zM575 1159l-241 -616h676l-250 616l-92 238z" />
    <glyph glyph-name="AE" unicode="&#xc6;" horiz-adv-x="2039" 
d="M1014 688l258 -637h530v-51h-573l-199 492h-717l-192 -492h-62l553 1415h1180v-51h-1053l254 -625h758v-51h-737zM575 1159l-241 -616h676l-250 616l-92 238z" />
    <glyph glyph-name="Ccedilla" unicode="&#xc7;" horiz-adv-x="1548" 
d="M831 35q245 0 371.5 108t126.5 316h60q0 -216 -151 -346q-153 -132 -396 -136l-54 -133h80q70 0 112 -35.5t42 -93.5q0 -59 -43 -96t-113 -37h-149v45h153q51 0 73 20.5t22 67.5t-21.5 67.5t-73.5 20.5h-135v29l62 145q-274 12 -441 212q-168 199 -168 520q0 328 177 529
q176 200 466 200q250 0 405 -137q155 -138 155 -363h-62q0 442 -498 442q-281 0 -430 -174q-149 -175 -149 -497q0 -325 149 -500q149 -174 430 -174z" />
    <glyph glyph-name="Egrave" unicode="&#xc8;" horiz-adv-x="1386" 
d="M631 1935l104 -286h-49l-127 286h72zM360 688v-637h789v-51h-848v1415h838v-51h-779v-625h738v-51h-738z" />
    <glyph glyph-name="Eacute" unicode="&#xc9;" horiz-adv-x="1386" 
d="M784 1935h72l-125 -286h-51zM360 688v-637h789v-51h-848v1415h838v-51h-779v-625h738v-51h-738z" />
    <glyph glyph-name="Ecircumflex" unicode="&#xca;" horiz-adv-x="1386" 
d="M920 1649l-211 270l-211 -270h-68l229 286h97l229 -286h-65zM360 688v-637h789v-51h-848v1415h838v-51h-779v-625h738v-51h-738z" />
    <glyph glyph-name="Edieresis" unicode="&#xcb;" horiz-adv-x="1386" 
d="M504 1839h117v-125h-117v125zM797 1839h116v-125h-116v125zM360 688v-637h789v-51h-848v1415h838v-51h-779v-625h738v-51h-738z" />
    <glyph glyph-name="Igrave" unicode="&#xcc;" horiz-adv-x="659" 
d="M182 1935h72l104 -286h-49zM301 0v1415h59v-1415h-59z" />
    <glyph glyph-name="Iacute" unicode="&#xcd;" horiz-adv-x="659" 
d="M303 1649l105 286h71l-125 -286h-51zM301 0v1415h59v-1415h-59z" />
    <glyph glyph-name="Icircumflex" unicode="&#xce;" horiz-adv-x="659" 
d="M283 1935h96l229 -286h-65l-211 270l-211 -270h-68zM360 0h-59v1415h59v-1415z" />
    <glyph glyph-name="Idieresis" unicode="&#xcf;" horiz-adv-x="659" 
d="M127 1714v125h117v-125h-117zM420 1714v125h117v-125h-117zM301 0v1415h59v-1415h-59z" />
    <glyph glyph-name="Eth" unicode="&#xd0;" horiz-adv-x="1646" 
d="M301 1415h528q283 0 456 -194q173 -196 173 -512q0 -318 -173 -514q-173 -195 -456 -195h-528v688h-274v49h274v678zM360 51h455q282 0 431 169t149 489q0 317 -149.5 486t-430.5 169h-455v-627h435v-49h-435v-637z" />
    <glyph glyph-name="Ntilde" unicode="&#xd1;" horiz-adv-x="1648" 
d="M668 1839q-69 0 -100 -40t-31 -128h-50q0 97 51 159q50 60 132 60q63 0 112 -43q67 -59 96 -86q46 -43 103 -43q70 0 101.5 39t31.5 129h49q0 -97 -50 -158q-49 -61 -132 -61q-48 0 -90 24.5t-70 61.5t-68.5 61.5t-84.5 24.5zM1290 436v979h60v-1415h-105l-893 1395
l8 -361v-1034h-59v1415h102l893 -1392z" />
    <glyph glyph-name="Ograve" unicode="&#xd2;" horiz-adv-x="1671" 
d="M696 1954h72l104 -287h-49zM844 -23q-295 0 -475 201q-181 200 -181 531q0 329 181 529q180 200 475 200q288 0 464 -201q175 -200 175 -528q0 -331 -175 -531q-176 -201 -464 -201zM844 35q276 0 426 175q149 176 149 499q0 322 -149 497q-150 174 -426 174
q-285 0 -438 -174q-154 -173 -154 -497t154 -499q153 -175 438 -175z" />
    <glyph glyph-name="Oacute" unicode="&#xd3;" horiz-adv-x="1671" 
d="M817 1667l105 287h71l-125 -287h-51zM844 -23q-295 0 -475 201q-181 200 -181 531q0 329 181 529q180 200 475 200q288 0 464 -201q175 -200 175 -528q0 -331 -175 -531q-176 -201 -464 -201zM844 35q276 0 426 175q149 176 149 499q0 322 -149 497q-150 174 -426 174
q-285 0 -438 -174q-154 -173 -154 -497t154 -499q153 -175 438 -175z" />
    <glyph glyph-name="Ocircumflex" unicode="&#xd4;" horiz-adv-x="1671" 
d="M1057 1667l-211 270l-211 -270h-68l230 287h96l229 -287h-65zM844 1438q288 0 464 -201q175 -200 175 -528q0 -331 -175 -531q-176 -201 -464 -201q-295 0 -475 201q-181 200 -181 531q0 329 181 529q180 200 475 200zM844 35q276 0 426 175q149 176 149 499
q0 322 -149 497q-150 174 -426 174q-285 0 -438 -174q-154 -173 -154 -497t154 -499q153 -175 438 -175z" />
    <glyph glyph-name="Otilde" unicode="&#xd5;" horiz-adv-x="1671" 
d="M999 1686q-48 0 -90 24.5t-70 61.5q-68 86 -153 86q-69 0 -100 -40t-31 -128h-49q0 97 50 159q50 60 132 60q64 0 113 -43q51 -44 95 -86q46 -43 103 -43q70 0 102 39.5t32 128.5h49q0 -97 -50 -158q-51 -61 -133 -61zM844 -23q-295 0 -475 201q-181 200 -181 531
q0 329 181 529q180 200 475 200q288 0 464 -201q175 -200 175 -528q0 -331 -175 -531q-176 -201 -464 -201zM844 35q276 0 426 175q149 176 149 499q0 322 -149 497q-150 174 -426 174q-285 0 -438 -174q-154 -173 -154 -497t154 -499q153 -175 438 -175z" />
    <glyph glyph-name="Odieresis" unicode="&#xd6;" horiz-adv-x="1671" 
d="M641 1733v125h117v-125h-117zM934 1733v125h117v-125h-117zM844 -23q-295 0 -475 201q-181 200 -181 531q0 329 181 529q180 200 475 200q288 0 464 -201q175 -200 175 -528q0 -331 -175 -531q-176 -201 -464 -201zM844 35q276 0 426 175q149 176 149 499q0 322 -149 497
q-150 174 -426 174q-285 0 -438 -174q-154 -173 -154 -497t154 -499q153 -175 438 -175z" />
    <glyph glyph-name="multiply" unicode="&#xd7;" horiz-adv-x="817" 
d="M444 535l289 -289l-37 -37l-286 289l-289 -289l-37 37l289 289l-287 286l37 35l287 -285l284 285l37 -35z" />
    <glyph glyph-name="Oslash" unicode="&#xd8;" horiz-adv-x="1671" 
d="M1460 1546l-190 -270q213 -202 213 -567q0 -331 -175 -531q-176 -201 -464 -201q-229 0 -395 127l-173 -245h-63l197 278q-221 206 -222 572q0 329 181 529q180 200 475 200q226 0 387 -127l164 235h65zM252 709q0 -359 184 -531l766 1094q-139 109 -358 108
q-285 0 -438 -173q-154 -173 -154 -498zM844 35q276 0 426 175q149 176 149 499q0 353 -176 526l-766 -1092q144 -108 367 -108z" />
    <glyph glyph-name="Ugrave" unicode="&#xd9;" horiz-adv-x="1585" 
d="M643 1935h72l104 -286h-49zM260 487v928h59v-919q0 -225 121 -343t353 -118q231 0 352 117.5t121 343.5v919h59v-928q0 -229 -146 -369q-147 -141 -386 -141q-241 0 -386 141q-147 140 -147 369z" />
    <glyph glyph-name="Uacute" unicode="&#xda;" horiz-adv-x="1585" 
d="M766 1649l104 286h72l-125 -286h-51zM260 487v928h59v-919q0 -225 121 -343t353 -118q231 0 352 117.5t121 343.5v919h59v-928q0 -229 -146 -369q-147 -141 -386 -141q-241 0 -386 141q-147 140 -147 369z" />
    <glyph glyph-name="Ucircumflex" unicode="&#xdb;" horiz-adv-x="1585" 
d="M1004 1649l-211 270l-211 -270h-68l229 286h97l229 -286h-65zM1266 496v919h59v-928q0 -229 -146 -369q-147 -141 -386 -141q-241 0 -386 141q-147 140 -147 369v928h59v-919q0 -225 121 -343t353 -118q231 0 352 117.5t121 343.5z" />
    <glyph glyph-name="Udieresis" unicode="&#xdc;" horiz-adv-x="1585" 
d="M590 1714v125h117v-125h-117zM883 1714v125h116v-125h-116zM260 487v928h59v-919q0 -225 121 -343t353 -118q231 0 352 117.5t121 343.5v919h59v-928q0 -229 -146 -369q-147 -141 -386 -141q-241 0 -386 141q-147 140 -147 369z" />
    <glyph glyph-name="Yacute" unicode="&#xdd;" horiz-adv-x="1267" 
d="M715 1935h71l-124 -286h-52zM772 762l404 653h63l-573 -930v-485h-60v485l-575 930h65l406 -653l135 -230z" />
    <glyph glyph-name="Thorn" unicode="&#xde;" horiz-adv-x="1411" 
d="M360 1102h474q180 0 291 -105q110 -107 110 -278q0 -174 -112 -279q-112 -106 -300 -106h-463v-334h-59v1415h59v-313zM360 385h457q182 0 268 81.5t86 252.5q0 172 -86 253t-268 81h-457v-668z" />
    <glyph glyph-name="germandbls" unicode="&#xdf;" horiz-adv-x="1392" 
d="M1030 547q200 -45 273 -116q71 -71 71 -185q0 -122 -100 -195q-101 -74 -262 -74q-187 0 -303 95q-115 94 -115 250h57q0 -291 363 -291q303 0 303 207q0 118 -54 167q-56 50 -259 95q-190 43 -271 99q-82 55 -82 142q0 86 62 145t205 113q177 67 221 108q43 40 43 132
q0 274 -416 274q-461 0 -461 -366v-1147h-55v1165q0 180 143 291t373 111q212 0 343 -90q130 -91 130 -236q0 -104 -65 -163q-66 -60 -218 -117q-161 -63 -202 -101q-45 -40 -45 -116q0 -77 61 -114q63 -39 260 -83z" />
    <glyph glyph-name="agrave" unicode="&#xe0;" horiz-adv-x="1138" 
d="M498 1546l104 -286h-49l-127 286h72zM1051 37h57v-37q-56 -12 -82 -12q-87 0 -124.5 48.5t-37.5 162.5v77q-44 -138 -157 -218q-115 -81 -277 -81q-133 0 -215 64q-82 63 -82 168q0 195 287 258q391 89 442 106v80q0 344 -315 344q-326 0 -326 -346h-57q0 178 107 288
t276 110q168 0 268 -103t100 -276v-424q0 -138 25 -173q26 -36 111 -36zM440 29q190 0 306 110t116 295v98q-46 -15 -428 -104q-120 -25 -180 -79t-59 -136q0 -90 63 -137t182 -47z" />
    <glyph glyph-name="aacute" unicode="&#xe1;" horiz-adv-x="1138" 
d="M653 1546h72l-125 -286h-51zM1051 37h57v-37q-56 -12 -82 -12q-87 0 -124.5 48.5t-37.5 162.5v77q-44 -138 -157 -218q-115 -81 -277 -81q-133 0 -215 64q-82 63 -82 168q0 195 287 258q391 89 442 106v80q0 344 -315 344q-326 0 -326 -346h-57q0 178 107 288t276 110
q168 0 268 -103t100 -276v-424q0 -138 25 -173q26 -36 111 -36zM440 29q190 0 306 110t116 295v98q-46 -15 -428 -104q-120 -25 -180 -79t-59 -136q0 -90 63 -137t182 -47z" />
    <glyph glyph-name="acircumflex" unicode="&#xe2;" horiz-adv-x="1138" 
d="M788 1260l-210 270l-211 -270h-68l229 286h97l229 -286h-66zM1051 37h57v-37q-56 -12 -82 -12q-87 0 -124.5 48.5t-37.5 162.5v77q-44 -138 -157 -218q-115 -81 -277 -81q-133 0 -215 64q-82 63 -82 168q0 195 287 258q391 89 442 106v80q0 344 -315 344
q-326 0 -326 -346h-57q0 178 107 288t276 110q168 0 268 -103t100 -276v-424q0 -138 25 -173q26 -36 111 -36zM440 29q190 0 306 110t116 295v98q-46 -15 -428 -104q-120 -25 -180 -79t-59 -136q0 -90 63 -137t182 -47z" />
    <glyph glyph-name="atilde" unicode="&#xe3;" horiz-adv-x="1138" 
d="M420 1450q-69 0 -100 -40t-31 -128h-49q0 97 50 159q50 60 132 60q64 0 113 -43q51 -44 95 -86q46 -43 103 -43q70 0 101.5 39t31.5 129h49q0 -97 -50 -158q-49 -61 -132 -61q-48 0 -90 24.5t-70 61.5t-68.5 61.5t-84.5 24.5zM1051 37h57v-37q-56 -12 -82 -12
q-87 0 -124.5 48.5t-37.5 162.5v77q-44 -138 -157 -218q-115 -81 -277 -81q-133 0 -215 64q-82 63 -82 168q0 195 287 258q391 89 442 106v80q0 344 -315 344q-326 0 -326 -346h-57q0 178 107 288t276 110q168 0 268 -103t100 -276v-424q0 -138 25 -173q26 -36 111 -36z
M440 29q190 0 306 110t116 295v98q-46 -15 -428 -104q-120 -25 -180 -79t-59 -136q0 -90 63 -137t182 -47z" />
    <glyph glyph-name="adieresis" unicode="&#xe4;" horiz-adv-x="1138" 
d="M375 1450h117v-125h-117v125zM668 1450h116v-125h-116v125zM1051 37h57v-37q-56 -12 -82 -12q-87 0 -124.5 48.5t-37.5 162.5v77q-44 -138 -157 -218q-115 -81 -277 -81q-133 0 -215 64q-82 63 -82 168q0 195 287 258q391 89 442 106v80q0 344 -315 344q-326 0 -326 -346
h-57q0 178 107 288t276 110q168 0 268 -103t100 -276v-424q0 -138 25 -173q26 -36 111 -36zM440 29q190 0 306 110t116 295v98q-46 -15 -428 -104q-120 -25 -180 -79t-59 -136q0 -90 63 -137t182 -47z" />
    <glyph glyph-name="aring" unicode="&#xe5;" horiz-adv-x="1138" 
d="M578 1249q-74 0 -120 42t-46 112q0 68 45.5 108.5t120.5 40.5q72 0 117.5 -41t45.5 -108q0 -69 -45.5 -111.5t-117.5 -42.5zM670 1485q-27 24 -92 24q-66 0 -93 -24q-28 -25 -28 -82q0 -61 26.5 -85t94.5 -24q66 0 92 23.5t26 85.5q0 56 -26 82zM1051 37h57v-37
q-56 -12 -82 -12q-87 0 -124.5 48.5t-37.5 162.5v77q-44 -138 -157 -218q-115 -81 -277 -81q-133 0 -215 64q-82 63 -82 168q0 195 287 258q391 89 442 106v80q0 344 -315 344q-326 0 -326 -346h-57q0 178 107 288t276 110q168 0 268 -103t100 -276v-424q0 -138 25 -173
q26 -36 111 -36zM440 29q190 0 306 110t116 295v98q-46 -15 -428 -104q-120 -25 -180 -79t-59 -136q0 -90 63 -137t182 -47z" />
    <glyph glyph-name="ae" unicode="&#xe6;" horiz-adv-x="1939" 
d="M1769 559v-67h-845q4 -225 106.5 -343t294.5 -118q381 0 381 293h57q0 -154 -119 -250q-119 -97 -319 -97q-168 0 -284 101q-117 100 -156 276q-22 -169 -146 -273t-307 -104q-134 0 -216 64q-83 63 -83 168q0 195 289 258q391 89 442 106v80q0 168 -81 256t-234 88
q-158 0 -242 -89t-84 -257h-57q0 178 107 288t276 110q146 0 240 -82q93 -81 116 -222q51 144 161 224t259 80q199 0 322 -135q122 -137 122 -355zM924 535l323 4h471q-6 457 -393 456q-193 0 -295 -117.5t-106 -342.5zM442 29q190 0 306 110t116 295v98q-88 -28 -428 -104
q-121 -26 -181.5 -80t-59.5 -135q-1 -92 61 -138t186 -46z" />
    <glyph glyph-name="ccedilla" unicode="&#xe7;" horiz-adv-x="1224" 
d="M993 334h58q0 -156 -107 -254q-109 -99 -285 -103l-55 -133h80q70 0 112 -35.5t42 -93.5q0 -59 -43 -96t-113 -37h-150v45h154q51 0 72.5 20.5t21.5 67.5t-21.5 67.5t-72.5 20.5h-135v29l61 145q-200 11 -318 157q-120 147 -120 380q0 239 128 388q128 147 339 147
q181 0 294 -107q112 -108 112 -283h-58q0 336 -348 336q-200 0 -302.5 -122t-102.5 -359q0 -238 103 -360.5t302 -122.5q352 0 352 303z" />
    <glyph glyph-name="egrave" unicode="&#xe8;" horiz-adv-x="1251" 
d="M565 1546l105 -286h-49l-127 286h71zM1081 559v-67h-845q4 -225 109.5 -343t301.5 -118q179 0 275 77t96 216h57q0 -143 -122 -245q-121 -102 -306 -102q-213 0 -343 148q-130 146 -130 389q0 240 127 388q127 147 336 147q199 0 322 -135q122 -137 122 -355zM236 535
l323 4h471q-6 457 -393 456q-193 0 -295 -117.5t-106 -342.5z" />
    <glyph glyph-name="eacute" unicode="&#xe9;" horiz-adv-x="1251" 
d="M721 1546h72l-125 -286h-52zM1081 559v-67h-845q4 -225 109.5 -343t301.5 -118q179 0 275 77t96 216h57q0 -143 -122 -245q-121 -102 -306 -102q-213 0 -343 148q-130 146 -130 389q0 240 127 388q127 147 336 147q199 0 322 -135q122 -137 122 -355zM236 535l323 4h471
q-6 457 -393 456q-193 0 -295 -117.5t-106 -342.5z" />
    <glyph glyph-name="ecircumflex" unicode="&#xea;" horiz-adv-x="1251" 
d="M856 1260l-211 270l-211 -270h-67l229 286h96l230 -286h-66zM1081 559v-67h-845q4 -225 109.5 -343t301.5 -118q179 0 275 77t96 216h57q0 -143 -122 -245q-121 -102 -306 -102q-213 0 -343 148q-130 146 -130 389q0 240 127 388q127 147 336 147q199 0 322 -135
q122 -137 122 -355zM236 535l323 4h471q-6 457 -393 456q-193 0 -295 -117.5t-106 -342.5z" />
    <glyph glyph-name="edieresis" unicode="&#xeb;" horiz-adv-x="1251" 
d="M440 1450h117v-125h-117v125zM733 1450h117v-125h-117v125zM1081 559v-67h-845q4 -225 109.5 -343t301.5 -118q179 0 275 77t96 216h57q0 -143 -122 -245q-121 -102 -306 -102q-213 0 -343 148q-130 146 -130 389q0 240 127 388q127 147 336 147q199 0 322 -135
q122 -137 122 -355zM236 535l323 4h471q-6 457 -393 456q-193 0 -295 -117.5t-106 -342.5z" />
    <glyph glyph-name="igrave" unicode="&#xec;" horiz-adv-x="544" 
d="M127 1546h72l104 -286h-49zM250 0v1026h55v-1026h-55z" />
    <glyph glyph-name="iacute" unicode="&#xed;" horiz-adv-x="544" 
d="M250 1260l104 286h72l-125 -286h-51zM250 0v1026h55v-1026h-55z" />
    <glyph glyph-name="icircumflex" unicode="&#xee;" horiz-adv-x="544" 
d="M229 1546h97l229 -286h-66l-210 270l-211 -270h-68zM305 0h-55v1026h55v-1026z" />
    <glyph glyph-name="idieresis" unicode="&#xef;" horiz-adv-x="544" 
d="M74 1325v125h116v-125h-116zM367 1325v125h116v-125h-116zM250 0v1026h55v-1026h-55z" />
    <glyph glyph-name="eth" unicode="&#xf0;" horiz-adv-x="1249" 
d="M1012 1546l-203 -188q293 -219 293 -715q0 -322 -121 -494t-344 -172q-209 0 -336 147q-127 145 -127 386q0 222 126 359q126 135 333 135q163 0 273 -91q110 -92 143 -243q2 460 -271 653l-217 -203h-61l241 226q-88 54 -202 88l-281 82v53l246 -68q160 -44 272 -121
l176 166h60zM338 155q102 -122 299 -122t298 126q101 127 101 351q0 213 -102.5 326.5t-296.5 113.5q-198 0 -299.5 -112t-101.5 -328q0 -234 102 -355z" />
    <glyph glyph-name="ntilde" unicode="&#xf1;" horiz-adv-x="1296" 
d="M514 1450q-69 0 -100 -40t-31 -128h-49q0 97 50 159q50 60 132 60q64 0 113 -43q51 -44 95 -86q46 -43 103 -43q70 0 102 39.5t32 128.5h49q0 -97 -50 -158q-51 -61 -133 -61q-48 0 -90 24.5t-70 61.5t-68.5 61.5t-84.5 24.5zM690 1049q164 0 266 -107q101 -109 101 -283
v-659h-58v633q0 186 -77.5 274t-241.5 88q-180 0 -277.5 -101t-97.5 -290v-604h-55v1026h53v-246q39 130 140 199.5t247 69.5z" />
    <glyph glyph-name="ograve" unicode="&#xf2;" horiz-adv-x="1275" 
d="M487 1546h72l105 -286h-50zM975 125q-127 -148 -336 -148q-210 0 -337 148q-128 148 -128 389q0 239 128 388q128 147 337 147t336 -147q127 -148 127 -388q0 -243 -127 -389zM338 154q102 -123 301 -123t300 123q101 122 101 360q0 236 -102 358.5t-299 122.5
q-199 0 -301 -122.5t-102 -358.5q0 -238 102 -360z" />
    <glyph glyph-name="oacute" unicode="&#xf3;" horiz-adv-x="1275" 
d="M610 1260l105 286h71l-124 -286h-52zM975 125q-127 -148 -336 -148q-210 0 -337 148q-128 148 -128 389q0 239 128 388q128 147 337 147t336 -147q127 -148 127 -388q0 -243 -127 -389zM338 154q102 -123 301 -123t300 123q101 122 101 360q0 236 -102 358.5t-299 122.5
q-199 0 -301 -122.5t-102 -358.5q0 -238 102 -360z" />
    <glyph glyph-name="ocircumflex" unicode="&#xf4;" horiz-adv-x="1275" 
d="M850 1260l-211 270l-211 -270h-68l230 286h96l229 -286h-65zM302 902q128 147 337 147t336 -147q127 -148 127 -388q0 -243 -127 -389q-127 -148 -336 -148q-210 0 -337 148q-128 148 -128 389q0 239 128 388zM338 154q102 -123 301 -123t300 123q101 122 101 360
q0 236 -102 358.5t-299 122.5q-199 0 -301 -122.5t-102 -358.5q0 -238 102 -360z" />
    <glyph glyph-name="otilde" unicode="&#xf5;" horiz-adv-x="1275" 
d="M793 1278q-48 0 -90.5 25t-70.5 61q-28 37 -68.5 61.5t-84.5 24.5q-69 0 -100 -40t-31 -128h-49q0 97 50 159q49 60 132 60q64 0 113 -43q51 -44 95 -86q46 -43 104 -43q70 0 101.5 39t31.5 129h49q0 -97 -50 -158q-49 -61 -132 -61zM975 125q-127 -148 -336 -148
q-210 0 -337 148q-128 148 -128 389q0 239 128 388q128 147 337 147t336 -147q127 -148 127 -388q0 -243 -127 -389zM338 154q102 -123 301 -123t300 123q101 122 101 360q0 236 -102 358.5t-299 122.5q-199 0 -301 -122.5t-102 -358.5q0 -238 102 -360z" />
    <glyph glyph-name="odieresis" unicode="&#xf6;" horiz-adv-x="1275" 
d="M434 1325v125h117v-125h-117zM727 1325v125h117v-125h-117zM975 125q-127 -148 -336 -148q-210 0 -337 148q-128 148 -128 389q0 239 128 388q128 147 337 147t336 -147q127 -148 127 -388q0 -243 -127 -389zM338 154q102 -123 301 -123t300 123q101 122 101 360
q0 236 -102 358.5t-299 122.5q-199 0 -301 -122.5t-102 -358.5q0 -238 102 -360z" />
    <glyph glyph-name="divide" unicode="&#xf7;" horiz-adv-x="1028" 
d="M453 799v127h127v-127h-127zM102 559h824v-53h-824v53zM453 139v127h127v-127h-127z" />
    <glyph glyph-name="oslash" unicode="&#xf8;" horiz-adv-x="1302" 
d="M1116 1186l68 2l-211 -279q133 -149 133 -395q0 -243 -127 -389q-127 -148 -336 -148q-171 0 -295 107l-172 -227l-67 -2l200 266q-131 148 -131 393q0 239 128 388q128 147 337 147q173 0 291 -103zM240 514q0 -232 98 -356l569 751q-98 86 -264 86q-199 0 -301 -122.5
t-102 -358.5zM1044 514q0 234 -100 356l-569 -749q102 -90 268 -90q198 0 299.5 122.5t101.5 360.5z" />
    <glyph glyph-name="ugrave" unicode="&#xf9;" horiz-adv-x="1284" 
d="M561 1546l105 -286h-50l-127 286h72zM979 420v606h55v-1026h-53v244q-36 -128 -137.5 -197.5t-245.5 -69.5q-160 0 -259 109q-99 110 -99 283v657h57v-631q0 -188 76 -276t239 -88q178 0 272.5 100t94.5 289z" />
    <glyph glyph-name="uacute" unicode="&#xfa;" horiz-adv-x="1284" 
d="M715 1546h71l-124 -286h-52zM979 420v606h55v-1026h-53v244q-36 -128 -137.5 -197.5t-245.5 -69.5q-160 0 -259 109q-99 110 -99 283v657h57v-631q0 -188 76 -276t239 -88q178 0 272.5 100t94.5 289z" />
    <glyph glyph-name="ucircumflex" unicode="&#xfb;" horiz-adv-x="1284" 
d="M852 1260l-211 270l-211 -270h-68l230 286h96l230 -286h-66zM979 420v606h55v-1026h-53v244q-36 -128 -137.5 -197.5t-245.5 -69.5q-160 0 -259 109q-99 110 -99 283v657h57v-631q0 -188 76 -276t239 -88q178 0 272.5 100t94.5 289z" />
    <glyph glyph-name="udieresis" unicode="&#xfc;" horiz-adv-x="1284" 
d="M436 1450h117v-125h-117v125zM729 1450h117v-125h-117v125zM979 420v606h55v-1026h-53v244q-36 -128 -137.5 -197.5t-245.5 -69.5q-160 0 -259 109q-99 110 -99 283v657h57v-631q0 -188 76 -276t239 -88q178 0 272.5 100t94.5 289z" />
    <glyph glyph-name="yacute" unicode="&#xfd;" horiz-adv-x="1054" 
d="M600 1546h72l-125 -286h-51zM637 287l311 739h60l-519 -1223q-47 -113 -101 -158q-55 -44 -138 -44q-70 0 -109 10v41h99q83 0 118 28q35 29 74 121l86 199h-37l-434 1026h62l311 -739l106 -260z" />
    <glyph glyph-name="thorn" unicode="&#xfe;" horiz-adv-x="1347" 
d="M713 1049q207 0 333 -147q125 -149 125 -388q0 -241 -125 -389q-126 -148 -333 -148q-145 0 -255 80q-110 79 -153 219v-735h-55v2005h53v-807q40 145 152 228q110 82 258 82zM408 154q102 -123 301 -123q198 0 300 123q101 122 101 360q0 236 -102.5 358.5t-298.5 122.5
q-199 0 -301.5 -122.5t-102.5 -358.5q0 -239 103 -360z" />
    <glyph glyph-name="ydieresis" unicode="&#xff;" horiz-adv-x="1054" 
d="M322 1450h116v-125h-116v125zM614 1450h117v-125h-117v125zM637 287l311 739h60l-519 -1223q-47 -113 -101 -158q-55 -44 -138 -44q-70 0 -109 10v41h99q83 0 118 28q35 29 74 121l86 199h-37l-434 1026h62l311 -739l106 -260z" />
    <glyph glyph-name="Amacron" unicode="&#x100;" horiz-adv-x="1351" 
d="M414 1808h526v-49h-526v49zM1292 0h-63l-199 492h-717l-192 -492h-62l553 1415h107zM575 1159l-241 -616h676l-250 616l-92 238z" />
    <glyph glyph-name="amacron" unicode="&#x101;" horiz-adv-x="1138" 
d="M313 1419h527v-49h-527v49zM1051 37h57v-37q-56 -12 -82 -12q-87 0 -124.5 48.5t-37.5 162.5v77q-44 -138 -157 -218q-115 -81 -277 -81q-133 0 -215 64q-82 63 -82 168q0 195 287 258q391 89 442 106v80q0 344 -315 344q-326 0 -326 -346h-57q0 178 107 288t276 110
q168 0 268 -103t100 -276v-424q0 -138 25 -173q26 -36 111 -36zM440 29q190 0 306 110t116 295v98q-46 -15 -428 -104q-120 -25 -180 -79t-59 -136q0 -90 63 -137t182 -47z" />
    <glyph glyph-name="Abreve" unicode="&#x102;" horiz-adv-x="1351" 
d="M870 1720q-73 -82 -192 -82t-191 82q-73 82 -73 215h53q0 -127 50 -186t161 -59q110 0 160.5 59t50.5 186h53q0 -133 -72 -215zM1292 0h-63l-199 492h-717l-192 -492h-62l553 1415h107zM575 1159l-241 -616h676l-250 616l-92 238z" />
    <glyph glyph-name="abreve" unicode="&#x103;" horiz-adv-x="1138" 
d="M769 1331q-73 -82 -191 -82q-119 0 -192 82t-73 215h54q0 -127 50.5 -186.5t160.5 -59.5t160 59.5t50 186.5h54q0 -133 -73 -215zM1051 37h57v-37q-56 -12 -82 -12q-87 0 -124.5 48.5t-37.5 162.5v77q-44 -138 -157 -218q-115 -81 -277 -81q-133 0 -215 64
q-82 63 -82 168q0 195 287 258q391 89 442 106v80q0 344 -315 344q-326 0 -326 -346h-57q0 178 107 288t276 110q168 0 268 -103t100 -276v-424q0 -138 25 -173q26 -36 111 -36zM440 29q190 0 306 110t116 295v98q-46 -15 -428 -104q-120 -25 -180 -79t-59 -136
q0 -90 63 -137t182 -47z" />
    <glyph glyph-name="Aogonek" unicode="&#x104;" horiz-adv-x="1351" 
d="M1163 -373h162v-45h-162q-139 0 -139 90q0 42 43 97l168 231h-6l-199 492h-717l-192 -492h-62l553 1415h107l573 -1415h-8l-168 -233q-37 -55 -37 -89q0 -30 17.5 -40.5t66.5 -10.5zM575 1159l-241 -616h676l-250 616l-92 238z" />
    <glyph glyph-name="aogonek" unicode="&#x105;" horiz-adv-x="1138" 
d="M1044 -12l-159 -221q-37 -55 -37 -89q0 -30 17.5 -40.5t66.5 -10.5h162v-45h-162q-139 0 -139 90q0 42 43 97l159 221q-69 8 -100 57.5t-31 151.5v77q-44 -138 -157 -218q-115 -81 -277 -81q-133 0 -215 64q-82 63 -82 168q0 195 287 258q391 89 442 106v80
q0 344 -315 344q-326 0 -326 -346h-57q0 178 107 288t276 110q168 0 268 -103t100 -276v-424q0 -138 25 -173q26 -36 111 -36h57v-37q-43 -10 -64 -12zM440 29q190 0 306 110t116 295v98q-46 -15 -428 -104q-120 -25 -180 -79t-59 -136q0 -90 63 -137t182 -47z" />
    <glyph glyph-name="Cacute" unicode="&#x106;" horiz-adv-x="1548" 
d="M803 1649l104 286h72l-125 -286h-51zM188 709q0 328 177 529q176 200 466 200q250 0 405 -137q155 -138 155 -363h-62q0 442 -498 442q-281 0 -430 -174q-149 -175 -149 -497q0 -326 150 -500q148 -174 429 -174q245 0 371.5 108t126.5 316h60q0 -217 -155 -349
q-154 -133 -403 -133q-291 0 -467 201q-176 202 -176 531z" />
    <glyph glyph-name="cacute" unicode="&#x107;" horiz-adv-x="1224" 
d="M608 1260l105 286h71l-125 -286h-51zM993 334h58q0 -160 -113 -258q-112 -99 -297 -99q-212 0 -339 148q-128 148 -128 389q0 239 128 388q128 147 339 147q181 0 294 -107q112 -108 112 -283h-58q0 336 -348 336q-200 0 -302.5 -122t-102.5 -359q0 -238 103 -360.5
t302 -122.5q352 0 352 303z" />
    <glyph glyph-name="Ccircumflex" unicode="&#x108;" horiz-adv-x="1548" 
d="M1042 1649l-211 270l-210 -270h-68l229 286h97l229 -286h-66zM831 35q245 0 371.5 108t126.5 316h60q0 -217 -155 -349q-154 -133 -403 -133q-291 0 -467 201q-176 202 -176 531q0 328 177 529q176 200 466 200q250 0 405 -137q155 -138 155 -363h-62q0 442 -498 442
q-281 0 -430 -174q-149 -175 -149 -497q0 -325 149 -500q149 -174 430 -174z" />
    <glyph glyph-name="ccircumflex" unicode="&#x109;" horiz-adv-x="1224" 
d="M848 1260l-211 270l-211 -270h-68l230 286h96l229 -286h-65zM993 334h58q0 -160 -113 -258q-112 -99 -297 -99q-212 0 -339 148q-128 148 -128 389q0 239 128 388q128 147 339 147q181 0 294 -107q112 -108 112 -283h-58q0 336 -348 336q-200 0 -302.5 -122t-102.5 -359
q0 -238 103 -360.5t302 -122.5q352 0 352 303z" />
    <glyph glyph-name="Cdotaccent" unicode="&#x10a;" horiz-adv-x="1548" 
d="M772 1714v125h117v-125h-117zM188 709q0 328 177 529q176 200 466 200q250 0 405 -137q155 -138 155 -363h-62q0 442 -498 442q-281 0 -430 -174q-149 -175 -149 -497q0 -326 150 -500q148 -174 429 -174q245 0 371.5 108t126.5 316h60q0 -217 -155 -349
q-154 -133 -403 -133q-291 0 -467 201q-176 202 -176 531z" />
    <glyph glyph-name="cdotaccent" unicode="&#x10b;" horiz-adv-x="1224" 
d="M580 1325v125h116v-125h-116zM993 334h58q0 -160 -113 -258q-112 -99 -297 -99q-212 0 -339 148q-128 148 -128 389q0 239 128 388q128 147 339 147q181 0 294 -107q112 -108 112 -283h-58q0 336 -348 336q-200 0 -302.5 -122t-102.5 -359q0 -238 103 -360.5t302 -122.5
q352 0 352 303z" />
    <glyph glyph-name="Ccaron" unicode="&#x10c;" horiz-adv-x="1548" 
d="M879 1649h-97l-229 286h68l210 -270l211 270h66zM831 35q245 0 371.5 108t126.5 316h60q0 -217 -155 -349q-154 -133 -403 -133q-291 0 -467 201q-176 202 -176 531q0 328 177 529q176 200 466 200q250 0 405 -137q155 -138 155 -363h-62q0 442 -498 442
q-281 0 -430 -174q-149 -175 -149 -497q0 -325 149 -500q149 -174 430 -174z" />
    <glyph glyph-name="ccaron" unicode="&#x10d;" horiz-adv-x="1224" 
d="M684 1260h-96l-230 286h68l211 -270l211 270h65zM993 334h58q0 -160 -113 -258q-112 -99 -297 -99q-212 0 -339 148q-128 148 -128 389q0 239 128 388q128 147 339 147q181 0 294 -107q112 -108 112 -283h-58q0 336 -348 336q-200 0 -302.5 -122t-102.5 -359
q0 -238 103 -360.5t302 -122.5q352 0 352 303z" />
    <glyph glyph-name="Dcaron" unicode="&#x10e;" horiz-adv-x="1646" 
d="M860 1649h-96l-229 286h67l211 -270l211 270h66zM301 1415h528q283 0 456 -194q173 -196 173 -512q0 -318 -173 -514q-173 -195 -456 -195h-528v1415zM360 51h455q282 0 431 169t149 489q0 317 -149.5 486t-430.5 169h-455v-1313z" />
    <glyph glyph-name="dcaron" unicode="&#x10f;" horiz-adv-x="1337" 
d="M1040 754v792h58v-1546h-54v289q-39 -146 -150 -229q-113 -83 -261 -83q-207 0 -333 148q-126 147 -126 389q0 240 126 388q126 147 333 147q147 0 257 -78t150 -217zM1296 1442v104h125v-116q0 -94 -44 -150.5t-117 -56.5v47q112 0 110 137zM338 154q102 -123 301 -123
t300 123q101 122 101 360q0 236 -102 358.5t-299 122.5q-199 0 -301 -122.5t-102 -358.5q0 -238 102 -360z" />
    <glyph glyph-name="Dcroat" unicode="&#x110;" horiz-adv-x="1646" 
d="M301 1415h528q283 0 456 -194q173 -196 173 -512q0 -318 -173 -514q-173 -195 -456 -195h-528v688h-274v49h274v678zM360 51h455q282 0 431 169t149 489q0 317 -149.5 486t-430.5 169h-455v-627h435v-49h-435v-637z" />
    <glyph glyph-name="dslash" unicode="&#x111;" horiz-adv-x="1337" 
d="M1098 1364h252v-47h-252v-1317h-54v289q-39 -146 -150 -229q-113 -83 -261 -83q-207 0 -333 148q-126 147 -126 389q0 240 126 388q126 147 333 147q147 0 257 -78t150 -217v563h-448v47h448v182h58v-182zM338 154q102 -123 301 -123t300 123q101 122 101 360
q0 236 -102 358.5t-299 122.5q-199 0 -301 -122.5t-102 -358.5q0 -238 102 -360z" />
    <glyph glyph-name="Emacron" unicode="&#x112;" horiz-adv-x="1386" 
d="M444 1808h527v-49h-527v49zM360 688v-637h789v-51h-848v1415h838v-51h-779v-625h738v-51h-738z" />
    <glyph glyph-name="emacron" unicode="&#x113;" horiz-adv-x="1251" 
d="M381 1419h526v-49h-526v49zM1081 559v-67h-845q4 -225 109.5 -343t301.5 -118q179 0 275 77t96 216h57q0 -143 -122 -245q-121 -102 -306 -102q-213 0 -343 148q-130 146 -130 389q0 240 127 388q127 147 336 147q199 0 322 -135q122 -137 122 -355zM236 535l323 4h471
q-6 457 -393 456q-193 0 -295 -117.5t-106 -342.5z" />
    <glyph glyph-name="Ebreve" unicode="&#x114;" horiz-adv-x="1386" 
d="M900 1720q-73 -82 -191 -82q-119 0 -192 82t-73 215h54q0 -127 50 -186t161 -59q110 0 160.5 59t50.5 186h53q0 -133 -73 -215zM360 688v-637h789v-51h-848v1415h838v-51h-779v-625h738v-51h-738z" />
    <glyph glyph-name="ebreve" unicode="&#x115;" horiz-adv-x="1251" 
d="M837 1331q-73 -82 -192 -82t-191 82q-73 82 -73 215h53q0 -127 50.5 -186.5t161.5 -59.5q110 0 160 59.5t50 186.5h53q0 -132 -72 -215zM1081 559v-67h-845q4 -225 109.5 -343t301.5 -118q179 0 275 77t96 216h57q0 -143 -122 -245q-121 -102 -306 -102q-213 0 -343 148
q-130 146 -130 389q0 240 127 388q127 147 336 147q199 0 322 -135q122 -137 122 -355zM236 535l323 4h471q-6 457 -393 456q-193 0 -295 -117.5t-106 -342.5z" />
    <glyph glyph-name="Edotaccent" unicode="&#x116;" horiz-adv-x="1386" 
d="M649 1839h117v-125h-117v125zM360 688v-637h789v-51h-848v1415h838v-51h-779v-625h738v-51h-738z" />
    <glyph glyph-name="edotaccent" unicode="&#x117;" horiz-adv-x="1251" 
d="M586 1450h116v-125h-116v125zM1081 559v-67h-845q4 -225 109.5 -343t301.5 -118q179 0 275 77t96 216h57q0 -143 -122 -245q-121 -102 -306 -102q-213 0 -343 148q-130 146 -130 389q0 240 127 388q127 147 336 147q199 0 322 -135q122 -137 122 -355zM236 535l323 4h471
q-6 457 -393 456q-193 0 -295 -117.5t-106 -342.5z" />
    <glyph glyph-name="Eogonek" unicode="&#x118;" horiz-adv-x="1386" 
d="M1026 -373h162v-45h-162q-139 0 -139 90q0 42 43 97l168 231h-797v1415h838v-51h-779v-625h738v-51h-738v-637h789v-51h-2l-168 -233q-37 -55 -37 -89q0 -30 17.5 -40.5t66.5 -10.5z" />
    <glyph glyph-name="eogonek" unicode="&#x119;" horiz-adv-x="1251" 
d="M1081 559v-67h-845q4 -225 109.5 -343t301.5 -118q179 0 275 77t96 216h57q0 -109 -73 -197q-73 -87 -199 -127h2l-168 -233q-37 -55 -37 -89q0 -30 17.5 -40.5t66.5 -10.5h162v-45h-162q-139 0 -139 90q0 42 43 97l157 217q-40 -7 -98 -9q-213 0 -343 148
q-130 146 -130 389q0 240 127 388q127 147 336 147q199 0 322 -135q122 -137 122 -355zM236 535l323 4h471q-6 457 -393 456q-193 0 -295 -117.5t-106 -342.5z" />
    <glyph glyph-name="Ecaron" unicode="&#x11a;" horiz-adv-x="1386" 
d="M756 1649h-97l-229 286h68l211 -270l211 270h65zM360 688v-637h789v-51h-848v1415h838v-51h-779v-625h738v-51h-738z" />
    <glyph glyph-name="ecaron" unicode="&#x11b;" horiz-adv-x="1251" 
d="M692 1260h-96l-229 286h67l211 -270l211 270h66zM1081 559v-67h-845q4 -225 109.5 -343t301.5 -118q179 0 275 77t96 216h57q0 -143 -122 -245q-121 -102 -306 -102q-213 0 -343 148q-130 146 -130 389q0 240 127 388q127 147 336 147q199 0 322 -135q122 -137 122 -355z
M236 535l323 4h471q-6 457 -393 456q-193 0 -295 -117.5t-106 -342.5z" />
    <glyph glyph-name="Gcircumflex" unicode="&#x11c;" horiz-adv-x="1636" 
d="M1044 1649l-210 270l-211 -270h-68l229 286h97l229 -286h-66zM729 637v51h692v-688h-51v418q-91 -439 -541 -441q-289 0 -465 201q-176 202 -176 531q0 327 179 529q179 200 469 200q262 0 422 -133q159 -133 159 -353h-61q0 428 -520 428q-280 0 -432 -174
q-152 -175 -152 -497q0 -323 152 -499q151 -175 432 -175q260 0 394 153t136 449h-637z" />
    <glyph glyph-name="gcircumflex" unicode="&#x11d;" horiz-adv-x="1163" 
d="M791 1260l-211 270l-211 -270h-68l229 286h97l229 -286h-65zM1114 1165v-55q-115 0 -168 -39t-59 -127q106 -96 106 -246q0 -146 -113 -238q-113 -91 -300 -91q-150 0 -258 63q-119 -51 -119 -170q0 -143 145 -143h436q130 0 207 -67q78 -67 78 -179q0 -123 -132 -198
q-133 -74 -349 -74q-220 0 -353 73q-135 73 -135 197q0 70 47.5 125t131.5 82q-59 25 -93 73t-34 105t39.5 110.5t105.5 82.5q-129 95 -129 249q0 158 114 255q112 96 298 96q171 0 280 -82q16 199 254 198zM932 698q0 297 -352 297q-350 0 -351 -297q0 -280 351 -278
q352 -1 352 278zM774 70h-461q-157 -57 -155 -197q0 -219 430 -219q221 0 322.5 52.5t101.5 166.5q0 106 -54.5 151.5t-183.5 45.5z" />
    <glyph glyph-name="Gbreve" unicode="&#x11e;" horiz-adv-x="1636" 
d="M1023 1720q-73 -82 -191 -82q-119 0 -192 82t-73 215h54q0 -127 50 -186t161 -59q110 0 160 59t50 186h54q0 -133 -73 -215zM729 637v51h692v-688h-51v418q-91 -439 -541 -441q-289 0 -465 201q-176 202 -176 531q0 327 179 529q179 200 469 200q262 0 422 -133
q159 -133 159 -353h-61q0 428 -520 428q-280 0 -432 -174q-152 -175 -152 -497q0 -323 152 -499q151 -175 432 -175q260 0 394 153t136 449h-637z" />
    <glyph glyph-name="gbreve" unicode="&#x11f;" horiz-adv-x="1163" 
d="M771 1331q-73 -82 -191 -82q-119 0 -192 82t-73 215h54q0 -127 50.5 -186.5t160.5 -59.5t160.5 59.5t50.5 186.5h53q0 -133 -73 -215zM1114 1165v-55q-115 0 -168 -39t-59 -127q106 -96 106 -246q0 -146 -113 -238q-113 -91 -300 -91q-150 0 -258 63q-119 -51 -119 -170
q0 -143 145 -143h436q130 0 207 -67q78 -67 78 -179q0 -123 -132 -198q-133 -74 -349 -74q-220 0 -353 73q-135 73 -135 197q0 70 47.5 125t131.5 82q-59 25 -93 73t-34 105t39.5 110.5t105.5 82.5q-129 95 -129 249q0 158 114 255q112 96 298 96q171 0 280 -82
q16 199 254 198zM932 698q0 297 -352 297q-350 0 -351 -297q0 -280 351 -278q352 -1 352 278zM774 70h-461q-157 -57 -155 -197q0 -219 430 -219q221 0 322.5 52.5t101.5 166.5q0 106 -54.5 151.5t-183.5 45.5z" />
    <glyph glyph-name="Gdotaccent" unicode="&#x120;" horiz-adv-x="1636" 
d="M774 1839h117v-125h-117v125zM729 637v51h692v-688h-51v418q-91 -439 -541 -441q-289 0 -465 201q-176 202 -176 531q0 327 179 529q179 200 469 200q262 0 422 -133q159 -133 159 -353h-61q0 428 -520 428q-280 0 -432 -174q-152 -175 -152 -497q0 -323 152 -499
q151 -175 432 -175q260 0 394 153t136 449h-637z" />
    <glyph glyph-name="gdotaccent" unicode="&#x121;" horiz-adv-x="1163" 
d="M522 1450h117v-125h-117v125zM1114 1165v-55q-115 0 -168 -39t-59 -127q106 -96 106 -246q0 -146 -113 -238q-113 -91 -300 -91q-150 0 -258 63q-119 -51 -119 -170q0 -143 145 -143h436q130 0 207 -67q78 -67 78 -179q0 -123 -132 -198q-133 -74 -349 -74
q-220 0 -353 73q-135 73 -135 197q0 70 47.5 125t131.5 82q-59 25 -93 73t-34 105t39.5 110.5t105.5 82.5q-129 95 -129 249q0 158 114 255q112 96 298 96q171 0 280 -82q16 199 254 198zM932 698q0 297 -352 297q-350 0 -351 -297q0 -280 351 -278q352 -1 352 278zM774 70
h-461q-157 -57 -155 -197q0 -219 430 -219q221 0 322.5 52.5t101.5 166.5q0 106 -54.5 151.5t-183.5 45.5z" />
    <glyph glyph-name="uni0122" unicode="&#x122;" horiz-adv-x="1636" 
d="M729 637v51h692v-688h-51v418q-91 -439 -541 -441q-289 0 -465 201q-176 202 -176 531q0 327 179 529q179 200 469 200q262 0 422 -133q159 -133 159 -353h-61q0 428 -520 428q-280 0 -432 -174q-152 -175 -152 -497q0 -323 152 -499q151 -175 432 -175q260 0 394 153
t136 449h-637zM842 -365l-74 33v105h125v-117q0 -86 -44.5 -137t-117.5 -51v49q111 0 111 118z" />
    <glyph glyph-name="uni0123" unicode="&#x123;" horiz-adv-x="1163" 
d="M565 1397l74 -33v-104h-123v116q0 86 44 136.5t118 50.5v-47q-113 0 -113 -119zM1114 1165v-55q-115 0 -168 -39t-59 -127q106 -96 106 -246q0 -146 -113 -238q-113 -91 -300 -91q-150 0 -258 63q-119 -51 -119 -170q0 -143 145 -143h436q130 0 207 -67q78 -67 78 -179
q0 -123 -132 -198q-133 -74 -349 -74q-220 0 -353 73q-135 73 -135 197q0 70 47.5 125t131.5 82q-59 25 -93 73t-34 105t39.5 110.5t105.5 82.5q-129 95 -129 249q0 158 114 255q112 96 298 96q171 0 280 -82q16 199 254 198zM932 698q0 297 -352 297q-350 0 -351 -297
q0 -280 351 -278q352 -1 352 278zM774 70h-461q-157 -57 -155 -197q0 -219 430 -219q221 0 322.5 52.5t101.5 166.5q0 106 -54.5 151.5t-183.5 45.5z" />
    <glyph glyph-name="Hcircumflex" unicode="&#x124;" horiz-adv-x="1648" 
d="M1036 1649l-211 270l-211 -270h-67l229 286h96l230 -286h-66zM1290 739v676h60v-1415h-60v688h-930v-688h-59v1415h59v-676h930z" />
    <glyph glyph-name="hcircumflex" unicode="&#x125;" horiz-adv-x="1296" 
d="M874 1810l-210 271l-211 -271h-68l229 287h97l229 -287h-66zM690 1049q164 0 266 -107q101 -109 101 -283v-659h-58v633q0 186 -77.5 274t-241.5 88q-180 0 -277.5 -101t-97.5 -290v-604h-55v1546h55v-760q39 126 141 194.5t244 68.5z" />
    <glyph glyph-name="Hbar" unicode="&#x126;" horiz-adv-x="1669" 
d="M1350 1178h270v-50h-270v-1128h-60v688h-930v-688h-59v1128h-252v50h252v237h59v-237h930v237h60v-237zM360 739h930v389h-930v-389z" />
    <glyph glyph-name="hbar" unicode="&#x127;" horiz-adv-x="1296" 
d="M690 1049q164 0 266 -107q101 -109 101 -283v-659h-58v633q0 186 -77.5 274t-241.5 88q-180 0 -277.5 -101t-97.5 -290v-604h-55v1317h-250v47h250v182h55v-182h453v-47h-453v-531q39 126 141 194.5t244 68.5z" />
    <glyph glyph-name="Itilde" unicode="&#x128;" horiz-adv-x="659" 
d="M485 1667q-48 0 -90 24.5t-70 61.5t-68.5 61.5t-84.5 24.5q-69 0 -100 -40t-31 -128h-51q0 97 51 159q51 60 133 60q64 0 113 -43q51 -44 95 -86q46 -43 103 -43q70 0 101.5 39t31.5 129h50q0 -97 -50 -158q-51 -61 -133 -61zM301 0v1415h59v-1415h-59z" />
    <glyph glyph-name="itilde" unicode="&#x129;" horiz-adv-x="544" 
d="M432 1278q-48 0 -90 24.5t-70 61.5t-68.5 61.5t-84.5 24.5q-70 0 -101.5 -40t-31.5 -128h-49q0 98 51 159q51 60 133 60q64 0 113 -43q51 -45 95 -86q46 -43 103 -43q70 0 101.5 39t31.5 129h49q0 -97 -50 -158q-49 -61 -132 -61zM250 0v1026h55v-1026h-55z" />
    <glyph glyph-name="Imacron" unicode="&#x12a;" horiz-adv-x="659" 
d="M68 1808h526v-49h-526v49zM301 0v1415h59v-1415h-59z" />
    <glyph glyph-name="imacron" unicode="&#x12b;" horiz-adv-x="544" 
d="M14 1419h527v-49h-527v49zM250 0v1026h55v-1026h-55z" />
    <glyph glyph-name="Ibreve" unicode="&#x12c;" horiz-adv-x="659" 
d="M541 1935h53q0 -133 -72 -215q-73 -82 -192 -82t-191 82q-73 82 -73 215h53q0 -127 50 -186t161 -59q110 0 160.5 59t50.5 186zM301 0v1415h59v-1415h-59z" />
    <glyph glyph-name="ibreve" unicode="&#x12d;" horiz-adv-x="544" 
d="M489 1546h54q0 -133 -73 -215t-191 -82q-119 0 -192 82t-73 215h54q0 -127 50.5 -186.5t160.5 -59.5t160 59.5t50 186.5zM250 0v1026h55v-1026h-55z" />
    <glyph glyph-name="Iogonek" unicode="&#x12e;" horiz-adv-x="659" 
d="M240 -373h161v-45h-161q-138 0 -140 90q0 42 43 97l168 231h-10v1415h59v-1415l-167 -233q-37 -55 -37 -89q0 -30 17.5 -40.5t66.5 -10.5z" />
    <glyph glyph-name="iogonek" unicode="&#x12f;" horiz-adv-x="544" 
d="M219 1450h117v-125h-117v125zM186 -373h162v-45h-162q-139 0 -139 90q0 42 43 97l168 231h-8v1026h55v-1026h2l-168 -233q-37 -55 -37 -89q0 -30 17.5 -40.5t66.5 -10.5z" />
    <glyph glyph-name="Idot" unicode="&#x130;" horiz-adv-x="659" 
d="M272 1714v125h117v-125h-117zM301 0v1415h59v-1415h-59z" />
    <glyph glyph-name="dotlessi" unicode="&#x131;" horiz-adv-x="544" 
d="M250 0v1026h55v-1026h-55z" />
    <glyph glyph-name="IJ" unicode="&#x132;" horiz-adv-x="1267" 
d="M281 35h346q172 0 247 79q74 80 74 263v1038h60v-1042q0 -190 -99 -293t-282 -103q-185 0 -346 21v37zM285 410v1005h59v-1005h-59z" />
    <glyph glyph-name="ij" unicode="&#x133;" horiz-adv-x="1089" 
d="M336 1325h-117v125h117v-125zM764 1325v125h117v-125h-117zM305 0h-55v1026h55v-1026zM795 -170v1196h55v-1212q0 -112 -45.5 -162.5t-147.5 -50.5q-67 0 -106 10v37h96q94 0 121 33q27 35 27 149z" />
    <glyph glyph-name="Jcircumflex" unicode="&#x134;" horiz-adv-x="1216" 
d="M862 1935h96l230 -286h-66l-211 270l-211 -270h-67zM897 473v942h59v-950q0 -220 -112 -353q-112 -135 -299 -135q-201 0 -324 125t-123 332h60q0 -399 387 -399q352 0 352 438z" />
    <glyph glyph-name="jcircumflex" unicode="&#x135;" horiz-adv-x="514" 
d="M229 1546h97l229 -286h-66l-210 270l-211 -270h-68zM250 -152v1178h55v-1212q0 -112 -45 -162.5t-147 -50.5q-68 0 -107 10v37h96q85 0 117 41q31 41 31 159z" />
    <glyph glyph-name="uni0136" unicode="&#x136;" horiz-adv-x="1351" 
d="M1292 1415l-852 -702l879 -713h-92l-652 526l-215 181v-707h-59v1415h59v-698l844 698h88zM774 -365l-74 33v105h125v-117q0 -86 -44.5 -137t-116.5 -51v49q111 0 110 118z" />
    <glyph glyph-name="uni0137" unicode="&#x137;" horiz-adv-x="1036" 
d="M975 1026l-596 -491l639 -535h-84l-500 416l-129 110v-526h-55v1546h55v-1009l127 106l467 383h76zM590 -365l-74 33v105h125v-117q0 -86 -45 -137t-119 -51v49q113 0 113 118z" />
    <glyph glyph-name="kgreenlandic" unicode="&#x138;" horiz-adv-x="1036" 
d="M975 1026l-596 -491l639 -535h-86l-500 416l-127 108v-524h-55v1026h55v-489l127 106l465 383h78z" />
    <glyph glyph-name="Lacute" unicode="&#x139;" horiz-adv-x="1216" 
d="M408 1935h71l-125 -286h-51zM360 1415v-1364h766v-51h-825v1415h59z" />
    <glyph glyph-name="lacute" unicode="&#x13a;" horiz-adv-x="610" 
d="M344 1982h72l-125 -286h-51zM449 37h92v-37q-43 -12 -103 -12q-99 0 -143.5 49t-44.5 158v1351h55v-1343q0 -99 29 -133q28 -33 115 -33z" />
    <glyph glyph-name="uni013B" unicode="&#x13b;" horiz-adv-x="1216" 
d="M360 1415v-1364h766v-51h-825v1415h59zM774 -365l-74 33v105h125v-117q0 -86 -44.5 -137t-116.5 -51v49q111 0 110 118z" />
    <glyph glyph-name="uni013C" unicode="&#x13c;" horiz-adv-x="610" 
d="M449 37h92v-37q-43 -12 -103 -12q-99 0 -143.5 49t-44.5 158v1351h55v-1343q0 -99 29 -133q28 -33 115 -33zM385 -365l-74 33v105h125v-117q0 -86 -45 -137t-119 -51v49q113 0 113 118z" />
    <glyph glyph-name="Lcaron" unicode="&#x13d;" horiz-adv-x="1216" 
d="M360 1415v-1364h766v-51h-825v1415h59zM846 1415v-117q0 -94 -44 -150t-118 -56v47q111 0 111 137l-74 35v104h125z" />
    <glyph glyph-name="lcaron" unicode="&#x13e;" horiz-adv-x="610" 
d="M305 1546v-1343q0 -99 29 -133q28 -33 115 -33h92v-37q-43 -12 -103 -12q-99 0 -143.5 49t-44.5 158v1351h55zM502 1442v104h125v-116q0 -94 -44 -150.5t-118 -56.5v47q112 0 110 137z" />
    <glyph glyph-name="Ldot" unicode="&#x13f;" horiz-adv-x="1216" 
d="M360 1415v-1364h766v-51h-825v1415h59zM684 864h127v-127h-127v127z" />
    <glyph glyph-name="ldot" unicode="&#x140;" horiz-adv-x="702" 
d="M305 1546v-1343q0 -99 29 -133q28 -33 115 -33h92v-37q-43 -12 -103 -12q-99 0 -143.5 49t-44.5 158v1351h55zM500 707v110h108v-110h-108z" />
    <glyph glyph-name="Lslash" unicode="&#x141;" horiz-adv-x="1216" 
d="M360 623v-572h766v-51h-825v604l-252 -123v54l252 122v758h59v-741l525 258v-51z" />
    <glyph glyph-name="lslash" unicode="&#x142;" horiz-adv-x="610" 
d="M567 958v-61l-262 -211v-483q0 -99 29 -133q28 -33 115 -33h92v-37q-43 -12 -103 -12q-99 0 -143.5 49t-44.5 158v460l-219 -170v62l219 170v829h55v-798z" />
    <glyph glyph-name="Nacute" unicode="&#x143;" horiz-adv-x="1648" 
d="M903 1935h72l-125 -286h-51zM1290 436v979h60v-1415h-105l-893 1395l8 -361v-1034h-59v1415h102l893 -1392z" />
    <glyph glyph-name="nacute" unicode="&#x144;" horiz-adv-x="1296" 
d="M748 1546h71l-125 -286h-51zM690 1049q164 0 266 -107q101 -109 101 -283v-659h-58v633q0 186 -77.5 274t-241.5 88q-180 0 -277.5 -101t-97.5 -290v-604h-55v1026h53v-246q39 130 140 199.5t247 69.5z" />
    <glyph glyph-name="uni0145" unicode="&#x145;" horiz-adv-x="1648" 
d="M1290 436v979h60v-1415h-105l-893 1395l8 -361v-1034h-59v1415h102l893 -1392zM836 -365l-74 33v105h125v-117q0 -86 -44.5 -137t-117.5 -51v49q111 0 111 118z" />
    <glyph glyph-name="uni0146" unicode="&#x146;" horiz-adv-x="1296" 
d="M690 1049q164 0 266 -107q101 -109 101 -283v-659h-58v633q0 186 -77.5 274t-241.5 88q-180 0 -277.5 -101t-97.5 -290v-604h-55v1026h53v-246q39 130 140 199.5t247 69.5zM680 -365l-74 33v105h125v-117q0 -86 -45 -137t-119 -51v49q113 0 113 118z" />
    <glyph glyph-name="Ncaron" unicode="&#x147;" horiz-adv-x="1648" 
d="M874 1649h-96l-229 286h67l211 -270l211 270h66zM1290 436v979h60v-1415h-105l-893 1395l8 -361v-1034h-59v1415h102l893 -1392z" />
    <glyph glyph-name="ncaron" unicode="&#x148;" horiz-adv-x="1296" 
d="M721 1260h-96l-230 286h68l211 -270l211 270h65zM690 1049q164 0 266 -107q101 -109 101 -283v-659h-58v633q0 186 -77.5 274t-241.5 88q-180 0 -277.5 -101t-97.5 -290v-604h-55v1026h53v-246q39 130 140 199.5t247 69.5z" />
    <glyph glyph-name="napostrophe" unicode="&#x149;" horiz-adv-x="1366" 
d="M90 1167l-76 35v111h127v-125q0 -88 -45 -139.5t-123 -51.5v50q117 0 117 120zM760 1049q164 0 265 -107q101 -109 101 -283v-659h-57v633q0 186 -78 274t-241 88q-180 0 -277.5 -101t-97.5 -290v-604h-56v1026h54v-246q39 130 140 199.5t247 69.5z" />
    <glyph glyph-name="Eng" unicode="&#x14a;" horiz-adv-x="1648" 
d="M1290 436v979h60v-1601q0 -112 -45.5 -162.5t-149.5 -50.5q-67 0 -106 10v37h96q83 0 115 42q30 42 30 158v152h-45l-893 1395l8 -361v-1034h-59v1415h102l893 -1392z" />
    <glyph glyph-name="eng" unicode="&#x14b;" horiz-adv-x="1296" 
d="M690 1049q164 0 266 -107q101 -109 101 -283v-845q0 -112 -45.5 -162.5t-147.5 -50.5q-67 0 -106 10v37h96q92 0 119 36q26 38 26 164v785q0 362 -319 362q-180 0 -277.5 -101t-97.5 -290v-604h-55v1026h53v-246q39 130 140 199.5t247 69.5z" />
    <glyph glyph-name="Omacron" unicode="&#x14c;" horiz-adv-x="1671" 
d="M582 1827h526v-49h-526v49zM844 -23q-295 0 -475 201q-181 200 -181 531q0 329 181 529q180 200 475 200q288 0 464 -201q175 -200 175 -528q0 -331 -175 -531q-176 -201 -464 -201zM844 35q276 0 426 175q149 176 149 499q0 322 -149 497q-150 174 -426 174
q-285 0 -438 -174q-154 -173 -154 -497t154 -499q153 -175 438 -175z" />
    <glyph glyph-name="omacron" unicode="&#x14d;" horiz-adv-x="1275" 
d="M375 1419h526v-49h-526v49zM975 125q-127 -148 -336 -148q-210 0 -337 148q-128 148 -128 389q0 239 128 388q128 147 337 147t336 -147q127 -148 127 -388q0 -243 -127 -389zM338 154q102 -123 301 -123t300 123q101 122 101 360q0 236 -102 358.5t-299 122.5
q-199 0 -301 -122.5t-102 -358.5q0 -238 102 -360z" />
    <glyph glyph-name="Obreve" unicode="&#x14e;" horiz-adv-x="1671" 
d="M1055 1954h53q0 -132 -72 -215q-73 -82 -192 -82t-191 82q-73 82 -73 215h53q0 -127 50.5 -186.5t160.5 -59.5t160.5 59.5t50.5 186.5zM844 -23q-295 0 -475 201q-181 200 -181 531q0 329 181 529q180 200 475 200q288 0 464 -201q175 -200 175 -528q0 -331 -175 -531
q-176 -201 -464 -201zM844 35q276 0 426 175q149 176 149 499q0 322 -149 497q-150 174 -426 174q-285 0 -438 -174q-154 -173 -154 -497t154 -499q153 -175 438 -175z" />
    <glyph glyph-name="obreve" unicode="&#x14f;" horiz-adv-x="1275" 
d="M850 1546h53q0 -132 -72 -215q-73 -82 -192 -82t-191 82q-73 82 -73 215h53q0 -127 50.5 -186.5t160.5 -59.5t160.5 59.5t50.5 186.5zM975 125q-127 -148 -336 -148q-210 0 -337 148q-128 148 -128 389q0 239 128 388q128 147 337 147t336 -147q127 -148 127 -388
q0 -243 -127 -389zM338 154q102 -123 301 -123t300 123q101 122 101 360q0 236 -102 358.5t-299 122.5q-199 0 -301 -122.5t-102 -358.5q0 -238 102 -360z" />
    <glyph glyph-name="Ohungarumlaut" unicode="&#x150;" horiz-adv-x="1671" 
d="M719 1667l100 287h66l-117 -287h-49zM911 1667l103 287h71l-124 -287h-50zM844 -23q-295 0 -475 201q-181 200 -181 531q0 329 181 529q180 200 475 200q288 0 464 -201q175 -200 175 -528q0 -331 -175 -531q-176 -201 -464 -201zM844 35q276 0 426 175q149 176 149 499
q0 322 -149 497q-150 174 -426 174q-285 0 -438 -174q-154 -173 -154 -497t154 -499q153 -175 438 -175z" />
    <glyph glyph-name="ohungarumlaut" unicode="&#x151;" horiz-adv-x="1275" 
d="M518 1260l100 286h66l-117 -286h-49zM711 1260l102 286h72l-125 -286h-49zM975 125q-127 -148 -336 -148q-210 0 -337 148q-128 148 -128 389q0 239 128 388q128 147 337 147t336 -147q127 -148 127 -388q0 -243 -127 -389zM338 154q102 -123 301 -123t300 123
q101 122 101 360q0 236 -102 358.5t-299 122.5q-199 0 -301 -122.5t-102 -358.5q0 -238 102 -360z" />
    <glyph glyph-name="OE" unicode="&#x152;" horiz-adv-x="2367" 
d="M1346 688v-637h786v-51h-1315q-283 0 -456 195q-173 194 -173 514q0 317 174 512q173 194 455 194h1305v-51h-776v-625h735v-51h-735zM831 51h455v1313h-455q-281 0 -430 -169t-149 -486q0 -319 149 -488.5t430 -169.5z" />
    <glyph glyph-name="oe" unicode="&#x153;" horiz-adv-x="2117" 
d="M1948 559v-67h-846q4 -225 109.5 -343t301.5 -118q177 0 274 79q97 78 97 214h58q0 -143 -122 -245t-307 -102q-167 0 -282 96q-118 95 -158 261q-44 -167 -157 -261q-116 -96 -277 -96q-210 0 -337 148q-128 148 -128 389q0 239 128 388q128 147 337 147q161 0 277 -95
q114 -96 155 -260q41 164 156 260q115 95 276 95q199 0 322 -135q123 -136 123 -355zM338 154q102 -123 301 -123t300 123q101 122 101 360q0 236 -102 358.5t-299 122.5q-199 0 -301 -122.5t-102 -358.5q0 -238 102 -360zM1102 535l323 4h471q-6 457 -393 456
q-193 0 -295 -117.5t-106 -342.5z" />
    <glyph glyph-name="Racute" unicode="&#x154;" horiz-adv-x="1439" 
d="M831 1935h72l-125 -286h-51zM1354 0h-72l-463 631h-459v-631h-59v1415h535q182 0 292 -107q109 -108 109 -284q0 -167 -97 -270q-97 -104 -261 -121l133 -172zM819 1364h-459v-684h459q353 0 355 344q0 174 -87.5 257t-267.5 83z" />
    <glyph glyph-name="racute" unicode="&#x155;" horiz-adv-x="790" 
d="M571 1546h72l-125 -286h-51zM631 1049q75 0 119 -15v-41h-127q-154 0 -236 -110.5t-82 -317.5v-565h-55v1026h53v-254q35 134 120.5 205.5t207.5 71.5z" />
    <glyph glyph-name="uni0156" unicode="&#x156;" horiz-adv-x="1439" 
d="M879 633l133 -172l342 -461h-72l-463 631h-459v-631h-59v1415h535q182 0 292 -107q109 -108 109 -284q0 -167 -97 -270q-97 -104 -261 -121zM819 1364h-459v-684h459q353 0 355 344q0 174 -87.5 257t-267.5 83zM770 -365l-74 33v105h125v-117q0 -86 -44.5 -137
t-117.5 -51v49q111 0 111 118z" />
    <glyph glyph-name="uni0157" unicode="&#x157;" horiz-adv-x="790" 
d="M631 1049q75 0 119 -15v-41h-127q-154 0 -236 -110.5t-82 -317.5v-565h-55v1026h53v-254q35 134 120.5 205.5t207.5 71.5zM295 -365l-74 33v105h125v-117q0 -86 -45 -137t-119 -51v49q113 0 113 118z" />
    <glyph glyph-name="Rcaron" unicode="&#x158;" horiz-adv-x="1439" 
d="M801 1649h-96l-230 286h68l211 -270l211 270h65zM1354 0h-72l-463 631h-459v-631h-59v1415h535q182 0 292 -107q109 -108 109 -284q0 -167 -97 -270q-97 -104 -261 -121l133 -172zM819 1364h-459v-684h459q353 0 355 344q0 174 -87.5 257t-267.5 83z" />
    <glyph glyph-name="rcaron" unicode="&#x159;" horiz-adv-x="790" 
d="M545 1260h-96l-230 286h68l211 -270l211 270h65zM303 1026v-254q35 134 120.5 205.5t207.5 71.5q75 0 119 -15v-41h-127q-154 0 -236 -110.5t-82 -317.5v-565h-55v1026h53z" />
    <glyph glyph-name="Sacute" unicode="&#x15a;" horiz-adv-x="1449" 
d="M700 1649l105 286h72l-125 -286h-52zM731 -23q-248 0 -398 126q-151 126 -151 333h60q0 -401 491 -401q229 0 351 81t120 230q-1 90 -40 152q-38 59 -147 110t-310 90q-289 55 -394 135q-106 79 -106 214q0 176 144 284q143 107 377 107q233 0 374 -126t141 -333h-59
q0 401 -459 401q-221 0 -339 -83t-118 -240q0 -119 100 -186q101 -69 377 -121q296 -57 408 -148q113 -92 113 -246q0 -171 -147 -274q-149 -105 -388 -105z" />
    <glyph glyph-name="sacute" unicode="&#x15b;" horiz-adv-x="1140" 
d="M537 1260l104 286h72l-125 -286h-51zM592 -23q-204 0 -329 98q-124 97 -124 255h58q0 -299 397 -299q352 0 352 209q0 104 -80 160q-78 54 -288 92q-214 41 -310 106t-96 170q0 128 108 204q107 77 283 77q189 0 305 -96q115 -97 115 -255h-57q0 297 -365 297
q-334 0 -334 -217q0 -96 85 -148q84 -52 306 -91q201 -37 292 -105.5t91 -183.5q0 -123 -112 -198q-113 -75 -297 -75z" />
    <glyph glyph-name="Scircumflex" unicode="&#x15c;" horiz-adv-x="1449" 
d="M938 1649l-211 270l-211 -270h-67l229 286h96l230 -286h-66zM745 750q296 -57 408 -148q113 -92 113 -246q0 -171 -147 -274q-149 -105 -388 -105q-248 0 -398 126q-151 126 -151 333h60q0 -401 491 -401q229 0 351 81t120 230q-1 90 -40 152q-38 59 -147 110t-310 90
q-289 55 -394 135q-106 79 -106 214q0 176 144 284q143 107 377 107q233 0 374 -126t141 -333h-59q0 401 -459 401q-221 0 -339 -83t-118 -240q0 -119 99 -186q101 -69 378 -121z" />
    <glyph glyph-name="scircumflex" unicode="&#x15d;" horiz-adv-x="1140" 
d="M778 1260l-211 270l-211 -270h-67l229 286h96l230 -286h-66zM618 539q201 -37 292 -105.5t91 -183.5q0 -123 -112 -198q-113 -75 -297 -75q-204 0 -329 98q-124 97 -124 255h58q0 -299 397 -299q352 0 352 209q0 104 -80 160q-78 54 -288 92q-214 41 -310 106t-96 170
q0 128 108 204q107 77 283 77q189 0 305 -96q115 -97 115 -255h-57q0 297 -365 297q-334 0 -334 -217q0 -96 85 -148q84 -52 306 -91z" />
    <glyph glyph-name="Scedilla" unicode="&#x15e;" horiz-adv-x="1449" 
d="M1266 356q0 -168 -144 -271q-146 -103 -381 -108l-53 -133h80q70 0 112 -35.5t42 -93.5q0 -59 -43 -96t-113 -37h-150v45h154q51 0 72.5 20.5t21.5 67.5t-21.5 67.5t-72.5 20.5h-135v29l61 145q-232 11 -372 136q-142 124 -142 323h60q0 -401 491 -401q229 0 351 81
t120 230q-1 90 -40 152q-38 59 -147 110t-310 90q-289 55 -394 135q-106 79 -106 214q0 176 144 284q143 107 377 107q233 0 374 -126t141 -333h-59q0 401 -459 401q-221 0 -339 -83t-118 -240q0 -119 100 -186q101 -69 377 -121q296 -57 408 -148q113 -92 113 -246z" />
    <glyph glyph-name="scedilla" unicode="&#x15f;" horiz-adv-x="1140" 
d="M1001 250q0 -121 -110 -195q-111 -75 -293 -78l-53 -133h80q69 0 111 -35.5t42 -93.5q0 -59 -43 -96t-112 -37h-150v45h154q51 0 72.5 20.5t21.5 67.5t-21.5 67.5t-72.5 20.5h-135v29l61 145q-190 11 -301 107q-113 96 -113 246h58q0 -299 397 -299q352 0 352 209
q0 104 -80 160q-78 54 -288 92q-214 41 -310 106t-96 170q0 128 108 204q107 77 283 77q189 0 305 -96q115 -97 115 -255h-57q0 297 -365 297q-334 0 -334 -217q0 -96 85 -148q84 -52 306 -91q201 -37 292 -105.5t91 -183.5z" />
    <glyph glyph-name="Scaron" unicode="&#x160;" horiz-adv-x="1449" 
d="M774 1649h-96l-229 286h67l211 -270l211 270h66zM745 750q296 -57 408 -148q113 -92 113 -246q0 -171 -147 -274q-149 -105 -388 -105q-248 0 -398 126q-151 126 -151 333h60q0 -401 491 -401q229 0 351 81t120 230q-1 90 -40 152q-38 59 -147 110t-310 90
q-289 55 -394 135q-106 79 -106 214q0 176 144 284q143 107 377 107q233 0 374 -126t141 -333h-59q0 401 -459 401q-221 0 -339 -83t-118 -240q0 -119 99 -186q101 -69 378 -121z" />
    <glyph glyph-name="scaron" unicode="&#x161;" horiz-adv-x="1140" 
d="M614 1260h-96l-229 286h67l211 -270l211 270h66zM618 539q201 -37 292 -105.5t91 -183.5q0 -123 -112 -198q-113 -75 -297 -75q-204 0 -329 98q-124 97 -124 255h58q0 -299 397 -299q352 0 352 209q0 104 -80 160q-78 54 -288 92q-214 41 -310 106t-96 170q0 128 108 204
q107 77 283 77q189 0 305 -96q115 -97 115 -255h-57q0 297 -365 297q-334 0 -334 -217q0 -96 85 -148q84 -52 306 -91z" />
    <glyph glyph-name="uni0162" unicode="&#x162;" horiz-adv-x="1273" 
d="M666 1364v-1364h-4l-64 -156h80q69 0 111 -35.5t42 -93.5q0 -59 -43 -96t-112 -37h-150v45h154q51 0 72.5 20.5t21.5 67.5t-21.5 67.5t-72.5 20.5h-135v29l71 168h-10v1364h-575v51h1212v-51h-577z" />
    <glyph glyph-name="uni0163" unicode="&#x163;" horiz-adv-x="794" 
d="M756 37v-37q-104 -12 -230 -12l-59 -144h80q69 0 111 -35.5t42 -93.5q0 -59 -43 -96t-112 -37h-150v45h154q51 0 72.5 20.5t21.5 67.5t-21.5 67.5t-72.5 20.5h-135v29l67 156q-128 4 -183.5 68t-55.5 204v719h-215v47h215l4 309h51v-309h453v-47h-453v-700
q0 -146 43 -193q43 -49 172 -49h244z" />
    <glyph glyph-name="Tcaron" unicode="&#x164;" horiz-adv-x="1273" 
d="M684 1649h-96l-230 286h68l211 -270l211 270h65zM31 1415h1212v-51h-577v-1364h-60v1364h-575v51z" />
    <glyph glyph-name="tcaron" unicode="&#x165;" horiz-adv-x="794" 
d="M637 1524v-117q0 -94 -44 -150.5t-118 -56.5v47q111 0 111 137l-74 35v105h125zM512 37h244v-37q-111 -12 -252 -12q-142 0 -202 64q-60 63 -60 208v719h-215v47h215l4 309h51v-309h453v-47h-453v-700q0 -146 43 -193q43 -49 172 -49z" />
    <glyph glyph-name="Tbar" unicode="&#x166;" horiz-adv-x="1271" 
d="M1243 1415v-51h-577v-643h442v-51h-442v-670h-60v670h-432v51h432v643h-575v51h1212z" />
    <glyph glyph-name="tbar" unicode="&#x167;" horiz-adv-x="794" 
d="M512 37h244v-37q-111 -12 -252 -12q-142 0 -202 64q-60 63 -60 208v275h-215v47h215v397h-215v47h215l4 309h51v-309h453v-47h-453v-397h453v-47h-453v-256q0 -146 43 -193q43 -49 172 -49z" />
    <glyph glyph-name="Utilde" unicode="&#x168;" horiz-adv-x="1585" 
d="M948 1667q-48 0 -90 24.5t-70 61.5t-68.5 61.5t-84.5 24.5q-69 0 -100 -40t-31 -128h-49q0 97 50 159q49 60 132 60q64 0 113 -43q51 -44 95 -86q46 -43 103 -43q70 0 101.5 39t31.5 129h49q0 -97 -50 -158q-49 -61 -132 -61zM260 487v928h59v-919q0 -225 121 -343
t353 -118q231 0 352 117.5t121 343.5v919h59v-928q0 -229 -146 -369q-147 -141 -386 -141q-241 0 -386 141q-147 140 -147 369z" />
    <glyph glyph-name="utilde" unicode="&#x169;" horiz-adv-x="1284" 
d="M481 1450q-69 0 -100 -40t-31 -128h-49q0 97 50 159q49 60 132 60q64 0 113 -43q51 -44 95 -86q46 -43 104 -43q70 0 101.5 39t31.5 129h49q0 -97 -50 -158q-49 -61 -132 -61q-48 0 -90.5 25t-70.5 61q-28 37 -68.5 61.5t-84.5 24.5zM979 420v606h55v-1026h-53v244
q-36 -128 -137.5 -197.5t-245.5 -69.5q-160 0 -259 109q-99 110 -99 283v657h57v-631q0 -188 76 -276t239 -88q178 0 272.5 100t94.5 289z" />
    <glyph glyph-name="Umacron" unicode="&#x16a;" horiz-adv-x="1585" 
d="M530 1808h527v-49h-527v49zM260 487v928h59v-919q0 -225 121 -343t353 -118q231 0 352 117.5t121 343.5v919h59v-928q0 -229 -146 -369q-147 -141 -386 -141q-241 0 -386 141q-147 140 -147 369z" />
    <glyph glyph-name="umacron" unicode="&#x16b;" horiz-adv-x="1284" 
d="M377 1419h526v-49h-526v49zM979 420v606h55v-1026h-53v244q-36 -128 -137.5 -197.5t-245.5 -69.5q-160 0 -259 109q-99 110 -99 283v657h57v-631q0 -188 76 -276t239 -88q178 0 272.5 100t94.5 289z" />
    <glyph glyph-name="Ubreve" unicode="&#x16c;" horiz-adv-x="1585" 
d="M1004 1935h53q0 -133 -73 -215t-191 -82q-119 0 -192 82t-73 215h54q0 -127 50 -186t161 -59q110 0 160.5 59t50.5 186zM260 487v928h59v-919q0 -225 121 -343t353 -118q231 0 352 117.5t121 343.5v919h59v-928q0 -229 -146 -369q-147 -141 -386 -141q-241 0 -386 141
q-147 140 -147 369z" />
    <glyph glyph-name="ubreve" unicode="&#x16d;" horiz-adv-x="1284" 
d="M831 1331q-73 -82 -192 -82t-191 82q-73 82 -73 215h53q0 -127 50.5 -186.5t160.5 -59.5t160.5 59.5t50.5 186.5h53q0 -132 -72 -215zM979 420v606h55v-1026h-53v244q-36 -128 -137.5 -197.5t-245.5 -69.5q-160 0 -259 109q-99 110 -99 283v657h57v-631q0 -188 76 -276
t239 -88q178 0 272.5 100t94.5 289z" />
    <glyph glyph-name="Uring" unicode="&#x16e;" horiz-adv-x="1585" 
d="M795 1638q-74 0 -120 42t-46 112q0 68 45.5 109t120.5 41q73 0 118 -41t45 -109q0 -69 -45.5 -111.5t-117.5 -42.5zM795 1683q66 0 92 24t26 85q0 57 -26.5 81.5t-91.5 24.5q-66 0 -93.5 -24.5t-27.5 -81.5q0 -61 26.5 -85t94.5 -24zM260 487v928h59v-919
q0 -225 121 -343t353 -118q231 0 352 117.5t121 343.5v919h59v-928q0 -229 -146 -369q-147 -141 -386 -141q-241 0 -386 141q-147 140 -147 369z" />
    <glyph glyph-name="uring" unicode="&#x16f;" horiz-adv-x="1284" 
d="M641 1249q-74 0 -120 42t-46 112q0 68 45.5 108.5t120.5 40.5q72 0 118 -41.5t46 -107.5q0 -69 -45.5 -111.5t-118.5 -42.5zM734 1485q-27 24 -93 24t-93 -24q-28 -25 -28 -82q0 -61 26.5 -85t94.5 -24q67 0 93 23.5t26 85.5q0 56 -26 82zM979 420v606h55v-1026h-53v244
q-36 -128 -137.5 -197.5t-245.5 -69.5q-160 0 -259 109q-99 110 -99 283v657h57v-631q0 -188 76 -276t239 -88q178 0 272.5 100t94.5 289z" />
    <glyph glyph-name="Uhungarumlaut" unicode="&#x170;" horiz-adv-x="1585" 
d="M666 1649l100 286h65l-116 -286h-49zM858 1649l103 286h71l-125 -286h-49zM260 487v928h59v-919q0 -225 121 -343t353 -118q231 0 352 117.5t121 343.5v919h59v-928q0 -229 -146 -369q-147 -141 -386 -141q-241 0 -386 141q-147 140 -147 369z" />
    <glyph glyph-name="uhungarumlaut" unicode="&#x171;" horiz-adv-x="1284" 
d="M618 1546h66l-117 -286h-49zM813 1546h72l-125 -286h-49zM979 420v606h55v-1026h-53v244q-36 -128 -137.5 -197.5t-245.5 -69.5q-160 0 -259 109q-99 110 -99 283v657h57v-631q0 -188 76 -276t239 -88q178 0 272.5 100t94.5 289z" />
    <glyph glyph-name="Uogonek" unicode="&#x172;" horiz-adv-x="1585" 
d="M1266 496v919h59v-928q0 -203 -114 -337q-116 -134 -312 -164l-158 -219q-37 -55 -36 -89q0 -31 17 -41t66 -10h162v-45h-162q-139 0 -139 90q0 42 43 97l154 211q-17 -1 -53 -3q-241 0 -386 141q-147 140 -147 369v928h59v-919q0 -225 121 -343t353 -118
q231 0 352 117.5t121 343.5z" />
    <glyph glyph-name="uogonek" unicode="&#x173;" horiz-adv-x="1284" 
d="M913 -373h162v-45h-162q-139 0 -139 90q0 42 43 97l168 231h-4v244q-36 -128 -137.5 -197.5t-245.5 -69.5q-160 0 -259 109q-99 110 -99 283v657h57v-631q0 -188 76 -276t239 -88q178 0 272.5 100t94.5 289v606h55v-1026l-168 -233q-37 -55 -37 -89q0 -30 17.5 -40.5
t66.5 -10.5z" />
    <glyph glyph-name="Wcircumflex" unicode="&#x174;" horiz-adv-x="2166" 
d="M1294 1649l-211 270l-211 -270h-67l229 286h96l230 -286h-66zM1649 258l385 1157h61l-471 -1415h-100l-373 1174l-68 225l-67 -225l-373 -1174h-100l-471 1415h61l383 -1157l76 -235l72 235l370 1157h101l368 -1157l72 -235z" />
    <glyph glyph-name="wcircumflex" unicode="&#x175;" horiz-adv-x="1816" 
d="M1122 1260l-211 270l-211 -270h-67l229 286h96l230 -286h-66zM1423 287l273 739h61l-383 -1026h-94l-274 739l-97 267l-96 -267l-276 -739h-95l-383 1026h62l274 -739l94 -264l97 264l274 739h96l275 -739l96 -264z" />
    <glyph glyph-name="Ycircumflex" unicode="&#x176;" horiz-adv-x="1267" 
d="M848 1649l-211 270l-211 -270h-68l230 286h96l229 -286h-65zM772 762l404 653h63l-573 -930v-485h-60v485l-575 930h65l406 -653l135 -230z" />
    <glyph glyph-name="ycircumflex" unicode="&#x177;" horiz-adv-x="1054" 
d="M735 1260l-211 270l-211 -270h-67l229 286h96l230 -286h-66zM637 287l311 739h60l-519 -1223q-47 -113 -101 -158q-55 -44 -138 -44q-70 0 -109 10v41h99q83 0 118 28q35 29 74 121l86 199h-37l-434 1026h62l311 -739l106 -260z" />
    <glyph glyph-name="Ydieresis" unicode="&#x178;" horiz-adv-x="1267" 
d="M434 1839h117v-125h-117v125zM727 1839h117v-125h-117v125zM772 762l404 653h63l-573 -930v-485h-60v485l-575 930h65l406 -653l135 -230z" />
    <glyph glyph-name="Zacute" unicode="&#x179;" horiz-adv-x="1253" 
d="M741 1935h72l-125 -286h-51zM121 47l319 4h734v-51h-1072v106l1051 1264l-322 -6h-725v51h1063v-106z" />
    <glyph glyph-name="zacute" unicode="&#x17a;" horiz-adv-x="999" 
d="M600 1546h72l-125 -286h-51zM115 45l202 4h601v-49h-816v102l795 879l-205 -2h-579v47h794v-104z" />
    <glyph glyph-name="Zdotaccent" unicode="&#x17b;" horiz-adv-x="1253" 
d="M606 1839h117v-125h-117v125zM121 47l319 4h734v-51h-1072v106l1051 1264l-322 -6h-725v51h1063v-106z" />
    <glyph glyph-name="zdotaccent" unicode="&#x17c;" horiz-adv-x="999" 
d="M467 1450h117v-125h-117v125zM115 45l202 4h601v-49h-816v102l795 879l-205 -2h-579v47h794v-104z" />
    <glyph glyph-name="Zcaron" unicode="&#x17d;" horiz-adv-x="1253" 
d="M711 1649h-97l-229 286h68l211 -270l210 270h66zM121 47l319 4h734v-51h-1072v106l1051 1264l-322 -6h-725v51h1063v-106z" />
    <glyph glyph-name="zcaron" unicode="&#x17e;" horiz-adv-x="999" 
d="M571 1260h-96l-229 286h67l211 -270l211 270h66zM115 45l202 4h601v-49h-816v102l795 879l-205 -2h-579v47h794v-104z" />
    <glyph glyph-name="uni018F" unicode="&#x18f;" horiz-adv-x="1595" 
d="M803 1438q273 0 439 -201q167 -202 167 -528q0 -329 -167 -531q-166 -201 -439 -201q-271 0 -437 169q-167 170 -167 446v129h1147q-4 324 -141.5 491.5t-401.5 167.5q-256 0 -391.5 -112t-135.5 -318h-61q0 210 165 349q164 139 423 139zM803 35q258 0 395 160.5
t148 474.5h-1088v-78q0 -272 139.5 -414.5t405.5 -142.5z" />
    <glyph glyph-name="florin" unicode="&#x192;" horiz-adv-x="935" 
d="M911 1509h-243q-129 0 -180 -48q-52 -48 -76 -193l-43 -242h450l-10 -47h-449l-243 -1370h-56l242 1370h-215l8 47h215l49 277q23 136 95 196t213 60q137 0 250 -13z" />
    <glyph glyph-name="uni019D" unicode="&#x19d;" horiz-adv-x="1597" 
d="M1239 436v979h59v-1415h-104l-893 1395l8 -361v-1220q0 -113 -46 -163t-150 -50q-68 0 -107 10v37h96q86 0 117 42q31 41 31 158v1567h104l891 -1392z" />
    <glyph glyph-name="Gcaron" unicode="&#x1e6;" horiz-adv-x="1636" 
d="M881 1649h-97l-229 286h68l211 -270l210 270h66zM729 637v51h692v-688h-51v418q-91 -439 -541 -441q-289 0 -465 201q-176 202 -176 531q0 327 179 529q179 200 469 200q262 0 422 -133q159 -133 159 -353h-61q0 428 -520 428q-280 0 -432 -174q-152 -175 -152 -497
q0 -323 152 -499q151 -175 432 -175q260 0 394 153t136 449h-637z" />
    <glyph glyph-name="gcaron" unicode="&#x1e7;" horiz-adv-x="1163" 
d="M627 1260h-97l-229 286h68l211 -270l211 270h65zM1114 1165v-55q-115 0 -168 -39t-59 -127q106 -96 106 -246q0 -146 -113 -238q-113 -91 -300 -91q-150 0 -258 63q-119 -51 -119 -170q0 -143 145 -143h436q130 0 207 -67q78 -67 78 -179q0 -123 -132 -198
q-133 -74 -349 -74q-220 0 -353 73q-135 73 -135 197q0 70 47.5 125t131.5 82q-59 25 -93 73t-34 105t39.5 110.5t105.5 82.5q-129 95 -129 249q0 158 114 255q112 96 298 96q171 0 280 -82q16 199 254 198zM932 698q0 297 -352 297q-350 0 -351 -297q0 -280 351 -278
q352 -1 352 278zM774 70h-461q-157 -57 -155 -197q0 -219 430 -219q221 0 322.5 52.5t101.5 166.5q0 106 -54.5 151.5t-183.5 45.5z" />
    <glyph glyph-name="uni01EA" unicode="&#x1ea;" horiz-adv-x="1671" 
d="M1014 -2l-166 -231q-37 -55 -37 -89q0 -30 17.5 -40.5t66.5 -10.5h162v-45h-162q-139 0 -139 90q0 42 43 97l157 217q-50 -8 -112 -9q-295 0 -475 201q-181 200 -181 531q0 329 181 529q180 200 475 200q288 0 464 -201q175 -200 175 -528q0 -274 -126 -464t-343 -247z
M406 1206q-154 -173 -154 -497t154 -499q153 -175 438 -175q276 0 426 175q149 176 149 499q0 322 -149 497q-150 174 -426 174q-285 0 -438 -174z" />
    <glyph glyph-name="uni01EB" unicode="&#x1eb;" horiz-adv-x="1275" 
d="M780 -2l-166 -231q-37 -55 -36 -89q0 -31 17 -41t67 -10h161v-45h-161q-138 0 -140 90q0 42 43 97l156 215q-36 -5 -82 -7q-210 0 -337 148q-128 148 -128 389q0 239 128 388q128 147 337 147t336 -147q127 -148 127 -388q0 -196 -86 -333q-85 -136 -236 -183zM236 514
q0 -238 102 -360.5t301 -122.5q198 0 299.5 122.5t101.5 360.5q0 236 -102 358.5t-299 122.5q-199 0 -301 -122.5t-102 -358.5z" />
    <glyph glyph-name="Aringacute" unicode="&#x1fa;" horiz-adv-x="1351" 
d="M797 1680q-45 -42 -119 -42t-120 42t-46 112q0 68 45.5 109t120.5 41q15 0 43 -5l104 183h66l-131 -195q82 -39 82 -133q0 -70 -45 -112zM770 1875q-28 23 -92 23q-66 0 -93 -24q-28 -25 -28 -82q0 -61 26.5 -85t94.5 -24q66 0 92.5 24t26.5 85q0 59 -27 83zM1292 0h-63
l-199 492h-717l-192 -492h-62l553 1415h107zM575 1159l-241 -616h676l-250 616l-92 238z" />
    <glyph glyph-name="aringacute" unicode="&#x1fb;" horiz-adv-x="1138" 
d="M696 1291q-45 -42 -118 -42q-74 0 -120 42t-46 112q0 68 45.5 108.5t120.5 40.5q20 0 43 -4l104 183h66l-132 -195q82 -39 82 -133q0 -70 -45 -112zM670 1486q-28 23 -92 23q-66 0 -92 -23q-27 -24 -27 -83q0 -61 26.5 -85t92.5 -24t92 23.5t26 85.5q0 59 -26 83z
M1051 37h57v-37q-56 -12 -82 -12q-87 0 -124.5 48.5t-37.5 162.5v77q-44 -138 -157 -218q-115 -81 -277 -81q-133 0 -215 64q-82 63 -82 168q0 195 287 258q391 89 442 106v80q0 344 -315 344q-326 0 -326 -346h-57q0 178 107 288t276 110q168 0 268 -103t100 -276v-424
q0 -138 25 -173q26 -36 111 -36zM440 29q190 0 306 110t116 295v98q-46 -15 -428 -104q-120 -25 -180 -79t-59 -136q0 -90 63 -137t182 -47z" />
    <glyph glyph-name="AEacute" unicode="&#x1fc;" horiz-adv-x="2039" 
d="M1253 1935h72l-125 -286h-51zM1014 688l258 -637h530v-51h-573l-199 492h-717l-192 -492h-62l553 1415h1180v-51h-1053l254 -625h758v-51h-737zM575 1159l-241 -616h676l-250 616l-92 238z" />
    <glyph glyph-name="aeacute" unicode="&#x1fd;" horiz-adv-x="1939" 
d="M1006 1546h71l-125 -286h-51zM1769 559v-67h-845q4 -225 106.5 -343t294.5 -118q381 0 381 293h57q0 -154 -119 -250q-119 -97 -319 -97q-168 0 -284 101q-117 100 -156 276q-22 -169 -146 -273t-307 -104q-134 0 -216 64q-83 63 -83 168q0 195 289 258q391 89 442 106
v80q0 168 -81 256t-234 88q-158 0 -242 -89t-84 -257h-57q0 178 107 288t276 110q146 0 240 -82q93 -81 116 -222q51 144 161 224t259 80q199 0 322 -135q122 -137 122 -355zM924 535l323 4h471q-6 457 -393 456q-193 0 -295 -117.5t-106 -342.5zM442 29q190 0 306 110
t116 295v98q-88 -28 -428 -104q-121 -26 -181.5 -80t-59.5 -135q-1 -92 61 -138t186 -46z" />
    <glyph glyph-name="Oslashacute" unicode="&#x1fe;" horiz-adv-x="1671" 
d="M913 1935h72l-125 -286h-51zM1460 1546l-190 -270q213 -202 213 -567q0 -331 -175 -531q-176 -201 -464 -201q-229 0 -395 127l-173 -245h-63l197 278q-221 206 -222 572q0 329 181 529q180 200 475 200q226 0 387 -127l164 235h65zM252 709q0 -359 184 -531l766 1094
q-139 109 -358 108q-285 0 -438 -173q-154 -173 -154 -498zM844 35q276 0 426 175q149 176 149 499q0 353 -176 526l-766 -1092q144 -108 367 -108z" />
    <glyph glyph-name="oslashacute" unicode="&#x1ff;" horiz-adv-x="1302" 
d="M719 1546h72l-125 -286h-52zM1116 1186l68 2l-211 -279q133 -149 133 -395q0 -243 -127 -389q-127 -148 -336 -148q-171 0 -295 107l-172 -227l-67 -2l200 266q-131 148 -131 393q0 239 128 388q128 147 337 147q173 0 291 -103zM240 514q0 -232 98 -356l569 751
q-98 86 -264 86q-199 0 -301 -122.5t-102 -358.5zM1044 514q0 234 -100 356l-569 -749q102 -90 268 -90q198 0 299.5 122.5t101.5 360.5z" />
    <glyph glyph-name="uni0218" unicode="&#x218;" horiz-adv-x="1449" 
d="M731 -23q-248 0 -398 126q-151 126 -151 333h60q0 -401 491 -401q229 0 351 81t120 230q-1 90 -40 152q-38 59 -147 110t-310 90q-289 55 -394 135q-106 79 -106 214q0 176 144 284q143 107 377 107q233 0 374 -126t141 -333h-59q0 401 -459 401q-221 0 -339 -83
t-118 -240q0 -119 100 -186q101 -69 377 -121q296 -57 408 -148q113 -92 113 -246q0 -171 -147 -274q-149 -105 -388 -105zM666 -332v105h125v-117q0 -85 -45 -136.5t-117 -51.5v49q111 0 110 118z" />
    <glyph glyph-name="uni0219" unicode="&#x219;" horiz-adv-x="1140" 
d="M592 -23q-204 0 -329 98q-124 97 -124 255h58q0 -299 397 -299q352 0 352 209q0 104 -80 160q-78 54 -288 92q-214 41 -310 106t-96 170q0 128 108 204q107 77 283 77q189 0 305 -96q115 -97 115 -255h-57q0 297 -365 297q-334 0 -334 -217q0 -96 85 -148q84 -52 306 -91
q201 -37 292 -105.5t91 -183.5q0 -123 -112 -198q-113 -75 -297 -75zM516 -332v105h125v-117q0 -86 -45 -137t-119 -51v49q113 0 113 118z" />
    <glyph glyph-name="uni021A" unicode="&#x21a;" horiz-adv-x="1273" 
d="M31 1415h1212v-51h-577v-1364h-60v1364h-575v51zM647 -365l-74 33v105h125v-117q0 -86 -44.5 -137t-116.5 -51v49q111 0 110 118z" />
    <glyph glyph-name="uni021B" unicode="&#x21b;" horiz-adv-x="794" 
d="M512 37h244v-37q-111 -12 -252 -12q-142 0 -202 64q-60 63 -60 208v719h-215v47h215l4 309h51v-309h453v-47h-453v-700q0 -146 43 -193q43 -49 172 -49zM512 -365l-74 33v105h125v-117q0 -86 -45 -137t-119 -51v49q113 0 113 118z" />
    <glyph glyph-name="uni0232" unicode="&#x232;" horiz-adv-x="1267" 
d="M373 1808h526v-49h-526v49zM772 762l404 653h63l-573 -930v-485h-60v485l-575 930h65l406 -653l135 -230z" />
    <glyph glyph-name="uni0233" unicode="&#x233;" horiz-adv-x="1054" 
d="M260 1419h526v-49h-526v49zM637 287l311 739h60l-519 -1223q-47 -113 -101 -158q-55 -44 -138 -44q-70 0 -109 10v41h99q83 0 118 28q35 29 74 121l86 199h-37l-434 1026h62l311 -739l106 -260z" />
    <glyph glyph-name="uni0237" unicode="&#x237;" horiz-adv-x="514" 
d="M250 -152v1178h55v-1212q0 -112 -45 -162.5t-147 -50.5q-68 0 -107 10v37h96q86 0 117 42q31 41 31 158z" />
    <glyph glyph-name="uni0259" unicode="&#x259;" horiz-adv-x="1255" 
d="M610 1049q213 0 342 -146q129 -147 129 -387q0 -245 -127 -391q-127 -148 -336 -148q-200 0 -321 136q-123 135 -123 354v59h846q-4 231 -107.5 350t-302.5 119q-173 0 -271 -79q-99 -80 -99 -216h-58q0 143 124 246t304 103zM618 31q192 0 294 115.5t108 338.5l-324 -4
h-469q11 -450 391 -450z" />
    <glyph glyph-name="uni0272" unicode="&#x272;" horiz-adv-x="1296" 
d="M690 1049q164 0 266 -107q101 -109 101 -283v-659h-58v635q0 360 -319 360q-180 0 -277.5 -101t-97.5 -290v-790q0 -112 -45 -162.5t-147 -50.5q-68 0 -107 10v37h96q94 0 121 36q27 38 27 164v1178h53v-246q39 130 140 199.5t247 69.5z" />
    <glyph glyph-name="circumflex" unicode="&#x2c6;" horiz-adv-x="745" 
d="M424 1546l229 -286h-65l-211 270l-211 -270h-68l230 286h96z" />
    <glyph glyph-name="caron" unicode="&#x2c7;" horiz-adv-x="739" 
d="M371 1276l211 270h65l-229 -286h-96l-230 286h68z" />
    <glyph glyph-name="breve" unicode="&#x2d8;" horiz-adv-x="827" 
d="M625 1546h53q0 -133 -73 -215t-191 -82q-119 0 -191 82q-73 82 -73 215h53q0 -127 50.5 -186.5t160.5 -59.5t160.5 59.5t50.5 186.5z" />
    <glyph glyph-name="dotaccent" unicode="&#x2d9;" horiz-adv-x="247" 
d="M66 1325v125h116v-125h-116z" />
    <glyph glyph-name="ring" unicode="&#x2da;" horiz-adv-x="569" 
d="M405 1291q-47 -42 -120 -42q-74 0 -119 42t-45 112q0 68 45 108.5t119 40.5t120 -41t46 -108q0 -70 -46 -112zM193 1318q26 -24 92 -24q65 0 92 24q26 23 26 85q0 59 -26.5 82.5t-91.5 23.5q-66 0 -92.5 -23.5t-26.5 -82.5q0 -61 27 -85z" />
    <glyph glyph-name="ogonek" unicode="&#x2db;" horiz-adv-x="444" 
d="M371 -373v-45h-162q-139 0 -139 90q0 42 43 97l168 231h49l-168 -233q-37 -55 -37 -89q0 -30 17.5 -40.5t66.5 -10.5h162z" />
    <glyph glyph-name="tilde" unicode="&#x2dc;" horiz-adv-x="856" 
d="M586 1278q-48 0 -91 25t-72 61q-29 37 -69 61.5t-82 24.5q-70 0 -101.5 -40t-31.5 -128h-49q0 97 50 159q50 60 134 60q48 0 91 -25t71 -61q66 -86 150 -86q69 0 100 40t31 128h49q0 -99 -49 -158q-49 -61 -131 -61z" />
    <glyph glyph-name="hungarumlaut" unicode="&#x2dd;" horiz-adv-x="546" 
d="M92 1260l101 286h65l-117 -286h-49zM285 1260l102 286h72l-125 -286h-49z" />
    <glyph glyph-name="gravecomb" unicode="&#x300;" horiz-adv-x="0" 
d="M-268 1546h71l105 -286h-49z" />
    <glyph glyph-name="acutecomb" unicode="&#x301;" horiz-adv-x="0" 
d="M-266 1260l104 286h72l-125 -286h-51z" />
    <glyph glyph-name="uni0302" unicode="&#x302;" horiz-adv-x="0" 
d="M-322 1546l230 -286h-66l-211 270l-211 -270h-67l229 286h96z" />
    <glyph glyph-name="tildecomb" unicode="&#x303;" horiz-adv-x="0" 
d="M-276 1278q-48 0 -91 25t-71 61q-28 37 -68 61.5t-84 24.5q-69 0 -100 -40t-31 -128h-49q0 97 50 159q50 60 132 60q63 0 112 -43q67 -59 96 -86q46 -43 104 -43q70 0 101.5 39t31.5 129h49q0 -97 -50 -158q-49 -61 -132 -61z" />
    <glyph glyph-name="uni0304" unicode="&#x304;" horiz-adv-x="0" 
d="M-618 1419h526v-49h-526v49z" />
    <glyph glyph-name="uni0306" unicode="&#x306;" horiz-adv-x="0" 
d="M-145 1546h53q0 -133 -73 -215t-192 -82q-118 0 -191 82t-73 215h54q0 -127 50 -186.5t160 -59.5q111 0 161.5 59.5t50.5 186.5z" />
    <glyph glyph-name="uni0307" unicode="&#x307;" horiz-adv-x="0" 
d="M-182 1325v125h116v-125h-116z" />
    <glyph glyph-name="uni0308" unicode="&#x308;" horiz-adv-x="0" 
d="M-502 1325v125h117v-125h-117zM-209 1325v125h117v-125h-117z" />
    <glyph glyph-name="uni030A" unicode="&#x30a;" horiz-adv-x="0" 
d="M-256 1249q-74 0 -120 42t-46 112q0 68 45.5 108.5t120.5 40.5q72 0 118 -41.5t46 -107.5q0 -69 -45.5 -111.5t-118.5 -42.5zM-256 1294q67 0 93 23.5t26 85.5q0 57 -27 81.5t-92 24.5q-66 0 -93.5 -24.5t-27.5 -81.5q0 -61 26.5 -85t94.5 -24z" />
    <glyph glyph-name="uni030B" unicode="&#x30b;" horiz-adv-x="0" 
d="M-739 1260l100 286h66l-117 -286h-49zM-547 1260l103 286h71l-125 -286h-49z" />
    <glyph glyph-name="uni030C" unicode="&#x30c;" horiz-adv-x="0" 
d="M-369 1276l211 270h66l-230 -286h-96l-229 286h67z" />
    <glyph glyph-name="uni0312" unicode="&#x312;" horiz-adv-x="0" 
d="M-131 1364v-104h-123v116q0 86 44 136.5t118 50.5v-47q-113 0 -113 -119z" />
    <glyph glyph-name="dotbelowcomb" unicode="&#x323;" horiz-adv-x="0" 
d="M-215 -350v123h123v-123h-123z" />
    <glyph glyph-name="uni0326" unicode="&#x326;" horiz-adv-x="0" 
d="M-272 -332v105h125v-117q0 -86 -45.5 -137t-118.5 -51v49q113 0 112 118z" />
    <glyph glyph-name="uni0327" unicode="&#x327;" horiz-adv-x="0" 
d="M-369 -156h80q70 0 112 -35.5t42 -93.5q0 -59 -43 -96t-113 -37h-149v45h153q51 0 72.5 20.5t21.5 67.5t-21.5 67.5t-72.5 20.5h-135v29l72 168h45z" />
    <glyph glyph-name="uni0328" unicode="&#x328;" horiz-adv-x="0" 
d="M-147 -373v-45h-162q-139 0 -140 90q0 42 43 97l168 231h50l-168 -233q-37 -55 -37 -89q0 -30 17.5 -40.5t66.5 -10.5h162z" />
    <glyph glyph-name="uni0394" unicode="&#x394;" horiz-adv-x="1351" 
d="M614 1415h107l551 -1364v-51h-1192v51zM670 1397l-92 -238l-437 -1108h1067l-446 1108z" />
    <glyph glyph-name="uni03A9" unicode="&#x3a9;" horiz-adv-x="1691" 
d="M989 43l199 6h332v-49h-547v80q220 37 338.5 201t118.5 434q0 322 -153 494q-153 171 -433 171t-432 -173t-152 -492q0 -272 119 -436q119 -165 338 -199v-80h-547v49h332l198 -6q-227 39 -365 224t-138 450q0 324 178 523q179 198 469 198q293 0 471 -199t178 -522
q0 -266 -138 -449q-138 -184 -366 -225z" />
    <glyph glyph-name="uni03BC" unicode="&#x3bc;" horiz-adv-x="1284" 
d="M979 420v606h55v-1026h-53v244q-36 -130 -136 -198.5t-245 -68.5q-206 0 -303 166v-532h-57v1415h57v-631q0 -188 76 -276t239 -88q178 0 272.5 100t94.5 289z" />
    <glyph glyph-name="pi" unicode="&#x3c0;" horiz-adv-x="1202" 
d="M1094 39h77v-37q-36 -10 -88 -10q-94 0 -136 45t-42 143v799h-612v-979h-57v979h-211v47h1144v-47h-206v-782q0 -98 24 -128q23 -30 107 -30z" />
    <glyph glyph-name="Wgrave" unicode="&#x1e80;" horiz-adv-x="2166" 
d="M1006 1935l104 -286h-49l-127 286h72zM1649 258l385 1157h61l-471 -1415h-100l-373 1174l-68 225l-67 -225l-373 -1174h-100l-471 1415h61l383 -1157l76 -235l72 235l370 1157h101l368 -1157l72 -235z" />
    <glyph glyph-name="wgrave" unicode="&#x1e81;" horiz-adv-x="1816" 
d="M831 1546l105 -286h-49l-127 286h71zM1423 287l273 739h61l-383 -1026h-94l-274 739l-97 267l-96 -267l-276 -739h-95l-383 1026h62l274 -739l94 -264l97 264l274 739h96l275 -739l96 -264z" />
    <glyph glyph-name="Wacute" unicode="&#x1e82;" horiz-adv-x="2166" 
d="M1161 1935h72l-125 -286h-51zM1649 258l385 1157h61l-471 -1415h-100l-373 1174l-68 225l-67 -225l-373 -1174h-100l-471 1415h61l383 -1157l76 -235l72 235l370 1157h101l368 -1157l72 -235z" />
    <glyph glyph-name="wacute" unicode="&#x1e83;" horiz-adv-x="1816" 
d="M987 1546h72l-125 -286h-51zM1423 287l273 739h61l-383 -1026h-94l-274 739l-97 267l-96 -267l-276 -739h-95l-383 1026h62l274 -739l94 -264l97 264l274 739h96l275 -739l96 -264z" />
    <glyph glyph-name="Wdieresis" unicode="&#x1e84;" horiz-adv-x="2166" 
d="M881 1839h116v-125h-116v125zM1174 1839h116v-125h-116v125zM1649 258l385 1157h61l-471 -1415h-100l-373 1174l-68 225l-67 -225l-373 -1174h-100l-471 1415h61l383 -1157l76 -235l72 235l370 1157h101l368 -1157l72 -235z" />
    <glyph glyph-name="wdieresis" unicode="&#x1e85;" horiz-adv-x="1816" 
d="M709 1450h116v-125h-116v125zM1001 1450h117v-125h-117v125zM1423 287l273 739h61l-383 -1026h-94l-274 739l-97 267l-96 -267l-276 -739h-95l-383 1026h62l274 -739l94 -264l97 264l274 739h96l275 -739l96 -264z" />
    <glyph glyph-name="uni1EA0" unicode="&#x1ea0;" horiz-adv-x="1351" 
d="M719 1415l573 -1415h-63l-199 492h-717l-192 -492h-62l553 1415h107zM575 1159l-241 -616h676l-250 616l-92 238zM737 -350h-123v123h123v-123z" />
    <glyph glyph-name="uni1EA1" unicode="&#x1ea1;" horiz-adv-x="1138" 
d="M1051 37h57v-37q-56 -12 -82 -12q-87 0 -124.5 48.5t-37.5 162.5v77q-44 -138 -157 -218q-115 -81 -277 -81q-133 0 -215 64q-82 63 -82 168q0 195 287 258q391 89 442 106v80q0 344 -315 344q-326 0 -326 -346h-57q0 178 107 288t276 110q168 0 268 -103t100 -276v-424
q0 -138 25 -173q26 -36 111 -36zM440 29q190 0 306 110t116 295v98q-46 -15 -428 -104q-120 -25 -180 -79t-59 -136q0 -90 63 -137t182 -47zM641 -350h-123v123h123v-123z" />
    <glyph glyph-name="uni1EB8" unicode="&#x1eb8;" horiz-adv-x="1386" 
d="M360 688v-637h789v-51h-848v1415h838v-51h-779v-625h738v-51h-738zM795 -350h-123v123h123v-123z" />
    <glyph glyph-name="uni1EB9" unicode="&#x1eb9;" horiz-adv-x="1251" 
d="M1081 559v-67h-845q4 -225 109.5 -343t301.5 -118q179 0 275 77t96 216h57q0 -143 -122 -245q-121 -102 -306 -102q-213 0 -343 148q-130 146 -130 389q0 240 127 388q127 147 336 147q199 0 322 -135q122 -137 122 -355zM236 535l323 4h471q-6 457 -393 456
q-193 0 -295 -117.5t-106 -342.5zM705 -350h-123v123h123v-123z" />
    <glyph glyph-name="uni1EBC" unicode="&#x1ebc;" horiz-adv-x="1386" 
d="M549 1839q-69 0 -100 -40t-31 -128h-49q0 97 50 159q49 60 132 60q64 0 113 -43q51 -44 95 -86q46 -43 103 -43q70 0 101.5 39t31.5 129h49q0 -97 -50 -158q-49 -61 -132 -61q-48 0 -90 24.5t-70 61.5t-68.5 61.5t-84.5 24.5zM360 688v-637h789v-51h-848v1415h838v-51
h-779v-625h738v-51h-738z" />
    <glyph glyph-name="uni1EBD" unicode="&#x1ebd;" horiz-adv-x="1251" 
d="M485 1450q-69 0 -100 -40t-31 -128h-49q0 98 51 159q50 60 131 60q64 0 113 -43q51 -44 95 -86q46 -43 104 -43q70 0 101.5 39t31.5 129h49q0 -97 -50 -158q-49 -61 -132 -61q-48 0 -90 24.5t-71 61.5q-68 86 -153 86zM1081 559v-67h-845q4 -225 109.5 -343t301.5 -118
q179 0 275 77t96 216h57q0 -143 -122 -245q-121 -102 -306 -102q-213 0 -343 148q-130 146 -130 389q0 240 127 388q127 147 336 147q199 0 322 -135q122 -137 122 -355zM236 535l323 4h471q-6 457 -393 456q-193 0 -295 -117.5t-106 -342.5z" />
    <glyph glyph-name="uni1ECA" unicode="&#x1eca;" horiz-adv-x="659" 
d="M301 0v1415h59v-1415h-59zM268 -350v123h123v-123h-123z" />
    <glyph glyph-name="uni1ECB" unicode="&#x1ecb;" horiz-adv-x="544" 
d="M219 1325v125h117v-125h-117zM250 0v1026h55v-1026h-55zM215 -350v123h123v-123h-123z" />
    <glyph glyph-name="uni1ECC" unicode="&#x1ecc;" horiz-adv-x="1671" 
d="M844 -23q-295 0 -475 201q-181 200 -181 531q0 329 181 529q180 200 475 200q288 0 464 -201q175 -200 175 -528q0 -331 -175 -531q-176 -201 -464 -201zM844 35q276 0 426 175q149 176 149 499q0 322 -149 497q-150 174 -426 174q-285 0 -438 -174q-154 -173 -154 -497
t154 -499q153 -175 438 -175zM782 -350v123h123v-123h-123z" />
    <glyph glyph-name="uni1ECD" unicode="&#x1ecd;" horiz-adv-x="1275" 
d="M975 125q-127 -148 -336 -148q-210 0 -337 148q-128 148 -128 389q0 239 128 388q128 147 337 147t336 -147q127 -148 127 -388q0 -243 -127 -389zM338 154q102 -123 301 -123t300 123q101 122 101 360q0 236 -102 358.5t-299 122.5q-199 0 -301 -122.5t-102 -358.5
q0 -238 102 -360zM575 -350v123h123v-123h-123z" />
    <glyph glyph-name="uni1EE4" unicode="&#x1ee4;" horiz-adv-x="1585" 
d="M260 487v928h59v-919q0 -225 121 -343t353 -118q231 0 352 117.5t121 343.5v919h59v-928q0 -229 -146 -369q-147 -141 -386 -141q-241 0 -386 141q-147 140 -147 369zM729 -350v123h123v-123h-123z" />
    <glyph glyph-name="uni1EE5" unicode="&#x1ee5;" horiz-adv-x="1284" 
d="M979 420v606h55v-1026h-53v244q-36 -128 -137.5 -197.5t-245.5 -69.5q-160 0 -259 109q-99 110 -99 283v657h57v-631q0 -188 76 -276t239 -88q178 0 272.5 100t94.5 289zM700 -350h-122v123h122v-123z" />
    <glyph glyph-name="Ygrave" unicode="&#x1ef2;" horiz-adv-x="1267" 
d="M559 1935l105 -286h-50l-127 286h72zM772 762l404 653h63l-573 -930v-485h-60v485l-575 930h65l406 -653l135 -230z" />
    <glyph glyph-name="ygrave" unicode="&#x1ef3;" horiz-adv-x="1054" 
d="M444 1546l105 -286h-49l-127 286h71zM637 287l311 739h60l-519 -1223q-47 -113 -101 -158q-55 -44 -138 -44q-70 0 -109 10v41h99q83 0 118 28q35 29 74 121l86 199h-37l-434 1026h62l311 -739l106 -260z" />
    <glyph glyph-name="uni1EF8" unicode="&#x1ef8;" horiz-adv-x="1267" 
d="M479 1839q-69 0 -100 -40t-31 -128h-49q0 97 50 159q49 60 132 60q64 0 113 -43q51 -44 95 -86q46 -43 104 -43q70 0 101.5 39t31.5 129h49q0 -97 -50 -158q-51 -61 -132 -61q-48 0 -90.5 25t-70.5 61q-28 37 -68.5 61.5t-84.5 24.5zM772 762l404 653h63l-573 -930v-485
h-60v485l-575 930h65l406 -653l135 -230z" />
    <glyph glyph-name="uni1EF9" unicode="&#x1ef9;" horiz-adv-x="1054" 
d="M367 1450q-69 0 -100 -40t-31 -128h-50q0 98 51 159q49 60 132 60q63 0 112 -43q67 -59 96 -86q46 -43 103 -43q70 0 101.5 39t31.5 129h49q0 -97 -50 -158q-49 -61 -132 -61q-48 0 -90 24.5t-70 61.5t-68.5 61.5t-84.5 24.5zM637 287l311 739h60l-519 -1223
q-47 -113 -101 -158q-55 -44 -138 -44q-70 0 -109 10v41h99q83 0 118 28q35 29 74 121l86 199h-37l-434 1026h62l311 -739l106 -260z" />
    <glyph glyph-name="endash" unicode="&#x2013;" horiz-adv-x="952" 
d="M102 545h768v-49h-768v49z" />
    <glyph glyph-name="emdash" unicode="&#x2014;" horiz-adv-x="1599" 
d="M102 545h1416v-49h-1416v49z" />
    <glyph glyph-name="quoteleft" unicode="&#x2018;" horiz-adv-x="368" 
d="M250 1128v-110h-127v125q0 87 45 138.5t121 51.5v-49q-117 0 -117 -123z" />
    <glyph glyph-name="quoteright" unicode="&#x2019;" horiz-adv-x="368" 
d="M121 1202v111h127v-125q0 -86 -46 -138.5t-122 -52.5v50q117 0 117 120z" />
    <glyph glyph-name="quotesinglbase" unicode="&#x201a;" horiz-adv-x="339" 
d="M115 14v113h127v-127q0 -101 -46 -162t-122 -61v49q115 0 114 154z" />
    <glyph glyph-name="quotedblleft" unicode="&#x201c;" horiz-adv-x="612" 
d="M492 1128v-110h-127v125q0 88 45 139t122 51v-49q-118 0 -116 -123zM250 1126v-108h-127v123q0 82 45.5 132t120.5 50v-51q-117 0 -117 -111z" />
    <glyph glyph-name="quotedblright" unicode="&#x201d;" horiz-adv-x="612" 
d="M121 1202v111h127v-125q0 -86 -46 -138.5t-122 -52.5v50q117 0 117 120zM362 1202v111h127v-123q0 -84 -45 -133t-120 -49v49q59 0 88 28t28 84z" />
    <glyph glyph-name="quotedblbase" unicode="&#x201e;" horiz-adv-x="337" 
d="M113 14v113h127v-127q0 -101 -46 -162t-122 -61v49q117 0 116 154z" />
    <glyph glyph-name="dagger" unicode="&#x2020;" horiz-adv-x="741" 
d="M401 719h271v-55h-271v-326h-59v326h-272v55h272v696h59v-696z" />
    <glyph glyph-name="daggerdbl" unicode="&#x2021;" horiz-adv-x="741" 
d="M672 1135v-56h-271v-401h271v-55h-271v-285h-59v285h-272v55h272v401h-272v56h272v280h59v-280h271z" />
    <glyph glyph-name="bullet" unicode="&#x2022;" horiz-adv-x="397" 
d="M117 438v164h164v-164h-164z" />
    <glyph glyph-name="ellipsis" unicode="&#x2026;" horiz-adv-x="913" 
d="M117 0v121h121v-121h-121zM403 0v121h121v-121h-121zM690 0v121h121v-121h-121z" />
    <glyph glyph-name="perthousand" unicode="&#x2030;" horiz-adv-x="1916" 
d="M399 1438q133 0 216 -83t83 -220q0 -138 -83 -221t-216 -83q-134 0 -217 83q-82 82 -82 221q0 138 82 220q83 83 217 83zM1223 1415h63l-442 -616h-60zM399 881q109 0 178 71q68 71 68 183t-68 183q-69 71 -178 71q-111 0 -178 -70t-67 -184q0 -116 67 -184
q67 -70 178 -70zM168 0h-64l441 618h59zM1524 584q132 0 215 -83q82 -82 82 -220t-82 -219q-82 -82 -215 -82q-102 0 -173 58t-94 161q-23 -102 -94.5 -160.5t-173.5 -58.5q-133 0 -215 82q-82 81 -82 219t82 220q83 83 215 83q102 0 174 -59.5t94 -162.5q23 103 94.5 162.5
t172.5 59.5zM813 99q67 -70 179 -70q111 0 178 70q67 68 67 182q0 115 -67 185q-68 69 -178 69q-112 0 -179 -70q-68 -71 -68 -184q0 -112 68 -182zM1522 29q111 0 178 70q67 68 67 182q0 115 -67 185q-68 69 -178 69q-111 0 -178 -70q-68 -71 -68 -184t69 -182
q67 -70 177 -70z" />
    <glyph glyph-name="guilsinglleft" unicode="&#x2039;" horiz-adv-x="499" 
d="M381 907h70l-371 -379l371 -378h-70l-330 337v82z" />
    <glyph glyph-name="guilsinglright" unicode="&#x203a;" horiz-adv-x="499" 
d="M49 907h70l330 -338v-82l-330 -337h-70l371 378z" />
    <glyph glyph-name="fraction" unicode="&#x2044;" horiz-adv-x="262" 
d="M-473 0l1180 1434h59l-1180 -1434h-59z" />
    <glyph glyph-name="uni20AA" unicode="&#x20aa;" horiz-adv-x="1849" 
d="M1100 383v678q0 160 -67 231.5t-220 71.5h-477v-1364h-60v1415h555q146 0 238 -92q90 -91 90 -242v-698h-59zM1513 354v1061h60v-1081q-1 -150 -91 -243q-88 -91 -237 -91h-555v1032h60v-981h477q153 0 219.5 71.5t66.5 231.5z" />
    <glyph glyph-name="Euro" unicode="&#x20ac;" horiz-adv-x="1523" 
d="M266 879h584l-10 -48h-860v48h223q43 257 204 409q161 150 402 150q239 0 387 -137q147 -138 147 -363h-61q0 442 -473 442q-229 0 -368.5 -129t-174.5 -372zM809 35q233 0 353 108t120 316h59q0 -217 -147 -349q-146 -133 -385 -133q-243 0 -403 154q-163 155 -203 414
h-223v47h806l-10 -47h-512q35 -249 174.5 -379.5t370.5 -130.5z" />
    <glyph glyph-name="uni2113" unicode="&#x2113;" horiz-adv-x="784" 
d="M303 604v-401q0 -99 29 -133q28 -33 114 -33h152v-37q-74 -12 -164 -12q-99 0 -143.5 49t-44.5 158v409h-105v53h105v625q0 125 52 201t136 76t136 -115q51 -116 51 -303q0 -233 -87 -380q-88 -146 -231 -157zM434 1505q-70 0 -100.5 -48t-30.5 -157v-643q262 7 262 484
q0 364 -131 364z" />
    <glyph glyph-name="uni2116" unicode="&#x2116;" horiz-adv-x="2220" 
d="M1686 1357q76 81 202 81q125 0 203 -81t78 -210t-78 -209t-203 -80t-202 80q-78 80 -78 209t78 210zM1296 23l-6 413v979h60v-1415h-105l-893 1395l8 -361v-1034h-59v1415h102zM1661 1147q0 -240 228 -240q227 0 227 240q0 239 -227 239q-228 0 -228 -239zM1964 621h-152
v55h152v-55z" />
    <glyph glyph-name="trademark" unicode="&#x2122;" horiz-adv-x="1380" 
d="M25 1415h514v-43h-232v-530h-49v530h-233v43zM1217 1415h90v-573h-50v442l3 119l-240 -561h-80l-238 563v-563h-47v573h90l209 -491l27 -68l27 68z" />
    <glyph glyph-name="onethird" unicode="&#x2153;" horiz-adv-x="1470" 
d="M109 0l1179 1434h60l-1180 -1434h-59zM420 1272l4 133l-160 -141v55l109 96h98v-581h-51v438zM1200 293q158 -11 158 -139q0 -74 -58 -120t-153 -46q-93 0 -152 53t-59 139h53q0 -145 160 -145q158 0 158 119q0 112 -146 110h-104v41h96q131 0 131 117q0 127 -139 127
q-150 0 -150 -152h-53q0 87 57 143q55 54 146 54q86 0 139 -46t53 -120q0 -56 -35 -91.5t-102 -43.5z" />
    <glyph glyph-name="twothirds" unicode="&#x2154;" horiz-adv-x="1470" 
d="M272 879h273v-45h-434v77l284 209q57 41 74 65q16 22 16 77q0 129 -153 129q-168 0 -168 -162h-51q0 93 62 152q62 57 157 57q92 0 147.5 -48t55.5 -126q0 -56 -26 -95t-91 -88l-213 -155l-76 -49zM123 0l1180 1434h59l-1180 -1434h-59zM1182 293q80 -5 120 -40t39 -99
q0 -74 -58 -120t-152 -46t-153 53q-58 52 -58 139h51q0 -145 159 -145q82 0 120 28.5t38 90.5q0 58 -34 84t-111 26h-105v41h97q133 0 133 117q0 127 -140 127q-153 0 -151 -152h-51q0 88 55 143q55 54 145 54q87 0 140 -45.5t53 -120.5q0 -117 -137 -135z" />
    <glyph glyph-name="oneeighth" unicode="&#x215b;" horiz-adv-x="1456" 
d="M109 0l1179 1434h60l-1180 -1434h-59zM418 1272l4 133l-160 -141v55l109 96h98v-581h-51v438zM1143 299q79 -10 124.5 -50t45.5 -102q0 -72 -60.5 -115.5t-158.5 -43.5q-95 0 -156 44q-61 43 -61 115q0 61 45 101.5t122 50.5q-70 10 -110.5 46t-40.5 89q0 72 55.5 116
t145.5 44q92 0 147 -44t55 -116q0 -53 -40.5 -89t-112.5 -46zM942 430q0 -53 41 -83t111 -30q72 0 111.5 30t39.5 83q0 119 -151 119q-152 0 -152 -119zM1094 35q168 0 168 119q0 59 -44 92t-124 33q-78 0 -122 -33t-44 -92q0 -119 166 -119z" />
    <glyph glyph-name="threeeighths" unicode="&#x215c;" horiz-adv-x="1456" 
d="M362 877q158 0 158 120q0 57 -33.5 83t-109.5 26h-105v43h97q131 0 131 117q0 125 -140 125q-153 0 -151 -152h-51q0 90 55 144.5t147 54.5q86 0 138.5 -46t52.5 -120q0 -117 -135 -135q79 -7 118.5 -42.5t38.5 -99.5q0 -72 -58 -118t-152 -46q-95 0 -153 54
q-58 52 -58 137h51q-1 -73 39 -109t120 -36zM109 0l1179 1434h60l-1180 -1434h-59zM1090 299q79 -10 124.5 -50t45.5 -102q0 -71 -61 -114q-61 -45 -159 -45q-97 0 -158 44q-61 43 -61 115q0 61 46 101.5t124 50.5q-72 10 -112.5 46t-40.5 89q0 72 56 116t146 44t145.5 -44
t55.5 -116q0 -53 -41 -90t-110 -45zM889 430q0 -53 41 -83t111 -30t110.5 30t40.5 83q0 119 -151 119q-152 0 -152 -119zM1040 35q166 0 166 119q0 59 -44 92t-122 33q-80 0 -124 -33t-44 -92q0 -119 168 -119z" />
    <glyph glyph-name="fiveeighths" unicode="&#x215d;" horiz-adv-x="1456" 
d="M109 0l1179 1434h60l-1180 -1434h-59zM408 877q76 0 114 36t37 107q0 129 -151 129q-105 0 -160 -64h-47l32 330h355v-45h-209l-107 2l-24 -266q57 88 168 88q88 0 141 -48t53 -126q0 -85 -55 -137t-147 -52q-98 0 -156.5 47.5t-58.5 125.5h53q0 -127 162 -127zM1128 299
q78 -10 123 -50t45 -102q0 -72 -60 -115.5t-157 -43.5t-158 44q-61 43 -61 115q0 61 46 101.5t124 50.5q-72 10 -112.5 46t-40.5 89q0 72 55 116t147 44q90 0 145.5 -44t55.5 -116q0 -53 -41 -89t-111 -46zM928 430q0 -53 40 -83t111 -30q70 0 111 30t41 83q0 119 -151 119
q-152 0 -152 -119zM1079 35q166 0 166 119q0 59 -44 92t-122 33q-80 0 -124 -33t-44 -92q0 -119 168 -119z" />
    <glyph glyph-name="seveneighths" unicode="&#x215e;" horiz-adv-x="1456" 
d="M109 0l1179 1434h60l-1180 -1434h-59zM600 1374l-139 -2h-262v43h411v-72q-104 -97 -165 -228q-62 -132 -62 -263h-51q0 143 73 282q72 138 195 240zM1145 299q78 -10 123 -50t45 -102q0 -71 -60 -115q-62 -44 -157 -44q-97 0 -158 44q-61 43 -61 115q0 61 46 101.5
t124 50.5q-72 10 -113 46t-41 89q0 72 55.5 116t147.5 44q90 0 145 -44t55 -116q0 -53 -40.5 -89t-110.5 -46zM944 430q0 -53 40 -83t112 -30q70 0 110.5 30t40.5 83q0 119 -151 119q-152 0 -152 -119zM1096 35q166 0 166 119q0 59 -44 92t-122 33q-80 0 -124 -33t-44 -92
q0 -119 168 -119z" />
    <glyph glyph-name="arrowleft" unicode="&#x2190;" horiz-adv-x="1363" 
d="M150 719l1114 6v-57l-1112 4l514 -512l-35 -35l-572 571l572 572l35 -37z" />
    <glyph glyph-name="arrowup" unicode="&#x2191;" horiz-adv-x="1347" 
d="M692 1348l572 -572l-35 -37l-514 516l6 -1167h-57l6 1167l-512 -516l-37 37z" />
    <glyph glyph-name="arrowright" unicode="&#x2192;" horiz-adv-x="1363" 
d="M698 1231l35 37l572 -572l-572 -571l-35 35l514 512l-1112 -4v57l1114 -6z" />
    <glyph glyph-name="arrowdown" unicode="&#x2193;" horiz-adv-x="1347" 
d="M696 143l514 516l35 -34l-571 -572l-572 572l35 34l514 -516l-6 1170h57z" />
    <glyph glyph-name="arrowboth" unicode="&#x2194;" horiz-adv-x="1767" 
d="M1100 1212l37 37l532 -532l-532 -533l-37 35l475 473h-1382l475 -473l-35 -35l-533 533l533 532l35 -37l-475 -471h1382z" />
    <glyph glyph-name="arrowupdn" unicode="&#x2195;" horiz-adv-x="1191" 
d="M623 27l471 473l36 -35l-534 -533l-533 533l35 35l471 -473v1378l-471 -473l-35 35l533 532l532 -532l-36 -35l-469 473v-1378z" />
    <glyph glyph-name="uni2196" unicode="&#x2196;" horiz-adv-x="1093" 
d="M203 1108l831 -821l-41 -41l-823 829l2 -725h-51v807h809v-51z" />
    <glyph glyph-name="uni2197" unicode="&#x2197;" horiz-adv-x="1093" 
d="M164 1110l-2 51h811v-807h-51v725l-822 -829l-41 41l832 823z" />
    <glyph glyph-name="uni2198" unicode="&#x2198;" horiz-adv-x="1091" 
d="M922 344l-2 727h51v-809h-809v51l727 -2l-830 824l41 41z" />
    <glyph glyph-name="uni2199" unicode="&#x2199;" horiz-adv-x="1091" 
d="M991 1176l41 -41l-829 -824l727 2v-51h-807v809h49l-2 -727z" />
    <glyph glyph-name="partialdiff" unicode="&#x2202;" horiz-adv-x="1249" 
d="M258 1569l246 -68q306 -86 452 -296t146 -562q0 -322 -121 -494t-344 -172q-209 0 -336 147q-127 145 -127 386q0 222 126 359q126 135 333 135q163 0 273 -91q110 -92 143 -243q2 325 -119 504q-122 181 -391 260l-281 82v53zM338 155q102 -122 299 -122t298 122
t101 355q0 213 -102.5 326.5t-296.5 113.5q-198 0 -299.5 -112t-101.5 -328q0 -234 102 -355z" />
    <glyph glyph-name="product" unicode="&#x220f;" horiz-adv-x="1386" 
d="M117 1415h1153v-51h-221v-1753h-60v1753h-596v-1753h-59v1753h-217v51z" />
    <glyph glyph-name="summation" unicode="&#x2211;" horiz-adv-x="1073" 
d="M1008 1415v-51h-539l-403 4l755 -807v-96l-755 -807l403 4h539v-51h-963v94l549 580l213 227l-762 809v94h963z" />
    <glyph glyph-name="minus" unicode="&#x2212;" horiz-adv-x="1017" 
d="M102 559h813v-53h-813v53z" />
    <glyph glyph-name="uni2215" unicode="&#x2215;" horiz-adv-x="446" 
d="M31 -389l340 1935h57l-340 -1935h-57z" />
    <glyph glyph-name="uni2219" unicode="&#x2219;" horiz-adv-x="368" 
d="M109 463v151h151v-151h-151z" />
    <glyph glyph-name="radical" unicode="&#x221a;" horiz-adv-x="1112" 
d="M811 1415h371v-51h-334l-391 -1753h-82l-318 1028h52l237 -768l70 -240l49 240z" />
    <glyph glyph-name="infinity" unicode="&#x221e;" horiz-adv-x="1947" 
d="M1442 911q172 0 277 -107q104 -109 104 -284q0 -176 -104 -283q-105 -108 -277 -108q-167 0 -279 111q-64 62 -97 106q-48 63 -91 131q-61 -92 -92 -132q-37 -48 -96 -105q-115 -111 -281 -111q-172 0 -276 108q-105 107 -105 283t105 284q104 107 276 107
q165 0 281 -110q60 -60 96 -106q31 -40 92 -132q43 68 91 131q31 41 97 107q113 110 279 110zM506 182q156 0 260 108q53 53 91 102q42 55 89 128q-47 73 -89 128q-36 47 -91 103q-104 107 -260 107q-158 0 -239 -86t-81 -252q0 -164 82 -251t238 -87zM1442 182
q158 0 238.5 86t80.5 252q0 338 -319 338q-154 0 -260 -107q-61 -63 -91 -103q-40 -52 -90 -128q47 -73 89 -128q34 -44 92 -102q105 -108 260 -108z" />
    <glyph glyph-name="integral" unicode="&#x222b;" horiz-adv-x="727" 
d="M680 1427q107 0 166 -10l-6 -37h-158q-121 0 -169 -49q-49 -50 -71 -194l-225 -1280q-22 -134 -89 -196q-68 -60 -202 -60q-102 0 -166 10l7 37h159q119 0 167 49t73 194l225 1280q23 136 90 196t199 60z" />
    <glyph glyph-name="approxequal" unicode="&#x2248;" horiz-adv-x="1042" 
d="M156 633h-54q0 89 62 154q62 63 155 63q77 0 144 -46q99 -68 132 -92q64 -46 128 -46q77 0 120 49q44 50 44 112h53q0 -91 -61 -153q-61 -64 -156 -64q-76 0 -143 46q-75 52 -131 93q-64 46 -130 46q-78 0 -120 -48q-43 -49 -43 -114zM156 223h-54q0 89 62 154
q62 63 155 63q77 0 144 -46q99 -68 132 -92q64 -46 128 -46q77 0 120 49q44 50 44 113h53q0 -91 -61 -153q-61 -64 -156 -64q-76 0 -143 46q-95 66 -131 92q-64 46 -130 46q-78 0 -120 -48q-43 -47 -43 -114z" />
    <glyph glyph-name="notequal" unicode="&#x2260;" horiz-adv-x="1007" 
d="M889 764v-53h-268l-191 -357h459v-53h-486l-100 -186h-57l100 186h-244v53h271l190 357h-461v53h486l100 186h57l-100 -186h244z" />
    <glyph glyph-name="lessequal" unicode="&#x2264;" horiz-adv-x="944" 
d="M102 653l740 281v-53l-717 -273l717 -272v-55l-740 280v92zM842 125h-740v51h740v-51z" />
    <glyph glyph-name="greaterequal" unicode="&#x2265;" horiz-adv-x="944" 
d="M102 881v53l740 -281v-92l-740 -280v55l717 272zM842 125h-740v51h740v-51z" />
    <glyph glyph-name="uni2460" unicode="&#x2460;" horiz-adv-x="1667" 
d="M1365 178q-203 -201 -531 -201q-330 0 -532 201t-202 531q0 328 202 529q203 200 532 200q328 0 531 -201q202 -201 202 -528q0 -330 -202 -531zM342 218q186 -187 492 -187q305 0 491 186t186 492q0 302 -186 490q-186 187 -491 187q-306 0 -492 -187
q-186 -188 -186 -490q0 -305 186 -491zM801 983l-131 -117v62l125 112h112v-665h-57v499l2 154z" />
    <glyph glyph-name="uni2461" unicode="&#x2461;" horiz-adv-x="1667" 
d="M1365 178q-203 -201 -531 -201q-330 0 -532 201t-202 531q0 328 202 529q203 200 532 200q328 0 531 -201q202 -201 202 -528q0 -330 -202 -531zM342 218q186 -187 492 -187q305 0 491 186t186 492q0 302 -186 490q-186 187 -491 187q-306 0 -492 -187
q-186 -188 -186 -490q0 -305 186 -491zM1104 375h-502v90l332 229q64 45 83 73q19 29 19 89q0 150 -178 150q-190 0 -190 -189h-62q0 109 70 175q70 65 182 65q106 0 170 -54q64 -55 64 -145q0 -66 -31 -114t-105 -95l-245 -168l-84 -55l164 2h313v-53z" />
    <glyph glyph-name="uni2462" unicode="&#x2462;" horiz-adv-x="1667" 
d="M1365 178q-203 -201 -531 -201q-330 0 -532 201t-202 531q0 328 202 529q203 200 532 200q328 0 531 -201q202 -201 202 -528q0 -330 -202 -531zM342 218q186 -187 492 -187q305 0 491 186t186 492q0 302 -186 490q-186 187 -491 187q-306 0 -492 -187
q-186 -188 -186 -490q0 -305 186 -491zM592 582h59q0 -168 185 -168q182 0 182 137q0 66 -39.5 96.5t-126.5 30.5h-123v49h113q75 0 112.5 33t36.5 100q0 145 -160 146q-172 0 -172 -175h-59q0 103 63 164q62 62 168 62q100 0 161 -52t61 -139q0 -131 -158 -155
q182 -14 182 -160q0 -84 -66 -136q-68 -53 -175 -53q-112 0 -177 61q-67 61 -67 159z" />
    <glyph glyph-name="uni2463" unicode="&#x2463;" horiz-adv-x="1667" 
d="M1365 178q-203 -201 -531 -201q-330 0 -532 201t-202 531q0 328 202 529q203 200 532 200q328 0 531 -201q202 -201 202 -528q0 -330 -202 -531zM342 218q186 -187 492 -187q305 0 491 186t186 492q0 302 -186 490q-186 187 -491 187q-306 0 -492 -187
q-186 -188 -186 -490q0 -305 186 -491zM893 535h-334v108l289 397h102v-454h123v-51h-123v-160h-57v160zM895 1028l-324 -444l125 2h197v278z" />
    <glyph glyph-name="uni2464" unicode="&#x2464;" horiz-adv-x="1667" 
d="M1365 178q-203 -201 -531 -201q-330 0 -532 201t-202 531q0 328 202 529q203 200 532 200q328 0 531 -201q202 -201 202 -528q0 -330 -202 -531zM342 218q186 -187 492 -187q305 0 491 186t186 492q0 302 -186 490q-186 187 -491 187q-306 0 -492 -187
q-186 -188 -186 -490q0 -305 186 -491zM594 559h59q0 -145 187 -145q174 0 174 164q0 150 -174 149q-120 0 -185 -72h-51l35 385h408v-51h-240l-121 2l-31 -313q66 100 195 100q101 0 162 -55t61 -145q0 -98 -63 -157q-65 -59 -170 -59q-111 0 -178 55q-68 54 -68 142z" />
    <glyph glyph-name="uni2465" unicode="&#x2465;" horiz-adv-x="1667" 
d="M1365 178q-203 -201 -531 -201q-330 0 -532 201t-202 531q0 328 202 529q203 200 532 200q328 0 531 -201q202 -201 202 -528q0 -330 -202 -531zM342 218q186 -187 492 -187q305 0 491 186t186 492q0 302 -186 490q-186 187 -491 187q-306 0 -492 -187
q-186 -188 -186 -490q0 -305 186 -491zM563 698q0 170 76.5 264.5t208.5 94.5q104 0 168 -52q63 -53 63 -139h-59q0 139 -172 140q-117 0 -170 -72t-53 -236v-43q20 66 81 106t142 40q111 0 179 -59q67 -60 67 -156q0 -100 -69 -162q-70 -62 -179 -62q-129 0 -206 80
t-77 256zM633 598q0 -89 55.5 -136.5t157.5 -47.5q186 0 186 172q0 164 -188 164q-99 0 -155 -44q-56 -45 -56 -108z" />
    <glyph glyph-name="uni2466" unicode="&#x2466;" horiz-adv-x="1667" 
d="M1365 178q-203 -201 -531 -201q-330 0 -532 201t-202 531q0 328 202 529q203 200 532 200q328 0 531 -201q202 -201 202 -528q0 -330 -202 -531zM342 218q186 -187 492 -187q305 0 491 186t186 492q0 302 -186 490q-186 187 -491 187q-306 0 -492 -187
q-186 -188 -186 -490q0 -305 186 -491zM918 989h-302v51h474v-82q-122 -117 -192 -271q-71 -156 -71 -312h-59q0 170 82 333q82 162 223 283z" />
    <glyph glyph-name="uni2467" unicode="&#x2467;" horiz-adv-x="1667" 
d="M1365 178q-203 -201 -531 -201q-330 0 -532 201t-202 531q0 328 202 529q203 200 532 200q328 0 531 -201q202 -201 202 -528q0 -330 -202 -531zM342 218q186 -187 492 -187q305 0 491 186t186 492q0 302 -186 490q-186 187 -491 187q-306 0 -492 -187
q-186 -188 -186 -490q0 -305 186 -491zM584 547q0 69 53 114.5t145 55.5q-84 8 -132 50t-48 105q0 84 64 135q64 50 168 50q106 0 168.5 -50.5t62.5 -134.5q0 -63 -48 -105t-132 -50q91 -10 144.5 -56.5t53.5 -113.5q0 -82 -68 -133q-68 -52 -181 -52q-114 0 -181 52
q-69 51 -69 133zM659 868q0 -59 46.5 -93t128.5 -34q81 0 127.5 34t46.5 93q0 137 -174 137q-175 0 -175 -137zM643 551q0 -137 191 -137q190 0 190 137q0 68 -50 105.5t-140 37.5q-91 0 -141 -37.5t-50 -105.5z" />
    <glyph glyph-name="uni2468" unicode="&#x2468;" horiz-adv-x="1667" 
d="M1365 178q-203 -201 -531 -201q-330 0 -532 201t-202 531q0 328 202 529q203 200 532 200q328 0 531 -201q202 -201 202 -528q0 -330 -202 -531zM342 218q186 -187 492 -187q305 0 491 186t186 492q0 302 -186 490q-186 187 -491 187q-306 0 -492 -187
q-186 -188 -186 -490q0 -305 186 -491zM586 831q0 100 69 163q67 63 181 63q128 0 204 -81q76 -80 76 -255q0 -171 -73 -265t-203 -94q-109 0 -174 53q-66 53 -66 138h59q0 -72 43 -105.5t138 -33.5q114 0 164.5 71.5t50.5 235.5v41q-21 -62 -79.5 -100.5t-137.5 -38.5
q-113 0 -182 57q-70 57 -70 151zM645 831q0 -159 197 -157q96 0 150.5 41t54.5 106q0 89 -56 137t-155 48q-191 -2 -191 -175z" />
    <glyph glyph-name="uni24EA" unicode="&#x24ea;" horiz-adv-x="1667" 
d="M1365 178q-203 -201 -531 -201q-330 0 -532 201t-202 531q0 328 202 529q203 200 532 200q328 0 531 -201q202 -201 202 -528q0 -330 -202 -531zM342 218q186 -187 492 -187q305 0 491 186t186 492q0 302 -186 490q-186 187 -491 187q-306 0 -492 -187
q-186 -188 -186 -490q0 -305 186 -491zM1052 458q-83 -96 -218 -96q-136 0 -219 96q-83 95 -83 251q0 154 83 252q83 96 219 96q135 0 218 -96q83 -98 83 -252q0 -156 -83 -251zM834 416q243 0 241 293q0 295 -241 295q-240 0 -240 -295q0 -293 240 -293z" />
    <glyph glyph-name="uni24FF" unicode="&#x24ff;" horiz-adv-x="1667" 
d="M1365 179q-202 -202 -531 -202q-330 0 -532 202t-202 532q0 326 202 527q203 200 532 200q328 0 531 -201q202 -201 202 -526q0 -330 -202 -532zM615 458q83 -96 219 -96q135 0 218 96q83 95 83 251q0 154 -83 252q-83 96 -218 96q-136 0 -219 -96q-83 -98 -83 -252
q0 -156 83 -251zM834 416q-240 0 -240 293q0 295 240 295q242 0 241 -295q2 -293 -241 -293z" />
    <glyph glyph-name="lozenge" unicode="&#x25ca;" horiz-adv-x="1157" 
d="M528 1415h101l397 -706l-397 -709h-101l-397 709zM188 709l392 -693l389 693l-389 690z" />
    <glyph glyph-name="uni2766" unicode="&#x2766;" horiz-adv-x="792" 
d="M82 432h-33v201h33q0 -29 19 -29q18 0 18 29h432v-201h-432q0 29 -18 29q-19 0 -19 -29zM592 444v177q59 0 105 -25t46 -63q0 -39 -46 -64t-105 -25zM516 471v37h-373v-37h373z" />
    <glyph glyph-name="uni2776" unicode="&#x2776;" horiz-adv-x="1667" 
d="M1365 178q-203 -201 -531 -201q-330 0 -532 201t-202 531q0 328 202 529q203 200 532 200q328 0 531 -201q202 -201 202 -528q0 -330 -202 -531zM670 928v-62l131 117l51 45l-2 -154v-499h57v665h-112z" />
    <glyph glyph-name="uni2777" unicode="&#x2777;" horiz-adv-x="1667" 
d="M1365 178q-203 -201 -531 -201q-330 0 -532 201t-202 531q0 328 202 529q203 200 532 200q328 0 531 -201q202 -201 202 -528q0 -330 -202 -531zM602 465v-90h502v53h-313l-164 -2l84 55l245 168q74 47 105 95t31 114q0 90 -63.5 144.5t-170.5 54.5q-112 0 -182 -65
q-70 -66 -70 -175h62q0 188 190 189q178 0 178 -150q0 -60 -19 -89q-19 -28 -83 -73z" />
    <glyph glyph-name="uni2778" unicode="&#x2778;" horiz-adv-x="1667" 
d="M1365 178q-203 -201 -531 -201q-330 0 -532 201t-202 531q0 328 202 529q203 200 532 200q328 0 531 -201q202 -201 202 -528q0 -330 -202 -531zM651 582h-59q0 -98 67 -159q65 -61 177 -61q108 0 175 53q66 52 66 136q0 145 -182 160q158 26 158 155q0 86 -60.5 138.5
t-161.5 52.5q-106 0 -168.5 -61.5t-62.5 -164.5h59q0 174 172 175q160 0 160 -146q0 -133 -149 -133h-113v-49h123q87 0 126.5 -30.5t39.5 -96.5q0 -137 -182 -137q-184 0 -185 168z" />
    <glyph glyph-name="uni2779" unicode="&#x2779;" horiz-adv-x="1667" 
d="M1365 178q-203 -201 -531 -201q-330 0 -532 201t-202 531q0 328 202 529q203 200 532 200q328 0 531 -201q202 -201 202 -528q0 -330 -202 -531zM559 643v-108h334v-160h57v160h123v51h-123v454h-102zM696 586l-125 -2l324 444l-2 -164v-278h-197z" />
    <glyph glyph-name="uni277A" unicode="&#x277a;" horiz-adv-x="1667" 
d="M1365 178q-203 -201 -531 -201q-330 0 -532 201t-202 531q0 328 202 529q203 200 532 200q328 0 531 -201q202 -201 202 -528q0 -330 -202 -531zM653 559h-59q0 -88 68 -142q67 -55 178 -55q106 0 169.5 58.5t63.5 157.5q0 90 -61 145t-162 55q-129 0 -195 -100l31 313
l121 -2h240v51h-408l-35 -385h51q63 72 185 72q174 0 174 -149q0 -164 -174 -164q-186 0 -187 145z" />
    <glyph glyph-name="uni277B" unicode="&#x277b;" horiz-adv-x="1667" 
d="M1365 178q-203 -201 -531 -201q-330 0 -532 201t-202 531q0 328 202 529q203 200 532 200q328 0 531 -201q202 -201 202 -528q0 -330 -202 -531zM563 698q0 -176 77 -256t206 -80q110 0 180 62q68 62 68 162q0 96 -68 156q-68 59 -178 59q-81 0 -142 -40t-81 -106v43
q0 164 53 236t170 72q172 0 172 -140h59q0 86 -63 139q-64 52 -168 52q-132 0 -208.5 -94.5t-76.5 -264.5zM633 598q0 65 56.5 108.5t154.5 43.5q188 0 188 -164q0 -172 -186 -172q-101 0 -157 47.5t-56 136.5z" />
    <glyph glyph-name="uni277C" unicode="&#x277c;" horiz-adv-x="1667" 
d="M1365 178q-203 -201 -531 -201q-330 0 -532 201t-202 531q0 328 202 529q203 200 532 200q328 0 531 -201q202 -201 202 -528q0 -330 -202 -531zM616 1040v-51h302l155 2q-141 -121 -223 -283q-82 -163 -82 -333h59q0 157 71 313q70 154 192 270v82h-474z" />
    <glyph glyph-name="uni277D" unicode="&#x277d;" horiz-adv-x="1667" 
d="M1365 178q-203 -201 -531 -201q-330 0 -532 201t-202 531q0 328 202 529q203 200 532 200q328 0 531 -201q202 -201 202 -528q0 -330 -202 -531zM584 547q0 -82 69 -133q67 -52 181 -52q113 0 181 52q68 51 68 133q0 69 -53 114.5t-145 55.5q84 8 132 50t48 105
q0 84 -62.5 134.5t-168.5 50.5q-103 0 -168 -50q-64 -51 -64 -135q0 -63 48 -105t132 -50q-92 -10 -145 -55.5t-53 -114.5zM659 868q0 137 175 138q174 0 174 -138q0 -59 -46.5 -93t-127.5 -34q-82 0 -128.5 34t-46.5 93zM643 551q0 68 50 105.5t141 37.5q90 0 140 -38
t50 -105q0 -137 -190 -137q-191 0 -191 137z" />
    <glyph glyph-name="uni277E" unicode="&#x277e;" horiz-adv-x="1667" 
d="M1365 178q-203 -201 -531 -201q-330 0 -532 201t-202 531q0 328 202 529q203 200 532 200q328 0 531 -201q202 -201 202 -528q0 -330 -202 -531zM586 831q0 -94 70 -151q69 -57 182 -57q79 0 137.5 38t79.5 101v-41q0 -163 -51 -235t-164 -72q-94 0 -137.5 33.5
t-43.5 105.5h-59q0 -85 66 -138q65 -53 174 -53q130 0 203 94t73 265q0 175 -76 255q-76 81 -204 81q-114 0 -181 -63q-69 -63 -69 -163zM645 831q0 173 191 175q99 0 155 -48t56 -137q0 -65 -54.5 -106t-150.5 -41q-197 -2 -197 157z" />
    <glyph glyph-name="uniF8FF" unicode="&#xf8ff;" horiz-adv-x="1204" 
d="M1116 1180l27 -230l-8 -6q-62 98 -139 122q-80 25 -343 26q-13 -207 -14 -295q87 1 148 44q59 43 110 144h6l-22 -145q-90 -75 -242 -80v-66q0 -119 4 -291q133 0 199 3q0 172 -15 284q-36 11 -88 19v6q143 27 246 71l2 -6q-41 -45 -54 -118q-13 -71 -13 -279
q0 -221 12 -340l78 -37v-6h-332v6l151 53q11 97 13 295q-88 2 -197 2q2 -34 2 -72q0 -41 2 -71l-108 -66l-4 7q7 56 20 202q-109 0 -197 -2q0 -198 13 -295l153 -53v-6h-333v6l77 37q11 113 13 340q0 207 -12 280q-14 73 -56 117l2 6q92 -42 246 -71v-6q-46 -7 -88 -19
q-13 -112 -15 -284q133 0 199 -3q6 125 6 291v70q-132 18 -215 103q-85 86 -92 210q-75 -12 -109 -39q-36 -28 -79 -94l-9 6q17 137 23 189l8 41q52 -33 168 -39q13 138 116 226q101 87 253 87q113 0 223 -65l31 57l12 -8q-20 -101 -21 -221h-4q-56 203 -241 204
q-114 2 -190 -77q-77 -80 -87 -207q82 -2 248 -2q286 0 374 9t138 36h4zM350 1087q4 -108 63 -185q59 -76 150 -99q-2 144 -12 289q-132 -2 -201 -5z" />
    <glyph glyph-name="I.ss02" horiz-adv-x="1026" 
d="M858 1415v-51h-315v-1313h315v-51h-690v51h315v1313h-315v51h690z" />
    <glyph glyph-name="Iacute.ss02" horiz-adv-x="1026" 
d="M592 1935h72l-125 -286h-52zM858 1415v-51h-315v-1313h315v-51h-690v51h315v1313h-315v51h690z" />
    <glyph glyph-name="Ibreve.ss02" horiz-adv-x="1026" 
d="M706 1720q-73 -82 -192 -82t-191 82q-73 82 -73 215h53q0 -127 50 -186t161 -59t161 59t50 186h53q0 -133 -72 -215zM858 1415v-51h-315v-1313h315v-51h-690v51h315v1313h-315v51h690z" />
    <glyph glyph-name="Icircumflex.ss02" horiz-adv-x="1026" 
d="M725 1649l-211 270l-211 -270h-67l229 286h96l230 -286h-66zM858 1415v-51h-315v-1313h315v-51h-690v51h315v1313h-315v51h690z" />
    <glyph glyph-name="Idieresis.ss02" horiz-adv-x="1026" 
d="M311 1839h117v-125h-117v125zM604 1839h117v-125h-117v125zM858 1415v-51h-315v-1313h315v-51h-690v51h315v1313h-315v51h690z" />
    <glyph glyph-name="Idotaccent.ss02" horiz-adv-x="1026" 
d="M457 1839h116v-125h-116v125zM858 1415v-51h-315v-1313h315v-51h-690v51h315v1313h-315v51h690z" />
    <glyph glyph-name="uni1ECA.ss02" horiz-adv-x="1026" 
d="M858 1415v-51h-315v-1313h315v-51h-690v51h315v1313h-315v51h690zM573 -350h-122v123h122v-123z" />
    <glyph glyph-name="Igrave.ss02" horiz-adv-x="1026" 
d="M436 1935l105 -286h-49l-127 286h71zM858 1415v-51h-315v-1313h315v-51h-690v51h315v1313h-315v51h690z" />
    <glyph glyph-name="Imacron.ss02" horiz-adv-x="1026" 
d="M252 1808h526v-49h-526v49zM858 1415v-51h-315v-1313h315v-51h-690v51h315v1313h-315v51h690z" />
    <glyph glyph-name="Iogonek.ss02" horiz-adv-x="1026" 
d="M858 1415v-51h-315v-1313h315v-51h-315l-168 -233q-37 -55 -37 -89q0 -30 17.5 -40.5t66.5 -10.5h162v-45h-162q-139 0 -139 90q0 42 43 97l168 231h-326v51h315v1313h-315v51h690z" />
    <glyph glyph-name="Itilde.ss02" horiz-adv-x="1026" 
d="M356 1839q-69 0 -100 -40t-31 -128h-49q0 97 50 159q50 60 132 60q64 0 113 -43q51 -44 95 -86q46 -43 104 -43q70 0 101.5 39t31.5 129h49q0 -97 -50 -158q-49 -61 -132 -61q-48 0 -90 24.5t-71 61.5q-68 86 -153 86zM858 1415v-51h-315v-1313h315v-51h-690v51h315v1313
h-315v51h690z" />
    <glyph glyph-name="Z.ss03" horiz-adv-x="1253" 
d="M135 47l305 4h734v-51h-1072v90l1037 1280l-308 -6h-725v51h1063v-90z" />
    <glyph glyph-name="Zacute.ss03" horiz-adv-x="1253" 
d="M741 1935h72l-125 -286h-51zM135 47l305 4h734v-51h-1072v90l1037 1280l-308 -6h-725v51h1063v-90z" />
    <glyph glyph-name="Zcaron.ss03" horiz-adv-x="1253" 
d="M711 1649h-97l-229 286h68l211 -270l210 270h66zM135 47l305 4h734v-51h-1072v90l1037 1280l-308 -6h-725v51h1063v-90z" />
    <glyph glyph-name="Zdotaccent.ss03" horiz-adv-x="1253" 
d="M606 1839h117v-125h-117v125zM135 47l305 4h734v-51h-1072v90l1037 1280l-308 -6h-725v51h1063v-90z" />
    <glyph glyph-name="a.salt" horiz-adv-x="1347" 
d="M1042 748v278h56v-1026h-56v281q-41 -143 -151 -223q-111 -81 -258 -81q-207 0 -333 148q-126 147 -126 389q0 240 126 388q126 147 333 147q146 0 259 -80q112 -79 150 -221zM338 154q102 -123 301 -123t300 123q101 122 101 360q0 236 -102 358.5t-299 122.5
q-199 0 -301 -122.5t-102 -358.5q0 -238 102 -360z" />
    <glyph glyph-name="aacute.salt" horiz-adv-x="1347" 
d="M735 1546h72l-125 -286h-51zM1042 748v278h56v-1026h-56v281q-41 -143 -151 -223q-111 -81 -258 -81q-207 0 -333 148q-126 147 -126 389q0 240 126 388q126 147 333 147q146 0 259 -80q112 -79 150 -221zM338 154q102 -123 301 -123t300 123q101 122 101 360
q0 236 -102 358.5t-299 122.5q-199 0 -301 -122.5t-102 -358.5q0 -238 102 -360z" />
    <glyph glyph-name="abreve.salt" horiz-adv-x="1347" 
d="M851 1331q-73 -82 -191 -82q-119 0 -192 82t-73 215h54q0 -127 50.5 -186.5t160.5 -59.5t160 59.5t50 186.5h54q0 -133 -73 -215zM1042 748v278h56v-1026h-56v281q-41 -143 -151 -223q-111 -81 -258 -81q-207 0 -333 148q-126 147 -126 389q0 240 126 388
q126 147 333 147q146 0 259 -80q112 -79 150 -221zM338 154q102 -123 301 -123t300 123q101 122 101 360q0 236 -102 358.5t-299 122.5q-199 0 -301 -122.5t-102 -358.5q0 -238 102 -360z" />
    <glyph glyph-name="acircumflex.salt" horiz-adv-x="1347" 
d="M870 1260l-211 270l-210 -270h-68l229 286h97l229 -286h-66zM1042 748v278h56v-1026h-56v281q-41 -143 -151 -223q-111 -81 -258 -81q-207 0 -333 148q-126 147 -126 389q0 240 126 388q126 147 333 147q146 0 259 -80q112 -79 150 -221zM338 154q102 -123 301 -123
t300 123q101 122 101 360q0 236 -102 358.5t-299 122.5q-199 0 -301 -122.5t-102 -358.5q0 -238 102 -360z" />
    <glyph glyph-name="adieresis.salt" horiz-adv-x="1347" 
d="M455 1450h116v-125h-116v125zM748 1450h116v-125h-116v125zM1042 748v278h56v-1026h-56v281q-41 -143 -151 -223q-111 -81 -258 -81q-207 0 -333 148q-126 147 -126 389q0 240 126 388q126 147 333 147q146 0 259 -80q112 -79 150 -221zM338 154q102 -123 301 -123
t300 123q101 122 101 360q0 236 -102 358.5t-299 122.5q-199 0 -301 -122.5t-102 -358.5q0 -238 102 -360z" />
    <glyph glyph-name="uni1EA1.salt" horiz-adv-x="1347" 
d="M1042 748v278h56v-1026h-56v281q-41 -143 -151 -223q-111 -81 -258 -81q-207 0 -333 148q-126 147 -126 389q0 240 126 388q126 147 333 147q146 0 259 -80q112 -79 150 -221zM338 154q102 -123 301 -123t300 123q101 122 101 360q0 236 -102 358.5t-299 122.5
q-199 0 -301 -122.5t-102 -358.5q0 -238 102 -360zM723 -350h-123v123h123v-123z" />
    <glyph glyph-name="agrave.salt" horiz-adv-x="1347" 
d="M580 1546l104 -286h-49l-127 286h72zM1042 748v278h56v-1026h-56v281q-41 -143 -151 -223q-111 -81 -258 -81q-207 0 -333 148q-126 147 -126 389q0 240 126 388q126 147 333 147q146 0 259 -80q112 -79 150 -221zM338 154q102 -123 301 -123t300 123q101 122 101 360
q0 236 -102 358.5t-299 122.5q-199 0 -301 -122.5t-102 -358.5q0 -238 102 -360z" />
    <glyph glyph-name="amacron.salt" horiz-adv-x="1347" 
d="M395 1419h527v-49h-527v49zM1042 748v278h56v-1026h-56v281q-41 -143 -151 -223q-111 -81 -258 -81q-207 0 -333 148q-126 147 -126 389q0 240 126 388q126 147 333 147q146 0 259 -80q112 -79 150 -221zM338 154q102 -123 301 -123t300 123q101 122 101 360
q0 236 -102 358.5t-299 122.5q-199 0 -301 -122.5t-102 -358.5q0 -238 102 -360z" />
    <glyph glyph-name="aogonek.salt" horiz-adv-x="1347" 
d="M977 -373h162v-45h-162q-139 0 -139 90q0 42 43 97l168 231h-7v281q-41 -143 -151 -223q-111 -81 -258 -81q-207 0 -333 148q-126 147 -126 389q0 240 126 388q126 147 333 147q146 0 259 -80q112 -79 150 -221v278h56v-1026l-168 -233q-37 -55 -37 -89q0 -30 17.5 -40.5
t66.5 -10.5zM338 154q102 -123 301 -123t300 123q101 122 101 360q0 236 -102 358.5t-299 122.5q-199 0 -301 -122.5t-102 -358.5q0 -238 102 -360z" />
    <glyph glyph-name="aring.salt" horiz-adv-x="1347" 
d="M659 1249q-74 0 -119.5 42t-45.5 112q0 68 46 108.5t119 40.5q72 0 118 -41.5t46 -107.5q0 -69 -45.5 -111.5t-118.5 -42.5zM752 1485q-27 24 -92 24q-66 0 -93 -24q-28 -25 -28 -82q0 -61 26.5 -85t93.5 -24t93 23.5t26 85.5q0 56 -26 82zM1042 748v278h56v-1026h-56
v281q-41 -143 -151 -223q-111 -81 -258 -81q-207 0 -333 148q-126 147 -126 389q0 240 126 388q126 147 333 147q146 0 259 -80q112 -79 150 -221zM338 154q102 -123 301 -123t300 123q101 122 101 360q0 236 -102 358.5t-299 122.5q-199 0 -301 -122.5t-102 -358.5
q0 -238 102 -360z" />
    <glyph glyph-name="aringacute.salt" horiz-adv-x="1347" 
d="M680 1249q-74 0 -120 42t-46 112q0 68 45.5 108.5t120.5 40.5q18 0 41 -4l106 183h66l-131 -195q82 -39 82 -133q0 -69 -45.5 -111.5t-118.5 -42.5zM772 1485q-27 24 -92 24q-66 0 -93 -24q-28 -25 -28 -82q0 -61 26.5 -85t94.5 -24q67 0 93 23.5t26 85.5q0 57 -27 82z
M1042 748v278h56v-1026h-56v281q-41 -143 -151 -223q-111 -81 -258 -81q-207 0 -333 148q-126 147 -126 389q0 240 126 388q126 147 333 147q146 0 259 -80q112 -79 150 -221zM338 154q102 -123 301 -123t300 123q101 122 101 360q0 236 -102 358.5t-299 122.5
q-199 0 -301 -122.5t-102 -358.5q0 -238 102 -360z" />
    <glyph glyph-name="atilde.salt" horiz-adv-x="1347" 
d="M500 1450q-69 0 -100 -40t-31 -128h-50q0 98 51 159q50 60 132 60q64 0 113 -43q51 -44 95 -86q46 -43 103 -43q70 0 101.5 39t31.5 129h49q0 -97 -50 -158q-49 -61 -132 -61q-48 0 -90 24.5t-70 61.5t-68.5 61.5t-84.5 24.5zM1042 748v278h56v-1026h-56v281
q-41 -143 -151 -223q-111 -81 -258 -81q-207 0 -333 148q-126 147 -126 389q0 240 126 388q126 147 333 147q146 0 259 -80q112 -79 150 -221zM338 154q102 -123 301 -123t300 123q101 122 101 360q0 236 -102 358.5t-299 122.5q-199 0 -301 -122.5t-102 -358.5
q0 -238 102 -360z" />
    <glyph glyph-name="g.salt" horiz-adv-x="1347" 
d="M1042 745v281h56v-989q0 -197 -120 -317q-121 -119 -319 -119q-200 0 -321 110q-121 111 -121 291h57q0 -350 385 -350q381 0 381 403v277q-39 -144 -148 -221q-109 -78 -257 -78q-206 0 -334 137q-127 136 -127 362q0 233 127 375t334 142q144 0 256 -80
q111 -80 151 -224zM639 86q193 0 297 113.5t104 324.5q0 232 -101.5 351.5t-299.5 119.5t-300.5 -118.5t-102.5 -344.5q0 -219 102 -332.5t301 -113.5z" />
    <glyph glyph-name="gbreve.salt" horiz-adv-x="1347" 
d="M847 1350q-73 -82 -191 -82q-119 0 -192 82t-73 215h53q0 -127 50.5 -186.5t161.5 -59.5q110 0 160 59.5t50 186.5h54q0 -133 -73 -215zM1042 745v281h56v-989q0 -197 -120 -317q-121 -119 -319 -119q-200 0 -321 110q-121 111 -121 291h57q0 -350 385 -350
q381 0 381 403v277q-39 -144 -148 -221q-109 -78 -257 -78q-206 0 -334 137q-127 136 -127 362q0 233 127 375t334 142q144 0 256 -80q111 -80 151 -224zM639 86q193 0 297 113.5t104 324.5q0 232 -101.5 351.5t-299.5 119.5t-300.5 -118.5t-102.5 -344.5q0 -219 102 -332.5
t301 -113.5z" />
    <glyph glyph-name="gcaron.salt" horiz-adv-x="1347" 
d="M702 1278h-96l-229 287h67l211 -271l211 271h66zM1042 745v281h56v-989q0 -197 -120 -317q-121 -119 -319 -119q-200 0 -321 110q-121 111 -121 291h57q0 -350 385 -350q381 0 381 403v277q-39 -144 -148 -221q-109 -78 -257 -78q-206 0 -334 137q-127 136 -127 362
q0 233 127 375t334 142q144 0 256 -80q111 -80 151 -224zM639 86q193 0 297 113.5t104 324.5q0 232 -101.5 351.5t-299.5 119.5t-300.5 -118.5t-102.5 -344.5q0 -219 102 -332.5t301 -113.5z" />
    <glyph glyph-name="gcircumflex.salt" horiz-adv-x="1347" 
d="M866 1278l-211 270l-211 -270h-67l229 287h96l230 -287h-66zM1042 745v281h56v-989q0 -197 -120 -317q-121 -119 -319 -119q-200 0 -321 110q-121 111 -121 291h57q0 -350 385 -350q381 0 381 403v277q-39 -144 -148 -221q-109 -78 -257 -78q-206 0 -334 137
q-127 136 -127 362q0 233 127 375t334 142q144 0 256 -80q111 -80 151 -224zM639 86q193 0 297 113.5t104 324.5q0 232 -101.5 351.5t-299.5 119.5t-300.5 -118.5t-102.5 -344.5q0 -219 102 -332.5t301 -113.5z" />
    <glyph glyph-name="uni0123.salt" horiz-adv-x="1347" 
d="M641 1415l74 -33v-104h-123v117q0 86 44 136t118 50v-47q-113 0 -113 -119zM1042 745v281h56v-989q0 -197 -120 -317q-121 -119 -319 -119q-200 0 -321 110q-121 111 -121 291h57q0 -350 385 -350q381 0 381 403v277q-39 -144 -148 -221q-109 -78 -257 -78
q-206 0 -334 137q-127 136 -127 362q0 233 127 375t334 142q144 0 256 -80q111 -80 151 -224zM639 86q193 0 297 113.5t104 324.5q0 232 -101.5 351.5t-299.5 119.5t-300.5 -118.5t-102.5 -344.5q0 -219 102 -332.5t301 -113.5z" />
    <glyph glyph-name="gdotaccent.salt" horiz-adv-x="1347" 
d="M598 1468h117v-125h-117v125zM1042 745v281h56v-989q0 -197 -120 -317q-121 -119 -319 -119q-200 0 -321 110q-121 111 -121 291h57q0 -350 385 -350q381 0 381 403v277q-39 -144 -148 -221q-109 -78 -257 -78q-206 0 -334 137q-127 136 -127 362q0 233 127 375t334 142
q144 0 256 -80q111 -80 151 -224zM639 86q193 0 297 113.5t104 324.5q0 232 -101.5 351.5t-299.5 119.5t-300.5 -118.5t-102.5 -344.5q0 -219 102 -332.5t301 -113.5z" />
    <glyph glyph-name="l.salt" horiz-adv-x="555" 
d="M250 0v1546h55v-1546h-55z" />
    <glyph glyph-name="lacute.salt" horiz-adv-x="555" 
d="M240 1696l104 286h72l-125 -286h-51zM250 0v1546h55v-1546h-55z" />
    <glyph glyph-name="lcaron.salt" horiz-adv-x="555" 
d="M250 0v1546h55v-1546h-55zM502 1442v104h125v-116q0 -94 -44 -150.5t-118 -56.5v47q112 0 110 137z" />
    <glyph glyph-name="uni013C.salt" horiz-adv-x="555" 
d="M250 0v1546h55v-1546h-55zM215 -332v105h125v-117q0 -86 -45 -137t-119 -51v49q113 0 113 118z" />
    <glyph glyph-name="ldot.salt" horiz-adv-x="702" 
d="M250 0v1546h55v-1546h-55zM500 707v110h108v-110h-108z" />
    <glyph glyph-name="lslash.salt" horiz-adv-x="608" 
d="M305 748l260 210v-61l-260 -209v-688h-55v655l-219 -170v62l219 170v829h55v-798z" />
    <glyph glyph-name="y.salt" horiz-adv-x="1054" 
d="M637 287l311 739h60l-600 -1415h-56l166 389h-37l-434 1026h62l311 -739l106 -260z" />
    <glyph glyph-name="yacute.salt" horiz-adv-x="1054" 
d="M602 1546h72l-125 -286h-51zM637 287l311 739h60l-600 -1415h-56l166 389h-37l-434 1026h62l311 -739l106 -260z" />
    <glyph glyph-name="ycircumflex.salt" horiz-adv-x="1054" 
d="M737 1260l-211 270l-211 -270h-67l229 286h96l230 -286h-66zM637 287l311 739h60l-600 -1415h-56l166 389h-37l-434 1026h62l311 -739l106 -260z" />
    <glyph glyph-name="ydieresis.salt" horiz-adv-x="1054" 
d="M324 1450h116v-125h-116v125zM616 1450h117v-125h-117v125zM637 287l311 739h60l-600 -1415h-56l166 389h-37l-434 1026h62l311 -739l106 -260z" />
    <glyph glyph-name="ygrave.salt" horiz-adv-x="1054" 
d="M446 1546l105 -286h-49l-127 286h71zM637 287l311 739h60l-600 -1415h-56l166 389h-37l-434 1026h62l311 -739l106 -260z" />
    <glyph glyph-name="uni0233.salt" horiz-adv-x="1054" 
d="M262 1419h526v-49h-526v49zM637 287l311 739h60l-600 -1415h-56l166 389h-37l-434 1026h62l311 -739l106 -260z" />
    <glyph glyph-name="uni1EF9.salt" horiz-adv-x="1054" 
d="M369 1450q-69 0 -100 -40t-31 -128h-50q0 98 51 159q49 60 132 60q63 0 112 -43q67 -59 96 -86q46 -43 103 -43q70 0 101.5 39t31.5 129h49q0 -97 -50 -158q-49 -61 -132 -61q-48 0 -90 24.5t-70 61.5t-68.5 61.5t-84.5 24.5zM637 287l311 739h60l-600 -1415h-56l166 389
h-37l-434 1026h62l311 -739l106 -260z" />
    <glyph glyph-name="z.ss03" horiz-adv-x="989" 
d="M117 45l190 4h600v-49h-815v92l782 889l-192 -2h-580v47h795v-94z" />
    <glyph glyph-name="zacute.ss03" horiz-adv-x="989" 
d="M590 1546h72l-125 -286h-52zM117 45l190 4h600v-49h-815v92l782 889l-192 -2h-580v47h795v-94z" />
    <glyph glyph-name="zcaron.ss03" horiz-adv-x="989" 
d="M561 1260h-96l-229 286h67l211 -270l211 270h66zM117 45l190 4h600v-49h-815v92l782 889l-192 -2h-580v47h795v-94z" />
    <glyph glyph-name="zdotaccent.ss03" horiz-adv-x="989" 
d="M457 1450h116v-125h-116v125zM117 45l190 4h600v-49h-815v92l782 889l-192 -2h-580v47h795v-94z" />
    <glyph glyph-name="f_f_j.dlig" horiz-adv-x="1984" 
d="M1028 1026h717v-1212q0 -112 -45.5 -162.5t-147.5 -50.5q-67 0 -106 10v37h96q94 0 121 36q27 38 27 164v1131h-662v-979h-55v979h-666v-979h-55v979h-215v47h215v207q0 135 60 196q59 60 202 60q159 0 252 -10v-37h-244q-129 0 -172 -49t-43 -195v-172h666v277
q0 136 61 196t201 60q141 0 248 -13v-37h-240q-129 0 -172 -48q-43 -47 -43 -193v-242zM1659 1325v129h117v-129h-117z" />
    <glyph glyph-name="f_iacute.dlig" horiz-adv-x="1263" 
d="M307 1026h717v-1026h-55v979h-662v-979h-55v979h-215v47h215v277q0 136 61 196t201 60q141 0 248 -13v-37h-240q-128 0 -172 -48q-43 -47 -43 -193v-242zM1071 1546h72l-125 -286h-51z" />
    <glyph glyph-name="f_j.dlig" horiz-adv-x="1263" 
d="M307 1026h717v-1212q0 -112 -45.5 -162.5t-147.5 -50.5q-67 0 -106 10v37h96q94 0 121 36q27 38 27 164v1131h-662v-979h-55v979h-215v47h215v277q0 136 61 196t201 60q141 0 248 -13v-37h-240q-128 0 -172 -48q-43 -47 -43 -193v-242zM938 1325v129h117v-129h-117z" />
    <glyph glyph-name="f_t.dlig" horiz-adv-x="1503" 
d="M1221 37h243v-37q-111 -12 -252 -12t-201 64q-61 62 -61 208v719h-643v-979h-57v979h-213v47h213v277q0 136 61 196t203 60q137 0 250 -13v-37h-242q-128 0 -172 -48q-43 -47 -43 -193v-242h643l4 309h52v-309h452v-47h-452v-682q0 -156 43 -208t172 -52z" />
    <glyph glyph-name="t_t.dlig" horiz-adv-x="1488" 
d="M1206 37h244v-37q-111 -12 -252 -12t-201 64q-61 62 -61 208v719h-639v-682q0 -156 43 -208t172 -52h207v-37q-97 -12 -215 -12q-141 0 -201.5 63.5t-60.5 208.5v719h-215v47h215l4 268h51v-268h639l4 309h51v-309h453v-47h-453v-682q0 -156 43 -208t172 -52z" />
    <glyph glyph-name="f_f_l.liga.salt" horiz-adv-x="1972" 
d="M973 1026v287q0 133 57 190q58 56 199 56q143 0 256 -13v-37h-244q-129 0 -171 -46q-42 -47 -42 -189v-248h449v-47h-449v-979h-55v979h-666v-979h-55v979h-215v47h215v219q0 133 57 189q55 55 199 55q165 0 256 -10v-37h-244q-129 0 -171 -47t-42 -191v-178h666zM1665 0
v1546h57v-1546h-57z" />
    <glyph glyph-name="uniFB02.aalt" horiz-adv-x="1249" 
d="M252 1026v277q0 136 61 196t201 60q137 0 250 -13v-37h-242q-128 0 -172 -48q-43 -47 -43 -193v-242h449v-47h-449v-979h-55v979h-215v47h215zM944 0v1546h57v-1546h-57z" />
    <glyph glyph-name="A.c2sc" horiz-adv-x="1058" 
d="M1010 0h-62l-145 358h-551l-143 -358h-60l422 1067h104zM455 870l-185 -462h512l-188 462l-70 183z" />
    <glyph glyph-name="Aacute.aalt" horiz-adv-x="1058" 
d="M600 1546h72l-125 -286h-51zM1010 0h-62l-145 358h-551l-143 -358h-60l422 1067h104zM455 870l-185 -462h512l-188 462l-70 183z" />
    <glyph glyph-name="Abreve.aalt" horiz-adv-x="1058" 
d="M716 1331q-73 -82 -191 -82q-119 0 -192 82t-73 215h53q0 -127 50.5 -186.5t161.5 -59.5q110 0 160 59.5t50 186.5h53q0 -132 -72 -215zM1010 0h-62l-145 358h-551l-143 -358h-60l422 1067h104zM455 870l-185 -462h512l-188 462l-70 183z" />
    <glyph glyph-name="Acircumflex.aalt" horiz-adv-x="1058" 
d="M735 1260l-211 270l-211 -270h-67l229 286h96l230 -286h-66zM1010 0h-62l-145 358h-551l-143 -358h-60l422 1067h104zM455 870l-185 -462h512l-188 462l-70 183z" />
    <glyph glyph-name="Adieresis.aalt" horiz-adv-x="1058" 
d="M322 1450h116v-125h-116v125zM614 1450h117v-125h-117v125zM1010 0h-62l-145 358h-551l-143 -358h-60l422 1067h104zM455 870l-185 -462h512l-188 462l-70 183z" />
    <glyph glyph-name="uni1EA0.aalt" horiz-adv-x="1058" 
d="M575 1067l435 -1067h-62l-145 358h-551l-143 -358h-60l422 1067h104zM455 870l-185 -462h512l-188 462l-70 183zM588 -350h-123v123h123v-123z" />
    <glyph glyph-name="Agrave.aalt" horiz-adv-x="1058" 
d="M444 1546l105 -286h-49l-127 286h71zM1010 0h-62l-145 358h-551l-143 -358h-60l422 1067h104zM455 870l-185 -462h512l-188 462l-70 183z" />
    <glyph glyph-name="Amacron.aalt" horiz-adv-x="1058" 
d="M260 1419h526v-49h-526v49zM1010 0h-62l-145 358h-551l-143 -358h-60l422 1067h104zM455 870l-185 -462h512l-188 462l-70 183z" />
    <glyph glyph-name="Aogonek.aalt" horiz-adv-x="1058" 
d="M881 -373h161v-45h-161q-139 0 -140 90q0 42 43 97l168 231h-4l-145 358h-551l-143 -358h-60l422 1067h104l435 -1067h-9l-167 -233q-37 -55 -37 -89q0 -30 17.5 -40.5t66.5 -10.5zM455 870l-185 -462h512l-188 462l-70 183z" />
    <glyph glyph-name="Aring.aalt" horiz-adv-x="1058" 
d="M524 1249q-74 0 -120 42t-46 112q0 68 46 108.5t120 40.5q72 0 118 -41.5t46 -107.5q0 -69 -45.5 -111.5t-118.5 -42.5zM617 1485q-27 24 -92 24t-94 -24q-28 -25 -28 -82q0 -61 27 -85t94 -24t93 23.5t26 85.5q0 56 -26 82zM1010 0h-62l-145 358h-551l-143 -358h-60
l422 1067h104zM455 870l-185 -462h512l-188 462l-70 183z" />
    <glyph glyph-name="Aringacute.aalt" horiz-adv-x="1058" 
d="M643 1291q-45 -42 -118 -42t-120 42t-47 112q0 68 46 108.5t120 40.5q20 0 43 -4l105 183h65l-131 -195q82 -39 82 -133q0 -70 -45 -112zM617 1486q-28 23 -92 23q-66 0 -92 -23q-27 -24 -27 -83q0 -61 26.5 -85t92.5 -24t92 23.5t26 85.5q0 59 -26 83zM1010 0h-62
l-145 358h-551l-143 -358h-60l422 1067h104zM455 870l-185 -462h512l-188 462l-70 183z" />
    <glyph glyph-name="Atilde.aalt" horiz-adv-x="1058" 
d="M367 1450q-69 0 -100 -40t-31 -128h-50q0 98 51 159q49 60 132 60q63 0 112 -43q67 -59 96 -86q46 -43 103 -43q70 0 101.5 39t31.5 129h49q0 -97 -50 -158q-49 -61 -132 -61q-48 0 -90 24.5t-70 61.5t-68.5 61.5t-84.5 24.5zM1010 0h-62l-145 358h-551l-143 -358h-60
l422 1067h104zM455 870l-185 -462h512l-188 462l-70 183z" />
    <glyph glyph-name="AE.aalt" horiz-adv-x="1599" 
d="M805 518l190 -469h443v-49h-484l-149 369h-551l-148 -369h-57l426 1075h955v-49h-832l186 -459h617v-49h-596zM457 881l-185 -465h512l-188 465l-70 180z" />
    <glyph glyph-name="AEacute.aalt" horiz-adv-x="1599" 
d="M967 1546h71l-125 -286h-51zM805 518l190 -469h443v-49h-484l-149 369h-551l-148 -369h-57l426 1075h955v-49h-832l186 -459h617v-49h-596zM457 881l-185 -465h512l-188 465l-70 180z" />
    <glyph glyph-name="B.aalt" horiz-adv-x="1222" 
d="M793 555q109 -18 172 -89t63 -175q0 -131 -89 -211t-232 -80h-437v1067h416q142 0 227 -73q86 -74 86 -193q0 -94 -55 -160t-151 -86zM670 1016h-342v-447h342q139 0 203.5 54.5t64.5 171.5q0 116 -63.5 168.5t-204.5 52.5zM328 49h362q145 0 211 57.5t66 182.5
q0 121 -61.5 176t-196.5 55h-381v-471z" />
    <glyph glyph-name="C.aalt" horiz-adv-x="1288" 
d="M317 130q-139 152 -139 403q0 250 139 402q138 152 361 152q200 0 321 -105t121 -277h-59q0 167 -94 247t-289 80q-215 0 -326.5 -127t-111.5 -372q0 -246 111.5 -373t326.5 -127q383 0 383 313h57q0 -166 -120 -267q-122 -102 -320 -102q-223 0 -361 153z" />
    <glyph glyph-name="Cacute.aalt" horiz-adv-x="1288" 
d="M649 1260l105 286h71l-125 -286h-51zM317 130q-139 152 -139 403q0 250 139 402q138 152 361 152q200 0 321 -105t121 -277h-59q0 167 -94 247t-289 80q-215 0 -326.5 -127t-111.5 -372q0 -246 111.5 -373t326.5 -127q383 0 383 313h57q0 -166 -120 -267
q-122 -102 -320 -102q-223 0 -361 153z" />
    <glyph glyph-name="Ccaron.aalt" horiz-adv-x="1288" 
d="M727 1260h-96l-230 286h68l211 -270l211 270h65zM678 33q383 0 383 313h57q0 -166 -120 -267q-122 -102 -320 -102q-223 0 -361 153q-139 152 -139 403q0 250 139 402q138 152 361 152q200 0 321 -105t121 -277h-59q0 167 -94 247t-289 80q-215 0 -326.5 -127
t-111.5 -372q0 -246 111.5 -373t326.5 -127z" />
    <glyph glyph-name="Ccedilla.aalt" horiz-adv-x="1288" 
d="M678 33q383 0 383 313h57q0 -163 -115 -263q-117 -102 -307 -106l-55 -133h80q69 0 111 -35.5t42 -93.5q0 -59 -43 -96t-112 -37h-150v45h154q51 0 72.5 20.5t21.5 67.5t-21.5 67.5t-72.5 20.5h-135v29l61 145q-213 11 -342 162t-129 393q0 251 139 403q138 152 361 152
q200 0 321 -105t121 -277h-59q0 167 -94 247t-289 80q-215 0 -326.5 -127t-111.5 -372q0 -246 111.5 -373t326.5 -127z" />
    <glyph glyph-name="Ccircumflex.aalt" horiz-adv-x="1288" 
d="M891 1260l-211 270l-211 -270h-68l230 286h96l229 -286h-65zM678 33q383 0 383 313h57q0 -166 -120 -267q-122 -102 -320 -102q-223 0 -361 153q-139 152 -139 403q0 250 139 402q138 152 361 152q200 0 321 -105t121 -277h-59q0 167 -94 247t-289 80q-215 0 -326.5 -127
t-111.5 -372q0 -246 111.5 -373t326.5 -127z" />
    <glyph glyph-name="Cdotaccent.aalt" horiz-adv-x="1288" 
d="M621 1325v125h116v-125h-116zM317 130q-139 152 -139 403q0 250 139 402q138 152 361 152q200 0 321 -105t121 -277h-59q0 167 -94 247t-289 80q-215 0 -326.5 -127t-111.5 -372q0 -246 111.5 -373t326.5 -127q383 0 383 313h57q0 -166 -120 -267q-122 -102 -320 -102
q-223 0 -361 153z" />
    <glyph glyph-name="D.aalt" horiz-adv-x="1361" 
d="M270 1067h410q226 0 366 -146q138 -147 138 -386q0 -242 -138 -388q-140 -147 -366 -147h-410v1067zM328 49h340q223 0 338.5 124t115.5 362q0 236 -115.5 358.5t-338.5 122.5h-340v-967z" />
    <glyph glyph-name="Eth.aalt" horiz-adv-x="1357" 
d="M270 1067h410q226 0 366 -146q138 -147 138 -386q0 -242 -138 -388q-140 -147 -366 -147h-410v518h-198v49h198v500zM328 49h340q223 0 338.5 124t115.5 362q0 236 -115.5 358.5t-338.5 122.5h-340v-449h411v-49h-411v-469z" />
    <glyph glyph-name="Dcaron.aalt" horiz-adv-x="1361" 
d="M731 1260h-96l-229 286h67l211 -270l211 270h66zM270 1067h410q226 0 366 -146q138 -147 138 -386q0 -242 -138 -388q-140 -147 -366 -147h-410v1067zM328 49h340q223 0 338.5 124t115.5 362q0 236 -115.5 358.5t-338.5 122.5h-340v-967z" />
    <glyph glyph-name="Dcroat.aalt" horiz-adv-x="1357" 
d="M270 1067h410q226 0 366 -146q138 -147 138 -386q0 -242 -138 -388q-140 -147 -366 -147h-410v518h-198v49h198v500zM328 49h340q223 0 338.5 124t115.5 362q0 236 -115.5 358.5t-338.5 122.5h-340v-449h411v-49h-411v-469z" />
    <glyph glyph-name="E.aalt" horiz-adv-x="1126" 
d="M328 518v-469h637v-49h-695v1067h686v-51h-628v-449h600v-49h-600z" />
    <glyph glyph-name="Eacute.aalt" horiz-adv-x="1126" 
d="M694 1546h72l-125 -286h-51zM328 518v-469h637v-49h-695v1067h686v-51h-628v-449h600v-49h-600z" />
    <glyph glyph-name="Ebreve.aalt" horiz-adv-x="1126" 
d="M810 1331q-73 -82 -191 -82q-119 0 -192 82t-73 215h54q0 -127 50.5 -186.5t160.5 -59.5t160 59.5t50 186.5h54q0 -133 -73 -215zM328 518v-469h637v-49h-695v1067h686v-51h-628v-449h600v-49h-600z" />
    <glyph glyph-name="Ecaron.aalt" horiz-adv-x="1126" 
d="M666 1260h-97l-229 286h68l210 -270l211 270h66zM328 518v-469h637v-49h-695v1067h686v-51h-628v-449h600v-49h-600z" />
    <glyph glyph-name="Ecircumflex.aalt" horiz-adv-x="1126" 
d="M829 1260l-211 270l-210 -270h-68l229 286h97l229 -286h-66zM328 518v-469h637v-49h-695v1067h686v-51h-628v-449h600v-49h-600z" />
    <glyph glyph-name="Edieresis.aalt" horiz-adv-x="1126" 
d="M414 1450h116v-125h-116v125zM707 1450h116v-125h-116v125zM328 518v-469h637v-49h-695v1067h686v-51h-628v-449h600v-49h-600z" />
    <glyph glyph-name="Edotaccent.aalt" horiz-adv-x="1126" 
d="M559 1450h117v-125h-117v125zM328 518v-469h637v-49h-695v1067h686v-51h-628v-449h600v-49h-600z" />
    <glyph glyph-name="uni1EB8.aalt" horiz-adv-x="1126" 
d="M328 518v-469h637v-49h-695v1067h686v-51h-628v-449h600v-49h-600zM676 -350h-123v123h123v-123z" />
    <glyph glyph-name="Egrave.aalt" horiz-adv-x="1126" 
d="M539 1546l104 -286h-49l-127 286h72zM328 518v-469h637v-49h-695v1067h686v-51h-628v-449h600v-49h-600z" />
    <glyph glyph-name="Emacron.aalt" horiz-adv-x="1126" 
d="M354 1419h527v-49h-527v49zM328 518v-469h637v-49h-695v1067h686v-51h-628v-449h600v-49h-600z" />
    <glyph glyph-name="Eogonek.aalt" horiz-adv-x="1126" 
d="M840 -373h161v-45h-161q-138 0 -140 90q0 42 43 97l168 231h-641v1067h686v-51h-628v-449h600v-49h-600v-469h637v-49h-4l-168 -233q-37 -55 -37 -89q0 -30 17.5 -40.5t66.5 -10.5z" />
    <glyph glyph-name="uni1EBC.aalt" horiz-adv-x="1126" 
d="M459 1450q-69 0 -100 -40t-31 -128h-49q0 97 50 159q49 60 132 60q64 0 113 -43q51 -44 95 -86q46 -43 103 -43q70 0 101.5 39t31.5 129h49q0 -97 -50 -158q-49 -61 -132 -61q-48 0 -90 24.5t-70 61.5t-68.5 61.5t-84.5 24.5zM328 518v-469h637v-49h-695v1067h686v-51
h-628v-449h600v-49h-600z" />
    <glyph glyph-name="uni018F.aalt" horiz-adv-x="1320" 
d="M653 1087q218 0 355 -152q135 -153 135 -402q0 -250 -132 -403t-349 -153q-208 0 -335 141q-128 140 -128 365v64h882q-4 238 -112.5 361.5t-315.5 123.5q-183 0 -286 -83q-103 -82 -101 -224h-59q0 152 126 257q125 105 320 105zM662 33q201 0 307 119.5t112 351.5
l-385 -4l-444 12q5 -479 410 -479z" />
    <glyph glyph-name="F.aalt" horiz-adv-x="1048" 
d="M948 1067v-51h-620v-451h590v-51h-590v-514h-58v1067h678z" />
    <glyph glyph-name="G.aalt" horiz-adv-x="1355" 
d="M610 475v47h545v-526h-45l-2 326q-35 -166 -145.5 -255.5t-280.5 -89.5q-227 0 -365 153q-139 152 -139 403q0 249 141 402q140 152 369 152q208 0 336 -103q129 -103 129 -269h-61q2 161 -98 239t-306 78q-221 0 -334.5 -126.5t-113.5 -372.5t114.5 -373t333.5 -127
q201 0 305.5 112.5t106.5 329.5h-490z" />
    <glyph glyph-name="Gbreve.aalt" horiz-adv-x="1355" 
d="M880 1331q-73 -82 -192 -82t-191 82q-73 82 -73 215h53q0 -127 50.5 -186.5t161.5 -59.5q110 0 160 59.5t50 186.5h53q0 -132 -72 -215zM610 475v47h545v-526h-45l-2 326q-35 -166 -145.5 -255.5t-280.5 -89.5q-227 0 -365 153q-139 152 -139 403q0 249 141 402
q140 152 369 152q208 0 336 -103q129 -103 129 -269h-61q2 161 -98 239t-306 78q-221 0 -334.5 -126.5t-113.5 -372.5t114.5 -373t333.5 -127q201 0 305.5 112.5t106.5 329.5h-490z" />
    <glyph glyph-name="Gcaron.aalt" horiz-adv-x="1355" 
d="M735 1260h-96l-229 286h67l211 -270l211 270h66zM610 475v47h545v-526h-45l-2 326q-35 -166 -145.5 -255.5t-280.5 -89.5q-227 0 -365 153q-139 152 -139 403q0 249 141 402q140 152 369 152q208 0 336 -103q129 -103 129 -269h-61q2 161 -98 239t-306 78
q-221 0 -334.5 -126.5t-113.5 -372.5t114.5 -373t333.5 -127q201 0 305.5 112.5t106.5 329.5h-490z" />
    <glyph glyph-name="Gcircumflex.aalt" horiz-adv-x="1355" 
d="M899 1260l-211 270l-211 -270h-67l229 286h96l230 -286h-66zM610 475v47h545v-526h-45l-2 326q-35 -166 -145.5 -255.5t-280.5 -89.5q-227 0 -365 153q-139 152 -139 403q0 249 141 402q140 152 369 152q208 0 336 -103q129 -103 129 -269h-61q2 161 -98 239t-306 78
q-221 0 -334.5 -126.5t-113.5 -372.5t114.5 -373t333.5 -127q201 0 305.5 112.5t106.5 329.5h-490z" />
    <glyph glyph-name="uni0122.aalt" horiz-adv-x="1355" 
d="M610 475v47h545v-526h-45l-2 326q-35 -166 -145.5 -255.5t-280.5 -89.5q-227 0 -365 153q-139 152 -139 403q0 249 141 402q140 152 369 152q208 0 336 -103q129 -103 129 -269h-61q2 161 -98 239t-306 78q-221 0 -334.5 -126.5t-113.5 -372.5t114.5 -373t333.5 -127
q201 0 305.5 112.5t106.5 329.5h-490zM698 -365l-73 33v105h125v-117q0 -86 -45.5 -137t-118.5 -51v49q113 0 112 118z" />
    <glyph glyph-name="Gdotaccent.aalt" horiz-adv-x="1355" 
d="M631 1450h117v-125h-117v125zM610 475v47h545v-526h-45l-2 326q-35 -166 -145.5 -255.5t-280.5 -89.5q-227 0 -365 153q-139 152 -139 403q0 249 141 402q140 152 369 152q208 0 336 -103q129 -103 129 -269h-61q2 161 -98 239t-306 78q-221 0 -334.5 -126.5
t-113.5 -372.5t114.5 -373t333.5 -127q201 0 305.5 112.5t106.5 329.5h-490z" />
    <glyph glyph-name="H.aalt" horiz-adv-x="1378" 
d="M1051 567v500h57v-1067h-57v520h-723v-520h-58v1067h58v-500h723z" />
    <glyph glyph-name="Hbar.aalt" horiz-adv-x="1378" 
d="M1108 883h201v-47h-201v-836h-57v520h-723v-520h-58v836h-182v47h182v184h58v-184h723v184h57v-184zM328 567h723v269h-723v-269z" />
    <glyph glyph-name="Hcircumflex.aalt" horiz-adv-x="1378" 
d="M891 1260l-211 270l-211 -270h-68l230 286h96l229 -286h-65zM1051 567v500h57v-1067h-57v520h-723v-520h-58v1067h58v-500h723z" />
    <glyph glyph-name="i.aalt" horiz-adv-x="598" 
d="M270 0v1067h58v-1067h-58z" />
    <glyph glyph-name="iacute.aalt" horiz-adv-x="598" 
d="M270 1260l105 286h71l-124 -286h-52zM270 0v1067h58v-1067h-58z" />
    <glyph glyph-name="ibreve.aalt" horiz-adv-x="598" 
d="M510 1546h53q0 -132 -72 -215q-73 -82 -192 -82t-191 82q-73 82 -73 215h53q0 -127 50.5 -186.5t160.5 -59.5t160.5 59.5t50.5 186.5zM270 0v1067h58v-1067h-58z" />
    <glyph glyph-name="icircumflex.aalt" horiz-adv-x="598" 
d="M250 1546h96l229 -286h-65l-211 270l-211 -270h-68zM328 0h-58v1067h58v-1067z" />
    <glyph glyph-name="idieresis.aalt" horiz-adv-x="598" 
d="M96 1325v125h117v-125h-117zM389 1325v125h117v-125h-117zM270 0v1067h58v-1067h-58z" />
    <glyph glyph-name="Idotaccent.c2sc" horiz-adv-x="598" 
d="M242 1325v125h116v-125h-116zM270 0v1067h58v-1067h-58z" />
    <glyph glyph-name="uni1ECB.aalt" horiz-adv-x="598" 
d="M270 0v1067h58v-1067h-58zM236 -350v123h122v-123h-122z" />
    <glyph glyph-name="igrave.aalt" horiz-adv-x="598" 
d="M147 1546h72l105 -286h-50zM270 0v1067h58v-1067h-58z" />
    <glyph glyph-name="IJ.aalt" horiz-adv-x="1134" 
d="M270 33h340q133 0 190 65q56 65 56 217v752h57v-754q0 -162 -78.5 -249t-224.5 -87q-207 0 -340 23v33zM274 293v774h58v-774h-58z" />
    <glyph glyph-name="imacron.aalt" horiz-adv-x="598" 
d="M35 1419h526v-49h-526v49zM270 0v1067h58v-1067h-58z" />
    <glyph glyph-name="iogonek.aalt" horiz-adv-x="598" 
d="M207 -373h162v-45h-162q-139 0 -139 90q0 42 43 97l168 231h-9v1067h58v-1067l-168 -233q-37 -55 -37 -89q0 -30 17.5 -40.5t66.5 -10.5z" />
    <glyph glyph-name="itilde.aalt" horiz-adv-x="598" 
d="M455 1278q-48 0 -90.5 25t-70.5 61q-28 37 -68.5 61.5t-84.5 24.5q-69 0 -100 -40t-31 -128h-51q0 98 51 159q51 60 133 60q64 0 113 -43q51 -45 95 -86q46 -43 104 -43q70 0 101.5 39t31.5 129h49q0 -97 -50 -158q-49 -61 -132 -61zM270 0v1067h58v-1067h-58z" />
    <glyph glyph-name="J.aalt" horiz-adv-x="964" 
d="M70 330h57q0 -297 291 -297q268 0 268 325v709h57v-715q0 -168 -90 -271q-90 -104 -235 -104q-156 0 -252 98q-96 97 -96 255z" />
    <glyph glyph-name="Jcircumflex.aalt" horiz-adv-x="964" 
d="M668 1546h96l229 -286h-65l-211 270l-211 -270h-68zM686 358v709h57v-715q0 -168 -90 -271q-90 -104 -235 -104q-156 0 -252 98q-96 97 -96 255h57q0 -297 291 -297q134 -1 201 80.5t67 244.5z" />
    <glyph glyph-name="K.aalt" horiz-adv-x="1087" 
d="M1034 1067l-637 -524l672 -543h-84l-489 395l-168 140v-535h-58v1067h58v-522l168 141l462 381h76z" />
    <glyph glyph-name="uni0136.aalt" horiz-adv-x="1087" 
d="M1034 1067l-637 -524l672 -543h-84l-489 395l-168 140v-535h-58v1067h58v-522l168 141l462 381h76zM655 -365l-73 33v105h125v-117q0 -86 -45.5 -137t-118.5 -51v49q113 0 112 118z" />
    <glyph glyph-name="L.aalt" horiz-adv-x="1013" 
d="M328 1067v-1018h626v-49h-684v1067h58z" />
    <glyph glyph-name="Lacute.aalt" horiz-adv-x="1013" 
d="M375 1546h71l-124 -286h-52zM328 1067v-1018h626v-49h-684v1067h58z" />
    <glyph glyph-name="Lcaron.aalt" horiz-adv-x="1013" 
d="M328 1067v-1018h626v-49h-684v1067h58zM768 1065v-117q0 -94 -44 -150.5t-118 -56.5v47q111 0 111 138l-74 35v104h125z" />
    <glyph glyph-name="uni013B.aalt" horiz-adv-x="1013" 
d="M328 1067v-1018h626v-49h-684v1067h58zM651 -365l-73 33v105h124v-117q0 -86 -45 -137t-118 -51v49q113 0 112 118z" />
    <glyph glyph-name="Ldot.aalt" horiz-adv-x="1013" 
d="M328 1067v-1018h626v-49h-684v1067h58zM580 621h114v-115h-114v115z" />
    <glyph glyph-name="Lslash.aalt" horiz-adv-x="1013" 
d="M328 494v-445h626v-49h-684v471l-209 -106v49l209 106v547h58v-524l409 196v-49z" />
    <glyph glyph-name="M.aalt" horiz-adv-x="1632" 
d="M1260 1067h102v-1067h-55v819l2 236l-447 -1055h-92l-444 1044l2 -225v-819h-58v1067h105l389 -922l53 -127l51 127z" />
    <glyph glyph-name="N.aalt" horiz-adv-x="1390" 
d="M1065 332v735h55v-1067h-100l-698 1049l6 -273v-776h-58v1067h101l698 -1049z" />
    <glyph glyph-name="Nacute.aalt" horiz-adv-x="1390" 
d="M772 1546h72l-125 -286h-51zM1065 332v735h55v-1067h-100l-698 1049l6 -273v-776h-58v1067h101l698 -1049z" />
    <glyph glyph-name="Ncaron.aalt" horiz-adv-x="1390" 
d="M743 1260h-96l-229 286h67l211 -270l211 270h66zM1065 332v735h55v-1067h-100l-698 1049l6 -273v-776h-58v1067h101l698 -1049z" />
    <glyph glyph-name="uni0145.aalt" horiz-adv-x="1390" 
d="M1065 332v735h55v-1067h-100l-698 1049l6 -273v-776h-58v1067h101l698 -1049zM711 -365l-74 33v105h125v-117q0 -86 -45 -137t-119 -51v49q113 0 113 118z" />
    <glyph glyph-name="Eng.aalt" horiz-adv-x="1390" 
d="M1065 332v735h55v-1253q0 -112 -45 -162.5t-147 -50.5q-68 0 -107 10v37h97q94 0 121 36q26 38 26 164v152h-45l-698 1049l6 -273v-776h-58v1067h101l698 -1049z" />
    <glyph glyph-name="uni019D.aalt" horiz-adv-x="1390" 
d="M1065 332v735h55v-1067h-100l-698 1049l6 -273v-962q0 -112 -45.5 -162.5t-147.5 -50.5q-67 0 -106 10v37h96q92 0 119 36q26 38 26 164v1219h101l698 -1049z" />
    <glyph glyph-name="Ntilde.aalt" horiz-adv-x="1390" 
d="M539 1450q-69 0 -100 -40t-31 -128h-50q0 98 51 159q49 60 132 60q63 0 112 -43q67 -59 96 -86q46 -43 103 -43q70 0 101.5 39t31.5 129h49q0 -97 -50 -158q-49 -61 -132 -61q-48 0 -90 24.5t-70 61.5t-68.5 61.5t-84.5 24.5zM1065 332v735h55v-1067h-100l-698 1049
l6 -273v-776h-58v1067h101l698 -1049z" />
    <glyph glyph-name="O.c2sc" horiz-adv-x="1384" 
d="M698 -23q-234 0 -376 153q-144 153 -144 403q0 249 144 402q143 152 376 152q229 0 369 -152q139 -152 139 -402q0 -251 -139 -403q-139 -153 -369 -153zM698 33q219 0 333 127t114 373q0 245 -113.5 372t-333.5 127q-225 0 -341.5 -127t-116.5 -372q0 -246 116.5 -373
t341.5 -127z" />
    <glyph glyph-name="Oacute.aalt" horiz-adv-x="1384" 
d="M664 1260l104 286h72l-125 -286h-51zM698 -23q-234 0 -376 153q-144 153 -144 403q0 249 144 402q143 152 376 152q229 0 369 -152q139 -152 139 -402q0 -251 -139 -403q-139 -153 -369 -153zM698 33q219 0 333 127t114 373q0 245 -113.5 372t-333.5 127
q-225 0 -341.5 -127t-116.5 -372q0 -246 116.5 -373t341.5 -127z" />
    <glyph glyph-name="Obreve.aalt" horiz-adv-x="1384" 
d="M903 1546h53q0 -132 -72 -215q-73 -82 -192 -82t-191 82q-73 82 -73 215h53q0 -127 50.5 -186.5t161.5 -59.5q110 0 160 59.5t50 186.5zM698 -23q-234 0 -376 153q-144 153 -144 403q0 249 144 402q143 152 376 152q229 0 369 -152q139 -152 139 -402q0 -251 -139 -403
q-139 -153 -369 -153zM698 33q219 0 333 127t114 373q0 245 -113.5 372t-333.5 127q-225 0 -341.5 -127t-116.5 -372q0 -246 116.5 -373t341.5 -127z" />
    <glyph glyph-name="Ocircumflex.aalt" horiz-adv-x="1384" 
d="M903 1260l-211 270l-211 -270h-67l229 286h96l230 -286h-66zM698 1087q229 0 369 -152q139 -152 139 -402q0 -251 -139 -403q-139 -153 -369 -153q-234 0 -376 153q-144 153 -144 403q0 249 144 402q143 152 376 152zM698 33q219 0 333 127t114 373q0 245 -113.5 372
t-333.5 127q-225 0 -341.5 -127t-116.5 -372q0 -246 116.5 -373t341.5 -127z" />
    <glyph glyph-name="Odieresis.aalt" horiz-adv-x="1384" 
d="M489 1325v125h117v-125h-117zM782 1325v125h117v-125h-117zM698 -23q-234 0 -376 153q-144 153 -144 403q0 249 144 402q143 152 376 152q229 0 369 -152q139 -152 139 -402q0 -251 -139 -403q-139 -153 -369 -153zM698 33q219 0 333 127t114 373q0 245 -113.5 372
t-333.5 127q-225 0 -341.5 -127t-116.5 -372q0 -246 116.5 -373t341.5 -127z" />
    <glyph glyph-name="uni1ECC.aalt" horiz-adv-x="1384" 
d="M698 -23q-234 0 -376 153q-144 153 -144 403q0 249 144 402q143 152 376 152q229 0 369 -152q139 -152 139 -402q0 -251 -139 -403q-139 -153 -369 -153zM698 33q219 0 333 127t114 373q0 245 -113.5 372t-333.5 127q-225 0 -341.5 -127t-116.5 -372q0 -246 116.5 -373
t341.5 -127zM629 -350v123h123v-123h-123z" />
    <glyph glyph-name="Ograve.aalt" horiz-adv-x="1384" 
d="M541 1546h71l105 -286h-49zM698 -23q-234 0 -376 153q-144 153 -144 403q0 249 144 402q143 152 376 152q229 0 369 -152q139 -152 139 -402q0 -251 -139 -403q-139 -153 -369 -153zM698 33q219 0 333 127t114 373q0 245 -113.5 372t-333.5 127q-225 0 -341.5 -127
t-116.5 -372q0 -246 116.5 -373t341.5 -127z" />
    <glyph glyph-name="Ohungarumlaut.aalt" horiz-adv-x="1384" 
d="M571 1260l101 286h65l-116 -286h-50zM764 1260l102 286h72l-125 -286h-49zM698 -23q-234 0 -376 153q-144 153 -144 403q0 249 144 402q143 152 376 152q229 0 369 -152q139 -152 139 -402q0 -251 -139 -403q-139 -153 -369 -153zM698 33q219 0 333 127t114 373
q0 245 -113.5 372t-333.5 127q-225 0 -341.5 -127t-116.5 -372q0 -246 116.5 -373t341.5 -127z" />
    <glyph glyph-name="Omacron.aalt" horiz-adv-x="1384" 
d="M428 1419h526v-49h-526v49zM698 -23q-234 0 -376 153q-144 153 -144 403q0 249 144 402q143 152 376 152q229 0 369 -152q139 -152 139 -402q0 -251 -139 -403q-139 -153 -369 -153zM698 33q219 0 333 127t114 373q0 245 -113.5 372t-333.5 127q-225 0 -341.5 -127
t-116.5 -372q0 -246 116.5 -373t341.5 -127z" />
    <glyph glyph-name="uni01EA.aalt" horiz-adv-x="1384" 
d="M854 -2l-168 -231q-37 -55 -37 -89q0 -30 17.5 -40.5t66.5 -10.5h162v-45h-162q-139 0 -139 90q0 42 43 97l158 217q-40 -7 -97 -9q-234 0 -376 153q-144 153 -144 403q0 249 144 402q143 152 376 152q229 0 369 -152q139 -152 139 -403q0 -203 -94 -345
q-94 -143 -258 -189zM357 905q-117 -127 -117 -372t117 -373q115 -127 341 -127q219 0 333 127t114 373q0 245 -113.5 372t-333.5 127q-226 0 -341 -127z" />
    <glyph glyph-name="Oslash.aalt" horiz-adv-x="1384" 
d="M1225 1208l-185 -247q166 -154 166 -429q0 -251 -139 -402q-139 -153 -369 -153q-186 0 -317 101l-164 -221h-61l188 252q-166 156 -166 423q0 250 144 403q143 152 376 152q176 0 303 -94l162 215h62zM240 532q0 -259 131 -387l604 811q-106 76 -277 76
q-225 0 -341.5 -127t-116.5 -373zM698 33q219 0 333 127t114 372q0 266 -131 392l-604 -811q107 -80 288 -80z" />
    <glyph glyph-name="Oslashacute.aalt" horiz-adv-x="1384" 
d="M768 1546h72l-125 -286h-51zM1225 1208l-185 -247q166 -154 166 -429q0 -251 -139 -402q-139 -153 -369 -153q-186 0 -317 101l-164 -221h-61l188 252q-166 156 -166 423q0 250 144 403q143 152 376 152q176 0 303 -94l162 215h62zM240 532q0 -259 131 -387l604 811
q-106 76 -277 76q-225 0 -341.5 -127t-116.5 -373zM698 33q219 0 333 127t114 372q0 266 -131 392l-604 -811q107 -80 288 -80z" />
    <glyph glyph-name="Otilde.aalt" horiz-adv-x="1384" 
d="M848 1278q-48 0 -90 24.5t-70 61.5t-68.5 61.5t-84.5 24.5q-70 0 -101 -40t-31 -128h-49q0 98 51 159q49 60 132 60q63 0 112 -43q67 -59 96 -86q46 -43 103 -43q70 0 101.5 39t31.5 129h49q0 -97 -50 -158q-49 -61 -132 -61zM698 -23q-234 0 -376 153q-144 153 -144 403
q0 249 144 402q143 152 376 152q229 0 369 -152q139 -152 139 -402q0 -251 -139 -403q-139 -153 -369 -153zM698 33q219 0 333 127t114 373q0 245 -113.5 372t-333.5 127q-225 0 -341.5 -127t-116.5 -372q0 -246 116.5 -373t341.5 -127z" />
    <glyph glyph-name="OE.aalt" horiz-adv-x="1886" 
d="M1092 518v-469h632v-49h-1042q-227 0 -365 147q-139 145 -139 388q0 241 139 386q138 146 365 146h1034v-51h-624v-449h596v-49h-596zM694 49h340v967h-340q-223 0 -338.5 -122t-115.5 -359q0 -238 115.5 -362t338.5 -124z" />
    <glyph glyph-name="P.aalt" horiz-adv-x="1064" 
d="M270 1067h418q136 0 222 -86q85 -85 85 -225t-86 -226t-227 -86h-354v-444h-58v1067zM328 494h344q137 0 199.5 62t62.5 200q0 137 -62 198.5t-200 61.5h-344v-522z" />
    <glyph glyph-name="Thorn.aalt" horiz-adv-x="1228" 
d="M328 834h360q136 0 222 -80q85 -79 85 -211q0 -131 -86 -212q-85 -81 -227 -81h-354v-250h-58v1075h58v-241zM328 299h344q137 0 199.5 58.5t62.5 185.5t-62.5 184t-199.5 57h-344v-485z" />
    <glyph glyph-name="Q.aalt" horiz-adv-x="1384" 
d="M1067 129l223 -223l-35 -33l-223 225q-133 -121 -334 -121q-234 0 -376 153q-144 153 -144 403q0 249 144 402q143 152 376 152q229 0 369 -152q139 -152 139 -403q0 -249 -139 -403zM357 905q-117 -127 -117 -372t117 -373q115 -127 341 -127q190 0 303 96l-194 195
l33 32l194 -194q111 124 111 371q0 244 -113 372q-114 127 -334 127q-226 0 -341 -127z" />
    <glyph glyph-name="R.aalt" horiz-adv-x="1177" 
d="M840 348l260 -348h-68l-342 465h-6h-356v-465h-58v1067h420q140 0 228 -83q86 -83 86 -218q0 -120 -69 -199.5t-187 -97.5zM674 1016h-346v-502h346q139 0 203.5 60.5t64.5 191.5t-63.5 190.5t-204.5 59.5z" />
    <glyph glyph-name="Racute.aalt" horiz-adv-x="1177" 
d="M700 1546h72l-125 -286h-51zM840 348l260 -348h-68l-342 465h-6h-356v-465h-58v1067h420q140 0 228 -83q86 -83 86 -218q0 -120 -69 -199.5t-187 -97.5zM674 1016h-346v-502h346q139 0 203.5 60.5t64.5 191.5t-63.5 190.5t-204.5 59.5z" />
    <glyph glyph-name="Rcaron.aalt" horiz-adv-x="1177" 
d="M672 1260h-97l-229 286h68l211 -270l211 270h65zM840 348l260 -348h-68l-342 465h-6h-356v-465h-58v1067h420q140 0 228 -83q86 -83 86 -218q0 -120 -69 -199.5t-187 -97.5zM674 1016h-346v-502h346q139 0 203.5 60.5t64.5 191.5t-63.5 190.5t-204.5 59.5z" />
    <glyph glyph-name="uni0156.aalt" horiz-adv-x="1177" 
d="M748 469l92 -121l260 -348h-68l-342 465h-6h-356v-465h-58v1067h420q140 0 228 -83q86 -83 86 -218q0 -120 -69 -199.5t-187 -97.5zM674 1016h-346v-502h346q139 0 203.5 60.5t64.5 191.5t-63.5 190.5t-204.5 59.5zM639 -365l-74 33v105h125v-117q0 -86 -45 -137
t-119 -51v49q113 0 113 118z" />
    <glyph glyph-name="S.aalt" horiz-adv-x="1187" 
d="M176 328h60q0 -295 364 -295q178 0 268 56.5t88 168.5q-1 101 -78 160q-76 57 -300 102q-221 45 -300 106q-79 60 -79 165q0 133 109 215q108 81 286 81q176 0 286 -96q109 -96 109 -252h-61q0 150 -82 221.5t-252 71.5q-342 0 -342 -233q0 -87 74 -137t280 -93
q231 -44 318 -113q88 -70 88 -190q0 -130 -114 -209q-115 -80 -300 -80q-189 0 -305 97q-117 96 -117 254z" />
    <glyph glyph-name="Sacute.aalt" horiz-adv-x="1187" 
d="M565 1260l105 286h71l-125 -286h-51zM176 328h60q0 -295 364 -295q178 0 268 56.5t88 168.5q-1 101 -78 160q-76 57 -300 102q-221 45 -300 106q-79 60 -79 165q0 133 109 215q108 81 286 81q176 0 286 -96q109 -96 109 -252h-61q0 150 -82 221.5t-252 71.5
q-342 0 -342 -233q0 -87 74 -137t280 -93q231 -44 318 -113q88 -70 88 -190q0 -130 -114 -209q-115 -80 -300 -80q-189 0 -305 97q-117 96 -117 254z" />
    <glyph glyph-name="Scaron.aalt" horiz-adv-x="1187" 
d="M643 1260h-96l-230 286h68l211 -270l211 270h65zM606 569q231 -44 318 -113q88 -70 88 -190q0 -130 -114 -209q-115 -80 -300 -80q-189 0 -305 97q-117 96 -117 254h60q0 -295 364 -295q178 0 268 56.5t88 168.5q-1 101 -78 160q-76 57 -300 102q-221 45 -300 106
q-79 60 -79 165q0 133 109 215q108 81 286 81q176 0 286 -96q109 -96 109 -252h-61q0 150 -82 221.5t-252 71.5q-342 0 -342 -233q0 -87 74 -137t280 -93z" />
    <glyph glyph-name="Scedilla.c2sc" horiz-adv-x="1187" 
d="M1012 266q0 -127 -109 -206q-110 -80 -289 -83l-55 -133h80q70 0 112 -35.5t42 -93.5q0 -59 -43 -96t-113 -37h-150v45h154q51 0 72.5 20.5t21.5 67.5t-21.5 67.5t-72.5 20.5h-135v29l61 145q-177 11 -283 106q-108 95 -108 245h60q0 -295 364 -295q178 0 268 56.5
t88 168.5q-1 101 -78 160q-76 57 -300 102q-221 45 -300 106q-79 60 -79 165q0 133 109 215q108 81 286 81q176 0 286 -96q109 -96 109 -252h-61q0 150 -82 221.5t-252 71.5q-342 0 -342 -233q0 -87 74 -137t280 -93q231 -44 318 -113q88 -70 88 -190z" />
    <glyph glyph-name="Scircumflex.aalt" horiz-adv-x="1187" 
d="M807 1260l-211 270l-211 -270h-68l230 286h96l229 -286h-65zM606 569q231 -44 318 -113q88 -70 88 -190q0 -130 -114 -209q-115 -80 -300 -80q-189 0 -305 97q-117 96 -117 254h60q0 -295 364 -295q178 0 268 56.5t88 168.5q-1 101 -78 160q-76 57 -300 102
q-221 45 -300 106q-79 60 -79 165q0 133 109 215q108 81 286 81q176 0 286 -96q109 -96 109 -252h-61q0 150 -82 221.5t-252 71.5q-342 0 -342 -233q0 -87 74 -137t280 -93z" />
    <glyph glyph-name="uni0218.aalt" horiz-adv-x="1187" 
d="M176 328h60q0 -295 364 -295q178 0 268 56.5t88 168.5q-1 101 -78 160q-76 57 -300 102q-221 45 -300 106q-79 60 -79 165q0 133 109 215q108 81 286 81q176 0 286 -96q109 -96 109 -252h-61q0 150 -82 221.5t-252 71.5q-342 0 -342 -233q0 -87 74 -137t280 -93
q231 -44 318 -113q88 -70 88 -190q0 -130 -114 -209q-115 -80 -300 -80q-189 0 -305 97q-117 96 -117 254zM530 -332v105h125v-117q0 -86 -45 -137t-118 -51v49q113 0 112 118z" />
    <glyph glyph-name="T.aalt" horiz-adv-x="1028" 
d="M29 1067h970v-51h-456v-1016h-58v1016h-456v51z" />
    <glyph glyph-name="Tbar.aalt" horiz-adv-x="993" 
d="M999 1067v-51h-456v-488h346v-49h-346v-479h-58v479h-344v49h344v488h-456v51h970z" />
    <glyph glyph-name="Tcaron.aalt" horiz-adv-x="1028" 
d="M561 1260h-96l-229 286h67l211 -270l211 270h66zM29 1067h970v-51h-456v-1016h-58v1016h-456v51z" />
    <glyph glyph-name="uni0162.c2sc" horiz-adv-x="1028" 
d="M999 1016h-456v-1016l-64 -156h80q70 0 112 -35.5t42 -93.5q0 -59 -43 -96t-113 -37h-149v45h153q51 0 72.5 20.5t21.5 67.5t-21.5 67.5t-72.5 20.5h-135v29l72 168h-13v1016h-456v51h970v-51z" />
    <glyph glyph-name="uni021A.aalt" horiz-adv-x="1028" 
d="M29 1067h970v-51h-456v-1016h-58v1016h-456v51zM524 -365l-73 33v105h124v-117q0 -86 -45 -137t-118 -51v49q113 0 112 118z" />
    <glyph glyph-name="U.aalt" horiz-adv-x="1277" 
d="M221 373v702h58v-696q0 -346 360 -346t360 346v696h58v-702q0 -178 -115 -287t-303 -109t-303 109t-115 287z" />
    <glyph glyph-name="Uacute.aalt" horiz-adv-x="1277" 
d="M610 1260l105 286h71l-124 -286h-52zM221 373v702h58v-696q0 -346 360 -346t360 346v696h58v-702q0 -178 -115 -287t-303 -109t-303 109t-115 287z" />
    <glyph glyph-name="Ubreve.aalt" horiz-adv-x="1277" 
d="M850 1546h53q0 -132 -72 -215q-73 -82 -192 -82t-191 82q-73 82 -73 215h53q0 -127 50.5 -186.5t160.5 -59.5t160.5 59.5t50.5 186.5zM221 373v702h58v-696q0 -346 360 -346t360 346v696h58v-702q0 -178 -115 -287t-303 -109t-303 109t-115 287z" />
    <glyph glyph-name="Ucircumflex.aalt" horiz-adv-x="1277" 
d="M850 1260l-211 270l-211 -270h-68l230 286h96l229 -286h-65zM999 379v696h58v-702q0 -178 -115 -287t-303 -109t-303 109t-115 287v702h58v-696q0 -346 360 -346t360 346z" />
    <glyph glyph-name="Udieresis.aalt" horiz-adv-x="1277" 
d="M436 1325v125h117v-125h-117zM729 1325v125h117v-125h-117zM221 373v702h58v-696q0 -346 360 -346t360 346v696h58v-702q0 -178 -115 -287t-303 -109t-303 109t-115 287z" />
    <glyph glyph-name="uni1EE4.aalt" horiz-adv-x="1277" 
d="M221 373v702h58v-696q0 -346 360 -346t360 346v696h58v-702q0 -178 -115 -287t-303 -109t-303 109t-115 287zM575 -350v123h123v-123h-123z" />
    <glyph glyph-name="Ugrave.aalt" horiz-adv-x="1277" 
d="M487 1546h72l105 -286h-50zM221 373v702h58v-696q0 -346 360 -346t360 346v696h58v-702q0 -178 -115 -287t-303 -109t-303 109t-115 287z" />
    <glyph glyph-name="Uhungarumlaut.aalt" horiz-adv-x="1277" 
d="M518 1260l100 286h66l-117 -286h-49zM711 1260l102 286h72l-125 -286h-49zM221 373v702h58v-696q0 -346 360 -346t360 346v696h58v-702q0 -178 -115 -287t-303 -109t-303 109t-115 287z" />
    <glyph glyph-name="Umacron.aalt" horiz-adv-x="1277" 
d="M375 1419h526v-49h-526v49zM221 373v702h58v-696q0 -346 360 -346t360 346v696h58v-702q0 -178 -115 -287t-303 -109t-303 109t-115 287z" />
    <glyph glyph-name="Uogonek.aalt" horiz-adv-x="1277" 
d="M999 379v696h58v-702q0 -144 -77 -244q-76 -101 -210 -135l-164 -227q-37 -55 -37 -89q0 -30 17.5 -40.5t66.5 -10.5h162v-45h-162q-139 0 -139 90q0 42 43 97l156 213q-20 -2 -74 -5q-188 0 -303 109t-115 287v702h58v-696q0 -346 360 -346t360 346z" />
    <glyph glyph-name="Uring.aalt" horiz-adv-x="1277" 
d="M639 1249q-74 0 -120 42t-46 112q0 68 45.5 108.5t120.5 40.5q72 0 118 -41.5t46 -107.5q0 -69 -45.5 -111.5t-118.5 -42.5zM639 1294q67 0 93 23.5t26 85.5q0 57 -27 81.5t-92 24.5q-66 0 -93.5 -24.5t-27.5 -81.5q0 -61 26.5 -85t94.5 -24zM221 373v702h58v-696
q0 -346 360 -346t360 346v696h58v-702q0 -178 -115 -287t-303 -109t-303 109t-115 287z" />
    <glyph glyph-name="Utilde.aalt" horiz-adv-x="1277" 
d="M795 1278q-48 0 -90.5 25t-70.5 61q-28 37 -68.5 61.5t-84.5 24.5q-69 0 -100 -40t-31 -128h-49q0 97 50 159q49 60 132 60q64 0 113 -43q51 -44 95 -86q46 -43 104 -43q70 0 101.5 39t31.5 129h49q0 -97 -50 -158q-49 -61 -132 -61zM221 373v702h58v-696
q0 -346 360 -346t360 346v696h58v-702q0 -178 -115 -287t-303 -109t-303 109t-115 287z" />
    <glyph glyph-name="V.aalt" horiz-adv-x="1064" 
d="M608 195l346 872h58l-422 -1067h-103l-436 1067h62l356 -872l70 -181z" />
    <glyph glyph-name="W.aalt" horiz-adv-x="1726" 
d="M1298 195l291 872h62l-357 -1067h-98l-285 891l-49 166l-49 -166l-285 -891h-100l-354 1067h59l289 -872l57 -179l56 179l278 872h98l279 -872l55 -179z" />
    <glyph glyph-name="Wacute.aalt" horiz-adv-x="1726" 
d="M940 1546h72l-125 -286h-51zM1298 195l291 872h62l-357 -1067h-98l-285 891l-49 166l-49 -166l-285 -891h-100l-354 1067h59l289 -872l57 -179l56 179l278 872h98l279 -872l55 -179z" />
    <glyph glyph-name="Wcircumflex.aalt" horiz-adv-x="1726" 
d="M1075 1260l-211 270l-211 -270h-67l229 286h96l230 -286h-66zM1298 195l291 872h62l-357 -1067h-98l-285 891l-49 166l-49 -166l-285 -891h-100l-354 1067h59l289 -872l57 -179l56 179l278 872h98l279 -872l55 -179z" />
    <glyph glyph-name="Wdieresis.aalt" horiz-adv-x="1726" 
d="M659 1450h117v-125h-117v125zM952 1450h117v-125h-117v125zM1298 195l291 872h62l-357 -1067h-98l-285 891l-49 166l-49 -166l-285 -891h-100l-354 1067h59l289 -872l57 -179l56 179l278 872h98l279 -872l55 -179z" />
    <glyph glyph-name="Wgrave.aalt" horiz-adv-x="1726" 
d="M784 1546l105 -286h-49l-127 286h71zM1298 195l291 872h62l-357 -1067h-98l-285 891l-49 166l-49 -166l-285 -891h-100l-354 1067h59l289 -872l57 -179l56 179l278 872h98l279 -872l55 -179z" />
    <glyph glyph-name="X.aalt" horiz-adv-x="1177" 
d="M1059 1067l-414 -504l447 -563h-70l-291 371l-143 178l-144 -180l-290 -369h-68l444 559l-417 508h71l262 -322l142 -176l403 498h68z" />
    <glyph glyph-name="Y.aalt" horiz-adv-x="1013" 
d="M606 551l346 516h64l-479 -707v-360h-58v360l-479 707h61l353 -516l96 -150z" />
    <glyph glyph-name="Yacute.aalt" horiz-adv-x="1013" 
d="M584 1546h71l-125 -286h-51zM606 551l346 516h64l-479 -707v-360h-58v360l-479 707h61l353 -516l96 -150z" />
    <glyph glyph-name="Ycircumflex.aalt" horiz-adv-x="1013" 
d="M719 1260l-211 270l-211 -270h-68l230 286h96l229 -286h-65zM606 551l346 516h64l-479 -707v-360h-58v360l-479 707h61l353 -516l96 -150z" />
    <glyph glyph-name="Ydieresis.aalt" horiz-adv-x="1013" 
d="M305 1450h117v-125h-117v125zM598 1450h117v-125h-117v125zM606 551l346 516h64l-479 -707v-360h-58v360l-479 707h61l353 -516l96 -150z" />
    <glyph glyph-name="Ygrave.aalt" horiz-adv-x="1013" 
d="M430 1546l105 -286h-50l-127 286h72zM606 551l346 516h64l-479 -707v-360h-58v360l-479 707h61l353 -516l96 -150z" />
    <glyph glyph-name="uni0232.aalt" horiz-adv-x="1013" 
d="M246 1419h526v-49h-526v49zM606 551l346 516h64l-479 -707v-360h-58v360l-479 707h61l353 -516l96 -150z" />
    <glyph glyph-name="uni1EF8.aalt" horiz-adv-x="1013" 
d="M350 1450q-69 0 -100 -40t-31 -128h-49q0 97 50 159q50 60 132 60q64 0 113 -43q51 -44 95 -86q46 -43 104 -43q70 0 101.5 39t31.5 129h49q0 -97 -50 -158q-51 -61 -132 -61q-48 0 -90.5 25t-70.5 61q-28 37 -68.5 61.5t-84.5 24.5zM606 551l346 516h64l-479 -707v-360
h-58v360l-479 707h61l353 -516l96 -150z" />
    <glyph glyph-name="Z.c2sc" horiz-adv-x="1056" 
d="M137 45l240 4h581v-49h-837v100l815 920l-240 -4h-571v51h829v-100z" />
    <glyph glyph-name="Zacute.c2sc" horiz-adv-x="1056" 
d="M614 1546h72l-125 -286h-51zM137 45l240 4h581v-49h-837v100l815 920l-240 -4h-571v51h829v-100z" />
    <glyph glyph-name="Zcaron.c2sc" horiz-adv-x="1056" 
d="M586 1260h-97l-229 286h68l211 -270l211 270h65zM137 45l240 4h581v-49h-837v100l815 920l-240 -4h-571v51h829v-100z" />
    <glyph glyph-name="Zdotaccent.c2sc" horiz-adv-x="1056" 
d="M481 1450h117v-125h-117v125zM137 45l240 4h581v-49h-837v100l815 920l-240 -4h-571v51h829v-100z" />
    <glyph glyph-name="i.aalt.aalt" horiz-adv-x="821" 
d="M692 1067v-51h-254v-967h254v-49h-563v49h254v967h-254v51h563z" />
    <glyph glyph-name="iacute.aalt.aalt" horiz-adv-x="821" 
d="M479 1546h72l-125 -286h-51zM692 1067v-51h-254v-967h254v-49h-563v49h254v967h-254v51h563z" />
    <glyph glyph-name="ibreve.aalt.aalt" horiz-adv-x="821" 
d="M595 1331q-73 -82 -191 -82q-119 0 -192 82t-73 215h54q0 -127 50.5 -186.5t160.5 -59.5t160 59.5t50 186.5h54q0 -133 -73 -215zM692 1067v-51h-254v-967h254v-49h-563v49h254v967h-254v51h563z" />
    <glyph glyph-name="icircumflex.aalt.aalt" horiz-adv-x="821" 
d="M614 1260l-211 270l-210 -270h-68l229 286h97l229 -286h-66zM692 1067v-51h-254v-967h254v-49h-563v49h254v967h-254v51h563z" />
    <glyph glyph-name="idieresis.aalt.aalt" horiz-adv-x="821" 
d="M199 1450h116v-125h-116v125zM492 1450h116v-125h-116v125zM692 1067v-51h-254v-967h254v-49h-563v49h254v967h-254v51h563z" />
    <glyph glyph-name="Idotaccent.c2sc.ss02" horiz-adv-x="821" 
d="M346 1450h117v-125h-117v125zM692 1067v-51h-254v-967h254v-49h-563v49h254v967h-254v51h563z" />
    <glyph glyph-name="uni1ECB.aalt.aalt" horiz-adv-x="821" 
d="M692 1067v-51h-254v-967h254v-49h-563v49h254v967h-254v51h563zM471 -350h-123v123h123v-123z" />
    <glyph glyph-name="igrave.aalt.aalt" horiz-adv-x="821" 
d="M324 1546l104 -286h-49l-127 286h72zM692 1067v-51h-254v-967h254v-49h-563v49h254v967h-254v51h563z" />
    <glyph glyph-name="imacron.aalt.aalt" horiz-adv-x="821" 
d="M139 1419h527v-49h-527v49zM692 1067v-51h-254v-967h254v-49h-563v49h254v967h-254v51h563z" />
    <glyph glyph-name="iogonek.aalt.aalt" horiz-adv-x="821" 
d="M692 1067v-51h-254v-967h254v-49h-241l-168 -233q-37 -55 -37 -89q0 -30 17.5 -40.5t66.5 -10.5h162v-45h-162q-138 0 -140 90q0 42 43 97l168 231h-272v49h254v967h-254v51h563z" />
    <glyph glyph-name="itilde.aalt.aalt" horiz-adv-x="821" 
d="M244 1450q-69 0 -100 -40t-31 -128h-50q0 98 51 159q50 60 132 60q64 0 113 -43q51 -45 95 -86q46 -43 103 -43q70 0 101.5 39t31.5 129h49q0 -97 -50 -158q-49 -61 -132 -61q-48 0 -90 24.5t-70 61.5t-68.5 61.5t-84.5 24.5zM129 1067h563v-51h-254v-967h254v-49h-563
v49h254v967h-254v51z" />
    <glyph glyph-name="Z.c2sc.ss03" horiz-adv-x="1019" 
d="M133 45l225 4h582v-49h-838v86l803 934l-227 -4h-572v51h830v-88z" />
    <glyph glyph-name="Zacute.c2sc.ss03" horiz-adv-x="1019" 
d="M596 1546h72l-125 -286h-51zM133 45l225 4h582v-49h-838v86l803 934l-227 -4h-572v51h830v-88z" />
    <glyph glyph-name="Zcaron.c2sc.ss03" horiz-adv-x="1019" 
d="M567 1260h-96l-229 286h67l211 -270l211 270h66zM133 45l225 4h582v-49h-838v86l803 934l-227 -4h-572v51h830v-88z" />
    <glyph glyph-name="Zdotaccent.c2sc.ss03" horiz-adv-x="1019" 
d="M463 1450h117v-125h-117v125zM133 45l225 4h582v-49h-838v86l803 934l-227 -4h-572v51h830v-88z" />
    <glyph glyph-name="zero.case" horiz-adv-x="1529" 
d="M764 -23q-258 0 -417 202t-159 530q0 327 159 528t417 201q260 0 419 -201q158 -202 158 -528q0 -327 -158 -530q-159 -202 -419 -202zM764 35q252 0 383 172t131 502q0 329 -131 500t-383 171q-250 0 -381 -172t-131 -499q0 -330 131 -502t381 -172z" />
    <glyph glyph-name="one.case" horiz-adv-x="913" 
d="M502 1434h110v-1434h-59v1077l4 338l-104 -80l-306 -219v66z" />
    <glyph glyph-name="two.case" horiz-adv-x="1337" 
d="M178 51l369 4h663v-55h-1046v102l698 539q128 97 174 175q45 76 45 206q0 358 -403 358q-428 0 -428 -446h-62q0 226 136 365q135 139 354 139q208 0 336 -114q127 -114 127 -298q0 -236 -230 -412l-575 -446z" />
    <glyph glyph-name="three.case" horiz-adv-x="1325" 
d="M797 700q358 -25 358 -329q0 -175 -134 -285q-133 -109 -353 -109q-211 0 -340 126t-129 333h61q0 -205 99.5 -303t308.5 -98q219 0 321.5 80.5t102.5 251.5q0 158 -84 228.5t-273 70.5h-252v49h232q303 0 303 309q0 182 -87 268t-272 86q-194 0 -287 -102t-93 -313h-62
q0 214 121 344q122 131 319 131q191 0 307 -112q117 -112 117 -294q0 -135 -73.5 -223.5t-210.5 -108.5z" />
    <glyph glyph-name="four.case" horiz-adv-x="1267" 
d="M891 446h319v-49h-319v-397h-60v397h-757v103l710 915h107v-969zM92 442l268 4h471v605l5 348z" />
    <glyph glyph-name="five.case" horiz-adv-x="1277" 
d="M694 860q209 0 337 -122t128 -320q0 -197 -132 -317q-131 -121 -349 -121q-220 0 -353 117q-135 115 -135 306h64q0 -367 426 -366q416 0 416 381q0 387 -416 387q-141 0 -234 -46q-97 -47 -174 -149h-57l78 805h792v-51h-489l-256 4l-72 -731q62 101 176 162
q115 61 250 61z" />
    <glyph glyph-name="six.case" horiz-adv-x="1421" 
d="M735 899q224 0 360 -124t136 -326q0 -211 -135 -341q-136 -131 -357 -131q-250 0 -400 170q-151 169 -151 539q0 360 150 556q148 196 403 196q208 0 335 -109q128 -110 128 -291h-61q0 174 -97.5 256t-304.5 82q-251 0 -370 -162q-119 -164 -119 -528v-143
q22 155 156 256q131 100 327 100zM739 35q219 0 324.5 101.5t105.5 312.5q0 203 -106.5 298t-331.5 95q-221 0 -341 -105q-120 -107 -120 -266q0 -213 122.5 -324.5t346.5 -111.5z" />
    <glyph glyph-name="seven.case" horiz-adv-x="1126" 
d="M80 1364v51h993v-92q-270 -269 -429 -619q-159 -352 -159 -704h-59q0 371 173 737q171 360 466 631l-367 -4h-618z" />
    <glyph glyph-name="eight.case" horiz-adv-x="1366" 
d="M791 725q187 -22 298 -118q109 -94 109 -240q0 -174 -142 -282t-372 -108q-231 0 -373 108q-143 108 -143 282q0 145 111 240q111 96 299 118q-168 22 -266 107q-99 83 -99 212q0 176 130 285t341 109t340 -108q129 -109 129 -286q0 -130 -97 -212q-98 -85 -265 -107z
M276 1042q0 -138 109 -214q110 -78 299 -78q190 0 298 78q108 76 108 214q0 172 -99.5 255t-306.5 83q-209 0 -308.5 -83t-99.5 -255zM684 35q229 0 340 83t111 255q0 155 -119 241q-118 84 -332 84q-216 0 -334.5 -85t-118.5 -240q0 -172 111 -255t342 -83z" />
    <glyph glyph-name="nine.case" horiz-adv-x="1421" 
d="M682 1438q249 0 401 -170q150 -170 150 -539q0 -359 -144 -555q-146 -197 -391 -197q-217 0 -349 108t-132 284h62q0 -170 101 -250t318 -80q244 0 358 163q113 164 113 527v143q-22 -155 -155 -256q-133 -100 -328 -100q-223 0 -359 124q-137 125 -137 327
q0 211 136 341q134 130 356 130zM690 573q222 0 341 106q120 105 120 265q0 213 -122.5 324.5t-346.5 111.5q-219 0 -324.5 -101t-105.5 -312q0 -201 106.5 -297.5t331.5 -96.5z" />
    <glyph glyph-name="four.case.ss03" horiz-adv-x="1267" 
d="M891 446h319v-49h-319v-397h-60v397h-757v84l731 934h86v-969zM109 442l251 4h471v605l5 321z" />
    <glyph glyph-name="zero.case.zero" horiz-adv-x="1529" 
d="M764 1438q260 0 419 -201q158 -202 158 -528q0 -327 -158 -530q-159 -202 -419 -202q-258 0 -417 202t-159 530q0 327 159 528t417 201zM252 709q0 -420 209 -582l586 1176q-116 78 -283 77q-250 0 -381 -171.5t-131 -499.5zM764 35q252 0 383 172t131 502
q0 403 -195 567l-585 -1174q109 -67 266 -67z" />
    <glyph glyph-name="zero.oldstyle" horiz-adv-x="1441" 
d="M1118 130q-152 -153 -397 -153q-246 0 -396 153q-151 152 -151 403q0 250 151 402q150 152 396 152q245 0 397 -152q150 -153 150 -402q0 -250 -150 -403zM365 169q135 -138 356 -138t357 138q136 137 136 363q0 228 -136 365q-137 137 -357 137q-221 0 -356 -137
q-136 -136 -136 -365q0 -226 136 -363z" />
    <glyph glyph-name="one.oldstyle" horiz-adv-x="1083" 
d="M643 1067v-1018h344v-49h-801v49h400v662l4 333l-105 -75l-299 -209v59l357 248h100z" />
    <glyph glyph-name="two.oldstyle" horiz-adv-x="1198" 
d="M199 43l315 6h586v-49h-922v80l559 371q156 103 198 160q40 55 40 163q0 133 -89 196.5t-276 63.5q-356 0 -356 -348h-57q0 180 114 291q113 110 299 110q190 0 305 -84q115 -85 115 -223q0 -107 -55 -187q-55 -81 -193 -169l-403 -266z" />
    </font>
</defs>
</svg>
