<?xml version="1.0" standalone="no"?>
<!DOCTYPE svg PUBLIC "-//W3C//DTD SVG 1.1//EN" "http://www.w3.org/Graphics/SVG/1.1/DTD/svg11.dtd" >
<svg xmlns="http://www.w3.org/2000/svg" xmlns:xlink="http://www.w3.org/1999/xlink" version="1.1">
<metadata>
Created by FontForge 20170731 at Fri Apr 12 15:38:32 2019
 By Aleksey,,,
Copyright (c) 2018 by Alexis Navarro Miranda. All rights reserved. Desktop use is strictly prohibited.
</metadata>
<defs>
<font id="MenaGrotesk-UltraLight" horiz-adv-x="1232" >
  <font-face 
    font-family="Mena Grotesk UltraLight"
    font-weight="265"
    font-stretch="normal"
    units-per-em="2048"
    panose-1="0 0 3 0 0 0 0 0 0 0"
    ascent="1638"
    descent="-410"
    x-height="1032"
    cap-height="1421"
    bbox="-793 -545 2204 2120"
    underline-thickness="0"
    underline-position="0"
    unicode-range="U+0020-FB02"
  />
<missing-glyph horiz-adv-x="1523" 
d="M1266 682h186v-61h-125q-12 -143 -77.5 -251t-174.5 -163v-207h-57v207q-60 -58 -168 -119l-37 170h-102l-37 -170q-114 64 -168 121v-209h-55v209q-227 113 -254 412h-125v61h186q0 -296 193 -414v125q-80 95 -80 260q0 179 88 279v522h608v-524q86 -98 86 -277
q0 -162 -78 -258v-127q191 119 191 414zM539 1407l223 -193l223 193h-446zM793 1188l225 -197v393zM508 995l223 193l-223 192v-385zM920 1024l-158 137l-158 -137q71 22 158.5 22t157.5 -22zM510 411q86 -83 252 -83t252 83t86 242q0 166 -86 252t-252 86t-252 -86
t-86 -252q0 -159 86 -242zM600 922l86 30v-34l-86 -31v35zM922 887l-88 31v34l88 -30v-35zM729 819q0 -23 -15.5 -37t-37.5 -14q-25 0 -41.5 14.5t-16.5 36.5q0 26 16.5 42t41.5 16q24 0 38.5 -15.5t14.5 -42.5zM848 877q25 0 41 -15.5t16 -42.5q0 -23 -16.5 -37t-40.5 -14
q-23 0 -38 14.5t-15 36.5q0 27 14.5 42.5t38.5 15.5zM854 696l-176 -20v39l176 20v-39zM643 160l29 119q-100 16 -166 63v-74q56 -64 137 -108zM1018 266v76q-66 -47 -166 -63l29 -119q80 41 137 106zM764 207q29 0 29 -31q0 -29 -29 -29q-33 0 -33 29q0 31 33 31zM764 94
q29 0 29 -28q0 -31 -29 -31q-33 0 -33 31q0 28 33 28z" />
    <glyph glyph-name="uniFB01" unicode="fi" horiz-adv-x="1286" 
d="M346 1032h717v-1032h-98v950h-619v-950h-98v950h-213v82h213v248q0 281 291 281q151 0 237 -15v-67h-227q-119 0 -161 -47q-42 -48 -42 -183v-217zM940 1311v170h147v-170h-147z" />
    <glyph glyph-name="uniFB02" unicode="fl" horiz-adv-x="1339" 
d="M248 1032v248q0 281 291 281q151 0 245 -15v-67h-235q-119 0 -161 -47q-42 -48 -42 -183v-217h428v-82h-428v-950h-98v950h-213v82h213zM1186 68h90v-68q-45 -14 -111 -14q-215 0 -215 231v1329h99v-1296q0 -104 30 -143q29 -39 107 -39z" />
    <glyph glyph-name="f_f.liga" unicode="ff" horiz-adv-x="1474" 
d="M1524 1479h-242q-119 0 -161 -47q-42 -48 -42 -183v-217h434v-82h-434v-950h-98v950h-635v-950h-98v950h-213v82h213v187q0 281 291 280q169 0 252 -12v-70h-242q-119 0 -161 -47q-42 -46 -42 -182v-156h635v248q0 281 291 281q156 0 252 -15v-67z" />
    <glyph glyph-name="f_f_i.liga" unicode="ffi" horiz-adv-x="2019" 
d="M1079 1032h717v-1032h-98v950h-619v-950h-98v950h-635v-950h-98v950h-213v82h213v187q0 281 291 280q169 0 252 -12v-70h-242q-119 0 -161 -47q-42 -46 -42 -182v-156h635v248q0 281 291 281q152 0 237 -15v-67h-227q-119 0 -161 -47q-42 -48 -42 -183v-217zM1673 1311
v170h148v-170h-148z" />
    <glyph glyph-name="f_f_l.liga" unicode="ffl" horiz-adv-x="2072" 
d="M981 1032v289q0 131 60 186q59 54 210 54q167 0 267 -15v-67h-246q-118 0 -156 -41q-37 -40 -37 -168v-238h428v-82h-428v-950h-98v950h-635v-950h-98v950h-213v82h213v228q0 131 60 185q58 54 210 54q137 0 266 -12v-70h-245q-119 0 -156 -40t-37 -167v-178h635z
M1919 68h90v-68q-45 -14 -111 -14q-215 0 -215 231v1329h99v-1296q0 -104 30 -143q28 -39 107 -39z" />
    <glyph glyph-name=".notdef" horiz-adv-x="1523" 
d="M1266 682h186v-61h-125q-12 -143 -77.5 -251t-174.5 -163v-207h-57v207q-60 -58 -168 -119l-37 170h-102l-37 -170q-114 64 -168 121v-209h-55v209q-227 113 -254 412h-125v61h186q0 -296 193 -414v125q-80 95 -80 260q0 179 88 279v522h608v-524q86 -98 86 -277
q0 -162 -78 -258v-127q191 119 191 414zM539 1407l223 -193l223 193h-446zM793 1188l225 -197v393zM508 995l223 193l-223 192v-385zM920 1024l-158 137l-158 -137q71 22 158.5 22t157.5 -22zM510 411q86 -83 252 -83t252 83t86 242q0 166 -86 252t-252 86t-252 -86
t-86 -252q0 -159 86 -242zM600 922l86 30v-34l-86 -31v35zM922 887l-88 31v34l88 -30v-35zM729 819q0 -23 -15.5 -37t-37.5 -14q-25 0 -41.5 14.5t-16.5 36.5q0 26 16.5 42t41.5 16q24 0 38.5 -15.5t14.5 -42.5zM848 877q25 0 41 -15.5t16 -42.5q0 -23 -16.5 -37t-40.5 -14
q-23 0 -38 14.5t-15 36.5q0 27 14.5 42.5t38.5 15.5zM854 696l-176 -20v39l176 20v-39zM643 160l29 119q-100 16 -166 63v-74q56 -64 137 -108zM1018 266v76q-66 -47 -166 -63l29 -119q80 41 137 106zM764 207q29 0 29 -31q0 -29 -29 -29q-33 0 -33 29q0 31 33 31zM764 94
q29 0 29 -28q0 -31 -29 -31q-33 0 -33 31q0 28 33 28z" />
    <glyph glyph-name="glyph1" horiz-adv-x="0" 
 />
    <glyph glyph-name="glyph2" horiz-adv-x="681" 
 />
    <glyph glyph-name="space" unicode=" " horiz-adv-x="409" 
 />
    <glyph glyph-name="exclam" unicode="!" horiz-adv-x="483" 
d="M193 1421h100v-317l-21 -713h-59l-20 713v317zM160 0v166h166v-166h-166z" />
    <glyph glyph-name="quotedbl" unicode="&#x22;" horiz-adv-x="532" 
d="M104 907l-20 514h113l-19 -514h-74zM356 907l-20 514h113l-19 -514h-74z" />
    <glyph glyph-name="numbersign" unicode="#" horiz-adv-x="1353" 
d="M1333 1006v-78h-291l-112 -422h268v-78h-289l-114 -428h-88l114 428h-442l-115 -428h-86l115 428h-273v78h293l113 422h-272v78h292l111 415h88l-110 -415h440l110 415h89l-111 -415h270zM399 506h443l112 422h-442z" />
    <glyph glyph-name="dollar" unicode="$" horiz-adv-x="1439" 
d="M1280 365q0 -168 -141 -273q-143 -107 -373 -117v-139h-80v139q-240 12 -384 141q-144 128 -144 326h106q0 -354 422 -372v612q-283 56 -389 137q-109 82 -109 225q0 173 137 283q135 108 361 119v151h80v-153q224 -12 357 -141q134 -129 134 -330h-106q0 356 -385 375
v-584q286 -57 401 -149q113 -92 113 -250zM291 1059q0 -105 82 -166q84 -62 313 -113v570q-193 -6 -294 -80t-101 -211zM766 666v-596q203 6 307.5 77.5t102.5 204.5q0 117 -84 189q-85 71 -326 125z" />
    <glyph glyph-name="percent" unicode="%" horiz-adv-x="1402" 
d="M616 908q-86 -87 -225 -87t-225 86t-86 228q0 139 86 225t225 86t225 -86t86 -225q0 -141 -86 -227zM1186 1421h108l-424 -620h-94zM228 966q61 -63 164 -63q101 0 163 63q61 61 61 169q0 101 -62 166q-62 63 -162 63q-101 0 -163 -63q-63 -65 -63 -166q0 -105 62 -169z
M532 621h95l-410 -621h-108zM1235 63q-86 -86 -225 -86q-141 0 -226 85q-86 86 -86 227q0 139 86 225t226 86q139 0 225 -86t86 -225q0 -140 -86 -226zM846 121q61 -64 164 -64t164 64q61 62 61 168q0 101 -62 166q-63 63 -163 63q-102 0 -163 -63q-63 -65 -63 -166
q0 -103 62 -168z" />
    <glyph glyph-name="ampersand" unicode="&#x26;" horiz-adv-x="1372" 
d="M1151 227l256 -227h-137l-174 158q-173 -182 -457 -183q-239 0 -385 102q-145 100 -145 269q0 254 354 377l-2 2q-118 104 -167 183q-50 80 -50 177q0 161 110 262q110 99 287 99q174 0 282 -99q107 -101 107 -262q0 -131 -99 -220q-101 -89 -319 -156l475 -424
q76 133 76 350h105q0 -240 -117 -408zM346 1079q0 -71 43 -139q44 -71 166 -180l10 -8q219 78 293 146t74 181q0 141 -69.5 208t-219.5 67q-152 0 -224.5 -68t-72.5 -207zM639 66q266 0 395 145l-526 471q-159 -62 -227 -136q-70 -74 -70 -186q0 -151 105 -222.5t323 -71.5z
" />
    <glyph glyph-name="quotesingle" unicode="'" horiz-adv-x="280" 
d="M104 907l-20 514h113l-19 -514h-74z" />
    <glyph glyph-name="parenleft" unicode="(" horiz-adv-x="450" 
d="M324 1546h79q-190 -470 -190 -966q0 -497 190 -965h-79q-218 480 -220 965q2 483 220 966z" />
    <glyph glyph-name="parenright" unicode=")" horiz-adv-x="446" 
d="M123 -385h-80q190 468 190 967q0 497 -190 964h80q219 -482 219 -964q0 -485 -219 -967z" />
    <glyph glyph-name="asterisk" unicode="*" horiz-adv-x="708" 
d="M393 1446l-39 -287l-41 287h80zM154 1368l200 -209l-250 148zM604 1307l-250 -148l199 209zM63 1133l291 26l-272 -104zM193 915l161 244l-88 -278zM627 1055l-273 104l289 -26zM442 881l-88 278l160 -244z" />
    <glyph glyph-name="plus" unicode="+" horiz-adv-x="1024" 
d="M555 573h367v-84h-367v-366h-86v366h-367v84h367v369h86v-369z" />
    <glyph glyph-name="comma" unicode="," horiz-adv-x="376" 
d="M117 27v139h166v-166q0 -119 -56.5 -187.5t-152.5 -68.5v68q133 0 133 165z" />
    <glyph glyph-name="hyphen" unicode="-" horiz-adv-x="643" 
d="M102 563h459v-86h-459v86z" />
    <glyph glyph-name="period" unicode="." horiz-adv-x="385" 
d="M125 0v166h164v-166h-164z" />
    <glyph glyph-name="slash" unicode="/" horiz-adv-x="479" 
d="M31 -385l340 1931h92l-340 -1931h-92z" />
    <glyph glyph-name="zero" unicode="0" horiz-adv-x="1521" 
d="M1190 178q-164 -203 -430 -203q-265 0 -429 203q-163 202 -163 533q0 330 163 532q164 203 429 203q266 0 430 -203t164 -532q0 -330 -164 -533zM760 70q485 0 485 641q0 639 -485 639q-482 0 -484 -639q2 -641 484 -641z" />
    <glyph glyph-name="one" unicode="1" horiz-adv-x="933" 
d="M469 1434h182v-1434h-102v1077l4 320l-102 -88l-320 -244v117z" />
    <glyph glyph-name="two" unicode="2" horiz-adv-x="1335" 
d="M199 84l346 6h680v-90h-1063v156l665 493q139 101 186 174q46 73 46 199q0 168 -92.5 249t-284.5 81q-201 0 -297 -104.5t-96 -321.5h-107q0 233 138 377q137 143 362 143q214 0 347 -116q132 -116 132 -304q0 -247 -256 -428l-561 -416z" />
    <glyph glyph-name="three" unicode="3" horiz-adv-x="1337" 
d="M817 711q361 -33 363 -338q0 -179 -139 -288q-140 -110 -365 -110q-224 0 -360 127q-138 128 -138 334h109q0 -189 94 -277.5t297 -88.5q205 0 300 71.5t95 225.5q0 152 -77.5 220t-252.5 68h-260v80h228q293 0 293 289q0 168 -81 247t-255 79q-186 0 -274.5 -93.5
t-88.5 -289.5h-106q0 214 128 347q127 132 339 132q200 0 321 -112t121 -296q0 -130 -75.5 -216t-215.5 -111z" />
    <glyph glyph-name="four" unicode="4" horiz-adv-x="1290" 
d="M924 461h319v-86h-319v-375h-103v375h-741v172l668 874h176v-960zM119 455l248 6h454v596l6 329z" />
    <glyph glyph-name="five" unicode="5" horiz-adv-x="1277" 
d="M717 872q205 0 331 -123q126 -125 126 -327t-136 -323q-137 -122 -360 -122q-225 0 -363 120q-139 120 -139 317h109q0 -174 97 -258t298 -84q387 0 387 350q0 184 -95 272t-292 88q-136 0 -222 -40q-87 -40 -159 -132h-92l72 811h819v-88l-738 2l-61 -673q61 93 171 152
q109 58 247 58z" />
    <glyph glyph-name="six" unicode="6" horiz-adv-x="1421" 
d="M754 901q224 0 357 -124q134 -125 134 -326q0 -213 -138 -344q-138 -132 -364 -132q-262 0 -418 179q-157 178 -157 540q0 354 157 553q156 199 418 199q215 0 348 -114q132 -116 132 -302h-107q0 164 -90 241t-283 77q-241 0 -354 -155t-113 -499v-104q34 136 166 224
q130 87 312 87zM743 70q205 0 301.5 92t96.5 289q0 186 -98.5 273t-307.5 87q-212 0 -324 -92q-112 -91 -112 -246q0 -200 113 -301.5t331 -101.5z" />
    <glyph glyph-name="seven" unicode="7" horiz-adv-x="1128" 
d="M74 1333v88h999v-159q-264 -256 -420 -594q-157 -336 -157 -668h-105q0 358 181 716q180 356 485 621l-359 -4h-624z" />
    <glyph glyph-name="eight" unicode="8" horiz-adv-x="1363" 
d="M838 727q178 -29 276 -123t98 -237q0 -176 -146 -284t-384 -108t-384 108q-146 107 -146 284q0 143 98 237t276 123q-157 29 -243 113t-86 209q0 178 134 288q133 109 351 109t351 -109q134 -110 134 -288q0 -125 -86 -209t-243 -113zM305 1042q0 -133 98.5 -205.5
t278.5 -72.5t278.5 72.5t98.5 205.5q0 159 -91 233.5t-286 74.5t-286 -74.5t-91 -233.5zM363 146q101 -76 319 -76q217 0 320 76q102 75 102 235q0 147 -108.5 225t-313.5 78t-313.5 -78t-108.5 -225q0 -160 103 -235z" />
    <glyph glyph-name="nine" unicode="9" horiz-adv-x="1421" 
d="M678 1446q262 0 418 -178q155 -179 155 -543q0 -351 -152 -551q-153 -199 -409 -199q-220 0 -356 113q-135 112 -135 297h106q0 -161 93 -236t292 -75q234 0 343 154q110 154 110 497v98q-37 -135 -166 -220q-128 -85 -311 -85q-221 0 -355 125q-135 125 -135 328
q0 214 139 344q139 131 363 131zM686 608q215 0 326 93q110 92 110 247q0 199 -113.5 300.5t-330.5 101.5q-204 0 -300.5 -92t-96.5 -287q0 -186 98 -274.5t307 -88.5z" />
    <glyph glyph-name="colon" unicode=":" horiz-adv-x="385" 
d="M125 645v166h164v-166h-164zM125 0v166h164v-166h-164z" />
    <glyph glyph-name="semicolon" unicode=";" horiz-adv-x="376" 
d="M117 645v166h166v-166h-166zM117 27v139h166v-166q0 -119 -56.5 -187.5t-152.5 -68.5v68q133 0 133 165z" />
    <glyph glyph-name="less" unicode="&#x3c;" horiz-adv-x="899" 
d="M90 598l707 328v-86l-672 -312l672 -311v-88l-707 328v141z" />
    <glyph glyph-name="equal" unicode="=" horiz-adv-x="1073" 
d="M102 778h809v-82h-809v82zM102 369h809v-84h-809v84z" />
    <glyph glyph-name="greater" unicode="&#x3e;" horiz-adv-x="899" 
d="M102 840v86l707 -328v-141l-707 -328v88l672 311z" />
    <glyph glyph-name="question" unicode="?" horiz-adv-x="1021" 
d="M475 1446q185 0 300 -104q114 -105 114 -277q0 -129 -79 -219t-220 -123l-86 -18l-15 -326h-55l-16 383l139 26q123 23 177 88.5t54 188.5q0 154 -74.5 224.5t-238.5 70.5q-168 0 -246.5 -80t-78.5 -250h-99q0 186 117 301q116 115 307 115zM545 0h-166v166h166v-166z
" />
    <glyph glyph-name="at" unicode="@" horiz-adv-x="2095" 
d="M1018 1452q412 0 664 -249q251 -249 251 -656q0 -148 -32.5 -262t-87.5 -178q-106 -121 -222 -121t-167.5 51.5t-51.5 169.5v63q-48 -130 -153.5 -202t-245.5 -72q-210 0 -337 148q-128 148 -128 382q0 239 127 385q128 146 338 146q136 0 245 -71q108 -71 154 -200v246
h94v-780q0 -120 30 -155q30 -34 120 -34q231 5 231 484q0 387 -220 607t-609 220q-394 0 -618 -225q-224 -226 -224 -622q0 -397 224 -624q224 -225 618 -225q313 0 534 140v-88q-224 -129 -534 -129q-418 0 -673 255t-255 671q0 415 255 670t673 255zM991 80q377 0 377 446
q0 443 -377 445q-379 0 -379 -445q0 -446 379 -446z" />
    <glyph glyph-name="A" unicode="A" horiz-adv-x="1372" 
d="M1317 0h-109l-182 475h-688l-180 -475h-105l535 1421h182zM586 1135l-215 -572h620l-219 572l-94 254z" />
    <glyph glyph-name="B" unicode="B" horiz-adv-x="1460" 
d="M983 739q144 -28 224 -123q79 -94 79 -227q0 -175 -118 -281q-118 -108 -312 -108h-575v1421h540q189 0 307 -98q117 -97 117 -258q0 -121 -69 -209q-71 -89 -193 -117zM801 1333h-416v-575h416q172 0 254 69.5t82 216.5q0 152 -80.5 220.5t-255.5 68.5zM385 88h451
q178 0 260 71.5t82 227.5q0 147 -79.5 218t-246.5 71h-467v-588z" />
    <glyph glyph-name="C" unicode="C" horiz-adv-x="1550" 
d="M350 178q-182 203 -182 533q0 329 182 532t479 203q254 0 417 -139t163 -371h-106q0 414 -474 414q-273 0 -413 -162t-140 -477q0 -317 140 -479t413 -162q472 0 474 395h104q0 -225 -163 -357q-163 -133 -415 -133q-297 0 -479 203z" />
    <glyph glyph-name="D" unicode="D" horiz-adv-x="1634" 
d="M281 1421h538q291 0 469 -195q178 -196 178 -515q0 -321 -178 -515q-178 -196 -469 -196h-538v1421zM385 88h420q270 0 411.5 159t141.5 464t-141.5 463.5t-411.5 158.5h-420v-1245z" />
    <glyph glyph-name="E" unicode="E" horiz-adv-x="1368" 
d="M385 674v-586h776v-88h-880v1421h868v-88h-764v-571h723v-88h-723z" />
    <glyph glyph-name="F" unicode="F" horiz-adv-x="1226" 
d="M1128 1421v-88h-743v-581h702v-88h-702v-664h-104v1421h847z" />
    <glyph glyph-name="G" unicode="G" horiz-adv-x="1638" 
d="M733 623v84h703v-707h-88v395q-45 -207 -178.5 -313.5t-348.5 -106.5q-293 0 -473 203q-180 202 -180 533q0 329 182 532t481 203q271 0 435 -136q164 -137 164 -360h-107q0 398 -492 400q-274 0 -414.5 -162t-140.5 -477q0 -316 140.5 -478.5t414.5 -162.5
q500 0 504 553h-602z" />
    <glyph glyph-name="H" unicode="H" horiz-adv-x="1654" 
d="M1270 762v659h104v-1421h-104v674h-885v-674h-104v1421h104v-659h885z" />
    <glyph glyph-name="I" unicode="I" horiz-adv-x="665" 
d="M281 0v1421h104v-1421h-104z" />
    <glyph glyph-name="J" unicode="J" 
d="M88 442h102q0 -187 90 -280t271 -92q336 0 336 397v954h102v-962q0 -218 -119 -351q-120 -133 -319 -133q-208 0 -336 128q-127 127 -127 339z" />
    <glyph glyph-name="K" unicode="K" horiz-adv-x="1390" 
d="M1335 1421l-819 -704l850 -717h-156l-624 526l-201 176v-702h-104v1421h104v-698l201 178l604 520h145z" />
    <glyph glyph-name="L" unicode="L" horiz-adv-x="1214" 
d="M385 1421v-1333h745v-88h-849v1421h104z" />
    <glyph glyph-name="M" unicode="M" horiz-adv-x="1988" 
d="M1528 1421h180v-1421h-104v1116l4 262l-539 -1378h-149l-539 1374l4 -258v-1116h-104v1421h184l469 -1196l63 -172l62 172z" />
    <glyph glyph-name="N" unicode="N" horiz-adv-x="1654" 
d="M1270 438v983h104v-1421h-178l-819 1376l8 -338v-1038h-104v1421h180l817 -1372z" />
    <glyph glyph-name="O" unicode="O" horiz-adv-x="1669" 
d="M842 -25q-303 0 -488 203q-186 203 -186 533q0 329 186 532q185 203 488 203q296 0 478 -203q181 -202 181 -532q0 -331 -181 -533q-182 -203 -478 -203zM842 70q270 0 410.5 163t140.5 478t-140.5 477t-410.5 162q-279 0 -422.5 -162t-143.5 -477q0 -316 143.5 -478.5
t422.5 -162.5z" />
    <glyph glyph-name="P" unicode="P" horiz-adv-x="1343" 
d="M281 1421h550q188 0 303 -112t115 -295q0 -185 -115 -297q-116 -113 -305 -113h-444v-604h-104v1421zM385 692h428q170 0 249 78t79 244t-79 242.5t-249 76.5h-428v-641z" />
    <glyph glyph-name="Q" unicode="Q" horiz-adv-x="1669" 
d="M1331 193l273 -269l-64 -63l-268 270q-174 -156 -436 -156q-301 0 -484 203q-184 202 -184 533q0 330 184 532q183 203 484 203q299 0 482 -203q183 -202 183 -532q0 -315 -170 -518zM419 1188q-143 -163 -143 -477q0 -315 143 -478q142 -163 417 -163q244 0 376 120
l-251 250l63 64l248 -252q121 161 121 459q0 315 -141 477t-416 162q-274 0 -417 -162z" />
    <glyph glyph-name="R" unicode="R" horiz-adv-x="1445" 
d="M1372 0h-119l-448 625h-420v-625h-104v1421h559q188 0 303 -109q114 -110 114 -290q0 -161 -94 -264q-94 -104 -258 -127l129 -164zM821 1333h-436v-624h436q168 0 248 76.5t80 236.5t-80 235.5t-248 75.5z" />
    <glyph glyph-name="S" unicode="S" horiz-adv-x="1439" 
d="M727 -25q-256 0 -412 129q-157 129 -157 338h106q0 -374 465 -372q221 0 335 71.5t112 210.5q0 125 -98 199q-99 73 -386 129q-284 55 -394 138t-110 226q0 180 147 291q145 111 384 111q242 0 390 -130t148 -343h-106q0 377 -434 377q-208 0 -317 -74t-109 -217
q0 -113 95 -176q92 -63 376 -119q287 -57 404 -149q114 -93 114 -250q0 -176 -152 -283q-154 -107 -401 -107z" />
    <glyph glyph-name="T" unicode="T" horiz-adv-x="1288" 
d="M31 1421h1226v-88h-561v-1333h-104v1333h-561v88z" />
    <glyph glyph-name="U" unicode="U" horiz-adv-x="1585" 
d="M244 487v934h104v-927q0 -424 445 -424q444 0 444 424v927h104v-934q0 -231 -150 -371q-151 -141 -398 -141q-248 0 -398 141q-151 139 -151 371z" />
    <glyph glyph-name="V" unicode="V" horiz-adv-x="1345" 
d="M772 287l430 1134h103l-535 -1421h-182l-547 1421h109l438 -1134l92 -256z" />
    <glyph glyph-name="W" unicode="W" horiz-adv-x="2197" 
d="M1665 287l360 1134h105l-453 -1421h-170l-338 1137l-67 249l-70 -251l-338 -1135h-174l-452 1421h108l359 -1134l73 -248l70 248l338 1134h170l338 -1134l67 -248z" />
    <glyph glyph-name="X" unicode="X" horiz-adv-x="1427" 
d="M1350 1421l-541 -673l584 -748h-119l-383 487l-178 236l-178 -238l-383 -485h-117l583 745l-544 676h119l346 -430l174 -223l174 221l346 432h117z" />
    <glyph glyph-name="Y" unicode="Y" horiz-adv-x="1277" 
d="M774 797l373 624h106l-561 -940v-481h-102v481l-563 940h112l375 -624l131 -236z" />
    <glyph glyph-name="Z" unicode="Z" horiz-adv-x="1255" 
d="M133 82l316 6h733v-88h-1084v174l1045 1165l-316 -6h-723v88h1072v-176z" />
    <glyph glyph-name="bracketleft" unicode="[" horiz-adv-x="565" 
d="M535 1546v-84l-254 4v-1771l254 4v-84h-353v1931h353z" />
    <glyph glyph-name="backslash" unicode="\" horiz-adv-x="479" 
d="M16 1546h93l340 -1931h-93z" />
    <glyph glyph-name="bracketright" unicode="]" horiz-adv-x="565" 
d="M31 1546h352v-1931h-352v84l254 -4v1771l-254 -4v84z" />
    <glyph glyph-name="asciicircum" unicode="^" horiz-adv-x="694" 
d="M418 1421l200 -422h-86l-184 392l-184 -392h-86l198 422h142z" />
    <glyph glyph-name="underscore" unicode="_" horiz-adv-x="1114" 
d="M113 -37h954v-84h-954v84z" />
    <glyph glyph-name="grave" unicode="`" horiz-adv-x="419" 
d="M90 1546h119l119 -299h-82z" />
    <glyph glyph-name="a" unicode="a" horiz-adv-x="1161" 
d="M1085 68h41v-68q-59 -14 -100 -14q-90 0 -130 51t-40 170v49q-43 -129 -154 -205q-112 -76 -268 -76q-138 0 -220 66q-83 65 -83 174q0 100 69 165t222 97q373 83 432 103v59q0 174 -71.5 256t-221.5 82q-301 0 -301 -326h-100q0 181 111 294q109 112 290 112
q180 0 285 -105q104 -107 104 -288v-412q0 -120 24 -152q23 -32 111 -32zM455 57q180 0 290 101q109 100 109 276v82q-80 -22 -399 -96q-117 -26 -168 -73.5t-51 -123.5q0 -80 56.5 -123t162.5 -43z" />
    <glyph glyph-name="b" unicode="b" horiz-adv-x="1349" 
d="M725 1057q211 0 338 -148t127 -393q0 -244 -127 -392q-128 -149 -338 -149q-139 0 -245 70q-108 72 -154 199v-244h-95v1546h99v-760q48 130 152 200.5t243 70.5zM709 59q377 0 376 457q0 455 -376 455q-379 0 -379 -455q0 -457 379 -457z" />
    <glyph glyph-name="c" unicode="c" horiz-adv-x="1222" 
d="M967 336h100q0 -162 -116 -261q-116 -100 -310 -100q-217 0 -349 149q-132 148 -132 392t132 393q132 148 349 148q190 0 306 -107q116 -108 116 -284h-100q0 305 -322 305q-377 0 -377 -455q0 -457 377 -457q166 0 246 68t80 209z" />
    <glyph glyph-name="d" unicode="d" horiz-adv-x="1341" 
d="M1020 797v749h98v-1546h-94v254q-46 -132 -153 -206q-106 -73 -246 -73q-210 0 -338 149q-127 148 -127 392q0 245 127 393t338 148q135 0 241 -67q104 -67 154 -193zM643 59q377 0 377 457q0 455 -377 455q-379 0 -379 -455q0 -457 379 -457z" />
    <glyph glyph-name="e" unicode="e" horiz-adv-x="1249" 
d="M1094 571v-82h-830q12 -430 381 -430q167 0 253.5 68.5t86.5 196.5h102q0 -148 -123 -248q-125 -101 -319 -101q-218 0 -352 149q-133 148 -133 392t131 393q130 148 348 148q205 0 330 -134q125 -136 125 -352zM264 559l301 4h430q-7 408 -356 408q-357 0 -375 -412z
" />
    <glyph glyph-name="f" unicode="f" horiz-adv-x="741" 
d="M791 1479h-242q-119 0 -161 -47q-42 -48 -42 -183v-217h434v-82h-434v-950h-98v950h-213v82h213v248q0 281 291 281q156 0 252 -15v-67z" />
    <glyph glyph-name="g" unicode="g" horiz-adv-x="1159" 
d="M1116 1178v-86q-112 0 -162.5 -33.5t-56.5 -108.5q104 -98 104 -245q0 -149 -116 -244q-116 -94 -305 -94q-149 0 -252 59q-102 -49 -103 -154q0 -129 144 -129h411q140 0 223 -70q84 -70 84 -188q0 -127 -135 -206q-135 -78 -358 -78q-225 0 -362 74q-138 75 -138 200
q0 66 47 118t129 79q-58 25 -92.5 72t-34.5 106q0 127 146 201q-129 95 -129 254q0 157 116 255q115 97 304 97q161 0 274 -74q22 195 262 195zM341 512q76 -63 239 -63q160 0 239 62q78 61 78 194q0 137 -77 202.5t-240 65.5q-162 0 -239 -65t-77 -203q0 -131 77 -193z
M770 61h-463q-117 -52 -117 -176q0 -107 94 -153q94 -47 310 -47q214 0 306 47q91 46 91 153q0 96 -50 136t-171 40z" />
    <glyph glyph-name="h" unicode="h" horiz-adv-x="1312" 
d="M715 1057q169 0 272 -106t103 -283v-668h-99v625q0 182 -71.5 263t-231.5 81q-170 0 -264 -95.5t-94 -269.5v-604h-99v1546h99v-735q104 246 385 246z" />
    <glyph glyph-name="i" unicode="i" horiz-adv-x="550" 
d="M207 1311v155h147v-155h-147zM231 0v1032h99v-1032h-99z" />
    <glyph glyph-name="j" unicode="j" horiz-adv-x="550" 
d="M207 1311v155h147v-155h-147zM231 -129v1161h99v-1177q0 -254 -232 -254q-69 0 -123 14v68h109q91 0 119 36q28 37 28 152z" />
    <glyph glyph-name="k" unicode="k" horiz-adv-x="1083" 
d="M1026 1032l-580 -497l625 -535h-141l-471 406l-129 116v-522h-99v1546h99v-1009l127 114l444 381h125z" />
    <glyph glyph-name="l" unicode="l" horiz-adv-x="620" 
d="M467 68h90v-68q-40 -14 -108 -14q-217 0 -218 231v1329h99v-1317q0 -96 29 -128q29 -33 108 -33z" />
    <glyph glyph-name="m" unicode="m" horiz-adv-x="2045" 
d="M1456 1057q166 0 268 -106q101 -107 101 -283v-668h-99v625q0 182 -69.5 263t-226.5 81q-166 0 -259.5 -96t-93.5 -269v-604h-98v625q0 183 -69.5 263.5t-227.5 80.5q-166 0 -259 -96t-93 -269v-604h-99v1032h95v-229q49 123 148 188.5t235 65.5q135 0 230 -74
q95 -73 126 -201q45 132 147 203.5t244 71.5z" />
    <glyph glyph-name="n" unicode="n" horiz-adv-x="1312" 
d="M715 1057q169 0 272 -106t103 -283v-668h-99v625q0 182 -71.5 263t-231.5 81q-170 0 -264 -95.5t-94 -269.5v-604h-99v1032h95v-231q49 125 149.5 190.5t239.5 65.5z" />
    <glyph glyph-name="o" unicode="o" horiz-adv-x="1284" 
d="M992 124q-132 -149 -349 -149q-216 0 -350 149q-133 148 -133 392q0 245 133 393t350 148t349 -148q132 -149 132 -393t-132 -392zM643 59q377 0 377 457q0 455 -377 455q-379 0 -379 -455q0 -457 379 -457z" />
    <glyph glyph-name="p" unicode="p" horiz-adv-x="1349" 
d="M725 1057q211 0 338 -148t127 -393q0 -244 -127 -392q-128 -149 -338 -149q-135 0 -241 67q-108 69 -154 191v-618h-99v1417h95v-258q47 135 152 209t247 74zM709 59q377 0 376 457q0 455 -376 455q-379 0 -379 -455q0 -457 379 -457z" />
    <glyph glyph-name="q" unicode="q" horiz-adv-x="1349" 
d="M1024 786v246h94v-1417h-98v629q-48 -128 -152.5 -198.5t-242.5 -70.5q-210 0 -338 149q-127 148 -127 392q0 245 127 393t338 148q136 0 245 -71q108 -71 154 -200zM643 59q377 0 377 457q0 455 -377 455q-379 0 -379 -455q0 -457 379 -457z" />
    <glyph glyph-name="r" unicode="r" horiz-adv-x="804" 
d="M657 1057q71 0 111 -17v-77h-123q-150 0 -232.5 -102.5t-82.5 -291.5v-569h-99v1032h95v-244q39 128 126 198.5t205 70.5z" />
    <glyph glyph-name="s" unicode="s" horiz-adv-x="1132" 
d="M588 -25q-208 0 -336 98q-127 97 -127 259h100q0 -140 90 -207.5t275 -67.5q322 0 321 189q0 92 -74 143q-74 50 -276 88q-212 42 -307.5 109.5t-95.5 179.5q0 131 111 211q110 80 290 80q195 0 313 -97q117 -98 117 -258h-100q0 271 -332 273q-303 0 -303 -197
q0 -88 77 -135t290 -86q205 -39 296 -109t91 -190q0 -127 -116 -205t-304 -78z" />
    <glyph glyph-name="t" unicode="t" horiz-adv-x="819" 
d="M541 68h241v-68q-140 -14 -254 -14q-145 0 -217 71.5t-71 214.5v678h-215v82h215l4 309h94v-309h438v-82h-438v-653q0 -135 42 -182t161 -47z" />
    <glyph glyph-name="u" unicode="u" horiz-adv-x="1298" 
d="M971 420v612h98v-1032h-94v223q-47 -120 -147.5 -184t-239.5 -64q-164 0 -263 108q-100 106 -100 282v667h99v-624q0 -183 70.5 -265t228.5 -82q166 0 257 93.5t91 265.5z" />
    <glyph glyph-name="v" unicode="v" horiz-adv-x="1073" 
d="M633 285l299 747h100l-418 -1032h-157l-418 1032h104l301 -747l95 -246z" />
    <glyph glyph-name="w" unicode="w" horiz-adv-x="1814" 
d="M1401 285l254 747h104l-362 -1032h-156l-250 737l-82 260l-82 -260l-249 -737h-160l-365 1032h109l256 -747l82 -254l82 252l249 749h154l252 -747l82 -254z" />
    <glyph glyph-name="x" unicode="x" horiz-adv-x="1146" 
d="M1061 1032l-391 -497l417 -535h-118l-269 350l-125 170l-129 -170l-270 -350h-115l422 539l-391 493h119l244 -311l123 -160l124 158l246 313h113z" />
    <glyph glyph-name="y" unicode="y" horiz-adv-x="1073" 
d="M633 285l299 747h100l-495 -1222q-86 -209 -258 -209q-75 0 -136 14v70h115q78 0 115 27q37 28 71 110l74 178h-61l-418 1032h104l301 -747l93 -242z" />
    <glyph glyph-name="z" unicode="z" horiz-adv-x="1009" 
d="M133 80l211 4h584v-84h-826v164l791 788l-217 -4h-563v84h805v-168z" />
    <glyph glyph-name="braceleft" unicode="{" horiz-adv-x="761" 
d="M459 1290v-493q0 -213 -223 -213q223 0 223 -213v-494q0 -126 32 -160q32 -32 156 -32h105v-66q-86 -18 -162 -18q-132 0 -181 49q-51 50 -51 180v532q0 104 -39 143q-41 38 -147 38h-131v82h131q105 0 146 38q40 37 40 142v532q0 131 51 181q49 49 181 49q79 0 162 -19
v-65h-105q-125 0 -156 -33q-32 -34 -32 -160z" />
    <glyph glyph-name="bar" unicode="|" horiz-adv-x="657" 
d="M281 -385v1931h96v-1931h-96z" />
    <glyph glyph-name="braceright" unicode="}" horiz-adv-x="761" 
d="M602 625h131v-82h-131q-105 0 -146 -38q-40 -37 -40 -143v-532q0 -130 -50 -180q-50 -49 -184 -49q-80 0 -159 18v66h104q125 0 157 32q31 32 31 160v494q0 213 224 213q-223 0 -224 213v493q0 128 -31 160q-31 33 -157 33h-104v65q77 17 159 19q134 0 184 -49
q50 -50 50 -181v-532q0 -105 40 -142q41 -38 146 -38z" />
    <glyph glyph-name="asciitilde" unicode="~" horiz-adv-x="1083" 
d="M186 434h-84q0 102 68 173t170 71q58 0 115.5 -26t97.5 -64t91 -64t99 -26q73 0 113 48q41 49 41 109h84q0 -102 -67 -172q-68 -71 -171 -71q-58 0 -115.5 26t-95.5 64q-39 39 -90.5 64.5t-101.5 25.5q-72 0 -113 -48q-41 -49 -41 -110z" />
    <glyph glyph-name="exclamdown" unicode="&#xa1;" horiz-adv-x="487" 
d="M328 1032v-166h-164v166h164zM295 -389h-98v317l18 713h61l19 -713v-317z" />
    <glyph glyph-name="cent" unicode="&#xa2;" horiz-adv-x="1222" 
d="M967 530h100q0 -154 -105 -251q-105 -96 -282 -107v-141h-80v141q-199 13 -319 161q-121 145 -121 378q0 232 121 378q121 147 319 160v154h80v-154q175 -11 279 -116q104 -107 104 -273h-100q0 290 -283 303v-909q287 14 287 276zM264 711q0 -429 336 -455v907
q-336 -19 -336 -452z" />
    <glyph glyph-name="sterling" unicode="&#xa3;" horiz-adv-x="1212" 
d="M100 80l314 8h700v-88h-1051v141q128 52 193 120q63 67 63 185q0 96 -45 191h-223v80h187q-72 143 -72 258q0 211 135 341q134 130 354 130q206 0 330 -118q125 -119 125 -310h-104q0 170 -86 252t-267 82q-381 0 -381 -375q0 -112 68 -260h571v-80h-536q39 -96 39 -186
q0 -123 -81 -222q-80 -99 -233 -149z" />
    <glyph glyph-name="currency" unicode="&#xa4;" horiz-adv-x="1409" 
d="M1276 1235l-178 -178q106 -139 106 -338t-106 -338l176 -178l-55 -56l-177 177q-130 -121 -337 -121q-208 0 -338 121l-177 -177l-55 56l176 176q-106 139 -106 340q0 199 106 338l-178 178l55 55l177 -176q133 121 340 121q206 0 339 -121l177 176zM408 406
q113 -119 297 -119t298 120q113 119 113 312q0 191 -113 312q-114 120 -298 120t-297 -119t-113 -313t113 -313z" />
    <glyph glyph-name="yen" unicode="&#xa5;" horiz-adv-x="1277" 
d="M1147 1421h106l-522 -876h402v-72h-441v-192h441v-72h-441v-209h-102v209h-440v72h440v192h-440v72h401l-524 876h112l375 -624l131 -236l129 236z" />
    <glyph glyph-name="brokenbar" unicode="&#xa6;" horiz-adv-x="657" 
d="M377 797h-96v749h96v-749zM377 -385h-96v754h96v-754z" />
    <glyph glyph-name="section" unicode="&#xa7;" horiz-adv-x="1415" 
d="M737 764q287 -57 404 -149q114 -93 114 -250v-375q0 -174 -146 -282q-146 -107 -384 -107q-253 0 -408 128t-155 339h106q0 -373 459 -373q209 0 317.5 72.5t106.5 209.5q0 81 -35 137q-34 53 -143 103q-108 49 -305 88q-284 55 -394 138t-110 227v374q0 180 147 291
q145 111 384 111q238 0 384 -130q146 -131 146 -343h-107q0 377 -426 377q-207 0 -316.5 -75t-109.5 -216q0 -113 95 -176q92 -63 376 -119zM737 389q322 -61 434 -178l3 133q-1 84 -38 140q-35 54 -149 106q-112 51 -319 90q-317 63 -422 162v-150q0 -118 99 -182
q98 -65 392 -121z" />
    <glyph glyph-name="dieresis" unicode="&#xa8;" horiz-adv-x="641" 
d="M92 1311v155h148v-155h-148zM401 1311v155h148v-155h-148z" />
    <glyph glyph-name="copyright" unicode="&#xa9;" horiz-adv-x="1667" 
d="M1369 178q-205 -203 -535 -203q-331 0 -536 203q-204 202 -204 533q0 329 204 532q205 203 536 203q330 0 535 -203q204 -203 204 -532q0 -331 -204 -533zM362 236q178 -181 472 -181q292 0 472 181q179 181 179 475t-179 475q-180 180 -472 180q-294 0 -472 -180
q-180 -180 -180 -475t180 -475zM1087 582h89q0 -121 -89 -195q-91 -74 -235 -74q-164 0 -263 109q-100 107 -100 289q0 179 100 288q99 109 263 109q142 0 231 -80q88 -79 88 -211h-86q0 217 -233 217q-272 0 -272 -323q0 -324 272 -324q121 0 178 47t57 148z" />
    <glyph glyph-name="ordfeminine" unicode="&#xaa;" horiz-adv-x="870" 
d="M745 680h27v-47q-40 -8 -84 -8q-60 0 -86.5 33t-26.5 108v31q-31 -85 -102 -132t-170 -47q-92 0 -148.5 42t-56.5 112q0 131 197 172q169 35 278 64v39q0 203 -184 203q-184 -1 -184 -197h-84q0 117 75 190q74 72 193 72q125 0 196.5 -67.5t71.5 -184.5v-266
q0 -78 16 -97q15 -20 72 -20zM317 682q118 0 187 62t69 169v45q-90 -24 -258 -61q-129 -33 -129 -119q0 -96 131 -96z" />
    <glyph glyph-name="guillemotleft" unicode="&#xab;" horiz-adv-x="923" 
d="M367 907h114l-372 -379l372 -378h-114l-316 321v115zM766 907h113l-373 -379l373 -378h-113l-315 321v115z" />
    <glyph glyph-name="logicalnot" unicode="&#xac;" horiz-adv-x="1011" 
d="M102 582h807v-367h-86v283h-721v84z" />
    <glyph glyph-name="registered" unicode="&#xae;" horiz-adv-x="1001" 
d="M502 1446q185 0 297 -112t112 -296t-112 -295q-112 -112 -297 -112q-187 0 -299 112q-113 111 -113 295q0 182 113 295t299 113zM252 786q94 -94 250 -94q154 0 249 95q93 95 93 251q0 155 -94 250q-94 96 -248 96q-156 0 -250 -96q-94 -95 -94 -250q0 -158 94 -252z
M584 1014l32 -37l93 -129h-66l-117 162h-112v-162h-62v389h201q55 0 89 -31.5t34 -83.5q0 -91 -92 -108zM522 1190h-108v-133h108q90 0 90 65q0 68 -90 68z" />
    <glyph glyph-name="overscore" unicode="&#xaf;" horiz-adv-x="727" 
d="M92 1436h543v-82h-543v82z" />
    <glyph glyph-name="degree" unicode="&#xb0;" horiz-adv-x="790" 
d="M621 908q-85 -87 -225 -87t-226 86t-86 228q0 139 86 225t226 86q139 0 225 -86t86 -225q0 -141 -86 -227zM228 961q63 -66 168 -66q104 0 168 66q63 65 63 174q0 106 -63 172q-65 65 -168 65q-105 0 -168 -65q-64 -65 -64 -172q0 -110 64 -174z" />
    <glyph glyph-name="plusminus" unicode="&#xb1;" horiz-adv-x="960" 
d="M522 938v-274h336v-82h-336v-275h-84v275h-336v82h336v274h84zM858 104h-756v84h756v-84z" />
    <glyph glyph-name="uni00B2" unicode="&#xb2;" horiz-adv-x="686" 
d="M121 958l158 5h331v-76h-528v127l321 213q64 41 83 69q20 28 20 80q0 133 -156 133q-170 0 -170 -166h-94q0 112 73 179q71 67 191 67q114 0 181 -57t67 -152q0 -68 -36 -115q-35 -47 -120 -100l-241 -159z" />
    <glyph glyph-name="uni00B3" unicode="&#xb3;" horiz-adv-x="681" 
d="M412 1239q186 -17 186 -172q0 -89 -73 -141q-73 -54 -195 -54q-119 0 -190 62q-72 62 -72 164h94q0 -147 170 -147q170 -2 170 122q0 60 -35.5 87.5t-114.5 27.5h-127v72h111q139 0 139 116q0 133 -147 133q-156 0 -156 -153h-96q0 104 69 169q67 64 181 64
q108 0 176 -54q67 -54 67 -142q0 -62 -41 -103t-116 -51z" />
    <glyph glyph-name="acute" unicode="&#xb4;" horiz-adv-x="409" 
d="M104 1247l119 299h121l-156 -299h-84z" />
    <glyph glyph-name="paragraph" unicode="&#xb6;" horiz-adv-x="1376" 
d="M469 1421h831v-88h-225v-1718h-104v1718h-283v-1718h-102v1057h-115q-188 0 -304 104t-116 271q0 170 115 272q116 102 303 102z" />
    <glyph glyph-name="middot" unicode="&#xb7;" horiz-adv-x="413" 
d="M125 459v166h164v-166h-164z" />
    <glyph glyph-name="cedilla" unicode="&#xb8;" horiz-adv-x="499" 
d="M182 -141h74q74 0 119 -38t45 -102q0 -65 -47 -104t-123 -39h-158v68h152q45 0 65.5 18.5t20.5 58.5q0 76 -86 76h-133v51l61 152h64z" />
    <glyph glyph-name="uni00B9" unicode="&#xb9;" horiz-adv-x="425" 
d="M145 1569h172v-682h-90v514l2 145l-55 -51l-154 -133v98z" />
    <glyph glyph-name="ordmasculine" unicode="&#xba;" horiz-adv-x="835" 
d="M649 715q-88 -97 -231 -97t-232 96q-88 94 -88 253q0 158 88 253q89 95 232 95q142 0 231 -96q88 -97 88 -252q0 -157 -88 -252zM186 967q0 -281 232 -281q231 0 231 281q0 279 -231 279q-232 -1 -232 -279z" />
    <glyph glyph-name="guillemotright" unicode="&#xbb;" horiz-adv-x="923" 
d="M473 586v-115l-315 -321h-115l373 378l-373 379h115zM442 907h113l317 -321v-115l-317 -321h-113l373 378z" />
    <glyph glyph-name="onequarter" unicode="&#xbc;" horiz-adv-x="1458" 
d="M98 0l1168 1434h94l-1170 -1434h-92zM410 1274l4 127l-47 -45l-134 -117v90l103 92h156v-592h-82v445zM1047 592h137v-389h104v-66h-104v-137h-80v137h-287v137zM836 201l100 2h168v229l4 141z" />
    <glyph glyph-name="onehalf" unicode="&#xbd;" horiz-adv-x="1458" 
d="M98 0l1168 1434h94l-1170 -1434h-92zM418 1274l2 127l-47 -45l-133 -117v90l104 92h154v-592h-80v445zM973 109l-76 -46l141 3h289v-66h-459v117l279 184q56 38 72 61q16 22 16 70q0 115 -133 115q-150 0 -150 -146h-82q0 97 64 155q62 58 168 58q96 0 154.5 -49
t58.5 -131q0 -58 -30.5 -99t-104.5 -87z" />
    <glyph glyph-name="threequarters" unicode="&#xbe;" horiz-adv-x="1458" 
d="M381 891q75 0 112.5 26.5t36.5 79.5q0 52 -31 75.5t-102 23.5h-108v63h96q121 0 121 101q0 118 -129 116q-135 0 -135 -135h-84q0 93 59 149t160 56q94 0 153 -47q58 -46 58 -125q0 -110 -135 -133q161 -17 159 -150q0 -77 -64 -123q-65 -47 -169 -47q-103 0 -164 55
q-63 54 -63 142h81q1 -127 148 -127zM98 0l1168 1434h94l-1170 -1434h-92zM1022 592h135v-389h107v-66h-107v-137h-78v137h-286v137zM811 201l100 2h168v229l4 141z" />
    <glyph glyph-name="questiondown" unicode="&#xbf;" horiz-adv-x="1030" 
d="M485 1044h164v-165h-164v165zM881 14h96q0 -185 -116 -301q-115 -114 -306 -114q-185 0 -300 104q-114 103 -114 277q0 129 79 219t220 123l86 18l13 326h57l14 -383l-139 -27q-123 -23 -177 -88t-54 -188q0 -154 74.5 -224.5t238.5 -70.5q170 0 249 79.5t79 249.5z" />
    <glyph glyph-name="Agrave" unicode="&#xc0;" horiz-adv-x="1372" 
d="M610 1935l119 -299h-80l-157 299h118zM1317 0h-109l-182 475h-688l-180 -475h-105l535 1421h182zM586 1135l-215 -572h620l-219 572l-94 254z" />
    <glyph glyph-name="Aacute" unicode="&#xc1;" horiz-adv-x="1372" 
d="M762 1935h119l-156 -299h-82zM1317 0h-109l-182 475h-688l-180 -475h-105l535 1421h182zM586 1135l-215 -572h620l-219 572l-94 254z" />
    <glyph glyph-name="Acircumflex" unicode="&#xc2;" horiz-adv-x="1372" 
d="M879 1636l-189 269l-190 -269h-103l219 299h146l219 -299h-102zM1317 0h-109l-182 475h-688l-180 -475h-105l535 1421h182zM586 1135l-215 -572h620l-219 572l-94 254z" />
    <glyph glyph-name="Atilde" unicode="&#xc3;" horiz-adv-x="1372" 
d="M528 1810q-119 0 -118 -145h-72q0 104 52 168q52 63 140 63q61 0 113 -37q43 -31 98 -76q47 -38 101 -38q63 0 92 36t29 111h71q0 -105 -52 -167q-52 -64 -140 -64q-74 0 -162 75q-89 74 -152 74zM1317 0h-109l-182 475h-688l-180 -475h-105l535 1421h182zM586 1135
l-215 -572h620l-219 572l-94 254z" />
    <glyph glyph-name="Adieresis" unicode="&#xc4;" horiz-adv-x="1372" 
d="M461 1855h147v-155h-147v155zM770 1855h148v-155h-148v155zM1317 0h-109l-182 475h-688l-180 -475h-105l535 1421h182zM586 1135l-215 -572h620l-219 572l-94 254z" />
    <glyph glyph-name="Aring" unicode="&#xc5;" horiz-adv-x="1372" 
d="M813 1672q-47 -44 -125 -44q-79 0 -126 43q-48 43 -48 115q0 70 48 113t126 43q79 0 125 -43q47 -44 47 -113q0 -70 -47 -114zM688 1884q-61 0 -87 -22.5t-26 -75.5q0 -54 26 -77t87 -23q60 0 85.5 23t25.5 77q0 53 -25.5 75.5t-85.5 22.5zM1317 0h-109l-182 475h-688
l-180 -475h-105l535 1421h182zM586 1135l-215 -572h620l-219 572l-94 254z" />
    <glyph glyph-name="AE" unicode="&#xc6;" horiz-adv-x="2015" 
d="M1057 674l225 -586h528v-88h-602l-182 475h-688l-180 -475h-105l535 1421h1210v-88h-993l219 -571h733v-88h-700zM586 1135l-215 -572h620l-219 572l-94 254z" />
    <glyph glyph-name="Ccedilla" unicode="&#xc7;" horiz-adv-x="1550" 
d="M829 70q472 0 474 395h104q0 -221 -156 -353q-158 -133 -405 -137l-45 -116h73q74 0 119 -38t45 -102q0 -65 -47 -104t-123 -39h-157v68h151q45 0 65.5 18.5t20.5 58.5q0 76 -86 76h-133v51l51 129q-276 17 -444 217q-168 201 -168 517q0 330 182 533q181 202 479 202
q254 0 417 -139t163 -371h-106q0 414 -474 414q-273 0 -413 -162t-140 -477q0 -317 140 -479t413 -162z" />
    <glyph glyph-name="Egrave" unicode="&#xc8;" horiz-adv-x="1368" 
d="M627 1935l118 -299h-79l-158 299h119zM385 674v-586h776v-88h-880v1421h868v-88h-764v-571h723v-88h-723z" />
    <glyph glyph-name="Eacute" unicode="&#xc9;" horiz-adv-x="1368" 
d="M780 1935h119l-156 -299h-81zM385 674v-586h776v-88h-880v1421h868v-88h-764v-571h723v-88h-723z" />
    <glyph glyph-name="Ecircumflex" unicode="&#xca;" horiz-adv-x="1368" 
d="M895 1636l-188 269l-191 -269h-102l219 299h145l219 -299h-102zM385 674v-586h776v-88h-880v1421h868v-88h-764v-571h723v-88h-723z" />
    <glyph glyph-name="Edieresis" unicode="&#xcb;" horiz-adv-x="1368" 
d="M477 1855h148v-155h-148v155zM786 1855h148v-155h-148v155zM385 674v-586h776v-88h-880v1421h868v-88h-764v-571h723v-88h-723z" />
    <glyph glyph-name="Igrave" unicode="&#xcc;" horiz-adv-x="665" 
d="M137 1935h119l119 -299h-80zM281 0v1421h104v-1421h-104z" />
    <glyph glyph-name="Iacute" unicode="&#xcd;" horiz-adv-x="665" 
d="M289 1636l119 299h118l-155 -299h-82zM281 0v1421h104v-1421h-104z" />
    <glyph glyph-name="Icircumflex" unicode="&#xce;" horiz-adv-x="665" 
d="M262 1935h146l219 -299h-103l-188 269l-191 -269h-102zM385 0h-104v1421h104v-1421z" />
    <glyph glyph-name="Idieresis" unicode="&#xcf;" horiz-adv-x="665" 
d="M106 1700v155h148v-155h-148zM416 1700v155h147v-155h-147zM281 0v1421h104v-1421h-104z" />
    <glyph glyph-name="Eth" unicode="&#xd0;" horiz-adv-x="1634" 
d="M281 1421h538q291 0 469 -195q178 -196 178 -515q0 -321 -178 -515q-178 -196 -469 -196h-538v670h-254v86h254v665zM385 88h420q270 0 411.5 159t141.5 464t-141.5 463.5t-411.5 158.5h-420v-577h410v-86h-410v-582z" />
    <glyph glyph-name="Ntilde" unicode="&#xd1;" horiz-adv-x="1654" 
d="M674 1810q-119 0 -119 -145h-72q0 103 53 168q52 63 140 63q61 0 113 -37q43 -31 98 -76q47 -38 100 -38q63 0 92 36t29 111h72q0 -105 -52 -167q-52 -64 -141 -64q-73 0 -162 75q-89 74 -151 74zM1270 438v983h104v-1421h-178l-819 1376l8 -338v-1038h-104v1421h180
l817 -1372z" />
    <glyph glyph-name="Ograve" unicode="&#xd2;" horiz-adv-x="1669" 
d="M645 1948h119l119 -299h-80zM842 -25q-303 0 -488 203q-186 203 -186 533q0 329 186 532q185 203 488 203q296 0 478 -203q181 -202 181 -532q0 -331 -181 -533q-182 -203 -478 -203zM842 70q270 0 410.5 163t140.5 478t-140.5 477t-410.5 162q-279 0 -422.5 -162
t-143.5 -477q0 -316 143.5 -478.5t422.5 -162.5z" />
    <glyph glyph-name="Oacute" unicode="&#xd3;" horiz-adv-x="1669" 
d="M797 1649l118 299h119l-155 -299h-82zM842 -25q-303 0 -488 203q-186 203 -186 533q0 329 186 532q185 203 488 203q296 0 478 -203q181 -202 181 -532q0 -331 -181 -533q-182 -203 -478 -203zM842 70q270 0 410.5 163t140.5 478t-140.5 477t-410.5 162
q-279 0 -422.5 -162t-143.5 -477q0 -316 143.5 -478.5t422.5 -162.5z" />
    <glyph glyph-name="Ocircumflex" unicode="&#xd4;" horiz-adv-x="1669" 
d="M1032 1649l-188 268l-191 -268h-102l219 299h145l220 -299h-103zM842 1446q296 0 478 -203q181 -202 181 -532q0 -331 -181 -533q-182 -203 -478 -203q-303 0 -488 203q-186 203 -186 533q0 329 186 532q185 203 488 203zM842 70q270 0 410.5 163t140.5 478t-140.5 477
t-410.5 162q-279 0 -422.5 -162t-143.5 -477q0 -316 143.5 -478.5t422.5 -162.5z" />
    <glyph glyph-name="Otilde" unicode="&#xd5;" horiz-adv-x="1669" 
d="M995 1673q-73 0 -162 75q-88 75 -151 75q-119 0 -119 -146h-71q0 104 52 168t140 64q34 2 69.5 -14t64.5 -39t57 -46t59.5 -39t60.5 -14q63 0 92 36t29 112h72q0 -104 -52 -168t-141 -64zM842 -25q-303 0 -488 203q-186 203 -186 533q0 329 186 532q185 203 488 203
q296 0 478 -203q181 -202 181 -532q0 -331 -181 -533q-182 -203 -478 -203zM842 70q270 0 410.5 163t140.5 478t-140.5 477t-410.5 162q-279 0 -422.5 -162t-143.5 -477q0 -316 143.5 -478.5t422.5 -162.5z" />
    <glyph glyph-name="Odieresis" unicode="&#xd6;" horiz-adv-x="1669" 
d="M614 1712v156h148v-156h-148zM924 1712v156h147v-156h-147zM842 -25q-303 0 -488 203q-186 203 -186 533q0 329 186 532q185 203 488 203q296 0 478 -203q181 -202 181 -532q0 -331 -181 -533q-182 -203 -478 -203zM842 70q270 0 410.5 163t140.5 478t-140.5 477
t-410.5 162q-279 0 -422.5 -162t-143.5 -477q0 -316 143.5 -478.5t422.5 -162.5z" />
    <glyph glyph-name="multiply" unicode="&#xd7;" horiz-adv-x="856" 
d="M485 535l281 -283l-57 -57l-281 282l-283 -282l-55 57l281 280l-281 281l57 57l281 -280l281 280l55 -57z" />
    <glyph glyph-name="Oslash" unicode="&#xd8;" horiz-adv-x="1669" 
d="M1479 1546l-191 -270q213 -202 213 -565q0 -331 -181 -533q-182 -203 -478 -203q-221 0 -385 113l-158 -223h-109l197 280q-219 202 -219 566q0 331 186 533q184 202 488 202q214 0 377 -113l149 213h111zM276 711q0 -335 160 -496l733 1047q-127 88 -327 88
q-279 0 -422.5 -162t-143.5 -477zM842 70q270 0 410.5 163t140.5 478q0 330 -154 493l-733 -1046q133 -88 336 -88z" />
    <glyph glyph-name="Ugrave" unicode="&#xd9;" horiz-adv-x="1585" 
d="M596 1935h119l119 -299h-80zM244 487v934h104v-927q0 -424 445 -424q444 0 444 424v927h104v-934q0 -231 -150 -371q-151 -141 -398 -141q-248 0 -398 141q-151 139 -151 371z" />
    <glyph glyph-name="Uacute" unicode="&#xda;" horiz-adv-x="1585" 
d="M750 1636l118 299h119l-156 -299h-81zM244 487v934h104v-927q0 -424 445 -424q444 0 444 424v927h104v-934q0 -231 -150 -371q-151 -141 -398 -141q-248 0 -398 141q-151 139 -151 371z" />
    <glyph glyph-name="Ucircumflex" unicode="&#xdb;" horiz-adv-x="1585" 
d="M983 1636l-188 269l-191 -269h-102l219 299h145l219 -299h-102zM1237 494v927h104v-934q0 -231 -150 -371q-151 -141 -398 -141q-248 0 -398 141q-151 139 -151 371v934h104v-927q0 -424 445 -424q444 0 444 424z" />
    <glyph glyph-name="Udieresis" unicode="&#xdc;" horiz-adv-x="1585" 
d="M565 1700v155h148v-155h-148zM874 1700v155h148v-155h-148zM244 487v934h104v-927q0 -424 445 -424q444 0 444 424v927h104v-934q0 -231 -150 -371q-151 -141 -398 -141q-248 0 -398 141q-151 139 -151 371z" />
    <glyph glyph-name="Yacute" unicode="&#xdd;" horiz-adv-x="1277" 
d="M717 1935h119l-156 -299h-82zM774 797l373 624h106l-561 -940v-481h-102v481l-563 940h112l375 -624l131 -236z" />
    <glyph glyph-name="Thorn" unicode="&#xde;" horiz-adv-x="1390" 
d="M385 1114h446q187 0 303 -108q115 -109 115 -285q0 -180 -120 -288q-121 -109 -320 -109h-424v-324h-104v1421h104v-307zM385 412h428q170 0 249 74.5t79 234.5q0 159 -79 233t-249 74h-428v-616z" />
    <glyph glyph-name="germandbls" unicode="&#xdf;" horiz-adv-x="1400" 
d="M1028 569q211 -50 283 -122q73 -73 73 -193q0 -126 -103 -202q-104 -77 -271 -77q-191 0 -307 97q-117 96 -117 256h100q0 -137 80 -204t246 -67q274 0 274 187q0 106 -52 154t-245 91q-180 42 -260 101.5t-80 146.5q0 92 62 154t196 117q149 57 192 98q42 40 42 125
q0 127 -95.5 188.5t-293.5 61.5q-215 0 -318.5 -80t-103.5 -248v-1153h-99v1171q0 177 144 286q143 110 377 110q218 0 354 -92q135 -93 135 -242q0 -105 -63 -166q-64 -63 -203 -121q-144 -56 -187 -95q-43 -37 -43 -106q0 -66 56 -101q56 -36 227 -75z" />
    <glyph glyph-name="agrave" unicode="&#xe0;" horiz-adv-x="1161" 
d="M504 1546l119 -299h-80l-158 299h119zM1085 68h41v-68q-59 -14 -100 -14q-90 0 -130 51t-40 170v49q-43 -129 -154 -205q-112 -76 -268 -76q-138 0 -220 66q-83 65 -83 174q0 100 69 165t222 97q373 83 432 103v59q0 174 -71.5 256t-221.5 82q-301 0 -301 -326h-100
q0 181 111 294q109 112 290 112q180 0 285 -105q104 -107 104 -288v-412q0 -120 24 -152q23 -32 111 -32zM455 57q180 0 290 101q109 100 109 276v82q-80 -22 -399 -96q-117 -26 -168 -73.5t-51 -123.5q0 -80 56.5 -123t162.5 -43z" />
    <glyph glyph-name="aacute" unicode="&#xe1;" horiz-adv-x="1161" 
d="M655 1546h121l-155 -299h-84zM1085 68h41v-68q-59 -14 -100 -14q-90 0 -130 51t-40 170v49q-43 -129 -154 -205q-112 -76 -268 -76q-138 0 -220 66q-83 65 -83 174q0 100 69 165t222 97q373 83 432 103v59q0 174 -71.5 256t-221.5 82q-301 0 -301 -326h-100
q0 181 111 294q109 112 290 112q180 0 285 -105q104 -107 104 -288v-412q0 -120 24 -152q23 -32 111 -32zM455 57q180 0 290 101q109 100 109 276v82q-80 -22 -399 -96q-117 -26 -168 -73.5t-51 -123.5q0 -80 56.5 -123t162.5 -43z" />
    <glyph glyph-name="acircumflex" unicode="&#xe2;" horiz-adv-x="1161" 
d="M772 1247l-188 269l-191 -269h-102l219 299h145l219 -299h-102zM1085 68h41v-68q-59 -14 -100 -14q-90 0 -130 51t-40 170v49q-43 -129 -154 -205q-112 -76 -268 -76q-138 0 -220 66q-83 65 -83 174q0 100 69 165t222 97q373 83 432 103v59q0 174 -71.5 256t-221.5 82
q-301 0 -301 -326h-100q0 181 111 294q109 112 290 112q180 0 285 -105q104 -107 104 -288v-412q0 -120 24 -152q23 -32 111 -32zM455 57q180 0 290 101q109 100 109 276v82q-80 -22 -399 -96q-117 -26 -168 -73.5t-51 -123.5q0 -80 56.5 -123t162.5 -43z" />
    <glyph glyph-name="atilde" unicode="&#xe3;" horiz-adv-x="1161" 
d="M424 1421q-119 0 -119 -145h-72q0 103 53 168q53 63 140 63q61 0 113 -37q43 -31 98 -76q47 -38 100 -38q63 0 92 35.5t29 111.5h72q0 -105 -52 -167q-52 -64 -141 -64q-73 0 -162 75q-89 74 -151 74zM1085 68h41v-68q-59 -14 -100 -14q-90 0 -130 51t-40 170v49
q-43 -129 -154 -205q-112 -76 -268 -76q-138 0 -220 66q-83 65 -83 174q0 100 69 165t222 97q373 83 432 103v59q0 174 -71.5 256t-221.5 82q-301 0 -301 -326h-100q0 181 111 294q109 112 290 112q180 0 285 -105q104 -107 104 -288v-412q0 -120 24 -152q23 -32 111 -32z
M455 57q180 0 290 101q109 100 109 276v82q-80 -22 -399 -96q-117 -26 -168 -73.5t-51 -123.5q0 -80 56.5 -123t162.5 -43z" />
    <glyph glyph-name="adieresis" unicode="&#xe4;" horiz-adv-x="1161" 
d="M356 1466h148v-155h-148v155zM666 1466h147v-155h-147v155zM1085 68h41v-68q-59 -14 -100 -14q-90 0 -130 51t-40 170v49q-43 -129 -154 -205q-112 -76 -268 -76q-138 0 -220 66q-83 65 -83 174q0 100 69 165t222 97q373 83 432 103v59q0 174 -71.5 256t-221.5 82
q-301 0 -301 -326h-100q0 181 111 294q109 112 290 112q180 0 285 -105q104 -107 104 -288v-412q0 -120 24 -152q23 -32 111 -32zM455 57q180 0 290 101q109 100 109 276v82q-80 -22 -399 -96q-117 -26 -168 -73.5t-51 -123.5q0 -80 56.5 -123t162.5 -43z" />
    <glyph glyph-name="aring" unicode="&#xe5;" horiz-adv-x="1161" 
d="M709 1283q-47 -44 -125 -44q-79 0 -126 43q-48 44 -48 115q0 70 48 112.5t126 42.5q79 0 125 -43q47 -44 47 -112q0 -70 -47 -114zM584 1495q-61 0 -87 -22.5t-26 -75.5q0 -55 25.5 -78t87.5 -23q60 0 85 22.5t25 78.5q0 53 -25.5 75.5t-84.5 22.5zM1085 68h41v-68
q-59 -14 -100 -14q-90 0 -130 51t-40 170v49q-43 -129 -154 -205q-112 -76 -268 -76q-138 0 -220 66q-83 65 -83 174q0 100 69 165t222 97q373 83 432 103v59q0 174 -71.5 256t-221.5 82q-301 0 -301 -326h-100q0 181 111 294q109 112 290 112q180 0 285 -105
q104 -107 104 -288v-412q0 -120 24 -152q23 -32 111 -32zM455 57q180 0 290 101q109 100 109 276v82q-80 -22 -399 -96q-117 -26 -168 -73.5t-51 -123.5q0 -80 56.5 -123t162.5 -43z" />
    <glyph glyph-name="ae" unicode="&#xe6;" horiz-adv-x="1947" 
d="M1792 571v-82h-829q12 -430 374 -430q177 0 261.5 64.5t84.5 200.5h103q0 -156 -123 -252q-122 -97 -326 -97q-167 0 -285 95q-117 94 -161 262q-27 -161 -146 -259q-121 -98 -303 -98q-140 0 -225 66q-86 65 -86 174q0 199 297 262q398 91 432 103v59q0 338 -293 338
q-301 0 -301 -326h-98q0 181 111 293q110 113 288 113q138 0 232 -67.5t129 -190.5q57 123 163.5 190.5t245.5 67.5q205 0 330 -134q125 -136 125 -352zM963 559l301 4h430q-8 408 -357 408q-356 0 -374 -412zM463 57q179 0 289 101q108 100 108 276v82q-86 -27 -399 -96
q-119 -27 -172 -74.5t-53 -122.5q0 -80 58 -123t169 -43z" />
    <glyph glyph-name="ccedilla" unicode="&#xe7;" horiz-adv-x="1222" 
d="M967 336h100q0 -156 -108 -254q-110 -98 -289 -107l-45 -116h73q74 0 119 -38t45 -102q0 -65 -47 -104t-123 -39h-157v68h151q45 0 65.5 18.5t20.5 58.5q0 76 -86 76h-133v51l51 129q-201 12 -322 160q-122 149 -122 379q0 244 132 393q132 148 349 148q190 0 306 -107
q116 -108 116 -284h-100q0 305 -322 305q-377 0 -377 -455q0 -457 377 -457q166 0 246 68t80 209z" />
    <glyph glyph-name="egrave" unicode="&#xe8;" horiz-adv-x="1249" 
d="M563 1546l119 -299h-80l-158 299h119zM1094 571v-82h-830q12 -430 381 -430q167 0 253.5 68.5t86.5 196.5h102q0 -148 -123 -248q-125 -101 -319 -101q-218 0 -352 149q-133 148 -133 392t131 393q130 148 348 148q205 0 330 -134q125 -136 125 -352zM264 559l301 4h430
q-7 408 -356 408q-357 0 -375 -412z" />
    <glyph glyph-name="eacute" unicode="&#xe9;" horiz-adv-x="1249" 
d="M717 1546h121l-156 -299h-84zM1094 571v-82h-830q12 -430 381 -430q167 0 253.5 68.5t86.5 196.5h102q0 -148 -123 -248q-125 -101 -319 -101q-218 0 -352 149q-133 148 -133 392t131 393q130 148 348 148q205 0 330 -134q125 -136 125 -352zM264 559l301 4h430
q-7 408 -356 408q-357 0 -375 -412z" />
    <glyph glyph-name="ecircumflex" unicode="&#xea;" horiz-adv-x="1249" 
d="M834 1247l-189 269l-190 -269h-103l219 299h146l219 -299h-102zM1094 571v-82h-830q12 -430 381 -430q167 0 253.5 68.5t86.5 196.5h102q0 -148 -123 -248q-125 -101 -319 -101q-218 0 -352 149q-133 148 -133 392t131 393q130 148 348 148q205 0 330 -134
q125 -136 125 -352zM264 559l301 4h430q-7 408 -356 408q-357 0 -375 -412z" />
    <glyph glyph-name="edieresis" unicode="&#xeb;" horiz-adv-x="1249" 
d="M416 1466h147v-155h-147v155zM725 1466h147v-155h-147v155zM1094 571v-82h-830q12 -430 381 -430q167 0 253.5 68.5t86.5 196.5h102q0 -148 -123 -248q-125 -101 -319 -101q-218 0 -352 149q-133 148 -133 392t131 393q130 148 348 148q205 0 330 -134q125 -136 125 -352
zM264 559l301 4h430q-7 408 -356 408q-357 0 -375 -412z" />
    <glyph glyph-name="igrave" unicode="&#xec;" horiz-adv-x="550" 
d="M84 1546h119l119 -299h-80zM231 0v1032h99v-1032h-99z" />
    <glyph glyph-name="iacute" unicode="&#xed;" horiz-adv-x="550" 
d="M236 1247l118 299h121l-156 -299h-83zM231 0v1032h99v-1032h-99z" />
    <glyph glyph-name="icircumflex" unicode="&#xee;" horiz-adv-x="550" 
d="M209 1546h145l219 -299h-102l-188 269l-191 -269h-102zM330 0h-99v1032h99v-1032z" />
    <glyph glyph-name="idieresis" unicode="&#xef;" horiz-adv-x="550" 
d="M53 1311v155h148v-155h-148zM362 1311v155h148v-155h-148zM231 0v1032h99v-1032h-99z" />
    <glyph glyph-name="eth" unicode="&#xf0;" horiz-adv-x="1253" 
d="M1014 1546l-197 -184q305 -219 305 -696q0 -326 -129 -508q-129 -183 -358 -183q-213 0 -344 146t-131 383q0 225 126 363q126 137 332 137q157 0 264 -85q108 -87 142 -227q0 230 -62.5 376t-199.5 232l-197 -182h-102l233 219q-72 35 -155 60l-293 82v92l258 -68
q152 -41 252 -102l155 145h101zM264 504q0 -438 371 -438t371 438q0 412 -369 411q-373 0 -373 -411z" />
    <glyph glyph-name="ntilde" unicode="&#xf1;" horiz-adv-x="1312" 
d="M526 1421q-119 0 -118 -145h-72q0 104 52 168q52 63 140 63q61 0 113 -37q43 -31 98 -76q47 -38 101 -38q63 0 92 35.5t29 111.5h71q0 -105 -52 -167q-52 -64 -140 -64q-74 0 -162 75q-89 74 -152 74zM715 1057q169 0 272 -106t103 -283v-668h-99v625q0 182 -71.5 263
t-231.5 81q-170 0 -264 -95.5t-94 -269.5v-604h-99v1032h95v-231q49 125 149.5 190.5t239.5 65.5z" />
    <glyph glyph-name="ograve" unicode="&#xf2;" horiz-adv-x="1284" 
d="M444 1546h119l119 -299h-80zM992 124q-132 -149 -349 -149q-216 0 -350 149q-133 148 -133 392q0 245 133 393t350 148t349 -148q132 -149 132 -393t-132 -392zM643 59q377 0 377 457q0 455 -377 455q-379 0 -379 -455q0 -457 379 -457z" />
    <glyph glyph-name="oacute" unicode="&#xf3;" horiz-adv-x="1284" 
d="M596 1247l119 299h121l-156 -299h-84zM992 124q-132 -149 -349 -149q-216 0 -350 149q-133 148 -133 392q0 245 133 393t350 148t349 -148q132 -149 132 -393t-132 -392zM643 59q377 0 377 457q0 455 -377 455q-379 0 -379 -455q0 -457 379 -457z" />
    <glyph glyph-name="ocircumflex" unicode="&#xf4;" horiz-adv-x="1284" 
d="M834 1247l-189 269l-190 -269h-103l219 299h146l219 -299h-102zM293 909q133 148 350 148t349 -148q132 -149 132 -393t-132 -392q-132 -149 -349 -149q-216 0 -350 149q-133 148 -133 392q0 245 133 393zM643 59q377 0 377 457q0 455 -377 455q-379 0 -379 -455
q0 -457 379 -457z" />
    <glyph glyph-name="otilde" unicode="&#xf5;" horiz-adv-x="1284" 
d="M797 1272q-73 0 -162 75q-89 74 -152 74q-119 0 -118 -145h-72q0 104 52 168q53 63 140 63q61 0 113 -37q43 -31 98 -76q47 -38 101 -38q63 0 92 35.5t29 111.5h71q0 -105 -52 -167q-52 -64 -140 -64zM992 124q-132 -149 -349 -149q-216 0 -350 149q-133 148 -133 392
q0 245 133 393t350 148t349 -148q132 -149 132 -393t-132 -392zM643 59q377 0 377 457q0 455 -377 455q-379 0 -379 -455q0 -457 379 -457z" />
    <glyph glyph-name="odieresis" unicode="&#xf6;" horiz-adv-x="1284" 
d="M416 1311v155h147v-155h-147zM725 1311v155h147v-155h-147zM992 124q-132 -149 -349 -149q-216 0 -350 149q-133 148 -133 392q0 245 133 393t350 148t349 -148q132 -149 132 -393t-132 -392zM643 59q377 0 377 457q0 455 -377 455q-379 0 -379 -455q0 -457 379 -457z
" />
    <glyph glyph-name="divide" unicode="&#xf7;" horiz-adv-x="1038" 
d="M438 795v166h166v-166h-166zM102 573h834v-84h-834v84zM438 102v166h166v-166h-166z" />
    <glyph glyph-name="oslash" unicode="&#xf8;" horiz-adv-x="1302" 
d="M1098 1186l110 2l-213 -281q133 -145 133 -391q0 -244 -132 -392q-132 -149 -349 -149q-169 0 -287 91l-159 -209l-111 -2l205 270q-131 151 -131 391q0 245 133 393t350 148q162 0 285 -90zM268 516q0 -208 80 -321l535 708q-89 68 -236 68q-379 0 -379 -455zM1024 516
q0 208 -80 324l-536 -709q94 -72 239 -72q377 0 377 457z" />
    <glyph glyph-name="ugrave" unicode="&#xf9;" horiz-adv-x="1298" 
d="M567 1546l119 -299h-80l-157 299h118zM971 420v612h98v-1032h-94v223q-47 -120 -147.5 -184t-239.5 -64q-164 0 -263 108q-100 106 -100 282v667h99v-624q0 -183 70.5 -265t228.5 -82q166 0 257 93.5t91 265.5z" />
    <glyph glyph-name="uacute" unicode="&#xfa;" horiz-adv-x="1298" 
d="M719 1546h121l-156 -299h-84zM971 420v612h98v-1032h-94v223q-47 -120 -147.5 -184t-239.5 -64q-164 0 -263 108q-100 106 -100 282v667h99v-624q0 -183 70.5 -265t228.5 -82q166 0 257 93.5t91 265.5z" />
    <glyph glyph-name="ucircumflex" unicode="&#xfb;" horiz-adv-x="1298" 
d="M836 1247l-189 269l-190 -269h-103l219 299h146l219 -299h-102zM971 420v612h98v-1032h-94v223q-47 -120 -147.5 -184t-239.5 -64q-164 0 -263 108q-100 106 -100 282v667h99v-624q0 -183 70.5 -265t228.5 -82q166 0 257 93.5t91 265.5z" />
    <glyph glyph-name="udieresis" unicode="&#xfc;" horiz-adv-x="1298" 
d="M420 1466h147v-155h-147v155zM729 1466h148v-155h-148v155zM971 420v612h98v-1032h-94v223q-47 -120 -147.5 -184t-239.5 -64q-164 0 -263 108q-100 106 -100 282v667h99v-624q0 -183 70.5 -265t228.5 -82q166 0 257 93.5t91 265.5z" />
    <glyph glyph-name="yacute" unicode="&#xfd;" horiz-adv-x="1073" 
d="M596 1546h121l-156 -299h-84zM633 285l299 747h100l-495 -1222q-86 -209 -258 -209q-75 0 -136 14v70h115q78 0 115 27q37 28 71 110l74 178h-61l-418 1032h104l301 -747l93 -242z" />
    <glyph glyph-name="thorn" unicode="&#xfe;" horiz-adv-x="1349" 
d="M725 1057q211 0 338 -148t127 -393q0 -244 -127 -392q-128 -149 -338 -149q-134 0 -240 68q-105 66 -155 193v-689h-99v1999h95v-774q47 137 154 211t245 74zM709 59q377 0 376 457q0 455 -376 455q-379 0 -379 -455q0 -457 379 -457z" />
    <glyph glyph-name="ydieresis" unicode="&#xff;" horiz-adv-x="1073" 
d="M297 1466h147v-155h-147v155zM606 1466h148v-155h-148v155zM633 285l299 747h100l-495 -1222q-86 -209 -258 -209q-75 0 -136 14v70h115q78 0 115 27q37 28 71 110l74 178h-61l-418 1032h104l301 -747l93 -242z" />
    <glyph glyph-name="Amacron" unicode="&#x100;" horiz-adv-x="1372" 
d="M416 1825h542v-82h-542v82zM1317 0h-109l-182 475h-688l-180 -475h-105l535 1421h182zM586 1135l-215 -572h620l-219 572l-94 254z" />
    <glyph glyph-name="amacron" unicode="&#x101;" horiz-adv-x="1161" 
d="M311 1436h543v-82h-543v82zM1085 68h41v-68q-59 -14 -100 -14q-90 0 -130 51t-40 170v49q-43 -129 -154 -205q-112 -76 -268 -76q-138 0 -220 66q-83 65 -83 174q0 100 69 165t222 97q373 83 432 103v59q0 174 -71.5 256t-221.5 82q-301 0 -301 -326h-100q0 181 111 294
q109 112 290 112q180 0 285 -105q104 -107 104 -288v-412q0 -120 24 -152q23 -32 111 -32zM455 57q180 0 290 101q109 100 109 276v82q-80 -22 -399 -96q-117 -26 -168 -73.5t-51 -123.5q0 -80 56.5 -123t162.5 -43z" />
    <glyph glyph-name="Abreve" unicode="&#x102;" horiz-adv-x="1372" 
d="M686 1628q-123 0 -198 85q-76 85 -76 222h86q0 -121 45 -177t143 -56q99 0 145 56.5t46 176.5h86q0 -137 -76 -222t-201 -85zM1317 0h-109l-182 475h-688l-180 -475h-105l535 1421h182zM586 1135l-215 -572h620l-219 572l-94 254z" />
    <glyph glyph-name="abreve" unicode="&#x103;" horiz-adv-x="1161" 
d="M582 1239q-123 0 -199 85t-76 222h86q0 -121 45 -177t144 -56t144.5 56t45.5 177h86q0 -136 -75 -222q-76 -85 -201 -85zM1085 68h41v-68q-59 -14 -100 -14q-90 0 -130 51t-40 170v49q-43 -129 -154 -205q-112 -76 -268 -76q-138 0 -220 66q-83 65 -83 174q0 100 69 165
t222 97q373 83 432 103v59q0 174 -71.5 256t-221.5 82q-301 0 -301 -326h-100q0 181 111 294q109 112 290 112q180 0 285 -105q104 -107 104 -288v-412q0 -120 24 -152q23 -32 111 -32zM455 57q180 0 290 101q109 100 109 276v82q-80 -22 -399 -96q-117 -26 -168 -73.5
t-51 -123.5q0 -80 56.5 -123t162.5 -43z" />
    <glyph glyph-name="Aogonek" unicode="&#x104;" horiz-adv-x="1372" 
d="M1165 -356h154v-68h-174q-70 0 -110 27.5t-40 77.5q0 54 52 110l167 209h-6l-182 475h-688l-180 -475h-105l535 1421h182l547 -1421h-29l-166 -219q-37 -50 -37 -86q0 -29 17.5 -40t62.5 -11zM586 1135l-215 -572h620l-219 572l-94 254z" />
    <glyph glyph-name="aogonek" unicode="&#x105;" horiz-adv-x="1161" 
d="M1057 -12l-156 -207q-37 -50 -37 -86q0 -29 17.5 -40t62.5 -11h154v-68h-174q-70 0 -110 27.5t-40 77.5q0 53 51 110l160 197q-68 10 -98.5 62t-30.5 157v49q-43 -129 -154 -205q-112 -76 -268 -76q-138 0 -220 66q-83 65 -83 174q0 100 69 165t222 97q373 83 432 103v59
q0 174 -71.5 256t-221.5 82q-301 0 -301 -326h-100q0 181 111 294q109 112 290 112q180 0 285 -105q104 -107 104 -288v-412q0 -120 24 -152q23 -32 111 -32h41v-68q-50 -10 -69 -12zM455 57q180 0 290 101q109 100 109 276v82q-80 -22 -399 -96q-117 -26 -168 -73.5
t-51 -123.5q0 -80 56.5 -123t162.5 -43z" />
    <glyph glyph-name="Cacute" unicode="&#x106;" horiz-adv-x="1550" 
d="M782 1636l119 299h119l-156 -299h-82zM350 178q-182 203 -182 533q0 329 182 532t479 203q254 0 417 -139t163 -371h-106q0 414 -474 414q-273 0 -413 -162t-140 -477q0 -317 140 -479t413 -162q472 0 474 395h104q0 -225 -163 -357q-163 -133 -415 -133q-297 0 -479 203
z" />
    <glyph glyph-name="cacute" unicode="&#x107;" horiz-adv-x="1222" 
d="M592 1247l119 299h120l-155 -299h-84zM967 336h100q0 -162 -116 -261q-116 -100 -310 -100q-217 0 -349 149q-132 148 -132 392t132 393q132 148 349 148q190 0 306 -107q116 -108 116 -284h-100q0 305 -322 305q-377 0 -377 -455q0 -457 377 -457q166 0 246 68t80 209z
" />
    <glyph glyph-name="Ccircumflex" unicode="&#x108;" horiz-adv-x="1550" 
d="M1016 1636l-189 269l-190 -269h-102l219 299h145l219 -299h-102zM829 70q472 0 474 395h104q0 -225 -163 -357q-163 -133 -415 -133q-297 0 -479 203t-182 533q0 329 182 532t479 203q254 0 417 -139t163 -371h-106q0 414 -474 414q-273 0 -413 -162t-140 -477
q0 -317 140 -479t413 -162z" />
    <glyph glyph-name="ccircumflex" unicode="&#x109;" horiz-adv-x="1222" 
d="M827 1247l-188 269l-190 -269h-103l219 299h146l219 -299h-103zM967 336h100q0 -162 -116 -261q-116 -100 -310 -100q-217 0 -349 149q-132 148 -132 392t132 393q132 148 349 148q190 0 306 -107q116 -108 116 -284h-100q0 305 -322 305q-377 0 -377 -455
q0 -457 377 -457q166 0 246 68t80 209z" />
    <glyph glyph-name="Cdotaccent" unicode="&#x10a;" horiz-adv-x="1550" 
d="M752 1700v155h147v-155h-147zM350 178q-182 203 -182 533q0 329 182 532t479 203q254 0 417 -139t163 -371h-106q0 414 -474 414q-273 0 -413 -162t-140 -477q0 -317 140 -479t413 -162q472 0 474 395h104q0 -225 -163 -357q-163 -133 -415 -133q-297 0 -479 203z" />
    <glyph glyph-name="cdotaccent" unicode="&#x10b;" horiz-adv-x="1222" 
d="M563 1311v155h148v-155h-148zM967 336h100q0 -162 -116 -261q-116 -100 -310 -100q-217 0 -349 149q-132 148 -132 392t132 393q132 148 349 148q190 0 306 -107q116 -108 116 -284h-100q0 305 -322 305q-377 0 -377 -455q0 -457 377 -457q166 0 246 68t80 209z" />
    <glyph glyph-name="Ccaron" unicode="&#x10c;" horiz-adv-x="1550" 
d="M897 1636h-145l-220 299h103l188 -268l191 268h100zM829 70q472 0 474 395h104q0 -225 -163 -357q-163 -133 -415 -133q-297 0 -479 203t-182 533q0 329 182 532t479 203q254 0 417 -139t163 -371h-106q0 414 -474 414q-273 0 -413 -162t-140 -477q0 -317 140 -479
t413 -162z" />
    <glyph glyph-name="ccaron" unicode="&#x10d;" horiz-adv-x="1222" 
d="M709 1247h-146l-219 299h102l189 -268l190 268h101zM967 336h100q0 -162 -116 -261q-116 -100 -310 -100q-217 0 -349 149q-132 148 -132 392t132 393q132 148 349 148q190 0 306 -107q116 -108 116 -284h-100q0 305 -322 305q-377 0 -377 -455q0 -457 377 -457
q166 0 246 68t80 209z" />
    <glyph glyph-name="Dcaron" unicode="&#x10e;" horiz-adv-x="1634" 
d="M879 1636h-146l-219 299h102l189 -268l190 268h101zM281 1421h538q291 0 469 -195q178 -196 178 -515q0 -321 -178 -515q-178 -196 -469 -196h-538v1421zM385 88h420q270 0 411.5 159t141.5 464t-141.5 463.5t-411.5 158.5h-420v-1245z" />
    <glyph glyph-name="dcaron" unicode="&#x10f;" horiz-adv-x="1341" 
d="M1020 797v749h98v-1546h-94v254q-46 -132 -153 -206q-106 -73 -246 -73q-210 0 -338 149q-127 148 -127 392q0 245 127 393t338 148q135 0 241 -67q104 -67 154 -193zM1300 1434v112h154v-131q0 -99 -51.5 -157t-138.5 -58v60q121 0 120 133zM643 59q377 0 377 457
q0 455 -377 455q-379 0 -379 -455q0 -457 379 -457z" />
    <glyph glyph-name="Dcroat" unicode="&#x110;" horiz-adv-x="1634" 
d="M281 1421h538q291 0 469 -195q178 -196 178 -515q0 -321 -178 -515q-178 -196 -469 -196h-538v670h-254v86h254v665zM385 88h420q270 0 411.5 159t141.5 464t-141.5 463.5t-411.5 158.5h-420v-577h410v-86h-410v-582z" />
    <glyph glyph-name="dslash" unicode="&#x111;" horiz-adv-x="1341" 
d="M1118 1378h232v-78h-232v-1300h-94v254q-46 -132 -153 -206q-106 -73 -246 -73q-210 0 -338 149q-127 148 -127 392q0 245 127 393t338 148q135 0 241 -67q104 -67 154 -193v503h-428v78h428v168h98v-168zM643 59q377 0 377 457q0 455 -377 455q-379 0 -379 -455
q0 -457 379 -457z" />
    <glyph glyph-name="Emacron" unicode="&#x112;" horiz-adv-x="1368" 
d="M434 1825h543v-82h-543v82zM385 674v-586h776v-88h-880v1421h868v-88h-764v-571h723v-88h-723z" />
    <glyph glyph-name="emacron" unicode="&#x113;" horiz-adv-x="1249" 
d="M371 1436h542v-82h-542v82zM1094 571v-82h-830q12 -430 381 -430q167 0 253.5 68.5t86.5 196.5h102q0 -148 -123 -248q-125 -101 -319 -101q-218 0 -352 149q-133 148 -133 392t131 393q130 148 348 148q205 0 330 -134q125 -136 125 -352zM264 559l301 4h430
q-7 408 -356 408q-357 0 -375 -412z" />
    <glyph glyph-name="Ebreve" unicode="&#x114;" horiz-adv-x="1368" 
d="M705 1628q-123 0 -199 85t-76 222h86q0 -121 45 -177t144 -56t144.5 56t45.5 177h86q0 -137 -75 -222q-76 -85 -201 -85zM385 674v-586h776v-88h-880v1421h868v-88h-764v-571h723v-88h-723z" />
    <glyph glyph-name="ebreve" unicode="&#x115;" horiz-adv-x="1249" 
d="M643 1239q-123 0 -198 85q-76 85 -76 222h86q0 -121 45 -177t143 -56q100 0 145.5 56t45.5 177h86q0 -137 -76 -222t-201 -85zM1094 571v-82h-830q12 -430 381 -430q167 0 253.5 68.5t86.5 196.5h102q0 -148 -123 -248q-125 -101 -319 -101q-218 0 -352 149
q-133 148 -133 392t131 393q130 148 348 148q205 0 330 -134q125 -136 125 -352zM264 559l301 4h430q-7 408 -356 408q-357 0 -375 -412z" />
    <glyph glyph-name="Edotaccent" unicode="&#x116;" horiz-adv-x="1368" 
d="M631 1855h147v-155h-147v155zM385 674v-586h776v-88h-880v1421h868v-88h-764v-571h723v-88h-723z" />
    <glyph glyph-name="edotaccent" unicode="&#x117;" horiz-adv-x="1249" 
d="M569 1466h148v-155h-148v155zM1094 571v-82h-830q12 -430 381 -430q167 0 253.5 68.5t86.5 196.5h102q0 -148 -123 -248q-125 -101 -319 -101q-218 0 -352 149q-133 148 -133 392t131 393q130 148 348 148q205 0 330 -134q125 -136 125 -352zM264 559l301 4h430
q-7 408 -356 408q-357 0 -375 -412z" />
    <glyph glyph-name="Eogonek" unicode="&#x118;" horiz-adv-x="1368" 
d="M1024 -356h154v-68h-174q-70 0 -110 27.5t-40 77.5q0 53 51 110l168 209h-792v1421h868v-88h-764v-571h723v-88h-723v-586h776v-88h-14l-166 -219q-37 -50 -37 -86q0 -29 17.5 -40t62.5 -11z" />
    <glyph glyph-name="eogonek" unicode="&#x119;" horiz-adv-x="1249" 
d="M1094 571v-82h-830q12 -430 381 -430q167 0 253.5 68.5t86.5 196.5h102q0 -111 -72 -198q-73 -87 -198 -126h2l-166 -219q-37 -50 -37 -86q0 -29 17.5 -40t62.5 -11h154v-68h-174q-70 0 -110 27.5t-40 77.5q0 54 52 110l153 191q-39 -5 -86 -7q-218 0 -352 149
q-133 148 -133 392t131 393q130 148 348 148q205 0 330 -134q125 -136 125 -352zM264 559l301 4h430q-7 408 -356 408q-357 0 -375 -412z" />
    <glyph glyph-name="Ecaron" unicode="&#x11a;" horiz-adv-x="1368" 
d="M776 1636h-145l-219 299h102l188 -268l191 268h100zM385 674v-586h776v-88h-880v1421h868v-88h-764v-571h723v-88h-723z" />
    <glyph glyph-name="ecaron" unicode="&#x11b;" horiz-adv-x="1249" 
d="M715 1247h-146l-219 299h103l188 -268l190 268h101zM1094 571v-82h-830q12 -430 381 -430q167 0 253.5 68.5t86.5 196.5h102q0 -148 -123 -248q-125 -101 -319 -101q-218 0 -352 149q-133 148 -133 392t131 393q130 148 348 148q205 0 330 -134q125 -136 125 -352z
M264 559l301 4h430q-7 408 -356 408q-357 0 -375 -412z" />
    <glyph glyph-name="Gcircumflex" unicode="&#x11c;" horiz-adv-x="1638" 
d="M1024 1636l-188 269l-191 -269h-102l219 299h145l219 -299h-102zM733 623v84h703v-707h-88v395q-45 -207 -178.5 -313.5t-348.5 -106.5q-293 0 -473 203q-180 202 -180 533q0 329 182 532t481 203q271 0 435 -136q164 -137 164 -360h-107q0 398 -492 400
q-274 0 -414.5 -162t-140.5 -477q0 -316 140.5 -478.5t414.5 -162.5q500 0 504 553h-602z" />
    <glyph glyph-name="gcircumflex" unicode="&#x11d;" horiz-adv-x="1159" 
d="M770 1247l-188 269l-191 -269h-102l219 299h145l219 -299h-102zM1116 1178v-86q-112 0 -162.5 -33.5t-56.5 -108.5q104 -98 104 -245q0 -149 -116 -244q-116 -94 -305 -94q-149 0 -252 59q-102 -49 -103 -154q0 -129 144 -129h411q140 0 223 -70q84 -70 84 -188
q0 -127 -135 -206q-135 -78 -358 -78q-225 0 -362 74q-138 75 -138 200q0 66 47 118t129 79q-58 25 -92.5 72t-34.5 106q0 127 146 201q-129 95 -129 254q0 157 116 255q115 97 304 97q161 0 274 -74q22 195 262 195zM341 512q76 -63 239 -63q160 0 239 62q78 61 78 194
q0 137 -77 202.5t-240 65.5q-162 0 -239 -65t-77 -203q0 -131 77 -193zM770 61h-463q-117 -52 -117 -176q0 -107 94 -153q94 -47 310 -47q214 0 306 47q91 46 91 153q0 96 -50 136t-171 40z" />
    <glyph glyph-name="Gbreve" unicode="&#x11e;" horiz-adv-x="1638" 
d="M831 1628q-123 0 -198 85q-76 85 -76 222h86q0 -121 45 -177t143 -56q99 0 145 56.5t46 176.5h86q0 -137 -76 -222t-201 -85zM733 623v84h703v-707h-88v395q-45 -207 -178.5 -313.5t-348.5 -106.5q-293 0 -473 203q-180 202 -180 533q0 329 182 532t481 203
q271 0 435 -136q164 -137 164 -360h-107q0 398 -492 400q-274 0 -414.5 -162t-140.5 -477q0 -316 140.5 -478.5t414.5 -162.5q500 0 504 553h-602z" />
    <glyph glyph-name="gbreve" unicode="&#x11f;" horiz-adv-x="1159" 
d="M580 1239q-123 0 -199 85t-76 222h86q0 -121 45 -177t144 -56t144.5 56t45.5 177h86q0 -136 -75 -222q-76 -85 -201 -85zM1116 1178v-86q-112 0 -162.5 -33.5t-56.5 -108.5q104 -98 104 -245q0 -149 -116 -244q-116 -94 -305 -94q-149 0 -252 59q-102 -49 -103 -154
q0 -129 144 -129h411q140 0 223 -70q84 -70 84 -188q0 -127 -135 -206q-135 -78 -358 -78q-225 0 -362 74q-138 75 -138 200q0 66 47 118t129 79q-58 25 -92.5 72t-34.5 106q0 127 146 201q-129 95 -129 254q0 157 116 255q115 97 304 97q161 0 274 -74q22 195 262 195z
M341 512q76 -63 239 -63q160 0 239 62q78 61 78 194q0 137 -77 202.5t-240 65.5q-162 0 -239 -65t-77 -203q0 -131 77 -193zM770 61h-463q-117 -52 -117 -176q0 -107 94 -153q94 -47 310 -47q214 0 306 47q91 46 91 153q0 96 -50 136t-171 40z" />
    <glyph glyph-name="Gdotaccent" unicode="&#x120;" horiz-adv-x="1638" 
d="M760 1855h147v-155h-147v155zM733 623v84h703v-707h-88v395q-45 -207 -178.5 -313.5t-348.5 -106.5q-293 0 -473 203q-180 202 -180 533q0 329 182 532t481 203q271 0 435 -136q164 -137 164 -360h-107q0 398 -492 400q-274 0 -414.5 -162t-140.5 -477
q0 -316 140.5 -478.5t414.5 -162.5q500 0 504 553h-602z" />
    <glyph glyph-name="gdotaccent" unicode="&#x121;" horiz-adv-x="1159" 
d="M506 1466h147v-155h-147v155zM1116 1178v-86q-112 0 -162.5 -33.5t-56.5 -108.5q104 -98 104 -245q0 -149 -116 -244q-116 -94 -305 -94q-149 0 -252 59q-102 -49 -103 -154q0 -129 144 -129h411q140 0 223 -70q84 -70 84 -188q0 -127 -135 -206q-135 -78 -358 -78
q-225 0 -362 74q-138 75 -138 200q0 66 47 118t129 79q-58 25 -92.5 72t-34.5 106q0 127 146 201q-129 95 -129 254q0 157 116 255q115 97 304 97q161 0 274 -74q22 195 262 195zM341 512q76 -63 239 -63q160 0 239 62q78 61 78 194q0 137 -77 202.5t-240 65.5
q-162 0 -239 -65t-77 -203q0 -131 77 -193zM770 61h-463q-117 -52 -117 -176q0 -107 94 -153q94 -47 310 -47q214 0 306 47q91 46 91 153q0 96 -50 136t-171 40z" />
    <glyph glyph-name="uni0122" unicode="&#x122;" horiz-adv-x="1638" 
d="M733 623v84h703v-707h-88v395q-45 -207 -178.5 -313.5t-348.5 -106.5q-293 0 -473 203q-180 202 -180 533q0 329 182 532t481 203q271 0 435 -136q164 -137 164 -360h-107q0 398 -492 400q-274 0 -414.5 -162t-140.5 -477q0 -316 140.5 -478.5t414.5 -162.5
q500 0 504 553h-602zM836 -365l-84 39v113h153v-131q0 -92 -52 -146.5t-138 -54.5v60q121 0 121 120z" />
    <glyph glyph-name="uni0123" unicode="&#x123;" horiz-adv-x="1159" 
d="M563 1399l84 -39v-113h-151v131q0 92 51 144.5t139 52.5v-59q-123 0 -123 -117zM1116 1178v-86q-112 0 -162.5 -33.5t-56.5 -108.5q104 -98 104 -245q0 -149 -116 -244q-116 -94 -305 -94q-149 0 -252 59q-102 -49 -103 -154q0 -129 144 -129h411q140 0 223 -70
q84 -70 84 -188q0 -127 -135 -206q-135 -78 -358 -78q-225 0 -362 74q-138 75 -138 200q0 66 47 118t129 79q-58 25 -92.5 72t-34.5 106q0 127 146 201q-129 95 -129 254q0 157 116 255q115 97 304 97q161 0 274 -74q22 195 262 195zM341 512q76 -63 239 -63q160 0 239 62
q78 61 78 194q0 137 -77 202.5t-240 65.5q-162 0 -239 -65t-77 -203q0 -131 77 -193zM770 61h-463q-117 -52 -117 -176q0 -107 94 -153q94 -47 310 -47q214 0 306 47q91 46 91 153q0 96 -50 136t-171 40z" />
    <glyph glyph-name="Hcircumflex" unicode="&#x124;" horiz-adv-x="1654" 
d="M1018 1636l-189 269l-190 -269h-102l219 299h145l219 -299h-102zM1270 762v659h104v-1421h-104v674h-885v-674h-104v1421h104v-659h885z" />
    <glyph glyph-name="hcircumflex" unicode="&#x125;" horiz-adv-x="1312" 
d="M858 1792l-188 268l-191 -268h-102l219 299h145l220 -299h-103zM715 1057q169 0 272 -106t103 -283v-668h-99v625q0 182 -71.5 263t-231.5 81q-170 0 -264 -95.5t-94 -269.5v-604h-99v1546h99v-735q104 246 385 246z" />
    <glyph glyph-name="Hbar" unicode="&#x126;" horiz-adv-x="1669" 
d="M1374 1192h252v-86h-252v-1106h-104v674h-885v-674h-104v1106h-238v86h238v229h104v-229h885v229h104v-229zM385 762h885v344h-885v-344z" />
    <glyph glyph-name="hbar" unicode="&#x127;" horiz-adv-x="1312" 
d="M715 1057q169 0 272 -106t103 -283v-668h-99v625q0 182 -71.5 263t-231.5 81q-170 0 -264 -95.5t-94 -269.5v-604h-99v1300h-231v78h231v168h99v-168h428v-78h-428v-489q104 246 385 246z" />
    <glyph glyph-name="Itilde" unicode="&#x128;" horiz-adv-x="665" 
d="M487 1661q-74 0 -161 75q-89 74 -152 74q-119 0 -119 -145h-71q0 104 52 168q53 63 140 63q61 0 113 -37q43 -31 98 -76q47 -38 100 -38q63 0 92 36t29 111h72q0 -105 -52 -167q-52 -64 -141 -64zM281 0v1421h104v-1421h-104z" />
    <glyph glyph-name="itilde" unicode="&#x129;" horiz-adv-x="550" 
d="M436 1272q-74 0 -162 75q-89 74 -151 74q-119 0 -119 -145h-72q0 104 52 168q54 63 141 63q61 0 113 -37q43 -31 98 -76q47 -38 100 -38q63 0 92 35.5t29 111.5h72q0 -105 -52 -167q-52 -64 -141 -64zM231 0v1032h99v-1032h-99z" />
    <glyph glyph-name="Imacron" unicode="&#x12a;" horiz-adv-x="665" 
d="M61 1825h543v-82h-543v82zM281 0v1421h104v-1421h-104z" />
    <glyph glyph-name="imacron" unicode="&#x12b;" horiz-adv-x="550" 
d="M10 1436h543v-82h-543v82zM231 0v1032h99v-1032h-99z" />
    <glyph glyph-name="Ibreve" unicode="&#x12c;" horiz-adv-x="665" 
d="M524 1935h86q0 -137 -75 -222q-76 -85 -201 -85q-123 0 -199 85t-76 222h86q0 -121 45.5 -177t143.5 -56q99 0 144.5 56t45.5 177zM281 0v1421h104v-1421h-104z" />
    <glyph glyph-name="ibreve" unicode="&#x12d;" horiz-adv-x="550" 
d="M471 1546h86q0 -136 -75 -222q-76 -85 -201 -85q-123 0 -199 85t-76 222h86q0 -121 45 -177t144 -56t144.5 56t45.5 177zM231 0v1032h99v-1032h-99z" />
    <glyph glyph-name="Iogonek" unicode="&#x12e;" horiz-adv-x="665" 
d="M262 -356h154v-68h-174q-70 0 -110 27.5t-40 77.5q0 53 51 110l168 209h-30v1421h104v-1421l-166 -219q-37 -50 -37 -86q0 -29 17.5 -40t62.5 -11z" />
    <glyph glyph-name="iogonek" unicode="&#x12f;" horiz-adv-x="550" 
d="M207 1466h147v-155h-147v155zM209 -356h153v-68h-174q-70 0 -109.5 27.5t-39.5 77.5q0 53 51 110l168 209h-27v1032h99v-1032h2l-166 -219q-37 -50 -37 -86q0 -29 17.5 -40t62.5 -11z" />
    <glyph glyph-name="Idot" unicode="&#x130;" horiz-adv-x="665" 
d="M260 1700v155h148v-155h-148zM281 0v1421h104v-1421h-104z" />
    <glyph glyph-name="dotlessi" unicode="&#x131;" horiz-adv-x="550" 
d="M231 0v1032h99v-1032h-99z" />
    <glyph glyph-name="IJ" unicode="&#x132;" horiz-adv-x="1259" 
d="M260 70h348q164 0 235 77q70 76 70 252v1022h103v-1026q0 -199 -107 -309q-108 -111 -301 -111q-170 0 -348 27v68zM266 410v1011h103v-1011h-103z" />
    <glyph glyph-name="ij" unicode="&#x133;" horiz-adv-x="1103" 
d="M354 1311h-147v155h147v-155zM758 1311v155h147v-155h-147zM330 0h-99v1032h99v-1032zM782 -129v1161h99v-1177q0 -254 -232 -254q-69 0 -123 14v68h109q91 0 119 36q28 37 28 152z" />
    <glyph glyph-name="Jcircumflex" unicode="&#x134;" 
d="M850 1935h145l219 -299h-102l-188 269l-191 -269h-102zM887 467v954h102v-962q0 -218 -119 -351q-120 -133 -319 -133q-208 0 -336 128q-127 127 -127 339h102q0 -187 90 -280t271 -92q336 0 336 397z" />
    <glyph glyph-name="jcircumflex" unicode="&#x135;" horiz-adv-x="526" 
d="M209 1546h145l219 -299h-102l-188 269l-191 -269h-102zM231 -115v1147h99v-1177q0 -254 -232 -254q-69 0 -123 14v68h109q84 0 116 42q31 43 31 160z" />
    <glyph glyph-name="uni0136" unicode="&#x136;" horiz-adv-x="1390" 
d="M1335 1421l-819 -704l850 -717h-156l-624 526l-201 176v-702h-104v1421h104v-698l201 178l604 520h145zM778 -365l-84 39v113h154v-131q0 -92 -52 -146.5t-139 -54.5v60q121 0 121 120z" />
    <glyph glyph-name="uni0137" unicode="&#x137;" horiz-adv-x="1083" 
d="M1026 1032l-580 -497l625 -535h-141l-471 406l-129 116v-522h-99v1546h99v-1009l127 114l444 381h125zM598 -365l-84 39v113h152v-131q0 -93 -51.5 -147t-139.5 -54v60q123 0 123 120z" />
    <glyph glyph-name="kgreenlandic" unicode="&#x138;" horiz-adv-x="1083" 
d="M1026 1032l-580 -497l625 -535h-143l-471 406l-127 114v-520h-99v1032h99v-495l127 114l442 381h127z" />
    <glyph glyph-name="Lacute" unicode="&#x139;" horiz-adv-x="1214" 
d="M408 1935h118l-155 -299h-82zM385 1421v-1333h745v-88h-849v1421h104z" />
    <glyph glyph-name="lacute" unicode="&#x13a;" horiz-adv-x="620" 
d="M348 1976h121l-156 -299h-84zM467 68h90v-68q-40 -14 -108 -14q-217 0 -218 231v1329h99v-1317q0 -96 29 -128q29 -33 108 -33z" />
    <glyph glyph-name="uni013B" unicode="&#x13b;" horiz-adv-x="1214" 
d="M385 1421v-1333h745v-88h-849v1421h104zM752 -365l-84 39v113h153v-131q0 -92 -52 -146.5t-138 -54.5v60q121 0 121 120z" />
    <glyph glyph-name="uni013C" unicode="&#x13c;" horiz-adv-x="620" 
d="M467 68h90v-68q-40 -14 -108 -14q-217 0 -218 231v1329h99v-1317q0 -96 29 -128q29 -33 108 -33zM387 -365l-84 39v113h152v-131q0 -93 -51.5 -147t-139.5 -54v60q123 0 123 120z" />
    <glyph glyph-name="Lcaron" unicode="&#x13d;" horiz-adv-x="1214" 
d="M385 1421v-1333h745v-88h-849v1421h104zM870 1421v-131q0 -99 -51.5 -157t-138.5 -58v60q121 0 121 133l-84 41v112h153z" />
    <glyph glyph-name="lcaron" unicode="&#x13e;" horiz-adv-x="620" 
d="M330 1546v-1317q0 -96 29 -128q29 -33 108 -33h90v-68q-40 -14 -108 -14q-217 0 -218 231v1329h99zM520 1434v112h154v-131q0 -99 -52 -157t-139 -58v60q121 0 121 133z" />
    <glyph glyph-name="Ldot" unicode="&#x13f;" horiz-adv-x="1214" 
d="M385 1421v-1333h745v-88h-849v1421h104zM692 885h164v-166h-164v166z" />
    <glyph glyph-name="ldot" unicode="&#x140;" horiz-adv-x="702" 
d="M330 1546v-1317q0 -96 29 -128q29 -33 108 -33h90v-68q-40 -14 -108 -14q-217 0 -218 231v1329h99zM506 690v144h143v-144h-143z" />
    <glyph glyph-name="Lslash" unicode="&#x141;" horiz-adv-x="1214" 
d="M385 631v-543h745v-88h-849v592l-228 -111v88l228 111v741h104v-704l504 248v-86z" />
    <glyph glyph-name="lslash" unicode="&#x142;" horiz-adv-x="620" 
d="M567 975v-96l-237 -191v-459q0 -96 29 -128q29 -33 108 -33h90v-68q-40 -14 -108 -14q-217 0 -218 231v416l-200 -156v96l200 156v817h99v-762z" />
    <glyph glyph-name="Nacute" unicode="&#x143;" horiz-adv-x="1654" 
d="M907 1935h119l-156 -299h-82zM1270 438v983h104v-1421h-178l-819 1376l8 -338v-1038h-104v1421h180l817 -1372z" />
    <glyph glyph-name="nacute" unicode="&#x144;" horiz-adv-x="1312" 
d="M758 1546h121l-156 -299h-84zM715 1057q169 0 272 -106t103 -283v-668h-99v625q0 182 -71.5 263t-231.5 81q-170 0 -264 -95.5t-94 -269.5v-604h-99v1032h95v-231q49 125 149.5 190.5t239.5 65.5z" />
    <glyph glyph-name="uni0145" unicode="&#x145;" horiz-adv-x="1654" 
d="M1270 438v983h104v-1421h-178l-819 1376l8 -338v-1038h-104v1421h180l817 -1372zM834 -365l-84 39v113h153v-131q0 -92 -52 -146.5t-138 -54.5v60q121 0 121 120z" />
    <glyph glyph-name="uni0146" unicode="&#x146;" horiz-adv-x="1312" 
d="M715 1057q169 0 272 -106t103 -283v-668h-99v625q0 182 -71.5 263t-231.5 81q-170 0 -264 -95.5t-94 -269.5v-604h-99v1032h95v-231q49 125 149.5 190.5t239.5 65.5zM680 -365l-84 39v113h152v-131q0 -93 -51.5 -147t-139.5 -54v60q123 0 123 120z" />
    <glyph glyph-name="Ncaron" unicode="&#x147;" horiz-adv-x="1654" 
d="M905 1636h-145l-219 299h102l188 -268l191 268h100zM1270 438v983h104v-1421h-178l-819 1376l8 -338v-1038h-104v1421h180l817 -1372z" />
    <glyph glyph-name="ncaron" unicode="&#x148;" horiz-adv-x="1312" 
d="M756 1247h-146l-219 299h103l188 -268l190 268h101zM715 1057q169 0 272 -106t103 -283v-668h-99v625q0 182 -71.5 263t-231.5 81q-170 0 -264 -95.5t-94 -269.5v-604h-99v1032h95v-231q49 125 149.5 190.5t239.5 65.5z" />
    <glyph glyph-name="napostrophe" unicode="&#x149;" horiz-adv-x="1382" 
d="M70 1176l-93 43v129h164v-158q0 -100 -55 -156.5t-154 -56.5v67q136 0 138 132zM784 1057q169 0 272 -106t103 -283v-668h-98v625q0 182 -71.5 263t-231.5 81q-170 0 -264.5 -95.5t-94.5 -269.5v-604h-98v1032h94v-231q49 125 149.5 190.5t239.5 65.5z" />
    <glyph glyph-name="Eng" unicode="&#x14a;" horiz-adv-x="1654" 
d="M1270 438v983h104v-1566q0 -254 -233 -254q-69 0 -123 14v68h108q85 0 116 43q32 44 32 159v115h-78l-819 1376l8 -338v-1038h-104v1421h180l817 -1372z" />
    <glyph glyph-name="eng" unicode="&#x14b;" horiz-adv-x="1312" 
d="M715 1057q169 0 272 -106t103 -283v-813q0 -254 -232 -254q-69 0 -123 14v68h109q90 0 119 39q28 40 28 163v740q0 176 -73.5 260t-229.5 84q-170 0 -264 -95.5t-94 -269.5v-604h-99v1032h95v-231q49 125 149.5 190.5t239.5 65.5z" />
    <glyph glyph-name="Omacron" unicode="&#x14c;" horiz-adv-x="1669" 
d="M569 1837h543v-82h-543v82zM842 -25q-303 0 -488 203q-186 203 -186 533q0 329 186 532q185 203 488 203q296 0 478 -203q181 -202 181 -532q0 -331 -181 -533q-182 -203 -478 -203zM842 70q270 0 410.5 163t140.5 478t-140.5 477t-410.5 162q-279 0 -422.5 -162
t-143.5 -477q0 -316 143.5 -478.5t422.5 -162.5z" />
    <glyph glyph-name="omacron" unicode="&#x14d;" horiz-adv-x="1284" 
d="M371 1436h542v-82h-542v82zM992 124q-132 -149 -349 -149q-216 0 -350 149q-133 148 -133 392q0 245 133 393t350 148t349 -148q132 -149 132 -393t-132 -392zM643 59q377 0 377 457q0 455 -377 455q-379 0 -379 -455q0 -457 379 -457z" />
    <glyph glyph-name="Obreve" unicode="&#x14e;" horiz-adv-x="1669" 
d="M1030 1948h86q0 -136 -75 -222q-77 -86 -201 -86q-123 0 -199 85t-76 223h86q0 -121 45 -177.5t144 -56.5t144.5 56.5t45.5 177.5zM842 -25q-303 0 -488 203q-186 203 -186 533q0 329 186 532q185 203 488 203q296 0 478 -203q181 -202 181 -532q0 -331 -181 -533
q-182 -203 -478 -203zM842 70q270 0 410.5 163t140.5 478t-140.5 477t-410.5 162q-279 0 -422.5 -162t-143.5 -477q0 -316 143.5 -478.5t422.5 -162.5z" />
    <glyph glyph-name="obreve" unicode="&#x14f;" horiz-adv-x="1284" 
d="M831 1546h87q0 -137 -76 -222t-201 -85q-123 0 -198 85q-76 85 -76 222h86q0 -121 45 -177t143 -56q99 0 144.5 56t45.5 177zM992 124q-132 -149 -349 -149q-216 0 -350 149q-133 148 -133 392q0 245 133 393t350 148t349 -148q132 -149 132 -393t-132 -392zM643 59
q377 0 377 457q0 455 -377 455q-379 0 -379 -455q0 -457 379 -457z" />
    <glyph glyph-name="Ohungarumlaut" unicode="&#x150;" horiz-adv-x="1669" 
d="M690 1649l109 299h100l-127 -299h-82zM903 1649l117 299h121l-158 -299h-80zM842 -25q-303 0 -488 203q-186 203 -186 533q0 329 186 532q185 203 488 203q296 0 478 -203q181 -202 181 -532q0 -331 -181 -533q-182 -203 -478 -203zM842 70q270 0 410.5 163t140.5 478
t-140.5 477t-410.5 162q-279 0 -422.5 -162t-143.5 -477q0 -316 143.5 -478.5t422.5 -162.5z" />
    <glyph glyph-name="ohungarumlaut" unicode="&#x151;" horiz-adv-x="1284" 
d="M494 1247l108 299h100l-127 -299h-81zM707 1247l116 299h121l-158 -299h-79zM992 124q-132 -149 -349 -149q-216 0 -350 149q-133 148 -133 392q0 245 133 393t350 148t349 -148q132 -149 132 -393t-132 -392zM643 59q377 0 377 457q0 455 -377 455q-379 0 -379 -455
q0 -457 379 -457z" />
    <glyph glyph-name="OE" unicode="&#x152;" horiz-adv-x="2320" 
d="M1354 674v-586h762v-88h-1301q-291 0 -469 196q-178 194 -178 515q0 319 178 515q178 195 469 195h1288v-88h-749v-571h708v-88h-708zM829 88h420v1245h-420q-270 0 -411.5 -158.5t-141.5 -463.5t141.5 -464t411.5 -159z" />
    <glyph glyph-name="oe" unicode="&#x153;" horiz-adv-x="2109" 
d="M1954 571v-82h-830q12 -430 381 -430q165 0 253.5 69.5t88.5 195.5h101q0 -148 -124 -248q-125 -101 -319 -101q-153 0 -265.5 79.5t-166.5 221.5q-54 -142 -166.5 -221.5t-263.5 -79.5q-216 0 -350 149q-133 148 -133 392q0 245 133 393t350 148q152 0 265 -80
q112 -79 163 -221q54 142 166 221.5t262 79.5q205 0 330 -134q125 -136 125 -352zM643 59q377 0 377 457q0 455 -377 455q-379 0 -379 -455q0 -457 379 -457zM1124 559l301 4h433q-8 408 -359 408q-357 0 -375 -412z" />
    <glyph glyph-name="Racute" unicode="&#x154;" horiz-adv-x="1445" 
d="M825 1935h119l-156 -299h-81zM1372 0h-119l-448 625h-420v-625h-104v1421h559q188 0 303 -109q114 -110 114 -290q0 -161 -94 -264q-94 -104 -258 -127l129 -164zM821 1333h-436v-624h436q168 0 248 76.5t80 236.5t-80 235.5t-248 75.5z" />
    <glyph glyph-name="racute" unicode="&#x155;" horiz-adv-x="804" 
d="M578 1546h120l-155 -299h-84zM657 1057q71 0 111 -17v-77h-123q-150 0 -232.5 -102.5t-82.5 -291.5v-569h-99v1032h95v-244q39 128 126 198.5t205 70.5z" />
    <glyph glyph-name="uni0156" unicode="&#x156;" horiz-adv-x="1445" 
d="M905 631l129 -164l338 -467h-119l-448 625h-420v-625h-104v1421h559q188 0 303 -109q114 -110 114 -290q0 -161 -94 -264q-94 -104 -258 -127zM821 1333h-436v-624h436q168 0 248 76.5t80 236.5t-80 235.5t-248 75.5zM768 -365l-84 39v113h154v-131q0 -92 -52 -146.5
t-139 -54.5v60q121 0 121 120z" />
    <glyph glyph-name="uni0157" unicode="&#x157;" horiz-adv-x="804" 
d="M657 1057q71 0 111 -17v-77h-123q-150 0 -232.5 -102.5t-82.5 -291.5v-569h-99v1032h95v-244q39 128 126 198.5t205 70.5zM293 -365l-84 39v113h151v-131q0 -94 -51 -147.5t-139 -53.5v60q123 0 123 120z" />
    <glyph glyph-name="Rcaron" unicode="&#x158;" horiz-adv-x="1445" 
d="M823 1636h-145l-219 299h102l189 -268l190 268h100zM1372 0h-119l-448 625h-420v-625h-104v1421h559q188 0 303 -109q114 -110 114 -290q0 -161 -94 -264q-94 -104 -258 -127l129 -164zM821 1333h-436v-624h436q168 0 248 76.5t80 236.5t-80 235.5t-248 75.5z" />
    <glyph glyph-name="rcaron" unicode="&#x159;" horiz-adv-x="804" 
d="M575 1247h-145l-219 299h102l189 -268l190 268h101zM326 1032v-244q39 128 126.5 198.5t204.5 70.5q71 0 111 -17v-77h-123q-150 0 -232.5 -102.5t-82.5 -291.5v-569h-99v1032h95z" />
    <glyph glyph-name="Sacute" unicode="&#x15a;" horiz-adv-x="1439" 
d="M684 1636l119 299h119l-156 -299h-82zM727 -25q-256 0 -412 129q-157 129 -157 338h106q0 -374 465 -372q221 0 335 71.5t112 210.5q0 125 -98 199q-99 73 -386 129q-284 55 -394 138t-110 226q0 180 147 291q145 111 384 111q242 0 390 -130t148 -343h-106
q0 377 -434 377q-208 0 -317 -74t-109 -217q0 -113 95 -176q92 -63 376 -119q287 -57 404 -149q114 -93 114 -250q0 -176 -152 -283q-154 -107 -401 -107z" />
    <glyph glyph-name="sacute" unicode="&#x15b;" horiz-adv-x="1132" 
d="M516 1247l119 299h121l-156 -299h-84zM588 -25q-208 0 -336 98q-127 97 -127 259h100q0 -140 90 -207.5t275 -67.5q322 0 321 189q0 92 -74 143q-74 50 -276 88q-212 42 -307.5 109.5t-95.5 179.5q0 131 111 211q110 80 290 80q195 0 313 -97q117 -98 117 -258h-100
q0 271 -332 273q-303 0 -303 -197q0 -88 77 -135t290 -86q205 -39 296 -109t91 -190q0 -127 -116 -205t-304 -78z" />
    <glyph glyph-name="Scircumflex" unicode="&#x15c;" horiz-adv-x="1439" 
d="M918 1636l-189 269l-190 -269h-103l219 299h146l219 -299h-102zM762 764q287 -57 404 -149q114 -93 114 -250q0 -176 -152 -283q-154 -107 -401 -107q-256 0 -412 129q-157 129 -157 338h106q0 -374 465 -372q221 0 335 71.5t112 210.5q0 125 -98 199q-99 73 -386 129
q-284 55 -394 138t-110 226q0 180 147 291q145 111 384 111q242 0 390 -130t148 -343h-106q0 377 -434 377q-208 0 -317 -74t-109 -217q0 -113 95 -176q92 -63 376 -119z" />
    <glyph glyph-name="scircumflex" unicode="&#x15d;" horiz-adv-x="1132" 
d="M754 1247l-189 269l-190 -269h-103l220 299h145l219 -299h-102zM621 557q205 -39 296 -109t91 -190q0 -127 -116 -205t-304 -78q-208 0 -336 98q-127 97 -127 259h100q0 -140 90 -207.5t275 -67.5q322 0 321 189q0 92 -74 143q-74 50 -276 88q-212 42 -307.5 109.5
t-95.5 179.5q0 131 111 211q110 80 290 80q195 0 313 -97q117 -98 117 -258h-100q0 271 -332 273q-303 0 -303 -197q0 -88 77 -135t290 -86z" />
    <glyph glyph-name="Scedilla" unicode="&#x15e;" horiz-adv-x="1439" 
d="M1280 365q0 -169 -143 -276q-144 -107 -381 -114l-45 -116h73q74 0 119 -38t45 -102q0 -65 -47 -104t-123 -39h-157v68h151q45 0 65.5 18.5t20.5 58.5q0 76 -86 76h-133v51l51 127q-242 11 -387 139q-145 127 -145 328h106q0 -374 465 -372q221 0 335 71.5t112 210.5
q0 125 -98 199q-99 73 -386 129q-284 55 -394 138t-110 226q0 180 147 291q145 111 384 111q242 0 390 -130t148 -343h-106q0 377 -434 377q-208 0 -317 -74t-109 -217q0 -113 95 -176q92 -63 376 -119q287 -57 404 -149q114 -91 114 -250z" />
    <glyph glyph-name="scedilla" unicode="&#x15f;" horiz-adv-x="1132" 
d="M1008 258q0 -124 -110 -201q-111 -78 -290 -82l-45 -116h74q74 0 119 -38t45 -102q0 -65 -47 -104t-123 -39h-158v68h152q45 0 65.5 18.5t20.5 58.5q0 76 -86 76h-133v51l51 129q-191 11 -304 107q-114 96 -114 248h100q0 -140 90 -207.5t275 -67.5q322 0 321 189
q0 92 -74 143q-74 50 -276 88q-212 42 -307.5 109.5t-95.5 179.5q0 131 111 211q110 80 290 80q195 0 313 -97q117 -98 117 -258h-100q0 271 -332 273q-303 0 -303 -197q0 -88 77 -135t290 -86q205 -39 296 -109t91 -190z" />
    <glyph glyph-name="Scaron" unicode="&#x160;" horiz-adv-x="1439" 
d="M799 1636h-146l-219 299h103l188 -268l190 268h101zM762 764q287 -57 404 -149q114 -93 114 -250q0 -176 -152 -283q-154 -107 -401 -107q-256 0 -412 129q-157 129 -157 338h106q0 -374 465 -372q221 0 335 71.5t112 210.5q0 125 -98 199q-99 73 -386 129
q-284 55 -394 138t-110 226q0 180 147 291q145 111 384 111q242 0 390 -130t148 -343h-106q0 377 -434 377q-208 0 -317 -74t-109 -217q0 -113 95 -176q92 -63 376 -119z" />
    <glyph glyph-name="scaron" unicode="&#x161;" horiz-adv-x="1132" 
d="M635 1247h-146l-219 299h103l188 -268l191 268h100zM621 557q205 -39 296 -109t91 -190q0 -127 -116 -205t-304 -78q-208 0 -336 98q-127 97 -127 259h100q0 -140 90 -207.5t275 -67.5q322 0 321 189q0 92 -74 143q-74 50 -276 88q-212 42 -307.5 109.5t-95.5 179.5
q0 131 111 211q110 80 290 80q195 0 313 -97q117 -98 117 -258h-100q0 271 -332 273q-303 0 -303 -197q0 -88 77 -135t290 -86z" />
    <glyph glyph-name="uni0162" unicode="&#x162;" horiz-adv-x="1288" 
d="M696 1333v-1333h-18l-53 -141h73q74 0 119 -38t45 -102q0 -65 -47 -104t-123 -39h-157v68h151q45 0 65.5 18.5t20.5 58.5q0 76 -86 76h-133v51l61 152h-22v1333h-561v88h1226v-88h-561z" />
    <glyph glyph-name="uni0163" unicode="&#x163;" horiz-adv-x="819" 
d="M782 68v-68q-112 -13 -235 -14l-47 -127h73q74 0 119 -38t45 -102q0 -65 -47 -104t-123 -39h-157v68h151q45 0 65.5 18.5t20.5 58.5q0 76 -86 76h-133v51l57 140q-247 20 -245 284v678h-215v82h215l4 309h94v-309h438v-82h-438v-653q0 -135 42 -182t161 -47h241z" />
    <glyph glyph-name="Tcaron" unicode="&#x164;" horiz-adv-x="1288" 
d="M713 1636h-146l-219 299h103l188 -268l190 268h101zM31 1421h1226v-88h-561v-1333h-104v1333h-561v88z" />
    <glyph glyph-name="tcaron" unicode="&#x165;" horiz-adv-x="819" 
d="M692 1546v-131q0 -99 -51.5 -157t-138.5 -58v60q121 0 121 133l-84 41v112h153zM541 68h241v-68q-140 -14 -254 -14q-145 0 -217 71.5t-71 214.5v678h-215v82h215l4 309h94v-309h438v-82h-438v-653q0 -135 42 -182t161 -47z" />
    <glyph glyph-name="Tbar" unicode="&#x166;" horiz-adv-x="1271" 
d="M1257 1421v-88h-561v-592h412v-86h-412v-655h-104v655h-418v86h418v592h-561v88h1226z" />
    <glyph glyph-name="tbar" unicode="&#x167;" horiz-adv-x="819" 
d="M541 68h241v-68q-140 -14 -254 -14q-145 0 -217 71.5t-71 214.5v246h-215v78h215v354h-215v82h215l4 309h94v-309h438v-82h-438v-354h438v-78h-438v-221q0 -135 42 -182t161 -47z" />
    <glyph glyph-name="Utilde" unicode="&#x168;" horiz-adv-x="1585" 
d="M948 1661q-74 0 -162 75q-89 74 -151 74q-119 0 -119 -145h-72q0 103 53 168q53 63 140 63q61 0 113 -37q43 -31 98 -76q47 -38 100 -38q63 0 92 36t29 111h72q0 -105 -52 -167q-52 -64 -141 -64zM244 487v934h104v-927q0 -424 445 -424q444 0 444 424v927h104v-934
q0 -231 -150 -371q-151 -141 -398 -141q-248 0 -398 141q-151 139 -151 371z" />
    <glyph glyph-name="utilde" unicode="&#x169;" horiz-adv-x="1298" 
d="M487 1421q-119 0 -118 -145h-72q0 104 52 168q53 63 140 63q61 0 113 -37q29 -22 99 -76q47 -38 100 -38q63 0 92 35.5t29 111.5h71q0 -105 -52 -167q-52 -64 -140 -64q-73 0 -162 75q-89 74 -152 74zM971 420v612h98v-1032h-94v223q-47 -120 -147.5 -184t-239.5 -64
q-164 0 -263 108q-100 106 -100 282v667h99v-624q0 -183 70.5 -265t228.5 -82q166 0 257 93.5t91 265.5z" />
    <glyph glyph-name="Umacron" unicode="&#x16a;" horiz-adv-x="1585" 
d="M522 1825h543v-82h-543v82zM244 487v934h104v-927q0 -424 445 -424q444 0 444 424v927h104v-934q0 -231 -150 -371q-151 -141 -398 -141q-248 0 -398 141q-151 139 -151 371z" />
    <glyph glyph-name="umacron" unicode="&#x16b;" horiz-adv-x="1298" 
d="M375 1436h543v-82h-543v82zM971 420v612h98v-1032h-94v223q-47 -120 -147.5 -184t-239.5 -64q-164 0 -263 108q-100 106 -100 282v667h99v-624q0 -183 70.5 -265t228.5 -82q166 0 257 93.5t91 265.5z" />
    <glyph glyph-name="Ubreve" unicode="&#x16c;" horiz-adv-x="1585" 
d="M983 1935h86q0 -137 -75 -222q-76 -85 -201 -85q-123 0 -199 85t-76 222h86q0 -121 45 -177t144 -56t144.5 56t45.5 177zM244 487v934h104v-927q0 -424 445 -424q444 0 444 424v927h104v-934q0 -231 -150 -371q-151 -141 -398 -141q-248 0 -398 141q-151 139 -151 371z
" />
    <glyph glyph-name="ubreve" unicode="&#x16d;" horiz-adv-x="1298" 
d="M645 1239q-123 0 -198 85q-76 85 -76 222h86q0 -121 45 -177t143 -56q100 0 145.5 56t45.5 177h86q0 -137 -76 -222t-201 -85zM971 420v612h98v-1032h-94v223q-47 -120 -147.5 -184t-239.5 -64q-164 0 -263 108q-100 106 -100 282v667h99v-624q0 -183 70.5 -265
t228.5 -82q166 0 257 93.5t91 265.5z" />
    <glyph glyph-name="Uring" unicode="&#x16e;" horiz-adv-x="1585" 
d="M920 1672q-49 -44 -125 -44q-79 0 -126 43q-48 43 -48 115q0 70 48 113t126 43t125 -43q47 -44 47 -113q0 -70 -47 -114zM795 1686q60 0 85 22.5t25 77.5q0 53 -25.5 75.5t-84.5 22.5q-61 0 -87 -22.5t-26 -75.5q0 -54 26 -77t87 -23zM244 487v934h104v-927
q0 -424 445 -424q444 0 444 424v927h104v-934q0 -231 -150 -371q-151 -141 -398 -141q-248 0 -398 141q-151 139 -151 371z" />
    <glyph glyph-name="uring" unicode="&#x16f;" horiz-adv-x="1298" 
d="M772 1283q-47 -44 -125 -44q-79 0 -126 43q-48 44 -48 115q0 70 48 112.5t126 42.5q79 0 125 -43q47 -44 47 -112q0 -70 -47 -114zM647 1495q-61 0 -86.5 -22.5t-25.5 -75.5q0 -55 25.5 -78t86.5 -23q60 0 85.5 22.5t25.5 78.5q0 53 -25.5 75.5t-85.5 22.5zM971 420v612
h98v-1032h-94v223q-47 -120 -147.5 -184t-239.5 -64q-164 0 -263 108q-100 106 -100 282v667h99v-624q0 -183 70.5 -265t228.5 -82q166 0 257 93.5t91 265.5z" />
    <glyph glyph-name="Uhungarumlaut" unicode="&#x170;" horiz-adv-x="1585" 
d="M641 1636l109 299h100l-127 -299h-82zM854 1636l117 299h121l-158 -299h-80zM244 487v934h104v-927q0 -424 445 -424q444 0 444 424v927h104v-934q0 -231 -150 -371q-151 -141 -398 -141q-248 0 -398 141q-151 139 -151 371z" />
    <glyph glyph-name="uhungarumlaut" unicode="&#x171;" horiz-adv-x="1298" 
d="M606 1546h101l-127 -299h-82zM827 1546h121l-157 -299h-80zM971 420v612h98v-1032h-94v223q-47 -120 -147.5 -184t-239.5 -64q-164 0 -263 108q-100 106 -100 282v667h99v-624q0 -183 70.5 -265t228.5 -82q166 0 257 93.5t91 265.5z" />
    <glyph glyph-name="Uogonek" unicode="&#x172;" horiz-adv-x="1585" 
d="M1237 494v927h104v-934q0 -194 -110 -327t-299 -172l-158 -207q-37 -50 -37 -86q0 -29 17.5 -40t62.5 -11h154v-68h-174q-70 0 -110 27.5t-40 77.5q0 53 51 110l150 186q-24 -2 -55 -2q-248 0 -398 141q-151 139 -151 371v934h104v-927q0 -424 445 -424q444 0 444 424z
" />
    <glyph glyph-name="uogonek" unicode="&#x173;" horiz-adv-x="1298" 
d="M946 -356h154v-68h-174q-70 0 -110 27.5t-40 77.5q0 53 51 110l168 209h-20v223q-47 -120 -147.5 -184t-239.5 -64q-164 0 -263 108q-100 106 -100 282v667h99v-624q0 -183 70.5 -265t228.5 -82q166 0 257 93.5t91 265.5v612h98v-1032l-166 -219q-37 -50 -37 -86
q0 -29 17.5 -40t62.5 -11z" />
    <glyph glyph-name="Wcircumflex" unicode="&#x174;" horiz-adv-x="2197" 
d="M1290 1636l-188 269l-191 -269h-102l219 299h146l219 -299h-103zM1665 287l360 1134h105l-453 -1421h-170l-338 1137l-67 249l-70 -251l-338 -1135h-174l-452 1421h108l359 -1134l73 -248l70 248l338 1134h170l338 -1134l67 -248z" />
    <glyph glyph-name="wcircumflex" unicode="&#x175;" horiz-adv-x="1814" 
d="M1102 1247l-189 269l-190 -269h-102l219 299h145l219 -299h-102zM1401 285l254 747h104l-362 -1032h-156l-250 737l-82 260l-82 -260l-249 -737h-160l-365 1032h109l256 -747l82 -254l82 252l249 749h154l252 -747l82 -254z" />
    <glyph glyph-name="Ycircumflex" unicode="&#x176;" horiz-adv-x="1277" 
d="M831 1636l-188 269l-190 -269h-103l219 299h146l219 -299h-103zM774 797l373 624h106l-561 -940v-481h-102v481l-563 940h112l375 -624l131 -236z" />
    <glyph glyph-name="ycircumflex" unicode="&#x177;" horiz-adv-x="1073" 
d="M715 1247l-189 269l-190 -269h-103l220 299h145l219 -299h-102zM633 285l299 747h100l-495 -1222q-86 -209 -258 -209q-75 0 -136 14v70h115q78 0 115 27q37 28 71 110l74 178h-61l-418 1032h104l301 -747l93 -242z" />
    <glyph glyph-name="Ydieresis" unicode="&#x178;" horiz-adv-x="1277" 
d="M416 1855h147v-155h-147v155zM725 1855h147v-155h-147v155zM774 797l373 624h106l-561 -940v-481h-102v481l-563 940h112l375 -624l131 -236z" />
    <glyph glyph-name="Zacute" unicode="&#x179;" horiz-adv-x="1255" 
d="M733 1935h119l-156 -299h-82zM133 82l316 6h733v-88h-1084v174l1045 1165l-316 -6h-723v88h1072v-176z" />
    <glyph glyph-name="zacute" unicode="&#x17a;" horiz-adv-x="1009" 
d="M598 1546h121l-156 -299h-84zM133 80l211 4h584v-84h-826v164l791 788l-217 -4h-563v84h805v-168z" />
    <glyph glyph-name="Zdotaccent" unicode="&#x17b;" horiz-adv-x="1255" 
d="M586 1855h147v-155h-147v155zM133 82l316 6h733v-88h-1084v174l1045 1165l-316 -6h-723v88h1072v-176z" />
    <glyph glyph-name="zdotaccent" unicode="&#x17c;" horiz-adv-x="1009" 
d="M451 1466h147v-155h-147v155zM133 80l211 4h584v-84h-826v164l791 788l-217 -4h-563v84h805v-168z" />
    <glyph glyph-name="Zcaron" unicode="&#x17d;" horiz-adv-x="1255" 
d="M729 1636h-145l-219 299h102l188 -268l191 268h100zM133 82l316 6h733v-88h-1084v174l1045 1165l-316 -6h-723v88h1072v-176z" />
    <glyph glyph-name="zcaron" unicode="&#x17e;" horiz-adv-x="1009" 
d="M596 1247h-145l-220 299h103l188 -268l191 268h100zM133 80l211 4h584v-84h-826v164l791 788l-217 -4h-563v84h805v-168z" />
    <glyph glyph-name="uni018F" unicode="&#x18f;" horiz-adv-x="1597" 
d="M797 1446q285 0 459 -203t174 -532q0 -331 -175 -533q-176 -203 -460 -203q-270 0 -441 168q-172 168 -172 451v137h1139q-7 617 -524 619q-245 0 -369.5 -103t-124.5 -303h-106q0 221 170 362q170 140 430 140zM795 70q500 0 524 573h-1030v-49q0 -524 506 -524z" />
    <glyph glyph-name="florin" unicode="&#x192;" horiz-adv-x="956" 
d="M932 1479h-242q-119 0 -169 -47q-49 -48 -72 -183l-39 -217h434l-17 -82h-432l-239 -1343h-99l238 1343h-213l14 82h215l43 248q50 281 340 281q154 0 250 -15z" />
    <glyph glyph-name="uni019D" unicode="&#x19d;" horiz-adv-x="1605" 
d="M1221 438v983h104v-1421h-178l-819 1376l8 -338v-1183q0 -254 -238 -254q-69 0 -123 14v68h109q85 0 116 43t31 159v1536h181l817 -1370z" />
    <glyph glyph-name="Gcaron" unicode="&#x1e6;" horiz-adv-x="1638" 
d="M905 1636h-145l-219 299h102l188 -268l191 268h100zM733 623v84h703v-707h-88v395q-45 -207 -178.5 -313.5t-348.5 -106.5q-293 0 -473 203q-180 202 -180 533q0 329 182 532t481 203q271 0 435 -136q164 -137 164 -360h-107q0 398 -492 400q-274 0 -414.5 -162
t-140.5 -477q0 -316 140.5 -478.5t414.5 -162.5q500 0 504 553h-602z" />
    <glyph glyph-name="gcaron" unicode="&#x1e7;" horiz-adv-x="1159" 
d="M651 1247h-145l-219 299h102l189 -268l190 268h100zM1116 1178v-86q-112 0 -162.5 -33.5t-56.5 -108.5q104 -98 104 -245q0 -149 -116 -244q-116 -94 -305 -94q-149 0 -252 59q-102 -49 -103 -154q0 -129 144 -129h411q140 0 223 -70q84 -70 84 -188q0 -127 -135 -206
q-135 -78 -358 -78q-225 0 -362 74q-138 75 -138 200q0 66 47 118t129 79q-58 25 -92.5 72t-34.5 106q0 127 146 201q-129 95 -129 254q0 157 116 255q115 97 304 97q161 0 274 -74q22 195 262 195zM341 512q76 -63 239 -63q160 0 239 62q78 61 78 194q0 137 -77 202.5
t-240 65.5q-162 0 -239 -65t-77 -203q0 -131 77 -193zM770 61h-463q-117 -52 -117 -176q0 -107 94 -153q94 -47 310 -47q214 0 306 47q91 46 91 153q0 96 -50 136t-171 40z" />
    <glyph glyph-name="uni01EA" unicode="&#x1ea;" horiz-adv-x="1669" 
d="M1028 0l-166 -219q-37 -50 -37 -86q0 -29 17.5 -40t62.5 -11h154v-68h-174q-70 0 -110 27.5t-40 77.5q0 53 51 110l154 191q-44 -5 -98 -7q-303 0 -488 203q-186 203 -186 533q0 329 186 532q185 203 488 203q296 0 478 -203q181 -202 181 -532q0 -272 -127 -462
q-128 -191 -346 -249zM420 1188q-144 -162 -144 -477q0 -316 144 -478q142 -163 422 -163q270 0 410.5 163t140.5 478t-140.5 477t-410.5 162q-280 0 -422 -162z" />
    <glyph glyph-name="uni01EB" unicode="&#x1eb;" horiz-adv-x="1284" 
d="M801 0l-166 -219q-37 -50 -37 -86q0 -29 17.5 -40t62.5 -11h153v-68h-174q-70 0 -109.5 27.5t-39.5 77.5q0 53 51 110l152 189q-14 -1 -68 -5q-216 0 -350 149q-133 148 -133 392q0 245 133 393t350 148t349 -148q132 -149 132 -393q0 -195 -86 -332q-88 -138 -237 -184z
M264 516q0 -457 379 -457q377 0 377 457q0 455 -377 455q-379 0 -379 -455z" />
    <glyph glyph-name="Aringacute" unicode="&#x1fa;" horiz-adv-x="1372" 
d="M813 1672q-47 -44 -125 -44q-79 0 -126 43q-48 43 -48 115q0 70 48 113t126 43q9 0 41 -5l98 183h95l-138 -201q76 -43 76 -133q0 -70 -47 -114zM688 1884q-61 0 -87 -22.5t-26 -75.5q0 -54 26 -77t87 -23q60 0 85.5 23t25.5 77q0 53 -25.5 75.5t-85.5 22.5zM1317 0h-109
l-182 475h-688l-180 -475h-105l535 1421h182zM586 1135l-215 -572h620l-219 572l-94 254z" />
    <glyph glyph-name="aringacute" unicode="&#x1fb;" horiz-adv-x="1161" 
d="M708 1282q-49 -43 -126 -43q-78 0 -125 44t-47 114q0 69 47 112t125 43q18 0 43 -4l98 183h94l-137 -201q76 -43 76 -133q0 -71 -48 -115zM582 1495q-60 0 -85.5 -22.5t-25.5 -75.5q0 -55 25.5 -78t85.5 -23q61 0 85.5 22.5t24.5 78.5q0 53 -25 75.5t-85 22.5zM1085 68
h41v-68q-59 -14 -100 -14q-90 0 -130 51t-40 170v49q-43 -129 -154 -205q-112 -76 -268 -76q-138 0 -220 66q-83 65 -83 174q0 100 69 165t222 97q373 83 432 103v59q0 174 -71.5 256t-221.5 82q-301 0 -301 -326h-100q0 181 111 294q109 112 290 112q180 0 285 -105
q104 -107 104 -288v-412q0 -120 24 -152q23 -32 111 -32zM455 57q180 0 290 101q109 100 109 276v82q-80 -22 -399 -96q-117 -26 -168 -73.5t-51 -123.5q0 -80 56.5 -123t162.5 -43z" />
    <glyph glyph-name="AEacute" unicode="&#x1fc;" horiz-adv-x="2015" 
d="M1223 1935h118l-155 -299h-82zM1057 674l225 -586h528v-88h-602l-182 475h-688l-180 -475h-105l535 1421h1210v-88h-993l219 -571h733v-88h-700zM586 1135l-215 -572h620l-219 572l-94 254z" />
    <glyph glyph-name="aeacute" unicode="&#x1fd;" horiz-adv-x="1947" 
d="M1020 1546h121l-156 -299h-84zM1792 571v-82h-829q12 -430 374 -430q177 0 261.5 64.5t84.5 200.5h103q0 -156 -123 -252q-122 -97 -326 -97q-167 0 -285 95q-117 94 -161 262q-27 -161 -146 -259q-121 -98 -303 -98q-140 0 -225 66q-86 65 -86 174q0 199 297 262
q398 91 432 103v59q0 338 -293 338q-301 0 -301 -326h-98q0 181 111 293q110 113 288 113q138 0 232 -67.5t129 -190.5q57 123 163.5 190.5t245.5 67.5q205 0 330 -134q125 -136 125 -352zM963 559l301 4h430q-8 408 -357 408q-356 0 -374 -412zM463 57q179 0 289 101
q108 100 108 276v82q-86 -27 -399 -96q-119 -27 -172 -74.5t-53 -122.5q0 -80 58 -123t169 -43z" />
    <glyph glyph-name="Oslashacute" unicode="&#x1fe;" horiz-adv-x="1669" 
d="M909 1935h119l-156 -299h-81zM1479 1546l-191 -270q213 -202 213 -565q0 -331 -181 -533q-182 -203 -478 -203q-221 0 -385 113l-158 -223h-109l197 280q-219 202 -219 566q0 331 186 533q184 202 488 202q214 0 377 -113l149 213h111zM276 711q0 -335 160 -496l733 1047
q-127 88 -327 88q-279 0 -422.5 -162t-143.5 -477zM842 70q270 0 410.5 163t140.5 478q0 330 -154 493l-733 -1046q133 -88 336 -88z" />
    <glyph glyph-name="oslashacute" unicode="&#x1ff;" horiz-adv-x="1302" 
d="M719 1546h121l-156 -299h-84zM1098 1186l110 2l-213 -281q133 -145 133 -391q0 -244 -132 -392q-132 -149 -349 -149q-169 0 -287 91l-159 -209l-111 -2l205 270q-131 151 -131 391q0 245 133 393t350 148q162 0 285 -90zM268 516q0 -208 80 -321l535 708q-89 68 -236 68
q-379 0 -379 -455zM1024 516q0 208 -80 324l-536 -709q94 -72 239 -72q377 0 377 457z" />
    <glyph glyph-name="uni0218" unicode="&#x218;" horiz-adv-x="1439" 
d="M727 -25q-256 0 -412 129q-157 129 -157 338h106q0 -374 465 -372q221 0 335 71.5t112 210.5q0 125 -98 199q-99 73 -386 129q-284 55 -394 138t-110 226q0 180 147 291q145 111 384 111q242 0 390 -130t148 -343h-106q0 377 -434 377q-208 0 -317 -74t-109 -217
q0 -113 95 -176q92 -63 376 -119q287 -57 404 -149q114 -93 114 -250q0 -176 -152 -283q-154 -107 -401 -107zM655 -326v113h154v-131q0 -92 -52 -146.5t-139 -54.5v60q121 0 121 120z" />
    <glyph glyph-name="uni0219" unicode="&#x219;" horiz-adv-x="1132" 
d="M588 -25q-208 0 -336 98q-127 97 -127 259h100q0 -140 90 -207.5t275 -67.5q322 0 321 189q0 92 -74 143q-74 50 -276 88q-212 42 -307.5 109.5t-95.5 179.5q0 131 111 211q110 80 290 80q195 0 313 -97q117 -98 117 -258h-100q0 271 -332 273q-303 0 -303 -197
q0 -88 77 -135t290 -86q205 -39 296 -109t91 -190q0 -127 -116 -205t-304 -78zM502 -326v113h151v-131q0 -94 -51 -147.5t-139 -53.5v60q123 0 123 120z" />
    <glyph glyph-name="uni021A" unicode="&#x21a;" horiz-adv-x="1288" 
d="M31 1421h1226v-88h-561v-1333h-104v1333h-561v88zM651 -365l-84 39v113h154v-131q0 -92 -52 -146.5t-139 -54.5v60q121 0 121 120z" />
    <glyph glyph-name="uni021B" unicode="&#x21b;" horiz-adv-x="819" 
d="M541 68h241v-68q-140 -14 -254 -14q-145 0 -217 71.5t-71 214.5v678h-215v82h215l4 309h94v-309h438v-82h-438v-653q0 -135 42 -182t161 -47zM522 -365l-84 39v113h152v-131q0 -93 -51.5 -147t-139.5 -54v60q123 0 123 120z" />
    <glyph glyph-name="uni0232" unicode="&#x232;" horiz-adv-x="1277" 
d="M371 1825h542v-82h-542v82zM774 797l373 624h106l-561 -940v-481h-102v481l-563 940h112l375 -624l131 -236z" />
    <glyph glyph-name="uni0233" unicode="&#x233;" horiz-adv-x="1073" 
d="M252 1436h543v-82h-543v82zM633 285l299 747h100l-495 -1222q-86 -209 -258 -209q-75 0 -136 14v70h115q78 0 115 27q37 28 71 110l74 178h-61l-418 1032h104l301 -747l93 -242z" />
    <glyph glyph-name="uni0237" unicode="&#x237;" horiz-adv-x="526" 
d="M231 -115v1147h99v-1177q0 -254 -232 -254q-69 0 -123 14v68h109q85 0 116 43t31 159z" />
    <glyph glyph-name="uni0259" unicode="&#x259;" horiz-adv-x="1251" 
d="M608 1057q219 0 353 -146q133 -146 133 -387q0 -248 -132 -398q-133 -151 -348 -151q-204 0 -329 134t-125 350v76h827q-4 436 -379 436q-160 0 -249 -71t-89 -198h-102q0 150 126 253q126 102 314 102zM614 59q349 0 371 406l-297 -4h-432q12 -402 358 -402z" />
    <glyph glyph-name="uni0272" unicode="&#x272;" horiz-adv-x="1312" 
d="M715 1057q169 0 272 -106t103 -283v-668h-99v635q0 175 -73 254.5t-230 79.5q-170 0 -264 -95.5t-94 -269.5v-749q0 -254 -232 -254q-69 0 -123 14v68h109q90 0 119 39q28 40 28 163v1147h95v-231q49 125 149.5 190.5t239.5 65.5z" />
    <glyph glyph-name="circumflex" unicode="&#x2c6;" horiz-adv-x="792" 
d="M481 1546l219 -299h-102l-188 269l-191 -269h-102l219 299h145z" />
    <glyph glyph-name="caron" unicode="&#x2c7;" horiz-adv-x="765" 
d="M383 1278l190 268h101l-217 -299h-146l-219 299h103z" />
    <glyph glyph-name="breve" unicode="&#x2d8;" horiz-adv-x="827" 
d="M602 1546h86q0 -136 -75 -222q-76 -85 -199 -85t-199 85t-76 222h86q0 -123 44.5 -178t144.5 -55t144 55t44 178z" />
    <glyph glyph-name="dotaccent" unicode="&#x2d9;" horiz-adv-x="292" 
d="M74 1311v155h147v-155h-147z" />
    <glyph glyph-name="ring" unicode="&#x2da;" horiz-adv-x="569" 
d="M411 1283q-50 -44 -126 -44q-78 0 -125 44t-47 114q0 68 47 112q46 43 125 43q77 0 126 -43q48 -43 48 -112q0 -71 -48 -114zM200 1319q26 -23 85 -23t85 23q25 22 25 78q0 53 -25.5 75.5t-84.5 22.5q-60 0 -85.5 -22.5t-25.5 -75.5q0 -55 26 -78z" />
    <glyph glyph-name="ogonek" unicode="&#x2db;" horiz-adv-x="466" 
d="M387 -356v-68h-174q-70 0 -110 27.5t-40 77.5q0 54 52 110l168 209h73l-166 -219q-38 -51 -36 -86q0 -29 17 -40t62 -11h154z" />
    <glyph glyph-name="tilde" unicode="&#x2dc;" horiz-adv-x="882" 
d="M598 1272q-74 0 -162 75q-89 74 -151 74q-121 0 -121 -145h-70q0 103 53 168q53 63 140 63q77 0 162 -75q85 -76 149 -76q121 0 121 147h72q0 -105 -52 -167q-52 -64 -141 -64z" />
    <glyph glyph-name="hungarumlaut" unicode="&#x2dd;" horiz-adv-x="630" 
d="M92 1247l109 299h100l-127 -299h-82zM305 1247l117 299h121l-158 -299h-80z" />
    <glyph glyph-name="gravecomb" unicode="&#x300;" horiz-adv-x="0" 
d="M-330 1546h119l119 -299h-80z" />
    <glyph glyph-name="acutecomb" unicode="&#x301;" horiz-adv-x="0" 
d="M-301 1247l119 299h121l-156 -299h-84z" />
    <glyph glyph-name="uni0302" unicode="&#x302;" horiz-adv-x="0" 
d="M-311 1546l219 -299h-103l-188 269l-190 -269h-103l219 299h146z" />
    <glyph glyph-name="tildecomb" unicode="&#x303;" horiz-adv-x="0" 
d="M-289 1272q-73 0 -162 75q-89 74 -151 74q-119 0 -119 -145h-72q0 104 52 168q53 63 141 63q62 0 112 -37q42 -30 99 -76q47 -38 100 -38q63 0 92 35.5t29 111.5h72q0 -103 -53 -167q-52 -64 -140 -64z" />
    <glyph glyph-name="uni0304" unicode="&#x304;" horiz-adv-x="0" 
d="M-635 1436h543v-82h-543v82z" />
    <glyph glyph-name="uni0306" unicode="&#x306;" horiz-adv-x="0" 
d="M-178 1546h86q0 -137 -76 -222t-201 -85q-123 0 -199 85q-75 86 -75 222h86q0 -121 45 -177t143 -56q100 0 145.5 56t45.5 177z" />
    <glyph glyph-name="uni0307" unicode="&#x307;" horiz-adv-x="0" 
d="M-219 1311v155h147v-155h-147z" />
    <glyph glyph-name="uni0308" unicode="&#x308;" horiz-adv-x="0" 
d="M-547 1311v155h148v-155h-148zM-238 1311v155h148v-155h-148z" />
    <glyph glyph-name="uni030A" unicode="&#x30a;" horiz-adv-x="0" 
d="M-139 1283q-47 -44 -125 -44q-79 0 -126 43q-48 44 -48 115q0 70 48 112.5t126 42.5q79 0 125 -43q47 -44 47 -112q0 -70 -47 -114zM-264 1296q60 0 85 22.5t25 78.5q0 53 -25.5 75.5t-84.5 22.5q-61 0 -87 -22.5t-26 -75.5q0 -55 26 -78t87 -23z" />
    <glyph glyph-name="uni030B" unicode="&#x30b;" horiz-adv-x="0" 
d="M-739 1247l108 299h101l-127 -299h-82zM-526 1247l116 299h121l-157 -299h-80z" />
    <glyph glyph-name="uni030C" unicode="&#x30c;" horiz-adv-x="0" 
d="M-387 1278l190 268h101l-217 -299h-146l-219 299h103z" />
    <glyph glyph-name="uni0312" unicode="&#x312;" horiz-adv-x="0" 
d="M-133 1360v-113h-152v131q0 92 51.5 144.5t139.5 52.5v-59q-123 0 -123 -117z" />
    <glyph glyph-name="dotbelowcomb" unicode="&#x323;" horiz-adv-x="0" 
d="M-244 -365v152h152v-152h-152z" />
    <glyph glyph-name="uni0326" unicode="&#x326;" horiz-adv-x="0" 
d="M-287 -326v113h152v-131q0 -93 -51.5 -147t-139.5 -54v60q123 0 123 120z" />
    <glyph glyph-name="uni0327" unicode="&#x327;" horiz-adv-x="0" 
d="M-350 -141h74q74 0 118.5 -38t44.5 -102q0 -65 -47 -104t-123 -39h-157v68h151q45 0 65.5 18.5t20.5 58.5q0 76 -86 76h-133v51l62 152h63z" />
    <glyph glyph-name="uni0328" unicode="&#x328;" horiz-adv-x="0" 
d="M-131 -356v-68h-174q-70 0 -110 27.5t-40 77.5q0 54 52 110l167 209h74l-166 -219q-37 -50 -37 -86q0 -29 17.5 -40t62.5 -11h154z" />
    <glyph glyph-name="uni0394" unicode="&#x394;" horiz-adv-x="1349" 
d="M578 1421h182l514 -1333v-88h-1200v88zM668 1389l-93 -254l-397 -1047h985l-401 1047z" />
    <glyph glyph-name="uni03A9" unicode="&#x3a9;" horiz-adv-x="1683" 
d="M995 74l222 10h305v-84h-547v135q207 37 315.5 187.5t108.5 402.5q0 307 -141.5 466t-415.5 159q-275 0 -417 -158.5t-142 -466.5q0 -254 108.5 -403.5t317.5 -186.5v-135h-547v84h305l221 -10q-231 38 -372 216q-142 178 -142 439q0 325 184 521q183 196 484 196
q299 0 482 -196q183 -197 183 -521q0 -261 -139 -439q-140 -179 -373 -216z" />
    <glyph glyph-name="uni03BC" unicode="&#x3bc;" horiz-adv-x="1298" 
d="M971 420v612h98v-1032h-94v221q-97 -246 -379 -246q-172 0 -274 119v-479h-97v1417h99v-624q0 -183 70.5 -265t228.5 -82q166 0 257 93.5t91 265.5z" />
    <glyph glyph-name="pi" unicode="&#x3c0;" horiz-adv-x="1261" 
d="M1139 80h90v-68q-39 -14 -105 -14q-209 0 -209 217v735h-579v-950h-100v950h-216v82h1207v-82h-213v-717q0 -95 24 -123q22 -30 101 -30z" />
    <glyph glyph-name="Wgrave" unicode="&#x1e80;" horiz-adv-x="2197" 
d="M1022 1935l119 -299h-80l-158 299h119zM1665 287l360 1134h105l-453 -1421h-170l-338 1137l-67 249l-70 -251l-338 -1135h-174l-452 1421h108l359 -1134l73 -248l70 248l338 1134h170l338 -1134l67 -248z" />
    <glyph glyph-name="wgrave" unicode="&#x1e81;" horiz-adv-x="1814" 
d="M831 1546l119 -299h-80l-157 299h118zM1401 285l254 747h104l-362 -1032h-156l-250 737l-82 260l-82 -260l-249 -737h-160l-365 1032h109l256 -747l82 -254l82 252l249 749h154l252 -747l82 -254z" />
    <glyph glyph-name="Wacute" unicode="&#x1e82;" horiz-adv-x="2197" 
d="M1174 1935h118l-155 -299h-82zM1665 287l360 1134h105l-453 -1421h-170l-338 1137l-67 249l-70 -251l-338 -1135h-174l-452 1421h108l359 -1134l73 -248l70 248l338 1134h170l338 -1134l67 -248z" />
    <glyph glyph-name="wacute" unicode="&#x1e83;" horiz-adv-x="1814" 
d="M983 1546h121l-156 -299h-84zM1401 285l254 747h104l-362 -1032h-156l-250 737l-82 260l-82 -260l-249 -737h-160l-365 1032h109l256 -747l82 -254l82 252l249 749h154l252 -747l82 -254z" />
    <glyph glyph-name="Wdieresis" unicode="&#x1e84;" horiz-adv-x="2197" 
d="M872 1855h148v-155h-148v155zM1182 1855h147v-155h-147v155zM1665 287l360 1134h105l-453 -1421h-170l-338 1137l-67 249l-70 -251l-338 -1135h-174l-452 1421h108l359 -1134l73 -248l70 248l338 1134h170l338 -1134l67 -248z" />
    <glyph glyph-name="wdieresis" unicode="&#x1e85;" horiz-adv-x="1814" 
d="M684 1466h147v-155h-147v155zM993 1466h148v-155h-148v155zM1401 285l254 747h104l-362 -1032h-156l-250 737l-82 260l-82 -260l-249 -737h-160l-365 1032h109l256 -747l82 -254l82 252l249 749h154l252 -747l82 -254z" />
    <glyph glyph-name="uni1EA0" unicode="&#x1ea0;" horiz-adv-x="1372" 
d="M770 1421l547 -1421h-109l-182 475h-688l-180 -475h-105l535 1421h182zM586 1135l-215 -572h620l-219 572l-94 254zM762 -365h-152v152h152v-152z" />
    <glyph glyph-name="uni1EA1" unicode="&#x1ea1;" horiz-adv-x="1161" 
d="M1085 68h41v-68q-59 -14 -100 -14q-90 0 -130 51t-40 170v49q-43 -129 -154 -205q-112 -76 -268 -76q-138 0 -220 66q-83 65 -83 174q0 100 69 165t222 97q373 83 432 103v59q0 174 -71.5 256t-221.5 82q-301 0 -301 -326h-100q0 181 111 294q109 112 290 112
q180 0 285 -105q104 -107 104 -288v-412q0 -120 24 -152q23 -32 111 -32zM455 57q180 0 290 101q109 100 109 276v82q-80 -22 -399 -96q-117 -26 -168 -73.5t-51 -123.5q0 -80 56.5 -123t162.5 -43zM670 -365h-152v152h152v-152z" />
    <glyph glyph-name="uni1EB8" unicode="&#x1eb8;" horiz-adv-x="1368" 
d="M385 674v-586h776v-88h-880v1421h868v-88h-764v-571h723v-88h-723zM807 -365h-152v152h152v-152z" />
    <glyph glyph-name="uni1EB9" unicode="&#x1eb9;" horiz-adv-x="1249" 
d="M1094 571v-82h-830q12 -430 381 -430q167 0 253.5 68.5t86.5 196.5h102q0 -148 -123 -248q-125 -101 -319 -101q-218 0 -352 149q-133 148 -133 392t131 393q130 148 348 148q205 0 330 -134q125 -136 125 -352zM264 559l301 4h430q-7 408 -356 408q-357 0 -375 -412z
M717 -365h-152v152h152v-152z" />
    <glyph glyph-name="uni1EBC" unicode="&#x1ebc;" horiz-adv-x="1368" 
d="M547 1810q-119 0 -119 -145h-72q0 103 53 168q53 63 140 63q61 0 113 -37q43 -31 98 -76q47 -38 100 -38q63 0 92 36t29 111h72q0 -105 -52 -167q-52 -64 -141 -64q-74 0 -162 75q-89 74 -151 74zM385 674v-586h776v-88h-880v1421h868v-88h-764v-571h723v-88h-723z" />
    <glyph glyph-name="uni1EBD" unicode="&#x1ebd;" horiz-adv-x="1249" 
d="M483 1421q-119 0 -118 -145h-72q0 104 52 168q53 63 140 63q61 0 113 -37q43 -31 98 -76q47 -38 101 -38q63 0 92 35.5t29 111.5h71q0 -105 -52 -167q-52 -64 -140 -64q-73 0 -162 75q-89 74 -152 74zM1094 571v-82h-830q12 -430 381 -430q167 0 253.5 68.5t86.5 196.5
h102q0 -148 -123 -248q-125 -101 -319 -101q-218 0 -352 149q-133 148 -133 392t131 393q130 148 348 148q205 0 330 -134q125 -136 125 -352zM264 559l301 4h430q-7 408 -356 408q-357 0 -375 -412z" />
    <glyph glyph-name="uni1ECA" unicode="&#x1eca;" horiz-adv-x="665" 
d="M281 0v1421h104v-1421h-104zM256 -365v152h152v-152h-152z" />
    <glyph glyph-name="uni1ECB" unicode="&#x1ecb;" horiz-adv-x="550" 
d="M207 1311v155h147v-155h-147zM231 0v1032h99v-1032h-99zM203 -365v152h151v-152h-151z" />
    <glyph glyph-name="uni1ECC" unicode="&#x1ecc;" horiz-adv-x="1669" 
d="M842 -25q-303 0 -488 203q-186 203 -186 533q0 329 186 532q185 203 488 203q296 0 478 -203q181 -202 181 -532q0 -331 -181 -533q-182 -203 -478 -203zM842 70q270 0 410.5 163t140.5 478t-140.5 477t-410.5 162q-279 0 -422.5 -162t-143.5 -477q0 -316 143.5 -478.5
t422.5 -162.5zM764 -365v152h151v-152h-151z" />
    <glyph glyph-name="uni1ECD" unicode="&#x1ecd;" horiz-adv-x="1284" 
d="M992 124q-132 -149 -349 -149q-216 0 -350 149q-133 148 -133 392q0 245 133 393t350 148t349 -148q132 -149 132 -393t-132 -392zM643 59q377 0 377 457q0 455 -377 455q-379 0 -379 -455q0 -457 379 -457zM565 -365v152h152v-152h-152z" />
    <glyph glyph-name="uni1EE4" unicode="&#x1ee4;" horiz-adv-x="1585" 
d="M244 487v934h104v-927q0 -424 445 -424q444 0 444 424v927h104v-934q0 -231 -150 -371q-151 -141 -398 -141q-248 0 -398 141q-151 139 -151 371zM715 -365v152h151v-152h-151z" />
    <glyph glyph-name="uni1EE5" unicode="&#x1ee5;" horiz-adv-x="1298" 
d="M971 420v612h98v-1032h-94v223q-47 -120 -147.5 -184t-239.5 -64q-164 0 -263 108q-100 106 -100 282v667h99v-624q0 -183 70.5 -265t228.5 -82q166 0 257 93.5t91 265.5zM721 -365h-152v152h152v-152z" />
    <glyph glyph-name="Ygrave" unicode="&#x1ef2;" horiz-adv-x="1277" 
d="M563 1935l119 -299h-80l-158 299h119zM774 797l373 624h106l-561 -940v-481h-102v481l-563 940h112l375 -624l131 -236z" />
    <glyph glyph-name="ygrave" unicode="&#x1ef3;" horiz-adv-x="1073" 
d="M444 1546l119 -299h-80l-157 299h118zM633 285l299 747h100l-495 -1222q-86 -209 -258 -209q-75 0 -136 14v70h115q78 0 115 27q37 28 71 110l74 178h-61l-418 1032h104l301 -747l93 -242z" />
    <glyph glyph-name="uni1EF8" unicode="&#x1ef8;" horiz-adv-x="1277" 
d="M483 1810q-119 0 -118 -145h-72q0 104 52 168q53 63 140 63q61 0 113 -37q43 -31 98 -76q47 -38 101 -38q63 0 92 36t29 111h71q0 -105 -52 -167q-52 -64 -140 -64q-73 0 -162 75q-89 74 -152 74zM774 797l373 624h106l-561 -940v-481h-102v481l-563 940h112l375 -624
l131 -236z" />
    <glyph glyph-name="uni1EF9" unicode="&#x1ef9;" horiz-adv-x="1073" 
d="M365 1421q-119 0 -119 -145h-72q0 103 53 168q53 63 140 63q62 0 112 -37q29 -22 99 -76q47 -38 100 -38q63 0 92 35.5t29 111.5h71q0 -105 -52 -167q-52 -64 -140 -64q-74 0 -162 75q-89 74 -151 74zM633 285l299 747h100l-495 -1222q-86 -209 -258 -209q-75 0 -136 14
v70h115q78 0 115 27q37 28 71 110l74 178h-61l-418 1032h104l301 -747l93 -242z" />
    <glyph glyph-name="endash" unicode="&#x2013;" horiz-adv-x="1009" 
d="M102 563h826v-84h-826v84z" />
    <glyph glyph-name="emdash" unicode="&#x2014;" horiz-adv-x="1626" 
d="M102 563h1442v-84h-1442v84z" />
    <glyph glyph-name="quoteleft" unicode="&#x2018;" horiz-adv-x="401" 
d="M285 1133v-132h-166v158q0 100 55 156.5t154 56.5v-67q-136 0 -138 -131z" />
    <glyph glyph-name="quoteright" unicode="&#x2019;" horiz-adv-x="401" 
d="M119 1219v129h164v-158q0 -100 -55.5 -156.5t-153.5 -56.5v67q137 0 137 132z" />
    <glyph glyph-name="quotesinglbase" unicode="&#x201a;" horiz-adv-x="372" 
d="M117 27v139h166v-166q0 -119 -56.5 -187.5t-152.5 -68.5v68q133 0 133 165z" />
    <glyph glyph-name="quotedblleft" unicode="&#x201c;" horiz-adv-x="692" 
d="M575 1133v-132h-165v158q0 100 55 156.5t153 56.5v-67q-137 0 -137 -131zM285 1128v-127h-166v150q0 98 55 152.5t154 54.5v-68q-137 0 -138 -121z" />
    <glyph glyph-name="quotedblright" unicode="&#x201d;" horiz-adv-x="692" 
d="M119 1219v129h164v-158q0 -100 -55.5 -156.5t-153.5 -56.5v67q137 0 137 132zM408 1221v127h165v-150q0 -98 -55 -152.5t-153 -54.5v68q137 0 137 121z" />
    <glyph glyph-name="quotedblbase" unicode="&#x201e;" horiz-adv-x="370" 
d="M115 27v139h166v-166q0 -121 -55.5 -188.5t-153.5 -67.5v68q135 0 135 165z" />
    <glyph glyph-name="dagger" unicode="&#x2020;" horiz-adv-x="749" 
d="M428 719h256v-92h-256v-320h-104v320h-261v92h261v702h104v-702z" />
    <glyph glyph-name="daggerdbl" unicode="&#x2021;" horiz-adv-x="749" 
d="M684 1157v-92h-256v-387h256v-92h-256v-279h-104v279h-261v92h261v387h-261v92h261v264h104v-264h256z" />
    <glyph glyph-name="bullet" unicode="&#x2022;" horiz-adv-x="460" 
d="M125 416v211h211v-211h-211z" />
    <glyph glyph-name="ellipsis" unicode="&#x2026;" horiz-adv-x="1030" 
d="M125 0v158h156v-158h-156zM451 0v158h157v-158h-157zM778 0v158h158v-158h-158z" />
    <glyph glyph-name="perthousand" unicode="&#x2030;" horiz-adv-x="1914" 
d="M616 908q-86 -87 -225 -87t-225 86t-86 228q0 139 86 225t225 86t225 -86t86 -225q0 -141 -86 -227zM1184 1421h108l-426 -620h-92zM553 1301q-61 63 -161 63t-162 -63q-62 -65 -62 -166q0 -105 61 -167q60 -63 162 -63q101 0 162 63q61 61 61 167q0 102 -61 166zM215 0
h-109l424 621h95zM1532 600q135 0 219 -86t84 -225q0 -141 -84 -226q-84 -86 -219 -86q-99 0 -170.5 56.5t-95.5 152.5q-25 -97 -96 -153t-171 -56q-135 0 -219 85q-84 86 -84 227q0 139 84 225t219 86q99 0 170.5 -56.5t96.5 -154.5q25 98 96.5 154.5t169.5 56.5zM845 122
q60 -63 163 -63q102 0 163 63q60 61 60 167q0 102 -61 166q-62 63 -162 63t-162 -63q-62 -65 -62 -166q0 -105 61 -167zM1524 59q102 0 162.5 62.5t60.5 167.5q0 102 -61 166q-62 63 -162 63t-162 -63q-62 -65 -62 -166q0 -103 62 -167q62 -63 162 -63z" />
    <glyph glyph-name="guilsinglleft" unicode="&#x2039;" horiz-adv-x="524" 
d="M367 907h114l-372 -379l372 -378h-114l-316 321v115z" />
    <glyph glyph-name="guilsinglright" unicode="&#x203a;" horiz-adv-x="524" 
d="M43 907h115l315 -321v-115l-315 -321h-115l373 378z" />
    <glyph glyph-name="fraction" unicode="&#x2044;" horiz-adv-x="274" 
d="M-479 0l1169 1434h94l-1169 -1434h-94z" />
    <glyph glyph-name="uni20AA" unicode="&#x20aa;" horiz-adv-x="1822" 
d="M1061 377v678q0 145 -59.5 209.5t-194.5 64.5h-455v-1329h-102v1421h575q154 0 247 -95t93 -251v-698h-104zM1468 365v1056h105v-1077q-6 -159 -97 -251q-92 -93 -243 -93h-576v1042h103v-952h454q134 0 194 65t60 210z" />
    <glyph glyph-name="Euro" unicode="&#x20ac;" horiz-adv-x="1515" 
d="M297 893h557l-14 -72h-860v72h210q45 257 208 405t403 148t392 -139q153 -140 153 -371h-107q0 414 -438 414q-437 0 -504 -457zM801 70q438 0 438 395h104q0 -225 -152 -357q-152 -133 -390 -133q-242 0 -405 151q-162 149 -206 409h-210v71h815l-15 -71h-485
q71 -465 506 -465z" />
    <glyph glyph-name="uni2113" unicode="&#x2113;" horiz-adv-x="800" 
d="M330 586v-357q0 -96 29 -128q29 -33 108 -33h145v-68q-64 -14 -163 -14q-217 0 -218 231v367h-122v88h122v594q0 133 60 214q59 81 158 81q96 0 156 -119q59 -120 59 -312q0 -234 -91 -380q-91 -147 -243 -164zM449 1475q-63 0 -91 -46t-28 -151v-606q125 8 183 118.5
t58 339.5q0 182 -28.5 263.5t-93.5 81.5z" />
    <glyph glyph-name="uni2116" unicode="&#x2116;" horiz-adv-x="2250" 
d="M1915 1446q131 0 210 -81q79 -80 79 -212q0 -134 -79 -213q-80 -80 -210 -80q-129 0 -208 81q-79 80 -79 212t79 212q79 81 208 81zM1278 49l-8 389v983h104v-1421h-178l-819 1376l8 -338v-1038h-104v1421h180zM1710 1153q0 -221 205 -221t205 221q0 219 -205 219
t-205 -219zM2001 598h-170v90h170v-90z" />
    <glyph glyph-name="trademark" unicode="&#x2122;" horiz-adv-x="1454" 
d="M8 1421h541v-65h-232v-525h-77v525h-232v65zM1235 1421h139v-590h-76v463l2 109l-223 -572h-127l-221 574l2 -111v-463h-76v590h142l194 -495l25 -72l24 72z" />
    <glyph glyph-name="onethird" unicode="&#x2153;" horiz-adv-x="1466" 
d="M98 0l1168 1434h94l-1170 -1434h-92zM418 1274l2 127l-47 -45l-133 -117v90l104 92h154v-592h-80v445zM1202 305q158 -17 158 -149q0 -76 -63 -123q-65 -47 -169 -47q-102 0 -165 54q-64 54 -64 142h84q0 -127 145 -127q150 0 150 105q0 100 -131 100h-111v62h97
q121 0 120 102q0 117 -129 117q-135 0 -135 -135h-82q0 92 59.5 147t157.5 55q96 0 153.5 -47t57.5 -123q0 -111 -133 -133z" />
    <glyph glyph-name="twothirds" unicode="&#x2154;" horiz-adv-x="1468" 
d="M272 895h291v-66h-459v117l277 184q55 37 73 61q17 23 17 71q0 115 -133 114q-150 0 -150 -145h-82q0 96 64 156q64 59 166 59q98 0 156.5 -50t58.5 -132q0 -58 -30.5 -99.5t-104.5 -87.5l-209 -139l-74 -45zM109 0l1167 1434h94l-1169 -1434h-92zM1190 305
q160 -16 160 -149q0 -77 -64 -123q-65 -47 -170 -47q-102 0 -164 54q-63 54 -63 142h82q0 -127 148 -127q147 0 147 105q0 53 -31 76.5t-100 23.5h-111v62h96q123 0 123 102q0 117 -129 117q-137 0 -137 -135h-82q0 92 59.5 147t157.5 55q96 0 154.5 -46t58.5 -124
q0 -110 -135 -133z" />
    <glyph glyph-name="oneeighth" unicode="&#x215b;" horiz-adv-x="1458" 
d="M98 0l1168 1434h94l-1170 -1434h-92zM410 1274l4 127l-47 -45l-134 -117v90l103 92h156v-592h-82v445zM1165 305q80 -12 125 -53t45 -102q0 -74 -65 -119q-66 -45 -174 -45q-106 0 -172 45t-66 119q0 130 168 155q-71 10 -111.5 46.5t-40.5 90.5q0 76 60.5 121t161.5 45
t162 -45t61 -121q0 -54 -41 -90.5t-113 -46.5zM956 432q0 -102 140 -102q141 0 141 102q0 109 -141 109q-140 0 -140 -109zM1096 55q79 0 118.5 27t38.5 82q0 113 -157 112q-156 0 -156 -112q0 -109 156 -109z" />
    <glyph glyph-name="threeeighths" unicode="&#x215c;" horiz-adv-x="1458" 
d="M362 891q150 0 150 106q0 51 -31 75t-100 24h-111v63h97q61 0 91 25.5t29 75.5q0 118 -129 116q-135 0 -135 -135h-82q0 92 60 149q59 56 157 56q94 0 153 -47q58 -46 58 -125q0 -110 -135 -133q160 -16 160 -150q0 -77 -64 -123q-65 -47 -167 -47q-104 0 -166 55
q-64 54 -64 142h82q0 -127 147 -127zM98 0l1168 1434h94l-1170 -1434h-92zM1124 305q80 -12 125 -53t45 -102q0 -74 -65.5 -119t-173.5 -45q-109 0 -174.5 45t-65.5 119q0 61 45 102t125 53q-71 10 -111 46.5t-40 90.5q0 76 60 121t161 45t161 -45t60 -121
q0 -54 -40.5 -90.5t-111.5 -46.5zM913 432q0 -102 142 -102q141 0 141 102q0 109 -141 109q-142 0 -142 -109zM897 164q0 -109 158 -109q157 0 157 109q0 113 -157 113q-158 -2 -158 -113z" />
    <glyph glyph-name="fiveeighths" unicode="&#x215d;" horiz-adv-x="1458" 
d="M98 0l1168 1434h94l-1170 -1434h-92zM408 889q137 0 137 129q0 123 -137 123q-100 0 -152 -64h-72l31 344h387v-69h-225l-98 2l-23 -246q57 96 172 96q90 0 144.5 -51t54.5 -135q0 -88 -60 -142q-61 -55 -161 -55q-104 0 -167 51q-63 50 -63 132h84q1 -115 148 -115z
M1151 305q80 -12 125 -53t45 -102q0 -74 -65.5 -119t-173.5 -45q-109 0 -174.5 45t-65.5 119q0 61 45 102t125 53q-71 10 -111.5 46.5t-40.5 90.5q0 76 60.5 121t161.5 45t161 -45t60 -121q0 -54 -40.5 -90.5t-111.5 -46.5zM942 432q0 -102 139 -102q141 0 142 102
q0 109 -142 109q-139 0 -139 -109zM924 164q0 -109 158 -109q157 0 157 109q0 113 -157 113q-158 -2 -158 -113z" />
    <glyph glyph-name="seveneighths" unicode="&#x215e;" horiz-adv-x="1458" 
d="M98 0l1168 1434h94l-1170 -1434h-92zM606 1356l-135 -2h-272v67h424v-114q-103 -91 -161 -213q-59 -124 -59 -252h-79q0 144 76 280q75 136 206 234zM1167 305q80 -12 125 -53t45 -102q0 -74 -65.5 -119t-173.5 -45q-109 0 -174.5 45t-65.5 119q0 61 45 102t125 53
q-71 10 -111 46.5t-40 90.5q0 76 60 121t161 45t161 -45t60 -121q0 -54 -40.5 -90.5t-111.5 -46.5zM956 432q0 -102 142 -102q141 0 141 102q0 109 -141 109q-142 0 -142 -109zM940 164q0 -109 158 -109q157 0 157 109q0 113 -157 113q-158 -2 -158 -113z" />
    <glyph glyph-name="arrowleft" unicode="&#x2190;" horiz-adv-x="1413" 
d="M221 745l1098 11v-103l-1100 11l498 -494l-64 -64l-600 599l600 600l64 -68z" />
    <glyph glyph-name="arrowup" unicode="&#x2191;" horiz-adv-x="1402" 
d="M715 1376l598 -598l-64 -65l-493 497l10 -1136h-102l10 1134l-492 -495l-67 65z" />
    <glyph glyph-name="arrowright" unicode="&#x2192;" horiz-adv-x="1413" 
d="M696 1237l64 68l600 -600l-600 -599l-64 64l498 494l-1100 -11v103l1098 -11z" />
    <glyph glyph-name="arrowdown" unicode="&#x2193;" horiz-adv-x="1402" 
d="M741 195l494 497l65 -65l-600 -598l-598 598l66 65l491 -495l-10 1134h103z" />
    <glyph glyph-name="arrowboth" unicode="&#x2194;" horiz-adv-x="1855" 
d="M1135 1225l65 65l565 -565l-565 -565l-65 65l464 459h-1343l465 -459l-64 -65l-565 565l565 565l64 -65l-463 -457h1339z" />
    <glyph glyph-name="arrowupdn" unicode="&#x2195;" horiz-adv-x="1263" 
d="M676 49l457 461l65 -64l-567 -565l-565 565l65 64l457 -463v1333l-457 -462l-65 65l565 565l565 -565l-66 -65l-454 460v-1329z" />
    <glyph glyph-name="uni2196" unicode="&#x2196;" horiz-adv-x="1132" 
d="M262 1094l813 -797l-74 -72l-796 809l4 -698h-94v846h848v-92z" />
    <glyph glyph-name="uni2197" unicode="&#x2197;" horiz-adv-x="1132" 
d="M166 1108l-2 92l850 -2v-846h-94l4 699l-797 -809l-74 71l811 799z" />
    <glyph glyph-name="uni2198" unicode="&#x2198;" horiz-adv-x="1130" 
d="M924 406l-4 698l92 2v-848h-848v92l700 -4l-811 799l72 72z" />
    <glyph glyph-name="uni2199" unicode="&#x2199;" horiz-adv-x="1130" 
d="M1006 1217l71 -72l-811 -799l701 4v-92h-846l-2 848l92 -2l-4 -698z" />
    <glyph glyph-name="partialdiff" unicode="&#x2202;" horiz-adv-x="1253" 
d="M248 1571l258 -68q616 -166 616 -837q0 -326 -129 -508q-129 -183 -358 -183q-213 0 -344 146t-131 383q0 225 126 363q126 137 332 137q157 0 264 -85q108 -87 142 -227q-1 308 -111 469q-109 159 -372 236l-293 82v92zM264 504q0 -438 371 -438t371 438q0 412 -369 411
q-373 0 -373 -411z" />
    <glyph glyph-name="product" unicode="&#x220f;" horiz-adv-x="1361" 
d="M100 1421h1162v-88h-211v-1718h-105v1718h-534v-1718h-105v1718h-207v88z" />
    <glyph glyph-name="summation" unicode="&#x2211;" horiz-adv-x="1120" 
d="M1038 1421v-88h-606l-342 4l768 -737v-164l-770 -739l344 4h606v-86h-981v158l586 553l195 190l-195 191l-586 555v159h981z" />
    <glyph glyph-name="minus" unicode="&#x2212;" horiz-adv-x="1001" 
d="M102 573h797v-84h-797v84z" />
    <glyph glyph-name="uni2215" unicode="&#x2215;" horiz-adv-x="479" 
d="M31 -385l340 1931h92l-340 -1931h-92z" />
    <glyph glyph-name="uni2219" unicode="&#x2219;" horiz-adv-x="458" 
d="M125 430v209h209v-209h-209z" />
    <glyph glyph-name="radical" unicode="&#x221a;" horiz-adv-x="1142" 
d="M782 1421h428v-88h-358l-373 -1718h-143l-318 1032h93l225 -737l70 -260l51 260z" />
    <glyph glyph-name="infinity" unicode="&#x221e;" horiz-adv-x="1937" 
d="M1436 918q179 0 289 -110q108 -110 108 -288t-108 -287q-110 -110 -289 -110q-155 0 -256 85q-104 86 -211 245q-74 -107 -124 -165q-51 -60 -144 -113q-92 -52 -201 -52q-178 0 -288 110t-110 287q0 178 110 288t288 110q154 0 257 -85t212 -245q49 74 91 125
q40 50 96 100q114 105 280 105zM500 209q144 0 248 97q53 50 89 95q29 38 87 119q-54 77 -87 119q-36 45 -89 95q-104 97 -248 97q-293 0 -293 -311t293 -311zM1436 209q295 0 295 311t-295 311q-134 0 -226 -78q-95 -83 -196 -233q48 -73 86 -120q35 -44 88 -94
q103 -97 248 -97z" />
    <glyph glyph-name="integral" unicode="&#x222b;" horiz-adv-x="774" 
d="M721 1438q112 0 160 -13l-11 -69h-153q-115 0 -162 -47t-68 -183l-219 -1245q-50 -281 -327 -280q-87 0 -160 12l10 70h154q113 0 160 47q46 46 69 182l219 1245q50 281 328 281z" />
    <glyph glyph-name="approxequal" unicode="&#x2248;" horiz-adv-x="1083" 
d="M186 618h-84q0 102 68 173t170 71q57 0 115 -26t98 -63q97 -89 190 -89q72 0 113 47t41 109h84q0 -101 -67 -172q-68 -72 -171 -72q-58 0 -115.5 26t-95.5 64q-39 39 -90.5 64.5t-101.5 25.5q-72 0 -113 -47t-41 -111zM186 209h-84q0 102 68 173t170 71q62 0 119 -28
q57 -29 94 -61q98 -90 190 -90q73 0 113 48q41 47 41 108h84q0 -101 -67 -172q-68 -72 -171 -72q-62 0 -118 28q-59 28 -93 63q-40 38 -91 64t-101 26q-72 0 -113 -47q-41 -49 -41 -111z" />
    <glyph glyph-name="notequal" unicode="&#x2260;" horiz-adv-x="1073" 
d="M911 778v-82h-268l-180 -327h448v-84h-491l-109 -193h-90l109 193h-228v84h271l180 327h-451v82h490l108 193h91l-109 -193h229z" />
    <glyph glyph-name="lessequal" unicode="&#x2264;" horiz-adv-x="960" 
d="M102 688l756 270v-86l-715 -254l715 -256v-86l-756 271v141zM858 104h-756v84h756v-84z" />
    <glyph glyph-name="greaterequal" unicode="&#x2265;" horiz-adv-x="960" 
d="M102 872v86l756 -270v-141l-756 -271v86l715 256zM858 104h-756v84h756v-84z" />
    <glyph glyph-name="uni2460" unicode="&#x2460;" horiz-adv-x="1667" 
d="M1369 178q-205 -203 -535 -203q-331 0 -536 203q-204 202 -204 533q0 329 204 532q205 203 536 203q330 0 535 -203q204 -203 204 -532q0 -331 -204 -533zM362 236q178 -181 472 -181q292 0 472 181q179 181 179 475t-179 475q-180 180 -472 180q-294 0 -472 -180
q-180 -180 -180 -475t180 -475zM838 1026l-209 -184v98l125 109h172v-676h-90v508z" />
    <glyph glyph-name="uni2461" unicode="&#x2461;" horiz-adv-x="1667" 
d="M1369 178q-205 -203 -535 -203q-331 0 -536 203q-204 202 -204 533q0 329 204 532q205 203 536 203q330 0 535 -203q204 -203 204 -532q0 -331 -204 -533zM362 236q178 -181 472 -181q292 0 472 181q179 181 179 475t-179 475q-180 180 -472 180q-294 0 -472 -180
q-180 -180 -180 -475t180 -475zM1116 371h-528v133l321 207q63 41 83 68q20 26 20 79q0 133 -156 133q-170 0 -170 -166h-94q0 112 73 179q71 67 191 67q114 0 181 -57q67 -58 67 -152q0 -67 -35.5 -115t-120.5 -100l-241 -151l-84 -52l161 5h332v-78z" />
    <glyph glyph-name="uni2462" unicode="&#x2462;" horiz-adv-x="1667" 
d="M1369 178q-205 -203 -535 -203q-331 0 -536 203q-204 202 -204 533q0 329 204 532q205 203 536 203q330 0 535 -203q204 -203 204 -532q0 -331 -204 -533zM362 236q178 -181 472 -181q292 0 472 181q179 181 179 475t-179 475q-180 180 -472 180q-294 0 -472 -180
q-180 -180 -180 -475t180 -475zM569 580h95q0 -146 170 -148q172 0 172 121q0 61 -36 89t-116 28h-127v71h111q139 0 139 117q0 133 -148 133q-78 0 -117 -38.5t-38 -114.5h-96q0 104 69 168q67 63 180 63q111 0 177.5 -53.5t66.5 -143.5q0 -129 -158 -153q186 -16 187 -170
q0 -88 -74 -141q-74 -54 -195 -54q-119 0 -190 62q-72 62 -72 164z" />
    <glyph glyph-name="uni2463" unicode="&#x2463;" horiz-adv-x="1667" 
d="M1369 178q-205 -203 -535 -203q-331 0 -536 203q-204 202 -204 533q0 329 204 532q205 203 536 203q330 0 535 -203q204 -203 204 -532q0 -331 -204 -533zM362 236q178 -181 472 -181q292 0 472 181q179 181 179 475t-179 475q-180 180 -472 180q-294 0 -472 -180
q-180 -180 -180 -475t180 -475zM881 526h-330v160l264 363h156v-447h121v-76h-121v-153h-90v153zM885 1028l-314 -428l117 2h193v264z" />
    <glyph glyph-name="uni2464" unicode="&#x2464;" horiz-adv-x="1667" 
d="M1369 178q-205 -203 -535 -203q-331 0 -536 203q-204 202 -204 533q0 329 204 532q205 203 536 203q330 0 535 -203q204 -203 204 -532q0 -331 -204 -533zM362 236q178 -181 472 -181q292 0 472 181q179 181 179 475t-179 475q-180 180 -472 180q-294 0 -472 -180
q-180 -180 -180 -475t180 -475zM575 563h95q0 -131 170 -131q79 0 118.5 37t38.5 111q0 141 -157 141q-117 0 -174 -72h-80l32 400h447v-78h-260l-113 2l-24 -285q67 105 196 107q101 0 165 -59q63 -60 63 -156q0 -103 -70 -164q-71 -62 -184 -62q-120 0 -191 58
q-72 57 -72 151z" />
    <glyph glyph-name="uni2465" unicode="&#x2465;" horiz-adv-x="1667" 
d="M1369 178q-205 -203 -535 -203q-331 0 -536 203q-204 202 -204 533q0 329 204 532q205 203 536 203q330 0 535 -203q204 -203 204 -532q0 -331 -204 -533zM362 236q178 -181 472 -181q292 0 472 181q179 181 179 475t-179 475q-180 180 -472 180q-294 0 -472 -180
q-180 -180 -180 -475t180 -475zM537 705q0 173 85 268q86 96 226 96q115 0 185 -55q69 -56 69 -148h-94q0 127 -160 127q-114 0 -164.5 -67.5t-50.5 -220.5v-39q21 62 82.5 99.5t146.5 37.5q112 0 183 -59q69 -60 69 -156q0 -106 -73 -170t-195 -64q-145 0 -227 88.5
t-82 262.5zM643 594q0 -164 203 -164q88 0 130 38.5t42 119.5q0 76 -42 110.5t-132 34.5q-97 0 -149 -37.5t-52 -101.5z" />
    <glyph glyph-name="uni2466" unicode="&#x2466;" horiz-adv-x="1667" 
d="M1369 178q-205 -203 -535 -203q-331 0 -536 203q-204 202 -204 533q0 329 204 532q205 203 536 203q330 0 535 -203q204 -203 204 -532q0 -331 -204 -533zM362 236q178 -181 472 -181q292 0 472 181q179 181 179 475t-179 475q-180 180 -472 180q-294 0 -472 -180
q-180 -180 -180 -475t180 -475zM918 971h-314v78h490v-131q-119 -108 -185 -251q-69 -145 -69 -294h-92q0 167 86 327q85 156 235 273z" />
    <glyph glyph-name="uni2467" unicode="&#x2467;" horiz-adv-x="1667" 
d="M1369 178q-205 -203 -535 -203q-331 0 -536 203q-204 202 -204 533q0 329 204 532q205 203 536 203q330 0 535 -203q204 -203 204 -532q0 -331 -204 -533zM362 236q178 -181 472 -181q292 0 472 181q179 181 179 475t-179 475q-180 180 -472 180q-294 0 -472 -180
q-180 -180 -180 -475t180 -475zM559 543q0 71 53 117.5t146 58.5q-84 12 -131 54t-47 106q0 86 70 138q68 52 184 52q114 0 184 -52q69 -53 69 -138q0 -63 -47 -105.5t-131 -54.5q93 -12 146 -58.5t53 -117.5q0 -84 -76 -136q-77 -53 -198 -53q-122 0 -199 53
q-76 52 -76 136zM672 866q0 -118 162 -116q161 0 161 116q0 125 -161 125q-162 0 -162 -125zM834 686q-181 0 -181 -127t181 -127q180 0 180 127t-180 127z" />
    <glyph glyph-name="uni2468" unicode="&#x2468;" horiz-adv-x="1667" 
d="M1369 178q-205 -203 -535 -203q-331 0 -536 203q-204 202 -204 533q0 329 204 532q205 203 536 203q330 0 535 -203q204 -203 204 -532q0 -331 -204 -533zM362 236q178 -181 472 -181q292 0 472 181q179 181 179 475t-179 475q-180 180 -472 180q-294 0 -472 -180
q-180 -180 -180 -475t180 -475zM563 836q0 104 75 169q74 64 196 64q139 0 223 -87t84 -263q0 -173 -82 -268q-82 -97 -221 -97q-116 0 -190 57q-73 55 -73 148h95q0 -129 168 -129q109 0 157.5 68t48.5 221v37q-20 -60 -80 -96.5t-141 -36.5q-117 0 -188 59q-72 58 -72 154
zM657 836q0 -75 43.5 -109.5t137.5 -34.5t145 37.5t51 99.5q0 164 -200 164q-177 1 -177 -157z" />
    <glyph glyph-name="uni24EA" unicode="&#x24ea;" horiz-adv-x="1667" 
d="M1369 178q-205 -203 -535 -203q-331 0 -536 203q-204 202 -204 533q0 329 204 532q205 203 536 203q330 0 535 -203q204 -203 204 -532q0 -331 -204 -533zM362 236q178 -181 472 -181q292 0 472 181q179 181 179 475t-179 475q-180 180 -472 180q-294 0 -472 -180
q-180 -180 -180 -475t180 -475zM1062 452q-87 -98 -228 -98q-142 0 -229 98t-87 259t87 260q87 98 229 98q141 0 228 -98q87 -99 87 -260t-87 -259zM612 711q0 -275 222 -275q221 0 221 275q0 276 -221 276q-222 0 -222 -276z" />
    <glyph glyph-name="uni24FF" unicode="&#x24ff;" horiz-adv-x="1667" 
d="M1369 179q-204 -204 -535 -204q-332 0 -536 204t-204 534q0 329 204 531q203 202 536 202q332 0 535 -202q204 -202 204 -531q0 -330 -204 -534zM605 452q87 -98 229 -98q141 0 228 98t87 259t-87 260q-87 98 -228 98q-142 0 -229 -98q-87 -99 -87 -260t87 -259z
M1055 711q0 -275 -221 -275q-222 0 -222 275q0 276 222 276q221 0 221 -276z" />
    <glyph glyph-name="lozenge" unicode="&#x25ca;" horiz-adv-x="1150" 
d="M496 1421h159l373 -710l-373 -711h-159l-373 711zM217 711l358 -680l359 680l-359 680z" />
    <glyph glyph-name="uni2766" unicode="&#x2766;" horiz-adv-x="804" 
d="M76 422h-33v221h33q0 -29 19 -29q18 0 18 29h432v-221h-432q0 29 -18 29q-19 0 -19 -29zM588 434v199q57 0 116 -32q58 -31 58 -69q0 -35 -58 -66q-59 -32 -116 -32zM510 461v37h-373v-37h373z" />
    <glyph glyph-name="uni2776" unicode="&#x2776;" horiz-adv-x="1667" 
d="M1369 178q-205 -203 -535 -203q-331 0 -536 203q-204 202 -204 533q0 329 204 532q205 203 536 203q330 0 535 -203q204 -203 204 -532q0 -331 -204 -533zM629 940v-98l209 184l-2 -145v-508h90v676h-172z" />
    <glyph glyph-name="uni2777" unicode="&#x2777;" horiz-adv-x="1667" 
d="M1369 178q-205 -203 -535 -203q-331 0 -536 203q-204 202 -204 533q0 329 204 532q205 203 536 203q330 0 535 -203q204 -203 204 -532q0 -331 -204 -533zM588 504v-133h528v78h-332l-161 -5l84 52l241 151q85 51 120.5 100t35.5 115q0 94 -67 152q-67 57 -181 57
q-120 0 -191 -67q-73 -67 -73 -179h94q0 166 170 166q156 0 156 -133q0 -54 -19 -79q-20 -28 -84 -68z" />
    <glyph glyph-name="uni2778" unicode="&#x2778;" horiz-adv-x="1667" 
d="M1369 178q-205 -203 -535 -203q-331 0 -536 203q-204 202 -204 533q0 329 204 532q205 203 536 203q330 0 535 -203q204 -203 204 -532q0 -331 -204 -533zM664 580h-95q0 -102 72 -164q73 -62 190 -62q121 0 195 54q74 53 74 141q0 154 -187 170q158 26 158 153
q0 90 -66 144q-68 53 -178 53q-113 0 -181 -63q-68 -65 -68 -168h96q0 155 155 153q147 0 148 -133q0 -117 -139 -117h-111v-71h127q80 0 116 -28t36 -89q0 -121 -172 -121q-170 0 -170 148z" />
    <glyph glyph-name="uni2779" unicode="&#x2779;" horiz-adv-x="1667" 
d="M1369 178q-205 -203 -535 -203q-331 0 -536 203q-204 202 -204 533q0 329 204 532q205 203 536 203q330 0 535 -203q204 -203 204 -532q0 -331 -204 -533zM551 686v-160h330v-153h90v153h121v76h-121v447h-156zM688 602l-117 -2l314 428l-4 -162v-264h-193z" />
    <glyph glyph-name="uni277A" unicode="&#x277a;" horiz-adv-x="1667" 
d="M1369 178q-205 -203 -535 -203q-331 0 -536 203q-204 202 -204 533q0 329 204 532q205 203 536 203q330 0 535 -203q204 -203 204 -532q0 -331 -204 -533zM670 563h-95q0 -94 72 -151q71 -58 191 -58q114 0 185 62q69 61 69 164q0 96 -62 156q-64 59 -166 59
q-128 0 -196 -107l24 285l113 -2h260v78h-447l-32 -400h80q57 72 174 72q79 0 118.5 -35.5t38.5 -105.5q0 -147 -157 -148q-170 0 -170 131z" />
    <glyph glyph-name="uni277B" unicode="&#x277b;" horiz-adv-x="1667" 
d="M1369 178q-205 -203 -535 -203q-331 0 -536 203q-204 202 -204 533q0 329 204 532q205 203 536 203q330 0 535 -203q204 -203 204 -532q0 -331 -204 -533zM537 705q0 -174 82 -262.5t227 -88.5q122 0 195 64q73 63 73 170q0 96 -69 156q-71 59 -183 59
q-85 0 -146.5 -37.5t-82.5 -99.5v39q0 153 50.5 220.5t164.5 67.5q160 0 160 -127h94q0 92 -69 148q-70 55 -185 55q-140 0 -226 -96q-85 -95 -85 -268zM643 594q0 64 52 101.5t149 37.5q90 0 132 -34.5t42 -110.5q0 -81 -42 -119.5t-130 -38.5q-203 0 -203 164z" />
    <glyph glyph-name="uni277C" unicode="&#x277c;" horiz-adv-x="1667" 
d="M1369 178q-205 -203 -535 -203q-331 0 -536 203q-204 202 -204 533q0 329 204 532q205 203 536 203q330 0 535 -203q204 -203 204 -532q0 -331 -204 -533zM604 1049v-78h314l151 2q-149 -115 -235 -273q-86 -160 -86 -327h92q0 150 69 294q68 144 185 251v131h-490z" />
    <glyph glyph-name="uni277D" unicode="&#x277d;" horiz-adv-x="1667" 
d="M1369 178q-205 -203 -535 -203q-331 0 -536 203q-204 202 -204 533q0 329 204 532q205 203 536 203q330 0 535 -203q204 -203 204 -532q0 -331 -204 -533zM559 543q0 -84 76 -136q77 -53 199 -53q121 0 198 53q76 52 76 136q0 71 -53 117.5t-146 58.5q84 12 131 54
t47 106q0 85 -69 138q-70 52 -184 52q-116 0 -184 -52q-70 -52 -70 -138q0 -63 47 -105.5t131 -54.5q-93 -12 -146 -58.5t-53 -117.5zM672 866q0 125 162 125q161 0 161 -125q0 -117 -161 -117q-162 0 -162 117zM834 432q-181 0 -181 127t181 127q180 0 180 -127t-180 -127z
" />
    <glyph glyph-name="uni277E" unicode="&#x277e;" horiz-adv-x="1667" 
d="M1369 178q-205 -203 -535 -203q-331 0 -536 203q-204 202 -204 533q0 329 204 532q205 203 536 203q330 0 535 -203q204 -203 204 -532q0 -331 -204 -533zM563 836q0 -96 72 -154q73 -59 188 -59q81 0 141 36.5t80 96.5v-37q0 -153 -49 -221t-157 -68q-168 0 -168 129
h-95q0 -93 73 -148q74 -57 190 -57q139 0 221 97q82 95 82 268q0 176 -84 263t-223 87q-122 0 -196 -64q-75 -65 -75 -169zM657 836q0 158 177 157q100 0 150.5 -41t49.5 -123q0 -62 -51 -99.5t-145 -37.5q-93 0 -137 34.5t-44 109.5z" />
    <glyph glyph-name="uniF8FF" unicode="&#xf8ff;" horiz-adv-x="1204" 
d="M1116 1180l27 -230l-8 -6q-62 98 -139 122q-80 25 -343 26q-13 -207 -14 -295q87 1 148 44q59 43 110 144h6l-22 -145q-90 -75 -242 -80v-66q0 -119 4 -291q133 0 199 3q0 172 -15 284q-36 11 -88 19v6q143 27 246 71l2 -6q-41 -45 -54 -118q-13 -71 -13 -279
q0 -221 12 -340l78 -37v-6h-332v6l151 53q11 97 13 295q-88 2 -197 2q2 -34 2 -72q0 -41 2 -71l-108 -66l-4 7q7 56 20 202q-109 0 -197 -2q0 -198 13 -295l153 -53v-6h-333v6l77 37q11 113 13 340q0 207 -12 280q-14 73 -56 117l2 6q92 -42 246 -71v-6q-46 -7 -88 -19
q-13 -112 -15 -284q133 0 199 -3q6 125 6 291v70q-132 18 -215 103q-85 86 -92 210q-75 -12 -109 -39q-36 -28 -79 -94l-9 6q17 137 23 189l8 41q52 -33 168 -39q13 138 116 226q101 87 253 87q113 0 223 -65l31 57l12 -8q-20 -101 -21 -221h-4q-56 203 -241 204
q-114 2 -190 -77q-77 -80 -87 -207q82 -2 248 -2q286 0 374 9t138 36h4zM350 1087q4 -108 63 -185q59 -76 150 -99q-2 144 -12 289q-132 -2 -201 -5z" />
    <glyph glyph-name="I.ss02" horiz-adv-x="1026" 
d="M874 1421v-88h-309v-1245h309v-88h-722v88h309v1245h-309v88h722z" />
    <glyph glyph-name="Iacute.ss02" horiz-adv-x="1026" 
d="M590 1935h119l-156 -299h-82zM874 1421v-88h-309v-1245h309v-88h-722v88h309v1245h-309v88h722z" />
    <glyph glyph-name="Ibreve.ss02" horiz-adv-x="1026" 
d="M514 1628q-123 0 -198 85q-76 85 -76 222h86q0 -121 45 -177t143 -56q99 0 145 56.5t46 176.5h86q0 -137 -76 -222t-201 -85zM874 1421v-88h-309v-1245h309v-88h-722v88h309v1245h-309v88h722z" />
    <glyph glyph-name="Icircumflex.ss02" horiz-adv-x="1026" 
d="M705 1636l-189 269l-190 -269h-103l219 299h146l219 -299h-102zM874 1421v-88h-309v-1245h309v-88h-722v88h309v1245h-309v88h722z" />
    <glyph glyph-name="Idieresis.ss02" horiz-adv-x="1026" 
d="M287 1855h147v-155h-147v155zM596 1855h147v-155h-147v155zM874 1421v-88h-309v-1245h309v-88h-722v88h309v1245h-309v88h722z" />
    <glyph glyph-name="Idotaccent.ss02" horiz-adv-x="1026" 
d="M440 1855h148v-155h-148v155zM874 1421v-88h-309v-1245h309v-88h-722v88h309v1245h-309v88h722z" />
    <glyph glyph-name="uni1ECA.ss02" horiz-adv-x="1026" 
d="M874 1421v-88h-309v-1245h309v-88h-722v88h309v1245h-309v88h722zM588 -365h-152v152h152v-152z" />
    <glyph glyph-name="Igrave.ss02" horiz-adv-x="1026" 
d="M436 1935l119 -299h-80l-158 299h119zM874 1421v-88h-309v-1245h309v-88h-722v88h309v1245h-309v88h722z" />
    <glyph glyph-name="Imacron.ss02" horiz-adv-x="1026" 
d="M244 1825h542v-82h-542v82zM874 1421v-88h-309v-1245h309v-88h-722v88h309v1245h-309v88h722z" />
    <glyph glyph-name="Iogonek.ss02" horiz-adv-x="1026" 
d="M874 1421v-88h-309v-1245h309v-88h-309l-166 -219q-37 -50 -37 -86q0 -29 17.5 -40t62.5 -11h154v-68h-174q-70 0 -110 27.5t-40 77.5q0 54 52 110l168 209h-340v88h309v1245h-309v88h722z" />
    <glyph glyph-name="Itilde.ss02" horiz-adv-x="1026" 
d="M356 1810q-119 0 -118 -145h-72q0 104 52 168q52 63 140 63q61 0 113 -37q43 -31 98 -76q47 -38 101 -38q63 0 92 36t29 111h71q0 -105 -52 -167q-52 -64 -140 -64q-74 0 -162 75q-89 74 -152 74zM874 1421v-88h-309v-1245h309v-88h-722v88h309v1245h-309v88h722z" />
    <glyph glyph-name="Z.ss03" horiz-adv-x="1255" 
d="M147 82l302 6h733v-88h-1084v164l1028 1175l-299 -6h-723v88h1072v-164z" />
    <glyph glyph-name="Zacute.ss03" horiz-adv-x="1255" 
d="M733 1935h119l-156 -299h-82zM147 82l302 6h733v-88h-1084v164l1028 1175l-299 -6h-723v88h1072v-164z" />
    <glyph glyph-name="Zcaron.ss03" horiz-adv-x="1255" 
d="M729 1636h-145l-219 299h102l188 -268l191 268h100zM147 82l302 6h733v-88h-1084v164l1028 1175l-299 -6h-723v88h1072v-164z" />
    <glyph glyph-name="Zdotaccent.ss03" horiz-adv-x="1255" 
d="M586 1855h147v-155h-147v155zM147 82l302 6h733v-88h-1084v164l1028 1175l-299 -6h-723v88h1072v-164z" />
    <glyph glyph-name="a.salt" horiz-adv-x="1349" 
d="M1024 786v246h94v-1032h-94v254q-46 -132 -153 -206q-106 -73 -246 -73q-210 0 -338 149q-127 148 -127 392q0 245 127 393t338 148q136 0 245 -71q108 -71 154 -200zM643 59q377 0 377 457q0 455 -377 455q-379 0 -379 -455q0 -457 379 -457z" />
    <glyph glyph-name="aacute.salt" horiz-adv-x="1349" 
d="M735 1546h121l-156 -299h-84zM1024 786v246h94v-1032h-94v254q-46 -132 -153 -206q-106 -73 -246 -73q-210 0 -338 149q-127 148 -127 392q0 245 127 393t338 148q136 0 245 -71q108 -71 154 -200zM643 59q377 0 377 457q0 455 -377 455q-379 0 -379 -455
q0 -457 379 -457z" />
    <glyph glyph-name="abreve.salt" horiz-adv-x="1349" 
d="M662 1239q-123 0 -199 85t-76 222h86q0 -121 45 -177t144 -56t144.5 56t45.5 177h86q0 -136 -75 -222q-76 -85 -201 -85zM1024 786v246h94v-1032h-94v254q-46 -132 -153 -206q-106 -73 -246 -73q-210 0 -338 149q-127 148 -127 392q0 245 127 393t338 148q136 0 245 -71
q108 -71 154 -200zM643 59q377 0 377 457q0 455 -377 455q-379 0 -379 -455q0 -457 379 -457z" />
    <glyph glyph-name="acircumflex.salt" horiz-adv-x="1349" 
d="M852 1247l-188 269l-191 -269h-102l219 299h145l219 -299h-102zM1024 786v246h94v-1032h-94v254q-46 -132 -153 -206q-106 -73 -246 -73q-210 0 -338 149q-127 148 -127 392q0 245 127 393t338 148q136 0 245 -71q108 -71 154 -200zM643 59q377 0 377 457q0 455 -377 455
q-379 0 -379 -455q0 -457 379 -457z" />
    <glyph glyph-name="adieresis.salt" horiz-adv-x="1349" 
d="M434 1466h148v-155h-148v155zM743 1466h148v-155h-148v155zM1024 786v246h94v-1032h-94v254q-46 -132 -153 -206q-106 -73 -246 -73q-210 0 -338 149q-127 148 -127 392q0 245 127 393t338 148q136 0 245 -71q108 -71 154 -200zM643 59q377 0 377 457q0 455 -377 455
q-379 0 -379 -455q0 -457 379 -457z" />
    <glyph glyph-name="uni1EA1.salt" horiz-adv-x="1349" 
d="M1024 786v246h94v-1032h-94v254q-46 -132 -153 -206q-106 -73 -246 -73q-210 0 -338 149q-127 148 -127 392q0 245 127 393t338 148q136 0 245 -71q108 -71 154 -200zM643 59q377 0 377 457q0 455 -377 455q-379 0 -379 -455q0 -457 379 -457zM750 -365h-152v152h152
v-152z" />
    <glyph glyph-name="agrave.salt" horiz-adv-x="1349" 
d="M582 1546l118 -299h-79l-158 299h119zM1024 786v246h94v-1032h-94v254q-46 -132 -153 -206q-106 -73 -246 -73q-210 0 -338 149q-127 148 -127 392q0 245 127 393t338 148q136 0 245 -71q108 -71 154 -200zM643 59q377 0 377 457q0 455 -377 455q-379 0 -379 -455
q0 -457 379 -457z" />
    <glyph glyph-name="amacron.salt" horiz-adv-x="1349" 
d="M389 1436h543v-82h-543v82zM1024 786v246h94v-1032h-94v254q-46 -132 -153 -206q-106 -73 -246 -73q-210 0 -338 149q-127 148 -127 392q0 245 127 393t338 148q136 0 245 -71q108 -71 154 -200zM643 59q377 0 377 457q0 455 -377 455q-379 0 -379 -455q0 -457 379 -457z
" />
    <glyph glyph-name="aogonek.salt" horiz-adv-x="1349" 
d="M997 -356h154v-68h-174q-70 0 -110 27.5t-40 77.5q0 54 52 110l168 209h-23v254q-46 -132 -153 -206q-106 -73 -246 -73q-210 0 -338 149q-127 148 -127 392q0 245 127 393t338 148q136 0 245 -71q108 -71 154 -200v246h94v-1032h2l-166 -219q-38 -51 -36 -86
q0 -29 17 -40t62 -11zM643 59q377 0 377 457q0 455 -377 455q-379 0 -379 -455q0 -457 379 -457z" />
    <glyph glyph-name="aring.salt" horiz-adv-x="1349" 
d="M787 1283q-49 -44 -125 -44q-79 0 -126 43q-49 43 -49 115q0 70 48.5 112.5t126.5 42.5t125 -43q47 -44 47 -112q0 -70 -47 -114zM662 1495q-61 0 -87 -22.5t-26 -75.5q0 -55 25.5 -78t87.5 -23q60 0 85 22.5t25 78.5q0 53 -25.5 75.5t-84.5 22.5zM1024 786v246h94v-1032
h-94v254q-46 -132 -153 -206q-106 -73 -246 -73q-210 0 -338 149q-127 148 -127 392q0 245 127 393t338 148q136 0 245 -71q108 -71 154 -200zM643 59q377 0 377 457q0 455 -377 455q-379 0 -379 -455q0 -457 379 -457z" />
    <glyph glyph-name="aringacute.salt" horiz-adv-x="1349" 
d="M862 1283q-47 -44 -125 -44q-79 0 -126 43q-48 44 -48 115q0 70 48 112.5t126 42.5q16 0 41 -4l99 183h94l-137 -201q76 -43 75 -133q0 -70 -47 -114zM737 1495q-61 0 -86.5 -22.5t-25.5 -75.5q0 -55 25.5 -78t86.5 -23q60 0 85.5 22.5t25.5 78.5q0 53 -25.5 75.5
t-85.5 22.5zM1024 786v246h94v-1032h-94v254q-46 -132 -153 -206q-106 -73 -246 -73q-210 0 -338 149q-127 148 -127 392q0 245 127 393t338 148q136 0 245 -71q108 -71 154 -200zM643 59q377 0 377 457q0 455 -377 455q-379 0 -379 -455q0 -457 379 -457z" />
    <glyph glyph-name="atilde.salt" horiz-adv-x="1349" 
d="M502 1421q-119 0 -119 -145h-72q0 103 53 168q52 63 140 63q61 0 113 -37q43 -31 98 -76q47 -38 100 -38q63 0 92 35.5t29 111.5h72q0 -105 -52 -167q-52 -64 -141 -64q-73 0 -162 75q-89 74 -151 74zM1024 786v246h94v-1032h-94v254q-46 -132 -153 -206
q-106 -73 -246 -73q-210 0 -338 149q-127 148 -127 392q0 245 127 393t338 148q136 0 245 -71q108 -71 154 -200zM643 59q377 0 377 457q0 455 -377 455q-379 0 -379 -455q0 -457 379 -457z" />
    <glyph glyph-name="g.salt" horiz-adv-x="1349" 
d="M1022 788v244h96v-989q0 -199 -125 -321q-124 -121 -331 -121q-209 0 -337 110q-128 111 -128 291h100q0 -319 365 -319q183 0 270.5 97t87.5 300v219q-45 -126 -148 -194t-243 -68q-211 0 -340 139q-129 140 -129 365q0 232 128 375q128 141 341 141q139 0 245 -69
q105 -70 148 -200zM645 123q184 0 279.5 104.5t95.5 307.5q0 436 -375 436q-381 0 -381 -430q0 -418 381 -418z" />
    <glyph glyph-name="gbreve.salt" horiz-adv-x="1349" 
d="M655 1251q-123 0 -198 85q-76 85 -76 223h86q0 -121 45 -177.5t143 -56.5q99 0 145 56.5t46 177.5h86q0 -137 -76 -222q-77 -86 -201 -86zM1022 788v244h96v-989q0 -199 -125 -321q-124 -121 -331 -121q-209 0 -337 110q-128 111 -128 291h100q0 -319 365 -319
q183 0 270.5 97t87.5 300v219q-45 -126 -148 -194t-243 -68q-211 0 -340 139q-129 140 -129 365q0 232 128 375q128 141 341 141q139 0 245 -69q105 -70 148 -200zM645 123q184 0 279.5 104.5t95.5 307.5q0 436 -375 436q-381 0 -381 -430q0 -418 381 -418z" />
    <glyph glyph-name="gcaron.salt" horiz-adv-x="1349" 
d="M727 1260h-145l-220 299h103l188 -269l191 269h100zM1022 788v244h96v-989q0 -199 -125 -321q-124 -121 -331 -121q-209 0 -337 110q-128 111 -128 291h100q0 -319 365 -319q183 0 270.5 97t87.5 300v219q-45 -126 -148 -194t-243 -68q-211 0 -340 139q-129 140 -129 365
q0 232 128 375q128 141 341 141q139 0 245 -69q105 -70 148 -200zM645 123q184 0 279.5 104.5t95.5 307.5q0 436 -375 436q-381 0 -381 -430q0 -418 381 -418z" />
    <glyph glyph-name="gcircumflex.salt" horiz-adv-x="1349" 
d="M846 1260l-189 268l-190 -268h-102l219 299h145l219 -299h-102zM1022 788v244h96v-989q0 -199 -125 -321q-124 -121 -331 -121q-209 0 -337 110q-128 111 -128 291h100q0 -319 365 -319q183 0 270.5 97t87.5 300v219q-45 -126 -148 -194t-243 -68q-211 0 -340 139
q-129 140 -129 365q0 232 128 375q128 141 341 141q139 0 245 -69q105 -70 148 -200zM645 123q184 0 279.5 104.5t95.5 307.5q0 436 -375 436q-381 0 -381 -430q0 -418 381 -418z" />
    <glyph glyph-name="uni0123.salt" horiz-adv-x="1349" 
d="M639 1411l84 -39v-112h-152v131q0 92 51.5 144t139.5 52v-59q-123 0 -123 -117zM1022 788v244h96v-989q0 -199 -125 -321q-124 -121 -331 -121q-209 0 -337 110q-128 111 -128 291h100q0 -319 365 -319q183 0 270.5 97t87.5 300v219q-45 -126 -148 -194t-243 -68
q-211 0 -340 139q-129 140 -129 365q0 232 128 375q128 141 341 141q139 0 245 -69q105 -70 148 -200zM645 123q184 0 279.5 104.5t95.5 307.5q0 436 -375 436q-381 0 -381 -430q0 -418 381 -418z" />
    <glyph glyph-name="gdotaccent.salt" horiz-adv-x="1349" 
d="M582 1479h147v-156h-147v156zM1022 788v244h96v-989q0 -199 -125 -321q-124 -121 -331 -121q-209 0 -337 110q-128 111 -128 291h100q0 -319 365 -319q183 0 270.5 97t87.5 300v219q-45 -126 -148 -194t-243 -68q-211 0 -340 139q-129 140 -129 365q0 232 128 375
q128 141 341 141q139 0 245 -69q105 -70 148 -200zM645 123q184 0 279.5 104.5t95.5 307.5q0 436 -375 436q-381 0 -381 -430q0 -418 381 -418z" />
    <glyph glyph-name="l.salt" horiz-adv-x="561" 
d="M231 0v1546h99v-1546h-99z" />
    <glyph glyph-name="lacute.salt" horiz-adv-x="561" 
d="M229 1677l119 299h121l-156 -299h-84zM231 0v1546h99v-1546h-99z" />
    <glyph glyph-name="lcaron.salt" horiz-adv-x="561" 
d="M231 0v1546h99v-1546h-99zM520 1434v112h154v-131q0 -99 -52 -157t-139 -58v60q121 0 121 133z" />
    <glyph glyph-name="uni013C.salt" horiz-adv-x="561" 
d="M231 0v1546h99v-1546h-99zM203 -326v113h151v-131q0 -94 -51 -147.5t-139 -53.5v60q123 0 123 120z" />
    <glyph glyph-name="ldot.salt" horiz-adv-x="702" 
d="M231 0v1546h99v-1546h-99zM506 690v144h143v-144h-143z" />
    <glyph glyph-name="lslash.salt" horiz-adv-x="614" 
d="M330 784l233 189v-99l-233 -188v-686h-99v633l-200 -156v96l200 156v817h99v-762z" />
    <glyph glyph-name="y.salt" horiz-adv-x="1073" 
d="M633 285l299 747h100l-575 -1417h-97l158 385h-61l-418 1032h104l301 -747l93 -242z" />
    <glyph glyph-name="yacute.salt" horiz-adv-x="1073" 
d="M604 1546h121l-156 -299h-84zM633 285l299 747h100l-575 -1417h-97l158 385h-61l-418 1032h104l301 -747l93 -242z" />
    <glyph glyph-name="ycircumflex.salt" horiz-adv-x="1073" 
d="M721 1247l-189 269l-190 -269h-102l219 299h145l219 -299h-102zM633 285l299 747h100l-575 -1417h-97l158 385h-61l-418 1032h104l301 -747l93 -242z" />
    <glyph glyph-name="ydieresis.salt" horiz-adv-x="1073" 
d="M303 1466h148v-155h-148v155zM612 1466h148v-155h-148v155zM633 285l299 747h100l-575 -1417h-97l158 385h-61l-418 1032h104l301 -747l93 -242z" />
    <glyph glyph-name="ygrave.salt" horiz-adv-x="1073" 
d="M451 1546l118 -299h-80l-157 299h119zM633 285l299 747h100l-575 -1417h-97l158 385h-61l-418 1032h104l301 -747l93 -242z" />
    <glyph glyph-name="uni0233.salt" horiz-adv-x="1073" 
d="M258 1436h543v-82h-543v82zM633 285l299 747h100l-575 -1417h-97l158 385h-61l-418 1032h104l301 -747l93 -242z" />
    <glyph glyph-name="uni1EF9.salt" horiz-adv-x="1073" 
d="M373 1421q-119 0 -119 -145h-72q0 103 53 168q53 63 140 63q61 0 113 -37q43 -31 98 -76q47 -38 100 -38q63 0 92 35.5t29 111.5h72q0 -105 -52 -167q-52 -64 -141 -64q-74 0 -162 75q-89 74 -151 74zM633 285l299 747h100l-575 -1417h-97l158 385h-61l-418 1032h104
l301 -747l93 -242z" />
    <glyph glyph-name="z.ss03" horiz-adv-x="999" 
d="M135 80l199 4h584v-84h-826v150l776 804l-202 -6h-564v84h805v-155z" />
    <glyph glyph-name="zacute.ss03" horiz-adv-x="999" 
d="M588 1546h121l-156 -299h-84zM135 80l199 4h584v-84h-826v150l776 804l-202 -6h-564v84h805v-155z" />
    <glyph glyph-name="zcaron.ss03" horiz-adv-x="999" 
d="M586 1247h-146l-219 299h103l188 -268l190 268h101zM135 80l199 4h584v-84h-826v150l776 804l-202 -6h-564v84h805v-155z" />
    <glyph glyph-name="zdotaccent.ss03" horiz-adv-x="999" 
d="M440 1466h148v-155h-148v155zM135 80l199 4h584v-84h-826v150l776 804l-202 -6h-564v84h805v-155z" />
    <glyph glyph-name="f_f_j.dlig" horiz-adv-x="2019" 
d="M1079 1032h717v-1177q0 -254 -231 -254q-69 0 -123 14v68h108q90 0 119 39q29 41 29 163v1065h-619v-950h-98v950h-635v-950h-98v950h-213v82h213v187q0 281 291 280q169 0 252 -12v-70h-242q-119 0 -161 -47q-42 -46 -42 -182v-156h635v248q0 281 291 281q152 0 237 -15
v-67h-227q-119 0 -161 -47q-42 -48 -42 -183v-217zM1673 1311v170h148v-170h-148z" />
    <glyph glyph-name="f_iacute.dlig" horiz-adv-x="1286" 
d="M346 1032h717v-1032h-98v950h-619v-950h-98v950h-213v82h213v248q0 281 291 281q151 0 237 -15v-67h-227q-119 0 -161 -47q-42 -48 -42 -183v-217zM1087 1546h121l-155 -299h-84z" />
    <glyph glyph-name="f_j.dlig" horiz-adv-x="1286" 
d="M346 1032h717v-1177q0 -254 -232 -254q-68 0 -122 14v68h108q91 0 119 39q29 41 29 163v1065h-619v-950h-98v950h-213v82h213v248q0 281 291 281q151 0 237 -15v-67h-227q-119 0 -161 -47q-42 -48 -42 -183v-217zM940 1311v170h147v-170h-147z" />
    <glyph glyph-name="f_t.dlig" horiz-adv-x="1531" 
d="M1255 68h240v-68q-134 -14 -252 -14q-291 0 -291 286v678h-606v-950h-98v950h-213v82h213v248q0 281 291 281q155 0 243 -15v-67h-233q-119 0 -161 -47q-42 -48 -42 -183v-217h606l9 309h90v-309h440v-82h-440v-641q0 -143 42 -192q40 -49 162 -49z" />
    <glyph glyph-name="t_t.dlig" horiz-adv-x="1533" 
d="M1257 68h240v-68q-134 -14 -252 -14q-291 0 -291 286v678h-616v-641q0 -142 41 -192q40 -49 162 -49h215v-68q-126 -14 -228 -14q-145 0 -217 71.5t-71 214.5v678h-215v82h215l6 268h92v-268h616l9 309h90v-309h440v-82h-440v-641q0 -143 42 -192q40 -49 162 -49z" />
    <glyph glyph-name="f_f_l.liga.salt" horiz-adv-x="2013" 
d="M981 1032v289q0 131 60 186q59 54 210 54q167 0 267 -15v-67h-246q-118 0 -156 -41q-37 -40 -37 -168v-238h428v-82h-428v-950h-98v950h-635v-950h-98v950h-213v82h213v228q0 131 60 185q58 54 210 54q137 0 266 -12v-70h-245q-119 0 -156 -40t-37 -167v-178h635zM1683 0
v1546h99v-1546h-99z" />
    <glyph glyph-name="uniFB02.aalt" horiz-adv-x="1280" 
d="M248 1032v248q0 281 291 281q151 0 245 -15v-67h-235q-119 0 -161 -47q-42 -48 -42 -183v-217h428v-82h-428v-950h-98v950h-213v82h213zM950 0v1546h99v-1546h-99z" />
    <glyph glyph-name="A.c2sc" horiz-adv-x="1107" 
d="M1065 0h-107l-135 336h-547l-131 -336h-102l418 1069h178zM479 850l-168 -430h480l-173 430l-69 188z" />
    <glyph glyph-name="Aacute.aalt" horiz-adv-x="1107" 
d="M625 1546h120l-155 -299h-84zM1065 0h-107l-135 336h-547l-131 -336h-102l418 1069h178zM479 850l-168 -430h480l-173 430l-69 188z" />
    <glyph glyph-name="Abreve.aalt" horiz-adv-x="1107" 
d="M551 1239q-123 0 -199 85t-76 222h86q0 -121 45.5 -177t143.5 -56q99 0 144.5 56t45.5 177h86q0 -136 -75 -222q-76 -85 -201 -85zM1065 0h-107l-135 336h-547l-131 -336h-102l418 1069h178zM479 850l-168 -430h480l-173 430l-69 188z" />
    <glyph glyph-name="Acircumflex.aalt" horiz-adv-x="1107" 
d="M741 1247l-188 269l-191 -269h-102l219 299h146l219 -299h-103zM1065 0h-107l-135 336h-547l-131 -336h-102l418 1069h178zM479 850l-168 -430h480l-173 430l-69 188z" />
    <glyph glyph-name="Adieresis.aalt" horiz-adv-x="1107" 
d="M324 1466h147v-155h-147v155zM633 1466h147v-155h-147v155zM1065 0h-107l-135 336h-547l-131 -336h-102l418 1069h178zM479 850l-168 -430h480l-173 430l-69 188z" />
    <glyph glyph-name="uni1EA0.aalt" horiz-adv-x="1107" 
d="M639 1069l426 -1069h-107l-135 336h-547l-131 -336h-102l418 1069h178zM479 850l-168 -430h480l-173 430l-69 188zM629 -365h-152v152h152v-152z" />
    <glyph glyph-name="Agrave.aalt" horiz-adv-x="1107" 
d="M471 1546l119 -299h-80l-158 299h119zM1065 0h-107l-135 336h-547l-131 -336h-102l418 1069h178zM479 850l-168 -430h480l-173 430l-69 188z" />
    <glyph glyph-name="Amacron.aalt" horiz-adv-x="1107" 
d="M279 1436h542v-82h-542v82zM1065 0h-107l-135 336h-547l-131 -336h-102l418 1069h178zM479 850l-168 -430h480l-173 430l-69 188z" />
    <glyph glyph-name="Aogonek.aalt" horiz-adv-x="1107" 
d="M913 -356h154v-68h-174q-70 0 -110 27.5t-40 77.5q0 54 52 110l168 209h-5l-135 336h-547l-131 -336h-102l418 1069h178l426 -1069h-29l-166 -219q-38 -51 -36 -86q0 -29 17 -40t62 -11zM479 850l-168 -430h480l-173 430l-69 188z" />
    <glyph glyph-name="Aring.aalt" horiz-adv-x="1107" 
d="M676 1283q-47 -44 -125 -44q-79 0 -126 43q-48 44 -48 115q0 70 48 112.5t126 42.5q79 0 125 -43q47 -44 47 -112q0 -70 -47 -114zM551 1495q-61 0 -87 -22.5t-26 -75.5q0 -55 25.5 -78t87.5 -23q60 0 85.5 22.5t25.5 78.5q0 53 -25.5 75.5t-85.5 22.5zM1065 0h-107
l-135 336h-547l-131 -336h-102l418 1069h178zM479 850l-168 -430h480l-173 430l-69 188z" />
    <glyph glyph-name="Aringacute.aalt" horiz-adv-x="1107" 
d="M676 1283q-47 -44 -125 -44q-77 0 -126 44q-48 43 -48 114q0 69 48 112t126 43q16 0 41 -4l98 183h96l-137 -203q74 -39 74 -131q0 -70 -47 -114zM636 1473q-25 22 -85 22t-85 -22q-26 -23 -26 -76q0 -55 26 -78t85 -23q60 0 85.5 22.5t25.5 78.5q0 53 -26 76zM1065 0
h-107l-135 336h-547l-131 -336h-102l418 1069h178zM479 850l-168 -430h480l-173 430l-69 188z" />
    <glyph glyph-name="Atilde.aalt" horiz-adv-x="1107" 
d="M393 1421q-119 0 -119 -145h-71q0 104 52 168q53 63 140 63q61 0 113 -37q43 -31 98 -76q47 -38 101 -38q63 0 91.5 35.5t28.5 111.5h72q0 -105 -52 -167q-52 -64 -140 -64q-73 0 -162 75q-89 74 -152 74zM1065 0h-107l-135 336h-547l-131 -336h-102l418 1069h178z
M479 850l-168 -430h480l-173 430l-69 188z" />
    <glyph glyph-name="AE.aalt" horiz-adv-x="1611" 
d="M862 502l168 -418h426v-84h-495l-138 344h-547l-135 -344h-98l420 1075h987v-84h-782l161 -405h596v-84h-563zM477 856l-168 -430h482l-173 430l-69 188z" />
    <glyph glyph-name="AEacute.aalt" horiz-adv-x="1611" 
d="M958 1546h121l-155 -299h-84zM862 502l168 -418h426v-84h-495l-138 344h-547l-135 -344h-98l420 1075h987v-84h-782l161 -405h596v-84h-563zM477 856l-168 -430h482l-173 430l-69 188z" />
    <glyph glyph-name="B.aalt" horiz-adv-x="1224" 
d="M817 559q112 -24 176 -93.5t64 -172.5q0 -131 -91 -212q-92 -81 -243 -81h-469v1069h442q151 0 240 -73q90 -74 90 -195q0 -90 -55.5 -154.5t-153.5 -87.5zM678 985h-326v-403h326q126 0 184 49t58 157q0 102 -58 149.5t-184 47.5zM352 84h353q131 0 189 50t58 159
q0 108 -56 158.5t-179 50.5h-365v-418z" />
    <glyph glyph-name="C.aalt" horiz-adv-x="1284" 
d="M303 129q-141 155 -141 404q0 248 140 403q139 154 370 154q204 0 331 -110q125 -110 125 -288h-102q0 158 -86 232.5t-268 74.5q-406 0 -406 -466q0 -467 406 -467q181 0 267.5 70.5t86.5 219.5h102q0 -173 -124 -276q-124 -105 -332 -105q-230 0 -369 154z" />
    <glyph glyph-name="Cacute.aalt" horiz-adv-x="1284" 
d="M629 1247l119 299h120l-155 -299h-84zM303 129q-141 155 -141 404q0 248 140 403q139 154 370 154q204 0 331 -110q125 -110 125 -288h-102q0 158 -86 232.5t-268 74.5q-406 0 -406 -466q0 -467 406 -467q181 0 267.5 70.5t86.5 219.5h102q0 -173 -124 -276
q-124 -105 -332 -105q-230 0 -369 154z" />
    <glyph glyph-name="Ccaron.aalt" horiz-adv-x="1284" 
d="M748 1247h-146l-219 299h102l189 -268l190 268h101zM672 66q181 0 267.5 70.5t86.5 219.5h102q0 -173 -124 -276q-124 -105 -332 -105q-230 0 -369 154q-141 155 -141 404q0 248 140 403q139 154 370 154q204 0 331 -110q125 -110 125 -288h-102q0 158 -86 232.5
t-268 74.5q-406 0 -406 -466q0 -467 406 -467z" />
    <glyph glyph-name="Ccedilla.aalt" horiz-adv-x="1284" 
d="M672 66q181 0 267.5 70.5t86.5 219.5h102q0 -168 -118 -271q-117 -102 -314 -110l-45 -116h74q74 0 119 -38t45 -102q0 -65 -47 -104t-123 -39h-158v68h152q45 0 65.5 18.5t20.5 58.5q0 76 -86 76h-133v51l51 129q-214 14 -341 165q-128 152 -128 390q0 249 140 404
q139 154 370 154q204 0 331 -110q125 -110 125 -288h-102q0 158 -86 232.5t-268 74.5q-406 0 -406 -466q0 -467 406 -467z" />
    <glyph glyph-name="Ccircumflex.aalt" horiz-adv-x="1284" 
d="M866 1247l-188 269l-191 -269h-102l219 299h146l219 -299h-103zM672 66q181 0 267.5 70.5t86.5 219.5h102q0 -173 -124 -276q-124 -105 -332 -105q-230 0 -369 154q-141 155 -141 404q0 248 140 403q139 154 370 154q204 0 331 -110q125 -110 125 -288h-102
q0 158 -86 232.5t-268 74.5q-406 0 -406 -466q0 -467 406 -467z" />
    <glyph glyph-name="Cdotaccent.aalt" horiz-adv-x="1284" 
d="M602 1311v155h148v-155h-148zM303 129q-141 155 -141 404q0 248 140 403q139 154 370 154q204 0 331 -110q125 -110 125 -288h-102q0 158 -86 232.5t-268 74.5q-406 0 -406 -466q0 -467 406 -467q181 0 267.5 70.5t86.5 219.5h102q0 -173 -124 -276q-124 -105 -332 -105
q-230 0 -369 154z" />
    <glyph glyph-name="D.aalt" horiz-adv-x="1359" 
d="M254 1069h426q234 0 376 -147q142 -148 142 -385q0 -243 -142 -389q-142 -148 -376 -148h-426v1069zM352 84h314q426 0 426 453q0 446 -426 446h-314v-899z" />
    <glyph glyph-name="Eth.aalt" horiz-adv-x="1355" 
d="M254 1069h426q234 0 376 -147q142 -148 142 -385q0 -243 -142 -389q-142 -148 -376 -148h-426v504h-182v78h182v487zM352 84h314q426 0 426 453q0 446 -426 446h-314v-401h387v-78h-387v-420z" />
    <glyph glyph-name="Dcaron.aalt" horiz-adv-x="1359" 
d="M756 1247h-146l-219 299h103l188 -268l190 268h101zM254 1069h426q234 0 376 -147q142 -148 142 -385q0 -243 -142 -389q-142 -148 -376 -148h-426v1069zM352 84h314q426 0 426 453q0 446 -426 446h-314v-899z" />
    <glyph glyph-name="Dcroat.aalt" horiz-adv-x="1355" 
d="M254 1069h426q234 0 376 -147q142 -148 142 -385q0 -243 -142 -389q-142 -148 -376 -148h-426v504h-182v78h182v487zM352 84h314q426 0 426 453q0 446 -426 446h-314v-401h387v-78h-387v-420z" />
    <glyph glyph-name="E.aalt" horiz-adv-x="1124" 
d="M352 502v-418h617v-84h-715v1069h709v-86h-611v-397h586v-84h-586z" />
    <glyph glyph-name="Eacute.aalt" horiz-adv-x="1124" 
d="M682 1546h121l-156 -299h-84zM352 502v-418h617v-84h-715v1069h709v-86h-611v-397h586v-84h-586z" />
    <glyph glyph-name="Ebreve.aalt" horiz-adv-x="1124" 
d="M608 1239q-123 0 -198 85q-76 85 -76 222h86q0 -121 45 -177t143 -56q100 0 145.5 56t45.5 177h86q0 -137 -76 -222t-201 -85zM352 502v-418h617v-84h-715v1069h709v-86h-611v-397h586v-84h-586z" />
    <glyph glyph-name="Ecaron.aalt" horiz-adv-x="1124" 
d="M682 1247h-145l-220 299h103l188 -268l191 268h100zM352 502v-418h617v-84h-715v1069h709v-86h-611v-397h586v-84h-586z" />
    <glyph glyph-name="Ecircumflex.aalt" horiz-adv-x="1124" 
d="M801 1247l-189 269l-190 -269h-103l220 299h145l219 -299h-102zM352 502v-418h617v-84h-715v1069h709v-86h-611v-397h586v-84h-586z" />
    <glyph glyph-name="Edieresis.aalt" horiz-adv-x="1124" 
d="M383 1466h147v-155h-147v155zM692 1466h148v-155h-148v155zM352 502v-418h617v-84h-715v1069h709v-86h-611v-397h586v-84h-586z" />
    <glyph glyph-name="Edotaccent.aalt" horiz-adv-x="1124" 
d="M537 1466h147v-155h-147v155zM352 502v-418h617v-84h-715v1069h709v-86h-611v-397h586v-84h-586z" />
    <glyph glyph-name="uni1EB8.aalt" horiz-adv-x="1124" 
d="M352 502v-418h617v-84h-715v1069h709v-86h-611v-397h586v-84h-586zM678 -365h-152v152h152v-152z" />
    <glyph glyph-name="Egrave.aalt" horiz-adv-x="1124" 
d="M530 1546l119 -299h-80l-157 299h118zM352 502v-418h617v-84h-715v1069h709v-86h-611v-397h586v-84h-586z" />
    <glyph glyph-name="Emacron.aalt" horiz-adv-x="1124" 
d="M338 1436h543v-82h-543v82zM352 502v-418h617v-84h-715v1069h709v-86h-611v-397h586v-84h-586z" />
    <glyph glyph-name="Eogonek.aalt" horiz-adv-x="1124" 
d="M831 -356h154v-68h-174q-70 0 -109.5 27.5t-39.5 77.5q0 53 51 110l168 209h-627v1069h709v-86h-611v-397h586v-84h-586v-418h617v-84h-15l-166 -219q-38 -51 -36 -86q0 -29 17 -40t62 -11z" />
    <glyph glyph-name="uni1EBC.aalt" horiz-adv-x="1124" 
d="M451 1421q-119 0 -119 -145h-72q0 103 53 168q52 63 140 63q62 0 112 -37q29 -22 99 -76q47 -38 100 -38q63 0 92 35.5t29 111.5h71q0 -105 -52 -167q-52 -64 -140 -64q-74 0 -162 75q-89 74 -151 74zM352 502v-418h617v-84h-715v1069h709v-86h-611v-397h586v-84h-586z
" />
    <glyph glyph-name="uni018F.aalt" horiz-adv-x="1314" 
d="M653 1090q225 0 363 -154q137 -155 137 -403q0 -249 -137 -404q-136 -154 -361 -154q-211 0 -342 138q-131 137 -131 358v82h867q-11 446 -396 446q-173 0 -265.5 -74t-92.5 -210h-102q0 160 129 268q128 107 331 107zM655 66q369 0 392 411l-480 -2l-295 39l11 -18
q-1 -430 372 -430z" />
    <glyph glyph-name="F.aalt" horiz-adv-x="1050" 
d="M956 1069v-86h-604v-399h578v-86h-578v-498h-98v1069h702z" />
    <glyph glyph-name="G.aalt" horiz-adv-x="1353" 
d="M621 457v80h542v-539h-78l-2 311q-35 -160 -142.5 -247t-272.5 -87q-227 0 -366 154q-140 155 -140 404t144 403q142 154 374 154q215 0 348 -106t133 -277h-104q0 150 -91.5 221t-285.5 71q-414 0 -414 -466q0 -467 414 -467q373 0 383 391h-442z" />
    <glyph glyph-name="Gbreve.aalt" horiz-adv-x="1353" 
d="M680 1239q-123 0 -198 85q-76 85 -76 222h86q0 -121 45 -177t143 -56q99 0 144.5 56t45.5 177h86q0 -136 -75 -222q-76 -85 -201 -85zM621 457v80h542v-539h-78l-2 311q-35 -160 -142.5 -247t-272.5 -87q-227 0 -366 154q-140 155 -140 404t144 403q142 154 374 154
q215 0 348 -106t133 -277h-104q0 150 -91.5 221t-285.5 71q-414 0 -414 -466q0 -467 414 -467q373 0 383 391h-442z" />
    <glyph glyph-name="Gcaron.aalt" horiz-adv-x="1353" 
d="M754 1247h-146l-219 299h103l188 -268l190 268h101zM621 457v80h542v-539h-78l-2 311q-35 -160 -142.5 -247t-272.5 -87q-227 0 -366 154q-140 155 -140 404t144 403q142 154 374 154q215 0 348 -106t133 -277h-104q0 150 -91.5 221t-285.5 71q-414 0 -414 -466
q0 -467 414 -467q373 0 383 391h-442z" />
    <glyph glyph-name="Gcircumflex.aalt" horiz-adv-x="1353" 
d="M872 1247l-188 269l-190 -269h-103l219 299h146l219 -299h-103zM621 457v80h542v-539h-78l-2 311q-35 -160 -142.5 -247t-272.5 -87q-227 0 -366 154q-140 155 -140 404t144 403q142 154 374 154q215 0 348 -106t133 -277h-104q0 150 -91.5 221t-285.5 71
q-414 0 -414 -466q0 -467 414 -467q373 0 383 391h-442z" />
    <glyph glyph-name="uni0122.aalt" horiz-adv-x="1353" 
d="M621 457v80h542v-539h-78l-2 311q-35 -160 -142.5 -247t-272.5 -87q-227 0 -366 154q-140 155 -140 404t144 403q142 154 374 154q215 0 348 -106t133 -277h-104q0 150 -91.5 221t-285.5 71q-414 0 -414 -466q0 -467 414 -467q373 0 383 391h-442zM688 -365l-84 39v113
h152v-131q0 -93 -51.5 -147t-139.5 -54v60q123 0 123 120z" />
    <glyph glyph-name="Gdotaccent.aalt" horiz-adv-x="1353" 
d="M608 1466h148v-155h-148v155zM621 457v80h542v-539h-78l-2 311q-35 -160 -142.5 -247t-272.5 -87q-227 0 -366 154q-140 155 -140 404t144 403q142 154 374 154q215 0 348 -106t133 -277h-104q0 150 -91.5 221t-285.5 71q-414 0 -414 -466q0 -467 414 -467q373 0 383 391
h-442z" />
    <glyph glyph-name="H.aalt" horiz-adv-x="1384" 
d="M1032 586v483h98v-1069h-98v502h-680v-502h-98v1069h98v-483h680z" />
    <glyph glyph-name="Hbar.aalt" horiz-adv-x="1384" 
d="M1130 895h185v-76h-185v-819h-98v502h-680v-502h-98v819h-172v76h172v174h98v-174h680v174h98v-174zM352 586h680v233h-680v-233z" />
    <glyph glyph-name="Hcircumflex.aalt" horiz-adv-x="1384" 
d="M877 1247l-189 269l-190 -269h-103l219 299h146l219 -299h-102zM1032 586v483h98v-1069h-98v502h-680v-502h-98v1069h98v-483h680z" />
    <glyph glyph-name="i.aalt" horiz-adv-x="606" 
d="M254 0v1069h98v-1069h-98z" />
    <glyph glyph-name="iacute.aalt" horiz-adv-x="606" 
d="M258 1247l119 299h121l-156 -299h-84zM254 0v1069h98v-1069h-98z" />
    <glyph glyph-name="ibreve.aalt" horiz-adv-x="606" 
d="M494 1546h86q0 -137 -76 -222t-201 -85q-123 0 -198 85q-76 85 -76 222h86q0 -121 45 -177t143 -56q100 0 145.5 56t45.5 177zM254 0v1069h98v-1069h-98z" />
    <glyph glyph-name="icircumflex.aalt" horiz-adv-x="606" 
d="M231 1546h146l219 -299h-102l-189 269l-190 -269h-103zM352 0h-98v1069h98v-1069z" />
    <glyph glyph-name="idieresis.aalt" horiz-adv-x="606" 
d="M76 1311v155h147v-155h-147zM385 1311v155h147v-155h-147zM254 0v1069h98v-1069h-98z" />
    <glyph glyph-name="Idotaccent.c2sc" horiz-adv-x="606" 
d="M229 1311v155h148v-155h-148zM254 0v1069h98v-1069h-98z" />
    <glyph glyph-name="uni1ECB.aalt" horiz-adv-x="606" 
d="M254 0v1069h98v-1069h-98zM225 -365v152h152v-152h-152z" />
    <glyph glyph-name="igrave.aalt" horiz-adv-x="606" 
d="M104 1546h119l119 -299h-80zM254 0v1069h98v-1069h-98z" />
    <glyph glyph-name="IJ.aalt" horiz-adv-x="1126" 
d="M254 66h328q127 0 182 60t55 200v743h99v-745q0 -164 -89 -256q-90 -93 -247 -93q-213 0 -328 25v66zM258 309v760h98v-760h-98z" />
    <glyph glyph-name="imacron.aalt" horiz-adv-x="606" 
d="M31 1436h542v-82h-542v82zM254 0v1069h98v-1069h-98z" />
    <glyph glyph-name="iogonek.aalt" horiz-adv-x="606" 
d="M229 -356h154v-68h-174q-70 0 -110 27.5t-40 77.5q0 54 52 110l168 209h-25v1069h98v-1069l-166 -219q-38 -51 -36 -86q0 -29 17 -40t62 -11z" />
    <glyph glyph-name="itilde.aalt" horiz-adv-x="606" 
d="M457 1272q-73 0 -162 75q-89 74 -152 74q-119 0 -118 -145h-72q0 104 52 168q53 63 140 63q61 0 113 -37q43 -31 98 -76q47 -38 101 -38q63 0 92 35.5t29 111.5h71q0 -105 -52 -167q-52 -64 -140 -64zM254 0v1069h98v-1069h-98z" />
    <glyph glyph-name="J.aalt" horiz-adv-x="991" 
d="M63 344h99q0 -140 67 -209.5t201 -68.5q129 0 191.5 70.5t62.5 219.5v713h98v-717q0 -170 -97 -273q-98 -104 -255 -104q-165 0 -265 102q-102 101 -102 267z" />
    <glyph glyph-name="Jcircumflex.aalt" horiz-adv-x="991" 
d="M662 1546h145l219 -299h-102l-189 269l-190 -269h-103zM684 356v713h98v-717q0 -170 -97 -273q-98 -104 -255 -104q-165 0 -265 102q-102 101 -102 267h99q0 -140 67 -209.5t201 -68.5q130 0 192 70.5t62 219.5z" />
    <glyph glyph-name="K.aalt" horiz-adv-x="1134" 
d="M1083 1069l-612 -524l649 -545h-139l-455 381l-174 151v-532h-98v1069h98v-524l174 155l432 369h125z" />
    <glyph glyph-name="uni0136.aalt" horiz-adv-x="1134" 
d="M1083 1069l-612 -524l649 -545h-139l-455 381l-174 151v-532h-98v1069h98v-524l174 155l432 369h125zM659 -365l-84 39v113h152v-131q0 -94 -51 -147.5t-139 -53.5v60q62 0 92.5 30t29.5 90z" />
    <glyph glyph-name="L.aalt" horiz-adv-x="1015" 
d="M352 1069v-985h606v-84h-704v1069h98z" />
    <glyph glyph-name="Lacute.aalt" horiz-adv-x="1015" 
d="M377 1546h121l-156 -299h-84zM352 1069v-985h606v-84h-704v1069h98z" />
    <glyph glyph-name="Lcaron.aalt" horiz-adv-x="1015" 
d="M352 1069v-985h606v-84h-704v1069h98zM784 1069v-131q0 -99 -51.5 -157t-138.5 -58v59q121 0 121 133l-84 41v113h153z" />
    <glyph glyph-name="uni013B.aalt" horiz-adv-x="1015" 
d="M352 1069v-985h606v-84h-704v1069h98zM635 -365l-84 39v113h151v-131q0 -94 -51 -147.5t-139 -53.5v60q123 0 123 120z" />
    <glyph glyph-name="Ldot.aalt" horiz-adv-x="1015" 
d="M352 1069v-985h606v-84h-704v1069h98zM588 668h149v-152h-149v152z" />
    <glyph glyph-name="Lslash.aalt" horiz-adv-x="1015" 
d="M352 485v-401h606v-84h-704v446l-193 -96v80l193 96v543h98v-504l385 187v-80z" />
    <glyph glyph-name="M.aalt" horiz-adv-x="1667" 
d="M1237 1069h176v-1069h-98v838l4 204l-408 -1042h-155l-406 1034l2 -196v-838h-98v1069h180l352 -905l50 -129l47 129z" />
    <glyph glyph-name="N.aalt" horiz-adv-x="1406" 
d="M1057 332v737h98v-1069h-172l-639 1034l8 -256v-778h-98v1069h172l637 -1034z" />
    <glyph glyph-name="Nacute.aalt" horiz-adv-x="1406" 
d="M782 1546h121l-155 -299h-84zM1057 332v737h98v-1069h-172l-639 1034l8 -256v-778h-98v1069h172l637 -1034z" />
    <glyph glyph-name="Ncaron.aalt" horiz-adv-x="1406" 
d="M780 1247h-145l-219 299h102l189 -268l190 268h100zM1057 332v737h98v-1069h-172l-639 1034l8 -256v-778h-98v1069h172l637 -1034z" />
    <glyph glyph-name="uni0145.aalt" horiz-adv-x="1406" 
d="M1057 332v737h98v-1069h-172l-639 1034l8 -256v-778h-98v1069h172l637 -1034zM727 -365l-84 39v113h152v-131q0 -93 -51.5 -147t-139.5 -54v60q123 0 123 120z" />
    <glyph glyph-name="Eng.aalt" horiz-adv-x="1406" 
d="M1057 332v737h98v-1214q0 -254 -231 -254q-75 0 -123 14v68h106q93 0 121 39q29 41 29 163v115h-74l-639 1034l8 -256v-778h-98v1069h172l637 -1034z" />
    <glyph glyph-name="uni019D.aalt" horiz-adv-x="1406" 
d="M1057 332v737h98v-1069h-172l-639 1034l8 -256v-923q0 -254 -231 -254q-75 0 -123 14v68h108q90 0 119 39q29 41 29 163v1184h172l637 -1034z" />
    <glyph glyph-name="Ntilde.aalt" horiz-adv-x="1406" 
d="M551 1421q-119 0 -119 -145h-72q0 103 53 168q52 63 140 63q61 0 113 -37q43 -31 98 -76q47 -38 100 -38q63 0 92 35.5t29 111.5h72q0 -105 -52 -167q-52 -64 -141 -64q-74 0 -162 75q-89 74 -151 74zM1057 332v737h98v-1069h-172l-639 1034l8 -256v-778h-98v1069h172
l637 -1034z" />
    <glyph glyph-name="O.c2sc" horiz-adv-x="1370" 
d="M690 -25q-238 0 -383 154t-145 404q0 248 146 403q145 154 382 154q234 0 376 -154t142 -403q0 -250 -142 -404t-376 -154zM690 66q414 0 414 467q0 466 -414 466q-424 0 -424 -466q0 -467 424 -467z" />
    <glyph glyph-name="Oacute.aalt" horiz-adv-x="1370" 
d="M639 1247l119 299h121l-156 -299h-84zM690 -25q-238 0 -383 154t-145 404q0 248 146 403q145 154 382 154q234 0 376 -154t142 -403q0 -250 -142 -404t-376 -154zM690 66q414 0 414 467q0 466 -414 466q-424 0 -424 -466q0 -467 424 -467z" />
    <glyph glyph-name="Obreve.aalt" horiz-adv-x="1370" 
d="M874 1546h87q0 -137 -76 -222t-201 -85q-123 0 -198 85q-76 85 -76 222h86q0 -121 45 -177t143 -56q99 0 144.5 56t45.5 177zM690 -25q-238 0 -383 154t-145 404q0 248 146 403q145 154 382 154q234 0 376 -154t142 -403q0 -250 -142 -404t-376 -154zM690 66
q414 0 414 467q0 466 -414 466q-424 0 -424 -466q0 -467 424 -467z" />
    <glyph glyph-name="Ocircumflex.aalt" horiz-adv-x="1370" 
d="M877 1247l-189 269l-190 -269h-103l219 299h146l219 -299h-102zM690 1090q234 0 376 -154t142 -403q0 -250 -142 -404t-376 -154q-238 0 -383 154t-145 404q0 249 145 403t383 154zM690 66q414 0 414 467q0 466 -414 466q-424 0 -424 -466q0 -467 424 -467z" />
    <glyph glyph-name="Odieresis.aalt" horiz-adv-x="1370" 
d="M459 1311v155h147v-155h-147zM768 1311v155h147v-155h-147zM690 -25q-238 0 -383 154t-145 404q0 248 146 403q145 154 382 154q234 0 376 -154t142 -403q0 -250 -142 -404t-376 -154zM690 66q414 0 414 467q0 466 -414 466q-424 0 -424 -466q0 -467 424 -467z" />
    <glyph glyph-name="uni1ECC.aalt" horiz-adv-x="1370" 
d="M690 -25q-238 0 -383 154t-145 404q0 248 146 403q145 154 382 154q234 0 376 -154t142 -403q0 -250 -142 -404t-376 -154zM690 66q414 0 414 467q0 466 -414 466q-424 0 -424 -466q0 -467 424 -467zM608 -365v152h152v-152h-152z" />
    <glyph glyph-name="Ograve.aalt" horiz-adv-x="1370" 
d="M487 1546h119l119 -299h-80zM690 -25q-238 0 -383 154t-145 404q0 248 146 403q145 154 382 154q234 0 376 -154t142 -403q0 -250 -142 -404t-376 -154zM690 66q414 0 414 467q0 466 -414 466q-424 0 -424 -466q0 -467 424 -467z" />
    <glyph glyph-name="Ohungarumlaut.aalt" horiz-adv-x="1370" 
d="M537 1247l108 299h100l-127 -299h-81zM750 1247l116 299h121l-158 -299h-79zM690 -25q-238 0 -383 154t-145 404q0 248 146 403q145 154 382 154q234 0 376 -154t142 -403q0 -250 -142 -404t-376 -154zM690 66q414 0 414 467q0 466 -414 466q-424 0 -424 -466
q0 -467 424 -467z" />
    <glyph glyph-name="Omacron.aalt" horiz-adv-x="1370" 
d="M414 1436h542v-82h-542v82zM690 -25q-238 0 -383 154t-145 404q0 248 146 403q145 154 382 154q234 0 376 -154t142 -403q0 -250 -142 -404t-376 -154zM690 66q414 0 414 467q0 466 -414 466q-424 0 -424 -466q0 -467 424 -467z" />
    <glyph glyph-name="uni01EA.aalt" horiz-adv-x="1370" 
d="M858 0l-166 -219q-37 -50 -37 -86q0 -29 17.5 -40t62.5 -11h154v-68h-174q-70 0 -110 27.5t-40 77.5q0 53 51 110l152 189q-23 -2 -78 -5q-238 0 -383 154t-145 404q0 248 146 403q145 154 382 154q234 0 376 -154t142 -404q0 -202 -94 -342q-94 -141 -256 -190zM690 999
q-424 0 -424 -466q0 -467 424 -467q414 0 414 467q0 466 -414 466z" />
    <glyph glyph-name="Oslash.aalt" horiz-adv-x="1376" 
d="M1243 1208l-192 -258q159 -152 157 -418q0 -251 -142 -403q-142 -154 -376 -154q-172 0 -303 86l-151 -204h-105l191 256q-160 156 -160 419q0 249 146 404q145 154 382 154q169 0 297 -86l152 204h104zM266 532q0 -231 107 -350l563 756q-95 61 -246 61
q-424 0 -424 -467zM690 66q414 0 414 466q0 232 -103 351l-563 -756q97 -61 252 -61z" />
    <glyph glyph-name="Oslashacute.aalt" horiz-adv-x="1376" 
d="M762 1546h121l-156 -299h-84zM1243 1208l-192 -258q159 -152 157 -418q0 -251 -142 -403q-142 -154 -376 -154q-172 0 -303 86l-151 -204h-105l191 256q-160 156 -160 419q0 249 146 404q145 154 382 154q169 0 297 -86l152 204h104zM266 532q0 -231 107 -350l563 756
q-95 61 -246 61q-424 0 -424 -467zM690 66q414 0 414 466q0 232 -103 351l-563 -756q97 -61 252 -61z" />
    <glyph glyph-name="Otilde.aalt" horiz-adv-x="1370" 
d="M840 1272q-74 0 -162 75q-89 74 -152 74q-119 0 -118 -145h-72q0 104 52 168q52 63 140 63q61 0 113 -37q43 -31 98 -76q47 -38 101 -38q63 0 92 35.5t29 111.5h71q0 -105 -52 -167q-52 -64 -140 -64zM690 -25q-238 0 -383 154t-145 404q0 248 146 403q145 154 382 154
q234 0 376 -154t142 -403q0 -250 -142 -404t-376 -154zM690 66q414 0 414 467q0 466 -414 466q-424 0 -424 -466q0 -467 424 -467z" />
    <glyph glyph-name="OE.aalt" horiz-adv-x="1863" 
d="M1106 502v-418h602v-84h-1028q-233 0 -375 148q-143 148 -143 389q0 239 142 385q142 147 376 147h1022v-86h-596v-397h569v-84h-569zM694 84h314v899h-314q-428 0 -428 -446q0 -453 428 -453z" />
    <glyph glyph-name="P.aalt" horiz-adv-x="1083" 
d="M254 1069h444q144 0 232 -87t88 -230q0 -145 -92 -232q-91 -88 -244 -88h-330v-432h-98v1069zM352 516h318q127 0 185 56.5t58 179.5q0 121 -58 176t-185 55h-318v-467z" />
    <glyph glyph-name="Thorn.aalt" horiz-adv-x="1228" 
d="M352 848h346q144 0 232 -84t88 -221t-92 -221t-244 -84h-330v-238h-98v1075h98v-227zM352 322h318q127 0 185 53t58 168q0 114 -58 166.5t-185 52.5h-318v-440z" />
    <glyph glyph-name="Q.aalt" horiz-adv-x="1374" 
d="M1071 135l207 -205l-57 -57l-207 209q-128 -105 -324 -107q-238 0 -383 154t-145 404q0 248 146 403q145 154 382 154q234 0 376 -154t142 -404q0 -248 -137 -397zM690 999q-424 0 -424 -466q0 -467 424 -467q167 0 264 73l-182 180l57 58l183 -182q92 118 92 337
q0 467 -414 467z" />
    <glyph glyph-name="R.aalt" horiz-adv-x="1204" 
d="M1137 0h-117l-332 453h-336v-453h-98v1069h451q148 0 236 -85q89 -86 89 -224q0 -115 -65.5 -194t-178.5 -103l91 -113zM678 983h-326v-448h326q130 0 189 53t59 172q0 117 -58.5 170t-189.5 53z" />
    <glyph glyph-name="Racute.aalt" horiz-adv-x="1204" 
d="M698 1546h121l-155 -299h-84zM1137 0h-117l-332 453h-336v-453h-98v1069h451q148 0 236 -85q89 -86 89 -224q0 -115 -65.5 -194t-178.5 -103l91 -113zM678 983h-326v-448h326q130 0 189 53t59 172q0 117 -58.5 170t-189.5 53z" />
    <glyph glyph-name="Rcaron.aalt" horiz-adv-x="1204" 
d="M698 1247h-145l-219 299h102l189 -268l190 268h100zM1137 0h-117l-332 453h-336v-453h-98v1069h451q148 0 236 -85q89 -86 89 -224q0 -115 -65.5 -194t-178.5 -103l91 -113zM678 983h-326v-448h326q130 0 189 53t59 172q0 117 -58.5 170t-189.5 53z" />
    <glyph glyph-name="uni0156.aalt" horiz-adv-x="1204" 
d="M786 463l91 -113l260 -350h-117l-332 453h-336v-453h-98v1069h451q148 0 236 -85q89 -86 89 -224q0 -115 -65.5 -194t-178.5 -103zM678 983h-326v-448h326q130 0 189 53t59 172q0 117 -58.5 170t-189.5 53zM643 -365l-84 39v113h152v-131q0 -93 -51.5 -147t-139.5 -54v60
q123 0 123 120z" />
    <glyph glyph-name="S.aalt" horiz-adv-x="1179" 
d="M156 330h104q0 -137 83 -202t259 -65q165 0 246.5 49.5t79.5 149.5q-2 94 -75 147q-74 53 -286 93q-221 44 -305 108t-84 174q0 136 113 222q113 84 297 84q187 0 300 -97q113 -98 113 -260h-104q0 137 -76 202.5t-235 65.5q-310 0 -312 -204q0 -84 72 -129
q73 -46 275 -86q227 -44 314 -116q89 -74 89 -196q0 -133 -116 -214q-117 -81 -308 -81q-200 0 -321 99q-123 97 -123 256z" />
    <glyph glyph-name="Sacute.aalt" horiz-adv-x="1179" 
d="M545 1247l119 299h120l-155 -299h-84zM156 330h104q0 -137 83 -202t259 -65q165 0 246.5 49.5t79.5 149.5q-2 94 -75 147q-74 53 -286 93q-221 44 -305 108t-84 174q0 136 113 222q113 84 297 84q187 0 300 -97q113 -98 113 -260h-104q0 137 -76 202.5t-235 65.5
q-310 0 -312 -204q0 -84 72 -129q73 -46 275 -86q227 -44 314 -116q89 -74 89 -196q0 -133 -116 -214q-117 -81 -308 -81q-200 0 -321 99q-123 97 -123 256z" />
    <glyph glyph-name="Scaron.aalt" horiz-adv-x="1179" 
d="M664 1247h-146l-219 299h102l189 -268l190 268h101zM621 582q227 -44 314 -116q89 -74 89 -196q0 -133 -116 -214q-117 -81 -308 -81q-200 0 -321 99q-123 97 -123 256h104q0 -137 83 -202t259 -65q165 0 246.5 49.5t79.5 149.5q-2 94 -75 147q-74 53 -286 93
q-221 44 -305 108t-84 174q0 136 113 222q113 84 297 84q187 0 300 -97q113 -98 113 -260h-104q0 137 -76 202.5t-235 65.5q-310 0 -312 -204q0 -84 72 -129q73 -46 275 -86z" />
    <glyph glyph-name="Scedilla.c2sc" horiz-adv-x="1179" 
d="M1024 270q0 -130 -111 -209q-113 -82 -295 -86l-45 -116h74q74 0 119 -38t45 -102q0 -65 -47 -104t-123 -39h-158v68h152q45 0 65.5 18.5t20.5 58.5q0 76 -86 76h-133v51l51 129q-181 11 -288 107q-109 96 -109 246h104q0 -137 83 -202t259 -65q165 0 246.5 49.5
t79.5 149.5q-2 94 -75 147q-74 53 -286 93q-221 44 -305 108t-84 174q0 136 113 222q113 84 297 84q187 0 300 -97q113 -98 113 -260h-104q0 137 -76 202.5t-235 65.5q-310 0 -312 -204q0 -84 72 -129q73 -46 275 -86q227 -44 314 -116q89 -74 89 -196z" />
    <glyph glyph-name="Scircumflex.aalt" horiz-adv-x="1179" 
d="M782 1247l-188 269l-191 -269h-102l219 299h146l219 -299h-103zM621 582q227 -44 314 -116q89 -74 89 -196q0 -133 -116 -214q-117 -81 -308 -81q-200 0 -321 99q-123 97 -123 256h104q0 -137 83 -202t259 -65q165 0 246.5 49.5t79.5 149.5q-2 94 -75 147q-74 53 -286 93
q-221 44 -305 108t-84 174q0 136 113 222q113 84 297 84q187 0 300 -97q113 -98 113 -260h-104q0 137 -76 202.5t-235 65.5q-310 0 -312 -204q0 -84 72 -129q73 -46 275 -86z" />
    <glyph glyph-name="uni0218.aalt" horiz-adv-x="1179" 
d="M156 330h104q0 -137 83 -202t259 -65q165 0 246.5 49.5t79.5 149.5q-2 94 -75 147q-74 53 -286 93q-221 44 -305 108t-84 174q0 136 113 222q113 84 297 84q187 0 300 -97q113 -98 113 -260h-104q0 137 -76 202.5t-235 65.5q-310 0 -312 -204q0 -84 72 -129
q73 -46 275 -86q227 -44 314 -116q89 -74 89 -196q0 -133 -116 -214q-117 -81 -308 -81q-200 0 -321 99q-123 97 -123 256zM512 -326v113h152v-131q0 -93 -51.5 -147t-139.5 -54v60q123 0 123 120z" />
    <glyph glyph-name="T.aalt" horiz-adv-x="1017" 
d="M23 1069h972v-86h-436v-983h-100v983h-436v86z" />
    <glyph glyph-name="Tbar.aalt" horiz-adv-x="993" 
d="M995 1069v-86h-436v-442h324v-76h-324v-465h-100v465h-324v76h324v442h-436v86h972z" />
    <glyph glyph-name="Tcaron.aalt" horiz-adv-x="1017" 
d="M582 1247h-146l-219 299h102l189 -268l190 268h101zM23 1069h972v-86h-436v-983h-100v983h-436v86z" />
    <glyph glyph-name="uni0162.c2sc" horiz-adv-x="1017" 
d="M559 983v-983h-12l-53 -141h73q74 0 119 -38t45 -102q0 -65 -47 -104t-123 -39h-158v68h152q45 0 65.5 18.5t20.5 58.5q0 76 -86 76h-133v51l61 152h-24v983h-436v86h972v-86h-436z" />
    <glyph glyph-name="uni021A.aalt" horiz-adv-x="1017" 
d="M23 1069h972v-86h-436v-983h-100v983h-436v86zM516 -365l-84 39v113h152v-131q0 -93 -51.5 -147t-139.5 -54v60q123 0 123 120z" />
    <glyph glyph-name="U.aalt" horiz-adv-x="1288" 
d="M209 381v694h98v-688q0 -323 336 -321q172 0 254 78.5t82 242.5v688h100v-694q0 -181 -119 -294q-119 -112 -317 -112q-196 0 -314 112q-120 113 -120 294z" />
    <glyph glyph-name="Uacute.aalt" horiz-adv-x="1288" 
d="M598 1247l119 299h121l-156 -299h-84zM209 381v694h98v-688q0 -323 336 -321q172 0 254 78.5t82 242.5v688h100v-694q0 -181 -119 -294q-119 -112 -317 -112q-196 0 -314 112q-120 113 -120 294z" />
    <glyph glyph-name="Ubreve.aalt" horiz-adv-x="1288" 
d="M834 1546h86q0 -137 -76 -222t-201 -85q-123 0 -198 85q-76 85 -76 222h86q0 -121 45 -177t143 -56q100 0 145.5 56t45.5 177zM209 381v694h98v-688q0 -323 336 -321q172 0 254 78.5t82 242.5v688h100v-694q0 -181 -119 -294q-119 -112 -317 -112q-196 0 -314 112
q-120 113 -120 294z" />
    <glyph glyph-name="Ucircumflex.aalt" horiz-adv-x="1288" 
d="M834 1247l-189 269l-190 -269h-103l219 299h146l219 -299h-102zM979 387v688h100v-694q0 -181 -119 -294q-119 -112 -317 -112q-196 0 -314 112q-120 113 -120 294v694h98v-688q0 -323 336 -321q172 0 254 78.5t82 242.5z" />
    <glyph glyph-name="Udieresis.aalt" horiz-adv-x="1288" 
d="M418 1311v155h147v-155h-147zM727 1311v155h147v-155h-147zM209 381v694h98v-688q0 -323 336 -321q172 0 254 78.5t82 242.5v688h100v-694q0 -181 -119 -294q-119 -112 -317 -112q-196 0 -314 112q-120 113 -120 294z" />
    <glyph glyph-name="uni1EE4.aalt" horiz-adv-x="1288" 
d="M209 381v694h98v-688q0 -323 336 -321q172 0 254 78.5t82 242.5v688h100v-694q0 -181 -119 -294q-119 -112 -317 -112q-196 0 -314 112q-120 113 -120 294zM567 -365v152h152v-152h-152z" />
    <glyph glyph-name="Ugrave.aalt" horiz-adv-x="1288" 
d="M446 1546h119l119 -299h-80zM209 381v694h98v-688q0 -323 336 -321q172 0 254 78.5t82 242.5v688h100v-694q0 -181 -119 -294q-119 -112 -317 -112q-196 0 -314 112q-120 113 -120 294z" />
    <glyph glyph-name="Uhungarumlaut.aalt" horiz-adv-x="1288" 
d="M496 1247l108 299h101l-127 -299h-82zM709 1247l116 299h121l-158 -299h-79zM209 381v694h98v-688q0 -323 336 -321q172 0 254 78.5t82 242.5v688h100v-694q0 -181 -119 -294q-119 -112 -317 -112q-196 0 -314 112q-120 113 -120 294z" />
    <glyph glyph-name="Umacron.aalt" horiz-adv-x="1288" 
d="M373 1436h542v-82h-542v82zM209 381v694h98v-688q0 -323 336 -321q172 0 254 78.5t82 242.5v688h100v-694q0 -181 -119 -294q-119 -112 -317 -112q-196 0 -314 112q-120 113 -120 294z" />
    <glyph glyph-name="Uogonek.aalt" horiz-adv-x="1288" 
d="M979 387v688h100v-694q0 -144 -76 -245q-76 -102 -210 -140l-162 -215q-37 -50 -37 -86q0 -29 17.5 -40t62.5 -11h153v-68h-174q-70 0 -109.5 27.5t-39.5 77.5q0 53 51 110l152 189q-16 -2 -64 -5q-196 0 -314 112q-120 113 -120 294v694h98v-688q0 -323 336 -321
q172 0 254 78.5t82 242.5z" />
    <glyph glyph-name="Uring.aalt" horiz-adv-x="1288" 
d="M770 1283q-47 -44 -125 -44q-79 0 -126 43q-48 44 -48 115q0 70 48 112.5t126 42.5q79 0 125 -43q47 -44 47 -112q0 -70 -47 -114zM645 1296q60 0 85.5 22.5t25.5 78.5q0 53 -25.5 75.5t-85.5 22.5q-61 0 -87 -22.5t-26 -75.5q0 -55 26 -78t87 -23zM209 381v694h98v-688
q0 -323 336 -321q172 0 254 78.5t82 242.5v688h100v-694q0 -181 -119 -294q-119 -112 -317 -112q-196 0 -314 112q-120 113 -120 294z" />
    <glyph glyph-name="Utilde.aalt" horiz-adv-x="1288" 
d="M799 1272q-73 0 -162 75q-89 74 -152 74q-119 0 -118 -145h-72q0 104 52 168q53 63 140 63q61 0 113 -37q43 -31 98 -76q47 -38 101 -38q63 0 92 35.5t29 111.5h71q0 -105 -52 -167q-52 -64 -140 -64zM209 381v694h98v-688q0 -323 336 -321q172 0 254 78.5t82 242.5v688
h100v-694q0 -181 -119 -294q-119 -112 -317 -112q-196 0 -314 112q-120 113 -120 294z" />
    <glyph glyph-name="V.aalt" horiz-adv-x="1105" 
d="M629 219l334 850h100l-416 -1069h-178l-426 1069h104l342 -850l70 -188z" />
    <glyph glyph-name="W.aalt" horiz-adv-x="1775" 
d="M1333 217l275 852h100l-342 -1069h-166l-264 860l-49 187l-49 -187l-265 -860h-165l-342 1069h102l272 -852l54 -182l51 182l260 852h166l260 -852l51 -180z" />
    <glyph glyph-name="Wacute.aalt" horiz-adv-x="1775" 
d="M961 1546h120l-155 -299h-84zM1333 217l275 852h100l-342 -1069h-166l-264 860l-49 187l-49 -187l-265 -860h-165l-342 1069h102l272 -852l54 -182l51 182l260 852h166l260 -852l51 -180z" />
    <glyph glyph-name="Wcircumflex.aalt" horiz-adv-x="1775" 
d="M1079 1247l-188 269l-191 -269h-102l219 299h146l219 -299h-103zM1333 217l275 852h100l-342 -1069h-166l-264 860l-49 187l-49 -187l-265 -860h-165l-342 1069h102l272 -852l54 -182l51 182l260 852h166l260 -852l51 -180z" />
    <glyph glyph-name="Wdieresis.aalt" horiz-adv-x="1775" 
d="M662 1466h147v-155h-147v155zM971 1466h147v-155h-147v155zM1333 217l275 852h100l-342 -1069h-166l-264 860l-49 187l-49 -187l-265 -860h-165l-342 1069h102l272 -852l54 -182l51 182l260 852h166l260 -852l51 -180z" />
    <glyph glyph-name="Wgrave.aalt" horiz-adv-x="1775" 
d="M809 1546l119 -299h-80l-158 299h119zM1333 217l275 852h100l-342 -1069h-166l-264 860l-49 187l-49 -187l-265 -860h-165l-342 1069h102l272 -852l54 -182l51 182l260 852h166l260 -852l51 -180z" />
    <glyph glyph-name="X.aalt" horiz-adv-x="1198" 
d="M1100 1069l-408 -506l441 -563h-113l-287 367l-135 176l-135 -176l-285 -367h-112l438 559l-412 510h117l258 -321l131 -168l131 165l260 324h111z" />
    <glyph glyph-name="Y.aalt" horiz-adv-x="1038" 
d="M627 598l311 471h104l-473 -711v-358h-98v358l-475 711h106l316 -471l104 -170z" />
    <glyph glyph-name="Yacute.aalt" horiz-adv-x="1038" 
d="M594 1546h121l-156 -299h-84zM627 598l311 471h104l-473 -711v-358h-98v358l-475 711h106l316 -471l104 -170z" />
    <glyph glyph-name="Ycircumflex.aalt" horiz-adv-x="1038" 
d="M711 1247l-189 269l-190 -269h-103l220 299h145l219 -299h-102zM627 598l311 471h104l-473 -711v-358h-98v358l-475 711h106l316 -471l104 -170z" />
    <glyph glyph-name="Ydieresis.aalt" horiz-adv-x="1038" 
d="M293 1466h147v-155h-147v155zM602 1466h148v-155h-148v155zM627 598l311 471h104l-473 -711v-358h-98v358l-475 711h106l316 -471l104 -170z" />
    <glyph glyph-name="Ygrave.aalt" horiz-adv-x="1038" 
d="M442 1546l119 -299h-80l-157 299h118zM627 598l311 471h104l-473 -711v-358h-98v358l-475 711h106l316 -471l104 -170z" />
    <glyph glyph-name="uni0232.aalt" horiz-adv-x="1038" 
d="M250 1436h543v-82h-543v82zM627 598l311 471h104l-473 -711v-358h-98v358l-475 711h106l316 -471l104 -170z" />
    <glyph glyph-name="uni1EF8.aalt" horiz-adv-x="1038" 
d="M362 1421q-119 0 -118 -145h-72q0 105 52 168t141 63q62 0 112 -37q29 -22 99 -76q47 -38 100 -38q63 0 92 35.5t29 111.5h71q0 -105 -52 -167q-52 -64 -140 -64q-74 0 -162 75q-89 74 -152 74zM627 598l311 471h104l-473 -711v-358h-98v358l-475 711h106l316 -471
l104 -170z" />
    <glyph glyph-name="Z.c2sc" horiz-adv-x="1046" 
d="M147 80l228 4h581v-84h-843v158l805 831l-232 -6h-569v86h833v-160z" />
    <glyph glyph-name="Zacute.c2sc" horiz-adv-x="1046" 
d="M606 1546h121l-156 -299h-84zM147 80l228 4h581v-84h-843v158l805 831l-232 -6h-569v86h833v-160z" />
    <glyph glyph-name="Zcaron.c2sc" horiz-adv-x="1046" 
d="M604 1247h-145l-219 299h102l188 -268l191 268h100zM147 80l228 4h581v-84h-843v158l805 831l-232 -6h-569v86h833v-160z" />
    <glyph glyph-name="Zdotaccent.c2sc" horiz-adv-x="1046" 
d="M461 1466h147v-155h-147v155zM147 80l228 4h581v-84h-843v158l805 831l-232 -6h-569v86h833v-160z" />
    <glyph glyph-name="i.aalt.aalt" horiz-adv-x="835" 
d="M721 1069v-86h-254v-899h254v-84h-606v84h254v899h-254v86h606z" />
    <glyph glyph-name="iacute.aalt.aalt" horiz-adv-x="835" 
d="M485 1546h121l-155 -299h-84zM721 1069v-86h-254v-899h254v-84h-606v84h254v899h-254v86h606z" />
    <glyph glyph-name="ibreve.aalt.aalt" horiz-adv-x="835" 
d="M412 1239q-123 0 -199 85t-76 222h86q0 -121 45 -177t144 -56t144.5 56t45.5 177h86q0 -136 -75 -222q-76 -85 -201 -85zM721 1069v-86h-254v-899h254v-84h-606v84h254v899h-254v86h606z" />
    <glyph glyph-name="icircumflex.aalt.aalt" horiz-adv-x="835" 
d="M604 1247l-188 269l-191 -269h-102l219 299h145l220 -299h-103zM721 1069v-86h-254v-899h254v-84h-606v84h254v899h-254v86h606z" />
    <glyph glyph-name="idieresis.aalt.aalt" horiz-adv-x="835" 
d="M186 1466h148v-155h-148v155zM496 1466h147v-155h-147v155zM721 1069v-86h-254v-899h254v-84h-606v84h254v899h-254v86h606z" />
    <glyph glyph-name="Idotaccent.c2sc.ss02" horiz-adv-x="835" 
d="M340 1466h147v-155h-147v155zM721 1069v-86h-254v-899h254v-84h-606v84h254v899h-254v86h606z" />
    <glyph glyph-name="uni1ECB.aalt.aalt" horiz-adv-x="835" 
d="M721 1069v-86h-254v-899h254v-84h-606v84h254v899h-254v86h606zM494 -365h-152v152h152v-152z" />
    <glyph glyph-name="igrave.aalt.aalt" horiz-adv-x="835" 
d="M334 1546l119 -299h-80l-158 299h119zM721 1069v-86h-254v-899h254v-84h-606v84h254v899h-254v86h606z" />
    <glyph glyph-name="imacron.aalt.aalt" horiz-adv-x="835" 
d="M141 1436h543v-82h-543v82zM721 1069v-86h-254v-899h254v-84h-606v84h254v899h-254v86h606z" />
    <glyph glyph-name="iogonek.aalt.aalt" horiz-adv-x="835" 
d="M721 1069v-86h-254v-899h254v-84h-246l-166 -219q-37 -50 -37 -86q0 -29 17.5 -40t62.5 -11h154v-68h-174q-70 0 -110 27.5t-40 77.5q0 53 51 110l168 209h-286v84h254v899h-254v86h606z" />
    <glyph glyph-name="itilde.aalt.aalt" horiz-adv-x="835" 
d="M254 1421q-119 0 -119 -145h-72q0 103 53 168q53 63 140 63q61 0 113 -37q43 -31 98 -76q47 -38 100 -38q63 0 92 35.5t29 111.5h72q0 -105 -52 -167q-52 -64 -141 -64q-73 0 -162 75q-89 74 -151 74zM115 1069h606v-86h-254v-899h254v-84h-606v84h254v899h-254v86z" />
    <glyph glyph-name="Z.c2sc.ss03" horiz-adv-x="1019" 
d="M147 80l215 4h580v-84h-844v145l793 842l-217 -4h-572v86h836v-147z" />
    <glyph glyph-name="Zacute.c2sc.ss03" horiz-adv-x="1019" 
d="M594 1546h121l-156 -299h-84zM147 80l215 4h580v-84h-844v145l793 842l-217 -4h-572v86h836v-147z" />
    <glyph glyph-name="Zcaron.c2sc.ss03" horiz-adv-x="1019" 
d="M592 1247h-146l-219 299h103l188 -268l191 268h100zM147 80l215 4h580v-84h-844v145l793 842l-217 -4h-572v86h836v-147z" />
    <glyph glyph-name="Zdotaccent.c2sc.ss03" horiz-adv-x="1019" 
d="M446 1466h148v-155h-148v155zM147 80l215 4h580v-84h-844v145l793 842l-217 -4h-572v86h836v-147z" />
    <glyph glyph-name="zero.case" horiz-adv-x="1521" 
d="M1190 178q-164 -203 -430 -203q-265 0 -429 203q-163 202 -163 533q0 330 163 532q164 203 429 203q266 0 430 -203t164 -532q0 -330 -164 -533zM760 70q485 0 485 641q0 639 -485 639q-482 0 -484 -639q2 -641 484 -641z" />
    <glyph glyph-name="one.case" horiz-adv-x="933" 
d="M469 1434h182v-1434h-102v1077l4 320l-102 -88l-320 -244v117z" />
    <glyph glyph-name="two.case" horiz-adv-x="1335" 
d="M199 84l346 6h680v-90h-1063v156l665 493q139 101 186 174q46 73 46 199q0 168 -92.5 249t-284.5 81q-201 0 -297 -104.5t-96 -321.5h-107q0 233 138 377q137 143 362 143q214 0 347 -116q132 -116 132 -304q0 -247 -256 -428l-561 -416z" />
    <glyph glyph-name="three.case" horiz-adv-x="1337" 
d="M817 711q361 -33 363 -338q0 -179 -139 -288q-140 -110 -365 -110q-224 0 -360 127q-138 128 -138 334h109q0 -189 94 -277.5t297 -88.5q205 0 300 71.5t95 225.5q0 152 -77.5 220t-252.5 68h-260v80h228q293 0 293 289q0 168 -81 247t-255 79q-186 0 -274.5 -93.5
t-88.5 -289.5h-106q0 214 128 347q127 132 339 132q200 0 321 -112t121 -296q0 -130 -75.5 -216t-215.5 -111z" />
    <glyph glyph-name="four.case" horiz-adv-x="1290" 
d="M924 461h319v-86h-319v-375h-103v375h-741v172l668 874h176v-960zM119 455l248 6h454v596l6 329z" />
    <glyph glyph-name="five.case" horiz-adv-x="1277" 
d="M717 872q205 0 331 -123q126 -125 126 -327t-136 -323q-137 -122 -360 -122q-225 0 -363 120q-139 120 -139 317h109q0 -174 97 -258t298 -84q387 0 387 350q0 184 -95 272t-292 88q-136 0 -222 -40q-87 -40 -159 -132h-92l72 811h819v-88l-738 2l-61 -673q61 93 171 152
q109 58 247 58z" />
    <glyph glyph-name="six.case" horiz-adv-x="1421" 
d="M754 901q224 0 357 -124q134 -125 134 -326q0 -213 -138 -344q-138 -132 -364 -132q-262 0 -418 179q-157 178 -157 540q0 354 157 553q156 199 418 199q215 0 348 -114q132 -116 132 -302h-107q0 164 -90 241t-283 77q-241 0 -354 -155t-113 -499v-104q34 136 166 224
q130 87 312 87zM743 70q205 0 301.5 92t96.5 289q0 186 -98.5 273t-307.5 87q-212 0 -324 -92q-112 -91 -112 -246q0 -200 113 -301.5t331 -101.5z" />
    <glyph glyph-name="seven.case" horiz-adv-x="1128" 
d="M74 1333v88h999v-159q-264 -256 -420 -594q-157 -336 -157 -668h-105q0 358 181 716q180 356 485 621l-359 -4h-624z" />
    <glyph glyph-name="eight.case" horiz-adv-x="1363" 
d="M838 727q178 -29 276 -123t98 -237q0 -176 -146 -284t-384 -108t-384 108q-146 107 -146 284q0 143 98 237t276 123q-157 29 -243 113t-86 209q0 178 134 288q133 109 351 109t351 -109q134 -110 134 -288q0 -125 -86 -209t-243 -113zM305 1042q0 -133 98.5 -205.5
t278.5 -72.5t278.5 72.5t98.5 205.5q0 159 -91 233.5t-286 74.5t-286 -74.5t-91 -233.5zM363 146q101 -76 319 -76q217 0 320 76q102 75 102 235q0 147 -108.5 225t-313.5 78t-313.5 -78t-108.5 -225q0 -160 103 -235z" />
    <glyph glyph-name="nine.case" horiz-adv-x="1421" 
d="M678 1446q262 0 418 -178q155 -179 155 -543q0 -351 -152 -551q-153 -199 -409 -199q-220 0 -356 113q-135 112 -135 297h106q0 -161 93 -236t292 -75q234 0 343 154q110 154 110 497v98q-37 -135 -166 -220q-128 -85 -311 -85q-221 0 -355 125q-135 125 -135 328
q0 214 139 344q139 131 363 131zM686 608q215 0 326 93q110 92 110 247q0 199 -113.5 300.5t-330.5 101.5q-204 0 -300.5 -92t-96.5 -287q0 -186 98 -274.5t307 -88.5z" />
    <glyph glyph-name="four.case.ss03" horiz-adv-x="1290" 
d="M924 461h319v-86h-319v-375h-103v375h-741v145l694 901h150v-960zM137 457l230 4h454v596l4 293z" />
    <glyph glyph-name="zero.case.zero" horiz-adv-x="1521" 
d="M331 1243q164 203 429 203q266 0 430 -203t164 -532q0 -330 -164 -533t-430 -203q-265 0 -429 203q-163 202 -163 533q0 330 163 532zM276 711q0 -387 181 -543l555 1120q-100 60 -252 62q-484 0 -484 -639zM760 70q485 0 485 641q0 374 -170 532l-555 -1118
q98 -55 240 -55z" />
    <glyph glyph-name="zero.oldstyle" horiz-adv-x="1411" 
d="M1103 129q-151 -154 -396 -154q-246 0 -396 154q-151 154 -151 404q0 249 151 403q150 154 396 154q245 0 396 -154q150 -154 150 -403t-150 -404zM376 190q126 -129 331 -129q204 0 330 131q126 130 126 341t-126 341t-330 130q-205 0 -331 -129q-126 -131 -126 -343
q0 -213 126 -342z" />
    <glyph glyph-name="one.oldstyle" horiz-adv-x="1083" 
d="M655 1069v-985h351v-84h-844v84h395v629l4 301l-100 -70l-295 -199v101l330 223h159z" />
    <glyph glyph-name="two.oldstyle" horiz-adv-x="1183" 
d="M203 78l276 6h617v-84h-938v137l538 330q154 96 193 148q41 53 41 153q0 238 -328 238q-168 0 -248 -78t-80 -240h-100q0 180 118 291t310 111q194 0 313 -86q117 -86 117 -228q0 -112 -61 -192q-59 -80 -211 -170l-395 -242z" />
    <glyph glyph-name="three.oldstyle" horiz-adv-x="1142" 
d="M674 356q162 -23 254 -116q92 -94 92 -234q0 -182 -150 -294q-152 -111 -397 -111q-249 0 -373 24v68h404q212 0 311.5 75t99.5 234q0 299 -321 299h-240v84h207q283 0 283 309q0 160 -73.5 236t-231.5 76q-164 0 -243 -87.5t-79 -265.5h-102q0 197 117 317
q116 120 307 120q185 0 298 -105q111 -107 111 -278q0 -136 -73 -228q-73 -95 -201 -123z" />
    <glyph glyph-name="four.oldstyle" horiz-adv-x="1165" 
d="M825 137h303v-84h-303v-438h-98v438h-664v168l594 848h168v-932zM100 133l250 4h377v568l6 331z" />
    <glyph glyph-name="five.oldstyle" horiz-adv-x="1058" 
d="M592 508q193 0 310 -119q116 -119 116 -313q0 -213 -146 -344q-148 -131 -389 -131q-253 0 -387 24v68h420q203 0 300 94t97 289q0 178 -84 262t-264 84q-124 0 -204 -48.5t-138 -158.5h-88l55 842h754v-82h-424l-252 4l-45 -692q55 103 153 162t216 59z" />
    <glyph glyph-name="six.oldstyle" horiz-adv-x="1224" 
d="M707 864q196 0 315 -118q119 -119 119 -312q0 -204 -126 -332q-126 -127 -331 -127q-244 0 -383 172t-139 535q0 358 162 556q161 198 452 198q225 0 340 -25v-70h-328q-281 0 -401 -152q-121 -152 -121 -507v-84q39 123 157 195q119 71 284 71zM684 59q178 0 264 92.5
t86 282.5q0 176 -86 261t-266 85q-194 0 -296.5 -82.5t-102.5 -240.5q0 -195 104.5 -296.5t296.5 -101.5z" />
    <glyph glyph-name="seven.oldstyle" horiz-adv-x="1034" 
d="M68 983v86h909v-156q-252 -264 -402 -611q-151 -345 -151 -687h-102q0 367 174 736q174 368 467 638l-361 -6h-534z" />
    <glyph glyph-name="eight.oldstyle" horiz-adv-x="1255" 
d="M770 723q153 -33 242 -129q88 -95 88 -236q0 -172 -130 -277q-130 -106 -343 -106q-211 0 -341 106q-130 105 -130 277q0 139 88 236q89 96 241 129q-154 28 -244 118q-89 89 -89 214q0 176 131 284q131 107 344 107q216 0 347 -107q130 -108 130 -284q0 -125 -89 -214
q-90 -90 -245 -118zM252 1049q0 -138 97 -211.5t278 -73.5q184 0 280.5 72.5t96.5 212.5q0 162 -90.5 236.5t-286.5 74.5q-195 0 -285 -74.5t-90 -236.5zM627 59q193 0 281.5 76t88.5 240q0 152 -94.5 230.5t-275.5 78.5q-178 0 -273.5 -79.5t-95.5 -229.5q0 -164 89.5 -240
t279.5 -76z" />
    <glyph glyph-name="nine.oldstyle" 
d="M551 1090q522 0 522 -717q0 -374 -160 -573t-454 -199q-223 0 -342 24v68h329q280 0 402 156q121 157 121 524v94q-39 -124 -157 -194q-118 -72 -286 -72q-194 0 -313 119t-119 311q0 205 126 332t331 127zM553 285q194 0 296.5 82.5t102.5 240.5q0 193 -105.5 295.5
t-295.5 102.5q-178 0 -264 -92.5t-86 -282.5q0 -176 86 -261t266 -85z" />
    <glyph glyph-name="four.oldstyle.ss03" horiz-adv-x="1165" 
d="M825 137h303v-84h-303v-438h-98v438h-664v135l629 881h133v-932zM119 133l231 4h377v568l4 284z" />
    <glyph glyph-name="zero.oldstyle.zero" horiz-adv-x="1411" 
d="M311 936q150 154 396 154q245 0 396 -154q150 -154 150 -403t-150 -404q-151 -154 -396 -154q-246 0 -396 154q-151 154 -151 404q0 249 151 403zM250 532q0 -211 127 -344l602 736q-116 80 -272 80q-205 0 -331 -129q-126 -131 -126 -343zM707 61q205 0 331 131
q125 131 125 341q0 211 -127 344l-602 -736q116 -80 273 -80z" />
    <glyph glyph-name="four.ss03" horiz-adv-x="1290" 
d="M924 461h319v-86h-319v-375h-103v375h-741v145l694 901h150v-960zM137 457l230 4h454v596l4 293z" />
    <glyph glyph-name="zero.tnum" 
d="M1001 178q-147 -203 -384 -203q-238 0 -384 203q-147 202 -147 533q0 329 147 532q146 203 384 203q237 0 384 -203q146 -203 146 -532q0 -330 -146 -533zM195 711q0 -641 422 -641q421 0 421 641q0 639 -421 639q-422 0 -422 -639z" />
    <glyph glyph-name="one.tnum" 
d="M723 1434v-1346h375v-88h-897v88h417v989l7 320l-105 -88l-319 -244v117l338 252h184z" />
    <glyph glyph-name="two.tnum" 
d="M129 84l346 6h682v-90h-1065v156l666 493q138 99 185 174q46 73 46 199q0 168 -92 249t-283 81q-201 0 -297 -104.5t-96 -321.5h-108q0 232 137 377q137 143 362 143q214 0 348 -116q132 -116 132 -304q0 -247 -256 -428l-562 -416z" />
    <glyph glyph-name="three.tnum" 
d="M750 711q362 -33 362 -338q0 -179 -138 -288q-139 -110 -364 -110q-224 0 -360 127q-137 128 -137 334h106q0 -188 95.5 -277t295.5 -89q205 0 301.5 71.5t96.5 225.5q0 152 -79 220t-253 68h-260v80h229q291 0 291 289q0 168 -81 247t-255 79q-186 0 -274 -93.5
t-88 -289.5h-107q0 214 128 347q127 132 339 132q200 0 321 -112t121 -296q0 -130 -75 -216t-215 -111z" />
    <glyph glyph-name="four.tnum" 
d="M909 461h293v-86h-293v-375h-104v375h-742v172l670 874h176v-960zM102 455l248 6h455v596l6 325z" />
    <glyph glyph-name="five.tnum" 
d="M664 872q206 0 330 -123q124 -124 124 -327q0 -202 -135 -323q-136 -122 -358 -122q-225 0 -363 120q-139 120 -139 317h108q0 -174 97.5 -258t298.5 -84q387 0 387 350q0 183 -95.5 271.5t-291.5 88.5q-136 0 -222 -40q-89 -40 -159 -132h-92l71 811h819v-88l-737 2
l-61 -673q61 93 171 152q109 58 247 58z" />
    </font>
</defs>
</svg>
