<?xml version="1.0" standalone="no"?>
<!DOCTYPE svg PUBLIC "-//W3C//DTD SVG 1.1//EN" "http://www.w3.org/Graphics/SVG/1.1/DTD/svg11.dtd" >
<svg xmlns="http://www.w3.org/2000/svg" xmlns:xlink="http://www.w3.org/1999/xlink" version="1.1">
<metadata>
Created by FontForge 20170731 at Fri Apr 12 15:38:33 2019
 By Aleksey,,,
Copyright (c) 2018 by Alexis Navarro Miranda. All rights reserved. Desktop use is strictly prohibited.
</metadata>
<defs>
<font id="MenaGrotesk-Light" horiz-adv-x="1263" >
  <font-face 
    font-family="Mena Grotesk Light"
    font-weight="300"
    font-stretch="normal"
    units-per-em="2048"
    panose-1="0 0 3 0 0 0 0 0 0 0"
    ascent="1638"
    descent="-410"
    x-height="1036"
    cap-height="1425"
    bbox="-813 -557 2236 2120"
    underline-thickness="0"
    underline-position="0"
    unicode-range="U+0020-FB02"
  />
<missing-glyph horiz-adv-x="1523" 
d="M1266 682h186v-61h-125q-12 -143 -77.5 -251t-174.5 -163v-207h-57v207q-60 -58 -168 -119l-37 170h-102l-37 -170q-114 64 -168 121v-209h-55v209q-227 113 -254 412h-125v61h186q0 -296 193 -414v125q-80 95 -80 260q0 179 88 279v522h608v-524q86 -98 86 -277
q0 -162 -78 -258v-127q191 119 191 414zM539 1407l223 -193l223 193h-446zM793 1188l225 -197v393zM508 995l223 193l-223 192v-385zM920 1024l-158 137l-158 -137q71 22 158.5 22t157.5 -22zM510 411q86 -83 252 -83t252 83t86 242q0 166 -86 252t-252 86t-252 -86
t-86 -252q0 -159 86 -242zM600 922l86 30v-34l-86 -31v35zM922 887l-88 31v34l88 -30v-35zM729 819q0 -23 -15.5 -37t-37.5 -14q-25 0 -41.5 14.5t-16.5 36.5q0 26 16.5 42t41.5 16q24 0 38.5 -15.5t14.5 -42.5zM848 877q25 0 41 -15.5t16 -42.5q0 -23 -16.5 -37t-40.5 -14
q-23 0 -38 14.5t-15 36.5q0 27 14.5 42.5t38.5 15.5zM854 696l-176 -20v39l176 20v-39zM643 160l29 119q-100 16 -166 63v-74q56 -64 137 -108zM1018 266v76q-66 -47 -166 -63l29 -119q80 41 137 106zM764 207q29 0 29 -31q0 -29 -29 -29q-33 0 -33 29q0 31 33 31zM764 94
q29 0 29 -28q0 -31 -29 -31q-33 0 -33 31q0 28 33 28z" />
    <glyph glyph-name="uniFB01" unicode="fi" horiz-adv-x="1306" 
d="M383 1036h717v-1036h-137v926h-580v-926h-137v926h-213v110h213v221q0 145 82.5 225.5t232.5 80.5q139 0 230 -15v-100h-218q-111 0 -150 -45q-40 -44 -40 -170v-197zM944 1296v211h176v-211h-176z" />
    <glyph glyph-name="uniFB02" unicode="fl" horiz-adv-x="1372" 
d="M246 1036v221q0 145 82.5 225.5t232.5 80.5q145 0 242 -15v-100h-230q-111 0 -150 -45q-40 -44 -40 -170v-197h408v-110h-408v-926h-137v926h-213v110h213zM1223 98h90v-98q-48 -16 -115 -16q-117 0 -180.5 67.5t-63.5 188.5v1306h140v-1278q0 -99 28 -134
q27 -36 101 -36z" />
    <glyph glyph-name="f_f.liga" unicode="ff" horiz-adv-x="1517" 
d="M1561 1448h-242q-111 0 -151 -45q-40 -44 -40 -170v-197h418v-110h-418v-926h-139v926h-606v-926h-137v926h-213v110h213v168q0 145 82.5 225t232.5 80t254 -14v-100h-242q-111 0 -150 -45q-40 -44 -40 -170v-144h606v221q0 146 82.5 226t235.5 80q151 0 254 -15v-100z
" />
    <glyph glyph-name="f_f_i.liga" unicode="ffi" horiz-adv-x="2050" 
d="M1128 1036h717v-1036h-139v926h-578v-926h-139v926h-606v-926h-137v926h-213v110h213v168q0 145 82.5 225t232.5 80t254 -14v-100h-242q-111 0 -150 -45q-40 -44 -40 -170v-144h606v221q0 146 82.5 226t235.5 80q141 0 227 -15v-100h-215q-111 0 -151 -45
q-40 -44 -40 -170v-197zM1688 1296v211h176v-211h-176z" />
    <glyph glyph-name="f_f_l.liga" unicode="ffl" horiz-adv-x="2115" 
d="M989 1036v291q0 131 63 184q61 52 220 52q146 0 274 -17v-98h-243q-112 0 -143 -34q-32 -35 -32 -146v-232h406v-110h-406v-926h-139v926h-606v-926h-137v926h-213v110h213v238q0 130 63 183q61 52 219 52q154 0 275 -16v-98h-246q-111 0 -142 -33q-32 -34 -32 -148v-178
h606zM1968 98h90v-98q-54 -16 -116 -16q-117 0 -179.5 66.5t-62.5 189.5v1306h137v-1278q0 -97 29 -134q28 -36 102 -36z" />
    <glyph glyph-name=".notdef" horiz-adv-x="1523" 
d="M1266 682h186v-61h-125q-12 -143 -77.5 -251t-174.5 -163v-207h-57v207q-60 -58 -168 -119l-37 170h-102l-37 -170q-114 64 -168 121v-209h-55v209q-227 113 -254 412h-125v61h186q0 -296 193 -414v125q-80 95 -80 260q0 179 88 279v522h608v-524q86 -98 86 -277
q0 -162 -78 -258v-127q191 119 191 414zM539 1407l223 -193l223 193h-446zM793 1188l225 -197v393zM508 995l223 193l-223 192v-385zM920 1024l-158 137l-158 -137q71 22 158.5 22t157.5 -22zM510 411q86 -83 252 -83t252 83t86 242q0 166 -86 252t-252 86t-252 -86
t-86 -252q0 -159 86 -242zM600 922l86 30v-34l-86 -31v35zM922 887l-88 31v34l88 -30v-35zM729 819q0 -23 -15.5 -37t-37.5 -14q-25 0 -41.5 14.5t-16.5 36.5q0 26 16.5 42t41.5 16q24 0 38.5 -15.5t14.5 -42.5zM848 877q25 0 41 -15.5t16 -42.5q0 -23 -16.5 -37t-40.5 -14
q-23 0 -38 14.5t-15 36.5q0 27 14.5 42.5t38.5 15.5zM854 696l-176 -20v39l176 20v-39zM643 160l29 119q-100 16 -166 63v-74q56 -64 137 -108zM1018 266v76q-66 -47 -166 -63l29 -119q80 41 137 106zM764 207q29 0 29 -31q0 -29 -29 -29q-33 0 -33 29q0 31 33 31zM764 94
q29 0 29 -28q0 -31 -29 -31q-33 0 -33 31q0 28 33 28z" />
    <glyph glyph-name="glyph1" horiz-adv-x="0" 
 />
    <glyph glyph-name="glyph2" horiz-adv-x="681" 
 />
    <glyph glyph-name="space" unicode=" " horiz-adv-x="409" 
 />
    <glyph glyph-name="exclam" unicode="!" horiz-adv-x="555" 
d="M209 1425h139v-321l-29 -696h-81l-29 696v321zM178 0v201h201v-201h-201z" />
    <glyph glyph-name="quotedbl" unicode="&#x22;" horiz-adv-x="598" 
d="M98 899l-26 526h157l-28 -526h-103zM397 899l-28 526h157l-28 -526h-101z" />
    <glyph glyph-name="numbersign" unicode="#" horiz-adv-x="1361" 
d="M1341 1006v-105h-278l-102 -383h249v-104h-278l-111 -414h-119l111 414h-420l-110 -414h-119l110 414h-254v104h283l103 383h-256v105h282l113 419h119l-113 -419h420l112 419h119l-112 -419h251zM422 518h420l102 383h-420z" />
    <glyph glyph-name="dollar" unicode="$" horiz-adv-x="1431" 
d="M1294 373q0 -170 -142 -278q-143 -110 -380 -120v-139h-106v139q-239 13 -385 144q-146 129 -146 330h150q0 -324 381 -345v562q-273 56 -384 140q-112 85 -112 234q0 176 135 288q134 111 361 122v147h106v-147q226 -17 362 -147q136 -132 136 -336h-150q0 170 -85 256
t-263 98v-541q2 -2 6 -2q283 -55 400 -150q116 -95 116 -255zM313 1061q0 -97 72 -152q71 -56 281 -106v520q-353 -17 -353 -262zM772 643v-541q379 13 379 256q-1 101 -79 168q-76 66 -300 117z" />
    <glyph glyph-name="percent" unicode="%" horiz-adv-x="1415" 
d="M617 901q-88 -88 -234 -88q-145 0 -233 88q-89 89 -89 232q0 142 89 231q88 88 233 88q146 0 234 -88t88 -231q0 -144 -88 -232zM1151 1425h152l-410 -622h-125zM383 924q94 0 149.5 56.5t55.5 152.5q0 94 -56 151t-149 57t-148 -57q-57 -57 -57 -151q0 -95 57 -152
q55 -57 148 -57zM520 623h127l-383 -623h-151zM1260 64q-89 -89 -234 -89q-144 0 -233 89q-88 88 -88 231t88 231t233 88q146 0 234 -88t88 -231t-88 -231zM1026 86q94 0 149.5 56.5t55.5 152.5q0 94 -56 151.5t-149 57.5q-92 0 -148 -57q-57 -59 -57 -152q0 -94 57 -151
q55 -58 148 -58z" />
    <glyph glyph-name="ampersand" unicode="&#x26;" horiz-adv-x="1368" 
d="M1178 238l266 -238h-193l-155 139q-172 -166 -449 -166q-247 0 -398 104q-151 103 -151 273q0 125 89 223t257 152q-111 102 -157 181q-47 80 -47 186q0 162 113 261q112 99 296 99q182 0 293 -99q111 -101 111 -261q0 -262 -408 -379l438 -391q60 122 62 325h145
q0 -237 -112 -409zM381 1081q0 -72 43 -139q44 -69 160 -174q192 62 265 131q71 68 71 182q0 127 -63.5 185.5t-201.5 58.5q-143 0 -208.5 -58.5t-65.5 -185.5zM647 96q242 0 363 121l-506 455q-139 -55 -200.5 -125t-61.5 -172q0 -143 98 -211t307 -68z" />
    <glyph glyph-name="quotesingle" unicode="'" horiz-adv-x="299" 
d="M98 899l-26 526h157l-28 -526h-103z" />
    <glyph glyph-name="parenleft" unicode="(" horiz-adv-x="483" 
d="M322 1546h108q-182 -472 -182 -964q0 -493 182 -965h-108q-445 965 0 1929z" />
    <glyph glyph-name="parenright" unicode=")" horiz-adv-x="477" 
d="M156 -383h-109q182 472 182 965q0 492 -182 964h109q445 -964 0 -1929z" />
    <glyph glyph-name="asterisk" unicode="*" horiz-adv-x="702" 
d="M401 1452l-51 -287l-51 287h102zM160 1384l190 -219l-256 140zM608 1305l-258 -140l193 219zM59 1151l291 14l-268 -114zM180 930l170 235l-76 -280zM621 1051l-271 114l293 -14zM428 885l-78 280l172 -235z" />
    <glyph glyph-name="plus" unicode="+" horiz-adv-x="1024" 
d="M569 588h353v-113h-353v-354h-114v354h-353v113h353v352h114v-352z" />
    <glyph glyph-name="comma" unicode="," horiz-adv-x="409" 
d="M119 39v162h200v-201q0 -137 -64.5 -212t-182.5 -75v84q154 0 153 180z" />
    <glyph glyph-name="hyphen" unicode="-" horiz-adv-x="647" 
d="M102 580h463v-117h-463v117z" />
    <glyph glyph-name="period" unicode="." horiz-adv-x="421" 
d="M131 0v201h201v-201h-201z" />
    <glyph glyph-name="slash" unicode="/" horiz-adv-x="512" 
d="M31 -383l340 1929h127l-340 -1929h-127z" />
    <glyph glyph-name="zero" unicode="0" horiz-adv-x="1513" 
d="M758 -27q-274 0 -441 203t-167 537t167 537q166 202 441 202q273 0 439 -202q167 -203 167 -537t-167 -537t-439 -203zM758 102q229 0 341.5 151t112.5 460t-111.5 459.5t-342.5 150.5q-232 0 -344.5 -150.5t-112.5 -459.5q0 -310 113 -460.5t344 -150.5z" />
    <glyph glyph-name="one" unicode="1" horiz-adv-x="952" 
d="M438 1434h250v-1434h-145v1077l6 299l-103 -92l-329 -266v164z" />
    <glyph glyph-name="two" unicode="2" horiz-adv-x="1335" 
d="M221 117l322 6h696v-123h-1079v207l635 450q150 102 197 173q46 70 46 192q0 156 -85 229.5t-265 73.5q-186 0 -274 -99.5t-88 -307.5h-150q0 242 141 388q140 146 367 146q223 0 360 -116q136 -117 136 -310q0 -254 -281 -442l-547 -387z" />
    <glyph glyph-name="three" unicode="3" horiz-adv-x="1349" 
d="M829 721q373 -37 373 -346q0 -180 -142 -291q-143 -111 -376 -111q-235 0 -380 128q-144 127 -144 337h151q0 -174 90.5 -255t284.5 -81q193 0 282 63.5t89 201.5q0 147 -73 213.5t-232 66.5h-269v107h226q140 0 210 70t70 198q0 158 -75.5 230.5t-239.5 72.5
q-178 0 -261 -86t-83 -268h-150q0 217 136 349q135 132 356 132q209 0 335 -111q126 -113 126 -297q0 -128 -79 -213t-225 -110z" />
    <glyph glyph-name="four" unicode="4" horiz-adv-x="1310" 
d="M956 473h318v-119h-318v-354h-145v354h-727v236l629 835h243v-952zM141 469l230 4h440v588l6 309z" />
    <glyph glyph-name="five" unicode="5" horiz-adv-x="1277" 
d="M737 885q201 0 325 -126q124 -125 124 -331t-139 -330q-140 -125 -369 -125q-232 0 -372 124q-142 124 -142 327h149q0 -164 89.5 -242t277.5 -78q184 0 273 79.5t89 244.5q0 172 -88 253t-274 81q-129 0 -210 -35q-78 -34 -144 -115h-127l65 813h844v-120l-727 2
l-51 -619q134 197 407 197z" />
    <glyph glyph-name="six" unicode="6" horiz-adv-x="1419" 
d="M772 905q220 0 353 -125q132 -124 132 -327q0 -215 -141 -347q-140 -133 -371 -133q-270 0 -432 186q-163 184 -163 543q0 346 163 548q162 202 435 202q221 0 356 -117q135 -119 135 -313h-149q0 156 -82 227.5t-260 71.5q-231 0 -339 -146q-108 -147 -108 -473v-77
q40 124 169 203q128 77 302 77zM745 102q190 0 278.5 84t88.5 267q0 170 -90 249.5t-283 79.5q-205 0 -309 -79t-104 -228q-1 -187 104 -280t315 -93z" />
    <glyph glyph-name="seven" unicode="7" horiz-adv-x="1130" 
d="M70 1305v120h1003v-219q-258 -246 -412 -571q-155 -327 -155 -635h-148q0 344 189 698q188 353 504 611l-353 -4h-628z" />
    <glyph glyph-name="eight" unicode="8" horiz-adv-x="1359" 
d="M870 731q171 -35 263 -129t92 -237q0 -176 -149 -284q-150 -108 -396 -108q-244 0 -393 108q-150 107 -150 284q0 143 91 237t264 129q-150 31 -230 114t-80 210q0 179 138 288q136 109 360 109q226 0 363 -109q137 -110 137 -288q0 -127 -80 -210t-230 -114zM332 1042
q0 -264 348 -264t348 264q0 145 -84 213t-264 68t-264 -68t-84 -213zM381 171q94 -69 299 -69q204 0 299 69q94 69 94 216q0 283 -393 283t-393 -283q0 -147 94 -216z" />
    <glyph glyph-name="nine" unicode="9" horiz-adv-x="1419" 
d="M674 1452q272 0 434 -185q162 -186 162 -544q0 -345 -161 -548q-160 -202 -427 -202q-226 0 -363 118q-139 118 -139 310h150q0 -155 84.5 -226t267.5 -71q227 0 332 147q104 146 104 472v72q-44 -123 -170 -199q-127 -76 -301 -76q-218 0 -351 125q-132 125 -132 328
q0 215 141 347q139 132 369 132zM680 643q414 0 414 307q0 373 -420 373q-188 0 -277.5 -85t-89.5 -265q0 -170 90 -250t283 -80z" />
    <glyph glyph-name="colon" unicode=":" horiz-adv-x="421" 
d="M131 645v201h201v-201h-201zM131 0v201h201v-201h-201z" />
    <glyph glyph-name="semicolon" unicode=";" horiz-adv-x="409" 
d="M119 645v201h200v-201h-200zM119 39v162h200v-201q0 -137 -64.5 -212t-182.5 -75v84q154 0 153 180z" />
    <glyph glyph-name="less" unicode="&#x3c;" horiz-adv-x="915" 
d="M94 618l719 316v-117l-668 -293l668 -291v-116l-719 315v186z" />
    <glyph glyph-name="equal" unicode="=" horiz-adv-x="1134" 
d="M102 793h830v-111h-830v111zM102 381h830v-111h-830v111z" />
    <glyph glyph-name="greater" unicode="&#x3e;" horiz-adv-x="915" 
d="M102 817v117l717 -316v-186l-717 -315v116l666 291z" />
    <glyph glyph-name="question" unicode="?" horiz-adv-x="1021" 
d="M473 1452q196 0 317 -107q119 -108 119 -284q0 -133 -83.5 -226.5t-233.5 -127.5l-78 -17l-14 -291h-80l-19 367l148 29q120 23 172.5 85t52.5 179q0 145 -70.5 211.5t-226.5 66.5q-162 0 -236.5 -75.5t-74.5 -241.5h-135q0 196 121 314q119 118 321 118zM561 0h-203v201
h203v-201z" />
    <glyph glyph-name="at" unicode="@" horiz-adv-x="2127" 
d="M1047 1464q422 0 681 -250t259 -661q0 -133 -27.5 -240.5t-71.5 -170.5q-40 -60 -94 -98q-84 -60 -174 -60q-126 0 -182 53.5t-56 175.5v35q-53 -124 -154 -189t-235 -65q-213 0 -342 148q-129 147 -129 386q0 241 128 389q128 146 343 146q133 0 234.5 -63t154.5 -181
v217h134v-780q0 -104 30 -135q28 -31 113 -29q104 0 158 106q53 106 53 355q0 385 -216 597q-217 212 -607 212q-396 0 -613 -217q-219 -217 -219 -612q0 -396 218 -612q217 -216 614 -216q331 0 557 135v-112q-232 -127 -557 -127q-427 0 -687 256q-262 256 -262 676
q0 419 262 675q260 256 687 256zM755 212q87 -103 267 -103t267 103t87 316q0 215 -86 317.5t-268 102.5t-268 -102.5t-86 -317.5q0 -212 87 -316z" />
    <glyph glyph-name="A" unicode="A" horiz-adv-x="1390" 
d="M1341 0h-151l-170 461h-662l-168 -461h-141l516 1425h252zM596 1110l-193 -528h574l-195 528l-94 268z" />
    <glyph glyph-name="B" unicode="B" horiz-adv-x="1462" 
d="M1008 748q142 -33 222 -128q79 -95 79 -225q0 -178 -121 -286q-121 -109 -320 -109h-606v1425h565q198 0 317 -97q120 -98 120 -259q0 -115 -69 -201q-71 -87 -187 -120zM807 1305h-399v-531h399q159 0 232 63t73 201q0 139 -73 203t-232 64zM408 121h440
q162 0 236.5 65.5t74.5 208.5q0 138 -72.5 202.5t-228.5 64.5h-450v-541z" />
    <glyph glyph-name="C" unicode="C" horiz-adv-x="1552" 
d="M336 176q-186 202 -186 537t186 537t491 202q255 0 427 -140q171 -141 171 -378h-149q0 199 -109.5 294t-339.5 95q-266 0 -396 -150.5t-130 -459.5q0 -310 130 -460.5t396 -150.5q228 0 338.5 90.5t110.5 276.5h149q0 -231 -170 -363q-169 -133 -428 -133
q-305 0 -491 203z" />
    <glyph glyph-name="D" unicode="D" horiz-adv-x="1622" 
d="M262 1425h547q299 0 482 -195q182 -197 182 -517q0 -321 -182 -517q-183 -196 -482 -196h-547v1425zM408 121h387q260 0 393 150.5t133 441.5t-133 441.5t-393 150.5h-387v-1184z" />
    <glyph glyph-name="E" unicode="E" horiz-adv-x="1351" 
d="M408 659v-538h766v-121h-912v1425h897v-120h-751v-523h710v-123h-710z" />
    <glyph glyph-name="F" unicode="F" horiz-adv-x="1226" 
d="M1139 1425v-120h-731v-533h690v-123h-690v-649h-146v1425h877z" />
    <glyph glyph-name="G" unicode="G" horiz-adv-x="1640" 
d="M735 608v117h713v-725h-121v375q-95 -401 -514 -402q-299 0 -481 203t-182 537q0 335 187 537t492 202q275 0 444 -139t169 -365h-152q0 193 -112.5 284t-348.5 91q-268 0 -398 -150.5t-130 -459.5q0 -310 130 -460.5t398 -150.5q240 0 357 124t121 382h-572z" />
    <glyph glyph-name="H" unicode="H" horiz-adv-x="1660" 
d="M1251 782v643h146v-1425h-146v662h-843v-662h-146v1425h146v-643h843z" />
    <glyph glyph-name="I" unicode="I" horiz-adv-x="671" 
d="M262 0v1425h146v-1425h-146z" />
    <glyph glyph-name="J" unicode="J" horiz-adv-x="1249" 
d="M78 449h141q0 -177 82.5 -263t253.5 -86q166 0 244 88t78 273v964h145v-970q0 -216 -128 -349q-127 -133 -339 -133q-215 0 -346 132q-131 131 -131 344z" />
    <glyph glyph-name="K" unicode="K" horiz-adv-x="1427" 
d="M1376 1425l-790 -702l823 -723h-213l-600 528l-188 172v-700h-146v1425h146v-696l188 176l582 520h198z" />
    <glyph glyph-name="L" unicode="L" horiz-adv-x="1214" 
d="M408 1425v-1304h727v-121h-873v1425h146z" />
    <glyph glyph-name="M" unicode="M" horiz-adv-x="1998" 
d="M1485 1425h252v-1425h-146v1141l4 225l-491 -1366h-209l-492 1364l5 -223v-1141h-146v1425h258l426 -1177l58 -174l55 174z" />
    <glyph glyph-name="N" unicode="N" horiz-adv-x="1660" 
d="M1251 440v985h146v-1425h-246l-752 1358l9 -318v-1040h-146v1425h252l748 -1349z" />
    <glyph glyph-name="O" unicode="O" horiz-adv-x="1669" 
d="M838 -27q-309 0 -498 203q-190 202 -190 537t189 537t499 202q306 0 493 -202t187 -537t-187 -537q-188 -203 -493 -203zM838 102q530 0 530 611q0 610 -530 610q-271 0 -404 -151t-133 -459q0 -611 537 -611z" />
    <glyph glyph-name="P" unicode="P" horiz-adv-x="1345" 
d="M262 1425h567q196 0 315 -112q120 -113 120 -299q0 -188 -120 -300q-120 -114 -317 -114h-419v-600h-146v1425zM408 721h403q158 0 229.5 70.5t71.5 222.5t-71.5 221.5t-229.5 69.5h-403v-584z" />
    <glyph glyph-name="Q" unicode="Q" horiz-adv-x="1669" 
d="M1348 197l258 -254l-88 -88l-254 260q-175 -140 -430 -142q-307 0 -495 203q-189 202 -189 537q0 334 188 537q187 202 496 202q310 0 497 -202t187 -537q0 -316 -170 -516zM834 1323q-533 0 -533 -610q0 -611 533 -611q223 0 348 95l-244 237l88 88l238 -243
q104 146 104 434q0 610 -534 610z" />
    <glyph glyph-name="R" unicode="R" horiz-adv-x="1449" 
d="M1391 0h-166l-432 618h-385v-618h-146v1425h580q195 0 315 -111q119 -113 119 -294q0 -155 -92 -259q-91 -103 -254 -132l125 -156zM823 1305h-415v-572h415q156 0 228.5 69.5t72.5 217.5q0 147 -72.5 216t-228.5 69z" />
    <glyph glyph-name="S" unicode="S" horiz-adv-x="1431" 
d="M723 -27q-264 0 -426 132q-162 130 -162 344h150q0 -177 107.5 -262t332.5 -85q426 0 426 256q-1 72 -34 123q-31 48 -138 98q-104 47 -301 85q-282 56 -394 141q-114 85 -114 235q0 186 149 299t392 113q252 0 406 -133q153 -133 153 -352h-150q0 182 -100 269t-311 87
q-395 0 -396 -262q0 -72 34 -118q35 -47 137 -87t294 -78q283 -55 400 -150q116 -96 116 -255q0 -181 -157 -290q-158 -110 -414 -110z" />
    <glyph glyph-name="T" unicode="T" horiz-adv-x="1302" 
d="M31 1425h1241v-120h-549v-1305h-145v1305h-547v120z" />
    <glyph glyph-name="U" unicode="U" horiz-adv-x="1585" 
d="M229 487v938h144v-931q0 -199 103.5 -295.5t316.5 -96.5t316 96.5t103 295.5v931h146v-938q0 -231 -155 -372q-155 -142 -410 -142t-409 142q-155 141 -155 372z" />
    <glyph glyph-name="V" unicode="V" horiz-adv-x="1374" 
d="M786 315l406 1110h141l-516 -1425h-252l-524 1425h152l407 -1110l94 -268z" />
    <glyph glyph-name="W" unicode="W" horiz-adv-x="2228" 
d="M1679 315l338 1110h146l-434 -1425h-236l-307 1100l-70 276l-67 -276l-308 -1100h-241l-434 1425h149l338 -1110l72 -258l65 258l309 1110h236l307 -1110l66 -258z" />
    <glyph glyph-name="X" unicode="X" horiz-adv-x="1470" 
d="M1397 1425l-535 -673l578 -752h-162l-375 483l-170 230l-170 -230l-373 -483h-161l575 750l-534 675h161l340 -430l162 -213l162 213l342 430h160z" />
    <glyph glyph-name="Y" unicode="Y" horiz-adv-x="1288" 
d="M776 829l346 596h144l-547 -948v-477h-146v477l-548 948h155l346 -596l125 -239z" />
    <glyph glyph-name="Z" unicode="Z" horiz-adv-x="1257" 
d="M150 115l305 6h733v-121h-1092v240l1032 1071l-305 -6h-721v120h1080v-239z" />
    <glyph glyph-name="bracketleft" unicode="[" horiz-adv-x="581" 
d="M559 1546v-114l-254 4v-1708l254 4v-115h-391v1929h391z" />
    <glyph glyph-name="backslash" unicode="\" horiz-adv-x="512" 
d="M14 1546h127l340 -1929h-127z" />
    <glyph glyph-name="bracketright" unicode="]" horiz-adv-x="581" 
d="M23 1546h391v-1929h-391v115l253 -4v1708l-253 -4v114z" />
    <glyph glyph-name="asciicircum" unicode="^" horiz-adv-x="741" 
d="M465 1425l197 -430h-115l-174 387l-176 -387h-117l199 430h186z" />
    <glyph glyph-name="underscore" unicode="_" horiz-adv-x="1114" 
d="M113 -35h964v-115h-964v115z" />
    <glyph glyph-name="grave" unicode="`" horiz-adv-x="479" 
d="M90 1546h166l131 -311h-111z" />
    <glyph glyph-name="a" unicode="a" horiz-adv-x="1183" 
d="M1118 96h27v-96q-60 -16 -121 -16q-93 0 -133.5 53t-40.5 176v27q-46 -125 -153 -196t-259 -71q-138 0 -224 68q-85 67 -85 180q0 103 69 169t224 97q367 80 424 99v39q0 171 -66 251t-207 80q-143 0 -210.5 -74.5t-67.5 -230.5h-137q0 187 114 299q113 113 301 113
q192 0 301 -107q107 -109 107 -297v-403q0 -106 24 -133q23 -27 113 -27zM469 86q171 0 274 90t103 258v68q-16 -5 -373 -90q-109 -27 -154 -68.5t-45 -110.5q0 -147 195 -147z" />
    <glyph glyph-name="b" unicode="b" horiz-adv-x="1353" 
d="M737 1063q215 0 343 -149q128 -151 128 -396q0 -246 -128 -395q-127 -150 -343 -150q-133 0 -234.5 62t-154.5 178v-213h-133v1546h137v-729q53 120 153 183t232 63zM439 194q87 -106 268 -106q180 0 268 106q88 104 88 324q0 219 -87 324.5t-269 105.5
q-180 0 -267.5 -105.5t-87.5 -324.5t87 -324z" />
    <glyph glyph-name="c" unicode="c" horiz-adv-x="1222" 
d="M942 340h141q0 -166 -120 -266q-122 -101 -322 -101q-223 0 -359 150q-137 149 -137 395q0 245 137 396q137 149 359 149q197 0 318 -108q120 -109 120 -285h-143q0 143 -71.5 210.5t-223.5 67.5q-180 0 -265 -105t-85 -325q0 -219 86 -324.5t264 -105.5
q156 0 228.5 60.5t72.5 191.5z" />
    <glyph glyph-name="d" unicode="d" horiz-adv-x="1343" 
d="M1001 827v719h138v-1546h-133v227q-53 -124 -154 -189t-236 -65q-216 0 -343 150q-128 149 -128 395q0 245 128 396q128 149 343 149q132 0 233.5 -60.5t151.5 -175.5zM645 88q182 0 269 105.5t87 324.5t-87 324.5t-269 105.5q-180 0 -267 -105.5t-87 -324.5t87 -324.5
t267 -105.5z" />
    <glyph glyph-name="e" unicode="e" horiz-adv-x="1247" 
d="M1104 584v-99h-813q6 -202 92 -299.5t260 -97.5q313 0 313 234h142q0 -153 -127 -250q-127 -99 -328 -99q-225 0 -361 150q-137 149 -137 395q0 247 136 396q135 149 358 149q209 0 337 -132q128 -133 128 -347zM293 582l276 4h396q-6 185 -86 273.5t-240 88.5
q-164 0 -249 -90t-97 -276z" />
    <glyph glyph-name="f" unicode="f" horiz-adv-x="772" 
d="M815 1448h-242q-111 0 -150 -45q-40 -44 -40 -170v-197h420v-110h-420v-926h-137v926h-213v110h213v221q0 145 82.5 225.5t232.5 80.5q153 0 254 -15v-100z" />
    <glyph glyph-name="g" unicode="g" horiz-adv-x="1157" 
d="M1116 1190v-117q-108 0 -155.5 -27.5t-57.5 -91.5q103 -92 105 -243q0 -152 -118 -248t-310 -96q-140 0 -244 53q-90 -45 -90 -137q0 -61 33 -88t108 -27h389q147 0 238 -75q90 -75 90 -195q0 -132 -138 -215q-139 -82 -368 -82t-368 76q-140 77 -140 202q0 66 46.5 115
t127.5 69q-129 53 -129 181q0 63 40 118.5t110 90.5q-133 97 -133 258q0 159 118 256q117 96 310 96q161 0 270 -68q12 100 75.5 147.5t190.5 47.5zM364 533q67 -58 216 -58q148 0 216 58q68 57 68 178q0 125 -68.5 183t-215.5 58q-148 0 -216.5 -58t-68.5 -183
q0 -121 69 -178zM766 53h-461q-86 -51 -86 -155q0 -102 84 -143q83 -40 295 -40t293 40q82 40 82 143q0 85 -46 121q-46 34 -161 34z" />
    <glyph glyph-name="h" unicode="h" horiz-adv-x="1327" 
d="M737 1063q172 0 279 -107q106 -107 106 -282v-674h-139v616q0 177 -65 253q-66 75 -222 75q-160 0 -252 -90t-92 -252v-602h-137v1546h137v-719q113 236 385 236z" />
    <glyph glyph-name="i" unicode="i" horiz-adv-x="557" 
d="M195 1296v187h176v-187h-176zM215 0v1036h137v-1036h-137z" />
    <glyph glyph-name="j" unicode="j" horiz-adv-x="557" 
d="M195 1296v187h176v-187h-176zM215 -90v1126h137v-1142q0 -139 -70.5 -216t-197.5 -77q-86 0 -137 16v98h119q88 0 119 40q30 41 30 155z" />
    <glyph glyph-name="k" unicode="k" horiz-adv-x="1126" 
d="M1075 1036l-561 -497l608 -539h-194l-447 395l-129 123v-518h-137v1546h137v-1009l127 122l424 377h172z" />
    <glyph glyph-name="l" unicode="l" horiz-adv-x="630" 
d="M483 98h90v-98q-54 -16 -116 -16q-117 0 -179.5 66.5t-62.5 189.5v1306h137v-1290q0 -93 28 -125q27 -33 103 -33z" />
    <glyph glyph-name="m" unicode="m" horiz-adv-x="2072" 
d="M1491 1063q170 0 274 -107q103 -107 103 -282v-674h-139v616q0 178 -63 253q-64 75 -216 75q-160 0 -250 -90t-90 -252v-602h-139v616q0 178 -63 253q-64 75 -216 75q-158 0 -249 -90t-91 -252v-602h-137v1036h131v-221q55 119 155.5 183.5t231.5 64.5q134 0 232 -71
q96 -72 129 -195q53 129 156 197.5t241 68.5z" />
    <glyph glyph-name="n" unicode="n" horiz-adv-x="1327" 
d="M737 1063q172 0 279 -107q106 -107 106 -282v-674h-139v616q0 177 -65 253q-66 75 -222 75q-160 0 -252 -90t-92 -252v-602h-137v1036h133v-219q112 246 389 246z" />
    <glyph glyph-name="o" unicode="o" horiz-adv-x="1292" 
d="M1009 123q-140 -150 -364 -150q-225 0 -362 150q-138 149 -138 395t138 396q137 149 362 149q224 0 364 -149q138 -150 138 -396t-138 -395zM645 88q180 0 268 105.5t88 324.5t-87 324.5t-269 105.5q-180 0 -267 -105.5t-87 -324.5q0 -430 354 -430z" />
    <glyph glyph-name="p" unicode="p" horiz-adv-x="1353" 
d="M737 1063q215 0 343 -149q128 -151 128 -396q0 -246 -128 -395q-127 -150 -343 -150q-130 0 -230.5 60t-154.5 172v-588h-137v1419h131v-233q50 125 153.5 192.5t237.5 67.5zM439 194q87 -106 268 -106q180 0 268 106q88 104 88 324q0 219 -87 324.5t-269 105.5
q-180 0 -267.5 -105.5t-87.5 -324.5t87 -324z" />
    <glyph glyph-name="q" unicode="q" horiz-adv-x="1353" 
d="M1006 819v217h133v-1419h-138v600q-53 -118 -154 -181t-231 -63q-216 0 -343 150q-128 149 -128 395q0 245 128 396q128 149 343 149q133 0 235 -63t155 -181zM645 88q182 0 269 105.5t87 324.5t-87 324.5t-269 105.5q-180 0 -267 -105.5t-87 -324.5t87 -324.5
t267 -105.5z" />
    <glyph glyph-name="r" unicode="r" horiz-adv-x="819" 
d="M682 1063q67 0 102 -16v-113h-118q-147 0 -230.5 -94.5t-83.5 -264.5v-575h-137v1036h131v-239q45 127 132 196.5t204 69.5z" />
    <glyph glyph-name="s" unicode="s" horiz-adv-x="1124" 
d="M586 -27q-215 0 -344 99q-129 98 -129 260h141q0 -129 81 -189.5t253 -60.5q291 0 291 170q0 82 -69 129t-265 84q-209 40 -305 110q-95 68 -95 187q0 135 113 218t299 83q198 0 319 -98q119 -99 119 -258h-143q0 127 -72.5 188t-224.5 61q-276 0 -276 -178
q0 -80 70 -123q67 -42 274 -80q208 -39 299 -112q92 -74 92 -199q0 -132 -117 -211q-119 -80 -311 -80z" />
    <glyph glyph-name="t" unicode="t" horiz-adv-x="841" 
d="M569 98h238v-98q-106 -16 -254 -16q-152 0 -233.5 77.5t-81.5 223.5v641h-215v110h215l4 310h133v-310h426v-110h-426v-613q0 -124 41 -170q40 -45 153 -45z" />
    <glyph glyph-name="u" unicode="u" horiz-adv-x="1312" 
d="M963 422v614h137v-1036h-131v209q-111 -236 -389 -236q-166 0 -267 108q-102 107 -102 281v674h137v-616q0 -178 66 -253q64 -75 219 -75q153 0 242 87q88 87 88 243z" />
    <glyph glyph-name="v" unicode="v" horiz-adv-x="1089" 
d="M627 281l291 755h137l-402 -1036h-219l-401 1036h143l291 -755l80 -224z" />
    <glyph glyph-name="w" unicode="w" horiz-adv-x="1812" 
d="M1380 281l238 755h145l-346 -1036h-213l-225 733l-70 246l-69 -246l-226 -733h-219l-346 1036h150l239 -755l70 -242l67 242l232 755h207l229 -755l68 -238z" />
    <glyph glyph-name="x" unicode="x" horiz-adv-x="1196" 
d="M1110 1036l-381 -499l410 -537h-162l-252 340l-125 178l-129 -178l-256 -340h-156l416 543l-377 493h160l227 -297l117 -161l123 159l227 299h158z" />
    <glyph glyph-name="y" unicode="y" horiz-adv-x="1089" 
d="M627 281l291 755h137l-473 -1220q-84 -215 -279 -215q-98 0 -158 16v100h131q75 0 113 26q37 25 66 97l61 160h-82l-401 1036h143l291 -755l80 -224z" />
    <glyph glyph-name="z" unicode="z" horiz-adv-x="1019" 
d="M154 113l217 4h567v-117h-836v221l781 703l-221 -4h-549v116h815v-227z" />
    <glyph glyph-name="braceleft" unicode="{" horiz-adv-x="761" 
d="M481 1286v-489q0 -213 -245 -213q123 0 184.5 -53.5t60.5 -159.5v-490q0 -109 28 -137q29 -27 138 -27h105v-96q-98 -20 -166 -20q-137 0 -189 49q-53 50 -53 176v536q0 95 -37 129q-38 35 -135 35h-131v115h131q97 0 135 35q37 34 37 129v536q0 127 53 177q52 49 189 49
q70 0 166 -21v-96h-105q-111 0 -138 -27q-28 -28 -28 -137z" />
    <glyph glyph-name="bar" unicode="|" horiz-adv-x="659" 
d="M262 -383v1929h133v-1929h-133z" />
    <glyph glyph-name="braceright" unicode="}" horiz-adv-x="761" 
d="M608 641h131v-115h-131q-99 0 -134 -34q-36 -34 -36 -130v-536q0 -126 -53 -176q-52 -49 -190 -49q-68 0 -166 20v96h104q111 0 139 28q27 29 27 136v490q0 213 246 213q-246 0 -246 213v489q0 108 -27 137q-28 27 -139 27h-104v96q96 20 166 21q138 0 190 -49
q53 -50 53 -177v-536q0 -95 36 -129q37 -35 134 -35z" />
    <glyph glyph-name="asciitilde" unicode="~" horiz-adv-x="1122" 
d="M215 436h-113q0 113 73 192t183 79q84 0 152 -44q65 -43 128 -89q61 -44 124 -44q68 0 107 47q38 47 38 107h113q0 -114 -73 -191q-73 -79 -185 -79q-81 0 -149 44q-60 38 -128 88q-62 44 -127 44q-68 0 -105 -46q-38 -47 -38 -108z" />
    <glyph glyph-name="exclamdown" unicode="&#xa1;" horiz-adv-x="561" 
d="M385 1036v-200h-201v200h201zM354 -389h-139v321l29 699h82l28 -699v-321z" />
    <glyph glyph-name="cent" unicode="&#xa2;" horiz-adv-x="1222" 
d="M942 535h141q0 -155 -105 -252q-107 -100 -284 -113v-139h-106v139q-201 18 -322 166q-121 146 -121 377q0 229 121 377q122 147 322 165v148h106v-148q177 -17 281 -121q104 -107 104 -270h-143q0 256 -242 277v-856q127 8 187.5 69.5t60.5 180.5zM291 713
q0 -397 297 -428v856q-152 -14 -224.5 -119t-72.5 -309z" />
    <glyph glyph-name="sterling" unicode="&#xa3;" horiz-adv-x="1218" 
d="M113 115l301 6h708v-121h-1063v199q119 44 177 103q57 60 57 173q0 75 -27 148h-215v108h170q-59 136 -59 244q0 215 135 347t358 132q209 0 337 -120t128 -316h-147q0 158 -78 232.5t-242 74.5q-178 0 -263 -85t-85 -261q0 -113 55 -248h551v-108h-510q23 -80 23 -140
q0 -122 -79 -222q-80 -101 -232 -146z" />
    <glyph glyph-name="currency" unicode="&#xa4;" horiz-adv-x="1409" 
d="M1284 1227l-172 -172q102 -137 102 -336t-102 -336l170 -172l-72 -72l-168 168q-137 -116 -337 -114q-204 0 -338 116l-168 -170l-72 72l170 172q-102 137 -102 336t102 336l-172 172l72 71l170 -170q133 117 338 117q203 0 337 -117l170 170zM424 422q107 -113 281 -113
t281 113q106 112 106 297t-106 297t-281 112t-281 -112q-107 -113 -107 -297t107 -297z" />
    <glyph glyph-name="yen" unicode="&#xa5;" horiz-adv-x="1288" 
d="M1122 1425h144l-488 -845h359v-97h-414l-4 -6v-176h418v-96h-418v-205h-146v205h-419v96h419v176l-4 6h-415v97h360l-489 845h155l346 -596l125 -239l125 239z" />
    <glyph glyph-name="brokenbar" unicode="&#xa6;" horiz-adv-x="659" 
d="M395 791h-133v755h133v-755zM395 -383h-133v760h133v-760z" />
    <glyph glyph-name="section" unicode="&#xa7;" horiz-adv-x="1400" 
d="M748 778q283 -55 400 -150q116 -96 116 -255v-373q0 -181 -148 -290t-393 -109q-263 0 -423 130q-161 131 -161 343h150q0 -174 106.5 -258t329.5 -84q395 0 395 254q-2 74 -33 123t-138 96q-108 47 -302 86q-279 55 -393 141q-115 85 -115 236v372q0 186 149 299
t392 113q249 0 400 -133t151 -352h-150q0 182 -99 269t-304 87q-395 0 -395 -262q0 -72 34 -118q33 -47 136 -87q102 -41 295 -78zM748 406q284 -57 403 -154v94q-2 79 -36 128q-35 50 -147 101q-116 50 -321 89q-277 56 -395 141v-105q0 -74 36 -122t146 -90
q108 -43 314 -82z" />
    <glyph glyph-name="dieresis" unicode="&#xa8;" horiz-adv-x="684" 
d="M92 1296v187h176v-187h-176zM418 1296v187h174v-187h-174z" />
    <glyph glyph-name="copyright" unicode="&#xa9;" horiz-adv-x="1667" 
d="M1373 176q-205 -203 -539 -203q-335 0 -540 203q-204 202 -204 537t204 537q203 202 540 202q336 0 539 -202q204 -202 204 -537t-204 -537zM380 253q172 -175 454 -175q281 0 453 175q173 176 173 460t-173 460q-172 175 -453 175q-282 0 -454 -175q-173 -176 -173 -460
t173 -460zM1061 586h119q0 -123 -91 -198t-243 -75q-166 0 -267 110q-102 110 -102 290q0 181 102 290q100 109 267 109q146 0 238 -80q90 -79 90 -211h-115q0 197 -213 197q-248 0 -248 -305q0 -303 248 -303q113 0 164 42t51 134z" />
    <glyph glyph-name="ordfeminine" unicode="&#xaa;" horiz-adv-x="886" 
d="M774 694h17v-63q-53 -10 -97 -10q-64 0 -91.5 33.5t-27.5 113.5v20q-27 -81 -96.5 -127.5t-169.5 -46.5q-96 0 -154.5 44t-58.5 116q0 68 46.5 109.5t156.5 62.5q251 57 272 64v24q0 103 -39.5 150t-128.5 47q-170 0 -170 -180h-114q0 120 79 193q77 73 205 73
q133 0 207 -68.5t74 -191.5v-260q0 -69 16 -85q15 -18 74 -18zM330 694q112 0 176.5 57t64.5 160v35q-71 -19 -239 -57q-65 -15 -91 -40t-26 -67q0 -88 115 -88z" />
    <glyph glyph-name="guillemotleft" unicode="&#xab;" horiz-adv-x="966" 
d="M354 907h154l-375 -379l375 -378h-154l-303 307v145zM774 907h154l-375 -379l375 -378h-154l-303 307v145z" />
    <glyph glyph-name="logicalnot" unicode="&#xac;" horiz-adv-x="1015" 
d="M102 600h811v-389h-114v276h-697v113z" />
    <glyph glyph-name="registered" unicode="&#xae;" horiz-adv-x="987" 
d="M191 1339q115 113 303 113q187 0 303 -113q114 -114 114 -300q0 -187 -114 -300q-115 -114 -303 -114q-189 0 -303 114q-115 112 -115 300q0 186 115 300zM494 702q150 0 241 93q90 91 90 244q0 152 -91 244q-92 93 -240 93q-152 0 -243 -93q-91 -92 -91 -244
q0 -153 91 -244q91 -93 243 -93zM590 1008l24 -31l91 -127h-82l-107 151h-100v-151h-76v385h211q53 0 87 -33t34 -84q0 -88 -82 -110zM510 1178h-94v-119h94q84 0 84 60q0 59 -84 59z" />
    <glyph glyph-name="overscore" unicode="&#xaf;" horiz-adv-x="743" 
d="M92 1452h559v-113h-559v113z" />
    <glyph glyph-name="degree" unicode="&#xb0;" horiz-adv-x="802" 
d="M635 901q-88 -88 -233 -88q-146 0 -234 88t-88 232q0 143 88 231t234 88q145 0 233 -88t88 -231q0 -144 -88 -232zM244 972q58 -61 158 -61q99 0 157 61q59 61 59 161t-59 162q-58 61 -157 61q-100 0 -158 -61q-60 -61 -60 -162t60 -161z" />
    <glyph glyph-name="plusminus" unicode="&#xb1;" horiz-adv-x="976" 
d="M545 956v-266h329v-110h-329v-265h-115v265h-328v110h328v266h115zM874 86h-772v113h772v-113z" />
    <glyph glyph-name="uni00B2" unicode="&#xb2;" horiz-adv-x="706" 
d="M129 973l156 4h352v-98h-555v172l313 186q61 37 82 64q21 25 21 73q0 119 -136 119q-75 0 -112.5 -37t-36.5 -110h-129q0 114 78 181q79 68 200 68q116 0 189 -59q72 -58 72 -158q0 -70 -39 -118q-40 -49 -138 -101l-235 -141z" />
    <glyph glyph-name="uni00B3" unicode="&#xb3;" horiz-adv-x="722" 
d="M438 1241q197 -17 197 -180q0 -89 -80 -145t-209 -56q-127 0 -203 64q-77 63 -77 168h127q0 -129 155 -129q160 0 160 108q0 55 -32 80t-103 25h-133v92h110q129 0 129 100q0 125 -137 125q-141 0 -141 -137h-127q0 110 73 174q73 65 193 65q119 0 192 -55
q72 -56 72 -145q0 -62 -43 -103t-123 -51z" />
    <glyph glyph-name="acute" unicode="&#xb4;" horiz-adv-x="440" 
d="M100 1235l131 311h166l-184 -311h-113z" />
    <glyph glyph-name="paragraph" unicode="&#xb6;" horiz-adv-x="1456" 
d="M475 1425h885v-120h-238v-1688h-145v1688h-252v-1688h-145v1040h-103q-197 0 -315 106q-119 105 -119 279q0 171 119 278q118 105 313 105z" />
    <glyph glyph-name="middot" unicode="&#xb7;" horiz-adv-x="464" 
d="M131 442v201h201v-201h-201z" />
    <glyph glyph-name="cedilla" unicode="&#xb8;" horiz-adv-x="512" 
d="M201 -129h67q78 0 125 -40.5t47 -106.5q0 -69 -51 -111.5t-133 -42.5h-164v88h148q82 0 82 67q0 68 -82 68h-129v70l51 137h80z" />
    <glyph glyph-name="uni00B9" unicode="&#xb9;" horiz-adv-x="471" 
d="M143 1573h230v-694h-123v522l4 141l-55 -53l-179 -156v131z" />
    <glyph glyph-name="ordmasculine" unicode="&#xba;" horiz-adv-x="854" 
d="M669 711q-91 -97 -240 -97q-150 0 -241 97q-92 97 -92 254t92 255q91 97 241 97q149 0 240 -97t91 -255q0 -159 -91 -254zM428 705q213 0 213 260q0 262 -213 262q-215 0 -215 -262q0 -260 215 -260z" />
    <glyph glyph-name="guillemotright" unicode="&#xbb;" horiz-adv-x="966" 
d="M496 602v-145l-303 -307h-154l375 378l-375 379h154zM459 907h153l303 -305v-145l-303 -307h-153l375 378z" />
    <glyph glyph-name="onequarter" unicode="&#xbc;" horiz-adv-x="1458" 
d="M88 0l1157 1434h127l-1159 -1434h-125zM401 1276l5 119l-46 -41l-155 -137v122l98 86h209v-600h-111v451zM1012 600h178v-381h104v-88h-104v-131h-105v131h-284v180zM827 215l95 4h163v215l5 139z" />
    <glyph glyph-name="onehalf" unicode="&#xbd;" horiz-adv-x="1458" 
d="M88 0l1157 1434h127l-1159 -1434h-125zM414 1276l4 119l-43 -41l-158 -137v122l98 86h209v-600h-110v451zM965 125l-78 -43l141 4h305v-86h-481v152l270 163q53 32 71 54q17 23 17 65q0 102 -114 103q-131 0 -131 -127h-111q0 98 67 158q67 59 175 59q101 0 163 -52
q62 -53 62 -137q0 -62 -34 -102q-35 -40 -120 -90z" />
    <glyph glyph-name="threequarters" unicode="&#xbe;" horiz-adv-x="1458" 
d="M367 903q139 0 139 92q0 49 -27.5 70.5t-91.5 21.5h-115v80h97q56 0 84.5 22t27.5 66q0 105 -119 107q-61 0 -92 -30t-30 -89h-111q0 96 62.5 152.5t168.5 56.5q102 0 166 -48t64 -126q0 -111 -139 -133q83 -8 124.5 -47.5t40.5 -110.5q0 -78 -69 -126q-71 -48 -182 -48
q-110 0 -177 56q-67 55 -67 145h110q0 -57 32.5 -84t103.5 -27zM88 0l1157 1434h127l-1159 -1434h-125zM997 600h179v-381h104v-88h-104v-131h-107v131h-285v180zM811 215l94 4h164v215l6 141z" />
    <glyph glyph-name="questiondown" unicode="&#xbf;" horiz-adv-x="1034" 
d="M475 1044h201v-200h-201v200zM870 25h134q0 -196 -121 -314q-122 -119 -322 -119q-196 0 -315 107q-119 108 -119 285q0 133 82.5 226t232.5 128l78 16l15 291h79l19 -366l-148 -29q-120 -23 -172.5 -85t-52.5 -179q0 -145 71.5 -212t227.5 -67q162 0 236.5 76t74.5 242z
" />
    <glyph glyph-name="Agrave" unicode="&#xc0;" horiz-adv-x="1390" 
d="M618 1935l134 -311h-111l-186 311h163zM1341 0h-151l-170 461h-662l-168 -461h-141l516 1425h252zM596 1110l-193 -528h574l-195 528l-94 268z" />
    <glyph glyph-name="Aacute" unicode="&#xc1;" horiz-adv-x="1390" 
d="M770 1935h164l-184 -311h-113zM1341 0h-151l-170 461h-662l-168 -461h-141l516 1425h252zM596 1110l-193 -528h574l-195 528l-94 268z" />
    <glyph glyph-name="Acircumflex" unicode="&#xc2;" horiz-adv-x="1390" 
d="M866 1624l-168 264l-168 -264h-137l209 311h193l206 -311h-135zM1341 0h-151l-170 461h-662l-168 -461h-141l516 1425h252zM596 1110l-193 -528h574l-195 528l-94 268z" />
    <glyph glyph-name="Atilde" unicode="&#xc3;" horiz-adv-x="1390" 
d="M539 1786q-109 0 -109 -127h-92q0 108 56 176q56 66 147 66q75 0 163 -66t148 -66q111 0 111 127h90q0 -109 -54 -175q-55 -66 -147 -66q-72 0 -163 66q-92 65 -150 65zM1341 0h-151l-170 461h-662l-168 -461h-141l516 1425h252zM596 1110l-193 -528h574l-195 528
l-94 268z" />
    <glyph glyph-name="Adieresis" unicode="&#xc4;" horiz-adv-x="1390" 
d="M446 1872h177v-186h-177v186zM772 1872h176v-186h-176v186zM1341 0h-151l-170 461h-662l-168 -461h-141l516 1425h252zM596 1110l-193 -528h574l-195 528l-94 268z" />
    <glyph glyph-name="Aring" unicode="&#xc5;" horiz-adv-x="1390" 
d="M696 1618q-80 0 -130 45t-50 117q0 74 49.5 118t130.5 44q82 0 132.5 -44.5t50.5 -117.5q0 -72 -50.5 -117t-132.5 -45zM776 1851q-24 21 -79 21q-57 0 -79 -21q-24 -23 -24 -71q0 -51 23.5 -71.5t79.5 -20.5t79 20.5t23 71.5q0 48 -23 71zM1341 0h-151l-170 461h-662
l-168 -461h-141l516 1425h252zM596 1110l-193 -528h574l-195 528l-94 268z" />
    <glyph glyph-name="AE" unicode="&#xc6;" horiz-adv-x="1992" 
d="M1100 659l196 -538h521v-121h-627l-170 461h-662l-168 -461h-141l516 1425h1237v-120h-940l191 -523h708v-123h-661zM596 1110l-193 -528h574l-195 528l-94 268z" />
    <glyph glyph-name="Ccedilla" unicode="&#xc7;" horiz-adv-x="1552" 
d="M827 102q228 0 338.5 90.5t110.5 276.5h149q0 -227 -163 -359q-162 -132 -416 -137l-33 -102h68q78 0 125 -40.5t47 -106.5q0 -69 -51.5 -111.5t-133.5 -42.5h-163v88h147q82 0 82 67q0 68 -82 68h-129v70l43 112q-281 23 -448 223q-168 200 -168 515q0 335 186 537
t491 202q255 0 427 -140q171 -141 171 -378h-149q0 199 -109.5 294t-339.5 95q-266 0 -396 -150.5t-130 -459.5q0 -310 130 -460.5t396 -150.5z" />
    <glyph glyph-name="Egrave" unicode="&#xc8;" horiz-adv-x="1351" 
d="M625 1935l133 -311h-111l-186 311h164zM408 659v-538h766v-121h-912v1425h897v-120h-751v-523h710v-123h-710z" />
    <glyph glyph-name="Eacute" unicode="&#xc9;" horiz-adv-x="1351" 
d="M776 1935h164l-184 -311h-113zM408 659v-538h766v-121h-912v1425h897v-120h-751v-523h710v-123h-710z" />
    <glyph glyph-name="Ecircumflex" unicode="&#xca;" horiz-adv-x="1351" 
d="M872 1624l-167 264l-168 -264h-138l209 311h193l207 -311h-136zM408 659v-538h766v-121h-912v1425h897v-120h-751v-523h710v-123h-710z" />
    <glyph glyph-name="Edieresis" unicode="&#xcb;" horiz-adv-x="1351" 
d="M451 1872h176v-186h-176v186zM776 1872h176v-186h-176v186zM408 659v-538h766v-121h-912v1425h897v-120h-751v-523h710v-123h-710z" />
    <glyph glyph-name="Igrave" unicode="&#xcc;" horiz-adv-x="671" 
d="M94 1935h164l133 -311h-110zM262 0v1425h146v-1425h-146z" />
    <glyph glyph-name="Iacute" unicode="&#xcd;" horiz-adv-x="671" 
d="M276 1624l134 311h163l-184 -311h-113zM262 0v1425h146v-1425h-146z" />
    <glyph glyph-name="Icircumflex" unicode="&#xce;" horiz-adv-x="671" 
d="M242 1935h192l207 -311h-135l-168 264l-168 -264h-137zM408 0h-146v1425h146v-1425z" />
    <glyph glyph-name="Idieresis" unicode="&#xcf;" horiz-adv-x="671" 
d="M86 1686v186h176v-186h-176zM412 1686v186h176v-186h-176zM262 0v1425h146v-1425h-146z" />
    <glyph glyph-name="Eth" unicode="&#xd0;" horiz-adv-x="1622" 
d="M262 1425h547q299 0 482 -195q182 -197 182 -517q0 -321 -182 -517q-183 -196 -482 -196h-547v651h-235v121h235v653zM408 121h387q260 0 393 150.5t133 441.5t-133 441.5t-393 150.5h-387v-533h387v-121h-387v-530z" />
    <glyph glyph-name="Ntilde" unicode="&#xd1;" horiz-adv-x="1660" 
d="M682 1786q-109 0 -109 -127h-92q0 108 56 176q55 66 147 66q74 0 163 -66q88 -66 148 -66q111 0 111 127h90q0 -109 -54 -175q-56 -66 -147 -66q-75 0 -163 66q-89 65 -150 65zM1251 440v985h146v-1425h-246l-752 1358l9 -318v-1040h-146v1425h252l748 -1349z" />
    <glyph glyph-name="Ograve" unicode="&#xd2;" horiz-adv-x="1669" 
d="M598 1944h164l133 -312h-111zM838 -27q-309 0 -498 203q-190 202 -190 537t189 537t499 202q306 0 493 -202t187 -537t-187 -537q-188 -203 -493 -203zM838 102q530 0 530 611q0 610 -530 610q-271 0 -404 -151t-133 -459q0 -611 537 -611z" />
    <glyph glyph-name="Oacute" unicode="&#xd3;" horiz-adv-x="1669" 
d="M778 1632l133 312h164l-184 -312h-113zM838 -27q-309 0 -498 203q-190 202 -190 537t189 537t499 202q306 0 493 -202t187 -537t-187 -537q-188 -203 -493 -203zM838 102q530 0 530 611q0 610 -530 610q-271 0 -404 -151t-133 -459q0 -611 537 -611z" />
    <glyph glyph-name="Ocircumflex" unicode="&#xd4;" horiz-adv-x="1669" 
d="M1010 1632l-168 264l-168 -264h-137l208 312h193l207 -312h-135zM838 1452q306 0 493 -202t187 -537t-187 -537q-188 -203 -493 -203q-309 0 -498 203q-190 202 -190 537t190 537q189 202 498 202zM838 102q530 0 530 611q0 610 -530 610q-271 0 -404 -151t-133 -459
q0 -611 537 -611z" />
    <glyph glyph-name="Otilde" unicode="&#xd5;" horiz-adv-x="1669" 
d="M993 1663q-75 0 -163 66q-89 65 -150 65q-109 0 -109 -127h-92q0 108 56 176q55 66 147 66q74 0 163 -65q89 -66 148 -66q111 0 111 127h90q0 -109 -54 -175q-55 -67 -147 -67zM838 -27q-309 0 -498 203q-190 202 -190 537t189 537t499 202q306 0 493 -202t187 -537
t-187 -537q-188 -203 -493 -203zM838 102q530 0 530 611q0 610 -530 610q-271 0 -404 -151t-133 -459q0 -611 537 -611z" />
    <glyph glyph-name="Odieresis" unicode="&#xd6;" horiz-adv-x="1669" 
d="M588 1694v186h176v-186h-176zM913 1694v186h177v-186h-177zM838 -27q-309 0 -498 203q-190 202 -190 537t189 537t499 202q306 0 493 -202t187 -537t-187 -537q-188 -203 -493 -203zM838 102q530 0 530 611q0 610 -530 610q-271 0 -404 -151t-133 -459q0 -611 537 -611z
" />
    <glyph glyph-name="multiply" unicode="&#xd7;" horiz-adv-x="890" 
d="M721 883l76 -76l-275 -275l275 -276l-76 -76l-275 277l-276 -277l-76 76l277 276l-275 275l74 76l276 -275z" />
    <glyph glyph-name="Oslash" unicode="&#xd8;" horiz-adv-x="1669" 
d="M1497 1546l-190 -272q211 -205 211 -561q0 -335 -187 -537q-188 -203 -493 -203q-212 0 -373 101l-143 -205h-152l197 281q-217 205 -217 563q0 335 189 537t499 202q212 0 370 -100l135 194h154zM435 1173q-134 -152 -134 -460q0 -310 135 -463l703 1003
q-118 70 -301 70q-270 0 -403 -150zM838 102q530 0 530 611q0 310 -133 461l-700 -1002q118 -70 303 -70z" />
    <glyph glyph-name="Ugrave" unicode="&#xd9;" horiz-adv-x="1585" 
d="M551 1935h164l133 -311h-111zM229 487v938h144v-931q0 -199 103.5 -295.5t316.5 -96.5t316 96.5t103 295.5v931h146v-938q0 -231 -155 -372q-155 -142 -410 -142t-409 142q-155 141 -155 372z" />
    <glyph glyph-name="Uacute" unicode="&#xda;" horiz-adv-x="1585" 
d="M733 1624l133 311h164l-184 -311h-113zM229 487v938h144v-931q0 -199 103.5 -295.5t316.5 -96.5t316 96.5t103 295.5v931h146v-938q0 -231 -155 -372q-155 -142 -410 -142t-409 142q-155 141 -155 372z" />
    <glyph glyph-name="Ucircumflex" unicode="&#xdb;" horiz-adv-x="1585" 
d="M963 1624l-168 264l-168 -264h-138l209 311h193l207 -311h-135zM1212 494v931h146v-938q0 -231 -155 -372q-155 -142 -410 -142t-409 142q-155 141 -155 372v938h144v-931q0 -199 103.5 -295.5t316.5 -96.5t316 96.5t103 295.5z" />
    <glyph glyph-name="Udieresis" unicode="&#xdc;" horiz-adv-x="1585" 
d="M541 1686v186h176v-186h-176zM866 1686v186h176v-186h-176zM229 487v938h144v-931q0 -199 103.5 -295.5t316.5 -96.5t316 96.5t103 295.5v931h146v-938q0 -231 -155 -372q-155 -142 -410 -142t-409 142q-155 141 -155 372z" />
    <glyph glyph-name="Yacute" unicode="&#xdd;" horiz-adv-x="1288" 
d="M719 1935h164l-185 -311h-112zM776 829l346 596h144l-547 -948v-477h-146v477l-548 948h155l346 -596l125 -239z" />
    <glyph glyph-name="Thorn" unicode="&#xde;" horiz-adv-x="1372" 
d="M408 1126h421q195 0 315 -111q120 -113 120 -294t-128 -294q-127 -112 -339 -112h-389v-315h-146v1425h146v-299zM408 436h403q158 0 229.5 68.5t71.5 216.5q0 147 -71.5 215t-229.5 68h-403v-568z" />
    <glyph glyph-name="germandbls" unicode="&#xdf;" horiz-adv-x="1409" 
d="M1026 590q215 -52 293 -128q76 -75 76 -202q0 -128 -107 -208q-107 -79 -282 -79q-193 0 -310 99q-118 97 -118 260h141q0 -129 69.5 -189.5t219.5 -60.5q250 0 249 168q0 96 -50 141q-49 44 -230 88q-332 78 -332 256q0 94 59 158t193 121q126 52 166 93q41 43 41 116
q0 117 -88 172t-277 55q-199 0 -293 -70.5t-94 -222.5v-1157h-137v1176q0 176 145 284q145 107 379 107q228 0 367 -94t139 -248q0 -98 -60 -165.5t-194 -125.5q-132 -56 -170 -91q-39 -36 -39 -95q0 -57 50 -90q51 -34 194 -68z" />
    <glyph glyph-name="agrave" unicode="&#xe0;" horiz-adv-x="1183" 
d="M510 1546l133 -311h-111l-186 311h164zM1118 96h27v-96q-60 -16 -121 -16q-93 0 -133.5 53t-40.5 176v27q-46 -125 -153 -196t-259 -71q-138 0 -224 68q-85 67 -85 180q0 103 69 169t224 97q367 80 424 99v39q0 171 -66 251t-207 80q-143 0 -210.5 -74.5t-67.5 -230.5
h-137q0 187 114 299q113 113 301 113q192 0 301 -107q107 -109 107 -297v-403q0 -106 24 -133q23 -27 113 -27zM469 86q171 0 274 90t103 258v68q-16 -5 -373 -90q-109 -27 -154 -68.5t-45 -110.5q0 -147 195 -147z" />
    <glyph glyph-name="aacute" unicode="&#xe1;" horiz-adv-x="1183" 
d="M657 1546h166l-184 -311h-113zM1118 96h27v-96q-60 -16 -121 -16q-93 0 -133.5 53t-40.5 176v27q-46 -125 -153 -196t-259 -71q-138 0 -224 68q-85 67 -85 180q0 103 69 169t224 97q367 80 424 99v39q0 171 -66 251t-207 80q-143 0 -210.5 -74.5t-67.5 -230.5h-137
q0 187 114 299q113 113 301 113q192 0 301 -107q107 -109 107 -297v-403q0 -106 24 -133q23 -27 113 -27zM469 86q171 0 274 90t103 258v68q-16 -5 -373 -90q-109 -27 -154 -68.5t-45 -110.5q0 -147 195 -147z" />
    <glyph glyph-name="acircumflex" unicode="&#xe2;" horiz-adv-x="1183" 
d="M758 1235l-168 264l-168 -264h-137l209 311h192l207 -311h-135zM1118 96h27v-96q-60 -16 -121 -16q-93 0 -133.5 53t-40.5 176v27q-46 -125 -153 -196t-259 -71q-138 0 -224 68q-85 67 -85 180q0 103 69 169t224 97q367 80 424 99v39q0 171 -66 251t-207 80
q-143 0 -210.5 -74.5t-67.5 -230.5h-137q0 187 114 299q113 113 301 113q192 0 301 -107q107 -109 107 -297v-403q0 -106 24 -133q23 -27 113 -27zM469 86q171 0 274 90t103 258v68q-16 -5 -373 -90q-109 -27 -154 -68.5t-45 -110.5q0 -147 195 -147z" />
    <glyph glyph-name="atilde" unicode="&#xe3;" horiz-adv-x="1183" 
d="M428 1397q-109 0 -109 -127h-92q0 108 56 175q55 66 147 66q74 0 163 -65q89 -66 148 -66q111 0 111 127h90q0 -109 -54.5 -175t-146.5 -66q-74 0 -164 66q-91 65 -149 65zM1118 96h27v-96q-60 -16 -121 -16q-93 0 -133.5 53t-40.5 176v27q-46 -125 -153 -196t-259 -71
q-138 0 -224 68q-85 67 -85 180q0 103 69 169t224 97q367 80 424 99v39q0 171 -66 251t-207 80q-143 0 -210.5 -74.5t-67.5 -230.5h-137q0 187 114 299q113 113 301 113q192 0 301 -107q107 -109 107 -297v-403q0 -106 24 -133q23 -27 113 -27zM469 86q171 0 274 90t103 258
v68q-16 -5 -373 -90q-109 -27 -154 -68.5t-45 -110.5q0 -147 195 -147z" />
    <glyph glyph-name="adieresis" unicode="&#xe4;" horiz-adv-x="1183" 
d="M336 1483h176v-187h-176v187zM662 1483h176v-187h-176v187zM1118 96h27v-96q-60 -16 -121 -16q-93 0 -133.5 53t-40.5 176v27q-46 -125 -153 -196t-259 -71q-138 0 -224 68q-85 67 -85 180q0 103 69 169t224 97q367 80 424 99v39q0 171 -66 251t-207 80
q-143 0 -210.5 -74.5t-67.5 -230.5h-137q0 187 114 299q113 113 301 113q192 0 301 -107q107 -109 107 -297v-403q0 -106 24 -133q23 -27 113 -27zM469 86q171 0 274 90t103 258v68q-16 -5 -373 -90q-109 -27 -154 -68.5t-45 -110.5q0 -147 195 -147z" />
    <glyph glyph-name="aring" unicode="&#xe5;" horiz-adv-x="1183" 
d="M586 1229q-80 0 -130 45t-50 117q0 74 49.5 117.5t130.5 43.5q82 0 132 -44t50 -117q0 -72 -50 -117t-132 -45zM665 1462q-24 21 -79 21q-56 0 -79 -21q-24 -22 -24 -71q0 -51 23.5 -72t79.5 -21t79 21t23 72q0 48 -23 71zM1118 96h27v-96q-60 -16 -121 -16
q-93 0 -133.5 53t-40.5 176v27q-46 -125 -153 -196t-259 -71q-138 0 -224 68q-85 67 -85 180q0 103 69 169t224 97q367 80 424 99v39q0 171 -66 251t-207 80q-143 0 -210.5 -74.5t-67.5 -230.5h-137q0 187 114 299q113 113 301 113q192 0 301 -107q107 -109 107 -297v-403
q0 -106 24 -133q23 -27 113 -27zM469 86q171 0 274 90t103 258v68q-16 -5 -373 -90q-109 -27 -154 -68.5t-45 -110.5q0 -147 195 -147z" />
    <glyph glyph-name="ae" unicode="&#xe6;" horiz-adv-x="1953" 
d="M1812 584v-99h-813q6 -203 91.5 -300t257.5 -97q164 0 239.5 56.5t75.5 177.5h143q0 -156 -126 -252q-125 -97 -332 -97q-171 0 -289 91q-119 90 -164 251q-28 -152 -145 -248q-116 -94 -299 -94q-144 0 -233 68t-89 180q0 102 72 167.5t233 98.5q367 80 424 99v39
q0 166 -68 249t-204 82q-279 0 -279 -305h-137q0 187 114 299q113 113 302 113q272 0 360 -223q130 223 402 223q210 0 337 -132q127 -131 127 -347zM1001 582l277 4h393q-4 185 -83.5 273.5t-239.5 88.5q-164 0 -249.5 -90t-97.5 -276zM481 86q172 0 275 90q102 90 102 258
v68q-56 -17 -373 -90q-115 -27 -163 -68.5t-48 -110.5q0 -147 207 -147z" />
    <glyph glyph-name="ccedilla" unicode="&#xe7;" horiz-adv-x="1222" 
d="M942 340h141q0 -158 -110 -257q-112 -100 -295 -110l-33 -102h68q78 0 125 -40.5t47 -106.5q0 -69 -51.5 -111.5t-133.5 -42.5h-163v88h147q82 0 82 67q0 68 -82 68h-129v70l41 112q-205 16 -328 163t-123 380q0 245 137 396q137 149 359 149q197 0 318 -108
q120 -109 120 -285h-143q0 143 -71.5 210.5t-223.5 67.5q-180 0 -265 -105t-85 -325q0 -219 86 -324.5t264 -105.5q156 0 228.5 60.5t72.5 191.5z" />
    <glyph glyph-name="egrave" unicode="&#xe8;" horiz-adv-x="1247" 
d="M563 1546l133 -311h-110l-187 311h164zM1104 584v-99h-813q6 -202 92 -299.5t260 -97.5q313 0 313 234h142q0 -153 -127 -250q-127 -99 -328 -99q-225 0 -361 150q-137 149 -137 395q0 247 136 396q135 149 358 149q209 0 337 -132q128 -133 128 -347zM293 582l276 4h396
q-6 185 -86 273.5t-240 88.5q-164 0 -249 -90t-97 -276z" />
    <glyph glyph-name="eacute" unicode="&#xe9;" horiz-adv-x="1247" 
d="M713 1546h166l-185 -311h-112zM1104 584v-99h-813q6 -202 92 -299.5t260 -97.5q313 0 313 234h142q0 -153 -127 -250q-127 -99 -328 -99q-225 0 -361 150q-137 149 -137 395q0 247 136 396q135 149 358 149q209 0 337 -132q128 -133 128 -347zM293 582l276 4h396
q-6 185 -86 273.5t-240 88.5q-164 0 -249 -90t-97 -276z" />
    <glyph glyph-name="ecircumflex" unicode="&#xea;" horiz-adv-x="1247" 
d="M813 1235l-168 264l-168 -264h-137l209 311h192l207 -311h-135zM1104 584v-99h-813q6 -202 92 -299.5t260 -97.5q313 0 313 234h142q0 -153 -127 -250q-127 -99 -328 -99q-225 0 -361 150q-137 149 -137 395q0 247 136 396q135 149 358 149q209 0 337 -132
q128 -133 128 -347zM293 582l276 4h396q-6 185 -86 273.5t-240 88.5q-164 0 -249 -90t-97 -276z" />
    <glyph glyph-name="edieresis" unicode="&#xeb;" horiz-adv-x="1247" 
d="M391 1483h176v-187h-176v187zM717 1483h176v-187h-176v187zM1104 584v-99h-813q6 -202 92 -299.5t260 -97.5q313 0 313 234h142q0 -153 -127 -250q-127 -99 -328 -99q-225 0 -361 150q-137 149 -137 395q0 247 136 396q135 149 358 149q209 0 337 -132q128 -133 128 -347
zM293 582l276 4h396q-6 185 -86 273.5t-240 88.5q-164 0 -249 -90t-97 -276z" />
    <glyph glyph-name="igrave" unicode="&#xec;" horiz-adv-x="557" 
d="M43 1546h164l133 -311h-111zM215 0v1036h137v-1036h-137z" />
    <glyph glyph-name="iacute" unicode="&#xed;" horiz-adv-x="557" 
d="M223 1235l131 311h166l-184 -311h-113zM215 0v1036h137v-1036h-137z" />
    <glyph glyph-name="icircumflex" unicode="&#xee;" horiz-adv-x="557" 
d="M190 1546h193l207 -311h-135l-168 264l-168 -264h-137zM352 0h-137v1036h137v-1036z" />
    <glyph glyph-name="idieresis" unicode="&#xef;" horiz-adv-x="557" 
d="M33 1296v187h176v-187h-176zM358 1296v187h177v-187h-177zM215 0v1036h137v-1036h-137z" />
    <glyph glyph-name="eth" unicode="&#xf0;" horiz-adv-x="1257" 
d="M1016 1546l-193 -180q316 -219 318 -680q0 -330 -135 -521q-136 -192 -371 -192q-219 0 -354 145q-136 143 -136 380q0 229 127 368q128 138 334 138q147 0 252 -78t141 -207q-1 223 -60 354t-196 207l-176 -162h-139l223 207q-67 24 -110 35l-301 82v131l266 -68
q132 -34 231 -88l140 129h139zM635 96q342 0 342 404q0 385 -338 385q-176 0 -262 -95.5t-86 -291.5q0 -402 344 -402z" />
    <glyph glyph-name="ntilde" unicode="&#xf1;" horiz-adv-x="1327" 
d="M537 1397q-109 0 -109 -127h-92q0 110 55 175q55 66 148 66q74 0 163 -65q89 -66 148 -66q111 0 111 127h90q0 -109 -54 -175q-55 -66 -147 -66q-72 0 -162 66q-91 65 -151 65zM737 1063q172 0 279 -107q106 -107 106 -282v-674h-139v616q0 177 -65 253q-66 75 -222 75
q-160 0 -252 -90t-92 -252v-602h-137v1036h133v-219q112 246 389 246z" />
    <glyph glyph-name="ograve" unicode="&#xf2;" horiz-adv-x="1292" 
d="M403 1546h164l133 -311h-110zM1009 123q-140 -150 -364 -150q-225 0 -362 150q-138 149 -138 395t138 396q137 149 362 149q224 0 364 -149q138 -150 138 -396t-138 -395zM645 88q180 0 268 105.5t88 324.5t-87 324.5t-269 105.5q-180 0 -267 -105.5t-87 -324.5
q0 -430 354 -430z" />
    <glyph glyph-name="oacute" unicode="&#xf3;" horiz-adv-x="1292" 
d="M586 1235l131 311h166l-185 -311h-112zM1009 123q-140 -150 -364 -150q-225 0 -362 150q-138 149 -138 395t138 396q137 149 362 149q224 0 364 -149q138 -150 138 -396t-138 -395zM645 88q180 0 268 105.5t88 324.5t-87 324.5t-269 105.5q-180 0 -267 -105.5t-87 -324.5
q0 -430 354 -430z" />
    <glyph glyph-name="ocircumflex" unicode="&#xf4;" horiz-adv-x="1292" 
d="M817 1235l-168 264l-168 -264h-137l209 311h192l207 -311h-135zM283 914q137 149 362 149q224 0 364 -149q138 -150 138 -396t-138 -395q-140 -150 -364 -150q-225 0 -362 150q-138 149 -138 395t138 396zM645 88q180 0 268 105.5t88 324.5t-87 324.5t-269 105.5
q-180 0 -267 -105.5t-87 -324.5q0 -430 354 -430z" />
    <glyph glyph-name="otilde" unicode="&#xf5;" horiz-adv-x="1292" 
d="M801 1266q-72 0 -162 66q-91 65 -152 65q-109 0 -108 -127h-92q0 110 55 175q56 66 147 66q74 0 163 -65q88 -66 149 -66q111 0 110 127h90q0 -109 -54 -175t-146 -66zM1009 123q-140 -150 -364 -150q-225 0 -362 150q-138 149 -138 395t138 396q137 149 362 149
q224 0 364 -149q138 -150 138 -396t-138 -395zM645 88q180 0 268 105.5t88 324.5t-87 324.5t-269 105.5q-180 0 -267 -105.5t-87 -324.5q0 -430 354 -430z" />
    <glyph glyph-name="odieresis" unicode="&#xf6;" horiz-adv-x="1292" 
d="M395 1296v187h176v-187h-176zM721 1296v187h176v-187h-176zM1009 123q-140 -150 -364 -150q-225 0 -362 150q-138 149 -138 395t138 396q137 149 362 149q224 0 364 -149q138 -150 138 -396t-138 -395zM645 88q180 0 268 105.5t88 324.5t-87 324.5t-269 105.5
q-180 0 -267 -105.5t-87 -324.5q0 -430 354 -430z" />
    <glyph glyph-name="divide" unicode="&#xf7;" horiz-adv-x="1048" 
d="M426 793v200h201v-200h-201zM102 588h844v-113h-844v113zM426 70v200h201v-200h-201z" />
    <glyph glyph-name="oslash" unicode="&#xf8;" horiz-adv-x="1302" 
d="M1081 1188h150l-213 -281q133 -145 133 -389q0 -246 -138 -395q-139 -150 -364 -150q-159 0 -278 78l-148 -194h-149l207 272q-131 151 -131 389q0 245 137 396q137 149 362 149q161 0 279 -78zM295 518q0 -183 61 -287l504 664q-85 53 -211 53q-180 0 -267 -105.5
t-87 -324.5zM1006 518q0 186 -64 289l-502 -666q83 -53 209 -53q180 0 268.5 106t88.5 324z" />
    <glyph glyph-name="ugrave" unicode="&#xf9;" horiz-adv-x="1312" 
d="M573 1546l134 -311h-111l-186 311h163zM963 422v614h137v-1036h-131v209q-111 -236 -389 -236q-166 0 -267 108q-102 107 -102 281v674h137v-616q0 -178 66 -253q64 -75 219 -75q153 0 242 87q88 87 88 243z" />
    <glyph glyph-name="uacute" unicode="&#xfa;" horiz-adv-x="1312" 
d="M723 1546h166l-184 -311h-113zM963 422v614h137v-1036h-131v209q-111 -236 -389 -236q-166 0 -267 108q-102 107 -102 281v674h137v-616q0 -178 66 -253q64 -75 219 -75q153 0 242 87q88 87 88 243z" />
    <glyph glyph-name="ucircumflex" unicode="&#xfb;" horiz-adv-x="1312" 
d="M823 1235l-168 264l-168 -264h-137l209 311h193l206 -311h-135zM963 422v614h137v-1036h-131v209q-111 -236 -389 -236q-166 0 -267 108q-102 107 -102 281v674h137v-616q0 -178 66 -253q64 -75 219 -75q153 0 242 87q88 87 88 243z" />
    <glyph glyph-name="udieresis" unicode="&#xfc;" horiz-adv-x="1312" 
d="M401 1483h177v-187h-177v187zM727 1483h176v-187h-176v187zM963 422v614h137v-1036h-131v209q-111 -236 -389 -236q-166 0 -267 108q-102 107 -102 281v674h137v-616q0 -178 66 -253q64 -75 219 -75q153 0 242 87q88 87 88 243z" />
    <glyph glyph-name="yacute" unicode="&#xfd;" horiz-adv-x="1089" 
d="M594 1546h166l-185 -311h-112zM627 281l291 755h137l-473 -1220q-84 -215 -279 -215q-98 0 -158 16v100h131q75 0 113 26q37 25 66 97l61 160h-82l-401 1036h143l291 -755l80 -224z" />
    <glyph glyph-name="thorn" unicode="&#xfe;" horiz-adv-x="1353" 
d="M737 1063q215 0 343 -149q128 -151 128 -396q0 -246 -128 -395q-127 -150 -343 -150q-130 0 -230.5 60t-154.5 172v-654h-137v1995h131v-745q51 126 154 194t237 68zM439 194q87 -106 268 -106q180 0 268 106q88 104 88 324q0 219 -87 324.5t-269 105.5
q-180 0 -267.5 -105.5t-87.5 -324.5t87 -324z" />
    <glyph glyph-name="ydieresis" unicode="&#xff;" horiz-adv-x="1089" 
d="M272 1483h177v-187h-177v187zM598 1483h176v-187h-176v187zM627 281l291 755h137l-473 -1220q-84 -215 -279 -215q-98 0 -158 16v100h131q75 0 113 26q37 25 66 97l61 160h-82l-401 1036h143l291 -755l80 -224z" />
    <glyph glyph-name="Amacron" unicode="&#x100;" horiz-adv-x="1390" 
d="M418 1841h559v-112h-559v112zM1341 0h-151l-170 461h-662l-168 -461h-141l516 1425h252zM596 1110l-193 -528h574l-195 528l-94 268z" />
    <glyph glyph-name="amacron" unicode="&#x101;" horiz-adv-x="1183" 
d="M307 1452h559v-113h-559v113zM1118 96h27v-96q-60 -16 -121 -16q-93 0 -133.5 53t-40.5 176v27q-46 -125 -153 -196t-259 -71q-138 0 -224 68q-85 67 -85 180q0 103 69 169t224 97q367 80 424 99v39q0 171 -66 251t-207 80q-143 0 -210.5 -74.5t-67.5 -230.5h-137
q0 187 114 299q113 113 301 113q192 0 301 -107q107 -109 107 -297v-403q0 -106 24 -133q23 -27 113 -27zM469 86q171 0 274 90t103 258v68q-16 -5 -373 -90q-109 -27 -154 -68.5t-45 -110.5q0 -147 195 -147z" />
    <glyph glyph-name="Abreve" unicode="&#x102;" horiz-adv-x="1390" 
d="M696 1618q-127 0 -205 87q-79 86 -79 230h116q0 -115 40 -168t128 -53t129 53.5t41 167.5h117q0 -144 -79 -230q-80 -87 -208 -87zM1341 0h-151l-170 461h-662l-168 -461h-141l516 1425h252zM596 1110l-193 -528h574l-195 528l-94 268z" />
    <glyph glyph-name="abreve" unicode="&#x103;" horiz-adv-x="1183" 
d="M586 1229q-126 0 -206 87q-79 86 -79 230h117q0 -115 40 -168t128 -53t129 53.5t41 167.5h116q0 -143 -78 -230q-80 -87 -208 -87zM1118 96h27v-96q-60 -16 -121 -16q-93 0 -133.5 53t-40.5 176v27q-46 -125 -153 -196t-259 -71q-138 0 -224 68q-85 67 -85 180
q0 103 69 169t224 97q367 80 424 99v39q0 171 -66 251t-207 80q-143 0 -210.5 -74.5t-67.5 -230.5h-137q0 187 114 299q113 113 301 113q192 0 301 -107q107 -109 107 -297v-403q0 -106 24 -133q23 -27 113 -27zM469 86q171 0 274 90t103 258v68q-16 -5 -373 -90
q-109 -27 -154 -68.5t-45 -110.5q0 -147 195 -147z" />
    <glyph glyph-name="Aogonek" unicode="&#x104;" horiz-adv-x="1390" 
d="M1087 -291q0 -51 78 -51h148v-88h-185q-76 0 -117.5 31.5t-41.5 87.5q0 62 59 123l166 188h-4l-170 461h-662l-168 -461h-141l516 1425h252l524 -1425h-51l-162 -205q-41 -52 -41 -86zM596 1110l-193 -528h574l-195 528l-94 268z" />
    <glyph glyph-name="aogonek" unicode="&#x105;" horiz-adv-x="1183" 
d="M1071 -14l-151 -191q-41 -52 -41 -86q0 -51 77 -51h148v-88h-184q-76 0 -118 31.5t-42 87.5q0 62 59 123l156 176q-125 27 -125 225v27q-46 -125 -153 -196t-259 -71q-138 0 -224 68q-85 67 -85 180q0 103 69 169t224 97q367 80 424 99v39q0 171 -66 251t-207 80
q-143 0 -210.5 -74.5t-67.5 -230.5h-137q0 187 114 299q113 113 301 113q192 0 301 -107q107 -109 107 -297v-403q0 -106 24 -133q23 -27 113 -27h27v-96q-29 -9 -74 -14zM469 86q171 0 274 90t103 258v68q-16 -5 -373 -90q-109 -27 -154 -68.5t-45 -110.5q0 -147 195 -147z
" />
    <glyph glyph-name="Cacute" unicode="&#x106;" horiz-adv-x="1552" 
d="M762 1624l133 311h164l-185 -311h-112zM336 176q-186 202 -186 537t186 537t491 202q255 0 427 -140q171 -141 171 -378h-149q0 199 -109.5 294t-339.5 95q-266 0 -396 -150.5t-130 -459.5q0 -310 130 -460.5t396 -150.5q228 0 338.5 90.5t110.5 276.5h149
q0 -231 -170 -363q-169 -133 -428 -133q-305 0 -491 203z" />
    <glyph glyph-name="cacute" unicode="&#x107;" horiz-adv-x="1222" 
d="M578 1235l131 311h165l-184 -311h-112zM942 340h141q0 -166 -120 -266q-122 -101 -322 -101q-223 0 -359 150q-137 149 -137 395q0 245 137 396q137 149 359 149q197 0 318 -108q120 -109 120 -285h-143q0 143 -71.5 210.5t-223.5 67.5q-180 0 -265 -105t-85 -325
q0 -219 86 -324.5t264 -105.5q156 0 228.5 60.5t72.5 191.5z" />
    <glyph glyph-name="Ccircumflex" unicode="&#x108;" horiz-adv-x="1552" 
d="M991 1624l-168 264l-168 -264h-137l209 311h193l206 -311h-135zM827 102q228 0 338.5 90.5t110.5 276.5h149q0 -231 -170 -363q-169 -133 -428 -133q-305 0 -491 203q-186 202 -186 537t186 537t491 202q255 0 427 -140q171 -141 171 -378h-149q0 199 -109.5 294
t-339.5 95q-266 0 -396 -150.5t-130 -459.5q0 -310 130 -460.5t396 -150.5z" />
    <glyph glyph-name="ccircumflex" unicode="&#x109;" horiz-adv-x="1222" 
d="M807 1235l-168 264l-168 -264h-137l209 311h192l207 -311h-135zM942 340h141q0 -166 -120 -266q-122 -101 -322 -101q-223 0 -359 150q-137 149 -137 395q0 245 137 396q137 149 359 149q197 0 318 -108q120 -109 120 -285h-143q0 143 -71.5 210.5t-223.5 67.5
q-180 0 -265 -105t-85 -325q0 -219 86 -324.5t264 -105.5q156 0 228.5 60.5t72.5 191.5z" />
    <glyph glyph-name="Cdotaccent" unicode="&#x10a;" horiz-adv-x="1552" 
d="M733 1686v186h176v-186h-176zM336 176q-186 202 -186 537t186 537t491 202q255 0 427 -140q171 -141 171 -378h-149q0 199 -109.5 294t-339.5 95q-266 0 -396 -150.5t-130 -459.5q0 -310 130 -460.5t396 -150.5q228 0 338.5 90.5t110.5 276.5h149q0 -231 -170 -363
q-169 -133 -428 -133q-305 0 -491 203z" />
    <glyph glyph-name="cdotaccent" unicode="&#x10b;" horiz-adv-x="1222" 
d="M547 1296v187h176v-187h-176zM942 340h141q0 -166 -120 -266q-122 -101 -322 -101q-223 0 -359 150q-137 149 -137 395q0 245 137 396q137 149 359 149q197 0 318 -108q120 -109 120 -285h-143q0 143 -71.5 210.5t-223.5 67.5q-180 0 -265 -105t-85 -325
q0 -219 86 -324.5t264 -105.5q156 0 228.5 60.5t72.5 191.5z" />
    <glyph glyph-name="Ccaron" unicode="&#x10c;" horiz-adv-x="1552" 
d="M913 1624h-190l-209 311h135l168 -264l170 264h135zM827 102q228 0 338.5 90.5t110.5 276.5h149q0 -231 -170 -363q-169 -133 -428 -133q-305 0 -491 203q-186 202 -186 537t186 537t491 202q255 0 427 -140q171 -141 171 -378h-149q0 199 -109.5 294t-339.5 95
q-266 0 -396 -150.5t-130 -459.5q0 -310 130 -460.5t396 -150.5z" />
    <glyph glyph-name="ccaron" unicode="&#x10d;" horiz-adv-x="1222" 
d="M729 1235h-190l-209 311h135l168 -264l170 264h135zM942 340h141q0 -166 -120 -266q-122 -101 -322 -101q-223 0 -359 150q-137 149 -137 395q0 245 137 396q137 149 359 149q197 0 318 -108q120 -109 120 -285h-143q0 143 -71.5 210.5t-223.5 67.5q-180 0 -265 -105
t-85 -325q0 -219 86 -324.5t264 -105.5q156 0 228.5 60.5t72.5 191.5z" />
    <glyph glyph-name="Dcaron" unicode="&#x10e;" horiz-adv-x="1622" 
d="M893 1624h-191l-208 311h135l168 -264l170 264h135zM262 1425h547q299 0 482 -195q182 -197 182 -517q0 -321 -182 -517q-183 -196 -482 -196h-547v1425zM408 121h387q260 0 393 150.5t133 441.5t-133 441.5t-393 150.5h-387v-1184z" />
    <glyph glyph-name="dcaron" unicode="&#x10f;" horiz-adv-x="1343" 
d="M1001 827v719h138v-1546h-133v227q-53 -124 -154 -189t-236 -65q-216 0 -343 150q-128 149 -128 395q0 245 128 396q128 149 343 149q132 0 233.5 -60.5t151.5 -175.5zM1305 1425v121h180v-145q0 -104 -58.5 -162.5t-158.5 -58.5v71q131 0 131 129zM645 88
q182 0 269 105.5t87 324.5t-87 324.5t-269 105.5q-180 0 -267 -105.5t-87 -324.5t87 -324.5t267 -105.5z" />
    <glyph glyph-name="Dcroat" unicode="&#x110;" horiz-adv-x="1622" 
d="M262 1425h547q299 0 482 -195q182 -197 182 -517q0 -321 -182 -517q-183 -196 -482 -196h-547v651h-235v121h235v653zM408 121h387q260 0 393 150.5t133 441.5t-133 441.5t-393 150.5h-387v-533h387v-121h-387v-530z" />
    <glyph glyph-name="dslash" unicode="&#x111;" horiz-adv-x="1343" 
d="M1139 1393h211v-107h-211v-1286h-133v227q-53 -124 -154 -189t-236 -65q-216 0 -343 150q-128 149 -128 395q0 245 128 396q128 149 343 149q132 0 233.5 -60.5t151.5 -175.5v459h-409v107h409v153h138v-153zM645 88q182 0 269 105.5t87 324.5t-87 324.5t-269 105.5
q-180 0 -267 -105.5t-87 -324.5t87 -324.5t267 -105.5z" />
    <glyph glyph-name="Emacron" unicode="&#x112;" horiz-adv-x="1351" 
d="M424 1841h559v-112h-559v112zM408 659v-538h766v-121h-912v1425h897v-120h-751v-523h710v-123h-710z" />
    <glyph glyph-name="emacron" unicode="&#x113;" horiz-adv-x="1247" 
d="M362 1452h560v-113h-560v113zM1104 584v-99h-813q6 -202 92 -299.5t260 -97.5q313 0 313 234h142q0 -153 -127 -250q-127 -99 -328 -99q-225 0 -361 150q-137 149 -137 395q0 247 136 396q135 149 358 149q209 0 337 -132q128 -133 128 -347zM293 582l276 4h396
q-6 185 -86 273.5t-240 88.5q-164 0 -249 -90t-97 -276z" />
    <glyph glyph-name="Ebreve" unicode="&#x114;" horiz-adv-x="1351" 
d="M702 1618q-127 0 -205 87q-79 86 -79 230h117q0 -115 40 -168t128 -53t128.5 53.5t40.5 167.5h117q0 -144 -79 -230q-80 -87 -208 -87zM408 659v-538h766v-121h-912v1425h897v-120h-751v-523h710v-123h-710z" />
    <glyph glyph-name="ebreve" unicode="&#x115;" horiz-adv-x="1247" 
d="M641 1229q-127 0 -206 87q-79 86 -79 230h117q0 -115 40 -168t128 -53t129 53.5t41 167.5h117q0 -144 -79 -230q-79 -87 -208 -87zM1104 584v-99h-813q6 -202 92 -299.5t260 -97.5q313 0 313 234h142q0 -153 -127 -250q-127 -99 -328 -99q-225 0 -361 150
q-137 149 -137 395q0 247 136 396q135 149 358 149q209 0 337 -132q128 -133 128 -347zM293 582l276 4h396q-6 185 -86 273.5t-240 88.5q-164 0 -249 -90t-97 -276z" />
    <glyph glyph-name="Edotaccent" unicode="&#x116;" horiz-adv-x="1351" 
d="M612 1872h176v-186h-176v186zM408 659v-538h766v-121h-912v1425h897v-120h-751v-523h710v-123h-710z" />
    <glyph glyph-name="edotaccent" unicode="&#x117;" horiz-adv-x="1247" 
d="M553 1483h176v-187h-176v187zM1104 584v-99h-813q6 -202 92 -299.5t260 -97.5q313 0 313 234h142q0 -153 -127 -250q-127 -99 -328 -99q-225 0 -361 150q-137 149 -137 395q0 247 136 396q135 149 358 149q209 0 337 -132q128 -133 128 -347zM293 582l276 4h396
q-6 185 -86 273.5t-240 88.5q-164 0 -249 -90t-97 -276z" />
    <glyph glyph-name="Eogonek" unicode="&#x118;" horiz-adv-x="1351" 
d="M1174 0h-25l-162 -205q-41 -52 -41 -86q0 -51 78 -51h147v-88h-184q-76 0 -118 31.5t-42 87.5q0 63 60 123l166 188h-791v1425h897v-120h-751v-523h710v-123h-710v-538h766v-121z" />
    <glyph glyph-name="eogonek" unicode="&#x119;" horiz-adv-x="1247" 
d="M1104 584v-99h-813q6 -202 92 -299.5t260 -97.5q313 0 313 234h142q0 -113 -71.5 -198t-197.5 -124h2l-161 -205q-41 -52 -41 -86q0 -51 78 -51h147v-88h-184q-76 0 -118 31.5t-42 87.5q0 62 59 123l146 165q-40 -4 -72 -4q-225 0 -361 150q-137 149 -137 395
q0 247 136 396q135 149 358 149q209 0 337 -132q128 -133 128 -347zM293 582l276 4h396q-6 185 -86 273.5t-240 88.5q-164 0 -249 -90t-97 -276z" />
    <glyph glyph-name="Ecaron" unicode="&#x11a;" horiz-adv-x="1351" 
d="M795 1624h-191l-209 311h135l168 -264l170 264h136zM408 659v-538h766v-121h-912v1425h897v-120h-751v-523h710v-123h-710z" />
    <glyph glyph-name="ecaron" unicode="&#x11b;" horiz-adv-x="1247" 
d="M735 1235h-190l-209 311h135l168 -264l170 264h135zM1104 584v-99h-813q6 -202 92 -299.5t260 -97.5q313 0 313 234h142q0 -153 -127 -250q-127 -99 -328 -99q-225 0 -361 150q-137 149 -137 395q0 247 136 396q135 149 358 149q209 0 337 -132q128 -133 128 -347z
M293 582l276 4h396q-6 185 -86 273.5t-240 88.5q-164 0 -249 -90t-97 -276z" />
    <glyph glyph-name="Gcircumflex" unicode="&#x11c;" horiz-adv-x="1640" 
d="M1006 1624l-168 264l-168 -264h-138l209 311h193l207 -311h-135zM735 608v117h713v-725h-121v375q-95 -401 -514 -402q-299 0 -481 203t-182 537q0 335 187 537t492 202q275 0 444 -139t169 -365h-152q0 193 -112.5 284t-348.5 91q-268 0 -398 -150.5t-130 -459.5
q0 -310 130 -460.5t398 -150.5q240 0 357 124t121 382h-572z" />
    <glyph glyph-name="gcircumflex" unicode="&#x11d;" horiz-adv-x="1157" 
d="M750 1235l-168 264l-168 -264h-138l209 311h193l207 -311h-135zM1116 1190v-117q-108 0 -155.5 -27.5t-57.5 -91.5q103 -92 105 -243q0 -152 -118 -248t-310 -96q-140 0 -244 53q-90 -45 -90 -137q0 -61 33 -88t108 -27h389q147 0 238 -75q90 -75 90 -195
q0 -132 -138 -215q-139 -82 -368 -82t-368 76q-140 77 -140 202q0 66 46.5 115t127.5 69q-129 53 -129 181q0 63 40 118.5t110 90.5q-133 97 -133 258q0 159 118 256q117 96 310 96q161 0 270 -68q12 100 75.5 147.5t190.5 47.5zM364 533q67 -58 216 -58q148 0 216 58
q68 57 68 178q0 125 -68.5 183t-215.5 58q-148 0 -216.5 -58t-68.5 -183q0 -121 69 -178zM766 53h-461q-86 -51 -86 -155q0 -102 84 -143q83 -40 295 -40t293 40q82 40 82 143q0 85 -46 121q-46 34 -161 34z" />
    <glyph glyph-name="Gbreve" unicode="&#x11e;" horiz-adv-x="1640" 
d="M834 1618q-126 0 -206 87q-79 86 -79 230h117q0 -115 40 -168t128 -53t129 53.5t41 167.5h116q0 -143 -78 -230q-80 -87 -208 -87zM735 608v117h713v-725h-121v375q-95 -401 -514 -402q-299 0 -481 203t-182 537q0 335 187 537t492 202q275 0 444 -139t169 -365h-152
q0 193 -112.5 284t-348.5 91q-268 0 -398 -150.5t-130 -459.5q0 -310 130 -460.5t398 -150.5q240 0 357 124t121 382h-572z" />
    <glyph glyph-name="gbreve" unicode="&#x11f;" horiz-adv-x="1157" 
d="M580 1229q-126 0 -206 87q-79 86 -79 230h117q0 -115 40 -168t128 -53t129 53.5t41 167.5h116q0 -143 -78 -230q-80 -87 -208 -87zM1116 1190v-117q-108 0 -155.5 -27.5t-57.5 -91.5q103 -92 105 -243q0 -152 -118 -248t-310 -96q-140 0 -244 53q-90 -45 -90 -137
q0 -61 33 -88t108 -27h389q147 0 238 -75q90 -75 90 -195q0 -132 -138 -215q-139 -82 -368 -82t-368 76q-140 77 -140 202q0 66 46.5 115t127.5 69q-129 53 -129 181q0 63 40 118.5t110 90.5q-133 97 -133 258q0 159 118 256q117 96 310 96q161 0 270 -68q12 100 75.5 147.5
t190.5 47.5zM364 533q67 -58 216 -58q148 0 216 58q68 57 68 178q0 125 -68.5 183t-215.5 58q-148 0 -216.5 -58t-68.5 -183q0 -121 69 -178zM766 53h-461q-86 -51 -86 -155q0 -102 84 -143q83 -40 295 -40t293 40q82 40 82 143q0 85 -46 121q-46 34 -161 34z" />
    <glyph glyph-name="Gdotaccent" unicode="&#x120;" horiz-adv-x="1640" 
d="M745 1872h177v-186h-177v186zM735 608v117h713v-725h-121v375q-95 -401 -514 -402q-299 0 -481 203t-182 537q0 335 187 537t492 202q275 0 444 -139t169 -365h-152q0 193 -112.5 284t-348.5 91q-268 0 -398 -150.5t-130 -459.5q0 -310 130 -460.5t398 -150.5
q240 0 357 124t121 382h-572z" />
    <glyph glyph-name="gdotaccent" unicode="&#x121;" horiz-adv-x="1157" 
d="M489 1483h177v-187h-177v187zM1116 1190v-117q-108 0 -155.5 -27.5t-57.5 -91.5q103 -92 105 -243q0 -152 -118 -248t-310 -96q-140 0 -244 53q-90 -45 -90 -137q0 -61 33 -88t108 -27h389q147 0 238 -75q90 -75 90 -195q0 -132 -138 -215q-139 -82 -368 -82t-368 76
q-140 77 -140 202q0 66 46.5 115t127.5 69q-129 53 -129 181q0 63 40 118.5t110 90.5q-133 97 -133 258q0 159 118 256q117 96 310 96q161 0 270 -68q12 100 75.5 147.5t190.5 47.5zM364 533q67 -58 216 -58q148 0 216 58q68 57 68 178q0 125 -68.5 183t-215.5 58
q-148 0 -216.5 -58t-68.5 -183q0 -121 69 -178zM766 53h-461q-86 -51 -86 -155q0 -102 84 -143q83 -40 295 -40t293 40q82 40 82 143q0 85 -46 121q-46 34 -161 34z" />
    <glyph glyph-name="uni0122" unicode="&#x122;" horiz-adv-x="1640" 
d="M735 608v117h713v-725h-121v375q-95 -401 -514 -402q-299 0 -481 203t-182 537q0 335 187 537t492 202q275 0 444 -139t169 -365h-152q0 193 -112.5 284t-348.5 91q-268 0 -398 -150.5t-130 -459.5q0 -310 130 -460.5t398 -150.5q240 0 357 124t121 382h-572zM831 -367
l-94 48v118h181v-143q0 -100 -58.5 -156.5t-159.5 -56.5v72q131 0 131 118z" />
    <glyph glyph-name="uni0123" unicode="&#x123;" horiz-adv-x="1157" 
d="M561 1401l96 -45v-121h-180v145q0 98 58 152.5t159 54.5v-71q-133 0 -133 -115zM1116 1190v-117q-108 0 -155.5 -27.5t-57.5 -91.5q103 -92 105 -243q0 -152 -118 -248t-310 -96q-140 0 -244 53q-90 -45 -90 -137q0 -61 33 -88t108 -27h389q147 0 238 -75q90 -75 90 -195
q0 -132 -138 -215q-139 -82 -368 -82t-368 76q-140 77 -140 202q0 66 46.5 115t127.5 69q-129 53 -129 181q0 63 40 118.5t110 90.5q-133 97 -133 258q0 159 118 256q117 96 310 96q161 0 270 -68q12 100 75.5 147.5t190.5 47.5zM364 533q67 -58 216 -58q148 0 216 58
q68 57 68 178q0 125 -68.5 183t-215.5 58q-148 0 -216.5 -58t-68.5 -183q0 -121 69 -178zM766 53h-461q-86 -51 -86 -155q0 -102 84 -143q83 -40 295 -40t293 40q82 40 82 143q0 85 -46 121q-46 34 -161 34z" />
    <glyph glyph-name="Hcircumflex" unicode="&#x124;" horiz-adv-x="1660" 
d="M1001 1624l-167 264l-168 -264h-138l209 311h193l207 -311h-136zM1251 782v643h146v-1425h-146v662h-843v-662h-146v1425h146v-643h843z" />
    <glyph glyph-name="hcircumflex" unicode="&#x125;" horiz-adv-x="1327" 
d="M842 1776l-168 264l-168 -264h-137l209 311h192l207 -311h-135zM737 1063q172 0 279 -107q106 -107 106 -282v-674h-139v616q0 177 -65 253q-66 75 -222 75q-160 0 -252 -90t-92 -252v-602h-137v1546h137v-719q113 236 385 236z" />
    <glyph glyph-name="Hbar" unicode="&#x126;" horiz-adv-x="1669" 
d="M1397 1204h233v-119h-233v-1085h-146v662h-843v-662h-146v1085h-223v119h223v221h146v-221h843v221h146v-221zM408 782h843v303h-843v-303z" />
    <glyph glyph-name="hbar" unicode="&#x127;" horiz-adv-x="1327" 
d="M737 1063q172 0 279 -107q106 -107 106 -282v-674h-139v616q0 177 -65 253q-66 75 -222 75q-160 0 -252 -90t-92 -252v-602h-137v1286h-215v107h215v153h137v-153h406v-107h-406v-459q113 236 385 236z" />
    <glyph glyph-name="Itilde" unicode="&#x128;" horiz-adv-x="671" 
d="M492 1655q-74 0 -163 66q-89 65 -151 65q-109 0 -108 -127h-93q0 110 56 176q55 66 147 66q74 0 163 -66q88 -66 149 -66q111 0 110 127h90q0 -109 -54 -175t-146 -66zM262 0v1425h146v-1425h-146z" />
    <glyph glyph-name="itilde" unicode="&#x129;" horiz-adv-x="557" 
d="M440 1266q-72 0 -162 66q-91 65 -151 65q-109 0 -109 -127h-92q0 110 55 175q57 66 148 66q74 0 163 -65q89 -66 148 -66q111 0 111 127h90q0 -109 -54 -175q-55 -66 -147 -66zM215 0v1036h137v-1036h-137z" />
    <glyph glyph-name="Imacron" unicode="&#x12a;" horiz-adv-x="671" 
d="M57 1841h559v-112h-559v112zM262 0v1425h146v-1425h-146z" />
    <glyph glyph-name="imacron" unicode="&#x12b;" horiz-adv-x="557" 
d="M4 1452h559v-113h-559v113zM215 0v1036h137v-1036h-137z" />
    <glyph glyph-name="Ibreve" unicode="&#x12c;" horiz-adv-x="671" 
d="M506 1935h117q0 -144 -79 -230q-80 -87 -208 -87q-126 0 -206 87q-79 86 -79 230h117q0 -115 40 -168t128 -53t129 53.5t41 167.5zM262 0v1425h146v-1425h-146z" />
    <glyph glyph-name="ibreve" unicode="&#x12d;" horiz-adv-x="557" 
d="M453 1546h116q0 -143 -78 -230q-79 -87 -208 -87q-127 0 -206 87q-79 86 -79 230h117q0 -115 40 -168t128 -53t129 53.5t41 167.5zM215 0v1036h137v-1036h-137z" />
    <glyph glyph-name="Iogonek" unicode="&#x12e;" horiz-adv-x="671" 
d="M285 -342h147v-88h-184q-76 0 -118 31.5t-42 87.5q0 62 59 123l166 188h-51v1425h146v-1425h2l-162 -205q-41 -52 -41 -86q0 -51 78 -51z" />
    <glyph glyph-name="iogonek" unicode="&#x12f;" horiz-adv-x="557" 
d="M195 1483h176v-187h-176v187zM229 -342h148v-88h-184q-76 0 -118 31.5t-42 87.5q0 62 59 123l166 188h-43v1036h137v-1036h2l-161 -205q-41 -52 -41 -86q-1 -25 18.5 -38t58.5 -13z" />
    <glyph glyph-name="Idot" unicode="&#x130;" horiz-adv-x="671" 
d="M248 1686v186h176v-186h-176zM262 0v1425h146v-1425h-146z" />
    <glyph glyph-name="dotlessi" unicode="&#x131;" horiz-adv-x="557" 
d="M215 0v1036h137v-1036h-137z" />
    <glyph glyph-name="IJ" unicode="&#x132;" horiz-adv-x="1253" 
d="M242 102h348q154 0 222.5 75t68.5 243v1005h143v-1009q0 -205 -116 -324q-117 -119 -318 -119q-175 0 -348 31v98zM248 410v1015h145v-1015h-145z" />
    <glyph glyph-name="ij" unicode="&#x133;" horiz-adv-x="1116" 
d="M371 1296h-176v187h176v-187zM752 1296v187h176v-187h-176zM352 0h-137v1036h137v-1036zM772 -90v1126h137v-1142q0 -139 -70.5 -216t-197.5 -77q-86 0 -137 16v98h119q88 0 119 40q30 40 30 155z" />
    <glyph glyph-name="Jcircumflex" unicode="&#x134;" horiz-adv-x="1249" 
d="M840 1935h192l207 -311h-135l-168 264l-168 -264h-137zM877 461v964h145v-970q0 -216 -128 -349q-127 -133 -339 -133q-215 0 -346 132q-131 131 -131 344h141q0 -177 82.5 -263t253.5 -86q165 0 243.5 88.5t78.5 272.5z" />
    <glyph glyph-name="jcircumflex" unicode="&#x135;" horiz-adv-x="538" 
d="M188 1546h193l207 -311h-135l-168 264l-168 -264h-137zM215 -82v1118h137v-1142q0 -139 -70.5 -216t-197.5 -77q-86 0 -137 16v98h119q84 0 117 43q32 44 32 160z" />
    <glyph glyph-name="uni0136" unicode="&#x136;" horiz-adv-x="1427" 
d="M1376 1425l-790 -702l823 -723h-213l-600 528l-188 172v-700h-146v1425h146v-696l188 176l582 520h198zM784 -367l-94 48v118h180v-143q0 -100 -58 -156.5t-159 -56.5v72q131 0 131 118z" />
    <glyph glyph-name="uni0137" unicode="&#x137;" horiz-adv-x="1126" 
d="M1075 1036l-561 -497l608 -539h-194l-447 395l-129 123v-518h-137v1546h137v-1009l127 122l424 377h172zM606 -367l-94 48v118h178v-143q0 -100 -57.5 -156.5t-157.5 -56.5v72q131 0 131 118z" />
    <glyph glyph-name="kgreenlandic" unicode="&#x138;" horiz-adv-x="1126" 
d="M1075 1036l-561 -497l608 -539h-196l-447 395l-127 121v-516h-137v1036h137v-499l127 122l424 377h172z" />
    <glyph glyph-name="Lacute" unicode="&#x139;" horiz-adv-x="1214" 
d="M410 1935h163l-184 -311h-113zM408 1425v-1304h727v-121h-873v1425h146z" />
    <glyph glyph-name="lacute" unicode="&#x13a;" horiz-adv-x="630" 
d="M350 1972h166l-184 -311h-113zM483 98h90v-98q-54 -16 -116 -16q-117 0 -179.5 66.5t-62.5 189.5v1306h137v-1290q0 -93 28 -125q27 -33 103 -33z" />
    <glyph glyph-name="uni013B" unicode="&#x13b;" horiz-adv-x="1214" 
d="M408 1425v-1304h727v-121h-873v1425h146zM731 -367l-94 48v118h180v-143q0 -99 -58.5 -156t-158.5 -57v72q131 0 131 118z" />
    <glyph glyph-name="uni013C" unicode="&#x13c;" horiz-adv-x="630" 
d="M483 98h90v-98q-54 -16 -116 -16q-117 0 -179.5 66.5t-62.5 189.5v1306h137v-1290q0 -93 28 -125q27 -33 103 -33zM389 -367l-94 48v118h178v-143q0 -100 -57.5 -156.5t-157.5 -56.5v72q131 0 131 118z" />
    <glyph glyph-name="Lcaron" unicode="&#x13d;" horiz-adv-x="1214" 
d="M408 1425v-1304h727v-121h-873v1425h146zM895 1425v-145q0 -104 -58.5 -162.5t-158.5 -58.5v71q131 0 131 130l-94 45v120h180z" />
    <glyph glyph-name="lcaron" unicode="&#x13e;" horiz-adv-x="630" 
d="M352 1546v-1290q0 -93 28 -125q28 -33 103 -33h90v-98q-54 -16 -116 -16q-117 0 -179.5 66.5t-62.5 189.5v1306h137zM539 1425v121h180v-145q0 -104 -58.5 -162.5t-158.5 -58.5v71q131 0 131 129z" />
    <glyph glyph-name="Ldot" unicode="&#x13f;" horiz-adv-x="1214" 
d="M408 1425v-1304h727v-121h-873v1425h146zM698 903h201v-201h-201v201z" />
    <glyph glyph-name="ldot" unicode="&#x140;" horiz-adv-x="702" 
d="M352 1546v-1290q0 -93 28 -125q28 -33 103 -33h90v-98q-54 -16 -116 -16q-117 0 -179.5 66.5t-62.5 189.5v1306h137zM514 676v174h172v-174h-172z" />
    <glyph glyph-name="Lslash" unicode="&#x141;" horiz-adv-x="1214" 
d="M408 639v-518h727v-121h-873v582l-207 -101v121l207 100v723h146v-665l483 237v-120z" />
    <glyph glyph-name="lslash" unicode="&#x142;" horiz-adv-x="630" 
d="M483 98h90v-98q-54 -16 -116 -16q-117 0 -179.5 66.5t-62.5 189.5v372l-184 -143v131l184 143v803h137v-727l215 172v-131l-215 -172v-432q0 -93 28 -125q27 -33 103 -33z" />
    <glyph glyph-name="Nacute" unicode="&#x143;" horiz-adv-x="1660" 
d="M913 1935h164l-184 -311h-113zM1251 440v985h146v-1425h-246l-752 1358l9 -318v-1040h-146v1425h252l748 -1349z" />
    <glyph glyph-name="nacute" unicode="&#x144;" horiz-adv-x="1327" 
d="M766 1546h166l-184 -311h-113zM737 1063q172 0 279 -107q106 -107 106 -282v-674h-139v616q0 177 -65 253q-66 75 -222 75q-160 0 -252 -90t-92 -252v-602h-137v1036h133v-219q112 246 389 246z" />
    <glyph glyph-name="uni0145" unicode="&#x145;" horiz-adv-x="1660" 
d="M1251 440v985h146v-1425h-246l-752 1358l9 -318v-1040h-146v1425h252l748 -1349zM834 -367l-95 48v118h181v-143q0 -100 -58.5 -156.5t-159.5 -56.5v72q131 0 132 118z" />
    <glyph glyph-name="uni0146" unicode="&#x146;" horiz-adv-x="1327" 
d="M737 1063q172 0 279 -107q106 -107 106 -282v-674h-139v616q0 177 -65 253q-66 75 -222 75q-160 0 -252 -90t-92 -252v-602h-137v1036h133v-219q112 246 389 246zM682 -367l-94 48v118h178v-143q0 -100 -57.5 -156.5t-157.5 -56.5v72q131 0 131 118z" />
    <glyph glyph-name="Ncaron" unicode="&#x147;" horiz-adv-x="1660" 
d="M932 1624h-191l-209 311h136l168 -264l170 264h135zM1251 440v985h146v-1425h-246l-752 1358l9 -318v-1040h-146v1425h252l748 -1349z" />
    <glyph glyph-name="ncaron" unicode="&#x148;" horiz-adv-x="1327" 
d="M788 1235h-190l-209 311h135l168 -264l170 264h135zM737 1063q172 0 279 -107q106 -107 106 -282v-674h-139v616q0 177 -65 253q-66 75 -222 75q-160 0 -252 -90t-92 -252v-602h-137v1036h133v-219q112 246 389 246z" />
    <glyph glyph-name="napostrophe" unicode="&#x149;" horiz-adv-x="1396" 
d="M51 1184l-110 49v149h202v-188q0 -113 -64.5 -174.5t-182.5 -61.5v86q78 0 117 35t38 105zM807 1063q172 0 279 -107q106 -107 106 -282v-674h-139v616q0 177 -65 253q-66 75 -222 75q-160 0 -252 -90t-92 -252v-602h-137v1036h133v-219q112 246 389 246z" />
    <glyph glyph-name="Eng" unicode="&#x14a;" horiz-adv-x="1660" 
d="M1251 440v985h146v-1531q0 -139 -70 -216t-199 -77q-86 0 -137 16v98h119q84 0 117 43q33 44 33 160v82h-109l-752 1358l9 -318v-1040h-146v1425h252l748 -1349z" />
    <glyph glyph-name="eng" unicode="&#x14b;" horiz-adv-x="1327" 
d="M737 1063q172 0 279 -107q106 -107 106 -282v-780q0 -139 -70.5 -216t-197.5 -77q-84 0 -139 16v98h119q87 0 119 41q30 40 30 162v698q0 174 -67.5 251t-219.5 77q-160 0 -252 -90t-92 -252v-602h-137v1036h133v-219q112 246 389 246z" />
    <glyph glyph-name="Omacron" unicode="&#x14c;" horiz-adv-x="1669" 
d="M559 1849h559v-112h-559v112zM838 -27q-309 0 -498 203q-190 202 -190 537t189 537t499 202q306 0 493 -202t187 -537t-187 -537q-188 -203 -493 -203zM838 102q530 0 530 611q0 610 -530 610q-271 0 -404 -151t-133 -459q0 -611 537 -611z" />
    <glyph glyph-name="omacron" unicode="&#x14d;" horiz-adv-x="1292" 
d="M367 1452h559v-113h-559v113zM1009 123q-140 -150 -364 -150q-225 0 -362 150q-138 149 -138 395t138 396q137 149 362 149q224 0 364 -149q138 -150 138 -396t-138 -395zM645 88q180 0 268 105.5t88 324.5t-87 324.5t-269 105.5q-180 0 -267 -105.5t-87 -324.5
q0 -430 354 -430z" />
    <glyph glyph-name="Obreve" unicode="&#x14e;" horiz-adv-x="1669" 
d="M1008 1944h116q0 -143 -78 -230q-79 -88 -208 -88q-126 0 -206 87q-79 86 -79 231h117q0 -115 40 -168.5t128 -53.5t129 53.5t41 168.5zM838 -27q-309 0 -498 203q-190 202 -190 537t189 537t499 202q306 0 493 -202t187 -537t-187 -537q-188 -203 -493 -203zM838 102
q530 0 530 611q0 610 -530 610q-271 0 -404 -151t-133 -459q0 -611 537 -611z" />
    <glyph glyph-name="obreve" unicode="&#x14f;" horiz-adv-x="1292" 
d="M815 1546h117q0 -144 -79 -230q-79 -87 -208 -87q-127 0 -206 87q-79 86 -79 230h117q0 -115 40 -168t128 -53t129 53.5t41 167.5zM1009 123q-140 -150 -364 -150q-225 0 -362 150q-138 149 -138 395t138 396q137 149 362 149q224 0 364 -149q138 -150 138 -396
t-138 -395zM645 88q180 0 268 105.5t88 324.5t-87 324.5t-269 105.5q-180 0 -267 -105.5t-87 -324.5q0 -430 354 -430z" />
    <glyph glyph-name="Ohungarumlaut" unicode="&#x150;" horiz-adv-x="1669" 
d="M662 1632l114 312h135l-139 -312h-110zM893 1632l131 312h166l-186 -312h-111zM838 -27q-309 0 -498 203q-190 202 -190 537t189 537t499 202q306 0 493 -202t187 -537t-187 -537q-188 -203 -493 -203zM838 102q530 0 530 611q0 610 -530 610q-271 0 -404 -151t-133 -459
q0 -611 537 -611z" />
    <glyph glyph-name="ohungarumlaut" unicode="&#x151;" horiz-adv-x="1292" 
d="M471 1235l115 311h135l-139 -311h-111zM702 1235l132 311h165l-186 -311h-111zM1009 123q-140 -150 -364 -150q-225 0 -362 150q-138 149 -138 395t138 396q137 149 362 149q224 0 364 -149q138 -150 138 -396t-138 -395zM645 88q180 0 268 105.5t88 324.5t-87 324.5
t-269 105.5q-180 0 -267 -105.5t-87 -324.5q0 -430 354 -430z" />
    <glyph glyph-name="OE" unicode="&#x152;" horiz-adv-x="2277" 
d="M1360 659v-538h741v-121h-1286q-299 0 -482 196q-183 195 -183 517q0 321 183 517q183 195 482 195h1272v-120h-727v-523h686v-123h-686zM829 121h385v1184h-385q-261 0 -394.5 -150t-133.5 -442t133.5 -442t394.5 -150z" />
    <glyph glyph-name="oe" unicode="&#x153;" horiz-adv-x="2101" 
d="M1960 584v-99h-813q6 -202 92 -299.5t260 -97.5q311 0 311 234h144q0 -153 -127 -250q-127 -99 -328 -99q-144 0 -255 69.5t-171 195.5q-60 -126 -170.5 -195.5t-257.5 -69.5q-225 0 -362 150q-138 149 -138 395t138 396q137 149 362 149q146 0 257 -69t171 -195
q57 126 167.5 195t254.5 69q209 0 337 -132q128 -133 128 -347zM645 88q180 0 268 105.5t88 324.5t-87 324.5t-269 105.5q-180 0 -267 -105.5t-87 -324.5q0 -430 354 -430zM1149 582l276 4h396q-6 185 -86 273.5t-240 88.5q-164 0 -249 -90t-97 -276z" />
    <glyph glyph-name="Racute" unicode="&#x154;" horiz-adv-x="1449" 
d="M821 1935h164l-184 -311h-113zM1391 0h-166l-432 618h-385v-618h-146v1425h580q195 0 315 -111q119 -113 119 -294q0 -155 -92 -259q-91 -103 -254 -132l125 -156zM823 1305h-415v-572h415q156 0 228.5 69.5t72.5 217.5q0 147 -72.5 216t-228.5 69z" />
    <glyph glyph-name="racute" unicode="&#x155;" horiz-adv-x="819" 
d="M582 1546h166l-185 -311h-112zM682 1063q67 0 102 -16v-113h-118q-147 0 -230.5 -94.5t-83.5 -264.5v-575h-137v1036h131v-239q45 127 132 196.5t204 69.5z" />
    <glyph glyph-name="uni0156" unicode="&#x156;" horiz-adv-x="1449" 
d="M930 629l125 -156l336 -473h-166l-432 618h-385v-618h-146v1425h580q195 0 315 -111q119 -113 119 -294q0 -155 -92 -259q-91 -103 -254 -132zM823 1305h-415v-572h415q156 0 228.5 69.5t72.5 217.5q0 147 -72.5 216t-228.5 69zM766 -367l-94 48v118h180v-143
q0 -99 -58.5 -156t-158.5 -57v72q131 0 131 118z" />
    <glyph glyph-name="uni0157" unicode="&#x157;" horiz-adv-x="819" 
d="M682 1063q67 0 102 -16v-113h-118q-147 0 -230.5 -94.5t-83.5 -264.5v-575h-137v1036h131v-239q45 127 132 196.5t204 69.5zM293 -367l-94 48v118h178v-143q0 -100 -57.5 -156.5t-157.5 -56.5v72q131 0 131 118z" />
    <glyph glyph-name="Rcaron" unicode="&#x158;" horiz-adv-x="1449" 
d="M842 1624h-191l-209 311h136l167 -264l170 264h136zM1391 0h-166l-432 618h-385v-618h-146v1425h580q195 0 315 -111q119 -113 119 -294q0 -155 -92 -259q-91 -103 -254 -132l125 -156zM823 1305h-415v-572h415q156 0 228.5 69.5t72.5 217.5q0 147 -72.5 216t-228.5 69z
" />
    <glyph glyph-name="rcaron" unicode="&#x159;" horiz-adv-x="819" 
d="M604 1235h-190l-209 311h135l168 -264l170 264h135zM346 1036v-239q45 127 132 196.5t204 69.5q67 0 102 -16v-113h-118q-147 0 -230.5 -94.5t-83.5 -264.5v-575h-137v1036h131z" />
    <glyph glyph-name="Sacute" unicode="&#x15a;" horiz-adv-x="1431" 
d="M668 1624l133 311h164l-185 -311h-112zM723 -27q-264 0 -426 132q-162 130 -162 344h150q0 -177 107.5 -262t332.5 -85q426 0 426 256q-1 72 -34 123q-31 48 -138 98q-104 47 -301 85q-282 56 -394 141q-114 85 -114 235q0 186 149 299t392 113q252 0 406 -133
q153 -133 153 -352h-150q0 182 -100 269t-311 87q-395 0 -396 -262q0 -72 34 -118q35 -47 137 -87t294 -78q283 -55 400 -150q116 -96 116 -255q0 -181 -157 -290q-158 -110 -414 -110z" />
    <glyph glyph-name="sacute" unicode="&#x15b;" horiz-adv-x="1124" 
d="M500 1235l131 311h166l-185 -311h-112zM586 -27q-215 0 -344 99q-129 98 -129 260h141q0 -129 81 -189.5t253 -60.5q291 0 291 170q0 82 -69 129t-265 84q-209 40 -305 110q-95 68 -95 187q0 135 113 218t299 83q198 0 319 -98q119 -99 119 -258h-143q0 127 -72.5 188
t-224.5 61q-276 0 -276 -178q0 -80 70 -123q67 -42 274 -80q208 -39 299 -112q92 -74 92 -199q0 -132 -117 -211q-119 -80 -311 -80z" />
    <glyph glyph-name="Scircumflex" unicode="&#x15c;" horiz-adv-x="1431" 
d="M897 1624l-168 264l-168 -264h-137l209 311h192l207 -311h-135zM778 778q283 -55 400 -150q116 -96 116 -255q0 -181 -157 -290q-158 -110 -414 -110q-264 0 -426 132q-162 130 -162 344h150q0 -177 107.5 -262t332.5 -85q426 0 426 256q-1 72 -34 123q-31 48 -138 98
q-104 47 -301 85q-282 56 -394 141q-114 85 -114 235q0 186 149 299t392 113q252 0 406 -133q153 -133 153 -352h-150q0 182 -100 269t-311 87q-395 0 -396 -262q0 -72 34 -118q35 -47 136 -87q102 -41 295 -78z" />
    <glyph glyph-name="scircumflex" unicode="&#x15d;" horiz-adv-x="1124" 
d="M731 1235l-168 264l-168 -264h-137l209 311h192l207 -311h-135zM623 575q208 -39 299 -112q92 -74 92 -199q0 -132 -118 -211q-119 -80 -310 -80q-215 0 -344 99q-129 98 -129 260h141q0 -129 81 -189.5t253 -60.5q291 0 291 170q0 82 -69 129t-265 84q-209 40 -305 110
q-95 68 -95 187q0 135 113 218t299 83q198 0 319 -98q119 -99 119 -258h-143q0 127 -72.5 188t-224.5 61q-276 0 -276 -178q0 -80 70 -123q67 -42 274 -80z" />
    <glyph glyph-name="Scedilla" unicode="&#x15e;" horiz-adv-x="1431" 
d="M1294 373q0 -172 -143 -280q-142 -109 -383 -120l-33 -102h68q78 0 125 -40.5t47 -106.5q0 -69 -51 -111.5t-133 -42.5h-164v88h147q82 0 82 67q0 68 -82 68h-129v70l41 110q-250 10 -400 141q-151 130 -151 335h150q0 -177 107.5 -262t332.5 -85q426 0 426 256
q-1 72 -34 123q-31 48 -138 98q-104 47 -301 85q-282 56 -394 141q-114 85 -114 235q0 186 149 299t392 113q252 0 406 -133q153 -133 153 -352h-150q0 182 -100 269t-311 87q-395 0 -396 -262q0 -72 34 -118q35 -47 137 -87t294 -78q283 -55 400 -150q116 -95 116 -255z
" />
    <glyph glyph-name="scedilla" unicode="&#x15f;" horiz-adv-x="1124" 
d="M922 463q92 -74 92 -199t-109 -204t-293 -87l-32 -102h67q78 0 125 -40.5t47 -106.5q0 -69 -51 -111.5t-133 -42.5h-164v88h147q82 0 82 67q0 68 -82 68h-129v70l41 112q-190 12 -303 110q-114 97 -114 247h141q0 -129 81 -189.5t253 -60.5q291 0 291 170q0 82 -69 129
t-265 84q-209 40 -305 110q-95 68 -95 187q0 135 113 218t299 83q198 0 319 -98q119 -99 119 -258h-143q0 127 -72.5 188t-224.5 61q-276 0 -276 -178q0 -80 70 -123q67 -42 274 -80q208 -39 299 -112z" />
    <glyph glyph-name="Scaron" unicode="&#x160;" horiz-adv-x="1431" 
d="M819 1624h-190l-209 311h135l168 -264l170 264h135zM778 778q283 -55 400 -150q116 -96 116 -255q0 -181 -157 -290q-158 -110 -414 -110q-264 0 -426 132q-162 130 -162 344h150q0 -177 107.5 -262t332.5 -85q426 0 426 256q-1 72 -34 123q-31 48 -138 98
q-104 47 -301 85q-282 56 -394 141q-114 85 -114 235q0 186 149 299t392 113q252 0 406 -133q153 -133 153 -352h-150q0 182 -100 269t-311 87q-395 0 -396 -262q0 -72 34 -118q35 -47 136 -87q102 -41 295 -78z" />
    <glyph glyph-name="scaron" unicode="&#x161;" horiz-adv-x="1124" 
d="M653 1235h-190l-209 311h135l168 -264l170 264h135zM623 575q208 -39 299 -112q92 -74 92 -199q0 -132 -118 -211q-119 -80 -310 -80q-215 0 -344 99q-129 98 -129 260h141q0 -129 81 -189.5t253 -60.5q291 0 291 170q0 82 -69 129t-265 84q-209 40 -305 110
q-95 68 -95 187q0 135 113 218t299 83q198 0 319 -98q119 -99 119 -258h-143q0 127 -72.5 188t-224.5 61q-276 0 -276 -178q0 -80 70 -123q67 -42 274 -80z" />
    <glyph glyph-name="uni0162" unicode="&#x162;" horiz-adv-x="1302" 
d="M723 1305v-1305h-31l-41 -129h68q78 0 125 -40.5t47 -106.5q0 -70 -50 -112t-134 -42h-164v88h147q82 0 82 67q0 68 -82 68h-129v70l51 137h-34v1305h-547v120h1241v-120h-549z" />
    <glyph glyph-name="uni0163" unicode="&#x163;" horiz-adv-x="841" 
d="M807 98v-98q-100 -16 -240 -16l-35 -113h68q78 0 125 -40.5t47 -106.5q0 -70 -50 -112t-134 -42h-164v88h147q82 0 82 67q0 68 -82 68h-129v70l47 125q-122 14 -186.5 90.5t-64.5 206.5v641h-215v110h215l4 310h133v-310h426v-110h-426v-613q0 -124 41 -170
q40 -45 153 -45h238z" />
    <glyph glyph-name="Tcaron" unicode="&#x164;" horiz-adv-x="1302" 
d="M741 1624h-190l-209 311h135l168 -264l170 264h135zM31 1425h1241v-120h-549v-1305h-145v1305h-547v120z" />
    <glyph glyph-name="tcaron" unicode="&#x165;" horiz-adv-x="841" 
d="M743 1569v-146q0 -104 -57.5 -162.5t-159.5 -58.5v72q131 0 131 129l-94 45v121h180zM569 98h238v-98q-106 -16 -254 -16q-152 0 -233.5 77.5t-81.5 223.5v641h-215v110h215l4 310h133v-310h426v-110h-426v-613q0 -124 41 -170q40 -45 153 -45z" />
    <glyph glyph-name="Tbar" unicode="&#x166;" horiz-adv-x="1271" 
d="M1272 1425v-120h-549v-545h385v-117h-385v-643h-145v643h-404v117h404v545h-547v120h1241z" />
    <glyph glyph-name="tbar" unicode="&#x167;" horiz-adv-x="841" 
d="M569 98h238v-98q-106 -16 -254 -16q-152 0 -233.5 77.5t-81.5 223.5v219h-215v106h215v316h-215v110h215l4 310h133v-310h426v-110h-426v-316h426v-106h-426v-191q0 -124 41 -170q40 -45 153 -45z" />
    <glyph glyph-name="Utilde" unicode="&#x168;" horiz-adv-x="1585" 
d="M948 1655q-74 0 -163 66q-89 65 -150 65q-109 0 -109 -127h-92q0 108 56 176q56 66 147 66q75 0 163 -66q89 -66 148 -66q111 0 111 127h90q0 -109 -54 -175q-55 -66 -147 -66zM229 487v938h144v-931q0 -199 103.5 -295.5t316.5 -96.5t316 96.5t103 295.5v931h146v-938
q0 -231 -155 -372q-155 -142 -410 -142t-409 142q-155 141 -155 372z" />
    <glyph glyph-name="utilde" unicode="&#x169;" horiz-adv-x="1312" 
d="M494 1397q-109 0 -109 -127h-92q0 110 55 175q56 66 148 66q74 0 163 -65q89 -66 148 -66q111 0 111 127h90q0 -109 -54 -175q-56 -66 -147 -66q-72 0 -163 66q-92 65 -150 65zM963 422v614h137v-1036h-131v209q-111 -236 -389 -236q-166 0 -267 108q-102 107 -102 281
v674h137v-616q0 -178 66 -253q64 -75 219 -75q153 0 242 87q88 87 88 243z" />
    <glyph glyph-name="Umacron" unicode="&#x16a;" horiz-adv-x="1585" 
d="M514 1841h559v-112h-559v112zM229 487v938h144v-931q0 -199 103.5 -295.5t316.5 -96.5t316 96.5t103 295.5v931h146v-938q0 -231 -155 -372q-155 -142 -410 -142t-409 142q-155 141 -155 372z" />
    <glyph glyph-name="umacron" unicode="&#x16b;" horiz-adv-x="1312" 
d="M373 1452h559v-113h-559v113zM963 422v614h137v-1036h-131v209q-111 -236 -389 -236q-166 0 -267 108q-102 107 -102 281v674h137v-616q0 -178 66 -253q64 -75 219 -75q153 0 242 87q88 87 88 243z" />
    <glyph glyph-name="Ubreve" unicode="&#x16c;" horiz-adv-x="1585" 
d="M963 1935h116q0 -143 -78 -230q-79 -87 -208 -87q-127 0 -206 87q-79 86 -79 230h117q0 -115 40 -168t128 -53t129 53.5t41 167.5zM229 487v938h144v-931q0 -199 103.5 -295.5t316.5 -96.5t316 96.5t103 295.5v931h146v-938q0 -231 -155 -372q-155 -142 -410 -142
t-409 142q-155 141 -155 372z" />
    <glyph glyph-name="ubreve" unicode="&#x16d;" horiz-adv-x="1312" 
d="M651 1229q-127 0 -205 87q-79 86 -79 230h116q0 -115 40 -168t128 -53t129 53.5t41 167.5h117q0 -144 -79 -230q-79 -87 -208 -87zM963 422v614h137v-1036h-131v209q-111 -236 -389 -236q-166 0 -267 108q-102 107 -102 281v674h137v-616q0 -178 66 -253q64 -75 219 -75
q153 0 242 87q88 87 88 243z" />
    <glyph glyph-name="Uring" unicode="&#x16e;" horiz-adv-x="1585" 
d="M793 1618q-80 0 -130.5 45t-50.5 117q0 74 50 118t131 44q82 0 132 -44.5t50 -117.5q0 -72 -50 -117t-132 -45zM714 1709q23 -21 79 -21q55 0 79 21q23 20 23 71q0 49 -23.5 70.5t-78.5 21.5t-79 -21.5t-24 -70.5q0 -51 24 -71zM229 487v938h144v-931
q0 -199 103.5 -295.5t316.5 -96.5t316 96.5t103 295.5v931h146v-938q0 -231 -155 -372q-155 -142 -410 -142t-409 142q-155 141 -155 372z" />
    <glyph glyph-name="uring" unicode="&#x16f;" horiz-adv-x="1312" 
d="M651 1229q-80 0 -130 45t-50 117q0 74 49.5 117.5t130.5 43.5q82 0 132.5 -44t50.5 -117q0 -72 -50.5 -117t-132.5 -45zM731 1462q-24 21 -79 21q-57 0 -79 -21q-24 -22 -24 -71q0 -51 23.5 -72t79.5 -21t79 21t23 72q0 48 -23 71zM963 422v614h137v-1036h-131v209
q-111 -236 -389 -236q-166 0 -267 108q-102 107 -102 281v674h137v-616q0 -178 66 -253q64 -75 219 -75q153 0 242 87q88 87 88 243z" />
    <glyph glyph-name="Uhungarumlaut" unicode="&#x170;" horiz-adv-x="1585" 
d="M616 1624l115 311h135l-139 -311h-111zM848 1624l131 311h166l-187 -311h-110zM229 487v938h144v-931q0 -199 103.5 -295.5t316.5 -96.5t316 96.5t103 295.5v931h146v-938q0 -231 -155 -372q-155 -142 -410 -142t-409 142q-155 141 -155 372z" />
    <glyph glyph-name="uhungarumlaut" unicode="&#x171;" horiz-adv-x="1312" 
d="M594 1546h135l-139 -311h-111zM1008 1546l-187 -311h-110l131 311h166zM963 422v614h137v-1036h-131v209q-111 -236 -389 -236q-166 0 -267 108q-102 107 -102 281v674h137v-616q0 -178 66 -253q64 -75 219 -75q153 0 242 87q88 87 88 243z" />
    <glyph glyph-name="Uogonek" unicode="&#x172;" horiz-adv-x="1585" 
d="M1212 494v931h146v-938q0 -189 -106 -320t-289 -175l-156 -197q-41 -52 -41 -86q0 -51 78 -51h147v-88h-184q-76 0 -118 31.5t-42 87.5q0 63 60 123l143 163q-24 -2 -57 -2q-255 0 -409 142q-155 141 -155 372v938h144v-931q0 -199 103.5 -295.5t316.5 -96.5t316 96.5
t103 295.5z" />
    <glyph glyph-name="uogonek" unicode="&#x173;" horiz-adv-x="1312" 
d="M977 -342h147v-88h-184q-76 0 -118 31.5t-42 87.5q0 63 60 123l166 188h-37v209q-111 -236 -389 -236q-166 0 -267 108q-102 107 -102 281v674h137v-616q0 -178 66 -253q64 -75 219 -75q153 0 242 87q88 87 88 243v614h137v-1036h2l-162 -205q-41 -52 -41 -86
q0 -51 78 -51z" />
    <glyph glyph-name="Wcircumflex" unicode="&#x174;" horiz-adv-x="2228" 
d="M1284 1624l-168 264l-168 -264h-137l209 311h192l207 -311h-135zM1679 315l338 1110h146l-434 -1425h-236l-307 1100l-70 276l-67 -276l-308 -1100h-241l-434 1425h149l338 -1110l72 -258l65 258l309 1110h236l307 -1110l66 -258z" />
    <glyph glyph-name="wcircumflex" unicode="&#x175;" horiz-adv-x="1812" 
d="M1081 1235l-168 264l-168 -264h-137l209 311h193l207 -311h-136zM1380 281l238 755h145l-346 -1036h-213l-225 733l-70 246l-69 -246l-226 -733h-219l-346 1036h150l239 -755l70 -242l67 242l232 755h207l229 -755l68 -238z" />
    <glyph glyph-name="Ycircumflex" unicode="&#x176;" horiz-adv-x="1288" 
d="M817 1624l-168 264l-168 -264h-137l209 311h192l207 -311h-135zM776 829l346 596h144l-547 -948v-477h-146v477l-548 948h155l346 -596l125 -239z" />
    <glyph glyph-name="ycircumflex" unicode="&#x177;" horiz-adv-x="1089" 
d="M694 1235l-168 264l-168 -264h-137l209 311h193l206 -311h-135zM627 281l291 755h137l-473 -1220q-84 -215 -279 -215q-98 0 -158 16v100h131q75 0 113 26q37 25 66 97l61 160h-82l-401 1036h143l291 -755l80 -224z" />
    <glyph glyph-name="Ydieresis" unicode="&#x178;" horiz-adv-x="1288" 
d="M395 1872h176v-186h-176v186zM721 1872h176v-186h-176v186zM776 829l346 596h144l-547 -948v-477h-146v477l-548 948h155l346 -596l125 -239z" />
    <glyph glyph-name="Zacute" unicode="&#x179;" horiz-adv-x="1257" 
d="M727 1935h164l-184 -311h-113zM150 115l305 6h733v-121h-1092v240l1032 1071l-305 -6h-721v120h1080v-239z" />
    <glyph glyph-name="zacute" unicode="&#x17a;" horiz-adv-x="1019" 
d="M596 1546h166l-184 -311h-113zM154 113l217 4h567v-117h-836v221l781 703l-221 -4h-549v116h815v-227z" />
    <glyph glyph-name="Zdotaccent" unicode="&#x17b;" horiz-adv-x="1257" 
d="M563 1872h176v-186h-176v186zM150 115l305 6h733v-121h-1092v240l1032 1071l-305 -6h-721v120h1080v-239z" />
    <glyph glyph-name="zdotaccent" unicode="&#x17c;" horiz-adv-x="1019" 
d="M434 1483h176v-187h-176v187zM154 113l217 4h567v-117h-836v221l781 703l-221 -4h-549v116h815v-227z" />
    <glyph glyph-name="Zcaron" unicode="&#x17d;" horiz-adv-x="1257" 
d="M745 1624h-190l-209 311h135l168 -264l170 264h135zM150 115l305 6h733v-121h-1092v240l1032 1071l-305 -6h-721v120h1080v-239z" />
    <glyph glyph-name="zcaron" unicode="&#x17e;" horiz-adv-x="1019" 
d="M616 1235h-190l-209 311h135l168 -264l170 264h135zM154 113l217 4h567v-117h-836v221l781 703l-221 -4h-549v116h815v-227z" />
    <glyph glyph-name="uni018F" unicode="&#x18f;" horiz-adv-x="1599" 
d="M791 1452q297 0 477 -202t180 -537t-181 -537q-182 -203 -479 -203q-269 0 -444 166q-176 167 -176 457v143h1130q-4 297 -129 440.5t-378 143.5q-461 0 -461 -383h-150q0 231 175 372q175 140 436 140zM432 224q117 -122 357 -122t364 127q125 128 141 389h-979v-22
q0 -250 117 -372z" />
    <glyph glyph-name="florin" unicode="&#x192;" horiz-adv-x="974" 
d="M950 1448h-239q-111 0 -160 -45q-49 -44 -70 -170l-35 -197h420l-20 -110h-420l-233 -1321h-138l234 1321h-213l20 110h213l39 221q25 145 121.5 225.5t249.5 80.5q149 0 250 -15z" />
    <glyph glyph-name="uni019D" unicode="&#x19d;" horiz-adv-x="1611" 
d="M1204 440v985h146v-1425h-248l-752 1358l10 -318v-1146q0 -139 -72.5 -216t-203.5 -77q-86 0 -137 16v98h119q84 0 117 43q32 44 32 160v1507h250l747 -1347z" />
    <glyph glyph-name="Gcaron" unicode="&#x1e6;" horiz-adv-x="1640" 
d="M928 1624h-191l-209 311h136l167 -264l170 264h136zM735 608v117h713v-725h-121v375q-95 -401 -514 -402q-299 0 -481 203t-182 537q0 335 187 537t492 202q275 0 444 -139t169 -365h-152q0 193 -112.5 284t-348.5 91q-268 0 -398 -150.5t-130 -459.5q0 -310 130 -460.5
t398 -150.5q240 0 357 124t121 382h-572z" />
    <glyph glyph-name="gcaron" unicode="&#x1e7;" horiz-adv-x="1157" 
d="M672 1235h-191l-209 311h136l167 -264l170 264h136zM1116 1190v-117q-108 0 -155.5 -27.5t-57.5 -91.5q103 -92 105 -243q0 -152 -118 -248t-310 -96q-140 0 -244 53q-90 -45 -90 -137q0 -61 33 -88t108 -27h389q147 0 238 -75q90 -75 90 -195q0 -132 -138 -215
q-139 -82 -368 -82t-368 76q-140 77 -140 202q0 66 46.5 115t127.5 69q-129 53 -129 181q0 63 40 118.5t110 90.5q-133 97 -133 258q0 159 118 256q117 96 310 96q161 0 270 -68q12 100 75.5 147.5t190.5 47.5zM364 533q67 -58 216 -58q148 0 216 58q68 57 68 178
q0 125 -68.5 183t-215.5 58q-148 0 -216.5 -58t-68.5 -183q0 -121 69 -178zM766 53h-461q-86 -51 -86 -155q0 -102 84 -143q83 -40 295 -40t293 40q82 40 82 143q0 85 -46 121q-46 34 -161 34z" />
    <glyph glyph-name="uni01EA" unicode="&#x1ea;" horiz-adv-x="1669" 
d="M1518 713q0 -271 -128 -462q-127 -189 -350 -251l-161 -205q-41 -52 -41 -86q0 -51 77 -51h148v-88h-184q-76 0 -118 31.5t-42 87.5q0 62 59 123l148 165q-51 -4 -88 -4q-309 0 -498 203q-190 202 -190 537t189 537t499 202q306 0 493 -202t187 -537zM838 102
q530 0 530 611q0 610 -530 610q-271 0 -404 -151t-133 -459q0 -611 537 -611z" />
    <glyph glyph-name="uni01EB" unicode="&#x1eb;" horiz-adv-x="1292" 
d="M817 0l-162 -205q-41 -52 -41 -86q0 -51 78 -51h148v-88h-185q-76 0 -117.5 31.5t-41.5 87.5q0 62 59 123l145 163q-24 -2 -55 -2q-225 0 -362 150q-138 149 -138 395t138 396q137 149 362 149q224 0 364 -149q138 -150 138 -396q0 -194 -88 -330q-89 -138 -242 -188z
M291 518q0 -430 354 -430q180 0 268 105.5t88 324.5t-87 324.5t-269 105.5q-180 0 -267 -105.5t-87 -324.5z" />
    <glyph glyph-name="Aringacute" unicode="&#x1fa;" horiz-adv-x="1390" 
d="M696 1618q-80 0 -130 45t-50 117q0 74 49.5 118t130.5 44q27 0 39 -3l94 181h123l-143 -209q68 -41 68 -131q0 -72 -50 -117t-131 -45zM776 1851q-24 21 -79 21q-57 0 -79 -21q-24 -23 -24 -71q0 -51 23.5 -71.5t79.5 -20.5t79 20.5t23 71.5q0 48 -23 71zM1341 0h-151
l-170 461h-662l-168 -461h-141l516 1425h252zM596 1110l-193 -528h574l-195 528l-94 268z" />
    <glyph glyph-name="aringacute" unicode="&#x1fb;" horiz-adv-x="1183" 
d="M588 1229q-82 0 -132 45t-50 117q0 74 50 117.5t132 43.5q21 0 37 -2l94 181h123l-142 -209q68 -45 68 -131q0 -72 -50 -117t-130 -45zM667 1462q-24 21 -79 21q-56 0 -80 -21q-25 -22 -25 -71q0 -51 24.5 -72t80.5 -21t79 21t23 72q0 48 -23 71zM1118 96h27v-96
q-60 -16 -121 -16q-93 0 -133.5 53t-40.5 176v27q-46 -125 -153 -196t-259 -71q-138 0 -224 68q-85 67 -85 180q0 103 69 169t224 97q367 80 424 99v39q0 171 -66 251t-207 80q-143 0 -210.5 -74.5t-67.5 -230.5h-137q0 187 114 299q113 113 301 113q192 0 301 -107
q107 -109 107 -297v-403q0 -106 24 -133q23 -27 113 -27zM469 86q171 0 274 90t103 258v68q-16 -5 -373 -90q-109 -27 -154 -68.5t-45 -110.5q0 -147 195 -147z" />
    <glyph glyph-name="AEacute" unicode="&#x1fc;" horiz-adv-x="1992" 
d="M1196 1935h164l-184 -311h-113zM1100 659l196 -538h521v-121h-627l-170 461h-662l-168 -461h-141l516 1425h1237v-120h-940l191 -523h708v-123h-661zM596 1110l-193 -528h574l-195 528l-94 268z" />
    <glyph glyph-name="aeacute" unicode="&#x1fd;" horiz-adv-x="1953" 
d="M1034 1546h166l-184 -311h-113zM1812 584v-99h-813q6 -203 91.5 -300t257.5 -97q164 0 239.5 56.5t75.5 177.5h143q0 -156 -126 -252q-125 -97 -332 -97q-171 0 -289 91q-119 90 -164 251q-28 -152 -145 -248q-116 -94 -299 -94q-144 0 -233 68t-89 180q0 102 72 167.5
t233 98.5q367 80 424 99v39q0 166 -68 249t-204 82q-279 0 -279 -305h-137q0 187 114 299q113 113 302 113q272 0 360 -223q130 223 402 223q210 0 337 -132q127 -131 127 -347zM1001 582l277 4h393q-4 185 -83.5 273.5t-239.5 88.5q-164 0 -249.5 -90t-97.5 -276zM481 86
q172 0 275 90q102 90 102 258v68q-56 -17 -373 -90q-115 -27 -163 -68.5t-48 -110.5q0 -147 207 -147z" />
    <glyph glyph-name="Oslashacute" unicode="&#x1fe;" horiz-adv-x="1669" 
d="M907 1935h164l-184 -311h-113zM1497 1546l-190 -272q211 -205 211 -561q0 -335 -187 -537q-188 -203 -493 -203q-212 0 -373 101l-143 -205h-152l197 281q-217 205 -217 563q0 335 189 537t499 202q212 0 370 -100l135 194h154zM435 1173q-134 -152 -134 -460
q0 -310 135 -463l703 1003q-118 70 -301 70q-270 0 -403 -150zM838 102q530 0 530 611q0 310 -133 461l-700 -1002q118 -70 303 -70z" />
    <glyph glyph-name="oslashacute" unicode="&#x1ff;" horiz-adv-x="1302" 
d="M721 1546h166l-185 -311h-112zM1081 1188h150l-213 -281q133 -145 133 -389q0 -246 -138 -395q-139 -150 -364 -150q-159 0 -278 78l-148 -194h-149l207 272q-131 151 -131 389q0 245 137 396q137 149 362 149q161 0 279 -78zM295 518q0 -183 61 -287l504 664
q-85 53 -211 53q-180 0 -267 -105.5t-87 -324.5zM1006 518q0 186 -64 289l-502 -666q83 -53 209 -53q180 0 268.5 106t88.5 324z" />
    <glyph glyph-name="uni0218" unicode="&#x218;" horiz-adv-x="1431" 
d="M723 -27q-264 0 -426 132q-162 130 -162 344h150q0 -177 107.5 -262t332.5 -85q426 0 426 256q-1 72 -34 123q-31 48 -138 98q-104 47 -301 85q-282 56 -394 141q-114 85 -114 235q0 186 149 299t392 113q252 0 406 -133q153 -133 153 -352h-150q0 182 -100 269t-311 87
q-395 0 -396 -262q0 -72 34 -118q35 -47 137 -87t294 -78q283 -55 400 -150q116 -96 116 -255q0 -181 -157 -290q-158 -110 -414 -110zM645 -319v118h180v-143q0 -100 -58 -156.5t-159 -56.5v72q131 0 131 118z" />
    <glyph glyph-name="uni0219" unicode="&#x219;" horiz-adv-x="1124" 
d="M586 -27q-215 0 -344 99q-129 98 -129 260h141q0 -129 81 -189.5t253 -60.5q291 0 291 170q0 82 -69 129t-265 84q-209 40 -305 110q-95 68 -95 187q0 135 113 218t299 83q198 0 319 -98q119 -99 119 -258h-143q0 127 -72.5 188t-224.5 61q-276 0 -276 -178
q0 -80 70 -123q67 -42 274 -80q208 -39 299 -112q92 -74 92 -199q0 -132 -117 -211q-119 -80 -311 -80zM485 -319v118h179v-143q0 -100 -57.5 -156.5t-157.5 -56.5v72q131 0 131 118z" />
    <glyph glyph-name="uni021A" unicode="&#x21a;" horiz-adv-x="1302" 
d="M31 1425h1241v-120h-549v-1305h-145v1305h-547v120zM655 -367l-94 48v118h180v-143q0 -100 -58 -156.5t-159 -56.5v72q131 0 131 118z" />
    <glyph glyph-name="uni021B" unicode="&#x21b;" horiz-adv-x="841" 
d="M569 98h238v-98q-106 -16 -254 -16q-152 0 -233.5 77.5t-81.5 223.5v641h-215v110h215l4 310h133v-310h426v-110h-426v-613q0 -124 41 -170q40 -45 153 -45zM532 -367l-94 48v118h178v-143q0 -100 -57 -156.5t-158 -56.5v72q131 0 131 118z" />
    <glyph glyph-name="uni0232" unicode="&#x232;" horiz-adv-x="1288" 
d="M367 1841h559v-112h-559v112zM776 829l346 596h144l-547 -948v-477h-146v477l-548 948h155l346 -596l125 -239z" />
    <glyph glyph-name="uni0233" unicode="&#x233;" horiz-adv-x="1089" 
d="M244 1452h559v-113h-559v113zM627 281l291 755h137l-473 -1220q-84 -215 -279 -215q-98 0 -158 16v100h131q75 0 113 26q37 25 66 97l61 160h-82l-401 1036h143l291 -755l80 -224z" />
    <glyph glyph-name="uni0237" unicode="&#x237;" horiz-adv-x="538" 
d="M215 -82v1118h137v-1142q0 -139 -70.5 -216t-197.5 -77q-86 0 -137 16v98h119q84 0 117 43q32 44 32 160z" />
    <glyph glyph-name="uni0259" unicode="&#x259;" horiz-adv-x="1249" 
d="M608 1063q223 0 360 -146q136 -146 136 -387q0 -251 -136 -403q-136 -154 -360 -154q-208 0 -335 133q-128 133 -128 347v88h813q-2 207 -88 307t-262 100q-309 0 -309 -243h-143q0 156 128 257t324 101zM608 88q315 0 346 358l-274 -4h-395q8 -182 86.5 -268t236.5 -86z
" />
    <glyph glyph-name="uni0272" unicode="&#x272;" horiz-adv-x="1327" 
d="M737 1063q172 0 279 -107q106 -107 106 -282v-674h-139v633q0 171 -66 242q-67 69 -221 69q-160 0 -252 -90t-92 -252v-708q0 -139 -70.5 -216t-197.5 -77q-86 0 -137 16v98h119q87 0 119 41q30 40 30 162v1118h133v-219q112 246 389 246z" />
    <glyph glyph-name="circumflex" unicode="&#x2c6;" horiz-adv-x="835" 
d="M535 1546l208 -311h-135l-170 264l-168 -264h-135l209 311h191z" />
    <glyph glyph-name="caron" unicode="&#x2c7;" horiz-adv-x="792" 
d="M395 1282l170 264h135l-208 -311h-191l-209 311h135z" />
    <glyph glyph-name="breve" unicode="&#x2d8;" horiz-adv-x="827" 
d="M582 1546h116q0 -143 -78 -230q-80 -87 -206 -87t-206 87q-79 86 -79 230h117q0 -117 40 -169t128 -52t128 52.5t40 168.5z" />
    <glyph glyph-name="dotaccent" unicode="&#x2d9;" horiz-adv-x="335" 
d="M80 1296v187h176v-187h-176z" />
    <glyph glyph-name="ring" unicode="&#x2da;" horiz-adv-x="569" 
d="M416 1274q-49 -45 -131 -45q-81 0 -131 45t-50 117q0 74 49.5 117.5t131.5 43.5t131 -44t49 -117q0 -72 -49 -117zM206 1319q22 -21 79 -21q55 0 79 21q23 20 23 72q0 49 -23.5 70.5t-78.5 21.5t-79 -21.5t-24 -70.5q0 -51 24 -72z" />
    <glyph glyph-name="ogonek" unicode="&#x2db;" horiz-adv-x="487" 
d="M403 -342v-88h-184q-76 0 -118 31.5t-42 87.5q0 63 60 123l166 188h96l-162 -205q-41 -52 -41 -86q0 -51 78 -51h147z" />
    <glyph glyph-name="tilde" unicode="&#x2dc;" horiz-adv-x="909" 
d="M610 1266q-72 0 -162 66q-91 65 -151 65q-109 0 -109 -127h-92q0 108 56 175q56 66 147 66q74 0 163 -65q88 -66 148 -66q111 0 111 127h92q0 -110 -55 -175q-56 -66 -148 -66z" />
    <glyph glyph-name="hungarumlaut" unicode="&#x2dd;" horiz-adv-x="710" 
d="M92 1235l115 311h135l-139 -311h-111zM324 1235l131 311h166l-187 -311h-110z" />
    <glyph glyph-name="gravecomb" unicode="&#x300;" horiz-adv-x="0" 
d="M-389 1546h164l133 -311h-111z" />
    <glyph glyph-name="acutecomb" unicode="&#x301;" horiz-adv-x="0" 
d="M-332 1235l131 311h166l-184 -311h-113z" />
    <glyph glyph-name="uni0302" unicode="&#x302;" horiz-adv-x="0" 
d="M-299 1546l207 -311h-135l-168 264l-168 -264h-137l208 311h193z" />
    <glyph glyph-name="tildecomb" unicode="&#x303;" horiz-adv-x="0" 
d="M-299 1266q-74 0 -164 66q-91 65 -149 65q-109 0 -109 -127h-92q0 110 55 175q56 66 148 66q74 0 163 -65q89 -66 148 -66q111 0 111 127h90q0 -110 -55 -175q-54 -66 -146 -66z" />
    <glyph glyph-name="uni0304" unicode="&#x304;" horiz-adv-x="0" 
d="M-651 1452h559v-113h-559v113z" />
    <glyph glyph-name="uni0306" unicode="&#x306;" horiz-adv-x="0" 
d="M-209 1546h117q0 -144 -79 -230q-79 -87 -208 -87q-126 0 -206 87q-79 86 -79 230h117q0 -115 40 -168t128 -53t129 53.5t41 167.5z" />
    <glyph glyph-name="uni0307" unicode="&#x307;" horiz-adv-x="0" 
d="M-256 1296v187h176v-187h-176z" />
    <glyph glyph-name="uni0308" unicode="&#x308;" horiz-adv-x="0" 
d="M-592 1296v187h176v-187h-176zM-266 1296v187h176v-187h-176z" />
    <glyph glyph-name="uni030A" unicode="&#x30a;" horiz-adv-x="0" 
d="M-274 1229q-80 0 -130.5 45t-50.5 117q0 74 50 117.5t131 43.5q82 0 132 -44t50 -117q0 -72 -50 -117t-132 -45zM-354 1319q24 -21 79 -21q57 0 79 21q24 19 24 72q0 49 -24 70.5t-79 21.5t-78.5 -21.5t-23.5 -70.5q0 -51 23 -72z" />
    <glyph glyph-name="uni030B" unicode="&#x30b;" horiz-adv-x="0" 
d="M-739 1235l114 311h136l-140 -311h-110zM-508 1235l131 311h166l-186 -311h-111z" />
    <glyph glyph-name="uni030C" unicode="&#x30c;" horiz-adv-x="0" 
d="M-401 1282l170 264h135l-209 -311h-191l-209 311h136z" />
    <glyph glyph-name="uni0312" unicode="&#x312;" horiz-adv-x="0" 
d="M-135 1356v-121h-180v145q0 98 57.5 152.5t159.5 54.5v-71q-133 0 -133 -115z" />
    <glyph glyph-name="dotbelowcomb" unicode="&#x323;" horiz-adv-x="0" 
d="M-270 -379v178h178v-178h-178z" />
    <glyph glyph-name="uni0326" unicode="&#x326;" horiz-adv-x="0" 
d="M-301 -319v118h178v-143q0 -100 -57.5 -156.5t-157.5 -56.5v72q131 0 131 118z" />
    <glyph glyph-name="uni0327" unicode="&#x327;" horiz-adv-x="0" 
d="M-332 -129h68q78 0 125 -40.5t47 -106.5q0 -70 -50.5 -112t-133.5 -42h-164v88h147q82 0 82 67q0 68 -82 68h-129v70l51 137h80z" />
    <glyph glyph-name="uni0328" unicode="&#x328;" horiz-adv-x="0" 
d="M-115 -342v-88h-184q-76 0 -118 31.5t-42 87.5q0 63 60 123l166 188h96l-162 -205q-41 -52 -41 -86q0 -51 78 -51h147z" />
    <glyph glyph-name="uni0394" unicode="&#x394;" horiz-adv-x="1345" 
d="M543 1425h254l479 -1304v-121h-1206v121zM666 1378l-93 -268l-360 -989h911l-364 989z" />
    <glyph glyph-name="uni03A9" unicode="&#x3a9;" horiz-adv-x="1677" 
d="M1004 106l241 11h279v-117h-547v188q395 74 395 547q0 588 -534 588q-532 0 -533 -588q0 -473 395 -547v-188h-546v117h278l242 -11q-236 33 -378 207q-142 173 -142 428q0 321 188 517q188 194 496 194q309 0 497 -194q187 -194 187 -517q0 -257 -141 -429
q-143 -173 -377 -206z" />
    <glyph glyph-name="uni03BC" unicode="&#x3bc;" horiz-adv-x="1312" 
d="M963 422v614h137v-1036h-131v205q-109 -231 -377 -232q-151 0 -248 88v-444h-133v1419h137v-616q0 -178 66 -253q64 -75 219 -75q153 0 242 87q88 87 88 243z" />
    <glyph glyph-name="pi" unicode="&#x3c0;" horiz-adv-x="1318" 
d="M1182 117h100v-99q-48 -16 -119 -16q-114 0 -176.5 65t-62.5 183v676h-549v-926h-137v926h-220v110h1262v-110h-217v-660q0 -88 24 -118q22 -31 95 -31z" />
    <glyph glyph-name="Wgrave" unicode="&#x1e80;" horiz-adv-x="2228" 
d="M1036 1935l133 -311h-110l-187 311h164zM1679 315l338 1110h146l-434 -1425h-236l-307 1100l-70 276l-67 -276l-308 -1100h-241l-434 1425h149l338 -1110l72 -258l65 258l309 1110h236l307 -1110l66 -258z" />
    <glyph glyph-name="wgrave" unicode="&#x1e81;" horiz-adv-x="1812" 
d="M831 1546l134 -311h-111l-186 311h163zM1380 281l238 755h145l-346 -1036h-213l-225 733l-70 246l-69 -246l-226 -733h-219l-346 1036h150l239 -755l70 -242l67 242l232 755h207l229 -755l68 -238z" />
    <glyph glyph-name="Wacute" unicode="&#x1e82;" horiz-adv-x="2228" 
d="M1188 1935h164l-185 -311h-112zM1679 315l338 1110h146l-434 -1425h-236l-307 1100l-70 276l-67 -276l-308 -1100h-241l-434 1425h149l338 -1110l72 -258l65 258l309 1110h236l307 -1110l66 -258z" />
    <glyph glyph-name="wacute" unicode="&#x1e83;" horiz-adv-x="1812" 
d="M981 1546h166l-184 -311h-113zM1380 281l238 755h145l-346 -1036h-213l-225 733l-70 246l-69 -246l-226 -733h-219l-346 1036h150l239 -755l70 -242l67 242l232 755h207l229 -755l68 -238z" />
    <glyph glyph-name="Wdieresis" unicode="&#x1e84;" horiz-adv-x="2228" 
d="M862 1872h176v-186h-176v186zM1188 1872h176v-186h-176v186zM1679 315l338 1110h146l-434 -1425h-236l-307 1100l-70 276l-67 -276l-308 -1100h-241l-434 1425h149l338 -1110l72 -258l65 258l309 1110h236l307 -1110l66 -258z" />
    <glyph glyph-name="wdieresis" unicode="&#x1e85;" horiz-adv-x="1812" 
d="M659 1483h177v-187h-177v187zM985 1483h176v-187h-176v187zM1380 281l238 755h145l-346 -1036h-213l-225 733l-70 246l-69 -246l-226 -733h-219l-346 1036h150l239 -755l70 -242l67 242l232 755h207l229 -755l68 -238z" />
    <glyph glyph-name="uni1EA0" unicode="&#x1ea0;" horiz-adv-x="1390" 
d="M817 1425l524 -1425h-151l-170 461h-662l-168 -461h-141l516 1425h252zM596 1110l-193 -528h574l-195 528l-94 268zM784 -379h-178v178h178v-178z" />
    <glyph glyph-name="uni1EA1" unicode="&#x1ea1;" horiz-adv-x="1183" 
d="M1118 96h27v-96q-60 -16 -121 -16q-93 0 -133.5 53t-40.5 176v27q-46 -125 -153 -196t-259 -71q-138 0 -224 68q-85 67 -85 180q0 103 69 169t224 97q367 80 424 99v39q0 171 -66 251t-207 80q-143 0 -210.5 -74.5t-67.5 -230.5h-137q0 187 114 299q113 113 301 113
q192 0 301 -107q107 -109 107 -297v-403q0 -106 24 -133q23 -27 113 -27zM469 86q171 0 274 90t103 258v68q-16 -5 -373 -90q-109 -27 -154 -68.5t-45 -110.5q0 -147 195 -147zM698 -379h-178v178h178v-178z" />
    <glyph glyph-name="uni1EB8" unicode="&#x1eb8;" horiz-adv-x="1351" 
d="M408 659v-538h766v-121h-912v1425h897v-120h-751v-523h710v-123h-710zM817 -379h-178v178h178v-178z" />
    <glyph glyph-name="uni1EB9" unicode="&#x1eb9;" horiz-adv-x="1247" 
d="M1104 584v-99h-813q6 -202 92 -299.5t260 -97.5q313 0 313 234h142q0 -153 -127 -250q-127 -99 -328 -99q-225 0 -361 150q-137 149 -137 395q0 247 136 396q135 149 358 149q209 0 337 -132q128 -133 128 -347zM293 582l276 4h396q-6 185 -86 273.5t-240 88.5
q-164 0 -249 -90t-97 -276zM727 -379h-178v178h178v-178z" />
    <glyph glyph-name="uni1EBC" unicode="&#x1ebc;" horiz-adv-x="1351" 
d="M545 1786q-109 0 -109 -127h-92q0 108 56 176q56 66 147 66q75 0 163 -66q89 -66 148 -66q111 0 111 127h90q0 -109 -54 -175q-55 -66 -147 -66q-72 0 -162 66q-91 65 -151 65zM408 659v-538h766v-121h-912v1425h897v-120h-751v-523h710v-123h-710z" />
    <glyph glyph-name="uni1EBD" unicode="&#x1ebd;" horiz-adv-x="1247" 
d="M483 1397q-109 0 -108 -127h-92q0 110 55 175q56 66 147 66q74 0 163 -65q88 -66 149 -66q111 0 110 127h90q0 -109 -54 -175t-146 -66q-72 0 -162 66q-92 65 -152 65zM1104 584v-99h-813q6 -202 92 -299.5t260 -97.5q313 0 313 234h142q0 -153 -127 -250
q-127 -99 -328 -99q-225 0 -361 150q-137 149 -137 395q0 247 136 396q135 149 358 149q209 0 337 -132q128 -133 128 -347zM293 582l276 4h396q-6 185 -86 273.5t-240 88.5q-164 0 -249 -90t-97 -276z" />
    <glyph glyph-name="uni1ECA" unicode="&#x1eca;" horiz-adv-x="671" 
d="M262 0v1425h146v-1425h-146zM246 -379v178h178v-178h-178z" />
    <glyph glyph-name="uni1ECB" unicode="&#x1ecb;" horiz-adv-x="557" 
d="M195 1296v187h176v-187h-176zM215 0v1036h137v-1036h-137zM190 -379v178h179v-178h-179z" />
    <glyph glyph-name="uni1ECC" unicode="&#x1ecc;" horiz-adv-x="1669" 
d="M838 -27q-309 0 -498 203q-190 202 -190 537t189 537t499 202q306 0 493 -202t187 -537t-187 -537q-188 -203 -493 -203zM838 102q530 0 530 611q0 610 -530 610q-271 0 -404 -151t-133 -459q0 -611 537 -611zM748 -379v178h178v-178h-178z" />
    <glyph glyph-name="uni1ECD" unicode="&#x1ecd;" horiz-adv-x="1292" 
d="M1009 123q-140 -150 -364 -150q-225 0 -362 150q-138 149 -138 395t138 396q137 149 362 149q224 0 364 -149q138 -150 138 -396t-138 -395zM645 88q180 0 268 105.5t88 324.5t-87 324.5t-269 105.5q-180 0 -267 -105.5t-87 -324.5q0 -430 354 -430zM555 -379v178h178
v-178h-178z" />
    <glyph glyph-name="uni1EE4" unicode="&#x1ee4;" horiz-adv-x="1585" 
d="M229 487v938h144v-931q0 -199 103.5 -295.5t316.5 -96.5t316 96.5t103 295.5v931h146v-938q0 -231 -155 -372q-155 -142 -410 -142t-409 142q-155 141 -155 372zM702 -379v178h179v-178h-179z" />
    <glyph glyph-name="uni1EE5" unicode="&#x1ee5;" horiz-adv-x="1312" 
d="M963 422v614h137v-1036h-131v209q-111 -236 -389 -236q-166 0 -267 108q-102 107 -102 281v674h137v-616q0 -178 66 -253q64 -75 219 -75q153 0 242 87q88 87 88 243zM741 -379h-178v178h178v-178z" />
    <glyph glyph-name="Ygrave" unicode="&#x1ef2;" horiz-adv-x="1288" 
d="M569 1935l133 -311h-110l-186 311h163zM776 829l346 596h144l-547 -948v-477h-146v477l-548 948h155l346 -596l125 -239z" />
    <glyph glyph-name="ygrave" unicode="&#x1ef3;" horiz-adv-x="1089" 
d="M444 1546l134 -311h-111l-186 311h163zM627 281l291 755h137l-473 -1220q-84 -215 -279 -215q-98 0 -158 16v100h131q75 0 113 26q37 25 66 97l61 160h-82l-401 1036h143l291 -755l80 -224z" />
    <glyph glyph-name="uni1EF8" unicode="&#x1ef8;" horiz-adv-x="1288" 
d="M487 1786q-109 0 -108 -127h-92q0 109 55 176q56 66 147 66q75 0 163 -66t149 -66q111 0 110 127h90q0 -109 -54 -175t-146 -66q-72 0 -162 66q-92 65 -152 65zM776 829l346 596h144l-547 -948v-477h-146v477l-548 948h155l346 -596l125 -239z" />
    <glyph glyph-name="uni1EF9" unicode="&#x1ef9;" horiz-adv-x="1089" 
d="M365 1397q-109 0 -109 -127h-92q0 110 55 175q56 66 148 66q74 0 163 -65q88 -66 148 -66q111 0 110 127h91q0 -109 -54 -175q-55 -66 -147 -66q-72 0 -162 66q-91 65 -151 65zM627 281l291 755h137l-473 -1220q-84 -215 -279 -215q-98 0 -158 16v100h131q75 0 113 26
q37 25 66 97l61 160h-82l-401 1036h143l291 -755l80 -224z" />
    <glyph glyph-name="endash" unicode="&#x2013;" horiz-adv-x="1062" 
d="M102 580h879v-115h-879v115z" />
    <glyph glyph-name="emdash" unicode="&#x2014;" horiz-adv-x="1650" 
d="M102 580h1467v-115h-1467v115z" />
    <glyph glyph-name="quoteleft" unicode="&#x2018;" horiz-adv-x="434" 
d="M317 1135v-148h-200v189q0 113 64 173t184 60v-86q-158 0 -158 -137z" />
    <glyph glyph-name="quoteright" unicode="&#x2019;" horiz-adv-x="434" 
d="M117 1233v149h200v-188q0 -113 -64.5 -174.5t-182.5 -61.5v86q78 0 117 35t38 105z" />
    <glyph glyph-name="quotesinglbase" unicode="&#x201a;" horiz-adv-x="403" 
d="M119 39v162h200v-201q0 -137 -64.5 -212t-182.5 -75v84q154 0 153 180z" />
    <glyph glyph-name="quotedblleft" unicode="&#x201c;" horiz-adv-x="768" 
d="M653 1135v-148h-200v189q0 113 63.5 173t181.5 60v-86q-78 0 -117 -34.5t-38 -102.5zM317 1128v-141h-200v174q0 111 64.5 171.5t183.5 60.5v-86q-158 0 -158 -129z" />
    <glyph glyph-name="quotedblright" unicode="&#x201d;" horiz-adv-x="768" 
d="M117 1233v149h200v-188q0 -113 -64.5 -174.5t-182.5 -61.5v86q78 0 117 35t38 105zM451 1239v143h200v-176q0 -111 -64.5 -170t-183.5 -59v84q158 0 158 129z" />
    <glyph glyph-name="quotedblbase" unicode="&#x201e;" horiz-adv-x="403" 
d="M119 39v162h200v-201q0 -137 -64.5 -212t-182.5 -75v84q154 0 153 180z" />
    <glyph glyph-name="dagger" unicode="&#x2020;" horiz-adv-x="755" 
d="M453 717h243v-123h-243v-315h-146v315h-248v123h248v708h146v-708z" />
    <glyph glyph-name="daggerdbl" unicode="&#x2021;" horiz-adv-x="755" 
d="M696 1178v-125h-243v-377h243v-123h-243v-274h-146v274h-248v123h248v377h-248v125h248v247h146v-247h243z" />
    <glyph glyph-name="bullet" unicode="&#x2022;" horiz-adv-x="520" 
d="M131 393v256h258v-256h-258z" />
    <glyph glyph-name="ellipsis" unicode="&#x2026;" horiz-adv-x="1140" 
d="M131 0v190h193v-190h-193zM496 0v190h190v-190h-190zM860 0v190h191v-190h-191z" />
    <glyph glyph-name="perthousand" unicode="&#x2030;" horiz-adv-x="1910" 
d="M617 901q-88 -88 -234 -88q-145 0 -233 88q-89 89 -89 232q0 142 89 231q88 88 233 88q146 0 234 -88t88 -231q0 -144 -88 -232zM1147 1425h151l-409 -622h-125zM383 1339q-90 0 -146 -56q-57 -55 -57 -150q0 -92 56 -148q56 -57 147 -57q93 0 149 55q56 56 56 150
t-56 150q-58 56 -149 56zM260 0h-151l409 623h125zM1538 614q139 0 224 -88t85 -231t-85 -231q-86 -89 -224 -89q-97 0 -165.5 53t-98.5 148q-30 -95 -98.5 -148t-165.5 -53q-139 0 -223 89q-85 88 -85 231t84 231t224 88q97 0 165.5 -52.5t98.5 -147.5q30 95 98.5 147.5
t165.5 52.5zM1024 88q90 0 147 57q56 56 56 150q0 91 -56 150q-57 57 -147 57q-92 0 -148 -57q-57 -59 -57 -150q0 -95 57 -150q56 -57 148 -57zM1379 145q55 -57 147 -57t148 57q55 55 55 150q0 92 -55 150q-55 57 -148 57q-92 0 -147 -57q-56 -59 -56 -150q0 -94 56 -150z
" />
    <glyph glyph-name="guilsinglleft" unicode="&#x2039;" horiz-adv-x="546" 
d="M354 907h154l-375 -379l375 -378h-154l-303 307v145z" />
    <glyph glyph-name="guilsinglright" unicode="&#x203a;" horiz-adv-x="546" 
d="M39 907h154l303 -305v-145l-303 -307h-154l375 378z" />
    <glyph glyph-name="fraction" unicode="&#x2044;" horiz-adv-x="286" 
d="M-483 0l1159 1434h125l-1159 -1434h-125z" />
    <glyph glyph-name="uni20AA" unicode="&#x20aa;" horiz-adv-x="1796" 
d="M1026 373v678q0 131 -52 189t-171 58h-434v-1298h-146v1425h598q158 0 254 -97q96 -98 96 -257v-698h-145zM1427 375v1050h146v-1071q-11 -162 -102 -258q-93 -96 -248 -96h-598v1053h145v-926h434q117 0 170 59.5t53 188.5z" />
    <glyph glyph-name="Euro" unicode="&#x20ac;" horiz-adv-x="1507" 
d="M328 907h528l-16 -96h-860v96h200q46 251 211 399q164 146 402 146q240 0 398 -140q157 -141 157 -378h-150q0 199 -99.5 294t-305.5 95q-397 0 -465 -416zM793 102q205 0 305 90.5t100 276.5h148q0 -231 -157 -363q-157 -133 -396 -133q-238 0 -402 149
q-165 150 -211 402h-200v97h823l-21 -97h-456q68 -422 467 -422z" />
    <glyph glyph-name="uni2113" unicode="&#x2113;" horiz-adv-x="815" 
d="M356 569v-313q0 -93 28 -125q28 -33 101 -33h140v-98q-70 -16 -164 -16q-117 0 -180.5 67.5t-63.5 188.5v325h-139v121h139v565q0 138 68 226q68 86 176 86t176 -122t68 -321q0 -231 -94 -379q-95 -150 -255 -172zM461 1446q-57 0 -81 -43t-24 -146v-571q119 11 171 113
q51 102 51 321q0 176 -27 251t-90 75z" />
    <glyph glyph-name="uni2116" unicode="&#x2116;" horiz-adv-x="2279" 
d="M1728 1371q80 81 214 81q133 0 214 -81q80 -82 80 -214q0 -133 -81 -214q-83 -81 -213 -81q-133 0 -214 81t-81 214t81 214zM1262 76l-11 364v985h146v-1425h-246l-752 1358l9 -318v-1040h-146v1425h252zM1757 1157q0 -201 185 -201q184 0 184 201t-184 201
q-185 0 -185 -201zM2036 575h-189v125h189v-125z" />
    <glyph glyph-name="trademark" unicode="&#x2122;" horiz-adv-x="1521" 
d="M-8 1425h565v-84h-231v-518h-103v518h-231v84zM1251 1425h187v-602h-103v482l4 98l-209 -580h-169l-205 576l2 -94v-482h-103v602h191l178 -497l25 -74l22 74z" />
    <glyph glyph-name="onethird" unicode="&#x2153;" horiz-adv-x="1464" 
d="M88 0l1157 1434h127l-1159 -1434h-125zM414 1276l4 119l-43 -41l-158 -137v122l98 86h209v-600h-110v451zM1194 315q168 -17 168 -157q0 -78 -69 -126q-71 -48 -183 -48t-177 55q-67 55 -67 145h111q0 -57 31.5 -83.5t101.5 -26.5q141 0 141 92q0 49 -27.5 70.5
t-90.5 21.5h-115v80h96q111 0 111 88q0 106 -119 106q-123 0 -123 -118h-111q0 94 64 152q63 57 170 57q102 0 166 -48q63 -49 63 -126q0 -115 -141 -134z" />
    <glyph glyph-name="twothirds" unicode="&#x2154;" horiz-adv-x="1464" 
d="M274 911h306v-86h-482v152l271 164q53 32 71 54q17 23 17 65q0 102 -115 102q-131 0 -131 -127h-111q0 98 67 158q67 59 175 59q102 0 163.5 -51t61.5 -137q0 -62 -33 -102q-34 -41 -120 -91l-203 -121l-74 -41zM94 0l1157 1434h127l-1159 -1434h-125zM1190 315
q166 -16 166 -157q0 -78 -69 -126q-71 -48 -183 -48t-177 55q-67 55 -67 145h111q0 -57 32 -83.5t103 -26.5q139 0 139 92q0 49 -27.5 70.5t-91.5 21.5h-114v80h96q113 0 113 88q0 106 -119 106q-123 0 -123 -118h-111q0 96 62.5 152.5t169.5 56.5q104 0 167 -48
q62 -50 62 -126q0 -112 -139 -134z" />
    <glyph glyph-name="oneeighth" unicode="&#x215b;" horiz-adv-x="1460" 
d="M88 0l1157 1434h127l-1159 -1434h-125zM401 1276l5 119l-46 -41l-155 -137v122l98 86h209v-600h-111v451zM1188 311q170 -33 170 -159q0 -76 -72 -122q-71 -46 -188 -46q-116 0 -186 46q-72 47 -72 122q0 127 170 159q-152 26 -152 140q0 78 65.5 125t174.5 47
q107 0 175 -47q66 -48 66 -125q1 -58 -37 -92.5t-114 -47.5zM969 434q0 -92 129 -92q131 0 131 92q0 98 -131 98q-68 0 -98.5 -23.5t-30.5 -74.5zM1098 74q150 0 150 100q-1 100 -150 100q-147 0 -147 -100t147 -100z" />
    <glyph glyph-name="threeeighths" unicode="&#x215c;" horiz-adv-x="1458" 
d="M362 903q140 0 142 92q0 92 -121 92h-115v80h97q56 0 84.5 22t27.5 66q0 105 -119 107q-61 0 -92 -30t-30 -89h-111q0 94 64 152q63 57 168 57q104 0 166.5 -48t62.5 -126q0 -110 -140 -133q166 -16 166 -158q0 -78 -69 -126q-71 -48 -183 -48q-108 0 -176 56
q-67 55 -67 145h110q0 -111 135 -111zM88 0l1157 1434h127l-1159 -1434h-125zM1157 311q170 -33 170 -159q0 -75 -71 -122q-71 -46 -187 -46q-118 0 -188 46q-72 47 -72 122q0 127 170 159q-152 26 -152 140q0 79 67 125q68 47 176 47q107 0 174 -47q65 -48 65 -125
q0 -114 -152 -140zM938 434q0 -92 131 -92q129 0 129 92q0 51 -30.5 74.5t-98.5 23.5q-131 0 -131 -98zM1069 74q147 0 148 100q0 100 -148 100q-150 0 -150 -100t150 -100z" />
    <glyph glyph-name="fiveeighths" unicode="&#x215d;" horiz-adv-x="1458" 
d="M88 0l1157 1434h127l-1159 -1434h-125zM406 901q64 0 95.5 28.5t30.5 86.5q0 117 -126 117q-94 0 -142 -64h-94l29 356h417v-90h-241l-90 2l-19 -225q56 102 174 102q92 0 147.5 -54t55.5 -144t-65 -146q-66 -57 -172 -57q-110 0 -177 53q-67 52 -67 135h110
q1 -100 134 -100zM1174 311q85 -17 127.5 -56.5t41.5 -102.5q0 -76 -70 -122t-187 -46q-118 0 -189 46q-72 47 -72 122q0 127 170 159q-75 13 -112.5 47.5t-36.5 92.5q0 78 65.5 125t174.5 47q107 0 174 -47q65 -48 65 -125q1 -58 -37 -92.5t-114 -47.5zM954 434
q0 -92 131 -92q129 0 129 92q0 51 -30.5 74.5t-98.5 23.5q-131 0 -131 -98zM1085 74q147 0 148 100q0 100 -148 100q-150 0 -150 -100t150 -100z" />
    <glyph glyph-name="seveneighths" unicode="&#x215e;" horiz-adv-x="1460" 
d="M88 0l1157 1434h127l-1159 -1434h-125zM612 1339l-133 -2h-278v88h434v-153q-100 -84 -154 -199q-57 -117 -57 -239h-109q0 140 80 276q78 133 217 229zM1190 311q170 -29 170 -159q0 -75 -71 -122q-71 -46 -189 -46q-117 0 -187 46q-71 47 -71 122q0 127 170 159
q-152 26 -152 140q0 78 65.5 125t174.5 47q107 0 174 -47q65 -48 65 -125q1 -58 -36.5 -92.5t-112.5 -47.5zM969 434q0 -92 131 -92t131 92q0 98 -131 98t-131 -98zM1100 74q150 0 150 100q-1 100 -150 100q-147 0 -147 -100t147 -100z" />
    <glyph glyph-name="arrowleft" unicode="&#x2190;" horiz-adv-x="1460" 
d="M285 772l1085 12v-143l-1085 12l481 -473l-92 -92l-625 625l625 624l90 -94z" />
    <glyph glyph-name="arrowup" unicode="&#x2191;" horiz-adv-x="1454" 
d="M735 1405l625 -625l-92 -92l-471 477l12 -1104h-143l12 1108l-473 -481l-94 92z" />
    <glyph glyph-name="arrowright" unicode="&#x2192;" horiz-adv-x="1460" 
d="M694 1243l92 94l625 -624l-625 -625l-92 92l480 473l-1084 -12v143l1084 -12z" />
    <glyph glyph-name="arrowdown" unicode="&#x2193;" horiz-adv-x="1454" 
d="M786 242l471 479l95 -90l-625 -625l-625 625l93 92l473 -479l-13 1106h144z" />
    <glyph glyph-name="arrowboth" unicode="&#x2194;" horiz-adv-x="1939" 
d="M1167 1237l93 92l595 -596l-595 -596l-93 92l455 447h-1305l453 -445l-90 -94l-596 596l596 596l92 -92l-453 -444h1301z" />
    <glyph glyph-name="arrowupdn" unicode="&#x2195;" horiz-adv-x="1329" 
d="M725 1356v-1284l442 448l95 -92l-598 -596l-596 596l92 92l446 -452v1288l-444 -451l-94 92l598 596l596 -596l-95 -92z" />
    <glyph glyph-name="uni2196" unicode="&#x2196;" horiz-adv-x="1167" 
d="M319 1079l793 -774l-102 -100l-774 792l6 -673h-131v880l884 2l-2 -131z" />
    <glyph glyph-name="uni2197" unicode="&#x2197;" horiz-adv-x="1167" 
d="M168 1104l-2 131h885v-883h-131l6 674l-774 -793l-103 101l795 776z" />
    <glyph glyph-name="uni2198" unicode="&#x2198;" horiz-adv-x="1167" 
d="M924 461l-4 676h131l-2 -885h-883v133l676 -6l-793 774l101 102z" />
    <glyph glyph-name="uni2199" unicode="&#x2199;" horiz-adv-x="1167" 
d="M1018 1255l100 -102l-792 -774l673 6v-133h-880l-2 885h131l-4 -674z" />
    <glyph glyph-name="partialdiff" unicode="&#x2202;" horiz-adv-x="1257" 
d="M240 1573l266 -68q635 -162 635 -819q0 -330 -135 -521q-136 -192 -371 -192q-219 0 -354 145q-136 143 -136 380q0 229 127 368q128 138 334 138q147 0 252 -78t141 -207q-1 289 -102 429t-356 212l-301 82v131zM635 96q174 0 258 99.5t84 304.5q0 385 -338 385
q-176 0 -262 -95.5t-86 -291.5q0 -402 344 -402z" />
    <glyph glyph-name="product" unicode="&#x220f;" horiz-adv-x="1337" 
d="M86 1425h1167v-120h-200v-1688h-146v1688h-479v-1688h-145v1688h-197v120z" />
    <glyph glyph-name="summation" unicode="&#x2211;" horiz-adv-x="1163" 
d="M1067 1425v-120h-672l-280 4l778 -674v-225l-782 -676l284 4h672v-121h-997v221l618 527l180 157l-180 156l-618 526v221h997z" />
    <glyph glyph-name="minus" unicode="&#x2212;" horiz-adv-x="987" 
d="M102 588h783v-113h-783v113z" />
    <glyph glyph-name="uni2215" unicode="&#x2215;" horiz-adv-x="512" 
d="M31 -383l340 1929h127l-340 -1929h-127z" />
    <glyph glyph-name="uni2219" unicode="&#x2219;" horiz-adv-x="542" 
d="M141 399v263h260v-263h-260z" />
    <glyph glyph-name="radical" unicode="&#x221a;" horiz-adv-x="1171" 
d="M758 1425h479v-120h-381l-356 -1688h-199l-317 1036h127l215 -708l71 -277l52 277z" />
    <glyph glyph-name="infinity" unicode="&#x221e;" horiz-adv-x="1927" 
d="M1432 922q186 0 299 -111q112 -111 112 -291q0 -181 -112 -290q-113 -111 -299 -111q-164 0 -280 98q-60 50 -97 95q-41 49 -90 118q-110 -152 -211 -231q-104 -80 -258 -80q-186 0 -300 111q-114 110 -114 290t114 291q112 111 300 111q155 0 258 -80q99 -77 211 -232
q49 69 90 118q37 45 97 95q117 99 280 99zM496 236q89 0 168 44q78 44 125 96q51 58 112 144q-68 94 -113 145t-124 96q-79 44 -168 44q-270 0 -270 -284q0 -285 270 -285zM1432 236q270 0 270 285q0 284 -270 284q-89 0 -168 -44t-125 -96q-45 -51 -113 -145
q64 -88 113 -144q46 -52 125 -96t168 -44z" />
    <glyph glyph-name="integral" unicode="&#x222b;" horiz-adv-x="817" 
d="M760 1448q94 0 153 -14l-16 -101h-145q-108 0 -155 -45q-46 -44 -67 -170l-213 -1212q-27 -146 -121.5 -225.5t-242.5 -79.5q-93 0 -154 14l17 100h145q106 0 154 45q48 46 67 170l213 1213q27 147 121 226t244 79z" />
    <glyph glyph-name="approxequal" unicode="&#x2248;" horiz-adv-x="1122" 
d="M215 604h-113q0 113 73 192q73 78 183 78q84 0 152 -44q72 -46 128 -87q59 -43 124 -43q68 0 107 47q38 47 38 105h113q0 -110 -74 -190t-184 -80q-81 0 -149 44q-60 38 -128 88q-62 44 -127 44q-68 0 -105 -46q-38 -47 -38 -108zM215 195h-113q0 113 73 192
q73 78 183 78q84 0 152 -44q72 -46 128 -87q59 -43 124 -43q68 0 107 46q38 47 38 105h113q0 -110 -74 -190t-184 -80q-81 0 -149 44q-60 38 -128 88q-62 44 -127 44q-68 0 -105 -46q-38 -47 -38 -107z" />
    <glyph glyph-name="notequal" unicode="&#x2260;" horiz-adv-x="1134" 
d="M932 793v-111h-268l-172 -301h440v-111h-496l-117 -198h-120l116 198h-213v111h269l172 301h-441v111h494l117 196h121l-117 -196h215z" />
    <glyph glyph-name="lessequal" unicode="&#x2264;" horiz-adv-x="976" 
d="M102 721l772 260v-115l-710 -239l710 -240v-113l-772 258v189zM874 86h-772v113h772v-113z" />
    <glyph glyph-name="greaterequal" unicode="&#x2265;" horiz-adv-x="976" 
d="M102 866v115l772 -260v-189l-772 -258v113l711 240zM874 86h-772v113h772v-113z" />
    <glyph glyph-name="uni2460" unicode="&#x2460;" horiz-adv-x="1667" 
d="M1373 176q-205 -203 -539 -203q-335 0 -540 203q-204 202 -204 537t204 537q203 202 540 202q336 0 539 -202q204 -202 204 -537t-204 -537zM380 253q172 -175 454 -175q281 0 453 175q173 176 173 460t-173 460q-172 175 -453 175q-282 0 -454 -175q-173 -176 -173 -460
t173 -460zM774 979l-182 -160v131l123 107h229v-688h-123v518l2 139z" />
    <glyph glyph-name="uni2461" unicode="&#x2461;" horiz-adv-x="1667" 
d="M1373 176q-205 -203 -539 -203q-335 0 -540 203q-204 202 -204 537t204 537q203 202 540 202q336 0 539 -202q204 -202 204 -537t-204 -537zM380 253q172 -175 454 -175q281 0 453 175q173 176 173 460t-173 460q-172 175 -453 175q-282 0 -454 -175q-173 -176 -173 -460
t173 -460zM1128 367h-555v174l314 184q61 37 82 64q20 26 20 73q0 117 -133 117q-76 0 -114 -36t-37 -109h-127q0 113 77 181t199 68q117 0 189 -60q71 -60 71 -157q0 -72 -39 -120q-40 -49 -135 -101l-235 -135l-89 -47l162 4h350v-100z" />
    <glyph glyph-name="uni2462" unicode="&#x2462;" horiz-adv-x="1667" 
d="M1373 176q-205 -203 -539 -203q-335 0 -540 203q-204 202 -204 537t204 537q203 202 540 202q336 0 539 -202q204 -202 204 -537t-204 -537zM380 253q172 -175 454 -175q281 0 453 175q173 176 173 460t-173 460q-172 175 -453 175q-282 0 -454 -175q-173 -176 -173 -460
t173 -460zM549 578h127q0 -129 155 -129q162 0 162 107q0 106 -137 106h-133v92h113q127 0 127 100q0 125 -138 125q-139 0 -139 -137h-129q0 109 74 174t194 65q118 0 192 -56q73 -55 73 -146q0 -127 -160 -152q190 -19 190 -180q0 -90 -79 -145q-80 -56 -212 -56
q-127 0 -203 64q-77 65 -77 168z" />
    <glyph glyph-name="uni2463" unicode="&#x2463;" horiz-adv-x="1667" 
d="M1373 176q-205 -203 -539 -203q-335 0 -540 203q-204 202 -204 537t204 537q203 202 540 202q336 0 539 -202q204 -202 204 -537t-204 -537zM380 253q172 -175 454 -175q281 0 453 175q173 176 173 460t-173 460q-172 175 -453 175q-282 0 -454 -175q-173 -176 -173 -460
t173 -460zM868 518h-325v207l243 332h205v-439h119v-100h-119v-149h-123v149zM874 1026l-301 -410l109 2h186v248z" />
    <glyph glyph-name="uni2464" unicode="&#x2464;" horiz-adv-x="1667" 
d="M1373 176q-205 -203 -539 -203q-335 0 -540 203q-204 202 -204 537t204 537q203 202 540 202q336 0 539 -202q204 -202 204 -537t-204 -537zM380 253q172 -175 454 -175q281 0 453 175q173 176 173 460t-173 460q-172 175 -453 175q-282 0 -454 -175q-173 -176 -173 -460
t173 -460zM559 565h127q0 -118 152 -116q145 0 145 133t-145 133q-111 0 -162 -72h-109l33 412h481v-103h-278l-105 2l-18 -256q63 111 199 111q103 0 168 -62q63 -63 63 -165q0 -105 -74 -170q-74 -64 -198 -64q-126 0 -203 60q-76 58 -76 157z" />
    <glyph glyph-name="uni2465" unicode="&#x2465;" horiz-adv-x="1667" 
d="M1373 176q-205 -203 -539 -203q-335 0 -540 203q-204 202 -204 537t204 537q203 202 540 202q336 0 539 -202q204 -202 204 -537t-204 -537zM380 253q172 -175 454 -175q281 0 453 175q173 176 173 460t-173 460q-172 175 -453 175q-282 0 -454 -175q-173 -176 -173 -460
t173 -460zM512 709q0 172 91 272t243 100q125 0 202 -59q76 -58 76 -156h-129q0 59 -35.5 87t-113.5 28q-107 0 -157 -65t-50 -207v-35q24 60 86.5 96.5t148.5 36.5q118 0 188 -60q71 -62 71 -159q0 -109 -79 -175q-79 -67 -208 -67q-152 0 -243 93q-91 91 -91 270zM651 592
q0 -144 195 -146q84 0 122 34t38 108q0 69 -38.5 100t-123.5 31q-193 0 -193 -127z" />
    <glyph glyph-name="uni2466" unicode="&#x2466;" horiz-adv-x="1667" 
d="M1373 176q-205 -203 -539 -203q-335 0 -540 203q-204 202 -204 537t204 537q203 202 540 202q336 0 539 -202q204 -202 204 -537t-204 -537zM380 253q172 -175 454 -175q281 0 453 175q173 176 173 460t-173 460q-172 175 -453 175q-282 0 -454 -175q-173 -176 -173 -460
t173 -460zM915 954h-321v103h502v-176q-114 -97 -178 -231q-66 -137 -66 -281h-123q0 163 90 321q90 157 246 266z" />
    <glyph glyph-name="uni2467" unicode="&#x2467;" horiz-adv-x="1667" 
d="M1373 176q-205 -203 -539 -203q-335 0 -540 203q-204 202 -204 537t204 537q203 202 540 202q336 0 539 -202q204 -202 204 -537t-204 -537zM380 253q172 -175 454 -175q281 0 453 175q173 176 173 460t-173 460q-172 175 -453 175q-282 0 -454 -175q-173 -176 -173 -460
t173 -460zM537 541q0 147 196 180q-176 33 -176 164q0 88 76 142q77 54 201 54q123 0 200 -54q76 -54 76 -142q0 -131 -176 -164q98 -17 147.5 -62t48.5 -118q0 -89 -81 -141q-83 -54 -215 -54q-134 0 -215 54q-82 52 -82 141zM684 862q0 -104 150 -104q149 0 149 104
q0 61 -36 89t-113 28q-78 0 -114 -28t-36 -89zM664 565q0 -118 170 -116q170 0 170 116q0 115 -170 115t-170 -115z" />
    <glyph glyph-name="uni2468" unicode="&#x2468;" horiz-adv-x="1667" 
d="M1373 176q-205 -203 -539 -203q-335 0 -540 203q-204 202 -204 537t204 537q203 202 540 202q336 0 539 -202q204 -202 204 -537t-204 -537zM380 253q172 -175 454 -175q281 0 453 175q173 176 173 460t-173 460q-172 175 -453 175q-282 0 -454 -175q-173 -176 -173 -460
t173 -460zM543 840q0 109 80 175q79 66 208 66q152 0 242 -93t90 -271q0 -169 -89 -270t-236 -101q-128 0 -207 61q-80 60 -80 156h129q0 -117 158 -117q104 0 151 63.5t47 207.5v35q-24 -58 -84.5 -94.5t-140.5 -36.5q-121 0 -194 61q-74 60 -74 158zM670 840
q0 -68 39.5 -98.5t126.5 -30.5q188 0 188 125q0 145 -193 145q-161 0 -161 -141z" />
    <glyph glyph-name="uni24EA" unicode="&#x24ea;" horiz-adv-x="1667" 
d="M1373 176q-205 -203 -539 -203q-335 0 -540 203q-204 202 -204 537t204 537q203 202 540 202q336 0 539 -202q204 -202 204 -537t-204 -537zM380 253q172 -175 454 -175q281 0 453 175q173 176 173 460t-173 460q-172 175 -453 175q-282 0 -454 -175q-173 -176 -173 -460
t173 -460zM1072 448q-92 -102 -238 -102q-148 0 -239 102q-91 100 -91 265q0 167 91 267q92 101 239 101q146 0 238 -101q91 -100 91 -267q0 -165 -91 -265zM631 713q0 -256 203 -256q202 0 202 256q0 258 -202 258q-203 0 -203 -258z" />
    <glyph glyph-name="uni24FF" unicode="&#x24ff;" horiz-adv-x="1667" 
d="M1372 177q-206 -204 -538 -204q-334 0 -539 204t-205 538q0 333 205 535t539 202q333 0 538 -202t205 -535q0 -334 -205 -538zM595 448q91 -102 239 -102q146 0 238 102q91 100 91 265q0 167 -91 267q-92 101 -238 101q-147 0 -239 -101q-91 -100 -91 -267
q0 -165 91 -265zM1036 713q0 -256 -202 -256q-203 0 -203 256q0 258 203 258q202 0 202 -258z" />
    <glyph glyph-name="lozenge" unicode="&#x25ca;" horiz-adv-x="1144" 
d="M465 1425h215l350 -712l-350 -713h-215l-350 713zM244 713l327 -668l330 668l-330 667z" />
    <glyph glyph-name="uni2766" unicode="&#x2766;" horiz-adv-x="817" 
d="M72 412h-33v241h33q0 -14 4.5 -21.5t14.5 -6.5q18 0 18 28h432v-241h-432q0 29 -18 29q-19 -1 -19 -29zM584 424v219q56 0 126 -38q68 -38 68 -70q0 -35 -68 -73q-70 -38 -126 -38zM506 451v36h-373v-36h373z" />
    <glyph glyph-name="uni2776" unicode="&#x2776;" horiz-adv-x="1667" 
d="M1372 177q-206 -204 -538 -204q-334 0 -539 204t-205 538q0 333 205 535t539 202q333 0 538 -202t205 -535q0 -334 -205 -538zM592 950v-131l182 160l49 47l-2 -139v-518h123v688h-229z" />
    <glyph glyph-name="uni2777" unicode="&#x2777;" horiz-adv-x="1667" 
d="M1373 176q-205 -203 -539 -203q-335 0 -540 203q-204 202 -204 537t204 537q203 202 540 202q336 0 539 -202q204 -202 204 -537t-204 -537zM573 541v-174h555v100h-350l-162 -4l89 47l235 135q96 53 135 102q39 48 39 119q0 95 -71 157q-72 60 -189 60q-122 0 -199 -68
q-77 -69 -77 -181h127q0 145 151 145q133 0 133 -117q0 -47 -20 -73q-21 -27 -82 -64z" />
    <glyph glyph-name="uni2778" unicode="&#x2778;" horiz-adv-x="1667" 
d="M1373 176q-205 -203 -539 -203q-335 0 -540 203q-204 202 -204 537t204 537q203 202 540 202q336 0 539 -202q204 -202 204 -537t-204 -537zM676 578h-127q0 -103 77 -168q76 -64 203 -64q131 0 211 56t80 145q0 161 -190 180q160 25 160 152q0 91 -73 146
q-74 56 -192 56q-120 0 -194 -65q-74 -66 -74 -174h129q0 137 139 137q136 0 138 -125q0 -100 -127 -100h-113v-92h133q137 0 137 -106q0 -107 -162 -107q-78 0 -117 32.5t-38 96.5z" />
    <glyph glyph-name="uni2779" unicode="&#x2779;" horiz-adv-x="1667" 
d="M1373 176q-205 -203 -539 -203q-335 0 -540 203q-204 202 -204 537t204 537q203 202 540 202q336 0 539 -202q204 -202 204 -537t-204 -537zM543 725v-207h325v-149h123v149h119v100h-119v439h-205zM682 618l-109 -2l301 410l-6 -160v-248h-186z" />
    <glyph glyph-name="uni277A" unicode="&#x277a;" horiz-adv-x="1667" 
d="M1373 176q-205 -203 -539 -203q-335 0 -540 203q-204 202 -204 537t204 537q203 202 540 202q336 0 539 -202q204 -202 204 -537t-204 -537zM686 565h-127q0 -99 76 -157q77 -60 203 -60q124 0 198 64q74 63 74 170q0 102 -63 165q-65 62 -168 62q-135 0 -199 -111
l18 256l105 -2h278v103h-481l-33 -412h109q51 72 162 72q145 0 145 -133t-145 -133q-152 0 -152 116z" />
    <glyph glyph-name="uni277B" unicode="&#x277b;" horiz-adv-x="1667" 
d="M1372 177q-206 -204 -538 -204q-334 0 -539 204t-205 538q0 333 205 535t539 202q333 0 538 -202t205 -535q0 -334 -205 -538zM512 709q0 -179 91 -270q91 -93 243 -93q129 0 208 67q79 66 79 175q0 97 -71 159q-70 60 -188 60q-86 0 -148.5 -36.5t-86.5 -96.5v35
q0 143 49.5 207.5t157.5 64.5q78 0 113.5 -27.5t35.5 -87.5h129q0 96 -76 156q-77 59 -202 59q-152 0 -243 -100t-91 -272zM651 592q0 127 193 127q84 0 123 -31t39 -100q0 -74 -38 -108t-122 -34q-195 2 -195 146z" />
    <glyph glyph-name="uni277C" unicode="&#x277c;" horiz-adv-x="1667" 
d="M1372 177q-206 -204 -538 -204q-334 0 -539 204t-205 538q0 333 205 535t539 202q333 0 538 -202t205 -535q0 -334 -205 -538zM594 1057v-103h321l150 2q-156 -111 -246 -267q-90 -157 -90 -320h123q0 145 66 280q63 133 178 232v176h-502z" />
    <glyph glyph-name="uni277D" unicode="&#x277d;" horiz-adv-x="1667" 
d="M1373 176q-205 -203 -539 -203q-335 0 -540 203q-204 202 -204 537t204 537q203 202 540 202q336 0 539 -202q204 -202 204 -537t-204 -537zM537 541q0 -89 82 -141q81 -54 215 -54q132 0 215 54q81 52 81 141q0 147 -196 180q176 33 176 164q0 88 -76 142t-200 54
t-201 -54q-76 -54 -76 -142q0 -131 176 -164q-196 -33 -196 -180zM684 862q0 61 36 89t114 28t113.5 -27.5t35.5 -89.5q0 -104 -149 -104q-150 0 -150 104zM664 565q0 115 170 115t170 -115q0 -117 -170 -117t-170 117z" />
    <glyph glyph-name="uni277E" unicode="&#x277e;" horiz-adv-x="1667" 
d="M1373 176q-205 -203 -539 -203q-335 0 -540 203q-204 202 -204 537t204 537q203 202 540 202q336 0 539 -202q204 -202 204 -537t-204 -537zM543 840q0 -98 74 -158q73 -61 194 -61q81 0 142 36t83 95v-35q0 -143 -47 -207t-151 -64q-158 0 -158 117h-129q0 -96 80 -156
q79 -61 207 -61q147 0 236 101t89 270q0 178 -90 271t-242 93q-129 0 -208 -66q-80 -66 -80 -175zM670 840q0 141 161 141q193 0 193 -145q0 -125 -188 -125q-87 0 -126.5 30.5t-39.5 98.5z" />
    <glyph glyph-name="uniF8FF" unicode="&#xf8ff;" horiz-adv-x="1204" 
d="M1116 1180l27 -230l-8 -6q-62 98 -139 122q-80 25 -343 26q-13 -207 -14 -295q87 1 148 44q59 43 110 144h6l-22 -145q-90 -75 -242 -80v-66q0 -119 4 -291q133 0 199 3q0 172 -15 284q-36 11 -88 19v6q143 27 246 71l2 -6q-41 -45 -54 -118q-13 -71 -13 -279
q0 -221 12 -340l78 -37v-6h-332v6l151 53q11 97 13 295q-88 2 -197 2q2 -34 2 -72q0 -41 2 -71l-108 -66l-4 7q7 56 20 202q-109 0 -197 -2q0 -198 13 -295l153 -53v-6h-333v6l77 37q11 113 13 340q0 207 -12 280q-14 73 -56 117l2 6q92 -42 246 -71v-6q-46 -7 -88 -19
q-13 -112 -15 -284q133 0 199 -3q6 125 6 291v70q-132 18 -215 103q-85 86 -92 210q-75 -12 -109 -39q-36 -28 -79 -94l-9 6q17 137 23 189l8 41q52 -33 168 -39q13 138 116 226q101 87 253 87q113 0 223 -65l31 57l12 -8q-20 -101 -21 -221h-4q-56 203 -241 204
q-114 2 -190 -77q-77 -80 -87 -207q82 -2 248 -2q286 0 374 9t138 36h4zM350 1087q4 -108 63 -185q59 -76 150 -99q-2 144 -12 289q-132 -2 -201 -5z" />
    <glyph glyph-name="I.ss02" horiz-adv-x="1028" 
d="M891 1425v-120h-305v-1184h305v-121h-754v121h303v1184h-303v120h754z" />
    <glyph glyph-name="Iacute.ss02" horiz-adv-x="1028" 
d="M588 1935h164l-185 -311h-112zM891 1425v-120h-305v-1184h305v-121h-754v121h303v1184h-303v120h754z" />
    <glyph glyph-name="Ibreve.ss02" horiz-adv-x="1028" 
d="M514 1618q-126 0 -206 87q-79 86 -79 230h117q0 -115 40 -168t128 -53t129 53.5t41 167.5h117q0 -144 -79 -230q-80 -87 -208 -87zM891 1425v-120h-305v-1184h305v-121h-754v121h303v1184h-303v120h754z" />
    <glyph glyph-name="Icircumflex.ss02" horiz-adv-x="1028" 
d="M684 1624l-168 264l-168 -264h-137l209 311h192l207 -311h-135zM891 1425v-120h-305v-1184h305v-121h-754v121h303v1184h-303v120h754z" />
    <glyph glyph-name="Idieresis.ss02" horiz-adv-x="1028" 
d="M262 1872h176v-186h-176v186zM588 1872h176v-186h-176v186zM891 1425v-120h-305v-1184h305v-121h-754v121h303v1184h-303v120h754z" />
    <glyph glyph-name="Idotaccent.ss02" horiz-adv-x="1028" 
d="M424 1872h176v-186h-176v186zM891 1425v-120h-305v-1184h305v-121h-754v121h303v1184h-303v120h754z" />
    <glyph glyph-name="uni1ECA.ss02" horiz-adv-x="1028" 
d="M891 1425v-120h-305v-1184h305v-121h-754v121h303v1184h-303v120h754zM602 -379h-178v178h178v-178z" />
    <glyph glyph-name="Igrave.ss02" horiz-adv-x="1028" 
d="M436 1935l133 -311h-110l-187 311h164zM891 1425v-120h-305v-1184h305v-121h-754v121h303v1184h-303v120h754z" />
    <glyph glyph-name="Imacron.ss02" horiz-adv-x="1028" 
d="M236 1841h559v-112h-559v112zM891 1425v-120h-305v-1184h305v-121h-754v121h303v1184h-303v120h754z" />
    <glyph glyph-name="Iogonek.ss02" horiz-adv-x="1028" 
d="M891 1425v-120h-305v-1184h305v-121h-303l-162 -205q-41 -52 -41 -86q0 -51 78 -51h147v-88h-184q-76 0 -118 31.5t-42 87.5q0 63 60 123l166 188h-355v121h303v1184h-303v120h754z" />
    <glyph glyph-name="Itilde.ss02" horiz-adv-x="1028" 
d="M356 1786q-109 0 -108 -127h-92q0 109 55 176q55 66 147 66q75 0 163 -66t149 -66q111 0 110 127h90q0 -109 -54 -175t-146 -66q-72 0 -162 66q-92 65 -152 65zM891 1425v-120h-305v-1184h305v-121h-754v121h303v1184h-303v120h754z" />
    <glyph glyph-name="Z.ss03" horiz-adv-x="1257" 
d="M166 117l289 4h733v-121h-1092v233l1016 1076l-289 -4h-721v120h1080v-231z" />
    <glyph glyph-name="Zacute.ss03" horiz-adv-x="1257" 
d="M727 1935h164l-184 -311h-113zM166 117l289 4h733v-121h-1092v233l1016 1076l-289 -4h-721v120h1080v-231z" />
    <glyph glyph-name="Zcaron.ss03" horiz-adv-x="1257" 
d="M745 1624h-190l-209 311h135l168 -264l170 264h135zM166 117l289 4h733v-121h-1092v233l1016 1076l-289 -4h-721v120h1080v-231z" />
    <glyph glyph-name="Zdotaccent.ss03" horiz-adv-x="1257" 
d="M563 1872h176v-186h-176v186zM166 117l289 4h733v-121h-1092v233l1016 1076l-289 -4h-721v120h1080v-231z" />
    <glyph glyph-name="a.salt" horiz-adv-x="1353" 
d="M1006 819v217h133v-1036h-133v227q-53 -124 -154 -189t-236 -65q-216 0 -343 150q-128 149 -128 395q0 245 128 396q128 149 343 149q133 0 235 -63t155 -181zM645 88q182 0 269 105.5t87 324.5t-87 324.5t-269 105.5q-180 0 -267 -105.5t-87 -324.5t87 -324.5
t267 -105.5z" />
    <glyph glyph-name="aacute.salt" horiz-adv-x="1353" 
d="M735 1546h166l-184 -311h-113zM1006 819v217h133v-1036h-133v227q-53 -124 -154 -189t-236 -65q-216 0 -343 150q-128 149 -128 395q0 245 128 396q128 149 343 149q133 0 235 -63t155 -181zM645 88q182 0 269 105.5t87 324.5t-87 324.5t-269 105.5q-180 0 -267 -105.5
t-87 -324.5t87 -324.5t267 -105.5z" />
    <glyph glyph-name="abreve.salt" horiz-adv-x="1353" 
d="M664 1229q-126 0 -206 87q-79 86 -79 230h117q0 -115 40 -168t128 -53t129 53.5t41 167.5h116q0 -143 -78 -230q-80 -87 -208 -87zM1006 819v217h133v-1036h-133v227q-53 -124 -154 -189t-236 -65q-216 0 -343 150q-128 149 -128 395q0 245 128 396q128 149 343 149
q133 0 235 -63t155 -181zM645 88q182 0 269 105.5t87 324.5t-87 324.5t-269 105.5q-180 0 -267 -105.5t-87 -324.5t87 -324.5t267 -105.5z" />
    <glyph glyph-name="acircumflex.salt" horiz-adv-x="1353" 
d="M834 1235l-168 264l-168 -264h-138l209 311h193l207 -311h-135zM1006 819v217h133v-1036h-133v227q-53 -124 -154 -189t-236 -65q-216 0 -343 150q-128 149 -128 395q0 245 128 396q128 149 343 149q133 0 235 -63t155 -181zM645 88q182 0 269 105.5t87 324.5t-87 324.5
t-269 105.5q-180 0 -267 -105.5t-87 -324.5t87 -324.5t267 -105.5z" />
    <glyph glyph-name="adieresis.salt" horiz-adv-x="1353" 
d="M414 1483h176v-187h-176v187zM739 1483h176v-187h-176v187zM1006 819v217h133v-1036h-133v227q-53 -124 -154 -189t-236 -65q-216 0 -343 150q-128 149 -128 395q0 245 128 396q128 149 343 149q133 0 235 -63t155 -181zM645 88q182 0 269 105.5t87 324.5t-87 324.5
t-269 105.5q-180 0 -267 -105.5t-87 -324.5t87 -324.5t267 -105.5z" />
    <glyph glyph-name="uni1EA1.salt" horiz-adv-x="1353" 
d="M1006 819v217h133v-1036h-133v227q-53 -124 -154 -189t-236 -65q-216 0 -343 150q-128 149 -128 395q0 245 128 396q128 149 343 149q133 0 235 -63t155 -181zM645 88q182 0 269 105.5t87 324.5t-87 324.5t-269 105.5q-180 0 -267 -105.5t-87 -324.5t87 -324.5
t267 -105.5zM774 -379h-178v178h178v-178z" />
    <glyph glyph-name="agrave.salt" horiz-adv-x="1353" 
d="M586 1546l133 -311h-111l-186 311h164zM1006 819v217h133v-1036h-133v227q-53 -124 -154 -189t-236 -65q-216 0 -343 150q-128 149 -128 395q0 245 128 396q128 149 343 149q133 0 235 -63t155 -181zM645 88q182 0 269 105.5t87 324.5t-87 324.5t-269 105.5
q-180 0 -267 -105.5t-87 -324.5t87 -324.5t267 -105.5z" />
    <glyph glyph-name="amacron.salt" horiz-adv-x="1353" 
d="M385 1452h559v-113h-559v113zM1006 819v217h133v-1036h-133v227q-53 -124 -154 -189t-236 -65q-216 0 -343 150q-128 149 -128 395q0 245 128 396q128 149 343 149q133 0 235 -63t155 -181zM645 88q182 0 269 105.5t87 324.5t-87 324.5t-269 105.5q-180 0 -267 -105.5
t-87 -324.5t87 -324.5t267 -105.5z" />
    <glyph glyph-name="aogonek.salt" horiz-adv-x="1353" 
d="M1014 -342h147v-88h-184q-76 0 -118 31.5t-42 87.5q0 63 60 123l165 188h-36v227q-53 -124 -154 -189t-236 -65q-216 0 -343 150q-128 149 -128 395q0 245 128 396q128 149 343 149q133 0 235 -63t155 -181v217h133v-1036l-162 -205q-41 -52 -41 -86q0 -51 78 -51z
M645 88q182 0 269 105.5t87 324.5t-87 324.5t-269 105.5q-180 0 -267 -105.5t-87 -324.5t87 -324.5t267 -105.5z" />
    <glyph glyph-name="aring.salt" horiz-adv-x="1353" 
d="M664 1229q-80 0 -130.5 45t-50.5 117q0 74 50 117.5t131 43.5q82 0 132 -44t50 -117q0 -72 -50 -117t-132 -45zM743 1462q-24 21 -79 21q-56 0 -79 -21q-24 -22 -24 -71q0 -51 23.5 -72t79.5 -21t79 21t23 72q0 48 -23 71zM1006 819v217h133v-1036h-133v227
q-53 -124 -154 -189t-236 -65q-216 0 -343 150q-128 149 -128 395q0 245 128 396q128 149 343 149q133 0 235 -63t155 -181zM645 88q182 0 269 105.5t87 324.5t-87 324.5t-269 105.5q-180 0 -267 -105.5t-87 -324.5t87 -324.5t267 -105.5z" />
    <glyph glyph-name="aringacute.salt" horiz-adv-x="1353" 
d="M791 1229q-81 0 -131 45t-50 117q0 74 49.5 117.5t131.5 43.5q24 0 38 -2l95 181h120l-141 -209q68 -45 68 -131q0 -72 -50 -117t-130 -45zM870 1462q-24 21 -79 21q-57 0 -79 -21q-24 -22 -24 -71q0 -51 23.5 -72t79.5 -21t79 21t23 72q0 48 -23 71zM1006 819v217h133
v-1036h-133v227q-53 -124 -154 -189t-236 -65q-216 0 -343 150q-128 149 -128 395q0 245 128 396q128 149 343 149q133 0 235 -63t155 -181zM645 88q182 0 269 105.5t87 324.5t-87 324.5t-269 105.5q-180 0 -267 -105.5t-87 -324.5t87 -324.5t267 -105.5z" />
    <glyph glyph-name="atilde.salt" horiz-adv-x="1353" 
d="M506 1397q-109 0 -109 -127h-92q0 108 56 175q55 66 147 66q74 0 163 -65q89 -66 148 -66q111 0 111 127h90q0 -109 -54 -175q-56 -66 -147 -66q-74 0 -164 66q-91 65 -149 65zM1006 819v217h133v-1036h-133v227q-53 -124 -154 -189t-236 -65q-216 0 -343 150
q-128 149 -128 395q0 245 128 396q128 149 343 149q133 0 235 -63t155 -181zM645 88q182 0 269 105.5t87 324.5t-87 324.5t-269 105.5q-180 0 -267 -105.5t-87 -324.5t87 -324.5t267 -105.5z" />
    <glyph glyph-name="g.salt" horiz-adv-x="1353" 
d="M1004 823v213h135v-987q0 -203 -131 -326q-131 -122 -344 -122q-219 0 -352 109q-134 110 -134 290h141q0 -150 83.5 -219.5t261.5 -69.5q174 0 255.5 94.5t81.5 296.5v172q-102 -231 -378 -231q-215 0 -346 140q-132 139 -132 366q0 231 132 373q131 141 346 141
q132 0 231.5 -62t149.5 -178zM651 156q350 0 350 389q0 205 -86 304t-264 99q-183 0 -271.5 -98t-88.5 -301q0 -199 89 -296t271 -97z" />
    <glyph glyph-name="gbreve.salt" horiz-adv-x="1353" 
d="M655 1237q-127 0 -205 87q-79 86 -79 230h116q0 -115 40 -168t128 -53t129 53.5t41 167.5h117q0 -144 -79 -230q-79 -87 -208 -87zM1004 823v213h135v-987q0 -203 -131 -326q-131 -122 -344 -122q-219 0 -352 109q-134 110 -134 290h141q0 -150 83.5 -219.5t261.5 -69.5
q174 0 255.5 94.5t81.5 296.5v172q-102 -231 -378 -231q-215 0 -346 140q-132 139 -132 366q0 231 132 373q131 141 346 141q132 0 231.5 -62t149.5 -178zM651 156q350 0 350 389q0 205 -86 304t-264 99q-183 0 -271.5 -98t-88.5 -301q0 -199 89 -296t271 -97z" />
    <glyph glyph-name="gcaron.salt" horiz-adv-x="1353" 
d="M748 1243h-191l-209 311h135l168 -264l170 264h135zM1004 823v213h135v-987q0 -203 -131 -326q-131 -122 -344 -122q-219 0 -352 109q-134 110 -134 290h141q0 -150 83.5 -219.5t261.5 -69.5q174 0 255.5 94.5t81.5 296.5v172q-102 -231 -378 -231q-215 0 -346 140
q-132 139 -132 366q0 231 132 373q131 141 346 141q132 0 231.5 -62t149.5 -178zM651 156q350 0 350 389q0 205 -86 304t-264 99q-183 0 -271.5 -98t-88.5 -301q0 -199 89 -296t271 -97z" />
    <glyph glyph-name="gcircumflex.salt" horiz-adv-x="1353" 
d="M825 1243l-168 264l-168 -264h-137l209 311h193l207 -311h-136zM1004 823v213h135v-987q0 -203 -131 -326q-131 -122 -344 -122q-219 0 -352 109q-134 110 -134 290h141q0 -150 83.5 -219.5t261.5 -69.5q174 0 255.5 94.5t81.5 296.5v172q-102 -231 -378 -231
q-215 0 -346 140q-132 139 -132 366q0 231 132 373q131 141 346 141q132 0 231.5 -62t149.5 -178zM651 156q350 0 350 389q0 205 -86 304t-264 99q-183 0 -271.5 -98t-88.5 -301q0 -199 89 -296t271 -97z" />
    <glyph glyph-name="uni0123.salt" horiz-adv-x="1353" 
d="M637 1409l96 -45v-121h-180v146q0 97 58 151.5t159 54.5v-71q-133 0 -133 -115zM1004 823v213h135v-987q0 -203 -131 -326q-131 -122 -344 -122q-219 0 -352 109q-134 110 -134 290h141q0 -150 83.5 -219.5t261.5 -69.5q174 0 255.5 94.5t81.5 296.5v172
q-102 -231 -378 -231q-215 0 -346 140q-132 139 -132 366q0 231 132 373q131 141 346 141q132 0 231.5 -62t149.5 -178zM651 156q350 0 350 389q0 205 -86 304t-264 99q-183 0 -271.5 -98t-88.5 -301q0 -199 89 -296t271 -97z" />
    <glyph glyph-name="gdotaccent.salt" horiz-adv-x="1353" 
d="M565 1491h176v-186h-176v186zM1004 823v213h135v-987q0 -203 -131 -326q-131 -122 -344 -122q-219 0 -352 109q-134 110 -134 290h141q0 -150 83.5 -219.5t261.5 -69.5q174 0 255.5 94.5t81.5 296.5v172q-102 -231 -378 -231q-215 0 -346 140q-132 139 -132 366
q0 231 132 373q131 141 346 141q132 0 231.5 -62t149.5 -178zM651 156q350 0 350 389q0 205 -86 304t-264 99q-183 0 -271.5 -98t-88.5 -301q0 -199 89 -296t271 -97z" />
    <glyph glyph-name="l.salt" horiz-adv-x="567" 
d="M215 0v1546h137v-1546h-137z" />
    <glyph glyph-name="lacute.salt" horiz-adv-x="567" 
d="M219 1661l131 311h166l-184 -311h-113zM215 0v1546h137v-1546h-137z" />
    <glyph glyph-name="lcaron.salt" horiz-adv-x="567" 
d="M215 0v1546h137v-1546h-137zM539 1425v121h180v-145q0 -104 -58.5 -162.5t-158.5 -58.5v71q131 0 131 129z" />
    <glyph glyph-name="uni013C.salt" horiz-adv-x="567" 
d="M215 0v1546h137v-1546h-137zM190 -319v118h179v-143q0 -100 -57.5 -156.5t-157.5 -56.5v72q131 0 131 118z" />
    <glyph glyph-name="ldot.salt" horiz-adv-x="702" 
d="M215 0v1546h137v-1546h-137zM514 676v174h172v-174h-172z" />
    <glyph glyph-name="lslash.salt" horiz-adv-x="618" 
d="M352 819l207 166v-131l-207 -166v-688h-137v612l-184 -143v131l184 143v803h137v-727z" />
    <glyph glyph-name="y.salt" horiz-adv-x="1089" 
d="M627 281l291 755h137l-551 -1419h-137l149 383h-82l-401 1036h143l291 -755l80 -224z" />
    <glyph glyph-name="yacute.salt" horiz-adv-x="1089" 
d="M606 1546h166l-184 -311h-113zM627 281l291 755h137l-551 -1419h-137l149 383h-82l-401 1036h143l291 -755l80 -224z" />
    <glyph glyph-name="ycircumflex.salt" horiz-adv-x="1089" 
d="M705 1235l-168 264l-168 -264h-138l209 311h193l207 -311h-135zM627 281l291 755h137l-551 -1419h-137l149 383h-82l-401 1036h143l291 -755l80 -224z" />
    <glyph glyph-name="ydieresis.salt" horiz-adv-x="1089" 
d="M283 1483h176v-187h-176v187zM608 1483h176v-187h-176v187zM627 281l291 755h137l-551 -1419h-137l149 383h-82l-401 1036h143l291 -755l80 -224z" />
    <glyph glyph-name="ygrave.salt" horiz-adv-x="1089" 
d="M457 1546l133 -311h-111l-186 311h164zM627 281l291 755h137l-551 -1419h-137l149 383h-82l-401 1036h143l291 -755l80 -224z" />
    <glyph glyph-name="uni0233.salt" horiz-adv-x="1089" 
d="M256 1452h559v-113h-559v113zM627 281l291 755h137l-551 -1419h-137l149 383h-82l-401 1036h143l291 -755l80 -224z" />
    <glyph glyph-name="uni1EF9.salt" horiz-adv-x="1089" 
d="M377 1397q-109 0 -109 -127h-92q0 108 56 175q56 66 147 66q74 0 163 -65q88 -66 148 -66q111 0 111 127h90q0 -109 -54 -175q-55 -66 -147 -66q-72 0 -162 66q-91 65 -151 65zM627 281l291 755h137l-551 -1419h-137l149 383h-82l-401 1036h143l291 -755l80 -224z" />
    <glyph glyph-name="z.ss03" horiz-adv-x="1009" 
d="M156 111l204 6h568v-117h-836v205l766 721l-207 -6h-549v116h816v-211z" />
    <glyph glyph-name="zacute.ss03" horiz-adv-x="1009" 
d="M586 1546h166l-185 -311h-112zM156 111l204 6h568v-117h-836v205l766 721l-207 -6h-549v116h816v-211z" />
    <glyph glyph-name="zcaron.ss03" horiz-adv-x="1009" 
d="M606 1235h-190l-209 311h135l168 -264l170 264h135zM156 111l204 6h568v-117h-836v205l766 721l-207 -6h-549v116h816v-211z" />
    <glyph glyph-name="zdotaccent.ss03" horiz-adv-x="1009" 
d="M424 1483h176v-187h-176v187zM156 111l204 6h568v-117h-836v205l766 721l-207 -6h-549v116h816v-211z" />
    <glyph glyph-name="f_f_j.dlig" horiz-adv-x="2050" 
d="M1128 1036h717v-1142q0 -139 -70.5 -216t-197.5 -77q-86 0 -137 16v98h119q88 0 118 41q29 41 29 162v1008h-578v-926h-139v926h-606v-926h-137v926h-213v110h213v168q0 145 82.5 225t232.5 80t254 -14v-100h-242q-111 0 -150 -45q-40 -44 -40 -170v-144h606v221
q0 146 82.5 226t235.5 80q141 0 227 -15v-100h-215q-111 0 -151 -45q-40 -44 -40 -170v-197zM1688 1296v211h176v-211h-176z" />
    <glyph glyph-name="f_iacute.dlig" horiz-adv-x="1306" 
d="M383 1036h717v-1036h-137v926h-580v-926h-137v926h-213v110h213v221q0 145 82.5 225.5t232.5 80.5q139 0 230 -15v-100h-218q-111 0 -150 -45q-40 -44 -40 -170v-197zM1104 1546h164l-185 -311h-112z" />
    <glyph glyph-name="f_j.dlig" horiz-adv-x="1306" 
d="M383 1036h717v-1142q0 -139 -69.5 -216t-196.5 -77q-88 0 -140 16v98h119q87 0 119 41q31 40 31 162v1008h-580v-926h-137v926h-213v110h213v221q0 145 82.5 225.5t232.5 80.5q139 0 230 -15v-100h-218q-111 0 -150 -45q-40 -44 -40 -170v-197zM944 1296v211h176v-211
h-176z" />
    <glyph glyph-name="f_t.dlig" horiz-adv-x="1560" 
d="M1288 98h238v-98q-100 -16 -254 -16q-152 0 -234 78.5t-82 222.5v641h-573v-926h-139v926h-211v110h211v221q0 145 82.5 225.5t234.5 80.5q143 0 240 -15v-100h-228q-111 0 -150 -45q-40 -44 -40 -170v-197h573l9 310h129v-310h426v-110h-426v-604q0 -130 41 -177
t153 -47z" />
    <glyph glyph-name="t_t.dlig" horiz-adv-x="1576" 
d="M1305 98h237v-98q-100 -16 -252 -16t-234.5 78.5t-82.5 222.5v641h-598v-604q0 -130 41 -177t153 -47h222v-98q-95 -16 -238 -16q-152 0 -233.5 77.5t-81.5 223.5v641h-215v110h215l8 269h129v-269h598l10 310h129v-310h426v-110h-426v-604q0 -131 40 -177
q41 -47 153 -47z" />
    <glyph glyph-name="f_f_l.liga.salt" horiz-adv-x="2052" 
d="M989 1036v291q0 131 63 184q61 52 220 52q146 0 274 -17v-98h-243q-112 0 -143 -34q-32 -35 -32 -146v-232h406v-110h-406v-926h-139v926h-606v-926h-137v926h-213v110h213v238q0 130 63 183q61 52 219 52q154 0 275 -16v-98h-246q-111 0 -142 -33q-32 -34 -32 -148v-178
h606zM1700 0v1546h137v-1546h-137z" />
    <glyph glyph-name="uniFB02.aalt" horiz-adv-x="1306" 
d="M246 1036v221q0 145 82.5 225.5t232.5 80.5q145 0 242 -15v-100h-230q-111 0 -150 -45q-40 -44 -40 -170v-197h408v-110h-408v-926h-137v926h-213v110h213zM954 0v1546h140v-1546h-140z" />
    <glyph glyph-name="A.c2sc" horiz-adv-x="1155" 
d="M1116 0h-147l-123 315h-545l-123 -315h-139l412 1071h247zM502 829l-156 -397h453l-156 397l-70 195z" />
    <glyph glyph-name="Aacute.aalt" horiz-adv-x="1155" 
d="M647 1546h166l-184 -311h-113zM1116 0h-147l-123 315h-545l-123 -315h-139l412 1071h247zM502 829l-156 -397h453l-156 397l-70 195z" />
    <glyph glyph-name="Abreve.aalt" horiz-adv-x="1155" 
d="M575 1229q-127 0 -205 87q-79 86 -79 230h117q0 -115 40 -168t128 -53t128.5 53.5t40.5 167.5h117q0 -144 -79 -230q-79 -87 -208 -87zM1116 0h-147l-123 315h-545l-123 -315h-139l412 1071h247zM502 829l-156 -397h453l-156 397l-70 195z" />
    <glyph glyph-name="Acircumflex.aalt" horiz-adv-x="1155" 
d="M748 1235l-168 264l-168 -264h-138l209 311h193l207 -311h-135zM1116 0h-147l-123 315h-545l-123 -315h-139l412 1071h247zM502 829l-156 -397h453l-156 397l-70 195z" />
    <glyph glyph-name="Adieresis.aalt" horiz-adv-x="1155" 
d="M326 1483h176v-187h-176v187zM651 1483h176v-187h-176v187zM1116 0h-147l-123 315h-545l-123 -315h-139l412 1071h247zM502 829l-156 -397h453l-156 397l-70 195z" />
    <glyph glyph-name="uni1EA0.aalt" horiz-adv-x="1155" 
d="M698 1071l418 -1071h-147l-123 315h-545l-123 -315h-139l412 1071h247zM502 829l-156 -397h453l-156 397l-70 195zM666 -379h-179v178h179v-178z" />
    <glyph glyph-name="Agrave.aalt" horiz-adv-x="1155" 
d="M498 1546l133 -311h-111l-186 311h164zM1116 0h-147l-123 315h-545l-123 -315h-139l412 1071h247zM502 829l-156 -397h453l-156 397l-70 195z" />
    <glyph glyph-name="Amacron.aalt" horiz-adv-x="1155" 
d="M297 1452h559v-113h-559v113zM1116 0h-147l-123 315h-545l-123 -315h-139l412 1071h247zM502 829l-156 -397h453l-156 397l-70 195z" />
    <glyph glyph-name="Aogonek.aalt" horiz-adv-x="1155" 
d="M866 -291q0 -51 78 -51h148v-88h-185q-76 0 -117.5 31.5t-41.5 87.5q0 62 59 123l166 188h-4l-123 315h-545l-123 -315h-139l412 1071h247l418 -1071h-47l-162 -205q-41 -52 -41 -86zM502 829l-156 -397h453l-156 397l-70 195z" />
    <glyph glyph-name="Aring.aalt" horiz-adv-x="1155" 
d="M575 1229q-80 0 -130 45t-50 117q0 73 50 117t130 44q82 0 132.5 -44t50.5 -117q0 -72 -50.5 -117t-132.5 -45zM655 1462q-24 21 -79 21q-56 0 -79 -21q-24 -22 -24 -71q0 -51 23.5 -72t79.5 -21t79 21t23 72q0 48 -23 71zM1116 0h-147l-123 315h-545l-123 -315h-139
l412 1071h247zM502 829l-156 -397h453l-156 397l-70 195z" />
    <glyph glyph-name="Aringacute.aalt" horiz-adv-x="1155" 
d="M575 1229q-80 0 -130 45t-50 117q0 73 50 117t130 44q23 0 39 -2l95 181h122l-143 -209q68 -41 68 -131q0 -72 -50 -117t-131 -45zM655 1462q-24 21 -79 21q-56 0 -79 -21q-24 -22 -24 -71q0 -51 23.5 -72t79.5 -21t79 21t23 72q0 48 -23 71zM1116 0h-147l-123 315h-545
l-123 -315h-139l412 1071h247zM502 829l-156 -397h453l-156 397l-70 195z" />
    <glyph glyph-name="Atilde.aalt" horiz-adv-x="1155" 
d="M418 1397q-109 0 -109 -127h-92q0 108 56 175q55 66 147 66q74 0 163 -65q89 -66 148 -66q111 0 111 127h90q0 -109 -54 -175q-56 -66 -147 -66q-72 0 -162 66q-91 65 -151 65zM1116 0h-147l-123 315h-545l-123 -315h-139l412 1071h247zM502 829l-156 -397h453l-156 397
l-70 195z" />
    <glyph glyph-name="AE.aalt" horiz-adv-x="1624" 
d="M918 485l145 -368h412v-117h-508l-125 319h-545l-125 -319h-133l414 1075h1015v-117h-735l139 -356h576v-117h-530zM498 834l-156 -398h453l-156 398l-72 196z" />
    <glyph glyph-name="AEacute.aalt" horiz-adv-x="1624" 
d="M950 1546h166l-184 -311h-113zM918 485l145 -368h412v-117h-508l-125 319h-545l-125 -319h-133l414 1075h1015v-117h-735l139 -356h576v-117h-530zM498 834l-156 -398h453l-156 398l-72 196z" />
    <glyph glyph-name="B.aalt" horiz-adv-x="1226" 
d="M840 565q115 -23 180 -95.5t65 -176.5q0 -131 -95 -212q-94 -81 -251 -81h-501v1071h469q156 0 250 -73t94 -195q0 -90 -55.5 -152.5t-155.5 -85.5zM686 956h-311v-362h311q113 0 165 45t52 143q0 90 -52 132t-165 42zM375 115h342q117 0 169 44t52 140t-51 141t-162 45
h-350v-370z" />
    <glyph glyph-name="C.aalt" horiz-adv-x="1280" 
d="M290 127q-143 155 -143 406q0 250 143 405q142 154 378 154q211 0 340 -114t129 -298h-144q0 150 -78.5 219.5t-246.5 69.5q-190 0 -282.5 -107.5t-92.5 -328.5q0 -222 92 -329.5t283 -107.5q168 0 247.5 65.5t79.5 203.5h144q0 -176 -129 -284t-342 -108
q-236 0 -378 154z" />
    <glyph glyph-name="Cacute.aalt" horiz-adv-x="1280" 
d="M610 1235l131 311h166l-184 -311h-113zM290 127q-143 155 -143 406q0 250 143 405q142 154 378 154q211 0 340 -114t129 -298h-144q0 150 -78.5 219.5t-246.5 69.5q-190 0 -282.5 -107.5t-92.5 -328.5q0 -222 92 -329.5t283 -107.5q168 0 247.5 65.5t79.5 203.5h144
q0 -176 -129 -284t-342 -108q-236 0 -378 154z" />
    <glyph glyph-name="Ccaron.aalt" horiz-adv-x="1280" 
d="M764 1235h-191l-208 311h135l168 -264l170 264h135zM995 365h144q0 -176 -129 -284t-342 -108q-236 0 -378 154q-143 155 -143 406q0 250 143 405q142 154 378 154q211 0 340 -114t129 -298h-144q0 150 -78.5 219.5t-246.5 69.5q-190 0 -282.5 -107.5t-92.5 -328.5
q0 -222 92 -329.5t283 -107.5q168 0 247.5 66t79.5 203z" />
    <glyph glyph-name="Ccedilla.aalt" horiz-adv-x="1280" 
d="M995 365h144q0 -169 -122 -276t-323 -116l-32 -102h67q78 0 125 -40.5t47 -106.5q0 -69 -51 -111.5t-133 -42.5h-164v88h147q82 0 82 67q0 68 -82 68h-129v70l43 112q-212 18 -340 170q-127 151 -127 387q0 251 143 406q142 154 378 154q211 0 340 -114t129 -298h-144
q0 150 -78.5 219.5t-246.5 69.5q-190 0 -282.5 -107.5t-92.5 -328.5q0 -222 92 -329.5t283 -107.5q168 0 247.5 65.5t79.5 203.5z" />
    <glyph glyph-name="Ccircumflex.aalt" horiz-adv-x="1280" 
d="M842 1235l-168 264l-168 -264h-137l209 311h192l207 -311h-135zM995 365h144q0 -176 -129 -284t-342 -108q-236 0 -378 154q-143 155 -143 406q0 250 143 405q142 154 378 154q211 0 340 -114t129 -298h-144q0 150 -78.5 219.5t-246.5 69.5q-190 0 -282.5 -107.5
t-92.5 -328.5q0 -222 92 -329.5t283 -107.5q168 0 247.5 66t79.5 203z" />
    <glyph glyph-name="Cdotaccent.aalt" horiz-adv-x="1280" 
d="M582 1296v187h176v-187h-176zM290 127q-143 155 -143 406q0 250 143 405q142 154 378 154q211 0 340 -114t129 -298h-144q0 150 -78.5 219.5t-246.5 69.5q-190 0 -282.5 -107.5t-92.5 -328.5q0 -222 92 -329.5t283 -107.5q168 0 247.5 65.5t79.5 203.5h144
q0 -176 -129 -284t-342 -108q-236 0 -378 154z" />
    <glyph glyph-name="D.aalt" horiz-adv-x="1357" 
d="M238 1071h440q240 0 386 -147q146 -149 146 -387q0 -241 -146 -389q-145 -148 -386 -148h-440v1071zM375 117h289q204 0 302.5 103.5t98.5 316.5t-98.5 315t-302.5 102h-289v-837z" />
    <glyph glyph-name="Eth.aalt" horiz-adv-x="1355" 
d="M238 1071h440q240 0 386 -147q146 -149 146 -387q0 -241 -146 -389q-145 -148 -386 -148h-440v492h-166v102h166v477zM375 117h289q204 0 302.5 103.5t98.5 316.5t-98.5 315t-302.5 102h-289v-360h364v-102h-364v-375z" />
    <glyph glyph-name="Dcaron.aalt" horiz-adv-x="1357" 
d="M778 1235h-190l-209 311h135l168 -264l170 264h135zM238 1071h440q240 0 386 -147q146 -149 146 -387q0 -241 -146 -389q-145 -148 -386 -148h-440v1071zM375 117h289q204 0 302.5 103.5t98.5 316.5t-98.5 315t-302.5 102h-289v-837z" />
    <glyph glyph-name="Dcroat.aalt" horiz-adv-x="1355" 
d="M238 1071h440q240 0 386 -147q146 -149 146 -387q0 -241 -146 -389q-145 -148 -386 -148h-440v492h-166v102h166v477zM375 117h289q204 0 302.5 103.5t98.5 316.5t-98.5 315t-302.5 102h-289v-360h364v-102h-364v-375z" />
    <glyph glyph-name="E.aalt" horiz-adv-x="1124" 
d="M375 485v-368h598v-117h-735v1071h731v-117h-594v-352h571v-117h-571z" />
    <glyph glyph-name="Eacute.aalt" horiz-adv-x="1124" 
d="M672 1546h166l-185 -311h-112zM375 485v-368h598v-117h-735v1071h731v-117h-594v-352h571v-117h-571z" />
    <glyph glyph-name="Ebreve.aalt" horiz-adv-x="1124" 
d="M600 1229q-127 0 -206 87q-79 86 -79 230h117q0 -115 40 -168t128 -53t129 53.5t41 167.5h117q0 -144 -79 -230q-80 -87 -208 -87zM375 485v-368h598v-117h-735v1071h731v-117h-594v-352h571v-117h-571z" />
    <glyph glyph-name="Ecaron.aalt" horiz-adv-x="1124" 
d="M694 1235h-190l-209 311h135l168 -264l170 264h135zM375 485v-368h598v-117h-735v1071h731v-117h-594v-352h571v-117h-571z" />
    <glyph glyph-name="Ecircumflex.aalt" horiz-adv-x="1124" 
d="M772 1235l-168 264l-168 -264h-137l209 311h192l207 -311h-135zM375 485v-368h598v-117h-735v1071h731v-117h-594v-352h571v-117h-571z" />
    <glyph glyph-name="Edieresis.aalt" horiz-adv-x="1124" 
d="M350 1483h176v-187h-176v187zM676 1483h176v-187h-176v187zM375 485v-368h598v-117h-735v1071h731v-117h-594v-352h571v-117h-571z" />
    <glyph glyph-name="Edotaccent.aalt" horiz-adv-x="1124" 
d="M512 1483h176v-187h-176v187zM375 485v-368h598v-117h-735v1071h731v-117h-594v-352h571v-117h-571z" />
    <glyph glyph-name="uni1EB8.aalt" horiz-adv-x="1124" 
d="M375 485v-368h598v-117h-735v1071h731v-117h-594v-352h571v-117h-571zM680 -379h-178v178h178v-178z" />
    <glyph glyph-name="Egrave.aalt" horiz-adv-x="1124" 
d="M524 1546l133 -311h-110l-187 311h164zM375 485v-368h598v-117h-735v1071h731v-117h-594v-352h571v-117h-571z" />
    <glyph glyph-name="Emacron.aalt" horiz-adv-x="1124" 
d="M324 1452h559v-113h-559v113zM375 485v-368h598v-117h-735v1071h731v-117h-594v-352h571v-117h-571z" />
    <glyph glyph-name="Eogonek.aalt" horiz-adv-x="1124" 
d="M973 0h-25l-162 -205q-41 -52 -41 -86q0 -51 78 -51h148v-88h-185q-76 0 -117.5 31.5t-41.5 87.5q0 62 59 123l166 188h-614v1071h731v-117h-594v-352h571v-117h-571v-368h598v-117z" />
    <glyph glyph-name="uni1EBC.aalt" horiz-adv-x="1124" 
d="M444 1397q-109 0 -108 -127h-92q0 110 55 175q55 66 147 66q74 0 163 -65q89 -66 149 -66q111 0 110 127h90q0 -109 -54 -175t-146 -66q-74 0 -164 66q-92 65 -150 65zM375 485v-368h598v-117h-735v1071h731v-117h-594v-352h571v-117h-571z" />
    <glyph glyph-name="uni018F.aalt" horiz-adv-x="1310" 
d="M653 1092q229 0 370 -155q140 -155 140 -405q0 -251 -140 -405q-139 -154 -372 -154q-216 0 -350 134q-133 133 -133 352v100h850q-6 208 -95.5 309t-269.5 101q-165 0 -248 -67t-81 -197h-146q0 169 132 278q131 109 343 109zM651 96q331 0 363 357h-568l-141 65l4 -45
q0 -193 84 -285t258 -92z" />
    <glyph glyph-name="F.aalt" horiz-adv-x="1054" 
d="M965 1071v-117h-590v-352h567v-119h-567v-483h-137v1071h727z" />
    <glyph glyph-name="G.aalt" horiz-adv-x="1351" 
d="M629 438v113h542v-553h-110l-2 303q-33 -157 -138 -242.5t-266 -85.5q-229 0 -368 154q-140 155 -140 403q0 254 145 408q144 154 382 154q221 0 357 -109t136 -285h-145q2 139 -82 205t-266 66q-195 0 -288 -107.5t-93 -331.5q0 -219 94 -326.5t287 -107.5q174 0 262 84
t94 258h-401z" />
    <glyph glyph-name="Gbreve.aalt" horiz-adv-x="1351" 
d="M674 1229q-126 0 -206 87q-79 86 -79 230h117q0 -115 40 -168t128 -53t129 53.5t41 167.5h117q0 -144 -79 -230q-80 -87 -208 -87zM629 438v113h542v-553h-110l-2 303q-33 -157 -138 -242.5t-266 -85.5q-229 0 -368 154q-140 155 -140 403q0 254 145 408q144 154 382 154
q221 0 357 -109t136 -285h-145q2 139 -82 205t-266 66q-195 0 -288 -107.5t-93 -331.5q0 -219 94 -326.5t287 -107.5q174 0 262 84t94 258h-401z" />
    <glyph glyph-name="Gcaron.aalt" horiz-adv-x="1351" 
d="M768 1235h-190l-209 311h135l168 -264l170 264h135zM629 438v113h542v-553h-110l-2 303q-33 -157 -138 -242.5t-266 -85.5q-229 0 -368 154q-140 155 -140 403q0 254 145 408q144 154 382 154q221 0 357 -109t136 -285h-145q2 139 -82 205t-266 66q-195 0 -288 -107.5
t-93 -331.5q0 -219 94 -326.5t287 -107.5q174 0 262 84t94 258h-401z" />
    <glyph glyph-name="Gcircumflex.aalt" horiz-adv-x="1351" 
d="M846 1235l-168 264l-168 -264h-137l209 311h192l207 -311h-135zM629 438v113h542v-553h-110l-2 303q-33 -157 -138 -242.5t-266 -85.5q-229 0 -368 154q-140 155 -140 403q0 254 145 408q144 154 382 154q221 0 357 -109t136 -285h-145q2 139 -82 205t-266 66
q-195 0 -288 -107.5t-93 -331.5q0 -219 94 -326.5t287 -107.5q174 0 262 84t94 258h-401z" />
    <glyph glyph-name="uni0122.aalt" horiz-adv-x="1351" 
d="M629 438v113h542v-553h-110l-2 303q-33 -157 -138 -242.5t-266 -85.5q-229 0 -368 154q-140 155 -140 403q0 254 145 408q144 154 382 154q221 0 357 -109t136 -285h-145q2 139 -82 205t-266 66q-195 0 -288 -107.5t-93 -331.5q0 -219 94 -326.5t287 -107.5q174 0 262 84
t94 258h-401zM680 -367l-94 48v118h178v-143q0 -100 -57.5 -156.5t-157.5 -56.5v72q131 0 131 118z" />
    <glyph glyph-name="Gdotaccent.aalt" horiz-adv-x="1351" 
d="M586 1483h176v-187h-176v187zM629 438v113h542v-553h-110l-2 303q-33 -157 -138 -242.5t-266 -85.5q-229 0 -368 154q-140 155 -140 403q0 254 145 408q144 154 382 154q221 0 357 -109t136 -285h-145q2 139 -82 205t-266 66q-195 0 -288 -107.5t-93 -331.5
q0 -219 94 -326.5t287 -107.5q174 0 262 84t94 258h-401z" />
    <glyph glyph-name="H.aalt" horiz-adv-x="1388" 
d="M1014 602v469h137v-1071h-137v485h-639v-485h-137v1071h137v-469h639z" />
    <glyph glyph-name="Hbar.aalt" horiz-adv-x="1388" 
d="M1151 907h168v-102h-168v-805h-137v485h-639v-485h-137v805h-160v102h160v164h137v-164h639v164h137v-164zM375 602h639v203h-639v-203z" />
    <glyph glyph-name="Hcircumflex.aalt" horiz-adv-x="1388" 
d="M862 1235l-168 264l-168 -264h-137l209 311h193l206 -311h-135zM1014 602v469h137v-1071h-137v485h-639v-485h-137v1071h137v-469h639z" />
    <glyph glyph-name="i.aalt" horiz-adv-x="612" 
d="M238 0v1071h137v-1071h-137z" />
    <glyph glyph-name="iacute.aalt" horiz-adv-x="612" 
d="M248 1235l131 311h166l-185 -311h-112zM238 0v1071h137v-1071h-137z" />
    <glyph glyph-name="ibreve.aalt" horiz-adv-x="612" 
d="M477 1546h117q0 -144 -79 -230q-79 -87 -208 -87q-127 0 -205 87q-79 86 -79 230h116q0 -115 40 -168t128 -53t129 53.5t41 167.5zM238 0v1071h137v-1071h-137z" />
    <glyph glyph-name="icircumflex.aalt" horiz-adv-x="612" 
d="M213 1546h193l206 -311h-135l-168 264l-168 -264h-137zM375 0h-137v1071h137v-1071z" />
    <glyph glyph-name="idieresis.aalt" horiz-adv-x="612" 
d="M55 1296v187h176v-187h-176zM381 1296v187h176v-187h-176zM238 0v1071h137v-1071h-137z" />
    <glyph glyph-name="Idotaccent.c2sc" horiz-adv-x="612" 
d="M217 1296v187h176v-187h-176zM238 0v1071h137v-1071h-137z" />
    <glyph glyph-name="uni1ECB.aalt" horiz-adv-x="612" 
d="M238 0v1071h137v-1071h-137zM217 -379v178h178v-178h-178z" />
    <glyph glyph-name="igrave.aalt" horiz-adv-x="612" 
d="M66 1546h163l133 -311h-110zM238 0v1071h137v-1071h-137z" />
    <glyph glyph-name="IJ.aalt" horiz-adv-x="1120" 
d="M238 96h319q121 0 174 56.5t53 183.5v735h140v-737q0 -166 -99 -263q-101 -98 -268 -98q-213 0 -319 27v96zM242 326v745h137v-745h-137z" />
    <glyph glyph-name="imacron.aalt" horiz-adv-x="612" 
d="M29 1452h559v-113h-559v113zM238 0v1071h137v-1071h-137z" />
    <glyph glyph-name="iogonek.aalt" horiz-adv-x="612" 
d="M252 -342h147v-88h-184q-76 0 -118 31.5t-42 87.5q0 63 60 123l166 188h-43v1071h137v-1071h2l-162 -205q-41 -52 -41 -86q0 -51 78 -51z" />
    <glyph glyph-name="itilde.aalt" horiz-adv-x="612" 
d="M463 1266q-74 0 -164 66q-91 65 -149 65q-109 0 -109 -127h-92q0 110 55 175q55 66 148 66q74 0 163 -65q88 -66 148 -66q111 0 110 127h91q0 -109 -54 -175q-56 -66 -147 -66zM238 0v1071h137v-1071h-137z" />
    <glyph glyph-name="J.aalt" horiz-adv-x="1015" 
d="M59 358h138q0 -135 59 -198.5t186 -63.5q123 0 180.5 62.5t57.5 195.5v717h139v-721q0 -169 -104 -273q-106 -104 -273 -104q-172 0 -277 106q-106 105 -106 279z" />
    <glyph glyph-name="Jcircumflex.aalt" horiz-adv-x="1015" 
d="M653 1546h193l207 -311h-135l-168 264l-168 -264h-138zM680 354v717h139v-721q0 -169 -104 -273q-106 -104 -273 -104q-172 0 -277 106q-106 105 -106 279h138q0 -135 59 -198.5t186 -63.5q123 0 180.5 62.5t57.5 195.5z" />
    <glyph glyph-name="K.aalt" horiz-adv-x="1177" 
d="M1128 1071l-587 -520l628 -551h-190l-422 369l-182 163v-532h-137v1071h137v-526l182 168l404 358h167z" />
    <glyph glyph-name="uni0136.aalt" horiz-adv-x="1177" 
d="M1128 1071l-587 -520l628 -551h-190l-422 369l-182 163v-532h-137v1071h137v-526l182 168l404 358h167zM662 -367l-95 48v118h178v-143q0 -100 -57 -156.5t-158 -56.5v72q131 0 132 118z" />
    <glyph glyph-name="L.aalt" horiz-adv-x="1017" 
d="M375 1071v-954h588v-117h-725v1071h137z" />
    <glyph glyph-name="Lacute.aalt" horiz-adv-x="1017" 
d="M379 1546h166l-185 -311h-112zM375 1071v-954h588v-117h-725v1071h137z" />
    <glyph glyph-name="Lcaron.aalt" horiz-adv-x="1017" 
d="M375 1071v-954h588v-117h-725v1071h137zM801 1071v-145q0 -104 -58.5 -162.5t-158.5 -58.5v71q131 0 131 129l-94 45v121h180z" />
    <glyph glyph-name="uni013B.aalt" horiz-adv-x="1017" 
d="M375 1071v-954h588v-117h-725v1071h137zM621 -367l-95 48v118h179v-143q0 -100 -57.5 -156.5t-158.5 -56.5v72q131 0 132 118z" />
    <glyph glyph-name="Ldot.aalt" horiz-adv-x="1017" 
d="M375 1071v-954h588v-117h-725v1071h137zM594 709h182v-183h-182v183z" />
    <glyph glyph-name="Lslash.aalt" horiz-adv-x="1017" 
d="M375 479v-362h588v-117h-725v426l-177 -88v108l177 89v536h137v-483l362 176v-109z" />
    <glyph glyph-name="M.aalt" horiz-adv-x="1699" 
d="M1217 1071h245v-1071h-139v856l4 168l-369 -1024h-217l-368 1024l2 -168v-856h-137v1071h251l320 -889l43 -131l43 131z" />
    <glyph glyph-name="N.aalt" horiz-adv-x="1423" 
d="M1049 332v739h137v-1071h-240l-577 1020l6 -240v-780h-137v1071h241l576 -1014z" />
    <glyph glyph-name="Nacute.aalt" horiz-adv-x="1423" 
d="M791 1546h165l-184 -311h-113zM1049 332v739h137v-1071h-240l-577 1020l6 -240v-780h-137v1071h241l576 -1014z" />
    <glyph glyph-name="Ncaron.aalt" horiz-adv-x="1423" 
d="M813 1235h-190l-209 311h135l168 -264l170 264h135zM1049 332v739h137v-1071h-240l-577 1020l6 -240v-780h-137v1071h241l576 -1014z" />
    <glyph glyph-name="uni0145.aalt" horiz-adv-x="1423" 
d="M1049 332v739h137v-1071h-240l-577 1020l6 -240v-780h-137v1071h241l576 -1014zM741 -367l-94 48v118h178v-143q0 -100 -57 -156.5t-158 -56.5v72q131 0 131 118z" />
    <glyph glyph-name="Eng.aalt" horiz-adv-x="1423" 
d="M1049 332v739h137v-1177q0 -139 -70 -216t-198 -77q-86 0 -138 16v98h119q87 0 119 41q31 40 31 162v82h-103l-577 1020l6 -240v-780h-137v1071h241l576 -1014z" />
    <glyph glyph-name="uni019D.aalt" horiz-adv-x="1423" 
d="M1049 332v739h137v-1071h-240l-577 1020l6 -240v-886q0 -139 -69.5 -216t-196.5 -77q-88 0 -140 16v98h119q87 0 119 41q31 40 31 162v1153h241l576 -1014z" />
    <glyph glyph-name="Ntilde.aalt" horiz-adv-x="1423" 
d="M561 1397q-109 0 -108 -127h-93q0 108 56 175q56 66 147 66q74 0 163 -65q88 -66 148 -66q111 0 111 127h90q0 -109 -54.5 -175t-146.5 -66q-72 0 -162 66q-91 65 -151 65zM1049 332v739h137v-1071h-240l-577 1020l6 -240v-780h-137v1071h241l576 -1014z" />
    <glyph glyph-name="O.c2sc" horiz-adv-x="1357" 
d="M682 -27q-243 0 -388 154q-147 155 -147 406t147 405q145 154 388 154q239 0 384 -154q146 -155 146 -405q0 -251 -146 -406q-145 -154 -384 -154zM682 96q195 0 289 107.5t94 328.5q0 223 -94 330t-289 107q-199 0 -294 -106.5t-95 -330.5q0 -222 95.5 -329t293.5 -107z
" />
    <glyph glyph-name="Oacute.aalt" horiz-adv-x="1357" 
d="M618 1235l132 311h165l-184 -311h-113zM682 -27q-243 0 -388 154q-147 155 -147 406t147 405q145 154 388 154q239 0 384 -154q146 -155 146 -405q0 -251 -146 -406q-145 -154 -384 -154zM682 96q195 0 289 107.5t94 328.5q0 223 -94 330t-289 107q-199 0 -294 -106.5
t-95 -330.5q0 -222 95.5 -329t293.5 -107z" />
    <glyph glyph-name="Obreve.aalt" horiz-adv-x="1357" 
d="M848 1546h117q0 -144 -79 -230q-80 -87 -208 -87q-126 0 -206 87q-79 86 -79 230h117q0 -115 40 -168t128 -53t129 53.5t41 167.5zM682 -27q-243 0 -388 154q-147 155 -147 406t147 405q145 154 388 154q239 0 384 -154q146 -155 146 -405q0 -251 -146 -406
q-145 -154 -384 -154zM682 96q195 0 289 107.5t94 328.5q0 223 -94 330t-289 107q-199 0 -294 -106.5t-95 -330.5q0 -222 95.5 -329t293.5 -107z" />
    <glyph glyph-name="Ocircumflex.aalt" horiz-adv-x="1357" 
d="M850 1235l-168 264l-168 -264h-137l209 311h192l207 -311h-135zM682 1092q239 0 384 -154q146 -155 146 -405q0 -251 -146 -406q-145 -154 -384 -154q-243 0 -388 154q-147 155 -147 406t147 405q145 154 388 154zM682 96q195 0 289 107.5t94 328.5q0 223 -94 330
t-289 107q-199 0 -294 -106.5t-95 -330.5q0 -222 95.5 -329t293.5 -107z" />
    <glyph glyph-name="Odieresis.aalt" horiz-adv-x="1357" 
d="M428 1296v187h176v-187h-176zM754 1296v187h176v-187h-176zM682 -27q-243 0 -388 154q-147 155 -147 406t147 405q145 154 388 154q239 0 384 -154q146 -155 146 -405q0 -251 -146 -406q-145 -154 -384 -154zM682 96q195 0 289 107.5t94 328.5q0 223 -94 330t-289 107
q-199 0 -294 -106.5t-95 -330.5q0 -222 95.5 -329t293.5 -107z" />
    <glyph glyph-name="uni1ECC.aalt" horiz-adv-x="1357" 
d="M682 -27q-243 0 -388 154q-147 155 -147 406t147 405q145 154 388 154q239 0 384 -154q146 -155 146 -405q0 -251 -146 -406q-145 -154 -384 -154zM682 96q195 0 289 107.5t94 328.5q0 223 -94 330t-289 107q-199 0 -294 -106.5t-95 -330.5q0 -222 95.5 -329t293.5 -107z
M590 -379v178h178v-178h-178z" />
    <glyph glyph-name="Ograve.aalt" horiz-adv-x="1357" 
d="M438 1546h164l133 -311h-110zM682 -27q-243 0 -388 154q-147 155 -147 406t147 405q145 154 388 154q239 0 384 -154q146 -155 146 -405q0 -251 -146 -406q-145 -154 -384 -154zM682 96q195 0 289 107.5t94 328.5q0 223 -94 330t-289 107q-199 0 -294 -106.5t-95 -330.5
q0 -222 95.5 -329t293.5 -107z" />
    <glyph glyph-name="Ohungarumlaut.aalt" horiz-adv-x="1357" 
d="M506 1235l115 311h135l-140 -311h-110zM737 1235l131 311h166l-186 -311h-111zM682 -27q-243 0 -388 154q-147 155 -147 406t147 405q145 154 388 154q239 0 384 -154q146 -155 146 -405q0 -251 -146 -406q-145 -154 -384 -154zM682 96q195 0 289 107.5t94 328.5
q0 223 -94 330t-289 107q-199 0 -294 -106.5t-95 -330.5q0 -222 95.5 -329t293.5 -107z" />
    <glyph glyph-name="Omacron.aalt" horiz-adv-x="1357" 
d="M399 1452h559v-113h-559v113zM682 -27q-243 0 -388 154q-147 155 -147 406t147 405q145 154 388 154q239 0 384 -154q146 -155 146 -405q0 -251 -146 -406q-145 -154 -384 -154zM682 96q195 0 289 107.5t94 328.5q0 223 -94 330t-289 107q-199 0 -294 -106.5t-95 -330.5
q0 -222 95.5 -329t293.5 -107z" />
    <glyph glyph-name="uni01EA.aalt" horiz-adv-x="1357" 
d="M1212 532q0 -200 -94 -340q-95 -141 -256 -192l-162 -205q-41 -52 -41 -86q0 -51 78 -51h148v-88h-185q-76 0 -117.5 31.5t-41.5 87.5q0 62 59 123l145 163q-6 0 -30.5 -1t-32.5 -1q-243 0 -388 154q-147 155 -147 406t147 405q145 154 388 154q239 0 384 -154
q146 -155 146 -406zM682 96q195 0 289 107.5t94 328.5q0 223 -94 330t-289 107q-199 0 -294 -106.5t-95 -330.5q0 -222 95.5 -329t293.5 -107z" />
    <glyph glyph-name="Oslash.aalt" horiz-adv-x="1368" 
d="M1114 1208h146l-199 -266q152 -152 151 -410q0 -251 -146 -405q-145 -154 -384 -154q-159 0 -289 74l-141 -190h-146l195 262q-154 154 -154 413q0 252 147 406q145 154 388 154q162 0 289 -76zM293 532q0 -210 84 -313l522 701q-85 49 -217 49q-199 0 -294 -107
t-95 -330zM1065 532q0 200 -78 310l-522 -699q89 -47 217 -47q195 0 289 107.5t94 328.5z" />
    <glyph glyph-name="Oslashacute.aalt" horiz-adv-x="1368" 
d="M756 1546h166l-185 -311h-112zM1114 1208h146l-199 -266q152 -152 151 -410q0 -251 -146 -405q-145 -154 -384 -154q-159 0 -289 74l-141 -190h-146l195 262q-154 154 -154 413q0 252 147 406q145 154 388 154q162 0 289 -76zM293 532q0 -210 84 -313l522 701
q-85 49 -217 49q-199 0 -294 -107t-95 -330zM1065 532q0 200 -78 310l-522 -699q89 -47 217 -47q195 0 289 107.5t94 328.5z" />
    <glyph glyph-name="Otilde.aalt" horiz-adv-x="1357" 
d="M834 1266q-72 0 -162 66q-91 65 -152 65q-109 0 -108 -127h-93q0 108 56 175q55 66 147 66q74 0 163 -65q89 -66 149 -66q111 0 110 127h90q0 -109 -54 -175t-146 -66zM682 -27q-243 0 -388 154q-147 155 -147 406t147 405q145 154 388 154q239 0 384 -154
q146 -155 146 -405q0 -251 -146 -406q-145 -154 -384 -154zM682 96q195 0 289 107.5t94 328.5q0 223 -94 330t-289 107q-199 0 -294 -106.5t-95 -330.5q0 -222 95.5 -329t293.5 -107z" />
    <glyph glyph-name="OE.aalt" horiz-adv-x="1843" 
d="M1120 485v-368h572v-117h-1014q-240 0 -385 148q-146 148 -146 389q0 239 146 387q145 147 385 147h1010v-117h-568v-352h545v-117h-545zM692 117h289v837h-289q-203 0 -301 -102t-98 -315t98 -316.5t301 -103.5z" />
    <glyph glyph-name="P.aalt" horiz-adv-x="1099" 
d="M238 1071h469q151 0 242 -90t91 -235q0 -146 -98 -236t-260 -90h-307v-420h-137v1071zM375 539h295q119 0 172 49t53 158q0 108 -53.5 158t-171.5 50h-295v-415z" />
    <glyph glyph-name="Thorn.aalt" horiz-adv-x="1228" 
d="M375 860h332q151 0 242 -87t91 -230q0 -144 -98 -231t-260 -87h-307v-225h-137v1075h137v-215zM375 342h295q119 0 172 48t53 153q0 104 -53.5 151t-171.5 47h-295v-399z" />
    <glyph glyph-name="Q.aalt" horiz-adv-x="1363" 
d="M1077 139l189 -186l-80 -82l-191 195q-134 -92 -313 -93q-243 0 -388 154q-147 155 -147 406t147 405q145 154 388 154q239 0 384 -154q146 -155 146 -406q0 -242 -135 -393zM293 532q0 -222 95.5 -329t293.5 -107q136 0 227 56l-168 165l80 80l168 -170q76 106 76 305
q0 223 -94 330t-289 107q-199 0 -294 -107t-95 -330z" />
    <glyph glyph-name="R.aalt" horiz-adv-x="1228" 
d="M1171 0h-163l-320 440h-313v-440h-137v1071h481q153 0 244 -87q92 -87 92 -230q0 -110 -61 -188.5t-169 -108.5l84 -105zM682 954h-307v-401h307q119 0 173 48t54 153q0 104 -54 152t-173 48z" />
    <glyph glyph-name="Racute.aalt" horiz-adv-x="1228" 
d="M698 1546h166l-184 -311h-113zM1171 0h-163l-320 440h-313v-440h-137v1071h481q153 0 244 -87q92 -87 92 -230q0 -110 -61 -188.5t-169 -108.5l84 -105zM682 954h-307v-401h307q119 0 173 48t54 153q0 104 -54 152t-173 48z" />
    <glyph glyph-name="Rcaron.aalt" horiz-adv-x="1228" 
d="M721 1235h-191l-208 311h135l168 -264l170 264h135zM1171 0h-163l-320 440h-313v-440h-137v1071h481q153 0 244 -87q92 -87 92 -230q0 -110 -61 -188.5t-169 -108.5l84 -105zM682 954h-307v-401h307q119 0 173 48t54 153q0 104 -54 152t-173 48z" />
    <glyph glyph-name="uni0156.aalt" horiz-adv-x="1228" 
d="M825 457l84 -105l262 -352h-163l-320 440h-313v-440h-137v1071h481q153 0 244 -87q92 -87 92 -230q0 -110 -61 -188.5t-169 -108.5zM682 954h-307v-401h307q119 0 173 48t54 153q0 104 -54 152t-173 48zM647 -367l-94 48v118h178v-143q0 -100 -57.5 -156.5t-157.5 -56.5
v72q131 0 131 118z" />
    <glyph glyph-name="S.aalt" horiz-adv-x="1171" 
d="M137 334h146q0 -125 76.5 -183.5t242.5 -58.5q299 0 299 172q0 88 -69 134q-71 47 -275 87q-220 40 -309 110q-88 69 -88 185q0 139 117 226q116 86 305 86q196 0 314 -99q118 -100 118 -264h-146q0 127 -69.5 185.5t-218.5 58.5q-283 0 -283 -178q0 -80 68 -121
q69 -41 268 -80q224 -44 313 -118q90 -75 90 -200q0 -137 -119 -220q-121 -83 -315 -83q-210 0 -338 99q-127 97 -127 262z" />
    <glyph glyph-name="Sacute.aalt" horiz-adv-x="1171" 
d="M526 1235l131 311h166l-184 -311h-113zM137 334h146q0 -125 76.5 -183.5t242.5 -58.5q299 0 299 172q0 88 -69 134q-71 47 -275 87q-220 40 -309 110q-88 69 -88 185q0 139 117 226q116 86 305 86q196 0 314 -99q118 -100 118 -264h-146q0 127 -69.5 185.5t-218.5 58.5
q-283 0 -283 -178q0 -80 68 -121q69 -41 268 -80q224 -44 313 -118q90 -75 90 -200q0 -137 -119 -220q-121 -83 -315 -83q-210 0 -338 99q-127 97 -127 262z" />
    <glyph glyph-name="Scaron.aalt" horiz-adv-x="1171" 
d="M680 1235h-191l-208 311h135l168 -264l170 264h135zM633 594q224 -44 313 -118q90 -75 90 -200q0 -137 -119 -220q-121 -83 -315 -83q-210 0 -338 99q-127 97 -127 262h146q0 -125 76.5 -183.5t242.5 -58.5q299 0 299 172q0 88 -69 134q-71 47 -275 87q-220 40 -309 110
q-88 69 -88 185q0 139 117 226q116 86 305 86q196 0 314 -99q118 -100 118 -264h-146q0 127 -69.5 185.5t-218.5 58.5q-283 0 -283 -178q0 -80 68 -121q69 -41 268 -80z" />
    <glyph glyph-name="Scedilla.c2sc" horiz-adv-x="1171" 
d="M1036 276q0 -133 -113 -216q-114 -82 -300 -87l-33 -102h67q78 0 125 -40.5t47 -106.5q0 -70 -50 -112t-134 -42h-164v88h148q82 0 82 67q0 68 -82 68h-129v70l43 112q-185 13 -296 112q-110 98 -110 247h146q0 -125 76.5 -183.5t242.5 -58.5q299 0 299 172q0 88 -69 134
q-71 47 -275 87q-220 40 -309 110q-88 69 -88 185q0 139 117 226q116 86 305 86q196 0 314 -99q118 -100 118 -264h-146q0 127 -69.5 185.5t-218.5 58.5q-283 0 -283 -178q0 -80 68 -121q69 -41 268 -80q224 -44 313 -118q90 -75 90 -200z" />
    <glyph glyph-name="Scircumflex.aalt" horiz-adv-x="1171" 
d="M758 1235l-168 264l-168 -264h-137l209 311h192l207 -311h-135zM633 594q224 -44 313 -118q90 -75 90 -200q0 -137 -119 -220q-121 -83 -315 -83q-210 0 -338 99q-127 97 -127 262h146q0 -125 76.5 -183.5t242.5 -58.5q299 0 299 172q0 88 -69 134q-71 47 -275 87
q-220 40 -309 110q-88 69 -88 185q0 139 117 226q116 86 305 86q196 0 314 -99q118 -100 118 -264h-146q0 127 -69.5 185.5t-218.5 58.5q-283 0 -283 -178q0 -80 68 -121q69 -41 268 -80z" />
    <glyph glyph-name="uni0218.aalt" horiz-adv-x="1171" 
d="M137 334h146q0 -125 76.5 -183.5t242.5 -58.5q299 0 299 172q0 88 -69 134q-71 47 -275 87q-220 40 -309 110q-88 69 -88 185q0 139 117 226q116 86 305 86q196 0 314 -99q118 -100 118 -264h-146q0 127 -69.5 185.5t-218.5 58.5q-283 0 -283 -178q0 -80 68 -121
q69 -41 268 -80q224 -44 313 -118q90 -75 90 -200q0 -137 -119 -220q-121 -83 -315 -83q-210 0 -338 99q-127 97 -127 262zM496 -319v118h178v-143q0 -100 -57.5 -156.5t-157.5 -56.5v72q131 0 131 118z" />
    <glyph glyph-name="T.aalt" horiz-adv-x="1007" 
d="M18 1071h971v-117h-416v-954h-139v954h-416v117z" />
    <glyph glyph-name="Tbar.aalt" horiz-adv-x="993" 
d="M989 1071v-117h-416v-401h306v-102h-306v-451h-139v451h-303v102h303v401h-416v117h971z" />
    <glyph glyph-name="Tcaron.aalt" horiz-adv-x="1007" 
d="M598 1235h-190l-209 311h135l168 -264l170 264h135zM18 1071h971v-117h-416v-954h-139v954h-416v117z" />
    <glyph glyph-name="uni0162.c2sc" horiz-adv-x="1007" 
d="M573 954v-954h-26l-41 -129h67q78 0 125 -40.5t47 -106.5q0 -69 -51 -111.5t-133 -42.5h-164v88h148q82 0 82 67q0 68 -82 68h-129v70l51 137h-33v954h-416v117h971v-117h-416z" />
    <glyph glyph-name="uni021A.aalt" horiz-adv-x="1007" 
d="M18 1071h971v-117h-416v-954h-139v954h-416v117zM506 -367l-94 48v118h178v-143q0 -100 -57.5 -156.5t-157.5 -56.5v72q131 0 131 118z" />
    <glyph glyph-name="U.aalt" horiz-adv-x="1296" 
d="M197 387v688h139v-682q0 -153 75.5 -225t237.5 -72q161 0 236.5 72.5t75.5 224.5v682h139v-688q0 -186 -124 -300t-327 -114q-205 0 -328 114q-124 114 -124 300z" />
    <glyph glyph-name="Uacute.aalt" horiz-adv-x="1296" 
d="M588 1235l131 311h166l-185 -311h-112zM197 387v688h139v-682q0 -153 75.5 -225t237.5 -72q161 0 236.5 72.5t75.5 224.5v682h139v-688q0 -186 -124 -300t-327 -114q-205 0 -328 114q-124 114 -124 300z" />
    <glyph glyph-name="Ubreve.aalt" horiz-adv-x="1296" 
d="M817 1546h117q0 -144 -79 -230q-79 -87 -208 -87q-127 0 -206 87q-79 86 -79 230h117q0 -115 40 -168t128 -53t129 53.5t41 167.5zM197 387v688h139v-682q0 -153 75.5 -225t237.5 -72q161 0 236.5 72.5t75.5 224.5v682h139v-688q0 -186 -124 -300t-327 -114
q-205 0 -328 114q-124 114 -124 300z" />
    <glyph glyph-name="Ucircumflex.aalt" horiz-adv-x="1296" 
d="M819 1235l-168 264l-168 -264h-137l209 311h193l206 -311h-135zM961 393v682h139v-688q0 -186 -124 -300t-327 -114q-205 0 -328 114q-124 114 -124 300v688h139v-682q0 -153 75.5 -225t237.5 -72q161 0 236.5 72.5t75.5 224.5z" />
    <glyph glyph-name="Udieresis.aalt" horiz-adv-x="1296" 
d="M397 1296v187h176v-187h-176zM723 1296v187h176v-187h-176zM197 387v688h139v-682q0 -153 75.5 -225t237.5 -72q161 0 236.5 72.5t75.5 224.5v682h139v-688q0 -186 -124 -300t-327 -114q-205 0 -328 114q-124 114 -124 300z" />
    <glyph glyph-name="uni1EE4.aalt" horiz-adv-x="1296" 
d="M197 387v688h139v-682q0 -153 75.5 -225t237.5 -72q161 0 236.5 72.5t75.5 224.5v682h139v-688q0 -186 -124 -300t-327 -114q-205 0 -328 114q-124 114 -124 300zM559 -379v178h178v-178h-178z" />
    <glyph glyph-name="Ugrave.aalt" horiz-adv-x="1296" 
d="M408 1546h163l134 -311h-111zM197 387v688h139v-682q0 -153 75.5 -225t237.5 -72q161 0 236.5 72.5t75.5 224.5v682h139v-688q0 -186 -124 -300t-327 -114q-205 0 -328 114q-124 114 -124 300z" />
    <glyph glyph-name="Uhungarumlaut.aalt" horiz-adv-x="1296" 
d="M475 1235l115 311h135l-139 -311h-111zM707 1235l131 311h166l-187 -311h-110zM197 387v688h139v-682q0 -153 75.5 -225t237.5 -72q161 0 236.5 72.5t75.5 224.5v682h139v-688q0 -186 -124 -300t-327 -114q-205 0 -328 114q-124 114 -124 300z" />
    <glyph glyph-name="Umacron.aalt" horiz-adv-x="1296" 
d="M369 1452h559v-113h-559v113zM197 387v688h139v-682q0 -153 75.5 -225t237.5 -72q161 0 236.5 72.5t75.5 224.5v682h139v-688q0 -186 -124 -300t-327 -114q-205 0 -328 114q-124 114 -124 300z" />
    <glyph glyph-name="Uogonek.aalt" horiz-adv-x="1296" 
d="M961 393v682h139v-688q0 -143 -76 -246q-78 -105 -209 -145l-160 -201q-41 -52 -41 -86q0 -51 78 -51h148v-88h-185q-76 0 -117.5 31.5t-41.5 87.5q0 62 59 123l143 163q-22 -2 -49 -2q-205 0 -328 114q-124 114 -124 300v688h139v-682q0 -153 75.5 -225t237.5 -72
q161 0 236.5 72.5t75.5 224.5z" />
    <glyph glyph-name="Uring.aalt" horiz-adv-x="1296" 
d="M647 1229q-80 0 -130 45t-50 117q0 74 49.5 117.5t130.5 43.5q82 0 132 -44t50 -117q0 -72 -50 -117t-132 -45zM569 1319q23 -21 78 -21t79 21q24 19 24 72q0 49 -24 70.5t-79 21.5t-78.5 -21.5t-23.5 -70.5q0 -51 24 -72zM197 387v688h139v-682q0 -153 75.5 -225
t237.5 -72q161 0 236.5 72.5t75.5 224.5v682h139v-688q0 -186 -124 -300t-327 -114q-205 0 -328 114q-124 114 -124 300z" />
    <glyph glyph-name="Utilde.aalt" horiz-adv-x="1296" 
d="M803 1266q-74 0 -164 66q-91 65 -150 65q-109 0 -108 -127h-92q0 110 55 175q55 66 148 66q74 0 163 -65q88 -66 148 -66q111 0 110 127h91q0 -109 -54 -175q-56 -66 -147 -66zM197 387v688h139v-682q0 -153 75.5 -225t237.5 -72q161 0 236.5 72.5t75.5 224.5v682h139
v-688q0 -186 -124 -300t-327 -114q-205 0 -328 114q-124 114 -124 300z" />
    <glyph glyph-name="V.aalt" horiz-adv-x="1144" 
d="M647 242l324 829h141l-412 -1071h-247l-418 1071h145l328 -829l70 -193z" />
    <glyph glyph-name="W.aalt" horiz-adv-x="1820" 
d="M1366 238l258 833h137l-329 -1071h-228l-243 829l-50 201l-49 -201l-246 -829h-229l-330 1071h142l258 -833l49 -181l47 181l244 833h229l244 -833l47 -181z" />
    <glyph glyph-name="Wacute.aalt" horiz-adv-x="1820" 
d="M981 1546h166l-184 -311h-113zM1366 238l258 833h137l-329 -1071h-228l-243 829l-50 201l-49 -201l-246 -829h-229l-330 1071h142l258 -833l49 -181l47 181l244 833h229l244 -833l47 -181z" />
    <glyph glyph-name="Wcircumflex.aalt" horiz-adv-x="1820" 
d="M1081 1235l-168 264l-168 -264h-137l209 311h193l207 -311h-136zM1366 238l258 833h137l-329 -1071h-228l-243 829l-50 201l-49 -201l-246 -829h-229l-330 1071h142l258 -833l49 -181l47 181l244 833h229l244 -833l47 -181z" />
    <glyph glyph-name="Wdieresis.aalt" horiz-adv-x="1820" 
d="M659 1483h177v-187h-177v187zM985 1483h176v-187h-176v187zM1366 238l258 833h137l-329 -1071h-228l-243 829l-50 201l-49 -201l-246 -829h-229l-330 1071h142l258 -833l49 -181l47 181l244 833h229l244 -833l47 -181z" />
    <glyph glyph-name="Wgrave.aalt" horiz-adv-x="1820" 
d="M834 1546l133 -311h-111l-186 311h164zM1366 238l258 833h137l-329 -1071h-228l-243 829l-50 201l-49 -201l-246 -829h-229l-330 1071h142l258 -833l49 -181l47 181l244 833h229l244 -833l47 -181z" />
    <glyph glyph-name="X.aalt" horiz-adv-x="1218" 
d="M1139 1071l-402 -506l434 -565h-155l-279 365l-129 172l-129 -175l-278 -362h-154l432 561l-405 510h157l254 -321l123 -164l123 162l254 323h154z" />
    <glyph glyph-name="Y.aalt" horiz-adv-x="1060" 
d="M645 643l281 428h141l-467 -715v-356h-137v356l-469 715h145l283 -428l110 -188z" />
    <glyph glyph-name="Yacute.aalt" horiz-adv-x="1060" 
d="M602 1546h166l-184 -311h-113zM645 643l281 428h141l-467 -715v-356h-137v356l-469 715h145l283 -428l110 -188z" />
    <glyph glyph-name="Ycircumflex.aalt" horiz-adv-x="1060" 
d="M702 1235l-167 264l-168 -264h-138l209 311h193l207 -311h-136zM645 643l281 428h141l-467 -715v-356h-137v356l-469 715h145l283 -428l110 -188z" />
    <glyph glyph-name="Ydieresis.aalt" horiz-adv-x="1060" 
d="M281 1483h176v-187h-176v187zM606 1483h176v-187h-176v187zM645 643l281 428h141l-467 -715v-356h-137v356l-469 715h145l283 -428l110 -188z" />
    <glyph glyph-name="Ygrave.aalt" horiz-adv-x="1060" 
d="M455 1546l133 -311h-111l-186 311h164zM645 643l281 428h141l-467 -715v-356h-137v356l-469 715h145l283 -428l110 -188z" />
    <glyph glyph-name="uni0232.aalt" horiz-adv-x="1060" 
d="M252 1452h559v-113h-559v113zM645 643l281 428h141l-467 -715v-356h-137v356l-469 715h145l283 -428l110 -188z" />
    <glyph glyph-name="uni1EF8.aalt" horiz-adv-x="1060" 
d="M373 1397q-109 0 -109 -127h-92q0 108 56 175q56 66 147 66q74 0 163 -65q88 -66 148 -66q111 0 111 127h90q0 -109 -54 -175q-55 -66 -147 -66q-72 0 -162 66q-91 65 -151 65zM645 643l281 428h141l-467 -715v-356h-137v356l-469 715h145l283 -428l110 -188z" />
    <glyph glyph-name="Z.c2sc" horiz-adv-x="1036" 
d="M158 113l217 4h579v-117h-850v213l795 745l-221 -4h-569v117h839v-217z" />
    <glyph glyph-name="Zacute.c2sc" horiz-adv-x="1036" 
d="M600 1546h166l-184 -311h-113zM158 113l217 4h579v-117h-850v213l795 745l-221 -4h-569v117h839v-217z" />
    <glyph glyph-name="Zcaron.c2sc" horiz-adv-x="1036" 
d="M621 1235h-191l-209 311h135l168 -264l170 264h135zM158 113l217 4h579v-117h-850v213l795 745l-221 -4h-569v117h839v-217z" />
    <glyph glyph-name="Zdotaccent.c2sc" horiz-adv-x="1036" 
d="M438 1483h176v-187h-176v187zM158 113l217 4h579v-117h-850v213l795 745l-221 -4h-569v117h839v-217z" />
    <glyph glyph-name="i.aalt.aalt" horiz-adv-x="849" 
d="M748 1071v-117h-254v-837h254v-117h-646v117h254v837h-254v117h646z" />
    <glyph glyph-name="iacute.aalt.aalt" horiz-adv-x="849" 
d="M494 1546h165l-184 -311h-113zM748 1071v-117h-254v-837h254v-117h-646v117h254v837h-254v117h646z" />
    <glyph glyph-name="ibreve.aalt.aalt" horiz-adv-x="849" 
d="M422 1229q-126 0 -206 87q-79 86 -79 230h117q0 -115 40 -168t128 -53t129 53.5t41 167.5h117q0 -144 -79 -230q-80 -87 -208 -87zM748 1071v-117h-254v-837h254v-117h-646v117h254v837h-254v117h646z" />
    <glyph glyph-name="icircumflex.aalt.aalt" horiz-adv-x="849" 
d="M592 1235l-168 264l-168 -264h-137l209 311h192l207 -311h-135zM748 1071v-117h-254v-837h254v-117h-646v117h254v837h-254v117h646z" />
    <glyph glyph-name="idieresis.aalt.aalt" horiz-adv-x="849" 
d="M172 1483h176v-187h-176v187zM498 1483h176v-187h-176v187zM748 1071v-117h-254v-837h254v-117h-646v117h254v837h-254v117h646z" />
    <glyph glyph-name="Idotaccent.c2sc.ss02" horiz-adv-x="849" 
d="M334 1483h176v-187h-176v187zM748 1071v-117h-254v-837h254v-117h-646v117h254v837h-254v117h646z" />
    <glyph glyph-name="uni1ECB.aalt.aalt" horiz-adv-x="849" 
d="M748 1071v-117h-254v-837h254v-117h-646v117h254v837h-254v117h646zM514 -379h-178v178h178v-178z" />
    <glyph glyph-name="igrave.aalt.aalt" horiz-adv-x="849" 
d="M344 1546l133 -311h-110l-187 311h164zM748 1071v-117h-254v-837h254v-117h-646v117h254v837h-254v117h646z" />
    <glyph glyph-name="imacron.aalt.aalt" horiz-adv-x="849" 
d="M143 1452h559v-113h-559v113zM748 1071v-117h-254v-837h254v-117h-646v117h254v837h-254v117h646z" />
    <glyph glyph-name="iogonek.aalt.aalt" horiz-adv-x="849" 
d="M748 1071v-117h-254v-837h254v-117h-248l-162 -205q-41 -52 -41 -86q0 -51 78 -51h147v-88h-184q-76 0 -118 31.5t-42 87.5q0 63 60 123l165 188h-301v117h254v837h-254v117h646z" />
    <glyph glyph-name="itilde.aalt.aalt" horiz-adv-x="849" 
d="M264 1397q-109 0 -108 -127h-93q0 108 56 175q55 66 147 66q74 0 163 -65q89 -66 149 -66q111 0 110 127h90q0 -109 -54 -175t-146 -66q-74 0 -164 66q-92 65 -150 65zM102 1071h646v-117h-254v-837h254v-117h-646v117h254v837h-254v117z" />
    <glyph glyph-name="Z.c2sc.ss03" horiz-adv-x="1021" 
d="M166 115l201 2h579v-117h-850v201l778 757l-204 -4h-570v117h840v-205z" />
    <glyph glyph-name="Zacute.c2sc.ss03" horiz-adv-x="1021" 
d="M592 1546h166l-185 -311h-112zM166 115l201 2h579v-117h-850v201l778 757l-204 -4h-570v117h840v-205z" />
    <glyph glyph-name="Zcaron.c2sc.ss03" horiz-adv-x="1021" 
d="M612 1235h-190l-209 311h135l168 -264l170 264h135zM166 115l201 2h579v-117h-850v201l778 757l-204 -4h-570v117h840v-205z" />
    <glyph glyph-name="Zdotaccent.c2sc.ss03" horiz-adv-x="1021" 
d="M430 1483h176v-187h-176v187zM166 115l201 2h579v-117h-850v201l778 757l-204 -4h-570v117h840v-205z" />
    <glyph glyph-name="zero.case" horiz-adv-x="1513" 
d="M758 -27q-274 0 -441 203t-167 537t167 537q166 202 441 202q273 0 439 -202q167 -203 167 -537t-167 -537t-439 -203zM758 102q229 0 341.5 151t112.5 460t-111.5 459.5t-342.5 150.5q-232 0 -344.5 -150.5t-112.5 -459.5q0 -310 113 -460.5t344 -150.5z" />
    <glyph glyph-name="one.case" horiz-adv-x="952" 
d="M438 1434h250v-1434h-145v1077l6 299l-103 -92l-329 -266v164z" />
    <glyph glyph-name="two.case" horiz-adv-x="1335" 
d="M221 117l322 6h696v-123h-1079v207l635 450q150 102 197 173q46 70 46 192q0 156 -85 229.5t-265 73.5q-186 0 -274 -99.5t-88 -307.5h-150q0 242 141 388q140 146 367 146q223 0 360 -116q136 -117 136 -310q0 -254 -281 -442l-547 -387z" />
    <glyph glyph-name="three.case" horiz-adv-x="1349" 
d="M829 721q373 -37 373 -346q0 -180 -142 -291q-143 -111 -376 -111q-235 0 -380 128q-144 127 -144 337h151q0 -174 90.5 -255t284.5 -81q193 0 282 63.5t89 201.5q0 147 -73 213.5t-232 66.5h-269v107h226q140 0 210 70t70 198q0 158 -75.5 230.5t-239.5 72.5
q-178 0 -261 -86t-83 -268h-150q0 217 136 349q135 132 356 132q209 0 335 -111q126 -113 126 -297q0 -128 -79 -213t-225 -110z" />
    <glyph glyph-name="four.case" horiz-adv-x="1310" 
d="M956 473h318v-119h-318v-354h-145v354h-727v236l629 835h243v-952zM141 469l230 4h440v588l6 309z" />
    <glyph glyph-name="five.case" horiz-adv-x="1277" 
d="M737 885q201 0 325 -126q124 -125 124 -331t-139 -330q-140 -125 -369 -125q-232 0 -372 124q-142 124 -142 327h149q0 -164 89.5 -242t277.5 -78q184 0 273 79.5t89 244.5q0 172 -88 253t-274 81q-129 0 -210 -35q-78 -34 -144 -115h-127l65 813h844v-120l-727 2
l-51 -619q134 197 407 197z" />
    <glyph glyph-name="six.case" horiz-adv-x="1419" 
d="M772 905q220 0 353 -125q132 -124 132 -327q0 -215 -141 -347q-140 -133 -371 -133q-270 0 -432 186q-163 184 -163 543q0 346 163 548q162 202 435 202q221 0 356 -117q135 -119 135 -313h-149q0 156 -82 227.5t-260 71.5q-231 0 -339 -146q-108 -147 -108 -473v-77
q40 124 169 203q128 77 302 77zM745 102q190 0 278.5 84t88.5 267q0 170 -90 249.5t-283 79.5q-205 0 -309 -79t-104 -228q-1 -187 104 -280t315 -93z" />
    <glyph glyph-name="seven.case" horiz-adv-x="1130" 
d="M70 1305v120h1003v-219q-258 -246 -412 -571q-155 -327 -155 -635h-148q0 344 189 698q188 353 504 611l-353 -4h-628z" />
    <glyph glyph-name="eight.case" horiz-adv-x="1359" 
d="M870 731q171 -35 263 -129t92 -237q0 -176 -149 -284q-150 -108 -396 -108q-244 0 -393 108q-150 107 -150 284q0 143 91 237t264 129q-150 31 -230 114t-80 210q0 179 138 288q136 109 360 109q226 0 363 -109q137 -110 137 -288q0 -127 -80 -210t-230 -114zM332 1042
q0 -264 348 -264t348 264q0 145 -84 213t-264 68t-264 -68t-84 -213zM381 171q94 -69 299 -69q204 0 299 69q94 69 94 216q0 283 -393 283t-393 -283q0 -147 94 -216z" />
    <glyph glyph-name="nine.case" horiz-adv-x="1419" 
d="M674 1452q272 0 434 -185q162 -186 162 -544q0 -345 -161 -548q-160 -202 -427 -202q-226 0 -363 118q-139 118 -139 310h150q0 -155 84.5 -226t267.5 -71q227 0 332 147q104 146 104 472v72q-44 -123 -170 -199q-127 -76 -301 -76q-218 0 -351 125q-132 125 -132 328
q0 215 141 347q139 132 369 132zM680 643q414 0 414 307q0 373 -420 373q-188 0 -277.5 -85t-89.5 -265q0 -170 90 -250t283 -80z" />
    <glyph glyph-name="four.case.ss03" horiz-adv-x="1310" 
d="M956 473h318v-119h-318v-354h-145v354h-727v203l661 868h211v-952zM164 469l207 4h440v588l6 264z" />
    <glyph glyph-name="zero.case.zero" horiz-adv-x="1513" 
d="M758 1452q273 0 439 -202q167 -203 167 -537t-167 -537t-439 -203q-274 0 -441 203t-167 537t167 537q166 202 441 202zM301 713q0 -358 152 -504l528 1067q-99 47 -223 47q-231 0 -344 -150.5t-113 -459.5zM758 102q229 0 341.5 151t112.5 460q0 353 -145 499
l-524 -1067q87 -43 215 -43z" />
    <glyph glyph-name="zero.oldstyle" horiz-adv-x="1382" 
d="M1089 127q-151 -154 -397 -154t-396 154q-151 154 -151 406q0 251 151 405q150 154 396 154t397 -154q150 -154 150 -405t-150 -406zM385 213q117 -121 308 -121q190 0 307 121q116 122 116 320q0 197 -116 319q-117 121 -307 121q-191 0 -308 -121q-117 -122 -117 -319
q0 -199 117 -320z" />
    <glyph glyph-name="one.oldstyle" horiz-adv-x="1081" 
d="M668 1071v-954h356v-117h-887v117h391v598l7 272l-99 -67l-289 -189v139l306 201h215z" />
    <glyph glyph-name="two.oldstyle" horiz-adv-x="1169" 
d="M205 111l244 6h643v-117h-953v190l518 291q145 83 190 137q42 52 42 144q0 215 -295 215q-156 0 -227.5 -69.5t-71.5 -219.5h-143q0 182 122 293t320 111q199 0 319 -87q119 -87 119 -231q0 -115 -65 -198q-67 -85 -228 -173l-389 -217z" />
    <glyph glyph-name="three.oldstyle" horiz-adv-x="1124" 
d="M659 365q171 -26 267 -119q96 -94 96 -234q0 -187 -154 -299t-411 -112q-241 0 -371 30v99h422q192 0 280.5 66t88.5 208q0 144 -74.5 213.5t-231.5 69.5h-247v116h204q143 0 210 71t67 219q0 147 -65.5 215.5t-209.5 68.5q-149 0 -219.5 -75.5t-70.5 -233.5h-144
q0 194 120 309q119 115 314 115q189 0 305 -104q115 -105 115 -277q0 -131 -77 -223q-76 -91 -214 -123z" />
    <glyph glyph-name="four.oldstyle" horiz-adv-x="1200" 
d="M860 166h305v-119h-305v-430h-139v430h-651v234l557 790h233v-905zM123 162l233 4h365v541l6 317z" />
    <glyph glyph-name="five.oldstyle" horiz-adv-x="1046" 
d="M604 514q190 0 303 -117q113 -119 113 -315q0 -217 -153 -349q-155 -132 -408 -132q-245 0 -381 30v99h436q186 0 273 85t87 267q0 166 -73.5 241.5t-237.5 75.5q-115 0 -188.5 -45t-122.5 -145l-4 2v-2h-119l43 844h760v-117h-406l-241 4l-31 -631q112 205 350 205z" />
    <glyph glyph-name="six.oldstyle" horiz-adv-x="1216" 
d="M709 870q193 0 312 -120q118 -121 118 -318q0 -204 -128 -332q-127 -127 -335 -127q-259 0 -399 182.5t-140 540.5q0 348 171 547t466 199q217 0 340 -31v-98h-323q-275 0 -391 -140q-115 -140 -115 -477v-75q40 114 155 182q112 67 269 67zM676 88q162 0 238.5 83
t76.5 261q0 167 -77 246.5t-240 79.5q-369 0 -369 -303q0 -367 371 -367z" />
    </font>
</defs>
</svg>
