<?xml version="1.0" standalone="no"?>
<!DOCTYPE svg PUBLIC "-//W3C//DTD SVG 1.1//EN" "http://www.w3.org/Graphics/SVG/1.1/DTD/svg11.dtd" >
<svg xmlns="http://www.w3.org/2000/svg" xmlns:xlink="http://www.w3.org/1999/xlink" version="1.1">
<metadata>
Created by FontForge 20170731 at Fri Apr 12 15:38:34 2019
 By Aleksey,,,
Copyright (c) 2018 by Alexis Navarro Miranda. All rights reserved. Desktop use is strictly prohibited.
</metadata>
<defs>
<font id="MenaGrotesk-LightItalic" horiz-adv-x="1263" >
  <font-face 
    font-family="Mena Grotesk Light Italic"
    font-weight="300"
    font-style="italic"
    font-stretch="normal"
    units-per-em="2048"
    panose-1="0 0 3 0 0 0 0 0 0 0"
    ascent="1638"
    descent="-410"
    x-height="1036"
    cap-height="1425"
    bbox="-662 -557 2329 2120"
    underline-thickness="0"
    underline-position="0"
    unicode-range="U+0020-FB02"
  />
<missing-glyph horiz-adv-x="1400" 
d="M1233 682h186l-12 -61h-125q-37 -144 -121 -251.5t-203 -162.5l-36 -207h-58l37 207q-74 -59 -188 -119l-8 170h-103l-65 -170q-106 65 -148 121l-37 -209h-55l37 209q-209 113 -182 412h-125l12 61h186q-51 -295 119 -414l23 125q-63 95 -35 260q32 183 139 281l90 520
h608l-92 -524q68 -99 37 -277q-27 -161 -123 -258l-22 -127q213 118 264 414zM635 1407l188 -193l256 193h-444zM848 1188l190 -197l70 393zM528 995l258 193l-188 192zM946 1024l-133 137l-182 -137q80 23 162 23q84 0 153 -23zM666 328q338 0 395 325q29 166 -42 252
t-237 86q-338 0 -397 -338q-29 -159 43 -242t238 -83zM608 922l92 30l-6 -34l-92 -31zM924 887l-82 31l6 34l82 -30zM721 819q-11 -51 -64 -51q-25 0 -38 14.5t-9 36.5q10 56 66 58q24 0 36.5 -15.5t8.5 -42.5zM848 877q25 0 39 -16.5t10 -41.5q-11 -51 -68 -51
q-23 0 -35 14.5t-8 36.5q10 58 62 58zM823 696l-180 -20l8 39l178 20zM518 160l49 119q-97 17 -155 63l-13 -74q44 -64 119 -108zM911 266l13 76q-72 -46 -176 -63l8 -119q80 37 155 106zM647 207q29 0 23 -31q-5 -29 -33 -29q-34 0 -29 29q6 31 39 31zM627 94q27 0 24 -28
q-6 -31 -35 -31q-33 0 -26 31q1 28 37 28z" />
    <glyph glyph-name="uniFB01" unicode="fi" horiz-adv-x="1327" 
d="M481 1036h717l-184 -1036h-137l163 926h-579l-164 -926h-137l164 926h-213l18 110h213l39 221q27 146 123.5 226t247.5 80q140 0 225 -15l-16 -100h-218q-111 0 -157 -45q-48 -46 -70 -170zM1087 1296l35 211h176l-34 -211h-177z" />
    <glyph glyph-name="uniFB02" unicode="fl" horiz-adv-x="1351" 
d="M516 1233l-35 -197h406l-21 -110h-405l-164 -926h-137l164 926h-213l18 110h213l39 221q27 146 123.5 226t247.5 80q147 0 237 -15l-16 -100h-230q-111 0 -157 -45q-48 -46 -70 -170zM1280 1546l-227 -1278q-16 -97 5 -134q21 -36 95 -36h90l-16 -98q-54 -16 -119 -16
q-117 0 -168 66.5t-29 189.5l230 1306h139z" />
    <glyph glyph-name="f_f.liga" unicode="ff" horiz-adv-x="1517" 
d="M1729 1448h-240q-111 0 -159 -45q-47 -44 -70 -170l-35 -197h420l-21 -110h-418l-164 -926h-137l164 926h-608l-164 -926h-137l164 926h-213l18 110h213l31 168q27 146 122.5 225.5t246.5 79.5q147 0 251 -14l-18 -100h-242q-109 0 -157 -45q-47 -44 -70 -170l-25 -144
h606l39 221q25 145 121.5 225.5t249.5 80.5q149 0 250 -15z" />
    <glyph glyph-name="f_f_i.liga" unicode="ffi" horiz-adv-x="2072" 
d="M1225 1036h717l-183 -1036h-137l164 926h-580l-164 -926h-137l164 926h-608l-164 -926h-137l164 926h-213l18 110h213l31 168q27 146 122.5 225.5t246.5 79.5q147 0 251 -14l-18 -100h-242q-109 0 -157 -45q-47 -44 -70 -170l-25 -144h606l39 221q25 145 121.5 225.5
t249.5 80.5q137 0 223 -15l-16 -100h-215q-111 0 -159 -45q-47 -44 -70 -170zM1831 1296l37 211h176l-37 -211h-176z" />
    <glyph glyph-name="f_f_l.liga" unicode="ffl" horiz-adv-x="2097" 
d="M1266 1268l-41 -232h407l-20 -110h-406l-164 -926h-137l164 926h-608l-164 -926h-137l162 926h-211l18 110h213l41 238q23 130 96 183q71 52 230 52q154 0 270 -16l-16 -98h-246q-110 0 -148 -34q-39 -35 -57 -147l-31 -178h606l52 291q23 131 95 184q70 52 228 52
q146 0 271 -17l-17 -98h-243q-111 0 -149 -33q-39 -36 -58 -147zM2023 1546l-225 -1278q-17 -98 6 -134q21 -36 94 -36h91l-17 -98q-54 -16 -119 -16q-117 0 -169 67.5t-29 188.5l231 1306h137z" />
    <glyph glyph-name=".notdef" horiz-adv-x="1400" 
d="M1233 682h186l-12 -61h-125q-37 -144 -121 -251.5t-203 -162.5l-36 -207h-58l37 207q-74 -59 -188 -119l-8 170h-103l-65 -170q-106 65 -148 121l-37 -209h-55l37 209q-209 113 -182 412h-125l12 61h186q-51 -295 119 -414l23 125q-63 95 -35 260q32 183 139 281l90 520
h608l-92 -524q68 -99 37 -277q-27 -161 -123 -258l-22 -127q213 118 264 414zM635 1407l188 -193l256 193h-444zM848 1188l190 -197l70 393zM528 995l258 193l-188 192zM946 1024l-133 137l-182 -137q80 23 162 23q84 0 153 -23zM666 328q338 0 395 325q29 166 -42 252
t-237 86q-338 0 -397 -338q-29 -159 43 -242t238 -83zM608 922l92 30l-6 -34l-92 -31zM924 887l-82 31l6 34l82 -30zM721 819q-11 -51 -64 -51q-25 0 -38 14.5t-9 36.5q10 56 66 58q24 0 36.5 -15.5t8.5 -42.5zM848 877q25 0 39 -16.5t10 -41.5q-11 -51 -68 -51
q-23 0 -35 14.5t-8 36.5q10 58 62 58zM823 696l-180 -20l8 39l178 20zM518 160l49 119q-97 17 -155 63l-13 -74q44 -64 119 -108zM911 266l13 76q-72 -46 -176 -63l8 -119q80 37 155 106zM647 207q29 0 23 -31q-5 -29 -33 -29q-34 0 -29 29q6 31 39 31zM627 94q27 0 24 -28
q-6 -31 -35 -31q-33 0 -26 31q1 28 37 28z" />
    <glyph glyph-name="glyph1" horiz-adv-x="0" 
 />
    <glyph glyph-name="glyph2" horiz-adv-x="681" 
 />
    <glyph glyph-name="space" unicode=" " horiz-adv-x="409" 
 />
    <glyph glyph-name="exclam" unicode="!" horiz-adv-x="555" 
d="M369 1425h139l-57 -321l-152 -696h-82l94 696zM86 0l35 201h203l-37 -201h-201z" />
    <glyph glyph-name="quotedbl" unicode="&#x22;" horiz-adv-x="598" 
d="M166 899l65 526h158l-121 -526h-102zM465 899l63 526h158l-121 -526h-100z" />
    <glyph glyph-name="numbersign" unicode="#" horiz-adv-x="1341" 
d="M1374 1006l-18 -105h-273l-102 -383h270l-18 -104h-281l-110 -414h-119l111 414h-420l-111 -414h-119l111 414h-252l18 104h263l102 383h-262l18 105h271l112 419h119l-113 -419h420l113 419h119l-113 -419h264zM442 518h420l103 383h-420z" />
    <glyph glyph-name="dollar" unicode="$" horiz-adv-x="1425" 
d="M1346 967h-148q29 168 -39.5 254t-240.5 100l-97 -543q273 -55 374 -150q99 -96 71 -255q-29 -170 -190 -277q-160 -107 -396 -121l-25 -139h-106l24 139q-240 12 -363 142q-125 129 -87 332h147q-29 -165 51 -249.5t275 -95.5l100 562q-268 56 -364 140q-99 86 -72 234
q31 178 188 290q154 111 386 122l26 145h107l-27 -147q221 -18 332 -149q112 -131 74 -334zM408 1061q-18 -98 44 -155q62 -58 267 -105l92 522q-360 -12 -403 -262zM1120 358q18 102 -46 168q-65 66 -275 117l-97 -541q375 18 418 256z" />
    <glyph glyph-name="percent" unicode="%" horiz-adv-x="1413" 
d="M687 902q-104 -89 -248 -89q-147 0 -220 88q-74 89 -47 232q27 142 131 231q103 88 248 88q143 0 216 -87t48 -232q-26 -144 -128 -231zM1313 1425h149l-518 -622h-125zM457 924q94 0 159.5 56.5t81.5 152.5q16 94 -29.5 151t-137.5 57q-93 0 -159 -57q-66 -56 -83 -151
q-16 -96 30 -152.5t138 -56.5zM541 623h125l-492 -623h-151zM932 -25q-143 0 -216 88q-73 87 -48 232q26 144 128 231q103 88 249 88t219 -88t47 -231q-27 -143 -130 -231q-104 -89 -249 -89zM952 86q94 0 161 58q68 57 81 151q16 94 -30 151.5t-138 57.5t-158 -57
q-67 -58 -83 -152q-17 -95 29 -151q46 -58 138 -58z" />
    <glyph glyph-name="ampersand" unicode="&#x26;" horiz-adv-x="1368" 
d="M1122 238l224 -238h-193l-131 139q-200 -166 -477 -166q-245 0 -378 104q-132 104 -104 273q20 124 127 222.5t285 152.5q-92 102 -125 180q-33 81 -14 187q27 162 158 261q130 99 315 99q182 0 275 -99q92 -101 63 -261q-43 -262 -473 -379l368 -391q83 121 121 325h144
q-39 -239 -185 -409zM475 1081q-13 -72 18 -139q32 -69 130 -174q203 63 287 132q83 70 104 181q23 126 -31 185t-192 59q-141 0 -216 -58.5t-100 -185.5zM567 96q243 0 383 121l-426 455q-147 -53 -222 -124t-93 -173q-25 -143 62 -211t296 -68z" />
    <glyph glyph-name="quotesingle" unicode="'" horiz-adv-x="299" 
d="M166 899l65 526h158l-121 -526h-102z" />
    <glyph glyph-name="parenleft" unicode="(" horiz-adv-x="483" 
d="M496 1546h108q-266 -470 -354 -964q-85 -487 12 -965h-108q-137 487 -52 965q87 487 394 964z" />
    <glyph glyph-name="parenright" unicode=")" horiz-adv-x="471" 
d="M-2 -383h-109q265 474 353 965q86 489 -13 964h109q137 -485 51 -964q-85 -487 -391 -965z" />
    <glyph glyph-name="asterisk" unicode="*" horiz-adv-x="702" 
d="M567 1452l-102 -287v287h102zM311 1384l154 -219l-232 140zM748 1305l-283 -140l231 219zM172 1151l293 14l-289 -114zM252 930l213 235l-127 -280zM713 1051l-248 114l289 -14zM492 885l-27 280l129 -235z" />
    <glyph glyph-name="plus" unicode="+" horiz-adv-x="1024" 
d="M582 588h352l-19 -113h-352l-63 -354h-115l64 354h-353l19 113h352l63 352h115z" />
    <glyph glyph-name="comma" unicode="," horiz-adv-x="432" 
d="M45 39l27 162h202l-36 -201q-25 -137 -102 -212t-195 -75l14 84q154 0 184 180z" />
    <glyph glyph-name="hyphen" unicode="-" horiz-adv-x="647" 
d="M123 580h463l-21 -117h-463z" />
    <glyph glyph-name="period" unicode="." horiz-adv-x="421" 
d="M27 0l36 201h201l-35 -201h-202z" />
    <glyph glyph-name="slash" unicode="/" horiz-adv-x="512" 
d="M-139 -383l680 1929h127l-680 -1929h-127z" />
    <glyph glyph-name="zero" unicode="0" horiz-adv-x="1513" 
d="M662 -27q-272 0 -403 203q-132 202 -75 537q58 334 263 537q203 202 477 202q272 0 402 -202t73 -537q-59 -336 -260 -537q-203 -203 -477 -203zM684 102q231 0 370.5 151t192.5 460q55 309 -31 459.5t-317 150.5t-369.5 -150.5t-193.5 -459.5q-53 -309 33 -460t315 -151
z" />
    <glyph glyph-name="one" unicode="1" horiz-adv-x="944" 
d="M590 1434h252l-252 -1434h-146l191 1077l57 299l-119 -92l-378 -266l30 164z" />
    <glyph glyph-name="two" unicode="2" horiz-adv-x="1335" 
d="M1130 0h-1079l37 207l713 450q166 101 229 173q61 71 80 192q27 158 -44.5 230.5t-252.5 72.5q-185 0 -290 -99t-144 -308h-150q44 243 208 388q166 146 394 146q222 0 338 -116q115 -116 82 -310q-43 -252 -358 -442l-614 -387l-138 -80l316 6h696z" />
    <glyph glyph-name="three" unicode="3" horiz-adv-x="1349" 
d="M1212 1044q-23 -128 -116.5 -212t-245.5 -111q368 -37 313 -346q-33 -180 -194 -291q-162 -111 -394 -111q-235 0 -357 128q-122 129 -85 337h150q-31 -174 46 -255t271 -81q193 0 292 63.5t124 201.5q27 147 -33.5 213.5t-222.5 66.5h-268l20 107h223q281 0 330 268
q27 158 -35.5 230.5t-226.5 72.5q-178 0 -276.5 -86t-129.5 -268h-151q39 217 198 349q157 132 379 132q209 0 315 -112q105 -113 74 -296z" />
    <glyph glyph-name="four" unicode="4" horiz-adv-x="1310" 
d="M774 354h-727l41 236l776 835h244l-168 -952h317l-20 -119h-317l-64 -354h-145zM958 1368l-835 -901l231 6h441l102 588z" />
    <glyph glyph-name="five" unicode="5" horiz-adv-x="1277" 
d="M1217 1305l-728 2l-159 -619q77 91 191.5 144t248.5 53q203 0 305 -126q101 -127 64 -331q-34 -205 -197 -330t-389 -125q-231 0 -351 124t-85 327h149q-29 -164 47 -242t265 -78q184 0 286.5 79.5t130.5 244.5q31 172 -42.5 253t-258.5 81q-130 0 -217 -35
q-85 -35 -166 -115h-127l211 813h842z" />
    <glyph glyph-name="six" unicode="6" horiz-adv-x="1384" 
d="M1329 1022h-149q29 155 -41 227t-248 72q-231 0 -365 -146q-135 -147 -192 -473l-15 -79q63 125 205 204q142 78 318 78q221 0 331 -125q109 -124 74 -327q-39 -216 -202 -347q-163 -133 -394 -133q-272 0 -401 186q-129 185 -66 543q62 347 260 548q199 202 469 202
q221 0 336 -118t80 -312zM786 782q-412 0 -467 -307q-66 -373 355 -373q190 0 292.5 84t135.5 267q31 170 -45 249.5t-271 79.5z" />
    <glyph glyph-name="seven" unicode="7" horiz-adv-x="1122" 
d="M211 1425h1003l-16 -98l-22 -121q-299 -244 -512 -570q-212 -326 -267 -636h-149q62 344 312 698q251 353 611 611l-354 -4h-629z" />
    <glyph glyph-name="eight" unicode="8" horiz-adv-x="1368" 
d="M1278 1055q-23 -126 -118 -209.5t-249 -114.5q165 -35 240.5 -129.5t48.5 -236.5q-32 -177 -200 -284q-169 -108 -412 -108q-246 0 -376 108q-131 107 -99 284q27 143 134.5 237t284.5 129q-143 31 -208.5 114t-44.5 210q33 179 190 288q155 109 379 109q225 0 343 -109
q119 -109 87 -288zM1124 1042q27 145 -45.5 213t-253.5 68q-182 0 -277 -67.5t-120 -213.5q-23 -132 52 -198t249 -66q349 0 395 264zM1055 387q25 142 -61 212.5t-283 70.5q-394 0 -443 -283q-27 -147 55.5 -216t287.5 -69q203 0 309 68.5t135 216.5z" />
    <glyph glyph-name="nine" unicode="9" horiz-adv-x="1382" 
d="M801 1452q272 0 401 -185q129 -186 66 -544q-62 -347 -257 -548q-196 -202 -464 -202q-225 0 -342 118t-84 310h151q-27 -156 44.5 -226.5t254.5 -70.5q227 0 358 147q130 145 187 472l14 74q-66 -124 -207 -200q-142 -77 -313 -77q-219 0 -329 125q-112 125 -74 328
q38 215 201 347q164 132 393 132zM666 643q412 0 467 307q66 373 -355 373q-190 0 -292.5 -84t-135.5 -266q-31 -171 45 -250.5t271 -79.5z" />
    <glyph glyph-name="colon" unicode=":" horiz-adv-x="423" 
d="M141 645l35 201h203l-35 -201h-203zM27 0l36 201h201l-35 -201h-202z" />
    <glyph glyph-name="semicolon" unicode=";" horiz-adv-x="432" 
d="M150 645l34 201h203l-35 -201h-202zM45 39l27 162h202l-36 -201q-25 -137 -102 -212t-195 -75l14 84q154 0 184 180z" />
    <glyph glyph-name="less" unicode="&#x3c;" horiz-adv-x="923" 
d="M750 117l-664 315l35 186l772 316l-21 -117l-714 -293l612 -291z" />
    <glyph glyph-name="equal" unicode="=" horiz-adv-x="1134" 
d="M205 793h827l-18 -111h-830zM131 381h830l-21 -111h-827z" />
    <glyph glyph-name="greater" unicode="&#x3e;" horiz-adv-x="923" 
d="M803 432l-772 -315l20 116l715 291l-612 293l22 117l662 -316z" />
    <glyph glyph-name="question" unicode="?" horiz-adv-x="1021" 
d="M670 1452q194 0 295 -107q101 -108 69 -284q-22 -132 -122 -227q-100 -96 -255 -127l-84 -17l-63 -291h-82l49 367l152 29q129 26 189 86q62 62 81 178q27 145 -32.5 211.5t-215.5 66.5q-162 0 -250 -75.5t-118 -241.5h-133q35 196 177 314t343 118zM500 0h-201l35 201
h201z" />
    <glyph glyph-name="at" unicode="@" horiz-adv-x="2189" 
d="M1266 1464q422 0 636 -250t142 -661q-24 -133 -70 -240.5t-100 -170.5q-51 -60 -110 -98q-94 -60 -185 -60q-126 0 -171.5 52t-27.5 177l6 33q-75 -122 -188.5 -187t-245.5 -65q-215 0 -317 148q-104 147 -60 386q40 241 196 389q155 146 370 146q132 0 224 -62.5
t122 -179.5l39 215h133l-137 -780q-18 -103 5 -135q22 -31 107 -29q104 0 176 106q72 105 117 355q68 386 -110 597q-179 212 -570 212q-395 0 -651 -217t-325 -612q-70 -395 109 -612q178 -216 574 -216q332 0 582 135l-18 -112q-257 -127 -582 -127q-426 0 -642 256
q-216 257 -140 675q73 419 380 676q305 256 732 256zM753 212q67 -103 249 -103q180 0 286 103q105 103 142 316q39 215 -29.5 317.5t-249.5 102.5q-183 0 -288 -102.5t-142 -317.5q-37 -212 32 -316z" />
    <glyph glyph-name="A" unicode="A" horiz-adv-x="1390" 
d="M1264 0h-150l-88 461h-661l-250 -461h-144l768 1425h252zM715 1110l-285 -528h574l-103 528l-47 268z" />
    <glyph glyph-name="B" unicode="B" horiz-adv-x="1415" 
d="M1360 1069q-19 -114 -104 -202q-86 -88 -207 -119q137 -33 200 -128q61 -96 39 -225q-33 -177 -173 -286q-139 -109 -339 -109h-604l250 1425h565q197 0 300 -97q101 -97 73 -259zM1204 1038q25 139 -37 203t-223 64h-397l-94 -531h399q159 0 243 63t109 201zM1137 395
q25 137 -37 202t-217 65h-449l-96 -541h440q162 0 248 65.5t111 208.5z" />
    <glyph glyph-name="C" unicode="C" horiz-adv-x="1562" 
d="M184 713q58 335 282 537q221 202 525 202q257 0 405 -140q146 -141 105 -378h-149q33 199 -60.5 294t-322.5 95q-527 0 -633 -610q-55 -309 48 -460t370 -151q228 0 354.5 90.5t159.5 276.5h149q-41 -231 -234 -363q-193 -133 -452 -133q-305 0 -454 203
q-150 202 -93 537z" />
    <glyph glyph-name="D" unicode="D" horiz-adv-x="1622" 
d="M422 1425h547q299 0 448 -195q148 -196 91 -517q-59 -323 -275 -517q-217 -196 -516 -196h-545zM1356 713q53 291 -54.5 441.5t-369.5 150.5h-385l-209 -1184h385q261 0 421.5 150.5t211.5 441.5z" />
    <glyph glyph-name="E" unicode="E" horiz-adv-x="1280" 
d="M1319 1425l-21 -120h-751l-92 -523h710l-20 -123h-713l-94 -538h766l-21 -121h-911l250 1425h897z" />
    <glyph glyph-name="F" unicode="F" horiz-adv-x="1208" 
d="M1298 1425l-20 -120h-731l-94 -533h690l-21 -123h-690l-115 -649h-145l250 1425h876z" />
    <glyph glyph-name="G" unicode="G" horiz-adv-x="1626" 
d="M1518 948h-150q33 193 -63.5 284t-333.5 91q-529 0 -635 -610q-109 -610 420 -611q242 0 381 124t188 382h-573l20 117h713l-127 -725h-121l63 371q-162 -396 -581 -398q-299 0 -445 203q-147 202 -90 537q58 333 283 537q223 202 528 202q274 0 419 -139t104 -365z" />
    <glyph glyph-name="H" unicode="H" horiz-adv-x="1660" 
d="M1298 782l113 643h145l-249 -1425h-146l117 662h-844l-117 -662h-145l250 1425h145l-112 -643h843z" />
    <glyph glyph-name="I" unicode="I" horiz-adv-x="671" 
d="M172 0l250 1425h145l-250 -1425h-145z" />
    <glyph glyph-name="J" unicode="J" horiz-adv-x="1261" 
d="M76 449h143q-31 -178 36 -263.5t239 -85.5q164 0 257 88t126 273l170 964h145l-172 -970q-39 -217 -189 -349q-151 -133 -360 -133q-217 0 -324 132q-108 131 -71 344z" />
    <glyph glyph-name="K" unicode="K" horiz-adv-x="1406" 
d="M1337 1425h199l-918 -706l691 -719h-201l-508 528l-160 172l-123 -700h-145l250 1425h145l-121 -694l218 174z" />
    <glyph glyph-name="L" unicode="L" horiz-adv-x="1196" 
d="M567 1425l-229 -1304h727l-23 -121h-870l250 1425h145z" />
    <glyph glyph-name="M" unicode="M" horiz-adv-x="1998" 
d="M1645 1425h251l-251 -1425h-146l201 1141l43 223l-729 -1364h-211l-250 1366l-35 -225l-201 -1141h-145l250 1425h258l219 -1177l25 -174l88 174z" />
    <glyph glyph-name="N" unicode="N" horiz-adv-x="1660" 
d="M1239 440l172 985h145l-249 -1425h-246l-514 1358l-47 -318l-183 -1040h-145l250 1425h252l510 -1347z" />
    <glyph glyph-name="O" unicode="O" horiz-adv-x="1669" 
d="M743 -27q-311 0 -463 203q-153 202 -96 537q58 335 285 537q224 202 535 202q305 0 456 -202q150 -202 93 -537q-59 -336 -281 -537q-224 -203 -529 -203zM766 102q530 0 637 611q106 610 -422 610q-539 0 -645 -610q-107 -611 430 -611z" />
    <glyph glyph-name="P" unicode="P" horiz-adv-x="1308" 
d="M422 1425h567q195 0 294 -112t67 -299q-33 -188 -172 -300q-140 -114 -334 -114h-422l-105 -600h-145zM1088 792q83 71 110 222q27 150 -32 221q-60 70 -218 70h-401l-103 -584h402q157 0 242 71z" />
    <glyph glyph-name="Q" unicode="Q" horiz-adv-x="1669" 
d="M1552 713q-56 -320 -262 -516l215 -254l-104 -88l-209 260q-202 -140 -453 -142q-307 0 -459 203q-153 202 -96 537q58 334 284 537q223 202 532 202q308 0 459 -202t93 -537zM336 713q-53 -309 52.5 -460t373.5 -151q222 0 362 95l-200 237l104 88l195 -241
q127 141 180 432q53 309 -52.5 459.5t-373.5 150.5q-532 0 -641 -610z" />
    <glyph glyph-name="R" unicode="R" horiz-adv-x="1370" 
d="M1364 1020q-29 -157 -138 -260q-110 -106 -276 -131l94 -156l254 -473h-163l-326 618h-383l-109 -618h-145l250 1425h579q195 0 296 -111q100 -112 67 -294zM1214 1020q25 147 -36.5 216t-216.5 69h-414l-101 -572h416q155 0 240 69.5t112 217.5z" />
    <glyph glyph-name="S" unicode="S" horiz-adv-x="1425" 
d="M625 -27q-264 0 -402 132q-139 130 -100 344h147q-31 -176 62.5 -261.5t318.5 -85.5q423 0 469 256q20 113 -61 182q-84 69 -357 124q-270 56 -369 141q-100 85 -73 235q33 187 202 299q170 113 412 113q252 0 382 -133t90 -352h-148q33 182 -53 269t-297 87
q-394 0 -440 -262q-20 -107 62 -168q83 -63 351 -115q273 -55 374 -150q99 -96 71 -255q-32 -181 -208 -290q-178 -110 -433 -110z" />
    <glyph glyph-name="T" unicode="T" horiz-adv-x="1302" 
d="M190 1425h1242l-23 -120h-547l-229 -1305h-146l230 1305h-549z" />
    <glyph glyph-name="U" unicode="U" horiz-adv-x="1585" 
d="M223 487l166 938h143l-163 -931q-35 -199 52 -295.5t300 -96.5q417 0 485 392l166 931h146l-166 -938q-39 -231 -220 -372q-181 -142 -436 -142q-254 0 -384 142q-130 140 -89 372z" />
    <glyph glyph-name="V" unicode="V" horiz-adv-x="1374" 
d="M758 315l600 1110h141l-766 -1425h-254l-272 1425h151l213 -1110l47 -268z" />
    <glyph glyph-name="W" unicode="W" horiz-adv-x="2228" 
d="M1651 315l532 1110h146l-684 -1425h-238l-113 1100l-18 280l-119 -280l-502 -1100h-241l-183 1425h150l143 -1110l27 -256l108 256l506 1110h236l112 -1110l21 -258z" />
    <glyph glyph-name="X" unicode="X" horiz-adv-x="1470" 
d="M1397 1425h162l-656 -675l447 -750h-164l-289 483l-129 230l-209 -230l-459 -483h-161l706 750l-416 675h162l264 -430l125 -213l199 213z" />
    <glyph glyph-name="Y" unicode="Y" horiz-adv-x="1288" 
d="M1284 1425h146l-715 -946l-84 -479h-146l86 479l-383 946h156l242 -596l82 -239l168 239z" />
    <glyph glyph-name="Z" unicode="Z" horiz-adv-x="1257" 
d="M1085 0h-1091l43 240l1216 1069l-303 -4h-721l23 120h1079l-41 -239l-1216 -1069l301 4h733z" />
    <glyph glyph-name="bracketleft" unicode="[" horiz-adv-x="581" 
d="M723 1546l-21 -114l-251 6l-304 -1712l256 6l-20 -115h-393l342 1929h391z" />
    <glyph glyph-name="backslash" unicode="\" horiz-adv-x="847" 
d="M201 1546h127l340 -1929h-127z" />
    <glyph glyph-name="bracketright" unicode="]" horiz-adv-x="581" 
d="M221 1546h391l-340 -1929h-393l21 115l252 -6l305 1712l-258 -6z" />
    <glyph glyph-name="asciicircum" unicode="^" horiz-adv-x="741" 
d="M625 1425l120 -430h-114l-107 387l-243 -387h-117l274 430h187z" />
    <glyph glyph-name="underscore" unicode="_" horiz-adv-x="1112" 
d="M-18 -35h964l-20 -115h-965z" />
    <glyph glyph-name="grave" unicode="`" horiz-adv-x="456" 
d="M260 1546h164l80 -311h-113z" />
    <glyph glyph-name="a" unicode="a" horiz-adv-x="1185" 
d="M1042 96h27l-18 -96q-60 -16 -121 -16q-92 0 -123 52t-12 177l4 27q-66 -123 -186 -195q-121 -72 -273 -72q-138 0 -212 68q-73 67 -52 180q33 205 340 266q378 80 440 99l6 39q31 171 -21.5 251t-193.5 80q-143 0 -223 -74.5t-107 -230.5h-139q34 186 169 299
q134 113 321 113q193 0 282 -107q88 -107 56 -297l-72 -403q-18 -109 0 -134q18 -26 108 -26zM391 86q163 0 279 82q116 83 153 235l17 99q-27 -8 -387 -90q-115 -27 -166 -69q-50 -41 -64 -110q-14 -72 29 -109.5t139 -37.5z" />
    <glyph glyph-name="b" unicode="b" horiz-adv-x="1357" 
d="M836 1063q215 0 317 -149q102 -151 59 -396q-45 -247 -199 -395q-155 -150 -370 -150q-131 0 -223.5 62.5t-122.5 177.5l-37 -213h-133l272 1546h138l-127 -729q152 246 426 246zM1067 518q37 219 -31.5 324.5t-249.5 105.5q-178 0 -283.5 -102.5t-144.5 -315.5l-4 -24
q-35 -213 34 -315.5t247 -102.5q180 0 285.5 105.5t146.5 324.5z" />
    <glyph glyph-name="c" unicode="c" horiz-adv-x="1216" 
d="M909 340h142q-27 -165 -167 -266q-142 -101 -339 -101q-225 0 -335 150q-110 149 -65 395q41 246 204 396q164 149 388 149q198 0 298 -108q101 -109 69 -285h-141q25 143 -35 210.5t-213 67.5q-178 0 -281.5 -105.5t-142.5 -324.5t28.5 -324.5t245.5 -105.5
q156 0 239 60.5t105 191.5z" />
    <glyph glyph-name="d" unicode="d" horiz-adv-x="1339" 
d="M1055 831l127 715h137l-272 -1546h-132l39 229q-74 -124 -187 -190t-247 -66q-215 0 -317 150q-103 148 -58 395q40 245 197 396q157 149 371 149q131 0 221.5 -60t120.5 -172zM569 88q170 0 272.5 92t149.5 285l19 102q23 195 -48 288t-241 93q-180 0 -285.5 -105.5
t-144.5 -324.5t29.5 -324.5t248.5 -105.5z" />
    <glyph glyph-name="e" unicode="e" horiz-adv-x="1234" 
d="M735 1063q209 0 314 -132q104 -133 65 -347l-16 -99h-813q-29 -202 39.5 -299.5t242.5 -97.5q311 0 353 234h143q-29 -152 -172 -250q-143 -99 -344 -99q-225 0 -336 150q-111 149 -66 395q41 246 204 396q164 149 386 149zM303 582l277 4h395q27 186 -37 274t-223 88
q-164 0 -265.5 -90t-146.5 -276z" />
    <glyph glyph-name="f" unicode="f" horiz-adv-x="774" 
d="M985 1448h-242q-111 0 -157 -45q-48 -46 -70 -170l-35 -197h418l-20 -110h-418l-164 -926h-137l164 926h-213l18 110h213l39 221q27 146 123.5 226t247.5 80q154 0 249 -15z" />
    <glyph glyph-name="g" unicode="g" horiz-adv-x="1126" 
d="M1233 1190l-19 -117q-108 0 -161.5 -27.5t-73.5 -91.5q86 -95 61 -243q-27 -152 -162 -248t-325 -96q-142 0 -234 53q-96 -44 -114 -137q-10 -61 18 -88t103 -27h389q147 0 224 -75t56 -195q-25 -132 -177 -215q-151 -82 -381 -82q-231 0 -355 76q-125 77 -105 202
q10 65 66 114t141 70q-117 51 -96 181q22 130 184 207q-117 96 -88 260q28 159 163 256q134 96 329 96q157 0 258 -68q30 100 101 147.5t198 47.5zM897 711q23 125 -35.5 183t-205.5 58q-148 0 -228 -58t-100 -183q-20 -121 38.5 -178.5t205.5 -57.5q146 0 224 57t101 179z
M684 53h-463q-92 -50 -110 -155q-18 -102 59 -143q76 -40 287 -40q213 0 300 40q89 41 107 143q16 86 -24.5 120.5t-155.5 34.5z" />
    <glyph glyph-name="h" unicode="h" horiz-adv-x="1327" 
d="M838 1063q172 0 259 -107q87 -109 56 -282l-119 -674h-139l111 616q31 178 -21 253q-53 75 -209 75q-160 0 -268 -90q-108 -89 -137 -252l-107 -602h-137l272 1546h138l-127 -721q156 238 428 238z" />
    <glyph glyph-name="i" unicode="i" horiz-adv-x="589" 
d="M350 1296l33 187h174l-31 -187h-176zM139 0l183 1036h139l-182 -1036h-140z" />
    <glyph glyph-name="j" unicode="j" horiz-adv-x="579" 
d="M338 1296l33 187h176l-33 -187h-176zM113 -90l198 1126h138l-203 -1142q-23 -139 -107 -216t-211 -77q-87 0 -135 16l17 98h118q91 0 128 40q38 41 57 155z" />
    <glyph glyph-name="k" unicode="k" horiz-adv-x="1114" 
d="M999 1036h170l-649 -497l514 -539h-194l-377 395l-107 123l-92 -518h-137l272 1546h138l-179 -1011l150 124z" />
    <glyph glyph-name="l" unicode="l" horiz-adv-x="595" 
d="M522 1546l-227 -1290q-14 -93 8 -125q21 -33 94 -33h90l-16 -98q-54 -16 -119 -16q-117 0 -169 67.5t-29 188.5l231 1306h137z" />
    <glyph glyph-name="m" unicode="m" horiz-adv-x="2072" 
d="M1591 1063q170 0 254 -107q84 -109 53 -282l-118 -674h-140l111 616q31 177 -19 253q-51 75 -202 75q-160 0 -267 -90q-108 -90 -135 -252l-106 -602h-137l108 616q33 178 -18 253t-203 75q-150 0 -253 -80t-140 -225l-115 -639h-137l182 1036h133l-39 -219
q157 246 431 246q137 0 220 -71.5t93 -196.5q76 129 191.5 198.5t252.5 69.5z" />
    <glyph glyph-name="n" unicode="n" horiz-adv-x="1327" 
d="M838 1063q172 0 259 -107q87 -109 56 -282l-119 -674h-139l111 616q31 178 -21 253q-53 75 -209 75q-152 0 -256 -80t-141 -225l-115 -639h-137l182 1036h133l-39 -221q159 248 435 248z" />
    <glyph glyph-name="o" unicode="o" horiz-adv-x="1292" 
d="M938 123q-164 -150 -389 -150t-336 150q-111 149 -68 395q40 245 206 396q166 149 391 149t338 -149q112 -149 67 -396q-45 -246 -209 -395zM569 88q356 0 432 430q37 219 -31.5 324.5t-248.5 105.5q-179 0 -284 -105t-146 -325q-76 -430 278 -430z" />
    <glyph glyph-name="p" unicode="p" horiz-adv-x="1357" 
d="M836 1063q215 0 317 -149q102 -151 59 -396q-45 -247 -199 -395q-155 -150 -370 -150q-131 0 -221 59t-123 171l-102 -586h-138l250 1419h133l-43 -233q73 125 188 192.5t249 67.5zM1067 518q37 219 -31.5 324.5t-248.5 105.5q-181 0 -286.5 -105.5t-144.5 -324.5
t30 -324.5t249 -105.5t285.5 105.5t146.5 324.5z" />
    <glyph glyph-name="q" unicode="q" horiz-adv-x="1357" 
d="M1059 817l37 219h135l-252 -1419h-137l104 600q-71 -118 -182.5 -181t-243.5 -63q-215 0 -317 150q-103 148 -58 395q40 245 196 396q155 149 370 149q133 0 225.5 -63.5t122.5 -182.5zM569 88q168 0 270.5 91t149.5 280l21 119q23 188 -48.5 279t-240.5 91
q-180 0 -285.5 -105.5t-144.5 -324.5t29.5 -324.5t248.5 -105.5z" />
    <glyph glyph-name="r" unicode="r" horiz-adv-x="796" 
d="M782 1063q69 0 101 -16l-21 -113h-121q-146 0 -244 -94q-100 -94 -130 -265l-103 -575h-137l182 1036h133l-43 -239q69 126 169 196t214 70z" />
    <glyph glyph-name="s" unicode="s" horiz-adv-x="1124" 
d="M494 -27q-216 0 -328 99q-113 98 -84 260h143q-23 -129 47 -189.5t242 -60.5q288 0 320 170q16 82 -44 129q-62 47 -251 84q-202 40 -285 110q-82 67 -61 187q22 135 151 218q128 83 313 83q198 0 302 -98q102 -99 73 -258h-141q23 126 -41 187.5t-215 61.5
q-274 0 -307 -178q-14 -80 48 -123q60 -42 261 -80q202 -39 279 -112q77 -74 57 -199q-23 -131 -154 -211q-133 -80 -325 -80z" />
    <glyph glyph-name="t" unicode="t" horiz-adv-x="839" 
d="M879 926h-426l-109 -613q-20 -125 12 -170t144 -45h237l-16 -98q-106 -16 -256 -16q-153 0 -222 78.5t-42 222.5l112 641h-213l21 110h213l59 310h133l-55 -310h428z" />
    <glyph glyph-name="u" unicode="u" horiz-adv-x="1308" 
d="M936 422l108 614h138l-183 -1036h-131l37 211q-151 -238 -432 -238q-165 0 -247 108q-83 108 -52 281l119 674h137l-108 -616q-31 -178 20 -253t207 -75q153 0 257 87q103 87 130 243z" />
    <glyph glyph-name="v" unicode="v" horiz-adv-x="1089" 
d="M586 281l424 755h137l-586 -1036h-217l-219 1036h143l158 -755l41 -222z" />
    <glyph glyph-name="w" unicode="w" horiz-adv-x="1812" 
d="M1343 281l373 755h144l-527 -1036h-215l-96 733l-25 248l-112 -248l-357 -733h-219l-164 1036h152l106 -755l27 -242l111 242l362 755h207l98 -755l25 -238z" />
    <glyph glyph-name="x" unicode="x" horiz-adv-x="1187" 
d="M1040 1036h164l-477 -508l309 -528h-153l-193 340l-92 178l-477 -518h-164l520 551l-284 485h153l174 -297l88 -161l152 159z" />
    <glyph glyph-name="y" unicode="y" horiz-adv-x="1089" 
d="M586 281l424 755h137l-690 -1220q-122 -215 -314 -215q-100 0 -155 16l16 100h131q75 0 118 26q42 25 83 97l90 160h-82l-219 1036h143l156 -755l41 -226z" />
    <glyph glyph-name="z" unicode="z" horiz-adv-x="1019" 
d="M848 0h-838l41 221l897 703l-217 -4h-549l23 116h815l-39 -227l-891 -696l209 4h569z" />
    <glyph glyph-name="braceleft" unicode="{" horiz-adv-x="761" 
d="M748 1567q68 0 163 -21l-16 -96h-104q-111 0 -144 -27q-33 -29 -51 -137l-86 -489q-38 -213 -285 -213q247 0 209 -213l-86 -490q-18 -112 4 -138q21 -26 131 -26h105l-17 -96q-105 -20 -170 -20q-138 0 -181 49t-21 176l96 536q16 94 -14 129q-32 35 -129 35h-132
l21 115h131q97 0 141 35q43 34 60 129l94 536q23 127 84 177q59 49 197 49z" />
    <glyph glyph-name="bar" unicode="|" horiz-adv-x="659" 
d="M102 -383l342 1929h134l-342 -1929h-134z" />
    <glyph glyph-name="braceright" unicode="}" horiz-adv-x="763" 
d="M633 641h131l-21 -115h-131q-96 0 -139 -34q-42 -33 -59 -130l-97 -536q-19 -126 -81 -176q-61 -49 -199 -49q-66 0 -164 20l16 96h105q112 0 144 28q32 29 50 136l86 490q38 213 285 213q-247 0 -209 213l86 489q18 109 -4 137q-22 27 -131 27h-104l16 96q102 19 170 21
q138 0 181 -49q44 -50 22 -177l-94 -536q-16 -94 14 -129q29 -35 127 -35z" />
    <glyph glyph-name="asciitilde" unicode="~" horiz-adv-x="1122" 
d="M201 436h-113q18 113 106 192q86 79 199 79q61 0 114.5 -26t87.5 -62q81 -89 171 -89q67 0 114 47q46 46 58 107h111q-19 -112 -106 -191q-86 -79 -200 -79q-61 0 -113.5 25.5t-85.5 62.5q-34 37 -80 62.5t-93 25.5q-68 0 -114 -46q-45 -45 -56 -108z" />
    <glyph glyph-name="exclamdown" unicode="&#xa1;" horiz-adv-x="555" 
d="M469 1036l-35 -200h-201l35 200h201zM188 -389h-139l55 321l152 699h82l-94 -699z" />
    <glyph glyph-name="cent" unicode="&#xa2;" horiz-adv-x="1216" 
d="M1139 864h-142q23 132 -25.5 200.5t-174.5 76.5l-150 -856q131 8 203 68.5t94 181.5h141q-27 -157 -151 -254q-124 -99 -307 -111l-25 -139h-106l24 139q-197 23 -289 169t-51 374q39 228 184 374q144 145 347 168l26 148h107l-27 -148q176 -12 264 -118q87 -106 58 -273
zM326 713q-70 -393 215 -426l149 854q-293 -33 -364 -428z" />
    <glyph glyph-name="sterling" unicode="&#xa3;" horiz-adv-x="1220" 
d="M856 1454q212 0 318 -120q106 -119 71 -316h-149q29 158 -35.5 232.5t-229.5 74.5q-176 0 -276 -85t-133 -261q-20 -119 10 -248h553l-20 -108h-510q10 -72 -2 -140q-19 -119 -114 -219q-93 -99 -251 -149l291 6h708l-20 -121h-1063l35 199q128 44 196 103q67 60 87 173
q13 76 0 148h-218l21 108h168q-33 138 -14 244q38 216 196 347q157 132 381 132z" />
    <glyph glyph-name="currency" unicode="&#xa4;" horiz-adv-x="1409" 
d="M1348 1298l59 -71l-201 -170q80 -141 43 -338q-33 -199 -162 -336l142 -172l-86 -72l-137 168q-156 -116 -359 -114q-205 0 -319 114l-197 -168l-59 72l200 170q-80 138 -43 338q33 199 162 336l-141 172l84 71l139 -168q155 115 358 115q207 0 320 -117zM968 422
q126 112 159 297q32 185 -55 297t-261 112q-175 0 -300 -112q-126 -112 -159 -297t55 -297q87 -113 261 -113q173 0 300 113z" />
    <glyph glyph-name="yen" unicode="&#xa5;" horiz-adv-x="1288" 
d="M1284 1425h146l-637 -845h346l-17 -97h-403l-4 -4l-31 -178h406l-17 -96h-405l-37 -205h-146l37 205h-432l16 96h433l32 178l-2 4h-430l17 97h374l-342 845h156l242 -596l82 -239l168 239z" />
    <glyph glyph-name="brokenbar" unicode="&#xa6;" horiz-adv-x="659" 
d="M444 791h-133l133 755h134zM238 -383h-134l134 760h133z" />
    <glyph glyph-name="section" unicode="&#xa7;" horiz-adv-x="1400" 
d="M1311 967h-150q33 182 -51 269t-291 87q-394 0 -440 -262q-20 -107 62 -168q83 -63 352 -115q275 -56 375 -150q100 -95 71 -255l-68 -373q-33 -180 -200 -290q-167 -109 -410 -109q-263 0 -400 130t-100 343h150q-33 -174 59 -258t316 -84q393 0 440 254q20 114 -62 182
q-82 67 -358 123q-268 55 -367 141q-100 85 -73 236l65 372q35 186 203 299q169 113 412 113q248 0 376 -134t89 -351zM672 664q-266 56 -369 141l-18 -105q-14 -75 14 -122q26 -47 128 -91q101 -43 300 -81q274 -57 377 -154l16 94q10 59 -1.5 98.5t-55.5 79.5
q-86 79 -391 140z" />
    <glyph glyph-name="dieresis" unicode="&#xa8;" horiz-adv-x="659" 
d="M217 1296l33 187h176l-33 -187h-176zM543 1296l32 187h177l-33 -187h-176z" />
    <glyph glyph-name="copyright" unicode="&#xa9;" horiz-adv-x="1642" 
d="M725 -27q-334 0 -502 203t-110 537q57 335 298 537q239 202 576 202q333 0 503 -204q169 -203 109 -535q-57 -335 -297 -537q-242 -203 -577 -203zM321 253q142 -175 423 -175t484 175q204 176 255 460q51 285 -91 460t-423 175q-283 0 -484 -174q-202 -175 -256 -461
q-51 -284 92 -460zM1061 586h119q-20 -123 -126 -198t-255 -75q-165 0 -248 110q-82 109 -51 290q33 181 153 290q118 109 287 109q146 0 223 -80t54 -211h-117q38 197 -176 197q-247 0 -303 -305q-55 -303 194 -303q111 0 170 42t76 134z" />
    <glyph glyph-name="ordfeminine" unicode="&#xaa;" horiz-adv-x="886" 
d="M799 694h16l-10 -63q-59 -10 -96 -10q-64 0 -87.5 35t-9.5 112l4 18q-43 -81 -120 -126.5t-177 -45.5q-96 0 -147 44t-37 116q13 66 67 108.5t167 63.5q258 56 284 64l4 24q16 103 -16 150t-119 47q-168 0 -200 -180h-115q20 119 112 193q91 73 218 73q133 0 195.5 -68.5
t41.5 -191.5l-47 -260q-11 -68 3 -85q12 -18 69 -18zM354 694q110 0 184 55t95 154l8 43q-9 -2 -52 -11.5t-87 -19.5q-11 -3 -111 -26q-67 -15 -97 -40t-38 -67q-8 -43 16.5 -65.5t81.5 -22.5z" />
    <glyph glyph-name="guillemotleft" unicode="&#xab;" horiz-adv-x="964" 
d="M430 907h154l-441 -379l308 -378h-154l-250 307l21 108l6 37zM848 907h156l-443 -379l309 -378h-155l-248 307l6 35l21 110z" />
    <glyph glyph-name="logicalnot" unicode="&#xac;" horiz-adv-x="1017" 
d="M113 600h811l-68 -389h-115l50 276h-699z" />
    <glyph glyph-name="registered" unicode="&#xae;" horiz-adv-x="972" 
d="M653 1452q186 0 282 -113q95 -114 63 -300q-33 -187 -168 -300q-136 -114 -324 -114q-190 0 -284 114q-95 113 -62 299q34 185 170 300q135 114 323 114zM911 1038q29 153 -47 245q-76 93 -225 93q-151 0 -258 -93q-106 -93 -135 -245q-27 -153 49 -244q77 -92 225 -92
q151 0 258 92q106 91 133 244zM461 1235h211q53 0 81.5 -33t18.5 -84q-16 -87 -102 -110l18 -31l70 -127h-82l-80 151h-100l-27 -151h-76zM692 1118q6 31 -10.5 45.5t-58.5 14.5h-95l-22 -119h94q45 0 65.5 13t26.5 46z" />
    <glyph glyph-name="overscore" unicode="&#xaf;" horiz-adv-x="718" 
d="M244 1452h559l-21 -113h-557z" />
    <glyph glyph-name="degree" unicode="&#xb0;" horiz-adv-x="788" 
d="M446 813q-143 0 -215 87q-73 87 -49 233q26 143 129 231t249 88t219 -88t47 -231q-27 -143 -131 -232q-103 -88 -249 -88zM318 972q49 -61 147 -61q99 0 169 61q70 60 87 161q16 100 -32 162q-48 61 -146 61q-100 0 -168 -61q-70 -61 -88 -162q-19 -100 31 -161z" />
    <glyph glyph-name="plusminus" unicode="&#xb1;" horiz-adv-x="976" 
d="M623 956l-48 -266h328l-18 -110h-328l-47 -265h-115l47 265h-327l18 110h328l47 266h115zM799 86h-772l20 113h770z" />
    <glyph glyph-name="uni00B2" unicode="&#xb2;" horiz-adv-x="706" 
d="M694 879h-555l31 172l344 186q69 37 95 64q24 26 32 73q20 119 -111 119q-152 0 -178 -147h-127q20 113 110 181q89 68 212 68q119 0 179 -59t42 -158q-13 -69 -61 -117q-49 -47 -154 -102l-258 -141l-88 -43l153 2h351z" />
    <glyph glyph-name="uni00B3" unicode="&#xb3;" horiz-adv-x="722" 
d="M772 1395q-25 -128 -192 -154q190 -16 163 -180q-16 -89 -105 -145t-220 -56q-126 0 -190 64q-66 63 -48 168h127q-12 -68 19 -98.5t112 -30.5q162 0 183 108q8 55 -21 80t-100 25h-131l16 92h111q129 0 145 100q26 125 -114 125q-139 0 -165 -137h-129q18 109 104 174
t206 65t182.5 -55t46.5 -145z" />
    <glyph glyph-name="acute" unicode="&#xb4;" horiz-adv-x="456" 
d="M207 1235l186 311h164l-238 -311h-112z" />
    <glyph glyph-name="paragraph" unicode="&#xb6;" horiz-adv-x="1458" 
d="M674 1425h885l-23 -120h-233l-299 -1688h-146l299 1688h-254l-299 -1688h-145l184 1040h-102q-197 0 -297 106q-101 106 -70 279q31 171 168 278q136 105 332 105z" />
    <glyph glyph-name="middot" unicode="&#xb7;" horiz-adv-x="464" 
d="M119 442l35 201h200l-35 -201h-200z" />
    <glyph glyph-name="cedilla" unicode="&#xb8;" horiz-adv-x="505" 
d="M74 -129h67q78 0 118 -41t28 -106q-12 -69 -70.5 -111.5t-140.5 -42.5h-164l16 88h148q80 0 92 68q8 35 -9.5 51t-60.5 16h-129l13 70l75 137h80z" />
    <glyph glyph-name="uni00B9" unicode="&#xb9;" horiz-adv-x="471" 
d="M297 1573h229l-123 -694h-120l92 522l26 141l-63 -53l-207 -156l25 131z" />
    <glyph glyph-name="ordmasculine" unicode="&#xba;" horiz-adv-x="854" 
d="M697 711q-109 -97 -258 -97q-151 0 -224 97q-74 97 -47 254q28 157 137 255q106 97 257 97q150 0 223 -97q73 -96 47 -255q-27 -158 -135 -254zM287 965q-45 -260 168 -260t258 260q49 262 -166 262q-217 0 -260 -262z" />
    <glyph glyph-name="guillemotright" unicode="&#xbb;" horiz-adv-x="968" 
d="M485 492h-2l-6 -35l-356 -307h-156l445 378l-312 379h156l250 -305zM518 907h154l250 -305l-19 -110l-6 -35l-358 -307h-154l442 378z" />
    <glyph glyph-name="onequarter" unicode="&#xbc;" horiz-adv-x="1458" 
d="M-4 0l1411 1434h125l-1411 -1434h-125zM535 1276l24 119l-51 -41l-180 -137l22 122l113 86h209l-107 -600h-108zM1026 600h178l-65 -381h102l-14 -88h-105l-22 -131h-107l23 131h-285l33 180zM772 217l96 2h164l39 215l29 139z" />
    <glyph glyph-name="onehalf" unicode="&#xbd;" horiz-adv-x="1458" 
d="M-6 0l1411 1434h125l-1409 -1434h-127zM547 1276l22 119l-49 -41l-180 -137l22 122l113 86h207l-104 -600h-111zM1112 627q103 0 156 -52q53 -53 37 -137q-11 -62 -51 -102q-43 -41 -136 -90l-225 -121l-80 -41l137 2h305l-14 -86h-483l26 152l301 163q59 31 81 54
q23 23 30 65q18 101 -98 103q-133 0 -154 -127h-110q17 98 93 158q77 59 185 59z" />
    <glyph glyph-name="threequarters" unicode="&#xbe;" horiz-adv-x="1458" 
d="M410 813q-110 0 -168 56q-58 55 -41 145h110q-10 -58 17 -84.5t98 -26.5q138 0 158 92q8 49 -16.5 70.5t-88.5 21.5h-114l14 80h96q111 0 127 88q19 106 -100 107q-123 0 -144 -119h-110q16 93 90 152q74 57 179 57q104 0 157 -47t41 -127q-16 -110 -162 -133
q164 -17 137 -158q-14 -78 -90 -126t-190 -48zM-12 0l1411 1434h125l-1411 -1434h-125zM1004 600h178l-66 -381h103l-17 -88h-102l-23 -131h-106l22 131h-284l32 180zM750 217l96 2h164l37 215l28 139z" />
    <glyph glyph-name="questiondown" unicode="&#xbf;" horiz-adv-x="1034" 
d="M537 1044h200l-35 -200h-200zM754 25h133q-34 -195 -178 -314q-145 -119 -342 -119q-195 0 -296 107q-102 108 -71 285q22 132 123 227q100 94 256 127l82 16l65 291h80l-47 -366l-151 -29q-127 -26 -187 -86q-63 -62 -86 -178q-27 -145 33.5 -212t216.5 -67
q162 0 250 76t119 242z" />
    <glyph glyph-name="Agrave" unicode="&#xc0;" horiz-adv-x="1390" 
d="M883 1935l80 -311h-113l-131 311h164zM1264 0h-150l-88 461h-661l-250 -461h-144l768 1425h252zM715 1110l-285 -528h574l-103 528l-47 268z" />
    <glyph glyph-name="Aacute" unicode="&#xc1;" horiz-adv-x="1390" 
d="M1032 1935h164l-238 -311h-112zM1264 0h-150l-88 461h-661l-250 -461h-144l768 1425h252zM715 1110l-285 -528h574l-103 528l-47 268z" />
    <glyph glyph-name="Acircumflex" unicode="&#xc2;" horiz-adv-x="1390" 
d="M1077 1624l-121 264l-217 -264h-135l262 311h191l155 -311h-135zM1264 0h-150l-88 461h-661l-250 -461h-144l768 1425h252zM715 1110l-285 -528h574l-103 528l-47 268z" />
    <glyph glyph-name="Atilde" unicode="&#xc3;" horiz-adv-x="1390" 
d="M776 1786q-111 0 -133 -127h-92q19 111 87 177q68 65 161 65q72 0 150 -66q77 -66 136 -66q113 0 132 127h92q-20 -111 -86 -176t-158 -65q-74 0 -152 66q-79 65 -137 65zM739 1425h252l273 -1425h-150l-88 461h-661l-250 -461h-144zM715 1110l-285 -528h574l-103 528
l-47 268z" />
    <glyph glyph-name="Adieresis" unicode="&#xc4;" horiz-adv-x="1390" 
d="M698 1872h176l-32 -186h-176zM1024 1872h176l-33 -186h-176zM1264 0h-150l-88 461h-661l-250 -461h-144l768 1425h252zM715 1110l-285 -528h574l-103 528l-47 268z" />
    <glyph glyph-name="Aring" unicode="&#xc5;" horiz-adv-x="1390" 
d="M1043 1663q-59 -45 -140 -45q-82 0 -124 45t-27 117q12 74 69.5 118t139.5 44q80 0 121.5 -44.5t29.5 -117.5q-12 -72 -69 -117zM829 1780q-8 -51 11.5 -71.5t75.5 -20.5q55 0 82.5 21.5t35.5 70.5q10 49 -10 70.5t-76 21.5q-102 0 -119 -92zM1264 0h-150l-88 461h-661
l-250 -461h-144l768 1425h252zM715 1110l-285 -528h574l-103 528l-47 268z" />
    <glyph glyph-name="AE" unicode="&#xc6;" horiz-adv-x="1937" 
d="M1976 1425l-22 -120h-940l100 -523h709l-23 -123h-663l104 -538h520l-22 -121h-625l-88 461h-661l-250 -461h-144l768 1425h1237zM715 1110l-285 -528h574l-103 528l-47 268z" />
    <glyph glyph-name="Ccedilla" unicode="&#xc7;" horiz-adv-x="1562" 
d="M1501 934h-149q33 199 -60.5 294t-322.5 95q-527 0 -633 -610q-55 -309 48 -460t370 -151q228 0 354.5 90.5t159.5 276.5h149q-40 -224 -228 -358q-187 -133 -439 -138l-52 -102h68q78 0 118 -41t27 -106q-12 -69 -70.5 -111.5t-140.5 -42.5h-163l16 88h147q79 0 93 68
q8 35 -9.5 51t-60.5 16h-129l12 70l62 112q-273 22 -406 223q-133 199 -78 515q58 335 282 537q221 202 525 202q257 0 405 -140q146 -140 105 -378z" />
    <glyph glyph-name="Egrave" unicode="&#xc8;" horiz-adv-x="1280" 
d="M874 1935l80 -311h-112l-131 311h163zM1319 1425l-21 -120h-751l-92 -523h710l-20 -123h-713l-94 -538h766l-21 -121h-911l250 1425h897z" />
    <glyph glyph-name="Eacute" unicode="&#xc9;" horiz-adv-x="1280" 
d="M1024 1935h164l-238 -311h-112zM1319 1425l-21 -120h-751l-92 -523h710l-20 -123h-713l-94 -538h766l-21 -121h-911l250 1425h897z" />
    <glyph glyph-name="Ecircumflex" unicode="&#xca;" horiz-adv-x="1280" 
d="M1069 1624l-121 264l-217 -264h-135l262 311h191l155 -311h-135zM1319 1425l-21 -120h-751l-92 -523h710l-20 -123h-713l-94 -538h766l-21 -121h-911l250 1425h897z" />
    <glyph glyph-name="Edieresis" unicode="&#xcb;" horiz-adv-x="1280" 
d="M690 1872h176l-32 -186h-177zM1016 1872h176l-33 -186h-176zM1319 1425l-21 -120h-751l-92 -523h710l-20 -123h-713l-94 -538h766l-21 -121h-911l250 1425h897z" />
    <glyph glyph-name="Igrave" unicode="&#xcc;" horiz-adv-x="671" 
d="M344 1935h164l80 -311h-113zM172 0l250 1425h145l-250 -1425h-145z" />
    <glyph glyph-name="Iacute" unicode="&#xcd;" horiz-adv-x="671" 
d="M473 1624l186 311h164l-237 -311h-113zM172 0l250 1425h145l-250 -1425h-145z" />
    <glyph glyph-name="Icircumflex" unicode="&#xce;" horiz-adv-x="671" 
d="M682 1935l156 -311h-136l-120 264l-217 -264h-136l263 311h190zM317 0h-145l250 1425h145z" />
    <glyph glyph-name="Idieresis" unicode="&#xcf;" horiz-adv-x="671" 
d="M291 1686l33 186h176l-33 -186h-176zM616 1686l33 186h176l-32 -186h-177zM172 0l250 1425h145l-250 -1425h-145z" />
    <glyph glyph-name="Eth" unicode="&#xd0;" horiz-adv-x="1622" 
d="M422 1425h547q299 0 448 -195q148 -196 91 -517q-59 -323 -275 -517q-217 -196 -516 -196h-545l115 651h-224l21 121h223zM1356 713q53 291 -54.5 441.5t-369.5 150.5h-385l-94 -533h399l-21 -121h-399l-94 -530h385q261 0 421.5 150.5t211.5 441.5z" />
    <glyph glyph-name="Ntilde" unicode="&#xd1;" horiz-adv-x="1660" 
d="M905 1786q-111 0 -133 -127h-92q20 111 87 177q68 65 161 65q72 0 150 -66q76 -66 136 -66q113 0 132 127h92q-20 -111 -86 -176t-158 -65q-74 0 -152 66q-79 65 -137 65zM1239 440l172 985h145l-249 -1425h-246l-514 1358l-47 -318l-183 -1040h-145l250 1425h252
l510 -1347z" />
    <glyph glyph-name="Ograve" unicode="&#xd2;" horiz-adv-x="1669" 
d="M848 1944h164l80 -312h-113zM743 -27q-311 0 -463 203q-153 202 -96 537q58 335 285 537q224 202 535 202q305 0 456 -202q150 -202 93 -537q-59 -336 -281 -537q-224 -203 -529 -203zM766 102q530 0 637 611q106 610 -422 610q-539 0 -645 -610q-107 -611 430 -611z" />
    <glyph glyph-name="Oacute" unicode="&#xd3;" horiz-adv-x="1669" 
d="M977 1632l186 312h164l-237 -312h-113zM743 -27q-311 0 -463 203q-153 202 -96 537q58 335 285 537q224 202 535 202q305 0 456 -202q150 -202 93 -537q-59 -336 -281 -537q-224 -203 -529 -203zM766 102q530 0 637 611q106 610 -422 610q-539 0 -645 -610
q-107 -611 430 -611z" />
    <glyph glyph-name="Ocircumflex" unicode="&#xd4;" horiz-adv-x="1669" 
d="M1208 1632l-121 264l-217 -264h-135l262 312h191l155 -312h-135zM1004 1452q305 0 456 -202q150 -202 93 -537q-59 -336 -281 -537q-224 -203 -529 -203q-311 0 -463 203q-153 202 -96 537q58 335 285 537q226 202 535 202zM766 102q530 0 637 611q106 610 -422 610
q-539 0 -645 -610q-107 -611 430 -611z" />
    <glyph glyph-name="Otilde" unicode="&#xd5;" horiz-adv-x="1669" 
d="M1196 1663q-74 0 -151 66q-79 65 -138 65q-111 0 -133 -127h-92q20 111 87 177q68 65 161 65q71 0 150 -65q77 -66 137 -66q113 0 131 127h92q-20 -111 -86 -176q-66 -66 -158 -66zM743 -27q-311 0 -463 203q-153 202 -96 537q58 335 285 537q224 202 535 202
q305 0 456 -202q150 -202 93 -537q-59 -336 -281 -537q-224 -203 -529 -203zM766 102q530 0 637 611q106 610 -422 610q-539 0 -645 -610q-107 -611 430 -611z" />
    <glyph glyph-name="Odieresis" unicode="&#xd6;" horiz-adv-x="1669" 
d="M795 1694l32 186h177l-33 -186h-176zM1120 1694l33 186h176l-33 -186h-176zM743 -27q-311 0 -463 203q-153 202 -96 537q58 335 285 537q224 202 535 202q305 0 456 -202q150 -202 93 -537q-59 -336 -281 -537q-224 -203 -529 -203zM766 102q530 0 637 611
q106 610 -422 610q-539 0 -645 -610q-107 -611 430 -611z" />
    <glyph glyph-name="multiply" unicode="&#xd7;" horiz-adv-x="907" 
d="M793 883l63 -76l-324 -277l226 -274l-88 -76l-228 277l-323 -277l-62 76l324 276l-225 275l88 76l225 -275z" />
    <glyph glyph-name="Oslash" unicode="&#xd8;" horiz-adv-x="1669" 
d="M1491 1546h151l-221 -252q197 -203 131 -581q-57 -335 -280 -537q-224 -203 -529 -203q-231 0 -378 117l-193 -221h-152l265 301q-160 200 -101 543q58 335 285 537q224 202 535 202q192 0 329 -86zM336 713q-49 -289 39 -439l870 994q-101 55 -264 55q-539 0 -645 -610z
M1403 713q57 332 -68 481l-882 -1006q112 -86 313 -86q531 1 637 611z" />
    <glyph glyph-name="Ugrave" unicode="&#xd9;" horiz-adv-x="1585" 
d="M801 1935h164l79 -311h-112zM223 487l166 938h143l-163 -931q-35 -199 52 -295.5t300 -96.5q417 0 485 392l166 931h146l-166 -938q-39 -231 -220 -372q-181 -142 -436 -142q-254 0 -384 142q-130 140 -89 372z" />
    <glyph glyph-name="Uacute" unicode="&#xda;" horiz-adv-x="1585" 
d="M928 1624l186 311h164l-238 -311h-112zM223 487l166 938h143l-163 -931q-35 -199 52 -295.5t300 -96.5q417 0 485 392l166 931h146l-166 -938q-39 -231 -220 -372q-181 -142 -436 -142q-254 0 -384 142q-130 140 -89 372z" />
    <glyph glyph-name="Ucircumflex" unicode="&#xdb;" horiz-adv-x="1585" 
d="M1159 1624l-121 264l-217 -264h-135l262 311h191l155 -311h-135zM1206 494l166 931h146l-166 -938q-39 -231 -220 -372q-181 -142 -436 -142q-254 0 -384 142q-130 140 -89 372l166 938h143l-163 -931q-35 -199 52 -295.5t300 -96.5q417 0 485 392z" />
    <glyph glyph-name="Udieresis" unicode="&#xdc;" horiz-adv-x="1585" 
d="M748 1686l32 186h176l-32 -186h-176zM1073 1686l33 186h176l-33 -186h-176zM223 487l166 938h143l-163 -931q-35 -199 52 -295.5t300 -96.5q417 0 485 392l166 931h146l-166 -938q-39 -231 -220 -372q-181 -142 -436 -142q-254 0 -384 142q-130 140 -89 372z" />
    <glyph glyph-name="Yacute" unicode="&#xdd;" horiz-adv-x="1288" 
d="M973 1935h164l-238 -311h-113zM1284 1425h146l-715 -946l-84 -479h-146l86 479l-383 946h156l242 -596l82 -239l168 239z" />
    <glyph glyph-name="Thorn" unicode="&#xde;" horiz-adv-x="1298" 
d="M514 1126h422q194 0 295 -111q100 -112 68 -294q-33 -181 -180 -294q-148 -112 -357 -112h-389l-56 -315h-145l250 1425h145zM1147 721q27 147 -33.5 215t-218.5 68h-401l-101 -568h404q158 0 241.5 68.5t108.5 216.5z" />
    <glyph glyph-name="germandbls" unicode="&#xdf;" horiz-adv-x="1415" 
d="M1069 934q-145 -56 -188 -91q-45 -36 -56 -95q-11 -57 33 -90q45 -34 182 -68q212 -51 273 -127t39 -203q-22 -128 -144 -208q-121 -79 -295 -79q-193 0 -293 99q-100 97 -71 260h141q-23 -129 36.5 -189.5t209.5 -60.5q248 0 278 168q18 96 -24 141q-43 45 -217 88
q-165 41 -233 104t-52 152q16 95 87 160q71 64 212 119q134 51 184 93q48 42 60 116q20 117 -58.5 172t-267.5 55q-199 0 -304 -70.5t-132 -222.5l-205 -1157h-137l207 1176q31 173 195 283q163 108 399 108q228 0 350 -94q123 -94 94 -248q-18 -99 -90 -167.5t-213 -123.5z
" />
    <glyph glyph-name="agrave" unicode="&#xe0;" horiz-adv-x="1185" 
d="M672 1546l80 -311h-113l-131 311h164zM1042 96h27l-18 -96q-60 -16 -121 -16q-92 0 -123 52t-12 177l4 27q-66 -123 -186 -195q-121 -72 -273 -72q-138 0 -212 68q-73 67 -52 180q33 205 340 266q378 80 440 99l6 39q31 171 -21.5 251t-193.5 80q-143 0 -223 -74.5
t-107 -230.5h-139q34 186 169 299q134 113 321 113q193 0 282 -107q88 -107 56 -297l-72 -403q-18 -109 0 -134q18 -26 108 -26zM391 86q163 0 279 82q116 83 153 235l17 99q-27 -8 -387 -90q-115 -27 -166 -69q-50 -41 -64 -110q-14 -72 29 -109.5t139 -37.5z" />
    <glyph glyph-name="aacute" unicode="&#xe1;" horiz-adv-x="1185" 
d="M823 1546h164l-237 -311h-113zM1042 96h27l-18 -96q-60 -16 -121 -16q-92 0 -123 52t-12 177l4 27q-66 -123 -186 -195q-121 -72 -273 -72q-138 0 -212 68q-73 67 -52 180q33 205 340 266q378 80 440 99l6 39q31 171 -21.5 251t-193.5 80q-143 0 -223 -74.5t-107 -230.5
h-139q34 186 169 299q134 113 321 113q193 0 282 -107q88 -107 56 -297l-72 -403q-18 -109 0 -134q18 -26 108 -26zM391 86q163 0 279 82q116 83 153 235l17 99q-27 -8 -387 -90q-115 -27 -166 -69q-50 -41 -64 -110q-14 -72 29 -109.5t139 -37.5z" />
    <glyph glyph-name="acircumflex" unicode="&#xe2;" horiz-adv-x="1185" 
d="M868 1235l-120 264l-218 -264h-135l262 311h191l156 -311h-136zM1042 96h27l-18 -96q-60 -16 -121 -16q-92 0 -123 52t-12 177l4 27q-66 -123 -186 -195q-121 -72 -273 -72q-138 0 -212 68q-73 67 -52 180q33 205 340 266q378 80 440 99l6 39q31 171 -21.5 251t-193.5 80
q-143 0 -223 -74.5t-107 -230.5h-139q34 186 169 299q134 113 321 113q193 0 282 -107q88 -107 56 -297l-72 -403q-18 -109 0 -134q18 -26 108 -26zM391 86q163 0 279 82q116 83 153 235l17 99q-27 -8 -387 -90q-115 -27 -166 -69q-50 -41 -64 -110q-14 -72 29 -109.5
t139 -37.5z" />
    <glyph glyph-name="atilde" unicode="&#xe3;" horiz-adv-x="1185" 
d="M567 1397q-111 0 -133 -127h-92q20 111 87 176t161 65q71 0 150 -65q76 -66 137 -66q113 0 131 127h92q-20 -111 -86 -176t-158 -65q-74 0 -152 66q-79 65 -137 65zM1006 659l-72 -403q-18 -109 0 -134q18 -26 108 -26h27l-18 -96q-60 -16 -121 -16q-92 0 -123 52
t-12 177l4 27q-66 -123 -186 -195q-121 -72 -273 -72q-138 0 -212 68q-73 67 -52 180q33 205 340 266q378 80 440 99l6 39q31 171 -21.5 251t-193.5 80q-143 0 -223 -74.5t-107 -230.5h-139q34 186 169 299q134 113 321 113q193 0 282 -107q88 -107 56 -297zM391 86
q163 0 279 82q116 83 153 235l17 99q-27 -8 -387 -90q-115 -27 -166 -69q-50 -41 -64 -110q-14 -72 29 -109.5t139 -37.5z" />
    <glyph glyph-name="adieresis" unicode="&#xe4;" horiz-adv-x="1185" 
d="M489 1483h177l-33 -187h-176zM815 1483h176l-33 -187h-176zM1042 96h27l-18 -96q-60 -16 -121 -16q-92 0 -123 52t-12 177l4 27q-66 -123 -186 -195q-121 -72 -273 -72q-138 0 -212 68q-73 67 -52 180q33 205 340 266q378 80 440 99l6 39q31 171 -21.5 251t-193.5 80
q-143 0 -223 -74.5t-107 -230.5h-139q34 186 169 299q134 113 321 113q193 0 282 -107q88 -107 56 -297l-72 -403q-18 -109 0 -134q18 -26 108 -26zM391 86q163 0 279 82q116 83 153 235l17 99q-27 -8 -387 -90q-115 -27 -166 -69q-50 -41 -64 -110q-14 -72 29 -109.5
t139 -37.5z" />
    <glyph glyph-name="aring" unicode="&#xe5;" horiz-adv-x="1185" 
d="M834 1274q-58 -45 -140 -45t-124 45t-27 117q12 74 69.5 117.5t139.5 43.5q80 0 121.5 -44t29.5 -117q-12 -72 -69 -117zM621 1391q-8 -51 11.5 -72t74.5 -21q56 0 83 21.5t35 71.5q10 49 -10 70.5t-76 21.5q-101 0 -118 -92zM1042 96h27l-18 -96q-60 -16 -121 -16
q-92 0 -123 52t-12 177l4 27q-66 -123 -186 -195q-121 -72 -273 -72q-138 0 -212 68q-73 67 -52 180q33 205 340 266q378 80 440 99l6 39q31 171 -21.5 251t-193.5 80q-143 0 -223 -74.5t-107 -230.5h-139q34 186 169 299q134 113 321 113q193 0 282 -107q88 -107 56 -297
l-72 -403q-18 -109 0 -134q18 -26 108 -26zM391 86q163 0 279 82q116 83 153 235l17 99q-27 -8 -387 -90q-115 -27 -166 -69q-50 -41 -64 -110q-14 -72 29 -109.5t139 -37.5z" />
    <glyph glyph-name="ae" unicode="&#xe6;" horiz-adv-x="1941" 
d="M1442 1063q209 0 314 -132q104 -133 65 -347l-17 -99h-813q-57 -397 279 -397q164 0 250 56.5t106 177.5h143q-29 -156 -171 -252q-142 -97 -349 -97q-168 0 -271.5 89.5t-121.5 252.5q-53 -152 -187 -247t-317 -95q-144 0 -221 68q-76 67 -55 180q16 101 100.5 167
t251.5 99q390 83 440 99l6 39q59 332 -215 332q-273 -1 -329 -306h-137q33 187 166 299q134 113 321 113q132 0 215.5 -58.5t105.5 -164.5q171 223 441 223zM1010 582l278 4h393q27 186 -36.5 274t-223.5 88q-164 0 -265 -90t-146 -276zM403 86q171 0 289 90t150 258l12 68
q-65 -19 -389 -90q-123 -27 -176 -68q-53 -40 -66 -111q-25 -147 180 -147z" />
    <glyph glyph-name="ccedilla" unicode="&#xe7;" horiz-adv-x="1216" 
d="M1104 670h-141q25 143 -35 210.5t-213 67.5q-178 0 -281.5 -105.5t-142.5 -324.5t28.5 -324.5t245.5 -105.5q156 0 239 60.5t105 191.5h142q-27 -158 -155 -257q-128 -100 -314 -110l-52 -102h68q78 0 118 -41t27 -106q-12 -69 -70.5 -111.5t-140.5 -42.5h-163l16 88h147
q79 0 93 68q8 35 -9.5 51t-60.5 16h-129l12 70l62 112q-203 17 -300 163q-98 148 -55 380q41 246 204 396q164 149 388 149q198 0 298 -108q101 -109 69 -285z" />
    <glyph glyph-name="egrave" unicode="&#xe8;" horiz-adv-x="1234" 
d="M743 1546l80 -311h-112l-131 311h163zM735 1063q209 0 314 -132q104 -133 65 -347l-16 -99h-813q-29 -202 39.5 -299.5t242.5 -97.5q311 0 353 234h143q-29 -152 -172 -250q-143 -99 -344 -99q-225 0 -336 150q-111 149 -66 395q41 246 204 396q164 149 386 149zM303 582
l277 4h395q27 186 -37 274t-223 88q-164 0 -265.5 -90t-146.5 -276z" />
    <glyph glyph-name="eacute" unicode="&#xe9;" horiz-adv-x="1234" 
d="M895 1546h164l-238 -311h-112zM735 1063q209 0 314 -132q104 -133 65 -347l-16 -99h-813q-29 -202 39.5 -299.5t242.5 -97.5q311 0 353 234h143q-29 -152 -172 -250q-143 -99 -344 -99q-225 0 -336 150q-111 149 -66 395q41 246 204 396q164 149 386 149zM303 582l277 4
h395q27 186 -37 274t-223 88q-164 0 -265.5 -90t-146.5 -276z" />
    <glyph glyph-name="ecircumflex" unicode="&#xea;" horiz-adv-x="1234" 
d="M940 1235l-121 264l-217 -264h-135l262 311h191l155 -311h-135zM735 1063q209 0 314 -132q104 -133 65 -347l-16 -99h-813q-29 -202 39.5 -299.5t242.5 -97.5q311 0 353 234h143q-29 -152 -172 -250q-143 -99 -344 -99q-225 0 -336 150q-111 149 -66 395q41 246 204 396
q164 149 386 149zM303 582l277 4h395q27 186 -37 274t-223 88q-164 0 -265.5 -90t-146.5 -276z" />
    <glyph glyph-name="edieresis" unicode="&#xeb;" horiz-adv-x="1234" 
d="M561 1483h176l-32 -187h-177zM887 1483h176l-33 -187h-176zM735 1063q209 0 314 -132q104 -133 65 -347l-16 -99h-813q-29 -202 39.5 -299.5t242.5 -97.5q311 0 353 234h143q-29 -152 -172 -250q-143 -99 -344 -99q-225 0 -336 150q-111 149 -66 395q41 246 204 396
q164 149 386 149zM303 582l277 4h395q27 186 -37 274t-223 88q-164 0 -265.5 -90t-146.5 -276z" />
    <glyph glyph-name="igrave" unicode="&#xec;" horiz-adv-x="557" 
d="M227 1546h164l80 -311h-113zM127 0l182 1036h140l-185 -1036h-137z" />
    <glyph glyph-name="iacute" unicode="&#xed;" horiz-adv-x="557" 
d="M354 1235l187 311h164l-238 -311h-113zM127 0l182 1036h140l-185 -1036h-137z" />
    <glyph glyph-name="icircumflex" unicode="&#xee;" horiz-adv-x="557" 
d="M567 1546l156 -311h-135l-121 264l-217 -264h-135l262 311h190zM264 0h-137l182 1036h140z" />
    <glyph glyph-name="idieresis" unicode="&#xef;" horiz-adv-x="557" 
d="M174 1296l33 187h176l-33 -187h-176zM500 1296l32 187h177l-33 -187h-176zM127 0l182 1036h140l-185 -1036h-137z" />
    <glyph glyph-name="eth" unicode="&#xf0;" horiz-adv-x="1224" 
d="M1196 1546l-223 -180q276 -219 196 -680q-57 -331 -226 -521q-169 -192 -404 -192q-221 0 -330 145q-109 143 -68 380q39 228 191 368q152 138 358 138q147 0 238 -76q90 -76 106 -205q39 217 3 349q-36 131 -158 208l-205 -162h-142l261 207q-57 22 -105 35l-287 82
l23 131l256 -68q123 -34 217 -88l160 129h139zM559 96q344 0 416 404q67 385 -273 385q-176 0 -278 -95.5t-137 -291.5q-71 -402 272 -402z" />
    <glyph glyph-name="ntilde" unicode="&#xf1;" horiz-adv-x="1327" 
d="M698 1397q-111 0 -133 -127h-92q20 111 87 176t161 65q71 0 150 -65q77 -66 137 -66q113 0 131 127h92q-20 -111 -86 -176t-158 -65q-74 0 -152 66q-79 65 -137 65zM838 1063q172 0 259 -107q87 -109 56 -282l-119 -674h-139l111 616q31 178 -21 253q-53 75 -209 75
q-152 0 -256 -80t-141 -225l-115 -639h-137l182 1036h133l-39 -221q159 248 435 248z" />
    <glyph glyph-name="ograve" unicode="&#xf2;" horiz-adv-x="1292" 
d="M584 1546h164l79 -311h-112zM938 123q-164 -150 -389 -150t-336 150q-111 149 -68 395q40 245 206 396q166 149 391 149t338 -149q112 -149 67 -396q-45 -246 -209 -395zM569 88q356 0 432 430q37 219 -31.5 324.5t-248.5 105.5q-179 0 -284 -105t-146 -325
q-76 -430 278 -430z" />
    <glyph glyph-name="oacute" unicode="&#xf3;" horiz-adv-x="1292" 
d="M711 1235l186 311h164l-238 -311h-112zM938 123q-164 -150 -389 -150t-336 150q-111 149 -68 395q40 245 206 396q166 149 391 149t338 -149q112 -149 67 -396q-45 -246 -209 -395zM569 88q356 0 432 430q37 219 -31.5 324.5t-248.5 105.5q-179 0 -284 -105t-146 -325
q-76 -430 278 -430z" />
    <glyph glyph-name="ocircumflex" unicode="&#xf4;" horiz-adv-x="1292" 
d="M944 1235l-121 264l-217 -264h-135l262 311h191l155 -311h-135zM351 914q166 149 391 149t338 -149q112 -149 67 -396q-45 -246 -209 -395q-164 -150 -389 -150t-336 150q-111 149 -68 395q40 245 206 396zM1001 518q37 219 -31.5 324.5t-248.5 105.5q-179 0 -284 -105
t-146 -325q-76 -430 278 -430q356 0 432 430z" />
    <glyph glyph-name="otilde" unicode="&#xf5;" horiz-adv-x="1292" 
d="M932 1266q-74 0 -152 66q-79 65 -137 65q-111 0 -133 -127h-92q20 111 86.5 176t161.5 65q71 0 150 -65q76 -66 136 -66q113 0 131 127h93q-20 -111 -86 -176t-158 -65zM938 123q-164 -150 -389 -150t-336 150q-111 149 -68 395q40 245 206 396q166 149 391 149t338 -149
q112 -149 67 -396q-45 -246 -209 -395zM569 88q356 0 432 430q37 219 -31.5 324.5t-248.5 105.5q-179 0 -284 -105t-146 -325q-76 -430 278 -430z" />
    <glyph glyph-name="odieresis" unicode="&#xf6;" horiz-adv-x="1292" 
d="M530 1296l33 187h176l-32 -187h-177zM856 1296l33 187h176l-33 -187h-176zM938 123q-164 -150 -389 -150t-336 150q-111 149 -68 395q40 245 206 396q166 149 391 149t338 -149q112 -149 67 -396q-45 -246 -209 -395zM569 88q356 0 432 430q37 219 -31.5 324.5
t-248.5 105.5q-179 0 -284 -105t-146 -325q-76 -430 278 -430z" />
    <glyph glyph-name="divide" unicode="&#xf7;" horiz-adv-x="1050" 
d="M473 793l37 200h201l-37 -200h-201zM115 588h843l-18 -113h-844zM346 70l35 200h203l-37 -200h-201z" />
    <glyph glyph-name="oslash" unicode="&#xf8;" horiz-adv-x="1292" 
d="M1188 1188h149l-258 -277q111 -146 68 -393q-45 -246 -209 -395q-164 -150 -389 -150q-164 0 -270 82l-185 -198h-149l260 278q-98 147 -60 383q40 245 206 396q166 149 390 149q153 0 260 -74zM291 518q-31 -179 8 -282l619 661q-72 51 -197 51q-179 0 -284 -105
t-146 -325zM1001 518q31 189 -14 293l-622 -666q71 -57 204 -57q356 0 432 430z" />
    <glyph glyph-name="ugrave" unicode="&#xf9;" horiz-adv-x="1308" 
d="M741 1546l80 -311h-112l-131 311h163zM936 422l108 614h138l-183 -1036h-131l37 211q-151 -238 -432 -238q-165 0 -247 108q-83 108 -52 281l119 674h137l-108 -616q-31 -178 20 -253t207 -75q153 0 257 87q103 87 130 243z" />
    <glyph glyph-name="uacute" unicode="&#xfa;" horiz-adv-x="1308" 
d="M891 1546h164l-238 -311h-112zM936 422l108 614h138l-183 -1036h-131l37 211q-151 -238 -432 -238q-165 0 -247 108q-83 108 -52 281l119 674h137l-108 -616q-31 -178 20 -253t207 -75q153 0 257 87q103 87 130 243z" />
    <glyph glyph-name="ucircumflex" unicode="&#xfb;" horiz-adv-x="1308" 
d="M938 1235l-121 264l-217 -264h-135l262 311h191l155 -311h-135zM936 422l108 614h138l-183 -1036h-131l37 211q-151 -238 -432 -238q-165 0 -247 108q-83 108 -52 281l119 674h137l-108 -616q-31 -178 20 -253t207 -75q153 0 257 87q103 87 130 243z" />
    <glyph glyph-name="udieresis" unicode="&#xfc;" horiz-adv-x="1308" 
d="M557 1483h176l-33 -187h-176zM883 1483h176l-33 -187h-176zM936 422l108 614h138l-183 -1036h-131l37 211q-151 -238 -432 -238q-165 0 -247 108q-83 108 -52 281l119 674h137l-108 -616q-31 -178 20 -253t207 -75q153 0 257 87q103 87 130 243z" />
    <glyph glyph-name="yacute" unicode="&#xfd;" horiz-adv-x="1089" 
d="M776 1546h164l-238 -311h-112zM586 281l424 755h137l-690 -1220q-122 -215 -314 -215q-100 0 -155 16l16 100h131q75 0 118 26q42 25 83 97l90 160h-82l-219 1036h143l156 -755l41 -226z" />
    <glyph glyph-name="thorn" unicode="&#xfe;" horiz-adv-x="1357" 
d="M836 1063q215 0 317 -149q102 -151 59 -396q-45 -247 -199 -395q-155 -150 -370 -150q-128 0 -217.5 58t-124.5 168l-115 -648h-139l352 1995h133l-131 -743q74 126 187.5 193t247.5 67zM1067 518q39 219 -29.5 324.5t-251.5 105.5q-174 0 -277 -96t-144 -297l-15 -72
q-29 -201 41 -298t244 -97q180 0 285.5 105.5t146.5 324.5z" />
    <glyph glyph-name="ydieresis" unicode="&#xff;" horiz-adv-x="1089" 
d="M442 1483h176l-32 -187h-176zM768 1483h176l-33 -187h-176zM586 281l424 755h137l-690 -1220q-122 -215 -314 -215q-100 0 -155 16l16 100h131q75 0 118 26q42 25 83 97l90 160h-82l-219 1036h143l156 -755l41 -226z" />
    <glyph glyph-name="Amacron" unicode="&#x100;" horiz-adv-x="1390" 
d="M664 1841h559l-21 -112h-557zM1264 0h-150l-88 461h-661l-250 -461h-144l768 1425h252zM715 1110l-285 -528h574l-103 528l-47 268z" />
    <glyph glyph-name="amacron" unicode="&#x101;" horiz-adv-x="1185" 
d="M455 1452h559l-21 -113h-557zM1042 96h27l-18 -96q-60 -16 -121 -16q-92 0 -123 52t-12 177l4 27q-66 -123 -186 -195q-121 -72 -273 -72q-138 0 -212 68q-73 67 -52 180q33 205 340 266q378 80 440 99l6 39q31 171 -21.5 251t-193.5 80q-143 0 -223 -74.5t-107 -230.5
h-139q34 186 169 299q134 113 321 113q193 0 282 -107q88 -107 56 -297l-72 -403q-18 -109 0 -134q18 -26 108 -26zM391 86q163 0 279 82q116 83 153 235l17 99q-27 -8 -387 -90q-115 -27 -166 -69q-50 -41 -64 -110q-14 -72 29 -109.5t139 -37.5z" />
    <glyph glyph-name="Abreve" unicode="&#x102;" horiz-adv-x="1390" 
d="M1124 1705q-94 -87 -221 -87t-191 87q-65 88 -38 230h117q-20 -115 10.5 -168t118.5 -53t138 53.5t70 167.5h117q-27 -144 -121 -230zM1264 0h-150l-88 461h-661l-250 -461h-144l768 1425h252zM715 1110l-285 -528h574l-103 528l-47 268z" />
    <glyph glyph-name="abreve" unicode="&#x103;" horiz-adv-x="1185" 
d="M915 1316q-95 -87 -221 -87t-191 87q-65 88 -38 230h117q-20 -115 10.5 -168t118.5 -53t138 53.5t71 167.5h116q-27 -144 -121 -230zM1042 96h27l-18 -96q-60 -16 -121 -16q-92 0 -123 52t-12 177l4 27q-66 -123 -186 -195q-121 -72 -273 -72q-138 0 -212 68
q-73 67 -52 180q33 205 340 266q378 80 440 99l6 39q31 171 -21.5 251t-193.5 80q-143 0 -223 -74.5t-107 -230.5h-139q34 186 169 299q134 113 321 113q193 0 282 -107q88 -107 56 -297l-72 -403q-18 -109 0 -134q18 -26 108 -26zM391 86q163 0 279 82q116 83 153 235
l17 99q-27 -8 -387 -90q-115 -27 -166 -69q-50 -41 -64 -110q-14 -72 29 -109.5t139 -37.5z" />
    <glyph glyph-name="Aogonek" unicode="&#x104;" horiz-adv-x="1390" 
d="M1212 0l-196 -205q-50 -50 -55 -86q-4 -29 10.5 -40t56.5 -11h148l-17 -88h-184q-74 0 -111 31.5t-28 87.5q17 67 82 123l200 188h-4l-88 461h-661l-250 -461h-144l768 1425h252l273 -1425h-52zM715 1110l-285 -528h574l-103 528l-47 268z" />
    <glyph glyph-name="aogonek" unicode="&#x105;" horiz-adv-x="1185" 
d="M973 -14l-182 -191q-51 -51 -56 -86q-4 -29 11 -40t57 -11h147l-16 -88h-184q-74 0 -111 31.5t-29 87.5q17 67 82 123l189 176q-61 12 -82 65.5t-4 159.5l4 27q-66 -123 -186 -195q-121 -72 -273 -72q-138 0 -212 68q-73 67 -52 180q33 205 340 266q378 80 440 99l6 39
q31 171 -21.5 251t-193.5 80q-143 0 -223 -74.5t-107 -230.5h-139q34 186 169 299q134 113 321 113q193 0 282 -107q88 -107 56 -297l-72 -403q-18 -109 0 -134q18 -26 108 -26h27l-18 -96q-47 -13 -78 -14zM391 86q163 0 279 82q116 83 153 235l17 99q-27 -8 -387 -90
q-115 -27 -166 -69q-50 -41 -64 -110q-14 -72 29 -109.5t139 -37.5z" />
    <glyph glyph-name="Cacute" unicode="&#x106;" horiz-adv-x="1562" 
d="M958 1624l187 311h164l-238 -311h-113zM184 713q58 335 282 537q221 202 525 202q257 0 405 -140q146 -141 105 -378h-149q33 199 -60.5 294t-322.5 95q-527 0 -633 -610q-55 -309 48 -460t370 -151q228 0 354.5 90.5t159.5 276.5h149q-41 -231 -234 -363
q-193 -133 -452 -133q-305 0 -454 203q-150 202 -93 537z" />
    <glyph glyph-name="cacute" unicode="&#x107;" horiz-adv-x="1216" 
d="M705 1235l186 311h164l-238 -311h-112zM909 340h142q-27 -165 -167 -266q-142 -101 -339 -101q-225 0 -335 150q-110 149 -65 395q41 246 204 396q164 149 388 149q198 0 298 -108q101 -109 69 -285h-141q25 143 -35 210.5t-213 67.5q-178 0 -281.5 -105.5t-142.5 -324.5
t28.5 -324.5t245.5 -105.5q156 0 239 60.5t105 191.5z" />
    <glyph glyph-name="Ccircumflex" unicode="&#x108;" horiz-adv-x="1562" 
d="M1190 1624l-121 264l-217 -264h-135l262 311h190l156 -311h-135zM1501 934h-149q33 199 -60.5 294t-322.5 95q-527 0 -633 -610q-55 -309 48 -460t370 -151q228 0 354.5 90.5t159.5 276.5h149q-41 -231 -234 -363q-193 -133 -452 -133q-305 0 -454 203q-150 202 -93 537
q58 335 282 537q221 202 525 202q257 0 405 -140q146 -140 105 -378z" />
    <glyph glyph-name="ccircumflex" unicode="&#x109;" horiz-adv-x="1216" 
d="M936 1235l-121 264l-217 -264h-135l262 311h190l156 -311h-135zM1104 670h-141q25 143 -35 210.5t-213 67.5q-178 0 -281.5 -105.5t-142.5 -324.5t28.5 -324.5t245.5 -105.5q156 0 239 60.5t105 191.5h142q-27 -165 -167 -266q-142 -101 -339 -101q-225 0 -335 150
q-110 149 -65 395q41 246 204 396q164 149 388 149q198 0 298 -108q101 -109 69 -285z" />
    <glyph glyph-name="Cdotaccent" unicode="&#x10a;" horiz-adv-x="1562" 
d="M938 1686l33 186h176l-33 -186h-176zM184 713q58 335 282 537q221 202 525 202q257 0 405 -140q146 -141 105 -378h-149q33 199 -60.5 294t-322.5 95q-527 0 -633 -610q-55 -309 48 -460t370 -151q228 0 354.5 90.5t159.5 276.5h149q-41 -231 -234 -363
q-193 -133 -452 -133q-305 0 -454 203q-150 202 -93 537z" />
    <glyph glyph-name="cdotaccent" unicode="&#x10b;" horiz-adv-x="1216" 
d="M686 1296l33 187h176l-33 -187h-176zM909 340h142q-27 -165 -167 -266q-142 -101 -339 -101q-225 0 -335 150q-110 149 -65 395q41 246 204 396q164 149 388 149q198 0 298 -108q101 -109 69 -285h-141q25 143 -35 210.5t-213 67.5q-178 0 -281.5 -105.5t-142.5 -324.5
t28.5 -324.5t245.5 -105.5q156 0 239 60.5t105 191.5z" />
    <glyph glyph-name="Ccaron" unicode="&#x10c;" horiz-adv-x="1562" 
d="M1110 1624h-192l-154 311h135l123 -264l215 264h135zM1501 934h-149q33 199 -60.5 294t-322.5 95q-527 0 -633 -610q-55 -309 48 -460t370 -151q228 0 354.5 90.5t159.5 276.5h149q-41 -231 -234 -363q-193 -133 -452 -133q-305 0 -454 203q-150 202 -93 537
q58 335 282 537q221 202 525 202q257 0 405 -140q146 -140 105 -378z" />
    <glyph glyph-name="ccaron" unicode="&#x10d;" horiz-adv-x="1216" 
d="M858 1235h-192l-154 311h135l123 -264l215 264h135zM737 1063q198 0 298 -108q101 -109 69 -285h-141q25 143 -35 210.5t-213 67.5q-178 0 -281.5 -105.5t-142.5 -324.5t28.5 -324.5t245.5 -105.5q156 0 239 60.5t105 191.5h142q-27 -165 -167 -266q-142 -101 -339 -101
q-225 0 -335 150q-110 149 -65 395q41 246 204 396q164 149 388 149z" />
    <glyph glyph-name="Dcaron" unicode="&#x10e;" horiz-adv-x="1622" 
d="M1090 1624h-193l-154 311h136l122 -264l216 264h135zM422 1425h547q299 0 448 -195q148 -196 91 -517q-59 -323 -275 -517q-217 -196 -516 -196h-545zM1356 713q53 291 -54.5 441.5t-369.5 150.5h-385l-209 -1184h385q261 0 421.5 150.5t211.5 441.5z" />
    <glyph glyph-name="dcaron" unicode="&#x10f;" horiz-adv-x="1339" 
d="M1055 831l127 715h137l-272 -1546h-132l39 229q-74 -124 -187 -190t-247 -66q-215 0 -317 150q-103 148 -58 395q40 245 197 396q157 149 371 149q131 0 221.5 -60t120.5 -172zM1466 1425l21 121h180l-27 -145q-16 -104 -84 -162.5t-170 -58.5l15 71q131 0 151 129z
M569 88q170 0 272.5 92t149.5 285l19 102q23 195 -48 288t-241 93q-180 0 -285.5 -105.5t-144.5 -324.5t29.5 -324.5t248.5 -105.5z" />
    <glyph glyph-name="Dcroat" unicode="&#x110;" horiz-adv-x="1622" 
d="M422 1425h547q299 0 448 -195q148 -196 91 -517q-59 -323 -275 -517q-217 -196 -516 -196h-545l115 651h-224l21 121h223zM1356 713q53 291 -54.5 441.5t-369.5 150.5h-385l-94 -533h399l-21 -121h-399l-94 -530h385q261 0 421.5 150.5t211.5 441.5z" />
    <glyph glyph-name="dslash" unicode="&#x111;" horiz-adv-x="1339" 
d="M1292 1393h158l-18 -107h-158l-227 -1286h-132l39 229q-74 -124 -187 -190t-247 -66q-215 0 -317 150q-103 148 -58 395q40 245 197 396q157 149 371 149q131 0 221.5 -60t120.5 -172l82 455h-463l18 107h463l27 153h137zM569 88q170 0 272.5 92t149.5 285l19 102
q23 195 -48 288t-241 93q-180 0 -285.5 -105.5t-144.5 -324.5t29.5 -324.5t248.5 -105.5z" />
    <glyph glyph-name="Emacron" unicode="&#x112;" horiz-adv-x="1280" 
d="M655 1841h559l-20 -112h-557zM1319 1425l-21 -120h-751l-92 -523h710l-20 -123h-713l-94 -538h766l-21 -121h-911l250 1425h897z" />
    <glyph glyph-name="emacron" unicode="&#x113;" horiz-adv-x="1234" 
d="M526 1452h559l-20 -113h-557zM735 1063q209 0 314 -132q104 -133 65 -347l-16 -99h-813q-29 -202 39.5 -299.5t242.5 -97.5q311 0 353 234h143q-29 -152 -172 -250q-143 -99 -344 -99q-225 0 -336 150q-111 149 -66 395q41 246 204 396q164 149 386 149zM303 582l277 4
h395q27 186 -37 274t-223 88q-164 0 -265.5 -90t-146.5 -276z" />
    <glyph glyph-name="Ebreve" unicode="&#x114;" horiz-adv-x="1280" 
d="M1116 1705q-94 -87 -221 -87q-126 0 -191 87q-65 88 -38 230h116q-20 -115 10.5 -168t118.5 -53t138.5 53.5t70.5 167.5h117q-27 -144 -121 -230zM1319 1425l-21 -120h-751l-92 -523h710l-20 -123h-713l-94 -538h766l-21 -121h-911l250 1425h897z" />
    <glyph glyph-name="ebreve" unicode="&#x115;" horiz-adv-x="1234" 
d="M987 1316q-95 -87 -221 -87t-191 87q-65 88 -38 230h116q-20 -115 10.5 -168t118.5 -53t138.5 53.5t70.5 167.5h117q-27 -144 -121 -230zM735 1063q209 0 314 -132q104 -133 65 -347l-16 -99h-813q-29 -202 39.5 -299.5t242.5 -97.5q311 0 353 234h143
q-29 -152 -172 -250q-143 -99 -344 -99q-225 0 -336 150q-111 149 -66 395q41 246 204 396q164 149 386 149zM303 582l277 4h395q27 186 -37 274t-223 88q-164 0 -265.5 -90t-146.5 -276z" />
    <glyph glyph-name="Edotaccent" unicode="&#x116;" horiz-adv-x="1280" 
d="M852 1872h176l-33 -186h-176zM1319 1425l-21 -120h-751l-92 -523h710l-20 -123h-713l-94 -538h766l-21 -121h-911l250 1425h897z" />
    <glyph glyph-name="edotaccent" unicode="&#x117;" horiz-adv-x="1234" 
d="M723 1483h176l-33 -187h-176zM735 1063q209 0 314 -132q104 -133 65 -347l-16 -99h-813q-29 -202 39.5 -299.5t242.5 -97.5q311 0 353 234h143q-29 -152 -172 -250q-143 -99 -344 -99q-225 0 -336 150q-111 149 -66 395q41 246 204 396q164 149 386 149zM303 582l277 4
h395q27 186 -37 274t-223 88q-164 0 -265.5 -90t-146.5 -276z" />
    <glyph glyph-name="Eogonek" unicode="&#x118;" horiz-adv-x="1280" 
d="M1319 1425l-21 -120h-751l-92 -523h710l-20 -123h-713l-94 -538h766l-21 -121h-26l-197 -205q-50 -50 -55 -86q-4 -29 10.5 -40t56.5 -11h148l-16 -88h-185q-74 0 -110.5 31.5t-28.5 87.5q17 67 82 123l201 188h-791l250 1425h897z" />
    <glyph glyph-name="eogonek" unicode="&#x119;" horiz-adv-x="1234" 
d="M735 1063q209 0 314 -132q104 -133 65 -347l-16 -99h-813q-29 -202 39.5 -299.5t242.5 -97.5q311 0 353 234h143q-20 -111 -107 -197q-89 -86 -219 -125l-196 -205q-51 -51 -56 -86q-4 -29 11 -40t57 -11h147l-16 -88h-184q-74 0 -111 31.5t-29 87.5q17 67 82 123
l176 165q-40 -4 -71 -4q-225 0 -336 150q-111 149 -66 395q41 246 204 396q164 149 386 149zM303 582l277 4h395q27 186 -37 274t-223 88q-164 0 -265.5 -90t-146.5 -276z" />
    <glyph glyph-name="Ecaron" unicode="&#x11a;" horiz-adv-x="1280" 
d="M991 1624h-192l-154 311h135l123 -264l215 264h135zM1319 1425l-21 -120h-751l-92 -523h710l-20 -123h-713l-94 -538h766l-21 -121h-911l250 1425h897z" />
    <glyph glyph-name="ecaron" unicode="&#x11b;" horiz-adv-x="1234" 
d="M862 1235h-192l-154 311h135l123 -264l215 264h135zM735 1063q209 0 314 -132q104 -133 65 -347l-16 -99h-813q-29 -202 39.5 -299.5t242.5 -97.5q311 0 353 234h143q-29 -152 -172 -250q-143 -99 -344 -99q-225 0 -336 150q-111 149 -66 395q41 246 204 396
q164 149 386 149zM303 582l277 4h395q27 186 -37 274t-223 88q-164 0 -265.5 -90t-146.5 -276z" />
    <glyph glyph-name="Gcircumflex" unicode="&#x11c;" horiz-adv-x="1626" 
d="M1202 1624l-121 264l-217 -264h-135l262 311h191l155 -311h-135zM1518 948h-150q33 193 -63.5 284t-333.5 91q-529 0 -635 -610q-109 -610 420 -611q242 0 381 124t188 382h-573l20 117h713l-127 -725h-121l63 371q-162 -396 -581 -398q-299 0 -445 203q-147 202 -90 537
q58 333 283 537q223 202 528 202q274 0 419 -139t104 -365z" />
    <glyph glyph-name="gcircumflex" unicode="&#x11d;" horiz-adv-x="1126" 
d="M879 1235l-121 264l-217 -264h-135l262 311h190l156 -311h-135zM1233 1190l-19 -117q-108 0 -161.5 -27.5t-73.5 -91.5q86 -95 61 -243q-27 -152 -162 -248t-325 -96q-142 0 -234 53q-96 -44 -114 -137q-10 -61 18 -88t103 -27h389q147 0 224 -75t56 -195
q-25 -132 -177 -215q-151 -82 -381 -82q-231 0 -355 76q-125 77 -105 202q10 65 66 114t141 70q-117 51 -96 181q22 130 184 207q-117 96 -88 260q28 159 163 256q134 96 329 96q157 0 258 -68q30 100 101 147.5t198 47.5zM897 711q23 125 -35.5 183t-205.5 58
q-148 0 -228 -58t-100 -183q-20 -121 38.5 -178.5t205.5 -57.5q146 0 224 57t101 179zM684 53h-463q-92 -50 -110 -155q-18 -102 59 -143q76 -40 287 -40q213 0 300 40q89 41 107 143q16 86 -24.5 120.5t-155.5 34.5z" />
    <glyph glyph-name="Gbreve" unicode="&#x11e;" horiz-adv-x="1626" 
d="M1249 1705q-95 -87 -221 -87t-191 87q-65 88 -38 230h116q-20 -115 11 -168t119 -53t138 53.5t70 167.5h117q-27 -144 -121 -230zM1518 948h-150q33 193 -63.5 284t-333.5 91q-529 0 -635 -610q-109 -610 420 -611q242 0 381 124t188 382h-573l20 117h713l-127 -725h-121
l63 371q-162 -396 -581 -398q-299 0 -445 203q-147 202 -90 537q58 333 283 537q223 202 528 202q274 0 419 -139t104 -365z" />
    <glyph glyph-name="gbreve" unicode="&#x11f;" horiz-adv-x="1126" 
d="M926 1316q-94 -87 -221 -87t-191 87q-65 87 -39 230h117q-20 -115 10.5 -168t118.5 -53t138 53.5t71 167.5h117q-27 -144 -121 -230zM1233 1190l-19 -117q-108 0 -161.5 -27.5t-73.5 -91.5q86 -95 61 -243q-27 -152 -162 -248t-325 -96q-142 0 -234 53q-96 -44 -114 -137
q-10 -61 18 -88t103 -27h389q147 0 224 -75t56 -195q-25 -132 -177 -215q-151 -82 -381 -82q-231 0 -355 76q-125 77 -105 202q10 65 66 114t141 70q-117 51 -96 181q22 130 184 207q-117 96 -88 260q28 159 163 256q134 96 329 96q157 0 258 -68q30 100 101 147.5t198 47.5
zM897 711q23 125 -35.5 183t-205.5 58q-148 0 -228 -58t-100 -183q-20 -121 38.5 -178.5t205.5 -57.5q146 0 224 57t101 179zM684 53h-463q-92 -50 -110 -155q-18 -102 59 -143q76 -40 287 -40q213 0 300 40q89 41 107 143q16 86 -24.5 120.5t-155.5 34.5z" />
    <glyph glyph-name="Gdotaccent" unicode="&#x120;" horiz-adv-x="1626" 
d="M983 1872h176l-33 -186h-176zM1518 948h-150q33 193 -63.5 284t-333.5 91q-529 0 -635 -610q-109 -610 420 -611q242 0 381 124t188 382h-573l20 117h713l-127 -725h-121l63 371q-162 -396 -581 -398q-299 0 -445 203q-147 202 -90 537q58 333 283 537q223 202 528 202
q274 0 419 -139t104 -365z" />
    <glyph glyph-name="gdotaccent" unicode="&#x121;" horiz-adv-x="1126" 
d="M659 1483h177l-33 -187h-176zM1233 1190l-19 -117q-108 0 -161.5 -27.5t-73.5 -91.5q86 -95 61 -243q-27 -152 -162 -248t-325 -96q-142 0 -234 53q-96 -44 -114 -137q-10 -61 18 -88t103 -27h389q147 0 224 -75t56 -195q-25 -132 -177 -215q-151 -82 -381 -82
q-231 0 -355 76q-125 77 -105 202q10 65 66 114t141 70q-117 51 -96 181q22 130 184 207q-117 96 -88 260q28 159 163 256q134 96 329 96q157 0 258 -68q30 100 101 147.5t198 47.5zM897 711q23 125 -35.5 183t-205.5 58q-148 0 -228 -58t-100 -183q-20 -121 38.5 -178.5
t205.5 -57.5q146 0 224 57t101 179zM684 53h-463q-92 -50 -110 -155q-18 -102 59 -143q76 -40 287 -40q213 0 300 40q89 41 107 143q16 86 -24.5 120.5t-155.5 34.5z" />
    <glyph glyph-name="uni0122" unicode="&#x122;" horiz-adv-x="1626" 
d="M1518 948h-150q33 193 -63.5 284t-333.5 91q-529 0 -635 -610q-109 -610 420 -611q242 0 381 124t188 382h-573l20 117h713l-127 -725h-121l63 371q-162 -396 -581 -398q-299 0 -445 203q-147 202 -90 537q58 333 283 537q223 202 528 202q274 0 419 -139t104 -365z
M678 -367l-86 48l18 118h181l-25 -143q-18 -99 -86 -156t-168 -57l14 72q131 0 152 118z" />
    <glyph glyph-name="uni0123" unicode="&#x123;" horiz-adv-x="1126" 
d="M717 1401l88 -45l-23 -121h-178l25 145q18 98 84.5 152.5t167.5 54.5l-11 -71q-134 0 -153 -115zM1233 1190l-19 -117q-108 0 -161.5 -27.5t-73.5 -91.5q86 -95 61 -243q-27 -152 -162 -248t-325 -96q-142 0 -234 53q-96 -44 -114 -137q-10 -61 18 -88t103 -27h389
q147 0 224 -75t56 -195q-25 -132 -177 -215q-151 -82 -381 -82q-231 0 -355 76q-125 77 -105 202q10 65 66 114t141 70q-117 51 -96 181q22 130 184 207q-117 96 -88 260q28 159 163 256q134 96 329 96q157 0 258 -68q30 100 101 147.5t198 47.5zM897 711q23 125 -35.5 183
t-205.5 58q-148 0 -228 -58t-100 -183q-20 -121 38.5 -178.5t205.5 -57.5q146 0 224 57t101 179zM684 53h-463q-92 -50 -110 -155q-18 -102 59 -143q76 -40 287 -40q213 0 300 40q89 41 107 143q16 86 -24.5 120.5t-155.5 34.5z" />
    <glyph glyph-name="Hcircumflex" unicode="&#x124;" horiz-adv-x="1660" 
d="M1198 1624l-121 264l-217 -264h-135l262 311h191l155 -311h-135zM1298 782l113 643h145l-249 -1425h-146l117 662h-844l-117 -662h-145l250 1425h145l-112 -643h843z" />
    <glyph glyph-name="hcircumflex" unicode="&#x125;" horiz-adv-x="1327" 
d="M1069 1776l-121 264l-217 -264h-135l262 311h191l155 -311h-135zM838 1063q172 0 259 -107q87 -109 56 -282l-119 -674h-139l111 616q31 178 -21 253q-53 75 -209 75q-160 0 -268 -90q-108 -89 -137 -252l-107 -602h-137l272 1546h138l-127 -721q156 238 428 238z" />
    <glyph glyph-name="Hbar" unicode="&#x126;" horiz-adv-x="1660" 
d="M1518 1204h219l-21 -119h-219l-190 -1085h-146l117 662h-844l-117 -662h-145l190 1085h-237l18 119h240l39 221h145l-39 -221h844l39 221h145zM455 782h843l54 303h-844z" />
    <glyph glyph-name="hbar" unicode="&#x127;" horiz-adv-x="1327" 
d="M838 1063q172 0 259 -107q87 -109 56 -282l-119 -674h-139l111 616q31 178 -21 253q-53 75 -209 75q-160 0 -268 -90q-108 -89 -137 -252l-107 -602h-137l227 1286h-223l19 107h223l26 153h138l-27 -153h397l-18 -107h-397l-82 -461q156 238 428 238z" />
    <glyph glyph-name="Itilde" unicode="&#x128;" horiz-adv-x="671" 
d="M692 1655q-74 0 -151 66q-79 65 -138 65q-111 0 -133 -127h-92q20 111 87 177q68 65 161 65q72 0 150 -66q76 -66 137 -66q113 0 131 127h92q-20 -111 -86 -176t-158 -65zM172 0l250 1425h145l-250 -1425h-145z" />
    <glyph glyph-name="itilde" unicode="&#x129;" horiz-adv-x="557" 
d="M575 1266q-75 0 -151 66q-79 65 -137 65q-111 0 -133 -127h-93q20 111 87 176t161 65q71 0 150 -65q78 -66 137 -66q113 0 131 127h92q-20 -111 -86 -176t-158 -65zM127 0l182 1036h140l-185 -1036h-137z" />
    <glyph glyph-name="Imacron" unicode="&#x12a;" horiz-adv-x="671" 
d="M289 1841h559l-21 -112h-557zM172 0l250 1425h145l-250 -1425h-145z" />
    <glyph glyph-name="imacron" unicode="&#x12b;" horiz-adv-x="557" 
d="M172 1452h559l-20 -113h-557zM127 0l182 1036h140l-185 -1036h-137z" />
    <glyph glyph-name="Ibreve" unicode="&#x12c;" horiz-adv-x="671" 
d="M754 1935h116q-27 -144 -121 -230q-95 -87 -221 -87t-191 87q-65 88 -38 230h117q-20 -115 10.5 -168t118.5 -53t138 53.5t71 167.5zM172 0l250 1425h145l-250 -1425h-145z" />
    <glyph glyph-name="ibreve" unicode="&#x12d;" horiz-adv-x="557" 
d="M637 1546h117q-27 -144 -121 -230q-95 -87 -221 -87t-191 87t-39 230h117q-20 -115 10.5 -168t118.5 -53t138 53.5t71 167.5zM127 0l182 1036h140l-185 -1036h-137z" />
    <glyph glyph-name="Iogonek" unicode="&#x12e;" horiz-adv-x="671" 
d="M172 0l250 1425h145l-250 -1425h-2l-196 -205q-51 -51 -56 -86q-4 -29 11 -40t57 -11h148l-17 -88h-184q-74 0 -111 31.5t-28 87.5q17 66 81 123l201 188h-49z" />
    <glyph glyph-name="iogonek" unicode="&#x12f;" horiz-adv-x="557" 
d="M336 1296l33 187h176l-33 -187h-176zM170 0h-43l182 1036h140l-185 -1036l-196 -205q-52 -51 -56 -86q-4 -29 11 -40t57 -11h147l-16 -88h-184q-74 0 -111 31.5t-29 87.5q17 67 82 123z" />
    <glyph glyph-name="Idot" unicode="&#x130;" horiz-adv-x="671" 
d="M453 1686l32 186h177l-33 -186h-176zM172 0l250 1425h145l-250 -1425h-145z" />
    <glyph glyph-name="dotlessi" unicode="&#x131;" horiz-adv-x="557" 
d="M127 0l182 1036h140l-185 -1036h-137z" />
    <glyph glyph-name="IJ" unicode="&#x132;" horiz-adv-x="1273" 
d="M190 102h349q154 0 234 74q78 72 110 244l178 1005h143l-176 -1009q-38 -206 -175 -324q-139 -119 -339 -119q-172 0 -342 31zM250 410l178 1015h145l-178 -1015h-145z" />
    <glyph glyph-name="ij" unicode="&#x133;" horiz-adv-x="1169" 
d="M383 1483h174l-31 -187h-176zM928 1296l33 187h176l-33 -187h-176zM139 0l183 1036h139l-182 -1036h-140zM702 -90l199 1126h137l-202 -1142q-23 -139 -107 -216t-211 -77q-87 0 -135 16l16 98h119q90 0 127 40q38 41 57 155z" />
    <glyph glyph-name="Jcircumflex" unicode="&#x134;" horiz-adv-x="1261" 
d="M1100 1935h190l156 -311h-135l-121 264l-217 -264h-135zM877 461l170 964h145l-172 -970q-39 -217 -189 -349q-151 -133 -360 -133q-217 0 -324 132q-108 131 -71 344h143q-31 -178 36 -263.5t239 -85.5q164 0 257 88.5t126 272.5z" />
    <glyph glyph-name="jcircumflex" unicode="&#x135;" horiz-adv-x="559" 
d="M565 1546l156 -311h-135l-121 264l-217 -264h-135l262 311h190zM113 -82l198 1118h138l-203 -1142q-23 -139 -107 -216t-211 -77q-87 0 -135 16l17 98h118q85 0 125 43q41 44 60 160z" />
    <glyph glyph-name="uni0136" unicode="&#x136;" horiz-adv-x="1406" 
d="M1337 1425h199l-918 -706l691 -719h-201l-508 528l-160 172l-123 -700h-145l250 1425h145l-121 -694l218 174zM629 -367l-86 48l18 118h180l-24 -143q-18 -99 -86 -156t-168 -57l14 72q131 0 152 118z" />
    <glyph glyph-name="uni0137" unicode="&#x137;" horiz-adv-x="1114" 
d="M999 1036h170l-649 -497l514 -539h-194l-377 395l-107 123l-92 -518h-137l272 1546h138l-179 -1011l150 124zM455 -367l-86 48l18 118h180l-24 -143q-18 -99 -86 -156t-168 -57l14 72q131 0 152 118z" />
    <glyph glyph-name="kgreenlandic" unicode="&#x138;" horiz-adv-x="1114" 
d="M997 1036h172l-649 -497l514 -539h-196l-377 395l-105 121l-92 -516h-137l182 1036h140l-89 -499l148 122z" />
    <glyph glyph-name="Lacute" unicode="&#x139;" horiz-adv-x="1196" 
d="M659 1935h164l-237 -311h-113zM567 1425l-229 -1304h727l-23 -121h-870l250 1425h145z" />
    <glyph glyph-name="lacute" unicode="&#x13a;" horiz-adv-x="595" 
d="M412 1661l186 311h164l-238 -311h-112zM385 1546h137l-227 -1290q-14 -93 8 -125q21 -33 94 -33h90l-16 -98q-54 -16 -119 -16q-117 0 -169 67.5t-29 188.5z" />
    <glyph glyph-name="uni013B" unicode="&#x13b;" horiz-adv-x="1196" 
d="M567 1425l-229 -1304h727l-23 -121h-870l250 1425h145zM575 -367l-86 48l19 118h180l-24 -143q-18 -99 -86 -156t-168 -57l14 72q132 0 151 118z" />
    <glyph glyph-name="uni013C" unicode="&#x13c;" horiz-adv-x="595" 
d="M522 1546l-227 -1290q-14 -93 8 -125q21 -33 94 -33h90l-16 -98q-54 -16 -119 -16q-117 0 -169 67.5t-29 188.5l231 1306h137zM240 -367l-86 48l18 118h180l-24 -143q-18 -99 -86 -156t-168 -57l14 72q131 0 152 118z" />
    <glyph glyph-name="Lcaron" unicode="&#x13d;" horiz-adv-x="1196" 
d="M567 1425l-229 -1304h727l-23 -121h-870l250 1425h145zM1053 1425l-27 -145q-16 -103 -84.5 -162t-169.5 -59l14 71q131 0 152 130l-86 45l20 120h181z" />
    <glyph glyph-name="lcaron" unicode="&#x13e;" horiz-adv-x="595" 
d="M385 1546h137l-227 -1290q-14 -93 8 -125q21 -33 94 -33h90l-16 -98q-54 -16 -119 -16q-117 0 -169 67.5t-29 188.5zM688 1425l21 121h180l-27 -145q-16 -104 -84 -162.5t-170 -58.5l15 71q132 0 151 129z" />
    <glyph glyph-name="Ldot" unicode="&#x13f;" horiz-adv-x="1196" 
d="M567 1425l-229 -1304h727l-23 -121h-870l250 1425h145zM743 903h201l-35 -201h-200z" />
    <glyph glyph-name="ldot" unicode="&#x140;" horiz-adv-x="714" 
d="M385 1546h137l-227 -1290q-14 -93 8 -125q21 -33 94 -33h90l-16 -98q-54 -16 -119 -16q-117 0 -169 67.5t-29 188.5zM571 676l31 174h172l-31 -174h-172z" />
    <glyph glyph-name="Lslash" unicode="&#x141;" horiz-adv-x="1196" 
d="M430 643l-92 -522h727l-23 -121h-870l102 588l-233 -107l22 121l234 105l125 718h145l-116 -661l518 233l-23 -120z" />
    <glyph glyph-name="lslash" unicode="&#x142;" horiz-adv-x="595" 
d="M627 860l-256 -180l-76 -424q-14 -93 8 -125q21 -33 94 -33h90l-16 -98q-54 -16 -119 -16q-117 0 -169 67.5t-29 188.5l63 364l-197 -135l23 131l199 135l143 811h137l-129 -735l256 180z" />
    <glyph glyph-name="Nacute" unicode="&#x143;" horiz-adv-x="1660" 
d="M1161 1935h164l-238 -311h-112zM1239 440l172 985h145l-249 -1425h-246l-514 1358l-47 -318l-183 -1040h-145l250 1425h252l510 -1347z" />
    <glyph glyph-name="nacute" unicode="&#x144;" horiz-adv-x="1327" 
d="M952 1546h164l-237 -311h-113zM838 1063q172 0 259 -107q87 -109 56 -282l-119 -674h-139l111 616q31 178 -21 253q-53 75 -209 75q-152 0 -256 -80t-141 -225l-115 -639h-137l182 1036h133l-39 -221q159 248 435 248z" />
    <glyph glyph-name="uni0145" unicode="&#x145;" horiz-adv-x="1660" 
d="M1239 440l172 985h145l-249 -1425h-246l-514 1358l-47 -318l-183 -1040h-145l250 1425h252l510 -1347zM678 -367l-86 48l18 118h181l-25 -143q-18 -99 -86 -156t-168 -57l14 72q131 0 152 118z" />
    <glyph glyph-name="uni0146" unicode="&#x146;" horiz-adv-x="1327" 
d="M838 1063q172 0 259 -107q87 -109 56 -282l-119 -674h-139l111 616q31 178 -21 253q-53 75 -209 75q-152 0 -256 -80t-141 -225l-115 -639h-137l182 1036h133l-39 -221q159 248 435 248zM530 -367l-86 48l19 118h180l-25 -143q-18 -100 -85.5 -156.5t-167.5 -56.5l14 72
q132 0 151 118z" />
    <glyph glyph-name="Ncaron" unicode="&#x147;" horiz-adv-x="1660" 
d="M1128 1624h-192l-154 311h136l122 -264l215 264h136zM1239 440l172 985h145l-249 -1425h-246l-514 1358l-47 -318l-183 -1040h-145l250 1425h252l510 -1347z" />
    <glyph glyph-name="ncaron" unicode="&#x148;" horiz-adv-x="1327" 
d="M920 1235h-193l-154 311h136l122 -264l216 264h135zM838 1063q172 0 259 -107q87 -109 56 -282l-119 -674h-139l111 616q31 178 -21 253q-53 75 -209 75q-152 0 -256 -80t-141 -225l-115 -639h-137l182 1036h133l-39 -221q159 248 435 248z" />
    <glyph glyph-name="napostrophe" unicode="&#x149;" horiz-adv-x="1396" 
d="M102 1382h201l-31 -188q-20 -113 -96 -174.5t-194 -61.5l16 86q156 0 180 140l-100 49zM907 1063q172 0 259 -107q87 -108 57 -282l-119 -674h-139l110 616q31 178 -21 253t-208 75q-152 0 -256.5 -80t-140.5 -225l-115 -639h-137l182 1036h133l-39 -221q158 248 434 248
z" />
    <glyph glyph-name="Eng" unicode="&#x14a;" horiz-adv-x="1660" 
d="M1239 440l172 985h145l-249 -1425l-19 -106q-25 -139 -108.5 -216t-210.5 -77q-87 0 -135 16l16 98h119q86 0 127 47q42 50 61 175l10 63h-106l-514 1358l-47 -318l-183 -1040h-145l250 1425h252l510 -1347z" />
    <glyph glyph-name="eng" unicode="&#x14b;" horiz-adv-x="1327" 
d="M838 1063q172 0 259 -107q87 -109 56 -282l-137 -780q-25 -139 -109 -216t-211 -77q-84 0 -135 16l17 98h118q88 0 126 41q39 42 61 162l123 698q32 176 -21 252q-52 76 -209 76q-152 0 -256 -80t-141 -225l-115 -639h-137l184 1036h133l-36 -215q156 242 430 242z" />
    <glyph glyph-name="Omacron" unicode="&#x14c;" horiz-adv-x="1669" 
d="M793 1849h559l-21 -112h-557zM743 -27q-311 0 -463 203q-153 202 -96 537q58 335 285 537q224 202 535 202q305 0 456 -202q150 -202 93 -537q-59 -336 -281 -537q-224 -203 -529 -203zM766 102q530 0 637 611q106 610 -422 610q-539 0 -645 -610q-107 -611 430 -611z
" />
    <glyph glyph-name="omacron" unicode="&#x14d;" horiz-adv-x="1292" 
d="M528 1452h559l-20 -113h-557zM938 123q-164 -150 -389 -150t-336 150q-111 149 -68 395q40 245 206 396q166 149 391 149t338 -149q112 -149 67 -396q-45 -246 -209 -395zM569 88q356 0 432 430q37 219 -31.5 324.5t-248.5 105.5q-179 0 -284 -105t-146 -325
q-76 -430 278 -430z" />
    <glyph glyph-name="Obreve" unicode="&#x14e;" horiz-adv-x="1669" 
d="M1260 1944h116q-27 -144 -121 -230q-94 -88 -221 -88q-126 0 -191 87q-65 88 -38 231h117q-20 -115 10.5 -168.5t118.5 -53.5t138 53.5t71 168.5zM743 -27q-311 0 -463 203q-153 202 -96 537q58 335 285 537q224 202 535 202q305 0 456 -202q150 -202 93 -537
q-59 -336 -281 -537q-224 -203 -529 -203zM766 102q530 0 637 611q106 610 -422 610q-539 0 -645 -610q-107 -611 430 -611z" />
    <glyph glyph-name="obreve" unicode="&#x14f;" horiz-adv-x="1292" 
d="M993 1546h117q-27 -144 -121 -230q-95 -87 -221 -87t-191 87q-65 88 -38 230h116q-20 -115 10.5 -168t118.5 -53t138.5 53.5t70.5 167.5zM938 123q-164 -150 -389 -150t-336 150q-111 149 -68 395q40 245 206 396q166 149 391 149t338 -149q112 -149 67 -396
q-45 -246 -209 -395zM569 88q356 0 432 430q37 219 -31.5 324.5t-248.5 105.5q-179 0 -284 -105t-146 -325q-76 -430 278 -430z" />
    <glyph glyph-name="Ohungarumlaut" unicode="&#x150;" horiz-adv-x="1669" 
d="M860 1632l168 312h135l-192 -312h-111zM1092 1632l186 312h164l-240 -312h-110zM743 -27q-311 0 -463 203q-153 202 -96 537q58 335 285 537q224 202 535 202q305 0 456 -202q150 -202 93 -537q-59 -336 -281 -537q-224 -203 -529 -203zM766 102q530 0 637 611
q106 610 -422 610q-539 0 -645 -610q-107 -611 430 -611z" />
    <glyph glyph-name="ohungarumlaut" unicode="&#x151;" horiz-adv-x="1292" 
d="M598 1235l168 311h135l-192 -311h-111zM829 1235l187 311h164l-240 -311h-111zM938 123q-164 -150 -389 -150t-336 150q-111 149 -68 395q40 245 206 396q166 149 391 149t338 -149q112 -149 67 -396q-45 -246 -209 -395zM569 88q356 0 432 430q37 219 -31.5 324.5
t-248.5 105.5q-179 0 -284 -105t-146 -325q-76 -430 278 -430z" />
    <glyph glyph-name="OE" unicode="&#x152;" horiz-adv-x="2205" 
d="M2247 1425l-23 -120h-725l-92 -523h684l-20 -123h-687l-96 -538h742l-21 -121h-1286q-299 0 -447 196q-149 196 -91 517q57 321 274 517q217 195 516 195h1272zM760 121h383l211 1184h-387q-261 0 -420.5 -150t-210.5 -442t56 -442t368 -150z" />
    <glyph glyph-name="oe" unicode="&#x153;" horiz-adv-x="2091" 
d="M1591 1063q206 0 313 -132q105 -132 66 -347l-16 -99h-813q-61 -397 282 -397q311 0 353 234h143q-29 -152 -172 -250q-142 -99 -344 -99q-144 0 -243 69.5t-136 195.5q-81 -126 -205 -195.5t-270 -69.5q-225 0 -337 150q-112 148 -67 395q40 245 206 396
q166 149 390 149q145 0 244.5 -69.5t136.5 -194.5q81 126 203 195t266 69zM569 88q180 0 286 105.5t146 324.5q37 219 -31.5 324.5t-248.5 105.5t-285.5 -105.5t-144.5 -324.5q-76 -430 278 -430zM1159 582l277 4h395q27 186 -36.5 274t-223.5 88q-328 1 -412 -366z" />
    <glyph glyph-name="Racute" unicode="&#x154;" horiz-adv-x="1370" 
d="M1071 1935h164l-238 -311h-112zM1364 1020q-29 -157 -138 -260q-110 -106 -276 -131l94 -156l254 -473h-163l-326 618h-383l-109 -618h-145l250 1425h579q195 0 296 -111q100 -112 67 -294zM1214 1020q25 147 -36.5 216t-216.5 69h-414l-101 -572h416q155 0 240 69.5
t112 217.5z" />
    <glyph glyph-name="racute" unicode="&#x155;" horiz-adv-x="796" 
d="M768 1546h164l-238 -311h-112zM442 1036l-43 -239q69 126 169 196t214 70q69 0 101 -16l-21 -113h-121q-146 0 -244 -94q-100 -94 -130 -265l-103 -575h-137l182 1036h133z" />
    <glyph glyph-name="uni0156" unicode="&#x156;" horiz-adv-x="1370" 
d="M1364 1020q-29 -157 -138 -260q-110 -106 -276 -131l94 -156l254 -473h-163l-326 618h-383l-109 -618h-145l250 1425h579q195 0 296 -111q100 -112 67 -294zM1214 1020q25 147 -36.5 216t-216.5 69h-414l-101 -572h416q155 0 240 69.5t112 217.5zM610 -367l-86 48l19 118
h180l-25 -143q-18 -100 -85.5 -156.5t-168.5 -56.5l15 72q132 0 151 118z" />
    <glyph glyph-name="uni0157" unicode="&#x157;" horiz-adv-x="796" 
d="M782 1063q69 0 101 -16l-21 -113h-121q-146 0 -244 -94q-100 -94 -130 -265l-103 -575h-137l182 1036h133l-43 -239q69 126 169 196t214 70zM141 -367l-86 48l19 118h180l-25 -143q-18 -100 -85.5 -156.5t-168.5 -56.5l15 72q132 0 151 118z" />
    <glyph glyph-name="Rcaron" unicode="&#x158;" horiz-adv-x="1370" 
d="M1036 1624h-192l-154 311h135l123 -264l215 264h135zM1364 1020q-29 -157 -138 -260q-110 -106 -276 -131l94 -156l254 -473h-163l-326 618h-383l-109 -618h-145l250 1425h579q195 0 296 -111q100 -112 67 -294zM1214 1020q25 147 -36.5 216t-216.5 69h-414l-101 -572
h416q155 0 240 69.5t112 217.5z" />
    <glyph glyph-name="rcaron" unicode="&#x159;" horiz-adv-x="796" 
d="M735 1235h-192l-154 311h135l123 -264l215 264h135zM442 1036l-43 -239q69 126 169 196t214 70q69 0 101 -16l-21 -113h-121q-146 0 -244 -94q-100 -94 -130 -265l-103 -575h-137l182 1036h133z" />
    <glyph glyph-name="Sacute" unicode="&#x15a;" horiz-adv-x="1425" 
d="M862 1624l187 311h163l-237 -311h-113zM625 -27q-264 0 -402 132q-139 130 -100 344h147q-31 -176 62.5 -261.5t318.5 -85.5q423 0 469 256q20 113 -61 182q-84 69 -357 124q-270 56 -369 141q-100 85 -73 235q33 187 202 299q170 113 412 113q252 0 382 -133t90 -352
h-148q33 182 -53 269t-297 87q-394 0 -440 -262q-20 -107 62 -168q83 -63 351 -115q273 -55 374 -150q99 -96 71 -255q-32 -181 -208 -290q-178 -110 -433 -110z" />
    <glyph glyph-name="sacute" unicode="&#x15b;" horiz-adv-x="1124" 
d="M612 1235l187 311h164l-238 -311h-113zM494 -27q-216 0 -328 99q-113 98 -84 260h143q-23 -129 47 -189.5t242 -60.5q288 0 320 170q16 82 -44 129q-62 47 -251 84q-202 40 -285 110q-82 67 -61 187q22 135 151 218q128 83 313 83q198 0 302 -98q102 -99 73 -258h-141
q23 126 -41 187.5t-215 61.5q-274 0 -307 -178q-14 -80 48 -123q60 -42 261 -80q202 -39 279 -112q77 -74 57 -199q-23 -131 -154 -211q-133 -80 -325 -80z" />
    <glyph glyph-name="Scircumflex" unicode="&#x15c;" horiz-adv-x="1425" 
d="M1092 1624l-121 264l-217 -264h-136l263 311h190l156 -311h-135zM1346 967h-148q33 182 -53 269t-297 87q-394 0 -440 -262q-20 -107 62 -168q83 -63 351 -115q273 -55 374 -150q99 -96 71 -255q-32 -181 -208 -290q-178 -110 -433 -110q-264 0 -402 132
q-139 130 -100 344h147q-31 -176 62.5 -261.5t318.5 -85.5q423 0 469 256q20 113 -61 182q-84 69 -357 124q-270 56 -369 141q-100 85 -73 235q33 187 202 299q170 113 412 113q253 0 383 -133t89 -352z" />
    <glyph glyph-name="scircumflex" unicode="&#x15d;" horiz-adv-x="1124" 
d="M846 1235l-121 264l-217 -264h-135l262 311h190l156 -311h-135zM1032 707h-141q23 126 -41 187.5t-215 61.5q-274 0 -307 -178q-14 -80 48 -123q60 -42 261 -80q202 -39 279 -112q77 -74 57 -199q-23 -131 -155 -211q-133 -80 -324 -80q-216 0 -328 99q-113 98 -84 260
h143q-23 -129 47 -189.5t242 -60.5q288 0 320 170q16 82 -44 129q-62 47 -251 84q-202 40 -285 110q-82 67 -61 187q22 135 151 218q128 83 313 83q198 0 302 -98q102 -97 73 -258z" />
    <glyph glyph-name="Scedilla" unicode="&#x15e;" horiz-adv-x="1425" 
d="M1346 967h-148q33 182 -53 269t-297 87q-394 0 -440 -262q-20 -107 62 -168q83 -63 351 -115q273 -55 374 -150q99 -96 71 -255q-28 -171 -193 -280q-163 -109 -403 -120l-52 -102h68q78 0 118 -41t27 -106q-12 -70 -70 -112q-59 -42 -140 -42h-164l16 88h148q80 0 92 68
q8 35 -9.5 51t-60.5 16h-129l12 70l62 110q-248 11 -375 141t-90 335h147q-31 -176 62.5 -261.5t318.5 -85.5q423 0 469 256q20 113 -61 182q-84 69 -357 124q-270 56 -369 141q-100 85 -73 235q33 187 202 299q170 113 412 113q253 0 383 -133t89 -352z" />
    <glyph glyph-name="scedilla" unicode="&#x15f;" horiz-adv-x="1124" 
d="M1032 707h-141q23 126 -41 187.5t-215 61.5q-274 0 -307 -178q-14 -80 48 -123q60 -42 261 -80q202 -39 279 -112q77 -74 57 -199q-19 -122 -142 -201q-121 -79 -301 -90l-51 -102h68q78 0 118 -41t27 -106q-12 -69 -70.5 -111.5t-140.5 -42.5h-164l17 88h147q80 0 92 68
q8 35 -9 51t-60 16h-129l12 70l62 112q-195 11 -294 108q-100 97 -73 249h143q-23 -129 47 -189.5t242 -60.5q288 0 320 170q16 82 -44 129q-62 47 -251 84q-202 40 -285 110q-82 67 -61 187q22 135 151 218q128 83 313 83q198 0 302 -98q102 -97 73 -258z" />
    <glyph glyph-name="Scaron" unicode="&#x160;" horiz-adv-x="1425" 
d="M1014 1624h-193l-153 311h135l123 -264l215 264h135zM1346 967h-148q33 182 -53 269t-297 87q-394 0 -440 -262q-20 -107 62 -168q83 -63 351 -115q273 -55 374 -150q99 -96 71 -255q-32 -181 -208 -290q-178 -110 -433 -110q-264 0 -402 132q-139 130 -100 344h147
q-31 -176 62.5 -261.5t318.5 -85.5q423 0 469 256q20 113 -61 182q-84 69 -357 124q-270 56 -369 141q-100 85 -73 235q33 187 202 299q170 113 412 113q253 0 383 -133t89 -352z" />
    <glyph glyph-name="scaron" unicode="&#x161;" horiz-adv-x="1124" 
d="M766 1235h-193l-153 311h135l123 -264l215 264h135zM1032 707h-141q23 126 -41 187.5t-215 61.5q-274 0 -307 -178q-14 -80 48 -123q60 -42 261 -80q202 -39 279 -112q77 -74 57 -199q-23 -131 -155 -211q-133 -80 -324 -80q-216 0 -328 99q-113 98 -84 260h143
q-23 -129 47 -189.5t242 -60.5q288 0 320 170q16 82 -44 129q-62 47 -251 84q-202 40 -285 110q-82 67 -61 187q22 135 151 218q128 83 313 83q198 0 302 -98q102 -97 73 -258z" />
    <glyph glyph-name="uni0162" unicode="&#x162;" horiz-adv-x="1302" 
d="M862 1305l-229 -1305h-33l-63 -129h67q78 0 118 -41t28 -106q-12 -69 -70.5 -111.5t-140.5 -42.5h-164l16 88h148q80 0 92 68q8 35 -9.5 51t-60.5 16h-129l12 70l76 137h-33l230 1305h-549l22 120h1242l-23 -120h-547z" />
    <glyph glyph-name="uni0163" unicode="&#x163;" horiz-adv-x="839" 
d="M879 926h-426l-109 -613q-20 -125 12 -170t144 -45h237l-16 -98q-100 -16 -240 -16l-55 -113h68q78 0 117.5 -40.5t27.5 -106.5q-12 -69 -70.5 -111.5t-140.5 -42.5h-164l17 88h147q80 0 92 68q8 35 -9 51t-60 16h-129l12 70l69 125q-121 16 -173 92t-29 205l112 641
h-213l21 110h213l59 310h133l-55 -310h428z" />
    <glyph glyph-name="Tcaron" unicode="&#x164;" horiz-adv-x="1302" 
d="M936 1624h-193l-153 311h135l123 -264l215 264h135zM190 1425h1242l-23 -120h-547l-229 -1305h-146l230 1305h-549z" />
    <glyph glyph-name="tcaron" unicode="&#x165;" horiz-adv-x="839" 
d="M731 1448l21 121h180l-27 -146q-16 -104 -84 -162.5t-170 -58.5l15 72q128 0 151 129zM393 1346h133l-55 -310h428l-20 -110h-426l-109 -613q-20 -125 12 -170t144 -45h237l-16 -98q-106 -16 -256 -16q-153 0 -222 78.5t-42 222.5l112 641h-213l21 110h213z" />
    <glyph glyph-name="Tbar" unicode="&#x166;" horiz-adv-x="1302" 
d="M1432 1425l-23 -120h-547l-96 -545h393l-22 -117h-392l-112 -643h-146l113 643h-397l22 117h396l96 545h-549l22 120h1242z" />
    <glyph glyph-name="tbar" unicode="&#x167;" horiz-adv-x="839" 
d="M899 1036l-20 -110h-426l-56 -316h428l-18 -106h-430l-33 -191q-20 -125 12 -170t144 -45h237l-16 -98q-106 -16 -256 -16q-153 0 -222 78.5t-42 222.5l39 219h-211l18 106h211l55 316h-213l21 110h213l59 310h133l-55 -310h428z" />
    <glyph glyph-name="Utilde" unicode="&#x168;" horiz-adv-x="1585" 
d="M1147 1655q-75 0 -151 66q-79 65 -138 65q-111 0 -133 -127h-92q20 112 86.5 177t161.5 65q72 0 150 -66q77 -66 136 -66q113 0 131 127h93q-20 -111 -86 -176t-158 -65zM223 487l166 938h143l-163 -931q-35 -199 52 -295.5t300 -96.5q417 0 485 392l166 931h146
l-166 -938q-39 -231 -220 -372q-181 -142 -436 -142q-254 0 -384 142q-130 140 -89 372z" />
    <glyph glyph-name="utilde" unicode="&#x169;" horiz-adv-x="1308" 
d="M637 1397q-111 0 -133 -127h-92q20 111 86.5 176t160.5 65q71 0 150 -65q78 -66 137 -66q113 0 131 127h92q-20 -111 -85.5 -176t-157.5 -65q-74 0 -152 66q-79 65 -137 65zM936 422l108 614h138l-183 -1036h-131l37 211q-151 -238 -432 -238q-165 0 -247 108
q-83 108 -52 281l119 674h137l-108 -616q-31 -178 20 -253t207 -75q153 0 257 87q103 87 130 243z" />
    <glyph glyph-name="Umacron" unicode="&#x16a;" horiz-adv-x="1585" 
d="M745 1841h560l-21 -112h-557zM223 487l166 938h143l-163 -931q-35 -199 52 -295.5t300 -96.5q417 0 485 392l166 931h146l-166 -938q-39 -231 -220 -372q-181 -142 -436 -142q-254 0 -384 142q-130 140 -89 372z" />
    <glyph glyph-name="umacron" unicode="&#x16b;" horiz-adv-x="1308" 
d="M522 1452h559l-20 -113h-557zM936 422l108 614h138l-183 -1036h-131l37 211q-151 -238 -432 -238q-165 0 -247 108q-83 108 -52 281l119 674h137l-108 -616q-31 -178 20 -253t207 -75q153 0 257 87q103 87 130 243z" />
    <glyph glyph-name="Ubreve" unicode="&#x16c;" horiz-adv-x="1585" 
d="M1210 1935h117q-27 -144 -121 -230q-94 -87 -221 -87t-191 87q-65 88 -38 230h116q-20 -115 11 -168t119 -53t138 53.5t70 167.5zM223 487l166 938h143l-163 -931q-35 -199 52 -295.5t300 -96.5q417 0 485 392l166 931h146l-166 -938q-39 -231 -220 -372
q-181 -142 -436 -142q-254 0 -384 142q-130 140 -89 372z" />
    <glyph glyph-name="ubreve" unicode="&#x16d;" horiz-adv-x="1308" 
d="M983 1316q-95 -87 -221 -87t-191 87t-39 230h117q-20 -115 10.5 -168t118.5 -53t138.5 53.5t70.5 167.5h117q-27 -144 -121 -230zM936 422l108 614h138l-183 -1036h-131l37 211q-151 -238 -432 -238q-165 0 -247 108q-83 108 -52 281l119 674h137l-108 -616
q-31 -178 20 -253t207 -75q153 0 257 87q103 87 130 243z" />
    <glyph glyph-name="Uring" unicode="&#x16e;" horiz-adv-x="1585" 
d="M1125 1663q-59 -45 -140 -45q-82 0 -124 45t-27 117q12 74 69 118t139 44q80 0 122 -44.5t30 -117.5q-12 -72 -69 -117zM923 1709q19 -21 75 -21q55 0 83 22t35 70q10 49 -10.5 70.5t-75.5 21.5q-102 0 -119 -92q-8 -51 12 -71zM223 487l166 938h143l-163 -931
q-35 -199 52 -295.5t300 -96.5q417 0 485 392l166 931h146l-166 -938q-39 -231 -220 -372q-181 -142 -436 -142q-254 0 -384 142q-130 140 -89 372z" />
    <glyph glyph-name="uring" unicode="&#x16f;" horiz-adv-x="1308" 
d="M904 1274q-58 -45 -140 -45t-124 45t-28 117q12 74 69.5 117.5t139.5 43.5q80 0 122 -44t30 -117q-12 -72 -69 -117zM690 1391q-8 -51 11.5 -72t74.5 -21t83 21.5t36 71.5q10 49 -10.5 70.5t-75.5 21.5q-102 0 -119 -92zM936 422l108 614h138l-183 -1036h-131l37 211
q-151 -238 -432 -238q-165 0 -247 108q-83 108 -52 281l119 674h137l-108 -616q-31 -178 20 -253t207 -75q153 0 257 87q103 87 130 243z" />
    <glyph glyph-name="Uhungarumlaut" unicode="&#x170;" horiz-adv-x="1585" 
d="M813 1624l168 311h135l-192 -311h-111zM1044 1624l187 311h164l-240 -311h-111zM223 487l166 938h143l-163 -931q-35 -199 52 -295.5t300 -96.5q417 0 485 392l166 931h146l-166 -938q-39 -231 -220 -372q-181 -142 -436 -142q-254 0 -384 142q-130 140 -89 372z" />
    <glyph glyph-name="uhungarumlaut" unicode="&#x171;" horiz-adv-x="1308" 
d="M760 1546h135l-193 -311h-110zM1174 1546l-240 -311h-111l187 311h164zM936 422l108 614h138l-183 -1036h-131l37 211q-151 -238 -432 -238q-165 0 -247 108q-83 108 -52 281l119 674h137l-108 -616q-31 -178 20 -253t207 -75q153 0 257 87q103 87 130 243z" />
    <glyph glyph-name="Uogonek" unicode="&#x172;" horiz-adv-x="1585" 
d="M1206 494l166 931h146l-166 -938q-33 -188 -162 -320t-322 -175l-188 -197q-50 -50 -55 -86q-4 -29 10.5 -40t56.5 -11h148l-17 -88h-184q-74 0 -110.5 31.5t-28.5 87.5q17 67 82 123l174 163q-24 -2 -60 -2q-254 0 -384 142q-130 140 -89 372l166 938h143l-163 -931
q-35 -199 52 -295.5t300 -96.5q417 0 485 392z" />
    <glyph glyph-name="uogonek" unicode="&#x173;" horiz-adv-x="1308" 
d="M999 0l-196 -205q-50 -50 -55 -86q-4 -29 11 -40t56 -11h148l-17 -88h-184q-74 0 -111 31.5t-28 87.5q17 67 82 123l200 188h-37l37 211q-151 -238 -432 -238q-165 0 -247 108q-83 108 -52 281l119 674h137l-108 -616q-31 -178 20 -253t207 -75q153 0 257 87
q103 87 130 243l108 614h138z" />
    <glyph glyph-name="Wcircumflex" unicode="&#x174;" horiz-adv-x="2228" 
d="M1487 1624l-121 264l-217 -264h-135l262 311h190l156 -311h-135zM1651 315l532 1110h146l-684 -1425h-238l-113 1100l-18 280l-119 -280l-502 -1100h-241l-183 1425h150l143 -1110l27 -256l108 256l506 1110h236l112 -1110l21 -258z" />
    <glyph glyph-name="wcircumflex" unicode="&#x175;" horiz-adv-x="1812" 
d="M1214 1235l-120 264l-217 -264h-136l263 311h190l156 -311h-136zM1343 281l373 755h144l-527 -1036h-215l-96 733l-25 248l-112 -248l-357 -733h-219l-164 1036h152l106 -755l27 -242l111 242l362 755h207l98 -755l25 -238z" />
    <glyph glyph-name="Ycircumflex" unicode="&#x176;" horiz-adv-x="1288" 
d="M1018 1624l-121 264l-217 -264h-135l262 311h190l156 -311h-135zM1284 1425h146l-715 -946l-84 -479h-146l86 479l-383 946h156l242 -596l82 -239l168 239z" />
    <glyph glyph-name="ycircumflex" unicode="&#x177;" horiz-adv-x="1089" 
d="M821 1235l-121 264l-217 -264h-135l262 311h191l155 -311h-135zM586 281l424 755h137l-690 -1220q-122 -215 -314 -215q-100 0 -155 16l16 100h131q75 0 118 26q42 25 83 97l90 160h-82l-219 1036h143l156 -755l41 -226z" />
    <glyph glyph-name="Ydieresis" unicode="&#x178;" horiz-adv-x="1288" 
d="M637 1872h176l-33 -186h-176zM963 1872h176l-33 -186h-176zM1284 1425h146l-715 -946l-84 -479h-146l86 479l-383 946h156l242 -596l82 -239l168 239z" />
    <glyph glyph-name="Zacute" unicode="&#x179;" horiz-adv-x="1257" 
d="M778 1624l187 311h163l-237 -311h-113zM1085 0h-1091l43 240l1216 1069l-303 -4h-721l23 120h1079l-41 -239l-1216 -1069l301 4h733z" />
    <glyph glyph-name="zacute" unicode="&#x17a;" horiz-adv-x="1019" 
d="M592 1235l186 311h164l-237 -311h-113zM848 0h-838l41 221l897 703l-217 -4h-549l23 116h815l-39 -227l-891 -696l209 4h569z" />
    <glyph glyph-name="Zdotaccent" unicode="&#x17b;" horiz-adv-x="1257" 
d="M760 1686l33 186h176l-33 -186h-176zM1085 0h-1091l43 240l1216 1069l-303 -4h-721l23 120h1079l-41 -239l-1216 -1069l301 4h733z" />
    <glyph glyph-name="zdotaccent" unicode="&#x17c;" horiz-adv-x="1019" 
d="M573 1296l33 187h176l-32 -187h-177zM848 0h-838l41 221l897 703l-217 -4h-549l23 116h815l-39 -227l-891 -696l209 4h569z" />
    <glyph glyph-name="Zcaron" unicode="&#x17d;" horiz-adv-x="1257" 
d="M932 1624h-193l-153 311h135l123 -264l215 264h135zM252 1425h1079l-41 -239l-1216 -1069l301 4h733l-23 -121h-1091l43 240l1216 1069l-303 -4h-721z" />
    <glyph glyph-name="zcaron" unicode="&#x17e;" horiz-adv-x="1019" 
d="M745 1235h-192l-154 311h136l122 -264l215 264h136zM205 1036h815l-39 -227l-891 -696l209 4h569l-20 -117h-838l41 221l897 703l-217 -4h-549z" />
    <glyph glyph-name="uni018F" unicode="&#x18f;" horiz-adv-x="1583" 
d="M940 1452q297 0 442 -202q144 -202 87 -537q-59 -335 -276 -537q-218 -203 -515 -203q-271 0 -416 166q-147 166 -96 457l24 143h1131q47 297 -51.5 440.5t-351.5 143.5q-461 0 -529 -383h-149q39 231 239 372q200 140 461 140zM366 224q95 -122 335 -122q239 0 385 126
t210 390h-977l-4 -22q-45 -250 51 -372z" />
    <glyph glyph-name="florin" unicode="&#x192;" horiz-adv-x="942" 
d="M971 1448h-242q-111 0 -158 -45q-46 -45 -69 -170l-35 -197h418l-19 -110h-420l-233 -1321h-139l233 1321h-211l21 110h211l39 221q27 145 123.5 225.5t246.5 80.5q154 0 250 -15z" />
    <glyph glyph-name="uni019D" unicode="&#x19d;" horiz-adv-x="1615" 
d="M1194 440l174 985h145l-251 -1425h-246l-514 1358l-45 -318l-185 -1040l-18 -106q-25 -139 -110 -216t-216 -77q-87 0 -135 16l17 98h118q86 0 126 46q41 47 63 176l10 63l2 16l12 70l238 1339h250l510 -1347z" />
    <glyph glyph-name="Gcaron" unicode="&#x1e6;" horiz-adv-x="1626" 
d="M1122 1624h-192l-154 311h135l123 -264l215 264h135zM1518 948h-150q33 193 -63.5 284t-333.5 91q-529 0 -635 -610q-109 -610 420 -611q242 0 381 124t188 382h-573l20 117h713l-127 -725h-121l63 371q-162 -396 -581 -398q-299 0 -445 203q-147 202 -90 537
q58 333 283 537q223 202 528 202q274 0 419 -139t104 -365z" />
    <glyph glyph-name="gcaron" unicode="&#x1e7;" horiz-adv-x="1126" 
d="M799 1235h-193l-153 311h135l123 -264l215 264h135zM1233 1190l-19 -117q-108 0 -161.5 -27.5t-73.5 -91.5q86 -95 61 -243q-27 -152 -162 -248t-325 -96q-142 0 -234 53q-96 -44 -114 -137q-10 -61 18 -88t103 -27h389q147 0 224 -75t56 -195q-25 -132 -177 -215
q-151 -82 -381 -82q-231 0 -355 76q-125 77 -105 202q10 65 66 114t141 70q-117 51 -96 181q22 130 184 207q-117 96 -88 260q28 159 163 256q134 96 329 96q157 0 258 -68q30 100 101 147.5t198 47.5zM897 711q23 125 -35.5 183t-205.5 58q-148 0 -228 -58t-100 -183
q-20 -121 38.5 -178.5t205.5 -57.5q146 0 224 57t101 179zM684 53h-463q-92 -50 -110 -155q-18 -102 59 -143q76 -40 287 -40q213 0 300 40q89 41 107 143q16 86 -24.5 120.5t-155.5 34.5z" />
    <glyph glyph-name="uni01EA" unicode="&#x1ea;" horiz-adv-x="1669" 
d="M1004 1452q305 0 456 -202q150 -203 92 -537q-47 -272 -209 -463q-165 -192 -395 -250l-196 -205q-52 -51 -56 -86q-4 -29 11 -40t57 -11h147l-16 -88h-184q-74 0 -111 31.5t-29 87.5q17 67 82 123l178 165q-51 -4 -88 -4q-311 0 -463 203q-153 202 -96 537
q58 335 285 537q226 202 535 202zM766 102q530 0 637 611q106 610 -422 610q-539 0 -645 -610q-107 -611 430 -611z" />
    <glyph glyph-name="uni01EB" unicode="&#x1eb;" horiz-adv-x="1292" 
d="M351 914q166 149 391 149t338 -149q112 -149 67 -396q-34 -194 -148 -332q-114 -137 -278 -188l-195 -203q-50 -50 -55 -86q-4 -29 11 -40t57 -11h147l-16 -88h-185q-74 0 -110.5 31.5t-28.5 87.5q17 67 82 123l174 163q-22 -2 -53 -2q-225 0 -336 150q-111 149 -68 395
q40 245 206 396zM1001 518q37 219 -31.5 324.5t-248.5 105.5q-179 0 -284 -105t-146 -325q-76 -430 278 -430q356 0 432 430z" />
    <glyph glyph-name="Aringacute" unicode="&#x1fa;" horiz-adv-x="1390" 
d="M903 1618q-80 0 -122 45t-29 117q12 74 71 118t138 44q11 0 38 -5l127 183h121l-178 -209q61 -43 45 -131q-14 -72 -72 -117t-139 -45zM829 1780q-8 -51 11.5 -71.5t75.5 -20.5t84 21t36 71q8 49 -12 70.5t-76 21.5q-102 0 -119 -92zM1264 0h-150l-88 461h-661l-250 -461
h-144l768 1425h252zM715 1110l-285 -528h574l-103 528l-47 268z" />
    <glyph glyph-name="aringacute" unicode="&#x1fb;" horiz-adv-x="1185" 
d="M684 1229q-80 0 -122 45t-30 117q12 74 69.5 117.5t139.5 43.5q23 0 37 -2l127 181h123l-178 -209q61 -43 45 -131q-14 -72 -72 -117t-139 -45zM610 1391q-8 -51 11.5 -72t75.5 -21t84 21t36 72q8 49 -12.5 70.5t-75.5 21.5q-102 0 -119 -92zM1042 96h27l-18 -96
q-60 -16 -121 -16q-92 0 -123 52t-12 177l4 27q-66 -123 -186 -195q-121 -72 -273 -72q-138 0 -212 68q-73 67 -52 180q33 205 340 266q378 80 440 99l6 39q31 171 -21.5 251t-193.5 80q-143 0 -223 -74.5t-107 -230.5h-139q34 186 169 299q134 113 321 113q193 0 282 -107
q88 -107 56 -297l-72 -403q-18 -109 0 -134q18 -26 108 -26zM391 86q163 0 279 82q116 83 153 235l17 99q-27 -8 -387 -90q-115 -27 -166 -69q-50 -41 -64 -110q-14 -72 29 -109.5t139 -37.5z" />
    <glyph glyph-name="AEacute" unicode="&#x1fc;" horiz-adv-x="1937" 
d="M1460 1935h164l-238 -311h-112zM1976 1425l-22 -120h-940l100 -523h709l-23 -123h-663l104 -538h520l-22 -121h-625l-88 461h-661l-250 -461h-144l768 1425h1237zM715 1110l-285 -528h574l-103 528l-47 268z" />
    <glyph glyph-name="aeacute" unicode="&#x1fd;" horiz-adv-x="1941" 
d="M1217 1546h163l-237 -311h-113zM1442 1063q209 0 314 -132q104 -133 65 -347l-17 -99h-813q-57 -397 279 -397q164 0 250 56.5t106 177.5h143q-29 -156 -171 -252q-142 -97 -349 -97q-168 0 -271.5 89.5t-121.5 252.5q-53 -152 -187 -247t-317 -95q-144 0 -221 68
q-76 67 -55 180q16 101 100.5 167t251.5 99q390 83 440 99l6 39q59 332 -215 332q-273 -1 -329 -306h-137q33 187 166 299q134 113 321 113q132 0 215.5 -58.5t105.5 -164.5q171 223 441 223zM1010 582l278 4h393q27 186 -36.5 274t-223.5 88q-164 0 -265 -90t-146 -276z
M403 86q171 0 289 90t150 258l12 68q-65 -19 -389 -90q-123 -27 -176 -68q-53 -40 -66 -111q-25 -147 180 -147z" />
    <glyph glyph-name="Oslashacute" unicode="&#x1fe;" horiz-adv-x="1669" 
d="M1122 1935h164l-237 -311h-113zM1491 1546h151l-221 -252q197 -203 131 -581q-57 -335 -280 -537q-224 -203 -529 -203q-231 0 -378 117l-193 -221h-152l265 301q-160 200 -101 543q58 335 285 537q224 202 535 202q192 0 329 -86zM336 713q-49 -289 39 -439l870 994
q-101 55 -264 55q-539 0 -645 -610zM1403 713q57 332 -68 481l-882 -1006q112 -86 313 -86q531 1 637 611z" />
    <glyph glyph-name="oslashacute" unicode="&#x1ff;" horiz-adv-x="1292" 
d="M903 1546h164l-238 -311h-112zM1188 1188h149l-258 -277q111 -146 68 -393q-45 -246 -209 -395q-164 -150 -389 -150q-164 0 -270 82l-185 -198h-149l260 278q-98 147 -60 383q40 245 206 396q166 149 390 149q153 0 260 -74zM291 518q-31 -179 8 -282l619 661
q-72 51 -197 51q-179 0 -284 -105t-146 -325zM1001 518q31 189 -14 293l-622 -666q71 -57 204 -57q356 0 432 430z" />
    <glyph glyph-name="uni0218" unicode="&#x218;" horiz-adv-x="1425" 
d="M625 -27q-264 0 -402 132q-139 130 -100 344h147q-31 -176 62.5 -261.5t318.5 -85.5q423 0 469 256q20 113 -61 182q-84 69 -357 124q-270 56 -369 141q-100 85 -73 235q33 187 202 299q170 113 412 113q252 0 382 -133t90 -352h-148q33 182 -53 269t-297 87
q-394 0 -440 -262q-20 -107 62 -168q83 -63 351 -115q273 -55 374 -150q99 -96 71 -255q-32 -181 -208 -290q-178 -110 -433 -110zM498 -319l18 118h180l-24 -143q-18 -99 -86 -156t-168 -57l14 72q131 0 152 118z" />
    <glyph glyph-name="uni0219" unicode="&#x219;" horiz-adv-x="1124" 
d="M494 -27q-216 0 -328 99q-113 98 -84 260h143q-23 -129 47 -189.5t242 -60.5q288 0 320 170q16 82 -44 129q-62 47 -251 84q-202 40 -285 110q-82 67 -61 187q22 135 151 218q128 83 313 83q198 0 302 -98q102 -99 73 -258h-141q23 126 -41 187.5t-215 61.5
q-274 0 -307 -178q-14 -80 48 -123q60 -42 261 -80q202 -39 279 -112q77 -74 57 -199q-23 -131 -154 -211q-133 -80 -325 -80zM352 -319l19 118h180l-25 -143q-18 -100 -85.5 -156.5t-168.5 -56.5l15 72q132 0 151 118z" />
    <glyph glyph-name="uni021A" unicode="&#x21a;" horiz-adv-x="1302" 
d="M190 1425h1242l-23 -120h-547l-229 -1305h-146l230 1305h-549zM500 -367l-86 48l18 118h180l-24 -143q-18 -99 -86 -156t-168 -57l14 72q131 0 152 118z" />
    <glyph glyph-name="uni021B" unicode="&#x21b;" horiz-adv-x="839" 
d="M879 926h-426l-109 -613q-20 -125 12 -170t144 -45h237l-16 -98q-106 -16 -256 -16q-153 0 -222 78.5t-42 222.5l112 641h-213l21 110h213l59 310h133l-55 -310h428zM383 -367l-86 48l18 118h181l-25 -143q-18 -99 -86 -156t-168 -57l14 72q131 0 152 118z" />
    <glyph glyph-name="uni0232" unicode="&#x232;" horiz-adv-x="1288" 
d="M602 1841h559l-20 -112h-557zM1284 1425h146l-715 -946l-84 -479h-146l86 479l-383 946h156l242 -596l82 -239l168 239z" />
    <glyph glyph-name="uni0233" unicode="&#x233;" horiz-adv-x="1089" 
d="M408 1452h559l-21 -113h-557zM586 281l424 755h137l-690 -1220q-122 -215 -314 -215q-100 0 -155 16l16 100h131q75 0 118 26q42 25 83 97l90 160h-82l-219 1036h143l156 -755l41 -226z" />
    <glyph glyph-name="uni0237" unicode="&#x237;" horiz-adv-x="559" 
d="M113 -82l198 1118h138l-203 -1142q-23 -139 -107 -216t-211 -77q-87 0 -135 16l17 98h118q84 0 124 43t61 160z" />
    <glyph glyph-name="uni0259" unicode="&#x259;" horiz-adv-x="1247" 
d="M702 1063q223 0 334 -146t70 -387q-45 -250 -208 -403q-163 -154 -386 -154q-210 0 -313 133q-105 132 -66 347l14 88h814q35 207 -34 307t-245 100q-308 0 -352 -243h-142q29 156 173 257q145 101 341 101zM532 88q317 0 408 358l-274 -4h-396q-25 -180 39.5 -267
t222.5 -87z" />
    <glyph glyph-name="uni0272" unicode="&#x272;" horiz-adv-x="1327" 
d="M838 1063q172 0 259 -107q87 -109 56 -282l-119 -674h-139l111 616q31 178 -21 253q-53 75 -209 75q-152 0 -256 -80t-141 -225l-133 -745q-23 -139 -107 -216t-211 -77q-87 0 -135 16l17 98h118q88 0 126 41t59 162l198 1118h133l-36 -215q156 242 430 242z" />
    <glyph glyph-name="circumflex" unicode="&#x2c6;" horiz-adv-x="768" 
d="M659 1546l156 -311h-135l-121 264l-217 -264h-135l262 311h190z" />
    <glyph glyph-name="caron" unicode="&#x2c7;" horiz-adv-x="768" 
d="M518 1282l215 264h135l-262 -311h-192l-154 311h135z" />
    <glyph glyph-name="breve" unicode="&#x2d8;" horiz-adv-x="729" 
d="M715 1546h116q-27 -144 -121 -230q-94 -87 -221 -87t-191 87q-65 88 -38 230h117q-20 -115 10.5 -168t118.5 -53t138 53.5t71 167.5z" />
    <glyph glyph-name="dotaccent" unicode="&#x2d9;" horiz-adv-x="335" 
d="M217 1296l33 187h176l-33 -187h-176z" />
    <glyph glyph-name="ring" unicode="&#x2da;" horiz-adv-x="520" 
d="M525 1274q-59 -45 -140 -45q-82 0 -124 45t-28 117q12 74 69.5 117.5t139.5 43.5q80 0 122 -44t30 -117q-12 -72 -69 -117zM323 1319q19 -21 75 -21q55 0 83 22q27 21 35 71q10 49 -10.5 70.5t-75.5 21.5q-102 0 -119 -92q-7 -51 12 -72z" />
    <glyph glyph-name="ogonek" unicode="&#x2db;" horiz-adv-x="503" 
d="M272 -342l-16 -88h-184q-74 0 -111 31.5t-29 87.5q17 67 82 123l201 188h94l-196 -205q-51 -51 -56 -86q-4 -29 11 -40t57 -11h147z" />
    <glyph glyph-name="tilde" unicode="&#x2dc;" horiz-adv-x="872" 
d="M725 1266q-75 0 -151 66q-79 65 -138 65q-111 0 -133 -127h-92q20 111 87 176t161 65q71 0 150 -65q77 -66 136 -66q113 0 132 127h92q-20 -111 -86 -176t-158 -65z" />
    <glyph glyph-name="hungarumlaut" unicode="&#x2dd;" horiz-adv-x="686" 
d="M207 1235l168 311h135l-193 -311h-110zM438 1235l187 311h163l-239 -311h-111z" />
    <glyph glyph-name="gravecomb" unicode="&#x300;" horiz-adv-x="0" 
d="M-197 1546h164l80 -311h-113z" />
    <glyph glyph-name="acutecomb" unicode="&#x301;" horiz-adv-x="0" 
d="M-250 1235l187 311h163l-237 -311h-113z" />
    <glyph glyph-name="uni0302" unicode="&#x302;" horiz-adv-x="0" 
d="M-109 1546l158 -311h-137l-121 264l-217 -264h-135l262 311h190z" />
    <glyph glyph-name="tildecomb" unicode="&#x303;" horiz-adv-x="0" 
d="M-147 1266q-74 0 -152 66q-79 65 -137 65q-111 0 -133 -127h-93q20 111 87 176t161 65q71 0 150 -65q78 -66 137 -66q113 0 131 127h92q-20 -111 -85.5 -176t-157.5 -65z" />
    <glyph glyph-name="uni0304" unicode="&#x304;" horiz-adv-x="0" 
d="M-475 1452h559l-21 -113h-557z" />
    <glyph glyph-name="uni0306" unicode="&#x306;" horiz-adv-x="0" 
d="M-14 1546h116q-27 -144 -121 -230q-94 -87 -221 -87q-128 0 -192 87t-37 230h117q-20 -115 10.5 -168t118.5 -53t138 53.5t71 167.5z" />
    <glyph glyph-name="uni0307" unicode="&#x307;" horiz-adv-x="0" 
d="M-119 1296l33 187h176l-33 -187h-176z" />
    <glyph glyph-name="uni0308" unicode="&#x308;" horiz-adv-x="0" 
d="M-442 1296l32 187h177l-33 -187h-176zM-117 1296l33 187h176l-33 -187h-176z" />
    <glyph glyph-name="uni030A" unicode="&#x30a;" horiz-adv-x="0" 
d="M5 1274q-59 -45 -140 -45q-82 0 -124 45t-28 117q12 74 69.5 117.5t139.5 43.5q80 0 122 -44t30 -117q-12 -72 -69 -117zM-198 1319q20 -21 75 -21t83 22q28 21 36 71q10 49 -10.5 70.5t-75.5 21.5q-102 0 -119 -92q-8 -52 11 -72z" />
    <glyph glyph-name="uni030B" unicode="&#x30b;" horiz-adv-x="0" 
d="M-479 1235l168 311h135l-193 -311h-110zM-248 1235l187 311h163l-239 -311h-111z" />
    <glyph glyph-name="uni030C" unicode="&#x30c;" horiz-adv-x="0" 
d="M-250 1282l215 264h137l-264 -311h-192l-154 311h135z" />
    <glyph glyph-name="uni0312" unicode="&#x312;" horiz-adv-x="0" 
d="M33 1356l-23 -121h-180l25 145q18 98 84.5 152.5t169.5 54.5l-11 -71q-136 0 -155 -115z" />
    <glyph glyph-name="dotbelowcomb" unicode="&#x323;" horiz-adv-x="0" 
d="M-416 -379l31 178h178l-31 -178h-178z" />
    <glyph glyph-name="uni0326" unicode="&#x326;" horiz-adv-x="0" 
d="M-408 -319l19 118h180l-24 -143q-18 -99 -86 -156t-168 -57l14 72q132 0 151 118z" />
    <glyph glyph-name="uni0327" unicode="&#x327;" horiz-adv-x="0" 
d="M-432 -129h67q78 0 118 -41t28 -106q-12 -69 -70.5 -111.5t-140.5 -42.5h-164l16 88h148q80 0 92 68q8 35 -9.5 51t-60.5 16h-129l13 70l75 137h80z" />
    <glyph glyph-name="uni0328" unicode="&#x328;" horiz-adv-x="0" 
d="M-231 -342l-17 -88h-184q-74 0 -111 31.5t-28 87.5q17 67 82 123l200 188h94l-196 -205q-50 -50 -55 -86q-4 -29 11 -40t56 -11h148z" />
    <glyph glyph-name="uni0394" unicode="&#x394;" horiz-adv-x="1304" 
d="M696 1425h254l250 -1304l-20 -121h-1209l23 121zM811 1378l-137 -268l-539 -989h914l-189 989z" />
    <glyph glyph-name="uni03A9" unicode="&#x3a9;" horiz-adv-x="1693" 
d="M616 0h-546l20 117h279l235 -13q-226 34 -336 209t-65 428q55 322 277 517q223 194 530 194q308 0 463 -194q153 -195 98 -517q-46 -253 -218 -428t-411 -209l240 13h278l-18 -117h-549l33 188q410 74 491 547q107 588 -430 588q-530 0 -635 -588q-86 -473 297 -547z" />
    <glyph glyph-name="uni03BC" unicode="&#x3bc;" horiz-adv-x="1310" 
d="M936 422l108 614h140l-183 -1036h-133l37 207q-151 -232 -418 -234q-151 0 -233 88l-78 -444h-133l133 758l6 39l111 622h139l-108 -616q-33 -179 19 -253q53 -75 206 -75t257 87q103 87 130 243z" />
    <glyph glyph-name="pi" unicode="&#x3c0;" horiz-adv-x="1325" 
d="M1364 926h-217l-115 -660q-16 -88 3 -118q18 -31 89 -31h99l-17 -99q-48 -16 -121 -16q-114 0 -165.5 65.5t-30.5 182.5l121 676h-551l-162 -926h-139l164 926h-220l21 110h1261z" />
    <glyph glyph-name="Wgrave" unicode="&#x1e80;" horiz-adv-x="2228" 
d="M1292 1935l80 -311h-112l-132 311h164zM1651 315l532 1110h146l-684 -1425h-238l-113 1100l-18 280l-119 -280l-502 -1100h-241l-183 1425h150l143 -1110l27 -256l108 256l506 1110h236l112 -1110l21 -258z" />
    <glyph glyph-name="wgrave" unicode="&#x1e81;" horiz-adv-x="1812" 
d="M1020 1546l80 -311h-113l-131 311h164zM1343 281l373 755h144l-527 -1036h-215l-96 733l-25 248l-112 -248l-357 -733h-219l-164 1036h152l106 -755l27 -242l111 242l362 755h207l98 -755l25 -238z" />
    <glyph glyph-name="Wacute" unicode="&#x1e82;" horiz-adv-x="2228" 
d="M1442 1935h164l-238 -311h-113zM1651 315l532 1110h146l-684 -1425h-238l-113 1100l-18 280l-119 -280l-502 -1100h-241l-183 1425h150l143 -1110l27 -256l108 256l506 1110h236l112 -1110l21 -258z" />
    <glyph glyph-name="wacute" unicode="&#x1e83;" horiz-adv-x="1812" 
d="M1169 1546h164l-237 -311h-113zM1343 281l373 755h144l-527 -1036h-215l-96 733l-25 248l-112 -248l-357 -733h-219l-164 1036h152l106 -755l27 -242l111 242l362 755h207l98 -755l25 -238z" />
    <glyph glyph-name="Wdieresis" unicode="&#x1e84;" horiz-adv-x="2228" 
d="M1108 1872h176l-33 -186h-176zM1434 1872h176l-33 -186h-176zM1651 315l532 1110h146l-684 -1425h-238l-113 1100l-18 280l-119 -280l-502 -1100h-241l-183 1425h150l143 -1110l27 -256l108 256l506 1110h236l112 -1110l21 -258z" />
    <glyph glyph-name="wdieresis" unicode="&#x1e85;" horiz-adv-x="1812" 
d="M836 1483h176l-33 -187h-176zM1161 1483h176l-32 -187h-177zM1343 281l373 755h144l-527 -1036h-215l-96 733l-25 248l-112 -248l-357 -733h-219l-164 1036h152l106 -755l27 -242l111 242l362 755h207l98 -755l25 -238z" />
    <glyph glyph-name="uni1EA0" unicode="&#x1ea0;" horiz-adv-x="1390" 
d="M991 1425l273 -1425h-150l-88 461h-661l-250 -461h-144l768 1425h252zM715 1110l-285 -528h574l-103 528l-47 268zM641 -379h-178l31 178h178z" />
    <glyph glyph-name="uni1EA1" unicode="&#x1ea1;" horiz-adv-x="1185" 
d="M1042 96h27l-18 -96q-60 -16 -121 -16q-92 0 -123 52t-12 177l4 27q-66 -123 -186 -195q-121 -72 -273 -72q-138 0 -212 68q-73 67 -52 180q33 205 340 266q378 80 440 99l6 39q31 171 -21.5 251t-193.5 80q-143 0 -223 -74.5t-107 -230.5h-139q34 186 169 299
q134 113 321 113q193 0 282 -107q88 -107 56 -297l-72 -403q-18 -109 0 -134q18 -26 108 -26zM391 86q163 0 279 82q116 83 153 235l17 99q-27 -8 -387 -90q-115 -27 -166 -69q-50 -41 -64 -110q-14 -72 29 -109.5t139 -37.5zM526 -379h-178l31 178h178z" />
    <glyph glyph-name="uni1EB8" unicode="&#x1eb8;" horiz-adv-x="1280" 
d="M1319 1425l-21 -120h-751l-92 -523h710l-20 -123h-713l-94 -538h766l-21 -121h-911l250 1425h897zM659 -379h-178l31 178h178z" />
    <glyph glyph-name="uni1EB9" unicode="&#x1eb9;" horiz-adv-x="1234" 
d="M735 1063q209 0 314 -132q104 -133 65 -347l-16 -99h-813q-29 -202 39.5 -299.5t242.5 -97.5q311 0 353 234h143q-29 -152 -172 -250q-143 -99 -344 -99q-225 0 -336 150q-111 149 -66 395q41 246 204 396q164 149 386 149zM303 582l277 4h395q27 186 -37 274t-223 88
q-164 0 -265.5 -90t-146.5 -276zM569 -379h-178l31 178h178z" />
    <glyph glyph-name="uni1EBC" unicode="&#x1ebc;" horiz-adv-x="1280" 
d="M768 1786q-111 0 -133 -127h-92q20 112 86.5 177t161.5 65q72 0 150 -66q77 -66 136 -66q113 0 131 127h92q-20 -111 -85.5 -176t-157.5 -65q-74 0 -152 66q-79 65 -137 65zM1319 1425l-21 -120h-751l-92 -523h710l-20 -123h-713l-94 -538h766l-21 -121h-911l250 1425
h897z" />
    <glyph glyph-name="uni1EBD" unicode="&#x1ebd;" horiz-adv-x="1234" 
d="M639 1397q-111 0 -133 -127h-92q20 111 86.5 176t161.5 65q71 0 150 -65q76 -66 136 -66q113 0 131 127h92q-20 -111 -85.5 -176t-157.5 -65q-74 0 -152 66q-79 65 -137 65zM735 1063q209 0 314 -132q104 -133 65 -347l-16 -99h-813q-29 -202 39.5 -299.5t242.5 -97.5
q311 0 353 234h143q-29 -152 -172 -250q-143 -99 -344 -99q-225 0 -336 150q-111 149 -66 395q41 246 204 396q164 149 386 149zM303 582l277 4h395q27 186 -37 274t-223 88q-164 0 -265.5 -90t-146.5 -276z" />
    <glyph glyph-name="uni1ECA" unicode="&#x1eca;" horiz-adv-x="671" 
d="M172 0l250 1425h145l-250 -1425h-145zM88 -379l31 178h178l-31 -178h-178z" />
    <glyph glyph-name="uni1ECB" unicode="&#x1ecb;" horiz-adv-x="589" 
d="M350 1296l33 187h174l-31 -187h-176zM139 0l183 1036h139l-182 -1036h-140zM51 -379l31 178h178l-31 -178h-178z" />
    <glyph glyph-name="uni1ECC" unicode="&#x1ecc;" horiz-adv-x="1669" 
d="M743 -27q-311 0 -463 203q-153 202 -96 537q58 335 285 537q224 202 535 202q305 0 456 -202q150 -202 93 -537q-59 -336 -281 -537q-224 -203 -529 -203zM766 102q530 0 637 611q106 610 -422 610q-539 0 -645 -610q-107 -611 430 -611zM592 -379l31 178h178l-31 -178
h-178z" />
    <glyph glyph-name="uni1ECD" unicode="&#x1ecd;" horiz-adv-x="1292" 
d="M938 123q-164 -150 -389 -150t-336 150q-111 149 -68 395q40 245 206 396q166 149 391 149t338 -149q112 -149 67 -396q-45 -246 -209 -395zM569 88q356 0 432 430q37 219 -31.5 324.5t-248.5 105.5q-179 0 -284 -105t-146 -325q-76 -430 278 -430zM397 -379l31 178h178
l-31 -178h-178z" />
    <glyph glyph-name="uni1EE4" unicode="&#x1ee4;" horiz-adv-x="1585" 
d="M223 487l166 938h143l-163 -931q-35 -199 52 -295.5t300 -96.5q417 0 485 392l166 931h146l-166 -938q-39 -231 -220 -372q-181 -142 -436 -142q-254 0 -384 142q-130 140 -89 372zM547 -379l31 178h178l-31 -178h-178z" />
    <glyph glyph-name="uni1EE5" unicode="&#x1ee5;" horiz-adv-x="1308" 
d="M936 422l108 614h138l-183 -1036h-131l37 211q-151 -238 -432 -238q-165 0 -247 108q-83 108 -52 281l119 674h137l-108 -616q-31 -178 20 -253t207 -75q153 0 257 87q103 87 130 243zM575 -379h-178l31 178h178z" />
    <glyph glyph-name="Ygrave" unicode="&#x1ef2;" horiz-adv-x="1288" 
d="M821 1935l80 -311h-113l-131 311h164zM1284 1425h146l-715 -946l-84 -479h-146l86 479l-383 946h156l242 -596l82 -239l168 239z" />
    <glyph glyph-name="ygrave" unicode="&#x1ef3;" horiz-adv-x="1089" 
d="M627 1546l80 -311h-113l-131 311h164zM586 281l424 755h137l-690 -1220q-122 -215 -314 -215q-100 0 -155 16l16 100h131q75 0 118 26q42 25 83 97l90 160h-82l-219 1036h143l156 -755l41 -226z" />
    <glyph glyph-name="uni1EF8" unicode="&#x1ef8;" horiz-adv-x="1288" 
d="M717 1786q-111 0 -133 -127h-92q20 111 86.5 176.5t160.5 65.5q72 0 150 -66t137 -66q113 0 131 127h92q-20 -111 -85.5 -176t-157.5 -65q-74 0 -152 66q-79 65 -137 65zM1284 1425h146l-715 -946l-84 -479h-146l86 479l-383 946h156l242 -596l82 -239l168 239z" />
    <glyph glyph-name="uni1EF9" unicode="&#x1ef9;" horiz-adv-x="1089" 
d="M522 1397q-111 0 -133 -127h-92q20 111 87 176t161 65q71 0 150 -65q76 -66 136 -66q113 0 132 127h92q-20 -111 -86 -176t-158 -65q-74 0 -152 66q-79 65 -137 65zM586 281l424 755h137l-690 -1220q-122 -215 -314 -215q-100 0 -155 16l16 100h131q75 0 118 26
q42 25 83 97l90 160h-82l-219 1036h143l156 -755l41 -226z" />
    <glyph glyph-name="endash" unicode="&#x2013;" horiz-adv-x="1062" 
d="M121 580h880l-20 -115h-879z" />
    <glyph glyph-name="emdash" unicode="&#x2014;" horiz-adv-x="1648" 
d="M121 580h1466l-20 -115h-1465z" />
    <glyph glyph-name="quoteleft" unicode="&#x2018;" horiz-adv-x="434" 
d="M416 1135l-27 -148h-201l33 189q20 113 95 173t194 60l-14 -86q-155 0 -181 -137z" />
    <glyph glyph-name="quoteright" unicode="&#x2019;" horiz-adv-x="434" 
d="M252 1233l24 149h201l-31 -188q-20 -113 -95 -174.5t-193 -61.5l14 86q156 0 182 140z" />
    <glyph glyph-name="quotesinglbase" unicode="&#x201a;" horiz-adv-x="432" 
d="M45 39l27 162h202l-36 -201q-25 -137 -102 -212t-195 -75l14 84q154 0 184 180z" />
    <glyph glyph-name="quotedblleft" unicode="&#x201c;" horiz-adv-x="768" 
d="M752 1135l-27 -148h-201l33 189q20 113 95 173t194 60l-15 -86q-156 0 -182 -137zM414 1128l-25 -141h-201l33 174q18 111 93 171.5t194 60.5l-14 -86q-158 0 -181 -129z" />
    <glyph glyph-name="quotedblright" unicode="&#x201d;" horiz-adv-x="768" 
d="M252 1233l24 149h201l-31 -188q-20 -113 -95 -174.5t-193 -61.5l14 86q156 0 182 140zM588 1239l24 143h201l-29 -176q-20 -111 -95 -170t-193 -59l14 84q158 0 178 129z" />
    <glyph glyph-name="quotedblbase" unicode="&#x201e;" horiz-adv-x="432" 
d="M45 39l27 162h202l-36 -201q-25 -137 -102 -212t-195 -75l14 84q154 0 184 180z" />
    <glyph glyph-name="dagger" unicode="&#x2020;" horiz-adv-x="755" 
d="M487 717h246l-22 -123h-246l-55 -315h-146l55 315h-247l22 123h248l125 708h145z" />
    <glyph glyph-name="daggerdbl" unicode="&#x2021;" horiz-adv-x="755" 
d="M813 1178l-22 -125h-244l-68 -377h246l-23 -123h-243l-49 -274h-146l49 274h-247l20 123h248l67 377h-247l22 125h248l43 247h145l-43 -247h244z" />
    <glyph glyph-name="bullet" unicode="&#x2022;" horiz-adv-x="520" 
d="M109 393l47 256h256l-45 -256h-258z" />
    <glyph glyph-name="ellipsis" unicode="&#x2026;" horiz-adv-x="1140" 
d="M27 0l34 190h193l-35 -190h-192zM391 0l35 190h190l-32 -190h-193zM756 0l35 190h190l-33 -190h-192z" />
    <glyph glyph-name="perthousand" unicode="&#x2030;" horiz-adv-x="1910" 
d="M687 902q-104 -89 -248 -89q-146 0 -219 88t-48 232q27 142 131 231q103 88 248 88t218 -88t46 -231q-26 -144 -128 -231zM1460 1425l-520 -622h-125l494 622h151zM373 1283q-65 -55 -82 -150t29 -150q45 -55 137 -55t159 55q67 56 80 150q16 94 -28.5 150t-136.5 56
q-93 0 -158 -56zM18 0l519 623h125l-492 -623h-152zM1556 614q139 0 209 -88q71 -88 45 -231q-28 -145 -129 -232q-100 -88 -237 -88q-98 0 -157.5 53.5t-69.5 147.5q-45 -95 -124.5 -148t-177.5 -53q-139 0 -208 89q-70 88 -43 231q26 143 126 231q98 88 238 88
q96 0 157.5 -53t71.5 -145q45 93 124 145.5t175 52.5zM1190 295q16 91 -30 150q-46 57 -138 57t-157 -57q-67 -59 -83 -150q-16 -94 29 -150.5t137 -56.5t159 57q66 55 83 150zM1692 295q16 91 -30 150q-46 57 -138 57q-90 0 -157 -57q-66 -57 -83 -150q-16 -94 30 -150.5
t138 -56.5q89 0 157 57q66 55 83 150z" />
    <glyph glyph-name="guilsinglleft" unicode="&#x2039;" horiz-adv-x="546" 
d="M297 150l-250 307l27 145l356 305h154l-441 -379l308 -378h-154z" />
    <glyph glyph-name="guilsinglright" unicode="&#x203a;" horiz-adv-x="548" 
d="M121 150h-156l445 378l-312 379h156l250 -305l-27 -145z" />
    <glyph glyph-name="fraction" unicode="&#x2044;" horiz-adv-x="286" 
d="M-588 0l1411 1434h125l-1411 -1434h-125z" />
    <glyph glyph-name="uni20AA" unicode="&#x20aa;" horiz-adv-x="1875" 
d="M422 1425h145l-250 -1425h-145zM979 1298h-432l20 127h453q158 0 237 -97q77 -97 52 -257l-125 -698h-146l121 678q23 131 -19 189t-161 58zM719 0l22 127h435q117 0 180 59t86 189l184 1050h146l-189 -1071q-38 -163 -146 -258q-109 -96 -266 -96h-452zM905 1053
l-186 -1053h-146l187 1053h145z" />
    <glyph glyph-name="Euro" unicode="&#x20ac;" horiz-adv-x="1507" 
d="M568 1306q188 146 428 146q239 0 371 -140q132 -141 91 -378h-149q35 199 -47 294t-289 95q-398 0 -541 -416h531l-33 -96h-860l16 96h201q91 251 281 399zM758 102q204 0 319 90t150 277h149q-40 -231 -221 -363q-179 -133 -419 -133t-377 149q-139 149 -140 402h-201
l17 97h823l-37 -97h-456q-8 -422 393 -422z" />
    <glyph glyph-name="uni2113" unicode="&#x2113;" horiz-adv-x="815" 
d="M473 1477q83 86 191 86t153 -122q45 -121 10 -321q-39 -231 -160 -379q-122 -150 -284 -172l-55 -313q-16 -91 5 -125q21 -33 97 -33h137l-16 -98q-74 -16 -168 -16q-115 0 -167 67.5t-30 188.5l58 325h-140l21 121h139l101 565q25 139 108 226zM702 1120
q31 174 17.5 250t-76.5 76q-57 0 -89 -43.5t-50 -145.5l-101 -571q119 8 189 111t110 323z" />
    <glyph glyph-name="uni2116" unicode="&#x2116;" horiz-adv-x="2279" 
d="M1834 1371q94 81 228 81q132 0 200 -81q67 -81 45 -214q-22 -132 -119 -214q-98 -81 -228 -81q-133 0 -199 81q-67 80 -44 214q22 133 117 214zM1184 78l55 362l172 985h145l-249 -1425h-246l-514 1358l-47 -318l-183 -1040h-145l250 1425h252zM2195 1157
q33 201 -149 201t-219 -201t149 -201q182 0 219 201zM2003 575h-188l22 125h188z" />
    <glyph glyph-name="trademark" unicode="&#x2122;" horiz-adv-x="1447" 
d="M98 1425h564l-15 -84h-231l-92 -518h-103l92 518h-231zM1356 1425h186l-106 -602h-103l84 482l23 102l-312 -584h-170l-104 572l-14 -90l-84 -482h-103l107 602h190l90 -497l11 -74l36 74z" />
    <glyph glyph-name="onethird" unicode="&#x2153;" horiz-adv-x="1464" 
d="M-20 0l1411 1434h125l-1410 -1434h-126zM532 1276l23 119l-49 -41l-180 -137l20 122l115 86h207l-107 -600h-108zM928 566q74 57 178 57t160 -48q55 -49 41 -126q-20 -113 -164 -134q164 -17 139 -157q-13 -78 -92 -126q-78 -48 -191 -48q-112 0 -168 55t-40 145h110
q-10 -57 17.5 -83.5t97.5 -26.5q138 0 158 92q8 49 -15.5 70.5t-87.5 21.5h-115l13 80h96q113 0 129 88q18 106 -100 106q-125 0 -144 -118h-110q13 92 88 152z" />
    <glyph glyph-name="twothirds" unicode="&#x2154;" horiz-adv-x="1464" 
d="M342 911h305l-14 -86h-481l26 152l299 164q61 31 82 54q22 23 29 65q18 102 -99 102q-129 0 -153 -127h-111q17 99 94 158q79 59 187 59q102 0 154.5 -51t37.5 -137q-12 -61 -53 -102q-40 -41 -135 -91l-223 -121l-80 -41zM2 0l1411 1434h125l-1411 -1434h-125zM939 566
q73 57 178 57q103 0 159 -48q55 -49 41 -126q-20 -113 -164 -134q164 -17 139 -157q-13 -78 -92 -126q-78 -48 -190 -48t-168 55q-58 55 -41 145h110q-10 -57 17.5 -83.5t99.5 -26.5q136 0 156 92q8 49 -15.5 70.5t-87.5 21.5h-114l12 80h96q113 0 129 88q18 106 -100 106
q-125 0 -143 -118h-111q16 94 89 152z" />
    <glyph glyph-name="oneeighth" unicode="&#x215b;" horiz-adv-x="1460" 
d="M-14 0l1411 1434h125l-1411 -1434h-125zM524 1276l25 119l-51 -41l-181 -137l23 122l113 86h209l-107 -600h-111zM925 576q73 47 181 47t167 -47q58 -47 44 -125q-18 -113 -176 -140q167 -29 141 -159q-13 -75 -93 -122q-79 -46 -195 -46q-117 0 -179.5 46t-50.5 122
q19 127 197 159q-146 27 -123 140q14 79 87 125zM1204 434q8 51 -18.5 74.5t-93.5 23.5q-133 0 -150 -98q-8 -45 20.5 -68.5t94.5 -23.5q129 0 147 92zM1176 174q8 51 -24 75.5t-108 24.5q-147 0 -165 -100q-10 -51 22.5 -75.5t108.5 -24.5q148 0 166 100z" />
    <glyph glyph-name="threeeighths" unicode="&#x215c;" horiz-adv-x="1458" 
d="M403 813q-110 0 -168 56q-56 55 -40 145h110q-10 -58 17 -84.5t98 -26.5q141 0 155 92q8 49 -15.5 70.5t-86.5 21.5h-115l15 80h96q111 0 127 88q25 105 -100 107q-123 0 -144 -119h-110q16 93 90 152q74 57 178 57t158.5 -48t40.5 -126q-20 -113 -164 -133
q166 -16 141 -158q-16 -78 -93 -126t-190 -48zM-14 0l1411 1434h125l-1411 -1434h-125zM894 576q74 47 182 47q107 0 166 -47q58 -47 44 -125q-18 -113 -176 -140q166 -33 141 -159q-13 -75 -93 -122q-79 -46 -195 -46t-178 46q-63 46 -50 122q18 130 197 159
q-147 26 -125 140q14 79 87 125zM1174 434q8 51 -19 74.5t-94 23.5q-133 0 -150 -98q-6 -47 23 -69.5t94 -22.5q128 0 146 92zM1145 174q8 51 -23.5 75.5t-107.5 24.5q-147 0 -166 -100q-8 -51 23.5 -75.5t107.5 -24.5q153 0 166 100z" />
    <glyph glyph-name="fiveeighths" unicode="&#x215d;" horiz-adv-x="1458" 
d="M-14 0l1411 1434h125l-1411 -1434h-125zM446 813q-110 0 -168 53q-57 52 -40 135h108q-8 -53 19.5 -76.5t97.5 -23.5q127 0 145 115q20 117 -104 117q-96 0 -154 -64h-92l90 356h418l-14 -90h-244l-90 2l-56 -221q77 98 191 98q92 0 137.5 -54t28.5 -144t-92 -146
q-75 -57 -181 -57zM910 576q74 47 182 47t167 -47q58 -47 44 -125q-18 -113 -177 -140q164 -33 144 -159q-13 -75 -94 -122q-79 -46 -197 -46q-116 0 -178 46q-64 46 -49 122q22 130 196 159q-143 26 -125 140q14 79 87 125zM1190 434q8 51 -18.5 74.5t-94.5 23.5
q-132 0 -149 -98q-6 -47 22.5 -69.5t93.5 -22.5q128 0 146 92zM1161 174q8 51 -23.5 75.5t-107.5 24.5q-147 0 -166 -100q-8 -51 24 -75.5t107 -24.5q153 0 166 100z" />
    <glyph glyph-name="seveneighths" unicode="&#x215e;" horiz-adv-x="1460" 
d="M-14 0l1411 1434h125l-1411 -1434h-125zM748 1339l-134 -2h-280l16 88h434l-14 -86l-12 -67q-114 -84 -191 -199q-79 -118 -98 -239h-109q26 141 129 276t259 229zM926 576q74 47 182 47t167 -47q58 -47 44 -125q-22 -114 -178 -140q168 -29 143 -159q-13 -75 -93 -122
q-79 -46 -195 -46q-117 0 -179.5 46t-50.5 122q22 130 197 159q-143 26 -125 140q13 78 88 125zM1204 434q10 51 -17.5 74.5t-94.5 23.5q-131 0 -148 -98q-8 -45 20.5 -68.5t94.5 -23.5q128 0 145 92zM1178 174q8 51 -25 75.5t-106 24.5q-147 0 -166 -100
q-10 -51 22.5 -75.5t108.5 -24.5q148 0 166 100z" />
    <glyph glyph-name="arrowleft" unicode="&#x2190;" horiz-adv-x="1482" 
d="M358 772l1110 12l-24 -143l-1106 12l397 -473l-108 -92l-516 625l735 624l76 -94z" />
    <glyph glyph-name="arrowup" unicode="&#x2191;" horiz-adv-x="1454" 
d="M885 1405l514 -625l-109 -92l-387 479l-182 -1106h-143l208 1106l-559 -479l-77 92z" />
    <glyph glyph-name="arrowright" unicode="&#x2192;" horiz-adv-x="1482" 
d="M817 1243l109 94l514 -624l-735 -625l-76 92l563 473l-1110 -12l27 143l1103 -12z" />
    <glyph glyph-name="arrowdown" unicode="&#x2193;" horiz-adv-x="1454" 
d="M735 240l561 481l76 -90l-735 -625l-514 625l108 92l387 -481l185 1108h143z" />
    <glyph glyph-name="arrowboth" unicode="&#x2194;" horiz-adv-x="1976" 
d="M1313 1237l108 92l490 -596l-701 -596l-75 92l532 447h-1302l372 -445l-108 -94l-490 596l701 596l75 -92l-528 -444h1299z" />
    <glyph glyph-name="arrowupdn" unicode="&#x2195;" horiz-adv-x="1355" 
d="M883 1343l-228 -1286l525 451l77 -92l-702 -596l-492 596l109 92l367 -455l227 1290l-524 -450l-78 92l702 596l492 -596l-111 -94z" />
    <glyph glyph-name="uni2196" unicode="&#x2196;" horiz-adv-x="1167" 
d="M231 1204l885 2l-24 -131l-674 4l657 -774l-119 -100l-634 790l-113 -671h-133z" />
    <glyph glyph-name="uni2197" unicode="&#x2197;" horiz-adv-x="1169" 
d="M279 1104l20 131h885l-156 -883h-131l123 672l-914 -791l-83 101l929 776z" />
    <glyph glyph-name="uni2198" unicode="&#x2198;" horiz-adv-x="1165" 
d="M920 463l114 674h131l-157 -885h-883l25 133l671 -6l-655 774l119 102z" />
    <glyph glyph-name="uni2199" unicode="&#x2199;" horiz-adv-x="1167" 
d="M1141 1255l82 -102l-928 -774l676 6l-25 -133h-880l153 885h131l-123 -676z" />
    <glyph glyph-name="partialdiff" unicode="&#x2202;" horiz-adv-x="1249" 
d="M395 1573l256 -68q604 -160 490 -819q-59 -331 -228 -521q-169 -192 -405 -192q-219 0 -327 145q-109 143 -68 380q39 228 190 367q149 139 359 139q144 0 235 -74q89 -73 109 -199q45 286 -31 423q-77 139 -316 206l-286 82zM530 96q343 0 414 404q70 385 -270 385
q-176 0 -278.5 -95.5t-137.5 -291.5q-74 -402 272 -402z" />
    <glyph glyph-name="product" unicode="&#x220f;" horiz-adv-x="1337" 
d="M246 1425h1167l-22 -120h-199l-299 -1688h-145l299 1688h-480l-297 -1688h-145l297 1688h-199z" />
    <glyph glyph-name="summation" unicode="&#x2211;" horiz-adv-x="1159" 
d="M942 -383h-997l39 221l747 559l170 125l-151 156l-527 526l39 221h998l-21 -120l-948 2l657 -672l-41 -225l-897 -676l223 4h730z" />
    <glyph glyph-name="minus" unicode="&#x2212;" horiz-adv-x="987" 
d="M115 588h780l-18 -113h-783z" />
    <glyph glyph-name="uni2215" unicode="&#x2215;" horiz-adv-x="512" 
d="M-139 -383l680 1929h127l-680 -1929h-127z" />
    <glyph glyph-name="uni2219" unicode="&#x2219;" horiz-adv-x="542" 
d="M125 399l47 263h262l-47 -263h-262z" />
    <glyph glyph-name="radical" unicode="&#x221a;" horiz-adv-x="1157" 
d="M918 1425h479l-21 -120h-383l-651 -1688h-201l-135 1036h129l90 -708l23 -277l98 277z" />
    <glyph glyph-name="infinity" unicode="&#x221e;" horiz-adv-x="1902" 
d="M1491 922q187 0 281 -111t61 -291q-33 -181 -165 -290q-132 -111 -318 -111q-162 0 -262 98q-52 52 -81 95q-35 52 -71 118q-135 -152 -250 -230q-117 -81 -272 -81q-186 0 -280 111q-95 110 -62 290q32 180 165 291q132 111 318 111q163 0 262 -99q52 -52 81 -95
q35 -52 71 -118q134 151 250 231q115 81 272 81zM434 236q127 0 231 74q101 72 224 210q-72 137 -150 212q-76 73 -204 73q-269 0 -322 -285q-50 -284 221 -284zM1690 520q51 285 -220 285q-130 0 -231 -73q-103 -74 -223 -212q71 -138 149 -211q76 -73 205 -73
q270 -1 320 284z" />
    <glyph glyph-name="integral" unicode="&#x222b;" horiz-adv-x="817" 
d="M801 1448q91 0 155 -14l-18 -101h-145q-109 0 -155 -45q-46 -44 -67 -170l-213 -1212q-27 -145 -121.5 -225t-240.5 -80q-95 0 -156 14l17 100h145q106 0 153 45q45 44 68 170l215 1213q25 145 119.5 225t243.5 80z" />
    <glyph glyph-name="approxequal" unicode="&#x2248;" horiz-adv-x="1122" 
d="M229 604h-112q19 112 107 192q87 78 198 78q61 0 114.5 -25t87.5 -61q82 -88 171 -88q68 0 115 47q46 47 57 105h112q-19 -110 -107 -190t-198 -80q-84 0 -143 44q-46 34 -112 88q-53 44 -118 44q-68 0 -114 -46q-48 -48 -58 -108zM158 195h-113q19 113 108 192
q87 78 197 78q61 0 114.5 -25.5t87.5 -61.5q81 -87 171 -87q67 0 114 45q46 45 58 106h113q-19 -110 -107 -190q-89 -80 -199 -80q-84 0 -143 44q-47 35 -111 88q-53 44 -118 44q-69 0 -115 -46q-47 -47 -57 -107z" />
    <glyph glyph-name="notequal" unicode="&#x2260;" horiz-adv-x="1134" 
d="M1032 793l-20 -111h-269l-225 -301h440l-18 -111h-496l-151 -198h-121l152 198h-213l18 111h268l226 301h-441l21 111h495l148 196h121l-148 -196h213z" />
    <glyph glyph-name="lessequal" unicode="&#x2264;" horiz-adv-x="976" 
d="M829 274l-725 258l33 189l817 260l-18 -115l-752 -239l666 -240zM27 86l18 113h772l-20 -113h-770z" />
    <glyph glyph-name="greaterequal" unicode="&#x2265;" horiz-adv-x="976" 
d="M879 532l-818 -258l21 113l749 240l-665 239l18 115l727 -260zM47 199h772l-20 -113h-770z" />
    <glyph glyph-name="uni2460" unicode="&#x2460;" horiz-adv-x="1787" 
d="M1376 176q-242 -203 -577 -203q-336 0 -504 203q-168 202 -111 537q58 335 300 537q241 202 575 202q336 0 504 -202t111 -537q-59 -335 -298 -537zM395 253q142 -175 423 -175q280 0 483 174q202 173 253 461q51 285 -90 460t-424 175q-280 0 -483 -174
q-203 -176 -254 -461q-51 -284 92 -460zM918 979l-211 -160l22 131l143 107h228l-121 -688h-123l92 518l27 139z" />
    <glyph glyph-name="uni2461" unicode="&#x2461;" horiz-adv-x="1787" 
d="M1376 176q-242 -203 -577 -203q-336 0 -504 203q-168 202 -111 537q58 335 300 537q241 202 575 202q336 0 504 -202t111 -537q-59 -335 -298 -537zM395 253q142 -175 423 -175q280 0 483 174q202 173 253 461q51 285 -90 460t-424 175q-280 0 -483 -174
q-203 -176 -254 -461q-51 -284 92 -460zM1163 367h-555l31 174l346 184q67 34 93 62q25 26 32 75q20 117 -113 117q-151 0 -176 -145h-127q20 113 110 181q89 68 212 68q117 0 177 -60t44 -157q-12 -72 -60 -120q-52 -50 -155 -101l-258 -135l-94 -47l159 4h351z" />
    <glyph glyph-name="uni2462" unicode="&#x2462;" horiz-adv-x="1787" 
d="M1376 176q-242 -203 -577 -203q-336 0 -504 203q-168 202 -111 537q58 335 300 537q241 202 575 202q336 0 504 -202t111 -537q-59 -335 -298 -537zM395 253q142 -175 423 -175q280 0 483 174q202 173 253 461q51 285 -90 460t-424 175q-280 0 -483 -174
q-203 -176 -254 -461q-51 -284 92 -460zM621 578h127q-12 -68 20 -98.5t113 -30.5q162 0 180 106q10 55 -18.5 81t-100.5 26h-131l14 92h113q129 0 145 100q20 125 -114 125q-138 0 -164 -137h-129q19 109 104 174t205 65q118 0 182 -56q62 -56 45 -146q-19 -126 -184 -152
q184 -18 158 -180q-13 -89 -104 -145q-92 -56 -222 -56q-126 0 -190 64q-65 65 -49 168z" />
    <glyph glyph-name="uni2463" unicode="&#x2463;" horiz-adv-x="1787" 
d="M1376 176q-242 -203 -577 -203q-336 0 -504 203q-168 202 -111 537q58 335 300 537q241 202 575 202q336 0 504 -202t111 -537q-59 -335 -298 -537zM395 253q142 -175 423 -175q280 0 483 174q202 173 253 461q51 285 -90 460t-424 175q-280 0 -483 -174
q-203 -176 -254 -461q-51 -284 92 -460zM930 518h-326l37 207l301 332h205l-76 -439h119l-19 -100h-118l-27 -149h-123zM1024 1026l-373 -410l111 2h186l43 248z" />
    <glyph glyph-name="uni2464" unicode="&#x2464;" horiz-adv-x="1787" 
d="M1376 176q-242 -203 -577 -203q-336 0 -504 203q-168 202 -111 537q58 335 300 537q241 202 575 202q336 0 504 -202t111 -537q-59 -335 -298 -537zM395 253q142 -175 423 -175q280 0 483 174q202 173 253 461q51 285 -90 460t-424 175q-280 0 -483 -174
q-203 -176 -254 -461q-51 -284 92 -460zM629 565h127q-10 -60 21.5 -88t111.5 -28q145 0 166 133q25 133 -121 133q-106 0 -176 -72h-109l107 412h481l-18 -103h-279l-102 2l-66 -256q86 111 219 111q104 0 157 -62q52 -63 34 -165q-18 -106 -103 -170t-211 -64t-190.5 59
t-48.5 158z" />
    <glyph glyph-name="uni2465" unicode="&#x2465;" horiz-adv-x="1787" 
d="M1376 176q-242 -203 -577 -203q-336 0 -504 203q-168 202 -111 537q58 335 300 537q241 202 575 202q336 0 504 -202t111 -537q-59 -335 -298 -537zM395 253q142 -175 423 -175q280 0 483 174q202 173 253 461q51 285 -90 460t-424 175q-280 0 -483 -174
q-203 -176 -254 -461q-51 -284 92 -460zM608 709q31 172 140 272q107 100 258 100q126 0 193 -59q65 -59 46 -156h-127q10 60 -20 87.5t-107 27.5q-109 0 -170 -64.5t-88 -207.5q-1 -12 -4 -35q31 60 100.5 96.5t155.5 36.5q117 0 178 -60q60 -62 41 -159
q-18 -109 -109 -175q-91 -67 -218 -67q-152 0 -227 93q-75 91 -42 270zM725 592q-12 -74 30.5 -110t139.5 -36q159 0 184 142q12 70 -20.5 100.5t-116.5 30.5q-195 0 -217 -127z" />
    <glyph glyph-name="uni2466" unicode="&#x2466;" horiz-adv-x="1787" 
d="M1376 176q-242 -203 -577 -203q-336 0 -504 203q-168 202 -111 537q58 335 300 537q241 202 575 202q336 0 504 -202t111 -537q-59 -335 -298 -537zM395 253q142 -175 423 -175q280 0 483 174q202 173 253 461q51 285 -90 460t-424 175q-280 0 -483 -174
q-203 -176 -254 -461q-51 -284 92 -460zM1055 954h-322l17 103h503l-30 -176q-132 -97 -220 -231q-91 -138 -116 -281h-123q28 163 147 321q117 156 293 266z" />
    <glyph glyph-name="uni2467" unicode="&#x2467;" horiz-adv-x="1787" 
d="M1376 176q-242 -203 -577 -203q-336 0 -504 203q-168 202 -111 537q58 335 300 537q241 202 575 202q336 0 504 -202t111 -537q-59 -335 -298 -537zM395 253q142 -175 423 -175q280 0 483 174q202 173 253 461q51 285 -90 460t-424 175q-280 0 -483 -174
q-203 -176 -254 -461q-51 -284 92 -460zM602 541q26 147 227 180q-171 33 -145 164q16 88 100 142t209 54t192 -54q65 -54 52 -142q-26 -131 -207 -164q190 -33 166 -180q-17 -89 -107 -141q-91 -54 -225 -54q-136 0 -206 54q-72 53 -56 141zM807 862q-18 -104 129 -104
t170 104q10 61 -20.5 89t-108.5 28q-151 0 -170 -117zM733 565q-10 -59 26.5 -87.5t123.5 -28.5q170 0 190 116q10 57 -26.5 86t-122.5 29q-173 0 -191 -115z" />
    <glyph glyph-name="uni2468" unicode="&#x2468;" horiz-adv-x="1787" 
d="M1376 176q-242 -203 -577 -203q-336 0 -504 203q-168 202 -111 537q58 335 300 537q241 202 575 202q336 0 504 -202t111 -537q-59 -335 -298 -537zM395 253q142 -175 423 -175q280 0 483 174q202 173 253 461q51 285 -90 460t-424 175q-280 0 -483 -174
q-203 -176 -254 -461q-51 -284 92 -460zM662 840q19 109 110 175q90 66 219 66q155 0 227 -94.5t42 -269.5q-32 -171 -137 -270q-107 -101 -255 -101q-129 0 -196 61q-68 60 -51 156h129q-10 -61 22 -89t113 -28q104 0 162.5 63.5t85.5 207.5l6 35q-34 -58 -101 -94.5
t-147 -36.5q-122 0 -183 61q-62 61 -46 158zM786 840q-10 -69 23.5 -99t120.5 -30q188 0 211 125q14 73 -28.5 109t-137.5 36q-161 0 -189 -141z" />
    <glyph glyph-name="uni24EA" unicode="&#x24ea;" horiz-adv-x="1787" 
d="M1376 176q-242 -203 -577 -203q-336 0 -504 203q-168 202 -111 537q58 335 300 537q241 202 575 202q336 0 504 -202t111 -537q-59 -335 -298 -537zM395 253q142 -175 423 -175q280 0 483 174q202 173 253 461q51 285 -90 460t-424 175q-280 0 -483 -174
q-203 -176 -254 -461q-51 -284 92 -460zM864 346q-150 0 -222 101q-73 99 -44 266q28 165 139 267q110 101 256 101q149 0 223 -101q72 -101 44 -267q-29 -164 -139 -265q-109 -102 -257 -102zM885 457q203 0 248 256q45 258 -158 258q-205 0 -250 -258q-45 -256 160 -256z
" />
    <glyph glyph-name="uni24FF" unicode="&#x24ff;" horiz-adv-x="1787" 
d="M1372 177q-242 -204 -575 -204q-334 0 -502 204t-111 538q57 333 298 535t577 202q334 0 503 -202q170 -203 111 -535q-58 -333 -301 -538zM862 346q150 0 260 102q109 100 135 265q29 167 -43 267q-74 101 -223 101q-146 0 -255 -101q-110 -100 -138 -267
q-29 -165 44 -265q74 -102 220 -102zM883 457q-207 0 -158 256q45 258 248 258q205 0 157 -258q-43 -256 -247 -256z" />
    <glyph glyph-name="lozenge" unicode="&#x25ca;" horiz-adv-x="1144" 
d="M625 1425h215l225 -712l-477 -713h-215l-223 713zM279 713l210 -668l447 668l-213 667z" />
    <glyph glyph-name="uni2766" unicode="&#x2766;" horiz-adv-x="815" 
d="M51 412h-33l45 241h33q-3 -14 0 -21.5t13 -6.5q18 0 24 28h432l-45 -241h-432q5 29 -14 29q-19 -1 -23 -29zM567 424l39 219q57 0 119 -38q61 -37 55 -70q-6 -35 -80 -73q-76 -38 -133 -38zM492 451l8 36h-373l-8 -36h373z" />
    <glyph glyph-name="uni2776" unicode="&#x2776;" horiz-adv-x="1787" 
d="M1372 177q-242 -204 -575 -204q-334 0 -502 204t-111 538q57 333 298 535t577 202q334 0 503 -202q170 -203 111 -535q-58 -333 -301 -538zM727 950l-22 -131l210 160l58 47l-25 -139l-92 -518h121l123 688h-230z" />
    <glyph glyph-name="uni2777" unicode="&#x2777;" horiz-adv-x="1787" 
d="M1376 176q-242 -203 -577 -203q-336 0 -504 203q-168 202 -111 537q58 335 300 537q241 202 575 202q336 0 504 -202t111 -537q-59 -335 -298 -537zM639 541l-31 -174h555l17 100h-351l-159 -4l94 47l258 135q105 52 155 102q48 48 60 119q16 95 -44 157q-60 60 -177 60
q-123 0 -212 -68q-89 -70 -110 -181h127q27 145 176 145q133 0 113 -117q-7 -49 -32 -75q-26 -28 -93 -62z" />
    <glyph glyph-name="uni2778" unicode="&#x2778;" horiz-adv-x="1787" 
d="M1376 176q-242 -203 -577 -203q-336 0 -504 203q-168 202 -111 537q58 335 300 537q241 202 575 202q336 0 504 -202t111 -537q-59 -335 -298 -537zM748 578h-127q-16 -103 49 -168q64 -64 190 -64q130 0 221 56q90 56 105 145q27 162 -158 180q165 26 184 152
q16 90 -46 146t-181 56q-120 0 -205 -65q-85 -66 -104 -174h129q26 137 164 137q135 0 114 -125q-16 -100 -145 -100h-113l-14 -92h131q72 0 100.5 -26t18.5 -81q-18 -106 -180 -106q-81 0 -113.5 30.5t-19.5 98.5z" />
    <glyph glyph-name="uni2779" unicode="&#x2779;" horiz-adv-x="1787" 
d="M1376 176q-242 -203 -577 -203q-336 0 -504 203q-168 202 -111 537q58 335 300 537q241 202 575 202q336 0 504 -202t111 -537q-59 -335 -298 -537zM641 725l-37 -207h326l-27 -149h123l27 149h118l19 100h-119l76 439h-205zM762 618l-111 -2l373 410l-33 -160l-43 -248
h-186z" />
    <glyph glyph-name="uni277A" unicode="&#x277a;" horiz-adv-x="1787" 
d="M1376 176q-242 -203 -577 -203q-336 0 -504 203q-168 202 -111 537q58 335 300 537q241 202 575 202q336 0 504 -202t111 -537q-59 -335 -298 -537zM756 565h-127q-16 -99 48.5 -158t190.5 -59q125 0 210 64q84 62 104 170q18 102 -34 165q-53 62 -157 62
q-133 0 -219 -111l66 256l102 -2h279l18 103h-481l-107 -412h109q70 72 176 72q145 0 121 -133q-19 -133 -166 -133q-80 0 -112 28.5t-21 87.5z" />
    <glyph glyph-name="uni277B" unicode="&#x277b;" horiz-adv-x="1787" 
d="M1372 177q-242 -204 -575 -204q-334 0 -502 204t-111 538q57 333 298 535t577 202q334 0 503 -202q170 -203 111 -535q-58 -333 -301 -538zM606 709q-31 -177 43 -270q73 -93 225 -93q130 0 221 67q91 66 109 175q16 97 -43 159q-59 60 -176 60q-86 0 -155 -36.5
t-103 -96.5l6 35q25 143 86 207.5t170 64.5q78 0 108.5 -27.5t18.5 -87.5h129q16 95 -49 156q-67 59 -190 59q-150 0 -259 -100q-110 -101 -141 -272zM723 592q22 127 217 127q84 0 117 -31t20 -100q-12 -74 -56 -108t-128 -34q-97 0 -139.5 36t-30.5 110z" />
    <glyph glyph-name="uni277C" unicode="&#x277c;" horiz-adv-x="1787" 
d="M1372 177q-242 -204 -575 -204q-334 0 -502 204t-111 538q57 333 298 535t577 202q334 0 503 -202q170 -203 111 -535q-58 -333 -301 -538zM750 1057l-19 -103h322l149 2q-175 -112 -293 -268q-119 -156 -147 -319h125q25 145 114 280q87 133 220 232l30 176h-501z" />
    <glyph glyph-name="uni277D" unicode="&#x277d;" horiz-adv-x="1787" 
d="M1376 176q-242 -203 -577 -203q-336 0 -504 203q-168 202 -111 537q58 335 300 537q241 202 575 202q336 0 504 -202t111 -537q-59 -335 -298 -537zM602 541q-16 -88 56 -141q70 -54 206 -54q134 0 225 54q90 52 107 141q25 147 -166 180q181 33 207 164q13 88 -52 142
q-67 54 -192 54t-209 -54t-100 -142q-26 -131 145 -164q-201 -33 -227 -180zM807 862q19 117 170 117q78 0 108.5 -27.5t20.5 -89.5q-23 -104 -170 -104t-129 104zM733 565q18 115 191 115q86 0 122.5 -28.5t26.5 -86.5q-20 -118 -190 -116q-87 0 -123.5 28.5t-26.5 87.5z
" />
    <glyph glyph-name="uni277E" unicode="&#x277e;" horiz-adv-x="1787" 
d="M1376 176q-242 -203 -577 -203q-336 0 -504 203q-168 202 -111 537q58 335 300 537q241 202 575 202q336 0 504 -202t111 -537q-59 -335 -298 -537zM662 840q-16 -97 46 -158q61 -61 183 -61q80 0 147 36t101 95l-6 -35q-27 -143 -85.5 -207t-162.5 -64q-82 0 -114 28
t-21 89h-129q-17 -96 51 -156q67 -61 196 -61q147 0 254 101q106 101 138 270q31 177 -43 271q-73 93 -226 93q-129 0 -219 -66q-91 -66 -110 -175zM786 840q28 141 189 141q95 0 137.5 -36.5t28.5 -108.5q-23 -125 -211 -125q-87 0 -120.5 30t-23.5 99z" />
    <glyph glyph-name="uniF8FF" unicode="&#xf8ff;" horiz-adv-x="1204" 
d="M1116 1180l27 -230l-8 -6q-62 98 -139 122q-80 25 -343 26q-13 -207 -14 -295q87 1 148 44q59 43 110 144h6l-22 -145q-90 -75 -242 -80v-66q0 -119 4 -291q133 0 199 3q0 172 -15 284q-36 11 -88 19v6q143 27 246 71l2 -6q-41 -45 -54 -118q-13 -71 -13 -279
q0 -221 12 -340l78 -37v-6h-332v6l151 53q11 97 13 295q-88 2 -197 2q2 -34 2 -72q0 -41 2 -71l-108 -66l-4 7q7 56 20 202q-109 0 -197 -2q0 -198 13 -295l153 -53v-6h-333v6l77 37q11 113 13 340q0 207 -12 280q-14 73 -56 117l2 6q92 -42 246 -71v-6q-46 -7 -88 -19
q-13 -112 -15 -284q133 0 199 -3q6 125 6 291v70q-132 18 -215 103q-85 86 -92 210q-75 -12 -109 -39q-36 -28 -79 -94l-9 6q17 137 23 189l8 41q52 -33 168 -39q13 138 116 226q101 87 253 87q113 0 223 -65l31 57l12 -8q-20 -101 -21 -221h-4q-56 203 -241 204
q-114 2 -190 -77q-77 -80 -87 -207q82 -2 248 -2q286 0 374 9t138 36h4zM350 1087q4 -108 63 -185q59 -76 150 -99q-2 144 -12 289q-132 -2 -201 -5z" />
    <glyph glyph-name="I.ss02" horiz-adv-x="1028" 
d="M274 1305l23 120h448l-229 -1304h305l-20 -121h-756l21 121h305l209 1184h-306zM1051 1425l-23 -120h-303l20 120h306z" />
    <glyph glyph-name="Iacute.ss02" horiz-adv-x="1028" 
d="M836 1935h163l-237 -311h-113zM274 1305l23 120h448l-229 -1304h305l-20 -121h-756l21 121h305l209 1184h-306zM1051 1425l-23 -120h-303l20 120h306z" />
    <glyph glyph-name="Ibreve.ss02" horiz-adv-x="1028" 
d="M928 1705q-94 -87 -221 -87t-191 87q-65 87 -39 230h117q-20 -115 10.5 -168t118.5 -53t138 53.5t71 167.5h117q-27 -144 -121 -230zM274 1305l23 120h448l-229 -1304h305l-20 -121h-756l21 121h305l209 1184h-306zM1051 1425l-23 -120h-303l20 120h306z" />
    <glyph glyph-name="Icircumflex.ss02" horiz-adv-x="1028" 
d="M881 1624l-121 264l-217 -264h-135l262 311h190l156 -311h-135zM274 1305l23 120h448l-229 -1304h305l-20 -121h-756l21 121h305l209 1184h-306zM1051 1425l-23 -120h-303l20 120h306z" />
    <glyph glyph-name="Idieresis.ss02" horiz-adv-x="1028" 
d="M502 1872h176l-33 -186h-176zM827 1872h177l-33 -186h-176zM274 1305l23 120h448l-229 -1304h305l-20 -121h-756l21 121h305l209 1184h-306zM1051 1425l-23 -120h-303l20 120h306z" />
    <glyph glyph-name="Idotaccent.ss02" horiz-adv-x="1028" 
d="M664 1872h176l-33 -186h-176zM274 1305l23 120h448l-229 -1304h305l-20 -121h-756l21 121h305l209 1184h-306zM1051 1425l-23 -120h-303l20 120h306z" />
    <glyph glyph-name="uni1ECA.ss02" horiz-adv-x="1028" 
d="M274 1305l23 120h448l-229 -1304h305l-20 -121h-756l21 121h305l209 1184h-306zM1051 1425l-23 -120h-303l20 120h306zM444 -379h-178l31 178h178z" />
    <glyph glyph-name="Igrave.ss02" horiz-adv-x="1028" 
d="M686 1935l80 -311h-113l-131 311h164zM274 1305l23 120h448l-229 -1304h305l-20 -121h-756l21 121h305l209 1184h-306zM1051 1425l-23 -120h-303l20 120h306z" />
    <glyph glyph-name="Imacron.ss02" horiz-adv-x="1028" 
d="M467 1841h559l-20 -112h-557zM274 1305l23 120h448l-229 -1304h305l-20 -121h-756l21 121h305l209 1184h-306zM1051 1425l-23 -120h-303l20 120h306z" />
    <glyph glyph-name="Iogonek.ss02" horiz-adv-x="1028" 
d="M274 1305l23 120h448l-229 -1304h305l-20 -121h-307l-197 -205q-50 -50 -55 -86q-4 -29 11 -40t56 -11h148l-17 -88h-184q-74 0 -110.5 31.5t-28.5 87.5q17 67 82 123l200 188h-354l21 121h305l209 1184h-306zM1051 1425l-23 -120h-303l20 120h306z" />
    <glyph glyph-name="Itilde.ss02" horiz-adv-x="1028" 
d="M580 1786q-112 0 -134 -127h-92q20 111 87 177q68 65 161 65q72 0 150 -66q77 -66 137 -66q113 0 131 127h92q-20 -111 -85.5 -176t-158.5 -65q-74 0 -151 66q-79 65 -137 65zM274 1305l23 120h448l-229 -1304h305l-20 -121h-756l21 121h305l209 1184h-306zM1028 1305
h-303l20 120h306z" />
    <glyph glyph-name="Z.ss03" horiz-adv-x="1257" 
d="M1085 0h-1091l41 233l1202 1076l-287 -4h-721l23 120h1079l-41 -231l-1200 -1077l285 4h733z" />
    <glyph glyph-name="Zacute.ss03" horiz-adv-x="1257" 
d="M778 1624l187 311h163l-237 -311h-113zM1085 0h-1091l41 233l1202 1076l-287 -4h-721l23 120h1079l-41 -231l-1200 -1077l285 4h733z" />
    <glyph glyph-name="Zcaron.ss03" horiz-adv-x="1257" 
d="M932 1624h-193l-153 311h135l123 -264l215 264h135zM252 1425h1079l-41 -231l-1200 -1077l285 4h733l-23 -121h-1091l41 233l1202 1076l-287 -4h-721z" />
    <glyph glyph-name="Zdotaccent.ss03" horiz-adv-x="1257" 
d="M760 1686l33 186h176l-33 -186h-176zM1085 0h-1091l41 233l1202 1076l-287 -4h-721l23 120h1079l-41 -231l-1200 -1077l285 4h733z" />
    <glyph glyph-name="a.salt" horiz-adv-x="1357" 
d="M1059 819l37 217h135l-184 -1036h-134l39 225q-74 -122 -186.5 -187t-245.5 -65q-215 0 -317 150q-103 148 -58 395q40 245 197 396q157 149 371 149q133 0 224.5 -63t121.5 -181zM569 88q335 0 420 375l21 112q20 191 -50 282t-239 91q-180 0 -285.5 -105.5
t-144.5 -324.5t29.5 -324.5t248.5 -105.5z" />
    <glyph glyph-name="aacute.salt" horiz-adv-x="1357" 
d="M918 1546h163l-237 -311h-113zM1059 819l37 217h135l-184 -1036h-134l39 225q-74 -122 -186.5 -187t-245.5 -65q-215 0 -317 150q-103 148 -58 395q40 245 197 396q157 149 371 149q133 0 224.5 -63t121.5 -181zM569 88q335 0 420 375l21 112q20 191 -50 282t-239 91
q-180 0 -285.5 -105.5t-144.5 -324.5t29.5 -324.5t248.5 -105.5z" />
    <glyph glyph-name="abreve.salt" horiz-adv-x="1357" 
d="M1009 1316q-95 -87 -220 -87q-127 0 -192 87q-65 88 -38 230h117q-20 -115 10.5 -168t118.5 -53t138 53.5t71 167.5h116q-27 -144 -121 -230zM1059 819l37 217h135l-184 -1036h-134l39 225q-74 -122 -186.5 -187t-245.5 -65q-215 0 -317 150q-103 148 -58 395
q40 245 197 396q157 149 371 149q133 0 224.5 -63t121.5 -181zM569 88q335 0 420 375l21 112q20 191 -50 282t-239 91q-180 0 -285.5 -105.5t-144.5 -324.5t29.5 -324.5t248.5 -105.5z" />
    <glyph glyph-name="acircumflex.salt" horiz-adv-x="1357" 
d="M963 1235l-121 264l-217 -264h-136l263 311h190l156 -311h-135zM1059 819l37 217h135l-184 -1036h-134l39 225q-74 -122 -186.5 -187t-245.5 -65q-215 0 -317 150q-103 148 -58 395q40 245 197 396q157 149 371 149q133 0 224.5 -63t121.5 -181zM569 88q335 0 420 375
l21 112q20 191 -50 282t-239 91q-180 0 -285.5 -105.5t-144.5 -324.5t29.5 -324.5t248.5 -105.5z" />
    <glyph glyph-name="adieresis.salt" horiz-adv-x="1357" 
d="M584 1483h176l-33 -187h-176zM909 1483h176l-32 -187h-176zM1059 819l37 217h135l-184 -1036h-134l39 225q-74 -122 -186.5 -187t-245.5 -65q-215 0 -317 150q-103 148 -58 395q40 245 197 396q157 149 371 149q133 0 224.5 -63t121.5 -181zM569 88q335 0 420 375l21 112
q20 191 -50 282t-239 91q-180 0 -285.5 -105.5t-144.5 -324.5t29.5 -324.5t248.5 -105.5z" />
    <glyph glyph-name="uni1EA1.salt" horiz-adv-x="1357" 
d="M1059 819l37 217h135l-184 -1036h-134l39 225q-74 -122 -186.5 -187t-245.5 -65q-215 0 -317 150q-103 148 -58 395q40 245 197 396q157 149 371 149q133 0 224.5 -63t121.5 -181zM569 88q335 0 420 375l21 112q20 191 -50 282t-239 91q-180 0 -285.5 -105.5
t-144.5 -324.5t29.5 -324.5t248.5 -105.5zM616 -379h-178l31 178h178z" />
    <glyph glyph-name="agrave.salt" horiz-adv-x="1357" 
d="M766 1546l80 -311h-113l-131 311h164zM1059 819l37 217h135l-184 -1036h-134l39 225q-74 -122 -186.5 -187t-245.5 -65q-215 0 -317 150q-103 148 -58 395q40 245 197 396q157 149 371 149q133 0 224.5 -63t121.5 -181zM569 88q335 0 420 375l21 112q20 191 -50 282
t-239 91q-180 0 -285.5 -105.5t-144.5 -324.5t29.5 -324.5t248.5 -105.5z" />
    <glyph glyph-name="amacron.salt" horiz-adv-x="1357" 
d="M549 1452h559l-21 -113h-557zM1059 819l37 217h135l-184 -1036h-134l39 225q-74 -122 -186.5 -187t-245.5 -65q-215 0 -317 150q-103 148 -58 395q40 245 197 396q157 149 371 149q133 0 224.5 -63t121.5 -181zM569 88q335 0 420 375l21 112q20 191 -50 282t-239 91
q-180 0 -285.5 -105.5t-144.5 -324.5t29.5 -324.5t248.5 -105.5z" />
    <glyph glyph-name="aogonek.salt" horiz-adv-x="1357" 
d="M1047 0l-197 -205q-50 -50 -55 -86q-4 -29 10.5 -40t56.5 -11h148l-17 -88h-184q-74 0 -110.5 31.5t-28.5 87.5q17 67 82 123l200 188h-39l39 225q-74 -122 -186.5 -187t-245.5 -65q-215 0 -317 150q-103 148 -58 395q40 245 197 396q157 149 371 149q133 0 224.5 -63
t121.5 -181l37 217h135zM569 88q335 0 420 375l21 112q20 191 -50 282t-239 91q-180 0 -285.5 -105.5t-144.5 -324.5t29.5 -324.5t248.5 -105.5z" />
    <glyph glyph-name="aring.salt" horiz-adv-x="1357" 
d="M928 1274q-58 -45 -139 -45q-82 0 -124 45t-28 117q12 74 69.5 117.5t139.5 43.5q80 0 122 -44t29 -117q-12 -72 -69 -117zM715 1391q-8 -51 11.5 -72t74.5 -21t82.5 21.5t36.5 71.5q10 49 -10.5 70.5t-75.5 21.5q-102 0 -119 -92zM1059 819l37 217h135l-184 -1036h-134
l39 225q-74 -122 -186.5 -187t-245.5 -65q-215 0 -317 150q-103 148 -58 395q40 245 197 396q157 149 371 149q133 0 224.5 -63t121.5 -181zM569 88q335 0 420 375l21 112q20 191 -50 282t-239 91q-180 0 -285.5 -105.5t-144.5 -324.5t29.5 -324.5t248.5 -105.5z" />
    <glyph glyph-name="aringacute.salt" horiz-adv-x="1357" 
d="M928 1274q-58 -45 -139 -45q-83 0 -123 45q-41 45 -29 117q12 74 69.5 117.5t139.5 43.5q23 0 37 -2l127 181h123l-181 -209q62 -41 45 -131q-12 -72 -69 -117zM715 1391q-8 -51 11.5 -72t74.5 -21t82.5 21.5t36.5 71.5q10 49 -10.5 70.5t-75.5 21.5q-102 0 -119 -92z
M1059 819l37 217h135l-184 -1036h-134l39 225q-74 -122 -186.5 -187t-245.5 -65q-215 0 -317 150q-103 148 -58 395q40 245 197 396q157 149 371 149q133 0 224.5 -63t121.5 -181zM569 88q335 0 420 375l21 112q20 191 -50 282t-239 91q-180 0 -285.5 -105.5t-144.5 -324.5
t29.5 -324.5t248.5 -105.5z" />
    <glyph glyph-name="atilde.salt" horiz-adv-x="1357" 
d="M662 1397q-112 0 -134 -127h-92q20 111 87 176t161 65q71 0 150 -65q76 -66 137 -66q113 0 131 127h92q-20 -111 -86 -176t-158 -65q-74 0 -151 66q-79 65 -137 65zM1059 819l37 217h135l-184 -1036h-134l39 225q-74 -122 -186.5 -187t-245.5 -65q-215 0 -317 150
q-103 148 -58 395q40 245 197 396q157 149 371 149q133 0 224.5 -63t121.5 -181zM569 88q335 0 420 375l21 112q20 191 -50 282t-239 91q-180 0 -285.5 -105.5t-144.5 -324.5t29.5 -324.5t248.5 -105.5z" />
    <glyph glyph-name="g.salt" horiz-adv-x="1353" 
d="M1055 821l37 215h135l-174 -987q-34 -202 -187 -326q-154 -122 -368 -122q-217 0 -332 109q-116 110 -84 290h143q-27 -150 44 -219.5t249 -69.5q172 0 271.5 95t134.5 296l30 170q-142 -229 -417 -229q-215 0 -323 140q-108 139 -67 366q39 231 196 373q157 141 372 141
q134 0 223.5 -63t116.5 -179zM586 156q347 0 415 389q37 205 -31.5 304t-244.5 99q-361 0 -432 -399q-35 -201 37 -297t256 -96z" />
    <glyph glyph-name="gbreve.salt" horiz-adv-x="1353" 
d="M999 1324q-95 -87 -221 -87t-191 87q-65 88 -38 230h117q-20 -115 10.5 -168t118.5 -53t138 53.5t71 167.5h116q-27 -144 -121 -230zM1055 821l37 215h135l-174 -987q-34 -202 -187 -326q-154 -122 -368 -122q-217 0 -332 109q-116 110 -84 290h143q-27 -150 44 -219.5
t249 -69.5q172 0 271.5 95t134.5 296l30 170q-142 -229 -417 -229q-215 0 -323 140q-108 139 -67 366q39 231 196 373q157 141 372 141q134 0 223.5 -63t116.5 -179zM586 156q347 0 415 389q37 205 -31.5 304t-244.5 99q-361 0 -432 -399q-35 -201 37 -297t256 -96z" />
    <glyph glyph-name="gcaron.salt" horiz-adv-x="1353" 
d="M872 1243h-192l-154 311h136l122 -264l215 264h136zM1055 821l37 215h135l-174 -987q-34 -202 -187 -326q-154 -122 -368 -122q-217 0 -332 109q-116 110 -84 290h143q-27 -150 44 -219.5t249 -69.5q172 0 271.5 95t134.5 296l30 170q-142 -229 -417 -229
q-215 0 -323 140q-108 139 -67 366q39 231 196 373q157 141 372 141q134 0 223.5 -63t116.5 -179zM586 156q347 0 415 389q37 205 -31.5 304t-244.5 99q-361 0 -432 -399q-35 -201 37 -297t256 -96z" />
    <glyph glyph-name="gcircumflex.salt" horiz-adv-x="1353" 
d="M952 1243l-121 264l-217 -264h-135l262 311h191l155 -311h-135zM1055 821l37 215h135l-174 -987q-34 -202 -187 -326q-154 -122 -368 -122q-217 0 -332 109q-116 110 -84 290h143q-27 -150 44 -219.5t249 -69.5q172 0 271.5 95t134.5 296l30 170q-142 -229 -417 -229
q-215 0 -323 140q-108 139 -67 366q39 231 196 373q157 141 372 141q134 0 223.5 -63t116.5 -179zM586 156q347 0 415 389q37 205 -31.5 304t-244.5 99q-361 0 -432 -399q-35 -201 37 -297t256 -96z" />
    <glyph glyph-name="uni0123.salt" horiz-adv-x="1353" 
d="M791 1409l88 -45l-23 -121h-178l24 146q18 98 85 152t167 54l-10 -71q-134 0 -153 -115zM1055 821l37 215h135l-174 -987q-34 -202 -187 -326q-154 -122 -368 -122q-217 0 -332 109q-116 110 -84 290h143q-27 -150 44 -219.5t249 -69.5q172 0 271.5 95t134.5 296l30 170
q-142 -229 -417 -229q-215 0 -323 140q-108 139 -67 366q39 231 196 373q157 141 372 141q134 0 223.5 -63t116.5 -179zM586 156q347 0 415 389q37 205 -31.5 304t-244.5 99q-361 0 -432 -399q-35 -201 37 -297t256 -96z" />
    <glyph glyph-name="gdotaccent.salt" horiz-adv-x="1353" 
d="M733 1491h176l-32 -186h-177zM1055 821l37 215h135l-174 -987q-34 -202 -187 -326q-154 -122 -368 -122q-217 0 -332 109q-116 110 -84 290h143q-27 -150 44 -219.5t249 -69.5q172 0 271.5 95t134.5 296l30 170q-142 -229 -417 -229q-215 0 -323 140q-108 139 -67 366
q39 231 196 373q157 141 372 141q134 0 223.5 -63t116.5 -179zM586 156q347 0 415 389q37 205 -31.5 304t-244.5 99q-361 0 -432 -399q-35 -201 37 -297t256 -96z" />
    <glyph glyph-name="l.salt" horiz-adv-x="575" 
d="M127 0l272 1546h138l-273 -1546h-137z" />
    <glyph glyph-name="lacute.salt" horiz-adv-x="575" 
d="M426 1661l186 311h164l-237 -311h-113zM127 0l272 1546h138l-273 -1546h-137z" />
    <glyph glyph-name="lcaron.salt" horiz-adv-x="575" 
d="M127 0l272 1546h138l-273 -1546h-137zM702 1425l21 121h180l-26 -145q-16 -103 -84.5 -162t-169.5 -59l14 71q129 0 151 129z" />
    <glyph glyph-name="uni013C.salt" horiz-adv-x="575" 
d="M127 0l272 1546h138l-273 -1546h-137zM47 -319l19 118h180l-25 -143q-18 -100 -85.5 -156.5t-168.5 -56.5l15 72q132 0 151 118z" />
    <glyph glyph-name="ldot.salt" horiz-adv-x="702" 
d="M127 0l272 1546h138l-273 -1546h-137zM502 676l30 174h175l-31 -174h-174z" />
    <glyph glyph-name="lslash.salt" horiz-adv-x="575" 
d="M408 815l243 170l-22 -131l-244 -172l-121 -682h-137l106 608l-202 -139l22 131l205 139l141 807h138z" />
    <glyph glyph-name="y.salt" horiz-adv-x="1089" 
d="M584 281l426 755h137l-803 -1419h-137l219 383h-82l-219 1036h143l156 -755l41 -220z" />
    <glyph glyph-name="yacute.salt" horiz-adv-x="1089" 
d="M788 1546h164l-237 -311h-113zM584 281l426 755h137l-803 -1419h-137l219 383h-82l-219 1036h143l156 -755l41 -220z" />
    <glyph glyph-name="ycircumflex.salt" horiz-adv-x="1089" 
d="M834 1235l-121 264l-217 -264h-136l263 311h190l156 -311h-135zM584 281l426 755h137l-803 -1419h-137l219 383h-82l-219 1036h143l156 -755l41 -220z" />
    <glyph glyph-name="ydieresis.salt" horiz-adv-x="1089" 
d="M455 1483h176l-33 -187h-176zM780 1483h176l-32 -187h-176zM584 281l426 755h137l-803 -1419h-137l219 383h-82l-219 1036h143l156 -755l41 -220z" />
    <glyph glyph-name="ygrave.salt" horiz-adv-x="1089" 
d="M637 1546l80 -311h-113l-131 311h164zM584 281l426 755h137l-803 -1419h-137l219 383h-82l-219 1036h143l156 -755l41 -220z" />
    <glyph glyph-name="uni0233.salt" horiz-adv-x="1089" 
d="M420 1452h559l-21 -113h-557zM584 281l426 755h137l-803 -1419h-137l219 383h-82l-219 1036h143l156 -755l41 -220z" />
    <glyph glyph-name="uni1EF9.salt" horiz-adv-x="1089" 
d="M532 1397q-111 0 -133 -127h-92q20 111 87 176t161 65q71 0 150 -65q76 -66 137 -66q113 0 131 127h92q-20 -111 -86 -176t-158 -65q-74 0 -152 66q-79 65 -137 65zM584 281l426 755h137l-803 -1419h-137l219 383h-82l-219 1036h143l156 -755l41 -220z" />
    <glyph glyph-name="z.ss03" horiz-adv-x="1009" 
d="M838 0h-838l37 205l889 721l-205 -6h-549l23 116h815l-37 -211l-881 -714l197 6h569z" />
    <glyph glyph-name="zacute.ss03" horiz-adv-x="1009" 
d="M582 1235l186 311h164l-238 -311h-112zM838 0h-838l37 205l889 721l-205 -6h-549l23 116h815l-37 -211l-881 -714l197 6h569z" />
    <glyph glyph-name="zcaron.ss03" horiz-adv-x="1009" 
d="M735 1235h-192l-154 311h135l123 -264l215 264h135zM195 1036h815l-37 -211l-881 -714l197 6h569l-20 -117h-838l37 205l889 721l-205 -6h-549z" />
    <glyph glyph-name="zdotaccent.ss03" horiz-adv-x="1009" 
d="M563 1296l33 187h176l-33 -187h-176zM838 0h-838l37 205l889 721l-205 -6h-549l23 116h815l-37 -211l-881 -714l197 6h569z" />
    <glyph glyph-name="f_f_j.dlig" horiz-adv-x="2072" 
d="M1225 1036h717l-201 -1142q-25 -139 -109 -216t-211 -77q-84 0 -135 16l17 98h118q88 0 126 41q39 42 61 162l178 1008h-580l-164 -926h-139l164 926h-606l-164 -926h-137l164 926h-213l18 110h213l31 168q25 145 121.5 225t248.5 80q146 0 250 -14l-18 -100h-240
q-111 0 -160 -45t-69 -170l-25 -144h606l39 221q25 146 120.5 226t248.5 80q137 0 227 -15l-18 -100h-217q-111 0 -158 -45q-46 -45 -69 -170zM1831 1296l39 211h174l-37 -211h-176z" />
    <glyph glyph-name="f_iacute.dlig" horiz-adv-x="1306" 
d="M481 1036h717l-184 -1036h-137l163 926h-579l-164 -926h-137l164 926h-213l18 110h213l39 221q27 146 123.5 226t247.5 80q140 0 225 -15l-16 -100h-218q-111 0 -157 -45q-48 -46 -70 -170zM1104 1235l186 311h164l-237 -311h-113z" />
    <glyph glyph-name="f_j.dlig" horiz-adv-x="1329" 
d="M479 1036h719l-203 -1142q-25 -139 -108.5 -216t-210.5 -77q-84 0 -135 16l18 98h119q88 0 126 42q39 43 58 161l178 1008h-579l-164 -926h-137l164 926h-213l18 110h213l39 221q27 146 123.5 226t247.5 80q140 0 225 -15l-19 -100h-215q-111 0 -158 -45
q-48 -45 -71 -170zM1085 1296l39 211h176l-38 -211h-177z" />
    <glyph glyph-name="f_t.dlig" horiz-adv-x="1558" 
d="M1597 926h-426l-106 -604q-23 -130 9 -177t145 -47h237l-16 -98q-106 -16 -256 -16q-153 0 -222 78.5t-42 222.5l112 641h-571l-164 -926h-139l164 926h-211l18 110h211l39 221q27 146 123.5 226t247.5 80q147 0 237 -15l-16 -100h-228q-111 0 -159 -45q-49 -44 -70 -170
l-35 -197h574l63 310h129l-55 -310h428z" />
    <glyph glyph-name="t_t.dlig" horiz-adv-x="1576" 
d="M1616 926h-426l-107 -604q-23 -130 9 -177t145 -47h238l-17 -98q-106 -16 -258 -16t-220.5 78.5t-41.5 222.5l113 641h-598l-107 -604q-22 -130 9 -177q32 -47 145 -47h223l-18 -98q-95 -16 -240 -16q-153 0 -222 78.5t-42 222.5l112 641h-213l21 110h213l57 269h129
l-47 -269h598l64 310h129l-56 -310h428z" />
    <glyph glyph-name="f_f_l.liga.salt" horiz-adv-x="2060" 
d="M1225 1036h407l-20 -110h-406l-164 -926h-137l164 926h-608l-164 -926h-137l164 926h-213l18 110h213l43 238q22 130 95 183q70 52 229 52q151 0 272 -16l-18 -98h-246q-110 0 -147 -34q-39 -36 -58 -147l-31 -178h606l52 291q23 131 95 184q70 52 228 52q146 0 271 -17
l-17 -98h-243q-112 0 -149 -34q-39 -36 -58 -146zM1614 0l272 1546h137l-272 -1546h-137z" />
    <glyph glyph-name="uniFB02.aalt" horiz-adv-x="1316" 
d="M481 1036h406l-21 -110h-405l-164 -926h-137l164 926h-213l18 110h213l39 221q27 146 123.5 226t247.5 80q147 0 237 -15l-16 -100h-230q-111 0 -157 -45q-48 -46 -70 -170zM868 0l273 1546h139l-272 -1546h-140z" />
    <glyph glyph-name="A.c2sc" horiz-adv-x="1155" 
d="M1028 0h-137l-68 315h-544l-179 -315h-141l602 1071h238zM571 829l-225 -397h451l-86 397l-37 193z" />
    <glyph glyph-name="Aacute.aalt" horiz-adv-x="1155" 
d="M842 1546h164l-238 -311h-113zM1028 0h-137l-68 315h-544l-179 -315h-141l602 1071h238zM571 829l-225 -397h451l-86 397l-37 193z" />
    <glyph glyph-name="Abreve.aalt" horiz-adv-x="1155" 
d="M934 1316q-94 -87 -221 -87t-191 87q-65 87 -39 230h117q-20 -115 10.5 -168t118.5 -53t138.5 53.5t70.5 167.5h117q-27 -144 -121 -230zM561 1071h238l229 -1071h-137l-68 315h-544l-179 -315h-141zM571 829l-225 -397h451l-86 397l-37 193z" />
    <glyph glyph-name="Acircumflex.aalt" horiz-adv-x="1155" 
d="M887 1235l-121 264l-217 -264h-135l262 311h190l156 -311h-135zM1028 0h-137l-68 315h-544l-179 -315h-141l602 1071h238zM571 829l-225 -397h451l-86 397l-37 193z" />
    <glyph glyph-name="Adieresis.aalt" horiz-adv-x="1155" 
d="M508 1483h176l-33 -187h-176zM834 1483h176l-33 -187h-176zM1028 0h-137l-68 315h-544l-179 -315h-141l602 1071h238zM571 829l-225 -397h451l-86 397l-37 193z" />
    <glyph glyph-name="uni1EA0.aalt" horiz-adv-x="1155" 
d="M799 1071l229 -1071h-137l-68 315h-544l-179 -315h-141l602 1071h238zM571 829l-225 -397h451l-86 397l-37 193zM520 -379h-178l31 178h178z" />
    <glyph glyph-name="Agrave.aalt" horiz-adv-x="1155" 
d="M692 1546l80 -311h-113l-131 311h164zM1028 0h-137l-68 315h-544l-179 -315h-141l602 1071h238zM571 829l-225 -397h451l-86 397l-37 193z" />
    <glyph glyph-name="Amacron.aalt" horiz-adv-x="1155" 
d="M473 1452h559l-20 -113h-557zM561 1071h238l229 -1071h-137l-68 315h-544l-179 -315h-141zM571 829l-225 -397h451l-86 397l-37 193z" />
    <glyph glyph-name="Aogonek.aalt" horiz-adv-x="1155" 
d="M987 0l-196 -205q-51 -51 -56 -86q-4 -29 11 -40t57 -11h147l-16 -88h-184q-74 0 -111 31.5t-29 87.5q17 67 82 123l201 188h-2l-68 315h-544l-179 -315h-141l602 1071h238l229 -1071h-41zM571 829l-225 -397h451l-86 397l-37 193z" />
    <glyph glyph-name="Aring.aalt" horiz-adv-x="1155" 
d="M853 1274q-59 -45 -140 -45q-82 0 -124 45t-28 117q12 74 69.5 117.5t139.5 43.5q80 0 122 -44t30 -117q-12 -72 -69 -117zM639 1391q-8 -51 11.5 -72t74.5 -21t83 21.5t36 71.5q10 49 -10.5 70.5t-75.5 21.5q-102 0 -119 -92zM1028 0h-137l-68 315h-544l-179 -315h-141
l602 1071h238zM571 829l-225 -397h451l-86 397l-37 193z" />
    <glyph glyph-name="Aringacute.aalt" horiz-adv-x="1155" 
d="M707 1229q-80 0 -122 45t-30 117q12 74 69.5 117.5t139.5 43.5q23 0 37 -2l127 181h123l-181 -209q63 -43 48 -131q-14 -72 -72 -117t-139 -45zM633 1391q-8 -51 11.5 -72t74.5 -21t82.5 21.5t36.5 71.5q10 49 -10.5 70.5t-75.5 21.5q-102 0 -119 -92zM561 1071h238
l229 -1071h-137l-68 315h-544l-179 -315h-141zM571 829l-225 -397h451l-86 397l-37 193z" />
    <glyph glyph-name="Atilde.aalt" horiz-adv-x="1155" 
d="M1028 1507h92q-20 -111 -85.5 -176t-157.5 -65q-74 0 -152 66q-79 65 -137 65q-111 0 -133 -127h-93q20 111 87 176t161 65q71 0 150 -65q78 -66 137 -66q113 0 131 127zM561 1071h238l229 -1071h-137l-68 315h-544l-179 -315h-141zM571 829l-225 -397h451l-86 397
l-37 193z" />
    <glyph glyph-name="AE.aalt" horiz-adv-x="1589" 
d="M1579 1075l-20 -117h-736l76 -356h574l-19 -117h-530l80 -368h409l-18 -117h-508l-70 319h-543l-182 -319h-133l604 1075h1016zM565 834l-225 -398h453l-86 398l-37 196z" />
    <glyph glyph-name="AEacute.aalt" horiz-adv-x="1589" 
d="M1145 1546h164l-238 -311h-113zM1579 1075l-20 -117h-736l76 -356h574l-19 -117h-530l80 -368h409l-18 -117h-508l-70 319h-543l-182 -319h-133l604 1075h1016zM565 834l-225 -398h453l-86 398l-37 196z" />
    <glyph glyph-name="B.aalt" horiz-adv-x="1181" 
d="M1100 803q-14 -88 -82 -151.5t-172 -86.5q111 -23 164 -95.5t34 -176.5q-23 -131 -132 -212q-110 -81 -265 -81h-502l191 1071h469q157 0 237 -73q81 -73 58 -195zM950 782q16 90 -29 132t-159 42h-309l-64 -362h309q115 0 175.5 45t76.5 143zM899 299q18 96 -25 141
t-155 45h-348l-66 -370h340q117 0 178.5 44t75.5 140z" />
    <glyph glyph-name="C.aalt" horiz-adv-x="1273" 
d="M150 532q45 250 215 405t403 155q211 0 322 -114q110 -114 77 -298h-145q27 150 -39.5 219.5t-234.5 69.5q-375 0 -453 -437q-39 -221 34.5 -328.5t264.5 -107.5q169 0 259.5 64.5t115.5 204.5h143q-32 -177 -179 -284q-148 -108 -362 -108q-234 0 -349 154
q-117 153 -72 405z" />
    <glyph glyph-name="Cacute.aalt" horiz-adv-x="1273" 
d="M737 1235l187 311h163l-237 -311h-113zM150 532q45 250 215 405t403 155q211 0 322 -114q110 -114 77 -298h-145q27 150 -39.5 219.5t-234.5 69.5q-375 0 -453 -437q-39 -221 34.5 -328.5t264.5 -107.5q169 0 259.5 64.5t115.5 204.5h143q-32 -177 -179 -284
q-148 -108 -362 -108q-234 0 -349 154q-117 153 -72 405z" />
    <glyph glyph-name="Ccaron.aalt" horiz-adv-x="1273" 
d="M891 1235h-193l-153 311h135l123 -264l215 264h135zM1167 680h-145q27 150 -39.5 219.5t-234.5 69.5q-375 0 -453 -437q-39 -221 34.5 -328.5t264.5 -107.5q169 0 259.5 64.5t115.5 204.5h143q-32 -177 -179 -284q-148 -108 -362 -108q-233 0 -350 154q-117 155 -71 405
q45 250 215 405t403 155q211 0 322 -114q110 -114 77 -298z" />
    <glyph glyph-name="Ccedilla.aalt" horiz-adv-x="1273" 
d="M1167 680h-145q27 150 -39.5 219.5t-234.5 69.5q-375 0 -453 -437q-39 -221 34.5 -328.5t264.5 -107.5q169 0 259.5 64.5t115.5 204.5h143q-28 -169 -170 -276t-344 -116l-51 -102h67q78 0 118 -41t28 -106q-12 -69 -70.5 -111.5t-140.5 -42.5h-164l16 88h148q80 0 92 68
q8 35 -9.5 51t-60.5 16h-129l13 70l61 112q-206 18 -307 170q-100 150 -59 387q45 250 215 405t403 155q211 0 322 -114q110 -114 77 -298z" />
    <glyph glyph-name="Ccircumflex.aalt" horiz-adv-x="1273" 
d="M971 1235l-121 264l-217 -264h-135l262 311h190l156 -311h-135zM1167 680h-145q27 150 -39.5 219.5t-234.5 69.5q-375 0 -453 -437q-39 -221 34.5 -328.5t264.5 -107.5q169 0 259.5 64.5t115.5 204.5h143q-32 -177 -179 -284q-148 -108 -362 -108q-233 0 -350 154
q-117 155 -71 405q45 250 215 405t403 155q211 0 322 -114q110 -114 77 -298z" />
    <glyph glyph-name="Cdotaccent.aalt" horiz-adv-x="1273" 
d="M719 1296l33 187h176l-33 -187h-176zM150 532q45 250 215 405t403 155q211 0 322 -114q110 -114 77 -298h-145q27 150 -39.5 219.5t-234.5 69.5q-375 0 -453 -437q-39 -221 34.5 -328.5t264.5 -107.5q169 0 259.5 64.5t115.5 204.5h143q-32 -177 -179 -284
q-148 -108 -362 -108q-234 0 -349 154q-117 153 -72 405z" />
    <glyph glyph-name="D.aalt" horiz-adv-x="1357" 
d="M336 1071h440q240 0 360 -147q119 -150 76 -387q-41 -242 -213 -389q-172 -148 -411 -148h-443zM1067 537q38 209 -43.5 313.5t-282.5 103.5h-288l-148 -837h287q403 0 475 420z" />
    <glyph glyph-name="Eth.aalt" horiz-adv-x="1357" 
d="M336 1071h440q240 0 360 -147q119 -150 76 -387q-41 -242 -213 -389q-172 -148 -411 -148h-443l88 492h-174l17 102h176zM1067 537q38 209 -43.5 313.5t-282.5 103.5h-288l-64 -360h354l-16 -102h-356l-66 -375h287q403 0 475 420z" />
    <glyph glyph-name="Dcaron.aalt" horiz-adv-x="1357" 
d="M905 1235h-192l-154 311h135l123 -264l215 264h135zM336 1071h440q240 0 360 -147q119 -150 76 -387q-41 -242 -213 -389q-172 -148 -411 -148h-443zM1067 537q38 209 -43.5 313.5t-282.5 103.5h-288l-148 -837h287q403 0 475 420z" />
    <glyph glyph-name="Dcroat.aalt" horiz-adv-x="1357" 
d="M336 1071h440q240 0 360 -147q119 -150 76 -387q-41 -242 -213 -389q-172 -148 -411 -148h-443l88 492h-174l17 102h176zM1067 537q38 209 -43.5 313.5t-282.5 103.5h-288l-64 -360h354l-16 -102h-356l-66 -375h287q403 0 475 420z" />
    <glyph glyph-name="E.aalt" horiz-adv-x="1077" 
d="M1067 1071l-23 -117h-591l-62 -352h570l-21 -117h-569l-66 -368h596l-20 -117h-736l191 1071h731z" />
    <glyph glyph-name="Eacute.aalt" horiz-adv-x="1077" 
d="M844 1546h164l-238 -311h-113zM1067 1071l-23 -117h-591l-62 -352h570l-21 -117h-569l-66 -368h596l-20 -117h-736l191 1071h731z" />
    <glyph glyph-name="Ebreve.aalt" horiz-adv-x="1077" 
d="M936 1316q-94 -87 -221 -87t-191 87q-65 87 -39 230h117q-20 -115 10.5 -168t118.5 -53t138.5 53.5t70.5 167.5h117q-27 -144 -121 -230zM1067 1071l-23 -117h-591l-62 -352h570l-21 -117h-569l-66 -368h596l-20 -117h-736l191 1071h731z" />
    <glyph glyph-name="Ecaron.aalt" horiz-adv-x="1077" 
d="M811 1235h-193l-153 311h135l123 -264l215 264h135zM336 1071h731l-23 -117h-591l-62 -352h570l-21 -117h-569l-66 -368h596l-20 -117h-736z" />
    <glyph glyph-name="Ecircumflex.aalt" horiz-adv-x="1077" 
d="M889 1235l-121 264l-217 -264h-135l262 311h190l156 -311h-135zM1067 1071l-23 -117h-591l-62 -352h570l-21 -117h-569l-66 -368h596l-20 -117h-736l191 1071h731z" />
    <glyph glyph-name="Edieresis.aalt" horiz-adv-x="1077" 
d="M510 1483h176l-33 -187h-176zM836 1483h176l-33 -187h-176zM1067 1071l-23 -117h-591l-62 -352h570l-21 -117h-569l-66 -368h596l-20 -117h-736l191 1071h731z" />
    <glyph glyph-name="Edotaccent.aalt" horiz-adv-x="1077" 
d="M672 1483h176l-33 -187h-176zM1067 1071l-23 -117h-591l-62 -352h570l-21 -117h-569l-66 -368h596l-20 -117h-736l191 1071h731z" />
    <glyph glyph-name="uni1EB8.aalt" horiz-adv-x="1077" 
d="M1067 1071l-23 -117h-591l-62 -352h570l-21 -117h-569l-66 -368h596l-20 -117h-736l191 1071h731zM565 -379h-178l31 178h178z" />
    <glyph glyph-name="Egrave.aalt" horiz-adv-x="1077" 
d="M692 1546l80 -311h-113l-131 311h164zM1067 1071l-23 -117h-591l-62 -352h570l-21 -117h-569l-66 -368h596l-20 -117h-736l191 1071h731z" />
    <glyph glyph-name="Emacron.aalt" horiz-adv-x="1077" 
d="M475 1452h559l-20 -113h-557zM1067 1071l-23 -117h-591l-62 -352h570l-21 -117h-569l-66 -368h596l-20 -117h-736l191 1071h731z" />
    <glyph glyph-name="Eogonek.aalt" horiz-adv-x="1077" 
d="M1067 1071l-23 -117h-591l-62 -352h570l-21 -117h-569l-66 -368h596l-20 -117l-197 -205q-50 -50 -55 -86q-4 -29 10.5 -40t56.5 -11h148l-17 -88h-184q-74 0 -110.5 31.5t-28.5 87.5q17 67 82 123l200 188h-641l191 1071h731z" />
    <glyph glyph-name="uni1EBC.aalt" horiz-adv-x="1077" 
d="M588 1397q-111 0 -133 -127h-93q20 111 87 176t161 65q71 0 150 -65q78 -66 137 -66q113 0 131 127h92q-20 -111 -85.5 -176t-157.5 -65q-74 0 -152 66q-79 65 -137 65zM336 1071h731l-23 -117h-591l-62 -352h570l-21 -117h-569l-66 -368h596l-20 -117h-736z" />
    <glyph glyph-name="uni018F.aalt" horiz-adv-x="1333" 
d="M778 1092q229 0 343 -155t69 -405q-45 -251 -212 -405q-166 -154 -398 -154q-218 0 -328 135q-109 133 -70 351l17 100h850q31 209 -40 309.5t-251 100.5q-332 0 -377 -264h-145q29 169 180 278t362 109zM600 96q334 0 428 357h-569l-129 65l-4 -45q-33 -193 33.5 -285
t240.5 -92z" />
    <glyph glyph-name="F.aalt" horiz-adv-x="1013" 
d="M1063 1071l-23 -117h-587l-62 -352h565l-20 -119h-565l-86 -483h-140l191 1071h727z" />
    <glyph glyph-name="G.aalt" horiz-adv-x="1308" 
d="M1200 698h-145q27 139 -46 205t-255 66q-195 0 -307.5 -107.5t-151.5 -331.5q-77 -434 305 -434q344 0 416 342h-402l21 113h543l-99 -553h-108l53 311q-59 -160 -180 -248t-285 -88q-230 0 -342 154q-113 155 -67 403q45 254 217 408t409 154q222 0 338 -109
q117 -110 86 -285z" />
    <glyph glyph-name="Gbreve.aalt" horiz-adv-x="1308" 
d="M1022 1316q-94 -87 -221 -87t-191 87q-65 87 -39 230h117q-20 -115 10.5 -168t118.5 -53t138.5 53.5t70.5 167.5h117q-27 -144 -121 -230zM1200 698h-145q27 139 -46 205t-255 66q-195 0 -307.5 -107.5t-151.5 -331.5q-77 -434 305 -434q344 0 416 342h-402l21 113h543
l-99 -553h-108l53 311q-59 -160 -180 -248t-285 -88q-230 0 -342 154q-113 155 -67 403q45 254 217 408t409 154q222 0 338 -109q117 -110 86 -285z" />
    <glyph glyph-name="Gcaron.aalt" horiz-adv-x="1308" 
d="M897 1235h-192l-154 311h135l123 -264l215 264h135zM1200 698h-145q27 139 -46 205t-255 66q-195 0 -307.5 -107.5t-151.5 -331.5q-77 -434 305 -434q344 0 416 342h-402l21 113h543l-99 -553h-108l53 311q-59 -160 -180 -248t-285 -88q-230 0 -342 154q-113 155 -67 403
q45 254 217 408t409 154q222 0 338 -109q117 -110 86 -285z" />
    <glyph glyph-name="Gcircumflex.aalt" horiz-adv-x="1308" 
d="M975 1235l-121 264l-217 -264h-135l262 311h190l156 -311h-135zM1200 698h-145q27 139 -46 205t-255 66q-195 0 -307.5 -107.5t-151.5 -331.5q-77 -434 305 -434q344 0 416 342h-402l21 113h543l-99 -553h-108l53 311q-59 -160 -180 -248t-285 -88q-230 0 -342 154
q-113 155 -67 403q45 254 217 408t409 154q222 0 338 -109q117 -110 86 -285z" />
    <glyph glyph-name="uni0122.aalt" horiz-adv-x="1308" 
d="M1200 698h-145q27 139 -46 205t-255 66q-195 0 -307.5 -107.5t-151.5 -331.5q-77 -434 305 -434q344 0 416 342h-402l21 113h543l-99 -553h-108l53 311q-59 -160 -180 -248t-285 -88q-230 0 -342 154q-113 155 -67 403q45 254 217 408t409 154q222 0 338 -109
q117 -110 86 -285zM526 -367l-86 48l19 118h180l-25 -143q-18 -100 -85.5 -156.5t-168.5 -56.5l15 72q132 0 151 118z" />
    <glyph glyph-name="Gdotaccent.aalt" horiz-adv-x="1308" 
d="M758 1483h176l-33 -187h-176zM1200 698h-145q27 139 -46 205t-255 66q-195 0 -307.5 -107.5t-151.5 -331.5q-77 -434 305 -434q344 0 416 342h-402l21 113h543l-99 -553h-108l53 311q-59 -160 -180 -248t-285 -88q-230 0 -342 154q-113 155 -67 403q45 254 217 408
t409 154q222 0 338 -109q117 -110 86 -285z" />
    <glyph glyph-name="H.aalt" horiz-adv-x="1388" 
d="M1028 602l84 469h137l-188 -1071h-139l86 485h-637l-86 -485h-140l191 1071h137l-82 -469h637z" />
    <glyph glyph-name="Hbar.aalt" horiz-adv-x="1388" 
d="M1221 907h161l-16 -102h-164l-141 -805h-139l86 485h-637l-86 -485h-140l144 805h-166l18 102h166l29 164h137l-29 -164h639l29 164h137zM391 602h637l37 203h-639z" />
    <glyph glyph-name="Hcircumflex.aalt" horiz-adv-x="1388" 
d="M989 1235l-121 264l-217 -264h-135l262 311h191l155 -311h-135zM1028 602l84 469h137l-188 -1071h-139l86 485h-637l-86 -485h-140l191 1071h137l-82 -469h637z" />
    <glyph glyph-name="i.aalt" horiz-adv-x="612" 
d="M145 0l191 1071h137l-188 -1071h-140z" />
    <glyph glyph-name="iacute.aalt" horiz-adv-x="612" 
d="M375 1235l186 311h164l-238 -311h-112zM145 0l191 1071h137l-188 -1071h-140z" />
    <glyph glyph-name="ibreve.aalt" horiz-adv-x="612" 
d="M657 1546h117q-27 -144 -121 -230q-95 -87 -221 -87t-191 87q-65 88 -38 230h116q-20 -115 11 -168t119 -53t138 53.5t70 167.5zM145 0l191 1071h137l-188 -1071h-140z" />
    <glyph glyph-name="icircumflex.aalt" horiz-adv-x="612" 
d="M586 1546l155 -311h-135l-121 264l-217 -264h-135l262 311h191zM285 0h-140l191 1071h137z" />
    <glyph glyph-name="idieresis.aalt" horiz-adv-x="612" 
d="M195 1296l32 187h176l-32 -187h-176zM520 1296l33 187h176l-33 -187h-176zM145 0l191 1071h137l-188 -1071h-140z" />
    <glyph glyph-name="Idotaccent.c2sc" horiz-adv-x="612" 
d="M354 1296l33 187h176l-33 -187h-176zM145 0l191 1071h137l-188 -1071h-140z" />
    <glyph glyph-name="uni1ECB.aalt" horiz-adv-x="612" 
d="M145 0l191 1071h137l-188 -1071h-140zM59 -379l31 178h178l-30 -178h-179z" />
    <glyph glyph-name="igrave.aalt" horiz-adv-x="612" 
d="M246 1546h164l79 -311h-112zM145 0l191 1071h137l-188 -1071h-140z" />
    <glyph glyph-name="IJ.aalt" horiz-adv-x="1120" 
d="M162 96h319q121 0 184.5 56.5t86.5 183.5l129 735h139l-131 -737q-29 -168 -144 -264q-115 -97 -286 -97q-211 0 -314 27zM207 326l131 745h137l-131 -745h-137z" />
    <glyph glyph-name="imacron.aalt" horiz-adv-x="612" 
d="M190 1452h560l-21 -113h-557zM145 0l191 1071h137l-188 -1071h-140z" />
    <glyph glyph-name="iogonek.aalt" horiz-adv-x="612" 
d="M145 0l191 1071h137l-188 -1071h-2l-197 -205q-50 -50 -55 -86q-4 -29 10.5 -40t56.5 -11h148l-17 -88h-184q-74 0 -110.5 31.5t-28.5 87.5q17 67 82 123l200 188h-43z" />
    <glyph glyph-name="itilde.aalt" horiz-adv-x="612" 
d="M594 1266q-74 0 -151 66q-79 65 -138 65q-111 0 -133 -127h-92q20 111 86.5 176t161.5 65q71 0 150 -65q77 -66 136 -66q113 0 131 127h93q-20 -111 -86 -176t-158 -65zM145 0l191 1071h137l-188 -1071h-140z" />
    <glyph glyph-name="J.aalt" horiz-adv-x="995" 
d="M10 358h137q-25 -135 24.5 -198.5t176.5 -63.5q121 0 190.5 63t92.5 195l127 717h137l-127 -721q-29 -169 -150 -272q-122 -105 -292 -105q-172 0 -259 106q-89 105 -57 279z" />
    <glyph glyph-name="Jcircumflex.aalt" horiz-adv-x="995" 
d="M1006 1546l155 -311h-135l-121 264l-217 -264h-135l262 311h191zM631 354l127 717h137l-127 -721q-29 -169 -150 -272q-122 -105 -292 -105q-172 0 -259 106q-87 105 -57 279h137q-25 -135 24.5 -198.5t176.5 -63.5q121 0 190.5 63t92.5 195z" />
    <glyph glyph-name="K.aalt" horiz-adv-x="1142" 
d="M1059 1071h174l-694 -530l524 -541h-176l-357 369l-151 161l-94 -530h-140l191 1071h137l-92 -524l211 166z" />
    <glyph glyph-name="uni0136.aalt" horiz-adv-x="1142" 
d="M1059 1071h174l-694 -530l524 -541h-176l-357 369l-151 161l-94 -530h-140l191 1071h137l-92 -524l211 166zM506 -367l-86 48l18 118h180l-24 -143q-18 -99 -86 -156t-168 -57l14 72q131 0 152 118z" />
    <glyph glyph-name="L.aalt" horiz-adv-x="964" 
d="M473 1071l-168 -954h586l-21 -117h-725l191 1071h137z" />
    <glyph glyph-name="Lacute.aalt" horiz-adv-x="964" 
d="M561 1546h164l-238 -311h-112zM473 1071l-168 -954h586l-21 -117h-725l191 1071h137z" />
    <glyph glyph-name="Lcaron.aalt" horiz-adv-x="964" 
d="M336 1071h137l-168 -954h586l-21 -117h-725zM897 1071l-27 -145q-16 -104 -84 -162.5t-170 -58.5l15 71q131 0 151 129l-86 45l21 121h180z" />
    <glyph glyph-name="uni013B.aalt" horiz-adv-x="964" 
d="M473 1071l-168 -954h586l-21 -117h-725l191 1071h137zM465 -367l-86 48l18 118h181l-25 -143q-18 -99 -86 -156t-168 -57l14 72q131 0 152 118z" />
    <glyph glyph-name="Ldot.aalt" horiz-adv-x="964" 
d="M473 1071l-168 -954h586l-21 -117h-725l191 1071h137zM614 709h183l-33 -183h-182z" />
    <glyph glyph-name="Lslash.aalt" horiz-adv-x="964" 
d="M369 473l-64 -356h586l-21 -117h-725l74 420l-180 -82l18 108l183 82l96 543h137l-86 -487l404 180l-19 -109z" />
    <glyph glyph-name="M.aalt" horiz-adv-x="1699" 
d="M1315 1071h246l-191 -1071h-137l151 856l33 174l-549 -1030h-217l-188 1020l-29 -164l-149 -856h-140l191 1071h252l162 -889l20 -131l66 131z" />
    <glyph glyph-name="N.aalt" horiz-adv-x="1423" 
d="M1016 332l131 739h137l-188 -1071h-240l-399 1018l-35 -238l-137 -780h-140l191 1071h242l397 -1014z" />
    <glyph glyph-name="Nacute.aalt" horiz-adv-x="1423" 
d="M973 1546h164l-238 -311h-113zM1016 332l131 739h137l-188 -1071h-240l-399 1018l-35 -238l-137 -780h-140l191 1071h242l397 -1014z" />
    <glyph glyph-name="Ncaron.aalt" horiz-adv-x="1423" 
d="M940 1235h-192l-154 311h135l123 -264l215 264h135zM1016 332l131 739h137l-188 -1071h-240l-399 1018l-35 -238l-137 -780h-140l191 1071h242l397 -1014z" />
    <glyph glyph-name="uni0145.aalt" horiz-adv-x="1423" 
d="M1016 332l131 739h137l-188 -1071h-240l-399 1018l-35 -238l-137 -780h-140l191 1071h242l397 -1014zM588 -367l-86 48l18 118h180l-24 -143q-18 -99 -86 -156t-168 -57l14 72q131 0 152 118z" />
    <glyph glyph-name="Eng.aalt" horiz-adv-x="1425" 
d="M1016 332l131 739h137l-188 -1071l-19 -106q-25 -139 -108.5 -216t-210.5 -77q-84 0 -135 16l16 98h119q90 0 128 41q39 42 58 162l12 82h-100l-399 1018l-35 -238l-137 -780h-140l191 1071h242l397 -1014z" />
    <glyph glyph-name="uni019D.aalt" horiz-adv-x="1423" 
d="M1016 332l131 739h137l-188 -1071h-240l-399 1018l-35 -238l-137 -780l-19 -106q-25 -139 -108.5 -216t-210.5 -77q-84 0 -135 16l16 98h119q90 0 127 42q37 41 61 180l10 63l191 1071h242l397 -1014z" />
    <glyph glyph-name="Ntilde.aalt" horiz-adv-x="1423" 
d="M719 1397q-111 0 -133 -127h-92q20 111 86.5 176t160.5 65q71 0 150 -65q78 -66 137 -66q113 0 131 127h92q-20 -111 -85.5 -176t-157.5 -65q-74 0 -152 66q-79 65 -137 65zM1016 332l131 739h137l-188 -1071h-240l-399 1018l-35 -238l-137 -780h-140l191 1071h242
l397 -1014z" />
    <glyph glyph-name="O.c2sc" horiz-adv-x="1357" 
d="M588 -27q-242 0 -363 154t-75 406q45 251 219 405q173 154 415 154q239 0 357 -154q119 -155 74 -405q-46 -252 -217 -406q-172 -154 -410 -154zM608 96q383 0 461 436q39 222 -36.5 329.5t-270.5 107.5q-199 0 -313.5 -106.5t-153.5 -330.5q-39 -222 37.5 -329
t275.5 -107z" />
    <glyph glyph-name="Oacute.aalt" horiz-adv-x="1357" 
d="M748 1235l186 311h164l-238 -311h-112zM588 -27q-242 0 -363 154t-75 406q45 251 219 405q173 154 415 154q239 0 357 -154q119 -155 74 -405q-46 -252 -217 -406q-172 -154 -410 -154zM608 96q383 0 461 436q39 222 -36.5 329.5t-270.5 107.5q-199 0 -313.5 -106.5
t-153.5 -330.5q-39 -222 37.5 -329t275.5 -107z" />
    <glyph glyph-name="Obreve.aalt" horiz-adv-x="1357" 
d="M1030 1546h117q-27 -144 -121 -230q-94 -87 -221 -87t-191 87q-65 87 -39 230h117q-20 -115 10.5 -168t118.5 -53t138.5 53.5t70.5 167.5zM588 -27q-242 0 -363 154t-75 406q45 251 219 405q173 154 415 154q239 0 357 -154q119 -155 74 -405q-46 -252 -217 -406
q-172 -154 -410 -154zM608 96q383 0 461 436q39 222 -36.5 329.5t-270.5 107.5q-199 0 -313.5 -106.5t-153.5 -330.5q-39 -222 37.5 -329t275.5 -107z" />
    <glyph glyph-name="Ocircumflex.aalt" horiz-adv-x="1357" 
d="M979 1235l-121 264l-217 -264h-135l262 311h190l156 -311h-135zM784 1092q239 0 357 -154q119 -155 74 -405q-47 -252 -218 -406q-172 -154 -409 -154q-242 0 -363 154t-75 406q45 251 219 405q172 154 415 154zM1069 532q39 222 -36.5 329.5t-270.5 107.5
q-199 0 -313.5 -106.5t-153.5 -330.5q-39 -221 38 -328.5t275 -107.5q383 0 461 436z" />
    <glyph glyph-name="Odieresis.aalt" horiz-adv-x="1357" 
d="M567 1296l33 187h176l-33 -187h-176zM893 1296l33 187h176l-33 -187h-176zM588 -27q-242 0 -363 154t-75 406q45 251 219 405q173 154 415 154q239 0 357 -154q119 -155 74 -405q-46 -252 -217 -406q-172 -154 -410 -154zM608 96q383 0 461 436q39 222 -36.5 329.5
t-270.5 107.5q-199 0 -313.5 -106.5t-153.5 -330.5q-39 -222 37.5 -329t275.5 -107z" />
    <glyph glyph-name="uni1ECC.aalt" horiz-adv-x="1357" 
d="M588 -27q-242 0 -363 154t-75 406q45 251 219 405q173 154 415 154q239 0 357 -154q119 -155 74 -405q-46 -252 -217 -406q-172 -154 -410 -154zM608 96q383 0 461 436q39 222 -36.5 329.5t-270.5 107.5q-199 0 -313.5 -106.5t-153.5 -330.5q-39 -222 37.5 -329
t275.5 -107zM432 -379l31 178h178l-31 -178h-178z" />
    <glyph glyph-name="Ograve.aalt" horiz-adv-x="1357" 
d="M618 1546h164l80 -311h-112zM588 -27q-242 0 -363 154t-75 406q45 251 219 405q173 154 415 154q239 0 357 -154q119 -155 74 -405q-46 -252 -217 -406q-172 -154 -410 -154zM608 96q383 0 461 436q39 222 -36.5 329.5t-270.5 107.5q-199 0 -313.5 -106.5t-153.5 -330.5
q-39 -222 37.5 -329t275.5 -107z" />
    <glyph glyph-name="Ohungarumlaut.aalt" horiz-adv-x="1357" 
d="M635 1235l168 311h135l-193 -311h-110zM866 1235l187 311h164l-240 -311h-111zM588 -27q-242 0 -363 154t-75 406q45 251 219 405q173 154 415 154q239 0 357 -154q119 -155 74 -405q-46 -252 -217 -406q-172 -154 -410 -154zM608 96q383 0 461 436q39 222 -36.5 329.5
t-270.5 107.5q-199 0 -313.5 -106.5t-153.5 -330.5q-39 -222 37.5 -329t275.5 -107z" />
    <glyph glyph-name="Omacron.aalt" horiz-adv-x="1357" 
d="M565 1452h559l-20 -113h-557zM588 -27q-242 0 -363 154t-75 406q45 251 219 405q173 154 415 154q239 0 357 -154q119 -155 74 -405q-46 -252 -217 -406q-172 -154 -410 -154zM608 96q383 0 461 436q39 222 -36.5 329.5t-270.5 107.5q-199 0 -313.5 -106.5t-153.5 -330.5
q-39 -222 37.5 -329t275.5 -107z" />
    <glyph glyph-name="uni01EA.aalt" horiz-adv-x="1357" 
d="M784 1092q239 0 357 -154q119 -155 73 -406q-34 -199 -153 -340t-291 -192l-197 -205q-50 -50 -55 -86q-4 -29 11 -40t57 -11h147l-16 -88h-185q-74 0 -110.5 31.5t-28.5 87.5q17 67 82 123l176 163q-26 -2 -63 -2q-242 0 -363 154t-75 406q45 251 219 405
q172 154 415 154zM1069 532q39 222 -36.5 329.5t-270.5 107.5q-199 0 -313.5 -106.5t-153.5 -330.5q-39 -221 38 -328.5t275 -107.5q383 0 461 436z" />
    <glyph glyph-name="Oslash.aalt" horiz-adv-x="1357" 
d="M1223 1208h145l-238 -258q129 -156 84 -418q-45 -253 -217 -405q-172 -154 -409 -154q-169 0 -285 80l-180 -196h-146l248 270q-121 157 -75 405q45 251 219 406q173 154 415 154q157 0 267 -70zM295 532q-35 -203 24 -305l644 699q-76 43 -201 43q-199 0 -313.5 -107
t-153.5 -330zM1069 532q37 212 -31 320l-647 -705q78 -51 217 -51q383 0 461 436z" />
    <glyph glyph-name="Oslashacute.aalt" horiz-adv-x="1357" 
d="M924 1546h163l-237 -311h-113zM1223 1208h145l-238 -258q129 -156 84 -418q-45 -253 -217 -405q-172 -154 -409 -154q-169 0 -285 80l-180 -196h-146l248 270q-121 157 -75 405q45 251 219 406q173 154 415 154q157 0 267 -70zM295 532q-35 -203 24 -305l644 699
q-76 43 -201 43q-199 0 -313.5 -107t-153.5 -330zM1069 532q37 212 -31 320l-647 -705q78 -51 217 -51q383 0 461 436z" />
    <glyph glyph-name="Otilde.aalt" horiz-adv-x="1357" 
d="M967 1266q-74 0 -152 66q-79 65 -137 65q-111 0 -133 -127h-92q20 111 86.5 176t160.5 65q71 0 150 -65q78 -66 137 -66q113 0 131 127h92q-20 -111 -85.5 -176t-157.5 -65zM588 -27q-242 0 -363 154t-75 406q45 251 219 405q173 154 415 154q239 0 357 -154
q119 -155 74 -405q-46 -252 -217 -406q-172 -154 -410 -154zM608 96q383 0 461 436q39 222 -36.5 329.5t-270.5 107.5q-199 0 -313.5 -106.5t-153.5 -330.5q-39 -222 37.5 -329t275.5 -107z" />
    <glyph glyph-name="OE.aalt" horiz-adv-x="1796" 
d="M1786 1071l-23 -117h-565l-63 -352h544l-20 -117h-545l-65 -368h571l-21 -117h-1011q-241 0 -359 148q-120 147 -79 389q44 241 215 387q173 147 411 147h1010zM623 117h288l148 837h-289q-204 0 -320 -102t-155 -315q-37 -213 43.5 -316.5t284.5 -103.5z" />
    <glyph glyph-name="P.aalt" horiz-adv-x="1089" 
d="M336 1071h469q149 0 226 -90q75 -91 50 -236q-28 -147 -142 -236q-115 -89 -273 -89h-310l-73 -420h-138zM934 745q20 109 -25 159t-164 50h-292l-74 -415h293q120 0 182 48.5t80 157.5z" />
    <glyph glyph-name="Thorn.aalt" horiz-adv-x="1069" 
d="M434 860h334q150 0 227 -87q76 -86 50 -230q-27 -144 -139 -231t-275 -87h-309l-39 -225h-138l191 1075h137zM819 390q61 48 81 153q18 104 -27 151q-47 47 -164 47h-295l-70 -399h293q119 0 182 48z" />
    <glyph glyph-name="Q.aalt" horiz-adv-x="1357" 
d="M1214 532q-44 -241 -202 -393l153 -186l-92 -82l-158 195q-150 -91 -329 -93q-242 0 -362 154q-120 155 -74 406q45 250 218 405q172 154 414 154q238 0 358 -154q119 -155 74 -406zM295 532q-39 -221 38 -328.5t275 -107.5q138 0 238 56l-139 165l94 80l137 -170
q93 105 131 305q39 222 -36.5 329.5t-270.5 107.5q-199 0 -313.5 -107t-153.5 -330z" />
    <glyph glyph-name="R.aalt" horiz-adv-x="1204" 
d="M1096 754q-20 -111 -94.5 -189t-188.5 -108l68 -105l198 -352h-164l-241 440h-314l-77 -440h-138l191 1071h481q153 0 229 -87q77 -88 50 -230zM870 601q62 48 81 153q18 104 -27 152t-164 48h-307l-72 -401h307q119 0 182 48z" />
    <glyph glyph-name="Racute.aalt" horiz-adv-x="1204" 
d="M866 1546h164l-237 -311h-113zM1096 754q-20 -111 -94.5 -189t-188.5 -108l68 -105l198 -352h-164l-241 440h-314l-77 -440h-138l191 1071h481q153 0 229 -87q77 -88 50 -230zM870 601q62 48 81 153q18 104 -27 152t-164 48h-307l-72 -401h307q119 0 182 48z" />
    <glyph glyph-name="Rcaron.aalt" horiz-adv-x="1204" 
d="M831 1235h-192l-154 311h136l122 -264l215 264h136zM1096 754q-20 -111 -94.5 -189t-188.5 -108l68 -105l198 -352h-164l-241 440h-314l-77 -440h-138l191 1071h481q153 0 229 -87q77 -88 50 -230zM870 601q62 48 81 153q18 104 -27 152t-164 48h-307l-72 -401h307
q119 0 182 48z" />
    <glyph glyph-name="uni0156.aalt" horiz-adv-x="1204" 
d="M1096 754q-20 -111 -94.5 -189t-188.5 -108l68 -105l198 -352h-164l-241 440h-314l-77 -440h-138l191 1071h481q153 0 229 -87q77 -88 50 -230zM870 601q62 48 81 153q18 104 -27 152t-164 48h-307l-72 -401h307q119 0 182 48zM510 -367l-86 48l18 118h181l-25 -143
q-18 -99 -86 -156t-168 -57l14 72q131 0 152 118z" />
    <glyph glyph-name="S.aalt" horiz-adv-x="1163" 
d="M104 334h146q-23 -125 43.5 -183.5t232.5 -58.5q302 0 330 172q13 88 -47 134q-62 47 -260 87q-212 43 -289 111q-76 67 -53 184q25 139 156 226q131 86 319 86q195 0 297 -99q102 -101 74 -264h-146q23 126 -37 185t-211 59q-283 0 -313 -178q-14 -80 48 -121
q63 -42 251 -80q215 -44 294 -118t56 -200q-26 -138 -160 -220q-136 -83 -329 -83q-212 0 -321 100q-109 99 -81 261z" />
    <glyph glyph-name="Sacute.aalt" horiz-adv-x="1163" 
d="M641 1235l186 311h164l-237 -311h-113zM104 334h146q-23 -125 43.5 -183.5t232.5 -58.5q302 0 330 172q13 88 -47 134q-62 47 -260 87q-212 43 -289 111q-76 67 -53 184q25 139 156 226q131 86 319 86q195 0 297 -99q102 -101 74 -264h-146q23 126 -37 185t-211 59
q-283 0 -313 -178q-14 -80 48 -121q63 -42 251 -80q215 -44 294 -118t56 -200q-26 -138 -160 -220q-136 -83 -329 -83q-212 0 -321 100q-109 99 -81 261z" />
    <glyph glyph-name="Scaron.aalt" horiz-adv-x="1163" 
d="M793 1235h-193l-154 311h136l123 -264l215 264h135zM1053 729h-146q23 126 -37 185t-211 59q-283 0 -313 -178q-14 -80 48 -121q63 -42 251 -80q215 -44 294 -118t56 -200q-26 -138 -160 -220q-136 -83 -329 -83q-211 0 -320 100q-110 100 -82 261h146
q-23 -125 43.5 -183.5t232.5 -58.5q302 0 330 172q13 88 -47 134q-62 47 -260 87q-212 43 -289 111q-76 67 -53 184q25 139 156 226q131 86 319 86q194 0 298 -99q102 -100 73 -264z" />
    <glyph glyph-name="Scedilla.c2sc" horiz-adv-x="1163" 
d="M1053 729h-146q23 126 -37 185t-211 59q-283 0 -313 -178q-14 -80 48 -121q63 -42 251 -80q215 -44 294 -118t56 -200q-26 -134 -152 -216q-127 -82 -317 -87l-51 -102h68q78 0 117.5 -40.5t27.5 -106.5q-12 -69 -70.5 -111.5t-140.5 -42.5h-164l17 88h147q80 0 92 68
q8 35 -9 51t-60 16h-129l12 70l61 112q-184 17 -274 113q-92 96 -66 246h146q-23 -125 43.5 -183.5t232.5 -58.5q302 0 330 172q13 88 -47 134q-62 47 -260 87q-212 43 -289 111q-76 67 -53 184q25 139 156 226q131 86 319 86q194 0 298 -99q102 -100 73 -264z" />
    <glyph glyph-name="Scircumflex.aalt" horiz-adv-x="1163" 
d="M872 1235l-120 264l-217 -264h-136l263 311h190l156 -311h-136zM1053 729h-146q23 126 -37 185t-211 59q-283 0 -313 -178q-14 -80 48 -121q63 -42 251 -80q215 -44 294 -118t56 -200q-26 -138 -160 -220q-136 -83 -329 -83q-211 0 -320 100q-110 100 -82 261h146
q-23 -125 43.5 -183.5t232.5 -58.5q302 0 330 172q13 88 -47 134q-62 47 -260 87q-212 43 -289 111q-76 67 -53 184q25 139 156 226q131 86 319 86q194 0 298 -99q102 -100 73 -264z" />
    <glyph glyph-name="uni0218.aalt" horiz-adv-x="1163" 
d="M104 334h146q-23 -125 43.5 -183.5t232.5 -58.5q302 0 330 172q13 88 -47 134q-62 47 -260 87q-212 43 -289 111q-76 67 -53 184q25 139 156 226q131 86 319 86q195 0 297 -99q102 -101 74 -264h-146q23 126 -37 185t-211 59q-283 0 -313 -178q-14 -80 48 -121
q63 -42 251 -80q215 -44 294 -118t56 -200q-26 -138 -160 -220q-136 -83 -329 -83q-212 0 -321 100q-109 99 -81 261zM348 -319l19 118h180l-25 -143q-18 -100 -85.5 -156.5t-168.5 -56.5l15 72q132 0 151 118z" />
    <glyph glyph-name="T.aalt" horiz-adv-x="1009" 
d="M117 1071h970l-20 -117h-416l-170 -954h-137l168 954h-418z" />
    <glyph glyph-name="Tbar.aalt" horiz-adv-x="1009" 
d="M1087 1071l-20 -117h-416l-71 -401h301l-19 -102h-301l-80 -451h-137l80 451h-309l18 102h307l72 401h-418l23 117h970z" />
    <glyph glyph-name="Tcaron.aalt" horiz-adv-x="1009" 
d="M725 1235h-193l-153 311h135l123 -264l215 264h135zM117 1071h970l-20 -117h-416l-170 -954h-137l168 954h-418z" />
    <glyph glyph-name="uni0162.c2sc" horiz-adv-x="1009" 
d="M651 954l-170 -954h-24l-64 -129h68q78 0 117.5 -40.5t27.5 -106.5q-12 -69 -70.5 -111.5t-140.5 -42.5h-164l17 88h147q80 0 92 68q8 35 -9 51t-60 16h-129l12 70l76 137h-33l168 954h-418l23 117h970l-20 -117h-416z" />
    <glyph glyph-name="uni021A.aalt" horiz-adv-x="1009" 
d="M117 1071h970l-20 -117h-416l-170 -954h-137l168 954h-418zM352 -367l-86 48l19 118h180l-25 -143q-18 -100 -85.5 -156.5t-168.5 -56.5l15 72q132 0 151 118z" />
    <glyph glyph-name="U.aalt" horiz-adv-x="1298" 
d="M176 387l119 688h139l-119 -682q-29 -152 35 -224.5t226 -72.5q160 0 248.5 72.5t115.5 224.5l119 682h139l-121 -688q-33 -186 -177 -300t-347 -114t-306 114q-104 114 -71 300z" />
    <glyph glyph-name="Uacute.aalt" horiz-adv-x="1298" 
d="M717 1235l186 311h164l-238 -311h-112zM176 387l119 688h139l-119 -682q-29 -152 35 -224.5t226 -72.5q160 0 248.5 72.5t115.5 224.5l119 682h139l-121 -688q-33 -186 -177 -300t-347 -114t-306 114q-104 114 -71 300z" />
    <glyph glyph-name="Ubreve.aalt" horiz-adv-x="1298" 
d="M999 1546h117q-27 -144 -121 -230q-95 -87 -221 -87t-191 87q-65 88 -38 230h117q-20 -115 10.5 -168t118.5 -53t138 53.5t70 167.5zM176 387l119 688h139l-119 -682q-29 -152 35 -224.5t226 -72.5q160 0 248.5 72.5t115.5 224.5l119 682h139l-121 -688
q-33 -186 -177 -300t-347 -114t-306 114q-104 114 -71 300z" />
    <glyph glyph-name="Ucircumflex.aalt" horiz-adv-x="1298" 
d="M948 1235l-121 264l-217 -264h-135l262 311h191l155 -311h-135zM940 393l119 682h139l-121 -688q-33 -186 -177 -300t-347 -114t-306 114q-104 114 -71 300l119 688h139l-119 -682q-29 -152 35 -224.5t226 -72.5q160 0 248.5 72.5t115.5 224.5z" />
    <glyph glyph-name="Udieresis.aalt" horiz-adv-x="1298" 
d="M537 1296l32 187h176l-32 -187h-176zM862 1296l33 187h176l-33 -187h-176zM176 387l119 688h139l-119 -682q-29 -152 35 -224.5t226 -72.5q160 0 248.5 72.5t115.5 224.5l119 682h139l-121 -688q-33 -186 -177 -300t-347 -114t-306 114q-104 114 -71 300z" />
    <glyph glyph-name="uni1EE4.aalt" horiz-adv-x="1298" 
d="M176 387l119 688h139l-119 -682q-29 -152 35 -224.5t226 -72.5q160 0 248.5 72.5t115.5 224.5l119 682h139l-121 -688q-33 -186 -177 -300t-347 -114t-306 114q-104 114 -71 300zM401 -379l31 178h178l-30 -178h-179z" />
    <glyph glyph-name="Ugrave.aalt" horiz-adv-x="1298" 
d="M588 1546h164l79 -311h-112zM176 387l119 688h139l-119 -682q-29 -152 35 -224.5t226 -72.5q160 0 248.5 72.5t115.5 224.5l119 682h139l-121 -688q-33 -186 -177 -300t-347 -114t-306 114q-104 114 -71 300z" />
    <glyph glyph-name="Uhungarumlaut.aalt" horiz-adv-x="1298" 
d="M604 1235l168 311h135l-192 -311h-111zM836 1235l186 311h164l-240 -311h-110zM176 387l119 688h139l-119 -682q-29 -152 35 -224.5t226 -72.5q160 0 248.5 72.5t115.5 224.5l119 682h139l-121 -688q-33 -186 -177 -300t-347 -114t-306 114q-104 114 -71 300z" />
    <glyph glyph-name="Umacron.aalt" horiz-adv-x="1298" 
d="M535 1452h559l-21 -113h-557zM176 387l119 688h139l-119 -682q-29 -152 35 -224.5t226 -72.5q160 0 248.5 72.5t115.5 224.5l119 682h139l-121 -688q-33 -186 -177 -300t-347 -114t-306 114q-104 114 -71 300z" />
    <glyph glyph-name="Uogonek.aalt" horiz-adv-x="1298" 
d="M940 393l119 682h139l-121 -688q-25 -143 -120 -246q-96 -105 -236 -145l-193 -201q-50 -50 -55 -86q-4 -29 11 -40t57 -11h147l-16 -88h-185q-74 0 -110.5 31.5t-28.5 87.5q17 67 82 123l174 163q-22 -2 -51 -2q-203 0 -306 114q-104 114 -71 300l119 688h139l-119 -682
q-29 -152 35 -224.5t226 -72.5q160 0 248.5 72.5t115.5 224.5z" />
    <glyph glyph-name="Uring.aalt" horiz-adv-x="1298" 
d="M914 1274q-58 -45 -140 -45t-124 45t-27 117q12 74 69 117.5t139 43.5q80 0 122 -44t30 -117q-12 -72 -69 -117zM712 1319q20 -21 75 -21t83 22q27 21 35 71q10 49 -10.5 70.5t-75.5 21.5q-102 0 -119 -92q-8 -51 12 -72zM176 387l119 688h139l-119 -682
q-29 -152 35 -224.5t226 -72.5q160 0 248.5 72.5t115.5 224.5l119 682h139l-121 -688q-33 -186 -177 -300t-347 -114t-306 114q-104 114 -71 300z" />
    <glyph glyph-name="Utilde.aalt" horiz-adv-x="1298" 
d="M936 1266q-74 0 -151 66q-79 65 -138 65q-111 0 -133 -127h-92q20 111 86.5 176t161.5 65q71 0 150 -65q76 -66 136 -66q113 0 131 127h93q-20 -111 -86 -176t-158 -65zM176 387l119 688h139l-119 -682q-29 -152 35 -224.5t226 -72.5q160 0 248.5 72.5t115.5 224.5
l119 682h139l-121 -688q-33 -186 -177 -300t-347 -114t-306 114q-104 114 -71 300z" />
    <glyph glyph-name="V.aalt" horiz-adv-x="1105" 
d="M578 242l471 829h141l-602 -1071h-248l-229 1071h147l180 -829l37 -193z" />
    <glyph glyph-name="W.aalt" horiz-adv-x="1761" 
d="M1292 238l406 833h137l-518 -1071h-230l-96 829l-14 201l-84 -201l-391 -829h-232l-139 1071h141l109 -833l18 -185l80 185l391 833h230l96 -833l14 -183z" />
    <glyph glyph-name="Wacute.aalt" horiz-adv-x="1761" 
d="M1139 1546h164l-238 -311h-113zM1292 238l406 833h137l-518 -1071h-230l-96 829l-14 201l-84 -201l-391 -829h-232l-139 1071h141l109 -833l18 -185l80 185l391 833h230l96 -833l14 -183z" />
    <glyph glyph-name="Wcircumflex.aalt" horiz-adv-x="1761" 
d="M1186 1235l-121 264l-217 -264h-135l262 311h190l156 -311h-135zM1292 238l406 833h137l-518 -1071h-230l-96 829l-14 201l-84 -201l-391 -829h-232l-139 1071h141l109 -833l18 -185l80 185l391 833h230l96 -833l14 -183z" />
    <glyph glyph-name="Wdieresis.aalt" horiz-adv-x="1761" 
d="M805 1483h176l-33 -187h-176zM1130 1483h177l-33 -187h-176zM1292 238l406 833h137l-518 -1071h-230l-96 829l-14 201l-84 -201l-391 -829h-232l-139 1071h141l109 -833l18 -185l80 185l391 833h230l96 -833l14 -183z" />
    <glyph glyph-name="Wgrave.aalt" horiz-adv-x="1761" 
d="M989 1546l80 -311h-113l-131 311h164zM1292 238l406 833h137l-518 -1071h-230l-96 829l-14 201l-84 -201l-391 -829h-232l-139 1071h141l109 -833l18 -185l80 185l391 833h230l96 -833l14 -183z" />
    <glyph glyph-name="X.aalt" horiz-adv-x="1202" 
d="M1083 1071h154l-494 -508l332 -563h-151l-316 535l-155 -173l-344 -362h-156l534 563l-313 508h154l196 -321l94 -164l152 162z" />
    <glyph glyph-name="Y.aalt" horiz-adv-x="1058" 
d="M1032 1071h142l-594 -715l-64 -356h-137l61 360l-340 711h146l205 -428l77 -190l146 190z" />
    <glyph glyph-name="Yacute.aalt" horiz-adv-x="1058" 
d="M788 1546h164l-237 -311h-113zM1032 1071h142l-594 -715l-64 -356h-137l61 360l-340 711h146l205 -428l77 -190l146 190z" />
    <glyph glyph-name="Ycircumflex.aalt" horiz-adv-x="1058" 
d="M834 1235l-121 264l-217 -264h-136l263 311h190l156 -311h-135zM1032 1071h142l-594 -715l-64 -356h-137l61 360l-340 711h146l205 -428l77 -190l146 190z" />
    </font>
</defs>
</svg>
