<?xml version="1.0" standalone="no"?>
<!DOCTYPE svg PUBLIC "-//W3C//DTD SVG 1.1//EN" "http://www.w3.org/Graphics/SVG/1.1/DTD/svg11.dtd" >
<svg xmlns="http://www.w3.org/2000/svg" xmlns:xlink="http://www.w3.org/1999/xlink" version="1.1">
<metadata>
Created by FontForge 20170731 at Fri Apr 12 15:38:41 2019
 By Aleksey,,,
Copyright (c) 2018 by Alexis Navarro Miranda. All rights reserved. Desktop use is strictly prohibited.
</metadata>
<defs>
<font id="MenaGrotesk-BlackItalic" horiz-adv-x="0" >
  <font-face 
    font-family="Mena Grotesk Black Italic"
    font-weight="900"
    font-style="italic"
    font-stretch="normal"
    units-per-em="2048"
    panose-1="0 0 10 0 0 0 0 0 0 0"
    ascent="1597"
    descent="-451"
    x-height="1065"
    cap-height="1454"
    bbox="-803 -645 2663.22 2140"
    underline-thickness="0"
    underline-position="0"
    unicode-range="U+0020-FB02"
  />
<missing-glyph horiz-adv-x="1402" 
d="M1233 682h186l-12 -61h-125q-37 -144 -121 -251.5t-203 -162.5l-36 -207h-58l37 207q-74 -59 -188 -119l-8 170h-103l-65 -170q-106 65 -148 121l-37 -209h-55l37 209q-209 113 -182 412h-125l12 61h186q-51 -295 119 -414l23 125q-63 95 -35 260q32 183 139 281l90 520
h608l-92 -524q68 -99 37 -277q-27 -161 -123 -258l-22 -127q213 118 264 414zM635 1407l188 -193l256 193h-444zM848 1188l190 -197l70 393zM528 995l258 193l-188 192zM946 1024l-133 137l-182 -137q80 23 162 23q84 0 153 -23zM666 328q338 0 395 325q29 166 -42 252
t-237 86q-338 0 -397 -338q-29 -159 43 -242t238 -83zM608 922l92 30l-6 -34l-92 -31zM924 887l-82 31l6 34l82 -30zM721 819q-11 -51 -64 -51q-25 0 -38 14.5t-9 36.5q10 56 66 58q24 0 36.5 -15.5t8.5 -42.5zM848 877q25 0 39 -16.5t10 -41.5q-11 -51 -68 -51
q-23 0 -35 14.5t-8 36.5q10 58 62 58zM823 696l-180 -20l8 39l178 20zM518 160l49 119q-97 17 -155 63l-13 -74q44 -64 119 -108zM911 266l13 76q-72 -46 -176 -63l8 -119q80 37 155 106zM647 207q29 0 23 -31q-5 -29 -33 -29q-34 0 -29 29q6 31 39 31zM627 94q27 0 24 -28
q-6 -31 -35 -31q-33 0 -26 31q1 28 37 28z" />
    <glyph glyph-name="uniFB01" unicode="fi" horiz-adv-x="1384" 
d="M690 1065h705l-189 -1065h-409l133 758h-295l-133 -758h-410l133 758h-194l55 307h195l24 143q32 171 172 275q142 104 340 104q110 0 170 -26l-51 -291h-105q-104 0 -124 -107zM1001 1217l58 329h430l-57 -329h-431z" />
    <glyph glyph-name="uniFB02" unicode="fl" horiz-adv-x="1507" 
d="M692 1065h248l-53 -307h-250l-133 -758h-410l133 758h-194l53 307h197l24 143q28 169 169 275q140 104 341 104q135 0 213 -26l-51 -291h-145q-105 0 -125 -107zM1520 1567l-207 -1164q-18 -106 88 -106h43l-51 -297q-97 -20 -201 -20q-164 0 -245 101q-81 100 -52 267
l215 1219h410z" />
    <glyph glyph-name="f_f.liga" unicode="ff" horiz-adv-x="1634" 
d="M1763 1270h-227q-104 0 -125 -107l-16 -98h331l-55 -307h-332l-133 -758h-409l133 758h-295l-133 -758h-410l135 758h-196l55 307h195l18 102q28 169 169 275q140 104 341 104q104 0 172 -20l-51 -297h-105q-105 0 -125 -107l-10 -57h295l25 143q32 171 172 275
q142 104 340 104q149 0 295 -20z" />
    <glyph glyph-name="f_f_i.liga" unicode="ffi" horiz-adv-x="2088" 
d="M1395 1065h704l-188 -1065h-410l133 758h-295l-133 -758h-409l133 758h-295l-133 -758h-410l135 758h-196l55 307h195l18 102q28 169 169 275q140 104 341 104q104 0 172 -20l-51 -297h-105q-105 0 -125 -107l-10 -57h295l25 143q32 171 172 275q142 104 340 104
q110 0 170 -26l-52 -291h-104q-104 0 -125 -107zM1706 1217l57 329h430l-57 -329h-430z" />
    <glyph glyph-name="f_f_l.liga" unicode="ffl" horiz-adv-x="2211" 
d="M1397 1065h248l-54 -307h-250l-133 -758h-409l133 758h-295l-133 -758h-410l133 758h-194l53 307h195l18 102q32 170 171 275q140 104 341 104q104 0 172 -20l-51 -297h-105q-106 0 -127 -107l-10 -57h297l25 143q28 169 169 275q140 104 341 104q134 0 213 -24l-52 -293
h-145q-105 0 -125 -107zM2224 1567l-207 -1164q-18 -106 88 -106h43l-51 -297q-97 -20 -201 -20q-162 0 -243 101q-83 101 -54 267l216 1219h409z" />
    <glyph glyph-name=".notdef" horiz-adv-x="1402" 
d="M1233 682h186l-12 -61h-125q-37 -144 -121 -251.5t-203 -162.5l-36 -207h-58l37 207q-74 -59 -188 -119l-8 170h-103l-65 -170q-106 65 -148 121l-37 -209h-55l37 209q-209 113 -182 412h-125l12 61h186q-51 -295 119 -414l23 125q-63 95 -35 260q32 183 139 281l90 520
h608l-92 -524q68 -99 37 -277q-27 -161 -123 -258l-22 -127q213 118 264 414zM635 1407l188 -193l256 193h-444zM848 1188l190 -197l70 393zM528 995l258 193l-188 192zM946 1024l-133 137l-182 -137q80 23 162 23q84 0 153 -23zM666 328q338 0 395 325q29 166 -42 252
t-237 86q-338 0 -397 -338q-29 -159 43 -242t238 -83zM608 922l92 30l-6 -34l-92 -31zM924 887l-82 31l6 34l82 -30zM721 819q-11 -51 -64 -51q-25 0 -38 14.5t-9 36.5q10 56 66 58q24 0 36.5 -15.5t8.5 -42.5zM848 877q25 0 39 -16.5t10 -41.5q-11 -51 -68 -51
q-23 0 -35 14.5t-8 36.5q10 58 62 58zM823 696l-180 -20l8 39l178 20zM518 160l49 119q-97 17 -155 63l-13 -74q44 -64 119 -108zM911 266l13 76q-72 -46 -176 -63l8 -119q80 37 155 106zM647 207q29 0 23 -31q-5 -29 -33 -29q-34 0 -29 29q6 31 39 31zM627 94q27 0 24 -28
q-6 -31 -35 -31q-33 0 -26 31q1 28 37 28z" />
    <glyph glyph-name="glyph1" 
 />
    <glyph glyph-name="glyph2" horiz-adv-x="681" 
 />
    <glyph glyph-name="space" unicode=" " horiz-adv-x="409" 
 />
    <glyph glyph-name="exclam" unicode="!" horiz-adv-x="634" 
d="M268 1454h420l-67 -391l-150 -510h-301l31 510zM8 0l72 410h430l-72 -410h-430z" />
    <glyph glyph-name="quotedbl" unicode="&#x22;" horiz-adv-x="942" 
d="M178 905l55 549h349l-138 -549h-266zM629 905l55 549h348l-137 -549h-266z" />
    <glyph glyph-name="numbersign" unicode="#" horiz-adv-x="1628" 
d="M1649 1147l-41 -236h-289l-98 -368h258l-41 -236h-281l-82 -307h-266l82 307h-299l-82 -307h-266l82 307h-303l40 236h326l98 368h-294l40 236h318l82 307h266l-82 -307h299l82 307h266l-82 -307h267zM655 543h299l99 368h-299z" />
    <glyph glyph-name="dollar" unicode="$" horiz-adv-x="1445" 
d="M1454 989h-430q14 84 -30 121t-156 37q-207 0 -222 -90q-8 -47 46 -75q50 -27 221 -56q317 -52 430 -166q113 -113 78 -314q-32 -176 -181 -297q-153 -123 -383 -163l-30 -170h-353l29 164q-241 33 -359 163q-120 128 -85 322h430q-14 -82 39.5 -120t185.5 -38
q226 0 246 86q6 32 -4 49q-10 16 -72 39q-65 22 -188 41q-310 51 -429 162q-118 110 -83 311q33 186 190 315q158 129 391 163l27 145h352l-27 -152q200 -40 301 -168q99 -128 66 -309z" />
    <glyph glyph-name="percent" unicode="%" horiz-adv-x="1581" 
d="M764 846q-127 -103 -303 -103t-266 103q-91 101 -62 268q28 165 155 269q126 102 302 102t267 -102q91 -103 63 -269t-156 -268zM1290 1454h420l-465 -678h-379zM417 1016q27 -37 85 -37t99 37q43 38 53 99q10 60 -19 98q-29 36 -86 36t-98 -36q-41 -38 -51 -98
q-11 -63 17 -99zM1360 72q-127 -103 -303 -103t-266 103q-91 101 -62 268q28 165 156 269q127 102 303 102t266 -102q90 -104 62 -269q-28 -166 -156 -268zM418 678h379l-422 -678h-420zM1013 242q27 -37 85 -37t99 37q43 38 53 98q10 61 -18 98t-85 37q-58 0 -99 -37
q-42 -37 -52 -98q-11 -62 17 -98z" />
    <glyph glyph-name="ampersand" unicode="&#x26;" horiz-adv-x="1517" 
d="M1274 274l252 -274h-504l-53 57q-198 -88 -400 -88q-301 0 -463 117q-163 116 -131 309q41 236 363 344q-76 89 -102 162q-27 73 -9 174q35 185 207 297q173 113 424 113q257 0 394 -112q137 -113 104 -298q-44 -252 -473 -375l182 -196q35 81 53 190h379
q-39 -230 -223 -420zM655 1057q-14 -72 80 -189q188 66 209 189q10 63 -20.5 92t-110.5 29q-71 0 -107.5 -28.5t-50.5 -92.5zM623 276q79 0 135 9l-258 280q-72 -47 -86 -121q-16 -88 34 -128t175 -40z" />
    <glyph glyph-name="quotesingle" unicode="'" horiz-adv-x="491" 
d="M178 905l55 549h349l-138 -549h-266z" />
    <glyph glyph-name="parenleft" unicode="(" horiz-adv-x="724" 
d="M496 1567h370q-253 -478 -344 -983q-88 -491 -2 -983h-370q-143 489 -58 983q88 498 404 983z" />
    <glyph glyph-name="parenright" unicode=")" horiz-adv-x="724" 
d="M248 -399h-371q257 481 346 983q85 496 0 983h371q147 -499 59 -983q-90 -500 -405 -983z" />
    <glyph glyph-name="asterisk" unicode="*" horiz-adv-x="667" 
d="M602 1485l-151 -287l-50 287h201zM334 1456l117 -258l-269 100zM756 1298l-305 -100l206 258zM154 1233l297 -35l-287 -160zM680 1038l-229 160l309 35zM197 983l254 215l-89 -301zM432 897l19 301l176 -215z" />
    <glyph glyph-name="plus" unicode="+" horiz-adv-x="1042" 
d="M682 684h315l-47 -266h-315l-55 -316l-267 -2l56 318h-318l47 266h318l55 315h266z" />
    <glyph glyph-name="comma" unicode="," horiz-adv-x="632" 
d="M27 66l61 344h430l-74 -410q-32 -175 -175 -281t-349 -106l31 174q129 0 196.5 46t85.5 147z" />
    <glyph glyph-name="hyphen" unicode="-" horiz-adv-x="708" 
d="M76 676h606l-53 -307h-606z" />
    <glyph glyph-name="period" unicode="." horiz-adv-x="614" 
d="M-2 0l72 410h430l-72 -410h-430z" />
    <glyph glyph-name="slash" unicode="/" horiz-adv-x="645" 
d="M-154 -399l695 1966h276l-694 -1966h-277z" />
    <glyph glyph-name="zero" unicode="0" horiz-adv-x="1523" 
d="M1209 178q-230 -209 -545 -209q-316 0 -471 209q-156 208 -96 549q59 341 288 549q230 209 545 209t471 -209q155 -208 96 -549t-288 -549zM556 438q44 -90 175 -90t206 90q76 91 110 289q34 199 -9 289q-44 90 -174 90q-131 0 -206 -90q-77 -90 -111 -289t9 -289z" />
    <glyph glyph-name="one" unicode="1" horiz-adv-x="1089" 
d="M444 1454h695l-256 -1454h-441l133 754l95 465l-267 -226l-337 -262l88 498z" />
    <glyph glyph-name="two" unicode="2" horiz-adv-x="1269" 
d="M1118 0h-1151l111 625l627 184q71 20 106 62.5t47 119.5q14 78 -12.5 115t-97.5 37q-74 0 -117 -51.5t-64 -163.5h-430q45 249 234 404q187 153 454 153q259 0 387 -135q127 -136 88 -357q-28 -155 -139 -270q-109 -115 -282 -166l-369 -108l-291 -78l295 8h672z" />
    <glyph glyph-name="three" unicode="3" horiz-adv-x="1314" 
d="M1323 1098q-24 -127 -142.5 -203t-326.5 -90q226 -24 326.5 -127t70.5 -268q-34 -198 -227 -320q-193 -121 -473 -121q-274 0 -415 149q-142 148 -99 392h430q-18 -104 15.5 -151.5t123.5 -47.5q92 0 139.5 35t63.5 113q10 53 -23.5 84.5t-107.5 31.5h-178l51 287h178
q98 0 129 154q12 66 -15.5 96.5t-98.5 30.5q-72 0 -113 -47t-60 -150h-430q43 244 230 392q186 147 450 147q256 0 395 -106q139 -107 107 -281z" />
    <glyph glyph-name="four" unicode="4" horiz-adv-x="1341" 
d="M608 233h-608l127 723l399 498h738l-156 -883h199l-60 -338h-198l-41 -233h-441zM813 1343l-627 -778l263 6h219l65 375z" />
    <glyph glyph-name="five" unicode="5" horiz-adv-x="1314" 
d="M1274 1075h-445l-229 4l-94 -401q155 266 422 266q181 0 273 -125q91 -125 54 -330q-41 -233 -235 -376q-195 -144 -469 -144q-275 0 -417 147q-142 146 -99 384h430q-18 -99 15.5 -144t125.5 -45q178 0 207 168q14 88 -20.5 128t-126.5 40q-98 0 -185 -72h-381l207 879
h1034z" />
    <glyph glyph-name="six" unicode="6" horiz-adv-x="1437" 
d="M1438 1001h-410q12 75 -24 108.5t-134 33.5q-131 0 -209.5 -102t-117.5 -324l-15 -86q58 132 184 211q124 78 277 78q211 0 319 -117q106 -117 72 -307q-40 -238 -234 -382q-193 -145 -474 -145q-346 0 -493.5 191.5t-84.5 556.5q61 346 293 557q230 211 551 211
q266 0 403 -132q136 -133 97 -352zM754 616q-209 0 -236 -151q-14 -80 29 -117t151 -37q106 0 159.5 36t68.5 118q14 80 -26 115.5t-146 35.5z" />
    <glyph glyph-name="seven" unicode="7" horiz-adv-x="1179" 
d="M203 1454h1097l-63 -367l-55 -309q-205 -52 -379 -267t-225 -511h-461q63 358 320 654q127 146 314 261q186 113 408 170l-403 -10h-619z" />
    <glyph glyph-name="eight" unicode="8" horiz-adv-x="1486" 
d="M1464 1075q-47 -260 -399 -332q184 -39 266 -133.5t55 -238.5q-33 -180 -236 -291q-204 -111 -507 -111t-468 111q-165 110 -132 291q52 295 451 372q-330 72 -283 332q33 185 225 297q191 113 474 113q281 0 435 -113q152 -113 119 -297zM705 1125q-52 -37 -66 -121
q-14 -85 23 -122q36 -38 135 -38q97 0 149 38q51 37 66 122q14 84 -23 121q-38 38 -135 38t-149 -38zM961 455q14 86 -34 124.5t-169 38.5t-182.5 -38.5t-77.5 -124.5q-14 -86 34 -125t169 -39q120 0 182 39t78 125z" />
    <glyph glyph-name="nine" unicode="9" horiz-adv-x="1437" 
d="M836 1485q346 0 493.5 -191.5t83.5 -556.5q-61 -346 -292 -557q-232 -211 -552 -211q-263 0 -400 132q-136 132 -97 352h409q-14 -75 22 -108.5t134 -33.5q132 0 210.5 102t117.5 324l14 82q-58 -130 -182 -207t-277 -77q-212 0 -318 117q-108 116 -75 306
q40 236 235 383q194 144 474 144zM756 838q210 0 235 151q14 80 -29.5 117t-152.5 37q-106 0 -158.5 -36t-66.5 -118q-14 -80 26 -115.5t146 -35.5z" />
    <glyph glyph-name="colon" unicode=":" horiz-adv-x="614" 
d="M113 645l71 410h430l-71 -410h-430zM-2 0l72 410h430l-72 -410h-430z" />
    <glyph glyph-name="semicolon" unicode=";" horiz-adv-x="632" 
d="M129 645l72 410h430l-72 -410h-430zM27 66l61 344h430l-74 -410q-32 -175 -175 -281t-349 -106l31 174q129 0 196.5 46t85.5 147z" />
    <glyph glyph-name="less" unicode="&#x3c;" horiz-adv-x="919" 
d="M764 66l-729 253l82 463l819 254l-51 -284l-764 -201l694 -201z" />
    <glyph glyph-name="equal" unicode="=" horiz-adv-x="1042" 
d="M141 930h899l-47 -266h-899zM55 438h899l-47 -266h-899z" />
    <glyph glyph-name="greater" unicode="&#x3e;" horiz-adv-x="917" 
d="M809 319l-819 -253l51 284l764 201l-694 201l51 284l729 -254z" />
    <glyph glyph-name="question" unicode="?" horiz-adv-x="1150" 
d="M748 1485q244 0 372 -116q127 -115 94 -302q-53 -291 -469 -401l-57 -15l-33 -139h-286l39 274l215 64q112 32 150 62q39 29 50 89q14 88 -16.5 127t-114.5 39q-100 0 -154.5 -52t-74.5 -167h-369q40 242 222 390q180 147 432 147zM637 0h-430l72 410h430z" />
    <glyph glyph-name="at" unicode="@" horiz-adv-x="2088" 
d="M454 1223q316 262 759 262q442 0 669 -245t156 -646q-57 -324 -201 -474q-145 -151 -344 -151q-171 0 -251.5 77.5t-65.5 227.5q-69 -144 -176.5 -224.5t-233.5 -80.5q-187 0 -276 155q-89 156 -43 409q45 253 186 408t330 155q128 0 209 -75.5t100 -211.5l37 215h393
l-111 -633q-14 -74 0 -99.5t64 -23.5q59 2 101 69q41 65 73 236q61 352 -106 537.5t-543 185.5q-374 0 -607 -195q-233 -197 -299 -569q-66 -370 98 -567q163 -196 537 -196q292 0 516 143l-41 -225q-229 -105 -507 -107q-443 0 -666 262q-225 263 -149 691q75 427 392 690z
M991 281q90 0 141.5 60t73.5 191q23 132 -7 192t-118 60q-90 0 -141 -60t-74 -192t7 -191.5t118 -59.5z" />
    <glyph glyph-name="A" unicode="A" horiz-adv-x="1660" 
d="M1567 0h-461l-35 301h-553l-141 -301h-451l686 1454h781zM836 983l-164 -350h362l-39 350l-22 328z" />
    <glyph glyph-name="B" unicode="B" horiz-adv-x="1495" 
d="M1518 1124q-23 -129 -118 -208.5t-251 -102.5q172 -41 246.5 -145.5t46.5 -259.5q-33 -183 -174 -295q-143 -113 -340 -113h-910l256 1454h856q200 0 307 -91q108 -92 81 -239zM901 1116h-246l-43 -246h246q86 0 130 29t56 94q10 64 -24 93.5t-119 29.5zM981 467
q12 68 -20.5 97.5t-118.5 29.5h-279l-45 -256h279q165 0 184 129z" />
    <glyph glyph-name="C" unicode="C" horiz-adv-x="1540" 
d="M204 178q-167 209 -107 549q59 341 300 549q241 209 574 209q307 0 466 -166q157 -166 111 -436h-430q20 117 -31 170t-182 53q-152 0 -237.5 -90t-120.5 -289q-35 -201 18 -292t205 -91q133 0 201.5 47t89.5 154h430q-45 -261 -262 -418q-218 -158 -524 -158
q-334 0 -501 209z" />
    <glyph glyph-name="D" unicode="D" horiz-adv-x="1595" 
d="M274 1454h670q338 0 510 -199t115 -528q-58 -327 -300 -527q-244 -200 -581 -200h-670zM1118 727q61 358 -254 358h-215l-127 -727h215q315 0 381 369z" />
    <glyph glyph-name="E" unicode="E" horiz-adv-x="1316" 
d="M1405 1454l-66 -369h-690l-33 -190h660l-57 -328h-660l-35 -198h693l-66 -369h-1133l256 1454h1131z" />
    <glyph glyph-name="F" unicode="F" horiz-adv-x="1263" 
d="M1384 1454l-65 -369h-670l-35 -202h650l-58 -328h-649l-98 -555h-441l256 1454h1110z" />
    <glyph glyph-name="G" unicode="G" horiz-adv-x="1607" 
d="M1591 903h-430q20 106 -36 154.5t-199 48.5q-164 0 -254 -90t-125 -289q-35 -205 22.5 -297t221.5 -92q139 0 211.5 44t95.5 144h-336l51 287h772l-143 -813h-389l67 381q-145 -412 -534 -412q-283 0 -418 199q-134 199 -76 539q63 355 309 566q247 212 590 212
q315 0 481 -160q165 -160 119 -422z" />
    <glyph glyph-name="H" unicode="H" horiz-adv-x="1648" 
d="M1163 915l94 539h441l-256 -1454h-441l97 547h-543l-96 -547h-441l256 1454h441l-94 -539h542z" />
    <glyph glyph-name="I" unicode="I" horiz-adv-x="665" 
d="M18 0l256 1454h441l-256 -1454h-441z" />
    <glyph glyph-name="J" unicode="J" horiz-adv-x="1341" 
d="M27 569h430q-20 -117 11.5 -169t123.5 -52t143 58t74 188l152 860h440l-164 -926q-45 -252 -240 -405q-196 -154 -473 -154q-272 0 -408 165q-136 164 -89 435z" />
    <glyph glyph-name="K" unicode="K" horiz-adv-x="1591" 
d="M1221 1454h503l-675 -715l479 -739h-547l-291 477l-108 207l-121 -684h-443l256 1454h443l-119 -678l180 209z" />
    <glyph glyph-name="L" unicode="L" horiz-adv-x="1245" 
d="M715 1454l-191 -1085h652l-66 -369h-1092l256 1454h441z" />
    <glyph glyph-name="M" unicode="M" horiz-adv-x="2127" 
d="M1430 1454h747l-256 -1454h-446l151 860l84 406l-453 -1266h-569l-10 1278l-62 -418l-151 -860h-447l256 1454h764l6 -801l-16 -381l117 381z" />
    <glyph glyph-name="N" unicode="N" horiz-adv-x="1736" 
d="M1237 799l115 655h434l-256 -1454h-770l-96 1276l-97 -621l-114 -655h-435l256 1454h775l96 -1253z" />
    <glyph glyph-name="O" unicode="O" horiz-adv-x="1646" 
d="M1314 178q-248 -209 -589 -209q-342 0 -515 209t-113 549q59 341 306 549q247 209 588 209q342 0 515 -209q172 -208 114 -549t-306 -549zM570 435q57 -91 221 -91q163 0 254 91q89 91 124 292q35 199 -22 289t-221 90t-254 -90t-125 -289q-35 -202 23 -292z" />
    <glyph glyph-name="P" unicode="P" horiz-adv-x="1398" 
d="M274 1454h797q213 0 318 -139q103 -139 63 -369q-39 -228 -192 -368q-155 -140 -367 -140h-356l-78 -438h-441zM1001 946q16 88 -15.5 129t-115.5 41h-215l-59 -340h215q84 0 129 40t61 130z" />
    <glyph glyph-name="Q" unicode="Q" horiz-adv-x="1605" 
d="M396 1276q242 209 575 209q334 0 501 -209q166 -207 107 -549q-45 -254 -215 -448l145 -154l-299 -254l-127 190q-181 -92 -381 -92q-334 0 -499 208q-166 207 -107 550q58 341 300 549zM667 1016q-86 -90 -120 -289t18 -289q53 -90 205 -90q34 0 78 4l-182 183l299 253
l135 -188q17 60 28 127q35 199 -18 289t-207 90q-152 0 -236 -90z" />
    <glyph glyph-name="R" unicode="R" horiz-adv-x="1449" 
d="M1493 997q-25 -141 -99.5 -249.5t-187.5 -169.5l97 -187l145 -391h-494l-186 510h-219l-90 -510h-441l256 1454h828q211 0 319 -125q107 -125 72 -332zM901 1116h-246l-53 -299h246q162 0 190 156q12 76 -20.5 109.5t-116.5 33.5z" />
    <glyph glyph-name="S" unicode="S" horiz-adv-x="1445" 
d="M1142 100q-212 -131 -519 -131t-471 137q-163 136 -123 359h430q-14 -82 39.5 -120t185.5 -38q226 0 246 86q6 32 -4 49q-10 16 -72 39q-65 22 -188 41q-310 51 -429 162q-118 110 -83 311q40 218 246 355q204 135 501 135q288 0 440 -136q152 -137 113 -360h-430
q14 84 -30 121t-156 37q-207 0 -222 -90q-8 -47 46 -75q50 -27 221 -56q317 -52 430 -166q113 -113 78 -314q-38 -216 -249 -346z" />
    <glyph glyph-name="T" unicode="T" horiz-adv-x="1372" 
d="M184 1454h1329l-65 -369h-444l-191 -1085h-440l190 1085h-444z" />
    <glyph glyph-name="U" unicode="U" horiz-adv-x="1558" 
d="M102 528l164 926h441l-156 -876q-23 -120 24 -175t173 -55q122 0 186.5 54.5t87.5 175.5l156 876h440l-164 -926q-45 -252 -257 -405q-211 -154 -517 -154t-464 154q-159 153 -114 405z" />
    <glyph glyph-name="V" unicode="V" horiz-adv-x="1556" 
d="M848 471l440 983h451l-666 -1454h-768l-153 1454h460l95 -983l18 -291z" />
    <glyph glyph-name="W" unicode="W" horiz-adv-x="2504" 
d="M1806 471l334 983h506l-553 -1454h-745l6 862l14 326l-102 -326l-297 -862h-746l-41 1454h506l-10 -983l-12 -268l79 268l328 983h682l-16 -983l-17 -268z" />
    <glyph glyph-name="X" unicode="X" horiz-adv-x="1652" 
d="M1294 1454h492l-533 -676l328 -778h-502l-151 369l-88 260l-183 -260l-280 -369h-494l588 762l-301 692h504l123 -297l90 -262l182 262z" />
    <glyph glyph-name="Y" unicode="Y" horiz-adv-x="1497" 
d="M1229 1454h461l-748 -1096l-63 -358h-441l64 354l-361 1100h482l129 -436l55 -262l145 262z" />
    <glyph glyph-name="Z" unicode="Z" horiz-adv-x="1400" 
d="M1235 0h-1237l119 674l1173 418l-305 -7h-786l65 369h1223l-117 -663l-1204 -431l319 9h815z" />
    <glyph glyph-name="bracketleft" unicode="[" horiz-adv-x="817" 
d="M958 1567l-57 -328l-295 4l-289 -1642h-409l346 1966h704zM375 -76l295 4l-58 -327h-295z" />
    <glyph glyph-name="backslash" unicode="\" horiz-adv-x="970" 
d="M193 1567h256l348 -1966h-256z" />
    <glyph glyph-name="bracketright" unicode="]" horiz-adv-x="817" 
d="M229 -76l289 1643h410l-346 -1966h-705l57 327zM461 1243l-295 -4l57 328h295z" />
    <glyph glyph-name="asciicircum" unicode="^" horiz-adv-x="993" 
d="M893 1454l119 -528h-295l-68 465l-231 -465h-297l307 528h465z" />
    <glyph glyph-name="underscore" unicode="_" horiz-adv-x="1185" 
d="M-37 -31h1063l-51 -286h-1063z" />
    <glyph glyph-name="grave" unicode="`" horiz-adv-x="530" 
d="M233 1567h357l6 -369h-281z" />
    <glyph glyph-name="a" unicode="a" horiz-adv-x="1187" 
d="M1133 287h2l-50 -287q-85 -20 -178 -20q-144 0 -213 50.5t-61 151.5q-64 -100 -166.5 -156.5t-226.5 -56.5q-139 0 -211 72q-71 71 -52 190q41 236 363 287q298 50 352 70l8 51q14 76 -5 110.5t-76 34.5q-58 0 -91.5 -41t-50.5 -133h-387q39 220 204 354q165 132 394 132
q217 0 328 -121q110 -122 76 -320l-43 -243q-14 -86 -1 -104q14 -21 85 -21zM481 233q68 0 115 42t61 124l7 31q-9 -4 -140 -37q-77 -18 -102 -35q-26 -18 -33 -57q-6 -33 16.5 -50.5t75.5 -17.5z" />
    <glyph glyph-name="b" unicode="b" horiz-adv-x="1310" 
d="M942 1096q187 0 276 -155q87 -155 42 -408q-47 -255 -187 -409q-141 -155 -330 -155q-126 0 -207 75.5t-100 207.5l-45 -252h-393l276 1567h410l-129 -733q69 124 170 193t217 69zM840 532q25 131 -5 191.5t-120 60.5q-81 0 -129.5 -49t-75.5 -157l-16 -95
q-12 -104 20.5 -153t112.5 -49q88 0 139 59.5t74 191.5z" />
    <glyph glyph-name="c" unicode="c" horiz-adv-x="1226" 
d="M772 436h389q-38 -212 -206 -339q-170 -128 -408 -128q-267 0 -404 155t-92 408q47 254 238 409t456 155q240 0 363 -135q123 -136 84 -355h-389q16 94 -10.5 136t-102.5 42q-92 0 -143 -59t-76 -193q-23 -133 7.5 -192t123.5 -59q76 0 116 36.5t54 118.5z" />
    <glyph glyph-name="d" unicode="d" horiz-adv-x="1308" 
d="M870 854l125 713h410l-277 -1567h-393l49 285q-66 -148 -175 -231q-109 -85 -238 -85q-187 0 -276 155t-44 408q46 253 190 409q143 155 328 155q117 0 195 -63.5t106 -178.5zM598 281q88 0 139 59.5t74 191.5q25 131 -5 191.5t-120 60.5q-88 0 -139 -59.5t-76 -192.5
q-23 -131 7 -191t120 -60z" />
    <glyph glyph-name="e" unicode="e" horiz-adv-x="1247" 
d="M735 1096q253 0 384 -140q130 -140 89 -370l-26 -148h-721q-2 -88 32.5 -128t112.5 -40q154 0 168 99h389q-32 -181 -204 -290q-173 -110 -422 -110q-262 0 -396 155q-135 154 -90 408q47 254 235 409t449 155zM496 635l188 4h131q4 82 -27.5 119t-105.5 37
q-134 0 -186 -160z" />
    <glyph glyph-name="f" unicode="f" horiz-adv-x="929" 
d="M1059 1270h-228q-104 0 -124 -107l-17 -98h332l-55 -307h-332l-133 -758h-410l133 758h-194l55 307h195l24 143q32 171 172 275q142 104 340 104q149 0 295 -20z" />
    <glyph glyph-name="g" unicode="g" horiz-adv-x="1218" 
d="M1370 1300l-51 -296q-182 0 -227 -39q96 -97 67 -250q-32 -170 -196 -276q-167 -107 -420 -107q-121 0 -213 24q-2 -2 -2 -7t-2 -7q-8 -39 19.5 -56.5t96.5 -17.5h363q171 0 260 -82q90 -83 65 -217q-33 -176 -218 -283q-184 -106 -476 -106q-283 0 -433 69
q-149 70 -130 187q10 60 61 104t125 58q-92 77 -73 178q27 152 209 236q-168 110 -134 303q32 175 195 278t420 103q152 0 268 -39q40 126 136 184q98 59 290 59zM750 715q10 60 -17.5 87t-101.5 27q-79 0 -114.5 -26t-47.5 -88q-12 -64 14 -90.5t107 -26.5q75 0 112.5 27
t47.5 90zM649 -55h-401l-6 -29q-12 -66 35 -89q45 -22 198 -22q148 0 199 16q50 16 61 66q6 33 -13 45.5t-73 12.5z" />
    <glyph glyph-name="h" unicode="h" horiz-adv-x="1302" 
d="M975 1096q166 0 236.5 -92.5t39.5 -268.5l-129 -735h-409l102 584q16 90 -8.5 130t-93.5 40q-90 0 -139.5 -48t-67.5 -153v4l-98 -557h-410l276 1567h410l-133 -750q68 132 180 205q112 74 244 74z" />
    <glyph glyph-name="i" unicode="i" horiz-adv-x="585" 
d="M203 1217l57 329h430l-57 -329h-430zM-2 0l188 1065h410l-188 -1065h-410z" />
    <glyph glyph-name="j" unicode="j" horiz-adv-x="583" 
d="M201 1217l57 329h430l-57 -329h-430zM-4 -2l188 1067h410l-195 -1106q-32 -171 -169 -275q-139 -104 -332 -104q-78 0 -152 21l51 297h84q97 0 115 100z" />
    <glyph glyph-name="k" unicode="k" horiz-adv-x="1353" 
d="M946 1065h451l-469 -502l362 -563h-518l-209 354l-69 133l-86 -487h-410l276 1567h410l-174 -983l117 135z" />
    <glyph glyph-name="l" unicode="l" horiz-adv-x="661" 
d="M674 1567l-207 -1164q-18 -106 88 -106h43l-51 -297q-97 -20 -201 -20q-161 0 -244 101q-82 99 -53 267l215 1219h410z" />
    <glyph glyph-name="m" unicode="m" horiz-adv-x="2004" 
d="M1677 1096q166 0 237 -92.5t40 -268.5l-129 -735h-410l103 584q16 90 -7.5 130t-91.5 40q-90 0 -138 -47.5t-67 -153.5v6l-98 -559h-409l102 584q16 90 -7.5 130t-90.5 40q-90 0 -138.5 -47.5t-66.5 -153.5v4l-98 -557h-410l188 1065h394l-50 -283q65 143 182 230
q116 84 257 84q147 0 220 -74t64 -215q68 136 180 212q112 77 244 77z" />
    <glyph glyph-name="n" unicode="n" horiz-adv-x="1302" 
d="M975 1096q166 0 236.5 -92.5t39.5 -268.5l-129 -735h-409l102 584q16 90 -8.5 130t-93.5 40q-90 0 -139.5 -48t-67.5 -153v4l-98 -557h-410l188 1065h394l-50 -283q65 144 183 230q117 84 262 84z" />
    <glyph glyph-name="o" unicode="o" horiz-adv-x="1282" 
d="M998 124q-190 -155 -455 -155q-267 0 -402 155q-135 154 -90 408q47 254 236 409q188 155 455 155q266 0 400 -155t89 -408q-45 -254 -233 -409zM598 281q88 0 138 59t75 192q25 131 -5 191.5t-120 60.5t-141 -60q-50 -59 -73 -191q-23 -133 7 -192q28 -60 119 -60z" />
    <glyph glyph-name="p" unicode="p" horiz-adv-x="1312" 
d="M944 1096q186 0 275 -155q88 -154 43 -408q-45 -255 -186 -409q-143 -155 -331 -155q-116 0 -192.5 62t-106.5 176l-108 -606h-410l258 1464h394l-52 -287q66 148 177 233q109 85 239 85zM768 340q51 59 74 193q22 132 -7 192q-30 59 -118 59q-82 0 -131 -49t-74 -155
l-16 -91q-14 -104 19.5 -156.5t113.5 -51.5q88 0 139 59z" />
    <glyph glyph-name="q" unicode="q" horiz-adv-x="1310" 
d="M877 813l45 252h393l-258 -1464h-410l111 632q-68 -125 -169.5 -194.5t-217.5 -69.5q-187 0 -276 155t-44 409q45 253 188 408t330 155q126 0 207.5 -75.5t100.5 -207.5zM598 281q88 0 139 59.5t74 192.5t-7 192t-118 59q-90 0 -140.5 -60t-73.5 -191
q-23 -133 6.5 -192.5t119.5 -59.5z" />
    <glyph glyph-name="r" unicode="r" horiz-adv-x="892" 
d="M883 1096q63 0 96 -15l-70 -393h-235q-137 0 -172 -149l-94 -539h-410l188 1065h394l-60 -340q46 167 148 270q101 101 215 101z" />
    <glyph glyph-name="s" unicode="s" horiz-adv-x="1142" 
d="M467 -31q-245 0 -375 100q-130 99 -102 261h389q-8 -51 24.5 -74t112.5 -23q140 0 154 62q4 26 -8 39t-53.5 23t-133.5 20q-229 20 -324.5 102.5t-68.5 241.5q29 168 191 272q160 103 395 103q231 0 355 -103t95 -274h-389q10 59 -16.5 85.5t-94.5 26.5q-127 0 -139 -65
q-7 -39 33 -57q38 -18 166 -29q242 -20 339 -101.5t70 -234.5q-28 -167 -199 -271q-172 -104 -421 -104z" />
    <glyph glyph-name="t" unicode="t" horiz-adv-x="958" 
d="M965 758h-332l-64 -355q-18 -106 88 -106h228l-51 -297q-155 -20 -304 -20q-200 0 -304 104t-72 274l69 400h-194l53 307h197l63 309h399l-55 -309h332z" />
    <glyph glyph-name="u" unicode="u" horiz-adv-x="1296" 
d="M791 479l102 586h410l-187 -1065h-393l45 256q-67 -133 -182 -210q-116 -77 -252 -77q-166 0 -236.5 92.5t-40.5 268.5l129 735h410l-102 -584q-16 -90 7 -130t91 -40q158 0 199 168z" />
    <glyph glyph-name="v" unicode="v" horiz-adv-x="1269" 
d="M694 465l246 600h420l-453 -1065h-721l-75 1065h428l30 -600l6 -320z" />
    <glyph glyph-name="w" unicode="w" horiz-adv-x="1896" 
d="M1397 465l196 600h394l-375 -1065h-633l18 588l17 229l-64 -229l-190 -588h-651l2 1065h424l-15 -600l-18 -270l69 270l181 600h626l-32 -600l-25 -264z" />
    <glyph glyph-name="x" unicode="x" horiz-adv-x="1300" 
d="M950 1065h449l-391 -545l206 -520h-442l-94 283l-37 174l-113 -174l-206 -283h-449l434 553l-203 512h443l100 -281l31 -143l82 143z" />
    <glyph glyph-name="y" unicode="y" horiz-adv-x="1269" 
d="M694 465l246 600h420l-492 -1159q-66 -154 -210 -240q-145 -86 -330 -86q-146 0 -295 21l51 297h227q154 0 191 88l6 14h-322l-75 1065h428l30 -600l6 -320z" />
    <glyph glyph-name="z" unicode="z" horiz-adv-x="1067" 
d="M903 0h-913l96 545l750 219l-322 -10h-381l55 311h893l-98 -549l-733 -215l307 10h401z" />
    <glyph glyph-name="braceleft" unicode="{" horiz-adv-x="829" 
d="M770 1587q94 0 211 -24l-49 -273h-84q-72 0 -94 -21q-24 -24 -37 -104l-49 -286q-25 -151 -129 -223t-306 -72h-2q202 0 280.5 -73t51.5 -222l-51 -287q-13 -82 1 -104q15 -21 87 -21h84l-49 -272q-121 -25 -219 -25q-206 0 -274 69q-67 70 -36 251l64 360q16 90 -10 126
q-27 34 -111 34h-90l59 328h91q84 0 121 34q36 33 53 125l63 361q33 179 125 250q91 69 299 69z" />
    <glyph glyph-name="bar" unicode="|" horiz-adv-x="481" 
d="M-51 -399l346 1966h256l-346 -1966h-256z" />
    <glyph glyph-name="braceright" unicode="}" horiz-adv-x="829" 
d="M799 748h90l-60 -328h-90q-85 0 -120 -34q-37 -34 -54 -126l-63 -360q-33 -179 -125 -250q-91 -70 -299 -70q-102 0 -211 25l49 272h84q71 0 93 20q19 21 36 105l51 287q27 152 130.5 223.5t303.5 71.5v-2l2 4l-2 -2q-206 0 -279 72q-76 71 -50 223l49 286q14 84 0 105
q-15 20 -86 20h-84l49 273q117 25 219 24q208 0 275 -69q67 -70 34 -250l-63 -361q-16 -91 11 -125q25 -34 110 -34z" />
    <glyph glyph-name="asciitilde" unicode="~" horiz-adv-x="1243" 
d="M274 336h-237q33 182 150 296q116 113 270 113q64 0 122 -18t92 -44q81 -62 169 -62q53 0 87.5 35t43.5 89h237q-33 -193 -148 -301q-116 -108 -272 -108q-108 0 -212 63q-104 62 -168 62q-53 0 -89 -35.5t-45 -89.5z" />
    <glyph glyph-name="exclamdown" unicode="&#xa1;" horiz-adv-x="634" 
d="M627 1065l-72 -410h-430l72 410h430zM367 -389h-420l69 391l150 510h301l-31 -510z" />
    <glyph glyph-name="cent" unicode="&#xa2;" horiz-adv-x="1226" 
d="M1227 801h-389q16 94 -10.5 136t-102.5 42q-92 0 -143.5 -59.5t-75.5 -192.5q-23 -133 7.5 -192.5t123.5 -59.5q76 0 116 37t54 119h389q-32 -178 -158 -298q-129 -123 -315 -157l-25 -145h-311l27 151q-187 47 -275 192q-90 145 -53 353q39 209 177 354q139 145 343 191
l23 131h311l-22 -127q175 -38 258 -164q84 -127 51 -311z" />
    <glyph glyph-name="sterling" unicode="&#xa3;" horiz-adv-x="1351" 
d="M1362 969h-430q16 94 -12 136t-109 42t-124.5 -35t-57.5 -111q-12 -68 45 -178h389l-41 -235h-324q-76 -172 -385 -223l127 4h822l-66 -369h-1208l80 449q194 34 235 139h-203l41 235h92q-66 123 -45 234q34 192 223 311q187 117 459 117q262 0 398 -142
q135 -142 94 -374z" />
    <glyph glyph-name="currency" unicode="&#xa4;" horiz-adv-x="1411" 
d="M1450 1171l-186 -159q51 -128 20 -293q-32 -167 -125 -293l133 -160l-213 -180l-133 160q-139 -70 -303 -70q-165 0 -278 70l-191 -160l-147 180l186 158q-53 126 -23 295q32 170 127 293l-133 159l213 181l131 -162q136 72 305 72t281 -72l189 162zM542 548
q53 -65 155 -65t176 65q73 64 94 171q20 108 -32 171q-52 64 -154 64q-103 0 -179 -64t-94 -171q-19 -105 34 -171z" />
    <glyph glyph-name="yen" unicode="&#xa5;" horiz-adv-x="1497" 
d="M1229 1454h461l-492 -721h195l-43 -235h-312l-57 -82h354l-41 -236h-383l-32 -180h-441l33 180h-385l41 236h354l-26 82h-314l43 235h193l-236 721h482l129 -436l55 -262l145 262z" />
    <glyph glyph-name="brokenbar" unicode="&#xa6;" horiz-adv-x="481" 
d="M414 791h-256l137 776h256zM205 -399h-256l137 776h256z" />
    <glyph glyph-name="section" unicode="&#xa7;" horiz-adv-x="1435" 
d="M1432 989h-431q14 82 -29 120t-155 38q-205 0 -223 -90q-7 -43 46 -68q57 -27 224 -55q317 -53 430 -169q113 -117 76 -319l-70 -387v-2q-39 -216 -243 -346q-206 -131 -504 -131t-455 136q-159 136 -118 360h430q-14 -82 34 -120t170 -38q206 0 226 86q6 26 -5 43
q-12 17 -72 36q-59 19 -190 40q-311 51 -428 165q-118 112 -82 318l70 389q40 218 246 355q206 135 502 135q288 0 439 -136t112 -360zM702 629q-226 38 -352 92l-2 -12q-8 -63 -6 -105q1 -42 45 -74t122 -54q81 -23 224 -48q233 -39 369 -96l4 20q13 84 -6 127
q-20 42 -111 80q-88 37 -287 70z" />
    <glyph glyph-name="dieresis" unicode="&#xa8;" horiz-adv-x="874" 
d="M172 1217l57 329h349l-58 -329h-348zM596 1217l57 329h348l-57 -329h-348z" />
    <glyph glyph-name="copyright" unicode="&#xa9;" horiz-adv-x="1667" 
d="M1339 178q-253 -209 -604 -209t-530 209q-178 208 -119 549q58 340 311 549t605 209q351 0 530 -209q178 -208 119 -549q-60 -341 -312 -549zM362 298q133 -163 402 -163q268 0 461 163q193 164 239 429q47 266 -88 429t-403 163q-269 0 -462 -163q-194 -164 -239 -429
t90 -429zM979 657h299q-27 -156 -154 -252q-128 -96 -303 -96q-201 0 -302 116t-68 304q35 187 177 303q142 115 341 115q177 0 268 -100q92 -101 63 -265h-299q19 123 -73 123q-125 0 -154 -176q-16 -94 5.5 -136t84.5 -42q96 0 115 106z" />
    <glyph glyph-name="ordfeminine" unicode="&#xaa;" horiz-adv-x="882" 
d="M840 1036l-27 -155q-11 -53 0 -67q11 -15 55 -15l-32 -185q-68 -14 -134 -14q-92 0 -136 33t-40 100q-90 -139 -256 -139q-100 0 -151 46t-37 124q25 147 254 184q201 38 225 45l6 33q13 84 -55 84q-70 0 -88 -102h-270q26 143 137 228q112 85 270 85q149 0 226 -78
q75 -78 53 -207zM426 770q89 0 111 88l6 35q-29 -9 -88 -25q-52 -12 -68 -22t-20 -33q-8 -43 59 -43z" />
    <glyph glyph-name="guillemotleft" unicode="&#xab;" horiz-adv-x="1167" 
d="M254 918h448l-448 -390l311 -389h-448l-117 160l45 258l35 201zM766 918h448l-448 -390l311 -389h-448l-117 160l45 258l35 201z" />
    <glyph glyph-name="logicalnot" unicode="&#xac;" horiz-adv-x="1095" 
d="M98 684h953l-95 -528l-266 -2l47 264h-686z" />
    <glyph glyph-name="registered" unicode="&#xae;" horiz-adv-x="1064" 
d="M329 1357q155 128 372 128t327 -128q110 -127 72 -339t-191 -339q-155 -128 -372 -128t-327 128t-73 339q37 212 192 339zM829 766q113 97 140 252q26 157 -52 252q-79 96 -237 96t-271 -96q-115 -96 -140 -252q-27 -156 52 -252q78 -96 236 -96t272 96zM446 1239h263
q75 0 114 -38t29 -101q-12 -71 -74 -115l31 -47l43 -111h-180l-47 125h-72l-23 -125h-155zM651 1122h-69l-11 -63h70q49 0 51 33q2 16 -8 23t-33 7z" />
    <glyph glyph-name="overscore" unicode="&#xaf;" horiz-adv-x="688" 
d="M227 1536h586l-53 -307h-586z" />
    <glyph glyph-name="degree" unicode="&#xb0;" horiz-adv-x="847" 
d="M764 846q-127 -103 -303 -103t-266 103q-91 101 -62 268q28 165 156 269q127 102 303 102t266 -102q90 -104 62 -269q-28 -166 -156 -268zM417 1016q27 -37 85 -37t99 37q43 38 53 99t-18 98q-28 36 -85 36t-99 -36q-42 -37 -52 -98q-11 -63 17 -99z" />
    <glyph glyph-name="plusminus" unicode="&#xb1;" horiz-adv-x="1044" 
d="M748 1051l-37 -213h315l-47 -267h-315l-37 -213l-269 -2l39 215h-317l47 267h317l37 213h267zM885 39h-899l47 266h899z" />
    <glyph glyph-name="uni00B2" unicode="&#xb2;" horiz-adv-x="794" 
d="M801 799h-707l68 379l366 79q76 16 88 95q14 86 -61 86q-74 0 -98 -125h-279q26 141 141 228t277 87t244 -75q82 -76 59 -201q-33 -182 -272 -242l-205 -51l-141 -27l145 2h416z" />
    <glyph glyph-name="uni00B3" unicode="&#xb3;" horiz-adv-x="833" 
d="M922 1411q-12 -72 -81.5 -115t-185.5 -49q127 -14 183.5 -72.5t40.5 -152.5q-19 -110 -137 -178t-291 -68q-165 0 -251 84t-63 219h279q-14 -86 73 -86q102 0 111 68q4 25 -17 40t-63 15h-98l29 162h98q61 0 72 63q12 70 -54 70q-75 0 -92 -86h-278q26 138 135 220
q110 83 272 83q158 0 247 -60q89 -62 71 -157z" />
    <glyph glyph-name="acute" unicode="&#xb4;" horiz-adv-x="530" 
d="M168 1198l137 369h357l-213 -369h-281z" />
    <glyph glyph-name="paragraph" unicode="&#xb6;" horiz-adv-x="1775" 
d="M676 1454h1251l-65 -369h-185l-262 -1484h-399l262 1484h-195l-262 -1484h-399l162 919h-74q-213 0 -320 128q-108 128 -69 339t192 339q152 128 363 128z" />
    <glyph glyph-name="middot" unicode="&#xb7;" horiz-adv-x="573" 
d="M37 338l76 430h430l-76 -430h-430z" />
    <glyph glyph-name="cedilla" unicode="&#xb8;" horiz-adv-x="550" 
d="M205 -100h10q79 0 118.5 -45.5t24.5 -120.5q-13 -83 -76 -135q-64 -50 -149 -50h-256l27 152h166q43 0 49 33q4 16 -5.5 24.5t-31.5 8.5h-148l21 124l68 109h239z" />
    <glyph glyph-name="uni00B9" unicode="&#xb9;" horiz-adv-x="681" 
d="M293 1593h473l-139 -794h-287l74 413l53 267l-148 -138l-239 -186l55 315z" />
    <glyph glyph-name="ordmasculine" unicode="&#xba;" horiz-adv-x="864" 
d="M729 694q-122 -100 -295 -100q-172 0 -259 101q-87 100 -58 264q28 163 151 263q123 99 295 99q173 0 258 -99q86 -101 58 -264q-27 -164 -150 -264zM471 805q51 0 81 36t46 117q29 152 -74 152q-100 0 -127 -152q-25 -153 74 -153z" />
    <glyph glyph-name="guillemotright" unicode="&#xbb;" horiz-adv-x="1167" 
d="M653 758l-41 -238l-39 -221l-174 -160h-448l448 389l-311 390h449zM1049 918l116 -160l-41 -238l-39 -221l-174 -160h-448l448 389l-311 390h449z" />
    <glyph glyph-name="onequarter" unicode="&#xbc;" horiz-adv-x="1581" 
d="M-10 0l1378 1454h307l-1378 -1454h-307zM440 1122l45 232l-129 -119l-209 -162l50 275l139 106h412l-121 -690h-250zM1073 690h391l-69 -399h94l-31 -180h-96l-19 -111h-249l20 111h-268l63 370zM928 289l133 2h84l29 158l38 202z" />
    <glyph glyph-name="onehalf" unicode="&#xbd;" horiz-adv-x="1599" 
d="M-10 0l1378 1454h307l-1378 -1454h-307zM440 1122l45 232l-129 -119l-209 -162l50 275l139 106h412l-121 -690h-250zM1280 721q138 0 207 -65t53 -175q-27 -159 -235 -211l-179 -45l-120 -22l127 2h360l-37 -205h-614l57 330l322 69q61 13 73 82q14 74 -51 74t-86 -109
h-242q22 122 124 199q100 76 241 76z" />
    <glyph glyph-name="threequarters" unicode="&#xbe;" horiz-adv-x="1648" 
d="M408 743q-143 0 -219 73q-77 74 -54 192h242q-13 -76 63 -76q80 0 95 59q4 22 -12.5 35.5t-53.5 13.5h-86l25 140h86q49 0 59 55q12 61 -45 61q-66 0 -80 -75h-242q22 120 119 193q97 71 236 71t215 -52q75 -52 61 -137q-10 -61 -70 -99t-159 -44q224 -25 192 -195
q-17 -97 -118 -155q-102 -60 -254 -60zM47 0l1378 1454h308l-1379 -1454h-307zM1139 690h391l-70 -399h94l-30 -180h-97l-18 -111h-250l21 111h-269l64 370zM993 289l133 2h84l29 158l39 202z" />
    <glyph glyph-name="questiondown" unicode="&#xbf;" horiz-adv-x="1150" 
d="M504 1065h430l-72 -410h-430zM678 117h369q-40 -241 -221 -390q-182 -147 -433 -147q-243 0 -371 116q-128 114 -96 302q53 291 469 401l58 17l32 137h287l-39 -274l-215 -64q-109 -31 -149 -61q-42 -32 -52 -91q-14 -88 17 -126.5t115 -38.5q100 0 154.5 52t74.5 167z
" />
    <glyph glyph-name="Agrave" unicode="&#xc0;" horiz-adv-x="1660" 
d="M1171 1956l7 -369h-281l-82 369h356zM1567 0h-461l-35 301h-553l-141 -301h-451l686 1454h781zM836 983l-164 -350h362l-39 350l-22 328z" />
    <glyph glyph-name="Aacute" unicode="&#xc1;" horiz-adv-x="1660" 
d="M1012 1956h356l-213 -369h-281zM1567 0h-461l-35 301h-553l-141 -301h-451l686 1454h781zM836 983l-164 -350h362l-39 350l-22 328z" />
    <glyph glyph-name="Acircumflex" unicode="&#xc2;" horiz-adv-x="1660" 
d="M1149 1587l-64 311l-174 -311h-315l238 369h524l106 -369h-315zM1567 0h-461l-35 301h-553l-141 -301h-451l686 1454h781zM836 983l-164 -350h362l-39 350l-22 328z" />
    <glyph glyph-name="Atilde" unicode="&#xc3;" horiz-adv-x="1660" 
d="M922 1688q-82 0 -97 -80h-184q31 173 106 257.5t201 84.5q60 0 136 -42t122 -42q83 0 94 80h185q-31 -176 -103 -259t-202 -83q-60 0 -136 42q-77 42 -122 42zM1567 0h-461l-35 301h-553l-141 -301h-451l686 1454h781zM836 983l-164 -350h362l-39 350l-22 328z" />
    <glyph glyph-name="Adieresis" unicode="&#xc4;" horiz-adv-x="1660" 
d="M705 1935h348l-58 -329h-348zM1128 1935h349l-58 -329h-348zM1567 0h-461l-35 301h-553l-141 -301h-451l686 1454h781zM836 983l-164 -350h362l-39 350l-22 328z" />
    <glyph glyph-name="Aring" unicode="&#xc5;" horiz-adv-x="1660" 
d="M1202 1630q-73 -53 -172 -53q-100 0 -151 53q-52 52 -37 142q13 88 86 141q71 53 172 53q99 0 152 -53q51 -52 37 -141q-15 -90 -87 -142zM999 1772q-12 -56 56 -58q63 0 75 58q8 57 -55 57q-69 0 -76 -57zM1567 0h-461l-35 301h-553l-141 -301h-451l686 1454h781z
M836 983l-164 -350h362l-39 350l-22 328z" />
    <glyph glyph-name="AE" unicode="&#xc6;" horiz-adv-x="2195" 
d="M2284 1454l-66 -369h-780l22 -190h694l-57 -328h-598l23 -198h573l-65 -369h-924l-35 301h-553l-141 -301h-451l686 1454h1672zM836 983l-164 -350h362l-39 350l-22 328z" />
    <glyph glyph-name="Ccedilla" unicode="&#xc7;" horiz-adv-x="1540" 
d="M1548 883h-430q20 117 -31 170t-182 53q-152 0 -237.5 -90t-120.5 -289q-35 -201 18 -292t205 -91q133 0 201.5 47t89.5 154h430q-41 -237 -225 -388q-185 -154 -453 -182l-43 -75h10q78 0 118 -45.5t26 -120.5q-13 -84 -77 -135q-64 -50 -149 -50h-256l27 152h166
q43 0 49 33q4 16 -5 24.5t-32 8.5h-147l20 124l55 89q-271 40 -402 242q-130 198 -77 505q58 341 300 549q242 209 575 209q307 0 466 -166q157 -166 111 -436z" />
    <glyph glyph-name="Egrave" unicode="&#xc8;" horiz-adv-x="1316" 
d="M1010 1956l6 -369h-281l-82 369h357zM1405 1454l-66 -369h-690l-33 -190h660l-57 -328h-660l-35 -198h693l-66 -369h-1133l256 1454h1131z" />
    <glyph glyph-name="Eacute" unicode="&#xc9;" horiz-adv-x="1316" 
d="M850 1956h356l-213 -369h-280zM1405 1454l-66 -369h-690l-33 -190h660l-57 -328h-660l-35 -198h693l-66 -369h-1133l256 1454h1131z" />
    <glyph glyph-name="Ecircumflex" unicode="&#xca;" horiz-adv-x="1316" 
d="M987 1587l-63 311l-174 -311h-316l238 369h524l107 -369h-316zM1405 1454l-66 -369h-690l-33 -190h660l-57 -328h-660l-35 -198h693l-66 -369h-1133l256 1454h1131z" />
    <glyph glyph-name="Edieresis" unicode="&#xcb;" horiz-adv-x="1316" 
d="M543 1935h348l-57 -329h-349zM967 1935h348l-58 -329h-348zM1405 1454l-66 -369h-690l-33 -190h660l-57 -328h-660l-35 -198h693l-66 -369h-1133l256 1454h1131z" />
    <glyph glyph-name="Igrave" unicode="&#xcc;" horiz-adv-x="665" 
d="M303 1956h356l7 -369h-281zM18 0l256 1454h441l-256 -1454h-441z" />
    <glyph glyph-name="Iacute" unicode="&#xcd;" horiz-adv-x="665" 
d="M362 1587l138 369h356l-213 -369h-281zM18 0l256 1454h441l-256 -1454h-441z" />
    <glyph glyph-name="Icircumflex" unicode="&#xce;" horiz-adv-x="665" 
d="M637 1587l-64 311l-174 -311h-315l238 369h524l106 -369h-315zM459 0h-441l256 1454h441z" />
    <glyph glyph-name="Idieresis" unicode="&#xcf;" horiz-adv-x="665" 
d="M135 1606l58 329h348l-58 -329h-348zM559 1606l57 329h349l-58 -329h-348zM18 0l256 1454h441l-256 -1454h-441z" />
    <glyph glyph-name="Eth" unicode="&#xd0;" horiz-adv-x="1595" 
d="M274 1454h670q338 0 510 -199t115 -528q-58 -327 -300 -527q-244 -200 -581 -200h-670l105 590h-143l51 287h141zM1118 727q61 358 -254 358h-215l-37 -208h248l-51 -287h-246l-41 -232h215q315 0 381 369z" />
    <glyph glyph-name="Ntilde" unicode="&#xd1;" horiz-adv-x="1736" 
d="M965 1688q-82 0 -97 -80h-184q31 173 106 257.5t201 84.5q59 0 136 -42t122 -42q83 0 94 80h185q-31 -176 -103 -259t-202 -83q-59 0 -136 42q-76 42 -122 42zM1237 799l115 655h434l-256 -1454h-770l-96 1276l-97 -621l-114 -655h-435l256 1454h775l96 -1253z" />
    <glyph glyph-name="Ograve" unicode="&#xd2;" horiz-adv-x="1646" 
d="M795 1956h356l6 -369h-280zM1314 178q-248 -209 -589 -209q-342 0 -515 209t-113 549q59 341 306 549q247 209 588 209q342 0 515 -209q172 -208 114 -549t-306 -549zM570 435q57 -91 221 -91q163 0 254 91q89 91 124 292q35 199 -22 289t-221 90t-254 -90t-125 -289
q-35 -202 23 -292z" />
    <glyph glyph-name="Oacute" unicode="&#xd3;" horiz-adv-x="1646" 
d="M854 1587l137 369h357l-213 -369h-281zM1314 178q-248 -209 -589 -209q-342 0 -515 209t-113 549q59 341 306 549q247 209 588 209q342 0 515 -209q172 -208 114 -549t-306 -549zM570 435q57 -91 221 -91q163 0 254 91q89 91 124 292q35 199 -22 289t-221 90t-254 -90
t-125 -289q-35 -202 23 -292z" />
    <glyph glyph-name="Ocircumflex" unicode="&#xd4;" horiz-adv-x="1646" 
d="M1128 1587l-63 311l-174 -311h-316l238 369h524l107 -369h-316zM403 1276q247 209 588 209q342 0 515 -209q172 -208 114 -549t-306 -549q-248 -209 -589 -209q-342 0 -515 209t-113 549q59 341 306 549zM1169 727q35 199 -22 289t-221 90t-254 -90t-125 -289
q-35 -201 23 -292t221 -91t253 91t125 292z" />
    <glyph glyph-name="Otilde" unicode="&#xd5;" horiz-adv-x="1646" 
d="M1159 1604q-59 0 -136 42q-76 42 -122 42q-82 0 -96 -80h-184q31 173 106 257.5t201 84.5q60 0 136 -42t122 -42q83 0 94 80h184q-31 -176 -103 -259t-202 -83zM1314 178q-248 -209 -589 -209q-342 0 -515 209t-113 549q59 341 306 549q247 209 588 209q342 0 515 -209
q172 -208 114 -549t-306 -549zM570 435q57 -91 221 -91q163 0 254 91q89 91 124 292q35 199 -22 289t-221 90t-254 -90t-125 -289q-35 -202 23 -292z" />
    <glyph glyph-name="Odieresis" unicode="&#xd6;" horiz-adv-x="1646" 
d="M627 1606l57 329h348l-57 -329h-348zM1051 1606l57 329h348l-57 -329h-348zM1314 178q-248 -209 -589 -209q-342 0 -515 209t-113 549q59 341 306 549q247 209 588 209q342 0 515 -209q172 -208 114 -549t-306 -549zM570 435q57 -91 221 -91q163 0 254 91q89 91 124 292
q35 199 -22 289t-221 90t-254 -90t-125 -289q-35 -202 23 -292z" />
    <glyph glyph-name="multiply" unicode="&#xd7;" horiz-adv-x="985" 
d="M815 969l143 -174l-288 -246l202 -244l-204 -174l-203 244l-287 -244l-145 172l289 246l-203 248l205 174l202 -248z" />
    <glyph glyph-name="Oslash" unicode="&#xd8;" horiz-adv-x="1646" 
d="M1290 1567h402l-203 -269q197 -212 131 -571q-58 -341 -306 -549q-248 -209 -589 -209q-111 0 -221 27l-107 -139h-401l229 303q-191 212 -129 567q58 341 306 549q248 209 589 209q123 0 217 -27zM547 727q-14 -92 -12 -160l407 539h-16q-164 0 -254 -90t-125 -289z
M1169 727q18 94 13 166l-416 -549h25q164 0 253.5 91t124.5 292z" />
    <glyph glyph-name="Ugrave" unicode="&#xd9;" horiz-adv-x="1558" 
d="M750 1956h356l6 -369h-281zM102 528l164 926h441l-156 -876q-23 -120 24 -175t173 -55q122 0 186.5 54.5t87.5 175.5l156 876h440l-164 -926q-45 -252 -257 -405q-211 -154 -517 -154t-464 154q-159 153 -114 405z" />
    <glyph glyph-name="Uacute" unicode="&#xda;" horiz-adv-x="1558" 
d="M809 1587l137 369h357l-213 -369h-281zM102 528l164 926h441l-156 -876q-23 -120 24 -175t173 -55q122 0 186.5 54.5t87.5 175.5l156 876h440l-164 -926q-45 -252 -257 -405q-211 -154 -517 -154t-464 154q-159 153 -114 405z" />
    <glyph glyph-name="Ucircumflex" unicode="&#xdb;" horiz-adv-x="1558" 
d="M1083 1587l-63 311l-174 -311h-316l238 369h524l107 -369h-316zM1022 578l156 876h440l-164 -926q-45 -252 -257 -405q-211 -154 -517 -154t-464 154q-159 153 -114 405l164 926h441l-156 -876q-23 -120 24 -175t173 -55q122 0 186.5 54.5t87.5 175.5z" />
    <glyph glyph-name="Udieresis" unicode="&#xdc;" horiz-adv-x="1558" 
d="M582 1606l57 329h348l-57 -329h-348zM1006 1606l57 329h348l-57 -329h-348zM102 528l164 926h441l-156 -876q-23 -120 24 -175t173 -55q122 0 186.5 54.5t87.5 175.5l156 876h440l-164 -926q-45 -252 -257 -405q-211 -154 -517 -154t-464 154q-159 153 -114 405z" />
    <glyph glyph-name="Yacute" unicode="&#xdd;" horiz-adv-x="1497" 
d="M940 1956h356l-213 -369h-280zM1229 1454h461l-748 -1096l-63 -358h-441l64 354l-361 1100h482l129 -436l55 -262l145 262z" />
    <glyph glyph-name="Thorn" unicode="&#xde;" horiz-adv-x="1400" 
d="M678 1241h356q211 0 317 -139q105 -139 64 -369q-39 -229 -193 -368q-155 -140 -368 -140h-356l-39 -225h-441l256 1454h441zM965 733q16 90 -15.5 130t-115.5 40h-216l-61 -340h215q164 0 193 170z" />
    <glyph glyph-name="germandbls" unicode="&#xdf;" horiz-adv-x="1513" 
d="M1176 854q-78 -40 -102 -59q-22 -19 -27 -45q-4 -30 16.5 -46t79.5 -26q182 -33 266 -122t59 -224q-27 -162 -178 -262q-152 -101 -370 -101q-206 0 -316 98t-82 257h369q-10 -51 7 -74t67 -23q76 0 88 62q4 31 -20 48q-28 18 -111 34q-341 63 -297 317q20 117 88.5 201
t199.5 153q77 38 113 67q31 25 37 56q10 53 -32 79t-140 26q-136 0 -205.5 -42t-83.5 -134l-192 -1094h-410l205 1167q35 193 237 312q200 118 500 118q275 0 424 -112q150 -113 117 -297q-18 -106 -92 -183q-75 -78 -215 -151z" />
    <glyph glyph-name="agrave" unicode="&#xe0;" horiz-adv-x="1187" 
d="M854 1567l6 -369h-280l-82 369h356zM1133 287h2l-50 -287q-85 -20 -178 -20q-144 0 -213 50.5t-61 151.5q-64 -100 -166.5 -156.5t-226.5 -56.5q-139 0 -211 72q-71 71 -52 190q41 236 363 287q298 50 352 70l8 51q14 76 -5 110.5t-76 34.5q-58 0 -91.5 -41t-50.5 -133
h-387q39 220 204 354q165 132 394 132q217 0 328 -121q110 -122 76 -320l-43 -243q-14 -86 -1 -104q14 -21 85 -21zM481 233q68 0 115 42t61 124l7 31q-9 -4 -140 -37q-77 -18 -102 -35q-26 -18 -33 -57q-6 -33 16.5 -50.5t75.5 -17.5z" />
    <glyph glyph-name="aacute" unicode="&#xe1;" horiz-adv-x="1187" 
d="M690 1567h357l-213 -369h-281zM1133 287h2l-50 -287q-85 -20 -178 -20q-144 0 -213 50.5t-61 151.5q-64 -100 -166.5 -156.5t-226.5 -56.5q-139 0 -211 72q-71 71 -52 190q41 236 363 287q298 50 352 70l8 51q14 76 -5 110.5t-76 34.5q-58 0 -91.5 -41t-50.5 -133h-387
q39 220 204 354q165 132 394 132q217 0 328 -121q110 -122 76 -320l-43 -243q-14 -86 -1 -104q14 -21 85 -21zM481 233q68 0 115 42t61 124l7 31q-9 -4 -140 -37q-77 -18 -102 -35q-26 -18 -33 -57q-6 -33 16.5 -50.5t75.5 -17.5z" />
    <glyph glyph-name="acircumflex" unicode="&#xe2;" horiz-adv-x="1187" 
d="M827 1198l-63 311l-174 -311h-316l238 369h524l107 -369h-316zM1092 655l-43 -243q-14 -86 -1 -104q14 -21 85 -21h2l-50 -287q-85 -20 -178 -20q-144 0 -213 50.5t-61 151.5q-64 -100 -166.5 -156.5t-226.5 -56.5q-139 0 -211 72q-71 71 -52 190q41 236 363 287
q298 50 352 70l8 51q14 76 -5 110.5t-76 34.5q-58 0 -91.5 -41t-50.5 -133h-387q39 220 204 354q165 132 394 132q217 0 328 -121q110 -122 76 -320zM481 233q68 0 115 42t61 124l7 31q-9 -4 -140 -37q-77 -18 -102 -35q-26 -18 -33 -57q-6 -33 16.5 -50.5t75.5 -17.5z" />
    <glyph glyph-name="atilde" unicode="&#xe3;" horiz-adv-x="1187" 
d="M600 1298q-83 0 -96 -79h-185q31 173 106.5 257.5t201.5 84.5q59 0 136 -42t122 -42q84 0 94 79h184q-31 -176 -103 -259t-202 -83q-60 0 -136 42t-122 42zM1092 655l-43 -243q-14 -86 -1 -104q14 -21 85 -21h2l-50 -287q-85 -20 -178 -20q-144 0 -213 50.5t-61 151.5
q-64 -100 -166.5 -156.5t-226.5 -56.5q-139 0 -211 72q-71 71 -52 190q41 236 363 287q298 50 352 70l8 51q14 76 -5 110.5t-76 34.5q-58 0 -91.5 -41t-50.5 -133h-387q39 220 204 354q165 132 394 132q217 0 328 -121q110 -122 76 -320zM481 233q68 0 115 42t61 124l7 31
q-9 -4 -140 -37q-77 -18 -102 -35q-26 -18 -33 -57q-6 -33 16.5 -50.5t75.5 -17.5z" />
    <glyph glyph-name="adieresis" unicode="&#xe4;" horiz-adv-x="1187" 
d="M383 1546h348l-57 -329h-348zM807 1546h348l-57 -329h-348zM1092 655l-43 -243q-14 -86 -1 -104q14 -21 85 -21h2l-50 -287q-85 -20 -178 -20q-144 0 -213 50.5t-61 151.5q-64 -100 -166.5 -156.5t-226.5 -56.5q-139 0 -211 72q-71 71 -52 190q41 236 363 287
q298 50 352 70l8 51q14 76 -5 110.5t-76 34.5q-58 0 -91.5 -41t-50.5 -133h-387q39 220 204 354q165 132 394 132q217 0 328 -121q110 -122 76 -320zM481 233q68 0 115 42t61 124l7 31q-9 -4 -140 -37q-77 -18 -102 -35q-26 -18 -33 -57q-6 -33 16.5 -50.5t75.5 -17.5z" />
    <glyph glyph-name="aring" unicode="&#xe5;" horiz-adv-x="1187" 
d="M881 1241q-73 -53 -172 -53q-101 0 -152 53t-36 141q13 88 86 142q71 53 172 53q100 0 151 -53t37 -142q-15 -88 -86 -141zM678 1382q-12 -57 55 -57q63 0 76 57q7 57 -55 58q-69 -2 -76 -58zM1133 287h2l-50 -287q-85 -20 -178 -20q-144 0 -213 50.5t-61 151.5
q-64 -100 -166.5 -156.5t-226.5 -56.5q-139 0 -211 72q-71 71 -52 190q41 236 363 287q298 50 352 70l8 51q14 76 -5 110.5t-76 34.5q-58 0 -91.5 -41t-50.5 -133h-387q39 220 204 354q165 132 394 132q217 0 328 -121q110 -122 76 -320l-43 -243q-14 -86 -1 -104
q14 -21 85 -21zM481 233q68 0 115 42t61 124l7 31q-9 -4 -140 -37q-77 -18 -102 -35q-26 -18 -33 -57q-6 -33 16.5 -50.5t75.5 -17.5z" />
    <glyph glyph-name="ae" unicode="&#xe6;" horiz-adv-x="1875" 
d="M1364 1096q253 0 384 -140q130 -140 89 -370l-27 -148h-720q-2 -88 32.5 -128t112.5 -40q150 0 168 95l389 4q-32 -181 -204 -290q-173 -110 -423 -110q-159 0 -272 63.5t-164 180.5q-66 -111 -184 -177q-118 -67 -264 -67q-164 0 -245 72t-59 190q41 236 363 287
q298 50 352 70l8 51q12 79 -6 112t-75 33q-58 0 -91.5 -41t-50.5 -133h-387q39 220 204 353q164 133 394 133q196 0 293 -115q166 115 383 115zM1124 635l189 4h131q4 82 -28 119t-105 37q-135 0 -187 -160zM481 233q68 0 115 42t61 124l7 31q-47 -16 -140 -37
q-76 -18 -103 -35q-26 -18 -32 -57q-6 -33 16.5 -50.5t75.5 -17.5z" />
    <glyph glyph-name="ccedilla" unicode="&#xe7;" horiz-adv-x="1226" 
d="M1192 606h-389q16 94 -10.5 136t-102.5 42q-92 0 -143 -59t-76 -193q-23 -133 7.5 -192t123.5 -59q76 0 116 36.5t54 118.5h389q-33 -188 -174 -312q-140 -123 -346 -149l-43 -75h10q78 0 118 -45.5t26 -120.5q-13 -84 -77 -135q-64 -50 -149 -50h-256l27 152h166
q43 0 49 33q4 16 -5 24.5t-32 8.5h-147l20 124l58 91q-200 40 -297 187q-97 145 -58 363q47 254 238 409t456 155q240 0 363 -135q123 -136 84 -355z" />
    <glyph glyph-name="egrave" unicode="&#xe8;" horiz-adv-x="1247" 
d="M897 1567l6 -369h-280l-82 369h356zM735 1096q253 0 384 -140q130 -140 89 -370l-26 -148h-721q-2 -88 32.5 -128t112.5 -40q154 0 168 99h389q-32 -181 -204 -290q-173 -110 -422 -110q-262 0 -396 155q-135 154 -90 408q47 254 235 409t449 155zM496 635l188 4h131
q4 82 -27.5 119t-105.5 37q-134 0 -186 -160z" />
    <glyph glyph-name="eacute" unicode="&#xe9;" horiz-adv-x="1247" 
d="M733 1567h357l-213 -369h-281zM735 1096q253 0 384 -140q130 -140 89 -370l-26 -148h-721q-2 -88 32.5 -128t112.5 -40q154 0 168 99h389q-32 -181 -204 -290q-173 -110 -422 -110q-262 0 -396 155q-135 154 -90 408q47 254 235 409t449 155zM496 635l188 4h131
q4 82 -27.5 119t-105.5 37q-134 0 -186 -160z" />
    <glyph glyph-name="ecircumflex" unicode="&#xea;" horiz-adv-x="1247" 
d="M870 1198l-63 311l-174 -311h-316l238 369h524l107 -369h-316zM735 1096q253 0 384 -140q130 -140 89 -370l-26 -148h-721q-2 -88 32.5 -128t112.5 -40q154 0 168 99h389q-32 -181 -204 -290q-173 -110 -422 -110q-262 0 -396 155q-135 154 -90 408q47 254 235 409
t449 155zM496 635l188 4h131q4 82 -27.5 119t-105.5 37q-134 0 -186 -160z" />
    <glyph glyph-name="edieresis" unicode="&#xeb;" horiz-adv-x="1247" 
d="M426 1546h348l-57 -329h-348zM850 1546h348l-57 -329h-348zM735 1096q253 0 384 -140q130 -140 89 -370l-26 -148h-721q-2 -88 32.5 -128t112.5 -40q154 0 168 99h389q-32 -181 -204 -290q-173 -110 -422 -110q-262 0 -396 155q-135 154 -90 408q47 254 235 409t449 155z
M496 635l188 4h131q4 82 -27.5 119t-105.5 37q-134 0 -186 -160z" />
    <glyph glyph-name="igrave" unicode="&#xec;" horiz-adv-x="587" 
d="M203 1567h356l6 -369h-280zM-2 0l188 1065h410l-188 -1065h-410z" />
    <glyph glyph-name="iacute" unicode="&#xed;" horiz-adv-x="587" 
d="M258 1198l137 369h357l-213 -369h-281zM-2 0l188 1065h410l-188 -1065h-410z" />
    <glyph glyph-name="icircumflex" unicode="&#xee;" horiz-adv-x="587" 
d="M532 1198l-63 311l-174 -311h-315l237 369h524l107 -369h-316zM408 0h-410l188 1065h410z" />
    <glyph glyph-name="idieresis" unicode="&#xef;" horiz-adv-x="587" 
d="M31 1217l57 329h348l-57 -329h-348zM455 1217l57 329h348l-57 -329h-348zM-2 0l188 1065h410l-188 -1065h-410z" />
    <glyph glyph-name="eth" unicode="&#xf0;" horiz-adv-x="1255" 
d="M1174 1587l-154 -143q155 -100 223 -285q66 -185 25 -422q-62 -347 -266 -557q-205 -211 -478 -211q-256 0 -387 155t-86 406q39 214 185 348q146 132 344 132q124 0 206.5 -58t112.5 -161l8 49q27 144 -8 214q-34 67 -145 87l-80 -76h-301l106 98l-211 15l74 419
l416 -59q9 -1 55 -10l59 59h302zM598 281q88 0 139 59.5t74 191.5q23 123 -6 178.5t-117 55.5q-91 0 -143.5 -57t-73.5 -179q-23 -131 7 -190t120 -59z" />
    <glyph glyph-name="ntilde" unicode="&#xf1;" horiz-adv-x="1302" 
d="M674 1298q-83 0 -96 -79h-185q31 173 106 257.5t201 84.5q60 0 136 -42t122 -42q85 0 95 79h184q-31 -176 -103 -259t-202 -83q-60 0 -136 42q-77 42 -122 42zM975 1096q166 0 236.5 -92.5t39.5 -268.5l-129 -735h-409l102 584q16 90 -8.5 130t-93.5 40q-90 0 -139.5 -48
t-67.5 -153v4l-98 -557h-410l188 1065h394l-50 -283q65 144 183 230q117 84 262 84z" />
    <glyph glyph-name="ograve" unicode="&#xf2;" horiz-adv-x="1282" 
d="M547 1567h356l6 -369h-280zM998 124q-190 -155 -455 -155q-267 0 -402 155q-135 154 -90 408q47 254 236 409q188 155 455 155q266 0 400 -155t89 -408q-45 -254 -233 -409zM598 281q88 0 138 59t75 192q25 131 -5 191.5t-120 60.5t-141 -60q-50 -59 -73 -191
q-23 -133 7 -192q28 -60 119 -60z" />
    <glyph glyph-name="oacute" unicode="&#xf3;" horiz-adv-x="1282" 
d="M602 1198l137 369h357l-213 -369h-281zM998 124q-190 -155 -455 -155q-267 0 -402 155q-135 154 -90 408q47 254 236 409q188 155 455 155q266 0 400 -155t89 -408q-45 -254 -233 -409zM598 281q88 0 138 59t75 192q25 131 -5 191.5t-120 60.5t-141 -60q-50 -59 -73 -191
q-23 -133 7 -192q28 -60 119 -60z" />
    <glyph glyph-name="ocircumflex" unicode="&#xf4;" horiz-adv-x="1282" 
d="M877 1198l-64 311l-174 -311h-315l237 369h524l107 -369h-315zM287 941q188 155 455 155q266 0 400 -155t89 -408q-45 -254 -233 -409q-190 -155 -455 -155q-267 0 -402 155q-135 154 -90 408q47 254 236 409zM811 532q25 131 -5 191.5t-120 60.5t-141 -60
q-50 -59 -73 -191q-23 -133 7 -192q28 -60 119 -60q88 0 138 59t75 192z" />
    <glyph glyph-name="otilde" unicode="&#xf5;" horiz-adv-x="1282" 
d="M907 1214q-59 0 -136 42t-122 42q-83 0 -96 -79h-184q31 173 106 257.5t201 84.5q60 0 136 -42q77 -42 122 -42q84 0 94 79h184q-31 -176 -103 -259t-202 -83zM998 124q-190 -155 -455 -155q-267 0 -402 155q-135 154 -90 408q47 254 236 409q188 155 455 155
q266 0 400 -155t89 -408q-45 -254 -233 -409zM598 281q88 0 138 59t75 192q25 131 -5 191.5t-120 60.5t-141 -60q-50 -59 -73 -191q-23 -133 7 -192q28 -60 119 -60z" />
    <glyph glyph-name="odieresis" unicode="&#xf6;" horiz-adv-x="1282" 
d="M375 1217l57 329h348l-57 -329h-348zM799 1217l57 329h348l-57 -329h-348zM998 124q-190 -155 -455 -155q-267 0 -402 155q-135 154 -90 408q47 254 236 409q188 155 455 155q266 0 400 -155t89 -408q-45 -254 -233 -409zM598 281q88 0 138 59t75 192q25 131 -5 191.5
t-120 60.5t-141 -60q-50 -59 -73 -191q-23 -133 7 -192q28 -60 119 -60z" />
    <glyph glyph-name="divide" unicode="&#xf7;" horiz-adv-x="1042" 
d="M424 766l47 266h279l-48 -266h-278zM98 684h899l-47 -266h-899zM297 49l47 266h279l-48 -266h-278z" />
    <glyph glyph-name="oslash" unicode="&#xf8;" horiz-adv-x="1282" 
d="M1065 1188h254l-195 -230q154 -154 107 -426q-45 -253 -233 -408q-190 -155 -455 -155q-126 0 -232 39l-129 -151h-254l222 258q-142 157 -99 417q47 254 236 409q188 155 454 155q115 0 217 -33zM471 532q0 -6 -3 -23.5t-3 -25.5l254 299q-14 2 -33 2q-90 0 -141 -60
t-74 -192zM811 532q2 16 4.5 32.5t4 26t1.5 13.5l-272 -317q19 -6 49 -6q88 0 138 59t75 192z" />
    <glyph glyph-name="ugrave" unicode="&#xf9;" horiz-adv-x="1296" 
d="M909 1567l6 -369h-280l-82 369h356zM791 479l102 586h410l-187 -1065h-393l45 256q-67 -133 -182 -210q-116 -77 -252 -77q-166 0 -236.5 92.5t-40.5 268.5l129 735h410l-102 -584q-16 -90 7 -130t91 -40q158 0 199 168z" />
    <glyph glyph-name="uacute" unicode="&#xfa;" horiz-adv-x="1296" 
d="M745 1567h357l-213 -369h-281zM791 479l102 586h410l-187 -1065h-393l45 256q-67 -133 -182 -210q-116 -77 -252 -77q-166 0 -236.5 92.5t-40.5 268.5l129 735h410l-102 -584q-16 -90 7 -130t91 -40q158 0 199 168z" />
    <glyph glyph-name="ucircumflex" unicode="&#xfb;" horiz-adv-x="1296" 
d="M883 1198l-64 311l-174 -311h-315l237 369h525l106 -369h-315zM791 479l102 586h410l-187 -1065h-393l45 256q-67 -133 -182 -210q-116 -77 -252 -77q-166 0 -236.5 92.5t-40.5 268.5l129 735h410l-102 -584q-16 -90 7 -130t91 -40q158 0 199 168z" />
    <glyph glyph-name="udieresis" unicode="&#xfc;" horiz-adv-x="1296" 
d="M438 1546h348l-57 -329h-348zM862 1546h348l-57 -329h-348zM791 479l102 586h410l-187 -1065h-393l45 256q-67 -133 -182 -210q-116 -77 -252 -77q-166 0 -236.5 92.5t-40.5 268.5l129 735h410l-102 -584q-16 -90 7 -130t91 -40q158 0 199 168z" />
    <glyph glyph-name="yacute" unicode="&#xfd;" horiz-adv-x="1269" 
d="M743 1567h357l-213 -369h-281zM694 465l246 600h420l-492 -1159q-66 -154 -210 -240q-145 -86 -330 -86q-146 0 -295 21l51 297h227q154 0 191 88l6 14h-322l-75 1065h428l30 -600l6 -320z" />
    <glyph glyph-name="thorn" unicode="&#xfe;" horiz-adv-x="1312" 
d="M942 1096q188 0 277 -155q88 -154 43 -408q-45 -255 -187 -409q-143 -155 -332 -155q-116 0 -192.5 62.5t-106.5 177.5l-112 -639h-410l352 1997h394l-140 -785q68 147 177 231q109 83 237 83zM842 532q23 132 -7 192t-118 60q-90 0 -141.5 -60t-73.5 -192
q-23 -132 7 -191.5t118 -59.5q90 0 141 59.5t74 191.5z" />
    <glyph glyph-name="ydieresis" unicode="&#xff;" horiz-adv-x="1269" 
d="M436 1546h348l-57 -329h-348zM860 1546h348l-57 -329h-348zM694 465l246 600h420l-492 -1159q-66 -154 -210 -240q-145 -86 -330 -86q-146 0 -295 21l51 297h227q154 0 191 88l6 14h-322l-75 1065h428l30 -600l6 -320z" />
    <glyph glyph-name="Amacron" unicode="&#x100;" horiz-adv-x="1660" 
d="M797 1925h585l-53 -307h-586zM1567 0h-461l-35 301h-553l-141 -301h-451l686 1454h781zM836 983l-164 -350h362l-39 350l-22 328z" />
    <glyph glyph-name="amacron" unicode="&#x101;" horiz-adv-x="1187" 
d="M475 1536h586l-53 -307h-586zM1133 287h2l-50 -287q-85 -20 -178 -20q-144 0 -213 50.5t-61 151.5q-64 -100 -166.5 -156.5t-226.5 -56.5q-139 0 -211 72q-71 71 -52 190q41 236 363 287q298 50 352 70l8 51q14 76 -5 110.5t-76 34.5q-58 0 -91.5 -41t-50.5 -133h-387
q39 220 204 354q165 132 394 132q217 0 328 -121q110 -122 76 -320l-43 -243q-14 -86 -1 -104q14 -21 85 -21zM481 233q68 0 115 42t61 124l7 31q-9 -4 -140 -37q-77 -18 -102 -35q-26 -18 -33 -57q-6 -33 16.5 -50.5t75.5 -17.5z" />
    <glyph glyph-name="Abreve" unicode="&#x102;" horiz-adv-x="1660" 
d="M1030 1577q-164 0 -236 94t-38 285h245q-27 -143 70 -143q48 -1 78.5 35t44.5 108h246q-69 -379 -410 -379zM1567 0h-461l-35 301h-553l-141 -301h-451l686 1454h781zM836 983l-164 -350h362l-39 350l-22 328z" />
    <glyph glyph-name="abreve" unicode="&#x103;" horiz-adv-x="1187" 
d="M709 1188q-164 0 -236.5 94.5t-38.5 284.5h246q-27 -143 70 -143q48 -1 78.5 35t43.5 108h246q-69 -379 -409 -379zM1133 287h2l-50 -287q-85 -20 -178 -20q-144 0 -213 50.5t-61 151.5q-64 -100 -166.5 -156.5t-226.5 -56.5q-139 0 -211 72q-71 71 -52 190
q41 236 363 287q298 50 352 70l8 51q14 76 -5 110.5t-76 34.5q-58 0 -91.5 -41t-50.5 -133h-387q39 220 204 354q165 132 394 132q217 0 328 -121q110 -122 76 -320l-43 -243q-14 -86 -1 -104q14 -21 85 -21zM481 233q68 0 115 42t61 124l7 31q-9 -4 -140 -37
q-77 -18 -102 -35q-26 -18 -33 -57q-6 -33 16.5 -50.5t75.5 -17.5z" />
    <glyph glyph-name="Aogonek" unicode="&#x104;" horiz-adv-x="1660" 
d="M1370 0l-113 -129q-32 -34 -34 -55q-2 -18 8 -27.5t33 -9.5h94l-41 -230h-303q-78 0 -112.5 38t-22.5 102q12 72 82 151l145 160l-35 301h-553l-141 -301h-451l686 1454h781l174 -1454h-197zM836 983l-164 -350h362l-39 350l-22 328z" />
    <glyph glyph-name="aogonek" unicode="&#x105;" horiz-adv-x="1187" 
d="M1038 -10l-104 -119q-33 -35 -35 -55q-4 -18 6.5 -27.5t34.5 -9.5h94l-41 -230h-303q-78 0 -112.5 38t-22.5 102q12 72 82 151l139 154q-157 39 -143 188q-64 -100 -166.5 -156.5t-226.5 -56.5q-139 0 -211 72q-71 71 -52 190q41 236 363 287q298 50 352 70l8 51
q14 76 -5 110.5t-76 34.5q-58 0 -91.5 -41t-50.5 -133h-387q39 220 204 354q165 132 394 132q217 0 328 -121q110 -122 76 -320l-43 -243q-14 -86 -1 -104q14 -21 85 -21h2l-50 -287zM481 233q68 0 115 42t61 124l7 31q-9 -4 -140 -37q-77 -18 -102 -35q-26 -18 -33 -57
q-6 -33 16.5 -50.5t75.5 -17.5z" />
    <glyph glyph-name="Cacute" unicode="&#x106;" horiz-adv-x="1540" 
d="M834 1587l137 369h356l-213 -369h-280zM204 178q-167 209 -107 549q59 341 300 549q241 209 574 209q307 0 466 -166q157 -166 111 -436h-430q20 117 -31 170t-182 53q-152 0 -237.5 -90t-120.5 -289q-35 -201 18 -292t205 -91q133 0 201.5 47t89.5 154h430
q-45 -261 -262 -418q-218 -158 -524 -158q-334 0 -501 209z" />
    <glyph glyph-name="cacute" unicode="&#x107;" horiz-adv-x="1226" 
d="M584 1198l137 369h356l-213 -369h-280zM772 436h389q-38 -212 -206 -339q-170 -128 -408 -128q-267 0 -404 155t-92 408q47 254 238 409t456 155q240 0 363 -135q123 -136 84 -355h-389q16 94 -10.5 136t-102.5 42q-92 0 -143 -59t-76 -193q-23 -133 7.5 -192t123.5 -59
q76 0 116 36.5t54 118.5z" />
    <glyph glyph-name="Ccircumflex" unicode="&#x108;" horiz-adv-x="1540" 
d="M1108 1587l-64 311l-174 -311h-315l238 369h524l106 -369h-315zM1548 883h-430q20 117 -31 170t-182 53q-152 0 -237.5 -90t-120.5 -289q-35 -201 18 -292t205 -91q133 0 201.5 47t89.5 154h430q-45 -261 -262 -418q-218 -158 -524 -158q-334 0 -501 209t-107 549
q59 341 300 549q241 209 574 209q307 0 466 -166q157 -166 111 -436z" />
    <glyph glyph-name="ccircumflex" unicode="&#x109;" horiz-adv-x="1226" 
d="M858 1198l-63 311l-174 -311h-316l238 369h524l107 -369h-316zM1192 606h-389q16 94 -10.5 136t-102.5 42q-92 0 -143 -59t-76 -193q-23 -133 7.5 -192t123.5 -59q76 0 116 36.5t54 118.5h389q-38 -212 -206 -339q-170 -128 -408 -128q-267 0 -404 155t-92 408
q47 254 238 409t456 155q240 0 363 -135q123 -136 84 -355z" />
    <glyph glyph-name="Cdotaccent" unicode="&#x10a;" horiz-adv-x="1540" 
d="M778 1606l58 329h430l-58 -329h-430zM204 178q-167 209 -107 549q59 341 300 549q241 209 574 209q307 0 466 -166q157 -166 111 -436h-430q20 117 -31 170t-182 53q-152 0 -237.5 -90t-120.5 -289q-35 -201 18 -292t205 -91q133 0 201.5 47t89.5 154h430
q-45 -261 -262 -418q-218 -158 -524 -158q-334 0 -501 209z" />
    <glyph glyph-name="cdotaccent" unicode="&#x10b;" horiz-adv-x="1226" 
d="M528 1217l58 329h430l-58 -329h-430zM772 436h389q-38 -212 -206 -339q-170 -128 -408 -128q-267 0 -404 155t-92 408q47 254 238 409t456 155q240 0 363 -135q123 -136 84 -355h-389q16 94 -10.5 136t-102.5 42q-92 0 -143 -59t-76 -193q-23 -133 7.5 -192t123.5 -59
q76 0 116 36.5t54 118.5z" />
    <glyph glyph-name="Ccaron" unicode="&#x10c;" horiz-adv-x="1540" 
d="M1251 1587h-524l-106 369h315l63 -311l175 311h315zM1548 883h-430q20 117 -31 170t-182 53q-152 0 -237.5 -90t-120.5 -289q-35 -201 18 -292t205 -91q133 0 201.5 47t89.5 154h430q-45 -261 -262 -418q-218 -158 -524 -158q-334 0 -501 209t-107 549q59 341 300 549
q241 209 574 209q307 0 466 -166q157 -166 111 -436z" />
    <glyph glyph-name="ccaron" unicode="&#x10d;" horiz-adv-x="1226" 
d="M1001 1198h-524l-106 369h315l64 -312l174 312h315zM745 1096q240 0 363 -135q123 -136 84 -355h-389q16 94 -10.5 136t-102.5 42q-92 0 -143 -59t-76 -193q-23 -133 7.5 -192t123.5 -59q76 0 116 36.5t54 118.5h389q-38 -212 -206 -339q-170 -128 -408 -128
q-267 0 -404 155t-92 408q47 254 238 409t456 155z" />
    <glyph glyph-name="Dcaron" unicode="&#x10e;" horiz-adv-x="1595" 
d="M1251 1587h-524l-106 369h315l63 -311l175 311h315zM274 1454h670q338 0 510 -199t115 -528q-58 -327 -300 -527q-244 -200 -581 -200h-670zM1118 727q61 358 -254 358h-215l-127 -727h215q315 0 381 369z" />
    <glyph glyph-name="dcaron" unicode="&#x10f;" horiz-adv-x="1308" 
d="M870 854l125 713h410l-277 -1567h-393l49 285q-66 -148 -175 -231q-109 -85 -238 -85q-187 0 -276 155t-44 408q46 253 190 409q143 155 328 155q117 0 195 -63.5t106 -178.5zM1468 1366l37 201h359l-43 -246q-22 -126 -142 -206q-119 -79 -295 -79l27 154q187 0 209 123
zM598 281q88 0 139 59.5t74 191.5q25 131 -5 191.5t-120 60.5q-88 0 -139 -59.5t-76 -192.5q-23 -131 7 -191t120 -60z" />
    <glyph glyph-name="Dcroat" unicode="&#x110;" horiz-adv-x="1595" 
d="M274 1454h670q338 0 510 -199t115 -528q-58 -327 -300 -527q-244 -200 -581 -200h-670l105 590h-143l51 287h141zM1118 727q61 358 -254 358h-215l-37 -208h248l-51 -287h-246l-41 -232h215q315 0 381 369z" />
    <glyph glyph-name="dslash" unicode="&#x111;" horiz-adv-x="1308" 
d="M1382 1436h125l-47 -267h-125l-207 -1169h-393l49 285q-66 -148 -175 -231q-109 -85 -238 -85q-187 0 -276 155t-44 408q46 253 190 409q143 155 328 155q117 0 195 -63.5t106 -178.5l56 315h-402l47 267h402l22 131h410zM598 281q88 0 139 59.5t74 191.5
q25 131 -5 191.5t-120 60.5q-88 0 -139 -59.5t-76 -192.5q-23 -131 7 -191t120 -60z" />
    <glyph glyph-name="Emacron" unicode="&#x112;" horiz-adv-x="1316" 
d="M635 1925h586l-54 -307h-585zM1405 1454l-66 -369h-690l-33 -190h660l-57 -328h-660l-35 -198h693l-66 -369h-1133l256 1454h1131z" />
    <glyph glyph-name="emacron" unicode="&#x113;" horiz-adv-x="1247" 
d="M518 1536h586l-53 -307h-586zM735 1096q253 0 384 -140q130 -140 89 -370l-26 -148h-721q-2 -88 32.5 -128t112.5 -40q154 0 168 99h389q-32 -181 -204 -290q-173 -110 -422 -110q-262 0 -396 155q-135 154 -90 408q47 254 235 409t449 155zM496 635l188 4h131
q4 82 -27.5 119t-105.5 37q-134 0 -186 -160z" />
    <glyph glyph-name="Ebreve" unicode="&#x114;" horiz-adv-x="1316" 
d="M868 1577q-164 0 -236 94t-38 285h246q-27 -143 70 -143q48 -1 78.5 35t43.5 108h246q-69 -379 -410 -379zM1405 1454l-66 -369h-690l-33 -190h660l-57 -328h-660l-35 -198h693l-66 -369h-1133l256 1454h1131z" />
    <glyph glyph-name="ebreve" unicode="&#x115;" horiz-adv-x="1247" 
d="M752 1188q-164 0 -236.5 94.5t-38.5 284.5h246q-27 -143 70 -143q48 -1 78.5 35t43.5 108h246q-69 -379 -409 -379zM735 1096q253 0 384 -140q130 -140 89 -370l-26 -148h-721q-2 -88 32.5 -128t112.5 -40q154 0 168 99h389q-32 -181 -204 -290q-173 -110 -422 -110
q-262 0 -396 155q-135 154 -90 408q47 254 235 409t449 155zM496 635l188 4h131q4 82 -27.5 119t-105.5 37q-134 0 -186 -160z" />
    <glyph glyph-name="Edotaccent" unicode="&#x116;" horiz-adv-x="1316" 
d="M715 1935h430l-58 -329h-430zM1405 1454l-66 -369h-690l-33 -190h660l-57 -328h-660l-35 -198h693l-66 -369h-1133l256 1454h1131z" />
    <glyph glyph-name="edotaccent" unicode="&#x117;" horiz-adv-x="1247" 
d="M598 1546h430l-57 -329h-430zM735 1096q253 0 384 -140q130 -140 89 -370l-26 -148h-721q-2 -88 32.5 -128t112.5 -40q154 0 168 99h389q-32 -181 -204 -290q-173 -110 -422 -110q-262 0 -396 155q-135 154 -90 408q47 254 235 409t449 155zM496 635l188 4h131
q4 82 -27.5 119t-105.5 37q-134 0 -186 -160z" />
    <glyph glyph-name="Eogonek" unicode="&#x118;" horiz-adv-x="1316" 
d="M1405 1454l-66 -369h-690l-33 -190h660l-57 -328h-660l-35 -198h693l-66 -369l-113 -129q-32 -34 -34 -55q-5 -37 40 -37h95l-41 -230h-303q-78 0 -112 38t-24 102q12 72 82 151l146 160h-869l256 1454h1131z" />
    <glyph glyph-name="eogonek" unicode="&#x119;" horiz-adv-x="1247" 
d="M735 1096q253 0 384 -140q130 -140 89 -370l-26 -148h-721q-2 -88 32.5 -128t112.5 -40q154 0 168 99h389q-22 -131 -127 -230q-103 -97 -266 -141l-111 -127q-32 -34 -34 -55q-4 -18 6.5 -27.5t34.5 -9.5h94l-41 -230h-303q-78 0 -113 38t-22 102q12 71 81 151l119 131
q-239 17 -354 169q-117 153 -76 392q47 254 235 409t449 155zM496 635l188 4h131q4 82 -27.5 119t-105.5 37q-134 0 -186 -160z" />
    <glyph glyph-name="Ecaron" unicode="&#x11a;" horiz-adv-x="1316" 
d="M1130 1587h-524l-106 369h315l64 -311l174 311h315zM1405 1454l-66 -369h-690l-33 -190h660l-57 -328h-660l-35 -198h693l-66 -369h-1133l256 1454h1131z" />
    <glyph glyph-name="ecaron" unicode="&#x11b;" horiz-adv-x="1247" 
d="M1014 1198h-525l-106 369h315l64 -312l174 312h315zM735 1096q253 0 384 -140q130 -140 89 -370l-26 -148h-721q-2 -88 32.5 -128t112.5 -40q154 0 168 99h389q-32 -181 -204 -290q-173 -110 -422 -110q-262 0 -396 155q-135 154 -90 408q47 254 235 409t449 155z
M496 635l188 4h131q4 82 -27.5 119t-105.5 37q-134 0 -186 -160z" />
    <glyph glyph-name="Gcircumflex" unicode="&#x11c;" horiz-adv-x="1607" 
d="M1128 1587l-63 311l-174 -311h-316l238 369h524l107 -369h-316zM1591 903h-430q20 106 -36 154.5t-199 48.5q-164 0 -254 -90t-125 -289q-35 -205 22.5 -297t221.5 -92q139 0 211.5 44t95.5 144h-336l51 287h772l-143 -813h-389l67 381q-145 -412 -534 -412
q-283 0 -418 199q-134 199 -76 539q63 355 309 566q247 212 590 212q315 0 481 -160q165 -160 119 -422z" />
    <glyph glyph-name="gcircumflex" unicode="&#x11d;" horiz-adv-x="1218" 
d="M1370 1300l-51 -296q-182 0 -227 -39q96 -97 67 -250q-32 -170 -196 -276q-167 -107 -420 -107q-121 0 -213 24q-2 -2 -2 -7t-2 -7q-8 -39 19.5 -56.5t96.5 -17.5h363q171 0 260 -82q90 -83 65 -217q-33 -176 -218 -283q-184 -106 -476 -106q-283 0 -433 69
q-149 70 -130 187q10 60 61 104t125 58q-92 77 -73 178q27 152 209 236q-168 110 -134 303q32 175 195 278t420 103q152 0 268 -39q26 87 80 141h-211l-63 311l-175 -311h-315l238 369h524l90 -310q95 43 258 43zM750 715q10 60 -17.5 87t-101.5 27q-79 0 -114.5 -26
t-47.5 -88q-12 -64 14 -90.5t107 -26.5q75 0 112.5 27t47.5 90zM649 -55h-401l-6 -29q-12 -66 35 -89q45 -22 198 -22q148 0 199 16q50 16 61 66q6 33 -13 45.5t-73 12.5z" />
    <glyph glyph-name="Gbreve" unicode="&#x11e;" horiz-adv-x="1607" 
d="M1010 1577q-164 0 -236.5 94.5t-38.5 284.5h246q-27 -143 70 -143q48 -1 78.5 35t44.5 108h245q-69 -379 -409 -379zM1591 903h-430q20 106 -36 154.5t-199 48.5q-164 0 -254 -90t-125 -289q-35 -205 22.5 -297t221.5 -92q139 0 211.5 44t95.5 144h-336l51 287h772
l-143 -813h-389l67 381q-145 -412 -534 -412q-283 0 -418 199q-134 199 -76 539q63 355 309 566q247 212 590 212q315 0 481 -160q165 -160 119 -422z" />
    <glyph glyph-name="gbreve" unicode="&#x11f;" horiz-adv-x="1218" 
d="M694 1188q-164 0 -236 94t-38 285h246q-27 -143 69 -143q48 -1 78.5 35t44.5 108h246q-69 -379 -410 -379zM1370 1300l-51 -296q-182 0 -227 -39q96 -97 67 -250q-32 -170 -196 -276q-167 -107 -420 -107q-121 0 -213 24q-2 -2 -2 -7t-2 -7q-8 -39 19.5 -56.5t96.5 -17.5
h363q171 0 260 -82q90 -83 65 -217q-33 -176 -218 -283q-184 -106 -476 -106q-283 0 -433 69q-149 70 -130 187q10 60 61 104t125 58q-92 77 -73 178q27 152 209 236q-168 110 -134 303q32 175 195 278t420 103q152 0 268 -39q40 126 136 184q98 59 290 59zM750 715
q10 60 -17.5 87t-101.5 27q-79 0 -114.5 -26t-47.5 -88q-12 -64 14 -90.5t107 -26.5q75 0 112.5 27t47.5 90zM649 -55h-401l-6 -29q-12 -66 35 -89q45 -22 198 -22q148 0 199 16q50 16 61 66q6 33 -13 45.5t-73 12.5z" />
    <glyph glyph-name="Gdotaccent" unicode="&#x120;" horiz-adv-x="1607" 
d="M856 1935h430l-57 -329h-430zM1591 903h-430q20 106 -36 154.5t-199 48.5q-164 0 -254 -90t-125 -289q-35 -205 22.5 -297t221.5 -92q139 0 211.5 44t95.5 144h-336l51 287h772l-143 -813h-389l67 381q-145 -412 -534 -412q-283 0 -418 199q-134 199 -76 539
q63 355 309 566q247 212 590 212q315 0 481 -160q165 -160 119 -422z" />
    <glyph glyph-name="gdotaccent" unicode="&#x121;" horiz-adv-x="1218" 
d="M541 1546h430l-58 -329h-430zM1370 1300l-51 -296q-182 0 -227 -39q96 -97 67 -250q-32 -170 -196 -276q-167 -107 -420 -107q-121 0 -213 24q-2 -2 -2 -7t-2 -7q-8 -39 19.5 -56.5t96.5 -17.5h363q171 0 260 -82q90 -83 65 -217q-33 -176 -218 -283q-184 -106 -476 -106
q-283 0 -433 69q-149 70 -130 187q10 60 61 104t125 58q-92 77 -73 178q27 152 209 236q-168 110 -134 303q32 175 195 278t420 103q152 0 268 -39q40 126 136 184q98 59 290 59zM750 715q10 60 -17.5 87t-101.5 27q-79 0 -114.5 -26t-47.5 -88q-12 -64 14 -90.5t107 -26.5
q75 0 112.5 27t47.5 90zM649 -55h-401l-6 -29q-12 -66 35 -89q45 -22 198 -22q148 0 199 16q50 16 61 66q6 33 -13 45.5t-73 12.5z" />
    <glyph glyph-name="uni0122" unicode="&#x122;" horiz-adv-x="1607" 
d="M1591 903h-430q20 106 -36 154.5t-199 48.5q-164 0 -254 -90t-125 -289q-35 -205 22.5 -297t221.5 -92q139 0 211.5 44t95.5 144h-336l51 287h772l-143 -813h-389l67 381q-145 -412 -534 -412q-283 0 -418 199q-134 199 -76 539q63 355 309 566q247 212 590 212
q315 0 481 -160q165 -160 119 -422zM645 -369l-151 54l36 200h359l-43 -245q-22 -126 -142 -206q-119 -79 -294 -79l26 153q186 0 209 123z" />
    <glyph glyph-name="uni0123" unicode="&#x123;" horiz-adv-x="1218" 
d="M748 1452l170 -53l-35 -201h-379l43 246q22 126 149 206q124 79 308 79l-29 -154q-110 0 -163.5 -28.5t-63.5 -94.5zM1370 1300l-51 -296q-182 0 -227 -39q96 -97 67 -250q-32 -170 -196 -276q-167 -107 -420 -107q-121 0 -213 24q-2 -2 -2 -7t-2 -7q-8 -39 19.5 -56.5
t96.5 -17.5h363q171 0 260 -82q90 -83 65 -217q-33 -176 -218 -283q-184 -106 -476 -106q-283 0 -433 69q-149 70 -130 187q10 60 61 104t125 58q-92 77 -73 178q27 152 209 236q-168 110 -134 303q32 175 195 278t420 103q152 0 268 -39q40 126 136 184q98 59 290 59z
M750 715q10 60 -17.5 87t-101.5 27q-79 0 -114.5 -26t-47.5 -88q-12 -64 14 -90.5t107 -26.5q75 0 112.5 27t47.5 90zM649 -55h-401l-6 -29q-12 -66 35 -89q45 -22 198 -22q148 0 199 16q50 16 61 66q6 33 -13 45.5t-73 12.5z" />
    <glyph glyph-name="Hcircumflex" unicode="&#x124;" horiz-adv-x="1648" 
d="M1118 1587l-63 311l-174 -311h-316l238 369h524l107 -369h-316zM1163 915l94 539h441l-256 -1454h-441l97 547h-543l-96 -547h-441l256 1454h441l-94 -539h542z" />
    <glyph glyph-name="hcircumflex" unicode="&#x125;" horiz-adv-x="1302" 
d="M621 1700l-64 311l-174 -311h-315l237 368h524l107 -368h-315zM975 1096q166 0 236.5 -92.5t39.5 -268.5l-129 -735h-409l102 584q16 90 -8.5 130t-93.5 40q-90 0 -139.5 -48t-67.5 -153v4l-98 -557h-410l276 1567h410l-133 -750q68 132 180 205q112 74 244 74z" />
    <glyph glyph-name="Hbar" unicode="&#x126;" horiz-adv-x="1648" 
d="M1677 1335h140l-52 -286h-139l-184 -1049h-441l97 547h-543l-96 -547h-441l185 1049h-148l51 286h148l20 119h441l-21 -119h543l20 119h441zM621 915h542l23 134h-543z" />
    <glyph glyph-name="hbar" unicode="&#x127;" horiz-adv-x="1302" 
d="M975 1096q166 0 236.5 -92.5t39.5 -268.5l-129 -735h-409l102 584q16 90 -8.5 130t-93.5 40q-90 0 -139.5 -48t-67.5 -153v4l-98 -557h-410l207 1167h-195l47 267h195l22 133h410l-22 -133h331l-47 -267h-332l-63 -350q68 132 180 205q112 74 244 74z" />
    <glyph glyph-name="Itilde" unicode="&#x128;" horiz-adv-x="665" 
d="M668 1604q-60 0 -136 42q-77 42 -122 42q-82 0 -97 -80h-184q31 173 106 257.5t201 84.5q60 0 136 -42t122 -42q83 0 94 80h185q-31 -176 -103 -259t-202 -83zM18 0l256 1454h441l-256 -1454h-441z" />
    <glyph glyph-name="itilde" unicode="&#x129;" horiz-adv-x="587" 
d="M563 1214q-59 0 -136 42q-76 42 -122 42q-83 0 -96 -79h-184q31 173 106 257.5t201 84.5q59 0 136 -42q76 -42 122 -42q84 0 94 79h184q-31 -176 -103 -259t-202 -83zM-2 0l188 1065h410l-188 -1065h-410z" />
    <glyph glyph-name="Imacron" unicode="&#x12a;" horiz-adv-x="665" 
d="M285 1925h585l-53 -307h-586zM18 0l256 1454h441l-256 -1454h-441z" />
    <glyph glyph-name="imacron" unicode="&#x12b;" horiz-adv-x="587" 
d="M180 1536h586l-53 -307h-586zM-2 0l188 1065h410l-188 -1065h-410z" />
    <glyph glyph-name="Ibreve" unicode="&#x12c;" horiz-adv-x="665" 
d="M682 1956h246q-69 -379 -410 -379q-164 0 -236 94t-38 285h245q-27 -143 70 -143q48 -1 78.5 35t44.5 108zM18 0l256 1454h441l-256 -1454h-441z" />
    <glyph glyph-name="ibreve" unicode="&#x12d;" horiz-adv-x="587" 
d="M578 1567h245q-35 -191 -139.5 -285t-269.5 -94q-164 0 -236.5 94.5t-38.5 284.5h246q-27 -143 70 -143q48 -1 78.5 35t44.5 108zM-2 0l188 1065h410l-188 -1065h-410z" />
    <glyph glyph-name="Iogonek" unicode="&#x12e;" horiz-adv-x="665" 
d="M459 0l-113 -129q-33 -35 -35 -55q-2 -18 7.5 -27.5t33.5 -9.5h94l-40 -230h-304q-78 0 -111.5 37.5t-23.5 102.5q12 72 82 151l146 160h-177l256 1454h441z" />
    <glyph glyph-name="iogonek" unicode="&#x12f;" horiz-adv-x="587" 
d="M203 1217l57 329h430l-57 -329h-430zM143 0h-145l188 1065h410l-188 -1065l-113 -129q-33 -35 -35 -55q-4 -18 6.5 -27.5t34.5 -9.5h94l-41 -230h-303q-78 0 -112.5 38t-22.5 102q12 72 82 151z" />
    <glyph glyph-name="Idot" unicode="&#x130;" horiz-adv-x="665" 
d="M307 1606l58 329h430l-58 -329h-430zM18 0l256 1454h441l-256 -1454h-441z" />
    <glyph glyph-name="dotlessi" unicode="&#x131;" horiz-adv-x="587" 
d="M-2 0l188 1065h410l-188 -1065h-410z" />
    <glyph glyph-name="IJ" unicode="&#x132;" horiz-adv-x="1329" 
d="M80 338h575q94 0 113 100l180 1016h441l-189 -1065q-35 -188 -205 -304t-415 -116q-314 0 -555 60zM123 553l160 901h440l-160 -901h-440z" />
    <glyph glyph-name="ij" unicode="&#x133;" horiz-adv-x="1169" 
d="M260 1546h430l-57 -329h-430zM786 1217l58 329h430l-57 -329h-431zM186 1065h410l-188 -1065h-410zM582 -2l188 1067h410l-195 -1106q-32 -171 -169 -275q-139 -104 -333 -104q-77 0 -151 21l51 297h84q97 0 115 100z" />
    <glyph glyph-name="Jcircumflex" unicode="&#x134;" horiz-adv-x="1341" 
d="M1325 1587l-63 311l-175 -311h-315l238 369h524l106 -369h-315zM809 594l152 860h440l-164 -926q-45 -252 -240 -405q-196 -154 -473 -154q-272 0 -408 165q-136 164 -89 435h430q-20 -117 11.5 -169t123.5 -52t143 58t74 188z" />
    <glyph glyph-name="jcircumflex" unicode="&#x135;" horiz-adv-x="573" 
d="M530 1198l-63 311l-174 -311h-316l238 369h524l107 -369h-316zM-4 -2l188 1067h410l-195 -1106q-32 -171 -169 -275q-139 -104 -332 -104q-78 0 -152 21l51 297h84q97 0 115 100z" />
    <glyph glyph-name="uni0136" unicode="&#x136;" horiz-adv-x="1591" 
d="M1221 1454h503l-675 -715l479 -739h-547l-291 477l-108 207l-121 -684h-443l256 1454h443l-119 -678l180 209zM637 -369l-152 54l37 200h359l-43 -245q-22 -126 -143 -206q-119 -79 -294 -79l27 153q186 0 209 123z" />
    <glyph glyph-name="uni0137" unicode="&#x137;" horiz-adv-x="1353" 
d="M946 1065h451l-469 -502l362 -563h-518l-209 354l-69 133l-86 -487h-410l276 1567h410l-174 -983l117 135zM492 -369l-152 54l37 200h358l-43 -245q-22 -126 -142 -206q-119 -79 -294 -79l27 153q187 0 209 123z" />
    <glyph glyph-name="kgreenlandic" unicode="&#x138;" horiz-adv-x="1353" 
d="M946 1065h451l-469 -502l362 -563h-518l-209 354l-69 133l-86 -487h-410l188 1065h410l-86 -481l117 135z" />
    <glyph glyph-name="Lacute" unicode="&#x139;" horiz-adv-x="1245" 
d="M500 1956h356l-213 -369h-281zM715 1454l-191 -1085h652l-66 -369h-1092l256 1454h441z" />
    <glyph glyph-name="lacute" unicode="&#x13a;" horiz-adv-x="661" 
d="M465 2028h356l-213 -369h-280zM264 1567h410l-207 -1164q-18 -106 88 -106h43l-51 -297q-97 -20 -201 -20q-161 0 -244 101q-82 99 -53 267z" />
    <glyph glyph-name="uni013B" unicode="&#x13b;" horiz-adv-x="1245" 
d="M715 1454l-191 -1085h652l-66 -369h-1092l256 1454h441zM489 -369l-151 54l37 200h358l-43 -245q-22 -126 -142 -206q-119 -79 -294 -79l27 153q186 0 208 123z" />
    <glyph glyph-name="uni013C" unicode="&#x13c;" horiz-adv-x="661" 
d="M674 1567l-207 -1164q-18 -106 88 -106h43l-51 -297q-97 -20 -201 -20q-161 0 -244 101q-82 99 -53 267l215 1219h410zM211 -369l-152 54l37 200h359l-43 -245q-22 -126 -142 -206q-119 -79 -295 -79l27 153q186 0 209 123z" />
    <glyph glyph-name="Lcaron" unicode="&#x13d;" horiz-adv-x="1245" 
d="M274 1454h441l-191 -1085h652l-66 -369h-1092zM834 1253l36 201h359l-43 -246q-22 -126 -142 -205q-119 -79 -294 -79l26 153q186 0 209 123z" />
    <glyph glyph-name="lcaron" unicode="&#x13e;" horiz-adv-x="661" 
d="M674 1567l-207 -1164q-18 -106 88 -106h43l-51 -297q-97 -20 -201 -20q-161 0 -244 101q-82 99 -53 267l215 1219h410zM743 1366l37 201h359l-43 -246q-22 -126 -142 -206q-119 -79 -295 -79l27 154q186 0 209 123z" />
    <glyph glyph-name="Ldot" unicode="&#x13f;" horiz-adv-x="1245" 
d="M715 1454l-191 -1085h652l-66 -369h-1092l256 1454h441zM1137 995l-70 -391h-391l69 391h392z" />
    <glyph glyph-name="ldot" unicode="&#x140;" horiz-adv-x="1310" 
d="M674 1567l-207 -1164q-18 -106 88 -106h43l-51 -297q-97 -20 -201 -20q-161 0 -244 101q-82 99 -53 267l215 1219h410zM664 565l69 391h391l-69 -391h-391z" />
    <glyph glyph-name="Lslash" unicode="&#x141;" horiz-adv-x="1245" 
d="M557 563l-33 -194h652l-66 -369h-1092l72 410l-113 -45l64 356l113 43l120 690h441l-94 -534l376 145l-61 -356z" />
    <glyph glyph-name="lslash" unicode="&#x142;" horiz-adv-x="661" 
d="M707 682l-215 -137l-25 -142q-18 -106 88 -106h43l-51 -297q-97 -20 -201 -20q-161 0 -244 101q-82 99 -53 267l6 41l-123 -78l66 367l123 78l143 811h410l-117 -656l213 138z" />
    <glyph glyph-name="Nacute" unicode="&#x143;" horiz-adv-x="1736" 
d="M1055 1956h356l-213 -369h-280zM1237 799l115 655h434l-256 -1454h-770l-96 1276l-97 -621l-114 -655h-435l256 1454h775l96 -1253z" />
    <glyph glyph-name="nacute" unicode="&#x144;" horiz-adv-x="1302" 
d="M764 1567h356l-213 -369h-280zM975 1096q166 0 236.5 -92.5t39.5 -268.5l-129 -735h-409l102 584q16 90 -8.5 130t-93.5 40q-90 0 -139.5 -48t-67.5 -153v4l-98 -557h-410l188 1065h394l-50 -283q65 144 183 230q117 84 262 84z" />
    <glyph glyph-name="uni0145" unicode="&#x145;" horiz-adv-x="1736" 
d="M1237 799l115 655h434l-256 -1454h-770l-96 1276l-97 -621l-114 -655h-435l256 1454h775l96 -1253zM715 -369l-152 54l37 200h358l-43 -245q-22 -126 -142 -206q-119 -79 -294 -79l27 153q186 0 209 123z" />
    <glyph glyph-name="uni0146" unicode="&#x146;" horiz-adv-x="1302" 
d="M975 1096q166 0 236.5 -92.5t39.5 -268.5l-129 -735h-409l102 584q16 90 -8.5 130t-93.5 40q-90 0 -139.5 -48t-67.5 -153v4l-98 -557h-410l188 1065h394l-50 -283q65 144 183 230q117 84 262 84zM475 -369l-151 54l36 200h359l-43 -245q-22 -126 -142 -206
q-119 -79 -294 -79l26 153q186 0 209 123z" />
    <glyph glyph-name="Ncaron" unicode="&#x147;" horiz-adv-x="1736" 
d="M1335 1587h-524l-106 369h315l63 -311l174 311h316zM1237 799l115 655h434l-256 -1454h-770l-96 1276l-97 -621l-114 -655h-435l256 1454h775l96 -1253z" />
    <glyph glyph-name="ncaron" unicode="&#x148;" horiz-adv-x="1302" 
d="M1044 1198h-524l-106 369h315l64 -312l174 312h315zM975 1096q166 0 236.5 -92.5t39.5 -268.5l-129 -735h-409l102 584q16 90 -8.5 130t-93.5 40q-90 0 -139.5 -48t-67.5 -153v4l-98 -557h-410l188 1065h394l-50 -283q65 144 183 230q117 84 262 84z" />
    <glyph glyph-name="napostrophe" unicode="&#x149;" horiz-adv-x="1701" 
d="M569 1454l-49 -276q-27 -153 -148 -244q-122 -92 -306 -92l26 153q109 0 164 36t70 116l-164 86l39 221h368zM1374 1096q166 0 236.5 -92.5t40.5 -268.5l-129 -735h-410l102 584q16 90 -8 130t-94 40q-90 0 -139 -47.5t-68 -153.5v4l-98 -557h-410l189 1065h393l-49 -283
q65 144 183 230q115 84 261 84z" />
    <glyph glyph-name="Eng" unicode="&#x14a;" horiz-adv-x="1736" 
d="M1237 799l115 655h434l-256 -1454l-10 -61q-27 -162 -166 -261q-140 -98 -336 -98q-86 0 -172 21l51 297h84q51 0 77.5 23t37.5 77v2h-336l-96 1276l-97 -621l-114 -655h-435l256 1454h775l96 -1253z" />
    <glyph glyph-name="eng" unicode="&#x14b;" horiz-adv-x="1304" 
d="M975 1096q166 0 236.5 -92.5t39.5 -268.5l-139 -807q-32 -171 -169 -275q-139 -104 -333 -104q-78 0 -151 21l51 297h84q96 0 115 106l106 611q16 90 -8.5 130t-93.5 40q-161 0 -201 -168l-102 -586h-410l186 1065h394l-48 -277q67 144 183 226t260 82z" />
    <glyph glyph-name="Omacron" unicode="&#x14c;" horiz-adv-x="1646" 
d="M776 1925h586l-53 -307h-586zM1314 178q-248 -209 -589 -209q-342 0 -515 209t-113 549q59 341 306 549q247 209 588 209q342 0 515 -209q172 -208 114 -549t-306 -549zM570 435q57 -91 221 -91q163 0 254 91q89 91 124 292q35 199 -22 289t-221 90t-254 -90t-125 -289
q-35 -202 23 -292z" />
    <glyph glyph-name="omacron" unicode="&#x14d;" horiz-adv-x="1282" 
d="M524 1536h586l-53 -307h-586zM998 124q-190 -155 -455 -155q-267 0 -402 155q-135 154 -90 408q47 254 236 409q188 155 455 155q266 0 400 -155t89 -408q-45 -254 -233 -409zM598 281q88 0 138 59t75 192q25 131 -5 191.5t-120 60.5t-141 -60q-50 -59 -73 -191
q-23 -133 7 -192q28 -60 119 -60z" />
    <glyph glyph-name="Obreve" unicode="&#x14e;" horiz-adv-x="1646" 
d="M1174 1956h245q-35 -191 -139.5 -285t-269.5 -94q-164 0 -236.5 94.5t-38.5 284.5h246q-27 -143 70 -143q48 -1 78.5 35t44.5 108zM1314 178q-248 -209 -589 -209q-342 0 -515 209t-113 549q59 341 306 549q247 209 588 209q342 0 515 -209q172 -208 114 -549t-306 -549z
M570 435q57 -91 221 -91q163 0 254 91q89 91 124 292q35 199 -22 289t-221 90t-254 -90t-125 -289q-35 -202 23 -292z" />
    <glyph glyph-name="obreve" unicode="&#x14f;" horiz-adv-x="1282" 
d="M922 1567h245q-69 -379 -409 -379q-164 0 -236 94t-39 285h246q-27 -143 70 -143q48 -1 78.5 35t44.5 108zM998 124q-190 -155 -455 -155q-267 0 -402 155q-135 154 -90 408q47 254 236 409q188 155 455 155q266 0 400 -155t89 -408q-45 -254 -233 -409zM598 281
q88 0 138 59t75 192q25 131 -5 191.5t-120 60.5t-141 -60q-50 -59 -73 -191q-23 -133 7 -192q28 -60 119 -60z" />
    <glyph glyph-name="Ohungarumlaut" unicode="&#x150;" horiz-adv-x="1646" 
d="M690 1587l137 369h306l-162 -369h-281zM1049 1587l137 369h356l-213 -369h-280zM1314 178q-248 -209 -589 -209q-342 0 -515 209t-113 549q59 341 306 549q247 209 588 209q342 0 515 -209q172 -208 114 -549t-306 -549zM570 435q57 -91 221 -91q163 0 254 91
q89 91 124 292q35 199 -22 289t-221 90t-254 -90t-125 -289q-35 -202 23 -292z" />
    <glyph glyph-name="ohungarumlaut" unicode="&#x151;" horiz-adv-x="1282" 
d="M432 1198l137 369h305l-161 -369h-281zM791 1198l137 369h356l-213 -369h-280zM998 124q-190 -155 -455 -155q-267 0 -402 155q-135 154 -90 408q47 254 236 409q188 155 455 155q266 0 400 -155t89 -408q-45 -254 -233 -409zM598 281q88 0 138 59t75 192
q25 131 -5 191.5t-120 60.5t-141 -60q-50 -59 -73 -191q-23 -133 7 -192q28 -60 119 -60z" />
    <glyph glyph-name="OE" unicode="&#x152;" horiz-adv-x="2246" 
d="M2335 1454l-66 -369h-690l-33 -190h660l-58 -328h-659l-35 -198h692l-65 -369h-1362q-338 0 -509 200t-113 527q57 328 299 528q241 199 579 199h1360zM797 358h215l127 727h-215q-316 0 -377 -358q-65 -369 250 -369z" />
    <glyph glyph-name="oe" unicode="&#x153;" horiz-adv-x="1996" 
d="M1485 1096q253 0 384 -140q130 -140 89 -370l-27 -148h-721q-2 -88 33 -128t113 -40q150 0 168 95l389 4q-32 -181 -204 -290q-173 -110 -423 -110q-227 0 -344 146q-171 -144 -399 -146q-266 0 -401 155q-136 154 -91 408q47 254 236 409q188 155 454 155
q229 0 349 -146q173 146 395 146zM1245 635l189 4h131q4 82 -28 119t-105 37q-135 0 -187 -160zM811 532q25 131 -5 191.5t-120 60.5q-88 0 -139 -59.5t-76 -192.5q-23 -131 7 -191t120 -60q88 0 139 59.5t74 191.5z" />
    <glyph glyph-name="Racute" unicode="&#x154;" horiz-adv-x="1449" 
d="M918 1956h356l-213 -369h-281zM1493 997q-25 -141 -99.5 -249.5t-187.5 -169.5l97 -187l145 -391h-494l-186 510h-219l-90 -510h-441l256 1454h828q211 0 319 -125q107 -125 72 -332zM901 1116h-246l-53 -299h246q162 0 190 156q12 76 -20.5 109.5t-116.5 33.5z" />
    <glyph glyph-name="racute" unicode="&#x155;" horiz-adv-x="892" 
d="M610 1567h357l-213 -369h-281zM883 1096q63 0 96 -15l-70 -393h-235q-137 0 -172 -149l-94 -539h-410l188 1065h394l-60 -340q46 167 148 270q101 101 215 101z" />
    <glyph glyph-name="uni0156" unicode="&#x156;" horiz-adv-x="1449" 
d="M1493 997q-25 -141 -99.5 -249.5t-187.5 -169.5l97 -187l145 -391h-494l-186 510h-219l-90 -510h-441l256 1454h828q211 0 319 -125q107 -125 72 -332zM901 1116h-246l-53 -299h246q162 0 190 156q12 76 -20.5 109.5t-116.5 33.5zM625 -369l-152 54l37 200h358l-43 -245
q-22 -126 -142 -206q-119 -79 -294 -79l27 153q186 0 209 123z" />
    <glyph glyph-name="uni0157" unicode="&#x157;" horiz-adv-x="892" 
d="M883 1096q63 0 96 -15l-70 -393h-235q-137 0 -172 -149l-94 -539h-410l188 1065h394l-60 -340q46 167 148 270q101 101 215 101zM117 -369l-152 54l37 200h358l-43 -245q-22 -126 -142 -206q-119 -79 -294 -79l27 153q186 0 209 123z" />
    <glyph glyph-name="Rcaron" unicode="&#x158;" horiz-adv-x="1449" 
d="M1198 1587h-524l-107 369h316l63 -311l174 311h316zM1493 997q-25 -141 -99.5 -249.5t-187.5 -169.5l97 -187l145 -391h-494l-186 510h-219l-90 -510h-441l256 1454h828q211 0 319 -125q107 -125 72 -332zM901 1116h-246l-53 -299h246q162 0 190 156q12 76 -20.5 109.5
t-116.5 33.5z" />
    <glyph glyph-name="rcaron" unicode="&#x159;" horiz-adv-x="892" 
d="M891 1198h-524l-107 369h315l64 -312l174 312h315zM580 1065l-60 -340q46 167 148 270q101 101 215 101q63 0 96 -15l-70 -393h-235q-137 0 -172 -149l-94 -539h-410l188 1065h394z" />
    <glyph glyph-name="Sacute" unicode="&#x15a;" horiz-adv-x="1445" 
d="M760 1587l137 369h356l-213 -369h-280zM1142 100q-212 -131 -519 -131t-471 137q-163 136 -123 359h430q-14 -82 39.5 -120t185.5 -38q226 0 246 86q6 32 -4 49q-10 16 -72 39q-65 22 -188 41q-310 51 -429 162q-118 110 -83 311q40 218 246 355q204 135 501 135
q288 0 440 -136q152 -137 113 -360h-430q14 84 -30 121t-156 37q-207 0 -222 -90q-8 -47 46 -75q50 -27 221 -56q317 -52 430 -166q113 -113 78 -314q-38 -216 -249 -346z" />
    <glyph glyph-name="sacute" unicode="&#x15b;" horiz-adv-x="1142" 
d="M514 1198l137 369h357l-213 -369h-281zM467 -31q-245 0 -375 100q-130 99 -102 261h389q-8 -51 24.5 -74t112.5 -23q140 0 154 62q4 26 -8 39t-53.5 23t-133.5 20q-229 20 -324.5 102.5t-68.5 241.5q29 168 191 272q160 103 395 103q231 0 355 -103t95 -274h-389
q10 59 -16.5 85.5t-94.5 26.5q-127 0 -139 -65q-7 -39 33 -57q38 -18 166 -29q242 -20 339 -101.5t70 -234.5q-28 -167 -199 -271q-172 -104 -421 -104z" />
    <glyph glyph-name="Scircumflex" unicode="&#x15c;" horiz-adv-x="1445" 
d="M1034 1587l-63 311l-174 -311h-316l238 369h524l107 -369h-316zM1454 989h-430q14 84 -30 121t-156 37q-207 0 -222 -90q-8 -47 46 -75q50 -27 221 -56q317 -52 430 -166q113 -113 78 -314q-38 -216 -249 -346q-212 -131 -519 -131t-471 137q-163 136 -123 359h430
q-14 -82 39.5 -120t185.5 -38q226 0 246 86q6 32 -4 49q-10 16 -72 39q-65 22 -188 41q-310 51 -429 162q-118 110 -83 311q40 218 246 355q204 135 501 135q288 0 440 -136q152 -137 113 -360z" />
    <glyph glyph-name="scircumflex" unicode="&#x15d;" horiz-adv-x="1142" 
d="M788 1198l-63 311l-174 -311h-315l237 369h524l107 -369h-316zM1118 719h-389q10 59 -16.5 85.5t-94.5 26.5q-127 0 -139 -65q-7 -39 33 -57q38 -18 166 -29q242 -20 339 -101.5t70 -234.5q-28 -167 -199 -271q-172 -104 -421 -104q-245 0 -375 100q-130 99 -102 261h389
q-8 -51 24.5 -74t112.5 -23q140 0 154 62q4 26 -8 39t-53.5 23t-133.5 20q-229 20 -324.5 102.5t-68.5 241.5q29 168 191 272q160 103 395 103q231 0 355 -103t95 -274z" />
    <glyph glyph-name="Scedilla" unicode="&#x15e;" horiz-adv-x="1445" 
d="M1454 989h-430q14 84 -30 121t-156 37q-207 0 -222 -90q-8 -47 46 -75q50 -27 221 -56q317 -52 430 -166q113 -113 78 -314q-33 -188 -204 -314q-172 -127 -429 -155l-43 -77h10q79 0 118.5 -45.5t24.5 -120.5q-13 -83 -76 -135q-64 -50 -149 -50h-256l27 152h166
q43 0 49 33q4 16 -5.5 24.5t-31.5 8.5h-148l21 124l51 82q-261 26 -392 157q-132 132 -95 335h430q-14 -82 39.5 -120t185.5 -38q226 0 246 86q6 32 -4 49q-10 16 -72 39q-65 22 -188 41q-310 51 -429 162q-118 110 -83 311q40 218 246 355q204 135 501 135q288 0 440 -136
q152 -137 113 -360z" />
    <glyph glyph-name="scedilla" unicode="&#x15f;" horiz-adv-x="1142" 
d="M1118 719h-389q10 59 -16.5 85.5t-94.5 26.5q-127 0 -139 -65q-7 -39 33 -57q38 -18 166 -29q242 -20 339 -101.5t70 -234.5q-26 -143 -154 -240q-132 -99 -329 -127l-45 -77h10q78 0 118 -45.5t26 -120.5q-17 -84 -78 -135q-62 -50 -148 -50h-256l27 152h166q43 0 49 33
q4 16 -5 24.5t-32 8.5h-147l20 124l51 84q-195 19 -296 116q-101 95 -74 239h389q-8 -51 24.5 -74t112.5 -23q140 0 154 62q4 26 -8 39t-53.5 23t-133.5 20q-229 20 -324.5 102.5t-68.5 241.5q29 168 191 272q160 103 395 103q231 0 355 -103t95 -274z" />
    <glyph glyph-name="Scaron" unicode="&#x160;" horiz-adv-x="1445" 
d="M1178 1587h-525l-106 369h315l64 -311l174 311h315zM1454 989h-430q14 84 -30 121t-156 37q-207 0 -222 -90q-8 -47 46 -75q50 -27 221 -56q317 -52 430 -166q113 -113 78 -314q-38 -216 -249 -346q-212 -131 -519 -131t-471 137q-163 136 -123 359h430
q-14 -82 39.5 -120t185.5 -38q226 0 246 86q6 32 -4 49q-10 16 -72 39q-65 22 -188 41q-310 51 -429 162q-118 110 -83 311q40 218 246 355q204 135 501 135q288 0 440 -136q152 -137 113 -360z" />
    <glyph glyph-name="scaron" unicode="&#x161;" horiz-adv-x="1142" 
d="M932 1198h-524l-107 369h315l64 -312l174 312h315zM668 1096q231 0 355 -103t95 -274h-389q10 59 -16.5 85.5t-94.5 26.5q-127 0 -139 -65q-7 -39 33 -57q38 -18 166 -29q242 -20 339 -101.5t70 -234.5q-28 -167 -199 -271q-172 -104 -421 -104q-245 0 -375 100
q-130 99 -102 261h389q-8 -51 24.5 -74t112.5 -23q140 0 154 62q4 26 -8 39t-53.5 23t-133.5 20q-229 20 -324.5 102.5t-68.5 241.5q29 168 191 272q161 103 395 103z" />
    <glyph glyph-name="uni0162" unicode="&#x162;" horiz-adv-x="1372" 
d="M1004 1085l-191 -1085h-94l-57 -100h10q78 0 117.5 -45.5t25.5 -120.5q-16 -84 -77.5 -134.5t-147.5 -50.5h-256l26 152h166q43 0 49 33q4 16 -5 24.5t-31 8.5h-148l21 124l67 109h-106l190 1085h-444l65 369h1329l-65 -369h-444z" />
    <glyph glyph-name="uni0163" unicode="&#x163;" horiz-adv-x="958" 
d="M965 758h-332l-64 -355q-18 -106 88 -106h228l-51 -297q-108 -15 -232 -20l-45 -80h10q78 0 118 -45.5t26 -120.5q-13 -84 -77 -135q-64 -50 -149 -50h-256l27 152h166q43 0 49 33q4 16 -5 24.5t-32 8.5h-147l20 124l68 109q-128 37 -187 131.5t-34 226.5l69 400h-194
l53 307h197l63 309h399l-55 -309h332z" />
    <glyph glyph-name="Tcaron" unicode="&#x164;" horiz-adv-x="1372" 
d="M1135 1587h-525l-106 369h315l64 -311l174 311h315zM184 1454h1329l-65 -369h-444l-191 -1085h-440l190 1085h-444z" />
    <glyph glyph-name="tcaron" unicode="&#x165;" horiz-adv-x="958" 
d="M879 1487l36 201h359l-43 -246q-22 -126 -142 -206q-119 -79 -294 -79l26 154q187 0 209 123zM342 1374h399l-55 -309h332l-53 -307h-332l-64 -355q-18 -106 88 -106h228l-51 -297q-155 -20 -304 -20q-200 0 -304 104t-72 274l69 400h-194l53 307h197z" />
    <glyph glyph-name="Tbar" unicode="&#x166;" horiz-adv-x="1372" 
d="M1513 1454l-65 -369h-444l-37 -215h368l-51 -286h-369l-102 -584h-440l102 584h-369l52 286h368l37 215h-444l65 369h1329z" />
    <glyph glyph-name="tbar" unicode="&#x167;" horiz-adv-x="964" 
d="M1018 1065l-53 -307h-332l-21 -113h340l-39 -225h-342l-2 -17q-18 -106 88 -106h228l-51 -297q-155 -20 -304 -20q-200 0 -304 104t-72 274l10 62h-187l39 225h187l20 113h-194l53 307h197l63 309h399l-55 -309h332z" />
    <glyph glyph-name="Utilde" unicode="&#x168;" horiz-adv-x="1558" 
d="M1114 1604q-60 0 -136 42t-122 42q-82 0 -96 -80h-185q31 173 106.5 257.5t201.5 84.5q59 0 136 -42t122 -42q83 0 94 80h184q-31 -176 -103 -259t-202 -83zM102 528l164 926h441l-156 -876q-23 -120 24 -175t173 -55q122 0 186.5 54.5t87.5 175.5l156 876h440l-164 -926
q-45 -252 -257 -405q-211 -154 -517 -154t-464 154q-159 153 -114 405z" />
    <glyph glyph-name="utilde" unicode="&#x169;" horiz-adv-x="1296" 
d="M655 1298q-83 0 -96 -79h-184q31 173 106 257.5t201 84.5q60 0 136 -42t122 -42q84 0 94 79h185q-31 -176 -103.5 -259t-202.5 -83q-59 0 -136 42t-122 42zM791 479l102 586h410l-187 -1065h-393l45 256q-67 -133 -182 -210q-116 -77 -252 -77q-166 0 -236.5 92.5
t-40.5 268.5l129 735h410l-102 -584q-16 -90 7 -130t91 -40q158 0 199 168z" />
    <glyph glyph-name="Umacron" unicode="&#x16a;" horiz-adv-x="1558" 
d="M731 1925h586l-53 -307h-586zM102 528l164 926h441l-156 -876q-23 -120 24 -175t173 -55q122 0 186.5 54.5t87.5 175.5l156 876h440l-164 -926q-45 -252 -257 -405q-211 -154 -517 -154t-464 154q-159 153 -114 405z" />
    <glyph glyph-name="umacron" unicode="&#x16b;" horiz-adv-x="1296" 
d="M530 1536h586l-53 -307h-586zM791 479l102 586h410l-187 -1065h-393l45 256q-67 -133 -182 -210q-116 -77 -252 -77q-166 0 -236.5 92.5t-40.5 268.5l129 735h410l-102 -584q-16 -90 7 -130t91 -40q158 0 199 168z" />
    <glyph glyph-name="Ubreve" unicode="&#x16c;" horiz-adv-x="1558" 
d="M1128 1956h246q-35 -191 -139.5 -285t-269.5 -94q-164 0 -236.5 94.5t-38.5 284.5h246q-27 -143 70 -143q48 -1 78.5 35t43.5 108zM102 528l164 926h441l-156 -876q-23 -120 24 -175t173 -55q122 0 186.5 54.5t87.5 175.5l156 876h440l-164 -926q-45 -252 -257 -405
q-211 -154 -517 -154t-464 154q-159 153 -114 405z" />
    <glyph glyph-name="ubreve" unicode="&#x16d;" horiz-adv-x="1296" 
d="M764 1188q-164 0 -236 94t-39 285h246q-27 -143 70 -143q48 -1 78.5 35t44.5 108h246q-69 -379 -410 -379zM791 479l102 586h410l-187 -1065h-393l45 256q-67 -133 -182 -210q-116 -77 -252 -77q-166 0 -236.5 92.5t-40.5 268.5l129 735h410l-102 -584q-16 -90 7 -130
t91 -40q158 0 199 168z" />
    <glyph glyph-name="Uring" unicode="&#x16e;" horiz-adv-x="1558" 
d="M1137 1630q-73 -53 -172 -53q-101 0 -152 53t-36 142q13 88 86 141q71 53 172 53q100 0 151 -53q51 -52 37 -141q-15 -89 -86 -142zM989 1714q63 0 76 58q7 57 -55 57q-68 0 -76 -57q-13 -58 55 -58zM102 528l164 926h441l-156 -876q-23 -120 24 -175t173 -55
q122 0 186.5 54.5t87.5 175.5l156 876h440l-164 -926q-45 -252 -257 -405q-211 -154 -517 -154t-464 154q-159 153 -114 405z" />
    <glyph glyph-name="uring" unicode="&#x16f;" horiz-adv-x="1296" 
d="M936 1241q-73 -53 -172 -53q-100 0 -151 53q-52 52 -37 141q13 88 86 142q71 53 172 53q100 0 151 -53t37 -142q-13 -88 -86 -141zM733 1382q-12 -57 55 -57q62 0 76 57q7 57 -55 58q-69 -2 -76 -58zM791 479l102 586h410l-187 -1065h-393l45 256q-67 -133 -182 -210
q-116 -77 -252 -77q-166 0 -236.5 92.5t-40.5 268.5l129 735h410l-102 -584q-16 -90 7 -130t91 -40q158 0 199 168z" />
    <glyph glyph-name="Uhungarumlaut" unicode="&#x170;" horiz-adv-x="1558" 
d="M645 1587l137 369h305l-161 -369h-281zM1004 1587l137 369h356l-213 -369h-280zM102 528l164 926h441l-156 -876q-23 -120 24 -175t173 -55q122 0 186.5 54.5t87.5 175.5l156 876h440l-164 -926q-45 -252 -257 -405q-211 -154 -517 -154t-464 154q-159 153 -114 405z" />
    <glyph glyph-name="uhungarumlaut" unicode="&#x171;" horiz-adv-x="1296" 
d="M575 1567h306l-162 -369h-281zM1290 1567l-213 -369h-280l137 369h356zM791 479l102 586h410l-187 -1065h-393l45 256q-67 -133 -182 -210q-116 -77 -252 -77q-166 0 -236.5 92.5t-40.5 268.5l129 735h410l-102 -584q-16 -90 7 -130t91 -40q158 0 199 168z" />
    <glyph glyph-name="Uogonek" unicode="&#x172;" horiz-adv-x="1558" 
d="M1022 578l156 876h440l-164 -926q-34 -196 -175 -335q-139 -137 -351 -193l-113 -129q-33 -35 -35 -55q-2 -18 8.5 -27.5t32.5 -9.5h94l-41 -230h-303q-78 0 -111.5 37.5t-23.5 102.5q12 72 82 151l119 129q-286 12 -431 165q-147 153 -104 394l164 926h441l-156 -876
q-23 -120 24 -175t173 -55q122 0 186.5 54.5t87.5 175.5z" />
    <glyph glyph-name="uogonek" unicode="&#x173;" horiz-adv-x="1296" 
d="M1116 0l-112 -129q-33 -35 -35 -55q-4 -18 6.5 -27.5t34.5 -9.5h94l-41 -230h-303q-78 0 -113 38t-22 102q12 72 82 151l145 160h-129l45 256q-67 -133 -182 -210q-116 -77 -252 -77q-166 0 -236.5 92.5t-40.5 268.5l129 735h410l-102 -584q-16 -90 7 -130t91 -40
q158 0 199 168l102 586h410z" />
    <glyph glyph-name="Wcircumflex" unicode="&#x174;" horiz-adv-x="2504" 
d="M1556 1587l-63 311l-174 -311h-315l237 369h524l107 -369h-316zM1806 471l334 983h506l-553 -1454h-745l6 862l14 326l-102 -326l-297 -862h-746l-41 1454h506l-10 -983l-12 -268l79 268l328 983h682l-16 -983l-17 -268z" />
    <glyph glyph-name="wcircumflex" unicode="&#x175;" horiz-adv-x="1896" 
d="M1204 1198l-63 311l-174 -311h-316l238 369h524l107 -369h-316zM1397 465l196 600h394l-375 -1065h-633l18 588l17 229l-64 -229l-190 -588h-651l2 1065h424l-15 -600l-18 -270l69 270l181 600h626l-32 -600l-25 -264z" />
    <glyph glyph-name="Ycircumflex" unicode="&#x176;" horiz-adv-x="1497" 
d="M1077 1587l-63 311l-174 -311h-316l238 369h524l107 -369h-316zM1229 1454h461l-748 -1096l-63 -358h-441l64 354l-361 1100h482l129 -436l55 -262l145 262z" />
    <glyph glyph-name="ycircumflex" unicode="&#x177;" horiz-adv-x="1269" 
d="M881 1198l-64 311l-174 -311h-315l237 369h525l106 -369h-315zM694 465l246 600h420l-492 -1159q-66 -154 -210 -240q-145 -86 -330 -86q-146 0 -295 21l51 297h227q154 0 191 88l6 14h-322l-75 1065h428l30 -600l6 -320z" />
    <glyph glyph-name="Ydieresis" unicode="&#x178;" horiz-adv-x="1497" 
d="M633 1935h348l-57 -329h-349zM1057 1935h348l-57 -329h-349zM1229 1454h461l-748 -1096l-63 -358h-441l64 354l-361 1100h482l129 -436l55 -262l145 262z" />
    <glyph glyph-name="Zacute" unicode="&#x179;" horiz-adv-x="1400" 
d="M766 1587l137 369h357l-213 -369h-281zM1235 0h-1237l119 674l1173 418l-305 -7h-786l65 369h1223l-117 -663l-1204 -431l319 9h815z" />
    <glyph glyph-name="zacute" unicode="&#x17a;" horiz-adv-x="1067" 
d="M502 1198l137 369h356l-213 -369h-280zM903 0h-913l96 545l750 219l-322 -10h-381l55 311h893l-98 -549l-733 -215l307 10h401z" />
    <glyph glyph-name="Zdotaccent" unicode="&#x17b;" horiz-adv-x="1400" 
d="M711 1606l57 329h430l-57 -329h-430zM1235 0h-1237l119 674l1173 418l-305 -7h-786l65 369h1223l-117 -663l-1204 -431l319 9h815z" />
    <glyph glyph-name="zdotaccent" unicode="&#x17c;" horiz-adv-x="1067" 
d="M446 1217l58 329h430l-57 -329h-431zM903 0h-913l96 545l750 219l-322 -10h-381l55 311h893l-98 -549l-733 -215l307 10h401z" />
    <glyph glyph-name="Zcaron" unicode="&#x17d;" horiz-adv-x="1400" 
d="M1184 1587h-525l-106 369h315l64 -311l174 311h315zM264 1454h1223l-117 -663l-1204 -431l319 9h815l-65 -369h-1237l119 674l1173 418l-305 -7h-786z" />
    <glyph glyph-name="zcaron" unicode="&#x17e;" horiz-adv-x="1067" 
d="M920 1198h-525l-106 369h315l64 -312l174 312h315zM514 754h-381l55 311h893l-98 -549l-733 -215l307 10h401l-55 -311h-913l96 545l750 219z" />
    <glyph glyph-name="uni018F" unicode="&#x18f;" horiz-adv-x="1556" 
d="M922 1485q334 0 501 -209q166 -207 107 -549q-60 -341 -300 -549q-242 -209 -575 -209q-310 0 -474 158q-163 157 -118 418l46 260h981q16 158 -39.5 229.5t-194.5 71.5q-137 0 -207.5 -48t-91.5 -155h-430q50 270 277 426t518 156zM721 340q217 0 305 199h-534
q-16 -105 38 -152t191 -47z" />
    <glyph glyph-name="florin" unicode="&#x192;" horiz-adv-x="1052" 
d="M1090 1270h-228q-105 0 -125 -107l-16 -98h330l-54 -307h-331l-203 -1157h-410l203 1157h-195l54 307h196l25 143q28 169 169 275q140 104 341 104q146 0 297 -20z" />
    <glyph glyph-name="uni019D" unicode="&#x19d;" horiz-adv-x="1714" 
d="M1214 799l115 655h434l-256 -1454h-770l-96 1276l-96 -621l-115 -655l-10 -61q-27 -162 -166 -261q-140 -98 -336 -98q-86 0 -172 21l51 297h84q95 0 115 102l256 1454h774l96 -1253z" />
    <glyph glyph-name="Gcaron" unicode="&#x1e6;" horiz-adv-x="1607" 
d="M1272 1587h-524l-107 369h315l64 -311l174 311h315zM1591 903h-430q20 106 -36 154.5t-199 48.5q-164 0 -254 -90t-125 -289q-35 -205 22.5 -297t221.5 -92q139 0 211.5 44t95.5 144h-336l51 287h772l-143 -813h-389l67 381q-145 -412 -534 -412q-283 0 -418 199
q-134 199 -76 539q63 355 309 566q247 212 590 212q315 0 481 -160q165 -160 119 -422z" />
    <glyph glyph-name="gcaron" unicode="&#x1e7;" horiz-adv-x="1218" 
d="M956 1198h-524l-106 369h315l64 -312l174 312h315zM1370 1300l-51 -296q-182 0 -227 -39q96 -97 67 -250q-32 -170 -196 -276q-167 -107 -420 -107q-121 0 -213 24q-2 -2 -2 -7t-2 -7q-8 -39 19.5 -56.5t96.5 -17.5h363q171 0 260 -82q90 -83 65 -217q-33 -176 -218 -283
q-184 -106 -476 -106q-283 0 -433 69q-149 70 -130 187q10 60 61 104t125 58q-92 77 -73 178q27 152 209 236q-168 110 -134 303q32 175 195 278t420 103q152 0 268 -39q40 126 136 184q98 59 290 59zM750 715q10 60 -17.5 87t-101.5 27q-79 0 -114.5 -26t-47.5 -88
q-12 -64 14 -90.5t107 -26.5q75 0 112.5 27t47.5 90zM649 -55h-401l-6 -29q-12 -66 35 -89q45 -22 198 -22q148 0 199 16q50 16 61 66q6 33 -13 45.5t-73 12.5z" />
    <glyph glyph-name="uni01EA" unicode="&#x1ea;" horiz-adv-x="1646" 
d="M402 1276q248 209 589 209q342 0 515 -209q172 -208 114 -549q-50 -277 -223 -467q-174 -192 -428 -260l-113 -129q-33 -35 -35 -55q-2 -18 8.5 -27.5t32.5 -9.5h94l-41 -230h-303q-78 0 -111.5 37.5t-23.5 102.5q12 72 82 151l119 131q-318 16 -479 222
q-160 205 -103 534q58 341 306 549zM1169 727q35 199 -22 289t-221 90t-254 -90t-125 -289q-35 -201 23 -292t221 -91t253 91t125 292z" />
    <glyph glyph-name="uni01EB" unicode="&#x1eb;" horiz-adv-x="1282" 
d="M287 941q188 155 455 155q266 0 400 -155t89 -409q-37 -207 -174 -351t-338 -191l-103 -119q-32 -34 -34 -55q-4 -18 6.5 -27.5t34.5 -9.5h94l-41 -230h-303q-78 0 -113 38t-22 102q12 71 81 151l123 135q-218 28 -325 180q-107 150 -66 377q47 254 236 409zM811 532
q25 131 -5 191.5t-120 60.5t-141 -60q-50 -59 -73 -191q-23 -133 7 -192q28 -60 119 -60q88 0 138 59t75 192z" />
    <glyph glyph-name="Aringacute" unicode="&#x1fa;" horiz-adv-x="1660" 
d="M1202 1631q-72 -54 -172 -54t-151 53q-52 52 -37 142q13 88 86 141q71 53 172 53l63 174h295l-194 -242q38 -50 24 -126q-13 -88 -86 -141zM1076 1829q-64 0 -76 -57q-13 -58 55 -58q67 0 76 58q7 57 -55 57zM1567 0h-461l-35 301h-553l-141 -301h-451l686 1454h781z
M836 983l-164 -350h362l-39 350l-22 328z" />
    <glyph glyph-name="aringacute" unicode="&#x1fb;" horiz-adv-x="1187" 
d="M879 1241q-73 -53 -172 -53q-101 0 -152 53q-51 52 -37 141q13 88 86 142q73 53 172 53l64 174h295l-195 -242q37 -49 25 -127q-13 -88 -86 -141zM752 1440q-64 0 -76 -57q-12 -58 56 -58t75 58q7 57 -55 57zM1092 655l-43 -243q-14 -86 -1 -104q14 -21 85 -21h2
l-50 -287q-85 -20 -178 -20q-144 0 -213 50.5t-61 151.5q-64 -100 -166.5 -156.5t-226.5 -56.5q-139 0 -211 72q-71 71 -52 190q41 236 363 287q298 50 352 70l8 51q14 76 -5 110.5t-76 34.5q-58 0 -91.5 -41t-50.5 -133h-387q39 220 204 354q165 132 394 132
q217 0 328 -121q110 -122 76 -320zM481 233q68 0 115 42t61 124l7 31q-9 -4 -140 -37q-77 -18 -102 -35q-26 -18 -33 -57q-6 -33 16.5 -50.5t75.5 -17.5z" />
    <glyph glyph-name="AEacute" unicode="&#x1fc;" horiz-adv-x="2195" 
d="M1399 1956h356l-213 -369h-280zM2284 1454l-66 -369h-780l22 -190h694l-57 -328h-598l23 -198h573l-65 -369h-924l-35 301h-553l-141 -301h-451l686 1454h1672zM836 983l-164 -350h362l-39 350l-22 328z" />
    <glyph glyph-name="aeacute" unicode="&#x1fd;" horiz-adv-x="1875" 
d="M1042 1567h357l-213 -369h-281zM1364 1096q253 0 384 -140q130 -140 89 -370l-27 -148h-720q-2 -88 32.5 -128t112.5 -40q150 0 168 95l389 4q-32 -181 -204 -290q-173 -110 -423 -110q-159 0 -272 63.5t-164 180.5q-66 -111 -184 -177q-118 -67 -264 -67q-164 0 -245 72
t-59 190q41 236 363 287q298 50 352 70l8 51q12 79 -6 112t-75 33q-58 0 -91.5 -41t-50.5 -133h-387q39 220 204 353q164 133 394 133q196 0 293 -115q166 115 383 115zM1124 635l189 4h131q4 82 -28 119t-105 37q-135 0 -187 -160zM481 233q68 0 115 42t61 124l7 31
q-47 -16 -140 -37q-76 -18 -103 -35q-26 -18 -32 -57q-6 -33 16.5 -50.5t75.5 -17.5z" />
    <glyph glyph-name="Oslashacute" unicode="&#x1fe;" horiz-adv-x="1646" 
d="M954 1956h357l-213 -369h-281zM1290 1567h402l-203 -269q197 -212 131 -571q-58 -341 -306 -549q-248 -209 -589 -209q-111 0 -221 27l-107 -139h-401l229 303q-191 212 -129 567q58 341 306 549q248 209 589 209q123 0 217 -27zM547 727q-14 -92 -12 -160l407 539h-16
q-164 0 -254 -90t-125 -289zM1169 727q18 94 13 166l-416 -549h25q164 0 253.5 91t124.5 292z" />
    <glyph glyph-name="oslashacute" unicode="&#x1ff;" horiz-adv-x="1282" 
d="M723 1567h356l-213 -369h-280zM1065 1188h254l-195 -230q154 -154 107 -426q-45 -253 -233 -408q-190 -155 -455 -155q-126 0 -232 39l-129 -151h-254l222 258q-142 157 -99 417q47 254 236 409q188 155 454 155q115 0 217 -33zM471 532q0 -6 -3 -23.5t-3 -25.5l254 299
q-14 2 -33 2q-90 0 -141 -60t-74 -192zM811 532q2 16 4.5 32.5t4 26t1.5 13.5l-272 -317q19 -6 49 -6q88 0 138 59t75 192z" />
    <glyph glyph-name="uni0218" unicode="&#x218;" horiz-adv-x="1445" 
d="M1142 100q-212 -131 -519 -131t-471 137q-163 136 -123 359h430q-14 -82 39.5 -120t185.5 -38q226 0 246 86q6 32 -4 49q-10 16 -72 39q-65 22 -188 41q-310 51 -429 162q-118 110 -83 311q40 218 246 355q204 135 501 135q288 0 440 -136q152 -137 113 -360h-430
q14 84 -30 121t-156 37q-207 0 -222 -90q-8 -47 46 -75q50 -27 221 -56q317 -52 430 -166q113 -113 78 -314q-38 -216 -249 -346zM410 -315l36 200h359l-43 -245q-22 -126 -142 -206q-119 -79 -294 -79l26 153q186 0 209 123z" />
    <glyph glyph-name="uni0219" unicode="&#x219;" horiz-adv-x="1142" 
d="M467 -31q-245 0 -375 100q-130 99 -102 261h389q-8 -51 24.5 -74t112.5 -23q140 0 154 62q4 26 -8 39t-53.5 23t-133.5 20q-229 20 -324.5 102.5t-68.5 241.5q29 168 191 272q160 103 395 103q231 0 355 -103t95 -274h-389q10 59 -16.5 85.5t-94.5 26.5q-127 0 -139 -65
q-7 -39 33 -57q38 -18 166 -29q242 -20 339 -101.5t70 -234.5q-28 -167 -199 -271q-172 -104 -421 -104zM254 -315l37 200h358l-43 -245q-22 -126 -142 -206q-119 -79 -294 -79l27 153q187 0 209 123z" />
    <glyph glyph-name="uni021A" unicode="&#x21a;" horiz-adv-x="1372" 
d="M184 1454h1329l-65 -369h-444l-191 -1085h-440l190 1085h-444zM508 -369l-152 54l37 200h359l-43 -245q-22 -126 -143 -206q-119 -79 -294 -79l27 153q187 0 209 123z" />
    <glyph glyph-name="uni021B" unicode="&#x21b;" horiz-adv-x="958" 
d="M965 758h-332l-64 -355q-18 -106 88 -106h228l-51 -297q-155 -20 -304 -20q-200 0 -304 104t-72 274l69 400h-194l53 307h197l63 309h399l-55 -309h332zM403 -369l-151 54l37 200h358l-43 -245q-22 -126 -142 -206q-119 -79 -294 -79l27 153q185 0 208 123z" />
    <glyph glyph-name="uni0232" unicode="&#x232;" horiz-adv-x="1497" 
d="M725 1925h586l-54 -307h-585zM1229 1454h461l-748 -1096l-63 -358h-441l64 354l-361 1100h482l129 -436l55 -262l145 262z" />
    <glyph glyph-name="uni0233" unicode="&#x233;" horiz-adv-x="1269" 
d="M528 1536h586l-53 -307h-586zM694 465l246 600h420l-492 -1159q-66 -154 -210 -240q-145 -86 -330 -86q-146 0 -295 21l51 297h227q154 0 191 88l6 14h-322l-75 1065h428l30 -600l6 -320z" />
    <glyph glyph-name="uni0237" unicode="&#x237;" horiz-adv-x="573" 
d="M-4 -2l188 1067h410l-195 -1106q-32 -171 -169 -275q-139 -104 -332 -104q-78 0 -152 21l51 297h84q96 0 115 100z" />
    <glyph glyph-name="uni0259" unicode="&#x259;" horiz-adv-x="1247" 
d="M713 1096q261 0 395 -155q133 -154 88 -408q-45 -255 -232 -409q-188 -155 -450 -155q-254 0 -384 141q-130 139 -89 369l22 127h723q6 99 -28 144t-115 45q-152 0 -170 -109h-389q33 184 206 297t423 113zM567 270q125 0 178 140l-182 -4h-129q0 -70 32 -103t101 -33z
" />
    <glyph glyph-name="uni0272" unicode="&#x272;" horiz-adv-x="1302" 
d="M975 1096q166 0 236.5 -92.5t39.5 -268.5l-129 -735h-409l102 584q16 90 -8.5 130t-93.5 40q-90 0 -139.5 -48t-67.5 -153v4l-111 -629q-32 -171 -169 -275q-139 -104 -332 -104q-78 0 -152 21l51 297h84q96 0 115 106l192 1092h394l-50 -285q66 146 184 231t263 85z" />
    <glyph glyph-name="circumflex" unicode="&#x2c6;" horiz-adv-x="970" 
d="M406 1567h524l106 -369h-315l-64 311l-174 -311h-315z" />
    <glyph glyph-name="caron" unicode="&#x2c7;" horiz-adv-x="970" 
d="M612 1255l174 312h316l-238 -369h-524l-107 369h316z" />
    <glyph glyph-name="breve" unicode="&#x2d8;" horiz-adv-x="786" 
d="M672 1567h246q-69 -379 -410 -379q-164 0 -236 94t-39 285h246q-27 -143 70 -143q48 -1 78.5 35t44.5 108z" />
    <glyph glyph-name="dotaccent" unicode="&#x2d9;" horiz-adv-x="532" 
d="M172 1217l57 329h430l-57 -329h-430z" />
    <glyph glyph-name="ring" unicode="&#x2da;" horiz-adv-x="548" 
d="M561 1241q-73 -53 -172 -53q-100 0 -151 53q-52 52 -37 141q13 88 86 142q71 53 172 53q99 0 152 -53q51 -53 37 -142q-15 -88 -87 -141zM414 1325q63 0 75 57q7 57 -55 58q-69 0 -76 -58q-12 -57 56 -57z" />
    <glyph glyph-name="ogonek" unicode="&#x2db;" horiz-adv-x="565" 
d="M381 -221l-41 -230h-303q-78 0 -113 38t-22 102q12 72 82 151l145 160h264l-112 -129q-33 -35 -35 -55q-4 -18 6.5 -27.5t34.5 -9.5h94z" />
    <glyph glyph-name="tilde" unicode="&#x2dc;" horiz-adv-x="886" 
d="M711 1214q-59 0 -136 42q-76 42 -122 42q-82 0 -97 -79h-184q31 173 106 257.5t201 84.5q59 0 136 -42t122 -42q84 0 94 79h185q-31 -176 -103 -259t-202 -83z" />
    <glyph glyph-name="hungarumlaut" unicode="&#x2dd;" horiz-adv-x="888" 
d="M168 1198l137 369h305l-161 -369h-281zM526 1198l138 369h356l-213 -369h-281z" />
    <glyph glyph-name="gravecomb" unicode="&#x300;" 
d="M-297 1567h356l7 -369h-281z" />
    <glyph glyph-name="acutecomb" unicode="&#x301;" 
d="M-362 1198l137 369h356l-213 -369h-280z" />
    <glyph glyph-name="uni0302" unicode="&#x302;" 
d="M-565 1567h524l107 -369h-316l-63 311l-174 -311h-316z" />
    <glyph glyph-name="tildecomb" unicode="&#x303;" 
d="M-176 1214q-60 0 -136 42t-122 42q-83 0 -96 -79h-185q31 173 106 257.5t201 84.5q60 0 136 -42q77 -42 122 -42q85 0 95 79h184q-31 -176 -103 -259t-202 -83z" />
    <glyph glyph-name="uni0304" unicode="&#x304;" 
d="M-461 1536h586l-53 -307h-586z" />
    <glyph glyph-name="uni0306" unicode="&#x306;" 
d="M-115 1567h246q-69 -379 -410 -379q-164 0 -236 94t-38 285h246q-27 -143 69 -143q49 -1 79.5 35t43.5 108z" />
    <glyph glyph-name="uni0307" unicode="&#x307;" 
d="M-360 1217l57 329h430l-57 -329h-430z" />
    <glyph glyph-name="uni0308" unicode="&#x308;" 
d="M-702 1217l57 329h348l-57 -329h-348zM-279 1217l58 329h348l-57 -329h-349z" />
    <glyph glyph-name="uni030A" unicode="&#x30a;" 
d="M13 1241q-73 -53 -173 -53t-151 53q-51 52 -37 141q13 88 86 142q73 53 172 53t152 -53q51 -53 37 -142q-15 -88 -86 -141zM-135 1325q63 0 76 57q7 57 -56 58q-68 0 -75 -58q-13 -57 55 -57z" />
    <glyph glyph-name="uni030B" unicode="&#x30b;" 
d="M-721 1198l137 369h305l-161 -369h-281zM-362 1198l137 369h356l-213 -369h-280z" />
    <glyph glyph-name="uni030C" unicode="&#x30c;" 
d="M-358 1255l174 312h315l-237 -369h-525l-106 369h315z" />
    <glyph glyph-name="uni0312" unicode="&#x312;" 
d="M74 1399l-35 -201h-379l43 246q22 126 148 206q125 79 309 79l-29 -154q-110 0 -163.5 -28.5t-63.5 -94.5z" />
    <glyph glyph-name="dotbelowcomb" unicode="&#x323;" 
d="M-653 -444l57 329h430l-57 -329h-430z" />
    <glyph glyph-name="uni0326" unicode="&#x326;" 
d="M-561 -315l37 200h358l-43 -245q-22 -126 -143 -206q-118 -79 -293 -79l27 153q186 0 208 123z" />
    <glyph glyph-name="uni0327" unicode="&#x327;" 
d="M-346 -100h10q79 0 118.5 -45.5t24.5 -120.5q-13 -84 -77 -135q-62 -50 -148 -50h-256l27 152h166q43 0 49 33q4 16 -5 24.5t-32 8.5h-147l20 124l68 109h239z" />
    <glyph glyph-name="uni0328" unicode="&#x328;" 
d="M-184 -221l-41 -230h-303q-78 0 -113 38t-23 102q12 72 82 151l146 160h264l-113 -129q-32 -34 -34 -55q-4 -18 6 -27.5t34 -9.5h95z" />
    <glyph glyph-name="uni0394" unicode="&#x394;" horiz-adv-x="1466" 
d="M514 1454h780l138 -1122l-60 -332h-1446l60 332zM874 1311l-137 -328l-303 -651h539l-76 651z" />
    <glyph glyph-name="uni03A9" unicode="&#x3a9;" horiz-adv-x="1619" 
d="M645 0h-678l60 338h102l401 -29q-223 43 -332 194q-110 150 -71 367q50 277 283 446q232 169 567 169t508 -169q174 -170 125 -446q-39 -220 -201 -368q-161 -149 -401 -193l413 29h103l-60 -338h-678l97 541q223 25 266 268q27 156 -29.5 226.5t-210.5 70.5
q-152 0 -233.5 -70.5t-108.5 -226.5q-43 -244 174 -268z" />
    <glyph glyph-name="uni03BC" unicode="&#x3bc;" horiz-adv-x="1294" 
d="M795 508l98 557h410l-189 -1065h-393l45 258q-59 -117 -158.5 -187.5t-222.5 -84.5l-68 -385h-389l127 714l2 15l129 735h410l-102 -584q-16 -90 7 -130t91 -40q88 0 136 47.5t67 153.5v-4z" />
    <glyph glyph-name="pi" unicode="&#x3c0;" horiz-adv-x="1464" 
d="M1481 758h-178l-64 -361q-18 -100 78 -100h84l-51 -297q-85 -20 -160 -20q-195 0 -296 104t-71 274l70 400h-244l-133 -758h-410l134 758h-179l54 307h1419z" />
    <glyph glyph-name="Wgrave" unicode="&#x1e80;" horiz-adv-x="2504" 
d="M1579 1956l6 -369h-280l-82 369h356zM1806 471l334 983h506l-553 -1454h-745l6 862l14 326l-102 -326l-297 -862h-746l-41 1454h506l-10 -983l-12 -268l79 268l328 983h682l-16 -983l-17 -268z" />
    <glyph glyph-name="wgrave" unicode="&#x1e81;" horiz-adv-x="1896" 
d="M1231 1567l6 -369h-281l-82 369h357zM1397 465l196 600h394l-375 -1065h-633l18 588l17 229l-64 -229l-190 -588h-651l2 1065h424l-15 -600l-18 -270l69 270l181 600h626l-32 -600l-25 -264z" />
    <glyph glyph-name="Wacute" unicode="&#x1e82;" horiz-adv-x="2504" 
d="M1419 1956h357l-213 -369h-281zM1806 471l334 983h506l-553 -1454h-745l6 862l14 326l-102 -326l-297 -862h-746l-41 1454h506l-10 -983l-12 -268l79 268l328 983h682l-16 -983l-17 -268z" />
    <glyph glyph-name="wacute" unicode="&#x1e83;" horiz-adv-x="1896" 
d="M1067 1567h356l-213 -369h-280zM1397 465l196 600h394l-375 -1065h-633l18 588l17 229l-64 -229l-190 -588h-651l2 1065h424l-15 -600l-18 -270l69 270l181 600h626l-32 -600l-25 -264z" />
    <glyph glyph-name="Wdieresis" unicode="&#x1e84;" horiz-adv-x="2504" 
d="M1112 1935h348l-57 -329h-348zM1536 1935h348l-57 -329h-348zM1806 471l334 983h506l-553 -1454h-745l6 862l14 326l-102 -326l-297 -862h-746l-41 1454h506l-10 -983l-12 -268l79 268l328 983h682l-16 -983l-17 -268z" />
    <glyph glyph-name="wdieresis" unicode="&#x1e85;" horiz-adv-x="1896" 
d="M760 1546h348l-57 -329h-349zM1184 1546h348l-57 -329h-349zM1397 465l196 600h394l-375 -1065h-633l18 588l17 229l-64 -229l-190 -588h-651l2 1065h424l-15 -600l-18 -270l69 270l181 600h626l-32 -600l-25 -264z" />
    <glyph glyph-name="uni1EA0" unicode="&#x1ea0;" horiz-adv-x="1660" 
d="M1393 1454l174 -1454h-461l-35 301h-553l-141 -301h-451l686 1454h781zM836 983l-164 -350h362l-39 350l-22 328zM889 -444h-430l57 329h430z" />
    <glyph glyph-name="uni1EA1" unicode="&#x1ea1;" horiz-adv-x="1187" 
d="M1133 287h2l-50 -287q-85 -20 -178 -20q-144 0 -213 50.5t-61 151.5q-64 -100 -166.5 -156.5t-226.5 -56.5q-139 0 -211 72q-71 71 -52 190q41 236 363 287q298 50 352 70l8 51q14 76 -5 110.5t-76 34.5q-58 0 -91.5 -41t-50.5 -133h-387q39 220 204 354q165 132 394 132
q217 0 328 -121q110 -122 76 -320l-43 -243q-14 -86 -1 -104q14 -21 85 -21zM481 233q68 0 115 42t61 124l7 31q-9 -4 -140 -37q-77 -18 -102 -35q-26 -18 -33 -57q-6 -33 16.5 -50.5t75.5 -17.5zM664 -444h-431l58 329h430z" />
    <glyph glyph-name="uni1EB8" unicode="&#x1eb8;" horiz-adv-x="1316" 
d="M1405 1454l-66 -369h-690l-33 -190h660l-57 -328h-660l-35 -198h693l-66 -369h-1133l256 1454h1131zM727 -444h-430l57 329h430z" />
    <glyph glyph-name="uni1EB9" unicode="&#x1eb9;" horiz-adv-x="1247" 
d="M735 1096q253 0 384 -140q130 -140 89 -370l-26 -148h-721q-2 -88 32.5 -128t112.5 -40q154 0 168 99h389q-32 -181 -204 -290q-173 -110 -422 -110q-262 0 -396 155q-135 154 -90 408q47 254 235 409t449 155zM496 635l188 4h131q4 82 -27.5 119t-105.5 37
q-134 0 -186 -160zM680 -444h-430l57 329h430z" />
    <glyph glyph-name="uni1EBC" unicode="&#x1ebc;" horiz-adv-x="1316" 
d="M760 1688q-82 0 -96 -80h-185q31 173 106 257.5t201 84.5q60 0 136 -42t122 -42q84 0 95 80h184q-31 -176 -103 -259t-202 -83q-60 0 -136 42t-122 42zM1405 1454l-66 -369h-690l-33 -190h660l-57 -328h-660l-35 -198h693l-66 -369h-1133l256 1454h1131z" />
    <glyph glyph-name="uni1EBD" unicode="&#x1ebd;" horiz-adv-x="1247" 
d="M643 1298q-83 0 -96 -79h-185q31 173 106.5 257.5t201.5 84.5q60 0 136 -42t122 -42q84 0 94 79h184q-31 -176 -103 -259t-202 -83q-59 0 -136 42t-122 42zM735 1096q253 0 384 -140q130 -140 89 -370l-26 -148h-721q-2 -88 32.5 -128t112.5 -40q154 0 168 99h389
q-32 -181 -204 -290q-173 -110 -422 -110q-262 0 -396 155q-135 154 -90 408q47 254 235 409t449 155zM496 635l188 4h131q4 82 -27.5 119t-105.5 37q-134 0 -186 -160z" />
    <glyph glyph-name="uni1ECA" unicode="&#x1eca;" horiz-adv-x="665" 
d="M18 0l256 1454h441l-256 -1454h-441zM-53 -444l57 329h430l-57 -329h-430z" />
    <glyph glyph-name="uni1ECB" unicode="&#x1ecb;" horiz-adv-x="585" 
d="M203 1217l57 329h430l-57 -329h-430zM-2 0l188 1065h410l-188 -1065h-410zM-94 -444l57 329h430l-57 -329h-430z" />
    <glyph glyph-name="uni1ECC" unicode="&#x1ecc;" horiz-adv-x="1646" 
d="M1314 178q-248 -209 -589 -209q-342 0 -515 209t-113 549q59 341 306 549q247 209 588 209q342 0 515 -209q172 -208 114 -549t-306 -549zM570 435q57 -91 221 -91q163 0 254 91q89 91 124 292q35 199 -22 289t-221 90t-254 -90t-125 -289q-35 -202 23 -292zM438 -444
l58 329h430l-58 -329h-430z" />
    <glyph glyph-name="uni1ECD" unicode="&#x1ecd;" horiz-adv-x="1282" 
d="M998 124q-190 -155 -455 -155q-267 0 -402 155q-135 154 -90 408q47 254 236 409q188 155 455 155q266 0 400 -155t89 -408q-45 -254 -233 -409zM598 281q88 0 138 59t75 192q25 131 -5 191.5t-120 60.5t-141 -60q-50 -59 -73 -191q-23 -133 7 -192q28 -60 119 -60z
M256 -444l57 329h430l-57 -329h-430z" />
    <glyph glyph-name="uni1EE4" unicode="&#x1ee4;" horiz-adv-x="1558" 
d="M102 528l164 926h441l-156 -876q-23 -120 24 -175t173 -55q122 0 186.5 54.5t87.5 175.5l156 876h440l-164 -926q-45 -252 -257 -405q-211 -154 -517 -154t-464 154q-159 153 -114 405zM393 -444l58 329h430l-58 -329h-430z" />
    <glyph glyph-name="uni1EE5" unicode="&#x1ee5;" horiz-adv-x="1296" 
d="M791 479l102 586h410l-187 -1065h-393l45 256q-67 -133 -182 -210q-116 -77 -252 -77q-166 0 -236.5 92.5t-40.5 268.5l129 735h410l-102 -584q-16 -90 7 -130t91 -40q158 0 199 168zM690 -444h-430l57 329h431z" />
    <glyph glyph-name="Ygrave" unicode="&#x1ef2;" horiz-adv-x="1497" 
d="M1100 1956l6 -369h-281l-82 369h357zM1229 1454h461l-748 -1096l-63 -358h-441l64 354l-361 1100h482l129 -436l55 -262l145 262z" />
    <glyph glyph-name="ygrave" unicode="&#x1ef3;" horiz-adv-x="1269" 
d="M907 1567l6 -369h-280l-82 369h356zM694 465l246 600h420l-492 -1159q-66 -154 -210 -240q-145 -86 -330 -86q-146 0 -295 21l51 297h227q154 0 191 88l6 14h-322l-75 1065h428l30 -600l6 -320z" />
    <glyph glyph-name="uni1EF8" unicode="&#x1ef8;" horiz-adv-x="1497" 
d="M850 1688q-82 0 -96 -80h-185q31 173 106.5 257.5t201.5 84.5q60 0 136 -42t122 -42q83 0 94 80h184q-31 -176 -103 -259t-202 -83q-60 0 -136 42t-122 42zM1229 1454h461l-748 -1096l-63 -358h-441l64 354l-361 1100h482l129 -436l55 -262l145 262z" />
    <glyph glyph-name="uni1EF9" unicode="&#x1ef9;" horiz-adv-x="1269" 
d="M653 1298q-83 0 -96 -79h-184q31 173 106 257.5t201 84.5q60 0 136 -42t122 -42q84 0 94 79h185q-31 -176 -103.5 -259t-202.5 -83q-60 0 -136 42q-77 42 -122 42zM694 465l246 600h420l-492 -1159q-66 -154 -210 -240q-145 -86 -330 -86q-146 0 -295 21l51 297h227
q154 0 191 88l6 14h-322l-75 1065h428l30 -600l6 -320z" />
    <glyph glyph-name="endash" unicode="&#x2013;" horiz-adv-x="1185" 
d="M76 676h1083l-53 -307h-1083z" />
    <glyph glyph-name="emdash" unicode="&#x2014;" horiz-adv-x="1779" 
d="M76 676h1677l-53 -307h-1677z" />
    <glyph glyph-name="quoteleft" unicode="&#x2018;" horiz-adv-x="538" 
d="M549 1094l-39 -222h-369l49 277q27 152 149 244t306 92l-29 -154q-109 0 -164 -35.5t-69 -115.5z" />
    <glyph glyph-name="quoteright" unicode="&#x2019;" horiz-adv-x="540" 
d="M213 1233l39 221h369l-50 -276q-27 -153 -148 -244q-122 -92 -306 -92l26 153q109 0 164 36t70 116z" />
    <glyph glyph-name="quotesinglbase" unicode="&#x201a;" horiz-adv-x="632" 
d="M27 66l61 344h430l-74 -410q-32 -175 -175 -281t-349 -106l31 174q129 0 196.5 46t85.5 147z" />
    <glyph glyph-name="quotedblleft" unicode="&#x201c;" horiz-adv-x="970" 
d="M981 1094l-39 -222h-369l50 277q27 152 149 244t305 92l-28 -154q-109 0 -164.5 -35.5t-69.5 -115.5zM551 1087l-39 -215h-369l47 271q27 150 149 240q121 90 306 90l-29 -154q-108 0 -162.5 -34.5t-68.5 -110.5z" />
    <glyph glyph-name="quotedblright" unicode="&#x201d;" horiz-adv-x="970" 
d="M213 1233l39 221h369l-50 -276q-27 -153 -148 -244q-122 -92 -306 -92l26 153q109 0 164 36t70 116zM643 1239l39 215h369l-50 -270q-26 -151 -146 -240q-121 -90 -306 -90l26 154q109 0 164.5 34.5t69.5 110.5z" />
    <glyph glyph-name="quotedblbase" unicode="&#x201e;" horiz-adv-x="632" 
d="M27 66l61 344h430l-74 -410q-32 -175 -175 -281t-349 -106l31 174q129 0 196.5 46t85.5 147z" />
    <glyph glyph-name="dagger" unicode="&#x2020;" horiz-adv-x="997" 
d="M731 774h268l-53 -297h-268l-57 -327h-379l57 327h-268l53 297h268l119 680h379z" />
    <glyph glyph-name="daggerdbl" unicode="&#x2021;" horiz-adv-x="997" 
d="M1075 1217l-49 -287h-268l-53 -297h268l-51 -287h-269l-41 -237h-379l41 237h-268l51 287h269l53 297h-268l49 287h270l41 237h379l-41 -237h266z" />
    <glyph glyph-name="bullet" unicode="&#x2022;" horiz-adv-x="696" 
d="M27 276l98 553h553l-98 -553h-553z" />
    <glyph glyph-name="ellipsis" unicode="&#x2026;" horiz-adv-x="1689" 
d="M0 0l68 389h409l-67 -389h-410zM547 0l67 389h410l-68 -389h-409zM1094 0l67 389h410l-68 -389h-409z" />
    <glyph glyph-name="perthousand" unicode="&#x2030;" horiz-adv-x="2215" 
d="M764 846q-127 -103 -303 -103t-266 103q-91 101 -62 268q28 165 155 269q126 102 302 102t267 -102q91 -103 63 -269t-156 -268zM1710 1454l-465 -678h-379l424 678h420zM451 1213q-41 -38 -51 -98q-11 -63 17 -99q27 -37 85 -37t99 37q43 38 53 99q10 60 -19 98
q-29 36 -86 36t-98 -36zM1843 711q168 0 252 -102q84 -104 56 -269q-28 -166 -150 -268q-121 -103 -289 -103q-127 0 -204.5 67.5t-88.5 186.5q-51 -117 -152 -185q-102 -69 -231 -69q-168 0 -252 103q-84 101 -55 268q28 165 150 269q120 102 288 102q127 0 205 -68
t88 -186q51 117 153 186q101 68 230 68zM-45 0l463 678h379l-422 -678h-420zM1197 242q43 38 53 98q10 61 -18 98t-85 37q-58 0 -99 -37q-42 -37 -52 -98q-11 -62 17 -98q27 -37 85 -37t99 37zM1832 242q42 37 52 98q10 60 -17 98q-28 37 -85 37q-59 0 -100 -37
q-42 -37 -52 -98t18 -98q27 -37 85 -37t99 37z" />
    <glyph glyph-name="guilsinglleft" unicode="&#x2039;" horiz-adv-x="655" 
d="M117 139l-117 160l80 459l174 160h448l-448 -390l311 -389h-448z" />
    <glyph glyph-name="guilsinglright" unicode="&#x203a;" horiz-adv-x="655" 
d="M399 139h-448l448 389l-311 390h449l116 -160l-80 -459z" />
    <glyph glyph-name="fraction" unicode="&#x2044;" horiz-adv-x="415" 
d="M-600 0l1378 1454h307l-1378 -1454h-307z" />
    <glyph glyph-name="uni20AA" unicode="&#x20aa;" horiz-adv-x="1863" 
d="M18 0l256 1454h400l-256 -1454h-400zM1333 432l180 1022h400l-176 -1001q-34 -203 -175 -329q-140 -124 -333 -124h-719l186 1059h277l-133 -752h336q77 0 111 27.5t46 97.5zM977 1147h-356l53 307h381q164 0 247 -101q82 -102 54 -270l-121 -688h-277l111 627
q12 71 -8 98t-84 27z" />
    <glyph glyph-name="Euro" unicode="&#x20ac;" horiz-adv-x="1548" 
d="M1034 1485q297 0 451 -166q153 -166 106 -436h-430q20 117 -25.5 170t-166.5 53q-172 0 -256 -137h276l-67 -215h-879l37 215h174q104 240 312 378t468 138zM834 344q123 0 186 47t84 154h430q-45 -261 -256 -418q-212 -158 -510 -158q-253 0 -411 134q-159 135 -187 364
h-178l37 215h868l-68 -215h-198q41 -123 203 -123z" />
    <glyph glyph-name="uni2113" unicode="&#x2113;" horiz-adv-x="1118" 
d="M823 1587q208 0 308 -148q101 -149 57 -390q-44 -242 -207 -389q-163 -148 -387 -148h-31l-18 -109q-18 -106 88 -106h227l-51 -289q-147 -29 -324 -28q-208 0 -299.5 93t-58.5 275l29 164h-140l50 276h139l57 334q38 210 192 337q155 128 369 128zM836 1049
q25 138 16 192q-11 53 -59 53q-51 0 -78 -46t-49 -167l-52 -293h29q82 0 124 58q42 59 69 203z" />
    <glyph glyph-name="uni2116" unicode="&#x2116;" horiz-adv-x="2603" 
d="M1974 1386q134 99 324 99t289 -99q98 -101 70 -264t-163 -264q-134 -100 -325 -100t-288 100t-68 264t161 264zM1145 201l92 598l115 655h434l-256 -1454h-770l-96 1276l-97 -621l-114 -655h-435l256 1454h775zM2345 1122q23 131 -88 131q-110 0 -133 -131
q-12 -70 8 -101.5t78 -31.5q113 0 135 133zM2281 358h-366l53 308h367z" />
    <glyph glyph-name="trademark" unicode="&#x2122;" horiz-adv-x="2056" 
d="M111 1454h739l-41 -233h-225l-78 -443h-287l78 443h-227zM1640 1454h506l-118 -676h-287l69 400l39 184l-207 -584h-430l-4 596l-28 -196l-70 -400h-287l119 676h514l4 -373l-6 -178l53 178z" />
    <glyph glyph-name="onethird" unicode="&#x2153;" horiz-adv-x="1632" 
d="M-10 0l1378 1454h307l-1378 -1454h-307zM449 1122l47 232l-129 -119l-209 -162l49 275l139 106h412l-121 -690h-250zM1059 650q97 71 236 71t215 -52q75 -52 61 -137q-10 -61 -70 -99t-160 -44q223 -25 193 -194q-17 -97 -118 -155q-104 -60 -255 -60q-143 0 -219 73
q-76 71 -53 191h241q-13 -76 64 -76q80 0 94 59q4 22 -12 35.5t-53 13.5h-86l24 140h86q50 0 60 55q12 61 -45 61q-66 0 -80 -75h-242q22 120 119 193z" />
    <glyph glyph-name="twothirds" unicode="&#x2154;" horiz-adv-x="1705" 
d="M385 969h360l-34 -205h-615l58 330l321 69q60 13 74 82q14 74 -53 74q-66 0 -84 -109h-242q22 122 122 199q98 76 243 76q141 0 211 -66q69 -67 49 -174q-29 -158 -236 -211l-178 -45l-121 -22zM63 0l1379 1454h307l-1378 -1454h-308zM1121 650q97 71 235 71
q139 0 215 -52t61 -137q-10 -61 -70 -99t-159 -44q223 -25 192 -194q-17 -97 -118 -155q-103 -60 -254 -60q-143 0 -219 73q-77 72 -54 191h242q-13 -76 63 -76q80 0 95 59q4 22 -12.5 35.5t-53.5 13.5h-86l25 140h86q49 0 59 55q12 61 -45 61q-67 0 -80 -75h-242
q22 121 120 193z" />
    <glyph glyph-name="oneeighth" unicode="&#x215b;" horiz-adv-x="1652" 
d="M-12 0l1378 1454h307l-1378 -1454h-307zM436 1122l47 232l-129 -119l-209 -162l50 275l139 106h411l-120 -690h-250zM1065 666q95 55 238 55q142 0 219 -55q77 -56 61 -146q-22 -127 -203 -162q182 -38 158 -182q-13 -88 -114 -142q-100 -54 -253 -54q-149 0 -231 53
q-83 53 -66 143q25 145 224 182q-168 35 -146 162q17 91 113 146zM1272 547q-72 0 -84 -69q-12 -70 60 -70q71 0 83 70q12 69 -59 69zM1296 227q13 70 -69 70t-94 -70q-6 -37 11.5 -55.5t57.5 -17.5q80 -2 94 73z" />
    <glyph glyph-name="threeeighths" unicode="&#x215c;" horiz-adv-x="1712" 
d="M408 743q-143 0 -219 73q-77 74 -54 192h242q-13 -76 63 -76q86 0 95 59q4 23 -13.5 36t-54.5 13h-86l25 140h86q51 0 61 55q12 61 -47 61q-66 0 -78 -75h-242q22 120 119 193q97 71 236 71q137 0 213 -52q75 -52 61 -137q-20 -131 -227 -143q221 -26 190 -195
q-17 -97 -118 -155q-102 -60 -252 -60zM47 0l1378 1454h308l-1379 -1454h-307zM1125 666q95 55 237 55t219 -55q78 -55 61 -146q-22 -127 -202 -162q182 -38 157 -182q-13 -88 -114 -142t-252 -54q-149 0 -231 53q-83 53 -66 143q25 145 223 182q-168 34 -145 162
q17 91 113 146zM1332 547q-72 0 -84 -69q-13 -70 59 -70q71 0 84 70q12 69 -59 69zM1356 227q13 70 -70 70q-82 0 -94 -70q-6 -37 11.5 -55.5t58.5 -17.5q80 -2 94 73z" />
    <glyph glyph-name="fiveeighths" unicode="&#x215d;" horiz-adv-x="1687" 
d="M2 0l1378 1454h308l-1379 -1454h-307zM397 743q-140 0 -211 70q-73 70 -53 184h242q-7 -39 6 -58.5t45 -18.5q59 0 72 67q13 82 -47 82q-45 0 -86 -35h-218l99 420h551l-35 -197h-234l-110 3l-39 -166q73 106 205 106q90 0 135 -57q45 -59 29 -150q-20 -114 -117 -181
q-97 -69 -234 -69zM1100 666q95 55 238 55q142 0 219 -55q77 -56 61 -146q-22 -127 -203 -162q182 -38 158 -182q-13 -88 -114 -142t-253 -54q-149 0 -231 53q-83 53 -66 143q25 145 224 182q-168 35 -146 162q17 91 113 146zM1307 547q-72 0 -84 -69q-13 -70 59 -70t84 70
q12 69 -59 69zM1331 227q13 70 -69 70t-95 -70q-6 -37 11.5 -55.5t58.5 -17.5q80 -2 94 73z" />
    <glyph glyph-name="seveneighths" unicode="&#x215e;" horiz-adv-x="1622" 
d="M-43 0l1378 1454h307l-1378 -1454h-307zM522 764h-256q28 161 146 298q115 136 305 195l-152 -4h-293l35 201h520l-30 -176l-29 -156q-80 -26 -150 -123t-96 -235zM1034 666q95 55 238 55q142 0 219 -55q78 -55 61 -146q-22 -127 -202 -162q182 -38 157 -182
q-13 -88 -114 -142t-252 -54q-149 0 -232 53q-82 52 -65 143q25 145 223 182q-168 34 -145 162q17 91 112 146zM1241 547q-72 0 -84 -69q-12 -70 60 -70q71 0 84 70q12 69 -60 69zM1266 227q13 70 -70 70q-82 0 -94 -70q-6 -37 11.5 -55.5t57.5 -17.5q81 -2 95 73z" />
    <glyph glyph-name="arrowleft" unicode="&#x2190;" horiz-adv-x="1509" 
d="M653 856l877 25l-57 -322l-865 23l281 -316l-248 -209l-547 664l780 665l173 -210z" />
    <glyph glyph-name="arrowup" unicode="&#x2191;" horiz-adv-x="1452" 
d="M893 1479l547 -664l-246 -211l-256 334l-131 -866h-322l179 872l-379 -338l-174 209z" />
    <glyph glyph-name="arrowright" unicode="&#x2192;" horiz-adv-x="1509" 
d="M688 1176l246 210l547 -665l-781 -664l-174 209l392 316l-873 -23l57 322l869 -25z" />
    <glyph glyph-name="arrowdown" unicode="&#x2193;" horiz-adv-x="1452" 
d="M866 571l379 338l174 -209l-782 -663l-547 663l246 211l256 -333l131 866h321z" />
    <glyph glyph-name="arrowboth" unicode="&#x2194;" horiz-adv-x="2185" 
d="M1348 1190l245 211l531 -645l-758 -643l-170 211l377 303h-1006l271 -303l-244 -211l-533 643l760 645l172 -211l-372 -299h991z" />
    <glyph glyph-name="arrowupdn" unicode="&#x2195;" horiz-adv-x="1392" 
d="M946 1180l-172 -963l367 330l168 -201l-760 -645l-531 643l242 203l250 -336l172 975l-375 -340l-166 194l758 648l531 -646l-232 -196z" />
    <glyph glyph-name="uni2196" unicode="&#x2196;" horiz-adv-x="1241" 
d="M643 1028l528 -598l-268 -227l-485 628l-68 -460l-295 2l164 938l940 2l-53 -297z" />
    <glyph glyph-name="uni2197" unicode="&#x2197;" horiz-adv-x="1239" 
d="M303 1016l53 297l936 -2l-164 -938l-299 -2l97 460l-707 -628l-186 227l737 598z" />
    <glyph glyph-name="uni2198" unicode="&#x2198;" horiz-adv-x="1243" 
d="M913 739l70 465h297l-168 -938h-938l51 297l457 -14l-522 596l266 227z" />
    <glyph glyph-name="uni2199" unicode="&#x2199;" horiz-adv-x="1243" 
d="M1112 1372l188 -227l-735 -596l465 14l-55 -297h-938l164 938h297l-95 -463z" />
    <glyph glyph-name="partialdiff" unicode="&#x2202;" horiz-adv-x="1261" 
d="M326 1597l415 -59q287 -41 428 -261q140 -222 82 -540q-62 -347 -266 -557q-205 -211 -477 -211q-256 0 -387 155t-86 406q39 214 185 348q146 132 343 132q124 0 207 -58t113 -161l8 49q29 165 -19 232q-49 66 -204 77l-416 29zM582 281q88 0 139 59.5t74 191.5
q23 123 -6 178.5t-117 55.5q-91 0 -144 -57t-73 -179q-23 -131 7 -190t120 -59z" />
    <glyph glyph-name="product" unicode="&#x220f;" horiz-adv-x="1671" 
d="M256 1454h1485l-66 -369h-205l-262 -1484h-420l263 1484h-236l-262 -1484h-420l262 1484h-205z" />
    <glyph glyph-name="summation" unicode="&#x2211;" horiz-adv-x="1110" 
d="M883 -401l-1006 2l119 659l592 201l219 67l-195 68l-522 201l117 657l1001 -2l-63 -369h-410l-510 17l748 -289l-101 -569l-858 -291l525 16h409z" />
    <glyph glyph-name="minus" unicode="&#x2212;" horiz-adv-x="1042" 
d="M98 684h899l-47 -266h-899z" />
    <glyph glyph-name="uni2215" unicode="&#x2215;" horiz-adv-x="768" 
d="M-154 -399l695 1966h399l-694 -1966h-400z" />
    <glyph glyph-name="uni2219" unicode="&#x2219;" horiz-adv-x="581" 
d="M10 303l88 500h500l-88 -500h-500z" />
    <glyph glyph-name="radical" unicode="&#x221a;" horiz-adv-x="1372" 
d="M961 1454h634l-65 -369h-324l-534 -1484h-666l-14 1065h366l-4 -686l-8 -293l98 293z" />
    <glyph glyph-name="infinity" unicode="&#x221e;" horiz-adv-x="2054" 
d="M1571 1032q223 0 338 -129q114 -129 78 -342q-39 -213 -199 -342t-383 -129q-277 0 -422 232q-231 -230 -514 -232q-215 0 -323 130q-109 130 -70 341q38 214 191 342q153 129 368 129q283 0 432 -231q228 231 504 231zM582 377q71 0 134 44t144 140q-48 96 -96 140
t-119 44q-100 0 -152.5 -44t-68.5 -140q-18 -96 20 -140t138 -44zM1638 561q16 96 -22 140t-137 44q-72 0 -137 -44t-148 -140q50 -96 99.5 -140t121.5 -44q99 0 152 44t71 140z" />
    <glyph glyph-name="integral" unicode="&#x222b;" horiz-adv-x="956" 
d="M885 1485q109 0 215 -21l-53 -297h-146q-106 0 -125 -106l-194 -1102q-28 -169 -169 -275q-142 -104 -341 -104q-108 0 -215 21l53 297h145q106 0 125 106l195 1102q28 169 169 275q140 104 341 104z" />
    <glyph glyph-name="approxequal" unicode="&#x2248;" horiz-adv-x="1243" 
d="M322 604h-238q33 182 150 296q116 114 270 114q48 1 94.5 -12t82.5 -32t69 -38t68 -32t67 -11q53 0 88.5 36t44.5 89h237q-33 -193 -148 -301q-115 -109 -271 -109q-108 0 -212 63q-104 62 -169 62q-53 0 -88.5 -36t-44.5 -89zM227 72h-237q33 182 150 296
q116 113 270 113q59 2 117.5 -18t97 -45t84.5 -44.5t84 -17.5q52 0 86.5 35.5t44.5 89.5h237q-33 -193 -148 -301t-272 -108q-109 0 -212 63q-104 62 -169 62q-53 0 -88.5 -35.5t-44.5 -89.5z" />
    <glyph glyph-name="notequal" unicode="&#x2260;" horiz-adv-x="1042" 
d="M791 1067h249l-110 -137h110l-47 -266h-262l-174 -226h397l-47 -266h-553l-100 -125h-250l100 125h-96l47 266h252l174 226h-387l47 266h539z" />
    <glyph glyph-name="lessequal" unicode="&#x2264;" horiz-adv-x="1044" 
d="M135 891l930 172l-47 -264l-836 -119l795 -119l-45 -256l-47 -266h-899l47 266h856l-828 164z" />
    <glyph glyph-name="greaterequal" unicode="&#x2265;" horiz-adv-x="1044" 
d="M166 1063l868 -172l-73 -422l-885 -164h856l-47 -266h-899l45 258l47 264l835 119l-794 119z" />
    <glyph glyph-name="uni2460" unicode="&#x2460;" horiz-adv-x="1687" 
d="M1350 178q-253 -209 -604 -209q-352 0 -531 209q-178 208 -118 549q58 340 311 549q251 209 604 209q351 0 530 -209q178 -208 119 -549q-58 -340 -311 -549zM372 298q133 -163 402 -163t462 163q194 164 239 429q47 266 -88 429q-136 163 -404 163q-266 0 -459 -163
q-195 -164 -241 -429q-45 -265 89 -429zM745 870l-239 -184l55 315l158 123h473l-139 -794h-287l72 411l55 269z" />
    <glyph glyph-name="uni2461" unicode="&#x2461;" horiz-adv-x="1687" 
d="M1350 178q-253 -209 -604 -209q-352 0 -531 209q-178 208 -118 549q58 340 311 549q251 209 604 209q351 0 530 -209q178 -208 119 -549q-58 -340 -311 -549zM372 298q133 -163 402 -163t462 163q194 164 239 429q47 266 -88 429q-136 163 -404 163q-266 0 -459 -163
q-195 -164 -241 -429q-45 -265 89 -429zM1174 330h-707l65 375l369 79q74 17 86 95q14 86 -59 86q-78 0 -99 -125h-278q25 141 141 228t277 87t242 -75q81 -77 59 -201q-33 -181 -273 -242l-202 -53l-136 -25l140 2h415z" />
    <glyph glyph-name="uni2462" unicode="&#x2462;" horiz-adv-x="1687" 
d="M1350 178q-253 -209 -604 -209q-352 0 -531 209q-178 208 -118 549q58 340 311 549q251 209 604 209q351 0 530 -209q178 -208 119 -549q-58 -340 -311 -549zM372 298q133 -163 402 -163t462 163q194 164 239 429q47 266 -88 429q-136 163 -404 163q-266 0 -459 -163
q-195 -164 -241 -429q-45 -265 89 -429zM483 606h279q-14 -86 72 -86q98 0 110 68q4 26 -16 41.5t-62 15.5h-98l29 160h98q59 0 70 63q13 70 -54 70q-76 0 -90 -86h-278q26 138 135 220q110 83 272 83q159 0 247 -59q87 -60 69 -158q-12 -72 -80 -115t-182 -49
q127 -14 182 -71.5t39 -151.5q-19 -112 -137 -180t-291 -68q-167 0 -252 84q-87 84 -62 219z" />
    <glyph glyph-name="uni2463" unicode="&#x2463;" horiz-adv-x="1687" 
d="M1350 178q-253 -209 -604 -209q-352 0 -531 209q-178 208 -118 549q58 340 311 549q251 209 604 209q351 0 530 -209q178 -208 119 -549q-58 -340 -311 -549zM372 298q133 -163 402 -163t462 163q194 164 239 429q47 266 -88 429q-136 163 -404 163q-266 0 -459 -163
q-195 -164 -241 -429q-45 -265 89 -429zM791 457h-308l76 426l186 241h451l-80 -460h107l-37 -207h-107l-22 -127h-289zM907 1081l-329 -422l86 3l163 2l31 182z" />
    <glyph glyph-name="uni2464" unicode="&#x2464;" horiz-adv-x="1687" 
d="M1350 178q-253 -209 -604 -209q-352 0 -531 209q-178 208 -118 549q58 340 311 549q251 209 604 209q351 0 530 -209q178 -208 119 -549q-58 -340 -311 -549zM372 298q133 -163 402 -163t462 163q194 164 239 429q47 266 -88 429q-136 163 -404 163q-266 0 -459 -163
q-195 -164 -241 -429q-45 -265 89 -429zM502 596h278q-14 -90 60 -90q68 0 82 78q18 94 -54 94q-50 0 -100 -41h-250l115 487h633l-39 -225h-269l-127 2l-47 -199q86 125 238 125q104 0 157 -65q52 -65 31 -172q-19 -128 -131 -208q-112 -79 -272 -79q-162 0 -245 80
q-82 79 -60 213z" />
    <glyph glyph-name="uni2465" unicode="&#x2465;" horiz-adv-x="1687" 
d="M1350 178q-253 -209 -604 -209q-352 0 -531 209q-178 208 -118 549q58 340 311 549q251 209 604 209q351 0 530 -209q178 -208 119 -549q-58 -340 -311 -549zM372 298q133 -163 402 -163t462 163q194 164 239 429q47 266 -88 429q-136 163 -404 163q-266 0 -459 -163
q-195 -164 -241 -429q-45 -265 89 -429zM492 725q33 193 164 312q130 118 311 118q163 0 251 -74q86 -75 64 -196h-278q6 35 -11.5 50t-62.5 15q-57 0 -93 -53t-59 -172q-3 -18 -10 -53q35 70 103 109.5t155 39.5q114 0 169 -63q56 -65 38 -168q-19 -128 -132 -208
q-112 -79 -272 -79q-201 0 -287.5 108.5t-49.5 313.5zM766 590q-6 -36 14.5 -53t69.5 -17q84 0 96 70q8 41 -8 59.5t-61 18.5q-97 0 -111 -78z" />
    <glyph glyph-name="uni2466" unicode="&#x2466;" horiz-adv-x="1687" 
d="M1350 178q-253 -209 -604 -209q-352 0 -531 209q-178 208 -118 549q58 340 311 549q251 209 604 209q351 0 530 -209q178 -208 119 -549q-58 -340 -311 -549zM372 298q133 -163 402 -163t462 163q194 164 239 429q47 266 -88 429q-136 163 -404 163q-266 0 -459 -163
q-195 -164 -241 -429q-45 -265 89 -429zM958 893h-335l39 231h598l-68 -383q-92 -27 -173 -140q-82 -115 -110 -271h-295q33 182 167 341q133 155 349 226z" />
    <glyph glyph-name="uni2467" unicode="&#x2467;" horiz-adv-x="1687" 
d="M1350 178q-253 -209 -604 -209q-352 0 -531 209q-178 208 -118 549q58 340 311 549q251 209 604 209q351 0 530 -209q178 -208 119 -549q-58 -340 -311 -549zM372 298q133 -163 402 -163t462 163q194 164 239 429q47 266 -88 429q-136 163 -404 163q-266 0 -459 -163
q-195 -164 -241 -429q-45 -265 89 -429zM463 528q31 168 254 211q-190 40 -166 187q18 102 130 166q113 63 274 63t250 -63q89 -65 71 -166q-25 -145 -232 -187q211 -45 181 -211q-18 -102 -133 -163q-116 -62 -287 -62q-173 0 -267 62q-93 61 -75 163zM823 874
q-7 -40 10 -60t58 -19q83 0 96 79q13 82 -68 82q-83 0 -96 -82zM760 588q-14 -84 80 -84t108 84q8 43 -11 61.5t-69 18.5q-94 0 -108 -80z" />
    <glyph glyph-name="uni2468" unicode="&#x2468;" horiz-adv-x="1687" 
d="M1350 178q-253 -209 -604 -209q-352 0 -531 209q-178 208 -118 549q58 340 311 549q251 209 604 209q351 0 530 -209q178 -208 119 -549q-58 -340 -311 -549zM372 298q133 -163 402 -163t462 163q194 164 239 429q47 266 -88 429q-136 163 -404 163q-266 0 -459 -163
q-195 -164 -241 -429q-45 -265 89 -429zM541 868q22 128 134 208q110 79 271 79q201 0 287 -107.5t51 -314.5q-33 -192 -164 -311t-311 -119q-165 0 -250 76q-85 77 -63 201h278q-8 -39 8.5 -55.5t61.5 -16.5q112 0 153 225l9 51q-33 -68 -99.5 -107.5t-148.5 -39.5
q-118 0 -176 64q-59 64 -41 167zM827 868q-6 -39 12 -58.5t60 -18.5q95 0 109 77q8 36 -13 53t-71 17q-84 0 -97 -70z" />
    <glyph glyph-name="uni24EA" unicode="&#x24ea;" horiz-adv-x="1687" 
d="M1350 178q-253 -209 -604 -209q-352 0 -531 209q-178 208 -118 549q58 340 311 549q251 209 604 209q351 0 530 -209q178 -208 119 -549q-58 -340 -311 -549zM372 298q133 -163 402 -163t462 163q194 164 239 429q47 266 -88 429q-136 163 -404 163q-266 0 -459 -163
q-195 -164 -241 -429q-45 -265 89 -429zM1119 420q-132 -117 -314 -117t-273 118q-92 119 -59 308q33 193 166 310q134 116 316 116t272 -116q90 -117 57 -309q-33 -193 -165 -310zM766 595q19 -40 82 -40q61 0 97 40q37 41 50 132q16 93 -4 133.5t-81 40.5q-62 0 -97 -41
q-34 -40 -51 -133q-17 -92 4 -132z" />
    <glyph glyph-name="uni24FF" unicode="&#x24ff;" horiz-adv-x="1687" 
d="M1350 178q-253 -209 -604 -209q-352 0 -531 209q-178 208 -119 551q58 339 311 548q251 208 605 208q352 0 530 -208q178 -207 119 -548q-59 -342 -311 -551zM532 421q91 -118 273 -118t314 117t165 310q33 192 -57 309q-90 116 -272 116t-316 -116q-133 -117 -166 -310
q-33 -189 59 -308zM945 595q-36 -40 -97 -40q-63 0 -82 40q-21 40 -4 132q17 93 51 133q35 41 97 41q61 0 82 -41q20 -41 3 -133q-13 -91 -50 -132z" />
    <glyph glyph-name="lozenge" unicode="&#x25ca;" horiz-adv-x="1339" 
d="M489 1454h689l145 -727l-403 -727h-689l-145 727zM473 727l115 -664l348 664l-115 666z" />
    <glyph glyph-name="uni2766" unicode="&#x2766;" horiz-adv-x="968" 
d="M29 395h-33l55 316h33q-5 -29 16 -29q13 0 18 5.5t7 23.5h551l-55 -316h-551q2 18 -1 23.5t-16 5.5q-19 0 -24 -29zM670 408l51 290q121 0 183 -44t48 -101q-12 -58 -86 -102q-74 -43 -196 -43zM588 436l6 37h-481l-7 -37h482z" />
    <glyph glyph-name="uni2776" unicode="&#x2776;" horiz-adv-x="1687" 
d="M745 -31q-351 0 -530 210q-178 209 -118 550q58 339 311 548q250 208 604 208q352 0 530 -208q178 -207 119 -548q-58 -340 -312 -550q-253 -210 -604 -210zM561 1001l-55 -315l239 184l148 140l-55 -269l-72 -411h287l139 794h-473z" />
    <glyph glyph-name="uni2777" unicode="&#x2777;" horiz-adv-x="1687" 
d="M745 -31q-351 0 -530 210q-178 209 -118 550q58 339 311 548q250 208 604 208q352 0 530 -208q178 -207 119 -548q-58 -340 -312 -550q-253 -210 -604 -210zM532 705l-65 -375h707l40 231h-415l-140 -2l136 25l202 53q240 62 273 242q23 125 -58 201q-82 75 -243 75
q-163 0 -278 -87q-116 -87 -140 -228h278q20 125 99 125q74 0 59 -86q-12 -78 -86 -95z" />
    <glyph glyph-name="uni2778" unicode="&#x2778;" horiz-adv-x="1687" 
d="M745 -31q-351 0 -530 210q-178 209 -118 550q58 339 311 548q250 208 604 208q352 0 530 -208q178 -207 119 -548q-58 -340 -312 -550q-253 -210 -604 -210zM762 606h-279q-25 -135 62 -219q85 -84 252 -84q173 0 291 68q116 68 137 180q16 94 -39 151.5t-182 71.5
q114 6 181.5 48.5t80.5 115.5q18 98 -69 158q-88 59 -247 59q-162 0 -272 -83q-111 -82 -135 -220h278q14 86 90 86q67 0 54 -70q-11 -63 -70 -63h-98l-29 -160h98q41 0 61.5 -16t16.5 -41q-12 -68 -110 -68q-86 0 -72 86z" />
    <glyph glyph-name="uni2779" unicode="&#x2779;" horiz-adv-x="1687" 
d="M745 -31q-351 0 -530 210q-178 209 -118 550q58 339 311 548q250 208 604 208q352 0 530 -208q178 -207 119 -548q-58 -340 -312 -550q-253 -210 -604 -210zM559 883l-76 -426h308l-23 -127h289l22 127h107l37 207h-107l80 460h-451zM664 662l-86 -3l329 422l-49 -235
l-31 -182z" />
    <glyph glyph-name="uni277A" unicode="&#x277a;" horiz-adv-x="1687" 
d="M745 -31q-351 0 -530 210q-178 209 -118 550q58 339 311 548q250 208 604 208q352 0 530 -208q178 -207 119 -548q-58 -340 -312 -550q-253 -210 -604 -210zM780 596h-278q-22 -134 60 -213q83 -80 245 -80q160 0 272 79q112 80 131 208q20 107 -32 172q-53 65 -156 65
q-152 0 -238 -125l47 199l127 -2h269l39 225h-633l-115 -487h250q50 41 100 41q72 0 54 -94q-14 -78 -82 -78q-74 0 -60 90z" />
    <glyph glyph-name="uni277B" unicode="&#x277b;" horiz-adv-x="1687" 
d="M745 -31q-351 0 -530 210q-178 209 -118 550q58 339 311 548q250 208 604 208q352 0 530 -208q178 -207 119 -548q-58 -340 -312 -550q-253 -210 -604 -210zM492 725q-37 -205 50 -313.5t287 -108.5q160 0 272 79q111 80 132 208q18 103 -38 168q-55 63 -169 63
q-87 0 -154.5 -39.5t-103.5 -109.5l10 53q23 119 58.5 172t93.5 53q45 0 62.5 -15t11.5 -50h278q22 121 -64 196q-89 74 -251 74q-181 0 -311 -118q-131 -119 -164 -312zM766 590q14 78 111 78q45 0 61 -18.5t8 -59.5q-12 -70 -96 -70q-49 0 -69.5 17t-14.5 53z" />
    <glyph glyph-name="uni277C" unicode="&#x277c;" horiz-adv-x="1687" 
d="M745 -31q-351 0 -530 210q-178 209 -118 550q58 339 311 548q250 208 604 208q352 0 530 -208q178 -207 119 -548q-58 -340 -312 -550q-253 -210 -604 -210zM662 1124l-39 -231h335l172 4q-216 -71 -349 -226q-134 -159 -167 -341h295q28 157 110 272q82 114 173 139
l68 383h-598z" />
    <glyph glyph-name="uni277D" unicode="&#x277d;" horiz-adv-x="1687" 
d="M745 -31q-351 0 -530 210q-178 209 -118 550q58 339 311 548q250 208 604 208q352 0 530 -208q178 -207 119 -548q-58 -340 -312 -550q-253 -210 -604 -210zM463 528q-18 -102 75 -163q94 -62 267 -62q171 0 287 62q114 61 133 163q31 166 -181 211q206 40 232 187
q18 101 -71 166q-89 63 -250 63t-274 -63q-112 -64 -130 -166q-25 -145 166 -187q-223 -43 -254 -211zM823 874q13 82 96 82q81 0 68 -82q-14 -80 -96 -80t-68 80zM760 588q14 80 108 80q49 0 68.5 -19t11.5 -61q-14 -84 -108 -84t-80 84z" />
    <glyph glyph-name="uni277E" unicode="&#x277e;" horiz-adv-x="1687" 
d="M745 -31q-351 0 -530 210q-178 209 -118 550q58 339 311 548q250 208 604 208q352 0 530 -208q178 -207 119 -548q-58 -340 -312 -550q-253 -210 -604 -210zM541 868q-18 -103 41 -167q58 -64 176 -64q81 0 148 40t100 107l-9 -51q-41 -225 -153 -225q-45 0 -61.5 16.5
t-8.5 55.5h-278q-22 -124 63 -201q85 -76 250 -76q180 0 311 119t164 311q35 207 -51 314.5t-287 107.5q-161 0 -271 -79q-112 -80 -134 -208zM827 868q13 70 97 70q50 0 71 -17t13 -53q-12 -78 -109 -77q-42 -1 -60 18.5t-12 58.5z" />
    <glyph glyph-name="uniF8FF" unicode="&#xf8ff;" horiz-adv-x="1204" 
d="M1116 1180l27 -230l-8 -6q-62 98 -139 122q-80 25 -343 26q-13 -207 -14 -295q87 1 148 44q59 43 110 144h6l-22 -145q-90 -75 -242 -80v-66q0 -119 4 -291q133 0 199 3q0 172 -15 284q-36 11 -88 19v6q143 27 246 71l2 -6q-41 -45 -54 -118q-13 -71 -13 -279
q0 -221 12 -340l78 -37v-6h-332v6l151 53q11 97 13 295q-88 2 -197 2q2 -34 2 -72q0 -41 2 -71l-108 -66l-4 7q7 56 20 202q-109 0 -197 -2q0 -198 13 -295l153 -53v-6h-333v6l77 37q11 113 13 340q0 207 -12 280q-14 73 -56 117l2 6q92 -42 246 -71v-6q-46 -7 -88 -19
q-13 -112 -15 -284q133 0 199 -3q6 125 6 291v70q-132 18 -215 103q-85 86 -92 210q-75 -12 -109 -39q-36 -28 -79 -94l-9 6q17 137 23 189l8 41q52 -33 168 -39q13 138 116 226q101 87 253 87q113 0 223 -65l31 57l12 -8q-20 -101 -21 -221h-4q-56 203 -241 204
q-114 2 -190 -77q-77 -80 -87 -207q82 -2 248 -2q286 0 374 9t138 36h4zM350 1087q4 -108 63 -185q59 -76 150 -99q-2 144 -12 289q-132 -2 -201 -5z" />
    <glyph glyph-name="I.ss02" horiz-adv-x="1228" 
d="M1278 1454l-66 -369h-280l-125 -716h280l-65 -369h-1002l66 369h281l125 716h-281l65 369h1002z" />
    <glyph glyph-name="Iacute.ss02" horiz-adv-x="1228" 
d="M782 1956h357l-213 -369h-281zM1278 1454l-66 -369h-280l-125 -716h280l-65 -369h-1002l66 369h281l125 716h-281l65 369h1002z" />
    <glyph glyph-name="Ibreve.ss02" horiz-adv-x="1228" 
d="M801 1577q-164 0 -236 94t-39 285h246q-27 -143 70 -143q48 -1 78.5 35t44.5 108h245q-69 -379 -409 -379zM1278 1454l-66 -369h-280l-125 -716h280l-65 -369h-1002l66 369h281l125 716h-281l65 369h1002z" />
    <glyph glyph-name="Icircumflex.ss02" horiz-adv-x="1228" 
d="M920 1587l-64 311l-174 -311h-315l237 369h524l107 -369h-315zM1278 1454l-66 -369h-280l-125 -716h280l-65 -369h-1002l66 369h281l125 716h-281l65 369h1002z" />
    <glyph glyph-name="Idieresis.ss02" horiz-adv-x="1228" 
d="M475 1935h348l-57 -329h-348zM899 1935h348l-57 -329h-348zM1278 1454l-66 -369h-280l-125 -716h280l-65 -369h-1002l66 369h281l125 716h-281l65 369h1002z" />
    <glyph glyph-name="Idotaccent.ss02" horiz-adv-x="1228" 
d="M647 1935h430l-57 -329h-430zM1278 1454l-66 -369h-280l-125 -716h280l-65 -369h-1002l66 369h281l125 716h-281l65 369h1002z" />
    <glyph glyph-name="uni1ECA.ss02" horiz-adv-x="1228" 
d="M1278 1454l-66 -369h-280l-125 -716h280l-65 -369h-1002l66 369h281l125 716h-281l65 369h1002zM659 -444h-430l58 329h430z" />
    <glyph glyph-name="Igrave.ss02" horiz-adv-x="1228" 
d="M942 1956l6 -369h-280l-82 369h356zM1278 1454l-66 -369h-280l-125 -716h280l-65 -369h-1002l66 369h281l125 716h-281l65 369h1002z" />
    <glyph glyph-name="Imacron.ss02" horiz-adv-x="1228" 
d="M567 1925h586l-53 -307h-586zM1278 1454l-66 -369h-280l-125 -716h280l-65 -369h-1002l66 369h281l125 716h-281l65 369h1002z" />
    <glyph glyph-name="Iogonek.ss02" horiz-adv-x="1228" 
d="M1278 1454l-66 -369h-280l-125 -716h280l-65 -369h-281l-112 -129q-33 -35 -35 -55q-5 -37 41 -37h94l-41 -230h-303q-78 0 -111.5 37.5t-23.5 102.5q12 72 82 151l145 160h-457l66 369h281l125 716h-281l65 369h1002z" />
    <glyph glyph-name="Itilde.ss02" horiz-adv-x="1228" 
d="M692 1688q-82 0 -96 -80h-184q31 173 106 257.5t201 84.5q59 0 136 -42t122 -42q83 0 94 80h184q-31 -176 -103 -259t-202 -83q-60 0 -136 42t-122 42zM1278 1454l-66 -369h-280l-125 -716h280l-65 -369h-1002l66 369h281l125 716h-281l65 369h1002z" />
    <glyph glyph-name="Z.ss03" horiz-adv-x="1380" 
d="M1225 0h-1237l114 653l1080 447l-207 -15h-787l66 369h1223l-113 -643l-1106 -459l217 17h815z" />
    <glyph glyph-name="Zacute.ss03" horiz-adv-x="1380" 
d="M756 1587l137 369h356l-213 -369h-280zM1225 0h-1237l114 653l1080 447l-207 -15h-787l66 369h1223l-113 -643l-1106 -459l217 17h815z" />
    <glyph glyph-name="Zcaron.ss03" horiz-adv-x="1380" 
d="M1174 1587h-525l-106 369h315l64 -311l174 311h315zM254 1454h1223l-113 -643l-1106 -459l217 17h815l-65 -369h-1237l114 653l1080 447l-207 -15h-787z" />
    <glyph glyph-name="Zdotaccent.ss03" horiz-adv-x="1380" 
d="M700 1606l58 329h430l-58 -329h-430zM1225 0h-1237l114 653l1080 447l-207 -15h-787l66 369h1223l-113 -643l-1106 -459l217 17h815z" />
    <glyph glyph-name="a.salt" horiz-adv-x="1312" 
d="M877 813l45 252h393l-187 -1065h-393l49 283q-67 -148 -175 -230q-109 -84 -238 -84q-187 0 -276 155t-44 408q46 253 190 409q143 155 328 155q126 0 207.5 -75.5t100.5 -207.5zM598 281q88 0 139 59.5t74 191.5q25 131 -5 191.5t-120 60.5q-88 0 -139 -59.5t-76 -192.5
q-23 -131 7 -191t120 -60z" />
    <glyph glyph-name="aacute.salt" horiz-adv-x="1312" 
d="M770 1567h356l-213 -369h-280zM877 813l45 252h393l-187 -1065h-393l49 283q-67 -148 -175 -230q-109 -84 -238 -84q-187 0 -276 155t-44 408q46 253 190 409q143 155 328 155q126 0 207.5 -75.5t100.5 -207.5zM598 281q88 0 139 59.5t74 191.5q25 131 -5 191.5
t-120 60.5q-88 0 -139 -59.5t-76 -192.5q-23 -131 7 -191t120 -60z" />
    <glyph glyph-name="abreve.salt" horiz-adv-x="1312" 
d="M788 1188q-164 0 -236 94t-38 285h246q-27 -143 70 -143q48 -1 78.5 35t43.5 108h246q-69 -379 -410 -379zM877 813l45 252h393l-187 -1065h-393l49 283q-67 -148 -175 -230q-109 -84 -238 -84q-187 0 -276 155t-44 408q46 253 190 409q143 155 328 155
q126 0 207.5 -75.5t100.5 -207.5zM598 281q88 0 139 59.5t74 191.5q25 131 -5 191.5t-120 60.5q-88 0 -139 -59.5t-76 -192.5q-23 -131 7 -191t120 -60z" />
    <glyph glyph-name="acircumflex.salt" horiz-adv-x="1312" 
d="M907 1198l-63 311l-174 -311h-316l238 369h524l107 -369h-316zM877 813l45 252h393l-187 -1065h-393l49 283q-67 -148 -175 -230q-109 -84 -238 -84q-187 0 -276 155t-44 408q46 253 190 409q143 155 328 155q126 0 207.5 -75.5t100.5 -207.5zM598 281q88 0 139 59.5
t74 191.5q25 131 -5 191.5t-120 60.5q-88 0 -139 -59.5t-76 -192.5q-23 -131 7 -191t120 -60z" />
    <glyph glyph-name="adieresis.salt" horiz-adv-x="1312" 
d="M463 1546h348l-57 -329h-348zM887 1546h348l-57 -329h-349zM877 813l45 252h393l-187 -1065h-393l49 283q-67 -148 -175 -230q-109 -84 -238 -84q-187 0 -276 155t-44 408q46 253 190 409q143 155 328 155q126 0 207.5 -75.5t100.5 -207.5zM598 281q88 0 139 59.5
t74 191.5q25 131 -5 191.5t-120 60.5q-88 0 -139 -59.5t-76 -192.5q-23 -131 7 -191t120 -60z" />
    <glyph glyph-name="uni1EA1.salt" horiz-adv-x="1312" 
d="M877 813l45 252h393l-187 -1065h-393l49 283q-67 -148 -175 -230q-109 -84 -238 -84q-187 0 -276 155t-44 408q46 253 190 409q143 155 328 155q126 0 207.5 -75.5t100.5 -207.5zM598 281q88 0 139 59.5t74 191.5q25 131 -5 191.5t-120 60.5q-88 0 -139 -59.5t-76 -192.5
q-23 -131 7 -191t120 -60zM748 -444h-431l58 329h430z" />
    <glyph glyph-name="agrave.salt" horiz-adv-x="1312" 
d="M934 1567l6 -369h-281l-81 369h356zM877 813l45 252h393l-187 -1065h-393l49 283q-67 -148 -175 -230q-109 -84 -238 -84q-187 0 -276 155t-44 408q46 253 190 409q143 155 328 155q126 0 207.5 -75.5t100.5 -207.5zM598 281q88 0 139 59.5t74 191.5q25 131 -5 191.5
t-120 60.5q-88 0 -139 -59.5t-76 -192.5q-23 -131 7 -191t120 -60z" />
    <glyph glyph-name="amacron.salt" horiz-adv-x="1312" 
d="M555 1536h586l-54 -307h-585zM877 813l45 252h393l-187 -1065h-393l49 283q-67 -148 -175 -230q-109 -84 -238 -84q-187 0 -276 155t-44 408q46 253 190 409q143 155 328 155q126 0 207.5 -75.5t100.5 -207.5zM598 281q88 0 139 59.5t74 191.5q25 131 -5 191.5t-120 60.5
q-88 0 -139 -59.5t-76 -192.5q-23 -131 7 -191t120 -60z" />
    <glyph glyph-name="aogonek.salt" horiz-adv-x="1312" 
d="M1128 0l-112 -129q-33 -35 -35 -55q-4 -18 6.5 -27.5t34.5 -9.5h94l-41 -230h-303q-78 0 -112.5 38t-22.5 102q12 72 82 151l145 160h-129l49 283q-67 -148 -175 -230q-109 -84 -238 -84q-187 0 -276 155t-44 408q46 253 190 409q143 155 328 155q126 0 207.5 -75.5
t100.5 -207.5l45 252h393zM598 281q88 0 139 59.5t74 191.5q25 131 -5 191.5t-120 60.5q-88 0 -139 -59.5t-76 -192.5q-23 -131 7 -191t120 -60z" />
    <glyph glyph-name="aring.salt" horiz-adv-x="1312" 
d="M961 1241q-73 -53 -172 -53q-101 0 -152 53q-51 52 -37 141q13 88 86 142q73 53 172 53t152 -53q51 -53 37 -142q-15 -88 -86 -141zM758 1382q-12 -57 55 -57q63 0 76 57q7 57 -55 58q-69 -2 -76 -58zM877 813l45 252h393l-187 -1065h-393l49 283q-67 -148 -175 -230
q-109 -84 -238 -84q-187 0 -276 155t-44 408q46 253 190 409q143 155 328 155q126 0 207.5 -75.5t100.5 -207.5zM598 281q88 0 139 59.5t74 191.5q25 131 -5 191.5t-120 60.5q-88 0 -139 -59.5t-76 -192.5q-23 -131 7 -191t120 -60z" />
    <glyph glyph-name="aringacute.salt" horiz-adv-x="1312" 
d="M961 1241q-73 -53 -172 -53q-101 0 -152 53q-51 52 -37 141q13 88 86 142q73 53 172 53l64 174h295l-195 -242q37 -49 25 -127q-13 -88 -86 -141zM834 1440q-64 0 -76 -57q-13 -58 55 -58q69 0 76 58q7 57 -55 57zM877 813l45 252h393l-187 -1065h-393l49 283
q-67 -148 -175 -230q-109 -84 -238 -84q-187 0 -276 155t-44 408q46 253 190 409q143 155 328 155q126 0 207.5 -75.5t100.5 -207.5zM598 281q88 0 139 59.5t74 191.5q25 131 -5 191.5t-120 60.5q-88 0 -139 -59.5t-76 -192.5q-23 -131 7 -191t120 -60z" />
    <glyph glyph-name="atilde.salt" horiz-adv-x="1312" 
d="M680 1298q-83 0 -96 -79h-185q31 173 106.5 257.5t201.5 84.5q59 0 136 -42t122 -42q84 0 94 79h184q-31 -176 -103 -259t-202 -83q-60 0 -136 42t-122 42zM877 813l45 252h393l-187 -1065h-393l49 283q-67 -148 -175 -230q-109 -84 -238 -84q-187 0 -276 155t-44 408
q46 253 190 409q143 155 328 155q126 0 207.5 -75.5t100.5 -207.5zM598 281q88 0 139 59.5t74 191.5q25 131 -5 191.5t-120 60.5q-88 0 -139 -59.5t-76 -192.5q-23 -131 7 -191t120 -60z" />
    <glyph glyph-name="g.salt" horiz-adv-x="1306" 
d="M872 809l46 256h393l-178 -1010q-39 -214 -223 -344q-185 -131 -451 -131q-255 0 -391 128t-99 339h328q-147 33 -213 173q-66 139 -31 343q40 239 182 387q140 146 328 146q129 0 210 -76t99 -211zM473 563q-41 -221 131 -221q162 0 205 205l6 35q16 108 -15 155
t-118 47q-90 0 -139.5 -52t-69.5 -169zM381 -80q37 -37 131 -37t147 54q51 54 74 176l31 172q-69 -115 -170.5 -180.5t-216.5 -65.5h-21q-12 -82 25 -119z" />
    <glyph glyph-name="gbreve.salt" horiz-adv-x="1306" 
d="M784 1188q-164 0 -236 94t-38 285h246q-27 -143 70 -143q48 -1 78.5 35t43.5 108h246q-69 -379 -410 -379zM872 809l46 256h393l-178 -1010q-39 -214 -223 -344q-185 -131 -451 -131q-255 0 -391 128t-99 339h328q-147 33 -213 173q-66 139 -31 343q40 239 182 387
q140 146 328 146q129 0 210 -76t99 -211zM473 563q-41 -221 131 -221q162 0 205 205l6 35q16 108 -15 155t-118 47q-90 0 -139.5 -52t-69.5 -169zM381 -80q37 -37 131 -37t147 54q51 54 74 176l31 172q-69 -115 -170.5 -180.5t-216.5 -65.5h-21q-12 -82 25 -119z" />
    <glyph glyph-name="gcaron.salt" horiz-adv-x="1306" 
d="M1047 1198h-525l-106 369h315l64 -312l174 312h315zM872 809l46 256h393l-178 -1010q-39 -214 -223 -344q-185 -131 -451 -131q-255 0 -391 128t-99 339h328q-147 33 -213 173q-66 139 -31 343q40 239 182 387q140 146 328 146q129 0 210 -76t99 -211zM473 563
q-41 -221 131 -221q162 0 205 205l6 35q16 108 -15 155t-118 47q-90 0 -139.5 -52t-69.5 -169zM381 -80q37 -37 131 -37t147 54q51 54 74 176l31 172q-69 -115 -170.5 -180.5t-216.5 -65.5h-21q-12 -82 25 -119z" />
    <glyph glyph-name="gcircumflex.salt" horiz-adv-x="1306" 
d="M903 1198l-63 311l-174 -311h-316l238 369h524l107 -369h-316zM872 809l46 256h393l-178 -1010q-39 -214 -223 -344q-185 -131 -451 -131q-255 0 -391 128t-99 339h328q-147 33 -213 173q-66 139 -31 343q40 239 182 387q140 146 328 146q129 0 210 -76t99 -211zM473 563
q-41 -221 131 -221q162 0 205 205l6 35q16 108 -15 155t-118 47q-90 0 -139.5 -52t-69.5 -169zM381 -80q37 -37 131 -37t147 54q51 54 74 176l31 172q-69 -115 -170.5 -180.5t-216.5 -65.5h-21q-12 -82 25 -119z" />
    <glyph glyph-name="uni0123.salt" horiz-adv-x="1306" 
d="M838 1452l170 -53l-35 -201h-379l43 246q22 126 149 206q124 79 308 79l-29 -154q-110 0 -163.5 -28.5t-63.5 -94.5zM872 809l46 256h393l-178 -1010q-39 -214 -223 -344q-185 -131 -451 -131q-255 0 -391 128t-99 339h328q-147 33 -213 173q-66 139 -31 343
q40 239 182 387q140 146 328 146q129 0 210 -76t99 -211zM473 563q-41 -221 131 -221q162 0 205 205l6 35q16 108 -15 155t-118 47q-90 0 -139.5 -52t-69.5 -169zM381 -80q37 -37 131 -37t147 54q51 54 74 176l31 172q-69 -115 -170.5 -180.5t-216.5 -65.5h-21
q-12 -82 25 -119z" />
    <glyph glyph-name="gdotaccent.salt" horiz-adv-x="1306" 
d="M631 1546h430l-57 -329h-431zM872 809l46 256h393l-178 -1010q-39 -214 -223 -344q-185 -131 -451 -131q-255 0 -391 128t-99 339h328q-147 33 -213 173q-66 139 -31 343q40 239 182 387q140 146 328 146q129 0 210 -76t99 -211zM473 563q-41 -221 131 -221
q162 0 205 205l6 35q16 108 -15 155t-118 47q-90 0 -139.5 -52t-69.5 -169zM381 -80q37 -37 131 -37t147 54q51 54 74 176l31 172q-69 -115 -170.5 -180.5t-216.5 -65.5h-21q-12 -82 25 -119z" />
    <glyph glyph-name="l.salt" horiz-adv-x="587" 
d="M-2 0l276 1567h410l-276 -1567h-410z" />
    <glyph glyph-name="lacute.salt" horiz-adv-x="587" 
d="M338 1659l137 369h356l-213 -369h-280zM-2 0l276 1567h410l-276 -1567h-410z" />
    <glyph glyph-name="lcaron.salt" horiz-adv-x="587" 
d="M-2 0l276 1567h410l-276 -1567h-410zM754 1366l37 201h358l-43 -246q-22 -126 -142 -206q-119 -79 -294 -79l26 154q186 0 209 123z" />
    <glyph glyph-name="uni013C.salt" horiz-adv-x="587" 
d="M-2 0l276 1567h410l-276 -1567h-410zM-31 -315l37 200h359l-43 -245q-22 -126 -143 -206q-119 -79 -294 -79l27 153q186 0 209 123z" />
    <glyph glyph-name="ldot.salt" horiz-adv-x="1034" 
d="M-2 0l276 1567h410l-276 -1567h-410zM571 565l70 391h391l-69 -391h-392z" />
    <glyph glyph-name="lslash.salt" horiz-adv-x="612" 
d="M571 932l183 117l-64 -367l-182 -117l-100 -565h-410l70 393l-131 -82l65 367l129 82l143 807h410z" />
    <glyph glyph-name="y.salt" horiz-adv-x="1269" 
d="M694 465l246 600h420l-621 -1464h-397l164 399h-320l-75 1065h428l30 -600l6 -320z" />
    <glyph glyph-name="yacute.salt" horiz-adv-x="1269" 
d="M754 1567h356l-213 -369h-281zM694 465l246 600h420l-621 -1464h-397l164 399h-320l-75 1065h428l30 -600l6 -320z" />
    <glyph glyph-name="ycircumflex.salt" horiz-adv-x="1269" 
d="M891 1198l-64 311l-174 -311h-315l237 369h525l106 -369h-315zM694 465l246 600h420l-621 -1464h-397l164 399h-320l-75 1065h428l30 -600l6 -320z" />
    <glyph glyph-name="ydieresis.salt" horiz-adv-x="1269" 
d="M446 1546h349l-58 -329h-348zM870 1546h349l-58 -329h-348zM694 465l246 600h420l-621 -1464h-397l164 399h-320l-75 1065h428l30 -600l6 -320z" />
    <glyph glyph-name="ygrave.salt" horiz-adv-x="1269" 
d="M918 1567l6 -369h-281l-82 369h357zM694 465l246 600h420l-621 -1464h-397l164 399h-320l-75 1065h428l30 -600l6 -320z" />
    <glyph glyph-name="uni0233.salt" horiz-adv-x="1269" 
d="M539 1536h585l-53 -307h-586zM694 465l246 600h420l-621 -1464h-397l164 399h-320l-75 1065h428l30 -600l6 -320z" />
    <glyph glyph-name="uni1EF9.salt" horiz-adv-x="1269" 
d="M664 1298q-82 0 -97 -79h-184q31 173 106 257.5t201 84.5q60 0 136 -42t122 -42q84 0 94 79h185q-31 -176 -103 -259t-202 -83q-60 0 -136 42q-77 42 -122 42zM694 465l246 600h420l-621 -1464h-397l164 399h-320l-75 1065h428l30 -600l6 -320z" />
    <glyph glyph-name="z.ss03" horiz-adv-x="1067" 
d="M893 0h-913l88 504l667 262l-231 -12h-381l55 311h893l-90 -508l-655 -258l221 12h401z" />
    <glyph glyph-name="zacute.ss03" horiz-adv-x="1067" 
d="M492 1198l137 369h356l-213 -369h-280zM893 0h-913l88 504l667 262l-231 -12h-381l55 311h893l-90 -508l-655 -258l221 12h401z" />
    <glyph glyph-name="zcaron.ss03" horiz-adv-x="1067" 
d="M909 1198h-524l-106 369h315l63 -312l174 312h316zM504 754h-381l55 311h893l-90 -508l-655 -258l221 12h401l-55 -311h-913l88 504l667 262z" />
    <glyph glyph-name="zdotaccent.ss03" horiz-adv-x="1067" 
d="M436 1217l58 329h430l-58 -329h-430zM893 0h-913l88 504l667 262l-231 -12h-381l55 311h893l-90 -508l-655 -258l221 12h401z" />
    <glyph glyph-name="f_f_j.dlig" horiz-adv-x="2088" 
d="M1395 1065h704l-194 -1106q-32 -171 -169 -275q-140 -104 -333 -104q-79 0 -152 21l52 297h83q96 0 115 100l135 760h-297l-133 -758h-409l133 758h-295l-133 -758h-410l135 758h-196l55 307h195l18 102q28 169 169 275q140 104 341 104q108 0 174 -20l-53 -297h-105
q-105 0 -125 -107l-10 -57h295l25 143q32 171 172 275q142 104 340 104q108 0 172 -26l-54 -291h-104q-104 0 -125 -107zM1706 1217l57 329h430l-57 -329h-430z" />
    <glyph glyph-name="f_iacute.dlig" horiz-adv-x="1386" 
d="M690 1065h705l-189 -1065h-409l133 758h-295l-133 -758h-410l133 758h-194l55 307h195l24 143q32 171 172 275q142 104 340 104q121 0 213 -22l-53 -295h-146q-104 0 -124 -107zM1194 1567h356l-213 -369h-280z" />
    <glyph glyph-name="f_j.dlig" horiz-adv-x="1384" 
d="M690 1065h705l-195 -1106q-32 -171 -169 -275q-139 -104 -333 -104q-78 0 -151 21l51 297h84q96 0 115 100l135 760h-297l-133 -758h-410l133 758h-194l55 307h195l24 143q32 171 172 275q142 104 340 104q105 0 172 -24l-53 -293h-105q-104 0 -124 -107zM1001 1217
l58 329h430l-57 -329h-431z" />
    <glyph glyph-name="f_t.dlig" horiz-adv-x="1701" 
d="M1708 758h-332l-63 -355q-18 -106 88 -106h227l-51 -297q-155 -20 -303 -20q-200 0 -304 104t-73 274l70 400h-330l-133 -758h-410l133 758h-194l53 307h197l24 143q28 169 169 275q140 104 341 104q125 0 213 -22l-51 -295h-145q-105 0 -125 -107l-17 -98h330l63 309
h400l-55 -309h331z" />
    <glyph glyph-name="t_t.dlig" horiz-adv-x="1724" 
d="M1731 758h-332l-64 -355q-18 -106 88 -106h228l-52 -297q-155 -20 -303 -20q-200 0 -304 104t-72 274l69 400h-356l-64 -355q-18 -106 88 -106h154l-51 -295q-108 -23 -230 -22q-200 0 -304 104t-72 274l69 400h-194l53 307h197l57 268h399l-47 -268h356l64 309h399
l-55 -309h332z" />
    <glyph glyph-name="f_f_l.liga.salt" horiz-adv-x="2125" 
d="M1645 1065l-56 -307h-250l-133 -758h-409l133 758h-295l-133 -758h-410l135 758h-196l55 307h195l18 102q28 169 169 275q140 104 341 104q104 0 172 -20l-51 -297h-105q-105 0 -125 -107l-10 -57h295l25 143q32 171 172 275q142 104 340 104q129 0 213 -24l-54 -293
h-145q-104 0 -125 -107l-16 -98h250zM1536 0l276 1567h410l-276 -1567h-410z" />
    <glyph glyph-name="uniFB02.aalt" horiz-adv-x="1421" 
d="M940 1065l-55 -307h-250l-133 -758h-410l133 758h-194l55 307h195l24 143q32 171 172 275q142 104 340 104q133 0 211 -26l-51 -291h-146q-104 0 -124 -107l-17 -98h250zM831 0l277 1567h410l-277 -1567h-410z" />
    <glyph glyph-name="A.c2sc" horiz-adv-x="1359" 
d="M1262 0h-400l-22 201h-418l-92 -201h-406l516 1096h690zM674 741l-113 -243h244l-27 243l-14 213z" />
    <glyph glyph-name="Aacute.aalt" horiz-adv-x="1359" 
d="M791 1567h356l-213 -369h-281zM1262 0h-400l-22 201h-418l-92 -201h-406l516 1096h690zM674 741l-113 -243h244l-27 243l-14 213z" />
    <glyph glyph-name="Abreve.aalt" horiz-adv-x="1359" 
d="M809 1188q-164 0 -236 94t-38 285h245q-27 -143 70 -143q48 -1 78.5 35t44.5 108h246q-69 -379 -410 -379zM1262 0h-400l-22 201h-418l-92 -201h-406l516 1096h690zM674 741l-113 -243h244l-27 243l-14 213z" />
    <glyph glyph-name="Acircumflex.aalt" horiz-adv-x="1359" 
d="M928 1198l-64 311l-174 -311h-315l237 369h525l106 -369h-315zM1262 0h-400l-22 201h-418l-92 -201h-406l516 1096h690zM674 741l-113 -243h244l-27 243l-14 213z" />
    <glyph glyph-name="Adieresis.aalt" horiz-adv-x="1359" 
d="M483 1546h348l-57 -329h-348zM907 1546h348l-57 -329h-348zM1262 0h-400l-22 201h-418l-92 -201h-406l516 1096h690zM674 741l-113 -243h244l-27 243l-14 213z" />
    <glyph glyph-name="uni1EA0.aalt" horiz-adv-x="1359" 
d="M1130 1096l132 -1096h-400l-22 201h-418l-92 -201h-406l516 1096h690zM674 741l-113 -243h244l-27 243l-14 213zM741 -444h-430l58 329h430z" />
    <glyph glyph-name="Agrave.aalt" horiz-adv-x="1359" 
d="M954 1567l7 -369h-281l-82 369h356zM1262 0h-400l-22 201h-418l-92 -201h-406l516 1096h690zM674 741l-113 -243h244l-27 243l-14 213z" />
    <glyph glyph-name="Amacron.aalt" horiz-adv-x="1359" 
d="M575 1536h586l-53 -307h-586zM1262 0h-400l-22 201h-418l-92 -201h-406l516 1096h690zM674 741l-113 -243h244l-27 243l-14 213z" />
    <glyph glyph-name="Aogonek.aalt" horiz-adv-x="1359" 
d="M1126 0l-112 -129q-33 -35 -35 -55q-4 -18 6.5 -27.5t34.5 -9.5h94l-41 -230h-303q-78 0 -112.5 38t-22.5 102q12 72 82 151l145 160l-22 201h-418l-92 -201h-406l516 1096h690l132 -1096h-136zM674 741l-113 -243h244l-27 243l-14 213z" />
    <glyph glyph-name="Aring.aalt" horiz-adv-x="1359" 
d="M981 1241q-73 -53 -172 -53q-100 0 -151 53q-52 52 -37 141q13 88 86 142q71 53 172 53q100 0 151 -53t37 -142q-13 -88 -86 -141zM778 1382q-12 -57 56 -57q63 0 75 57q7 57 -55 58q-69 -2 -76 -58zM1262 0h-400l-22 201h-418l-92 -201h-406l516 1096h690zM674 741
l-113 -243h244l-27 243l-14 213z" />
    <glyph glyph-name="Aringacute.aalt" horiz-adv-x="1359" 
d="M965 1241q-73 -53 -172 -53q-101 0 -152 53q-51 52 -37 141q13 88 86 142q73 53 172 53l64 174h295l-195 -242q37 -49 25 -127q-13 -88 -86 -141zM838 1440q-64 0 -76 -57q-12 -58 56 -58t75 58q7 57 -55 57zM1262 0h-400l-22 201h-418l-92 -201h-406l516 1096h690z
M674 741l-113 -243h244l-27 243l-14 213z" />
    <glyph glyph-name="Atilde.aalt" horiz-adv-x="1359" 
d="M700 1298q-83 0 -96 -79h-184q31 173 106 257.5t201 84.5q59 0 136 -42t122 -42q84 0 94 79h185q-31 -177 -103.5 -259.5t-202.5 -82.5q-60 0 -136 42q-77 42 -122 42zM440 1096h690l132 -1096h-400l-22 201h-418l-92 -201h-406zM674 741l-113 -243h244l-27 243l-14 213z
" />
    <glyph glyph-name="AE.aalt" horiz-adv-x="1832" 
d="M1845 1096l-53 -308h-625l15 -112h573l-43 -250h-502l15 -119h485l-53 -307h-795l-22 201h-418l-92 -201h-406l516 1096h1405zM674 741l-113 -243h244l-27 243l-14 213z" />
    <glyph glyph-name="AEacute.aalt" horiz-adv-x="1832" 
d="M1055 1567h356l-213 -369h-280zM1845 1096l-53 -308h-625l15 -112h573l-43 -250h-502l15 -119h485l-53 -307h-795l-22 201h-418l-92 -201h-406l516 1096h1405zM674 741l-113 -243h244l-27 243l-14 213z" />
    <glyph glyph-name="B.aalt" horiz-adv-x="1263" 
d="M1262 846q-37 -201 -320 -232q305 -53 262 -303q-26 -139 -144 -225q-121 -86 -292 -86h-752l193 1096h752q156 0 239 -68q82 -68 62 -182zM721 829h-150l-30 -174h149q126 0 139 88q8 45 -18.5 65.5t-89.5 20.5zM793 358q8 49 -17.5 71t-89.5 22h-180l-33 -185h180
q123 0 140 92z" />
    <glyph glyph-name="C.aalt" horiz-adv-x="1257" 
d="M59 543q47 258 239 416q190 157 460 157q249 0 376 -133q128 -134 89 -352h-400q16 91 -12.5 132.5t-108.5 41.5q-92 0 -145 -62.5t-78 -199.5q-23 -137 8 -199.5t123 -62.5q159 0 181 145h399q-34 -205 -210 -331q-175 -126 -425 -126q-267 0 -404 158t-92 416z" />
    <glyph glyph-name="Cacute.aalt" horiz-adv-x="1257" 
d="M610 1198l138 369h356l-213 -369h-281zM59 543q47 258 239 416q190 157 460 157q249 0 376 -133q128 -134 89 -352h-400q16 91 -12.5 132.5t-108.5 41.5q-92 0 -145 -62.5t-78 -199.5q-23 -137 8 -199.5t123 -62.5q159 0 181 145h399q-34 -205 -210 -331
q-175 -126 -425 -126q-267 0 -404 158t-92 416z" />
    <glyph glyph-name="Ccaron.aalt" horiz-adv-x="1257" 
d="M1028 1198h-524l-107 369h316l63 -312l174 312h316zM758 1116q249 0 376 -133q128 -134 89 -352h-400q16 91 -12.5 132.5t-108.5 41.5q-92 0 -145 -62.5t-78 -199.5q-23 -137 8 -199.5t123 -62.5q159 0 181 145h399q-34 -205 -210 -331q-175 -126 -425 -126
q-267 0 -404 158t-92 416q47 258 239 416q191 157 460 157z" />
    <glyph glyph-name="Ccedilla.aalt" horiz-adv-x="1257" 
d="M1223 631h-400q16 91 -12.5 132.5t-108.5 41.5q-92 0 -145 -62.5t-78 -199.5q-23 -137 8 -199.5t123 -62.5q159 0 181 145h399q-31 -180 -172 -301q-140 -121 -350 -148l-43 -77h10q79 0 118.5 -45.5t24.5 -120.5q-16 -84 -77.5 -134.5t-147.5 -50.5h-256l27 152h165
q43 0 50 33q4 16 -5.5 24.5t-31.5 8.5h-148l21 124l55 89q-209 38 -309 187q-101 150 -62 376q47 258 239 416q190 157 460 157q249 0 376 -133q128 -134 89 -352z" />
    <glyph glyph-name="Ccircumflex.aalt" horiz-adv-x="1257" 
d="M885 1198l-64 311l-174 -311h-315l237 369h525l106 -369h-315zM1223 631h-400q16 91 -12.5 132.5t-108.5 41.5q-92 0 -145 -62.5t-78 -199.5q-23 -137 8 -199.5t123 -62.5q159 0 181 145h399q-34 -205 -210 -331q-175 -126 -425 -126q-267 0 -404 158t-92 416
q47 258 239 416q190 157 460 157q249 0 376 -133q128 -134 89 -352z" />
    <glyph glyph-name="Cdotaccent.aalt" horiz-adv-x="1257" 
d="M555 1217l57 329h430l-57 -329h-430zM59 543q47 258 239 416q190 157 460 157q249 0 376 -133q128 -134 89 -352h-400q16 91 -12.5 132.5t-108.5 41.5q-92 0 -145 -62.5t-78 -199.5q-23 -137 8 -199.5t123 -62.5q159 0 181 145h399q-34 -205 -210 -331
q-175 -126 -425 -126q-267 0 -404 158t-92 416z" />
    <glyph glyph-name="D.aalt" horiz-adv-x="1357" 
d="M209 1096h584q272 0 413 -150q140 -152 97 -397q-44 -248 -237 -398q-193 -151 -466 -151h-584zM883 549q22 120 -27 180t-168 59h-123l-86 -481h123q240 0 281 242z" />
    <glyph glyph-name="Eth.aalt" horiz-adv-x="1357" 
d="M209 1096h584q272 0 413 -150q140 -152 97 -397q-44 -248 -237 -398q-193 -151 -466 -151h-584l76 430h-112l43 246h112zM883 549q22 120 -27 180t-168 59h-123l-20 -112h192l-43 -246h-192l-23 -123h123q240 0 281 242z" />
    <glyph glyph-name="Dcaron.aalt" horiz-adv-x="1357" 
d="M1038 1198h-524l-106 369h315l63 -312l175 312h315zM209 1096h584q272 0 413 -150q140 -152 97 -397q-44 -248 -237 -398q-193 -151 -466 -151h-584zM883 549q22 120 -27 180t-168 59h-123l-86 -481h123q240 0 281 242z" />
    <glyph glyph-name="Dcroat.aalt" horiz-adv-x="1357" 
d="M209 1096h584q272 0 413 -150q140 -152 97 -397q-44 -248 -237 -398q-193 -151 -466 -151h-584l76 430h-112l43 246h112zM883 549q22 120 -27 180t-168 59h-123l-20 -112h192l-43 -246h-192l-23 -123h123q240 0 281 242z" />
    <glyph glyph-name="E.aalt" horiz-adv-x="1132" 
d="M1145 1096l-53 -308h-527l-20 -112h510l-43 -250h-510l-23 -119h531l-54 -307h-940l193 1096h936z" />
    <glyph glyph-name="Eacute.aalt" horiz-adv-x="1132" 
d="M674 1567h356l-213 -369h-280zM1145 1096l-53 -308h-527l-20 -112h510l-43 -250h-510l-23 -119h531l-54 -307h-940l193 1096h936z" />
    <glyph glyph-name="Ebreve.aalt" horiz-adv-x="1132" 
d="M692 1188q-164 0 -236 94t-38 285h246q-27 -143 69 -143q48 -1 78.5 35t44.5 108h246q-69 -379 -410 -379zM1145 1096l-53 -308h-527l-20 -112h510l-43 -250h-510l-23 -119h531l-54 -307h-940l193 1096h936z" />
    <glyph glyph-name="Ecaron.aalt" horiz-adv-x="1132" 
d="M954 1198h-524l-106 369h315l63 -312l175 312h315zM209 1096h936l-53 -308h-527l-20 -112h510l-43 -250h-510l-23 -119h531l-54 -307h-940z" />
    <glyph glyph-name="Ecircumflex.aalt" horiz-adv-x="1132" 
d="M811 1198l-63 311l-175 -311h-315l238 369h524l106 -369h-315zM1145 1096l-53 -308h-527l-20 -112h510l-43 -250h-510l-23 -119h531l-54 -307h-940l193 1096h936z" />
    <glyph glyph-name="Edieresis.aalt" horiz-adv-x="1132" 
d="M367 1546h348l-58 -329h-348zM791 1546h348l-58 -329h-348zM1145 1096l-53 -308h-527l-20 -112h510l-43 -250h-510l-23 -119h531l-54 -307h-940l193 1096h936z" />
    <glyph glyph-name="Edotaccent.aalt" horiz-adv-x="1132" 
d="M539 1546h430l-58 -329h-430zM1145 1096l-53 -308h-527l-20 -112h510l-43 -250h-510l-23 -119h531l-54 -307h-940l193 1096h936z" />
    <glyph glyph-name="uni1EB8.aalt" horiz-adv-x="1132" 
d="M1145 1096l-53 -308h-527l-20 -112h510l-43 -250h-510l-23 -119h531l-54 -307h-940l193 1096h936zM639 -444h-430l57 329h430z" />
    <glyph glyph-name="Egrave.aalt" horiz-adv-x="1132" 
d="M838 1567l6 -369h-281l-82 369h357zM1145 1096l-53 -308h-527l-20 -112h510l-43 -250h-510l-23 -119h531l-54 -307h-940l193 1096h936z" />
    <glyph glyph-name="Emacron.aalt" horiz-adv-x="1132" 
d="M459 1536h585l-53 -307h-585zM1145 1096l-53 -308h-527l-20 -112h510l-43 -250h-510l-23 -119h531l-54 -307h-940l193 1096h936z" />
    <glyph glyph-name="Eogonek.aalt" horiz-adv-x="1132" 
d="M1145 1096l-53 -308h-527l-20 -112h510l-43 -250h-510l-23 -119h531l-54 -307l-112 -129q-33 -35 -35 -55q-4 -18 6.5 -27.5t34.5 -9.5h94l-41 -230h-303q-78 0 -112.5 38t-22.5 102q12 72 82 151l145 160h-676l193 1096h936z" />
    <glyph glyph-name="uni1EBC.aalt" horiz-adv-x="1132" 
d="M584 1298q-82 0 -97 -79h-184q31 173 106 257.5t201 84.5q60 0 136 -42t122 -42q85 0 95 79h184q-31 -176 -103 -259t-202 -83q-60 0 -136 42q-77 42 -122 42zM209 1096h936l-53 -308h-527l-20 -112h510l-43 -250h-510l-23 -119h531l-54 -307h-940z" />
    <glyph glyph-name="uni018F.aalt" horiz-adv-x="1282" 
d="M735 1116q268 0 404 -157q135 -157 88 -416q-45 -259 -235 -416q-191 -158 -460 -158q-258 0 -390 144q-132 142 -91 376l21 121h745q10 106 -26.5 155.5t-124.5 49.5q-163 0 -183 -119h-389q33 188 209 304t432 116zM586 270q132 0 188 144l-192 -4h-140
q3 -140 144 -140z" />
    <glyph glyph-name="F.aalt" horiz-adv-x="1097" 
d="M1124 1096l-53 -308h-506l-20 -112h489l-43 -250h-489l-76 -426h-410l193 1096h915z" />
    <glyph glyph-name="G.aalt" horiz-adv-x="1323" 
d="M1264 672h-400q14 70 -19.5 101.5t-121.5 31.5q-102 0 -160.5 -62.5t-83.5 -199.5q-23 -137 13 -199.5t139 -62.5q143 0 182 96h-199l37 209h609l-103 -586h-369l56 315q-96 -346 -416 -346q-213 0 -315 148q-103 147 -58 401q49 274 246 436t477 162q255 0 388 -121
t98 -323z" />
    <glyph glyph-name="Gbreve.aalt" horiz-adv-x="1323" 
d="M793 1188q-164 0 -236.5 94.5t-38.5 284.5h246q-27 -143 70 -143q48 -1 78.5 35t43.5 108h246q-69 -379 -409 -379zM1264 672h-400q14 70 -19.5 101.5t-121.5 31.5q-102 0 -160.5 -62.5t-83.5 -199.5q-23 -137 13 -199.5t139 -62.5q143 0 182 96h-199l37 209h609
l-103 -586h-369l56 315q-96 -346 -416 -346q-213 0 -315 148q-103 147 -58 401q49 274 246 436t477 162q255 0 388 -121t98 -323z" />
    <glyph glyph-name="Gcaron.aalt" horiz-adv-x="1323" 
d="M1055 1198h-525l-106 369h315l64 -312l174 312h315zM778 1116q253 0 387 -122t99 -322h-400q14 70 -19.5 101.5t-121.5 31.5q-102 0 -160.5 -62.5t-83.5 -199.5q-23 -137 13 -199.5t139 -62.5q143 0 182 96h-199l37 209h609l-103 -586h-369l56 315q-96 -346 -416 -346
q-213 0 -315 148q-103 147 -58 401q49 274 246 436t477 162z" />
    <glyph glyph-name="Gcircumflex.aalt" horiz-adv-x="1323" 
d="M911 1198l-63 311l-174 -311h-316l238 369h524l107 -369h-316zM1264 672h-400q14 70 -19.5 101.5t-121.5 31.5q-102 0 -160.5 -62.5t-83.5 -199.5q-23 -137 13 -199.5t139 -62.5q143 0 182 96h-199l37 209h609l-103 -586h-369l56 315q-96 -346 -416 -346q-213 0 -315 148
q-103 147 -58 401q49 274 246 436t477 162q255 0 388 -121t98 -323z" />
    <glyph glyph-name="uni0122.aalt" horiz-adv-x="1323" 
d="M1264 672h-400q14 70 -19.5 101.5t-121.5 31.5q-102 0 -160.5 -62.5t-83.5 -199.5q-23 -137 13 -199.5t139 -62.5q143 0 182 96h-199l37 209h609l-103 -586h-369l56 315q-96 -346 -416 -346q-213 0 -315 148q-103 147 -58 401q49 274 246 436t477 162q255 0 388 -121
t98 -323zM522 -369l-151 54l37 200h358l-43 -245q-22 -126 -142 -206q-119 -79 -294 -79l26 153q187 0 209 123z" />
    <glyph glyph-name="Gdotaccent.aalt" horiz-adv-x="1323" 
d="M639 1546h430l-57 -329h-430zM1264 672h-400q14 70 -19.5 101.5t-121.5 31.5q-102 0 -160.5 -62.5t-83.5 -199.5q-23 -137 13 -199.5t139 -62.5q143 0 182 96h-199l37 209h609l-103 -586h-369l56 315q-96 -346 -416 -346q-213 0 -315 148q-103 147 -58 401
q49 274 246 436t477 162q255 0 388 -121t98 -323z" />
    <glyph glyph-name="H.aalt" horiz-adv-x="1402" 
d="M913 707l68 389h410l-193 -1096h-410l70 399h-362l-70 -399h-410l193 1096h409l-67 -389h362z" />
    <glyph glyph-name="Hbar.aalt" horiz-adv-x="1402" 
d="M1372 989h90l-32 -184h-91l-141 -805h-410l70 399h-362l-70 -399h-410l142 805h-95l33 184h94l19 107h409l-18 -107h363l18 107h410zM551 707h362l17 98h-363z" />
    <glyph glyph-name="Hcircumflex.aalt" horiz-adv-x="1402" 
d="M909 1198l-63 311l-174 -311h-316l238 369h524l107 -369h-316zM913 707l68 389h410l-193 -1096h-410l70 399h-362l-70 -399h-410l193 1096h409l-67 -389h362z" />
    <glyph glyph-name="i.aalt" horiz-adv-x="630" 
d="M16 0l193 1096h409l-192 -1096h-410z" />
    <glyph glyph-name="iacute.aalt" horiz-adv-x="630" 
d="M276 1198l138 369h356l-213 -369h-281zM16 0l193 1096h409l-192 -1096h-410z" />
    <glyph glyph-name="ibreve.aalt" horiz-adv-x="630" 
d="M596 1567h246q-69 -379 -410 -379q-164 0 -236 94t-38 285h245q-27 -143 70 -143q48 -1 78.5 35t44.5 108zM16 0l193 1096h409l-192 -1096h-410z" />
    <glyph glyph-name="icircumflex.aalt" horiz-adv-x="630" 
d="M551 1198l-64 311l-174 -311h-315l238 369h524l106 -369h-315zM426 0h-410l193 1096h409z" />
    <glyph glyph-name="idieresis.aalt" horiz-adv-x="630" 
d="M49 1217l57 329h349l-58 -329h-348zM473 1217l57 329h349l-58 -329h-348zM16 0l193 1096h409l-192 -1096h-410z" />
    <glyph glyph-name="Idotaccent.c2sc" horiz-adv-x="630" 
d="M221 1217l58 329h430l-58 -329h-430zM16 0l193 1096h409l-192 -1096h-410z" />
    <glyph glyph-name="uni1ECB.aalt" horiz-adv-x="630" 
d="M16 0l193 1096h409l-192 -1096h-410zM-72 -444l58 329h430l-58 -329h-430z" />
    <glyph glyph-name="igrave.aalt" horiz-adv-x="630" 
d="M221 1567h357l6 -369h-281zM16 0l193 1096h409l-192 -1096h-410z" />
    <glyph glyph-name="IJ.aalt" horiz-adv-x="1239" 
d="M68 287h530q96 0 115 100l125 709h409l-131 -748q-32 -177 -185 -277q-155 -102 -419 -102q-279 0 -494 37zM104 471l111 625h410l-111 -625h-410z" />
    <glyph glyph-name="imacron.aalt" horiz-adv-x="630" 
d="M199 1536h585l-53 -307h-586zM16 0l193 1096h409l-192 -1096h-410z" />
    <glyph glyph-name="iogonek.aalt" horiz-adv-x="630" 
d="M426 0l-113 -129q-32 -34 -34 -55q-4 -18 6 -27.5t34 -9.5h95l-41 -230h-303q-78 0 -113 38t-23 102q12 72 82 151l146 160h-146l193 1096h409z" />
    <glyph glyph-name="itilde.aalt" horiz-adv-x="630" 
d="M582 1214q-60 0 -136 42t-122 42q-82 0 -97 -79h-184q31 173 106 257.5t201 84.5q60 0 136 -42q77 -42 122 -42q84 0 94 79h185q-31 -176 -103 -259t-202 -83zM16 0l193 1096h409l-192 -1096h-410z" />
    <glyph glyph-name="J.aalt" horiz-adv-x="1146" 
d="M-12 444h399q-14 -87 7.5 -125t86.5 -38q121 0 150 161l114 654h410l-125 -703q-33 -190 -199 -307q-167 -117 -405 -117q-236 0 -356 131q-121 130 -82 344z" />
    <glyph glyph-name="Jcircumflex.aalt" horiz-adv-x="1146" 
d="M1079 1198l-63 311l-174 -311h-316l238 369h524l107 -369h-316zM631 442l114 654h410l-125 -703q-33 -190 -199 -307q-167 -117 -405 -117q-236 0 -356 131q-121 130 -82 344h399q-14 -87 7.5 -125t86.5 -38q61 -1 98.5 39.5t51.5 121.5z" />
    <glyph glyph-name="K.aalt" horiz-adv-x="1417" 
d="M999 1096h457l-508 -537l365 -559h-494l-219 360l-84 154l-90 -514h-410l193 1096h409l-90 -512l138 157z" />
    <glyph glyph-name="uni0136.aalt" horiz-adv-x="1417" 
d="M999 1096h457l-508 -537l365 -559h-494l-219 360l-84 154l-90 -514h-410l193 1096h409l-90 -512l138 157zM539 -369l-152 54l37 200h358l-43 -245q-22 -126 -142 -206q-119 -79 -294 -79l27 153q186 0 209 123z" />
    <glyph glyph-name="L.aalt" horiz-adv-x="1081" 
d="M618 1096l-139 -789h531l-54 -307h-940l193 1096h409z" />
    <glyph glyph-name="Lacute.aalt" horiz-adv-x="1081" 
d="M414 1567h356l-213 -369h-281zM618 1096l-139 -789h531l-54 -307h-940l193 1096h409z" />
    <glyph glyph-name="Lcaron.aalt" horiz-adv-x="1081" 
d="M209 1096h409l-139 -789h531l-54 -307h-940zM692 895l37 201h358l-43 -246q-22 -126 -142 -206q-119 -79 -294 -79l27 154q187 0 209 123z" />
    <glyph glyph-name="uni013B.aalt" horiz-adv-x="1081" 
d="M618 1096l-139 -789h531l-54 -307h-940l193 1096h409zM381 -369l-152 54l37 200h359l-43 -245q-22 -126 -143 -206q-119 -79 -294 -79l27 153q186 0 209 123z" />
    <glyph glyph-name="Ldot.aalt" horiz-adv-x="1081" 
d="M618 1096l-139 -789h531l-54 -307h-940l193 1096h409zM979 838l-57 -324h-322l55 324h324z" />
    <glyph glyph-name="Lslash.aalt" horiz-adv-x="1081" 
d="M510 479l-31 -172h531l-54 -307h-940l60 340l-109 -43l49 274l109 43l84 482h409l-59 -342l328 133l-49 -275z" />
    <glyph glyph-name="M.aalt" horiz-adv-x="1865" 
d="M1155 1096h698l-192 -1096h-406l107 606l68 330l-318 -936h-543l9 948l-50 -342l-106 -606h-406l193 1096h711l-21 -604l-25 -324l89 324z" />
    <glyph glyph-name="N.aalt" horiz-adv-x="1523" 
d="M1020 602l86 494h405l-192 -1096h-713l-28 936l-70 -442l-86 -494h-406l193 1096h713l32 -916z" />
    <glyph glyph-name="Nacute.aalt" horiz-adv-x="1523" 
d="M864 1567h357l-213 -369h-281zM1020 602l86 494h405l-192 -1096h-713l-28 936l-70 -442l-86 -494h-406l193 1096h713l32 -916z" />
    <glyph glyph-name="Ncaron.aalt" horiz-adv-x="1523" 
d="M1145 1198h-524l-107 369h315l64 -312l174 312h315zM1020 602l86 494h405l-192 -1096h-713l-28 936l-70 -442l-86 -494h-406l193 1096h713l32 -916z" />
    <glyph glyph-name="uni0145.aalt" horiz-adv-x="1523" 
d="M1020 602l86 494h405l-192 -1096h-713l-28 936l-70 -442l-86 -494h-406l193 1096h713l32 -916zM586 -369l-152 54l37 200h358l-43 -245q-22 -126 -142 -206q-119 -79 -294 -79l27 153q187 0 209 123z" />
    <glyph glyph-name="Eng.aalt" horiz-adv-x="1523" 
d="M1020 602l86 494h405l-192 -1096l-6 -41q-27 -170 -165 -275q-139 -104 -333 -104q-77 0 -151 21l51 297h84q95 0 114 100v2h-307l-28 936l-70 -442l-86 -494h-406l193 1096h713l32 -916z" />
    <glyph glyph-name="uni019D.aalt" horiz-adv-x="1523" 
d="M1020 602l86 494h405l-192 -1096h-713l-28 936l-70 -442l-86 -494l-6 -41q-27 -170 -165 -275q-139 -104 -333 -104q-78 0 -151 21l51 297h84q96 0 114 102l193 1096h713l32 -916z" />
    <glyph glyph-name="Ntilde.aalt" horiz-adv-x="1523" 
d="M774 1298q-83 0 -96 -79h-184q31 173 106 257.5t201 84.5q59 0 136 -42t122 -42q84 0 94 79h184q-31 -176 -103 -259t-202 -83q-60 0 -136 42t-122 42zM1020 602l86 494h405l-192 -1096h-713l-28 936l-70 -442l-86 -494h-406l193 1096h713l32 -916z" />
    <glyph glyph-name="O.c2sc" horiz-adv-x="1339" 
d="M1043 127q-197 -158 -471 -158q-275 0 -416 158q-142 157 -97 416t243 416q197 157 473 157q275 0 414 -157q140 -158 95 -416q-45 -259 -241 -416zM492 344q34 -63 135 -63q100 0 157 63q55 61 81 199q24 136 -11 200q-35 62 -135 62t-159 -62q-57 -62 -80 -200
q-23 -137 12 -199z" />
    <glyph glyph-name="Oacute.aalt" horiz-adv-x="1339" 
d="M631 1198l137 369h356l-213 -369h-280zM1043 127q-197 -158 -471 -158q-275 0 -416 158q-142 157 -97 416t243 416q197 157 473 157q275 0 414 -157q140 -158 95 -416q-45 -259 -241 -416zM492 344q34 -63 135 -63q100 0 157 63q55 61 81 199q24 136 -11 200
q-35 62 -135 62t-159 -62q-57 -62 -80 -200q-23 -137 12 -199z" />
    <glyph glyph-name="Obreve.aalt" horiz-adv-x="1339" 
d="M950 1567h246q-69 -379 -410 -379q-164 0 -236 94t-38 285h246q-27 -143 70 -143q48 -1 78.5 35t43.5 108zM1043 127q-197 -158 -471 -158q-275 0 -416 158q-142 157 -97 416t243 416q197 157 473 157q275 0 414 -157q140 -158 95 -416q-45 -259 -241 -416zM492 344
q34 -63 135 -63q100 0 157 63q55 61 81 199q24 136 -11 200q-35 62 -135 62t-159 -62q-57 -62 -80 -200q-23 -137 12 -199z" />
    <glyph glyph-name="Ocircumflex.aalt" horiz-adv-x="1339" 
d="M905 1198l-63 311l-174 -311h-316l238 369h524l107 -369h-316zM302 959q197 157 473 157q275 0 414 -157q140 -158 95 -416q-45 -259 -241 -416q-197 -158 -471 -158q-275 0 -416 158q-142 157 -97 416t243 416zM784 344q55 61 81 199q24 136 -11 200q-35 62 -135 62
t-159 -62q-57 -62 -80 -200q-23 -137 12 -199q34 -63 135 -63q100 0 157 63z" />
    <glyph glyph-name="Odieresis.aalt" horiz-adv-x="1339" 
d="M403 1217l58 329h348l-57 -329h-349zM827 1217l58 329h348l-57 -329h-349zM1043 127q-197 -158 -471 -158q-275 0 -416 158q-142 157 -97 416t243 416q197 157 473 157q275 0 414 -157q140 -158 95 -416q-45 -259 -241 -416zM492 344q34 -63 135 -63q100 0 157 63
q55 61 81 199q24 136 -11 200q-35 62 -135 62t-159 -62q-57 -62 -80 -200q-23 -137 12 -199z" />
    <glyph glyph-name="uni1ECC.aalt" horiz-adv-x="1339" 
d="M1043 127q-197 -158 -471 -158q-275 0 -416 158q-142 157 -97 416t243 416q197 157 473 157q275 0 414 -157q140 -158 95 -416q-45 -259 -241 -416zM492 344q34 -63 135 -63q100 0 157 63q55 61 81 199q24 136 -11 200q-35 62 -135 62t-159 -62q-57 -62 -80 -200
q-23 -137 12 -199zM285 -444l57 329h430l-57 -329h-430z" />
    <glyph glyph-name="Ograve.aalt" horiz-adv-x="1339" 
d="M575 1567h357l6 -369h-281zM1043 127q-197 -158 -471 -158q-275 0 -416 158q-142 157 -97 416t243 416q197 157 473 157q275 0 414 -157q140 -158 95 -416q-45 -259 -241 -416zM492 344q34 -63 135 -63q100 0 157 63q55 61 81 199q24 136 -11 200q-35 62 -135 62
t-159 -62q-57 -62 -80 -200q-23 -137 12 -199z" />
    <glyph glyph-name="Ohungarumlaut.aalt" horiz-adv-x="1339" 
d="M461 1198l137 369h305l-162 -369h-280zM819 1198l137 369h357l-213 -369h-281zM1043 127q-197 -158 -471 -158q-275 0 -416 158q-142 157 -97 416t243 416q197 157 473 157q275 0 414 -157q140 -158 95 -416q-45 -259 -241 -416zM492 344q34 -63 135 -63q100 0 157 63
q55 61 81 199q24 136 -11 200q-35 62 -135 62t-159 -62q-57 -62 -80 -200q-23 -137 12 -199z" />
    <glyph glyph-name="Omacron.aalt" horiz-adv-x="1339" 
d="M553 1536h586l-54 -307h-585zM1043 127q-197 -158 -471 -158q-275 0 -416 158q-142 157 -97 416t243 416q197 157 473 157q275 0 414 -157q140 -158 95 -416q-45 -259 -241 -416zM492 344q34 -63 135 -63q100 0 157 63q55 61 81 199q24 136 -11 200q-35 62 -135 62
t-159 -62q-57 -62 -80 -200q-23 -137 12 -199z" />
    <glyph glyph-name="uni01EA.aalt" horiz-adv-x="1339" 
d="M302 959q197 157 473 157q275 0 414 -157q140 -158 95 -416q-35 -202 -165 -344q-130 -143 -324 -199l-113 -129q-33 -35 -35 -55q-4 -18 6.5 -27.5t34.5 -9.5h94l-41 -230h-303q-78 0 -112.5 38t-22.5 102q12 72 82 151l121 131q-246 19 -368 175t-79 397
q45 259 243 416zM784 344q55 61 81 199q24 136 -11 200q-35 62 -135 62t-159 -62q-57 -62 -80 -200q-23 -137 12 -199q34 -63 135 -63q100 0 157 63z" />
    <glyph glyph-name="Oslash.aalt" horiz-adv-x="1339" 
d="M1323 1208l-170 -213q181 -158 131 -452q-45 -259 -241 -416q-197 -158 -472 -158q-122 0 -215 31l-114 -143h-250l192 241q-176 161 -125 445q45 259 243 416q197 157 472 157q110 0 203 -29l96 121h250zM479 543q-8 -46 -8 -88l279 348q-14 2 -31 2q-100 0 -158.5 -63
t-81.5 -199zM864 543q10 63 10 104l-290 -362q23 -4 43 -4q100 0 156 62.5t81 199.5z" />
    <glyph glyph-name="Oslashacute.aalt" horiz-adv-x="1339" 
d="M752 1567h356l-213 -369h-281zM1323 1208l-170 -213q181 -158 131 -452q-45 -259 -241 -416q-197 -158 -472 -158q-122 0 -215 31l-114 -143h-250l192 241q-176 161 -125 445q45 259 243 416q197 157 472 157q110 0 203 -29l96 121h250zM479 543q-8 -46 -8 -88l279 348
q-14 2 -31 2q-100 0 -158.5 -63t-81.5 -199zM864 543q10 63 10 104l-290 -362q23 -4 43 -4q100 0 156 62.5t81 199.5z" />
    <glyph glyph-name="Otilde.aalt" horiz-adv-x="1339" 
d="M936 1214q-60 0 -136 42t-122 42q-83 0 -96 -79h-185q31 173 106.5 257.5t201.5 84.5q59 0 136 -42t122 -42q84 0 94 79h184q-31 -176 -103 -259t-202 -83zM1043 127q-197 -158 -471 -158q-275 0 -416 158q-142 157 -97 416t243 416q197 157 473 157q275 0 414 -157
q140 -158 95 -416q-45 -259 -241 -416zM492 344q34 -63 135 -63q100 0 157 63q55 61 81 199q24 136 -11 200q-35 62 -135 62t-159 -62q-57 -62 -80 -200q-23 -137 12 -199z" />
    <glyph glyph-name="OE.aalt" horiz-adv-x="1857" 
d="M1870 1096l-53 -308h-527l-20 -112h510l-43 -250h-510l-23 -119h531l-54 -307h-1112q-273 0 -412 151q-141 151 -98 398q43 245 237 397q194 150 466 150h1108zM674 307h121l86 481h-121q-237 0 -281 -239q-41 -242 195 -242z" />
    <glyph glyph-name="P.aalt" horiz-adv-x="1230" 
d="M209 1096h706q182 0 275 -109q92 -110 59 -291q-32 -176 -161 -281q-130 -108 -312 -108h-297l-53 -307h-410zM829 696q8 48 -16.5 70t-87.5 22h-160l-33 -184h160q120 0 137 92z" />
    <glyph glyph-name="Thorn.aalt" horiz-adv-x="1236" 
d="M592 948h299q182 0 273 -109t59 -290q-32 -175 -160 -281q-129 -108 -311 -108h-297l-29 -160h-410l193 1096h409zM803 549q8 48 -17 70t-88 22h-159l-33 -184h160q123 0 137 92z" />
    <glyph glyph-name="Q.aalt" horiz-adv-x="1339" 
d="M1284 543q-40 -228 -199 -379l95 -98l-217 -187l-99 144q-135 -52 -293 -54q-274 0 -415 158q-142 157 -97 416t243 416q197 157 473 157q275 0 414 -157q140 -158 95 -416zM561 743q-57 -63 -81 -200q-26 -137 11 -199q35 -63 136 -63h28l-94 104l197 172l86 -113
q8 27 20 99q25 137 -9.5 199.5t-135.5 62.5t-158 -62z" />
    <glyph glyph-name="R.aalt" horiz-adv-x="1325" 
d="M1262 711q-33 -190 -191 -295l59 -121l111 -295h-457l-122 336h-177l-59 -336h-410l193 1096h717q182 0 275 -105q92 -107 61 -280zM735 788h-170l-33 -184h170q121 0 138 92q8 48 -17 70t-88 22z" />
    <glyph glyph-name="Racute.aalt" horiz-adv-x="1325" 
d="M762 1567h356l-213 -369h-280zM1262 711q-33 -190 -191 -295l59 -121l111 -295h-457l-122 336h-177l-59 -336h-410l193 1096h717q182 0 275 -105q92 -107 61 -280zM735 788h-170l-33 -184h170q121 0 138 92q8 48 -17 70t-88 22z" />
    <glyph glyph-name="Rcaron.aalt" horiz-adv-x="1325" 
d="M1042 1198h-524l-106 369h315l64 -312l174 312h315zM209 1096h717q182 0 274 -105q92 -107 62 -280q-33 -190 -191 -295l59 -121l111 -295h-457l-122 336h-177l-59 -336h-410zM735 788h-170l-33 -184h170q121 0 138 92q8 48 -17 70t-88 22z" />
    <glyph glyph-name="uni0156.aalt" horiz-adv-x="1325" 
d="M1262 711q-33 -190 -191 -295l59 -121l111 -295h-457l-122 336h-177l-59 -336h-410l193 1096h717q182 0 275 -105q92 -107 61 -280zM735 788h-170l-33 -184h170q121 0 138 92q8 48 -17 70t-88 22zM508 -369l-152 54l37 200h359l-43 -245q-22 -126 -143 -206
q-119 -79 -294 -79l27 153q187 0 209 123z" />
    <glyph glyph-name="S.aalt" horiz-adv-x="1257" 
d="M16 336h400q-10 -51 27.5 -74.5t127.5 -23.5q163 0 177 63q0 10 0.5 17t-8 13.5t-21 11t-39 9.5t-62.5 9.5t-90 9.5q-239 20 -345 112t-76 258q30 169 199 272t415 103q249 0 382 -105q134 -107 103 -278h-399q10 60 -22 87.5t-113 27.5q-144 0 -158 -68q-6 -34 40 -47
q49 -14 185 -26q272 -26 368 -107q97 -82 69 -244q-32 -176 -208 -281q-176 -106 -446 -106q-255 0 -395 101q-139 100 -111 266z" />
    <glyph glyph-name="Sacute.aalt" horiz-adv-x="1257" 
d="M586 1198l137 369h356l-213 -369h-280zM16 336h400q-10 -51 27.5 -74.5t127.5 -23.5q163 0 177 63q0 10 0.5 17t-8 13.5t-21 11t-39 9.5t-62.5 9.5t-90 9.5q-239 20 -345 112t-76 258q30 169 199 272t415 103q249 0 382 -105q134 -107 103 -278h-399q10 60 -22 87.5
t-113 27.5q-144 0 -158 -68q-6 -34 40 -47q49 -14 185 -26q272 -26 368 -107q97 -82 69 -244q-32 -176 -208 -281q-176 -106 -446 -106q-255 0 -395 101q-139 100 -111 266z" />
    <glyph glyph-name="Scaron.aalt" horiz-adv-x="1257" 
d="M1004 1198h-525l-106 369h315l64 -312l174 312h315zM721 1116q249 0 382 -105q134 -107 103 -278h-399q10 60 -22 87.5t-113 27.5q-144 0 -158 -68q-6 -34 40 -47q49 -14 185 -26q272 -26 368 -107q97 -82 69 -244q-32 -176 -208 -281q-176 -106 -446 -106
q-255 0 -395 101q-139 100 -111 266h400q-10 -51 27.5 -74.5t127.5 -23.5q163 0 177 63q0 10 0.5 17t-8 13.5t-21 11t-39 9.5t-62.5 9.5t-90 9.5q-239 20 -345 112t-76 258q30 169 199 272t415 103z" />
    <glyph glyph-name="Scedilla.c2sc" horiz-adv-x="1257" 
d="M1206 733h-399q10 60 -22 87.5t-113 27.5q-144 0 -158 -68q-6 -34 40 -47q49 -14 185 -26q272 -26 368 -107q97 -82 69 -244q-27 -157 -169 -257q-144 -102 -364 -124l-43 -75h10q78 0 118 -45.5t26 -120.5q-13 -84 -77 -135q-64 -50 -149 -50h-256l27 152h166
q43 0 49 33q4 16 -5 24.5t-32 8.5h-147l20 124l53 84q-205 22 -309 119q-104 96 -78 242h400q-10 -51 27.5 -74.5t127.5 -23.5q163 0 177 63q0 10 0.5 17t-8 13.5t-21 11t-39 9.5t-62.5 9.5t-90 9.5q-239 20 -345 112t-76 258q30 169 199 272t415 103q249 0 382 -105
q134 -107 103 -278z" />
    <glyph glyph-name="Scircumflex.aalt" horiz-adv-x="1257" 
d="M860 1198l-63 311l-174 -311h-316l238 369h524l107 -369h-316zM1206 733h-399q10 60 -22 87.5t-113 27.5q-144 0 -158 -68q-6 -34 40 -47q49 -14 185 -26q272 -26 368 -107q97 -82 69 -244q-32 -176 -208 -281q-176 -106 -446 -106q-255 0 -395 101q-139 100 -111 266
h400q-10 -51 27.5 -74.5t127.5 -23.5q163 0 177 63q0 10 0.5 17t-8 13.5t-21 11t-39 9.5t-62.5 9.5t-90 9.5q-239 20 -345 112t-76 258q30 169 199 272t415 103q249 0 382 -105q134 -107 103 -278z" />
    <glyph glyph-name="uni0218.aalt" horiz-adv-x="1257" 
d="M16 336h400q-10 -51 27.5 -74.5t127.5 -23.5q163 0 177 63q0 10 0.5 17t-8 13.5t-21 11t-39 9.5t-62.5 9.5t-90 9.5q-239 20 -345 112t-76 258q30 169 199 272t415 103q249 0 382 -105q134 -107 103 -278h-399q10 60 -22 87.5t-113 27.5q-144 0 -158 -68q-6 -34 40 -47
q49 -14 185 -26q272 -26 368 -107q97 -82 69 -244q-32 -176 -208 -281q-176 -106 -446 -106q-255 0 -395 101q-139 100 -111 266zM295 -315l37 200h358l-43 -245q-22 -126 -142 -206q-119 -79 -294 -79l27 153q185 0 208 123z" />
    <glyph glyph-name="T.aalt" horiz-adv-x="1138" 
d="M109 1096h1118l-53 -308h-355l-139 -788h-410l140 788h-355z" />
    <glyph glyph-name="Tbar.aalt" horiz-adv-x="1138" 
d="M1227 1096l-53 -308h-355l-31 -167h267l-39 -226h-266l-70 -395h-410l70 395h-281l39 226h281l31 167h-355l54 308h1118z" />
    <glyph glyph-name="Tcaron.aalt" horiz-adv-x="1138" 
d="M948 1198h-524l-107 369h316l63 -312l174 312h316zM109 1096h1118l-53 -308h-355l-139 -788h-410l140 788h-355z" />
    <glyph glyph-name="uni0162.c2sc" horiz-adv-x="1138" 
d="M819 788l-139 -788h-80l-57 -100h10q79 0 118.5 -45.5t24.5 -120.5q-13 -83 -76 -135q-64 -50 -149 -50h-256l27 152h166q43 0 49 33q4 16 -5.5 24.5t-31.5 8.5h-148l21 124l67 109h-90l140 788h-355l54 308h1118l-53 -308h-355z" />
    <glyph glyph-name="uni021A.aalt" horiz-adv-x="1138" 
d="M109 1096h1118l-53 -308h-355l-139 -788h-410l140 788h-355zM389 -369l-151 54l36 200h359l-43 -245q-22 -126 -142 -206q-119 -79 -294 -79l26 153q186 0 209 123z" />
    <glyph glyph-name="U.aalt" horiz-adv-x="1308" 
d="M70 414l120 682h410l-113 -641q-16 -92 13.5 -133t109.5 -41q81 0 124.5 41.5t60.5 132.5l112 641h410l-121 -682q-34 -201 -211 -323q-176 -122 -430 -122q-253 0 -387 122q-133 121 -98 323z" />
    <glyph glyph-name="Uacute.aalt" horiz-adv-x="1308" 
d="M614 1198l138 369h356l-213 -369h-281zM70 414l120 682h410l-113 -641q-16 -92 13.5 -133t109.5 -41q81 0 124.5 41.5t60.5 132.5l112 641h410l-121 -682q-34 -201 -211 -323q-176 -122 -430 -122q-253 0 -387 122q-133 121 -98 323z" />
    <glyph glyph-name="Ubreve.aalt" horiz-adv-x="1308" 
d="M934 1567h246q-69 -379 -410 -379q-164 0 -236 94t-38 285h245q-27 -143 70 -143q48 -1 78.5 35t44.5 108zM70 414l120 682h410l-113 -641q-16 -92 13.5 -133t109.5 -41q81 0 124.5 41.5t60.5 132.5l112 641h410l-121 -682q-34 -201 -211 -323q-176 -122 -430 -122
q-253 0 -387 122q-133 121 -98 323z" />
    <glyph glyph-name="Ucircumflex.aalt" horiz-adv-x="1308" 
d="M889 1198l-64 311l-174 -311h-315l237 369h525l106 -369h-315zM795 455l112 641h410l-121 -682q-34 -201 -211 -323q-176 -122 -430 -122q-253 0 -387 122q-133 121 -98 323l120 682h410l-113 -641q-16 -92 13.5 -133t109.5 -41q81 0 124.5 41.5t60.5 132.5z" />
    <glyph glyph-name="Udieresis.aalt" horiz-adv-x="1308" 
d="M387 1217l57 329h349l-58 -329h-348zM811 1217l57 329h349l-58 -329h-348zM70 414l120 682h410l-113 -641q-16 -92 13.5 -133t109.5 -41q81 0 124.5 41.5t60.5 132.5l112 641h410l-121 -682q-34 -201 -211 -323q-176 -122 -430 -122q-253 0 -387 122q-133 121 -98 323z
" />
    <glyph glyph-name="uni1EE4.aalt" horiz-adv-x="1308" 
d="M70 414l120 682h410l-113 -641q-16 -92 13.5 -133t109.5 -41q81 0 124.5 41.5t60.5 132.5l112 641h410l-121 -682q-34 -201 -211 -323q-176 -122 -430 -122q-253 0 -387 122q-133 121 -98 323zM268 -444l58 329h430l-58 -329h-430z" />
    <glyph glyph-name="Ugrave.aalt" horiz-adv-x="1308" 
d="M559 1567h356l7 -369h-281zM70 414l120 682h410l-113 -641q-16 -92 13.5 -133t109.5 -41q81 0 124.5 41.5t60.5 132.5l112 641h410l-121 -682q-34 -201 -211 -323q-176 -122 -430 -122q-253 0 -387 122q-133 121 -98 323z" />
    <glyph glyph-name="Uhungarumlaut.aalt" horiz-adv-x="1308" 
d="M444 1198l138 369h305l-162 -369h-281zM803 1198l137 369h356l-213 -369h-280zM70 414l120 682h410l-113 -641q-16 -92 13.5 -133t109.5 -41q81 0 124.5 41.5t60.5 132.5l112 641h410l-121 -682q-34 -201 -211 -323q-176 -122 -430 -122q-253 0 -387 122
q-133 121 -98 323z" />
    <glyph glyph-name="Umacron.aalt" horiz-adv-x="1308" 
d="M537 1536h585l-53 -307h-586zM70 414l120 682h410l-113 -641q-16 -92 13.5 -133t109.5 -41q81 0 124.5 41.5t60.5 132.5l112 641h410l-121 -682q-34 -201 -211 -323q-176 -122 -430 -122q-253 0 -387 122q-133 121 -98 323z" />
    <glyph glyph-name="Uogonek.aalt" horiz-adv-x="1308" 
d="M795 455l112 641h410l-121 -682q-27 -151 -136 -258q-110 -110 -276 -156l-112 -129q-33 -35 -35 -55q-4 -18 6.5 -27.5t34.5 -9.5h94l-41 -230h-303q-78 0 -112.5 38t-22.5 102q12 72 82 151l119 131q-226 17 -341 136q-116 120 -83 307l120 682h410l-113 -641
q-16 -92 13.5 -133t109.5 -41q81 0 124.5 41.5t60.5 132.5z" />
    <glyph glyph-name="Uring.aalt" horiz-adv-x="1308" 
d="M942 1241q-73 -53 -172 -53q-100 0 -151 53q-52 52 -37 141q13 88 86 142q71 53 172 53q100 0 151 -53t37 -142q-13 -88 -86 -141zM795 1325q63 0 75 57q7 57 -55 58q-69 0 -76 -58q-12 -57 56 -57zM70 414l120 682h410l-113 -641q-16 -92 13.5 -133t109.5 -41
q81 0 124.5 41.5t60.5 132.5l112 641h410l-121 -682q-34 -201 -211 -323q-176 -122 -430 -122q-253 0 -387 122q-133 121 -98 323z" />
    <glyph glyph-name="Utilde.aalt" horiz-adv-x="1308" 
d="M920 1214q-60 0 -136 42t-122 42q-82 0 -97 -79h-184q31 173 106 257.5t201 84.5q60 0 136 -42q77 -42 122 -42q84 0 94 79h185q-31 -176 -103 -259t-202 -83zM70 414l120 682h410l-113 -641q-16 -92 13.5 -133t109.5 -41q81 0 124.5 41.5t60.5 132.5l112 641h410
l-121 -682q-34 -201 -211 -323q-176 -122 -430 -122q-253 0 -387 122q-133 121 -98 323z" />
    <glyph glyph-name="V.aalt" horiz-adv-x="1368" 
d="M709 354l342 742h405l-516 -1096h-711l-131 1096h420l86 -742l14 -213z" />
    <glyph glyph-name="W.aalt" horiz-adv-x="2070" 
d="M1466 354l258 742h435l-416 -1096h-641l4 649l12 301l-92 -301l-225 -649h-641l-31 1096h434v-742l-8 -192l57 192l246 742h572l-13 -742l-12 -192z" />
    <glyph glyph-name="Wacute.aalt" horiz-adv-x="2070" 
d="M1165 1567h357l-213 -369h-281zM1466 354l258 742h435l-416 -1096h-641l4 649l12 301l-92 -301l-225 -649h-641l-31 1096h434v-742l-8 -192l57 192l246 742h572l-13 -742l-12 -192z" />
    <glyph glyph-name="Wcircumflex.aalt" horiz-adv-x="2070" 
d="M1303 1198l-64 311l-174 -311h-315l237 369h524l107 -369h-315zM1466 354l258 742h435l-416 -1096h-641l4 649l12 301l-92 -301l-225 -649h-641l-31 1096h434v-742l-8 -192l57 192l246 742h572l-13 -742l-12 -192z" />
    <glyph glyph-name="Wdieresis.aalt" horiz-adv-x="2070" 
d="M858 1546h348l-57 -329h-348zM1282 1546h348l-57 -329h-348zM1466 354l258 742h435l-416 -1096h-641l4 649l12 301l-92 -301l-225 -649h-641l-31 1096h434v-742l-8 -192l57 192l246 742h572l-13 -742l-12 -192z" />
    <glyph glyph-name="Wgrave.aalt" horiz-adv-x="2070" 
d="M1329 1567l6 -369h-280l-82 369h356zM1466 354l258 742h435l-416 -1096h-641l4 649l12 301l-92 -301l-225 -649h-641l-31 1096h434v-742l-8 -192l57 192l246 742h572l-13 -742l-12 -192z" />
    <glyph glyph-name="X.aalt" horiz-adv-x="1470" 
d="M1077 1096h453l-402 -510l248 -586h-461l-114 279l-70 202l-139 -202l-211 -279h-455l445 573l-228 523h461l92 -224l70 -204l141 204z" />
    <glyph glyph-name="Y.aalt" horiz-adv-x="1290" 
d="M989 1096h430l-598 -789l-55 -307h-410l54 301l-322 795h444l113 -328l35 -127l80 127z" />
    <glyph glyph-name="Yacute.aalt" horiz-adv-x="1290" 
d="M754 1567h356l-213 -369h-281zM989 1096h430l-598 -789l-55 -307h-410l54 301l-322 795h444l113 -328l35 -127l80 127z" />
    <glyph glyph-name="Ycircumflex.aalt" horiz-adv-x="1290" 
d="M891 1198l-64 311l-174 -311h-315l237 369h525l106 -369h-315zM989 1096h430l-598 -789l-55 -307h-410l54 301l-322 795h444l113 -328l35 -127l80 127z" />
    <glyph glyph-name="Ydieresis.aalt" horiz-adv-x="1290" 
d="M446 1546h349l-58 -329h-348zM870 1546h349l-58 -329h-348zM989 1096h430l-598 -789l-55 -307h-410l54 301l-322 795h444l113 -328l35 -127l80 127z" />
    <glyph glyph-name="Ygrave.aalt" horiz-adv-x="1290" 
d="M918 1567l6 -369h-281l-82 369h357zM989 1096h430l-598 -789l-55 -307h-410l54 301l-322 795h444l113 -328l35 -127l80 127z" />
    <glyph glyph-name="uni0232.aalt" horiz-adv-x="1290" 
d="M539 1536h585l-53 -307h-586zM989 1096h430l-598 -789l-55 -307h-410l54 301l-322 795h444l113 -328l35 -127l80 127z" />
    <glyph glyph-name="uni1EF8.aalt" horiz-adv-x="1290" 
d="M664 1298q-82 0 -97 -79h-184q31 173 106 257.5t201 84.5q60 0 136 -42t122 -42q84 0 94 79h185q-31 -176 -103 -259t-202 -83q-60 0 -136 42q-77 42 -122 42zM989 1096h430l-598 -789l-55 -307h-410l54 301l-322 795h444l113 -328l35 -127l80 127z" />
    <glyph glyph-name="Z.c2sc" horiz-adv-x="1097" 
d="M938 0h-954l108 610l807 183l-154 -5h-614l53 308h942l-106 -611l-805 -182l141 4h635z" />
    <glyph glyph-name="Zacute.c2sc" horiz-adv-x="1097" 
d="M516 1198l137 369h357l-213 -369h-281zM938 0h-954l108 610l807 183l-154 -5h-614l53 308h942l-106 -611l-805 -182l141 4h635z" />
    <glyph glyph-name="Zcaron.c2sc" horiz-adv-x="1097" 
d="M934 1198h-524l-107 369h315l64 -312l174 312h315zM745 788h-614l53 308h942l-106 -611l-805 -182l141 4h635l-53 -307h-954l108 610l807 183z" />
    <glyph glyph-name="Zdotaccent.c2sc" horiz-adv-x="1097" 
d="M461 1217l57 329h430l-57 -329h-430zM938 0h-954l108 610l807 183l-154 -5h-614l53 308h942l-106 -611l-805 -182l141 4h635z" />
    <glyph glyph-name="i.aalt.aalt" horiz-adv-x="956" 
d="M993 1096l-53 -308h-211l-86 -481h211l-53 -307h-832l54 307h210l86 481h-210l53 308h831z" />
    <glyph glyph-name="iacute.aalt.aalt" horiz-adv-x="956" 
d="M578 1567h356l-213 -369h-281zM993 1096l-53 -308h-211l-86 -481h211l-53 -307h-832l54 307h210l86 481h-210l53 308h831z" />
    <glyph glyph-name="ibreve.aalt.aalt" horiz-adv-x="956" 
d="M596 1188q-164 0 -236 94t-38 285h245q-27 -143 70 -143q48 -1 78.5 35t44.5 108h246q-69 -379 -410 -379zM162 1096h831l-53 -308h-211l-86 -481h211l-53 -307h-832l54 307h210l86 481h-210z" />
    <glyph glyph-name="icircumflex.aalt.aalt" horiz-adv-x="956" 
d="M715 1198l-64 311l-174 -311h-315l237 369h525l106 -369h-315zM162 1096h831l-53 -308h-211l-86 -481h211l-53 -307h-832l54 307h210l86 481h-210z" />
    <glyph glyph-name="idieresis.aalt.aalt" horiz-adv-x="956" 
d="M270 1546h348l-57 -329h-348zM694 1546h348l-57 -329h-348zM162 1096h831l-53 -308h-211l-86 -481h211l-53 -307h-832l54 307h210l86 481h-210z" />
    <glyph glyph-name="Idotaccent.c2sc.ss02" horiz-adv-x="956" 
d="M442 1546h430l-57 -329h-430zM993 1096l-53 -308h-211l-86 -481h211l-53 -307h-832l54 307h210l86 481h-210l53 308h831z" />
    <glyph glyph-name="uni1ECB.aalt.aalt" horiz-adv-x="956" 
d="M993 1096l-53 -308h-211l-86 -481h211l-53 -307h-832l54 307h210l86 481h-210l53 308h831zM522 -444h-430l58 329h430z" />
    <glyph glyph-name="igrave.aalt.aalt" horiz-adv-x="956" 
d="M741 1567l7 -369h-281l-82 369h356zM993 1096l-53 -308h-211l-86 -481h211l-53 -307h-832l54 307h210l86 481h-210l53 308h831z" />
    <glyph glyph-name="imacron.aalt.aalt" horiz-adv-x="956" 
d="M362 1536h586l-53 -307h-586zM993 1096l-53 -308h-211l-86 -481h211l-53 -307h-832l54 307h210l86 481h-210l53 308h831z" />
    <glyph glyph-name="iogonek.aalt.aalt" horiz-adv-x="956" 
d="M993 1096l-53 -308h-211l-86 -481h211l-53 -307h-211l-113 -129q-33 -35 -35 -55q-4 -18 6.5 -27.5t34.5 -9.5h95l-41 -230h-304q-78 0 -112.5 38t-22.5 102q12 72 82 151l146 160h-357l54 307h210l86 481h-210l53 308h831z" />
    </font>
</defs>
</svg>
