<?xml version="1.0" standalone="no"?>
<!DOCTYPE svg PUBLIC "-//W3C//DTD SVG 1.1//EN" "http://www.w3.org/Graphics/SVG/1.1/DTD/svg11.dtd" >
<svg xmlns="http://www.w3.org/2000/svg" xmlns:xlink="http://www.w3.org/1999/xlink" version="1.1">
<metadata>
Created by FontForge 20170731 at Fri Apr 12 15:38:39 2019
 By Aleksey,,,
Copyright (c) 2018 by Alexis Navarro Miranda. All rights reserved. Desktop use is strictly prohibited.
</metadata>
<defs>
<font id="MenaGrotesk-Bold" horiz-adv-x="1341" >
  <font-face 
    font-family="Mena Grotesk Bold"
    font-weight="700"
    font-stretch="normal"
    units-per-em="2048"
    panose-1="0 0 8 0 0 0 0 0 0 0"
    ascent="1638"
    descent="-410"
    x-height="1057"
    cap-height="1446"
    bbox="-874 -618 2476 2132"
    underline-thickness="0"
    underline-position="0"
    unicode-range="U+0020-FB02"
  />
<missing-glyph horiz-adv-x="1523" 
d="M1266 682h186v-61h-125q-12 -143 -77.5 -251t-174.5 -163v-207h-57v207q-60 -58 -168 -119l-37 170h-102l-37 -170q-114 64 -168 121v-209h-55v209q-227 113 -254 412h-125v61h186q0 -296 193 -414v125q-80 95 -80 260q0 179 88 279v522h608v-524q86 -98 86 -277
q0 -162 -78 -258v-127q191 119 191 414zM539 1407l223 -193l223 193h-446zM793 1188l225 -197v393zM508 995l223 193l-223 192v-385zM920 1024l-158 137l-158 -137q71 22 158.5 22t157.5 -22zM510 411q86 -83 252 -83t252 83t86 242q0 166 -86 252t-252 86t-252 -86
t-86 -252q0 -159 86 -242zM600 922l86 30v-34l-86 -31v35zM922 887l-88 31v34l88 -30v-35zM729 819q0 -23 -15.5 -37t-37.5 -14q-25 0 -41.5 14.5t-16.5 36.5q0 26 16.5 42t41.5 16q24 0 38.5 -15.5t14.5 -42.5zM848 877q25 0 41 -15.5t16 -42.5q0 -23 -16.5 -37t-40.5 -14
q-23 0 -38 14.5t-15 36.5q0 27 14.5 42.5t38.5 15.5zM854 696l-176 -20v39l176 20v-39zM643 160l29 119q-100 16 -166 63v-74q56 -64 137 -108zM1018 266v76q-66 -47 -166 -63l29 -119q80 41 137 106zM764 207q29 0 29 -31q0 -29 -29 -29q-33 0 -33 29q0 31 33 31zM764 94
q29 0 29 -28q0 -31 -29 -31q-33 0 -33 31q0 28 33 28z" />
    <glyph glyph-name="uniFB01" unicode="fi" horiz-adv-x="1372" 
d="M541 1057h710v-1057h-325v809h-385v-809h-326v809h-201v248h201v157q0 164 114 265q112 100 296 100q118 0 190 -23v-233h-141q-72 0 -102.5 -33t-30.5 -110v-123zM915 1241v305h347v-305h-347z" />
    <glyph glyph-name="uniFB02" unicode="fl" horiz-adv-x="1484" 
d="M215 1057v157q0 164 114 265q112 100 296 100q136 0 223 -23v-233h-174q-72 0 -102.5 -33t-30.5 -110v-123h301v-248h-301v-809h-326v809h-201v248h201zM1384 236h62v-236q-72 -20 -168 -20q-150 0 -240 93t-90 244v1242h326v-1199q0 -68 25 -96t85 -28z" />
    <glyph glyph-name="f_f.liga" unicode="ff" horiz-adv-x="1615" 
d="M1634 1323h-233q-72 0 -102.5 -33t-30.5 -110v-123h358v-248h-358v-809h-324v809h-403v-809h-326v809h-201v248h201v117q0 164 114 264q112 100 296 100q134 0 206 -20v-236h-157q-72 0 -102.5 -32.5t-30.5 -110.5v-82h403v157q0 164 113 265q112 100 295 100
q153 0 282 -20v-236z" />
    <glyph glyph-name="f_f_i.liga" unicode="ffi" horiz-adv-x="2099" 
d="M1268 1057h710v-1057h-325v809h-385v-809h-324v809h-403v-809h-326v809h-201v248h201v117q0 164 114 264q112 100 296 100q134 0 206 -20v-236h-157q-72 0 -102.5 -32.5t-30.5 -110.5v-82h403v157q0 164 113 265q112 100 295 100q115 0 192 -23v-233h-143
q-72 0 -102.5 -33t-30.5 -110v-123zM1642 1241v305h347v-305h-347z" />
    <glyph glyph-name="f_f_l.liga" unicode="ffl" horiz-adv-x="2211" 
d="M944 1057v203q0 156 99.5 237.5t287.5 81.5q145 0 246 -23v-233h-186q-71 0 -97 -24q-26 -26 -26 -95v-147h301v-248h-301v-809h-324v809h-403v-809h-326v809h-201v248h201v162q0 155 100 237t287 82q129 0 221 -20v-236h-159q-72 0 -97 -24q-26 -26 -26 -95v-106h403z
M2114 236h59v-236q-72 -20 -168 -20q-147 0 -238 93q-92 94 -92 244v1242h326v-1199q0 -68 26 -96t87 -28z" />
    <glyph glyph-name=".notdef" horiz-adv-x="1523" 
d="M1266 682h186v-61h-125q-12 -143 -77.5 -251t-174.5 -163v-207h-57v207q-60 -58 -168 -119l-37 170h-102l-37 -170q-114 64 -168 121v-209h-55v209q-227 113 -254 412h-125v61h186q0 -296 193 -414v125q-80 95 -80 260q0 179 88 279v522h608v-524q86 -98 86 -277
q0 -162 -78 -258v-127q191 119 191 414zM539 1407l223 -193l223 193h-446zM793 1188l225 -197v393zM508 995l223 193l-223 192v-385zM920 1024l-158 137l-158 -137q71 22 158.5 22t157.5 -22zM510 411q86 -83 252 -83t252 83t86 242q0 166 -86 252t-252 86t-252 -86
t-86 -252q0 -159 86 -242zM600 922l86 30v-34l-86 -31v35zM922 887l-88 31v34l88 -30v-35zM729 819q0 -23 -15.5 -37t-37.5 -14q-25 0 -41.5 14.5t-16.5 36.5q0 26 16.5 42t41.5 16q24 0 38.5 -15.5t14.5 -42.5zM848 877q25 0 41 -15.5t16 -42.5q0 -23 -16.5 -37t-40.5 -14
q-23 0 -38 14.5t-15 36.5q0 27 14.5 42.5t38.5 15.5zM854 696l-176 -20v39l176 20v-39zM643 160l29 119q-100 16 -166 63v-74q56 -64 137 -108zM1018 266v76q-66 -47 -166 -63l29 -119q80 41 137 106zM764 207q29 0 29 -31q0 -29 -29 -29q-33 0 -33 29q0 31 33 31zM764 94
q29 0 29 -28q0 -31 -29 -31q-33 0 -33 31q0 28 33 28z" />
    <glyph glyph-name="glyph1" horiz-adv-x="0" 
 />
    <glyph glyph-name="glyph2" horiz-adv-x="681" 
 />
    <glyph glyph-name="space" unicode=" " horiz-adv-x="409" 
 />
    <glyph glyph-name="exclam" unicode="!" horiz-adv-x="647" 
d="M158 1446h331v-367l-53 -575h-227l-51 575v367zM143 0v348h361v-348h-361z" />
    <glyph glyph-name="quotedbl" unicode="&#x22;" horiz-adv-x="843" 
d="M104 897l-41 549h299l-40 -549h-218zM522 897l-41 549h299l-41 -549h-217z" />
    <glyph glyph-name="numbersign" unicode="#" horiz-adv-x="1523" 
d="M1497 1090v-199h-289l-92 -350h244v-201h-299l-90 -340h-228l91 340h-334l-90 -340h-228l90 340h-245v201h301l92 350h-256v199h309l96 356h228l-97 -356h334l96 356h228l-96 -356h235zM555 541h334l92 350h-334z" />
    <glyph glyph-name="dollar" unicode="$" horiz-adv-x="1435" 
d="M1370 422q0 -179 -136 -297q-138 -120 -370 -148v-153h-270v153q-243 29 -385 159q-143 131 -143 327h344q0 -115 74 -166t239 -51q295 0 295 137q0 44 -19 70q-20 27 -101 58q-86 33 -234 58q-302 51 -432 154q-132 102 -132 289q0 184 134 306t360 150v142h270v-144
q218 -34 347 -166q128 -131 128 -323h-344q0 117 -65.5 170t-212.5 53q-264 0 -264 -141q0 -66 70 -106q68 -40 286 -79q306 -52 434 -159q127 -106 127 -293z" />
    <glyph glyph-name="percent" unicode="%" horiz-adv-x="1521" 
d="M673 864q-103 -98 -269 -98q-168 0 -269 99q-102 98 -102 257q0 158 102 257q101 98 269 98q166 0 269 -98q101 -99 101 -257q0 -160 -101 -258zM1116 1446h338l-360 -658h-297zM298 1011q40 -42 106 -42q64 0 105 42q40 41 40 111q0 68 -40 110t-105 42q-66 0 -106 -42
t-40 -110q0 -71 40 -111zM1116 -31q-168 0 -270 99q-103 97 -103 258q0 159 103 258q103 98 270 98q165 0 269 -98q102 -99 102 -258q0 -160 -102 -258q-103 -99 -269 -99zM438 657h297l-319 -657h-338zM1010 215q41 -41 107 -41q64 0 105 41q40 40 40 111q0 70 -40 110
q-41 41 -105 41q-66 0 -107 -41t-41 -110q0 -70 41 -111z" />
    <glyph glyph-name="ampersand" unicode="&#x26;" horiz-adv-x="1456" 
d="M1296 264l293 -264h-411l-86 78q-181 -109 -408 -109q-284 0 -459 113q-174 112 -174 299q0 117 82.5 209t235.5 145q-95 91 -136 168q-40 76 -40 182q0 176 139 284q140 108 366 108q230 0 372 -107q140 -108 140 -285q0 -265 -401 -378l283 -256q29 92 28 231h312
q0 -234 -136 -418zM707 1221q-92 0 -134.5 -37t-42.5 -117q0 -93 138 -229q117 39 170 93t53 136q0 80 -44 117t-140 37zM684 223q134 0 215 29l-387 350q-121 -61 -121 -176q0 -106 70 -154.5t223 -48.5z" />
    <glyph glyph-name="quotesingle" unicode="'" horiz-adv-x="425" 
d="M104 897l-41 549h299l-40 -549h-218z" />
    <glyph glyph-name="parenleft" unicode="(" horiz-adv-x="649" 
d="M309 1559h285q-172 -477 -172 -975q0 -495 172 -975h-285q-229 488 -229 975q0 489 229 975z" />
    <glyph glyph-name="parenright" unicode=")" horiz-adv-x="645" 
d="M311 -391h-284q172 477 172 975q0 495 -172 975h284q228 -487 230 -975q-2 -490 -230 -975z" />
    <glyph glyph-name="asterisk" unicode="*" horiz-adv-x="677" 
d="M426 1477l-88 -287l-88 287h176zM170 1438l168 -248l-279 110zM618 1300l-280 -110l170 248zM39 1212l299 -22l-260 -150zM600 1040l-262 150l301 22zM135 971l203 219l-43 -297zM383 893l-45 297l205 -219z" />
    <glyph glyph-name="plus" unicode="+" horiz-adv-x="1034" 
d="M631 653h319v-221h-319v-321l-225 -2v323h-322v221h322v322h225v-322z" />
    <glyph glyph-name="comma" unicode="," horiz-adv-x="552" 
d="M104 61v287h361v-348q0 -170 -106 -269q-107 -98 -291 -98v150q115 0 168 46t53 148z" />
    <glyph glyph-name="hyphen" unicode="-" horiz-adv-x="688" 
d="M78 647h553v-250h-553v250z" />
    <glyph glyph-name="period" unicode="." horiz-adv-x="561" 
d="M113 0v348h360v-348h-360z" />
    <glyph glyph-name="slash" unicode="/" horiz-adv-x="591" 
d="M0 -391l344 1950h238l-344 -1950h-238z" />
    <glyph glyph-name="zero" unicode="0" horiz-adv-x="1515" 
d="M1246 176q-184 -207 -488 -207q-303 0 -487 207q-185 208 -185 547t185 547q184 207 487 207q304 0 488 -207q184 -206 184 -547t-184 -547zM518 378q76 -108 240 -108t240 108q75 106 75 345q0 238 -75 346q-77 107 -240 107t-240 -107q-76 -107 -76 -346t76 -345z" />
    <glyph glyph-name="one" unicode="1" horiz-adv-x="1058" 
d="M338 1446h559v-1446h-348v883l10 385l-176 -174l-315 -277v393z" />
    <glyph glyph-name="two" unicode="2" horiz-adv-x="1298" 
d="M270 289l277 8h692v-297h-1133v489l592 263q103 52 140 106q36 52 36 146q0 102 -49 149t-157 47q-109 0 -159 -66.5t-50 -213.5h-344q0 250 154 404q153 153 407 153q250 0 398 -129q147 -129 147 -342q0 -301 -334 -449l-420 -201z" />
    <glyph glyph-name="three" unicode="3" horiz-adv-x="1337" 
d="M831 776q218 -24 326.5 -121t108.5 -258q0 -193 -162 -310q-161 -118 -428 -118q-266 0 -429 141q-163 139 -163 371h344q0 -122 59 -177.5t187 -55.5q125 0 182 42t57 132q0 176 -198 176h-219v233h194q84 0 126 50t42 137q0 94 -46.5 138t-147.5 44q-111 0 -161 -57.5
t-50 -184.5h-344q0 233 155 376t408 143q242 0 390 -108q148 -109 148 -290q0 -126 -97 -204.5t-282 -98.5z" />
    <glyph glyph-name="four" unicode="4" horiz-adv-x="1339" 
d="M1067 539h246v-269h-246v-270h-348v270h-645v566l413 610h580v-907zM184 532l238 7h297v456l10 348z" />
    <glyph glyph-name="five" unicode="5" horiz-adv-x="1300" 
d="M821 928q189 0 304 -127q116 -128 116 -334q0 -223 -159 -360q-160 -138 -420 -138t-420 140q-160 139 -160 366h344q0 -119 55.5 -173t178.5 -54q122 0 178.5 51t56.5 162q0 115 -56.5 167t-179.5 52q-145 0 -229 -90h-299l53 856h973v-297h-481l-209 4l-29 -453
q116 228 383 228z" />
    <glyph glyph-name="six" unicode="6" horiz-adv-x="1441" 
d="M870 915q212 0 342 -119q129 -120 129 -317q0 -229 -158 -369q-159 -141 -421 -141q-322 0 -499 195q-177 194 -177 553q0 343 186 551q185 209 490 209q253 0 405 -130q152 -131 152 -343h-332q0 102 -54 148t-175 46q-166 0 -242 -114.5t-76 -366.5v-70q40 121 157 195
q115 73 273 73zM743 248q131 0 188.5 50t57.5 163q0 109 -58.5 157t-189.5 48q-142 0 -210 -48t-68 -149q0 -115 67.5 -168t212.5 -53z" />
    <glyph glyph-name="seven" unicode="7" horiz-adv-x="1161" 
d="M43 1149v297h1063v-533q-217 -123 -358 -373q-142 -250 -142 -540h-362q0 232 92 452t275 407q186 190 442 298l-383 -8h-627z" />
    <glyph glyph-name="eight" unicode="8" horiz-adv-x="1433" 
d="M983 739q362 -78 363 -370q0 -181 -172 -290q-173 -110 -457 -110q-283 0 -456 110t-173 290q0 143 92 237t271 133q-317 72 -318 330q0 182 161 295t423 113q263 0 424 -113q159 -112 159 -295q0 -258 -317 -330zM895 1165q-55 45 -178 45t-178 -45q-56 -45 -56 -145
q0 -102 55.5 -148.5t178.5 -46.5t178 46.5t55 148.5q0 100 -55 145zM717 236q146 0 212 47t66 149q0 105 -65.5 152t-212.5 47q-145 0 -212 -47t-67 -152q0 -102 67 -149t212 -47z" />
    <glyph glyph-name="nine" unicode="9" horiz-adv-x="1441" 
d="M680 1477q322 0 499 -193q177 -194 177 -555q0 -342 -185 -551q-186 -209 -491 -209q-252 0 -403 130q-152 131 -152 343h332q0 -102 53.5 -148t173.5 -46q166 0 242 114q75 112 75 367v66q-41 -119 -156 -192t-274 -73q-213 0 -342 120t-129 317q0 229 159 370
q160 140 421 140zM702 780q142 0 209.5 47.5t67.5 149.5q0 115 -66.5 168t-212.5 53q-131 0 -189 -50t-58 -163q0 -109 59 -157t190 -48z" />
    <glyph glyph-name="colon" unicode=":" horiz-adv-x="561" 
d="M113 645v348h360v-348h-360zM113 0v348h360v-348h-360z" />
    <glyph glyph-name="semicolon" unicode=";" horiz-adv-x="552" 
d="M104 645v348h361v-348h-361zM104 61v287h361v-348q0 -170 -106 -269q-107 -98 -291 -98v150q115 0 168 46t53 148z" />
    <glyph glyph-name="less" unicode="&#x3c;" horiz-adv-x="925" 
d="M84 729l758 270v-235l-695 -225l695 -226v-235l-758 270v381z" />
    <glyph glyph-name="equal" unicode="=" horiz-adv-x="1116" 
d="M84 885h883v-223h-883v223zM84 424h883v-223h-883v223z" />
    <glyph glyph-name="greater" unicode="&#x3e;" horiz-adv-x="925" 
d="M84 764v235l758 -270v-381l-758 -270v235l694 226z" />
    <glyph glyph-name="question" unicode="?" horiz-adv-x="1099" 
d="M530 1477q232 0 372 -115q140 -116 140 -301q0 -288 -374 -389l-62 -17l-10 -176h-219l-15 303l187 49q106 27 148 69t42 120q0 106 -49 154.5t-158 48.5q-121 0 -175 -59.5t-54 -192.5h-297q0 227 144 367q143 139 380 139zM666 0h-361v348h361v-348z" />
    <glyph glyph-name="at" unicode="@" horiz-adv-x="2138" 
d="M359 1224q270 261 710 261q439 0 711 -248q270 -248 270 -655q0 -176 -40 -305t-109 -191q-126 -113 -275 -113q-315 0 -330 285q-47 -133 -142 -207t-220 -74q-201 0 -321 153q-121 152 -121 403q0 250 121 402q120 152 321 152q126 0 221.5 -67t142.5 -189v201h314
v-692q0 -77 23 -102q22 -25 81 -23q72 1 108 77q36 75 36 277q0 362 -203 554t-588 192q-384 0 -586 -200q-202 -199 -202 -578q0 -380 202 -579q202 -200 586 -200q317 0 530 138v-195q-221 -113 -530 -113q-440 0 -710 261q-271 262 -271 688t271 687zM882 300
q54 -73 175 -73t175 73q54 74 54 233t-54 232t-175 73t-175 -73q-55 -73 -55 -232q0 -160 55 -233z" />
    <glyph glyph-name="A" unicode="A" horiz-adv-x="1564" 
d="M1542 0h-362l-111 356h-584l-110 -356h-352l452 1446h615zM692 1020l-123 -395h416l-123 395l-86 313z" />
    <glyph glyph-name="B" unicode="B" horiz-adv-x="1482" 
d="M1073 795q166 -41 254 -142.5t88 -246.5q0 -182 -123 -294q-122 -112 -323 -112h-807v1446h753q204 0 326 -94q123 -94 123 -248q0 -121 -77 -202.5t-214 -106.5zM805 1174h-295v-332h295q108 0 155.5 39t47.5 127q0 87 -48.5 126.5t-154.5 39.5zM510 272h336
q104 0 152.5 41t48.5 129t-47.5 128t-153.5 40h-336v-338z" />
    <glyph glyph-name="C" unicode="C" horiz-adv-x="1548" 
d="M286 176q-200 208 -200 547t200 547q200 207 525 207q289 0 476 -157q186 -158 186 -417h-345q0 143 -75.5 208t-241.5 65q-195 0 -282 -107q-87 -108 -87 -346q0 -241 88 -348q88 -109 281 -109q168 0 242.5 59.5t74.5 192.5h345q0 -251 -185 -400q-187 -149 -477 -149
q-325 0 -525 207z" />
    <glyph glyph-name="D" unicode="D" horiz-adv-x="1599" 
d="M162 1446h624q328 0 528 -198q199 -199 199 -525t-199 -524q-199 -199 -528 -199h-624v1446zM510 285h262q385 0 385 438q0 432 -385 432h-262v-870z" />
    <glyph glyph-name="E" unicode="E" horiz-adv-x="1339" 
d="M510 596v-305h715v-291h-1063v1446h1055v-291h-707v-293h672v-266h-672z" />
    <glyph glyph-name="F" unicode="F" horiz-adv-x="1261" 
d="M1196 1446v-291h-686v-305h657v-266h-657v-584h-348v1446h1034z" />
    <glyph glyph-name="G" unicode="G" horiz-adv-x="1638" 
d="M754 551v237h753v-788h-303v356q-86 -387 -473 -387q-291 0 -468 202q-177 203 -177 540q0 348 203 557t534 209q303 0 490 -154q186 -155 186 -403h-344q0 133 -79 194.5t-253 61.5q-201 0 -291 -107q-90 -108 -90 -346q0 -243 91 -350q90 -109 290 -109q176 0 256 67.5
t84 219.5h-409z" />
    <glyph glyph-name="H" unicode="H" horiz-adv-x="1656" 
d="M1147 874v572h348v-1446h-348v584h-637v-584h-348v1446h348v-572h637z" />
    <glyph glyph-name="I" unicode="I" horiz-adv-x="671" 
d="M162 0v1446h348v-1446h-348z" />
    <glyph glyph-name="J" unicode="J" horiz-adv-x="1320" 
d="M43 526h340q0 -136 52 -197t171 -61t171 63.5t52 205.5v909h349v-950q0 -235 -158 -381t-414 -146q-254 0 -408 154q-155 153 -155 403z" />
    <glyph glyph-name="K" unicode="K" horiz-adv-x="1566" 
d="M1516 1446l-627 -709l680 -737h-455l-450 498l-154 192v-690h-348v1446h348v-684l154 194l434 490h418z" />
    <glyph glyph-name="L" unicode="L" horiz-adv-x="1232" 
d="M510 1446v-1155h670v-291h-1018v1446h348z" />
    <glyph glyph-name="M" unicode="M" horiz-adv-x="2082" 
d="M1329 1446h592v-1446h-352v987l10 320l-305 -1307h-463l-307 1309l10 -322v-987h-352v1446h606l231 -942l52 -307l49 307z" />
    <glyph glyph-name="N" unicode="N" horiz-adv-x="1710" 
d="M1204 655v791h344v-1446h-604l-450 1307l12 -496v-811h-344v1446h608l447 -1292z" />
    <glyph glyph-name="O" unicode="O" horiz-adv-x="1654" 
d="M1365 176q-204 -207 -537 -207q-334 0 -538 207t-204 547t204 547t538 207q333 0 537 -207t204 -547t-204 -547zM535 377q91 -109 293 -109q201 0 292 109q92 109 92 346t-92 346q-92 107 -292 107q-201 0 -293 -107q-93 -108 -93 -346t93 -346z" />
    <glyph glyph-name="P" unicode="P" horiz-adv-x="1384" 
d="M162 1446h715q210 0 337 -130t127 -343q0 -212 -128 -343q-127 -130 -336 -130h-367v-500h-348v1446zM510 772h274q106 0 153.5 47.5t47.5 153.5q0 107 -47 154t-154 47h-274v-402z" />
    <glyph glyph-name="Q" unicode="Q" horiz-adv-x="1630" 
d="M1395 246l198 -183l-202 -202l-189 211q-172 -101 -387 -103q-329 0 -528 207q-201 207 -201 547t201 547q199 207 528 207q328 0 529 -207q200 -208 200 -547q0 -275 -149 -477zM532 1069q-90 -108 -90 -346q0 -239 90 -345q88 -108 283 -108q103 0 168 21l-221 198
l203 203l196 -213q27 92 27 244q0 237 -89 346q-89 107 -283 107q-195 0 -284 -107z" />
    <glyph glyph-name="R" unicode="R" horiz-adv-x="1503" 
d="M1493 0h-391l-328 549h-264v-549h-348v1446h741q210 0 337 -121q128 -122 128 -319q0 -145 -67.5 -253t-190.5 -161l121 -164zM811 1174h-301v-373h301q106 0 153.5 45t47.5 145q0 96 -47 139.5t-154 43.5z" />
    <glyph glyph-name="S" unicode="S" horiz-adv-x="1435" 
d="M721 -31q-294 0 -475 137q-180 136 -180 357h344q0 -115 74 -166t239 -51q295 0 295 137q0 44 -19 70q-20 27 -101 58q-86 33 -234 58q-302 51 -432 154q-132 102 -132 289q0 210 171 337q172 128 450 128t448 -137q170 -138 170 -363h-344q0 117 -65.5 170t-212.5 53
q-264 0 -264 -141q0 -66 70 -106q68 -40 286 -79q306 -52 434 -159q127 -106 127 -293q0 -205 -178 -329t-471 -124z" />
    <glyph glyph-name="T" unicode="T" horiz-adv-x="1351" 
d="M25 1446h1302v-291h-477v-1155h-348v1155h-477v291z" />
    <glyph glyph-name="U" unicode="U" horiz-adv-x="1568" 
d="M143 512v934h349v-903q0 -144 68.5 -208.5t223.5 -64.5q154 0 223.5 64.5t69.5 208.5v903h348v-934q0 -244 -177 -393q-177 -150 -464 -150q-290 0 -465 150q-176 149 -176 393z" />
    <glyph glyph-name="V" unicode="V" horiz-adv-x="1507" 
d="M838 426l309 1020h350l-440 -1446h-606l-441 1446h363l305 -1020l80 -295z" />
    <glyph glyph-name="W" unicode="W" horiz-adv-x="2412" 
d="M1772 426l217 1020h387l-340 -1446h-584l-190 936l-54 338l-55 -338l-190 -936h-586l-340 1446h389l219 -1020l49 -283l43 283l199 1020h543l200 -1020l43 -283z" />
    <glyph glyph-name="X" unicode="X" horiz-adv-x="1605" 
d="M1563 1446l-457 -676l506 -770h-393l-275 414l-143 248l-144 -250l-274 -412h-387l500 758l-465 688h393l238 -350l139 -242l139 242l238 350h385z" />
    <glyph glyph-name="Y" unicode="Y" horiz-adv-x="1421" 
d="M1071 1446h359l-545 -1045v-401h-348v401l-543 1045h377l243 -483l109 -258l106 258z" />
    <glyph glyph-name="Z" unicode="Z" horiz-adv-x="1343" 
d="M182 283l307 8h781v-291h-1184v539l1073 624l-305 -8h-760v291h1172v-533z" />
    <glyph glyph-name="bracketleft" unicode="[" horiz-adv-x="733" 
d="M723 1559v-261l-279 5v-1438l279 4v-260h-604v1950h604z" />
    <glyph glyph-name="backslash" unicode="\" horiz-adv-x="591" 
d="M10 1559h238l344 -1950h-238z" />
    <glyph glyph-name="bracketright" unicode="]" horiz-adv-x="733" 
d="M10 1559h604v-1950h-604v260l279 -4v1438l-279 -5v261z" />
    <glyph glyph-name="asciicircum" unicode="^" horiz-adv-x="897" 
d="M641 1446l203 -496h-240l-153 430l-156 -430h-242l205 496h383z" />
    <glyph glyph-name="underscore" unicode="_" horiz-adv-x="1157" 
d="M82 -31h1030v-237h-1030v237z" />
    <glyph glyph-name="grave" unicode="`" horiz-adv-x="595" 
d="M92 1559h307l105 -353h-232z" />
    <glyph glyph-name="a" unicode="a" horiz-adv-x="1204" 
d="M1174 227h2v-227q-74 -20 -162 -20q-246 0 -260 215q-49 -105 -145 -165.5t-228 -60.5q-139 0 -225 72t-86 190q0 226 307 281q307 57 366 80v33q0 115 -37.5 166t-123.5 51t-124 -50.5t-38 -164.5h-314q0 209 134 335q134 125 350 125q215 0 340 -116q125 -117 125 -318
v-301q0 -82 21 -103q19 -22 98 -22zM518 190q103 0 164 58t61 166v37q-61 -20 -213 -56q-83 -19 -110 -43t-27 -71q0 -91 125 -91z" />
    <glyph glyph-name="b" unicode="b" horiz-adv-x="1331" 
d="M807 1087q201 0 323 -153q121 -154 121 -406q0 -253 -121 -405q-121 -154 -323 -154q-126 0 -220.5 66.5t-142.5 189.5v-225h-313v1559h326v-723q49 121 140 186t210 65zM511 293q54 -74 175 -74t175 74t54 235q0 164 -54 237t-175 73t-175 -73t-54 -237q0 -161 54 -235z
" />
    <glyph glyph-name="c" unicode="c" horiz-adv-x="1222" 
d="M834 399h315q0 -195 -138 -312q-139 -118 -368 -118q-254 0 -408 154q-155 153 -155 405q0 251 155 406q155 153 408 153q227 0 366 -124q138 -125 138 -328h-316q0 106 -44.5 154.5t-143.5 48.5q-120 0 -173.5 -73.5t-53.5 -235.5q0 -163 53.5 -236.5t173.5 -73.5
q100 0 145.5 43t45.5 137z" />
    <glyph glyph-name="d" unicode="d" horiz-adv-x="1323" 
d="M874 860v699h326v-1559h-311v258q-47 -137 -143.5 -213t-223.5 -76q-199 0 -320 154q-122 154 -122 405t122 406q122 153 320 153q117 0 209 -59t143 -168zM470 292q54 -73 175 -73t175 73t54 236q0 162 -54.5 236t-174.5 74t-174.5 -74t-54.5 -236q0 -164 54 -236z" />
    <glyph glyph-name="e" unicode="e" horiz-adv-x="1247" 
d="M1167 592v-137h-749q12 -126 67.5 -184t161.5 -58q199 0 199 137h315q0 -172 -144 -276q-145 -105 -380 -105q-250 0 -403 154q-154 153 -154 405t154 406q153 153 403 153q239 0 384 -136q146 -137 146 -359zM422 627l207 4h215q-8 111 -58 162t-149 51q-97 0 -149 -52
t-66 -165z" />
    <glyph glyph-name="f" unicode="f" horiz-adv-x="888" 
d="M905 1323h-231q-72 0 -102.5 -33t-30.5 -110v-123h358v-248h-358v-809h-326v809h-201v248h201v157q0 164 114 265q112 100 296 100q155 0 280 -20v-236z" />
    <glyph glyph-name="g" unicode="g" horiz-adv-x="1191" 
d="M1196 1264v-244q-187 0 -215 -55q111 -94 111 -248q0 -164 -137 -268q-138 -105 -369 -105q-136 0 -238 37q-14 -23 -14 -55q0 -45 30.5 -63.5t104.5 -18.5h358q166 0 268 -81q101 -81 101 -214q0 -164 -157 -263q-158 -98 -427 -98q-266 0 -419 73q-156 73 -156 196
q0 61 43 104t119 59q-113 68 -113 181q0 143 160 227q-166 103 -166 289q0 169 136 269q137 101 370 101q152 0 268 -45q16 115 96 168.5t246 53.5zM586 565q94 0 136 36t42 116q0 78 -42 113.5t-136 35.5q-98 0 -138 -34t-40 -115q0 -82 40 -117t138 -35zM764 -16h-430
q-10 -30 -10 -68q0 -78 57 -104q56 -25 231 -25q171 0 227 22q56 23 56 91q0 47 -28.5 65.5t-102.5 18.5z" />
    <glyph glyph-name="h" unicode="h" horiz-adv-x="1320" 
d="M834 1087q172 0 268 -98t96 -274v-715h-326v592q0 121 -42 172t-142 51q-231 0 -231 -242v-573h-326v1559h326v-723q53 121 150.5 186t226.5 65z" />
    <glyph glyph-name="i" unicode="i" horiz-adv-x="577" 
d="M121 1241v289h346v-289h-346zM131 0v1057h326v-1057h-326z" />
    <glyph glyph-name="j" unicode="j" horiz-adv-x="589" 
d="M133 1241v289h346v-289h-346zM143 -12v1069h326v-1100q0 -166 -107 -268q-109 -101 -284 -101q-84 0 -158 21v235h105q65 0 91.5 32.5t26.5 111.5z" />
    <glyph glyph-name="k" unicode="k" horiz-adv-x="1284" 
d="M1241 1057l-442 -504l512 -553h-422l-328 365l-104 135v-500h-326v1559h326v-996l104 137l313 357h367z" />
    <glyph glyph-name="l" unicode="l" horiz-adv-x="667" 
d="M567 236h62v-236q-72 -20 -168 -20q-150 0 -240 93t-90 244v1242h326v-1199q0 -68 25 -96t85 -28z" />
    <glyph glyph-name="m" unicode="m" horiz-adv-x="2045" 
d="M1565 1087q168 0 263 -98t95 -274v-715h-324v592q0 121 -40.5 172t-137.5 51q-231 0 -231 -242v-573h-326v592q0 121 -41 172t-137 51q-229 0 -229 -242v-573h-326v1057h311v-248q54 132 154.5 205t232.5 73q143 0 234.5 -70.5t116.5 -199.5q53 129 153.5 199.5
t231.5 70.5z" />
    <glyph glyph-name="n" unicode="n" horiz-adv-x="1320" 
d="M834 1087q172 0 268 -98t96 -274v-715h-326v592q0 121 -42 172t-142 51q-231 0 -231 -242v-573h-326v1057h313v-244q53 132 154 203t236 71z" />
    <glyph glyph-name="o" unicode="o" horiz-adv-x="1290" 
d="M1055 123q-155 -154 -410 -154t-409 154q-156 153 -156 405t156 406q154 153 409 153q254 0 410 -153q155 -155 155 -406q0 -252 -155 -405zM471 293q56 -74 174 -74t174 74q55 73 55 236q0 162 -55 235q-56 74 -174 74t-174 -74q-55 -73 -55 -235q0 -163 55 -236z" />
    <glyph glyph-name="p" unicode="p" horiz-adv-x="1331" 
d="M807 1087q201 0 323 -153q121 -154 121 -406q0 -253 -121 -405q-121 -154 -323 -154q-117 0 -208 59.5t-142 168.5v-588h-326v1448h311v-260q47 139 142.5 214.5t222.5 75.5zM511 293q54 -74 175 -74t175 74t54 235q0 164 -54 237t-175 73t-175 -73t-54 -237
q0 -161 54 -235z" />
    <glyph glyph-name="q" unicode="q" horiz-adv-x="1327" 
d="M887 831v226h313v-1448h-326v612q-51 -121 -142 -186.5t-210 -65.5q-199 0 -320 154q-122 154 -122 405t122 406q122 153 320 153q126 0 222 -67t143 -189zM470 292q54 -73 175 -73t175 73t54 236q0 162 -54.5 236t-174.5 74t-174.5 -74t-54.5 -236q0 -164 54 -236z" />
    <glyph glyph-name="r" unicode="r" horiz-adv-x="878" 
d="M760 1087q58 0 94 -16v-301h-186q-102 0 -156.5 -58.5t-54.5 -168.5v-543h-326v1057h311v-273q37 139 122 221t196 82z" />
    <glyph glyph-name="s" unicode="s" horiz-adv-x="1136" 
d="M571 -31q-236 0 -378 100q-142 99 -142 263h316q0 -76 49 -110t157 -34q183 0 185 93q0 47 -48 74q-48 25 -200 48q-223 29 -327.5 108.5t-104.5 223.5q0 158 133 255t350 97q221 0 356 -102q134 -102 134 -268h-316q0 78 -42 114.5t-134 36.5q-172 0 -172 -98
q0 -48 51 -74q52 -26 203 -47q231 -29 335.5 -108.5t104.5 -223.5q0 -158 -140 -253q-142 -95 -370 -95z" />
    <glyph glyph-name="t" unicode="t" horiz-adv-x="940" 
d="M674 236h229v-236q-158 -20 -280 -20q-184 0 -297 98t-113 258v473h-203v248h205l6 309h318v-309h360v-248h-360v-430q0 -80 30 -111.5t105 -31.5z" />
    <glyph glyph-name="u" unicode="u" horiz-adv-x="1312" 
d="M860 475v582h324v-1057h-312v225q-54 -122 -153.5 -189t-233.5 -67q-168 0 -261 98.5t-93 274.5v715h326v-592q0 -121 41.5 -172t140.5 -51q107 0 164 59.5t57 173.5z" />
    <glyph glyph-name="v" unicode="v" horiz-adv-x="1208" 
d="M668 389l194 668h330l-309 -1057h-557l-312 1057h340l193 -668l59 -264z" />
    <glyph glyph-name="w" unicode="w" horiz-adv-x="1861" 
d="M1380 389l140 668h319l-240 -1057h-499l-127 645l-35 238l-33 -238l-127 -645h-516l-239 1057h339l142 -668l37 -264l32 264l123 668h492l123 -668l32 -254z" />
    <glyph glyph-name="x" unicode="x" horiz-adv-x="1288" 
d="M1251 1057l-317 -516l346 -541h-362l-179 299l-90 182l-100 -182l-189 -299h-352l363 543l-328 514h363l169 -281l78 -155l80 155l166 281h352z" />
    <glyph glyph-name="y" unicode="y" horiz-adv-x="1208" 
d="M668 389l194 668h330l-348 -1184q-39 -131 -149 -208q-112 -77 -263 -77q-135 0 -258 21v235h199q143 0 170 95l18 61h-235l-312 1057h340l193 -668l59 -264z" />
    <glyph glyph-name="z" unicode="z" horiz-adv-x="1054" 
d="M227 246l293 8h459v-254h-889v451l756 360l-307 -8h-439v254h869v-457z" />
    <glyph glyph-name="braceleft" unicode="{" horiz-adv-x="802" 
d="M584 1210v-364q0 -134 -82.5 -198t-261.5 -64q178 0 261 -64.5t83 -197.5v-365q0 -83 20 -105q20 -20 96 -20h93v-221q-138 -23 -199 -23q-182 0 -253 60q-71 62 -71 219v434q0 89 -31 120q-32 32 -116 32h-107v262h107q84 0 116 32q31 31 31 119v434q0 157 71 219
q71 60 253 60q59 0 199 -23v-221h-93q-77 0 -97 -20q-19 -20 -19 -105z" />
    <glyph glyph-name="bar" unicode="|" horiz-adv-x="552" 
d="M162 -391v1950h229v-1950h-229z" />
    <glyph glyph-name="braceright" unicode="}" horiz-adv-x="802" 
d="M692 715h107v-262h-107q-83 0 -115 -32t-32 -120v-434q0 -157 -71 -219q-71 -60 -253 -60q-69 0 -198 23v221h92q77 0 97 20q19 20 19 105v365q0 133 82 197.5t260 64.5q-178 0 -260 64t-82 198v364q0 85 -19 105q-20 20 -97 20h-92v221q130 23 198 23q183 0 253 -60
q71 -62 71 -219v-434q0 -87 32 -119t115 -32z" />
    <glyph glyph-name="asciitilde" unicode="~" horiz-adv-x="1218" 
d="M289 377h-205q0 160 91 266q91 105 233 105q86 0 157 -36t129 -72t117 -36q55 0 87 38.5t32 94.5h205q0 -167 -90 -267q-92 -101 -234 -101q-85 0 -155 35q-70 34 -128 70t-120 36q-55 0 -87 -38.5t-32 -94.5z" />
    <glyph glyph-name="exclamdown" unicode="&#xa1;" horiz-adv-x="657" 
d="M514 1057v-348h-360v348h360zM500 -389h-332v366l53 576h228l51 -576v-366z" />
    <glyph glyph-name="cent" unicode="&#xa2;" horiz-adv-x="1224" 
d="M834 594h315q0 -166 -105 -279q-107 -115 -286 -143v-141h-246v145q-199 39 -315 185q-117 145 -117 362t117 363q115 145 315 184v133h246v-131q177 -28 284 -147q105 -119 105 -296h-316q0 106 -44.5 154.5t-143.5 48.5q-120 0 -173.5 -73t-53.5 -236t53.5 -236
t173.5 -73q100 0 145.5 43t45.5 137z" />
    <glyph glyph-name="sterling" unicode="&#xa3;" horiz-adv-x="1302" 
d="M250 285l203 6h782v-291h-1159v383q109 25 160 71t51 126v12h-207v203h115q-70 116 -70 229q0 204 156 328q155 125 409 125q243 0 394 -134q149 -135 149 -354h-344q0 113 -47 163t-154 50q-111 0 -161 -49t-50 -160q0 -84 60 -198h440v-203h-377q-1 -101 -84 -187
t-266 -120z" />
    <glyph glyph-name="currency" unicode="&#xa4;" horiz-adv-x="1409" 
d="M1321 1188l-160 -160q82 -128 82 -309t-82 -309l160 -160l-147 -148l-158 158q-135 -84 -311 -84q-177 0 -312 84l-157 -158l-148 148l160 160q-82 128 -82 309t82 309l-160 160l148 147l157 -157q135 84 312 84q176 0 311 -84l158 157zM503 508q77 -80 202 -80
q124 0 201 80t77 211t-77 211t-201 80q-125 0 -202 -80t-77 -211t77 -211z" />
    <glyph glyph-name="yen" unicode="&#xa5;" horiz-adv-x="1421" 
d="M1071 1446h359l-394 -754h234v-194h-334l-51 -97v-18h385v-195h-385v-188h-348v188h-385v195h385v18l-52 97h-333v194h233l-391 754h377l243 -483l109 -258l106 258z" />
    <glyph glyph-name="brokenbar" unicode="&#xa6;" horiz-adv-x="552" 
d="M391 786h-229v773h229v-773zM391 -391h-229v774h229v-774z" />
    <glyph glyph-name="section" unicode="&#xa7;" horiz-adv-x="1413" 
d="M780 881q306 -53 433 -162q128 -110 128 -297v-381q0 -204 -171 -329q-170 -124 -449 -124q-292 0 -467 135q-176 137 -176 357h344q0 -113 71.5 -164t229.5 -51q266 0 266 137q0 42 -19 67q-18 24 -101 56q-81 31 -236 57q-300 51 -430 156q-131 104 -131 293v381
q0 210 171 337q172 128 449 128q276 0 447 -138q170 -140 170 -362h-344q0 117 -65.5 170t-211.5 53q-264 0 -264 -141q0 -66 70 -102q68 -37 286 -76zM756 428q246 -44 374 -104v26q0 77 -28 120q-29 44 -133 85q-105 41 -312 78q-230 39 -362 100v-22q0 -85 31 -128
q30 -43 128 -81q93 -36 302 -74z" />
    <glyph glyph-name="dieresis" unicode="&#xa8;" horiz-adv-x="874" 
d="M92 1241v289h297v-289h-297zM485 1241v289h297v-289h-297z" />
    <glyph glyph-name="copyright" unicode="&#xa9;" horiz-adv-x="1667" 
d="M1392 176q-212 -207 -558 -207q-348 0 -559 207q-212 207 -212 547t212 547q211 207 559 207q346 0 558 -207t212 -547t-212 -547zM405 291q162 -164 429 -164q265 0 429 164q162 163 162 432t-162 432q-164 164 -429 164q-267 0 -429 -164q-163 -163 -163 -432t163 -432
zM981 633h246q0 -144 -103 -232q-104 -90 -272 -90q-188 0 -303 114t-115 300q0 184 115 298t303 114q167 0 271 -93q102 -94 102 -245h-244q0 74 -30.5 107.5t-98.5 33.5q-82 0 -120 -52t-38 -163q0 -114 38 -165.5t120 -51.5q68 0 98.5 29.5t30.5 95.5z" />
    <glyph glyph-name="ordfeminine" unicode="&#xaa;" horiz-adv-x="894" 
d="M825 766h2v-148q-67 -12 -125 -12q-167 0 -174 139q-63 -145 -239 -145q-100 0 -160.5 46t-60.5 122q0 143 217 182q203 39 237 51v21q0 66 -23.5 95.5t-76.5 29.5q-100 0 -100 -123h-226q0 135 93 216q91 81 239 81q147 0 234 -75q86 -75 86 -206v-192q0 -54 13 -67
q13 -15 64 -15zM377 748q145 0 145 139v20q-38 -13 -137 -35q-52 -14 -69 -28t-17 -41q0 -55 78 -55z" />
    <glyph glyph-name="guillemotleft" unicode="&#xab;" horiz-adv-x="1114" 
d="M252 913h356l-379 -385l379 -385h-356l-201 209v353zM739 913h357l-379 -385l379 -385h-357l-200 209v353z" />
    <glyph glyph-name="logicalnot" unicode="&#xac;" horiz-adv-x="1067" 
d="M84 662h899v-488h-223v266h-676v222z" />
    <glyph glyph-name="registered" unicode="&#xae;" horiz-adv-x="1024" 
d="M178 1353q127 124 334 124t334 -124t127 -327q0 -204 -127 -325q-128 -123 -334 -123t-334 123q-127 121 -127 325q0 203 127 327zM268 782q92 -92 244 -92t244 92t92 244q0 151 -92 245q-92 93 -244 93t-244 -93q-92 -94 -92 -245q0 -152 92 -244zM655 991l31 -37
l72 -116h-150l-78 131h-75v-131h-133v397h245q68 0 109 -36t41 -95q-2 -79 -62 -113zM526 1137h-71v-78h71q52 0 54 41q0 37 -54 37z" />
    <glyph glyph-name="overscore" unicode="&#xaf;" horiz-adv-x="768" 
d="M92 1511h584v-247h-584v247z" />
    <glyph glyph-name="degree" unicode="&#xb0;" horiz-adv-x="835" 
d="M418 766q-166 0 -268 99q-103 97 -103 257q0 158 103 257q103 98 268 98q168 0 269 -98q101 -99 101 -257q0 -160 -101 -258t-269 -98zM306 1005q42 -44 112 -44q69 0 111 44q42 43 42 117q0 72 -42 116t-111 44q-70 0 -112 -44t-42 -116q0 -74 42 -117z" />
    <glyph glyph-name="plusminus" unicode="&#xb1;" horiz-adv-x="1026" 
d="M625 1024v-229h317v-222h-317v-227l-224 -2v229h-317v222h317v229h224zM942 47h-858v221h858v-221z" />
    <glyph glyph-name="uni00B2" unicode="&#xb2;" horiz-adv-x="772" 
d="M166 1018l156 2h401v-195h-662v324l332 106q46 15 64 39t18 66q0 90 -84 90q-94 0 -94 -123h-240q0 131 94 212q93 81 244 81q147 0 235 -70q87 -70 87 -188q0 -159 -221 -236l-207 -75z" />
    <glyph glyph-name="uni00B3" unicode="&#xb3;" horiz-adv-x="815" 
d="M514 1245q232 -22 234 -211q0 -104 -99 -167q-100 -64 -264 -64q-153 0 -248 77q-94 76 -94 201h238q0 -92 106 -92q117 0 117 76q0 68 -98 68h-115v147h102q82 0 82 68q0 86 -88 86q-49 0 -70.5 -22.5t-21.5 -74.5h-240q0 127 91 205q90 78 240 78q149 0 240 -58
t91 -155q0 -67 -52.5 -109.5t-150.5 -52.5z" />
    <glyph glyph-name="acute" unicode="&#xb4;" horiz-adv-x="561" 
d="M92 1206l105 353h307l-180 -353h-232z" />
    <glyph glyph-name="paragraph" unicode="&#xb6;" horiz-adv-x="1701" 
d="M496 1446h1134v-291h-211v-1546h-323v1546h-199v-1546h-324v956h-77q-210 0 -337 121q-128 122 -128 320q0 197 128 319q127 121 337 121z" />
    <glyph glyph-name="middot" unicode="&#xb7;" horiz-adv-x="561" 
d="M100 369v360h361v-360h-361z" />
    <glyph glyph-name="cedilla" unicode="&#xb8;" horiz-adv-x="591" 
d="M305 -104h31q80 0 128 -45.5t48 -118.5q0 -80 -54.5 -129t-142.5 -49h-223v139h158q53 0 53 41t-53 41h-139v114l43 111h186z" />
    <glyph glyph-name="uni00B9" unicode="&#xb9;" horiz-adv-x="624" 
d="M152 1587h409v-762h-239v463l6 213l-97 -104l-211 -189v262z" />
    <glyph glyph-name="ordmasculine" unicode="&#xba;" horiz-adv-x="872" 
d="M704 700q-101 -100 -268 -100t-267 100q-101 99 -101 261q0 160 101 261q101 99 267 99t268 -99q101 -101 101 -261q0 -162 -101 -261zM333 820q32 -44 104 -44t103 43t31 142q0 96 -31.5 140t-102.5 44q-72 0 -104 -44t-32 -140q0 -97 32 -141z" />
    <glyph glyph-name="guillemotright" unicode="&#xbb;" horiz-adv-x="1114" 
d="M575 705v-353l-200 -209h-357l379 385l-379 385h357zM506 913h356l201 -208v-353l-201 -209h-356l379 385z" />
    <glyph glyph-name="onequarter" unicode="&#xbc;" horiz-adv-x="1531" 
d="M78 0l1130 1446h254l-1130 -1446h-254zM356 1186l4 180l-79 -86l-185 -162v234l109 94h362v-660h-211v400zM1010 659h331v-389h99v-153h-99v-117h-208v117h-273v319zM907 268l113 2h113v174l4 177z" />
    <glyph glyph-name="onehalf" unicode="&#xbd;" horiz-adv-x="1544" 
d="M78 0l1130 1446h254l-1130 -1446h-254zM365 1186l4 180l-80 -86l-185 -162v234l109 94h362v-660h-210v400zM985 166l133 4h348v-170h-575v281l289 94q72 26 71 90q0 78 -73 78q-82 0 -82 -107h-207q0 114 81 185q81 69 212 69q127 0 203 -61q75 -61 75 -162
q0 -72 -45 -121t-145 -86l-180 -65z" />
    <glyph glyph-name="threequarters" unicode="&#xbe;" horiz-adv-x="1572" 
d="M360 928q99 0 101 65q0 58 -86 60h-101v127h91q35 0 52.5 15t16.5 44q0 76 -76 76q-80 0 -79 -84h-207q0 113 78 180q77 66 208 66q130 0 209 -51q80 -53 80 -136q0 -121 -174 -139q199 -25 199 -184q0 -89 -86 -145t-228 -56q-135 0 -217 67q-82 66 -82 175h207
q0 -80 94 -80zM113 0l1130 1446h254l-1130 -1446h-254zM1051 659h331v-389h97v-153h-97v-117h-208v117h-273v319zM948 268l113 2h113v174l4 177z" />
    <glyph glyph-name="questiondown" unicode="&#xbf;" horiz-adv-x="1114" 
d="M449 1057h360v-348h-360v348zM811 86h297q0 -228 -144 -367q-145 -139 -380 -139q-232 0 -371 115q-141 115 -141 301q0 288 374 389l62 16l10 177h219l15 -304l-187 -49q-105 -27 -148 -68q-42 -42 -42 -120q0 -106 49 -154.5t158 -48.5q120 0 174.5 60t54.5 192z" />
    <glyph glyph-name="Agrave" unicode="&#xc0;" horiz-adv-x="1564" 
d="M801 1948l104 -353h-231l-180 353h307zM1542 0h-362l-111 356h-584l-110 -356h-352l452 1446h615zM692 1020l-123 -395h416l-123 395l-86 313z" />
    <glyph glyph-name="Aacute" unicode="&#xc1;" horiz-adv-x="1564" 
d="M764 1948h307l-180 -353h-232zM1542 0h-362l-111 356h-584l-110 -356h-352l452 1446h615zM692 1020l-123 -395h416l-123 395l-86 313z" />
    <glyph glyph-name="Acircumflex" unicode="&#xc2;" horiz-adv-x="1564" 
d="M913 1595l-127 293l-127 -293h-262l181 353h417l181 -353h-263zM1542 0h-362l-111 356h-584l-110 -356h-352l452 1446h615zM692 1020l-123 -395h416l-123 395l-86 313z" />
    <glyph glyph-name="Atilde" unicode="&#xc3;" horiz-adv-x="1564" 
d="M647 1710q-86 0 -86 -86h-160q0 309 234 309q62 0 151 -45q88 -45 138 -45q86 0 86 86h159q0 -309 -233 -309q-62 0 -151 45t-138 45zM1542 0h-362l-111 356h-584l-110 -356h-352l452 1446h615zM692 1020l-123 -395h416l-123 395l-86 313z" />
    <glyph glyph-name="Adieresis" unicode="&#xc4;" horiz-adv-x="1564" 
d="M440 1919h297v-289h-297v289zM834 1919h296v-289h-296v289zM1542 0h-362l-111 356h-584l-110 -356h-352l452 1446h615zM692 1020l-123 -395h416l-123 395l-86 313z" />
    <glyph glyph-name="Aring" unicode="&#xc5;" horiz-adv-x="1564" 
d="M939 1639q-58 -52 -152 -52q-95 0 -153 52q-59 51 -59 133q0 80 59 133q58 51 153 51q93 0 152 -51q58 -52 58 -133q0 -82 -58 -133zM862 1772q0 65 -75 65q-76 0 -76 -65q0 -66 76 -66q75 0 75 66zM1542 0h-362l-111 356h-584l-110 -356h-352l452 1446h615zM692 1020
l-123 -395h416l-123 395l-86 313z" />
    <glyph glyph-name="AE" unicode="&#xc6;" horiz-adv-x="2113" 
d="M1356 596l96 -305h547v-291h-819l-111 356h-584l-110 -356h-352l452 1446h1516v-291h-811l92 -293h684v-266h-600zM692 1020l-123 -395h416l-123 395l-86 313z" />
    <glyph glyph-name="Ccedilla" unicode="&#xc7;" horiz-adv-x="1548" 
d="M811 266q168 0 242.5 59.5t74.5 192.5h345q0 -236 -163 -381t-425 -166l-25 -75h31q80 0 128 -45.5t48 -118.5q0 -80 -54.5 -129t-142.5 -49h-223v139h158q53 0 53 41t-53 41h-139v114l32 86q-279 38 -445 239q-167 203 -167 509q0 339 200 547q200 207 525 207
q289 0 476 -157q186 -158 186 -417h-345q0 143 -75.5 208t-241.5 65q-195 0 -282 -107q-87 -108 -87 -346q0 -241 88 -348q88 -109 281 -109z" />
    <glyph glyph-name="Egrave" unicode="&#xc8;" horiz-adv-x="1339" 
d="M705 1948l104 -353h-231l-181 353h308zM510 596v-305h715v-291h-1063v1446h1055v-291h-707v-293h672v-266h-672z" />
    <glyph glyph-name="Eacute" unicode="&#xc9;" horiz-adv-x="1339" 
d="M668 1948h307l-180 -353h-232zM510 596v-305h715v-291h-1063v1446h1055v-291h-707v-293h672v-266h-672z" />
    <glyph glyph-name="Ecircumflex" unicode="&#xca;" horiz-adv-x="1339" 
d="M819 1595l-127 293l-127 -293h-262l180 353h418l180 -353h-262zM510 596v-305h715v-291h-1063v1446h1055v-291h-707v-293h672v-266h-672z" />
    <glyph glyph-name="Edieresis" unicode="&#xcb;" horiz-adv-x="1339" 
d="M344 1919h297v-289h-297v289zM737 1919h297v-289h-297v289zM510 596v-305h715v-291h-1063v1446h1055v-291h-707v-293h672v-266h-672z" />
    <glyph glyph-name="Igrave" unicode="&#xcc;" horiz-adv-x="671" 
d="M45 1948h307l105 -353h-232zM162 0v1446h348v-1446h-348z" />
    <glyph glyph-name="Iacute" unicode="&#xcd;" horiz-adv-x="671" 
d="M209 1595l104 353h308l-181 -353h-231zM162 0v1446h348v-1446h-348z" />
    <glyph glyph-name="Icircumflex" unicode="&#xce;" horiz-adv-x="671" 
d="M465 1595l-127 293l-127 -293h-262l180 353h418l180 -353h-262zM510 0h-348v1446h348v-1446z" />
    <glyph glyph-name="Idieresis" unicode="&#xcf;" horiz-adv-x="671" 
d="M-10 1630v289h297v-289h-297zM383 1630v289h297v-289h-297zM162 0v1446h348v-1446h-348z" />
    <glyph glyph-name="Eth" unicode="&#xd0;" horiz-adv-x="1605" 
d="M168 1446h625q329 0 528 -198q199 -199 199 -525t-200 -524q-199 -199 -527 -199h-625v604h-170v242h170v600zM516 285h262q385 0 385 438q0 432 -385 432h-262v-309h287v-242h-287v-319z" />
    <glyph glyph-name="Ntilde" unicode="&#xd1;" horiz-adv-x="1710" 
d="M733 1710q-86 0 -86 -86h-160q0 309 234 309q63 0 152 -45q88 -45 137 -45q86 0 86 86h159q0 -309 -233 -309q-62 0 -151 45t-138 45zM1204 655v791h344v-1446h-604l-450 1307l12 -496v-811h-344v1446h608l447 -1292z" />
    <glyph glyph-name="Ograve" unicode="&#xd2;" horiz-adv-x="1654" 
d="M535 1948h307l104 -353h-231zM1365 176q-204 -207 -537 -207q-334 0 -538 207t-204 547t204 547t538 207q333 0 537 -207t204 -547t-204 -547zM535 377q91 -109 293 -109q201 0 292 109q92 109 92 346t-92 346q-92 107 -292 107q-201 0 -293 -107q-93 -108 -93 -346
t93 -346z" />
    <glyph glyph-name="Oacute" unicode="&#xd3;" horiz-adv-x="1654" 
d="M700 1595l105 353h307l-180 -353h-232zM1365 176q-204 -207 -537 -207q-334 0 -538 207t-204 547t204 547t538 207q333 0 537 -207t204 -547t-204 -547zM535 377q91 -109 293 -109q201 0 292 109q92 109 92 346t-92 346q-92 107 -292 107q-201 0 -293 -107
q-93 -108 -93 -346t93 -346z" />
    <glyph glyph-name="Ocircumflex" unicode="&#xd4;" horiz-adv-x="1654" 
d="M956 1595l-127 293l-127 -293h-262l181 353h417l181 -353h-263zM290 1270q204 207 538 207q333 0 537 -207t204 -547t-204 -547t-537 -207q-334 0 -538 207t-204 547t204 547zM535 377q91 -109 293 -109q201 0 292 109q92 109 92 346t-92 346q-92 107 -292 107
q-201 0 -293 -107q-93 -108 -93 -346t93 -346z" />
    <glyph glyph-name="Otilde" unicode="&#xd5;" horiz-adv-x="1654" 
d="M977 1620q-63 0 -151 45t-138 45q-86 0 -86 -86h-160q0 309 234 309q62 0 151 -45t138 -45q86 0 86 86h159q0 -309 -233 -309zM1365 176q-204 -207 -537 -207q-334 0 -538 207t-204 547t204 547t538 207q333 0 537 -207t204 -547t-204 -547zM535 377q91 -109 293 -109
q201 0 292 109q92 109 92 346t-92 346q-92 107 -292 107q-201 0 -293 -107q-93 -108 -93 -346t93 -346z" />
    <glyph glyph-name="Odieresis" unicode="&#xd6;" horiz-adv-x="1654" 
d="M481 1630v289h297v-289h-297zM874 1630v289h297v-289h-297zM1365 176q-204 -207 -537 -207q-334 0 -538 207t-204 547t204 547t538 207q333 0 537 -207t204 -547t-204 -547zM535 377q91 -109 293 -109q201 0 292 109q92 109 92 346t-92 346q-92 107 -292 107
q-201 0 -293 -107q-93 -108 -93 -346t93 -346z" />
    <glyph glyph-name="multiply" unicode="&#xd7;" horiz-adv-x="956" 
d="M731 942l148 -147l-254 -252l254 -254l-148 -146l-252 252l-254 -252l-147 144l254 256l-254 254l145 145l254 -254z" />
    <glyph glyph-name="Oslash" unicode="&#xd8;" horiz-adv-x="1654" 
d="M1528 1559l-174 -279q215 -206 215 -557q0 -340 -204 -547t-538 -207q-148 0 -270 43l-92 -147h-340l184 293q-223 211 -223 565q0 340 204 547t537 207q151 0 281 -45l80 127h340zM442 723q0 -175 47 -277l453 719q-51 9 -115 11q-201 0 -293 -107q-92 -109 -92 -346z
M827 268q201 0 293 108.5t92 346.5q0 163 -43 264l-446 -711q46 -8 104 -8z" />
    <glyph glyph-name="Ugrave" unicode="&#xd9;" horiz-adv-x="1568" 
d="M492 1948h307l104 -353h-231zM143 512v934h349v-903q0 -144 68.5 -208.5t223.5 -64.5q154 0 223.5 64.5t69.5 208.5v903h348v-934q0 -244 -177 -393q-177 -150 -464 -150q-290 0 -465 150q-176 149 -176 393z" />
    <glyph glyph-name="Uacute" unicode="&#xda;" horiz-adv-x="1568" 
d="M657 1595l105 353h307l-180 -353h-232zM143 512v934h349v-903q0 -144 68.5 -208.5t223.5 -64.5q154 0 223.5 64.5t69.5 208.5v903h348v-934q0 -244 -177 -393q-177 -150 -464 -150q-290 0 -465 150q-176 149 -176 393z" />
    <glyph glyph-name="Ucircumflex" unicode="&#xdb;" horiz-adv-x="1568" 
d="M913 1595l-127 293l-127 -293h-262l181 353h417l181 -353h-263zM1077 543v903h348v-934q0 -244 -177 -393q-177 -150 -464 -150q-290 0 -465 150q-176 149 -176 393v934h349v-903q0 -144 68.5 -208.5t223.5 -64.5q154 0 223.5 64.5t69.5 208.5z" />
    <glyph glyph-name="Udieresis" unicode="&#xdc;" horiz-adv-x="1568" 
d="M438 1630v289h297v-289h-297zM831 1630v289h297v-289h-297zM143 512v934h349v-903q0 -144 68.5 -208.5t223.5 -64.5q154 0 223.5 64.5t69.5 208.5v903h348v-934q0 -244 -177 -393q-177 -150 -464 -150q-290 0 -465 150q-176 149 -176 393z" />
    <glyph glyph-name="Yacute" unicode="&#xdd;" horiz-adv-x="1421" 
d="M700 1948h308l-181 -353h-231zM1071 1446h359l-545 -1045v-401h-348v401l-543 1045h377l243 -483l109 -258l106 258z" />
    <glyph glyph-name="Thorn" unicode="&#xde;" horiz-adv-x="1378" 
d="M510 1202h367q210 0 337 -130t127 -343t-133 -343t-352 -130h-346v-256h-348v1446h348v-244zM510 528h274q106 0 153.5 47.5t47.5 153.5q0 105 -47.5 153t-153.5 48h-274v-402z" />
    <glyph glyph-name="germandbls" unicode="&#xdf;" horiz-adv-x="1470" 
d="M1079 655q202 -41 294.5 -126t92.5 -222q0 -152 -124 -245t-330 -93q-203 0 -327 100q-124 99 -124 261h303q0 -78 35 -112t113 -34q131 0 131 92q0 51 -37 79q-36 27 -154 53q-338 72 -338 297q0 110 55 187.5t179 143.5q77 39 109 72.5t32 75.5q0 72 -58.5 105.5
t-187.5 33.5q-150 0 -218 -48t-68 -153v-1122h-326v1174q0 186 167 299q166 112 441 112q260 0 420 -106t160 -281q0 -101 -58.5 -177t-183.5 -142q-85 -45 -113 -71q-26 -24 -26 -58t31 -55.5t110 -39.5z" />
    <glyph glyph-name="agrave" unicode="&#xe0;" horiz-adv-x="1204" 
d="M608 1559l105 -353h-232l-180 353h307zM1174 227h2v-227q-74 -20 -162 -20q-246 0 -260 215q-49 -105 -145 -165.5t-228 -60.5q-139 0 -225 72t-86 190q0 226 307 281q307 57 366 80v33q0 115 -37.5 166t-123.5 51t-124 -50.5t-38 -164.5h-314q0 209 134 335
q134 125 350 125q215 0 340 -116q125 -117 125 -318v-301q0 -82 21 -103q19 -22 98 -22zM518 190q103 0 164 58t61 166v37q-61 -20 -213 -56q-83 -19 -110 -43t-27 -71q0 -91 125 -91z" />
    <glyph glyph-name="aacute" unicode="&#xe1;" horiz-adv-x="1204" 
d="M569 1559h308l-181 -353h-231zM1174 227h2v-227q-74 -20 -162 -20q-246 0 -260 215q-49 -105 -145 -165.5t-228 -60.5q-139 0 -225 72t-86 190q0 226 307 281q307 57 366 80v33q0 115 -37.5 166t-123.5 51t-124 -50.5t-38 -164.5h-314q0 209 134 335q134 125 350 125
q215 0 340 -116q125 -117 125 -318v-301q0 -82 21 -103q19 -22 98 -22zM518 190q103 0 164 58t61 166v37q-61 -20 -213 -56q-83 -19 -110 -43t-27 -71q0 -91 125 -91z" />
    <glyph glyph-name="acircumflex" unicode="&#xe2;" horiz-adv-x="1204" 
d="M721 1206l-127 293l-127 -293h-262l180 353h418l180 -353h-262zM1174 227h2v-227q-74 -20 -162 -20q-246 0 -260 215q-49 -105 -145 -165.5t-228 -60.5q-139 0 -225 72t-86 190q0 226 307 281q307 57 366 80v33q0 115 -37.5 166t-123.5 51t-124 -50.5t-38 -164.5h-314
q0 209 134 335q134 125 350 125q215 0 340 -116q125 -117 125 -318v-301q0 -82 21 -103q19 -22 98 -22zM518 190q103 0 164 58t61 166v37q-61 -20 -213 -56q-83 -19 -110 -43t-27 -71q0 -91 125 -91z" />
    <glyph glyph-name="atilde" unicode="&#xe3;" horiz-adv-x="1204" 
d="M453 1321q-86 0 -86 -86h-160q0 309 233 309q63 0 152 -45q88 -45 137 -45q86 0 86 86h160q0 -309 -234 -309q-63 0 -151 45t-137 45zM1174 227h2v-227q-74 -20 -162 -20q-246 0 -260 215q-49 -105 -145 -165.5t-228 -60.5q-139 0 -225 72t-86 190q0 226 307 281
q307 57 366 80v33q0 115 -37.5 166t-123.5 51t-124 -50.5t-38 -164.5h-314q0 209 134 335q134 125 350 125q215 0 340 -116q125 -117 125 -318v-301q0 -82 21 -103q19 -22 98 -22zM518 190q103 0 164 58t61 166v37q-61 -20 -213 -56q-83 -19 -110 -43t-27 -71q0 -91 125 -91
z" />
    <glyph glyph-name="adieresis" unicode="&#xe4;" horiz-adv-x="1204" 
d="M246 1530h297v-289h-297v289zM639 1530h297v-289h-297v289zM1174 227h2v-227q-74 -20 -162 -20q-246 0 -260 215q-49 -105 -145 -165.5t-228 -60.5q-139 0 -225 72t-86 190q0 226 307 281q307 57 366 80v33q0 115 -37.5 166t-123.5 51t-124 -50.5t-38 -164.5h-314
q0 209 134 335q134 125 350 125q215 0 340 -116q125 -117 125 -318v-301q0 -82 21 -103q19 -22 98 -22zM518 190q103 0 164 58t61 166v37q-61 -20 -213 -56q-83 -19 -110 -43t-27 -71q0 -91 125 -91z" />
    <glyph glyph-name="aring" unicode="&#xe5;" horiz-adv-x="1204" 
d="M745 1249q-59 -51 -153 -51t-152 51q-59 51 -59 133q0 81 59 134q59 51 152 51q94 0 153 -51q58 -52 58 -134t-58 -133zM668 1383q0 65 -76 65t-76 -65q0 -66 76 -66t76 66zM1174 227h2v-227q-74 -20 -162 -20q-246 0 -260 215q-49 -105 -145 -165.5t-228 -60.5
q-139 0 -225 72t-86 190q0 226 307 281q307 57 366 80v33q0 115 -37.5 166t-123.5 51t-124 -50.5t-38 -164.5h-314q0 209 134 335q134 125 350 125q215 0 340 -116q125 -117 125 -318v-301q0 -82 21 -103q19 -22 98 -22zM518 190q103 0 164 58t61 166v37q-61 -20 -213 -56
q-83 -19 -110 -43t-27 -71q0 -91 125 -91z" />
    <glyph glyph-name="ae" unicode="&#xe6;" horiz-adv-x="1914" 
d="M1835 592v-137h-750q12 -126 67 -184t163 -58q199 0 198 135l316 2q0 -172 -144 -276q-145 -105 -380 -105q-162 0 -285 70t-189 199q-41 -119 -150 -194t-267 -75t-251 72t-93 190q0 225 315 281q306 56 367 80v33q0 113 -39 165t-123 52q-86 0 -124 -50.5t-38 -164.5
h-313q0 207 133 334q134 126 350 126q215 0 334 -137q143 137 373 137q239 0 384 -136q146 -137 146 -359zM1090 627l206 4h215q-8 111 -58 162t-148 51q-97 0 -149 -52t-66 -165zM526 190q103 0 164.5 58t61.5 166v37q-61 -20 -213 -56q-87 -19 -117 -43q-29 -24 -29 -71
q0 -91 133 -91z" />
    <glyph glyph-name="ccedilla" unicode="&#xe7;" horiz-adv-x="1222" 
d="M834 399h315q0 -176 -115 -290q-115 -115 -313 -136l-27 -77h31q80 0 128 -45.5t48 -118.5q0 -80 -54 -129t-142 -49h-224v139h158q53 0 53 41t-53 41h-139v114l35 88q-210 33 -332 181q-123 147 -123 370q0 251 155 406q155 153 408 153q227 0 366 -124
q138 -125 138 -328h-316q0 106 -44.5 154.5t-143.5 48.5q-120 0 -173.5 -73.5t-53.5 -235.5q0 -163 53.5 -236.5t173.5 -73.5q100 0 145.5 43t45.5 137z" />
    <glyph glyph-name="egrave" unicode="&#xe8;" horiz-adv-x="1247" 
d="M653 1559l105 -353h-232l-180 353h307zM1167 592v-137h-749q12 -126 67.5 -184t161.5 -58q199 0 199 137h315q0 -172 -144 -276q-145 -105 -380 -105q-250 0 -403 154q-154 153 -154 405t154 406q153 153 403 153q239 0 384 -136q146 -137 146 -359zM422 627l207 4h215
q-8 111 -58 162t-149 51q-97 0 -149 -52t-66 -165z" />
    <glyph glyph-name="eacute" unicode="&#xe9;" horiz-adv-x="1247" 
d="M614 1559h308l-181 -353h-231zM1167 592v-137h-749q12 -126 67.5 -184t161.5 -58q199 0 199 137h315q0 -172 -144 -276q-145 -105 -380 -105q-250 0 -403 154q-154 153 -154 405t154 406q153 153 403 153q239 0 384 -136q146 -137 146 -359zM422 627l207 4h215
q-8 111 -58 162t-149 51q-97 0 -149 -52t-66 -165z" />
    <glyph glyph-name="ecircumflex" unicode="&#xea;" horiz-adv-x="1247" 
d="M766 1206l-127 293l-127 -293h-262l180 353h418l180 -353h-262zM1167 592v-137h-749q12 -126 67.5 -184t161.5 -58q199 0 199 137h315q0 -172 -144 -276q-145 -105 -380 -105q-250 0 -403 154q-154 153 -154 405t154 406q153 153 403 153q239 0 384 -136
q146 -137 146 -359zM422 627l207 4h215q-8 111 -58 162t-149 51q-97 0 -149 -52t-66 -165z" />
    <glyph glyph-name="edieresis" unicode="&#xeb;" horiz-adv-x="1247" 
d="M291 1530h297v-289h-297v289zM684 1530h297v-289h-297v289zM1167 592v-137h-749q12 -126 67.5 -184t161.5 -58q199 0 199 137h315q0 -172 -144 -276q-145 -105 -380 -105q-250 0 -403 154q-154 153 -154 405t154 406q153 153 403 153q239 0 384 -136q146 -137 146 -359z
M422 627l207 4h215q-8 111 -58 162t-149 51q-97 0 -149 -52t-66 -165z" />
    <glyph glyph-name="igrave" unicode="&#xec;" horiz-adv-x="577" 
d="M4 1559h307l105 -353h-232zM131 0v1057h326v-1057h-326z" />
    <glyph glyph-name="iacute" unicode="&#xed;" horiz-adv-x="577" 
d="M166 1206l104 353h308l-181 -353h-231zM131 0v1057h326v-1057h-326z" />
    <glyph glyph-name="icircumflex" unicode="&#xee;" horiz-adv-x="577" 
d="M422 1206l-127 293l-127 -293h-262l180 353h418l180 -353h-262zM457 0h-326v1057h326v-1057z" />
    <glyph glyph-name="idieresis" unicode="&#xef;" horiz-adv-x="577" 
d="M-53 1241v289h297v-289h-297zM340 1241v289h297v-289h-297zM131 0v1057h326v-1057h-326z" />
    <glyph glyph-name="eth" unicode="&#xf0;" horiz-adv-x="1261" 
d="M999 1571l-151 -156q171 -103 265 -281q93 -178 93 -405q0 -342 -158 -551q-159 -209 -421 -209q-246 0 -396 151q-151 150 -151 394q0 222 124 358t326 136q130 0 227 -62.5t140 -171.5v17q0 180 -48 268t-175 127l-96 -101h-261l140 142l-275 35v327l369 -63
q71 -13 119 -29l69 74h260zM637 225q117 0 170 70t53 221q0 145 -51.5 212t-165.5 67q-119 0 -173 -68t-54 -213q0 -150 53 -219.5t168 -69.5z" />
    <glyph glyph-name="ntilde" unicode="&#xf1;" horiz-adv-x="1320" 
d="M545 1321q-86 0 -86 -86h-160q0 309 233 309q64 0 152 -45t137 -45q86 0 86 86h160q0 -309 -233 -309q-62 0 -151 45t-138 45zM834 1087q172 0 268 -98t96 -274v-715h-326v592q0 121 -42 172t-142 51q-231 0 -231 -242v-573h-326v1057h313v-244q53 132 154 203t236 71z
" />
    <glyph glyph-name="ograve" unicode="&#xf2;" horiz-adv-x="1290" 
d="M356 1559h308l104 -353h-231zM1055 123q-155 -154 -410 -154t-409 154q-156 153 -156 405t156 406q154 153 409 153q254 0 410 -153q155 -155 155 -406q0 -252 -155 -405zM471 293q56 -74 174 -74t174 74q55 73 55 236q0 162 -55 235q-56 74 -174 74t-174 -74
q-55 -73 -55 -235q0 -163 55 -236z" />
    <glyph glyph-name="oacute" unicode="&#xf3;" horiz-adv-x="1290" 
d="M518 1206l105 353h307l-180 -353h-232zM1055 123q-155 -154 -410 -154t-409 154q-156 153 -156 405t156 406q154 153 409 153q254 0 410 -153q155 -155 155 -406q0 -252 -155 -405zM471 293q56 -74 174 -74t174 74q55 73 55 236q0 162 -55 235q-56 74 -174 74t-174 -74
q-55 -73 -55 -235q0 -163 55 -236z" />
    <glyph glyph-name="ocircumflex" unicode="&#xf4;" horiz-adv-x="1290" 
d="M774 1206l-127 293l-127 -293h-262l180 353h418l180 -353h-262zM236 934q154 153 409 153q254 0 410 -153q155 -155 155 -406q0 -252 -155 -405q-155 -154 -410 -154t-409 154q-156 153 -156 405t156 406zM471 293q56 -74 174 -74t174 74q55 73 55 236q0 162 -55 235
q-56 74 -174 74t-174 -74q-55 -73 -55 -235q0 -163 55 -236z" />
    <glyph glyph-name="otilde" unicode="&#xf5;" horiz-adv-x="1290" 
d="M795 1231q-63 0 -151 45t-138 45q-86 0 -86 -86h-160q0 309 234 309q62 0 151 -45t137 -45q86 0 86 86h160q0 -309 -233 -309zM1055 123q-155 -154 -410 -154t-409 154q-156 153 -156 405t156 406q154 153 409 153q254 0 410 -153q155 -155 155 -406q0 -252 -155 -405z
M471 293q56 -74 174 -74t174 74q55 73 55 236q0 162 -55 235q-56 74 -174 74t-174 -74q-55 -73 -55 -235q0 -163 55 -236z" />
    <glyph glyph-name="odieresis" unicode="&#xf6;" horiz-adv-x="1290" 
d="M299 1241v289h297v-289h-297zM692 1241v289h297v-289h-297zM1055 123q-155 -154 -410 -154t-409 154q-156 153 -156 405t156 406q154 153 409 153q254 0 410 -153q155 -155 155 -406q0 -252 -155 -405zM471 293q56 -74 174 -74t174 74q55 73 55 236q0 162 -55 235
q-56 74 -174 74t-174 -74q-55 -73 -55 -235q0 -163 55 -236z" />
    <glyph glyph-name="divide" unicode="&#xf7;" horiz-adv-x="1050" 
d="M391 774v262h271v-262h-271zM84 653h883v-221h-883v221zM391 37v262h271v-262h-271z" />
    <glyph glyph-name="oslash" unicode="&#xf8;" horiz-adv-x="1290" 
d="M983 1188h270l-186 -264q145 -151 145 -396q0 -252 -155 -405q-155 -154 -410 -154q-123 0 -229 39l-109 -151h-270l192 272q-150 150 -149 399q0 252 156 406q154 153 409 153q131 0 236 -40zM418 528q0 -69 10 -122l299 421q-34 9 -80 11q-120 0 -174.5 -74t-54.5 -236
zM877 528q0 70 -9 117l-297 -418q34 -8 76 -8q120 0 175 73.5t55 235.5z" />
    <glyph glyph-name="ugrave" unicode="&#xf9;" horiz-adv-x="1312" 
d="M674 1559l104 -353h-231l-180 353h307zM860 475v582h324v-1057h-312v225q-54 -122 -153.5 -189t-233.5 -67q-168 0 -261 98.5t-93 274.5v715h326v-592q0 -121 41.5 -172t140.5 -51q107 0 164 59.5t57 173.5z" />
    <glyph glyph-name="uacute" unicode="&#xfa;" horiz-adv-x="1312" 
d="M633 1559h307l-180 -353h-232zM860 475v582h324v-1057h-312v225q-54 -122 -153.5 -189t-233.5 -67q-168 0 -261 98.5t-93 274.5v715h326v-592q0 -121 41.5 -172t140.5 -51q107 0 164 59.5t57 173.5z" />
    <glyph glyph-name="ucircumflex" unicode="&#xfb;" horiz-adv-x="1312" 
d="M784 1206l-127 293l-127 -293h-262l181 353h417l181 -353h-263zM860 475v582h324v-1057h-312v225q-54 -122 -153.5 -189t-233.5 -67q-168 0 -261 98.5t-93 274.5v715h326v-592q0 -121 41.5 -172t140.5 -51q107 0 164 59.5t57 173.5z" />
    <glyph glyph-name="udieresis" unicode="&#xfc;" horiz-adv-x="1312" 
d="M309 1530h297v-289h-297v289zM702 1530h297v-289h-297v289zM860 475v582h324v-1057h-312v225q-54 -122 -153.5 -189t-233.5 -67q-168 0 -261 98.5t-93 274.5v715h326v-592q0 -121 41.5 -172t140.5 -51q107 0 164 59.5t57 173.5z" />
    <glyph glyph-name="yacute" unicode="&#xfd;" horiz-adv-x="1208" 
d="M569 1559h308l-181 -353h-231zM668 389l194 668h330l-348 -1184q-39 -131 -149 -208q-112 -77 -263 -77q-135 0 -258 21v235h199q143 0 170 95l18 61h-235l-312 1057h340l193 -668l59 -264z" />
    <glyph glyph-name="thorn" unicode="&#xfe;" horiz-adv-x="1331" 
d="M807 1087q201 0 323 -153q121 -154 121 -406q0 -253 -121 -405q-121 -154 -323 -154q-117 0 -208 59.5t-142 168.5v-631h-326v1993h311v-762q47 139 142.5 214.5t222.5 75.5zM511 293q54 -74 175 -74t175 74t54 235q0 164 -54 237t-175 73t-175 -73t-54 -237
q0 -161 54 -235z" />
    <glyph glyph-name="ydieresis" unicode="&#xff;" horiz-adv-x="1208" 
d="M246 1530h297v-289h-297v289zM639 1530h297v-289h-297v289zM668 389l194 668h330l-348 -1184q-39 -131 -149 -208q-112 -77 -263 -77q-135 0 -258 21v235h199q143 0 170 95l18 61h-235l-312 1057h340l193 -668l59 -264z" />
    <glyph glyph-name="Amacron" unicode="&#x100;" horiz-adv-x="1564" 
d="M494 1901h583v-248h-583v248zM1542 0h-362l-111 356h-584l-110 -356h-352l452 1446h615zM692 1020l-123 -395h416l-123 395l-86 313z" />
    <glyph glyph-name="amacron" unicode="&#x101;" horiz-adv-x="1204" 
d="M299 1511h584v-247h-584v247zM1174 227h2v-227q-74 -20 -162 -20q-246 0 -260 215q-49 -105 -145 -165.5t-228 -60.5q-139 0 -225 72t-86 190q0 226 307 281q307 57 366 80v33q0 115 -37.5 166t-123.5 51t-124 -50.5t-38 -164.5h-314q0 209 134 335q134 125 350 125
q215 0 340 -116q125 -117 125 -318v-301q0 -82 21 -103q19 -22 98 -22zM518 190q103 0 164 58t61 166v37q-61 -20 -213 -56q-83 -19 -110 -43t-27 -71q0 -91 125 -91z" />
    <glyph glyph-name="Abreve" unicode="&#x102;" horiz-adv-x="1564" 
d="M1024 1680q-88 -93 -237 -93t-238 93q-88 91 -88 268h213q0 -88 26.5 -127t86.5 -39q59 0 85.5 39t26.5 127h213q0 -177 -88 -268zM1542 0h-362l-111 356h-584l-110 -356h-352l452 1446h615zM692 1020l-123 -395h416l-123 395l-86 313z" />
    <glyph glyph-name="abreve" unicode="&#x103;" horiz-adv-x="1204" 
d="M830 1291q-88 -93 -238 -93q-149 0 -238 92q-88 91 -88 269h213q0 -88 26.5 -127t86.5 -39t86.5 38.5t26.5 127.5h213q0 -177 -88 -268zM1174 227h2v-227q-74 -20 -162 -20q-246 0 -260 215q-49 -105 -145 -165.5t-228 -60.5q-139 0 -225 72t-86 190q0 226 307 281
q307 57 366 80v33q0 115 -37.5 166t-123.5 51t-124 -50.5t-38 -164.5h-314q0 209 134 335q134 125 350 125q215 0 340 -116q125 -117 125 -318v-301q0 -82 21 -103q19 -22 98 -22zM518 190q103 0 164 58t61 166v37q-61 -20 -213 -56q-83 -19 -110 -43t-27 -71q0 -91 125 -91
z" />
    <glyph glyph-name="Aogonek" unicode="&#x104;" horiz-adv-x="1564" 
d="M1241 -217q0 -43 57 -43h111v-186h-262q-79 0 -122.5 38t-43.5 101q0 79 61 149l136 158h2l-111 356h-584l-110 -356h-352l452 1446h615l452 -1446h-153l-117 -152q-31 -35 -31 -65zM692 1020l-123 -395h416l-123 395l-86 313z" />
    <glyph glyph-name="aogonek" unicode="&#x105;" horiz-adv-x="1204" 
d="M1114 -12l-106 -140q-31 -37 -31 -65q0 -43 57 -43h111v-186h-262q-79 0 -122.5 38t-43.5 101q0 79 61 149l127 150q-144 38 -151 203q-49 -105 -145 -165.5t-228 -60.5q-139 0 -225 72t-86 190q0 226 307 281q307 57 366 80v33q0 115 -37.5 166t-123.5 51t-124 -50.5
t-38 -164.5h-314q0 209 134 335q134 125 350 125q215 0 340 -116q125 -117 125 -318v-301q0 -82 21 -103q19 -22 98 -22h2v-227q-20 -6 -62 -12zM518 190q103 0 164 58t61 166v37q-61 -20 -213 -56q-83 -19 -110 -43t-27 -71q0 -91 125 -91z" />
    <glyph glyph-name="Cacute" unicode="&#x106;" horiz-adv-x="1548" 
d="M676 1595l104 353h307l-180 -353h-231zM286 176q-200 208 -200 547t200 547q200 207 525 207q289 0 476 -157q186 -158 186 -417h-345q0 143 -75.5 208t-241.5 65q-195 0 -282 -107q-87 -108 -87 -346q0 -241 88 -348q88 -109 281 -109q168 0 242.5 59.5t74.5 192.5h345
q0 -251 -185 -400q-187 -149 -477 -149q-325 0 -525 207z" />
    <glyph glyph-name="cacute" unicode="&#x107;" horiz-adv-x="1222" 
d="M502 1206l104 353h307l-180 -353h-231zM834 399h315q0 -195 -138 -312q-139 -118 -368 -118q-254 0 -408 154q-155 153 -155 405q0 251 155 406q155 153 408 153q227 0 366 -124q138 -125 138 -328h-316q0 106 -44.5 154.5t-143.5 48.5q-120 0 -173.5 -73.5t-53.5 -235.5
q0 -163 53.5 -236.5t173.5 -73.5q100 0 145.5 43t45.5 137z" />
    <glyph glyph-name="Ccircumflex" unicode="&#x108;" horiz-adv-x="1548" 
d="M932 1595l-127 293l-127 -293h-262l180 353h418l180 -353h-262zM811 266q168 0 242.5 59.5t74.5 192.5h345q0 -251 -185 -400q-187 -149 -477 -149q-325 0 -525 207q-200 208 -200 547t200 547q200 207 525 207q289 0 476 -157q186 -158 186 -417h-345q0 143 -75.5 208
t-241.5 65q-195 0 -282 -107q-87 -108 -87 -346q0 -241 88 -348q88 -109 281 -109z" />
    <glyph glyph-name="ccircumflex" unicode="&#x109;" horiz-adv-x="1222" 
d="M758 1206l-127 293l-127 -293h-262l180 353h418l180 -353h-262zM834 399h315q0 -195 -138 -312q-139 -118 -368 -118q-254 0 -408 154q-155 153 -155 405q0 251 155 406q155 153 408 153q227 0 366 -124q138 -125 138 -328h-316q0 106 -44.5 154.5t-143.5 48.5
q-120 0 -173.5 -73.5t-53.5 -235.5q0 -163 53.5 -236.5t173.5 -73.5q100 0 145.5 43t45.5 137z" />
    <glyph glyph-name="Cdotaccent" unicode="&#x10a;" horiz-adv-x="1548" 
d="M629 1630v289h346v-289h-346zM286 176q-200 208 -200 547t200 547q200 207 525 207q289 0 476 -157q186 -158 186 -417h-345q0 143 -75.5 208t-241.5 65q-195 0 -282 -107q-87 -108 -87 -346q0 -241 88 -348q88 -109 281 -109q168 0 242.5 59.5t74.5 192.5h345
q0 -251 -185 -400q-187 -149 -477 -149q-325 0 -525 207z" />
    <glyph glyph-name="cdotaccent" unicode="&#x10b;" horiz-adv-x="1222" 
d="M455 1241v289h346v-289h-346zM834 399h315q0 -195 -138 -312q-139 -118 -368 -118q-254 0 -408 154q-155 153 -155 405q0 251 155 406q155 153 408 153q227 0 366 -124q138 -125 138 -328h-316q0 106 -44.5 154.5t-143.5 48.5q-120 0 -173.5 -73.5t-53.5 -235.5
q0 -163 53.5 -236.5t173.5 -73.5q100 0 145.5 43t45.5 137z" />
    <glyph glyph-name="Ccaron" unicode="&#x10c;" horiz-adv-x="1548" 
d="M1012 1595h-420l-180 353h264l127 -291l125 291h264zM811 266q168 0 242.5 59.5t74.5 192.5h345q0 -251 -185 -400q-187 -149 -477 -149q-325 0 -525 207q-200 208 -200 547t200 547q200 207 525 207q289 0 476 -157q186 -158 186 -417h-345q0 143 -75.5 208t-241.5 65
q-195 0 -282 -107q-87 -108 -87 -346q0 -241 88 -348q88 -109 281 -109z" />
    <glyph glyph-name="ccaron" unicode="&#x10d;" horiz-adv-x="1222" 
d="M838 1206h-420l-180 353h264l127 -291l125 291h264zM834 399h315q0 -195 -138 -312q-139 -118 -368 -118q-254 0 -408 154q-155 153 -155 405q0 251 155 406q155 153 408 153q227 0 366 -124q138 -125 138 -328h-316q0 106 -44.5 154.5t-143.5 48.5q-120 0 -173.5 -73.5
t-53.5 -235.5q0 -163 53.5 -236.5t173.5 -73.5q100 0 145.5 43t45.5 137z" />
    <glyph glyph-name="Dcaron" unicode="&#x10e;" horiz-adv-x="1599" 
d="M1008 1595h-420l-180 353h264l127 -291l125 291h264zM162 1446h624q328 0 528 -198q199 -199 199 -525t-199 -524q-199 -199 -528 -199h-624v1446zM510 285h262q385 0 385 438q0 432 -385 432h-262v-870z" />
    <glyph glyph-name="dcaron" unicode="&#x10f;" horiz-adv-x="1323" 
d="M874 860v699h326v-1559h-311v258q-47 -137 -143.5 -213t-223.5 -76q-199 0 -320 154q-122 154 -122 405t122 406q122 153 320 153q117 0 209 -59t143 -168zM1317 1386v173h303v-213q0 -121 -91 -193t-243 -72v129q90 0 130 29t40 94zM470 292q54 -73 175 -73t175 73
t54 236q0 162 -54.5 236t-174.5 74t-174.5 -74t-54.5 -236q0 -164 54 -236z" />
    <glyph glyph-name="Dcroat" unicode="&#x110;" horiz-adv-x="1605" 
d="M168 1446h625q329 0 528 -198q199 -199 199 -525t-200 -524q-199 -199 -527 -199h-625v604h-170v242h170v600zM516 285h262q385 0 385 438q0 432 -385 432h-262v-309h287v-242h-287v-319z" />
    <glyph glyph-name="dslash" unicode="&#x111;" horiz-adv-x="1320" 
d="M1200 1427h170v-221h-170v-1206h-311v258q-47 -137 -143.5 -213t-223.5 -76q-199 0 -320 154q-122 154 -122 405t122 406q122 153 320 153q117 0 209 -59t143 -168v346h-368v221h368v132h326v-132zM470 292q54 -73 175 -73t175 73t54 236q0 162 -54.5 236t-174.5 74
t-174.5 -74t-54.5 -236q0 -164 54 -236z" />
    <glyph glyph-name="Emacron" unicode="&#x112;" horiz-adv-x="1339" 
d="M397 1901h584v-248h-584v248zM510 596v-305h715v-291h-1063v1446h1055v-291h-707v-293h672v-266h-672z" />
    <glyph glyph-name="emacron" unicode="&#x113;" horiz-adv-x="1247" 
d="M344 1511h584v-247h-584v247zM1167 592v-137h-749q12 -126 67.5 -184t161.5 -58q199 0 199 137h315q0 -172 -144 -276q-145 -105 -380 -105q-250 0 -403 154q-154 153 -154 405t154 406q153 153 403 153q239 0 384 -136q146 -137 146 -359zM422 627l207 4h215
q-8 111 -58 162t-149 51q-97 0 -149 -52t-66 -165z" />
    <glyph glyph-name="Ebreve" unicode="&#x114;" horiz-adv-x="1339" 
d="M928 1680q-88 -93 -237 -93t-238 93q-88 91 -88 268h213q0 -88 26.5 -127t86.5 -39q59 0 85.5 39t26.5 127h213q0 -177 -88 -268zM510 596v-305h715v-291h-1063v1446h1055v-291h-707v-293h672v-266h-672z" />
    <glyph glyph-name="ebreve" unicode="&#x115;" horiz-adv-x="1247" 
d="M875 1291q-88 -93 -238 -93q-149 0 -238 92q-88 91 -88 269h213q0 -88 27 -127t86 -39q60 0 86.5 38.5t26.5 127.5h213q0 -177 -88 -268zM1167 592v-137h-749q12 -126 67.5 -184t161.5 -58q199 0 199 137h315q0 -172 -144 -276q-145 -105 -380 -105q-250 0 -403 154
q-154 153 -154 405t154 406q153 153 403 153q239 0 384 -136q146 -137 146 -359zM422 627l207 4h215q-8 111 -58 162t-149 51q-97 0 -149 -52t-66 -165z" />
    <glyph glyph-name="Edotaccent" unicode="&#x116;" horiz-adv-x="1339" 
d="M516 1919h346v-289h-346v289zM510 596v-305h715v-291h-1063v1446h1055v-291h-707v-293h672v-266h-672z" />
    <glyph glyph-name="edotaccent" unicode="&#x117;" horiz-adv-x="1247" 
d="M463 1530h346v-289h-346v289zM1167 592v-137h-749q12 -126 67.5 -184t161.5 -58q199 0 199 137h315q0 -172 -144 -276q-145 -105 -380 -105q-250 0 -403 154q-154 153 -154 405t154 406q153 153 403 153q239 0 384 -136q146 -137 146 -359zM422 627l207 4h215
q-8 111 -58 162t-149 51q-97 0 -149 -52t-66 -165z" />
    <glyph glyph-name="Eogonek" unicode="&#x118;" horiz-adv-x="1339" 
d="M1116 -260h111v-186h-262q-79 0 -122.5 38t-43.5 101q0 79 61 149l135 158h-833v1446h1055v-291h-707v-293h672v-266h-672v-305h715v-291h-19l-116 -152q-31 -37 -31 -65q0 -43 57 -43z" />
    <glyph glyph-name="eogonek" unicode="&#x119;" horiz-adv-x="1247" 
d="M1167 592v-137h-749q12 -126 67.5 -184t161.5 -58q199 0 199 137h315q0 -126 -80.5 -218.5t-224.5 -133.5l-115 -150q-31 -37 -30 -65q0 -43 57 -43h111v-186h-263q-79 0 -122 37.5t-43 101.5q0 79 61 149l109 127q-244 6 -392 160q-149 155 -149 399q0 252 154 406
q153 153 403 153q239 0 384 -136q146 -137 146 -359zM422 627l207 4h215q-8 111 -58 162t-149 51q-97 0 -149 -52t-66 -165z" />
    <glyph glyph-name="Ecaron" unicode="&#x11a;" horiz-adv-x="1339" 
d="M899 1595h-420l-180 353h264l127 -291l125 291h264zM510 596v-305h715v-291h-1063v1446h1055v-291h-707v-293h672v-266h-672z" />
    <glyph glyph-name="ecaron" unicode="&#x11b;" horiz-adv-x="1247" 
d="M846 1206h-420l-180 353h264l127 -291l125 291h264zM1167 592v-137h-749q12 -126 67.5 -184t161.5 -58q199 0 199 137h315q0 -172 -144 -276q-145 -105 -380 -105q-250 0 -403 154q-154 153 -154 405t154 406q153 153 403 153q239 0 384 -136q146 -137 146 -359zM422 627
l207 4h215q-8 111 -58 162t-149 51q-97 0 -149 -52t-66 -165z" />
    <glyph glyph-name="Gcircumflex" unicode="&#x11c;" horiz-adv-x="1638" 
d="M956 1595l-127 293l-127 -293h-262l181 353h417l181 -353h-263zM754 551v237h753v-788h-303v356q-86 -387 -473 -387q-291 0 -468 202q-177 203 -177 540q0 348 203 557t534 209q303 0 490 -154q186 -155 186 -403h-344q0 133 -79 194.5t-253 61.5q-201 0 -291 -107
q-90 -108 -90 -346q0 -243 91 -350q90 -109 290 -109q176 0 256 67.5t84 219.5h-409z" />
    <glyph glyph-name="gcircumflex" unicode="&#x11d;" horiz-adv-x="1191" 
d="M1196 1264v-244q-187 0 -215 -55q111 -94 111 -248q0 -164 -137 -268q-138 -105 -369 -105q-136 0 -238 37q-14 -23 -14 -55q0 -45 30.5 -63.5t104.5 -18.5h358q166 0 268 -81q101 -81 101 -214q0 -164 -157 -263q-158 -98 -427 -98q-266 0 -419 73q-156 73 -156 196
q0 61 43 104t119 59q-113 68 -113 181q0 143 160 227q-166 103 -166 289q0 169 136 269q137 101 370 101q152 0 268 -45q17 112 90 164h-229l-127 293l-127 -293h-262l180 353h418l172 -338q79 43 227 43zM586 565q94 0 136 36t42 116q0 78 -42 113.5t-136 35.5
q-98 0 -138 -34t-40 -115q0 -82 40 -117t138 -35zM764 -16h-430q-10 -30 -10 -68q0 -78 57 -104q56 -25 231 -25q171 0 227 22q56 23 56 91q0 47 -28.5 65.5t-102.5 18.5z" />
    <glyph glyph-name="Gbreve" unicode="&#x11e;" horiz-adv-x="1638" 
d="M1065 1680q-89 -93 -237 -93q-150 0 -238 93q-88 91 -88 268h213q0 -88 26.5 -127t86.5 -39q59 0 85.5 39t26.5 127h213q0 -177 -88 -268zM754 551v237h753v-788h-303v356q-86 -387 -473 -387q-291 0 -468 202q-177 203 -177 540q0 348 203 557t534 209q303 0 490 -154
q186 -155 186 -403h-344q0 133 -79 194.5t-253 61.5q-201 0 -291 -107q-90 -108 -90 -346q0 -243 91 -350q90 -109 290 -109q176 0 256 67.5t84 219.5h-409z" />
    <glyph glyph-name="gbreve" unicode="&#x11f;" horiz-adv-x="1191" 
d="M823 1291q-89 -93 -237 -93q-149 0 -238 92q-88 91 -88 269h213q0 -88 26.5 -127t86.5 -39t86 38.5t26 127.5h213q0 -177 -88 -268zM1196 1264v-244q-187 0 -215 -55q111 -94 111 -248q0 -164 -137 -268q-138 -105 -369 -105q-136 0 -238 37q-14 -23 -14 -55
q0 -45 30.5 -63.5t104.5 -18.5h358q166 0 268 -81q101 -81 101 -214q0 -164 -157 -263q-158 -98 -427 -98q-266 0 -419 73q-156 73 -156 196q0 61 43 104t119 59q-113 68 -113 181q0 143 160 227q-166 103 -166 289q0 169 136 269q137 101 370 101q152 0 268 -45
q16 115 96 168.5t246 53.5zM586 565q94 0 136 36t42 116q0 78 -42 113.5t-136 35.5q-98 0 -138 -34t-40 -115q0 -82 40 -117t138 -35zM764 -16h-430q-10 -30 -10 -68q0 -78 57 -104q56 -25 231 -25q171 0 227 22q56 23 56 91q0 47 -28.5 65.5t-102.5 18.5z" />
    <glyph glyph-name="Gdotaccent" unicode="&#x120;" horiz-adv-x="1638" 
d="M655 1919h346v-289h-346v289zM754 551v237h753v-788h-303v356q-86 -387 -473 -387q-291 0 -468 202q-177 203 -177 540q0 348 203 557t534 209q303 0 490 -154q186 -155 186 -403h-344q0 133 -79 194.5t-253 61.5q-201 0 -291 -107q-90 -108 -90 -346q0 -243 91 -350
q90 -109 290 -109q176 0 256 67.5t84 219.5h-409z" />
    <glyph glyph-name="gdotaccent" unicode="&#x121;" horiz-adv-x="1191" 
d="M412 1530h346v-289h-346v289zM1196 1264v-244q-187 0 -215 -55q111 -94 111 -248q0 -164 -137 -268q-138 -105 -369 -105q-136 0 -238 37q-14 -23 -14 -55q0 -45 30.5 -63.5t104.5 -18.5h358q166 0 268 -81q101 -81 101 -214q0 -164 -157 -263q-158 -98 -427 -98
q-266 0 -419 73q-156 73 -156 196q0 61 43 104t119 59q-113 68 -113 181q0 143 160 227q-166 103 -166 289q0 169 136 269q137 101 370 101q152 0 268 -45q16 115 96 168.5t246 53.5zM586 565q94 0 136 36t42 116q0 78 -42 113.5t-136 35.5q-98 0 -138 -34t-40 -115
q0 -82 40 -117t138 -35zM764 -16h-430q-10 -30 -10 -68q0 -78 57 -104q56 -25 231 -25q171 0 227 22q56 23 56 91q0 47 -28.5 65.5t-102.5 18.5z" />
    <glyph glyph-name="uni0122" unicode="&#x122;" horiz-adv-x="1638" 
d="M754 551v237h753v-788h-303v356q-86 -387 -473 -387q-291 0 -468 202q-177 203 -177 540q0 348 203 557t534 209q303 0 490 -154q186 -155 186 -403h-344q0 133 -79 194.5t-253 61.5q-201 0 -291 -107q-90 -108 -90 -346q0 -243 91 -350q90 -109 290 -109q176 0 256 67.5
t84 219.5h-409zM811 -369l-139 56v172h303v-213q0 -121 -91 -193q-92 -71 -243 -71v129q90 0 130 28.5t40 91.5z" />
    <glyph glyph-name="uni0123" unicode="&#x123;" horiz-adv-x="1191" 
d="M584 1434l151 -56v-172h-315v213q0 120 94 190t252 70v-129q-96 0 -139 -27.5t-43 -88.5zM1196 1264v-244q-187 0 -215 -55q111 -94 111 -248q0 -164 -137 -268q-138 -105 -369 -105q-136 0 -238 37q-14 -23 -14 -55q0 -45 30.5 -63.5t104.5 -18.5h358q166 0 268 -81
q101 -81 101 -214q0 -164 -157 -263q-158 -98 -427 -98q-266 0 -419 73q-156 73 -156 196q0 61 43 104t119 59q-113 68 -113 181q0 143 160 227q-166 103 -166 289q0 169 136 269q137 101 370 101q152 0 268 -45q16 115 96 168.5t246 53.5zM586 565q94 0 136 36t42 116
q0 78 -42 113.5t-136 35.5q-98 0 -138 -34t-40 -115q0 -82 40 -117t138 -35zM764 -16h-430q-10 -30 -10 -68q0 -78 57 -104q56 -25 231 -25q171 0 227 22q56 23 56 91q0 47 -28.5 65.5t-102.5 18.5z" />
    <glyph glyph-name="Hcircumflex" unicode="&#x124;" horiz-adv-x="1656" 
d="M952 1595l-127 293l-127 -293h-262l180 353h418l180 -353h-262zM1147 874v572h348v-1446h-348v584h-637v-584h-348v1446h348v-572h637z" />
    <glyph glyph-name="hcircumflex" unicode="&#x125;" horiz-adv-x="1320" 
d="M578 1720l-127 293l-127 -293h-263l181 353h417l181 -353h-262zM834 1087q172 0 268 -98t96 -274v-715h-326v592q0 121 -42 172t-142 51q-231 0 -231 -242v-573h-326v1559h326v-723q53 121 150.5 186t226.5 65z" />
    <glyph glyph-name="Hbar" unicode="&#x126;" horiz-adv-x="1730" 
d="M1532 1290h168v-239h-168v-1051h-348v584h-637v-584h-348v1051h-168v239h168v156h348v-156h637v156h348v-156zM547 874h637v177h-637v-177z" />
    <glyph glyph-name="hbar" unicode="&#x127;" horiz-adv-x="1320" 
d="M834 1087q172 0 268 -98t96 -274v-715h-326v592q0 121 -42 172t-142 51q-231 0 -231 -242v-573h-326v1204h-174v221h174v134h326v-134h364v-221h-364v-368q53 121 150.5 186t226.5 65z" />
    <glyph glyph-name="Itilde" unicode="&#x128;" horiz-adv-x="671" 
d="M485 1620q-62 0 -151 45t-137 45q-86 0 -86 -86h-160q0 309 233 309q64 0 152 -45q89 -45 137 -45q86 0 86 86h160q-1 -309 -234 -309zM162 0v1446h348v-1446h-348z" />
    <glyph glyph-name="itilde" unicode="&#x129;" horiz-adv-x="577" 
d="M442 1231q-62 0 -151 45q-88 45 -137 45q-86 0 -86 -86h-160q0 309 233 309q64 0 152 -45q89 -45 137 -45q86 0 86 86h160q-2 -309 -234 -309zM131 0v1057h326v-1057h-326z" />
    <glyph glyph-name="Imacron" unicode="&#x12a;" horiz-adv-x="671" 
d="M45 1901h584v-248h-584v248zM162 0v1446h348v-1446h-348z" />
    <glyph glyph-name="imacron" unicode="&#x12b;" horiz-adv-x="577" 
d="M2 1511h584v-247h-584v247zM131 0v1057h326v-1057h-326z" />
    <glyph glyph-name="Ibreve" unicode="&#x12c;" horiz-adv-x="671" 
d="M449 1948h213q0 -177 -88 -268q-88 -93 -238 -93t-238 93q-88 91 -88 268h213q0 -88 26.5 -127t86.5 -39q59 0 86 39t27 127zM162 0v1446h348v-1446h-348z" />
    <glyph glyph-name="ibreve" unicode="&#x12d;" horiz-adv-x="577" 
d="M406 1559h212q0 -177 -88 -268q-88 -93 -237 -93q-152 0 -239 93.5t-87 267.5h213q0 -88 26.5 -127t86.5 -39t86.5 38.5t26.5 127.5zM131 0v1057h326v-1057h-326z" />
    <glyph glyph-name="Iogonek" unicode="&#x12e;" horiz-adv-x="671" 
d="M418 -260h110v-186h-262q-79 0 -122.5 38t-43.5 101q0 78 62 149l135 158h-135v1446h348v-1446h-2l-117 -152q-31 -37 -31 -65q1 -43 58 -43z" />
    <glyph glyph-name="iogonek" unicode="&#x12f;" horiz-adv-x="577" 
d="M121 1530h346v-289h-346v289zM365 -260h110v-186h-262q-79 0 -122.5 38t-43.5 101q0 78 62 149l135 158h-113v1057h326v-1057h-2l-117 -152q-31 -37 -31 -65q1 -43 58 -43z" />
    <glyph glyph-name="Idot" unicode="&#x130;" horiz-adv-x="671" 
d="M164 1630v289h346v-289h-346zM162 0v1446h348v-1446h-348z" />
    <glyph glyph-name="dotlessi" unicode="&#x131;" horiz-adv-x="577" 
d="M131 0v1057h326v-1057h-326z" />
    <glyph glyph-name="IJ" unicode="&#x132;" horiz-adv-x="1282" 
d="M141 264h486q86 0 125 42t39 136v1004h348v-1034q0 -199 -143 -321q-145 -122 -375 -122q-247 0 -480 51v244zM147 496v950h349v-950h-349z" />
    <glyph glyph-name="ij" unicode="&#x133;" horiz-adv-x="1167" 
d="M467 1241h-346v289h346v-289zM711 1241v289h346v-289h-346zM457 0h-326v1057h326v-1057zM721 -12v1069h326v-1100q0 -166 -108 -268q-109 -101 -284 -101q-83 0 -157 21v235h104q66 0 92.5 33t26.5 111z" />
    <glyph glyph-name="Jcircumflex" unicode="&#x134;" horiz-adv-x="1320" 
d="M1126 1595l-127 293l-127 -293h-262l181 353h417l181 -353h-263zM829 537v909h349v-950q0 -235 -158 -381t-414 -146q-254 0 -408 154q-155 153 -155 403h340q0 -136 52 -197t171 -61t171 63.5t52 205.5z" />
    <glyph glyph-name="jcircumflex" unicode="&#x135;" horiz-adv-x="579" 
d="M432 1206l-127 293l-127 -293h-262l180 353h418l180 -353h-262zM143 -12v1069h326v-1100q0 -166 -107 -268q-109 -101 -284 -101q-84 0 -158 21v235h105q65 0 91.5 32.5t26.5 111.5z" />
    <glyph glyph-name="uni0136" unicode="&#x136;" horiz-adv-x="1566" 
d="M1516 1446l-627 -709l680 -737h-455l-450 498l-154 192v-690h-348v1446h348v-684l154 194l434 490h418zM782 -369l-139 56v172h303v-213q0 -121 -91 -193q-92 -71 -243 -71v129q90 0 130 28.5t40 91.5z" />
    <glyph glyph-name="uni0137" unicode="&#x137;" horiz-adv-x="1284" 
d="M1241 1057l-442 -504l512 -553h-422l-328 365l-104 135v-500h-326v1559h326v-996l104 137l313 357h367zM639 -369l-139 56v172h303v-213q0 -121 -91 -193q-92 -71 -243 -71v129q90 0 130 28.5t40 91.5z" />
    <glyph glyph-name="kgreenlandic" unicode="&#x138;" horiz-adv-x="1284" 
d="M1241 1057l-442 -504l512 -553h-422l-328 365l-104 135v-500h-326v1057h326v-494l104 137l313 357h367z" />
    <glyph glyph-name="Lacute" unicode="&#x139;" horiz-adv-x="1232" 
d="M315 1948h308l-181 -353h-231zM510 1446v-1155h670v-291h-1018v1446h348z" />
    <glyph glyph-name="lacute" unicode="&#x13a;" horiz-adv-x="667" 
d="M270 2003h308l-181 -352h-231zM567 236h62v-236q-72 -20 -168 -20q-150 0 -240 93t-90 244v1242h326v-1199q0 -68 25 -96t85 -28z" />
    <glyph glyph-name="uni013B" unicode="&#x13b;" horiz-adv-x="1232" 
d="M510 1446v-1155h670v-291h-1018v1446h348zM670 -369l-140 56v172h304v-213q0 -121 -91 -193q-92 -71 -243 -71v129q90 0 130 28.5t40 91.5z" />
    <glyph glyph-name="uni013C" unicode="&#x13c;" horiz-adv-x="667" 
d="M567 236h62v-236q-72 -20 -168 -20q-150 0 -240 93t-90 244v1242h326v-1199q0 -68 25 -96t85 -28zM373 -369l-140 56v172h304v-213q0 -121 -91 -193q-92 -71 -243 -71v129q90 0 130 28.5t40 91.5z" />
    <glyph glyph-name="Lcaron" unicode="&#x13d;" horiz-adv-x="1232" 
d="M510 1446v-1155h670v-291h-1018v1446h348zM1012 1446v-213q0 -122 -91 -192q-91 -72 -243 -72v129q90 0 130 28.5t40 94.5l-139 53v172h303z" />
    <glyph glyph-name="lcaron" unicode="&#x13e;" horiz-adv-x="667" 
d="M457 1559v-1199q0 -68 25 -96t85 -28h62v-236q-72 -20 -168 -20q-150 0 -240 93t-90 244v1242h326zM592 1386v173h303v-213q0 -121 -91 -193q-92 -72 -243 -72v129q90 0 130 29t40 94z" />
    <glyph glyph-name="Ldot" unicode="&#x13f;" horiz-adv-x="1232" 
d="M510 1446v-1155h670v-291h-1018v1446h348zM709 973h340v-342h-340v342z" />
    <glyph glyph-name="ldot" unicode="&#x140;" horiz-adv-x="901" 
d="M457 1559v-1199q0 -68 25 -96t85 -28h62v-236q-72 -20 -168 -20q-150 0 -240 93t-90 244v1242h326zM571 602v322h322v-322h-322z" />
    <glyph glyph-name="Lslash" unicode="&#x141;" horiz-adv-x="1232" 
d="M510 602v-311h670v-291h-1018v473l-137 -61v282l137 62v690h348v-561l387 172v-283z" />
    <glyph glyph-name="lslash" unicode="&#x142;" horiz-adv-x="673" 
d="M637 1034v-293l-178 -135v-246q0 -68 25.5 -96t86.5 -28h60v-236q-72 -20 -168 -20q-146 0 -238 93q-92 94 -92 244v152l-137 -100v293l137 100v797h326v-660z" />
    <glyph glyph-name="Nacute" unicode="&#x143;" horiz-adv-x="1710" 
d="M850 1948h307l-180 -353h-232zM1204 655v791h344v-1446h-604l-450 1307l12 -496v-811h-344v1446h608l447 -1292z" />
    <glyph glyph-name="nacute" unicode="&#x144;" horiz-adv-x="1320" 
d="M662 1559h307l-181 -353h-231zM834 1087q172 0 268 -98t96 -274v-715h-326v592q0 121 -42 172t-142 51q-231 0 -231 -242v-573h-326v1057h313v-244q53 132 154 203t236 71z" />
    <glyph glyph-name="uni0145" unicode="&#x145;" horiz-adv-x="1710" 
d="M1204 655v791h344v-1446h-604l-450 1307l12 -496v-811h-344v1446h608l447 -1292zM858 -369l-139 56v172h303v-213q0 -121 -91 -193q-92 -71 -243 -71v129q90 0 130 28.5t40 91.5z" />
    <glyph glyph-name="uni0146" unicode="&#x146;" horiz-adv-x="1320" 
d="M834 1087q172 0 268 -98t96 -274v-715h-326v592q0 121 -42 172t-142 51q-231 0 -231 -242v-573h-326v1057h313v-244q53 132 154 203t236 71zM653 -369l-139 56v172h303v-213q0 -121 -91 -193q-92 -71 -243 -71v129q90 0 130 28.5t40 91.5z" />
    <glyph glyph-name="Ncaron" unicode="&#x147;" horiz-adv-x="1710" 
d="M1081 1595h-419l-181 353h264l127 -291l125 291h265zM1204 655v791h344v-1446h-604l-450 1307l12 -496v-811h-344v1446h608l447 -1292z" />
    <glyph glyph-name="ncaron" unicode="&#x148;" horiz-adv-x="1320" 
d="M893 1206h-420l-180 353h264l127 -291l125 291h264zM834 1087q172 0 268 -98t96 -274v-715h-326v592q0 121 -42 172t-142 51q-231 0 -231 -242v-573h-326v1057h313v-244q53 132 154 203t236 71z" />
    <glyph glyph-name="napostrophe" unicode="&#x149;" horiz-adv-x="1587" 
d="M145 1165l-161 76v205h323v-260q0 -142 -95 -225q-94 -82 -265 -82v135q103 0 150.5 35.5t47.5 115.5zM1102 1087q170 0 266 -98t96 -274v-715h-323v592q0 121 -43 172t-144 51q-231 0 -231 -242v-573h-326v1057h314v-244q54 132 154.5 203t236.5 71z" />
    <glyph glyph-name="Eng" unicode="&#x14a;" horiz-adv-x="1710" 
d="M1204 655v791h344v-1501q0 -160 -108 -259q-110 -98 -285 -98q-87 0 -170 21v235h105q65 0 91.5 32.5t26.5 111.5v12h-264l-450 1307l12 -496v-811h-344v1446h608l447 -1292z" />
    <glyph glyph-name="eng" unicode="&#x14b;" horiz-adv-x="1320" 
d="M834 1087q172 0 268 -98t96 -274v-776q0 -166 -107 -268q-109 -101 -284 -101q-83 0 -158 20v236h105q63 0 90.5 34t27.5 113v619q0 121 -42 172t-142 51q-231 0 -231 -242v-573h-326v1057h313v-244q53 132 154 203t236 71z" />
    <glyph glyph-name="Omacron" unicode="&#x14c;" horiz-adv-x="1654" 
d="M535 1901h583v-248h-583v248zM1365 176q-204 -207 -537 -207q-334 0 -538 207t-204 547t204 547t538 207q333 0 537 -207t204 -547t-204 -547zM535 377q91 -109 293 -109q201 0 292 109q92 109 92 346t-92 346q-92 107 -292 107q-201 0 -293 -107q-93 -108 -93 -346
t93 -346z" />
    <glyph glyph-name="omacron" unicode="&#x14d;" horiz-adv-x="1290" 
d="M352 1511h584v-247h-584v247zM1055 123q-155 -154 -410 -154t-409 154q-156 153 -156 405t156 406q154 153 409 153q254 0 410 -153q155 -155 155 -406q0 -252 -155 -405zM471 293q56 -74 174 -74t174 74q55 73 55 236q0 162 -55 235q-56 74 -174 74t-174 -74
q-55 -73 -55 -235q0 -163 55 -236z" />
    <glyph glyph-name="Obreve" unicode="&#x14e;" horiz-adv-x="1654" 
d="M940 1948h213q0 -177 -88 -268q-89 -93 -237 -93q-150 0 -238 93q-88 91 -88 268h213q0 -88 26.5 -127t86.5 -39q59 0 85.5 39t26.5 127zM1365 176q-204 -207 -537 -207q-334 0 -538 207t-204 547t204 547t538 207q333 0 537 -207t204 -547t-204 -547zM535 377
q91 -109 293 -109q201 0 292 109q92 109 92 346t-92 346q-92 107 -292 107q-201 0 -293 -107q-93 -108 -93 -346t93 -346z" />
    <glyph glyph-name="obreve" unicode="&#x14f;" horiz-adv-x="1290" 
d="M758 1559h213q0 -177 -88 -268q-89 -93 -237 -93q-149 0 -238 92t-89 269h213q0 -88 27 -127t87 -39t86 38.5t26 127.5zM1055 123q-155 -154 -410 -154t-409 154q-156 153 -156 405t156 406q154 153 409 153q254 0 410 -153q155 -155 155 -406q0 -252 -155 -405zM471 293
q56 -74 174 -74t174 74q55 73 55 236q0 162 -55 235q-56 74 -174 74t-174 -74q-55 -73 -55 -235q0 -163 55 -236z" />
    <glyph glyph-name="Ohungarumlaut" unicode="&#x150;" horiz-adv-x="1654" 
d="M551 1595l92 353h258l-119 -353h-231zM870 1595l105 353h307l-180 -353h-232zM1365 176q-204 -207 -537 -207q-334 0 -538 207t-204 547t204 547t538 207q333 0 537 -207t204 -547t-204 -547zM535 377q91 -109 293 -109q201 0 292 109q92 109 92 346t-92 346
q-92 107 -292 107q-201 0 -293 -107q-93 -108 -93 -346t93 -346z" />
    <glyph glyph-name="ohungarumlaut" unicode="&#x151;" horiz-adv-x="1290" 
d="M365 1206l92 353h258l-119 -353h-231zM684 1206l104 353h308l-181 -353h-231zM1055 123q-155 -154 -410 -154t-409 154q-156 153 -156 405t156 406q154 153 409 153q254 0 410 -153q155 -155 155 -406q0 -252 -155 -405zM471 293q56 -74 174 -74t174 74q55 73 55 236
q0 162 -55 235q-56 74 -174 74t-174 -74q-55 -73 -55 -235q0 -163 55 -236z" />
    <glyph glyph-name="OE" unicode="&#x152;" horiz-adv-x="2250" 
d="M1438 596v-305h698v-291h-1323q-328 0 -527 199q-200 198 -200 524q0 325 200 525q199 198 527 198h1315v-291h-690v-293h655v-266h-655zM827 285h263v870h-263q-385 0 -385 -432q0 -438 385 -438z" />
    <glyph glyph-name="oe" unicode="&#x153;" horiz-adv-x="2035" 
d="M1956 592v-137h-750q12 -126 67 -184t163 -58q200 0 198 135l316 2q0 -172 -144 -276q-146 -105 -381 -105q-245 0 -387 172q-142 -172 -393 -172q-255 0 -409 154q-156 153 -156 405t156 406q154 153 409 153q251 0 393 -172q142 172 387 172q239 0 385 -136
q146 -137 146 -359zM1210 627l207 4h215q-8 111 -57 162t-150 51q-98 0 -149.5 -52t-65.5 -165zM471 293q56 -74 174 -74t174 74q55 73 55 236q0 162 -55 235q-56 74 -174 74t-174 -74q-55 -73 -55 -235q0 -163 55 -236z" />
    <glyph glyph-name="Racute" unicode="&#x154;" horiz-adv-x="1503" 
d="M727 1948h307l-180 -353h-231zM1493 0h-391l-328 549h-264v-549h-348v1446h741q210 0 337 -121q128 -122 128 -319q0 -145 -67.5 -253t-190.5 -161l121 -164zM811 1174h-301v-373h301q106 0 153.5 45t47.5 145q0 96 -47 139.5t-154 43.5z" />
    <glyph glyph-name="racute" unicode="&#x155;" horiz-adv-x="878" 
d="M494 1559h307l-180 -353h-232zM760 1087q58 0 94 -16v-301h-186q-102 0 -156.5 -58.5t-54.5 -168.5v-543h-326v1057h311v-273q37 139 122 221t196 82z" />
    <glyph glyph-name="uni0156" unicode="&#x156;" horiz-adv-x="1503" 
d="M1110 592l121 -164l262 -428h-391l-328 549h-264v-549h-348v1446h741q210 0 337 -121q128 -122 128 -319q0 -145 -67.5 -253t-190.5 -161zM811 1174h-301v-373h301q106 0 153.5 45t47.5 145q0 96 -47 139.5t-154 43.5zM776 -369l-139 56v172h303v-213q0 -121 -91 -193
q-92 -71 -243 -71v129q90 0 130 28.5t40 91.5z" />
    <glyph glyph-name="uni0157" unicode="&#x157;" horiz-adv-x="878" 
d="M760 1087q58 0 94 -16v-301h-186q-102 0 -156.5 -58.5t-54.5 -168.5v-543h-326v1057h311v-273q37 139 122 221t196 82zM283 -369l-140 56v172h303v-213q0 -121 -91 -193q-92 -71 -242 -71v129q90 0 130 28.5t40 91.5z" />
    <glyph glyph-name="Rcaron" unicode="&#x158;" horiz-adv-x="1503" 
d="M958 1595h-419l-181 353h265l127 -291l124 291h265zM1493 0h-391l-328 549h-264v-549h-348v1446h741q210 0 337 -121q128 -122 128 -319q0 -145 -67.5 -253t-190.5 -161l121 -164zM811 1174h-301v-373h301q106 0 153.5 45t47.5 145q0 96 -47 139.5t-154 43.5z" />
    <glyph glyph-name="rcaron" unicode="&#x159;" horiz-adv-x="878" 
d="M725 1206h-420l-180 353h264l127 -291l125 291h264zM442 1057v-273q37 139 122 221t196 82q58 0 94 -16v-301h-186q-102 0 -156.5 -58.5t-54.5 -168.5v-543h-326v1057h311z" />
    <glyph glyph-name="Sacute" unicode="&#x15a;" horiz-adv-x="1435" 
d="M602 1595l105 353h307l-180 -353h-232zM721 -31q-294 0 -475 137q-180 136 -180 357h344q0 -115 74 -166t239 -51q295 0 295 137q0 44 -19 70q-20 27 -101 58q-86 33 -234 58q-302 51 -432 154q-132 102 -132 289q0 210 171 337q172 128 450 128t448 -137
q170 -138 170 -363h-344q0 117 -65.5 170t-212.5 53q-264 0 -264 -141q0 -66 70 -106q68 -40 286 -79q306 -52 434 -159q127 -106 127 -293q0 -205 -178 -329t-471 -124z" />
    <glyph glyph-name="sacute" unicode="&#x15b;" horiz-adv-x="1136" 
d="M444 1206l105 353h307l-180 -353h-232zM571 -31q-236 0 -378 100q-142 99 -142 263h316q0 -76 49 -110t157 -34q183 0 185 93q0 47 -48 74q-48 25 -200 48q-223 29 -327.5 108.5t-104.5 223.5q0 158 133 255t350 97q221 0 356 -102q134 -102 134 -268h-316
q0 78 -42 114.5t-134 36.5q-172 0 -172 -98q0 -48 51 -74q52 -26 203 -47q231 -29 335.5 -108.5t104.5 -223.5q0 -158 -140 -253q-142 -95 -370 -95z" />
    <glyph glyph-name="Scircumflex" unicode="&#x15c;" horiz-adv-x="1435" 
d="M858 1595l-127 293l-127 -293h-262l180 353h418l180 -353h-262zM809 874q306 -52 434 -159q127 -106 127 -293q0 -205 -178 -329t-471 -124q-294 0 -475 137q-180 136 -180 357h344q0 -115 74 -166t239 -51q295 0 295 137q0 44 -19 70q-20 27 -101 58q-86 33 -234 58
q-302 51 -432 154q-132 102 -132 289q0 210 171 337q172 128 450 128t448 -137q170 -138 170 -363h-344q0 117 -65.5 170t-212.5 53q-264 0 -264 -141q0 -66 70 -106q68 -40 286 -79z" />
    <glyph glyph-name="scircumflex" unicode="&#x15d;" horiz-adv-x="1136" 
d="M700 1206l-127 293l-127 -293h-262l181 353h417l181 -353h-263zM641 649q231 -29 335.5 -108.5t104.5 -223.5q0 -158 -140 -253t-370 -95q-236 0 -378 100q-142 99 -142 263h316q0 -76 49 -110t157 -34q183 0 185 93q0 47 -48 74q-48 25 -200 48q-223 29 -327.5 108.5
t-104.5 223.5q0 158 133 255t350 97q221 0 356 -102q134 -102 134 -268h-316q0 78 -42 114.5t-134 36.5q-172 0 -172 -98q0 -50 51 -75q54 -27 203 -46z" />
    <glyph glyph-name="Scedilla" unicode="&#x15e;" horiz-adv-x="1435" 
d="M1370 422q0 -183 -146 -305q-147 -121 -395 -144l-26 -77h31q80 0 128 -45.5t48 -118.5q0 -80 -54.5 -129t-142.5 -49h-223v139h158q53 0 53 41t-53 41h-140v114l33 82q-261 19 -418 154q-157 133 -157 338h344q0 -115 74 -166t239 -51q295 0 295 137q0 44 -19 70
q-20 27 -101 58q-86 33 -234 58q-302 51 -432 154q-132 102 -132 289q0 210 171 337q172 128 450 128t448 -137q170 -138 170 -363h-344q0 117 -65.5 170t-212.5 53q-264 0 -264 -141q0 -66 70 -106q68 -40 286 -79q306 -52 434 -159q127 -106 127 -293z" />
    <glyph glyph-name="scedilla" unicode="&#x15f;" horiz-adv-x="1136" 
d="M1081 317q0 -139 -110 -231q-112 -92 -301 -113l-27 -77h31q80 0 128 -45.5t48 -118.5q0 -80 -54.5 -129t-142.5 -49h-223v139h158q53 0 53 41t-53 41h-139v114l32 84q-198 18 -313 115q-117 96 -117 244h316q0 -76 49 -110t157 -34q183 0 185 93q0 47 -48 74
q-48 25 -200 48q-223 29 -327.5 108.5t-104.5 223.5q0 158 133 255t350 97q221 0 356 -102q134 -102 134 -268h-316q0 78 -42 114.5t-134 36.5q-172 0 -172 -98q0 -48 51 -74q52 -26 203 -47q230 -29 335 -108.5t105 -223.5z" />
    <glyph glyph-name="Scaron" unicode="&#x160;" horiz-adv-x="1435" 
d="M938 1595h-420l-180 353h264l127 -291l125 291h264zM809 874q306 -52 434 -159q127 -106 127 -293q0 -205 -178 -329t-471 -124q-294 0 -475 137q-180 136 -180 357h344q0 -115 74 -166t239 -51q295 0 295 137q0 44 -19 70q-20 27 -101 58q-86 33 -234 58
q-302 51 -432 154q-132 102 -132 289q0 210 171 337q172 128 450 128t448 -137q170 -138 170 -363h-344q0 117 -65.5 170t-212.5 53q-264 0 -264 -141q0 -66 70 -106q68 -40 286 -79z" />
    <glyph glyph-name="scaron" unicode="&#x161;" horiz-adv-x="1136" 
d="M780 1206h-420l-180 353h264l127 -291l125 291h265zM641 649q231 -29 335.5 -108.5t104.5 -223.5q0 -158 -140 -253t-370 -95q-236 0 -378 100q-142 99 -142 263h316q0 -76 49 -110t157 -34q183 0 185 93q0 47 -48 74q-48 25 -200 48q-223 29 -327.5 108.5t-104.5 223.5
q0 158 133 255t350 97q221 0 356 -102q134 -102 134 -268h-316q0 78 -42 114.5t-134 36.5q-172 0 -172 -98q0 -50 51 -75q54 -27 203 -46z" />
    <glyph glyph-name="uni0162" unicode="&#x162;" horiz-adv-x="1351" 
d="M850 1155v-1155h-76l-35 -104h31q80 0 128 -45.5t48 -118.5q0 -80 -54 -129t-142 -49h-224v139h158q53 0 53 41t-53 41h-139v114l43 111h-86v1155h-477v291h1302v-291h-477z" />
    <glyph glyph-name="uni0163" unicode="&#x163;" horiz-adv-x="940" 
d="M903 236v-236q-130 -15 -231 -20l-29 -84h31q80 0 128 -45.5t48 -118.5q0 -80 -54.5 -129t-142.5 -49h-223v139h158q53 0 53 41t-53 41h-139v114l40 107q-129 31 -202.5 121t-73.5 219v473h-203v248h205l6 309h318v-309h360v-248h-360v-430q0 -80 30 -111.5t105 -31.5
h229z" />
    <glyph glyph-name="Tcaron" unicode="&#x164;" horiz-adv-x="1351" 
d="M883 1595h-420l-180 353h264l127 -291l125 291h264zM25 1446h1302v-291h-477v-1155h-348v1155h-477v291z" />
    <glyph glyph-name="tcaron" unicode="&#x165;" horiz-adv-x="940" 
d="M676 1479v172h303v-213q0 -122 -91 -192q-92 -72 -243 -72v129q90 0 130 28.5t40 93.5zM539 809v-430q0 -80 30 -111.5t105 -31.5h229v-236q-158 -20 -280 -20q-184 0 -297 98t-113 258v473h-203v248h205l6 309h318v-309h360v-248h-360z" />
    <glyph glyph-name="Tbar" unicode="&#x166;" horiz-adv-x="1331" 
d="M1327 1446v-291h-477v-317h358v-238h-358v-600h-348v600h-375v238h375v317h-477v291h1302z" />
    <glyph glyph-name="tbar" unicode="&#x167;" horiz-adv-x="940" 
d="M674 236h229v-236q-158 -20 -280 -20q-184 0 -297 98t-113 258v108h-203v195h203v170h-203v248h205l6 309h318v-309h360v-248h-360v-170h360v-195h-360v-65q0 -80 30 -111.5t105 -31.5z" />
    <glyph glyph-name="Utilde" unicode="&#x168;" horiz-adv-x="1568" 
d="M934 1620q-62 0 -151 45t-138 45q-86 0 -86 -86h-160q0 309 234 309q63 0 151 -45t138 -45q86 0 86 86h159q0 -309 -233 -309zM143 512v934h349v-903q0 -144 68.5 -208.5t223.5 -64.5q154 0 223.5 64.5t69.5 208.5v903h348v-934q0 -244 -177 -393q-177 -150 -464 -150
q-290 0 -465 150q-176 149 -176 393z" />
    <glyph glyph-name="utilde" unicode="&#x169;" horiz-adv-x="1312" 
d="M516 1321q-86 0 -86 -86h-160q0 309 234 309q62 0 151 -45t138 -45q86 0 86 86h159q0 -309 -233 -309q-63 0 -151 45t-138 45zM860 475v582h324v-1057h-312v225q-54 -122 -153.5 -189t-233.5 -67q-168 0 -261 98.5t-93 274.5v715h326v-592q0 -121 41.5 -172t140.5 -51
q107 0 164 59.5t57 173.5z" />
    <glyph glyph-name="Umacron" unicode="&#x16a;" horiz-adv-x="1568" 
d="M492 1901h583v-248h-583v248zM143 512v934h349v-903q0 -144 68.5 -208.5t223.5 -64.5q154 0 223.5 64.5t69.5 208.5v903h348v-934q0 -244 -177 -393q-177 -150 -464 -150q-290 0 -465 150q-176 149 -176 393z" />
    <glyph glyph-name="umacron" unicode="&#x16b;" horiz-adv-x="1312" 
d="M362 1511h584v-247h-584v247zM860 475v582h324v-1057h-312v225q-54 -122 -153.5 -189t-233.5 -67q-168 0 -261 98.5t-93 274.5v715h326v-592q0 -121 41.5 -172t140.5 -51q107 0 164 59.5t57 173.5z" />
    <glyph glyph-name="Ubreve" unicode="&#x16c;" horiz-adv-x="1568" 
d="M897 1948h213q0 -177 -88 -268q-88 -93 -237 -93t-238 93q-88 91 -88 268h213q0 -88 26.5 -127t86.5 -39q59 0 85.5 39t26.5 127zM143 512v934h349v-903q0 -144 68.5 -208.5t223.5 -64.5q154 0 223.5 64.5t69.5 208.5v903h348v-934q0 -244 -177 -393q-177 -150 -464 -150
q-290 0 -465 150q-176 149 -176 393z" />
    <glyph glyph-name="ubreve" unicode="&#x16d;" horiz-adv-x="1312" 
d="M893 1291q-89 -93 -237 -93q-149 0 -238 92q-88 91 -88 269h213q0 -88 26.5 -127t86.5 -39t86 38.5t26 127.5h213q0 -177 -88 -268zM860 475v582h324v-1057h-312v225q-54 -122 -153.5 -189t-233.5 -67q-168 0 -261 98.5t-93 274.5v715h326v-592q0 -121 41.5 -172
t140.5 -51q107 0 164 59.5t57 173.5z" />
    <glyph glyph-name="Uring" unicode="&#x16e;" horiz-adv-x="1568" 
d="M937 1639q-58 -52 -152 -52q-95 0 -153 52q-59 51 -59 133q0 80 59 133q58 51 153 51q93 0 152 -51q58 -52 58 -133q0 -82 -58 -133zM709 1772q0 -66 76 -66q75 0 75 66q0 65 -75 65q-76 0 -76 -65zM143 512v934h349v-903q0 -144 68.5 -208.5t223.5 -64.5
q154 0 223.5 64.5t69.5 208.5v903h348v-934q0 -244 -177 -393q-177 -150 -464 -150q-290 0 -465 150q-176 149 -176 393z" />
    <glyph glyph-name="uring" unicode="&#x16f;" horiz-adv-x="1312" 
d="M808 1249q-58 -51 -152 -51t-153 51t-59 133q0 81 59 134q59 51 153 51t152 -51q58 -52 58 -134t-58 -133zM731 1383q0 65 -75 65q-76 0 -76 -65q0 -66 76 -66q75 0 75 66zM860 475v582h324v-1057h-312v225q-54 -122 -153.5 -189t-233.5 -67q-168 0 -261 98.5t-93 274.5
v715h326v-592q0 -121 41.5 -172t140.5 -51q107 0 164 59.5t57 173.5z" />
    <glyph glyph-name="Uhungarumlaut" unicode="&#x170;" horiz-adv-x="1568" 
d="M508 1595l92 353h258l-119 -353h-231zM827 1595l105 353h307l-180 -353h-232zM143 512v934h349v-903q0 -144 68.5 -208.5t223.5 -64.5q154 0 223.5 64.5t69.5 208.5v903h348v-934q0 -244 -177 -393q-177 -150 -464 -150q-290 0 -465 150q-176 149 -176 393z" />
    <glyph glyph-name="uhungarumlaut" unicode="&#x171;" horiz-adv-x="1312" 
d="M467 1559h258l-119 -353h-231zM1106 1559l-180 -353h-232l105 353h307zM860 475v582h324v-1057h-312v225q-54 -122 -153.5 -189t-233.5 -67q-168 0 -261 98.5t-93 274.5v715h326v-592q0 -121 41.5 -172t140.5 -51q107 0 164 59.5t57 173.5z" />
    <glyph glyph-name="Uogonek" unicode="&#x172;" horiz-adv-x="1568" 
d="M1077 543v903h348v-934q0 -188 -109 -324q-111 -138 -300 -190l-117 -150q-31 -37 -31 -65q0 -43 58 -43h110v-186h-262q-79 0 -122.5 38t-43.5 101q0 78 62 149l108 127q-286 1 -461 152q-174 149 -174 391v934h349v-903q0 -144 68.5 -208.5t223.5 -64.5
q154 0 223.5 64.5t69.5 208.5z" />
    <glyph glyph-name="uogonek" unicode="&#x173;" horiz-adv-x="1312" 
d="M1094 -260h110v-186h-262q-79 0 -122.5 38t-43.5 101q0 78 62 149l135 158h-101v225q-54 -122 -153.5 -189t-233.5 -67q-168 0 -261 98.5t-93 274.5v715h326v-592q0 -121 41.5 -172t140.5 -51q107 0 164 59.5t57 173.5v582h324v-1057l-117 -152q-31 -37 -31 -65
q1 -43 58 -43z" />
    <glyph glyph-name="Wcircumflex" unicode="&#x174;" horiz-adv-x="2412" 
d="M1335 1595l-127 293l-127 -293h-262l180 353h418l180 -353h-262zM1772 426l217 1020h387l-340 -1446h-584l-190 936l-54 338l-55 -338l-190 -936h-586l-340 1446h389l219 -1020l49 -283l43 283l199 1020h543l200 -1020l43 -283z" />
    <glyph glyph-name="wcircumflex" unicode="&#x175;" horiz-adv-x="1861" 
d="M1069 1206l-127 293l-127 -293h-262l180 353h418l180 -353h-262zM1380 389l140 668h319l-240 -1057h-499l-127 645l-35 238l-33 -238l-127 -645h-516l-239 1057h339l142 -668l37 -264l32 264l123 668h492l123 -668l32 -254z" />
    <glyph glyph-name="Ycircumflex" unicode="&#x176;" horiz-adv-x="1421" 
d="M852 1595l-127 293l-127 -293h-262l180 353h418l180 -353h-262zM1071 1446h359l-545 -1045v-401h-348v401l-543 1045h377l243 -483l109 -258l106 258z" />
    <glyph glyph-name="ycircumflex" unicode="&#x177;" horiz-adv-x="1208" 
d="M721 1206l-127 293l-127 -293h-262l180 353h418l180 -353h-262zM668 389l194 668h330l-348 -1184q-39 -131 -149 -208q-112 -77 -263 -77q-135 0 -258 21v235h199q143 0 170 95l18 61h-235l-312 1057h340l193 -668l59 -264z" />
    <glyph glyph-name="Ydieresis" unicode="&#x178;" horiz-adv-x="1421" 
d="M377 1919h297v-289h-297v289zM770 1919h297v-289h-297v289zM1071 1446h359l-545 -1045v-401h-348v401l-543 1045h377l243 -483l109 -258l106 258z" />
    <glyph glyph-name="Zacute" unicode="&#x179;" horiz-adv-x="1343" 
d="M672 1948h307l-180 -353h-232zM182 283l307 8h781v-291h-1184v539l1073 624l-305 -8h-760v291h1172v-533z" />
    <glyph glyph-name="zacute" unicode="&#x17a;" horiz-adv-x="1054" 
d="M510 1559h307l-180 -353h-231zM227 246l293 8h459v-254h-889v451l756 360l-307 -8h-439v254h869v-457z" />
    <glyph glyph-name="Zdotaccent" unicode="&#x17b;" horiz-adv-x="1343" 
d="M520 1919h346v-289h-346v289zM182 283l307 8h781v-291h-1184v539l1073 624l-305 -8h-760v291h1172v-533z" />
    <glyph glyph-name="zdotaccent" unicode="&#x17c;" horiz-adv-x="1054" 
d="M360 1530h347v-289h-347v289zM227 246l293 8h459v-254h-889v451l756 360l-307 -8h-439v254h869v-457z" />
    <glyph glyph-name="Zcaron" unicode="&#x17d;" horiz-adv-x="1343" 
d="M903 1595h-420l-180 353h264l127 -291l125 291h264zM182 283l307 8h781v-291h-1184v539l1073 624l-305 -8h-760v291h1172v-533z" />
    <glyph glyph-name="zcaron" unicode="&#x17e;" horiz-adv-x="1054" 
d="M741 1206h-419l-181 353h265l126 -291l125 291h265zM227 246l293 8h459v-254h-889v451l756 360l-307 -8h-439v254h869v-457z" />
    <glyph glyph-name="uni018F" unicode="&#x18f;" horiz-adv-x="1593" 
d="M784 1477q326 0 525 -207q198 -207 198 -547t-198 -547q-199 -207 -527 -207q-294 0 -482 161q-187 160 -187 437v217h1036q-8 205 -95 298.5t-270 93.5q-170 0 -245.5 -61.5t-75.5 -199.5h-344q0 260 193 411t472 151zM782 264q156 0 243 71t114 220h-682
q4 -153 80.5 -222t244.5 -69z" />
    <glyph glyph-name="florin" unicode="&#x192;" horiz-adv-x="1038" 
d="M1008 1323h-232q-72 0 -108.5 -33t-49.5 -110l-22 -123h356l-43 -248h-356l-213 -1208h-326l213 1208h-200l43 248h200l29 157q27 164 158 265q130 100 315 100q148 0 279 -20z" />
    <glyph glyph-name="uni019D" unicode="&#x19d;" horiz-adv-x="1691" 
d="M1186 655v791h344v-1446h-604l-451 1300l12 -489v-866q0 -160 -109 -259q-110 -98 -288 -98q-87 0 -170 21v235h105q65 0 91.5 32.5t26.5 111.5v1458h609l446 -1292z" />
    <glyph glyph-name="Gcaron" unicode="&#x1e6;" horiz-adv-x="1638" 
d="M1036 1595h-420l-180 353h264l127 -291l125 291h265zM754 551v237h753v-788h-303v356q-86 -387 -473 -387q-291 0 -468 202q-177 203 -177 540q0 348 203 557t534 209q303 0 490 -154q186 -155 186 -403h-344q0 133 -79 194.5t-253 61.5q-201 0 -291 -107
q-90 -108 -90 -346q0 -243 91 -350q90 -109 290 -109q176 0 256 67.5t84 219.5h-409z" />
    <glyph glyph-name="gcaron" unicode="&#x1e7;" horiz-adv-x="1191" 
d="M795 1206h-420l-180 353h264l127 -291l125 291h264zM1196 1264v-244q-187 0 -215 -55q111 -94 111 -248q0 -164 -137 -268q-138 -105 -369 -105q-136 0 -238 37q-14 -23 -14 -55q0 -45 30.5 -63.5t104.5 -18.5h358q166 0 268 -81q101 -81 101 -214q0 -164 -157 -263
q-158 -98 -427 -98q-266 0 -419 73q-156 73 -156 196q0 61 43 104t119 59q-113 68 -113 181q0 143 160 227q-166 103 -166 289q0 169 136 269q137 101 370 101q152 0 268 -45q16 115 96 168.5t246 53.5zM586 565q94 0 136 36t42 116q0 78 -42 113.5t-136 35.5
q-98 0 -138 -34t-40 -115q0 -82 40 -117t138 -35zM764 -16h-430q-10 -30 -10 -68q0 -78 57 -104q56 -25 231 -25q171 0 227 22q56 23 56 91q0 47 -28.5 65.5t-102.5 18.5z" />
    <glyph glyph-name="uni01EA" unicode="&#x1ea;" horiz-adv-x="1654" 
d="M1059 0l-117 -152q-31 -37 -31 -65q0 -43 58 -43h110v-186h-262q-79 0 -122.5 38t-43.5 101q0 78 62 149l108 127q-329 1 -532 209t-203 545q0 340 204 547t538 207q333 0 537 -207t204 -547q0 -275 -136 -465q-137 -192 -374 -258zM535 1069q-93 -108 -93 -346t93 -346
q91 -109 293 -109q201 0 292 109q92 109 92 346t-92 346q-92 107 -292 107q-201 0 -293 -107z" />
    <glyph glyph-name="uni01EB" unicode="&#x1eb;" horiz-adv-x="1290" 
d="M823 -8l-110 -144q-31 -37 -31 -65q0 -43 57 -43h111v-186h-262q-79 0 -122.5 38t-43.5 101q0 79 61 149l111 129q-235 17 -373 167q-141 152 -141 390q0 252 156 406q154 153 409 153q254 0 410 -153q155 -155 155 -406q0 -203 -103 -345q-102 -141 -284 -191zM471 764
q-55 -73 -55 -235q0 -163 55 -236q56 -74 174 -74t174 74q55 73 55 236q0 162 -55 235q-56 74 -174 74t-174 -74z" />
    <glyph glyph-name="Aringacute" unicode="&#x1fa;" horiz-adv-x="1564" 
d="M939 1639q-58 -52 -152 -52q-95 0 -153 51q-59 50 -59 134q0 83 59 134q59 50 152 50h17l51 176h244l-152 -234q51 -46 51 -126q0 -82 -58 -133zM786 1837q-38 0 -57 -16.5t-18 -48.5q0 -66 75 -66q74 0 74 66q0 65 -74 65zM1542 0h-362l-111 356h-584l-110 -356h-352
l452 1446h615zM692 1020l-123 -395h416l-123 395l-86 313z" />
    <glyph glyph-name="aringacute" unicode="&#x1fb;" horiz-adv-x="1204" 
d="M745 1249q-59 -51 -153 -51q-93 0 -152 50t-59 134t59 135q59 50 152 50h18l52 176h241l-151 -234q51 -47 51 -127q0 -82 -58 -133zM668 1383q0 65 -76 65t-76 -65q0 -66 76 -66t76 66zM1174 227h2v-227q-74 -20 -162 -20q-246 0 -260 215q-49 -105 -145 -165.5
t-228 -60.5q-139 0 -225 72t-86 190q0 226 307 281q307 57 366 80v33q0 115 -37.5 166t-123.5 51t-124 -50.5t-38 -164.5h-314q0 209 134 335q134 125 350 125q215 0 340 -116q125 -117 125 -318v-301q0 -82 21 -103q19 -22 98 -22zM518 190q103 0 164 58t61 166v37
q-61 -20 -213 -56q-83 -19 -110 -43t-27 -71q0 -91 125 -91z" />
    <glyph glyph-name="AEacute" unicode="&#x1fc;" horiz-adv-x="2113" 
d="M1145 1948h307l-180 -353h-232zM1356 596l96 -305h547v-291h-819l-111 356h-584l-110 -356h-352l452 1446h1516v-291h-811l92 -293h684v-266h-600zM692 1020l-123 -395h416l-123 395l-86 313z" />
    <glyph glyph-name="aeacute" unicode="&#x1fd;" horiz-adv-x="1914" 
d="M940 1559h307l-180 -353h-231zM1835 592v-137h-750q12 -126 67 -184t163 -58q199 0 198 135l316 2q0 -172 -144 -276q-145 -105 -380 -105q-162 0 -285 70t-189 199q-41 -119 -150 -194t-267 -75t-251 72t-93 190q0 225 315 281q306 56 367 80v33q0 113 -39 165t-123 52
q-86 0 -124 -50.5t-38 -164.5h-313q0 207 133 334q134 126 350 126q215 0 334 -137q143 137 373 137q239 0 384 -136q146 -137 146 -359zM1090 627l206 4h215q-8 111 -58 162t-148 51q-97 0 -149 -52t-66 -165zM526 190q103 0 164.5 58t61.5 166v37q-61 -20 -213 -56
q-87 -19 -117 -43q-29 -24 -29 -71q0 -91 133 -91z" />
    <glyph glyph-name="Oslashacute" unicode="&#x1fe;" horiz-adv-x="1654" 
d="M805 1948h307l-180 -353h-232zM1528 1559l-174 -279q215 -206 215 -557q0 -340 -204 -547t-538 -207q-148 0 -270 43l-92 -147h-340l184 293q-223 211 -223 565q0 340 204 547t537 207q151 0 281 -45l80 127h340zM442 723q0 -175 47 -277l453 719q-51 9 -115 11
q-201 0 -293 -107q-92 -109 -92 -346zM827 268q201 0 293 108.5t92 346.5q0 163 -43 264l-446 -711q46 -8 104 -8z" />
    <glyph glyph-name="oslashacute" unicode="&#x1ff;" horiz-adv-x="1290" 
d="M625 1559h307l-180 -353h-232zM983 1188h270l-186 -264q145 -151 145 -396q0 -252 -155 -405q-155 -154 -410 -154q-123 0 -229 39l-109 -151h-270l192 272q-150 150 -149 399q0 252 156 406q154 153 409 153q131 0 236 -40zM418 528q0 -69 10 -122l299 421q-34 9 -80 11
q-120 0 -174.5 -74t-54.5 -236zM877 528q0 70 -9 117l-297 -418q34 -8 76 -8q120 0 175 73.5t55 235.5z" />
    <glyph glyph-name="uni0218" unicode="&#x218;" horiz-adv-x="1435" 
d="M721 -31q-294 0 -475 137q-180 136 -180 357h344q0 -115 74 -166t239 -51q295 0 295 137q0 44 -19 70q-20 27 -101 58q-86 33 -234 58q-302 51 -432 154q-132 102 -132 289q0 210 171 337q172 128 450 128t448 -137q170 -138 170 -363h-344q0 117 -65.5 170t-212.5 53
q-264 0 -264 -141q0 -66 70 -106q68 -40 286 -79q306 -52 434 -159q127 -106 127 -293q0 -205 -178 -329t-471 -124zM590 -313v172h303v-213q0 -121 -91 -193q-92 -71 -243 -71v129q90 0 130 28.5t40 91.5z" />
    <glyph glyph-name="uni0219" unicode="&#x219;" horiz-adv-x="1136" 
d="M571 -31q-236 0 -378 100q-142 99 -142 263h316q0 -76 49 -110t157 -34q183 0 185 93q0 47 -48 74q-48 25 -200 48q-223 29 -327.5 108.5t-104.5 223.5q0 158 133 255t350 97q221 0 356 -102q134 -102 134 -268h-316q0 78 -42 114.5t-134 36.5q-172 0 -172 -98
q0 -48 51 -74q52 -26 203 -47q231 -29 335.5 -108.5t104.5 -223.5q0 -158 -140 -253q-142 -95 -370 -95zM426 -313v172h303v-213q0 -121 -91 -193q-92 -71 -243 -71v129q90 0 130 28.5t40 91.5z" />
    <glyph glyph-name="uni021A" unicode="&#x21a;" horiz-adv-x="1351" 
d="M25 1446h1302v-291h-477v-1155h-348v1155h-477v291zM664 -369l-140 56v172h303v-213q0 -121 -91 -193q-92 -71 -242 -71v129q90 0 130 28.5t40 91.5z" />
    <glyph glyph-name="uni021B" unicode="&#x21b;" horiz-adv-x="940" 
d="M674 236h229v-236q-158 -20 -280 -20q-184 0 -297 98t-113 258v473h-203v248h205l6 309h318v-309h360v-248h-360v-430q0 -80 30 -111.5t105 -31.5zM565 -369l-139 56v172h303v-213q0 -121 -91 -193q-92 -71 -243 -71v129q90 0 130 28.5t40 91.5z" />
    <glyph glyph-name="uni0232" unicode="&#x232;" horiz-adv-x="1421" 
d="M432 1901h584v-248h-584v248zM1071 1446h359l-545 -1045v-401h-348v401l-543 1045h377l243 -483l109 -258l106 258z" />
    <glyph glyph-name="uni0233" unicode="&#x233;" horiz-adv-x="1208" 
d="M301 1511h584v-247h-584v247zM668 389l194 668h330l-348 -1184q-39 -131 -149 -208q-112 -77 -263 -77q-135 0 -258 21v235h199q143 0 170 95l18 61h-235l-312 1057h340l193 -668l59 -264z" />
    <glyph glyph-name="uni0237" unicode="&#x237;" horiz-adv-x="579" 
d="M143 -12v1069h326v-1100q0 -166 -107 -268q-109 -101 -284 -101q-84 0 -158 21v235h105q65 0 91.5 32.5t26.5 111.5z" />
    <glyph glyph-name="uni0259" unicode="&#x259;" horiz-adv-x="1247" 
d="M610 1087q250 0 404 -151q153 -152 153 -399q0 -253 -153 -411q-154 -157 -404 -157q-238 0 -384 137t-146 359v119h749q-6 135 -60 197.5t-167 62.5q-98 0 -147.5 -37.5t-48.5 -112.5h-316q0 176 144 285q142 108 376 108zM610 213q180 0 213 199l-205 -4h-212
q10 -100 59 -147.5t145 -47.5z" />
    <glyph glyph-name="uni0272" unicode="&#x272;" horiz-adv-x="1333" 
d="M846 1087q172 0 268 -98t96 -274v-715h-325v604q0 120 -41 166q-40 45 -144 45q-231 0 -231 -242v-634q0 -166 -107 -268q-109 -101 -284 -101q-83 0 -158 20v236h105q63 0 90.5 34t27.5 113v1084h314v-244q53 132 153.5 203t235.5 71z" />
    <glyph glyph-name="circumflex" unicode="&#x2c6;" horiz-adv-x="991" 
d="M301 1559h418l180 -353h-262l-127 293l-127 -293h-262z" />
    <glyph glyph-name="caron" unicode="&#x2c7;" horiz-adv-x="964" 
d="M483 1268l125 291h264l-180 -353h-420l-180 353h264z" />
    <glyph glyph-name="breve" unicode="&#x2d8;" horiz-adv-x="851" 
d="M539 1559h213q0 -177 -88 -268q-88 -93 -238 -93q-152 0 -239 93.5t-87 267.5h213q0 -88 27 -127t86 -39q60 0 86.5 38.5t26.5 127.5z" />
    <glyph glyph-name="dotaccent" unicode="&#x2d9;" horiz-adv-x="530" 
d="M92 1241v289h346v-289h-346z" />
    <glyph glyph-name="ring" unicode="&#x2da;" horiz-adv-x="569" 
d="M438 1249q-58 -51 -153 -51t-153 51t-58 133t58 134q58 51 153 51t153 -51q58 -52 58 -134t-58 -133zM209 1383q0 -66 76 -66q75 0 75 66q0 65 -75 65q-76 0 -76 -65z" />
    <glyph glyph-name="ogonek" unicode="&#x2db;" horiz-adv-x="595" 
d="M504 -260v-186h-262q-79 0 -122.5 38t-43.5 101q0 79 61 149l135 158h211l-116 -152q-31 -37 -31 -65q0 -43 57 -43h111z" />
    <glyph glyph-name="tilde" unicode="&#x2dc;" horiz-adv-x="948" 
d="M625 1231q-63 0 -151 45t-138 45q-86 0 -86 -86h-160q0 309 234 309q62 0 151 -45t137 -45q86 0 86 86h160q0 -309 -233 -309z" />
    <glyph glyph-name="hungarumlaut" unicode="&#x2dd;" horiz-adv-x="915" 
d="M92 1206l92 353h258l-118 -353h-232zM412 1206l104 353h307l-180 -353h-231z" />
    <glyph glyph-name="gravecomb" unicode="&#x300;" horiz-adv-x="0" 
d="M-504 1559h307l105 -353h-232z" />
    <glyph glyph-name="acutecomb" unicode="&#x301;" horiz-adv-x="0" 
d="M-465 1206l105 353h307l-180 -353h-232z" />
    <glyph glyph-name="uni0302" unicode="&#x302;" horiz-adv-x="0" 
d="M-690 1559h418l180 -353h-262l-127 293l-127 -293h-262z" />
    <glyph glyph-name="tildecomb" unicode="&#x303;" horiz-adv-x="0" 
d="M-324 1231q-62 0 -151 45t-137 45q-86 0 -86 -86h-160q0 309 233 309q63 0 151 -45t138 -45q86 0 86 86h160q-2 -309 -234 -309z" />
    <glyph glyph-name="uni0304" unicode="&#x304;" horiz-adv-x="0" 
d="M-676 1511h584v-247h-584v247z" />
    <glyph glyph-name="uni0306" unicode="&#x306;" horiz-adv-x="0" 
d="M-305 1559h213q0 -177 -88 -268q-88 -93 -238 -93q-152 0 -238.5 93.5t-86.5 267.5h213q0 -88 26.5 -127t85.5 -39q60 0 86.5 38.5t26.5 127.5z" />
    <glyph glyph-name="uni0307" unicode="&#x307;" horiz-adv-x="0" 
d="M-438 1241v289h346v-289h-346z" />
    <glyph glyph-name="uni0308" unicode="&#x308;" horiz-adv-x="0" 
d="M-782 1241v289h297v-289h-297zM-389 1241v289h297v-289h-297z" />
    <glyph glyph-name="uni030A" unicode="&#x30a;" horiz-adv-x="0" 
d="M-132 1249q-58 -51 -153 -51t-153 51t-58 133t58 134q58 51 153 51t153 -51q58 -52 58 -134t-58 -133zM-360 1383q0 -66 75 -66q76 0 76 66q0 65 -76 65q-75 0 -75 -65z" />
    <glyph glyph-name="uni030B" unicode="&#x30b;" horiz-adv-x="0" 
d="M-823 1206l92 353h258l-119 -353h-231zM-504 1206l105 353h307l-180 -353h-232z" />
    <glyph glyph-name="uni030C" unicode="&#x30c;" horiz-adv-x="0" 
d="M-483 1268l125 291h264l-180 -353h-420l-180 353h264z" />
    <glyph glyph-name="uni0312" unicode="&#x312;" horiz-adv-x="0" 
d="M-127 1378v-172h-315v213q0 120 94 190t252 70v-129q-96 0 -139.5 -27.5t-43.5 -88.5z" />
    <glyph glyph-name="dotbelowcomb" unicode="&#x323;" horiz-adv-x="0" 
d="M-426 -426v285h346v-285h-346z" />
    <glyph glyph-name="uni0326" unicode="&#x326;" horiz-adv-x="0" 
d="M-406 -313v172h304v-213q0 -121 -92 -193q-92 -71 -242 -71v129q90 0 130 28.5t40 91.5z" />
    <glyph glyph-name="uni0327" unicode="&#x327;" horiz-adv-x="0" 
d="M-287 -104h31q80 0 128 -45.5t48 -118.5q0 -80 -54 -129t-142 -49h-224v139h158q53 0 53 41t-53 41h-139v114l43 111h186z" />
    <glyph glyph-name="uni0328" unicode="&#x328;" horiz-adv-x="0" 
d="M-92 -260v-186h-262q-79 0 -122.5 38t-43.5 101q0 79 61 149l135 158h211l-116 -152q-31 -37 -31 -65q0 -43 57 -43h111z" />
    <glyph glyph-name="uni0394" unicode="&#x394;" horiz-adv-x="1441" 
d="M414 1446h612l373 -1178v-268h-1356v268zM715 1333l-86 -313l-236 -752h643l-235 752z" />
    <glyph glyph-name="uni03A9" unicode="&#x3a9;" horiz-adv-x="1626" 
d="M1010 244l372 24h158v-268h-627v432q271 44 273 354q0 205 -89 297.5t-284 92.5t-284 -92.5t-89 -297.5q0 -310 273 -354v-432h-627v268h158l372 -24q-243 34 -388 193q-144 157 -144 390q0 293 201 472q199 178 528 178q327 0 529 -179q200 -180 200 -471
q0 -233 -144 -390q-145 -159 -388 -193z" />
    <glyph glyph-name="uni03BC" unicode="&#x3bc;" horiz-adv-x="1312" 
d="M860 475v582h324v-1057h-312v225q-113 -248 -378 -248q-38 0 -54 3v-371h-309v1448h326v-592q0 -121 41.5 -172t140.5 -51q107 0 164 59.5t57 173.5z" />
    <glyph glyph-name="pi" unicode="&#x3c0;" horiz-adv-x="1419" 
d="M1294 248h99v-236q-75 -20 -152 -20q-169 0 -270 94q-103 94 -103 250v473h-348v-809h-323v809h-199v248h1393v-248h-197v-442q0 -66 22.5 -92.5t77.5 -26.5z" />
    <glyph glyph-name="Wgrave" unicode="&#x1e80;" horiz-adv-x="2412" 
d="M1223 1948l104 -353h-231l-181 353h308zM1772 426l217 1020h387l-340 -1446h-584l-190 936l-54 338l-55 -338l-190 -936h-586l-340 1446h389l219 -1020l49 -283l43 283l199 1020h543l200 -1020l43 -283z" />
    <glyph glyph-name="wgrave" unicode="&#x1e81;" horiz-adv-x="1861" 
d="M958 1559l105 -353h-232l-180 353h307zM1380 389l140 668h319l-240 -1057h-499l-127 645l-35 238l-33 -238l-127 -645h-516l-239 1057h339l142 -668l37 -264l32 264l123 668h492l123 -668l32 -254z" />
    <glyph glyph-name="Wacute" unicode="&#x1e82;" horiz-adv-x="2412" 
d="M1184 1948h307l-180 -353h-232zM1772 426l217 1020h387l-340 -1446h-584l-190 936l-54 338l-55 -338l-190 -936h-586l-340 1446h389l219 -1020l49 -283l43 283l199 1020h543l200 -1020l43 -283z" />
    <glyph glyph-name="wacute" unicode="&#x1e83;" horiz-adv-x="1861" 
d="M920 1559h307l-180 -353h-232zM1380 389l140 668h319l-240 -1057h-499l-127 645l-35 238l-33 -238l-127 -645h-516l-239 1057h339l142 -668l37 -264l32 264l123 668h492l123 -668l32 -254z" />
    <glyph glyph-name="Wdieresis" unicode="&#x1e84;" horiz-adv-x="2412" 
d="M860 1919h297v-289h-297v289zM1253 1919h297v-289h-297v289zM1772 426l217 1020h387l-340 -1446h-584l-190 936l-54 338l-55 -338l-190 -936h-586l-340 1446h389l219 -1020l49 -283l43 283l199 1020h543l200 -1020l43 -283z" />
    <glyph glyph-name="wdieresis" unicode="&#x1e85;" horiz-adv-x="1861" 
d="M596 1530h297v-289h-297v289zM989 1530h297v-289h-297v289zM1380 389l140 668h319l-240 -1057h-499l-127 645l-35 238l-33 -238l-127 -645h-516l-239 1057h339l142 -668l37 -264l32 264l123 668h492l123 -668l32 -254z" />
    <glyph glyph-name="uni1EA0" unicode="&#x1ea0;" horiz-adv-x="1564" 
d="M1090 1446l452 -1446h-362l-111 356h-584l-110 -356h-352l452 1446h615zM692 1020l-123 -395h416l-123 395l-86 313zM958 -426h-346v285h346v-285z" />
    <glyph glyph-name="uni1EA1" unicode="&#x1ea1;" horiz-adv-x="1204" 
d="M1174 227h2v-227q-74 -20 -162 -20q-246 0 -260 215q-49 -105 -145 -165.5t-228 -60.5q-139 0 -225 72t-86 190q0 226 307 281q307 57 366 80v33q0 115 -37.5 166t-123.5 51t-124 -50.5t-38 -164.5h-314q0 209 134 335q134 125 350 125q215 0 340 -116q125 -117 125 -318
v-301q0 -82 21 -103q19 -22 98 -22zM518 190q103 0 164 58t61 166v37q-61 -20 -213 -56q-83 -19 -110 -43t-27 -71q0 -91 125 -91zM797 -426h-346v285h346v-285z" />
    <glyph glyph-name="uni1EB8" unicode="&#x1eb8;" horiz-adv-x="1339" 
d="M510 596v-305h715v-291h-1063v1446h1055v-291h-707v-293h672v-266h-672zM872 -426h-346v285h346v-285z" />
    <glyph glyph-name="uni1EB9" unicode="&#x1eb9;" horiz-adv-x="1247" 
d="M1167 592v-137h-749q12 -126 67.5 -184t161.5 -58q199 0 199 137h315q0 -172 -144 -276q-145 -105 -380 -105q-250 0 -403 154q-154 153 -154 405t154 406q153 153 403 153q239 0 384 -136q146 -137 146 -359zM422 627l207 4h215q-8 111 -58 162t-149 51q-97 0 -149 -52
t-66 -165zM807 -426h-346v285h346v-285z" />
    <glyph glyph-name="uni1EBC" unicode="&#x1ebc;" horiz-adv-x="1339" 
d="M551 1710q-86 0 -86 -86h-160q0 309 234 309q63 0 151 -45q89 -45 137 -45q86 0 86 86h160q0 -309 -233 -309q-62 0 -151 45t-138 45zM510 596v-305h715v-291h-1063v1446h1055v-291h-707v-293h672v-266h-672z" />
    <glyph glyph-name="uni1EBD" unicode="&#x1ebd;" horiz-adv-x="1247" 
d="M498 1321q-86 0 -86 -86h-160q0 309 233 309q63 0 152 -45t137 -45q86 0 86 86h160q0 -309 -234 -309q-62 0 -151 45t-137 45zM1167 592v-137h-749q12 -126 67.5 -184t161.5 -58q199 0 199 137h315q0 -172 -144 -276q-145 -105 -380 -105q-250 0 -403 154
q-154 153 -154 405t154 406q153 153 403 153q239 0 384 -136q146 -137 146 -359zM422 627l207 4h215q-8 111 -58 162t-149 51q-97 0 -149 -52t-66 -165z" />
    <glyph glyph-name="uni1ECA" unicode="&#x1eca;" horiz-adv-x="671" 
d="M162 0v1446h348v-1446h-348zM164 -426v285h346v-285h-346z" />
    <glyph glyph-name="uni1ECB" unicode="&#x1ecb;" horiz-adv-x="577" 
d="M121 1241v289h346v-289h-346zM131 0v1057h326v-1057h-326zM117 -426v285h346v-285h-346z" />
    <glyph glyph-name="uni1ECC" unicode="&#x1ecc;" horiz-adv-x="1654" 
d="M1365 176q-204 -207 -537 -207q-334 0 -538 207t-204 547t204 547t538 207q333 0 537 -207t204 -547t-204 -547zM535 377q91 -109 293 -109q201 0 292 109q92 109 92 346t-92 346q-92 107 -292 107q-201 0 -293 -107q-93 -108 -93 -346t93 -346zM653 -426v285h346v-285
h-346z" />
    <glyph glyph-name="uni1ECD" unicode="&#x1ecd;" horiz-adv-x="1290" 
d="M1055 123q-155 -154 -410 -154t-409 154q-156 153 -156 405t156 406q154 153 409 153q254 0 410 -153q155 -155 155 -406q0 -252 -155 -405zM471 293q56 -74 174 -74t174 74q55 73 55 236q0 162 -55 235q-56 74 -174 74t-174 -74q-55 -73 -55 -235q0 -163 55 -236z
M471 -426v285h346v-285h-346z" />
    <glyph glyph-name="uni1EE4" unicode="&#x1ee4;" horiz-adv-x="1568" 
d="M143 512v934h349v-903q0 -144 68.5 -208.5t223.5 -64.5q154 0 223.5 64.5t69.5 208.5v903h348v-934q0 -244 -177 -393q-177 -150 -464 -150q-290 0 -465 150q-176 149 -176 393zM610 -426v285h346v-285h-346z" />
    <glyph glyph-name="uni1EE5" unicode="&#x1ee5;" horiz-adv-x="1312" 
d="M860 475v582h324v-1057h-312v225q-54 -122 -153.5 -189t-233.5 -67q-168 0 -261 98.5t-93 274.5v715h326v-592q0 -121 41.5 -172t140.5 -51q107 0 164 59.5t57 173.5zM825 -426h-346v285h346v-285z" />
    <glyph glyph-name="Ygrave" unicode="&#x1ef2;" horiz-adv-x="1421" 
d="M739 1948l105 -353h-232l-180 353h307zM1071 1446h359l-545 -1045v-401h-348v401l-543 1045h377l243 -483l109 -258l106 258z" />
    <glyph glyph-name="ygrave" unicode="&#x1ef3;" horiz-adv-x="1208" 
d="M610 1559l105 -353h-232l-180 353h307zM668 389l194 668h330l-348 -1184q-39 -131 -149 -208q-112 -77 -263 -77q-135 0 -258 21v235h199q143 0 170 95l18 61h-235l-312 1057h340l193 -668l59 -264z" />
    <glyph glyph-name="uni1EF8" unicode="&#x1ef8;" horiz-adv-x="1421" 
d="M584 1710q-86 0 -86 -86h-160q0 309 233 309q63 0 152 -45q88 -45 137 -45q86 0 86 86h160q0 -309 -234 -309q-62 0 -151 45q-88 45 -137 45zM1071 1446h359l-545 -1045v-401h-348v401l-543 1045h377l243 -483l109 -258l106 258z" />
    <glyph glyph-name="uni1EF9" unicode="&#x1ef9;" horiz-adv-x="1208" 
d="M453 1321q-86 0 -86 -86h-160q0 309 233 309q63 0 152 -45q88 -45 137 -45q86 0 86 86h160q0 -309 -234 -309q-63 0 -151 45t-137 45zM668 389l194 668h330l-348 -1184q-39 -131 -149 -208q-112 -77 -263 -77q-135 0 -258 21v235h199q143 0 170 95l18 61h-235l-312 1057
h340l193 -668l59 -264z" />
    <glyph glyph-name="endash" unicode="&#x2013;" horiz-adv-x="1169" 
d="M78 647h1034v-250h-1034v250z" />
    <glyph glyph-name="emdash" unicode="&#x2014;" horiz-adv-x="1742" 
d="M78 647h1608v-250h-1608v250z" />
    <glyph glyph-name="quoteleft" unicode="&#x2018;" horiz-adv-x="516" 
d="M412 1112v-203h-324v260q0 143 96 226q94 82 265 82v-138q-103 0 -151 -35.5t-48 -115.5z" />
    <glyph glyph-name="quoteright" unicode="&#x2019;" horiz-adv-x="522" 
d="M104 1241v205h324v-260q0 -142 -95 -225q-94 -82 -265 -82v135q103 0 150.5 35.5t47.5 115.5z" />
    <glyph glyph-name="quotesinglbase" unicode="&#x201a;" horiz-adv-x="532" 
d="M104 61v287h361v-348q0 -170 -106 -269q-107 -98 -291 -98v150q115 0 168 46t53 148z" />
    <glyph glyph-name="quotedblleft" unicode="&#x201c;" horiz-adv-x="935" 
d="M831 1112v-203h-323v260q0 143 95 226q94 82 265 82v-138q-103 0 -150.5 -35.5t-47.5 -115.5zM412 1104v-195h-324v248q0 141 96 222q95 81 265 81v-135q-103 0 -151 -34t-48 -109z" />
    <glyph glyph-name="quotedblright" unicode="&#x201d;" horiz-adv-x="942" 
d="M104 1241v205h324v-260q0 -142 -95 -225q-94 -82 -265 -82v135q103 0 150.5 35.5t47.5 115.5zM524 1249v197h324v-248q0 -143 -95 -224q-96 -81 -266 -81v137q103 0 151 34.5t48 109.5z" />
    <glyph glyph-name="quotedblbase" unicode="&#x201e;" horiz-adv-x="532" 
d="M104 61v287h361v-348q0 -170 -106 -269q-107 -98 -291 -98v150q115 0 168 46t53 148z" />
    <glyph glyph-name="dagger" unicode="&#x2020;" horiz-adv-x="905" 
d="M608 752h252v-248h-252v-320h-311v320h-252v248h252v694h311v-694z" />
    <glyph glyph-name="daggerdbl" unicode="&#x2021;" horiz-adv-x="905" 
d="M860 1212v-241h-252v-322h252v-241h-252v-248h-311v248h-252v241h252v322h-252v241h252v234h311v-234h252z" />
    <glyph glyph-name="bullet" unicode="&#x2022;" horiz-adv-x="663" 
d="M100 309v463h463v-463h-463z" />
    <glyph glyph-name="ellipsis" unicode="&#x2026;" horiz-adv-x="1536" 
d="M113 0v332h342v-332h-342zM608 0v332h344v-332h-344zM1106 0v332h342v-332h-342z" />
    <glyph glyph-name="perthousand" unicode="&#x2030;" horiz-adv-x="2093" 
d="M673 864q-103 -98 -269 -98q-168 0 -269 99q-102 98 -102 257q0 158 102 257q101 98 269 98q166 0 269 -98q101 -99 101 -257q0 -160 -101 -258zM1114 1446h338l-360 -658h-297zM509 1231q-41 41 -105 41q-65 0 -106 -41q-40 -40 -40 -109t40 -110t106 -41q65 0 105 41
t40 110t-40 109zM1706 682q157 0 255 -98q97 -98 97 -258q0 -161 -97 -258q-97 -99 -255 -99q-114 0 -194 61t-113 169q-31 -107 -112.5 -168.5t-194.5 -61.5q-158 0 -254 99q-97 97 -97 258q0 160 97 258q96 98 254 98q114 0 195 -61t112 -168q33 107 113.5 168t193.5 61z
M412 0h-338l360 657h297zM1008 217q39 -41 105 -41q64 0 105 41q39 41 39 109t-39 108q-41 41 -105 41q-66 0 -105 -41q-39 -40 -39 -108t39 -109zM1581 217q39 -41 105 -41q64 0 105 41q40 40 40 109q0 68 -40 108q-41 41 -105 41q-66 0 -105 -41q-39 -40 -39 -108t39 -109
z" />
    <glyph glyph-name="guilsinglleft" unicode="&#x2039;" horiz-adv-x="626" 
d="M252 913h356l-379 -385l379 -385h-356l-201 209v353z" />
    <glyph glyph-name="guilsinglright" unicode="&#x203a;" horiz-adv-x="626" 
d="M18 913h357l200 -208v-353l-200 -209h-357l379 385z" />
    <glyph glyph-name="fraction" unicode="&#x2044;" horiz-adv-x="370" 
d="M-492 0l1131 1446h254l-1131 -1446h-254z" />
    <glyph glyph-name="uni20AA" unicode="&#x20aa;" horiz-adv-x="1820" 
d="M979 383v647q0 86 -32 122t-107 36h-375v-1188h-324v1446h719q163 0 266 -101q101 -103 101 -270v-692h-248zM1356 416v1030h323v-1026q-6 -189 -114 -305q-109 -115 -289 -115h-682v1063h250v-805h360q82 0 117 36t35 122z" />
    <glyph glyph-name="Euro" unicode="&#x20ac;" horiz-adv-x="1525" 
d="M500 952h366l-28 -182h-871v182h176q58 243 236 385q176 140 428 140q273 0 449 -157q176 -158 176 -417h-345q0 143 -67.5 208t-212.5 65q-245 0 -307 -224zM807 266q147 0 213.5 59.5t66.5 192.5h345q0 -254 -175 -401q-175 -148 -450 -148q-249 0 -424 139
q-176 138 -236 375h-180v183h854l-28 -183h-289q61 -217 303 -217z" />
    <glyph glyph-name="uni2113" unicode="&#x2113;" horiz-adv-x="1005" 
d="M971 1071q0 -241 -128 -392q-127 -151 -337 -157v-162q0 -68 26 -96t86 -28h189v-232q-133 -26 -258 -24q-176 0 -272.5 88t-96.5 249v205h-149v234h149v407q0 185 111 301q109 115 291 115q177 0 283 -139t106 -369zM506 1139v-383h2q102 0 141 69q39 67 39 246
q0 151 -20 209q-21 57 -74 57q-48 0 -68 -42q-20 -45 -20 -156z" />
    <glyph glyph-name="uni2116" unicode="&#x2116;" horiz-adv-x="2516" 
d="M2101 1477q169 0 272 -93q103 -94 103 -245q0 -152 -103 -245t-272 -93q-170 0 -272 93q-103 93 -103 245q0 151 103 245q102 93 272 93zM1217 154l-13 501v791h344v-1446h-604l-450 1307l12 -496v-811h-344v1446h608zM2005 1027q31 -36 97 -36q64 0 96 36q30 36 30 112
q0 78 -30 112.5t-96 34.5t-97 -35t-31 -112t31 -112zM2253 432h-305v254h305v-254z" />
    <glyph glyph-name="trademark" unicode="&#x2122;" horiz-adv-x="1908" 
d="M6 1446h684v-186h-227v-469h-230v469h-227v186zM1446 1446h407v-655h-229v444l6 149l-137 -593h-352l-137 595l6 -151v-444h-230v655h414l104 -426l23 -139l22 139z" />
    <glyph glyph-name="onethird" unicode="&#x2153;" horiz-adv-x="1562" 
d="M72 0l1130 1446h254l-1130 -1446h-254zM365 1186l4 180l-80 -86l-185 -162v234l109 94h362v-660h-210v400zM1294 365q201 -25 201 -183q0 -90 -86 -146t-227 -56q-135 0 -217 67q-82 66 -82 174h204q0 -80 95 -80q100 0 100 66q0 61 -84 61h-102v127h90q36 0 54 15t17 45
q0 75 -77 73q-80 0 -80 -84h-207q0 112 78 180q78 66 209 66q130 0 209 -51t79 -135q0 -121 -174 -139z" />
    <glyph glyph-name="twothirds" unicode="&#x2154;" horiz-adv-x="1607" 
d="M295 956h348v-170h-575v281l290 92q40 14 55 34t15 58q0 76 -74 76q-82 0 -82 -104h-204q0 114 80 185q80 69 210 69t204 -61q75 -61 75 -163q0 -72 -45 -121t-146 -85l-180 -66l-104 -29zM123 0l1130 1446h254l-1130 -1446h-254zM1339 365q201 -25 201 -183
q0 -90 -86 -146t-227 -56q-135 0 -217 67q-82 66 -82 174h207q0 -80 92 -80q102 0 102 66q0 61 -86 61h-100v127h90q70 0 70 60q0 74 -76 73q-80 0 -80 -84h-207q0 112 78 180q78 66 207 66q131 0 210 -51q78 -51 78 -135q0 -121 -174 -139z" />
    <glyph glyph-name="oneeighth" unicode="&#x215b;" horiz-adv-x="1576" 
d="M78 0l1130 1446h254l-1130 -1446h-254zM356 1186l4 180l-79 -86l-185 -162v234l109 94h362v-660h-211v400zM1333 344q184 -37 185 -176q0 -86 -86 -137t-229 -51t-229 51q-85 51 -85 137q0 138 182 176q-166 31 -166 154q0 88 82 140t215 52t215 -52t82 -140
q0 -123 -166 -154zM1202 537q-88 0 -88 -76q0 -72 88 -72q90 0 90 72q0 76 -90 76zM1202 133q103 0 105 80q0 74 -105 74q-102 0 -102 -74q0 -80 102 -80z" />
    <glyph glyph-name="threeeighths" unicode="&#x215c;" horiz-adv-x="1611" 
d="M367 928q102 0 102 65q0 58 -86 60h-100v127h90q35 0 52.5 15t16.5 44q0 76 -75 76q-80 0 -80 -84h-207q0 113 78 180q78 66 207 66q131 0 210 -51q78 -52 78 -136q0 -121 -174 -139q201 -25 201 -184q0 -89 -86 -145t-227 -56q-135 0 -217 67q-82 66 -82 175h206
q2 -80 93 -80zM113 0l1130 1446h254l-1130 -1446h-254zM1364 344q184 -37 184 -176q0 -86 -86 -137t-229 -51t-228 51t-85 137q0 138 182 176q-166 31 -166 154q0 88 82 140t215 52t215 -52t82 -140q0 -123 -166 -154zM1233 537q-88 0 -88 -76q0 -72 88 -72q90 0 90 72
q0 76 -90 76zM1233 133q104 0 104 80q0 74 -104 74q-101 0 -103 -74q2 -80 103 -80z" />
    <glyph glyph-name="fiveeighths" unicode="&#x215d;" horiz-adv-x="1597" 
d="M377 920q41 0 59.5 18t18.5 59q0 91 -78 93q-61 0 -101 -48h-182l25 404h518v-168h-248l-98 2l-10 -176q55 109 184 108q90 0 147 -58q56 -59 56 -153q0 -105 -80 -170t-211 -65t-211 65t-80 168h207q0 -79 84 -79zM86 0l1131 1446h253l-1130 -1446h-254zM1350 344
q184 -39 184 -176q0 -86 -86 -137t-229 -51q-145 0 -230 51q-86 51 -86 137q0 137 184 176q-83 16 -124.5 54.5t-40.5 99.5q0 88 82 140q80 52 215 52q133 0 215 -52t82 -140q0 -123 -166 -154zM1307 461q0 76 -88 76q-89 0 -89 -76q0 -72 89 -72q88 0 88 72zM1116 213
q0 -80 103 -80q102 0 102 80q0 74 -102 74q-103 0 -103 -74z" />
    <glyph glyph-name="seveneighths" unicode="&#x215e;" horiz-adv-x="1558" 
d="M59 0l1131 1446h254l-1131 -1446h-254zM604 1278l-143 -2h-293v170h494v-285q-84 -45 -137 -146q-54 -102 -54 -229h-213q0 152 90 287t256 205zM1317 344q182 -38 182 -176q0 -86 -86 -137q-85 -51 -227 -51q-144 0 -229 51q-87 51 -87 137q0 138 185 176
q-166 31 -166 154q0 88 82 140t215 52q134 0 214 -52q81 -52 81 -140q0 -122 -164 -154zM1186 537q-90 0 -90 -76q0 -72 90 -72q88 0 88 72q0 76 -88 76zM1186 133q102 0 102 80q0 74 -102 74q-103 0 -105 -74q2 -80 105 -80z" />
    <glyph glyph-name="arrowleft" unicode="&#x2190;" horiz-adv-x="1517" 
d="M500 838l948 22v-276l-946 20l383 -366l-180 -179l-664 664l664 666l178 -183z" />
    <glyph glyph-name="arrowup" unicode="&#x2191;" horiz-adv-x="1484" 
d="M743 1466l664 -663l-180 -180l-367 383l23 -947h-277l23 949l-369 -383l-182 178z" />
    <glyph glyph-name="arrowright" unicode="&#x2192;" horiz-adv-x="1517" 
d="M635 1206l178 183l664 -666l-664 -664l-180 179l383 366l-946 -20v276l948 -22z" />
    <glyph glyph-name="arrowdown" unicode="&#x2193;" horiz-adv-x="1484" 
d="M856 469l369 383l182 -178l-666 -664l-663 664l180 180l367 -383l-23 946h277z" />
    <glyph glyph-name="arrowboth" unicode="&#x2194;" horiz-adv-x="2138" 
d="M1249 1214l178 183l646 -645l-646 -643l-178 180l371 354h-1102l369 -352l-176 -182l-645 643l645 645l178 -180l-367 -351h1092z" />
    <glyph glyph-name="arrowupdn" unicode="&#x2195;" horiz-adv-x="1406" 
d="M817 1237v-1067l354 373l177 -174l-646 -645l-643 643l177 176l358 -379v1079l-361 -381l-174 170l643 645l646 -643l-174 -172z" />
    <glyph glyph-name="uni2196" unicode="&#x2196;" horiz-adv-x="1232" 
d="M496 1040l686 -655l-197 -195l-651 682l12 -528h-256v938l938 2v-254z" />
    <glyph glyph-name="uni2197" unicode="&#x2197;" horiz-adv-x="1232" 
d="M201 1049l-2 256l940 -2v-938l-256 -3l12 531l-653 -682l-195 195l686 653z" />
    <glyph glyph-name="uni2198" unicode="&#x2198;" horiz-adv-x="1234" 
d="M897 664l-10 532h254l-2 -938h-938l-2 256l530 -12l-682 651l195 197z" />
    <glyph glyph-name="uni2199" unicode="&#x2199;" horiz-adv-x="1234" 
d="M993 1350l195 -197l-682 -651l530 12l-2 -256h-938l-2 938h254l-10 -532z" />
    <glyph glyph-name="partialdiff" unicode="&#x2202;" horiz-adv-x="1261" 
d="M182 1589l369 -63q305 -56 480 -268q175 -214 175 -529q0 -342 -158 -551q-159 -209 -421 -209q-246 0 -396 151q-151 150 -151 394q0 222 124 358t326 136q130 0 227 -62.5t140 -171.5v17q0 213 -70 301t-266 120l-379 50v327zM637 225q117 0 170 70t53 221
q0 145 -51.5 212t-165.5 67q-119 0 -173 -68t-54 -213q0 -150 53 -219.5t168 -69.5z" />
    <glyph glyph-name="product" unicode="&#x220f;" horiz-adv-x="1472" 
d="M55 1446h1362v-291h-196v-1546h-336v1546h-297v-1546h-336v1546h-197v291z" />
    <glyph glyph-name="summation" unicode="&#x2211;" horiz-adv-x="1193" 
d="M1102 1444v-291h-553l-387 12l801 -403v-469l-803 -406l389 11h553v-291l-1012 2v522l604 313l189 84l-189 82l-604 316v520z" />
    <glyph glyph-name="minus" unicode="&#x2212;" horiz-adv-x="1009" 
d="M84 653h842v-221h-842v221z" />
    <glyph glyph-name="uni2215" unicode="&#x2215;" horiz-adv-x="665" 
d="M0 -391l344 1950h311l-344 -1950h-311z" />
    <glyph glyph-name="uni2219" unicode="&#x2219;" horiz-adv-x="618" 
d="M90 324v436h438v-436h-438z" />
    <glyph glyph-name="radical" unicode="&#x221a;" horiz-adv-x="1323" 
d="M748 1446h606v-291h-363l-295 -1546h-514l-248 1057h293l150 -678l55 -297l49 297z" />
    <glyph glyph-name="infinity" unicode="&#x221e;" horiz-adv-x="2021" 
d="M1473 991q213 0 343 -123t130 -323q0 -201 -130 -324t-343 -123q-270 0 -465 252q-92 -119 -203 -185q-110 -67 -268 -67q-206 0 -334 123q-127 123 -127 324q0 200 127 323q128 123 334 123q159 0 268 -66q110 -68 203 -186q195 252 465 252zM573 336q86 0 154 50
t143 159q-73 103 -139 156q-68 53 -158 53q-108 0 -157 -50t-49 -159t49 -159t157 -50zM1448 336q108 0 157.5 50t49.5 159q0 108 -49.5 158.5t-157.5 50.5q-91 0 -159 -53q-70 -56 -142 -156q73 -101 142 -155q67 -54 159 -54z" />
    <glyph glyph-name="integral" unicode="&#x222b;" horiz-adv-x="927" 
d="M797 1477q103 0 188 -21l-43 -235h-141q-72 0 -109 -33t-49 -111l-199 -1124q-29 -165 -159 -265t-314 -100q-102 0 -188 21l41 235h143q72 0 108 33t50 111l199 1124q27 164 158 265q130 100 315 100z" />
    <glyph glyph-name="approxequal" unicode="&#x2248;" horiz-adv-x="1218" 
d="M289 596h-205q0 161 91 265q92 104 233 104q59 2 120.5 -21t103.5 -51t91.5 -50t87.5 -20q55 0 87 38.5t32 94.5h205q0 -166 -90 -267q-92 -101 -234 -101q-59 -2 -120 20.5t-102 50t-91 50t-90 20.5q-55 0 -87 -38.5t-32 -94.5zM289 113h-205q0 161 91 264
q92 104 233 104q59 2 120.5 -20.5t103.5 -50t91.5 -50t87.5 -20.5q55 0 87 38.5t32 94.5h205q0 -167 -90 -267q-91 -102 -234 -102q-49 -1 -97 13.5t-86.5 36.5t-74.5 43.5t-74 36t-71 12.5q-55 0 -87 -38.5t-32 -94.5z" />
    <glyph glyph-name="notequal" unicode="&#x2260;" horiz-adv-x="1116" 
d="M967 885v-223h-265l-143 -238h408v-223h-535l-96 -156h-217l96 156h-131v223h258l143 238h-401v223h522l103 164h217l-103 -164h144z" />
    <glyph glyph-name="lessequal" unicode="&#x2264;" horiz-adv-x="1026" 
d="M84 842l858 200v-221l-764 -155l764 -158v-223l-858 200v357zM942 47h-858v221h858v-221z" />
    <glyph glyph-name="greaterequal" unicode="&#x2265;" horiz-adv-x="1026" 
d="M84 821v221l858 -200v-357l-858 -200v223l764 158zM942 47h-858v221h858v-221z" />
    <glyph glyph-name="uni2460" unicode="&#x2460;" horiz-adv-x="1667" 
d="M1392 176q-212 -207 -558 -207q-348 0 -559 207q-212 207 -212 547t212 547q211 207 559 207q346 0 558 -207t212 -547t-212 -547zM405 291q162 -164 429 -164q265 0 429 164q162 163 162 432t-162 432q-164 164 -429 164q-267 0 -429 -164q-163 -163 -163 -432t163 -432
zM707 911l-213 -186v262l131 117h409v-760h-239v459l4 213z" />
    <glyph glyph-name="uni2461" unicode="&#x2461;" horiz-adv-x="1667" 
d="M1392 176q-212 -207 -558 -207q-348 0 -559 207q-212 207 -212 547t212 547q211 207 559 207q346 0 558 -207t212 -547t-212 -547zM405 291q162 -164 429 -164q265 0 429 164q162 163 162 432t-162 432q-164 164 -429 164q-267 0 -429 -164q-163 -163 -163 -432t163 -432
zM1178 342h-662v320l332 108q46 15 65 39t19 65q0 87 -86 89q-94 0 -94 -121h-238q0 131 93 212t243 81q146 0 234 -71q87 -70 87 -187q0 -84 -52 -140.5t-167 -97.5l-209 -76l-112 -31l145 3h402v-193z" />
    <glyph glyph-name="uni2462" unicode="&#x2462;" horiz-adv-x="1667" 
d="M1392 176q-212 -207 -558 -207q-348 0 -559 207q-212 207 -212 547t212 547q211 207 559 207q346 0 558 -207t212 -547t-212 -547zM405 291q162 -164 429 -164q265 0 429 164q162 163 162 432t-162 432q-164 164 -429 164q-267 0 -429 -164q-163 -163 -163 -432t163 -432
zM483 594h238q0 -92 106 -92q117 0 117 73q0 72 -98 72h-117v146h105q40 0 60 16.5t19 50.5q0 86 -88 86q-92 0 -92 -94h-237q0 128 90 204q91 77 240 77q148 0 240 -59q91 -60 91 -156q0 -67 -52.5 -108.5t-152.5 -49.5q232 -27 234 -213q0 -103 -99 -168
q-100 -64 -262 -64q-153 0 -248 77q-94 76 -94 202z" />
    <glyph glyph-name="uni2463" unicode="&#x2463;" horiz-adv-x="1667" 
d="M1392 176q-212 -207 -558 -207q-348 0 -559 207q-212 207 -212 547t212 547q211 207 559 207q346 0 558 -207t212 -547t-212 -547zM405 291q162 -164 429 -164q265 0 429 164q162 163 162 432t-162 432q-164 164 -429 164q-267 0 -429 -164q-163 -163 -163 -432t163 -432
zM817 477h-313v367l170 260h383v-449h110v-178h-110v-133h-240v133zM823 1059l-266 -408l88 2l172 2v199z" />
    <glyph glyph-name="uni2464" unicode="&#x2464;" horiz-adv-x="1667" 
d="M1392 176q-212 -207 -558 -207q-348 0 -559 207q-212 207 -212 547t212 547q211 207 559 207q346 0 558 -207t212 -547t-212 -547zM405 291q162 -164 429 -164q265 0 429 164q162 163 162 432t-162 432q-164 164 -429 164q-267 0 -429 -164q-163 -163 -163 -432t163 -432
zM500 586h237q0 -92 99 -92q90 0 90 90q0 104 -92 104q-72 0 -115 -51h-209l29 465h594v-193h-283l-113 2l-12 -204q63 123 211 122q104 0 169 -66q64 -67 64 -175q0 -121 -92 -196q-91 -75 -241 -75q-152 0 -244 74t-92 195z" />
    <glyph glyph-name="uni2465" unicode="&#x2465;" horiz-adv-x="1667" 
d="M1392 176q-212 -207 -558 -207q-348 0 -559 207q-212 207 -212 547t212 547q211 207 559 207q346 0 558 -207t212 -547t-212 -547zM405 291q162 -164 429 -164q265 0 429 164q162 163 162 432t-162 432q-164 164 -429 164q-267 0 -429 -164q-163 -163 -163 -432t163 -432
zM459 721q0 186 107 299t280 113q155 0 249 -71q93 -71 93 -185h-238q0 81 -104 79q-76 0 -111 -56t-35 -179v-43q24 64 86.5 101.5t149.5 37.5q115 0 186 -62q70 -63 70 -165q0 -125 -93 -200t-245 -75q-189 0 -292 105.5t-103 300.5zM842 680q-129 0 -129 -90t131 -90
q57 0 81.5 21t24.5 69q0 47 -25.5 68.5t-82.5 21.5z" />
    <glyph glyph-name="uni2466" unicode="&#x2466;" horiz-adv-x="1667" 
d="M1392 176q-212 -207 -558 -207q-348 0 -559 207q-212 207 -212 547t212 547q211 207 559 207q346 0 558 -207t212 -547t-212 -547zM405 291q162 -164 429 -164q265 0 429 164q162 163 162 432t-162 432q-164 164 -429 164q-267 0 -429 -164q-163 -163 -163 -432t163 -432
zM895 907h-336v197h569v-330q-95 -49 -157 -165q-62 -118 -62 -265h-245q0 176 102 330q102 153 291 237z" />
    <glyph glyph-name="uni2467" unicode="&#x2467;" horiz-adv-x="1667" 
d="M1392 176q-212 -207 -558 -207q-348 0 -559 207q-212 207 -212 547t212 547q211 207 559 207q346 0 558 -207t212 -547t-212 -547zM405 291q162 -164 429 -164q265 0 429 164q162 163 162 432t-162 432q-164 164 -429 164q-267 0 -429 -164q-163 -163 -163 -432t163 -432
zM473 532q0 160 207 201q-188 41 -188 180q0 98 94 159t248 61t248 -60q94 -61 94 -160q0 -139 -189 -180q207 -41 207 -201q0 -98 -98 -157q-99 -60 -262 -60q-164 0 -262 60q-99 59 -99 157zM731 868q0 -82 103 -82q102 0 102 82q0 47 -24 67.5t-78 20.5t-78.5 -20.5
t-24.5 -67.5zM715 584q0 -92 119 -92q118 0 118 92q0 45 -28 64.5t-90 19.5t-90.5 -19.5t-28.5 -64.5z" />
    <glyph glyph-name="uni2468" unicode="&#x2468;" horiz-adv-x="1667" 
d="M1392 176q-212 -207 -558 -207q-348 0 -559 207q-212 207 -212 547t212 547q211 207 559 207q346 0 558 -207t212 -547t-212 -547zM405 291q162 -164 429 -164q265 0 429 164q162 163 162 432t-162 432q-164 164 -429 164q-267 0 -429 -164q-163 -163 -163 -432t163 -432
zM487 860q0 123 94 198q93 75 244 75q189 0 292.5 -106t103.5 -302q0 -185 -105 -297q-107 -113 -278 -113q-156 0 -251 72t-95 188h237q0 -84 109 -83q74 0 107.5 56t33.5 177v43q-24 -62 -83.5 -99.5t-141.5 -37.5q-120 0 -194 63q-73 61 -73 166zM729 860
q0 -47 25.5 -68.5t83.5 -21.5q129 0 129 90q0 88 -131 88q-107 0 -107 -88z" />
    <glyph glyph-name="uni24EA" unicode="&#x24ea;" horiz-adv-x="1667" 
d="M1392 176q-212 -207 -558 -207q-348 0 -559 207q-212 207 -212 547t212 547q211 207 559 207q346 0 558 -207t212 -547t-212 -547zM405 291q162 -164 429 -164q265 0 429 164q162 163 162 432t-162 432q-164 164 -429 164q-267 0 -429 -164q-163 -163 -163 -432t163 -432
zM1113 428q-107 -113 -279 -113q-171 0 -278 113t-107 297q0 182 107 295t278 113q172 0 279 -113q106 -112 106 -295q0 -185 -106 -297zM726 573q34 -45 108 -45q72 0 107 45q34 44 34 150q0 105 -34 151t-107 46q-74 0 -108 -46t-34 -151q0 -106 34 -150z" />
    <glyph glyph-name="uni24FF" unicode="&#x24ff;" horiz-adv-x="1667" 
d="M1392 177q-211 -208 -558 -208q-348 0 -559 208q-212 209 -212 548q0 338 212 545q211 207 559 207q346 0 558 -207t212 -545q0 -339 -212 -548zM556 428q107 -113 278 -113q172 0 279 113q106 112 106 297q0 183 -106 295q-107 113 -279 113q-171 0 -278 -113t-107 -295
q0 -184 107 -297zM941 573q-35 -45 -107 -45q-74 0 -108 45q-34 44 -34 150q0 105 34 151t108 46q73 0 107 -46t34 -151q0 -106 -34 -150z" />
    <glyph glyph-name="lozenge" unicode="&#x25ca;" horiz-adv-x="1257" 
d="M365 1446h532l289 -723l-291 -723h-533l-290 723zM377 723l252 -653l252 653l-252 655z" />
    <glyph glyph-name="uni2766" unicode="&#x2766;" horiz-adv-x="915" 
d="M57 395h-32v299h32q0 -14 5.5 -21.5t15.5 -6.5q18 0 18 28h504v-299h-504q0 29 -18 29q-19 0 -21 -29zM647 408v274q94 0 169 -45t75 -92t-75 -92t-169 -45zM561 436v37h-438v-37h438z" />
    <glyph glyph-name="uni2776" unicode="&#x2776;" horiz-adv-x="1667" 
d="M1392 178q-212 -209 -558 -209q-347 0 -559 209t-212 547t212 545q211 207 559 207q346 0 558 -207t212 -545t-212 -547zM494 987v-262l213 186l92 105l-4 -213v-459h239v760h-409z" />
    <glyph glyph-name="uni2777" unicode="&#x2777;" horiz-adv-x="1667" 
d="M1392 177q-211 -208 -558 -208q-348 0 -559 208q-212 209 -212 548q0 338 212 545q211 207 559 207q346 0 558 -207t212 -545q0 -339 -212 -548zM516 662v-320h662v193h-402l-145 -3l112 31l209 76q115 41 167 97.5t52 140.5q0 117 -87 188q-86 70 -234 70
q-150 0 -243 -81t-93 -212h238q0 121 94 121q86 0 86 -89q0 -42 -18.5 -65t-65.5 -39z" />
    <glyph glyph-name="uni2778" unicode="&#x2778;" horiz-adv-x="1667" 
d="M1392 177q-211 -208 -558 -208q-348 0 -559 208q-212 209 -212 548q0 338 212 545q211 207 559 207q346 0 558 -207t212 -545q0 -339 -212 -548zM721 594h-238q0 -125 95 -202t247 -77q162 0 262 64q99 63 99 168q0 186 -234 213q99 8 152 49.5t53 108.5q0 96 -91 156
q-92 59 -240 59q-149 0 -240 -77q-90 -76 -90 -204h237q0 94 92 94q88 0 88 -86q0 -68 -79 -67h-105v-146h117q98 0 98 -72q0 -75 -117 -73q-106 0 -106 92z" />
    <glyph glyph-name="uni2779" unicode="&#x2779;" horiz-adv-x="1667" 
d="M1392 177q-211 -208 -558 -208q-348 0 -559 208q-212 209 -212 548q0 338 212 545q211 207 559 207q346 0 558 -207t212 -545q0 -339 -212 -548zM504 844v-367h313v-133h240v133h110v178h-110v449h-383zM645 653l-88 -2l266 408l-6 -205v-199z" />
    <glyph glyph-name="uni277A" unicode="&#x277a;" horiz-adv-x="1667" 
d="M1392 177q-211 -208 -558 -208q-348 0 -559 208q-212 209 -212 548q0 338 212 545q211 207 559 207q346 0 558 -207t212 -545q0 -339 -212 -548zM737 586h-237q0 -121 92 -195t244 -74q150 0 242 75q91 75 91 196q0 110 -64 175q-65 66 -169 66q-146 0 -211 -122l12 204
l113 -2h283v193h-594l-29 -465h209q43 51 115 51q92 0 92 -104q0 -90 -90 -90q-97 0 -99 92z" />
    <glyph glyph-name="uni277B" unicode="&#x277b;" horiz-adv-x="1667" 
d="M1392 178q-212 -209 -558 -209q-347 0 -559 209t-212 547t212 545q211 207 559 207q346 0 558 -207t212 -545t-212 -547zM459 721q0 -195 103 -300.5t292 -105.5q152 0 245 75t93 200q0 102 -70 165q-71 62 -186 62q-87 0 -149.5 -37.5t-86.5 -101.5v43q0 123 35 179
t111 56q104 0 104 -79h238q0 115 -93 186q-94 70 -249 70q-173 0 -280 -113t-107 -299zM844 500q-131 0 -131 90t129 90q57 0 82.5 -21.5t25.5 -68.5q0 -48 -24.5 -69t-81.5 -21z" />
    <glyph glyph-name="uni277C" unicode="&#x277c;" horiz-adv-x="1667" 
d="M1392 178q-212 -209 -558 -209q-347 0 -559 209t-212 547t212 545q211 207 559 207q346 0 558 -207t212 -545t-212 -547zM559 1104v-197h336l162 4q-188 -84 -290 -237q-103 -154 -103 -330h245q0 146 62 264q61 117 157 166v330h-569z" />
    <glyph glyph-name="uni277D" unicode="&#x277d;" horiz-adv-x="1667" 
d="M1392 177q-211 -208 -558 -208q-348 0 -559 208q-212 209 -212 548q0 338 212 545q211 207 559 207q346 0 558 -207t212 -545q0 -339 -212 -548zM473 532q0 -98 99 -157q98 -60 262 -60q163 0 262 60q98 59 98 157q0 160 -207 201q187 41 189 180q0 98 -94 159t-248 61
t-248 -60q-94 -61 -94 -160q0 -139 188 -180q-207 -41 -207 -201zM731 868q0 47 24.5 67.5t78.5 20.5t78 -20.5t24 -67.5q0 -82 -102 -82q-103 0 -103 82zM715 584q0 45 28.5 64.5t90.5 19.5t90 -19.5t28 -64.5q0 -92 -118 -92q-119 0 -119 92z" />
    <glyph glyph-name="uni277E" unicode="&#x277e;" horiz-adv-x="1667" 
d="M1392 177q-211 -208 -558 -208q-348 0 -559 208q-212 209 -212 548q0 338 212 545q211 207 559 207q346 0 558 -207t212 -545q0 -339 -212 -548zM487 860q0 -105 73 -166q74 -63 194 -63q82 0 141.5 37.5t83.5 99.5v-43q0 -121 -34 -177t-107 -56q-109 0 -109 83h-237
q0 -117 95 -188q95 -72 251 -72q171 0 278 113q105 112 105 297q0 197 -103 302.5t-293 105.5q-152 0 -245 -75t-93 -198zM729 860q0 88 107 88q131 0 131 -88q0 -90 -129 -90q-57 0 -83 21.5t-26 68.5z" />
    <glyph glyph-name="uniF8FF" unicode="&#xf8ff;" horiz-adv-x="1204" 
d="M1116 1180l27 -230l-8 -6q-62 98 -139 122q-80 25 -343 26q-13 -207 -14 -295q87 1 148 44q59 43 110 144h6l-22 -145q-90 -75 -242 -80v-66q0 -119 4 -291q133 0 199 3q0 172 -15 284q-36 11 -88 19v6q143 27 246 71l2 -6q-41 -45 -54 -118q-13 -71 -13 -279
q0 -221 12 -340l78 -37v-6h-332v6l151 53q11 97 13 295q-88 2 -197 2q2 -34 2 -72q0 -41 2 -71l-108 -66l-4 7q7 56 20 202q-109 0 -197 -2q0 -198 13 -295l153 -53v-6h-333v6l77 37q11 113 13 340q0 207 -12 280q-14 73 -56 117l2 6q92 -42 246 -71v-6q-46 -7 -88 -19
q-13 -112 -15 -284q133 0 199 -3q6 125 6 291v70q-132 18 -215 103q-85 86 -92 210q-75 -12 -109 -39q-36 -28 -79 -94l-9 6q17 137 23 189l8 41q52 -33 168 -39q13 138 116 226q101 87 253 87q113 0 223 -65l31 57l12 -8q-20 -101 -21 -221h-4q-56 203 -241 204
q-114 2 -190 -77q-77 -80 -87 -207q82 -2 248 -2q286 0 374 9t138 36h4zM350 1087q4 -108 63 -185q59 -76 150 -99q-2 144 -12 289q-132 -2 -201 -5z" />
    <glyph glyph-name="I.ss02" horiz-adv-x="1146" 
d="M1034 1446v-291h-286v-864h286v-291h-921v291h286v864h-286v291h921z" />
    <glyph glyph-name="Iacute.ss02" horiz-adv-x="1146" 
d="M551 1948h307l-180 -353h-232zM1034 1446v-291h-286v-864h286v-291h-921v291h286v864h-286v291h921z" />
    <glyph glyph-name="Ibreve.ss02" horiz-adv-x="1146" 
d="M811 1680q-89 -93 -237 -93q-150 0 -238 93q-88 91 -88 268h213q0 -88 26.5 -127t86.5 -39q59 0 85.5 39t26.5 127h213q0 -177 -88 -268zM1034 1446v-291h-286v-864h286v-291h-921v291h286v864h-286v291h921z" />
    <glyph glyph-name="Icircumflex.ss02" horiz-adv-x="1146" 
d="M702 1595l-127 293l-126 -293h-263l181 353h417l181 -353h-263zM1034 1446v-291h-286v-864h286v-291h-921v291h286v864h-286v291h921z" />
    <glyph glyph-name="Idieresis.ss02" horiz-adv-x="1146" 
d="M227 1919h297v-289h-297v289zM621 1919h297v-289h-297v289zM1034 1446v-291h-286v-864h286v-291h-921v291h286v864h-286v291h921z" />
    <glyph glyph-name="Idotaccent.ss02" horiz-adv-x="1146" 
d="M401 1919h347v-289h-347v289zM1034 1446v-291h-286v-864h286v-291h-921v291h286v864h-286v291h921z" />
    <glyph glyph-name="uni1ECA.ss02" horiz-adv-x="1146" 
d="M1034 1446v-291h-286v-864h286v-291h-921v291h286v864h-286v291h921zM748 -426h-347v285h347v-285z" />
    <glyph glyph-name="Igrave.ss02" horiz-adv-x="1146" 
d="M590 1948l104 -353h-231l-180 353h307zM1034 1446v-291h-286v-864h286v-291h-921v291h286v864h-286v291h921z" />
    <glyph glyph-name="Imacron.ss02" horiz-adv-x="1146" 
d="M283 1901h583v-248h-583v248zM1034 1446v-291h-286v-864h286v-291h-921v291h286v864h-286v291h921z" />
    <glyph glyph-name="Iogonek.ss02" horiz-adv-x="1146" 
d="M1034 1446v-291h-286v-864h286v-291h-286l-117 -152q-31 -37 -31 -65q0 -43 57 -43h111v-186h-262q-79 0 -122.5 38t-43.5 101q0 79 61 149l136 158h-424v291h286v864h-286v291h921z" />
    <glyph glyph-name="Itilde.ss02" horiz-adv-x="1146" 
d="M434 1710q-86 0 -86 -86h-160q0 309 234 309q64 0 152 -45t137 -45q86 0 86 86h159q0 -309 -233 -309q-63 0 -151 45t-138 45zM1034 1446v-291h-286v-864h286v-291h-921v291h286v864h-286v291h921z" />
    <glyph glyph-name="Z.ss03" horiz-adv-x="1331" 
d="M229 276l254 15h781v-291h-1184v526l1020 643l-252 -14h-760v291h1172v-520z" />
    <glyph glyph-name="Zacute.ss03" horiz-adv-x="1331" 
d="M666 1948h307l-180 -353h-232zM229 276l254 15h781v-291h-1184v526l1020 643l-252 -14h-760v291h1172v-520z" />
    <glyph glyph-name="Zcaron.ss03" horiz-adv-x="1331" 
d="M897 1595h-420l-180 353h264l127 -291l125 291h264zM229 276l254 15h781v-291h-1184v526l1020 643l-252 -14h-760v291h1172v-520z" />
    <glyph glyph-name="Zdotaccent.ss03" horiz-adv-x="1331" 
d="M514 1919h346v-289h-346v289zM229 276l254 15h781v-291h-1184v526l1020 643l-252 -14h-760v291h1172v-520z" />
    <glyph glyph-name="a.salt" horiz-adv-x="1327" 
d="M887 831v226h313v-1057h-313v252q-47 -135 -142.5 -209t-222.5 -74q-199 0 -320 154q-122 154 -122 405t122 406q122 153 320 153q126 0 222 -67t143 -189zM470 292q54 -73 175 -73t175 73t54 236q0 162 -54.5 236t-174.5 74t-174.5 -74t-54.5 -236q0 -164 54 -236z" />
    <glyph glyph-name="aacute.salt" horiz-adv-x="1327" 
d="M647 1559h307l-180 -353h-231zM887 831v226h313v-1057h-313v252q-47 -135 -142.5 -209t-222.5 -74q-199 0 -320 154q-122 154 -122 405t122 406q122 153 320 153q126 0 222 -67t143 -189zM470 292q54 -73 175 -73t175 73t54 236q0 162 -54.5 236t-174.5 74t-174.5 -74
t-54.5 -236q0 -164 54 -236z" />
    <glyph glyph-name="abreve.salt" horiz-adv-x="1327" 
d="M907 1291q-89 -93 -237 -93q-149 0 -238 92q-88 91 -88 269h213q0 -88 26.5 -127t86.5 -39t86 38.5t26 127.5h213q0 -177 -88 -268zM887 831v226h313v-1057h-313v252q-47 -135 -142.5 -209t-222.5 -74q-199 0 -320 154q-122 154 -122 405t122 406q122 153 320 153
q126 0 222 -67t143 -189zM470 292q54 -73 175 -73t175 73t54 236q0 162 -54.5 236t-174.5 74t-174.5 -74t-54.5 -236q0 -164 54 -236z" />
    <glyph glyph-name="acircumflex.salt" horiz-adv-x="1327" 
d="M799 1206l-127 293l-127 -293h-262l180 353h418l180 -353h-262zM887 831v226h313v-1057h-313v252q-47 -135 -142.5 -209t-222.5 -74q-199 0 -320 154q-122 154 -122 405t122 406q122 153 320 153q126 0 222 -67t143 -189zM470 292q54 -73 175 -73t175 73t54 236
q0 162 -54.5 236t-174.5 74t-174.5 -74t-54.5 -236q0 -164 54 -236z" />
    <glyph glyph-name="adieresis.salt" horiz-adv-x="1327" 
d="M324 1530h297v-289h-297v289zM717 1530h297v-289h-297v289zM887 831v226h313v-1057h-313v252q-47 -135 -142.5 -209t-222.5 -74q-199 0 -320 154q-122 154 -122 405t122 406q122 153 320 153q126 0 222 -67t143 -189zM470 292q54 -73 175 -73t175 73t54 236
q0 162 -54.5 236t-174.5 74t-174.5 -74t-54.5 -236q0 -164 54 -236z" />
    <glyph glyph-name="uni1EA1.salt" horiz-adv-x="1327" 
d="M887 831v226h313v-1057h-313v252q-47 -135 -142.5 -209t-222.5 -74q-199 0 -320 154q-122 154 -122 405t122 406q122 153 320 153q126 0 222 -67t143 -189zM470 292q54 -73 175 -73t175 73t54 236q0 162 -54.5 236t-174.5 74t-174.5 -74t-54.5 -236q0 -164 54 -236z
M877 -426h-347v285h347v-285z" />
    <glyph glyph-name="agrave.salt" horiz-adv-x="1327" 
d="M688 1559l105 -353h-232l-180 353h307zM887 831v226h313v-1057h-313v252q-47 -135 -142.5 -209t-222.5 -74q-199 0 -320 154q-122 154 -122 405t122 406q122 153 320 153q126 0 222 -67t143 -189zM470 292q54 -73 175 -73t175 73t54 236q0 162 -54.5 236t-174.5 74
t-174.5 -74t-54.5 -236q0 -164 54 -236z" />
    <glyph glyph-name="amacron.salt" horiz-adv-x="1327" 
d="M379 1511h584v-247h-584v247zM887 831v226h313v-1057h-313v252q-47 -135 -142.5 -209t-222.5 -74q-199 0 -320 154q-122 154 -122 405t122 406q122 153 320 153q126 0 222 -67t143 -189zM470 292q54 -73 175 -73t175 73t54 236q0 162 -54.5 236t-174.5 74t-174.5 -74
t-54.5 -236q0 -164 54 -236z" />
    <glyph glyph-name="aogonek.salt" horiz-adv-x="1327" 
d="M1110 -260h111v-186h-263q-79 0 -122 37.5t-43 101.5q0 79 61 149l135 158h-102v252q-47 -135 -142.5 -209t-222.5 -74q-199 0 -320 154q-122 154 -122 405t122 406q122 153 320 153q126 0 222 -67t143 -189v226h313v-1057l-117 -152q-31 -37 -30 -65q0 -43 57 -43z
M470 292q54 -73 175 -73t175 73t54 236q0 162 -54.5 236t-174.5 74t-174.5 -74t-54.5 -236q0 -164 54 -236z" />
    <glyph glyph-name="aring.salt" horiz-adv-x="1327" 
d="M823 1249q-59 -51 -153 -51t-153 51q-58 51 -58 133t58 134q59 51 153 51t153 -51q58 -52 58 -134t-58 -133zM745 1383q0 65 -75 65q-76 0 -76 -65q0 -66 76 -66q75 0 75 66zM887 831v226h313v-1057h-313v252q-47 -135 -142.5 -209t-222.5 -74q-199 0 -320 154
q-122 154 -122 405t122 406q122 153 320 153q126 0 222 -67t143 -189zM470 292q54 -73 175 -73t175 73t54 236q0 162 -54.5 236t-174.5 74t-174.5 -74t-54.5 -236q0 -164 54 -236z" />
    <glyph glyph-name="aringacute.salt" horiz-adv-x="1327" 
d="M905 1248q-59 -50 -153 -50t-153 51q-58 51 -58 133t58 134q59 51 153 51h18l51 176h244l-154 -234q51 -50 52 -127q0 -85 -58 -134zM827 1383q0 65 -75 65q-76 0 -76 -65q0 -66 76 -66q75 0 75 66zM887 831v226h313v-1057h-313v252q-47 -135 -142.5 -209t-222.5 -74
q-199 0 -320 154q-122 154 -122 405t122 406q122 153 320 153q126 0 222 -67t143 -189zM470 292q54 -73 175 -73t175 73t54 236q0 162 -54.5 236t-174.5 74t-174.5 -74t-54.5 -236q0 -164 54 -236z" />
    <glyph glyph-name="atilde.salt" horiz-adv-x="1327" 
d="M530 1321q-86 0 -86 -86h-159q0 309 233 309q64 0 152 -45t137 -45q86 0 86 86h160q0 -309 -234 -309q-63 0 -151 45t-138 45zM887 831v226h313v-1057h-313v252q-47 -135 -142.5 -209t-222.5 -74q-199 0 -320 154q-122 154 -122 405t122 406q122 153 320 153
q126 0 222 -67t143 -189zM470 292q54 -73 175 -73t175 73t54 236q0 162 -54.5 236t-174.5 74t-174.5 -74t-54.5 -236q0 -164 54 -236z" />
    <glyph glyph-name="g.salt" horiz-adv-x="1331" 
d="M891 827v230h313v-1002q0 -211 -152 -339q-154 -128 -403 -128q-248 0 -399 121q-152 122 -152 320h316q0 -102 56 -149.5t179 -47.5q121 0 175.5 68.5t54.5 220.5v155q-49 -109 -141 -171t-208 -62q-201 0 -323 146q-123 146 -123 374q0 236 123 380t323 144
q125 0 220.5 -68.5t140.5 -191.5zM653 289q117 0 171.5 66.5t54.5 207.5q0 144 -53.5 209.5t-172.5 65.5q-123 0 -178 -64.5t-55 -210.5q0 -142 55.5 -208t177.5 -66z" />
    <glyph glyph-name="gbreve.salt" horiz-adv-x="1331" 
d="M907 1291q-89 -93 -237 -93q-149 0 -238 92q-88 91 -88 269h213q0 -88 26.5 -127t86.5 -39t86 38.5t26 127.5h213q0 -177 -88 -268zM891 827v230h313v-1002q0 -211 -152 -339q-154 -128 -403 -128q-248 0 -399 121q-152 122 -152 320h316q0 -102 56 -149.5t179 -47.5
q121 0 175.5 68.5t54.5 220.5v155q-49 -109 -141 -171t-208 -62q-201 0 -323 146q-123 146 -123 374q0 236 123 380t323 144q125 0 220.5 -68.5t140.5 -191.5zM653 289q117 0 171.5 66.5t54.5 207.5q0 144 -53.5 209.5t-172.5 65.5q-123 0 -178 -64.5t-55 -210.5
q0 -142 55.5 -208t177.5 -66z" />
    <glyph glyph-name="gcaron.salt" horiz-adv-x="1331" 
d="M877 1206h-420l-181 353h265l127 -291l125 291h264zM891 827v230h313v-1002q0 -211 -152 -339q-154 -128 -403 -128q-248 0 -399 121q-152 122 -152 320h316q0 -102 56 -149.5t179 -47.5q121 0 175.5 68.5t54.5 220.5v155q-49 -109 -141 -171t-208 -62q-201 0 -323 146
q-123 146 -123 374q0 236 123 380t323 144q125 0 220.5 -68.5t140.5 -191.5zM653 289q117 0 171.5 66.5t54.5 207.5q0 144 -53.5 209.5t-172.5 65.5q-123 0 -178 -64.5t-55 -210.5q0 -142 55.5 -208t177.5 -66z" />
    <glyph glyph-name="gcircumflex.salt" horiz-adv-x="1331" 
d="M797 1206l-127 293l-127 -293h-262l180 353h418l180 -353h-262zM891 827v230h313v-1002q0 -211 -152 -339q-154 -128 -403 -128q-248 0 -399 121q-152 122 -152 320h316q0 -102 56 -149.5t179 -47.5q121 0 175.5 68.5t54.5 220.5v155q-49 -109 -141 -171t-208 -62
q-201 0 -323 146q-123 146 -123 374q0 236 123 380t323 144q125 0 220.5 -68.5t140.5 -191.5zM653 289q117 0 171.5 66.5t54.5 207.5q0 144 -53.5 209.5t-172.5 65.5q-123 0 -178 -64.5t-55 -210.5q0 -142 55.5 -208t177.5 -66z" />
    <glyph glyph-name="uni0123.salt" horiz-adv-x="1331" 
d="M668 1434l151 -56v-172h-315v213q0 120 94 190t252 70v-129q-96 0 -139 -27.5t-43 -88.5zM891 827v230h313v-1002q0 -211 -152 -339q-154 -128 -403 -128q-248 0 -399 121q-152 122 -152 320h316q0 -102 56 -149.5t179 -47.5q121 0 175.5 68.5t54.5 220.5v155
q-49 -109 -141 -171t-208 -62q-201 0 -323 146q-123 146 -123 374q0 236 123 380t323 144q125 0 220.5 -68.5t140.5 -191.5zM653 289q117 0 171.5 66.5t54.5 207.5q0 144 -53.5 209.5t-172.5 65.5q-123 0 -178 -64.5t-55 -210.5q0 -142 55.5 -208t177.5 -66z" />
    <glyph glyph-name="gdotaccent.salt" horiz-adv-x="1331" 
d="M496 1530h346v-289h-346v289zM891 827v230h313v-1002q0 -211 -152 -339q-154 -128 -403 -128q-248 0 -399 121q-152 122 -152 320h316q0 -102 56 -149.5t179 -47.5q121 0 175.5 68.5t54.5 220.5v155q-49 -109 -141 -171t-208 -62q-201 0 -323 146q-123 146 -123 374
q0 236 123 380t323 144q125 0 220.5 -68.5t140.5 -191.5zM653 289q117 0 171.5 66.5t54.5 207.5q0 144 -53.5 209.5t-172.5 65.5q-123 0 -178 -64.5t-55 -210.5q0 -142 55.5 -208t177.5 -66z" />
    <glyph glyph-name="l.salt" horiz-adv-x="583" 
d="M131 0v1559h326v-1559h-326z" />
    <glyph glyph-name="lacute.salt" horiz-adv-x="583" 
d="M166 1651l104 352h308l-181 -352h-231zM131 0v1559h326v-1559h-326z" />
    <glyph glyph-name="lcaron.salt" horiz-adv-x="583" 
d="M131 0v1559h326v-1559h-326zM592 1386v173h303v-213q0 -121 -91 -193q-92 -72 -243 -72v129q90 0 130 29t40 94z" />
    <glyph glyph-name="uni013C.salt" horiz-adv-x="583" 
d="M131 0v1559h326v-1559h-326zM141 -313v172h303v-213q0 -121 -91 -193q-92 -71 -242 -71v129q90 0 130 28.5t40 91.5z" />
    <glyph glyph-name="ldot.salt" horiz-adv-x="901" 
d="M131 0v1559h326v-1559h-326zM571 602v322h322v-322h-322z" />
    <glyph glyph-name="lslash.salt" horiz-adv-x="659" 
d="M459 911l159 121v-293l-159 -121v-618h-326v469l-137 -100v293l137 100v797h326v-648z" />
    <glyph glyph-name="y.salt" horiz-adv-x="1208" 
d="M668 389l194 668h330l-424 -1448h-317l110 391h-235l-312 1057h340l193 -668l59 -264z" />
    <glyph glyph-name="yacute.salt" horiz-adv-x="1208" 
d="M584 1559h307l-180 -353h-232zM668 389l194 668h330l-424 -1448h-317l110 391h-235l-312 1057h340l193 -668l59 -264z" />
    <glyph glyph-name="ycircumflex.salt" horiz-adv-x="1208" 
d="M735 1206l-127 293l-127 -293h-262l180 353h418l180 -353h-262zM668 389l194 668h330l-424 -1448h-317l110 391h-235l-312 1057h340l193 -668l59 -264z" />
    <glyph glyph-name="ydieresis.salt" horiz-adv-x="1208" 
d="M260 1530h297v-289h-297v289zM653 1530h297v-289h-297v289zM668 389l194 668h330l-424 -1448h-317l110 391h-235l-312 1057h340l193 -668l59 -264z" />
    <glyph glyph-name="ygrave.salt" horiz-adv-x="1208" 
d="M623 1559l104 -353h-231l-181 353h308zM668 389l194 668h330l-424 -1448h-317l110 391h-235l-312 1057h340l193 -668l59 -264z" />
    <glyph glyph-name="uni0233.salt" horiz-adv-x="1208" 
d="M313 1511h584v-247h-584v247zM668 389l194 668h330l-424 -1448h-317l110 391h-235l-312 1057h340l193 -668l59 -264z" />
    <glyph glyph-name="uni1EF9.salt" horiz-adv-x="1208" 
d="M467 1321q-86 0 -86 -86h-160q0 309 234 309q63 0 151 -45t137 -45q86 0 86 86h160q0 -309 -233 -309q-62 0 -151 45t-138 45zM668 389l194 668h330l-424 -1448h-317l110 391h-235l-312 1057h340l193 -668l59 -264z" />
    <glyph glyph-name="z.ss03" horiz-adv-x="1050" 
d="M276 242l240 12h459v-254h-889v418l700 397l-251 -12h-439v254h869v-424z" />
    <glyph glyph-name="zacute.ss03" horiz-adv-x="1050" 
d="M506 1559h307l-180 -353h-232zM276 242l240 12h459v-254h-889v418l700 397l-251 -12h-439v254h869v-424z" />
    <glyph glyph-name="zcaron.ss03" horiz-adv-x="1050" 
d="M737 1206h-420l-180 353h264l127 -291l125 291h265zM276 242l240 12h459v-254h-889v418l700 397l-251 -12h-439v254h869v-424z" />
    <glyph glyph-name="zdotaccent.ss03" horiz-adv-x="1050" 
d="M356 1530h346v-289h-346v289zM276 242l240 12h459v-254h-889v418l700 397l-251 -12h-439v254h869v-424z" />
    <glyph glyph-name="f_f_j.dlig" horiz-adv-x="2099" 
d="M1268 1057h710v-1100q0 -166 -107 -268q-109 -101 -284 -101q-83 0 -157 21v235h104q66 0 92.5 33t26.5 111v821h-385v-809h-324v809h-403v-809h-326v809h-201v248h201v117q0 164 114 264q112 100 296 100q134 0 206 -20v-236h-157q-72 0 -102.5 -32.5t-30.5 -110.5v-82
h403v157q0 164 113 265q112 100 295 100q115 0 192 -23v-233h-143q-72 0 -102.5 -33t-30.5 -110v-123zM1642 1241v305h347v-305h-347z" />
    <glyph glyph-name="f_iacute.dlig" horiz-adv-x="1372" 
d="M541 1057h710v-1057h-325v809h-385v-809h-326v809h-201v248h201v157q0 164 114 265q112 100 296 100q118 0 215 -20v-236h-166q-72 0 -102.5 -33t-30.5 -110v-123zM1065 1559h307l-180 -353h-231z" />
    <glyph glyph-name="f_j.dlig" horiz-adv-x="1372" 
d="M541 1057h710v-1100q0 -166 -107 -268q-109 -101 -284 -101q-84 0 -158 21v235h105q66 0 92.5 33t26.5 111v821h-385v-809h-326v809h-201v248h201v157q0 164 114 265q112 100 296 100q118 0 190 -23v-233h-141q-72 0 -102.5 -33t-30.5 -110v-123zM915 1241v305h347v-305
h-347z" />
    <glyph glyph-name="f_t.dlig" horiz-adv-x="1673" 
d="M1407 236h229v-236q-154 -20 -280 -20q-181 0 -296 98q-114 98 -114 258v473h-405v-809h-326v809h-201v248h201v157q0 164 113 265q112 100 297 100q123 0 223 -20v-236h-174q-72 0 -102.5 -33t-30.5 -110v-123h407l10 309h314v-309h362v-248h-362v-430q0 -80 30 -111.5
t105 -31.5z" />
    <glyph glyph-name="t_t.dlig" horiz-adv-x="1705" 
d="M1440 236h229v-236q-154 -20 -280 -20q-184 0 -297 98t-113 258v473h-440v-430q0 -80 30 -111.5t105 -31.5h184v-234q-114 -23 -235 -22q-184 0 -297 98t-113 258v473h-203v248h205l8 268h316v-268h442l10 309h314v-309h362v-248h-362v-430q0 -80 30 -111.5t105 -31.5z
" />
    <glyph glyph-name="f_f_l.liga.salt" horiz-adv-x="2127" 
d="M944 1057v203q0 156 99.5 237.5t287.5 81.5q145 0 246 -23v-233h-186q-71 0 -97 -24q-26 -26 -26 -95v-147h301v-248h-301v-809h-324v809h-403v-809h-326v809h-201v248h201v162q0 155 100 237t287 82q129 0 221 -20v-236h-159q-72 0 -97 -24q-26 -26 -26 -95v-106h403z
M1675 0v1559h326v-1559h-326z" />
    <glyph glyph-name="uniFB02.aalt" horiz-adv-x="1400" 
d="M215 1057v157q0 164 114 265q112 100 296 100q136 0 223 -23v-233h-174q-72 0 -102.5 -33t-30.5 -110v-123h301v-248h-301v-809h-326v809h-201v248h201zM948 0v1559h326v-1559h-326z" />
    <glyph glyph-name="A.c2sc" horiz-adv-x="1316" 
d="M1298 0h-335l-76 233h-469l-76 -233h-324l357 1087h567zM592 764l-92 -285h305l-92 285l-60 215z" />
    <glyph glyph-name="Aacute.aalt" horiz-adv-x="1316" 
d="M633 1559h307l-180 -353h-232zM1298 0h-335l-76 233h-469l-76 -233h-324l357 1087h567zM592 764l-92 -285h305l-92 285l-60 215z" />
    <glyph glyph-name="Abreve.aalt" horiz-adv-x="1316" 
d="M893 1291q-89 -93 -237 -93q-149 0 -238 92q-88 91 -88 269h213q0 -88 26.5 -127t86.5 -39t86 38.5t26 127.5h213q0 -177 -88 -268zM1298 0h-335l-76 233h-469l-76 -233h-324l357 1087h567zM592 764l-92 -285h305l-92 285l-60 215z" />
    <glyph glyph-name="Acircumflex.aalt" horiz-adv-x="1316" 
d="M784 1206l-127 293l-127 -293h-262l181 353h417l181 -353h-263zM1298 0h-335l-76 233h-469l-76 -233h-324l357 1087h567zM592 764l-92 -285h305l-92 285l-60 215z" />
    <glyph glyph-name="Adieresis.aalt" horiz-adv-x="1316" 
d="M309 1530h297v-289h-297v289zM702 1530h297v-289h-297v289zM1298 0h-335l-76 233h-469l-76 -233h-324l357 1087h567zM592 764l-92 -285h305l-92 285l-60 215z" />
    <glyph glyph-name="uni1EA0.aalt" horiz-adv-x="1316" 
d="M942 1087l356 -1087h-335l-76 233h-469l-76 -233h-324l357 1087h567zM592 764l-92 -285h305l-92 285l-60 215zM834 -426h-347v285h347v-285z" />
    <glyph glyph-name="Agrave.aalt" horiz-adv-x="1316" 
d="M674 1559l104 -353h-231l-180 353h307zM1298 0h-335l-76 233h-469l-76 -233h-324l357 1087h567zM592 764l-92 -285h305l-92 285l-60 215z" />
    <glyph glyph-name="Amacron.aalt" horiz-adv-x="1316" 
d="M365 1511h583v-247h-583v247zM1298 0h-335l-76 233h-469l-76 -233h-324l357 1087h567zM592 764l-92 -285h305l-92 285l-60 215z" />
    <glyph glyph-name="Aogonek.aalt" horiz-adv-x="1316" 
d="M1026 -217q0 -43 57 -43h111v-186h-262q-79 0 -122.5 38t-43.5 101q0 79 61 149l136 158l-76 233h-469l-76 -233h-324l357 1087h567l356 -1087h-124l-117 -152q-31 -35 -31 -65zM592 764l-92 -285h305l-92 285l-60 215z" />
    <glyph glyph-name="Aring.aalt" horiz-adv-x="1316" 
d="M808 1249q-58 -51 -152 -51t-153 51t-59 133q0 81 59 134q59 51 153 51t152 -51q58 -52 58 -134t-58 -133zM731 1383q0 65 -75 65q-76 0 -76 -65q0 -66 76 -66q75 0 75 66zM1298 0h-335l-76 233h-469l-76 -233h-324l357 1087h567zM592 764l-92 -285h305l-92 285l-60 215z
" />
    <glyph glyph-name="Aringacute.aalt" horiz-adv-x="1316" 
d="M808 1248q-59 -50 -152 -50q-94 0 -153 51t-59 133q0 81 59 134q59 51 152 51h19l51 176h244l-154 -234q51 -51 51 -127q0 -85 -58 -134zM655 1448q-37 0 -55.5 -16.5t-17.5 -48.5q0 -66 73 -66q76 0 76 66q0 65 -76 65zM1298 0h-335l-76 233h-469l-76 -233h-324
l357 1087h567zM592 764l-92 -285h305l-92 285l-60 215z" />
    <glyph glyph-name="Atilde.aalt" horiz-adv-x="1316" 
d="M516 1321q-86 0 -86 -86h-160q0 309 234 309q62 0 151 -45t138 -45q86 0 86 86h159q0 -309 -233 -309q-63 0 -151 45t-138 45zM1298 0h-335l-76 233h-469l-76 -233h-324l357 1087h567zM592 764l-92 -285h305l-92 285l-60 215z" />
    <glyph glyph-name="AE.aalt" horiz-adv-x="1771" 
d="M1147 440l61 -188h451v-252h-701l-75 233h-469l-76 -233h-320l357 1087h1280v-251h-639l59 -179h563v-217h-491zM588 764l-92 -285h305l-92 285l-60 215z" />
    <glyph glyph-name="AEacute.aalt" horiz-adv-x="1771" 
d="M907 1559h307l-180 -353h-231zM1147 440l61 -188h451v-252h-701l-75 233h-469l-76 -233h-320l357 1087h1280v-251h-639l59 -179h563v-217h-491zM588 764l-92 -285h305l-92 285l-60 215z" />
    <glyph glyph-name="B.aalt" horiz-adv-x="1249" 
d="M909 598q139 -29 213 -104t74 -189q0 -137 -103 -221t-272 -84h-669v1087h655q157 0 255 -71q97 -72 97 -187q0 -192 -250 -231zM680 862h-203v-223h203q78 0 112.5 27.5t34.5 89.5q0 106 -147 106zM477 225h238q77 0 111 26.5t34 86.5q0 61 -34.5 89t-110.5 28h-238
v-230z" />
    <glyph glyph-name="C.aalt" horiz-adv-x="1269" 
d="M241 126q-157 157 -157 413t157 413q156 156 414 156q238 0 384 -128q145 -127 145 -337h-324q0 111 -48 160t-157 49q-125 0 -180 -74.5t-55 -238.5t55 -239t180 -75q109 0 159 43.5t50 139.5h324q0 -199 -146 -319q-147 -120 -387 -120q-258 0 -414 157z" />
    <glyph glyph-name="Cacute.aalt" horiz-adv-x="1269" 
d="M528 1206l105 353h307l-180 -353h-232zM241 126q-157 157 -157 413t157 413q156 156 414 156q238 0 384 -128q145 -127 145 -337h-324q0 111 -48 160t-157 49q-125 0 -180 -74.5t-55 -238.5t55 -239t180 -75q109 0 159 43.5t50 139.5h324q0 -199 -146 -319
q-147 -120 -387 -120q-258 0 -414 157z" />
    <glyph glyph-name="Ccaron.aalt" horiz-adv-x="1269" 
d="M864 1206h-420l-180 353h264l127 -291l125 291h264zM864 408h324q0 -199 -146 -319q-147 -120 -387 -120q-258 0 -414 157q-157 157 -157 413t157 413q156 156 414 156q238 0 384 -128q145 -127 145 -337h-324q0 111 -48 160t-157 49q-125 0 -180 -74.5t-55 -238.5
t55 -239t180 -75q109 0 159 43.5t50 139.5z" />
    <glyph glyph-name="Ccedilla.aalt" horiz-adv-x="1269" 
d="M864 408h324q0 -180 -123 -297t-328 -138l-26 -77h30q80 0 128.5 -45.5t48.5 -118.5q0 -80 -54.5 -129t-142.5 -49h-223v139h157q52 0 54 41q0 41 -54 41h-139v114l35 88q-215 32 -341 183q-126 152 -126 379q0 256 157 413q156 156 414 156q238 0 384 -128
q145 -127 145 -337h-324q0 111 -48 160t-157 49q-125 0 -180 -74.5t-55 -238.5t55 -239t180 -75q109 0 159 43.5t50 139.5z" />
    <glyph glyph-name="Ccircumflex.aalt" horiz-adv-x="1269" 
d="M784 1206l-127 293l-127 -293h-262l181 353h417l181 -353h-263zM864 408h324q0 -199 -146 -319q-147 -120 -387 -120q-258 0 -414 157q-157 157 -157 413t157 413q156 156 414 156q238 0 384 -128q145 -127 145 -337h-324q0 111 -48 160t-157 49q-125 0 -180 -74.5
t-55 -238.5t55 -239t180 -75q109 0 159 43.5t50 139.5z" />
    <glyph glyph-name="Cdotaccent.aalt" horiz-adv-x="1269" 
d="M483 1241v289h346v-289h-346zM241 126q-157 157 -157 413t157 413q156 156 414 156q238 0 384 -128q145 -127 145 -337h-324q0 111 -48 160t-157 49q-125 0 -180 -74.5t-55 -238.5t55 -239t180 -75q109 0 159 43.5t50 139.5h324q0 -199 -146 -319q-147 -120 -387 -120
q-258 0 -414 157z" />
    <glyph glyph-name="D.aalt" horiz-adv-x="1355" 
d="M152 1087h536q262 0 423 -149q161 -150 161 -393q0 -246 -161 -395q-161 -150 -423 -150h-536v1087zM477 252h174q148 0 217.5 70.5t69.5 222.5q0 150 -69.5 220.5t-217.5 70.5h-174v-584z" />
    <glyph glyph-name="Eth.aalt" horiz-adv-x="1351" 
d="M152 1087h536q262 0 423 -149q161 -150 161 -393q0 -246 -161 -395q-161 -150 -423 -150h-536v446h-123v205h123v436zM477 252h174q148 0 217.5 70.5t69.5 222.5q0 150 -69.5 220.5t-217.5 70.5h-174v-185h248v-205h-248v-194z" />
    <glyph glyph-name="Dcaron.aalt" horiz-adv-x="1355" 
d="M879 1206h-420l-180 353h264l127 -291l125 291h264zM152 1087h536q262 0 423 -149q161 -150 161 -393q0 -246 -161 -395q-161 -150 -423 -150h-536v1087zM477 252h174q148 0 217.5 70.5t69.5 222.5q0 150 -69.5 220.5t-217.5 70.5h-174v-584z" />
    <glyph glyph-name="Dcroat.aalt" horiz-adv-x="1351" 
d="M152 1087h536q262 0 423 -149q161 -150 161 -393q0 -246 -161 -395q-161 -150 -423 -150h-536v446h-123v205h123v436zM477 252h174q148 0 217.5 70.5t69.5 222.5q0 150 -69.5 220.5t-217.5 70.5h-174v-185h248v-205h-248v-194z" />
    <glyph glyph-name="E.aalt" horiz-adv-x="1134" 
d="M477 440v-188h545v-252h-870v1087h866v-251h-541v-179h524v-217h-524z" />
    <glyph glyph-name="Eacute.aalt" horiz-adv-x="1134" 
d="M561 1559h307l-180 -353h-231zM477 440v-188h545v-252h-870v1087h866v-251h-541v-179h524v-217h-524z" />
    <glyph glyph-name="Ebreve.aalt" horiz-adv-x="1134" 
d="M821 1291q-89 -93 -237 -93q-149 0 -238 92q-88 91 -88 269h213q0 -88 26.5 -127t86.5 -39t86 38.5t26 127.5h213q0 -177 -88 -268zM477 440v-188h545v-252h-870v1087h866v-251h-541v-179h524v-217h-524z" />
    <glyph glyph-name="Ecaron.aalt" horiz-adv-x="1134" 
d="M793 1206h-420l-180 353h264l127 -291l125 291h264zM477 440v-188h545v-252h-870v1087h866v-251h-541v-179h524v-217h-524z" />
    <glyph glyph-name="Ecircumflex.aalt" horiz-adv-x="1134" 
d="M713 1206l-127 293l-127 -293h-262l180 353h418l180 -353h-262zM477 440v-188h545v-252h-870v1087h866v-251h-541v-179h524v-217h-524z" />
    <glyph glyph-name="Edieresis.aalt" horiz-adv-x="1134" 
d="M238 1530h297v-289h-297v289zM631 1530h297v-289h-297v289zM477 440v-188h545v-252h-870v1087h866v-251h-541v-179h524v-217h-524z" />
    <glyph glyph-name="Edotaccent.aalt" horiz-adv-x="1134" 
d="M410 1530h346v-289h-346v289zM477 440v-188h545v-252h-870v1087h866v-251h-541v-179h524v-217h-524z" />
    <glyph glyph-name="uni1EB8.aalt" horiz-adv-x="1134" 
d="M477 440v-188h545v-252h-870v1087h866v-251h-541v-179h524v-217h-524zM752 -426h-346v285h346v-285z" />
    <glyph glyph-name="Egrave.aalt" horiz-adv-x="1134" 
d="M602 1559l105 -353h-232l-180 353h307zM477 440v-188h545v-252h-870v1087h866v-251h-541v-179h524v-217h-524z" />
    <glyph glyph-name="Emacron.aalt" horiz-adv-x="1134" 
d="M291 1511h583v-247h-583v247zM477 440v-188h545v-252h-870v1087h866v-251h-541v-179h524v-217h-524z" />
    <glyph glyph-name="Eogonek.aalt" horiz-adv-x="1134" 
d="M915 -260h111v-186h-262q-79 0 -122.5 38t-43.5 101q0 79 61 149l136 158h-643v1087h866v-251h-541v-179h524v-217h-524v-188h545v-252h-16l-117 -152q-31 -37 -31 -65q0 -43 57 -43z" />
    <glyph glyph-name="uni1EBC.aalt" horiz-adv-x="1134" 
d="M444 1321q-86 0 -86 -86h-159q0 309 233 309q64 0 152 -45t137 -45q86 0 86 86h160q0 -309 -234 -309q-63 0 -151 45t-138 45zM477 440v-188h545v-252h-870v1087h866v-251h-541v-179h524v-217h-524z" />
    <glyph glyph-name="uni018F.aalt" horiz-adv-x="1298" 
d="M649 1108q254 0 410 -156q155 -158 155 -413t-156 -413q-157 -157 -413 -157q-247 0 -395 138q-150 136 -150 362v125h779q-8 137 -65.5 200.5t-174.5 63.5q-213 0 -213 -166h-315q0 186 147 301q146 115 391 115zM645 219q193 0 225 197l-397 -4l-47 18
q13 -211 219 -211z" />
    <glyph glyph-name="F.aalt" horiz-adv-x="1075" 
d="M1006 1087v-251h-529v-179h512v-217h-512v-440h-325v1087h854z" />
    <glyph glyph-name="G.aalt" horiz-adv-x="1337" 
d="M641 391v189h582v-580h-285v295q-50 -326 -369 -326q-219 0 -352 151q-133 149 -133 402q0 268 160 427q159 159 426 159q247 0 395 -118q149 -119 149 -312h-321q0 92 -52.5 133t-170.5 41q-131 0 -190.5 -74.5t-59.5 -238.5t59.5 -239t190.5 -75q109 0 163 39.5
t62 126.5h-254z" />
    <glyph glyph-name="Gbreve.aalt" horiz-adv-x="1337" 
d="M909 1291q-89 -93 -237 -93q-149 0 -238 92q-88 91 -88 269h213q0 -88 26.5 -127t86.5 -39t86 38.5t26 127.5h213q0 -177 -88 -268zM641 391v189h582v-580h-285v295q-50 -326 -369 -326q-219 0 -352 151q-133 149 -133 402q0 268 160 427q159 159 426 159q247 0 395 -118
q149 -119 149 -312h-321q0 92 -52.5 133t-170.5 41q-131 0 -190.5 -74.5t-59.5 -238.5t59.5 -239t190.5 -75q109 0 163 39.5t62 126.5h-254z" />
    <glyph glyph-name="Gcaron.aalt" horiz-adv-x="1337" 
d="M881 1206h-420l-180 353h264l127 -291l125 291h264zM641 391v189h582v-580h-285v295q-50 -326 -369 -326q-219 0 -352 151q-133 149 -133 402q0 268 160 427q159 159 426 159q247 0 395 -118q149 -119 149 -312h-321q0 92 -52.5 133t-170.5 41q-131 0 -190.5 -74.5
t-59.5 -238.5t59.5 -239t190.5 -75q109 0 163 39.5t62 126.5h-254z" />
    <glyph glyph-name="Gcircumflex.aalt" horiz-adv-x="1337" 
d="M801 1206l-127 293l-127 -293h-262l180 353h418l180 -353h-262zM641 391v189h582v-580h-285v295q-50 -326 -369 -326q-219 0 -352 151q-133 149 -133 402q0 268 160 427q159 159 426 159q247 0 395 -118q149 -119 149 -312h-321q0 92 -52.5 133t-170.5 41
q-131 0 -190.5 -74.5t-59.5 -238.5t59.5 -239t190.5 -75q109 0 163 39.5t62 126.5h-254z" />
    <glyph glyph-name="uni0122.aalt" horiz-adv-x="1337" 
d="M641 391v189h582v-580h-285v295q-50 -326 -369 -326q-219 0 -352 151q-133 149 -133 402q0 268 160 427q159 159 426 159q247 0 395 -118q149 -119 149 -312h-321q0 92 -52.5 133t-170.5 41q-131 0 -190.5 -74.5t-59.5 -238.5t59.5 -239t190.5 -75q109 0 163 39.5
t62 126.5h-254zM674 -369l-139 56v172h303v-213q0 -121 -91 -193q-92 -71 -243 -71v129q90 0 130 28.5t40 91.5z" />
    <glyph glyph-name="Gdotaccent.aalt" horiz-adv-x="1337" 
d="M498 1530h346v-289h-346v289zM641 391v189h582v-580h-285v295q-50 -326 -369 -326q-219 0 -352 151q-133 149 -133 402q0 268 160 427q159 159 426 159q247 0 395 -118q149 -119 149 -312h-321q0 92 -52.5 133t-170.5 41q-131 0 -190.5 -74.5t-59.5 -238.5t59.5 -239
t190.5 -75q109 0 163 39.5t62 126.5h-254z" />
    <glyph glyph-name="H.aalt" horiz-adv-x="1400" 
d="M924 676v411h325v-1087h-325v424h-447v-424h-325v1087h325v-411h447z" />
    <glyph glyph-name="Hbar.aalt" horiz-adv-x="1394" 
d="M1249 963h111v-168h-111v-795h-325v424h-447v-424h-325v795h-115v168h115v124h325v-124h447v124h325v-124zM477 676h447v119h-447v-119z" />
    <glyph glyph-name="Hcircumflex.aalt" horiz-adv-x="1400" 
d="M813 1206l-127 293l-127 -293h-262l180 353h418l180 -353h-262zM924 676v411h325v-1087h-325v424h-447v-424h-325v1087h325v-411h447z" />
    <glyph glyph-name="i.aalt" horiz-adv-x="628" 
d="M152 0v1087h325v-1087h-325z" />
    <glyph glyph-name="iacute.aalt" horiz-adv-x="628" 
d="M188 1206l105 353h307l-180 -353h-232zM152 0v1087h325v-1087h-325z" />
    <glyph glyph-name="ibreve.aalt" horiz-adv-x="628" 
d="M428 1559h213q0 -177 -88 -268q-89 -93 -237 -93q-152 0 -239 93.5t-87 267.5h213q0 -88 26.5 -127t86.5 -39t86 38.5t26 127.5zM152 0v1087h325v-1087h-325z" />
    <glyph glyph-name="icircumflex.aalt" horiz-adv-x="628" 
d="M442 1206l-127 293l-127 -293h-262l180 353h418l181 -353h-263zM477 0h-325v1087h325v-1087z" />
    <glyph glyph-name="idieresis.aalt" horiz-adv-x="628" 
d="M-31 1241v289h297v-289h-297zM362 1241v289h297v-289h-297zM152 0v1087h325v-1087h-325z" />
    <glyph glyph-name="Idotaccent.c2sc" horiz-adv-x="628" 
d="M141 1241v289h346v-289h-346zM152 0v1087h325v-1087h-325z" />
    <glyph glyph-name="uni1ECB.aalt" horiz-adv-x="628" 
d="M152 0v1087h325v-1087h-325zM141 -426v285h346v-285h-346z" />
    <glyph glyph-name="igrave.aalt" horiz-adv-x="628" 
d="M25 1559h307l104 -353h-231zM152 0v1087h325v-1087h-325z" />
    <glyph glyph-name="IJ.aalt" horiz-adv-x="1187" 
d="M152 229h440q76 0 109.5 34t33.5 110v714h326v-739q0 -174 -127 -276q-127 -103 -361 -103q-249 0 -421 35v225zM156 422v665h325v-665h-325z" />
    <glyph glyph-name="imacron.aalt" horiz-adv-x="628" 
d="M23 1511h583v-247h-583v247zM152 0v1087h325v-1087h-325z" />
    <glyph glyph-name="iogonek.aalt" horiz-adv-x="628" 
d="M385 -260h111v-186h-263q-79 0 -122 37.5t-43 101.5q0 79 61 149l135 158h-112v1087h325v-1087h-2l-117 -152q-31 -37 -30 -65q0 -43 57 -43z" />
    <glyph glyph-name="itilde.aalt" horiz-adv-x="628" 
d="M465 1231q-63 0 -151 45t-138 45q-86 0 -86 -86h-160q0 309 234 309q62 0 151 -45t138 -45q86 0 86 86h159q0 -309 -233 -309zM152 0v1087h325v-1087h-325z" />
    <glyph glyph-name="J.aalt" horiz-adv-x="1120" 
d="M33 420h317q0 -100 38.5 -147.5t121.5 -47.5q82 0 120 43t38 138v681h325v-710q0 -184 -133 -296t-350 -112q-216 0 -346 124q-131 125 -131 327z" />
    <glyph glyph-name="Jcircumflex.aalt" horiz-adv-x="1120" 
d="M954 1206l-127 293l-127 -293h-262l180 353h418l181 -353h-263zM668 406v681h325v-710q0 -184 -133 -296t-350 -112q-216 0 -346 124q-131 125 -131 327h317q0 -100 38.5 -147.5t121.5 -47.5q82 0 120 43.5t38 137.5z" />
    <glyph glyph-name="K.aalt" horiz-adv-x="1323" 
d="M1294 1087l-469 -528l516 -559h-403l-320 356l-141 166v-522h-325v1087h325v-520l141 170l308 350h368z" />
    <glyph glyph-name="uni0136.aalt" horiz-adv-x="1323" 
d="M1294 1087l-469 -528l516 -559h-403l-320 356l-141 166v-522h-325v1087h325v-520l141 170l308 350h368zM686 -369l-139 56v172h303v-213q0 -121 -91 -193q-92 -71 -243 -71v129q90 0 130 28.5t40 91.5z" />
    <glyph glyph-name="L.aalt" horiz-adv-x="1050" 
d="M477 1087v-835h541v-252h-866v1087h325z" />
    <glyph glyph-name="Lacute.aalt" horiz-adv-x="1050" 
d="M293 1559h307l-180 -353h-232zM477 1087v-835h541v-252h-866v1087h325z" />
    <glyph glyph-name="Lcaron.aalt" horiz-adv-x="1050" 
d="M477 1087v-835h541v-252h-866v1087h325zM922 1087v-213q0 -122 -91 -192q-91 -72 -243 -72v129q90 0 130 29t40 94l-140 53v172h304z" />
    <glyph glyph-name="uni013B.aalt" horiz-adv-x="1050" 
d="M477 1087v-835h541v-252h-866v1087h325zM563 -369l-139 56v172h303v-213q0 -121 -91 -193q-92 -71 -243 -71v129q90 0 130 28.5t40 91.5z" />
    <glyph glyph-name="Ldot.aalt" horiz-adv-x="1050" 
d="M477 1087v-835h541v-252h-866v1087h325zM614 815h293v-293h-293v293z" />
    <glyph glyph-name="Lslash.aalt" horiz-adv-x="1050" 
d="M477 479v-227h541v-252h-866v362l-127 -57v225l127 58v499h325v-382l307 141v-225z" />
    <glyph glyph-name="M.aalt" horiz-adv-x="1818" 
d="M1108 1087h559v-1087h-321v717l8 262l-217 -979h-451l-217 973l6 -256v-717h-323v1087h571l158 -708l34 -254l33 254z" />
    <glyph glyph-name="N.aalt" horiz-adv-x="1492" 
d="M1020 494v593h321v-1087h-563l-313 969l10 -359v-610h-323v1087h565l313 -968z" />
    <glyph glyph-name="Nacute.aalt" horiz-adv-x="1492" 
d="M731 1559h307l-180 -353h-231zM1020 494v593h321v-1087h-563l-313 969l10 -359v-610h-323v1087h565l313 -968z" />
    <glyph glyph-name="Ncaron.aalt" horiz-adv-x="1492" 
d="M963 1206h-420l-181 353h265l127 -291l125 291h264zM1020 494v593h321v-1087h-563l-313 969l10 -359v-610h-323v1087h565l313 -968z" />
    <glyph glyph-name="uni0145.aalt" horiz-adv-x="1492" 
d="M1020 494v593h321v-1087h-563l-313 969l10 -359v-610h-323v1087h565l313 -968zM754 -369l-140 56v172h304v-213q0 -121 -91 -193q-92 -71 -243 -71v129q90 0 130 28.5t40 91.5z" />
    <glyph glyph-name="Eng.aalt" horiz-adv-x="1492" 
d="M1020 1087h321v-1087h-2v-43q0 -166 -106 -268q-107 -101 -281 -101q-84 0 -157 21v235h104q63 0 90 33t27 111v12h-238l-313 969l10 -359v-610h-323v1087h565l313 -968l-10 375v593z" />
    <glyph glyph-name="uni019D.aalt" horiz-adv-x="1492" 
d="M1020 494v593h321v-1087h-563l-313 969l10 -359v-610h-4v-43q0 -166 -106 -268q-107 -101 -281 -101q-84 0 -158 21v235h105q66 0 92.5 33t26.5 111v16h2v1083h565l313 -968z" />
    <glyph glyph-name="Ntilde.aalt" horiz-adv-x="1492" 
d="M614 1321q-86 0 -86 -86h-159q0 309 233 309q64 0 152 -45t137 -45q86 0 86 86h160q0 -309 -234 -309q-63 0 -151 45t-138 45zM1020 494v593h321v-1087h-563l-313 969l10 -359v-610h-323v1087h565l313 -968z" />
    <glyph glyph-name="O.c2sc" horiz-adv-x="1339" 
d="M1094 126q-161 -157 -424 -157t-424 157q-162 158 -162 413t162 413q162 156 424 156t424 -156q161 -158 161 -413t-161 -413zM480 300q58 -75 190 -75q131 0 191 75q59 76 59 239q0 162 -59 238q-60 75 -191 75q-132 0 -190 -75q-60 -75 -60 -238q0 -164 60 -239z" />
    <glyph glyph-name="Oacute.aalt" horiz-adv-x="1339" 
d="M543 1206l104 353h307l-180 -353h-231zM1094 126q-161 -157 -424 -157t-424 157q-162 158 -162 413t162 413q162 156 424 156t424 -156q161 -158 161 -413t-161 -413zM480 300q58 -75 190 -75q131 0 191 75q59 76 59 239q0 162 -59 238q-60 75 -191 75q-132 0 -190 -75
q-60 -75 -60 -238q0 -164 60 -239z" />
    <glyph glyph-name="Obreve.aalt" horiz-adv-x="1339" 
d="M782 1559h213q0 -177 -88 -268q-89 -93 -237 -93q-152 0 -239 93.5t-87 267.5h213q0 -88 26.5 -127t86.5 -39t86 38.5t26 127.5zM1094 126q-161 -157 -424 -157t-424 157q-162 158 -162 413t162 413q162 156 424 156t424 -156q161 -158 161 -413t-161 -413zM480 300
q58 -75 190 -75q131 0 191 75q59 76 59 239q0 162 -59 238q-60 75 -191 75q-132 0 -190 -75q-60 -75 -60 -238q0 -164 60 -239z" />
    <glyph glyph-name="Ocircumflex.aalt" horiz-adv-x="1339" 
d="M799 1206l-127 293l-127 -293h-262l180 353h418l180 -353h-262zM246 952q162 156 424 156t424 -156q161 -158 161 -413t-161 -413q-161 -157 -424 -157t-424 157q-162 158 -162 413t162 413zM480 300q58 -75 190 -75q131 0 191 75q59 76 59 239q0 162 -59 238
q-60 75 -191 75q-132 0 -190 -75q-60 -75 -60 -238q0 -164 60 -239z" />
    <glyph glyph-name="Odieresis.aalt" horiz-adv-x="1339" 
d="M324 1241v289h297v-289h-297zM717 1241v289h297v-289h-297zM1094 126q-161 -157 -424 -157t-424 157q-162 158 -162 413t162 413q162 156 424 156t424 -156q161 -158 161 -413t-161 -413zM480 300q58 -75 190 -75q131 0 191 75q59 76 59 239q0 162 -59 238
q-60 75 -191 75q-132 0 -190 -75q-60 -75 -60 -238q0 -164 60 -239z" />
    <glyph glyph-name="uni1ECC.aalt" horiz-adv-x="1339" 
d="M1094 126q-161 -157 -424 -157t-424 157q-162 158 -162 413t162 413q162 156 424 156t424 -156q161 -158 161 -413t-161 -413zM480 300q58 -75 190 -75q131 0 191 75q59 76 59 239q0 162 -59 238q-60 75 -191 75q-132 0 -190 -75q-60 -75 -60 -238q0 -164 60 -239z
M496 -426v285h346v-285h-346z" />
    <glyph glyph-name="Ograve.aalt" horiz-adv-x="1339" 
d="M381 1559h307l105 -353h-232zM1094 126q-161 -157 -424 -157t-424 157q-162 158 -162 413t162 413q162 156 424 156t424 -156q161 -158 161 -413t-161 -413zM480 300q58 -75 190 -75q131 0 191 75q59 76 59 239q0 162 -59 238q-60 75 -191 75q-132 0 -190 -75
q-60 -75 -60 -238q0 -164 60 -239z" />
    <glyph glyph-name="Ohungarumlaut.aalt" horiz-adv-x="1339" 
d="M389 1206l92 353h258l-118 -353h-232zM709 1206l104 353h307l-180 -353h-231zM1094 126q-161 -157 -424 -157t-424 157q-162 158 -162 413t162 413q162 156 424 156t424 -156q161 -158 161 -413t-161 -413zM480 300q58 -75 190 -75q131 0 191 75q59 76 59 239
q0 162 -59 238q-60 75 -191 75q-132 0 -190 -75q-60 -75 -60 -238q0 -164 60 -239z" />
    <glyph glyph-name="Omacron.aalt" horiz-adv-x="1339" 
d="M377 1511h584v-247h-584v247zM1094 126q-161 -157 -424 -157t-424 157q-162 158 -162 413t162 413q162 156 424 156t424 -156q161 -158 161 -413t-161 -413zM480 300q58 -75 190 -75q131 0 191 75q59 76 59 239q0 162 -59 238q-60 75 -191 75q-132 0 -190 -75
q-60 -75 -60 -238q0 -164 60 -239z" />
    <glyph glyph-name="uni01EA.aalt" horiz-adv-x="1339" 
d="M879 0l-117 -152q-31 -37 -31 -65q0 -43 57 -43h111v-186h-262q-79 0 -122.5 38t-43.5 101q0 79 61 149l109 127q-253 11 -404 165q-153 154 -153 405q0 255 162 413q162 156 424 156t424 -156q161 -158 161 -413q0 -199 -101 -342q-101 -144 -275 -197zM480 777
q-60 -75 -60 -238q0 -164 60 -239q58 -75 190 -75q131 0 191 75q59 76 59 239q0 162 -59 238q-60 75 -191 75q-132 0 -190 -75z" />
    <glyph glyph-name="Oslash.aalt" horiz-adv-x="1345" 
d="M1262 1208l-170 -254q165 -158 163 -415q0 -255 -161 -413q-161 -157 -424 -157q-116 0 -219 33l-99 -145h-258l170 252q-180 157 -180 430q0 255 162 413q162 156 424 156q128 0 239 -41l95 141h258zM420 539q0 -106 22 -166l316 469q-43 10 -88 10q-131 0 -190.5 -74.5
t-59.5 -238.5zM670 225q131 0 190.5 75t59.5 239q0 83 -15 139l-301 -447q32 -6 66 -6z" />
    <glyph glyph-name="Oslashacute.aalt" horiz-adv-x="1345" 
d="M655 1559h308l-181 -353h-231zM1262 1208l-170 -254q165 -158 163 -415q0 -255 -161 -413q-161 -157 -424 -157q-116 0 -219 33l-99 -145h-258l170 252q-180 157 -180 430q0 255 162 413q162 156 424 156q128 0 239 -41l95 141h258zM420 539q0 -106 22 -166l316 469
q-43 10 -88 10q-131 0 -190.5 -74.5t-59.5 -238.5zM670 225q131 0 190.5 75t59.5 239q0 83 -15 139l-301 -447q32 -6 66 -6z" />
    <glyph glyph-name="Otilde.aalt" horiz-adv-x="1339" 
d="M819 1231q-63 0 -151 45t-138 45q-86 0 -86 -86h-159q0 309 233 309q64 0 152 -45t137 -45q86 0 86 86h160q-1 -309 -234 -309zM1094 126q-161 -157 -424 -157t-424 157q-162 158 -162 413t162 413q162 156 424 156t424 -156q161 -158 161 -413t-161 -413zM480 300
q58 -75 190 -75q131 0 191 75q59 76 59 239q0 162 -59 238q-60 75 -191 75q-132 0 -190 -75q-60 -75 -60 -238q0 -164 60 -239z" />
    <glyph glyph-name="OE.aalt" horiz-adv-x="1845" 
d="M1204 440v-188h529v-252h-1065q-262 0 -423 150q-161 149 -161 395q0 244 161 393t423 149h1061v-251h-525v-179h508v-217h-508zM707 252h172v584h-172q-147 0 -217 -71t-70 -220q0 -152 69.5 -222.5t217.5 -70.5z" />
    <glyph glyph-name="P.aalt" horiz-adv-x="1206" 
d="M152 1087h626q172 0 278 -103q105 -104 105 -271q0 -166 -109 -266q-110 -101 -288 -101h-289v-346h-323v1087zM475 592h201q78 0 113.5 28.5t35.5 92.5q0 63 -35.5 93t-113.5 30h-201v-244z" />
    <glyph glyph-name="Thorn.aalt" horiz-adv-x="1228" 
d="M473 920h303q171 0 278 -102q105 -104 105 -271t-109 -267q-110 -102 -290 -102h-287v-178h-323v1087h323v-167zM473 424h199q80 0 115.5 28.5t35.5 94.5q0 123 -151 123h-199v-246z" />
    <glyph glyph-name="Q.aalt" horiz-adv-x="1343" 
d="M1255 539q0 -232 -133 -383l133 -121l-155 -160l-142 156q-127 -60 -288 -62q-263 0 -424 157q-162 158 -162 413t162 413q162 156 424 156t424 -156q161 -158 161 -413zM480 777q-60 -75 -60 -238q0 -164 60 -239q58 -75 190 -75q53 0 90 8l-131 123l145 150l129 -135
q15 55 17 168q0 164 -59.5 238.5t-190.5 74.5q-132 0 -190 -75z" />
    <glyph glyph-name="R.aalt" horiz-adv-x="1312" 
d="M1290 0h-366l-228 371h-221v-371h-323v1087h641q171 0 278 -99q105 -99 105 -263q0 -202 -166 -299l80 -107zM690 836h-215v-240h215q78 0 114 28.5t36 92.5q0 119 -150 119z" />
    <glyph glyph-name="Racute.aalt" horiz-adv-x="1312" 
d="M627 1559h307l-180 -353h-232zM1290 0h-366l-228 371h-221v-371h-323v1087h641q171 0 278 -99q105 -99 105 -263q0 -202 -166 -299l80 -107zM690 836h-215v-240h215q78 0 114 28.5t36 92.5q0 119 -150 119z" />
    <glyph glyph-name="Rcaron.aalt" horiz-adv-x="1312" 
d="M858 1206h-420l-180 353h264l127 -291l125 291h264zM1290 0h-366l-228 371h-221v-371h-323v1087h641q171 0 278 -99q105 -99 105 -263q0 -202 -166 -299l80 -107zM690 836h-215v-240h215q78 0 114 28.5t36 92.5q0 119 -150 119z" />
    <glyph glyph-name="uni0156.aalt" horiz-adv-x="1312" 
d="M1010 426l80 -107l200 -319h-366l-228 371h-221v-371h-323v1087h641q171 0 278 -99q105 -99 105 -263q0 -202 -166 -299zM690 836h-215v-240h215q78 0 114 28.5t36 92.5q0 119 -150 119zM664 -369l-140 56v172h303v-213q0 -121 -91 -193q-92 -71 -242 -71v129
q90 0 130 28.5t40 91.5z" />
    <glyph glyph-name="S.aalt" horiz-adv-x="1226" 
d="M78 336h321q0 -72 53.5 -105.5t168.5 -33.5q202 0 200 92q0 47 -50 71q-53 24 -216 46q-233 29 -344 113t-111 235q0 160 139 257q137 97 365 97q231 0 374 -104q142 -105 142 -275h-323q0 79 -46.5 115.5t-148.5 36.5q-184 0 -184 -97q0 -47 55 -69q56 -23 217 -45
q253 -32 357 -112q104 -81 104 -230q0 -164 -144 -261q-146 -98 -388 -98q-243 0 -392 101t-149 266z" />
    <glyph glyph-name="Sacute.aalt" horiz-adv-x="1226" 
d="M485 1206l105 353h307l-180 -353h-232zM78 336h321q0 -72 53.5 -105.5t168.5 -33.5q202 0 200 92q0 47 -50 71q-53 24 -216 46q-233 29 -344 113t-111 235q0 160 139 257q137 97 365 97q231 0 374 -104q142 -105 142 -275h-323q0 79 -46.5 115.5t-148.5 36.5
q-184 0 -184 -97q0 -47 55 -69q56 -23 217 -45q253 -32 357 -112q104 -81 104 -230q0 -164 -144 -261q-146 -98 -388 -98q-243 0 -392 101t-149 266z" />
    <glyph glyph-name="Scaron.aalt" horiz-adv-x="1226" 
d="M821 1206h-420l-180 353h264l127 -291l125 291h264zM690 670q253 -32 357 -112q104 -81 104 -230q0 -164 -144 -261q-146 -98 -388 -98q-243 0 -392 101t-149 266h321q0 -72 53.5 -105.5t168.5 -33.5q202 0 200 92q0 47 -50 71q-53 24 -216 46q-233 29 -344 113t-111 235
q0 160 139 257q137 97 365 97q231 0 374 -104q142 -105 142 -275h-323q0 79 -46.5 115.5t-148.5 36.5q-184 0 -184 -97q0 -47 55 -69q56 -23 217 -45z" />
    <glyph glyph-name="Scedilla.c2sc" horiz-adv-x="1226" 
d="M1047 558q104 -81 104 -230q0 -150 -122 -245q-123 -96 -331 -112l-24 -75h31q80 0 128 -45.5t48 -118.5q0 -80 -54.5 -129t-142.5 -49h-223v139h157q52 0 54 41q0 41 -54 41h-139v114l33 86q-198 22 -316 119q-118 96 -118 242h321q0 -72 53.5 -105.5t168.5 -33.5
q202 0 200 92q0 47 -50 71q-53 24 -216 46q-233 29 -344 113t-111 235q0 160 139 257q137 97 365 97q231 0 374 -104q142 -105 142 -275h-323q0 79 -46.5 115.5t-148.5 36.5q-184 0 -184 -97q0 -47 55 -69q56 -23 217 -45q253 -32 357 -112z" />
    <glyph glyph-name="Scircumflex.aalt" horiz-adv-x="1226" 
d="M741 1206l-127 293l-127 -293h-262l181 353h417l181 -353h-263zM690 670q253 -32 357 -112q104 -81 104 -230q0 -164 -144 -261q-146 -98 -388 -98q-243 0 -392 101t-149 266h321q0 -72 53.5 -105.5t168.5 -33.5q202 0 200 92q0 47 -50 71q-53 24 -216 46
q-233 29 -344 113t-111 235q0 160 139 257q137 97 365 97q231 0 374 -104q142 -105 142 -275h-323q0 79 -46.5 115.5t-148.5 36.5q-184 0 -184 -97q0 -47 55 -69q56 -23 217 -45z" />
    <glyph glyph-name="uni0218.aalt" horiz-adv-x="1226" 
d="M78 336h321q0 -72 53.5 -105.5t168.5 -33.5q202 0 200 92q0 47 -50 71q-53 24 -216 46q-233 29 -344 113t-111 235q0 160 139 257q137 97 365 97q231 0 374 -104q142 -105 142 -275h-323q0 79 -46.5 115.5t-148.5 36.5q-184 0 -184 -97q0 -47 55 -69q56 -23 217 -45
q253 -32 357 -112q104 -81 104 -230q0 -164 -144 -261q-146 -98 -388 -98q-243 0 -392 101t-149 266zM459 -313v172h303v-213q0 -121 -91 -193q-92 -71 -243 -71v129q90 0 130 28.5t40 91.5z" />
    <glyph glyph-name="T.aalt" horiz-adv-x="1081" 
d="M10 1087h1061v-251h-369v-836h-325v836h-367v251z" />
    <glyph glyph-name="Tbar.aalt" horiz-adv-x="1081" 
d="M1071 1087v-251h-369v-234h275v-192h-275v-410h-325v410h-275v192h275v234h-367v251h1061z" />
    <glyph glyph-name="Tcaron.aalt" horiz-adv-x="1081" 
d="M750 1206h-420l-180 353h264l127 -291l125 291h264zM10 1087h1061v-251h-369v-836h-325v836h-367v251z" />
    <glyph glyph-name="uni0162.c2sc" horiz-adv-x="1081" 
d="M702 836v-836h-65l-35 -104h31q80 0 128 -45.5t48 -118.5q0 -80 -54.5 -129t-142.5 -49h-223v139h158q53 0 53 41t-53 41h-139v114l43 111h-74v836h-367v251h1061v-251h-369z" />
    <glyph glyph-name="uni021A.aalt" horiz-adv-x="1081" 
d="M10 1087h1061v-251h-369v-836h-325v836h-367v251zM526 -369l-139 56v172h303v-213q0 -121 -91 -193q-92 -71 -243 -71v129q90 0 130 28.5t40 91.5z" />
    <glyph glyph-name="U.aalt" horiz-adv-x="1310" 
d="M127 408v679h326v-653q0 -109 48.5 -159t154.5 -50t154 50t48 159v653h326v-679q0 -197 -145 -318t-383 -121t-383 121q-146 122 -146 318z" />
    <glyph glyph-name="Uacute.aalt" horiz-adv-x="1310" 
d="M528 1206l105 353h307l-180 -353h-232zM127 408v679h326v-653q0 -109 48.5 -159t154.5 -50t154 50t48 159v653h326v-679q0 -197 -145 -318t-383 -121t-383 121q-146 122 -146 318z" />
    <glyph glyph-name="Ubreve.aalt" horiz-adv-x="1310" 
d="M768 1559h213q0 -177 -88 -268q-89 -93 -237 -93q-152 0 -239 93.5t-87 267.5h213q0 -88 26.5 -127t86.5 -39t86 38.5t26 127.5zM127 408v679h326v-653q0 -109 48.5 -159t154.5 -50t154 50t48 159v653h326v-679q0 -197 -145 -318t-383 -121t-383 121q-146 122 -146 318z
" />
    <glyph glyph-name="Ucircumflex.aalt" horiz-adv-x="1310" 
d="M784 1206l-127 293l-127 -293h-262l181 353h417l181 -353h-263zM858 434v653h326v-679q0 -197 -145 -318t-383 -121t-383 121q-146 122 -146 318v679h326v-653q0 -109 48.5 -159t154.5 -50t154 50t48 159z" />
    <glyph glyph-name="Udieresis.aalt" horiz-adv-x="1310" 
d="M309 1241v289h297v-289h-297zM702 1241v289h297v-289h-297zM127 408v679h326v-653q0 -109 48.5 -159t154.5 -50t154 50t48 159v653h326v-679q0 -197 -145 -318t-383 -121t-383 121q-146 122 -146 318z" />
    <glyph glyph-name="uni1EE4.aalt" horiz-adv-x="1310" 
d="M127 408v679h326v-653q0 -109 48.5 -159t154.5 -50t154 50t48 159v653h326v-679q0 -197 -145 -318t-383 -121t-383 121q-146 122 -146 318zM481 -426v285h346v-285h-346z" />
    <glyph glyph-name="Ugrave.aalt" horiz-adv-x="1310" 
d="M367 1559h307l104 -353h-231zM127 408v679h326v-653q0 -109 48.5 -159t154.5 -50t154 50t48 159v653h326v-679q0 -197 -145 -318t-383 -121t-383 121q-146 122 -146 318z" />
    <glyph glyph-name="Uhungarumlaut.aalt" horiz-adv-x="1310" 
d="M375 1206l92 353h258l-119 -353h-231zM694 1206l105 353h307l-180 -353h-232zM127 408v679h326v-653q0 -109 48.5 -159t154.5 -50t154 50t48 159v653h326v-679q0 -197 -145 -318t-383 -121t-383 121q-146 122 -146 318z" />
    <glyph glyph-name="Umacron.aalt" horiz-adv-x="1310" 
d="M362 1511h584v-247h-584v247zM127 408v679h326v-653q0 -109 48.5 -159t154.5 -50t154 50t48 159v653h326v-679q0 -197 -145 -318t-383 -121t-383 121q-146 122 -146 318z" />
    <glyph glyph-name="Uogonek.aalt" horiz-adv-x="1310" 
d="M858 434v653h326v-679q0 -147 -84 -255q-85 -109 -234 -155l-116 -150q-31 -37 -31 -65q0 -43 57 -43h111v-186h-262q-79 0 -122.5 38t-43.5 101q0 79 61 149l109 127q-227 8 -364 128q-138 120 -138 311v679h326v-653q0 -109 48.5 -159t154.5 -50t154 50t48 159z" />
    <glyph glyph-name="Uring.aalt" horiz-adv-x="1310" 
d="M808 1249q-58 -51 -152 -51t-153 51t-59 133q0 81 59 134q59 51 153 51t152 -51q58 -52 58 -134t-58 -133zM580 1383q0 -66 76 -66q75 0 75 66q0 65 -75 65q-76 0 -76 -65zM127 408v679h326v-653q0 -109 48.5 -159t154.5 -50t154 50t48 159v653h326v-679
q0 -197 -145 -318t-383 -121t-383 121q-146 122 -146 318z" />
    <glyph glyph-name="Utilde.aalt" horiz-adv-x="1310" 
d="M805 1231q-63 0 -151 45t-138 45q-86 0 -86 -86h-160q0 309 234 309q62 0 151 -45t138 -45q86 0 86 86h159q0 -309 -233 -309zM127 408v679h326v-653q0 -109 48.5 -159t154.5 -50t154 50t48 159v653h326v-679q0 -197 -145 -318t-383 -121t-383 121q-146 122 -146 318z
" />
    <glyph glyph-name="V.aalt" horiz-adv-x="1308" 
d="M721 324l250 763h323l-356 -1087h-567l-357 1087h336l252 -763l60 -211z" />
    <glyph glyph-name="W.aalt" horiz-adv-x="2023" 
d="M1470 319l172 768h338l-258 -1087h-514l-151 702l-43 277l-45 -277l-152 -702h-516l-258 1087h342l170 -768l35 -190l28 190l158 768h473l158 -768l29 -190z" />
    <glyph glyph-name="Wacute.aalt" horiz-adv-x="2023" 
d="M1001 1559h308l-181 -353h-231zM1470 319l172 768h338l-258 -1087h-514l-151 702l-43 277l-45 -277l-152 -702h-516l-258 1087h342l170 -768l35 -190l28 190l158 768h473l158 -768l29 -190z" />
    <glyph glyph-name="Wcircumflex.aalt" horiz-adv-x="2023" 
d="M1153 1206l-127 293l-127 -293h-262l180 353h418l180 -353h-262zM1470 319l172 768h338l-258 -1087h-514l-151 702l-43 277l-45 -277l-152 -702h-516l-258 1087h342l170 -768l35 -190l28 190l158 768h473l158 -768l29 -190z" />
    <glyph glyph-name="Wdieresis.aalt" horiz-adv-x="2023" 
d="M678 1530h297v-289h-297v289zM1071 1530h297v-289h-297v289zM1470 319l172 768h338l-258 -1087h-514l-151 702l-43 277l-45 -277l-152 -702h-516l-258 1087h342l170 -768l35 -190l28 190l158 768h473l158 -768l29 -190z" />
    <glyph glyph-name="Wgrave.aalt" horiz-adv-x="2023" 
d="M1042 1559l105 -353h-232l-180 353h307zM1470 319l172 768h338l-258 -1087h-514l-151 702l-43 277l-45 -277l-152 -702h-516l-258 1087h342l170 -768l35 -190l28 190l158 768h473l158 -768l29 -190z" />
    <glyph glyph-name="X.aalt" horiz-adv-x="1382" 
d="M1331 1087l-344 -509l381 -578h-364l-205 311l-111 191l-110 -191l-205 -311h-359l375 569l-350 518h364l179 -264l106 -186l107 186l178 264h358z" />
    <glyph glyph-name="Y.aalt" horiz-adv-x="1224" 
d="M897 1087h338l-461 -761v-326h-323v322l-461 765h350l195 -342l83 -165l82 165z" />
    <glyph glyph-name="Yacute.aalt" horiz-adv-x="1224" 
d="M590 1559h307l-180 -353h-232zM897 1087h338l-461 -761v-326h-323v322l-461 765h350l195 -342l83 -165l82 165z" />
    <glyph glyph-name="Ycircumflex.aalt" horiz-adv-x="1224" 
d="M741 1206l-127 293l-127 -293h-262l181 353h417l181 -353h-263zM897 1087h338l-461 -761v-326h-323v322l-461 765h350l195 -342l83 -165l82 165z" />
    <glyph glyph-name="Ydieresis.aalt" horiz-adv-x="1224" 
d="M266 1530h297v-289h-297v289zM659 1530h297v-289h-297v289zM897 1087h338l-461 -761v-326h-323v322l-461 765h350l195 -342l83 -165l82 165z" />
    <glyph glyph-name="Ygrave.aalt" horiz-adv-x="1224" 
d="M631 1559l104 -353h-231l-180 353h307zM897 1087h338l-461 -761v-326h-323v322l-461 765h350l195 -342l83 -165l82 165z" />
    <glyph glyph-name="uni0232.aalt" horiz-adv-x="1224" 
d="M322 1511h583v-247h-583v247zM897 1087h338l-461 -761v-326h-323v322l-461 765h350l195 -342l83 -165l82 165z" />
    <glyph glyph-name="uni1EF8.aalt" horiz-adv-x="1224" 
d="M473 1321q-86 0 -86 -86h-160q0 309 234 309q63 0 151 -45t138 -45q86 0 86 86h159q0 -309 -233 -309q-62 0 -151 45t-138 45zM897 1087h338l-461 -761v-326h-323v322l-461 765h350l195 -342l83 -165l82 165z" />
    <glyph glyph-name="Z.c2sc" horiz-adv-x="1067" 
d="M197 248l186 4h612v-252h-915v485l799 357l-197 -6h-596v251h905v-487z" />
    <glyph glyph-name="Zacute.c2sc" horiz-adv-x="1067" 
d="M514 1559h307l-180 -353h-231zM197 248l186 4h612v-252h-915v485l799 357l-197 -6h-596v251h905v-487z" />
    <glyph glyph-name="Zcaron.c2sc" horiz-adv-x="1067" 
d="M745 1206h-419l-181 353h265l127 -291l125 291h264zM197 248l186 4h612v-252h-915v485l799 357l-197 -6h-596v251h905v-487z" />
    <glyph glyph-name="Zdotaccent.c2sc" horiz-adv-x="1067" 
d="M365 1530h346v-289h-346v289zM197 248l186 4h612v-252h-915v485l799 357l-197 -6h-596v251h905v-487z" />
    <glyph glyph-name="i.aalt.aalt" horiz-adv-x="921" 
d="M852 1087v-251h-229v-584h229v-252h-782v252h227v584h-227v251h782z" />
    <glyph glyph-name="iacute.aalt.aalt" horiz-adv-x="921" 
d="M438 1559h307l-180 -353h-231zM852 1087v-251h-229v-584h229v-252h-782v252h227v584h-227v251h782z" />
    <glyph glyph-name="ibreve.aalt.aalt" horiz-adv-x="921" 
d="M698 1291q-88 -93 -237 -93t-238 92q-88 91 -88 269h213q0 -88 26.5 -127t86.5 -39t86 38.5t26 127.5h213q0 -177 -88 -268zM852 1087v-251h-229v-584h229v-252h-782v252h227v584h-227v251h782z" />
    <glyph glyph-name="icircumflex.aalt.aalt" horiz-adv-x="921" 
d="M590 1206l-127 293l-127 -293h-262l180 353h418l180 -353h-262zM70 1087h782v-251h-229v-584h229v-252h-782v252h227v584h-227v251z" />
    <glyph glyph-name="idieresis.aalt.aalt" horiz-adv-x="921" 
d="M115 1530h297v-289h-297v289zM508 1530h297v-289h-297v289zM852 1087v-251h-229v-584h229v-252h-782v252h227v584h-227v251h782z" />
    <glyph glyph-name="Idotaccent.c2sc.ss02" horiz-adv-x="921" 
d="M287 1530h346v-289h-346v289zM852 1087v-251h-229v-584h229v-252h-782v252h227v584h-227v251h782z" />
    <glyph glyph-name="uni1ECB.aalt.aalt" horiz-adv-x="921" 
d="M852 1087v-251h-229v-584h229v-252h-782v252h227v584h-227v251h782zM633 -426h-346v285h346v-285z" />
    <glyph glyph-name="igrave.aalt.aalt" horiz-adv-x="921" 
d="M479 1559l105 -353h-232l-180 353h307zM852 1087v-251h-229v-584h229v-252h-782v252h227v584h-227v251h782z" />
    <glyph glyph-name="imacron.aalt.aalt" horiz-adv-x="921" 
d="M168 1511h584v-247h-584v247zM852 1087v-251h-229v-584h229v-252h-782v252h227v584h-227v251h782z" />
    <glyph glyph-name="iogonek.aalt.aalt" horiz-adv-x="921" 
d="M852 1087v-251h-229v-584h229v-252h-229l-117 -152q-31 -37 -31 -65q0 -43 57 -43h111v-186h-262q-79 0 -122.5 38t-43.5 101q0 79 61 149l136 158h-342v252h227v584h-227v251h782z" />
    <glyph glyph-name="itilde.aalt.aalt" horiz-adv-x="921" 
d="M322 1321q-86 0 -86 -86h-160q0 309 233 309q63 0 152 -45t137 -45q86 0 86 86h160q0 -309 -234 -309q-62 0 -151 45t-137 45zM852 1087v-251h-229v-584h229v-252h-782v252h227v584h-227v251h782z" />
    <glyph glyph-name="Z.c2sc.ss03" horiz-adv-x="1067" 
d="M256 248l152 4h587v-252h-915v451l739 389l-162 -4h-571v251h905v-452z" />
    <glyph glyph-name="Zacute.c2sc.ss03" horiz-adv-x="1067" 
d="M514 1559h307l-180 -353h-231zM256 248l152 4h587v-252h-915v451l739 389l-162 -4h-571v251h905v-452z" />
    <glyph glyph-name="Zcaron.c2sc.ss03" horiz-adv-x="1067" 
d="M745 1206h-419l-181 353h265l127 -291l125 291h264zM256 248l152 4h587v-252h-915v451l739 389l-162 -4h-571v251h905v-452z" />
    <glyph glyph-name="Zdotaccent.c2sc.ss03" horiz-adv-x="1067" 
d="M365 1530h346v-289h-346v289zM256 248l152 4h587v-252h-915v451l739 389l-162 -4h-571v251h905v-452z" />
    <glyph glyph-name="zero.case" horiz-adv-x="1515" 
d="M1246 176q-184 -207 -488 -207q-303 0 -487 207q-185 208 -185 547t185 547q184 207 487 207q304 0 488 -207q184 -206 184 -547t-184 -547zM518 378q76 -108 240 -108t240 108q75 106 75 345q0 238 -75 346q-77 107 -240 107t-240 -107q-76 -107 -76 -346t76 -345z" />
    <glyph glyph-name="one.case" horiz-adv-x="1058" 
d="M338 1446h559v-1446h-348v883l10 385l-176 -174l-315 -277v393z" />
    <glyph glyph-name="two.case" horiz-adv-x="1298" 
d="M270 289l277 8h692v-297h-1133v489l592 263q103 52 140 106q36 52 36 146q0 102 -49 149t-157 47q-109 0 -159 -66.5t-50 -213.5h-344q0 250 154 404q153 153 407 153q250 0 398 -129q147 -129 147 -342q0 -301 -334 -449l-420 -201z" />
    <glyph glyph-name="three.case" horiz-adv-x="1337" 
d="M831 776q218 -24 326.5 -121t108.5 -258q0 -193 -162 -310q-161 -118 -428 -118q-266 0 -429 141q-163 139 -163 371h344q0 -122 59 -177.5t187 -55.5q125 0 182 42t57 132q0 176 -198 176h-219v233h194q84 0 126 50t42 137q0 94 -46.5 138t-147.5 44q-111 0 -161 -57.5
t-50 -184.5h-344q0 233 155 376t408 143q242 0 390 -108q148 -109 148 -290q0 -126 -97 -204.5t-282 -98.5z" />
    <glyph glyph-name="four.case" horiz-adv-x="1327" 
d="M1055 539h245v-269h-245v-270h-348v270h-646v572l414 604h580v-907zM168 532l242 7h297v456l10 351z" />
    <glyph glyph-name="five.case" horiz-adv-x="1300" 
d="M821 928q189 0 304 -127q116 -128 116 -334q0 -223 -159 -360q-160 -138 -420 -138t-420 140q-160 139 -160 366h344q0 -119 55.5 -173t178.5 -54q122 0 178.5 51t56.5 162q0 115 -56.5 167t-179.5 52q-145 0 -229 -90h-299l53 856h973v-297h-481l-209 4l-29 -453
q116 228 383 228z" />
    <glyph glyph-name="six.case" horiz-adv-x="1441" 
d="M870 915q212 0 342 -119q129 -120 129 -317q0 -229 -158 -369q-159 -141 -421 -141q-322 0 -499 195q-177 194 -177 553q0 343 186 551q185 209 490 209q253 0 405 -130q152 -131 152 -343h-332q0 102 -54 148t-175 46q-166 0 -242 -114.5t-76 -366.5v-70q40 121 157 195
q115 73 273 73zM743 248q131 0 188.5 50t57.5 163q0 109 -58.5 157t-189.5 48q-142 0 -210 -48t-68 -149q0 -115 67.5 -168t212.5 -53z" />
    <glyph glyph-name="seven.case" horiz-adv-x="1161" 
d="M43 1149v297h1063v-533q-217 -123 -358 -373q-142 -250 -142 -540h-362q0 232 92 452t275 407q186 190 442 298l-383 -8h-627z" />
    <glyph glyph-name="eight.case" horiz-adv-x="1433" 
d="M983 739q362 -78 363 -370q0 -181 -172 -290q-173 -110 -457 -110q-283 0 -456 110t-173 290q0 143 92 237t271 133q-317 72 -318 330q0 182 161 295t423 113q263 0 424 -113q159 -112 159 -295q0 -258 -317 -330zM895 1165q-55 45 -178 45t-178 -45q-56 -45 -56 -145
q0 -102 55.5 -148.5t178.5 -46.5t178 46.5t55 148.5q0 100 -55 145zM717 236q146 0 212 47t66 149q0 105 -65.5 152t-212.5 47q-145 0 -212 -47t-67 -152q0 -102 67 -149t212 -47z" />
    <glyph glyph-name="nine.case" horiz-adv-x="1441" 
d="M680 1477q322 0 499 -193q177 -194 177 -555q0 -342 -185 -551q-186 -209 -491 -209q-252 0 -403 130q-152 131 -152 343h332q0 -102 53.5 -148t173.5 -46q166 0 242 114q75 112 75 367v66q-41 -119 -156 -192t-274 -73q-213 0 -342 120t-129 317q0 229 159 370
q160 140 421 140zM702 780q142 0 209.5 47.5t67.5 149.5q0 115 -66.5 168t-212.5 53q-131 0 -189 -50t-58 -163q0 -109 59 -157t190 -48z" />
    <glyph glyph-name="four.case.ss03" horiz-adv-x="1327" 
d="M1055 539h245v-269h-245v-270h-348v270h-646v445l525 731h469v-907zM221 535l189 4h297v456l6 226z" />
    <glyph glyph-name="zero.case.zero" horiz-adv-x="1515" 
d="M271 1270q184 207 487 207q304 0 488 -207q184 -206 184 -547t-184 -547q-184 -207 -488 -207q-303 0 -487 207q-185 208 -185 547t185 547zM758 1176q-165 0 -240.5 -108t-75.5 -345q0 -213 60 -317l375 753q-57 17 -119 17zM758 270q165 0 240 108t75 345
q0 221 -65 328l-377 -760q52 -21 127 -21z" />
    <glyph glyph-name="zero.oldstyle" horiz-adv-x="1327" 
d="M1087 126q-160 -157 -423 -157t-423 157q-161 158 -161 413t161 413q161 156 423 156t423 -156q160 -157 160 -413t-160 -413zM456 319q80 -83 208 -83t208 83q78 82 78 220q0 137 -78 220q-80 83 -208 83t-208 -83q-79 -82 -79 -220t79 -220z" />
    <glyph glyph-name="one.oldstyle" horiz-adv-x="1224" 
d="M827 1087v-823h373v-264h-1122v264h424v260l10 379l-174 -155l-244 -191v338l246 192h487z" />
    <glyph glyph-name="two.oldstyle" horiz-adv-x="1142" 
d="M252 252l254 6h588v-258h-1012v406l467 159q114 43 152 78q36 35 36 96q0 133 -168 133q-92 0 -133 -45t-41 -145h-317q0 193 135 310q136 116 356 116q219 0 353 -95q133 -94 133 -251q0 -128 -84 -210q-85 -84 -281 -151l-239 -94z" />
    <glyph glyph-name="three.oldstyle" horiz-adv-x="1165" 
d="M702 399q195 -26 306 -125q112 -100 112 -249q0 -207 -169 -322t-472 -115q-238 0 -430 52v237h510q119 0 172 39.5t53 126.5q0 182 -202 182h-260v232h210q96 0 139.5 49t43.5 158q0 102 -40 148t-128 46q-90 0 -131 -50t-41 -161h-318q0 207 136 334q134 127 358 127
q219 0 350 -105q131 -107 131 -278q0 -129 -87 -215t-243 -111z" />
    <glyph glyph-name="four.oldstyle" horiz-adv-x="1304" 
d="M1032 299h248v-270h-248v-420h-325v420h-631v526l407 532h549v-788zM162 295l274 4h271v338l8 369z" />
    <glyph glyph-name="five.oldstyle" horiz-adv-x="1126" 
d="M705 549q180 0 288 -123q107 -124 107 -324q0 -231 -172 -373q-172 -141 -453 -141q-238 0 -430 52v237h475q131 0 187.5 52t56.5 169q0 112 -47.5 160.5t-157.5 48.5q-145 0 -211 -121h-260l39 889h887v-270h-414l-225 4l-21 -481q49 105 140.5 163t210.5 58z" />
    <glyph glyph-name="six.oldstyle" horiz-adv-x="1284" 
d="M801 889q190 0 307 -118q117 -119 117 -308q0 -221 -145 -357q-146 -137 -388 -137q-303 0 -461.5 191.5t-158.5 556.5q0 341 194 546q194 203 537 203q219 0 405 -51v-237h-463q-185 0 -265 -105q-79 -106 -79 -356v-82q39 117 147 186q109 68 253 68zM674 219
q114 0 165.5 53.5t51.5 171.5q0 108 -53 157.5t-168 49.5q-126 0 -186 -47.5t-60 -150.5q0 -121 59.5 -177.5t190.5 -56.5z" />
    <glyph glyph-name="seven.oldstyle" horiz-adv-x="1050" 
d="M39 817v270h965v-487q-212 -141 -348 -411q-138 -271 -138 -580h-340q0 365 209 706q208 340 563 510l-383 -8h-528z" />
    <glyph glyph-name="eight.oldstyle" horiz-adv-x="1257" 
d="M872 727q158 -39 240 -129t82 -225q0 -182 -154 -293t-411 -111q-248 0 -408 112t-160 292q0 275 324 354q-156 37 -239 123t-83 213q0 186 156 300t410 114t409 -114q154 -114 154 -300q0 -127 -82 -213t-238 -123zM629 1227q-121 0 -177.5 -49.5t-56.5 -157.5
q0 -105 56.5 -153t177.5 -48q123 0 178 47t55 154q0 109 -55 158t-178 49zM395 424q0 -205 234 -205q233 0 233 205q0 105 -55.5 153t-177.5 48q-121 0 -177.5 -48.5t-56.5 -152.5z" />
    <glyph glyph-name="nine.oldstyle" horiz-adv-x="1292" 
d="M596 1108q303 0 462 -194.5t159 -565.5q0 -349 -193 -554q-194 -206 -539 -206q-221 0 -405 52v237h465q186 0 265 106q79 107 79 365v94q-39 -119 -145 -189q-107 -71 -252 -71q-192 0 -311 119q-118 118 -118 313q0 222 147 358q145 136 386 136zM618 420
q126 0 187 49.5t61 155.5q0 121 -60.5 177t-189.5 56q-115 0 -166 -53t-51 -172q0 -113 52 -163t167 -50z" />
    <glyph glyph-name="four.oldstyle.ss03" horiz-adv-x="1304" 
d="M1032 299h248v-270h-248v-420h-325v420h-631v403l512 655h444v-788zM240 295l196 4h271v338l6 258z" />
    <glyph glyph-name="zero.oldstyle.zero" horiz-adv-x="1327" 
d="M241 952q161 156 423 156t423 -156q160 -157 160 -413t-160 -413t-423 -157t-423 157q-161 158 -161 413t161 413zM664 842q-128 0 -208 -83q-79 -82 -79 -220q0 -110 53 -189l383 455q-62 37 -149 37zM664 236q128 0 208 83q78 82 78 220q0 111 -53 188l-381 -455
q62 -36 148 -36z" />
    <glyph glyph-name="four.ss03" horiz-adv-x="1327" 
d="M1055 539h245v-269h-245v-270h-348v270h-646v445l525 731h469v-907zM221 535l189 4h297v456l6 226z" />
    <glyph glyph-name="zero.tnum" 
d="M1112 176q-168 -207 -442 -207q-275 0 -443 207t-168 547t168 547t443 207q274 0 442 -207t168 -547t-168 -547zM477 378q60 -108 193 -108q132 0 194 108q60 106 60 345q0 238 -60 346q-62 107 -194 107q-133 0 -193 -107q-61 -107 -61 -346t61 -345z" />
    <glyph glyph-name="one.tnum" 
d="M940 1446v-1155h328v-291h-1157v291h481v592l10 385l-176 -174l-315 -277v393l270 236h559z" />
    <glyph glyph-name="two.tnum" 
d="M272 289l279 8h690v-297h-1132v489l591 263q106 55 143 107q36 53 36 145q0 102 -49.5 149t-157.5 47q-111 0 -161 -66.5t-50 -213.5h-344q0 249 155 404q154 153 408 153q250 0 398 -129q147 -129 147 -342q0 -301 -334 -449l-422 -201z" />
    <glyph glyph-name="three.tnum" 
d="M817 776q218 -24 326 -121t108 -258q0 -193 -161 -310q-161 -118 -428 -118q-268 0 -429 142q-163 141 -163 370h344q0 -123 59 -178t189 -55q125 0 181 41.5t56 132.5q0 176 -199 176h-219v233h195q84 0 126 50t42 137q0 94 -46.5 138t-148.5 44q-109 0 -159 -57.5
t-50 -184.5h-344q0 234 154 376q154 143 407 143q243 0 392 -108q147 -109 147 -290q0 -126 -97 -204.5t-282 -98.5z" />
    <glyph glyph-name="four.tnum" 
d="M1053 539h245v-269h-245v-270h-348v270h-646v572l414 604h580v-907zM166 532l242 7h297v456l10 351z" />
    </font>
</defs>
</svg>
