<?xml version="1.0" standalone="no"?>
<!DOCTYPE svg PUBLIC "-//W3C//DTD SVG 1.1//EN" "http://www.w3.org/Graphics/SVG/1.1/DTD/svg11.dtd" >
<svg xmlns="http://www.w3.org/2000/svg" xmlns:xlink="http://www.w3.org/1999/xlink" version="1.1">
<metadata>
Created by FontForge 20170731 at Fri Apr 12 15:38:38 2019
 By Aleksey,,,
Copyright (c) 2018 by Alexis Navarro Miranda. All rights reserved. Desktop use is strictly prohibited.
</metadata>
<defs>
<font id="MenaGrotesk-SemiBoldItalic" horiz-adv-x="1331" >
  <font-face 
    font-family="Mena Grotesk SemiBold Italic"
    font-weight="600"
    font-style="italic"
    font-stretch="normal"
    units-per-em="2048"
    panose-1="0 0 7 0 0 0 0 0 0 0"
    ascent="1638"
    descent="-410"
    x-height="1053"
    cap-height="1442"
    bbox="-696 -604 2488 2128"
    underline-thickness="0"
    underline-position="0"
    unicode-range="U+0020-FB02"
  />
<missing-glyph horiz-adv-x="1400" 
d="M1233 682h186l-12 -61h-125q-37 -144 -121 -251.5t-203 -162.5l-36 -207h-58l37 207q-74 -59 -188 -119l-8 170h-103l-65 -170q-106 65 -148 121l-37 -209h-55l37 209q-209 113 -182 412h-125l12 61h186q-51 -295 119 -414l23 125q-63 95 -35 260q32 183 139 281l90 520
h608l-92 -524q68 -99 37 -277q-27 -161 -123 -258l-22 -127q213 118 264 414zM635 1407l188 -193l256 193h-444zM848 1188l190 -197l70 393zM528 995l258 193l-188 192zM946 1024l-133 137l-182 -137q80 23 162 23q84 0 153 -23zM666 328q338 0 395 325q29 166 -42 252
t-237 86q-338 0 -397 -338q-29 -159 43 -242t238 -83zM608 922l92 30l-6 -34l-92 -31zM924 887l-82 31l6 34l82 -30zM721 819q-11 -51 -64 -51q-25 0 -38 14.5t-9 36.5q10 56 66 58q24 0 36.5 -15.5t8.5 -42.5zM848 877q25 0 39 -16.5t10 -41.5q-11 -51 -68 -51
q-23 0 -35 14.5t-8 36.5q10 58 62 58zM823 696l-180 -20l8 39l178 20zM518 160l49 119q-97 17 -155 63l-13 -74q44 -64 119 -108zM911 266l13 76q-72 -46 -176 -63l8 -119q80 37 155 106zM647 207q29 0 23 -31q-5 -29 -33 -29q-34 0 -29 29q6 31 39 31zM627 94q27 0 24 -28
q-6 -31 -35 -31q-33 0 -26 31q1 28 37 28z" />
    <glyph glyph-name="uniFB01" unicode="fi" horiz-adv-x="1368" 
d="M594 1053h713l-185 -1053h-284l147 834h-430l-145 -834h-283l145 834h-202l39 219h202l29 166q28 160 155 258t302 98q123 0 192 -23l-35 -202h-161q-80 0 -119 -36t-56 -124zM1049 1251l51 295h305l-51 -295h-305z" />
    <glyph glyph-name="uniFB02" unicode="fl" horiz-adv-x="1447" 
d="M596 1053h324l-37 -219h-326l-147 -834h-283l147 834h-204l39 219h204l29 166q28 160 154 258q125 98 301 98q139 0 223 -23l-37 -202h-188q-80 0 -120 -36.5t-54 -123.5zM1413 1554l-215 -1216q-14 -73 7 -103t83 -30h72l-37 -205q-85 -20 -158 -20q-140 0 -211 89
q-70 89 -45 234l221 1251h283z" />
    <glyph glyph-name="f_f.liga" unicode="ff" horiz-adv-x="1603" 
d="M1767 1350h-235q-80 0 -119 -36t-55 -124l-25 -137h371l-39 -219h-371l-145 -834h-283l146 834h-455l-147 -834h-283l145 834h-202l39 219h202l23 125q28 160 154 258q125 98 300 98q123 0 220 -18l-37 -207h-185q-80 0 -119.5 -36t-54.5 -124l-16 -96h455l28 166
q28 160 155 258t302 98q145 0 266 -19z" />
    <glyph glyph-name="f_f_i.liga" unicode="ffi" horiz-adv-x="2105" 
d="M1333 1053h713l-186 -1053h-283l147 834h-430l-145 -834h-283l146 834h-455l-147 -834h-283l145 834h-202l39 219h202l23 125q28 160 154 258q125 98 300 98q123 0 220 -18l-37 -207h-185q-80 0 -119.5 -36t-54.5 -124l-16 -96h455l28 166q28 160 155 258t302 98
q124 0 193 -23l-35 -202h-162q-80 0 -119 -36t-55 -124zM1788 1251l51 295h303l-51 -295h-303z" />
    <glyph glyph-name="f_f_l.liga" unicode="ffl" horiz-adv-x="2185" 
d="M1335 1053h324l-39 -219h-324l-147 -834h-283l148 834h-457l-147 -834h-283l147 834h-204l39 219h202l35 192q51 289 410 289q144 0 239 -21l-34 -204h-191q-80 0 -108 -24q-29 -26 -44 -103l-22 -129h457l41 233q49 289 407 289q144 0 256 -23l-35 -202h-204
q-81 0 -110 -25q-30 -25 -42 -102zM2152 1554l-217 -1216q-12 -74 8.5 -103.5t84.5 -29.5h69l-35 -205q-85 -20 -157 -20q-141 0 -212 89q-71 90 -46 234l221 1251h284z" />
    <glyph glyph-name=".notdef" horiz-adv-x="1400" 
d="M1233 682h186l-12 -61h-125q-37 -144 -121 -251.5t-203 -162.5l-36 -207h-58l37 207q-74 -59 -188 -119l-8 170h-103l-65 -170q-106 65 -148 121l-37 -209h-55l37 209q-209 113 -182 412h-125l12 61h186q-51 -295 119 -414l23 125q-63 95 -35 260q32 183 139 281l90 520
h608l-92 -524q68 -99 37 -277q-27 -161 -123 -258l-22 -127q213 118 264 414zM635 1407l188 -193l256 193h-444zM848 1188l190 -197l70 393zM528 995l258 193l-188 192zM946 1024l-133 137l-182 -137q80 23 162 23q84 0 153 -23zM666 328q338 0 395 325q29 166 -42 252
t-237 86q-338 0 -397 -338q-29 -159 43 -242t238 -83zM608 922l92 30l-6 -34l-92 -31zM924 887l-82 31l6 34l82 -30zM721 819q-11 -51 -64 -51q-25 0 -38 14.5t-9 36.5q10 56 66 58q24 0 36.5 -15.5t8.5 -42.5zM848 877q25 0 39 -16.5t10 -41.5q-11 -51 -68 -51
q-23 0 -35 14.5t-8 36.5q10 58 62 58zM823 696l-180 -20l8 39l178 20zM518 160l49 119q-97 17 -155 63l-13 -74q44 -64 119 -108zM911 266l13 76q-72 -46 -176 -63l8 -119q80 37 155 106zM647 207q29 0 23 -31q-5 -29 -33 -29q-34 0 -29 29q6 31 39 31zM627 94q27 0 24 -28
q-6 -31 -35 -31q-33 0 -26 31q1 28 37 28z" />
    <glyph glyph-name="glyph1" horiz-adv-x="0" 
 />
    <glyph glyph-name="glyph2" horiz-adv-x="681" 
 />
    <glyph glyph-name="space" unicode=" " horiz-adv-x="409" 
 />
    <glyph glyph-name="exclam" unicode="!" horiz-adv-x="653" 
d="M344 1442h287l-62 -355l-155 -608h-191l60 608zM72 0l55 317h326l-56 -317h-325z" />
    <glyph glyph-name="quotedbl" unicode="&#x22;" horiz-adv-x="794" 
d="M164 893l55 549h275l-138 -549h-192zM565 893l56 549h274l-137 -549h-193z" />
    <glyph glyph-name="numbersign" unicode="#" horiz-adv-x="1476" 
d="M1501 1063l-33 -184h-266l-92 -340h252l-33 -183h-268l-94 -356h-209l96 356h-352l-94 -356h-207l94 356h-256l33 183h272l92 340h-260l33 184h276l101 379h207l-101 -379h350l103 379h207l-101 -379h250zM551 539h352l90 340h-350z" />
    <glyph glyph-name="dollar" unicode="$" horiz-adv-x="1429" 
d="M1401 969h-301q18 106 -14.5 165.5t-122.5 79.5l-66 -370q266 -56 366 -157q99 -104 68 -277q-32 -177 -189 -292q-160 -116 -399 -143l-24 -139h-230l25 139q-240 25 -360 156q-121 130 -86 330h301q-18 -109 26.5 -166t161.5 -74l68 381q-253 52 -353 151
q-100 97 -71 267q33 182 190 303q155 121 387 145l25 138h229l-24 -142q215 -33 322 -164q106 -131 71 -331zM512 1061q-11 -59 23 -97q32 -38 141 -71l59 328q-201 -26 -223 -160zM1022 377q10 57 -22 99q-32 39 -154 77l-60 -332q210 25 236 156z" />
    <glyph glyph-name="percent" unicode="%" horiz-adv-x="1490" 
d="M716 872q-116 -96 -278 -96t-242 96q-81 94 -55 252q27 155 143 253q116 96 277 96q162 0 245 -95q82 -96 54 -253q-29 -159 -144 -253zM1274 1442h297l-484 -647h-256zM473 965q70 0 120 44t63 116q12 71 -23 115t-104 44q-70 0 -120 -44q-51 -43 -63 -116
q-14 -72 20.5 -115.5t106.5 -43.5zM1275 66q-116 -95 -277 -95q-162 0 -244 97q-83 96 -54 251q27 156 143 252q116 95 277 95q162 0 245 -95q83 -96 54 -252q-29 -159 -144 -253zM481 647h256l-440 -647h-297zM1032 160q70 0 120 44t63 116q12 71 -23 115t-104 44
q-70 0 -120 -44q-49 -43 -63 -116q-14 -72 20.5 -115.5t106.5 -43.5z" />
    <glyph glyph-name="ampersand" unicode="&#x26;" horiz-adv-x="1425" 
d="M1186 262l244 -262h-367l-84 90q-200 -121 -438 -121q-277 0 -425 111q-149 110 -118 293q18 121 118 215t265 145q-81 93 -106 170q-27 77 -7 189q28 169 181 276q151 105 368 105t331 -105q114 -107 83 -276q-25 -134 -144 -232t-319 -149l262 -283q50 96 78 250h276
q-43 -237 -198 -416zM557 1073q-18 -102 109 -250q136 41 203 99.5t83 150.5q14 88 -25.5 128t-142.5 40q-105 0 -158 -39t-69 -129zM582 197q154 0 256 45l-353 379q-162 -72 -186 -205q-20 -115 47.5 -167t235.5 -52z" />
    <glyph glyph-name="quotesingle" unicode="'" horiz-adv-x="393" 
d="M164 893l55 549h275l-138 -549h-192z" />
    <glyph glyph-name="parenleft" unicode="(" horiz-adv-x="610" 
d="M492 1554h241q-253 -472 -342 -970q-88 -484 -2 -971h-239q-143 489 -58 971q87 489 400 970z" />
    <glyph glyph-name="parenright" unicode=")" horiz-adv-x="598" 
d="M127 -387h-242q253 472 342 971q85 489 0 970h242q146 -494 57 -970q-85 -489 -399 -971z" />
    <glyph glyph-name="asterisk" unicode="*" horiz-adv-x="681" 
d="M592 1473l-133 -287l-31 287h164zM328 1430l131 -244l-256 114zM754 1300l-295 -114l215 244zM162 1202l297 -16l-289 -144zM694 1042l-235 144l299 16zM219 963l240 223l-103 -293zM455 893l4 293l157 -223z" />
    <glyph glyph-name="plus" unicode="+" horiz-adv-x="1032" 
d="M637 639h324l-35 -201h-324l-57 -325h-203l57 325h-325l35 201h325l58 326h202z" />
    <glyph glyph-name="comma" unicode="," horiz-adv-x="548" 
d="M41 61l45 256h326l-56 -317q-32 -168 -144 -261q-114 -93 -286 -93l25 135q108 0 165.5 47t76.5 149z" />
    <glyph glyph-name="hyphen" unicode="-" horiz-adv-x="675" 
d="M109 633h526l-39 -221h-526z" />
    <glyph glyph-name="period" unicode="." horiz-adv-x="534" 
d="M18 0l56 317h325l-55 -317h-326z" />
    <glyph glyph-name="slash" unicode="/" horiz-adv-x="593" 
d="M-145 -387l686 1941h217l-686 -1941h-217z" />
    <glyph glyph-name="zero" unicode="0" horiz-adv-x="1511" 
d="M659 -31q-297 0 -441 207t-84 545q58 337 277 545q217 207 513 207q295 0 439 -207t85 -545q-57 -338 -275 -545q-219 -207 -514 -207zM460 348q62 -117 245 -117t286 117q103 116 148 373q45 259 -16 374t-244 115q-184 0 -287 -115q-105 -115 -150 -374
q-45 -256 18 -373z" />
    <glyph glyph-name="one" unicode="1" horiz-adv-x="1011" 
d="M496 1442h491l-254 -1442h-301l166 948l68 344l-174 -147l-379 -287l61 342z" />
    <glyph glyph-name="two" unicode="2" horiz-adv-x="1308" 
d="M1128 0h-1122l74 420l643 305q136 72 189 128q50 55 67 157q20 113 -28 165t-175 52q-129 0 -199.5 -74.5t-99.5 -239.5h-301q45 251 222 406q176 154 425 154q244 0 367 -126t88 -333q-51 -288 -410 -455l-497 -248l-183 -63l285 8h701z" />
    <glyph glyph-name="three" unicode="3" horiz-adv-x="1347" 
d="M1282 1071q-21 -125 -128 -206t-286 -101q412 -46 355 -373q-33 -191 -211 -306q-179 -116 -437 -116q-263 0 -399 138q-136 137 -96 360h301q-23 -131 33.5 -190.5t203.5 -59.5q141 0 213 44t91 142q38 207 -187 207h-239l36 205h203q202 0 236 205q20 108 -25 157.5
t-162 49.5q-129 0 -198.5 -62.5t-91.5 -199.5h-301q39 229 215 369q175 139 423 139q235 0 360 -111q124 -111 91 -291z" />
    <glyph glyph-name="four" unicode="4" horiz-adv-x="1341" 
d="M680 287h-664l84 489l584 666h502l-162 -918h268l-41 -237h-268l-51 -287h-301zM874 1343l-716 -825l227 6h336l88 496z" />
    <glyph glyph-name="five" unicode="5" horiz-adv-x="1292" 
d="M1243 1186h-502l-196 2l-117 -477q154 207 424 207q194 0 288 -127q95 -128 58 -334q-39 -220 -217 -353q-179 -135 -432 -135q-254 0 -385 137t-92 357h301q-23 -129 29.5 -187.5t189.5 -58.5q138 0 211.5 56.5t93.5 179.5q23 129 -29 187t-190 58q-93 0 -154 -23
q-60 -24 -123 -77h-260l205 844h942z" />
    <glyph glyph-name="six" unicode="6" horiz-adv-x="1402" 
d="M1386 1006h-292q20 115 -30 167t-183 52q-182 0 -288 -121q-107 -122 -153 -387l-12 -66q63 117 196 190q132 72 294 72q216 0 322 -121t71 -321q-39 -225 -217 -363q-178 -139 -432 -139q-309 0 -450 195q-142 193 -79 553q58 339 279 548q218 208 516 208
q244 0 370 -128q125 -128 88 -339zM772 690q-160 0 -244 -52t-104 -165q-25 -135 39.5 -196.5t228.5 -61.5q143 0 218 57.5t98 186.5q20 121 -36.5 176t-199.5 55z" />
    <glyph glyph-name="seven" unicode="7" horiz-adv-x="1153" 
d="M207 1442h1046l-39 -225l-40 -234q-258 -161 -450 -429q-191 -267 -241 -554h-313q40 226 170 448.5t342 419.5q211 196 481 326l-370 -8h-629z" />
    <glyph glyph-name="eight" unicode="8" horiz-adv-x="1409" 
d="M1362 1067q-46 -258 -369 -330q343 -76 291 -370q-33 -179 -219 -289q-185 -109 -460 -109q-276 0 -421 109q-147 108 -116 289q52 296 419 370q-299 72 -251 330q33 181 207 294q172 112 427 112q254 0 390 -112q135 -113 102 -294zM1049 1026q20 110 -32.5 158.5
t-188.5 48.5t-205.5 -48t-90.5 -159q-18 -109 34.5 -159t187.5 -50t205 50t90 159zM987 420q20 115 -42 166t-222 51q-159 0 -239.5 -51t-100.5 -166q-20 -113 42 -162t222 -49t240 49t100 162z" />
    <glyph glyph-name="nine" unicode="9" horiz-adv-x="1400" 
d="M809 1473q311 0 452 -195q140 -196 76 -553q-58 -338 -277 -548q-217 -208 -515 -208q-244 0 -370 128t-89 339h293q-23 -114 28.5 -166.5t184.5 -52.5q182 0 287 121q105 123 151 387l10 59q-62 -114 -194 -185q-131 -71 -291 -71q-215 0 -322 122q-108 121 -73 321
q40 224 218 364q177 138 431 138zM698 752q160 0 245 52t106 165q23 133 -41 194.5t-228 61.5q-143 0 -218 -57.5t-97 -184.5q-20 -121 35 -176t198 -55z" />
    <glyph glyph-name="colon" unicode=":" horiz-adv-x="534" 
d="M133 645l55 318h326l-55 -318h-326zM18 0l56 317h325l-55 -317h-326z" />
    <glyph glyph-name="semicolon" unicode=";" horiz-adv-x="548" 
d="M143 645l56 318h325l-55 -318h-326zM41 61l45 256h326l-56 -317q-32 -168 -144 -261q-114 -93 -286 -93l25 135q108 0 165.5 47t76.5 149z" />
    <glyph glyph-name="less" unicode="&#x3c;" horiz-adv-x="929" 
d="M762 84l-701 278l60 340l799 279l-37 -211l-723 -238l641 -237z" />
    <glyph glyph-name="equal" unicode="=" horiz-adv-x="1155" 
d="M201 860h874l-35 -198h-874zM121 416h876l-34 -199h-877z" />
    <glyph glyph-name="greater" unicode="&#x3e;" horiz-adv-x="929" 
d="M811 362l-799 -278l37 211l725 237l-641 238l37 211l700 -279z" />
    <glyph glyph-name="question" unicode="?" horiz-adv-x="1073" 
d="M700 1473q222 0 341 -114q118 -113 83 -300q-24 -145 -137.5 -243t-294.5 -140l-65 -17l-47 -196h-185l39 315l184 45q116 27 169 72q50 44 67 135q20 115 -25 167t-165 52q-131 0 -201 -63.5t-96 -204.5h-261q39 221 202 357q164 135 392 135zM567 0h-325l57 317h326z
" />
    <glyph glyph-name="at" unicode="@" horiz-adv-x="2154" 
d="M492 1225q316 260 756 260t665 -250q225 -251 153 -660q-26 -146 -76 -261t-109 -180q-57 -64 -123 -100q-62 -35 -110.5 -47t-103.5 -12q-152 0 -215 65.5t-45 205.5q-154 -264 -412 -264q-209 0 -307 153q-98 152 -53 397q44 249 195 400t358 151q124 0 208.5 -62.5
t115.5 -178.5l34 194h273l-127 -721q-12 -79 8 -105t86 -24q77 1 130 82q52 78 91 299q63 369 -106.5 562.5t-558.5 193.5q-386 0 -627 -200q-239 -200 -307 -584q-68 -383 100 -584t557 -201q332 0 576 135l-31 -180q-257 -117 -574 -117q-440 0 -664 260
q-224 262 -148 687q75 427 391 686zM1006 203q131 0 205.5 72.5t107.5 230.5l8 45q25 166 -22.5 238.5t-182.5 72.5q-137 0 -211.5 -77.5t-105.5 -252.5q-31 -172 16.5 -250.5t184.5 -78.5z" />
    <glyph glyph-name="A" unicode="A" horiz-adv-x="1515" 
d="M1405 0h-313l-56 383h-598l-190 -383h-301l717 1442h530zM766 1038l-209 -417h444l-59 417l-37 308z" />
    <glyph glyph-name="B" unicode="B" horiz-adv-x="1447" 
d="M1442 1096q-20 -117 -108 -201q-89 -85 -224 -113q151 -41 218 -139.5t42 -239.5q-33 -182 -176 -292q-142 -111 -346 -111h-754l252 1442h703q204 0 313 -95q107 -95 80 -251zM1118 1014q16 99 -29 143.5t-161 44.5h-322l-65 -377h321q117 0 177.5 45t78.5 144z
M1057 430q18 100 -26 145.5t-163 45.5h-364l-66 -381h363q119 0 179.5 45t76.5 145z" />
    <glyph glyph-name="C" unicode="C" horiz-adv-x="1554" 
d="M236 176q-162 207 -102 545q59 338 294 545q234 207 555 207q281 0 439 -152q157 -151 112 -410h-301q29 158 -41.5 228.5t-253.5 70.5q-215 0 -333 -115t-163 -374q-45 -257 32 -375q77 -117 290 -117q182 0 277.5 65.5t121.5 209.5h301q-45 -249 -255 -391
q-210 -144 -490 -144q-323 0 -483 207z" />
    <glyph glyph-name="D" unicode="D" horiz-adv-x="1601" 
d="M346 1442h602q322 0 485 -199q162 -199 105 -522q-57 -324 -288 -522q-232 -199 -554 -199h-602zM1229 721q84 469 -338 469h-287l-166 -942h287q420 0 504 473z" />
    <glyph glyph-name="E" unicode="E" horiz-adv-x="1302" 
d="M1364 1442l-45 -252h-715l-59 -344h678l-43 -236h-678l-62 -358h725l-45 -252h-1026l252 1442h1018z" />
    <glyph glyph-name="F" unicode="F" horiz-adv-x="1234" 
d="M1343 1442l-45 -252h-694l-61 -354h661l-43 -236h-659l-107 -600h-301l252 1442h997z" />
    <glyph glyph-name="G" unicode="G" horiz-adv-x="1617" 
d="M1556 928h-301q27 150 -46 216t-263 66q-220 0 -339 -115q-120 -115 -165 -374t33 -378q78 -118 297 -118q193 0 295 81t137 257h-446l37 213h745l-137 -776h-260l61 350q-156 -381 -547 -381q-295 0 -439 203t-87 541q62 344 298 552t562 208q297 0 453 -150
q155 -152 112 -395z" />
    <glyph glyph-name="H" unicode="H" horiz-adv-x="1660" 
d="M1231 856l102 586h301l-252 -1442h-303l107 604h-684l-107 -604h-301l252 1442h303l-102 -586h684z" />
    <glyph glyph-name="I" unicode="I" horiz-adv-x="673" 
d="M94 0l252 1442h303l-254 -1442h-301z" />
    <glyph glyph-name="J" unicode="J" horiz-adv-x="1308" 
d="M47 504h295q-25 -145 22.5 -210t178.5 -65t200.5 66t94.5 213l166 934h301l-170 -963q-39 -229 -215 -369q-177 -141 -424 -141q-244 0 -367 147q-123 145 -82 388z" />
    <glyph glyph-name="K" unicode="K" horiz-adv-x="1515" 
d="M1278 1442h371l-795 -713l580 -729h-390l-399 508l-127 186l-123 -694h-301l252 1442h303l-121 -684l191 184z" />
    <glyph glyph-name="L" unicode="L" horiz-adv-x="1218" 
d="M649 1442l-209 -1190h678l-45 -252h-979l252 1442h303z" />
    <glyph glyph-name="M" unicode="M" horiz-adv-x="2060" 
d="M1520 1442h514l-252 -1442h-305l184 1051l53 260l-571 -1311h-410l-110 1321l-41 -270l-185 -1051h-303l252 1442h528l97 -1012l2 -264l96 264z" />
    <glyph glyph-name="N" unicode="N" horiz-adv-x="1695" 
d="M1221 586l151 856h299l-254 -1442h-520l-285 1317l-63 -426l-156 -891h-299l252 1442h526l283 -1303z" />
    <glyph glyph-name="O" unicode="O" horiz-adv-x="1658" 
d="M1301 176q-239 -207 -568 -207q-331 0 -494 207q-165 207 -105 545q58 337 298 545q239 207 566 207t492 -207t105 -545q-57 -338 -294 -545zM477 346q79 -117 301 -117q221 0 341 117q121 118 167 375q45 258 -33 374q-79 115 -300 115q-223 0 -344 -115
q-122 -116 -167 -374q-45 -257 35 -375z" />
    <glyph glyph-name="P" unicode="P" horiz-adv-x="1353" 
d="M346 1442h674q208 0 315 -125q105 -125 68 -330q-38 -209 -185 -332q-149 -125 -358 -125h-371l-94 -530h-301zM1094 987q20 113 -24 164t-161 51h-303l-76 -432h304q117 0 178.5 51t81.5 166z" />
    <glyph glyph-name="Q" unicode="Q" horiz-adv-x="1642" 
d="M987 1473q325 0 489 -207q162 -207 103 -545q-51 -288 -244 -490l176 -200l-206 -176l-166 223q-193 -109 -416 -109q-324 0 -486 207q-163 207 -103 545q59 338 294 545q236 207 559 207zM606 1095q-119 -116 -164 -374q-45 -257 32 -375q76 -117 294 -117q134 0 219 33
l-188 207l209 176l168 -221q60 112 94 297q45 258 -33 374q-78 115 -295 115q-218 0 -336 -115z" />
    <glyph glyph-name="R" unicode="R" horiz-adv-x="1398" 
d="M1434 1010q-27 -147 -121 -254t-236 -154l90 -158l207 -444h-338l-256 569h-284l-101 -569h-301l252 1442h698q210 0 316 -118q107 -119 74 -314zM1122 999q16 107 -28 155t-160 48h-328l-71 -411h327q117 0 178.5 49.5t81.5 158.5z" />
    <glyph glyph-name="S" unicode="S" horiz-adv-x="1429" 
d="M621 -31q-289 0 -440 136q-152 135 -113 356h301q-23 -129 47.5 -187.5t251.5 -58.5q324 0 354 162q21 65 -41 116q-64 53 -307 99q-283 52 -393 152q-111 98 -80 276q38 204 223 328q187 125 457 125q275 0 417 -138q142 -139 103 -366h-301q25 137 -38.5 197.5
t-227.5 60.5q-294 0 -322 -166q-12 -78 56 -123q66 -44 294 -88q288 -56 394 -157q106 -103 75 -283q-34 -198 -230 -320q-194 -121 -480 -121z" />
    <glyph glyph-name="T" unicode="T" horiz-adv-x="1343" 
d="M188 1442h1289l-45 -252h-494l-209 -1190h-301l209 1190h-494z" />
    <glyph glyph-name="U" unicode="U" horiz-adv-x="1574" 
d="M160 504l166 938h301l-162 -916q-29 -155 36 -226t234 -71q167 0 255.5 70.5t117.5 226.5l162 916h301l-164 -938q-44 -243 -240 -388q-198 -147 -478 -147q-281 0 -426 147q-147 146 -103 388z" />
    <glyph glyph-name="V" unicode="V" horiz-adv-x="1474" 
d="M813 403l510 1039h301l-709 -1442h-526l-203 1442h314l143 -1039l35 -292z" />
    <glyph glyph-name="W" unicode="W" horiz-adv-x="2365" 
d="M1733 403l428 1039h327l-616 -1442h-502l-41 973l-2 332l-117 -334l-385 -971h-506l-108 1442h332l65 -1039l6 -282l99 282l401 1039h475l39 -1039l-2 -282z" />
    <glyph glyph-name="X" unicode="X" horiz-adv-x="1581" 
d="M1358 1442h334l-600 -678l393 -764h-340l-225 434l-105 242l-190 -242l-379 -434h-334l653 758l-364 684h340l202 -379l101 -227l178 227z" />
    <glyph glyph-name="Y" unicode="Y" horiz-adv-x="1380" 
d="M1239 1442h307l-717 -1018l-75 -424h-301l75 426l-360 1016h326l176 -506l65 -252l154 252z" />
    <glyph glyph-name="Z" unicode="Z" horiz-adv-x="1316" 
d="M1151 0h-1157l82 473l1175 723l-295 -6h-747l45 252h1145l-82 -469l-1186 -727l301 6h764z" />
    <glyph glyph-name="bracketleft" unicode="[" horiz-adv-x="690" 
d="M838 1554l-41 -227l-269 6l-266 -1499l273 6l-41 -227h-553l342 1941h555z" />
    <glyph glyph-name="backslash" unicode="\" horiz-adv-x="927" 
d="M197 1554h211l342 -1941h-209z" />
    <glyph glyph-name="bracketright" unicode="]" horiz-adv-x="690" 
d="M215 1554h555l-344 -1941h-553l41 227l268 -6l264 1499l-270 -6z" />
    <glyph glyph-name="asciicircum" unicode="^" horiz-adv-x="886" 
d="M774 1442l117 -479h-213l-84 413l-229 -413h-215l284 479h340z" />
    <glyph glyph-name="underscore" unicode="_" horiz-adv-x="1140" 
d="M-35 -31h1014l-37 -213h-1014z" />
    <glyph glyph-name="grave" unicode="`" horiz-adv-x="530" 
d="M244 1554h282l62 -344h-207z" />
    <glyph glyph-name="a" unicode="a" horiz-adv-x="1208" 
d="M1112 199h2l-33 -199q-88 -20 -163 -20q-115 0 -162 54t-31 173q-64 -111 -174.5 -174.5t-247.5 -63.5q-143 0 -217 72t-51 188q18 112 103 181.5t249 99.5q313 57 395 86l4 20q23 133 -10.5 192.5t-132.5 59.5q-100 0 -153.5 -55t-75.5 -178h-275q38 204 188 326
q151 122 359 122q212 0 316 -114q102 -116 65 -316l-59 -329q-13 -82 3 -103q16 -22 101 -22zM444 170q124 0 204.5 63t103.5 187l8 41q-50 -13 -264 -66q-90 -19 -125 -46q-33 -27 -45 -79q-8 -49 21 -74.5t97 -25.5z" />
    <glyph glyph-name="b" unicode="b" horiz-adv-x="1339" 
d="M887 1083q207 0 305 -153q98 -155 53 -404q-45 -253 -196 -404q-151 -153 -359 -153q-124 0 -209.5 63t-115.5 177l-35 -209h-273l275 1554h282l-125 -712q150 241 398 241zM952 526q31 176 -17 256t-185 80q-127 0 -202 -70t-108 -223l-14 -82q-20 -156 29 -226.5
t178 -70.5q137 0 211.5 79.5t107.5 256.5z" />
    <glyph glyph-name="c" unicode="c" horiz-adv-x="1222" 
d="M831 381h279q-33 -186 -188 -299q-157 -113 -377 -113q-248 0 -372 154q-124 152 -79 403q45 250 223 404q177 153 424 153q219 0 333 -119q114 -120 79 -315h-279q20 113 -20.5 163t-153.5 50q-135 0 -208.5 -79.5t-104.5 -256.5t15.5 -256.5t181.5 -79.5
q113 0 171 44.5t76 146.5z" />
    <glyph glyph-name="d" unicode="d" horiz-adv-x="1333" 
d="M967 864l123 690h282l-274 -1554h-273l43 242q-72 -131 -180 -202t-235 -71q-209 0 -306 153q-98 152 -53 404q45 253 196 405q150 152 357 152q120 0 203.5 -56.5t116.5 -162.5zM588 190q129 0 203.5 72t107.5 227l14 74q20 156 -28.5 227.5t-177.5 71.5
q-137 0 -213 -80t-107 -256q-31 -177 16.5 -256.5t184.5 -79.5z" />
    <glyph glyph-name="e" unicode="e" horiz-adv-x="1241" 
d="M737 1083q228 0 347 -134q118 -133 79 -353l-22 -131h-762q-16 -145 33 -212t174 -67q223 0 248 154h278q-28 -166 -186 -268q-157 -103 -385 -103q-246 0 -369 154q-123 153 -78 403q45 249 221 404q175 153 422 153zM410 625l221 4h254q14 125 -29.5 181t-156.5 56
t-182.5 -58t-106.5 -183z" />
    <glyph glyph-name="f" unicode="f" horiz-adv-x="864" 
d="M1028 1350h-235q-80 0 -119 -36t-56 -124l-24 -137h371l-39 -219h-371l-145 -834h-283l145 834h-202l39 219h202l29 166q28 160 155 258t302 98q142 0 268 -19z" />
    <glyph glyph-name="g" unicode="g" horiz-adv-x="1153" 
d="M1290 1245l-37 -217q-185 0 -223 -63q92 -96 66 -246q-28 -162 -179 -264q-151 -103 -370 -103q-134 0 -234 41q-30 -32 -41 -78q-8 -47 19 -66.5t102 -19.5h357q165 0 253 -80q88 -81 62 -212q-29 -157 -198 -251t-427 -94q-254 0 -392 75t-118 198q10 60 61 104.5
t130 61.5q-102 66 -82 180q27 142 197 225q-139 102 -109 283q31 166 180 265t369 99q152 0 260 -51q33 110 117 161.5t237 51.5zM809 719q16 88 -24 127t-144 39q-105 0 -158 -39t-69 -127q-16 -92 22.5 -131t145.5 -39q104 0 157.5 40t69.5 130zM664 2h-441
q-26 -38 -33 -86q-13 -82 43 -110q55 -27 240 -27q181 0 245 24q64 25 79 101q10 55 -19.5 76.5t-113.5 21.5z" />
    <glyph glyph-name="h" unicode="h" 
d="M911 1083q174 0 256 -100t52 -276l-123 -707h-283l105 596q26 140 -12 195q-37 55 -154 55q-121 0 -201 -64.5t-107 -185.5l-104 -596h-283l275 1554h282l-127 -714q167 243 424 243z" />
    <glyph glyph-name="i" unicode="i" horiz-adv-x="589" 
d="M272 1251l47 271h304l-48 -271h-303zM61 0l185 1053h284l-186 -1053h-283z" />
    <glyph glyph-name="j" unicode="j" horiz-adv-x="585" 
d="M266 1251l49 271h303l-47 -271h-305zM53 -18l189 1071h282l-192 -1098q-28 -163 -147 -264q-119 -99 -285 -99q-86 0 -156 21l37 205h115q72 0 107.5 37t49.5 127z" />
    <glyph glyph-name="k" unicode="k" horiz-adv-x="1249" 
d="M979 1053h324l-562 -504l441 -549h-375l-289 371l-90 133l-88 -504h-283l275 1554h282l-176 -999l137 135z" />
    <glyph glyph-name="l" unicode="l" horiz-adv-x="641" 
d="M608 1554l-217 -1216q-12 -74 8.5 -103.5t83.5 -29.5h70l-35 -205q-85 -20 -158 -20q-140 0 -211 89t-47 234l222 1251h284z" />
    <glyph glyph-name="m" unicode="m" horiz-adv-x="2068" 
d="M1655 1083q172 0 253 -100q81 -101 50 -276l-125 -707h-283l105 596q25 138 -10 195q-34 55 -148 55q-124 0 -205.5 -69t-101.5 -195v2l-103 -584h-284l106 596q25 136 -11 194q-36 56 -148 56q-117 0 -197 -63.5t-107 -180.5l-106 -602h-283l187 1053h270l-41 -230
q80 126 192.5 193t243.5 67q141 0 222 -70.5t88 -197.5q81 128 193.5 198t242.5 70z" />
    <glyph glyph-name="n" unicode="n" 
d="M911 1083q174 0 256 -100t52 -276l-123 -707h-283l105 596q26 140 -12 195q-37 55 -154 55q-119 0 -199 -63.5t-107 -180.5l-106 -602h-283l187 1053h272l-39 -226q168 256 434 256z" />
    <glyph glyph-name="o" unicode="o" horiz-adv-x="1294" 
d="M549 -31q-251 0 -375 154q-125 153 -80 403q45 249 225 404q179 153 426 153q251 0 375 -153q125 -155 80 -404t-224 -403q-178 -154 -427 -154zM588 190q137 0 213 80t107 256q30 176 -18 256t-183 80q-137 0 -212 -79.5t-108 -256.5q-31 -176 17.5 -256t183.5 -80z" />
    <glyph glyph-name="p" unicode="p" horiz-adv-x="1339" 
d="M887 1083q208 0 306 -152q97 -152 52 -405t-195 -404q-152 -153 -358 -153q-119 0 -201.5 55.5t-117.5 159.5l-101 -571h-284l256 1440h270l-43 -244q72 132 180.5 203t235.5 71zM846 270q75 78 107 256q30 176 -17 256t-184 80q-128 0 -202.5 -69t-107.5 -220l-16 -90
q-20 -153 30 -223t177 -70q136 0 213 80z" />
    <glyph glyph-name="q" unicode="q" horiz-adv-x="1339" 
d="M973 844l37 209h272l-254 -1440h-283l105 598q-150 -242 -397 -242q-209 0 -306 153q-98 152 -53 404q44 252 195 405q152 152 358 152q123 0 209 -62.5t117 -176.5zM588 190q131 0 204.5 71.5t108.5 230.5l12 71q20 156 -28.5 227.5t-177.5 71.5q-137 0 -213 -80
t-107 -256q-31 -177 16.5 -256.5t184.5 -79.5z" />
    <glyph glyph-name="r" unicode="r" horiz-adv-x="843" 
d="M844 1083q62 0 90 -18l-45 -256h-162q-116 0 -192 -66t-97 -188l-98 -555h-283l187 1053h270l-45 -254q68 131 166 208q97 76 209 76z" />
    <glyph glyph-name="s" unicode="s" horiz-adv-x="1126" 
d="M479 -31q-230 0 -351 100q-122 99 -93 263h278q-16 -88 33 -128t170 -40q205 0 223 110q11 53 -36 85q-48 32 -205 59q-212 33 -298.5 109t-64.5 216q27 154 172 247q144 93 352 93q217 0 330 -101q113 -100 84 -267h-278q14 90 -27 132t-145 42q-189 0 -211 -115
q-10 -57 37 -86q48 -30 208 -55q218 -33 305 -112t62 -218q-26 -151 -175 -242q-152 -92 -370 -92z" />
    <glyph glyph-name="t" unicode="t" horiz-adv-x="909" 
d="M928 834h-379l-82 -469q-14 -88 13 -124t108 -36h231l-35 -205q-140 -20 -276 -20q-176 0 -266 94t-64 250l88 510h-205l39 219h207l62 309h274l-55 -309h379z" />
    <glyph glyph-name="u" unicode="u" horiz-adv-x="1316" 
d="M868 436l109 617h285l-187 -1053h-270l37 213q-160 -244 -432 -244q-167 0 -247 101q-79 100 -48 276l123 707h282l-104 -596q-26 -137 12 -193q38 -57 152 -57q113 0 187.5 59.5t100.5 169.5z" />
    <glyph glyph-name="v" unicode="v" horiz-adv-x="1175" 
d="M621 352l344 701h286l-520 -1053h-475l-147 1053h294l97 -701l18 -239z" />
    <glyph glyph-name="w" unicode="w" horiz-adv-x="1843" 
d="M1346 352l286 701h283l-453 -1053h-434l-29 672l2 237l-79 -237l-267 -672h-446l-82 1053h299l43 -701l-2 -254l82 254l270 701h424l25 -701l-6 -243z" />
    <glyph glyph-name="x" unicode="x" horiz-adv-x="1273" 
d="M1008 1053h317l-436 -527l262 -526h-307l-142 307l-67 187l-146 -187l-256 -307h-317l485 559l-239 494h307l131 -279l59 -160l121 160z" />
    <glyph glyph-name="y" unicode="y" horiz-adv-x="1175" 
d="M621 352l344 701h286l-592 -1194q-57 -123 -171 -195q-116 -72 -250 -72q-128 0 -234 21l35 205h184q141 0 189 96l41 86h-197l-147 1053h294l97 -701l18 -237z" />
    <glyph glyph-name="z" unicode="z" horiz-adv-x="1048" 
d="M879 0h-877l72 403l815 431l-264 -7h-467l41 226h856l-74 -410l-803 -424l252 6h488z" />
    <glyph glyph-name="braceleft" unicode="{" horiz-adv-x="788" 
d="M752 1575q90 0 188 -23l-37 -194h-96q-80 0 -104 -21q-26 -23 -39 -104l-70 -404q-23 -126 -111.5 -185.5t-255.5 -59.5q166 0 233.5 -61t45.5 -185l-70 -404q-13 -82 3 -103q17 -21 96 -21h96l-35 -195q-98 -23 -195 -23q-169 0 -225 56q-55 56 -29 202l82 472
q14 87 -11 117t-109 30h-115l41 229h115q84 0 121 31q36 31 51 117l84 471q27 145 102 202q74 56 244 56z" />
    <glyph glyph-name="bar" unicode="|" horiz-adv-x="587" 
d="M25 -387l342 1941h217l-344 -1941h-215z" />
    <glyph glyph-name="braceright" unicode="}" horiz-adv-x="790" 
d="M702 698h115l-41 -229h-114q-84 0 -122 -30q-38 -32 -53 -117l-81 -472q-27 -145 -103 -202q-77 -56 -246 -56q-100 0 -186 23l35 195h96q80 0 104 21q24 24 37 103l72 404q45 246 367 246q-167 0 -234 60t-47 185l72 404q14 85 -2 105q-17 20 -97 20h-96l35 194
q98 23 193 23q170 0 226 -56q56 -57 32 -202l-84 -471q-14 -84 12 -116t110 -32z" />
    <glyph glyph-name="asciitilde" unicode="~" horiz-adv-x="1206" 
d="M256 399h-188q27 149 132 250q105 99 240 99q87 0 151 -38q61 -38 114 -75q50 -37 112 -37q59 0 98 41q40 41 50 96h188q-29 -155 -132 -252q-104 -98 -241 -98q-65 0 -121 22t-88 54q-80 76 -168 76q-57 0 -97 -39.5t-50 -98.5z" />
    <glyph glyph-name="exclamdown" unicode="&#xa1;" horiz-adv-x="653" 
d="M582 1053l-56 -318h-325l55 318h326zM309 -389h-286l63 354l156 608h190l-59 -608z" />
    <glyph glyph-name="cent" unicode="&#xa2;" horiz-adv-x="1222" 
d="M1188 844h-279q32 162 -78 200l-114 -649q124 33 149 180h279q-29 -164 -155 -272q-125 -107 -312 -133l-25 -139h-213l25 143q-192 34 -284 182q-91 145 -52 365q39 216 182 365q143 148 346 182l25 135h213l-23 -131q175 -27 260 -141t56 -287zM422 721
q-45 -258 84 -318l112 635q-151 -55 -196 -317z" />
    <glyph glyph-name="sterling" unicode="&#xa3;" horiz-adv-x="1280" 
d="M1298 997h-301q23 121 -20 176.5t-160 55.5q-127 0 -194.5 -57.5t-87.5 -182.5q-16 -93 14 -209h467l-33 -186h-412q0 -9 -2 -19q-19 -107 -111 -198q-92 -92 -265 -131l215 6h761l-45 -252h-1134l63 350q111 25 170 74t74 135q4 23 4 35h-203l33 186h125
q-43 114 -20 228q38 211 209 337q172 128 417 128q232 0 354 -131q121 -132 82 -345z" />
    <glyph glyph-name="currency" unicode="&#xa4;" horiz-adv-x="1409" 
d="M1323 1327l107 -131l-187 -160q63 -134 31 -317q-34 -186 -144 -318l134 -159l-156 -131l-131 157q-151 -92 -334 -92q-185 0 -303 92l-186 -157l-107 131l189 159q-63 135 -30 318q31 181 140 315l-133 162l156 131l129 -158q151 91 338 93q186 0 303 -93zM682 399
q138 0 236 88q99 90 124 232q25 145 -42 232q-68 87 -205 87q-136 0 -234 -88q-99 -87 -125 -231q-27 -143 42 -231q69 -89 204 -89z" />
    <glyph glyph-name="yen" unicode="&#xa5;" horiz-adv-x="1380" 
d="M1239 1442h307l-542 -770h249l-30 -174h-342l-52 -74l-10 -57h379l-29 -174h-381l-34 -193h-301l34 193h-391l29 174h393l10 59l-26 72h-352l30 174h260l-272 770h326l176 -506l65 -252l154 252z" />
    <glyph glyph-name="brokenbar" unicode="&#xa6;" horiz-adv-x="589" 
d="M449 784h-216l136 770h215zM242 -387h-215l135 772h215z" />
    <glyph glyph-name="section" unicode="&#xa7;" horiz-adv-x="1400" 
d="M1366 969h-301q23 137 -38.5 197.5t-225.5 60.5q-291 0 -322 -166q-8 -52 14 -84q21 -33 101 -63q74 -29 237 -62q286 -52 394 -157q107 -105 75 -285l-67 -377q-34 -198 -221 -320q-187 -121 -457 -121q-285 0 -435 135q-151 136 -112 355h301q-23 -129 46 -186.5
t245 -57.5q292 0 324 162q6 37 -2 61t-40 51q-66 53 -309 99q-283 53 -393 153q-110 99 -78 279l68 377q38 204 223 328q185 125 455 125q272 0 415 -138q142 -139 103 -366zM664 635q-219 39 -342 104l-5 -26q-14 -79 10 -123q22 -45 119 -84q91 -38 295 -76
q224 -40 349 -111l4 29q6 39 3 72.5t-26.5 62.5t-70.5 55t-130 50t-206 47z" />
    <glyph glyph-name="dieresis" unicode="&#xa8;" horiz-adv-x="776" 
d="M193 1251l47 271h270l-47 -271h-270zM569 1251l49 271h271l-47 -271h-273z" />
    <glyph glyph-name="copyright" unicode="&#xa9;" horiz-adv-x="1642" 
d="M725 -31q-344 0 -518 207t-114 545q59 338 306 545q246 207 590 207q345 0 517 -207q173 -207 114 -545q-57 -338 -305 -545q-247 -207 -590 -207zM750 121q266 0 459 165q193 166 239 435q46 268 -87 434t-398 166q-267 0 -458 -166q-192 -166 -241 -434
q-45 -269 89 -435q133 -165 397 -165zM999 618h220q-26 -140 -140 -223q-115 -84 -280 -84q-182 0 -274 113q-93 112 -60 297q34 185 165 298q130 111 312 111q164 0 248 -88q84 -89 59 -233h-217q14 76 -14.5 111.5t-104.5 35.5q-93 0 -144.5 -55.5t-74.5 -179.5
q-23 -121 10 -178.5t125 -57.5q78 0 118 32t52 101z" />
    <glyph glyph-name="ordfeminine" unicode="&#xaa;" horiz-adv-x="899" 
d="M852 750h2l-23 -127q-62 -14 -122 -15q-154 0 -136 142q-91 -146 -270 -148q-102 0 -155.5 47t-38.5 123q25 134 249 178q214 43 254 54l2 16q14 78 -7 112.5t-81 34.5q-116 0 -139 -137h-205q23 131 127 211t248 80q146 0 217.5 -74t48.5 -205l-39 -211q-11 -53 3 -67
q12 -14 65 -14zM393 737q158 0 197 137l6 41q-26 -9 -168 -43q-55 -12 -75.5 -27t-26.5 -46q-7 -31 10 -46.5t57 -15.5z" />
    <glyph glyph-name="guillemotleft" unicode="&#xab;" horiz-adv-x="1085" 
d="M342 911h309l-446 -383l313 -383h-311l-187 234l35 196l19 103zM817 911h309l-446 -383l313 -383h-311l-186 234l34 196l19 103z" />
    <glyph glyph-name="logicalnot" unicode="&#xac;" horiz-adv-x="1052" 
d="M109 651h872l-84 -467l-203 -2l47 269h-669z" />
    <glyph glyph-name="registered" unicode="&#xae;" horiz-adv-x="991" 
d="M316 1352q145 121 348 121q202 0 305 -121q102 -121 67 -319q-34 -199 -180 -321t-348 -122q-203 0 -305 122q-103 121 -68 321q34 196 181 319zM915 1032q27 146 -47 240q-75 92 -223 92q-149 0 -256 -92q-106 -91 -133 -240q-27 -152 48 -243t225 -91t254 91
q105 91 132 243zM440 1233h240q63 0 94 -35t21 -92q-12 -80 -80 -113l18 -30l55 -119h-135l-57 131h-80l-22 -131h-123zM618 1143h-71l-15 -82h72q60 0 68 41q4 23 -8.5 32t-45.5 9z" />
    <glyph glyph-name="overscore" unicode="&#xaf;" horiz-adv-x="710" 
d="M236 1499h581l-37 -219h-583z" />
    <glyph glyph-name="degree" unicode="&#xb0;" horiz-adv-x="819" 
d="M730 871q-116 -95 -277 -95t-244 96q-82 94 -53 253q29 158 143 253q116 95 276 95q163 0 246 -96q82 -96 53 -253q-29 -159 -144 -253zM485 952q76 0 130.5 47.5t66.5 124.5q14 78 -22.5 125t-112.5 47q-75 0 -130 -47q-55 -46 -69 -124q-14 -79 23 -125q36 -48 114 -48
z" />
    <glyph glyph-name="plusminus" unicode="&#xb1;" horiz-adv-x="1017" 
d="M696 1010l-41 -236h316l-35 -199h-315l-43 -237h-203l43 237h-318l35 199h318l41 236h202zM844 51h-838l35 201h838z" />
    <glyph glyph-name="uni00B2" unicode="&#xb2;" horiz-adv-x="759" 
d="M756 840h-639l53 293l342 120q56 24 79 47t30 64q8 47 -9.5 68.5t-64.5 21.5q-102 0 -125 -119h-217q20 125 123 203q102 78 247 78q140 0 213 -68q72 -69 52 -182q-14 -80 -72 -132q-56 -50 -184 -101l-230 -89l-112 -32l151 2h393z" />
    <glyph glyph-name="uni00B3" unicode="&#xb3;" horiz-adv-x="804" 
d="M866 1403q-26 -136 -225 -158q225 -22 193 -205q-18 -100 -125 -162q-107 -63 -265 -63q-151 0 -227 73q-78 73 -57 193h217q-8 -50 16 -72t84 -22q129 0 141 78q6 39 -16 57.5t-76 18.5h-125l27 139h104q90 0 105 72q17 92 -82 92q-102 0 -119 -98h-219q19 123 121 197
q100 73 246 73q142 0 221 -59q77 -61 61 -154z" />
    <glyph glyph-name="acute" unicode="&#xb4;" horiz-adv-x="530" 
d="M184 1210l181 344h282l-256 -344h-207z" />
    <glyph glyph-name="paragraph" unicode="&#xb6;" horiz-adv-x="1658" 
d="M692 1442h1077l-45 -252h-225l-276 -1577h-285l276 1577h-202l-279 -1577h-284l172 975h-78q-209 0 -315 117q-107 116 -72 311q33 193 181 310q149 116 355 116z" />
    <glyph glyph-name="middot" unicode="&#xb7;" horiz-adv-x="555" 
d="M90 385l57 326h326l-57 -326h-326z" />
    <glyph glyph-name="cedilla" unicode="&#xb8;" horiz-adv-x="534" 
d="M137 -106h41q81 0 123.5 -45t28.5 -117q-14 -80 -78 -128t-154 -48h-207l25 135h152q61 0 67 43q4 24 -7 33.5t-44 9.5h-135l20 112l60 111h159z" />
    <glyph glyph-name="uni00B9" unicode="&#xb9;" horiz-adv-x="595" 
d="M276 1583h379l-131 -743h-217l86 485l37 184l-94 -84l-248 -188l43 236z" />
    <glyph glyph-name="ordmasculine" unicode="&#xba;" horiz-adv-x="876" 
d="M723 702q-116 -100 -280 -100q-163 0 -246 99q-83 98 -54 262q27 163 144 260q116 98 280 98t247 -98q83 -100 55 -260q-28 -162 -146 -261zM469 760q80 0 124 47.5t64 155.5q18 104 -10 152t-106 48q-80 0 -125 -48t-64 -152q-18 -105 10.5 -154t106.5 -49z" />
    <glyph glyph-name="guillemotright" unicode="&#xbb;" horiz-adv-x="1089" 
d="M569 553l-10 -64l-20 -110l-271 -234h-309l449 383l-314 383h309l187 -233l-17 -103zM1065 678l-16 -103l-5 -22l-10 -64l-20 -110l-271 -234h-309l449 383l-314 383h310z" />
    <glyph glyph-name="onequarter" unicode="&#xbc;" horiz-adv-x="1509" 
d="M-16 0l1388 1442h227l-1388 -1442h-227zM489 1217l31 157l-78 -69l-215 -166l39 213l117 90h338l-113 -645h-192zM1014 645h303l-68 -383h99l-25 -143h-98l-21 -119h-188l20 119h-274l51 293zM827 260l107 2h129l31 180l32 166z" />
    <glyph glyph-name="onehalf" unicode="&#xbd;" horiz-adv-x="1515" 
d="M-18 0l1388 1442h227l-1388 -1442h-227zM500 1217l30 157l-77 -69l-215 -166l38 213l117 90h338l-113 -645h-190zM1176 676q120 0 181.5 -59t45.5 -158q-12 -69 -63 -115t-160 -88l-199 -78l-96 -28l131 2h342l-27 -152h-555l45 256l297 104q48 20 68 40.5t26 56.5
q14 78 -63 78q-90 0 -111 -105h-188q20 111 110 179q88 67 216 67z" />
    <glyph glyph-name="threequarters" unicode="&#xbe;" horiz-adv-x="1536" 
d="M397 776q-130 0 -198 65t-49 167h188q-8 -43 12.5 -62.5t73.5 -19.5q111 0 123 67q6 35 -13.5 51.5t-66.5 16.5h-107l21 121h92q77 0 90 61q18 80 -71 80q-88 0 -103 -86h-188q18 107 105 171q88 65 212 65q125 0 191.5 -50.5t54.5 -134.5q-20 -119 -191 -137
q188 -23 162 -178q-16 -88 -109 -142q-94 -55 -229 -55zM6 0l1389 1442h227l-1389 -1442h-227zM1038 645h305l-67 -383h98l-24 -143h-101l-20 -119h-189l21 119h-275l52 293zM854 260l104 2h129l33 180l33 166z" />
    <glyph glyph-name="questiondown" unicode="&#xbf;" horiz-adv-x="1085" 
d="M514 1053h326l-56 -318h-325zM715 72h260q-39 -221 -202 -357q-163 -135 -392 -135q-222 0 -340 113q-117 114 -84 301q27 145 140 243t292 140l66 16l47 197h186l-41 -316l-182 -45q-115 -27 -169 -71q-52 -45 -69 -135q-20 -115 25 -167.5t166 -52.5q131 0 201.5 64
t95.5 205z" />
    <glyph glyph-name="Agrave" unicode="&#xc0;" horiz-adv-x="1515" 
d="M1004 1944l61 -345h-207l-137 345h283zM1405 0h-313l-56 383h-598l-190 -383h-301l717 1442h530zM766 1038l-209 -417h444l-59 417l-37 308z" />
    <glyph glyph-name="Aacute" unicode="&#xc1;" horiz-adv-x="1515" 
d="M1026 1944h283l-256 -345h-207zM1405 0h-313l-56 383h-598l-190 -383h-301l717 1442h530zM766 1038l-209 -417h444l-59 417l-37 308z" />
    <glyph glyph-name="Acircumflex" unicode="&#xc2;" horiz-adv-x="1515" 
d="M1092 1599l-80 279l-181 -279h-237l244 345h368l123 -345h-237zM1405 0h-313l-56 383h-598l-190 -383h-301l717 1442h530zM766 1038l-209 -417h444l-59 417l-37 308z" />
    <glyph glyph-name="Atilde" unicode="&#xc3;" horiz-adv-x="1515" 
d="M836 1722q-88 0 -107 -90h-147q27 141 99.5 217t182.5 76q65 0 148 -47t131 -47q45 0 71.5 24t30.5 66h148q-23 -142 -94.5 -217.5t-184.5 -75.5q-65 0 -147 47q-83 47 -131 47zM1405 0h-313l-56 383h-598l-190 -383h-301l717 1442h530zM766 1038l-209 -417h444l-59 417
l-37 308z" />
    <glyph glyph-name="Adieresis" unicode="&#xc4;" horiz-adv-x="1515" 
d="M688 1911h270l-47 -271h-270zM1067 1911h270l-47 -271h-272zM1405 0h-313l-56 383h-598l-190 -383h-301l717 1442h530zM766 1038l-209 -417h444l-59 417l-37 308z" />
    <glyph glyph-name="Aring" unicode="&#xc5;" horiz-adv-x="1515" 
d="M958 1591q-92 0 -139 49.5t-33 131.5q12 81 78 131q65 49 158 49q90 0 138 -49.5t36 -130.5q-13 -81 -81 -131t-157 -50zM909 1772q-12 -72 68 -72q81 0 94 72q12 72 -68 72q-81 0 -94 -72zM1405 0h-313l-56 383h-598l-190 -383h-301l717 1442h530zM766 1038l-209 -417
h444l-59 417l-37 308z" />
    <glyph glyph-name="AE" unicode="&#xc6;" horiz-adv-x="2041" 
d="M2101 1442l-45 -252h-825l51 -344h678l-41 -236h-604l53 -358h535l-43 -252h-768l-56 383h-598l-190 -383h-301l717 1442h1437zM766 1038l-209 -417h444l-59 417l-37 308z" />
    <glyph glyph-name="Ccedilla" unicode="&#xc7;" horiz-adv-x="1554" 
d="M1534 911h-301q29 158 -41.5 228.5t-253.5 70.5q-215 0 -333 -115t-163 -374q-45 -257 32 -375q77 -117 290 -117q182 0 277.5 65.5t121.5 209.5h301q-40 -232 -233 -375q-194 -143 -457 -158l-37 -77h41q81 0 123.5 -45t28.5 -117q-14 -80 -78 -128t-154 -48h-206
l24 135h152q61 0 67 43q4 24 -7 33.5t-44 9.5h-135l20 112l47 86q-274 34 -405 236q-131 201 -78 510q59 338 294 545t556 207q281 0 439 -152q157 -151 112 -410z" />
    <glyph glyph-name="Egrave" unicode="&#xc8;" horiz-adv-x="1302" 
d="M926 1944l61 -345h-207l-137 345h283zM1364 1442l-45 -252h-715l-59 -344h678l-43 -236h-678l-62 -358h725l-45 -252h-1026l252 1442h1018z" />
    <glyph glyph-name="Eacute" unicode="&#xc9;" horiz-adv-x="1302" 
d="M948 1944h283l-256 -345h-207zM1364 1442l-45 -252h-715l-59 -344h678l-43 -236h-678l-62 -358h725l-45 -252h-1026l252 1442h1018z" />
    <glyph glyph-name="Ecircumflex" unicode="&#xca;" horiz-adv-x="1302" 
d="M1014 1599l-80 279l-180 -279h-238l244 345h368l123 -345h-237zM1364 1442l-45 -252h-715l-59 -344h678l-43 -236h-678l-62 -358h725l-45 -252h-1026l252 1442h1018z" />
    <glyph glyph-name="Edieresis" unicode="&#xcb;" horiz-adv-x="1302" 
d="M610 1911h271l-47 -271h-271zM989 1911h271l-48 -271h-272zM1364 1442l-45 -252h-715l-59 -344h678l-43 -236h-678l-62 -358h725l-45 -252h-1026l252 1442h1018z" />
    <glyph glyph-name="Igrave" unicode="&#xcc;" horiz-adv-x="673" 
d="M287 1944h282l62 -345h-207zM94 0l252 1442h303l-254 -1442h-301z" />
    <glyph glyph-name="Iacute" unicode="&#xcd;" horiz-adv-x="673" 
d="M414 1599l180 345h283l-256 -345h-207zM94 0l252 1442h303l-254 -1442h-301z" />
    <glyph glyph-name="Icircumflex" unicode="&#xce;" horiz-adv-x="673" 
d="M403 1944h369l123 -345h-238l-79 279l-181 -279h-237zM395 0h-301l252 1442h303z" />
    <glyph glyph-name="Idieresis" unicode="&#xcf;" horiz-adv-x="673" 
d="M209 1640l47 271h270l-47 -271h-270zM586 1640l49 271h270l-47 -271h-272zM94 0l252 1442h303l-254 -1442h-301z" />
    <glyph glyph-name="Eth" unicode="&#xd0;" horiz-adv-x="1601" 
d="M346 1442h602q322 0 485 -199q162 -199 105 -522q-57 -324 -288 -522q-232 -199 -554 -199h-602l107 610h-181l39 219h181zM1229 721q84 469 -338 469h-287l-63 -361h311l-39 -219h-311l-64 -362h287q420 0 504 473z" />
    <glyph glyph-name="Ntilde" unicode="&#xd1;" horiz-adv-x="1695" 
d="M932 1722q-88 0 -107 -90h-147q27 142 99.5 217.5t183.5 75.5q65 0 148 -47q82 -47 130 -47q45 0 71.5 24t30.5 66h148q-23 -142 -94.5 -217.5t-184.5 -75.5q-65 0 -147 47q-83 47 -131 47zM1221 586l151 856h299l-254 -1442h-520l-285 1317l-63 -426l-156 -891h-299
l252 1442h526l283 -1303z" />
    <glyph glyph-name="Ograve" unicode="&#xd2;" horiz-adv-x="1658" 
d="M782 1944h283l61 -345h-206zM1301 176q-239 -207 -568 -207q-331 0 -494 207q-165 207 -105 545q58 337 298 545q239 207 566 207t492 -207t105 -545q-57 -338 -294 -545zM477 346q79 -117 301 -117q221 0 341 117q121 118 167 375q45 258 -33 374q-79 115 -300 115
q-223 0 -344 -115q-122 -116 -167 -374q-45 -257 35 -375z" />
    <glyph glyph-name="Oacute" unicode="&#xd3;" horiz-adv-x="1658" 
d="M907 1599l180 345h283l-256 -345h-207zM1301 176q-239 -207 -568 -207q-331 0 -494 207q-165 207 -105 545q58 337 298 545q239 207 566 207t492 -207t105 -545q-57 -338 -294 -545zM477 346q79 -117 301 -117q221 0 341 117q121 118 167 375q45 258 -33 374
q-79 115 -300 115q-223 0 -344 -115q-122 -116 -167 -374q-45 -257 35 -375z" />
    <glyph glyph-name="Ocircumflex" unicode="&#xd4;" horiz-adv-x="1658" 
d="M1153 1599l-80 279l-180 -279h-238l244 345h369l123 -345h-238zM432 1266q239 207 566 207t492 -207t105 -545q-57 -338 -294 -545q-239 -207 -568 -207q-331 0 -494 207q-165 207 -105 545q58 337 298 545zM1286 721q45 258 -33 374q-79 115 -300 115q-223 0 -344 -115
q-122 -116 -167 -374q-45 -257 35 -375q79 -117 301 -117q221 0 341 117q121 118 167 375z" />
    <glyph glyph-name="Otilde" unicode="&#xd5;" horiz-adv-x="1658" 
d="M1176 1628q-65 0 -148 47t-131 47q-88 0 -106 -90h-148q27 142 99.5 217.5t183.5 75.5q65 0 148 -47q82 -47 130 -47q45 0 72 24t31 66h147q-23 -142 -94 -217.5t-184 -75.5zM1301 176q-239 -207 -568 -207q-331 0 -494 207q-165 207 -105 545q58 337 298 545
q239 207 566 207t492 -207t105 -545q-57 -338 -294 -545zM477 346q79 -117 301 -117q221 0 341 117q121 118 167 375q45 258 -33 374q-79 115 -300 115q-223 0 -344 -115q-122 -116 -167 -374q-45 -257 35 -375z" />
    <glyph glyph-name="Odieresis" unicode="&#xd6;" horiz-adv-x="1658" 
d="M702 1640l48 271h270l-47 -271h-271zM1079 1640l49 271h271l-47 -271h-273zM1301 176q-239 -207 -568 -207q-331 0 -494 207q-165 207 -105 545q58 337 298 545q239 207 566 207t492 -207t105 -545q-57 -338 -294 -545zM477 346q79 -117 301 -117q221 0 341 117
q121 118 167 375q45 258 -33 374q-79 115 -300 115q-223 0 -344 -115q-122 -116 -167 -374q-45 -257 35 -375z" />
    <glyph glyph-name="multiply" unicode="&#xd7;" horiz-adv-x="962" 
d="M811 928l109 -131l-304 -258l211 -258l-155 -134l-211 259l-303 -259l-111 134l305 258l-213 258l156 133l213 -260z" />
    <glyph glyph-name="Oslash" unicode="&#xd8;" horiz-adv-x="1658" 
d="M1386 1554h291l-213 -258q195 -212 131 -575q-57 -338 -294 -545q-239 -207 -568 -207q-178 0 -313 66l-137 -166h-291l250 303q-170 210 -109 549q58 337 298 545q239 207 566 207q149 0 281 -50zM442 721q-35 -197 2 -305l646 780q-58 14 -138 14q-222 0 -343 -115
q-122 -116 -167 -374zM1286 721q41 226 -16 342l-668 -809q69 -25 176 -25q221 0 341 117q121 118 167 375z" />
    <glyph glyph-name="Ugrave" unicode="&#xd9;" horiz-adv-x="1574" 
d="M737 1944h283l61 -345h-207zM160 504l166 938h301l-162 -916q-29 -155 36 -226t234 -71q167 0 255.5 70.5t117.5 226.5l162 916h301l-164 -938q-44 -243 -240 -388q-198 -147 -478 -147q-281 0 -426 147q-147 146 -103 388z" />
    <glyph glyph-name="Uacute" unicode="&#xda;" horiz-adv-x="1574" 
d="M864 1599l180 345h283l-256 -345h-207zM160 504l166 938h301l-162 -916q-29 -155 36 -226t234 -71q167 0 255.5 70.5t117.5 226.5l162 916h301l-164 -938q-44 -243 -240 -388q-198 -147 -478 -147q-281 0 -426 147q-147 146 -103 388z" />
    <glyph glyph-name="Ucircumflex" unicode="&#xdb;" horiz-adv-x="1574" 
d="M1108 1599l-80 279l-180 -279h-238l244 345h369l123 -345h-238zM1108 526l162 916h301l-164 -938q-44 -243 -240 -388q-198 -147 -478 -147q-281 0 -426 147q-147 146 -103 388l166 938h301l-162 -916q-29 -155 36 -226t234 -71q167 0 255.5 70.5t117.5 226.5z" />
    <glyph glyph-name="Udieresis" unicode="&#xdc;" horiz-adv-x="1574" 
d="M659 1640l48 271h270l-47 -271h-271zM1036 1640l49 271h271l-47 -271h-273zM160 504l166 938h301l-162 -916q-29 -155 36 -226t234 -71q167 0 255.5 70.5t117.5 226.5l162 916h301l-164 -938q-44 -243 -240 -388q-198 -147 -478 -147q-281 0 -426 147q-147 146 -103 388z
" />
    <glyph glyph-name="Yacute" unicode="&#xdd;" horiz-adv-x="1380" 
d="M961 1944h282l-256 -345h-207zM1239 1442h307l-717 -1018l-75 -424h-301l75 426l-360 1016h326l176 -506l65 -252l154 252z" />
    <glyph glyph-name="Thorn" unicode="&#xde;" horiz-adv-x="1343" 
d="M604 1182h371q209 0 314 -125q103 -125 69 -330q-38 -206 -194 -331q-158 -126 -380 -126h-342l-47 -270h-301l252 1442h303zM1049 727q20 113 -24 164t-161 51h-303l-76 -432h303q117 0 179 51t82 166z" />
    <glyph glyph-name="germandbls" unicode="&#xdf;" horiz-adv-x="1462" 
d="M1122 891q-104 -47 -138 -75t-40 -64q-6 -40 23.5 -64.5t111.5 -42.5q207 -49 279 -132t47 -218q-25 -145 -162 -235q-136 -91 -334 -91q-201 0 -305 101t-76 264h271q-16 -90 18.5 -131t126.5 -41q158 0 178 110q10 60 -23 92q-34 31 -163 64q-317 74 -279 287
q18 105 86.5 179.5t204.5 137.5q88 42 128 77.5t50 82.5q14 82 -45 120t-200 38q-160 0 -241 -50.5t-99 -162.5l-201 -1137h-283l207 1178q33 180 213 291q181 110 443 110q252 0 388 -103t107 -272q-18 -101 -89 -176.5t-204 -136.5z" />
    <glyph glyph-name="agrave" unicode="&#xe0;" horiz-adv-x="1208" 
d="M758 1554l61 -344h-207l-137 344h283zM1112 199h2l-33 -199q-88 -20 -163 -20q-115 0 -162 54t-31 173q-64 -111 -174.5 -174.5t-247.5 -63.5q-143 0 -217 72t-51 188q18 112 103 181.5t249 99.5q313 57 395 86l4 20q23 133 -10.5 192.5t-132.5 59.5q-100 0 -153.5 -55
t-75.5 -178h-275q38 204 188 326q151 122 359 122q212 0 316 -114q102 -116 65 -316l-59 -329q-13 -82 3 -103q16 -22 101 -22zM444 170q124 0 204.5 63t103.5 187l8 41q-50 -13 -264 -66q-90 -19 -125 -46q-33 -27 -45 -79q-8 -49 21 -74.5t97 -25.5z" />
    <glyph glyph-name="aacute" unicode="&#xe1;" horiz-adv-x="1208" 
d="M780 1554h283l-256 -344h-207zM1112 199h2l-33 -199q-88 -20 -163 -20q-115 0 -162 54t-31 173q-64 -111 -174.5 -174.5t-247.5 -63.5q-143 0 -217 72t-51 188q18 112 103 181.5t249 99.5q313 57 395 86l4 20q23 133 -10.5 192.5t-132.5 59.5q-100 0 -153.5 -55
t-75.5 -178h-275q38 204 188 326q151 122 359 122q212 0 316 -114q102 -116 65 -316l-59 -329q-13 -82 3 -103q16 -22 101 -22zM444 170q124 0 204.5 63t103.5 187l8 41q-50 -13 -264 -66q-90 -19 -125 -46q-33 -27 -45 -79q-8 -49 21 -74.5t97 -25.5z" />
    <glyph glyph-name="acircumflex" unicode="&#xe2;" horiz-adv-x="1208" 
d="M846 1210l-80 279l-180 -279h-238l244 344h369l122 -344h-237zM1112 199h2l-33 -199q-88 -20 -163 -20q-115 0 -162 54t-31 173q-64 -111 -174.5 -174.5t-247.5 -63.5q-143 0 -217 72t-51 188q18 112 103 181.5t249 99.5q313 57 395 86l4 20q23 133 -10.5 192.5
t-132.5 59.5q-100 0 -153.5 -55t-75.5 -178h-275q38 204 188 326q151 122 359 122q212 0 316 -114q102 -116 65 -316l-59 -329q-13 -82 3 -103q16 -22 101 -22zM444 170q124 0 204.5 63t103.5 187l8 41q-50 -13 -264 -66q-90 -19 -125 -46q-33 -27 -45 -79q-8 -49 21 -74.5
t97 -25.5z" />
    <glyph glyph-name="atilde" unicode="&#xe3;" horiz-adv-x="1208" 
d="M590 1333q-88 0 -107 -90h-147q27 141 99.5 217t182.5 76q65 0 148 -47t131 -47q45 0 71.5 24t30.5 66h148q-23 -142 -94.5 -217.5t-184.5 -75.5q-65 0 -147 47q-83 47 -131 47zM1067 653l-59 -329q-13 -82 3 -103q16 -22 101 -22h2l-33 -199q-88 -20 -163 -20
q-115 0 -162 54t-31 173q-64 -111 -174.5 -174.5t-247.5 -63.5q-143 0 -217 72t-51 188q18 112 103 181.5t249 99.5q313 57 395 86l4 20q23 133 -10.5 192.5t-132.5 59.5q-100 0 -153.5 -55t-75.5 -178h-275q38 204 188 326q151 122 359 122q212 0 316 -114
q102 -116 65 -316zM444 170q124 0 204.5 63t103.5 187l8 41q-50 -13 -264 -66q-90 -19 -125 -46q-33 -27 -45 -79q-8 -49 21 -74.5t97 -25.5z" />
    <glyph glyph-name="adieresis" unicode="&#xe4;" horiz-adv-x="1208" 
d="M442 1522h271l-47 -271h-271zM821 1522h271l-48 -271h-272zM1112 199h2l-33 -199q-88 -20 -163 -20q-115 0 -162 54t-31 173q-64 -111 -174.5 -174.5t-247.5 -63.5q-143 0 -217 72t-51 188q18 112 103 181.5t249 99.5q313 57 395 86l4 20q23 133 -10.5 192.5t-132.5 59.5
q-100 0 -153.5 -55t-75.5 -178h-275q38 204 188 326q151 122 359 122q212 0 316 -114q102 -116 65 -316l-59 -329q-13 -82 3 -103q16 -22 101 -22zM444 170q124 0 204.5 63t103.5 187l8 41q-50 -13 -264 -66q-90 -19 -125 -46q-33 -27 -45 -79q-8 -49 21 -74.5t97 -25.5z
" />
    <glyph glyph-name="aring" unicode="&#xe5;" horiz-adv-x="1208" 
d="M711 1202q-92 0 -139.5 49t-32.5 131q12 82 78 132q64 49 157 49q90 0 138.5 -50t35.5 -131t-80 -131q-67 -49 -157 -49zM662 1382q-6 -36 11 -54t57 -17q79 0 93 71q12 72 -67 72q-80 0 -94 -72zM1112 199h2l-33 -199q-88 -20 -163 -20q-115 0 -162 54t-31 173
q-64 -111 -174.5 -174.5t-247.5 -63.5q-143 0 -217 72t-51 188q18 112 103 181.5t249 99.5q313 57 395 86l4 20q23 133 -10.5 192.5t-132.5 59.5q-100 0 -153.5 -55t-75.5 -178h-275q38 204 188 326q151 122 359 122q212 0 316 -114q102 -116 65 -316l-59 -329
q-13 -82 3 -103q16 -22 101 -22zM444 170q124 0 204.5 63t103.5 187l8 41q-50 -13 -264 -66q-90 -19 -125 -46q-33 -27 -45 -79q-8 -49 21 -74.5t97 -25.5z" />
    <glyph glyph-name="ae" unicode="&#xe6;" horiz-adv-x="1925" 
d="M1421 1083q228 0 347 -134q118 -133 79 -353l-22 -131h-762q-16 -145 33 -212t174 -67q221 0 248 152l278 2q-28 -166 -186 -268q-157 -103 -385 -103q-164 0 -273.5 74t-146.5 209q-58 -124 -184 -204q-124 -79 -289 -79q-158 0 -239 72t-58 188q18 110 106 179t258 102
q312 56 396 86l4 20q23 133 -11 192.5t-133 59.5t-152.5 -54.5t-76.5 -178.5h-274q34 200 185 325q150 123 361 123q231 0 318 -153q170 153 405 153zM1094 625l221 4h254q14 125 -29.5 181t-156.5 56t-182.5 -58t-106.5 -183zM457 170q124 0 204 63t103 187l8 41
q-88 -27 -264 -66q-100 -22 -136 -48q-36 -25 -46 -77q-8 -49 24.5 -74.5t106.5 -25.5z" />
    <glyph glyph-name="ccedilla" unicode="&#xe7;" horiz-adv-x="1222" 
d="M1153 649h-279q20 113 -20.5 163t-153.5 50q-135 0 -208.5 -79.5t-104.5 -256.5t15.5 -256.5t181.5 -79.5q113 0 171 44.5t76 146.5h279q-29 -171 -165 -280q-136 -110 -333 -130l-37 -77h41q81 0 123.5 -45t28.5 -117q-14 -80 -77 -128q-65 -48 -154 -48h-207l24 135
h152q61 0 67 43q4 24 -7 33.5t-44 9.5h-135l21 112l47 86q-204 28 -302 178q-98 149 -59 373q45 250 223 404q177 153 424 153q219 0 333 -119q114 -120 79 -315z" />
    <glyph glyph-name="egrave" unicode="&#xe8;" horiz-adv-x="1241" 
d="M805 1554l61 -344h-207l-137 344h283zM737 1083q228 0 347 -134q118 -133 79 -353l-22 -131h-762q-16 -145 33 -212t174 -67q223 0 248 154h278q-28 -166 -186 -268q-157 -103 -385 -103q-246 0 -369 154q-123 153 -78 403q45 249 221 404q175 153 422 153zM410 625
l221 4h254q14 125 -29.5 181t-156.5 56t-182.5 -58t-106.5 -183z" />
    <glyph glyph-name="eacute" unicode="&#xe9;" horiz-adv-x="1241" 
d="M825 1554h283l-256 -344h-207zM737 1083q228 0 347 -134q118 -133 79 -353l-22 -131h-762q-16 -145 33 -212t174 -67q223 0 248 154h278q-28 -166 -186 -268q-157 -103 -385 -103q-246 0 -369 154q-123 153 -78 403q45 249 221 404q175 153 422 153zM410 625l221 4h254
q14 125 -29.5 181t-156.5 56t-182.5 -58t-106.5 -183z" />
    <glyph glyph-name="ecircumflex" unicode="&#xea;" horiz-adv-x="1241" 
d="M891 1210l-80 279l-180 -279h-238l244 344h369l122 -344h-237zM737 1083q228 0 347 -134q118 -133 79 -353l-22 -131h-762q-16 -145 33 -212t174 -67q223 0 248 154h278q-28 -166 -186 -268q-157 -103 -385 -103q-246 0 -369 154q-123 153 -78 403q45 249 221 404
q175 153 422 153zM410 625l221 4h254q14 125 -29.5 181t-156.5 56t-182.5 -58t-106.5 -183z" />
    <glyph glyph-name="edieresis" unicode="&#xeb;" horiz-adv-x="1241" 
d="M487 1522h271l-47 -271h-271zM866 1522h271l-47 -271h-273zM737 1083q228 0 347 -134q118 -133 79 -353l-22 -131h-762q-16 -145 33 -212t174 -67q223 0 248 154h278q-28 -166 -186 -268q-157 -103 -385 -103q-246 0 -369 154q-123 153 -78 403q45 249 221 404
q175 153 422 153zM410 625l221 4h254q14 125 -29.5 181t-156.5 56t-182.5 -58t-106.5 -183z" />
    <glyph glyph-name="igrave" unicode="&#xec;" horiz-adv-x="575" 
d="M176 1554h283l61 -344h-207zM57 0l187 1053h282l-186 -1053h-283z" />
    <glyph glyph-name="iacute" unicode="&#xed;" horiz-adv-x="575" 
d="M301 1210l180 344h283l-256 -344h-207zM57 0l187 1053h282l-186 -1053h-283z" />
    <glyph glyph-name="icircumflex" unicode="&#xee;" horiz-adv-x="575" 
d="M291 1554h368l123 -344h-237l-80 279l-180 -279h-238zM340 0h-283l187 1053h282z" />
    <glyph glyph-name="idieresis" unicode="&#xef;" horiz-adv-x="575" 
d="M96 1251l47 271h271l-47 -271h-271zM473 1251l49 271h271l-48 -271h-272zM57 0l187 1053h282l-186 -1053h-283z" />
    <glyph glyph-name="eth" unicode="&#xf0;" horiz-adv-x="1253" 
d="M1188 1563l-191 -160q152 -106 211.5 -280.5t20.5 -397.5q-57 -340 -250 -548t-449 -208q-240 0 -361 148q-122 148 -79 389q39 225 189 363q149 137 354 137q132 0 218.5 -63t109.5 -175q38 197 3 295q-35 99 -157 145l-131 -112h-240l189 157l-291 52l49 280l330 -63
q67 -13 139 -41l96 82h240zM578 199q131 0 203.5 73.5t99.5 235.5q29 157 -16.5 228t-172.5 71q-133 0 -206.5 -71.5t-102.5 -229.5q-27 -162 19.5 -234.5t175.5 -72.5z" />
    <glyph glyph-name="ntilde" unicode="&#xf1;" 
d="M692 1333q-88 0 -106 -90h-148q27 142 99.5 217.5t183.5 75.5q65 0 148 -47q82 -47 130 -47q45 0 72 24t31 66h147q-23 -141 -95 -217t-183 -76q-65 0 -148 47t-131 47zM911 1083q174 0 256 -100t52 -276l-123 -707h-283l105 596q26 140 -12 195q-37 55 -154 55
q-119 0 -199 -63.5t-107 -180.5l-106 -602h-283l187 1053h272l-39 -226q168 256 434 256z" />
    <glyph glyph-name="ograve" unicode="&#xf2;" horiz-adv-x="1294" 
d="M530 1554h283l61 -344h-206zM549 -31q-251 0 -375 154q-125 153 -80 403q45 249 225 404q179 153 426 153q251 0 375 -153q125 -155 80 -404t-224 -403q-178 -154 -427 -154zM588 190q137 0 213 80t107 256q30 176 -18 256t-183 80q-137 0 -212 -79.5t-108 -256.5
q-31 -176 17.5 -256t183.5 -80z" />
    <glyph glyph-name="oacute" unicode="&#xf3;" horiz-adv-x="1294" 
d="M655 1210l181 344h282l-256 -344h-207zM549 -31q-251 0 -375 154q-125 153 -80 403q45 249 225 404q179 153 426 153q251 0 375 -153q125 -155 80 -404t-224 -403q-178 -154 -427 -154zM588 190q137 0 213 80t107 256q30 176 -18 256t-183 80q-137 0 -212 -79.5
t-108 -256.5q-31 -176 17.5 -256t183.5 -80z" />
    <glyph glyph-name="ocircumflex" unicode="&#xf4;" horiz-adv-x="1294" 
d="M901 1210l-80 279l-180 -279h-238l244 344h369l123 -344h-238zM745 1083q251 0 375 -153q125 -155 80 -404t-224 -403q-178 -154 -427 -154q-251 0 -375 154q-125 153 -80 403q45 249 224 404q178 153 427 153zM801 270q75 78 107 256q30 176 -18 256t-183 80
q-137 0 -212 -79.5t-108 -256.5q-31 -176 17.5 -256t183.5 -80q136 0 213 80z" />
    <glyph glyph-name="otilde" unicode="&#xf5;" horiz-adv-x="1294" 
d="M924 1239q-65 0 -148 47t-131 47q-88 0 -106 -90h-148q27 142 99.5 217.5t183.5 75.5q65 0 148 -47q82 -47 130 -47q45 0 72 24t31 66h147q-23 -142 -94 -217.5t-184 -75.5zM549 -31q-251 0 -375 154q-125 153 -80 403q45 249 225 404q179 153 426 153q251 0 375 -153
q125 -155 80 -404t-224 -403q-178 -154 -427 -154zM588 190q137 0 213 80t107 256q30 176 -18 256t-183 80q-137 0 -212 -79.5t-108 -256.5q-31 -176 17.5 -256t183.5 -80z" />
    <glyph glyph-name="odieresis" unicode="&#xf6;" horiz-adv-x="1294" 
d="M451 1251l47 271h270l-47 -271h-270zM827 1251l50 271h270l-47 -271h-273zM549 -31q-251 0 -375 154q-125 153 -80 403q45 249 225 404q179 153 426 153q251 0 375 -153q125 -155 80 -404t-224 -403q-178 -154 -427 -154zM588 190q137 0 213 80t107 256q30 176 -18 256
t-183 80q-137 0 -212 -79.5t-108 -256.5q-31 -176 17.5 -256t183.5 -80z" />
    <glyph glyph-name="divide" unicode="&#xf7;" horiz-adv-x="1056" 
d="M440 780l47 260h265l-47 -260h-265zM109 639h876l-35 -201h-876zM307 29l47 260h264l-45 -260h-266z" />
    <glyph glyph-name="oslash" unicode="&#xf8;" horiz-adv-x="1294" 
d="M1124 1188h228l-234 -258q127 -154 82 -404q-45 -249 -224 -403q-178 -154 -427 -154q-143 0 -250 54l-149 -166h-226l246 272q-119 153 -76 397q45 249 225 404q179 153 426 153q141 0 240 -49zM387 526q-16 -88 -10 -168l438 486q-43 18 -108 18q-137 0 -212 -79.5
t-108 -256.5zM907 526q18 114 8 179l-444 -494q43 -19 117 -21q137 0 212.5 80t106.5 256z" />
    <glyph glyph-name="ugrave" unicode="&#xf9;" horiz-adv-x="1316" 
d="M815 1554l62 -344h-207l-138 344h283zM868 436l109 617h285l-187 -1053h-270l37 213q-160 -244 -432 -244q-167 0 -247 101q-79 100 -48 276l123 707h282l-104 -596q-26 -137 12 -193q38 -57 152 -57q113 0 187.5 59.5t100.5 169.5z" />
    <glyph glyph-name="uacute" unicode="&#xfa;" horiz-adv-x="1316" 
d="M838 1554h282l-256 -344h-207zM868 436l109 617h285l-187 -1053h-270l37 213q-160 -244 -432 -244q-167 0 -247 101q-79 100 -48 276l123 707h282l-104 -596q-26 -137 12 -193q38 -57 152 -57q113 0 187.5 59.5t100.5 169.5z" />
    <glyph glyph-name="ucircumflex" unicode="&#xfb;" horiz-adv-x="1316" 
d="M901 1210l-80 279l-180 -279h-238l244 344h369l123 -344h-238zM868 436l109 617h285l-187 -1053h-270l37 213q-160 -244 -432 -244q-167 0 -247 101q-79 100 -48 276l123 707h282l-104 -596q-26 -137 12 -193q38 -57 152 -57q113 0 187.5 59.5t100.5 169.5z" />
    <glyph glyph-name="udieresis" unicode="&#xfc;" horiz-adv-x="1316" 
d="M500 1522h270l-47 -271h-270zM879 1522h270l-47 -271h-273zM868 436l109 617h285l-187 -1053h-270l37 213q-160 -244 -432 -244q-167 0 -247 101q-79 100 -48 276l123 707h282l-104 -596q-26 -137 12 -193q38 -57 152 -57q113 0 187.5 59.5t100.5 169.5z" />
    <glyph glyph-name="yacute" unicode="&#xfd;" horiz-adv-x="1175" 
d="M756 1554h282l-256 -344h-207zM621 352l344 701h286l-592 -1194q-57 -123 -171 -195q-116 -72 -250 -72q-128 0 -234 21l35 205h184q141 0 189 96l41 86h-197l-147 1053h294l97 -701l18 -237z" />
    <glyph glyph-name="thorn" unicode="&#xfe;" horiz-adv-x="1339" 
d="M887 1083q207 0 305 -153q98 -155 53 -404q-45 -253 -196 -404q-151 -153 -359 -153q-117 0 -199.5 55.5t-117.5 159.5l-111 -620h-282l352 1990h270l-131 -743q74 131 181.5 201.5t234.5 70.5zM952 526q31 178 -16 257t-184 79q-129 0 -204 -71.5t-110 -229.5l-12 -72
q-20 -156 29 -227.5t178 -71.5q137 0 212.5 80t106.5 256z" />
    <glyph glyph-name="ydieresis" unicode="&#xff;" horiz-adv-x="1175" 
d="M418 1522h270l-47 -271h-270zM797 1522h270l-47 -271h-272zM621 352l344 701h286l-592 -1194q-57 -123 -171 -195q-116 -72 -250 -72q-128 0 -234 21l35 205h184q141 0 189 96l41 86h-197l-147 1053h294l97 -701l18 -237z" />
    <glyph glyph-name="Amacron" unicode="&#x100;" horiz-adv-x="1515" 
d="M719 1888h581l-36 -219h-584zM1405 0h-313l-56 383h-598l-190 -383h-301l717 1442h530zM766 1038l-209 -417h444l-59 417l-37 308z" />
    <glyph glyph-name="amacron" unicode="&#x101;" horiz-adv-x="1208" 
d="M473 1499h582l-37 -219h-584zM1112 199h2l-33 -199q-88 -20 -163 -20q-115 0 -162 54t-31 173q-64 -111 -174.5 -174.5t-247.5 -63.5q-143 0 -217 72t-51 188q18 112 103 181.5t249 99.5q313 57 395 86l4 20q23 133 -10.5 192.5t-132.5 59.5q-100 0 -153.5 -55
t-75.5 -178h-275q38 204 188 326q151 122 359 122q212 0 316 -114q102 -116 65 -316l-59 -329q-13 -82 3 -103q16 -22 101 -22zM444 170q124 0 204.5 63t103.5 187l8 41q-50 -13 -264 -66q-90 -19 -125 -46q-33 -27 -45 -79q-8 -49 21 -74.5t97 -25.5z" />
    <glyph glyph-name="Abreve" unicode="&#x102;" horiz-adv-x="1515" 
d="M1205 1684q-101 -93 -246 -93t-216 93q-71 92 -41 260h197q-16 -92 5.5 -135.5t82.5 -43.5q63 0 100 43t54 136h196q-32 -169 -132 -260zM1405 0h-313l-56 383h-598l-190 -383h-301l717 1442h530zM766 1038l-209 -417h444l-59 417l-37 308z" />
    <glyph glyph-name="abreve" unicode="&#x103;" horiz-adv-x="1208" 
d="M958 1294q-103 -92 -247 -92q-145 0 -216 92q-71 93 -40 260h196q-16 -92 5.5 -135t82.5 -43q126 0 154 178h197q-32 -169 -132 -260zM1112 199h2l-33 -199q-88 -20 -163 -20q-115 0 -162 54t-31 173q-64 -111 -174.5 -174.5t-247.5 -63.5q-143 0 -217 72t-51 188
q18 112 103 181.5t249 99.5q313 57 395 86l4 20q23 133 -10.5 192.5t-132.5 59.5q-100 0 -153.5 -55t-75.5 -178h-275q38 204 188 326q151 122 359 122q212 0 316 -114q102 -116 65 -316l-59 -329q-13 -82 3 -103q16 -22 101 -22zM444 170q124 0 204.5 63t103.5 187l8 41
q-50 -13 -264 -66q-90 -19 -125 -46q-33 -27 -45 -79q-8 -49 21 -74.5t97 -25.5z" />
    <glyph glyph-name="Aogonek" unicode="&#x104;" horiz-adv-x="1515" 
d="M1276 0l-160 -162q-42 -44 -47 -74q-3 -22 10.5 -32.5t44.5 -10.5h119l-31 -165h-241q-77 0 -115.5 37.5t-28.5 101.5q17 77 93 147l172 158l-56 383h-598l-190 -383h-301l717 1442h530l211 -1442h-129zM766 1038l-209 -417h444l-59 417l-37 308z" />
    <glyph glyph-name="aogonek" unicode="&#x105;" horiz-adv-x="1208" 
d="M1008 -14l-146 -148q-42 -44 -47 -74q-3 -22 10.5 -32.5t44.5 -10.5h119l-31 -165h-241q-77 0 -115.5 37.5t-28.5 101.5q17 77 93 147l161 148q-127 37 -102 217q-64 -111 -174.5 -174.5t-247.5 -63.5q-143 0 -217 72t-51 188q18 112 103 181.5t249 99.5q313 57 395 86
l4 20q23 133 -10.5 192.5t-132.5 59.5q-100 0 -153.5 -55t-75.5 -178h-275q38 204 188 326q151 122 359 122q212 0 316 -114q102 -116 65 -316l-59 -329q-13 -82 3 -103q16 -22 101 -22h2l-33 -199q-54 -13 -73 -14zM444 170q124 0 204.5 63t103.5 187l8 41
q-50 -13 -264 -66q-90 -19 -125 -46q-33 -27 -45 -79q-8 -49 21 -74.5t97 -25.5z" />
    <glyph glyph-name="Cacute" unicode="&#x106;" horiz-adv-x="1554" 
d="M889 1599l180 345h283l-256 -345h-207zM236 176q-162 207 -102 545q59 338 294 545q234 207 555 207q281 0 439 -152q157 -151 112 -410h-301q29 158 -41.5 228.5t-253.5 70.5q-215 0 -333 -115t-163 -374q-45 -257 32 -375q77 -117 290 -117q182 0 277.5 65.5
t121.5 209.5h301q-45 -249 -255 -391q-210 -144 -490 -144q-323 0 -483 207z" />
    <glyph glyph-name="cacute" unicode="&#x107;" horiz-adv-x="1222" 
d="M639 1210l180 344h283l-256 -344h-207zM831 381h279q-33 -186 -188 -299q-157 -113 -377 -113q-248 0 -372 154q-124 152 -79 403q45 250 223 404q177 153 424 153q219 0 333 -119q114 -120 79 -315h-279q20 113 -20.5 163t-153.5 50q-135 0 -208.5 -79.5t-104.5 -256.5
t15.5 -256.5t181.5 -79.5q113 0 171 44.5t76 146.5z" />
    <glyph glyph-name="Ccircumflex" unicode="&#x108;" horiz-adv-x="1554" 
d="M1133 1599l-80 279l-181 -279h-237l244 345h368l123 -345h-237zM1534 911h-301q29 158 -41.5 228.5t-253.5 70.5q-215 0 -333 -115t-163 -374q-45 -257 32 -375q77 -117 290 -117q182 0 277.5 65.5t121.5 209.5h301q-45 -249 -255 -391q-210 -144 -490 -144
q-323 0 -483 207q-162 207 -102 545q59 338 294 545q234 207 555 207q281 0 439 -152q157 -151 112 -410z" />
    <glyph glyph-name="ccircumflex" unicode="&#x109;" horiz-adv-x="1222" 
d="M885 1210l-80 279l-180 -279h-238l244 344h368l123 -344h-237zM1153 649h-279q20 113 -20.5 163t-153.5 50q-135 0 -208.5 -79.5t-104.5 -256.5t15.5 -256.5t181.5 -79.5q113 0 171 44.5t76 146.5h279q-33 -186 -188 -299q-157 -113 -377 -113q-248 0 -372 154
q-124 152 -79 403q45 250 223 404q177 153 424 153q219 0 333 -119q114 -120 79 -315z" />
    <glyph glyph-name="Cdotaccent" unicode="&#x10a;" horiz-adv-x="1554" 
d="M856 1640l47 271h303l-47 -271h-303zM236 176q-162 207 -102 545q59 338 294 545q234 207 555 207q281 0 439 -152q157 -151 112 -410h-301q29 158 -41.5 228.5t-253.5 70.5q-215 0 -333 -115t-163 -374q-45 -257 32 -375q77 -117 290 -117q182 0 277.5 65.5t121.5 209.5
h301q-45 -249 -255 -391q-210 -144 -490 -144q-323 0 -483 207z" />
    <glyph glyph-name="cdotaccent" unicode="&#x10b;" horiz-adv-x="1222" 
d="M608 1251l47 271h303l-47 -271h-303zM831 381h279q-33 -186 -188 -299q-157 -113 -377 -113q-248 0 -372 154q-124 152 -79 403q45 250 223 404q177 153 424 153q219 0 333 -119q114 -120 79 -315h-279q20 113 -20.5 163t-153.5 50q-135 0 -208.5 -79.5t-104.5 -256.5
t15.5 -256.5t181.5 -79.5q113 0 171 44.5t76 146.5z" />
    <glyph glyph-name="Ccaron" unicode="&#x10c;" horiz-adv-x="1554" 
d="M1182 1599h-367l-125 345h240l80 -281l178 281h239zM1534 911h-301q29 158 -41.5 228.5t-253.5 70.5q-215 0 -333 -115t-163 -374q-45 -257 32 -375q77 -117 290 -117q182 0 277.5 65.5t121.5 209.5h301q-45 -249 -255 -391q-210 -144 -490 -144q-323 0 -483 207
q-162 207 -102 545q59 338 294 545q234 207 555 207q281 0 439 -152q157 -151 112 -410z" />
    <glyph glyph-name="ccaron" unicode="&#x10d;" horiz-adv-x="1222" 
d="M932 1210h-367l-125 344h240l80 -280l178 280h240zM741 1083q219 0 333 -119q114 -120 79 -315h-279q20 113 -20.5 163t-153.5 50q-135 0 -208.5 -79.5t-104.5 -256.5t15.5 -256.5t181.5 -79.5q113 0 171 44.5t76 146.5h279q-33 -186 -188 -299q-157 -113 -377 -113
q-248 0 -372 154q-124 152 -79 403q45 249 222 404q177 153 425 153z" />
    <glyph glyph-name="Dcaron" unicode="&#x10e;" horiz-adv-x="1601" 
d="M1165 1599h-366l-125 345h239l80 -281l178 281h240zM346 1442h602q322 0 485 -199q162 -199 105 -522q-57 -324 -288 -522q-232 -199 -554 -199h-602zM1229 721q84 469 -338 469h-287l-166 -942h287q420 0 504 473z" />
    <glyph glyph-name="dcaron" unicode="&#x10f;" horiz-adv-x="1333" 
d="M967 864l123 690h282l-274 -1554h-273l43 242q-72 -131 -180 -202t-235 -71q-209 0 -306 153q-98 152 -53 404q45 253 196 405q150 152 357 152q120 0 203.5 -57t116.5 -162zM1468 1395l29 159h277l-35 -196q-19 -118 -115 -186q-97 -68 -238 -68l21 115q163 0 182 120z
M588 190q129 0 203.5 72t107.5 227l14 74q20 156 -28.5 227.5t-177.5 71.5q-137 0 -213 -80t-107 -256q-31 -177 16.5 -256.5t184.5 -79.5z" />
    <glyph glyph-name="Dcroat" unicode="&#x110;" horiz-adv-x="1601" 
d="M346 1442h602q322 0 485 -199q162 -199 105 -522q-57 -324 -288 -522q-232 -199 -554 -199h-602l107 610h-181l39 219h181zM1229 721q84 469 -338 469h-287l-63 -361h311l-39 -219h-311l-64 -362h287q420 0 504 473z" />
    <glyph glyph-name="dslash" unicode="&#x111;" horiz-adv-x="1333" 
d="M1350 1421h129l-35 -196h-129l-217 -1225h-273l43 242q-72 -131 -180 -202t-235 -71q-209 0 -306 153q-98 152 -53 404q45 253 196 405q150 152 357 152q120 0 203.5 -56.5t116.5 -162.5l63 361h-416l35 196h416l25 133h282zM588 190q129 0 203.5 72t107.5 227l14 74
q20 156 -28.5 227.5t-177.5 71.5q-137 0 -213 -80t-107 -256q-31 -177 16.5 -256.5t184.5 -79.5z" />
    <glyph glyph-name="Emacron" unicode="&#x112;" horiz-adv-x="1302" 
d="M641 1888h582l-37 -219h-584zM1364 1442l-45 -252h-715l-59 -344h678l-43 -236h-678l-62 -358h725l-45 -252h-1026l252 1442h1018z" />
    <glyph glyph-name="emacron" unicode="&#x113;" horiz-adv-x="1241" 
d="M518 1499h582l-37 -219h-584zM737 1083q228 0 347 -134q118 -133 79 -353l-22 -131h-762q-16 -145 33 -212t174 -67q223 0 248 154h278q-28 -166 -186 -268q-157 -103 -385 -103q-246 0 -369 154q-123 153 -78 403q45 249 221 404q175 153 422 153zM410 625l221 4h254
q14 125 -29.5 181t-156.5 56t-182.5 -58t-106.5 -183z" />
    <glyph glyph-name="Ebreve" unicode="&#x114;" horiz-adv-x="1302" 
d="M1128 1684q-102 -93 -247 -93t-216 93t-40 260h196q-16 -92 5.5 -135.5t82.5 -43.5q63 0 100.5 43t53.5 136h197q-32 -169 -132 -260zM1364 1442l-45 -252h-715l-59 -344h678l-43 -236h-678l-62 -358h725l-45 -252h-1026l252 1442h1018z" />
    <glyph glyph-name="ebreve" unicode="&#x115;" horiz-adv-x="1241" 
d="M1005 1294q-103 -92 -247 -92q-145 0 -216 92q-71 93 -40 260h196q-16 -92 5.5 -135t82.5 -43q63 0 100.5 43t53.5 135h197q-32 -169 -132 -260zM737 1083q228 0 347 -134q118 -133 79 -353l-22 -131h-762q-16 -145 33 -212t174 -67q223 0 248 154h278
q-28 -166 -186 -268q-157 -103 -385 -103q-246 0 -369 154q-123 153 -78 403q45 249 221 404q175 153 422 153zM410 625l221 4h254q14 125 -29.5 181t-156.5 56t-182.5 -58t-106.5 -183z" />
    <glyph glyph-name="Edotaccent" unicode="&#x116;" horiz-adv-x="1302" 
d="M784 1911h303l-47 -271h-303zM1364 1442l-45 -252h-715l-59 -344h678l-43 -236h-678l-62 -358h725l-45 -252h-1026l252 1442h1018z" />
    <glyph glyph-name="edotaccent" unicode="&#x117;" horiz-adv-x="1241" 
d="M662 1522h303l-47 -271h-304zM737 1083q228 0 347 -134q118 -133 79 -353l-22 -131h-762q-16 -145 33 -212t174 -67q223 0 248 154h278q-28 -166 -186 -268q-157 -103 -385 -103q-246 0 -369 154q-123 153 -78 403q45 249 221 404q175 153 422 153zM410 625l221 4h254
q14 125 -29.5 181t-156.5 56t-182.5 -58t-106.5 -183z" />
    <glyph glyph-name="Eogonek" unicode="&#x118;" horiz-adv-x="1302" 
d="M1364 1442l-45 -252h-715l-59 -344h678l-43 -236h-678l-62 -358h725l-45 -252h-24l-160 -162q-42 -44 -47 -74q-3 -22 10.5 -32.5t44.5 -10.5h119l-31 -165h-241q-77 0 -115.5 37.5t-28.5 101.5q17 78 92 147l172 158h-817l252 1442h1018z" />
    <glyph glyph-name="eogonek" unicode="&#x119;" horiz-adv-x="1241" 
d="M737 1083q228 0 347 -134q118 -133 79 -353l-22 -131h-762q-16 -145 33 -212t174 -67q223 0 248 154h278q-20 -120 -112 -209.5t-236 -130.5l-160 -162q-42 -44 -47 -74q-3 -22 10.5 -32.5t44.5 -10.5h119l-31 -165h-241q-77 0 -115.5 37.5t-28.5 101.5q17 77 93 147
l139 127h-6q-246 0 -369 154q-123 153 -78 403q45 249 221 404q175 153 422 153zM410 625l221 4h254q14 125 -29.5 181t-156.5 56t-182.5 -58t-106.5 -183z" />
    <glyph glyph-name="Ecaron" unicode="&#x11a;" horiz-adv-x="1302" 
d="M1061 1599h-367l-125 345h240l80 -281l178 281h240zM1364 1442l-45 -252h-715l-59 -344h678l-43 -236h-678l-62 -358h725l-45 -252h-1026l252 1442h1018z" />
    <glyph glyph-name="ecaron" unicode="&#x11b;" horiz-adv-x="1241" 
d="M938 1210h-367l-125 344h240l80 -280l178 280h240zM737 1083q228 0 347 -134q118 -133 79 -353l-22 -131h-762q-16 -145 33 -212t174 -67q223 0 248 154h278q-28 -166 -186 -268q-157 -103 -385 -103q-246 0 -369 154q-123 153 -78 403q45 249 221 404q175 153 422 153z
M410 625l221 4h254q14 125 -29.5 181t-156.5 56t-182.5 -58t-106.5 -183z" />
    <glyph glyph-name="Gcircumflex" unicode="&#x11c;" horiz-adv-x="1617" 
d="M1153 1599l-80 279l-180 -279h-238l244 345h369l123 -345h-238zM1556 928h-301q27 150 -46 216t-263 66q-220 0 -339 -115q-120 -115 -165 -374t33 -378q78 -118 297 -118q193 0 295 81t137 257h-446l37 213h745l-137 -776h-260l61 350q-156 -381 -547 -381
q-295 0 -439 203t-87 541q62 344 298 552t562 208q297 0 453 -150q155 -152 112 -395z" />
    <glyph glyph-name="gcircumflex" unicode="&#x11d;" horiz-adv-x="1153" 
d="M831 1210l-79 279l-181 -279h-237l244 344h368l123 -344h-238zM1290 1245l-37 -217q-185 0 -223 -63q92 -96 66 -246q-28 -162 -179 -264q-151 -103 -370 -103q-134 0 -234 41q-30 -32 -41 -78q-8 -47 19 -66.5t102 -19.5h357q165 0 253 -80q88 -81 62 -212
q-29 -157 -198 -251t-427 -94q-254 0 -392 75t-118 198q10 60 61 104.5t130 61.5q-102 66 -82 180q27 142 197 225q-139 102 -109 283q31 166 180 265t369 99q152 0 260 -51q33 110 117 161.5t237 51.5zM809 719q16 88 -24 127t-144 39q-105 0 -158 -39t-69 -127
q-16 -92 22.5 -131t145.5 -39q104 0 157.5 40t69.5 130zM664 2h-441q-26 -38 -33 -86q-13 -82 43 -110q55 -27 240 -27q181 0 245 24q64 25 79 101q10 55 -19.5 76.5t-113.5 21.5z" />
    <glyph glyph-name="Gbreve" unicode="&#x11e;" horiz-adv-x="1617" 
d="M1267 1684q-102 -93 -247 -93q-146 0 -216 93q-71 93 -40 260h197q-16 -93 5 -136t83 -43q63 0 100 43t53 136h197q-32 -169 -132 -260zM1556 928h-301q27 150 -46 216t-263 66q-220 0 -339 -115q-120 -115 -165 -374t33 -378q78 -118 297 -118q193 0 295 81t137 257
h-446l37 213h745l-137 -776h-260l61 350q-156 -381 -547 -381q-295 0 -439 203t-87 541q62 344 298 552t562 208q297 0 453 -150q155 -152 112 -395z" />
    <glyph glyph-name="gbreve" unicode="&#x11f;" horiz-adv-x="1153" 
d="M943 1294q-101 -92 -246 -92t-216 92t-41 260h197q-16 -92 5.5 -135t82.5 -43q63 0 100 43t54 135h196q-32 -169 -132 -260zM1290 1245l-37 -217q-185 0 -223 -63q92 -96 66 -246q-28 -162 -179 -264q-151 -103 -370 -103q-134 0 -234 41q-30 -32 -41 -78
q-8 -47 19 -66.5t102 -19.5h357q165 0 253 -80q88 -81 62 -212q-29 -157 -198 -251t-427 -94q-254 0 -392 75t-118 198q10 60 61 104.5t130 61.5q-102 66 -82 180q27 142 197 225q-139 102 -109 283q31 166 180 265t369 99q152 0 260 -51q33 110 117 161.5t237 51.5z
M809 719q16 88 -24 127t-144 39q-105 0 -158 -39t-69 -127q-16 -92 22.5 -131t145.5 -39q104 0 157.5 40t69.5 130zM664 2h-441q-26 -38 -33 -86q-13 -82 43 -110q55 -27 240 -27q181 0 245 24q64 25 79 101q10 55 -19.5 76.5t-113.5 21.5z" />
    <glyph glyph-name="Gdotaccent" unicode="&#x120;" horiz-adv-x="1617" 
d="M924 1911h303l-47 -271h-303zM1556 928h-301q27 150 -46 216t-263 66q-220 0 -339 -115q-120 -115 -165 -374t33 -378q78 -118 297 -118q193 0 295 81t137 257h-446l37 213h745l-137 -776h-260l61 350q-156 -381 -547 -381q-295 0 -439 203t-87 541q62 344 298 552
t562 208q297 0 453 -150q155 -152 112 -395z" />
    <glyph glyph-name="gdotaccent" unicode="&#x121;" horiz-adv-x="1153" 
d="M602 1522h303l-47 -271h-303zM1290 1245l-37 -217q-185 0 -223 -63q92 -96 66 -246q-28 -162 -179 -264q-151 -103 -370 -103q-134 0 -234 41q-30 -32 -41 -78q-8 -47 19 -66.5t102 -19.5h357q165 0 253 -80q88 -81 62 -212q-29 -157 -198 -251t-427 -94q-254 0 -392 75
t-118 198q10 60 61 104.5t130 61.5q-102 66 -82 180q27 142 197 225q-139 102 -109 283q31 166 180 265t369 99q152 0 260 -51q33 110 117 161.5t237 51.5zM809 719q16 88 -24 127t-144 39q-105 0 -158 -39t-69 -127q-16 -92 22.5 -131t145.5 -39q104 0 157.5 40t69.5 130z
M664 2h-441q-26 -38 -33 -86q-13 -82 43 -110q55 -27 240 -27q181 0 245 24q64 25 79 101q10 55 -19.5 76.5t-113.5 21.5z" />
    <glyph glyph-name="uni0122" unicode="&#x122;" horiz-adv-x="1617" 
d="M1556 928h-301q27 150 -46 216t-263 66q-220 0 -339 -115q-120 -115 -165 -374t33 -378q78 -118 297 -118q193 0 295 81t137 257h-446l37 213h745l-137 -776h-260l61 350q-156 -381 -547 -381q-295 0 -439 203t-87 541q62 344 298 552t562 208q297 0 453 -150
q155 -152 112 -395zM659 -367l-120 54l28 159h277l-35 -196q-20 -119 -115 -187q-95 -67 -237 -67l20 115q162 0 182 122z" />
    <glyph glyph-name="uni0123" unicode="&#x123;" horiz-adv-x="1153" 
d="M727 1423l129 -53l-27 -160h-284l35 197q20 117 117 183q97 65 241 65l-20 -115q-170 0 -191 -117zM1290 1245l-37 -217q-185 0 -223 -63q92 -96 66 -246q-28 -162 -179 -264q-151 -103 -370 -103q-134 0 -234 41q-30 -32 -41 -78q-8 -47 19 -66.5t102 -19.5h357
q165 0 253 -80q88 -81 62 -212q-29 -157 -198 -251t-427 -94q-254 0 -392 75t-118 198q10 60 61 104.5t130 61.5q-102 66 -82 180q27 142 197 225q-139 102 -109 283q31 166 180 265t369 99q152 0 260 -51q33 110 117 161.5t237 51.5zM809 719q16 88 -24 127t-144 39
q-105 0 -158 -39t-69 -127q-16 -92 22.5 -131t145.5 -39q104 0 157.5 40t69.5 130zM664 2h-441q-26 -38 -33 -86q-13 -82 43 -110q55 -27 240 -27q181 0 245 24q64 25 79 101q10 55 -19.5 76.5t-113.5 21.5z" />
    <glyph glyph-name="Hcircumflex" unicode="&#x124;" horiz-adv-x="1660" 
d="M1149 1599l-80 279l-180 -279h-238l244 345h369l122 -345h-237zM1231 856l102 586h301l-252 -1442h-303l107 604h-684l-107 -604h-301l252 1442h303l-102 -586h684z" />
    <glyph glyph-name="hcircumflex" unicode="&#x125;" 
d="M868 1731l-80 278l-180 -278h-237l243 344h369l123 -344h-238zM911 1083q174 0 256 -100t52 -276l-123 -707h-283l105 596q26 140 -12 195q-37 55 -154 55q-121 0 -201 -64.5t-107 -185.5l-104 -596h-283l275 1554h282l-127 -714q167 243 424 243z" />
    <glyph glyph-name="Hbar" unicode="&#x126;" horiz-adv-x="1660" 
d="M1604 1268h176l-37 -215h-176l-185 -1053h-303l107 604h-684l-107 -604h-301l185 1053h-185l37 215h184l31 174h303l-31 -174h685l30 174h301zM547 856h684l35 197h-684z" />
    <glyph glyph-name="hbar" unicode="&#x127;" 
d="M911 1083q174 0 256 -100t52 -276l-123 -707h-283l105 596q26 140 -12 195q-37 55 -154 55q-121 0 -201 -64.5t-107 -185.5l-104 -596h-283l217 1225h-196l35 196h196l23 133h282l-22 -133h350l-35 -196h-350l-70 -385q167 243 424 243z" />
    <glyph glyph-name="Itilde" unicode="&#x128;" horiz-adv-x="673" 
d="M682 1628q-65 0 -147 47q-83 47 -132 47q-88 0 -106 -90h-147q27 141 99.5 217t182.5 76q65 0 148 -47t131 -47q45 0 71.5 24t30.5 66h148q-23 -142 -94.5 -217.5t-184.5 -75.5zM94 0l252 1442h303l-254 -1442h-301z" />
    <glyph glyph-name="itilde" unicode="&#x129;" horiz-adv-x="575" 
d="M569 1239q-65 0 -147 47q-83 47 -131 47q-87 0 -107 -90h-147q27 141 99.5 217t182.5 76q65 0 148 -47t131 -47q45 0 71.5 24t30.5 66h148q-23 -142 -94.5 -217.5t-184.5 -75.5zM57 0l187 1053h282l-186 -1053h-283z" />
    <glyph glyph-name="Imacron" unicode="&#x12a;" horiz-adv-x="673" 
d="M285 1888h581l-37 -219h-583zM94 0l252 1442h303l-254 -1442h-301z" />
    <glyph glyph-name="imacron" unicode="&#x12b;" horiz-adv-x="575" 
d="M172 1499h582l-37 -219h-584zM57 0l187 1053h282l-186 -1053h-283z" />
    <glyph glyph-name="Ibreve" unicode="&#x12c;" horiz-adv-x="673" 
d="M707 1944h196q-32 -169 -132 -260q-101 -93 -246 -93t-216 93q-71 92 -41 260h197q-16 -92 5.5 -135.5t82.5 -43.5q63 0 100 43t54 136zM94 0l252 1442h303l-254 -1442h-301z" />
    <glyph glyph-name="ibreve" unicode="&#x12d;" horiz-adv-x="575" 
d="M594 1554h197q-32 -169 -132 -260q-103 -92 -247 -92q-145 0 -216 92q-71 93 -40 260h196q-16 -92 5.5 -135t82.5 -43q126 0 154 178zM57 0l187 1053h282l-186 -1053h-283z" />
    <glyph glyph-name="Iogonek" unicode="&#x12e;" horiz-adv-x="673" 
d="M395 0l-159 -162q-43 -45 -48 -74q-6 -43 56 -43h118l-30 -165h-242q-77 0 -115 37.5t-28 101.5q17 78 92 147l172 158h-117l252 1442h303z" />
    <glyph glyph-name="iogonek" unicode="&#x12f;" horiz-adv-x="575" 
d="M268 1251l47 271h303l-47 -271h-303zM156 0h-99l187 1053h282l-186 -1053l-160 -162q-42 -44 -47 -74q-3 -22 10.5 -32.5t44.5 -10.5h119l-31 -165h-241q-77 0 -115.5 37.5t-28.5 101.5q13 77 93 147z" />
    <glyph glyph-name="Idot" unicode="&#x130;" horiz-adv-x="673" 
d="M381 1640l47 271h303l-47 -271h-303zM94 0l252 1442h303l-254 -1442h-301z" />
    <glyph glyph-name="dotlessi" unicode="&#x131;" horiz-adv-x="575" 
d="M57 0l187 1053h282l-186 -1053h-283z" />
    <glyph glyph-name="IJ" unicode="&#x132;" horiz-adv-x="1290" 
d="M133 227h440q104 0 159.5 52t76.5 167l176 996h301l-180 -1018q-34 -206 -195 -330q-161 -125 -389 -125q-231 0 -426 49zM182 467l172 975h301l-172 -975h-301z" />
    <glyph glyph-name="ij" unicode="&#x133;" horiz-adv-x="1173" 
d="M319 1522h304l-48 -271h-303zM856 1251l49 271h303l-47 -271h-305zM246 1053h284l-186 -1053h-283zM643 -18l188 1071h283l-192 -1098q-28 -163 -148 -264q-118 -99 -285 -99q-86 0 -155 21l37 205h114q72 0 108 37t50 127z" />
    <glyph glyph-name="Jcircumflex" unicode="&#x134;" horiz-adv-x="1308" 
d="M1053 1944h368l123 -345h-237l-80 279l-180 -279h-238zM838 508l166 934h301l-170 -963q-39 -229 -215 -369q-177 -141 -424 -141q-244 0 -367 147q-123 145 -82 388h295q-25 -145 22.5 -210t178.5 -65q130 0 200 66.5t95 212.5z" />
    <glyph glyph-name="jcircumflex" unicode="&#x135;" horiz-adv-x="575" 
d="M289 1554h368l123 -344h-237l-80 279l-180 -279h-238zM53 -18l189 1071h282l-192 -1098q-28 -163 -147 -264q-119 -99 -285 -99q-86 0 -156 21l37 205h115q72 0 107.5 37t49.5 127z" />
    <glyph glyph-name="uni0136" unicode="&#x136;" horiz-adv-x="1515" 
d="M1278 1442h371l-795 -713l580 -729h-390l-399 508l-127 186l-123 -694h-301l252 1442h303l-121 -684l191 184zM635 -367l-121 54l29 159h276l-35 -196q-20 -119 -115 -187q-95 -67 -237 -67l21 115q162 0 182 122z" />
    <glyph glyph-name="uni0137" unicode="&#x137;" horiz-adv-x="1249" 
d="M979 1053h324l-562 -504l441 -549h-375l-289 371l-90 133l-88 -504h-283l275 1554h282l-176 -999l137 135zM473 -367l-121 54l29 159h276l-34 -196q-20 -119 -115 -187q-95 -67 -238 -67l21 115q162 0 182 122z" />
    <glyph glyph-name="kgreenlandic" unicode="&#x138;" horiz-adv-x="1249" 
d="M979 1053h324l-562 -504l441 -549h-375l-289 371l-90 131l-88 -502h-283l187 1053h282l-88 -498l137 135z" />
    <glyph glyph-name="Lacute" unicode="&#x139;" horiz-adv-x="1218" 
d="M594 1944h283l-256 -345h-207zM649 1442l-209 -1190h678l-45 -252h-979l252 1442h303z" />
    <glyph glyph-name="lacute" unicode="&#x13a;" horiz-adv-x="641" 
d="M551 1989h283l-256 -344h-207zM324 1554h284l-217 -1216q-12 -74 8.5 -103.5t83.5 -29.5h70l-35 -205q-85 -20 -158 -20q-140 0 -211 89t-47 234z" />
    <glyph glyph-name="uni013B" unicode="&#x13b;" horiz-adv-x="1218" 
d="M649 1442l-209 -1190h678l-45 -252h-979l252 1442h303zM522 -367l-121 54l29 159h277l-35 -196q-20 -119 -115 -187q-95 -67 -238 -67l21 115q162 0 182 122z" />
    <glyph glyph-name="uni013C" unicode="&#x13c;" horiz-adv-x="641" 
d="M608 1554l-217 -1216q-12 -74 8.5 -103.5t83.5 -29.5h70l-35 -205q-85 -20 -158 -20q-140 0 -211 89t-47 234l222 1251h284zM231 -367l-120 54l28 159h277l-35 -196q-20 -119 -115 -187q-95 -67 -237 -67l20 115q162 0 182 122z" />
    <glyph glyph-name="Lcaron" unicode="&#x13d;" horiz-adv-x="1218" 
d="M346 1442h303l-209 -1190h678l-45 -252h-979zM1145 1442l-35 -197q-19 -118 -115 -186q-97 -68 -237 -68l20 115q162 0 183 121l-121 55l28 160h277z" />
    <glyph glyph-name="lcaron" unicode="&#x13e;" horiz-adv-x="641" 
d="M324 1554h284l-217 -1216q-12 -74 8.5 -103.5t83.5 -29.5h70l-35 -205q-85 -20 -158 -20q-140 0 -211 89t-47 234zM729 1395l29 159h276l-35 -196q-19 -118 -115 -186q-97 -68 -237 -68l21 115q162 0 182 120z" />
    <glyph glyph-name="Ldot" unicode="&#x13f;" horiz-adv-x="1218" 
d="M649 1442l-209 -1190h678l-45 -252h-979l252 1442h303zM748 958h313l-55 -313h-314z" />
    <glyph glyph-name="ldot" unicode="&#x140;" horiz-adv-x="980" 
d="M324 1554h284l-217 -1216q-12 -74 8.5 -103.5t83.5 -29.5h70l-35 -205q-85 -20 -158 -20q-140 0 -211 89t-47 234zM610 618l52 289h286l-51 -289h-287z" />
    <glyph glyph-name="Lslash" unicode="&#x141;" horiz-adv-x="1218" 
d="M504 621l-64 -369h678l-45 -252h-979l88 506l-166 -72l43 246l166 72l121 690h303l-100 -576l434 187l-41 -246z" />
    <glyph glyph-name="lslash" unicode="&#x142;" horiz-adv-x="641" 
d="M662 772l-220 -149l-51 -285q-12 -74 8.5 -103.5t83.5 -29.5h70l-35 -205q-85 -20 -158 -20q-140 0 -211 89t-47 234l35 193l-145 -97l45 256l145 97l142 802h284l-121 -673l220 147z" />
    <glyph glyph-name="Nacute" unicode="&#x143;" horiz-adv-x="1695" 
d="M1122 1944h283l-256 -345h-207zM1221 586l151 856h299l-254 -1442h-520l-285 1317l-63 -426l-156 -891h-299l252 1442h526l283 -1303z" />
    <glyph glyph-name="nacute" unicode="&#x144;" 
d="M883 1554h282l-256 -344h-207zM911 1083q174 0 256 -100t52 -276l-123 -707h-283l105 596q26 140 -12 195q-37 55 -154 55q-119 0 -199 -63.5t-107 -180.5l-106 -602h-283l187 1053h272l-39 -226q168 256 434 256z" />
    <glyph glyph-name="uni0145" unicode="&#x145;" horiz-adv-x="1695" 
d="M1221 586l151 856h299l-254 -1442h-520l-285 1317l-63 -426l-156 -891h-299l252 1442h526l283 -1303zM690 -367l-121 54l29 159h276l-34 -196q-20 -119 -115 -187q-95 -67 -238 -67l21 115q162 0 182 122z" />
    <glyph glyph-name="uni0146" unicode="&#x146;" 
d="M911 1083q174 0 256 -100t52 -276l-123 -707h-283l105 596q26 140 -12 195q-37 55 -154 55q-119 0 -199 -63.5t-107 -180.5l-106 -602h-283l187 1053h272l-39 -226q168 256 434 256zM504 -367l-121 54l29 159h276l-35 -196q-20 -119 -115 -187q-95 -67 -237 -67l21 115
q162 0 182 122z" />
    <glyph glyph-name="Ncaron" unicode="&#x147;" horiz-adv-x="1695" 
d="M1235 1599h-367l-125 345h240l80 -281l178 281h240zM1221 586l151 856h299l-254 -1442h-520l-285 1317l-63 -426l-156 -891h-299l252 1442h526l283 -1303z" />
    <glyph glyph-name="ncaron" unicode="&#x148;" 
d="M995 1210h-366l-125 344h239l80 -280l178 280h240zM911 1083q174 0 256 -100t52 -276l-123 -707h-283l105 596q26 140 -12 195q-37 55 -154 55q-119 0 -199 -63.5t-107 -180.5l-106 -602h-283l187 1053h272l-39 -226q168 256 434 256z" />
    <glyph glyph-name="napostrophe" unicode="&#x149;" horiz-adv-x="1531" 
d="M416 1442l-45 -252q-23 -139 -126.5 -217t-267.5 -78l23 129q100 0 153.5 36t67.5 116l-141 71l35 195h301zM1112 1083q175 0 257 -100q83 -101 52 -276l-125 -707h-282l104 596q26 140 -12 195q-37 55 -154 55q-124 0 -205 -69t-102 -195l-2 2l-102 -584h-283l186 1053
h273l-41 -230q167 260 436 260z" />
    <glyph glyph-name="Eng" unicode="&#x14a;" horiz-adv-x="1695" 
d="M1221 586l151 856h299l-254 -1442l-10 -53q-27 -161 -145 -258t-285 -97q-91 0 -164 21l35 205h115q74 0 110 40q35 41 51 142h-227l-285 1317l-63 -426l-156 -891h-299l252 1442h526l283 -1303z" />
    <glyph glyph-name="eng" unicode="&#x14b;" 
d="M911 1083q174 0 256 -100t52 -276l-134 -764q-27 -162 -146 -263q-119 -100 -284 -100q-86 0 -155 21l35 204h114q72 0 108 37t52 129l109 625q23 140 -13 195q-37 55 -153 55q-119 0 -199 -63.5t-107 -180.5l-106 -602h-283l187 1053h272l-39 -226q168 256 434 256z" />
    <glyph glyph-name="Omacron" unicode="&#x14c;" horiz-adv-x="1658" 
d="M780 1888h582l-37 -219h-584zM1301 176q-239 -207 -568 -207q-331 0 -494 207q-165 207 -105 545q58 337 298 545q239 207 566 207t492 -207t105 -545q-57 -338 -294 -545zM477 346q79 -117 301 -117q221 0 341 117q121 118 167 375q45 258 -33 374q-79 115 -300 115
q-223 0 -344 -115q-122 -116 -167 -374q-45 -257 35 -375z" />
    <glyph glyph-name="omacron" unicode="&#x14d;" horiz-adv-x="1294" 
d="M528 1499h582l-37 -219h-584zM549 -31q-251 0 -375 154q-125 153 -80 403q45 249 225 404q179 153 426 153q251 0 375 -153q125 -155 80 -404t-224 -403q-178 -154 -427 -154zM588 190q137 0 213 80t107 256q30 176 -18 256t-183 80q-137 0 -212 -79.5t-108 -256.5
q-31 -176 17.5 -256t183.5 -80z" />
    <glyph glyph-name="Obreve" unicode="&#x14e;" horiz-adv-x="1658" 
d="M1200 1944h197q-32 -169 -132 -260q-102 -93 -247 -93q-146 0 -216 93q-71 93 -40 260h196q-16 -92 5.5 -135.5t83.5 -43.5q124 0 153 179zM1301 176q-239 -207 -568 -207q-331 0 -494 207q-165 207 -105 545q58 337 298 545q239 207 566 207t492 -207t105 -545
q-57 -338 -294 -545zM477 346q79 -117 301 -117q221 0 341 117q121 118 167 375q45 258 -33 374q-79 115 -300 115q-223 0 -344 -115q-122 -116 -167 -374q-45 -257 35 -375z" />
    <glyph glyph-name="obreve" unicode="&#x14f;" horiz-adv-x="1294" 
d="M948 1554h197q-32 -169 -132 -260q-103 -92 -247 -92q-145 0 -216 92q-71 93 -40 260h197q-16 -93 5 -135.5t83 -42.5q63 0 100 43t53 135zM549 -31q-251 0 -375 154q-125 153 -80 403q45 249 225 404q179 153 426 153q251 0 375 -153q125 -155 80 -404t-224 -403
q-178 -154 -427 -154zM588 190q137 0 213 80t107 256q30 176 -18 256t-183 80q-137 0 -212 -79.5t-108 -256.5q-31 -176 17.5 -256t183.5 -80z" />
    <glyph glyph-name="Ohungarumlaut" unicode="&#x150;" horiz-adv-x="1658" 
d="M764 1599l164 345h233l-190 -345h-207zM1063 1599l182 345h283l-258 -345h-207zM1301 176q-239 -207 -568 -207q-331 0 -494 207q-165 207 -105 545q58 337 298 545q239 207 566 207t492 -207t105 -545q-57 -338 -294 -545zM477 346q79 -117 301 -117q221 0 341 117
q121 118 167 375q45 258 -33 374q-79 115 -300 115q-223 0 -344 -115q-122 -116 -167 -374q-45 -257 35 -375z" />
    <glyph glyph-name="ohungarumlaut" unicode="&#x151;" horiz-adv-x="1294" 
d="M510 1210l164 344h233l-190 -344h-207zM809 1210l182 344h283l-258 -344h-207zM549 -31q-251 0 -375 154q-125 153 -80 403q45 249 225 404q179 153 426 153q251 0 375 -153q125 -155 80 -404t-224 -403q-178 -154 -427 -154zM588 190q137 0 213 80t107 256
q30 176 -18 256t-183 80q-137 0 -212 -79.5t-108 -256.5q-31 -176 17.5 -256t183.5 -80z" />
    <glyph glyph-name="OE" unicode="&#x152;" horiz-adv-x="2205" 
d="M2265 1442l-43 -252h-690l-62 -344h654l-41 -236h-653l-64 -358h702l-45 -252h-1302q-323 0 -483 199q-162 198 -105 522q57 323 288 522q229 199 552 199h1292zM778 248h285l166 942h-285q-418 0 -502 -469q-84 -473 336 -473z" />
    <glyph glyph-name="oe" unicode="&#x153;" horiz-adv-x="2050" 
d="M1544 1083q230 0 349 -134q118 -133 79 -353l-24 -131h-760q-16 -145 33 -212t174 -67q221 0 247 152l279 2q-28 -166 -186 -268q-157 -103 -385 -103q-258 0 -365 189q-175 -187 -436 -189q-251 0 -375 154q-125 153 -80 403q45 249 225 404q179 153 426 153
q260 0 371 -188q173 188 428 188zM1219 625l219 4h256q14 125 -30.5 181t-156.5 56q-113 0 -182 -58t-106 -183zM907 526q31 176 -17 256t-183 80q-137 0 -213 -80t-107 -256t17.5 -256t183.5 -80q137 0 211.5 79.5t107.5 256.5z" />
    <glyph glyph-name="Racute" unicode="&#x154;" horiz-adv-x="1398" 
d="M1004 1944h282l-256 -345h-207zM1434 1010q-27 -147 -121 -254t-236 -154l90 -158l207 -444h-338l-256 569h-284l-101 -569h-301l252 1442h698q210 0 316 -118q107 -119 74 -314zM1122 999q16 107 -28 155t-160 48h-328l-71 -411h327q117 0 178.5 49.5t81.5 158.5z" />
    <glyph glyph-name="racute" unicode="&#x155;" horiz-adv-x="843" 
d="M707 1554h282l-256 -344h-207zM514 1053l-45 -254q68 131 166 208q97 76 209 76q62 0 90 -18l-45 -256h-162q-116 0 -192 -66t-97 -188l-98 -555h-283l187 1053h270z" />
    <glyph glyph-name="uni0156" unicode="&#x156;" horiz-adv-x="1398" 
d="M1434 1010q-27 -147 -121 -254t-236 -154l90 -158l207 -444h-338l-256 569h-284l-101 -569h-301l252 1442h698q210 0 316 -118q107 -119 74 -314zM1122 999q16 107 -28 155t-160 48h-328l-71 -411h327q117 0 178.5 49.5t81.5 158.5zM612 -367l-120 54l28 159h277
l-35 -196q-20 -119 -115 -187q-95 -67 -237 -67l20 115q162 0 182 122z" />
    <glyph glyph-name="uni0157" unicode="&#x157;" horiz-adv-x="843" 
d="M844 1083q62 0 90 -18l-45 -256h-162q-116 0 -192 -66t-97 -188l-98 -555h-283l187 1053h270l-45 -254q68 131 166 208q97 76 209 76zM127 -367l-121 54l29 159h276l-35 -196q-20 -119 -115 -187q-94 -67 -237 -67l21 115q162 0 182 122z" />
    <glyph glyph-name="Rcaron" unicode="&#x158;" horiz-adv-x="1398" 
d="M1116 1599h-366l-125 345h239l80 -281l178 281h240zM1434 1010q-27 -147 -121 -254t-236 -154l90 -158l207 -444h-338l-256 569h-284l-101 -569h-301l252 1442h698q210 0 316 -118q107 -119 74 -314zM1122 999q16 107 -28 155t-160 48h-328l-71 -411h327
q117 0 178.5 49.5t81.5 158.5z" />
    <glyph glyph-name="rcaron" unicode="&#x159;" horiz-adv-x="843" 
d="M819 1210h-366l-125 344h239l80 -280l178 280h240zM514 1053l-45 -254q68 131 166 208q97 76 209 76q62 0 90 -18l-45 -256h-162q-116 0 -192 -66t-97 -188l-98 -555h-283l187 1053h270z" />
    <glyph glyph-name="Sacute" unicode="&#x15a;" horiz-adv-x="1429" 
d="M805 1599l180 345h283l-256 -345h-207zM621 -31q-289 0 -440 136q-152 135 -113 356h301q-23 -129 47.5 -187.5t251.5 -58.5q324 0 354 162q21 65 -41 116q-64 53 -307 99q-283 52 -393 152q-111 98 -80 276q38 204 223 328q187 125 457 125q275 0 417 -138
q142 -139 103 -366h-301q25 137 -38.5 197.5t-227.5 60.5q-294 0 -322 -166q-12 -78 56 -123q66 -44 294 -88q288 -56 394 -157q106 -103 75 -283q-34 -198 -230 -320q-194 -121 -480 -121z" />
    <glyph glyph-name="sacute" unicode="&#x15b;" horiz-adv-x="1126" 
d="M557 1210l180 344h283l-256 -344h-207zM479 -31q-230 0 -351 100q-122 99 -93 263h278q-16 -88 33 -128t170 -40q205 0 223 110q11 53 -36 85q-48 32 -205 59q-212 33 -298.5 109t-64.5 216q27 154 172 247q144 93 352 93q217 0 330 -101q113 -100 84 -267h-278
q14 90 -27 132t-145 42q-189 0 -211 -115q-10 -57 37 -86q48 -30 208 -55q218 -33 305 -112t62 -218q-26 -151 -175 -242q-152 -92 -370 -92z" />
    <glyph glyph-name="Scircumflex" unicode="&#x15c;" horiz-adv-x="1429" 
d="M1051 1599l-80 279l-180 -279h-238l244 345h368l123 -345h-237zM1401 969h-301q25 137 -38.5 197.5t-227.5 60.5q-294 0 -322 -166q-12 -78 56 -123q66 -44 294 -88q288 -56 394 -157q106 -103 75 -283q-34 -198 -230 -320q-196 -121 -480 -121q-289 0 -440 136
q-152 135 -113 356h301q-23 -129 47.5 -187.5t251.5 -58.5q324 0 354 162q21 65 -41 116q-64 53 -307 99q-283 52 -393 152q-111 98 -80 276q38 204 223 328q187 125 457 125q275 0 417 -138q142 -139 103 -366z" />
    <glyph glyph-name="scircumflex" unicode="&#x15d;" horiz-adv-x="1126" 
d="M803 1210l-80 279l-180 -279h-238l244 344h369l122 -344h-237zM1073 715h-278q14 90 -27 132t-145 42q-189 0 -211 -115q-10 -57 37 -86q48 -30 208 -55q218 -33 305 -112t62 -218q-26 -151 -175 -242q-152 -92 -370 -92q-230 0 -351 100q-122 99 -93 263h278
q-16 -88 33 -128t170 -40q205 0 223 110q11 53 -36 85q-48 32 -205 59q-212 33 -298.5 109t-64.5 216q27 154 172 247q144 93 352 93q217 0 330 -101q113 -100 84 -267z" />
    <glyph glyph-name="Scedilla" unicode="&#x15e;" horiz-adv-x="1429" 
d="M1401 969h-301q25 137 -38.5 197.5t-227.5 60.5q-294 0 -322 -166q-12 -78 56 -123q66 -44 294 -88q288 -56 394 -157q106 -103 75 -283q-33 -179 -198 -298q-166 -118 -414 -139l-39 -79h41q81 0 123.5 -45t27.5 -117q-14 -80 -77 -128q-65 -48 -154 -48h-207l25 135
h151q61 0 68 43q4 23 -7.5 33t-43.5 10h-135l20 112l43 82q-260 17 -392 149q-134 132 -95 341h301q-23 -129 47.5 -187.5t251.5 -58.5q324 0 354 162q21 65 -41 116q-64 53 -307 99q-283 52 -393 152q-111 98 -80 276q38 204 223 328q187 125 457 125q275 0 417 -138
q142 -139 103 -366z" />
    <glyph glyph-name="scedilla" unicode="&#x15f;" horiz-adv-x="1126" 
d="M1073 715h-278q14 90 -27 132t-145 42q-189 0 -211 -115q-10 -57 37 -86q48 -30 208 -55q218 -33 305 -112t62 -218q-20 -135 -146 -224q-128 -90 -313 -106l-39 -79h41q81 0 123.5 -45t28.5 -117q-14 -80 -77.5 -128t-154.5 -48h-206l24 135h152q61 0 67 43
q4 24 -7 33.5t-44 9.5h-135l20 112l45 84q-196 17 -295 113q-100 96 -73 246h278q-16 -88 33 -128t170 -40q205 0 223 110q11 53 -36 85q-48 32 -205 59q-212 33 -298.5 109t-64.5 216q27 154 172 247q144 93 352 93q217 0 330 -101q113 -100 84 -267z" />
    <glyph glyph-name="Scaron" unicode="&#x160;" horiz-adv-x="1429" 
d="M1100 1599h-367l-125 345h240l80 -281l178 281h240zM1401 969h-301q25 137 -38.5 197.5t-227.5 60.5q-294 0 -322 -166q-12 -78 56 -123q66 -44 294 -88q288 -56 394 -157q106 -103 75 -283q-34 -198 -230 -320q-196 -121 -480 -121q-289 0 -440 136q-152 135 -113 356
h301q-23 -129 47.5 -187.5t251.5 -58.5q324 0 354 162q21 65 -41 116q-64 53 -307 99q-283 52 -393 152q-111 98 -80 276q38 204 223 328q187 125 457 125q275 0 417 -138q142 -139 103 -366z" />
    <glyph glyph-name="scaron" unicode="&#x161;" horiz-adv-x="1126" 
d="M850 1210h-367l-125 344h240l80 -280l178 280h240zM659 1083q217 0 330 -101q113 -100 84 -267h-278q14 90 -27 132t-145 42q-189 0 -211 -115q-10 -57 37 -86q48 -30 208 -55q218 -33 305 -112t62 -218q-26 -151 -175 -242q-152 -92 -370 -92q-230 0 -351 100
q-122 99 -93 263h278q-16 -88 33 -128t170 -40q205 0 223 110q11 53 -36 85q-48 32 -205 59q-212 33 -298.5 109t-64.5 216q27 154 171 247t353 93z" />
    <glyph glyph-name="uni0162" unicode="&#x162;" horiz-adv-x="1343" 
d="M938 1190l-209 -1190h-67l-52 -106h41q81 0 123.5 -45t28.5 -117q-14 -80 -77.5 -128t-154.5 -48h-206l24 135h152q61 0 67 43q4 24 -7 33.5t-44 9.5h-135l20 112l60 111h-74l209 1190h-494l45 252h1289l-45 -252h-494z" />
    <glyph glyph-name="uni0163" unicode="&#x163;" horiz-adv-x="909" 
d="M928 834h-379l-82 -469q-14 -88 13 -124t108 -36h231l-35 -205q-110 -19 -239 -20l-41 -86h41q81 0 123.5 -45t27.5 -117q-14 -80 -77 -128q-65 -48 -154 -48h-207l25 135h151q61 0 68 43q4 23 -7.5 33t-43.5 10h-136l21 112l55 103q-121 29 -178 117.5t-35 214.5l88 510
h-205l39 219h207l62 309h274l-55 -309h379z" />
    <glyph glyph-name="Tcaron" unicode="&#x164;" horiz-adv-x="1343" 
d="M1038 1599h-366l-125 345h239l80 -281l178 281h240zM188 1442h1289l-45 -252h-494l-209 -1190h-301l209 1190h-494z" />
    <glyph glyph-name="tcaron" unicode="&#x165;" horiz-adv-x="909" 
d="M809 1477l29 159h276l-35 -196q-19 -118 -115 -186q-97 -68 -237 -68l21 114q163 0 182 121zM369 1362h274l-55 -309h379l-39 -219h-379l-82 -469q-14 -88 13 -124t108 -36h231l-35 -205q-140 -20 -276 -20q-176 0 -266 94t-64 250l88 510h-205l39 219h207z" />
    <glyph glyph-name="Tbar" unicode="&#x166;" horiz-adv-x="1343" 
d="M1477 1442l-45 -252h-494l-64 -367h363l-37 -217h-364l-107 -606h-301l107 606h-367l37 217h368l64 367h-494l45 252h1289z" />
    <glyph glyph-name="tbar" unicode="&#x167;" horiz-adv-x="911" 
d="M967 1053l-39 -219h-379l-35 -197h385l-33 -182h-383l-16 -90q-14 -88 13 -124t108 -36h231l-35 -205q-140 -20 -276 -20q-176 0 -266 94t-64 250l23 131h-201l33 182h200l33 197h-205l39 219h207l62 309h274l-55 -309h379z" />
    <glyph glyph-name="Utilde" unicode="&#x168;" horiz-adv-x="1574" 
d="M1133 1628q-65 0 -148 47t-131 47q-88 0 -106 -90h-148q27 142 99.5 217.5t183.5 75.5q65 0 148 -47q82 -47 130 -47q45 0 72 24t31 66h147q-23 -142 -94 -217.5t-184 -75.5zM160 504l166 938h301l-162 -916q-29 -155 36 -226t234 -71q167 0 255.5 70.5t117.5 226.5
l162 916h301l-164 -938q-44 -243 -240 -388q-198 -147 -478 -147q-281 0 -426 147q-147 146 -103 388z" />
    <glyph glyph-name="utilde" unicode="&#x169;" horiz-adv-x="1316" 
d="M647 1333q-88 0 -106 -90h-148q27 142 99.5 217.5t183.5 75.5q65 0 148 -47q82 -47 130 -47q45 0 72 24t31 66h147q-23 -141 -95 -217t-183 -76q-65 0 -148 47t-131 47zM868 436l109 617h285l-187 -1053h-270l37 213q-160 -244 -432 -244q-167 0 -247 101
q-79 100 -48 276l123 707h282l-104 -596q-26 -137 12 -193q38 -57 152 -57q113 0 187.5 59.5t100.5 169.5z" />
    <glyph glyph-name="Umacron" unicode="&#x16a;" horiz-adv-x="1574" 
d="M735 1888h582l-37 -219h-584zM160 504l166 938h301l-162 -916q-29 -155 36 -226t234 -71q167 0 255.5 70.5t117.5 226.5l162 916h301l-164 -938q-44 -243 -240 -388q-198 -147 -478 -147q-281 0 -426 147q-147 146 -103 388z" />
    <glyph glyph-name="umacron" unicode="&#x16b;" horiz-adv-x="1316" 
d="M528 1499h582l-37 -219h-584zM868 436l109 617h285l-187 -1053h-270l37 213q-160 -244 -432 -244q-167 0 -247 101q-79 100 -48 276l123 707h282l-104 -596q-26 -137 12 -193q38 -57 152 -57q113 0 187.5 59.5t100.5 169.5z" />
    <glyph glyph-name="Ubreve" unicode="&#x16c;" horiz-adv-x="1574" 
d="M1157 1944h197q-32 -169 -132 -260q-102 -93 -247 -93t-216 93t-40 260h196q-16 -92 5.5 -135.5t83.5 -43.5q63 0 100 43t53 136zM160 504l166 938h301l-162 -916q-29 -155 36 -226t234 -71q167 0 255.5 70.5t117.5 226.5l162 916h301l-164 -938q-44 -243 -240 -388
q-198 -147 -478 -147q-281 0 -426 147q-147 146 -103 388z" />
    <glyph glyph-name="ubreve" unicode="&#x16d;" horiz-adv-x="1316" 
d="M1015 1294q-103 -92 -247 -92q-145 0 -216 92q-71 93 -40 260h197q-16 -93 5 -135.5t83 -42.5q125 0 153 178h197q-32 -169 -132 -260zM868 436l109 617h285l-187 -1053h-270l37 213q-160 -244 -432 -244q-167 0 -247 101q-79 100 -48 276l123 707h282l-104 -596
q-26 -137 12 -193q38 -57 152 -57q113 0 187.5 59.5t100.5 169.5z" />
    <glyph glyph-name="Uring" unicode="&#x16e;" horiz-adv-x="1574" 
d="M975 1591q-92 0 -139.5 49.5t-32.5 131.5q12 81 78 131q64 49 157 49q90 0 138.5 -49.5t35.5 -130.5t-80 -131q-68 -50 -157 -50zM926 1772q-14 -72 67 -72t94 72q12 72 -67 72q-81 -2 -94 -72zM160 504l166 938h301l-162 -916q-29 -155 36 -226t234 -71
q167 0 255.5 70.5t117.5 226.5l162 916h301l-164 -938q-44 -243 -240 -388q-198 -147 -478 -147q-281 0 -426 147q-147 146 -103 388z" />
    <glyph glyph-name="uring" unicode="&#x16f;" horiz-adv-x="1316" 
d="M768 1202q-92 0 -139 49t-33 131q12 82 78 132q64 49 157 49q90 0 138.5 -49.5t36.5 -131.5q-13 -81 -81 -131q-67 -49 -157 -49zM719 1382q-6 -36 11 -54t57 -17q79 0 94 71q12 72 -68 72q-81 0 -94 -72zM868 436l109 617h285l-187 -1053h-270l37 213
q-160 -244 -432 -244q-167 0 -247 101q-79 100 -48 276l123 707h282l-104 -596q-26 -137 12 -193q38 -57 152 -57q113 0 187.5 59.5t100.5 169.5z" />
    <glyph glyph-name="Uhungarumlaut" unicode="&#x170;" horiz-adv-x="1574" 
d="M721 1599l164 345h233l-190 -345h-207zM1020 1599l182 345h283l-258 -345h-207zM160 504l166 938h301l-162 -916q-29 -155 36 -226t234 -71q167 0 255.5 70.5t117.5 226.5l162 916h301l-164 -938q-44 -243 -240 -388q-198 -147 -478 -147q-281 0 -426 147
q-147 146 -103 388z" />
    <glyph glyph-name="uhungarumlaut" unicode="&#x171;" horiz-adv-x="1316" 
d="M676 1554h233l-190 -344h-207zM1276 1554l-258 -344h-207l182 344h283zM868 436l109 617h285l-187 -1053h-270l37 213q-160 -244 -432 -244q-167 0 -247 101q-79 100 -48 276l123 707h282l-104 -596q-26 -137 12 -193q38 -57 152 -57q113 0 187 59t101 170z" />
    <glyph glyph-name="Uogonek" unicode="&#x172;" horiz-adv-x="1574" 
d="M1108 526l162 916h301l-164 -938q-33 -186 -163 -319q-132 -135 -324 -187l-158 -160q-42 -44 -47 -74q-3 -22 10.5 -32.5t44.5 -10.5h119l-31 -165h-242q-77 0 -115 37.5t-28 101.5q13 76 92 147l140 127h-17q-280 0 -426 147q-146 146 -102 388l166 938h301l-162 -916
q-29 -155 36 -226t234 -71q167 0 255.5 70.5t117.5 226.5z" />
    <glyph glyph-name="uogonek" unicode="&#x173;" horiz-adv-x="1316" 
d="M1075 0l-160 -162q-42 -44 -47 -74q-6 -43 56 -43h118l-30 -165h-242q-78 0 -116 37.5t-27 101.5q17 78 92 147l172 158h-86l37 213q-160 -244 -432 -244q-167 0 -247 101q-79 100 -48 276l123 707h282l-104 -596q-26 -137 12 -193q38 -57 152 -57q113 0 187.5 59.5
t100.5 169.5l109 617h285z" />
    <glyph glyph-name="Wcircumflex" unicode="&#x174;" horiz-adv-x="2365" 
d="M1509 1599l-79 279l-181 -279h-237l243 345h369l123 -345h-238zM1733 403l428 1039h327l-616 -1442h-502l-41 973l-2 332l-117 -334l-385 -971h-506l-108 1442h332l65 -1039l6 -282l99 282l401 1039h475l39 -1039l-2 -282z" />
    <glyph glyph-name="wcircumflex" unicode="&#x175;" horiz-adv-x="1843" 
d="M1190 1210l-80 279l-180 -279h-238l244 344h369l122 -344h-237zM1346 352l286 701h283l-453 -1053h-434l-29 672l2 237l-79 -237l-267 -672h-446l-82 1053h299l43 -701l-2 -254l82 254l270 701h424l25 -701l-6 -243z" />
    <glyph glyph-name="Ycircumflex" unicode="&#x176;" horiz-adv-x="1380" 
d="M1026 1599l-80 279l-180 -279h-238l244 345h369l123 -345h-238zM1239 1442h307l-717 -1018l-75 -424h-301l75 426l-360 1016h326l176 -506l65 -252l154 252z" />
    <glyph glyph-name="ycircumflex" unicode="&#x177;" horiz-adv-x="1175" 
d="M821 1210l-80 279l-180 -279h-237l243 344h369l123 -344h-238zM621 352l344 701h286l-592 -1194q-57 -123 -171 -195q-116 -72 -250 -72q-128 0 -234 21l35 205h184q141 0 189 96l41 86h-197l-147 1053h294l97 -701l18 -237z" />
    <glyph glyph-name="Ydieresis" unicode="&#x178;" horiz-adv-x="1380" 
d="M623 1911h270l-47 -271h-271zM1001 1911h271l-47 -271h-273zM1239 1442h307l-717 -1018l-75 -424h-301l75 426l-360 1016h326l176 -506l65 -252l154 252z" />
    <glyph glyph-name="Zacute" unicode="&#x179;" horiz-adv-x="1316" 
d="M752 1599l180 345h282l-256 -345h-206zM1151 0h-1157l82 473l1175 723l-295 -6h-747l45 252h1145l-82 -469l-1186 -727l301 6h764z" />
    <glyph glyph-name="zacute" unicode="&#x17a;" horiz-adv-x="1048" 
d="M539 1210l180 344h282l-256 -344h-206zM879 0h-877l72 403l815 431l-264 -7h-467l41 226h856l-74 -410l-803 -424l252 6h488z" />
    <glyph glyph-name="Zdotaccent" unicode="&#x17b;" horiz-adv-x="1316" 
d="M721 1640l47 271h303l-47 -271h-303zM1151 0h-1157l82 473l1175 723l-295 -6h-747l45 252h1145l-82 -469l-1186 -727l301 6h764z" />
    <glyph glyph-name="zdotaccent" unicode="&#x17c;" horiz-adv-x="1048" 
d="M508 1251l47 271h303l-47 -271h-303zM879 0h-877l72 403l815 431l-264 -7h-467l41 226h856l-74 -410l-803 -424l252 6h488z" />
    <glyph glyph-name="Zcaron" unicode="&#x17d;" horiz-adv-x="1316" 
d="M1044 1599h-366l-125 345h240l79 -281l179 281h239zM254 1442h1145l-82 -469l-1186 -727l301 6h764l-45 -252h-1157l82 473l1175 723l-295 -6h-747z" />
    <glyph glyph-name="zcaron" unicode="&#x17e;" horiz-adv-x="1048" 
d="M831 1210h-366l-125 344h240l79 -280l179 280h239zM625 827h-467l41 226h856l-74 -410l-803 -424l252 6h488l-39 -225h-877l72 403l815 431z" />
    <glyph glyph-name="uni018F" unicode="&#x18f;" horiz-adv-x="1570" 
d="M926 1473q322 0 482 -207q159 -207 99 -545q-57 -338 -290 -545q-234 -207 -558 -207q-287 0 -444 163q-158 164 -106 446l34 196h1063q33 228 -45 332t-280 104q-184 0 -281.5 -69.5t-124.5 -220.5h-301q32 174 146 300q114 128 272 191q159 62 334 62zM705 227
q178 0 288.5 81t167.5 255h-753q-29 -176 42 -256t255 -80z" />
    <glyph glyph-name="florin" unicode="&#x192;" horiz-adv-x="999" 
d="M1034 1350h-235q-80 0 -120 -36.5t-54 -123.5l-25 -137h371l-39 -219h-371l-217 -1233h-283l218 1233h-203l37 219h204l29 166q28 160 155 258t300 98q144 0 270 -19z" />
    <glyph glyph-name="uni019D" unicode="&#x19d;" horiz-adv-x="1658" 
d="M1184 586l149 856h299l-252 -1442h-520l-287 1321l-61 -430l-158 -891l-8 -53q-27 -161 -147 -258q-121 -97 -291 -97q-90 0 -164 21l37 205h115q72 0 107.5 41t51.5 141l254 1442h525l282 -1299z" />
    <glyph glyph-name="Gcaron" unicode="&#x1e6;" horiz-adv-x="1617" 
d="M1202 1599h-366l-125 345h239l80 -281l178 281h240zM1556 928h-301q27 150 -46 216t-263 66q-220 0 -339 -115q-120 -115 -165 -374t33 -378q78 -118 297 -118q193 0 295 81t137 257h-446l37 213h745l-137 -776h-260l61 350q-156 -381 -547 -381q-295 0 -439 203t-87 541
q62 344 298 552t562 208q297 0 453 -150q155 -152 112 -395z" />
    <glyph glyph-name="gcaron" unicode="&#x1e7;" horiz-adv-x="1153" 
d="M879 1210h-367l-125 344h240l80 -280l178 280h239zM1290 1245l-37 -217q-185 0 -223 -63q92 -96 66 -246q-28 -162 -179 -264q-151 -103 -370 -103q-134 0 -234 41q-30 -32 -41 -78q-8 -47 19 -66.5t102 -19.5h357q165 0 253 -80q88 -81 62 -212q-29 -157 -198 -251
t-427 -94q-254 0 -392 75t-118 198q10 60 61 104.5t130 61.5q-102 66 -82 180q27 142 197 225q-139 102 -109 283q31 166 180 265t369 99q152 0 260 -51q33 110 117 161.5t237 51.5zM809 719q16 88 -24 127t-144 39q-105 0 -158 -39t-69 -127q-16 -92 22.5 -131t145.5 -39
q104 0 157.5 40t69.5 130zM664 2h-441q-26 -38 -33 -86q-13 -82 43 -110q55 -27 240 -27q181 0 245 24q64 25 79 101q10 55 -19.5 76.5t-113.5 21.5z" />
    <glyph glyph-name="uni01EA" unicode="&#x1ea;" horiz-adv-x="1658" 
d="M432 1266q239 207 566 207t492 -207t105 -545q-47 -273 -216 -463q-170 -192 -412 -258l-160 -162q-42 -44 -47 -74q-3 -22 10.5 -32.5t44.5 -10.5h119l-31 -165h-241q-77 0 -115.5 37.5t-28.5 101.5q13 76 92 147l140 127h-17q-331 0 -494 207q-165 207 -105 545
q58 337 298 545zM1286 721q45 258 -33 374q-79 115 -300 115q-223 0 -344 -115q-122 -116 -167 -374q-45 -257 35 -375q79 -117 301 -117q221 0 341 117q121 118 167 375z" />
    <glyph glyph-name="uni01EB" unicode="&#x1eb;" horiz-adv-x="1294" 
d="M745 1083q251 0 375 -153q125 -155 80 -404q-34 -198 -158 -340q-125 -141 -307 -192l-153 -156q-42 -44 -47 -74q-3 -22 10.5 -32.5t44.5 -10.5h119l-31 -165h-242q-77 0 -115 37.5t-28 101.5q13 76 92 147l139 127q-238 10 -355 162q-119 152 -75 395q45 249 224 404
q178 153 427 153zM801 270q75 78 107 256q30 176 -18 256t-183 80q-137 0 -212 -79.5t-108 -256.5q-31 -176 17.5 -256t183.5 -80q136 0 213 80z" />
    <glyph glyph-name="Aringacute" unicode="&#x1fa;" horiz-adv-x="1515" 
d="M958 1591q-92 0 -139 49.5t-35 131.5q13 81 80 131q65 49 158 49q13 0 25 -2l92 178h217l-193 -227q45 -51 31 -129q-13 -81 -80 -131t-156 -50zM909 1772q-12 -72 68 -72q81 0 94 72q12 72 -68 72q-81 0 -94 -72zM1405 0h-313l-56 383h-598l-190 -383h-301l717 1442h530
zM766 1038l-209 -417h444l-59 417l-37 308z" />
    <glyph glyph-name="aringacute" unicode="&#x1fb;" horiz-adv-x="1208" 
d="M698 1202q-92 0 -139 49t-33 131q12 82 78 132q65 49 158 49q14 0 24 -2l93 178h217l-193 -228q45 -51 33 -129q-13 -81 -81 -131q-67 -49 -157 -49zM649 1382q-6 -36 11 -54t57 -17q82 0 94 72q12 71 -68 71q-81 0 -94 -72zM1112 199h2l-33 -199q-88 -20 -163 -20
q-115 0 -162 54t-31 173q-64 -111 -174.5 -174.5t-247.5 -63.5q-143 0 -217 72t-51 188q18 112 103 181.5t249 99.5q313 57 395 86l4 20q23 133 -10.5 192.5t-132.5 59.5q-100 0 -153.5 -55t-75.5 -178h-275q38 204 188 326q151 122 359 122q212 0 316 -114
q102 -116 65 -316l-59 -329q-13 -82 3 -103q16 -22 101 -22zM444 170q124 0 204.5 63t103.5 187l8 41q-50 -13 -264 -66q-90 -19 -125 -46q-33 -27 -45 -79q-8 -49 21 -74.5t97 -25.5z" />
    <glyph glyph-name="AEacute" unicode="&#x1fc;" horiz-adv-x="2041" 
d="M1405 1944h283l-256 -345h-207zM2101 1442l-45 -252h-825l51 -344h678l-41 -236h-604l53 -358h535l-43 -252h-768l-56 383h-598l-190 -383h-301l717 1442h1437zM766 1038l-209 -417h444l-59 417l-37 308z" />
    <glyph glyph-name="aeacute" unicode="&#x1fd;" horiz-adv-x="1925" 
d="M1159 1554h283l-256 -344h-207zM1421 1083q228 0 347 -134q118 -133 79 -353l-22 -131h-762q-16 -145 33 -212t174 -67q221 0 248 152l278 2q-28 -166 -186 -268q-157 -103 -385 -103q-164 0 -273.5 74t-146.5 209q-58 -124 -184 -204q-124 -79 -289 -79q-158 0 -239 72
t-58 188q18 110 106 179t258 102q312 56 396 86l4 20q23 133 -11 192.5t-133 59.5t-152.5 -54.5t-76.5 -178.5h-274q34 200 185 325q150 123 361 123q231 0 318 -153q170 153 405 153zM1094 625l221 4h254q14 125 -29.5 181t-156.5 56t-182.5 -58t-106.5 -183zM457 170
q124 0 204 63t103 187l8 41q-88 -27 -264 -66q-100 -22 -136 -48q-36 -25 -46 -77q-8 -49 24.5 -74.5t106.5 -25.5z" />
    <glyph glyph-name="Oslashacute" unicode="&#x1fe;" horiz-adv-x="1658" 
d="M1042 1944h283l-256 -345h-207zM1386 1554h291l-213 -258q195 -212 131 -575q-57 -338 -294 -545q-239 -207 -568 -207q-178 0 -313 66l-137 -166h-291l250 303q-170 210 -109 549q58 337 298 545q239 207 566 207q149 0 281 -50zM442 721q-35 -197 2 -305l646 780
q-58 14 -138 14q-222 0 -343 -115q-122 -116 -167 -374zM1286 721q41 226 -16 342l-668 -809q69 -25 176 -25q221 0 341 117q121 118 167 375z" />
    <glyph glyph-name="oslashacute" unicode="&#x1ff;" horiz-adv-x="1294" 
d="M827 1554h283l-256 -344h-207zM1124 1188h228l-234 -258q127 -154 82 -404q-45 -249 -224 -403q-178 -154 -427 -154q-143 0 -250 54l-149 -166h-226l246 272q-119 153 -76 397q45 249 225 404q179 153 426 153q141 0 240 -49zM387 526q-16 -88 -10 -168l438 486
q-43 18 -108 18q-137 0 -212 -79.5t-108 -256.5zM907 526q18 114 8 179l-444 -494q43 -19 117 -21q137 0 212.5 80t106.5 256z" />
    <glyph glyph-name="uni0218" unicode="&#x218;" horiz-adv-x="1429" 
d="M621 -31q-289 0 -440 136q-152 135 -113 356h301q-23 -129 47.5 -187.5t251.5 -58.5q324 0 354 162q21 65 -41 116q-64 53 -307 99q-283 52 -393 152q-111 98 -80 276q38 204 223 328q187 125 457 125q275 0 417 -138q142 -139 103 -366h-301q25 137 -38.5 197.5
t-227.5 60.5q-294 0 -322 -166q-12 -78 56 -123q66 -44 294 -88q288 -56 394 -157q106 -103 75 -283q-34 -198 -230 -320q-194 -121 -480 -121zM455 -313l28 159h277l-35 -196q-20 -119 -115 -187q-95 -67 -237 -67l20 115q162 0 182 122z" />
    <glyph glyph-name="uni0219" unicode="&#x219;" horiz-adv-x="1126" 
d="M479 -31q-230 0 -351 100q-122 99 -93 263h278q-16 -88 33 -128t170 -40q205 0 223 110q11 53 -36 85q-48 32 -205 59q-212 33 -298.5 109t-64.5 216q27 154 172 247q144 93 352 93q217 0 330 -101q113 -100 84 -267h-278q14 90 -27 132t-145 42q-189 0 -211 -115
q-10 -57 37 -86q48 -30 208 -55q218 -33 305 -112t62 -218q-26 -151 -175 -242q-152 -92 -370 -92zM299 -313l29 159h276l-35 -196q-20 -119 -115 -187q-95 -67 -237 -67l21 115q162 0 182 122z" />
    <glyph glyph-name="uni021A" unicode="&#x21a;" horiz-adv-x="1343" 
d="M188 1442h1289l-45 -252h-494l-209 -1190h-301l209 1190h-494zM506 -367l-121 54l29 159h276l-35 -196q-20 -119 -115 -187q-95 -67 -237 -67l21 115q162 0 182 122z" />
    <glyph glyph-name="uni021B" unicode="&#x21b;" horiz-adv-x="909" 
d="M928 834h-379l-82 -469q-14 -88 13 -124t108 -36h231l-35 -205q-140 -20 -276 -20q-176 0 -266 94t-64 250l88 510h-205l39 219h207l62 309h274l-55 -309h379zM395 -367l-121 54l29 159h277l-35 -196q-20 -119 -115 -187q-95 -67 -237 -67l20 115q162 0 182 122z" />
    <glyph glyph-name="uni0232" unicode="&#x232;" horiz-adv-x="1380" 
d="M653 1888h582l-37 -219h-584zM1239 1442h307l-717 -1018l-75 -424h-301l75 426l-360 1016h326l176 -506l65 -252l154 252z" />
    <glyph glyph-name="uni0233" unicode="&#x233;" horiz-adv-x="1175" 
d="M449 1499h581l-37 -219h-583zM621 352l344 701h286l-592 -1194q-57 -123 -171 -195q-116 -72 -250 -72q-128 0 -234 21l35 205h184q141 0 189 96l41 86h-197l-147 1053h294l97 -701l18 -237z" />
    <glyph glyph-name="uni0237" unicode="&#x237;" horiz-adv-x="575" 
d="M53 -18l189 1071h282l-192 -1098q-28 -163 -147 -264q-119 -99 -285 -99q-86 0 -156 21l37 205h115q72 0 107.5 36.5t49.5 127.5z" />
    <glyph glyph-name="uni0259" unicode="&#x259;" horiz-adv-x="1243" 
d="M707 1083q244 0 367 -149q122 -151 77 -395q-45 -255 -221 -413q-175 -157 -422 -157q-231 0 -348 135q-117 134 -78 353l20 116h762q20 154 -28 223.5t-174 69.5q-221 0 -248 -168h-279q31 173 189 280q158 105 383 105zM393 240q45 -54 154 -54t176 55q69 55 106 173
l-217 -4h-254q-10 -117 35 -170z" />
    <glyph glyph-name="uni0272" unicode="&#x272;" 
d="M911 1083q174 0 256 -100t52 -276l-123 -707h-283l105 596q26 140 -12 195q-37 55 -154 55q-119 0 -199 -63.5t-107 -180.5l-116 -659q-28 -163 -148 -264q-118 -99 -284 -99q-88 0 -154 21l35 204h115q72 0 107.5 37t49.5 129l191 1082h272l-39 -228q167 258 436 258z
" />
    <glyph glyph-name="circumflex" unicode="&#x2c6;" horiz-adv-x="862" 
d="M797 1554l123 -344h-238l-80 279l-180 -279h-238l244 344h369z" />
    <glyph glyph-name="caron" unicode="&#x2c7;" horiz-adv-x="862" 
d="M563 1274l178 280h240l-246 -344h-366l-125 344h239z" />
    <glyph glyph-name="breve" unicode="&#x2d8;" horiz-adv-x="761" 
d="M682 1554h197q-32 -169 -132 -260q-103 -92 -247 -92q-145 0 -216 92q-71 93 -40 260h196q-16 -92 5.5 -135t82.5 -43q63 0 100.5 43t53.5 135z" />
    <glyph glyph-name="dotaccent" unicode="&#x2d9;" horiz-adv-x="430" 
d="M193 1251l47 271h303l-47 -271h-303z" />
    <glyph glyph-name="ring" unicode="&#x2da;" horiz-adv-x="536" 
d="M387 1202q-92 0 -139 49t-33 131q12 82 78 132q64 49 158 49q90 0 138 -49.5t36 -131.5q-13 -81 -81 -131q-67 -49 -157 -49zM338 1382q-12 -71 68 -71q79 0 94 71q12 72 -68 72t-94 -72z" />
    <glyph glyph-name="ogonek" unicode="&#x2db;" horiz-adv-x="536" 
d="M332 -279l-31 -165h-242q-77 0 -115 37.5t-28 101.5q13 76 92 147l172 158h185l-160 -162q-42 -44 -47 -74q-3 -22 10.5 -32.5t44.5 -10.5h119z" />
    <glyph glyph-name="tilde" unicode="&#x2dc;" horiz-adv-x="884" 
d="M721 1239q-65 0 -147 47q-83 47 -132 47q-88 0 -106 -90h-148q27 142 99.5 217.5t183.5 75.5q65 0 148 -47q82 -47 131 -47q45 0 71.5 24t30.5 66h147q-23 -142 -94 -217.5t-184 -75.5z" />
    <glyph glyph-name="hungarumlaut" unicode="&#x2dd;" horiz-adv-x="829" 
d="M184 1210l164 344h234l-191 -344h-207zM483 1210l183 344h282l-258 -344h-207z" />
    <glyph glyph-name="gravecomb" unicode="&#x300;" horiz-adv-x="0" 
d="M-287 1554h283l61 -344h-207z" />
    <glyph glyph-name="acutecomb" unicode="&#x301;" horiz-adv-x="0" 
d="M-346 1210l180 344h283l-256 -344h-207z" />
    <glyph glyph-name="uni0302" unicode="&#x302;" horiz-adv-x="0" 
d="M-66 1554l123 -344h-237l-80 279l-180 -279h-238l244 344h368z" />
    <glyph glyph-name="tildecomb" unicode="&#x303;" horiz-adv-x="0" 
d="M-164 1239q-65 0 -148 47q-82 47 -130 47q-88 0 -107 -90h-147q27 141 99.5 217t182.5 76q65 0 148 -47t131 -47q45 0 71.5 24t30.5 66h148q-23 -142 -94.5 -217.5t-184.5 -75.5z" />
    <glyph glyph-name="uni0304" unicode="&#x304;" horiz-adv-x="0" 
d="M-475 1499h581l-36 -219h-584z" />
    <glyph glyph-name="uni0306" unicode="&#x306;" horiz-adv-x="0" 
d="M-80 1554h197q-32 -169 -133 -260q-101 -92 -247 -92q-145 0 -216 92t-39 260h196q-16 -92 5.5 -135t83.5 -43q63 0 100 43t53 135z" />
    <glyph glyph-name="uni0307" unicode="&#x307;" horiz-adv-x="0" 
d="M-238 1251l48 271h303l-47 -271h-304z" />
    <glyph glyph-name="uni0308" unicode="&#x308;" horiz-adv-x="0" 
d="M-584 1251l47 271h271l-47 -271h-271zM-207 1251l49 271h271l-47 -271h-273z" />
    <glyph glyph-name="uni030A" unicode="&#x30a;" horiz-adv-x="0" 
d="M-150 1202q-92 0 -139 49t-33 131q12 82 78 132q65 49 158 49q90 0 138 -49.5t36 -131.5q-13 -81 -81 -131q-67 -49 -157 -49zM-199 1382q-12 -71 68 -71t94 71q12 72 -68 72q-79 0 -94 -72z" />
    <glyph glyph-name="uni030B" unicode="&#x30b;" horiz-adv-x="0" 
d="M-645 1210l164 344h233l-190 -344h-207zM-346 1210l182 344h283l-258 -344h-207z" />
    <glyph glyph-name="uni030C" unicode="&#x30c;" horiz-adv-x="0" 
d="M-299 1274l178 280h240l-246 -344h-367l-124 344h239z" />
    <glyph glyph-name="uni0312" unicode="&#x312;" horiz-adv-x="0" 
d="M53 1370l-26 -160h-285l35 197q19 117 116 183q98 65 242 65l-20 -115q-170 0 -191 -117z" />
    <glyph glyph-name="dotbelowcomb" unicode="&#x323;" horiz-adv-x="0" 
d="M-532 -418l47 264h303l-47 -264h-303z" />
    <glyph glyph-name="uni0326" unicode="&#x326;" horiz-adv-x="0" 
d="M-489 -313l28 159h277l-35 -196q-20 -119 -116 -187q-94 -67 -236 -67l20 115q162 0 182 122z" />
    <glyph glyph-name="uni0327" unicode="&#x327;" horiz-adv-x="0" 
d="M-397 -106h41q81 0 123.5 -45t27.5 -117q-14 -80 -78 -128q-63 -48 -153 -48h-207l25 135h151q61 0 68 43q4 23 -7.5 33t-44.5 10h-135l21 112l59 111h160z" />
    <glyph glyph-name="uni0328" unicode="&#x328;" horiz-adv-x="0" 
d="M-205 -279l-31 -165h-241q-77 0 -115.5 37.5t-28.5 101.5q13 77 93 147l172 158h184l-160 -162q-42 -44 -47 -74q-3 -22 10.5 -32.5t44.5 -10.5h119z" />
    <glyph glyph-name="uni0394" unicode="&#x394;" horiz-adv-x="1366" 
d="M590 1442h528l180 -1204l-43 -238h-1308l41 238zM831 1343l-141 -305l-399 -800h694l-117 800z" />
    <glyph glyph-name="uni03A9" unicode="&#x3a9;" horiz-adv-x="1648" 
d="M616 0h-602l41 236h187l321 -21q-231 35 -342 195q-112 158 -71 395q52 300 285 485q231 183 556 183t491 -183q167 -185 113 -485q-40 -235 -208 -395t-410 -195l326 21h186l-41 -236h-602l67 377q304 52 369 397q39 229 -41 333q-79 103 -297 103t-333 -103
q-117 -103 -156 -333q-63 -341 227 -397z" />
    <glyph glyph-name="uni03BC" unicode="&#x3bc;" horiz-adv-x="1314" 
d="M868 436l109 617h285l-187 -1053h-272l37 213q-156 -238 -418 -238q-58 0 -103 13l-65 -375h-270l174 987l80 453h282l-104 -596q-26 -137 12 -193q38 -57 152 -57q113 0 187.5 59.5t100.5 169.5z" />
    <glyph glyph-name="pi" unicode="&#x3c0;" horiz-adv-x="1433" 
d="M1458 834h-205l-86 -484q-12 -70 6.5 -98.5t75.5 -28.5h105l-37 -205q-72 -20 -152 -20q-157 0 -233 90q-78 90 -51 236l90 510h-400l-147 -834h-283l148 834h-207l37 219h1378z" />
    <glyph glyph-name="Wgrave" unicode="&#x1e80;" horiz-adv-x="2365" 
d="M1421 1944l62 -345h-207l-137 345h282zM1733 403l428 1039h327l-616 -1442h-502l-41 973l-2 332l-117 -334l-385 -971h-506l-108 1442h332l65 -1039l6 -282l99 282l401 1039h475l39 -1039l-2 -282z" />
    <glyph glyph-name="wgrave" unicode="&#x1e81;" horiz-adv-x="1843" 
d="M1104 1554l61 -344h-207l-137 344h283zM1346 352l286 701h283l-453 -1053h-434l-29 672l2 237l-79 -237l-267 -672h-446l-82 1053h299l43 -701l-2 -254l82 254l270 701h424l25 -701l-6 -243z" />
    <glyph glyph-name="Wacute" unicode="&#x1e82;" horiz-adv-x="2365" 
d="M1446 1944h283l-256 -345h-207zM1733 403l428 1039h327l-616 -1442h-502l-41 973l-2 332l-117 -334l-385 -971h-506l-108 1442h332l65 -1039l6 -282l99 282l401 1039h475l39 -1039l-2 -282z" />
    <glyph glyph-name="wacute" unicode="&#x1e83;" horiz-adv-x="1843" 
d="M1124 1554h283l-256 -344h-207zM1346 352l286 701h283l-453 -1053h-434l-29 672l2 237l-79 -237l-267 -672h-446l-82 1053h299l43 -701l-2 -254l82 254l270 701h424l25 -701l-6 -243z" />
    <glyph glyph-name="Wdieresis" unicode="&#x1e84;" horiz-adv-x="2365" 
d="M1108 1911h270l-47 -271h-270zM1487 1911h270l-47 -271h-272zM1733 403l428 1039h327l-616 -1442h-502l-41 973l-2 332l-117 -334l-385 -971h-506l-108 1442h332l65 -1039l6 -282l99 282l401 1039h475l39 -1039l-2 -282z" />
    <glyph glyph-name="wdieresis" unicode="&#x1e85;" horiz-adv-x="1843" 
d="M786 1522h271l-47 -271h-271zM1165 1522h271l-47 -271h-273zM1346 352l286 701h283l-453 -1053h-434l-29 672l2 237l-79 -237l-267 -672h-446l-82 1053h299l43 -701l-2 -254l82 254l270 701h424l25 -701l-6 -243z" />
    <glyph glyph-name="uni1EA0" unicode="&#x1ea0;" horiz-adv-x="1515" 
d="M1194 1442l211 -1442h-313l-56 383h-598l-190 -383h-301l717 1442h530zM766 1038l-209 -417h444l-59 417l-37 308zM756 -418h-303l47 264h303z" />
    <glyph glyph-name="uni1EA1" unicode="&#x1ea1;" horiz-adv-x="1208" 
d="M1112 199h2l-33 -199q-88 -20 -163 -20q-115 0 -162 54t-31 173q-64 -111 -174.5 -174.5t-247.5 -63.5q-143 0 -217 72t-51 188q18 112 103 181.5t249 99.5q313 57 395 86l4 20q23 133 -10.5 192.5t-132.5 59.5q-100 0 -153.5 -55t-75.5 -178h-275q38 204 188 326
q151 122 359 122q212 0 316 -114q102 -116 65 -316l-59 -329q-13 -82 3 -103q16 -22 101 -22zM444 170q124 0 204.5 63t103.5 187l8 41q-50 -13 -264 -66q-90 -19 -125 -46q-33 -27 -45 -79q-8 -49 21 -74.5t97 -25.5zM610 -418h-303l47 264h303z" />
    <glyph glyph-name="uni1EB8" unicode="&#x1eb8;" horiz-adv-x="1302" 
d="M1364 1442l-45 -252h-715l-59 -344h678l-43 -236h-678l-62 -358h725l-45 -252h-1026l252 1442h1018zM694 -418h-303l47 264h303z" />
    <glyph glyph-name="uni1EB9" unicode="&#x1eb9;" horiz-adv-x="1241" 
d="M737 1083q228 0 347 -134q118 -133 79 -353l-22 -131h-762q-16 -145 33 -212t174 -67q223 0 248 154h278q-28 -166 -186 -268q-157 -103 -385 -103q-246 0 -369 154q-123 153 -78 403q45 249 221 404q175 153 422 153zM410 625l221 4h254q14 125 -29.5 181t-156.5 56
t-182.5 -58t-106.5 -183zM621 -418h-304l48 264h303z" />
    <glyph glyph-name="uni1EBC" unicode="&#x1ebc;" horiz-adv-x="1302" 
d="M758 1722q-88 0 -107 -90h-147q27 141 99.5 217t182.5 76q65 0 148 -47t131 -47q45 0 71.5 24t30.5 66h148q-23 -142 -94.5 -217.5t-184.5 -75.5q-65 0 -147 47q-83 47 -131 47zM1364 1442l-45 -252h-715l-59 -344h678l-43 -236h-678l-62 -358h725l-45 -252h-1026
l252 1442h1018z" />
    <glyph glyph-name="uni1EBD" unicode="&#x1ebd;" horiz-adv-x="1241" 
d="M635 1333q-87 0 -107 -90h-147q27 142 99.5 217.5t183.5 75.5q65 0 148 -47q82 -47 130 -47q45 0 71.5 24t30.5 66h148q-23 -142 -94.5 -217.5t-184.5 -75.5q-65 0 -147 47q-83 47 -131 47zM737 1083q228 0 347 -134q118 -133 79 -353l-22 -131h-762q-16 -145 33 -212
t174 -67q223 0 248 154h278q-28 -166 -186 -268q-157 -103 -385 -103q-246 0 -369 154q-123 153 -78 403q45 249 221 404q175 153 422 153zM410 625l221 4h254q14 125 -29.5 181t-156.5 56t-182.5 -58t-106.5 -183z" />
    <glyph glyph-name="uni1ECA" unicode="&#x1eca;" horiz-adv-x="673" 
d="M94 0l252 1442h303l-254 -1442h-301zM18 -418l48 264h303l-47 -264h-304z" />
    <glyph glyph-name="uni1ECB" unicode="&#x1ecb;" horiz-adv-x="589" 
d="M272 1251l47 271h304l-48 -271h-303zM61 0l185 1053h284l-186 -1053h-283zM-27 -418l47 264h304l-48 -264h-303z" />
    <glyph glyph-name="uni1ECC" unicode="&#x1ecc;" horiz-adv-x="1658" 
d="M1301 176q-239 -207 -568 -207q-331 0 -494 207q-165 207 -105 545q58 337 298 545q239 207 566 207t492 -207t105 -545q-57 -338 -294 -545zM477 346q79 -117 301 -117q221 0 341 117q121 118 167 375q45 258 -33 374q-79 115 -300 115q-223 0 -344 -115
q-122 -116 -167 -374q-45 -257 35 -375zM514 -418l47 264h303l-47 -264h-303z" />
    <glyph glyph-name="uni1ECD" unicode="&#x1ecd;" horiz-adv-x="1294" 
d="M549 -31q-251 0 -375 154q-125 153 -80 403q45 249 225 404q179 153 426 153q251 0 375 -153q125 -155 80 -404t-224 -403q-178 -154 -427 -154zM588 190q137 0 213 80t107 256q30 176 -18 256t-183 80q-137 0 -212 -79.5t-108 -256.5q-31 -176 17.5 -256t183.5 -80z
M330 -418l47 264h303l-47 -264h-303z" />
    <glyph glyph-name="uni1EE4" unicode="&#x1ee4;" horiz-adv-x="1574" 
d="M160 504l166 938h301l-162 -916q-29 -155 36 -226t234 -71q167 0 255.5 70.5t117.5 226.5l162 916h301l-164 -938q-44 -243 -240 -388q-198 -147 -478 -147q-281 0 -426 147q-147 146 -103 388zM469 -418l47 264h303l-47 -264h-303z" />
    <glyph glyph-name="uni1EE5" unicode="&#x1ee5;" horiz-adv-x="1316" 
d="M868 436l109 617h285l-187 -1053h-270l37 213q-160 -244 -432 -244q-167 0 -247 101q-79 100 -48 276l123 707h282l-104 -596q-26 -137 12 -193q38 -57 152 -57q113 0 187.5 59.5t100.5 169.5zM637 -418h-303l47 264h303z" />
    <glyph glyph-name="Ygrave" unicode="&#x1ef2;" horiz-adv-x="1380" 
d="M938 1944l61 -345h-206l-138 345h283zM1239 1442h307l-717 -1018l-75 -424h-301l75 426l-360 1016h326l176 -506l65 -252l154 252z" />
    <glyph glyph-name="ygrave" unicode="&#x1ef3;" horiz-adv-x="1175" 
d="M735 1554l62 -344h-207l-137 344h282zM621 352l344 701h286l-592 -1194q-57 -123 -171 -195q-116 -72 -250 -72q-128 0 -234 21l35 205h184q141 0 189 96l41 86h-197l-147 1053h294l97 -701l18 -237z" />
    <glyph glyph-name="uni1EF8" unicode="&#x1ef8;" horiz-adv-x="1380" 
d="M770 1722q-88 0 -106 -90h-148q27 142 99.5 217.5t183.5 75.5q65 0 148 -47q82 -47 130 -47q45 0 72 24t31 66h147q-23 -141 -95 -217t-183 -76q-65 0 -148 47t-131 47zM1239 1442h307l-717 -1018l-75 -424h-301l75 426l-360 1016h326l176 -506l65 -252l154 252z" />
    <glyph glyph-name="uni1EF9" unicode="&#x1ef9;" horiz-adv-x="1175" 
d="M565 1333q-88 0 -106 -90h-148q27 142 99.5 217.5t183.5 75.5q65 0 148 -47q82 -47 130 -47q45 0 72 24t31 66h147q-23 -141 -95 -217t-183 -76q-65 0 -148 47t-131 47zM621 352l344 701h286l-592 -1194q-57 -123 -171 -195q-116 -72 -250 -72q-128 0 -234 21l35 205h184
q141 0 189 96l41 86h-197l-147 1053h294l97 -701l18 -237z" />
    <glyph glyph-name="endash" unicode="&#x2013;" horiz-adv-x="1161" 
d="M109 633h1009l-39 -221h-1009z" />
    <glyph glyph-name="emdash" unicode="&#x2014;" horiz-adv-x="1724" 
d="M109 633h1572l-39 -221h-1572z" />
    <glyph glyph-name="quoteleft" unicode="&#x2018;" horiz-adv-x="503" 
d="M500 1122l-35 -196h-301l45 252q25 141 127.5 218t267.5 77l-22 -127q-102 0 -154.5 -36t-67.5 -116z" />
    <glyph glyph-name="quoteright" unicode="&#x2019;" horiz-adv-x="505" 
d="M236 1247l34 195h301l-45 -252q-23 -139 -126 -217t-267 -78l23 129q100 0 153 36t68 116z" />
    <glyph glyph-name="quotesinglbase" unicode="&#x201a;" horiz-adv-x="548" 
d="M41 61l45 256h326l-56 -317q-32 -168 -144 -261q-114 -93 -286 -93l25 135q108 0 165.5 47t76.5 149z" />
    <glyph glyph-name="quotedblleft" unicode="&#x201c;" horiz-adv-x="919" 
d="M915 1122l-34 -196h-301l45 252q23 139 126 217t267 78l-23 -127q-100 0 -153.5 -36t-67.5 -116zM500 1114l-33 -188h-301l41 237q25 139 127 216t266 77l-22 -129q-100 0 -152.5 -34t-67.5 -109z" />
    <glyph glyph-name="quotedblright" unicode="&#x201d;" horiz-adv-x="919" 
d="M236 1247l34 195h301l-45 -252q-23 -139 -126 -217t-267 -78l23 129q100 0 153 36t68 116zM651 1255l33 187h301l-41 -238q-25 -138 -127.5 -214.5t-265.5 -76.5l20 127q195 0 222 144z" />
    <glyph glyph-name="quotedblbase" unicode="&#x201e;" horiz-adv-x="548" 
d="M41 61l45 256h326l-56 -317q-32 -168 -144 -261q-114 -93 -286 -93l25 135q108 0 165.5 47t76.5 149z" />
    <glyph glyph-name="dagger" unicode="&#x2020;" horiz-adv-x="860" 
d="M606 739h244l-39 -223h-244l-55 -315h-276l55 315h-246l41 223h244l125 703h276z" />
    <glyph glyph-name="daggerdbl" unicode="&#x2021;" horiz-adv-x="860" 
d="M932 1212l-37 -219h-246l-57 -334h244l-39 -219h-244l-45 -256h-277l45 256h-245l39 219h245l58 334h-244l39 219h244l41 230h276l-41 -230h244z" />
    <glyph glyph-name="bullet" unicode="&#x2022;" horiz-adv-x="645" 
d="M80 328l74 413h415l-73 -413h-416z" />
    <glyph glyph-name="ellipsis" unicode="&#x2026;" horiz-adv-x="1462" 
d="M18 0l54 301h309l-53 -301h-310zM489 0l54 301h309l-53 -301h-310zM961 0l53 301h309l-51 -301h-311z" />
    <glyph glyph-name="perthousand" unicode="&#x2030;" horiz-adv-x="2029" 
d="M716 872q-116 -96 -278 -96t-242 96q-81 94 -55 252q27 155 143 253q116 96 277 96q162 0 245 -95q82 -96 54 -253q-29 -159 -144 -253zM1567 1442l-484 -647h-256l443 647h297zM409 1239q-51 -43 -63 -114t23 -114q35 -42 104 -42q70 0 119 42t63 113q12 70 -22.5 114
t-103.5 44q-71 0 -120 -43zM1679 666q154 0 231 -95q76 -96 48 -252q-29 -159 -138 -253q-110 -95 -264 -95q-105 0 -172 57t-81 156q-49 -100 -136.5 -156.5t-193.5 -56.5q-152 0 -228 97q-77 96 -48 252q29 155 138 251q110 95 261 95q104 0 171.5 -56t84.5 -155
q49 98 136 154.5t191 56.5zM-4 0l481 647h256l-440 -647h-297zM1148 205q50 44 63 115q12 70 -23 114q-34 43 -104 43t-119.5 -43t-63.5 -115q-12 -72 22.5 -114.5t104.5 -42.5q71 0 120 43zM1691 205q50 44 62 115t-22 114t-105 43q-69 0 -118.5 -43t-63.5 -115
q-12 -72 22.5 -114.5t104.5 -42.5t120 43z" />
    <glyph glyph-name="guilsinglleft" unicode="&#x2039;" horiz-adv-x="610" 
d="M207 145l-187 234l54 299l268 233h309l-444 -383l311 -383h-311z" />
    <glyph glyph-name="guilsinglright" unicode="&#x203a;" horiz-adv-x="612" 
d="M268 145h-309l449 383l-314 383h309l187 -233l-51 -299z" />
    <glyph glyph-name="fraction" unicode="&#x2044;" horiz-adv-x="348" 
d="M-596 0l1389 1442h227l-1389 -1442h-227z" />
    <glyph glyph-name="uni20AA" unicode="&#x20aa;" horiz-adv-x="1861" 
d="M94 0l252 1442h287l-254 -1442h-285zM1368 408l182 1034h285l-182 -1039q-40 -183 -165 -293t-298 -110h-664l187 1065h237l-147 -832h375q87 0 130.5 40t59.5 135zM975 1208h-383l41 234h403q164 0 248 -101t55 -270l-125 -694h-235l117 657q16 94 -11.5 134t-109.5 40z
" />
    <glyph glyph-name="Euro" unicode="&#x20ac;" horiz-adv-x="1515" 
d="M1008 1473q262 0 408 -152q145 -151 100 -410h-302q29 157 -31 228t-220 71q-280 0 -390 -266h408l-55 -166h-867l29 166h180q97 243 295 387q196 142 445 142zM788 229q160 0 244 65.5t111 209.5h301q-44 -249 -239 -391q-197 -144 -462 -144q-247 0 -392 141
q-146 140 -161 382h-182l29 165h848l-58 -165h-331q8 -135 79.5 -199t212.5 -64z" />
    <glyph glyph-name="uni2113" unicode="&#x2113;" horiz-adv-x="950" 
d="M735 1575q159 0 232 -136t34 -358q-40 -238 -186 -388q-145 -150 -344 -163l-35 -192q-12 -74 8.5 -103.5t83.5 -29.5h168l-34 -201q-98 -26 -232 -24q-158 0 -233 86q-76 85 -50 237l39 225h-153l37 211h155l78 447q31 174 150 282q119 107 282 107zM754 1081
q19 108 20.5 166.5t-15 85.5t-54.5 27q-49 0 -75 -41q-27 -43 -46 -150l-76 -430q104 5 159 80q54 77 87 262z" />
    <glyph glyph-name="uni2116" unicode="&#x2116;" horiz-adv-x="2435" 
d="M2179 1473q159 0 242 -89q82 -89 55 -235q-27 -148 -139 -236q-113 -90 -271 -90q-159 0 -239 89t-55 237q26 146 137 235q113 89 270 89zM1155 139l66 447l151 856h299l-254 -1442h-520l-285 1317l-63 -426l-156 -891h-299l252 1442h526zM2259 1149q27 156 -109 156
q-69 0 -107 -37.5t-54 -118.5q-14 -83 10.5 -120.5t95.5 -37.5q137 0 164 158zM2142 469h-276l39 227h276z" />
    <glyph glyph-name="trademark" unicode="&#x2122;" horiz-adv-x="1748" 
d="M90 1442h658l-29 -164h-230l-83 -481h-201l86 481h-230zM1487 1442h356l-112 -645h-201l82 467l26 122l-256 -589h-313l-47 592l-18 -125l-82 -467h-201l115 645h364l41 -451l2 -127l41 127z" />
    <glyph glyph-name="onethird" unicode="&#x2153;" horiz-adv-x="1529" 
d="M-16 0l1388 1442h227l-1388 -1442h-227zM506 1217l31 157l-78 -69l-215 -166l37 213l118 90h338l-114 -645h-191zM965 611q86 65 211 65q124 0 193 -51q68 -52 52 -133q-19 -118 -188 -138q187 -22 162 -180q-17 -89 -109 -141q-95 -53 -231 -53q-131 0 -199 63
q-68 64 -49 168h190q-8 -45 12 -63.5t74 -18.5q106 0 121 68q6 33 -12.5 49t-65.5 16h-108l22 121h93q80 0 90 61q12 82 -72 82q-88 0 -102 -86h-191q19 106 107 171z" />
    <glyph glyph-name="twothirds" unicode="&#x2154;" horiz-adv-x="1558" 
d="M362 948h343l-27 -151h-555l45 256l297 106q47 18 67.5 39t26.5 55q14 80 -65 80q-88 0 -109 -106h-188q19 111 109 179q88 67 216 67q123 0 184.5 -59.5t43.5 -158.5q-12 -69 -63 -114.5t-161 -87.5l-198 -78l-97 -29zM12 0l1389 1442h227l-1388 -1442h-228zM991 611
q86 65 211 65t194 -51q67 -52 54 -133q-26 -119 -190 -138q188 -23 161 -180q-17 -88 -108 -141q-92 -53 -230 -53q-131 0 -199 63q-69 63 -48 168h188q-8 -45 12 -63.5t74 -18.5q106 0 121 68q8 33 -11.5 49t-66.5 16h-106l20 121h92q80 0 90 61q12 82 -71 82
q-88 0 -103 -86h-188q18 106 104 171z" />
    <glyph glyph-name="oneeighth" unicode="&#x215b;" horiz-adv-x="1538" 
d="M-23 0l1387 1442h227l-1386 -1442h-228zM481 1217l31 155l-76 -67l-215 -166l37 213l117 90h338l-113 -645h-192zM972 624q86 52 216 52t200 -52t56 -137q-22 -121 -187 -151q172 -39 148 -172q-17 -85 -108 -134q-94 -50 -232 -50q-136 0 -213 50q-76 49 -59 134
q25 135 206 172q-152 33 -131 151q17 85 104 137zM1051 453q-6 -39 14 -56.5t72 -17.5q96 0 110 74q8 42 -12 60.5t-72 18.5q-98 2 -112 -79zM1219 205q8 41 -16.5 59.5t-84.5 18.5q-114 0 -127 -78q-8 -43 16.5 -62.5t84.5 -19.5q114 0 127 82z" />
    <glyph glyph-name="threeeighths" unicode="&#x215c;" horiz-adv-x="1560" 
d="M403 776q-131 0 -199 65q-69 64 -48 167h188q-8 -43 12.5 -62.5t73.5 -19.5q109 0 121 67q6 35 -13.5 51.5t-66.5 16.5h-106l20 121h92q80 0 90 61q18 80 -71 80q-88 0 -103 -86h-188q18 107 105 171q88 65 212 65q125 0 193 -50q67 -50 53 -135q-20 -119 -190 -137
q188 -23 161 -178q-16 -88 -108 -142q-92 -55 -228 -55zM0 0l1389 1442h227l-1389 -1442h-227zM988 624q86 52 216 52t200 -52q71 -53 56 -137q-22 -121 -186 -151q172 -39 147 -172q-17 -85 -108 -134q-92 -50 -232 -50q-136 0 -212 50q-77 50 -60 134q25 134 207 172
q-152 33 -131 151q17 85 103 137zM1067 453q-6 -39 14.5 -56.5t71.5 -17.5q96 0 111 74q8 42 -12 60.5t-72 18.5q-99 2 -113 -79zM1235 205q8 41 -16 59.5t-84 18.5q-113 0 -127 -78q-8 -43 16 -62.5t84 -19.5q114 0 127 82z" />
    <glyph glyph-name="fiveeighths" unicode="&#x215d;" horiz-adv-x="1550" 
d="M-18 0l1388 1442h227l-1388 -1442h-227zM424 776q-126 0 -193 62q-67 61 -51 161h191q-8 -43 10 -62t68 -19q88 0 102 86q19 94 -72 94q-71 0 -117 -49h-163l92 393h502l-27 -152h-346l-43 -178q77 104 203 105q90 0 135 -58t28 -153q-18 -102 -106 -166t-213 -64z
M1194 676q132 0 202 -52q71 -53 54 -137q-22 -121 -186 -151q172 -39 147 -172q-17 -85 -108 -134q-94 -50 -230 -50q-138 0 -214 50q-75 50 -60 134q25 134 207 172q-151 33 -132 151q17 85 104 137q86 52 216 52zM1059 453q-6 -39 13.5 -56.5t70.5 -17.5q96 0 110 74
q8 42 -12 60.5t-72 18.5q-98 2 -110 -79zM1225 205q8 41 -16.5 59.5t-84.5 18.5q-114 0 -127 -78q-6 -43 17.5 -62.5t83.5 -19.5q114 0 127 82z" />
    <glyph glyph-name="seveneighths" unicode="&#x215e;" horiz-adv-x="1527" 
d="M-35 0l1387 1442h227l-1386 -1442h-228zM743 1292l-143 -4h-293l27 154h479l-22 -131h2l-25 -131q-97 -51 -168 -154q-71 -102 -94 -229h-193q27 153 141 286q111 131 289 209zM962 624q86 52 216 52t200 -52q71 -53 54 -137q-22 -121 -185 -151q170 -38 146 -172
q-13 -82 -107 -133t-231 -51q-136 0 -213 50q-76 49 -62 134q25 133 209 172q-153 31 -131 151q17 85 104 137zM1040 453q-6 -39 14.5 -56.5t71.5 -17.5q95 0 109 74q8 42 -11.5 60.5t-70.5 18.5q-99 2 -113 -79zM1208 205q8 41 -16 59.5t-84 18.5q-115 0 -127 -78
q-8 -43 16 -62.5t84 -19.5q114 0 127 82z" />
    <glyph glyph-name="arrowleft" unicode="&#x2190;" horiz-adv-x="1521" 
d="M532 827l994 21l-45 -252l-981 20l338 -391l-195 -166l-547 664l781 666l135 -166z" />
    <glyph glyph-name="arrowup" unicode="&#x2191;" horiz-adv-x="1501" 
d="M915 1460l547 -663l-192 -166l-320 407l-153 -985h-254l194 987l-465 -407l-139 164z" />
    <glyph glyph-name="arrowright" unicode="&#x2192;" horiz-adv-x="1521" 
d="M756 1223l192 166l547 -666l-780 -664l-137 166l477 391l-989 -20l45 252l985 -21z" />
    <glyph glyph-name="arrowdown" unicode="&#x2193;" horiz-adv-x="1501" 
d="M836 418l467 407l137 -163l-783 -664l-546 664l192 165l320 -407l153 985h254z" />
    <glyph glyph-name="arrowboth" unicode="&#x2194;" horiz-adv-x="2150" 
d="M1364 1229l195 166l528 -645l-756 -644l-135 166l457 377h-1145l323 -377l-192 -166l-530 646l757 643l135 -166l-454 -373h1136z" />
    <glyph glyph-name="arrowupdn" unicode="&#x2195;" horiz-adv-x="1441" 
d="M954 1249l-196 -1112l444 389l135 -159l-759 -643l-531 643l193 161l311 -399l199 1126l-453 -397l-133 158l758 645l530 -645l-188 -160z" />
    <glyph glyph-name="uni2196" unicode="&#x2196;" horiz-adv-x="1230" 
d="M1165 1272l-43 -234l-565 9l594 -682l-213 -179l-555 709l-90 -565l-234 2l166 938z" />
    <glyph glyph-name="uni2197" unicode="&#x2197;" horiz-adv-x="1228" 
d="M293 1067l39 231l938 -2l-164 -938h-236l111 566l-807 -711l-145 178l831 684z" />
    <glyph glyph-name="uni2198" unicode="&#x2198;" horiz-adv-x="1230" 
d="M930 623l92 569l231 2l-168 -940h-938l43 233l562 -12l-590 684l211 178z" />
    <glyph glyph-name="uni2199" unicode="&#x2199;" horiz-adv-x="1228" 
d="M1145 1337l145 -178l-831 -684l569 12l-43 -233h-938l164 940l233 -2l-108 -567z" />
    <glyph glyph-name="partialdiff" unicode="&#x2202;" horiz-adv-x="1263" 
d="M358 1585l330 -63q300 -63 436 -274t80 -523q-58 -339 -251 -548q-193 -208 -447 -208q-240 0 -360 148q-121 146 -80 389q39 224 188 363q149 137 354 137q132 0 218.5 -63t109.5 -175q40 238 -16 335q-58 97 -263 140l-348 62zM553 199q131 0 202.5 72.5t100.5 236.5
q29 158 -16 228.5t-172 70.5q-134 0 -208.5 -72t-101.5 -229q-27 -162 19.5 -234.5t175.5 -72.5z" />
    <glyph glyph-name="product" unicode="&#x220f;" horiz-adv-x="1447" 
d="M236 1442h1300l-45 -252h-193l-278 -1577h-293l279 1577h-330l-279 -1577h-293l279 1577h-193z" />
    <glyph glyph-name="summation" unicode="&#x2211;" horiz-adv-x="1181" 
d="M946 -387h-1018l82 453l690 372l191 90l-158 88l-561 373l80 453h1016l-45 -252h-625l-315 6l712 -457l-73 -422l-881 -462l324 10h624z" />
    <glyph glyph-name="minus" unicode="&#x2212;" horiz-adv-x="995" 
d="M109 639h815l-35 -201h-815z" />
    <glyph glyph-name="uni2215" unicode="&#x2215;" horiz-adv-x="643" 
d="M-145 -387l686 1941h266l-686 -1941h-266z" />
    <glyph glyph-name="uni2219" unicode="&#x2219;" horiz-adv-x="634" 
d="M90 332l72 407h407l-73 -407h-406z" />
    <glyph glyph-name="radical" unicode="&#x221a;" horiz-adv-x="1277" 
d="M909 1442h592l-45 -252h-381l-583 -1577h-439l-84 1053h256l47 -674l11 -297l100 297z" />
    <glyph glyph-name="infinity" unicode="&#x221e;" horiz-adv-x="1968" 
d="M1526 971q208 0 315 -120q105 -120 70 -314q-34 -195 -182 -315q-149 -120 -357 -120q-157 0 -251 70q-95 71 -167 195q-118 -125 -238 -195q-121 -70 -280 -70q-202 0 -306 120t-69 315q33 195 180 315q146 119 349 119q157 0 255 -71q96 -69 169 -193q118 125 238 195
q120 69 274 69zM500 315q98 0 181 57q85 57 181 165q-58 109 -122 165q-65 56 -165 56q-113 0 -172 -52t-81 -169q-20 -117 21.5 -169.5t156.5 -52.5zM1569 368q59 53 80 169q20 117 -22 169t-157 52q-93 0 -176 -53.5t-186 -167.5q58 -109 123 -165q63 -57 164 -57
q115 0 174 53z" />
    <glyph glyph-name="integral" unicode="&#x222b;" horiz-adv-x="911" 
d="M862 1473q94 0 174 -19l-37 -207h-139q-82 0 -121 -35.5t-53 -124.5l-201 -1138q-28 -159 -154 -259q-127 -98 -300 -98q-90 0 -176 19l36 207h142q81 0 120.5 36t53.5 123l201 1139q28 159 154 259q125 98 300 98z" />
    <glyph glyph-name="approxequal" unicode="&#x2248;" horiz-adv-x="1206" 
d="M289 592h-189q28 149 134 250q103 100 241 100q85 0 149 -38q64 -39 113 -75q52 -38 113 -38q58 0 99 41q41 40 48 96h189q-27 -154 -131 -252q-106 -98 -242 -98q-65 0 -119.5 22t-88.5 54q-79 75 -167 75q-58 0 -99 -41q-39 -39 -50 -96zM209 133h-189q27 150 133 250
q104 100 240 100q89 0 151 -37q52 -32 114 -76q52 -38 112 -38q59 0 98 41q40 41 50 96h188q-28 -155 -132 -252q-104 -98 -241 -98q-65 0 -121 22t-88 54q-79 75 -168 75q-59 0 -98 -41q-38 -40 -49 -96z" />
    <glyph glyph-name="notequal" unicode="&#x2260;" horiz-adv-x="1155" 
d="M1075 860l-37 -198h-262l-192 -246h411l-34 -199h-523l-139 -174h-201l140 174h-152l35 199h262l192 246h-411l35 198h516l141 178h201l-142 -178h160z" />
    <glyph glyph-name="lessequal" unicode="&#x2264;" horiz-adv-x="1017" 
d="M883 281l-799 215l57 323l875 215l-35 -200l-778 -177l717 -178zM6 51l35 201h838l-35 -201h-838z" />
    <glyph glyph-name="greaterequal" unicode="&#x2265;" horiz-adv-x="1017" 
d="M922 496l-875 -215l37 198l778 178l-717 177l35 200l799 -215zM43 252h836l-35 -201h-836z" />
    <glyph glyph-name="uni2460" unicode="&#x2460;" horiz-adv-x="1724" 
d="M766 -31q-344 0 -518 207t-114 545q59 338 306 545q246 207 590 207t517 -207t114 -545q-57 -338 -305 -545t-590 -207zM791 121q265 0 459 165q193 166 239 435q46 268 -87 434t-398 166q-267 0 -458 -166q-192 -166 -241 -434q-45 -269 89 -435q134 -165 397 -165z
M823 934l-248 -189l43 236l146 111h379l-131 -742h-217l86 484l37 184z" />
    <glyph glyph-name="uni2461" unicode="&#x2461;" horiz-adv-x="1724" 
d="M766 -31q-344 0 -518 207t-114 545q59 338 306 545q246 207 590 207t517 -207t114 -545q-57 -338 -305 -545t-590 -207zM791 121q265 0 459 165q193 166 239 435q46 268 -87 434t-398 166q-267 0 -458 -166q-192 -166 -241 -434q-45 -269 89 -435q134 -165 397 -165z
M1165 348h-639l52 293l344 121q55 23 77.5 46t28.5 62q18 91 -74 93q-102 0 -123 -121h-219q22 128 126 204q101 76 247 76q140 0 213 -68q72 -69 51 -180q-14 -79 -73 -132t-183 -101l-231 -90l-111 -33l152 4h393z" />
    <glyph glyph-name="uni2462" unicode="&#x2462;" horiz-adv-x="1724" 
d="M766 -31q-344 0 -518 207t-114 545q59 338 306 545q246 207 590 207t517 -207t114 -545q-57 -338 -305 -545t-590 -207zM791 121q265 0 459 165q193 166 239 435q46 268 -87 434t-398 166q-267 0 -458 -166q-192 -166 -241 -434q-45 -269 89 -435q134 -165 397 -165z
M535 586h217q-8 -48 16 -70t84 -22q127 0 139 77q8 37 -14 56.5t-76 19.5h-123l23 139h106q90 0 105 72q14 92 -84 92q-101 0 -117 -100h-217q22 123 122 198q100 74 243 74q142 0 221 -59q77 -59 59 -154q-19 -134 -217 -157q218 -23 186 -205q-18 -102 -124 -163
q-107 -62 -265 -62q-151 0 -227 73q-77 72 -57 191z" />
    <glyph glyph-name="uni2463" unicode="&#x2463;" horiz-adv-x="1724" 
d="M766 -31q-344 0 -518 207t-114 545q59 338 306 545q246 207 590 207t517 -207t114 -545q-57 -338 -305 -545t-590 -207zM791 121q265 0 459 165q193 166 239 435q46 268 -87 434t-398 166q-267 0 -458 -166q-192 -166 -241 -434q-45 -269 89 -435q134 -165 397 -165z
M850 487h-315l59 338l231 267h351l-78 -441h110l-28 -164h-111l-25 -137h-217zM956 1049l-344 -402l95 4h174l34 209z" />
    <glyph glyph-name="uni2464" unicode="&#x2464;" horiz-adv-x="1724" 
d="M766 -31q-344 0 -518 207t-114 545q59 338 306 545q246 207 590 207t517 -207t114 -545q-57 -338 -305 -545t-590 -207zM791 121q265 0 459 165q193 166 239 435q46 268 -87 434t-398 166q-267 0 -458 -166q-192 -166 -241 -434q-45 -269 89 -435q134 -165 397 -165z
M551 582h217q-8 -51 13.5 -73t78.5 -22q100 0 117 99q10 55 -10.5 82t-71.5 26q-78 0 -137 -59h-189l109 455h575l-30 -175h-291l-105 3l-51 -209q90 121 232 120q104 0 158 -66q53 -68 32 -175q-19 -118 -121 -191q-101 -73 -248 -73q-146 0 -222 71q-76 70 -56 187z" />
    <glyph glyph-name="uni2465" unicode="&#x2465;" horiz-adv-x="1724" 
d="M766 -31q-344 0 -518 207t-114 545q59 338 306 545q246 207 590 207t517 -207t114 -545q-57 -338 -305 -545t-590 -207zM791 121q265 0 459 165q193 166 239 435q46 268 -87 434t-398 166q-267 0 -458 -166q-192 -166 -241 -434q-45 -269 89 -435q134 -165 397 -165z
M526 721q33 179 158 291q125 110 297 110q149 0 229 -68q78 -69 58 -180h-217q8 45 -15.5 64.5t-83.5 19.5q-85 0 -133.5 -56.5t-70.5 -180.5q-2 -13 -7 -39q33 61 103 97t157 36q119 0 180 -61q60 -62 42 -164q-19 -120 -125 -194t-254 -74q-183 0 -267 105t-51 294z
M737 588q-8 -51 23 -73.5t106 -22.5q118 0 135 98q8 51 -14.5 72.5t-85.5 21.5q-147 0 -164 -96z" />
    <glyph glyph-name="uni2466" unicode="&#x2466;" horiz-adv-x="1724" 
d="M766 -31q-344 0 -518 207t-114 545q59 338 306 545q246 207 590 207t517 -207t114 -545q-57 -338 -305 -545t-590 -207zM791 121q265 0 459 165q193 166 239 435q46 268 -87 434t-398 166q-267 0 -458 -166q-192 -166 -241 -434q-45 -269 89 -435q134 -165 397 -165z
M1001 915h-337l30 177h555l-53 -301q-114 -63 -194 -179q-81 -117 -107 -262h-221q32 172 158 325q126 155 325 243z" />
    <glyph glyph-name="uni2467" unicode="&#x2467;" horiz-adv-x="1724" 
d="M766 -31q-344 0 -518 207t-114 545q59 338 306 545q246 207 590 207t517 -207t114 -545q-57 -338 -305 -545t-590 -207zM791 121q265 0 459 165q193 166 239 435q46 268 -87 434t-398 166q-267 0 -458 -166q-192 -166 -241 -434q-45 -269 89 -435q134 -165 397 -165z
M514 532q26 159 238 199q-176 38 -152 174q16 96 118 157q100 60 251 60q149 0 229 -60q80 -62 64 -157q-26 -137 -215 -174q199 -40 170 -199q-18 -96 -124 -153q-107 -57 -265 -57q-161 0 -246 58q-86 59 -68 152zM813 864q-10 -43 13.5 -63.5t80.5 -20.5q114 0 127 84
q18 94 -94 94q-114 0 -127 -94zM741 580q-8 -49 19.5 -71t95.5 -22q132 0 148 93q8 47 -20 68.5t-95 21.5q-130 0 -148 -90z" />
    <glyph glyph-name="uni2468" unicode="&#x2468;" horiz-adv-x="1724" 
d="M766 -31q-344 0 -518 207t-114 545q59 338 306 545q246 207 590 207t517 -207t114 -545q-57 -338 -305 -545t-590 -207zM791 121q265 0 459 165q193 166 239 435q46 268 -87 434t-398 166q-267 0 -458 -166q-192 -166 -241 -434q-45 -269 89 -435q134 -165 397 -165z
M582 854q22 121 127 195q103 73 252 73q183 0 266.5 -105t50.5 -294q-32 -182 -155 -290q-125 -111 -294 -111q-151 0 -230 70q-81 69 -60 183h219q-10 -47 13.5 -68.5t86.5 -21.5q82 0 130 56.5t69 181.5l8 37q-36 -62 -102.5 -97.5t-149.5 -35.5q-123 0 -185 63
q-62 62 -46 164zM803 854q-8 -51 15.5 -73.5t86.5 -22.5q147 0 162 96q10 51 -20.5 74.5t-108.5 23.5q-61 0 -93 -22.5t-42 -75.5z" />
    <glyph glyph-name="uni24EA" unicode="&#x24ea;" horiz-adv-x="1724" 
d="M766 -31q-344 0 -518 207t-114 545q59 338 306 545q246 207 590 207t517 -207t114 -545q-57 -338 -305 -545t-590 -207zM791 121q265 0 459 165q193 166 239 435q46 268 -87 434t-398 166q-267 0 -458 -166q-192 -166 -241 -434q-45 -269 89 -435q134 -165 397 -165z
M1117 432q-122 -110 -290 -110t-251 110q-84 109 -52 289q32 181 154 291q124 110 291 110q168 0 251 -110q83 -112 50 -291q-31 -179 -153 -289zM754 563q28 -49 108 -49q81 0 124 49q44 50 63 158q20 109 -7.5 158t-107.5 49t-125 -49.5t-64 -157.5q-19 -109 9 -158z" />
    <glyph glyph-name="uni24FF" unicode="&#x24ff;" horiz-adv-x="1724" 
d="M1355 177q-247 -208 -591 -208q-345 0 -517 208q-173 209 -114 546q57 336 305 543t590 207q344 0 518 -207t115 -543q-59 -337 -306 -546zM574 432q83 -110 251 -110q167 0 291 110q123 109 154 289q33 180 -51 291q-84 110 -252 110t-290 -110q-122 -112 -155 -291
q-31 -179 52 -289zM984 563q-43 -49 -124 -49q-80 0 -107 49q-28 49 -10 158q20 109 64.5 158t124.5 49q81 0 109 -49q28 -48 8 -158q-21 -107 -65 -158z" />
    <glyph glyph-name="lozenge" unicode="&#x25ca;" horiz-adv-x="1216" 
d="M543 1442h454l172 -721l-426 -721h-454l-172 721zM381 721l147 -649l377 649l-147 651z" />
    <glyph glyph-name="uni2766" unicode="&#x2766;" horiz-adv-x="886" 
d="M37 395h-33l51 291h33q-5 -29 14 -29q20 0 25 29h479l-51 -291h-481q5 29 -14 29q-18 0 -23 -29zM602 410l47 266q84 0 154 -46q69 -46 61 -87q-7 -40 -94 -87q-85 -46 -168 -46zM524 434l6 37h-415l-6 -37h415z" />
    <glyph glyph-name="uni2776" unicode="&#x2776;" horiz-adv-x="1724" 
d="M1355 177q-247 -208 -591 -208q-345 0 -517 208q-173 209 -114 546q57 336 305 543t590 207q344 0 518 -207t115 -543q-59 -337 -306 -546zM616 981l-41 -236l248 189l92 84l-36 -184l-84 -484h217l129 742h-377z" />
    <glyph glyph-name="uni2777" unicode="&#x2777;" horiz-adv-x="1724" 
d="M766 -31q-344 0 -518 207t-114 545q59 338 306 545q246 207 590 207t517 -207t114 -545q-58 -335 -306 -544q-247 -208 -589 -208zM578 641l-52 -293h639l31 174h-393l-152 -4l111 33l231 90q124 47 183 101t73 132q19 111 -51 180q-73 68 -213 68q-146 0 -247 -76
q-104 -76 -126 -204h219q19 121 123 121q92 0 74 -93q-6 -39 -29 -62.5t-77 -45.5z" />
    <glyph glyph-name="uni2778" unicode="&#x2778;" horiz-adv-x="1724" 
d="M766 -31q-344 0 -518 207t-114 545q59 338 306 545q246 207 590 207t517 -207t114 -545q-58 -335 -306 -544q-247 -208 -589 -208zM752 586h-217q-20 -119 58 -191q76 -73 226 -73q159 0 265 61t124 164q32 182 -186 205q197 23 217 157q18 94 -59 154q-79 59 -221 59
q-143 0 -243 -74q-99 -74 -122 -198h217q16 100 117 100q98 0 84 -92q-14 -72 -105 -72h-106l-23 -139h123q54 0 76 -19.5t14 -56.5q-12 -78 -139 -77q-60 0 -84.5 22t-15.5 70z" />
    <glyph glyph-name="uni2779" unicode="&#x2779;" horiz-adv-x="1724" 
d="M766 -31q-344 0 -518 207t-114 545q59 338 306 545q246 207 590 207t517 -207t114 -545q-58 -335 -306 -544q-247 -208 -589 -208zM594 825l-59 -338h315l-23 -137h217l25 137h111l28 164h-110l78 441h-351zM707 651l-95 -4l344 402l-41 -189l-34 -209h-174z" />
    <glyph glyph-name="uni277A" unicode="&#x277a;" horiz-adv-x="1724" 
d="M766 -31q-344 0 -518 207t-114 545q59 338 306 545q246 207 590 207t517 -207t114 -545q-58 -335 -306 -544q-247 -208 -589 -208zM768 582h-217q-20 -117 56 -187q76 -71 222 -71t247 73q102 72 122 191q19 109 -33 175q-53 66 -157 66q-140 0 -232 -120l51 209l105 -3
h291l30 175h-575l-109 -455h189q59 59 137 59q101 0 82 -108q-17 -98 -117 -99q-57 0 -78.5 22t-13.5 73z" />
    <glyph glyph-name="uni277B" unicode="&#x277b;" horiz-adv-x="1724" 
d="M1355 177q-247 -208 -591 -208q-345 0 -517 208q-173 209 -114 546q57 336 305 543t590 207q344 0 518 -207t115 -543q-59 -337 -306 -546zM526 721q-33 -189 51 -294t267 -105q146 0 252 74q104 74 125 194q18 102 -42 164q-61 61 -180 61q-87 0 -155.5 -35.5
t-104.5 -97.5l6 39q23 125 72 181t133 56q61 0 84 -19.5t15 -64.5h219q20 111 -60 180q-80 68 -229 68q-171 0 -296 -110q-124 -110 -157 -291zM737 588q17 96 162 96q64 0 87.5 -21.5t12.5 -72.5q-14 -98 -133 -98q-78 0 -107.5 22.5t-21.5 73.5z" />
    <glyph glyph-name="uni277C" unicode="&#x277c;" horiz-adv-x="1724" 
d="M1355 177q-247 -208 -591 -208q-345 0 -517 208q-173 209 -114 546q57 336 305 543t590 207q344 0 518 -207t115 -543q-59 -337 -306 -546zM694 1092l-30 -177h335l156 3q-198 -89 -325 -243q-128 -155 -158 -325h221q27 142 108 261q79 118 193 180l53 301h-553z" />
    <glyph glyph-name="uni277D" unicode="&#x277d;" horiz-adv-x="1724" 
d="M766 -31q-344 0 -518 207t-114 545q59 338 306 545q246 207 590 207t517 -207t114 -545q-58 -335 -306 -544q-247 -208 -589 -208zM514 532q-18 -93 68 -152q85 -58 246 -58q158 0 265 57q104 57 124 153q29 159 -170 199q189 37 215 174q16 95 -64 157q-80 60 -229 60
q-151 0 -251 -60q-102 -61 -118 -157q-25 -136 152 -174q-212 -40 -238 -199zM813 864q13 94 127 94q113 0 94 -94q-13 -84 -127 -84q-57 0 -80.5 20.5t-13.5 63.5zM741 580q18 90 148 90q68 0 95.5 -21.5t19.5 -68.5q-17 -92 -148 -93q-68 0 -95.5 22t-19.5 71z" />
    <glyph glyph-name="uni277E" unicode="&#x277e;" horiz-adv-x="1724" 
d="M766 -31q-344 0 -518 207t-114 545q59 338 306 545q246 207 590 207t517 -207t114 -545q-58 -335 -306 -544q-247 -208 -589 -208zM582 854q-16 -102 46 -164q62 -63 185 -63q84 0 150.5 35.5t101.5 97.5l-8 -37q-20 -124 -68.5 -181t-130.5 -57q-63 0 -86.5 21.5
t-13.5 68.5h-219q-19 -115 61 -184t229 -69q169 0 294 111q123 108 155 290q33 189 -50.5 294t-266.5 105q-148 0 -251 -73q-106 -74 -128 -195zM803 854q10 53 42 75.5t93 22.5q78 0 108.5 -23.5t20.5 -74.5q-13 -96 -162 -96q-63 0 -86.5 22.5t-15.5 73.5z" />
    <glyph glyph-name="uniF8FF" unicode="&#xf8ff;" horiz-adv-x="1204" 
d="M1116 1180l27 -230l-8 -6q-62 98 -139 122q-80 25 -343 26q-13 -207 -14 -295q87 1 148 44q59 43 110 144h6l-22 -145q-90 -75 -242 -80v-66q0 -119 4 -291q133 0 199 3q0 172 -15 284q-36 11 -88 19v6q143 27 246 71l2 -6q-41 -45 -54 -118q-13 -71 -13 -279
q0 -221 12 -340l78 -37v-6h-332v6l151 53q11 97 13 295q-88 2 -197 2q2 -34 2 -72q0 -41 2 -71l-108 -66l-4 7q7 56 20 202q-109 0 -197 -2q0 -198 13 -295l153 -53v-6h-333v6l77 37q11 113 13 340q0 207 -12 280q-14 73 -56 117l2 6q92 -42 246 -71v-6q-46 -7 -88 -19
q-13 -112 -15 -284q133 0 199 -3q6 125 6 291v70q-132 18 -215 103q-85 86 -92 210q-75 -12 -109 -39q-36 -28 -79 -94l-9 6q17 137 23 189l8 41q52 -33 168 -39q13 138 116 226q101 87 253 87q113 0 223 -65l31 57l12 -8q-20 -101 -21 -221h-4q-56 203 -241 204
q-114 2 -190 -77q-77 -80 -87 -207q82 -2 248 -2q286 0 374 9t138 36h4zM350 1087q4 -108 63 -185q59 -76 150 -99q-2 144 -12 289q-132 -2 -201 -5z" />
    <glyph glyph-name="I.ss02" horiz-adv-x="1107" 
d="M1157 1442l-45 -252h-291l-164 -938h291l-45 -252h-883l46 252h290l164 938h-291l45 252h883z" />
    <glyph glyph-name="Iacute.ss02" horiz-adv-x="1107" 
d="M811 1944h283l-256 -345h-207zM1157 1442l-45 -252h-291l-164 -938h291l-45 -252h-883l46 252h290l164 938h-291l45 252h883z" />
    <glyph glyph-name="Ibreve.ss02" horiz-adv-x="1107" 
d="M988 1684q-100 -93 -246 -93t-216 93q-71 92 -41 260h197q-16 -92 5.5 -135.5t82.5 -43.5q63 0 100 43t54 136h196q-32 -169 -132 -260zM1157 1442l-45 -252h-291l-164 -938h291l-45 -252h-883l46 252h290l164 938h-291l45 252h883z" />
    <glyph glyph-name="Icircumflex.ss02" horiz-adv-x="1107" 
d="M877 1599l-80 279l-181 -279h-237l244 345h368l123 -345h-237zM1157 1442l-45 -252h-291l-164 -938h291l-45 -252h-883l46 252h290l164 938h-291l45 252h883z" />
    <glyph glyph-name="Idieresis.ss02" horiz-adv-x="1107" 
d="M473 1911h270l-47 -271h-270zM852 1911h270l-47 -271h-272zM1157 1442l-45 -252h-291l-164 -938h291l-45 -252h-883l46 252h290l164 938h-291l45 252h883z" />
    <glyph glyph-name="Idotaccent.ss02" horiz-adv-x="1107" 
d="M647 1911h303l-47 -271h-303zM1157 1442l-45 -252h-291l-164 -938h291l-45 -252h-883l46 252h290l164 938h-291l45 252h883z" />
    <glyph glyph-name="uni1ECA.ss02" horiz-adv-x="1107" 
d="M1157 1442l-45 -252h-291l-164 -938h291l-45 -252h-883l46 252h290l164 938h-291l45 252h883zM541 -418h-303l47 264h303z" />
    <glyph glyph-name="Igrave.ss02" horiz-adv-x="1107" 
d="M788 1944l62 -345h-207l-137 345h282zM1157 1442l-45 -252h-291l-164 -938h291l-45 -252h-883l46 252h290l164 938h-291l45 252h883z" />
    <glyph glyph-name="Imacron.ss02" horiz-adv-x="1107" 
d="M504 1888h581l-36 -219h-584zM1157 1442l-45 -252h-291l-164 -938h291l-45 -252h-883l46 252h290l164 938h-291l45 252h883z" />
    <glyph glyph-name="Iogonek.ss02" horiz-adv-x="1107" 
d="M1157 1442l-45 -252h-291l-164 -938h291l-45 -252h-291l-159 -162q-42 -44 -47 -74q-3 -22 10.5 -32.5t44.5 -10.5h119l-31 -165h-242q-77 0 -115 37.5t-28 101.5q17 78 92 147l172 158h-408l46 252h290l164 938h-291l45 252h883z" />
    <glyph glyph-name="Itilde.ss02" horiz-adv-x="1107" 
d="M621 1722q-87 0 -107 -90h-147q27 141 99.5 217t182.5 76q65 0 148 -47t131 -47q45 0 71.5 24t30.5 66h148q-23 -142 -94.5 -217.5t-184.5 -75.5q-65 0 -147 47q-83 47 -131 47zM274 1442h883l-45 -252h-291l-164 -938h291l-45 -252h-883l46 252h290l164 938h-291z" />
    <glyph glyph-name="Z.ss03" horiz-adv-x="1308" 
d="M1147 0h-1157l80 465l1126 735l-244 -10h-747l45 252h1145l-80 -461l-1135 -739l248 10h764z" />
    <glyph glyph-name="Zacute.ss03" horiz-adv-x="1308" 
d="M748 1599l180 345h282l-256 -345h-206zM1147 0h-1157l80 465l1126 735l-244 -10h-747l45 252h1145l-80 -461l-1135 -739l248 10h764z" />
    <glyph glyph-name="Zcaron.ss03" horiz-adv-x="1308" 
d="M1040 1599h-366l-125 345h239l80 -281l179 281h239zM250 1442h1145l-80 -461l-1135 -739l248 10h764l-45 -252h-1157l80 465l1126 735l-244 -10h-747z" />
    <glyph glyph-name="Zdotaccent.ss03" horiz-adv-x="1308" 
d="M717 1640l47 271h303l-47 -271h-303zM1147 0h-1157l80 465l1126 735l-244 -10h-747l45 252h1145l-80 -461l-1135 -739l248 10h764z" />
    <glyph glyph-name="a.salt" horiz-adv-x="1339" 
d="M973 844l37 209h272l-184 -1053h-273l41 238q-72 -129 -179 -199t-234 -70q-209 0 -306 153q-98 152 -53 404q45 253 196 405q150 152 357 152q123 0 209 -62.5t117 -176.5zM588 190q131 0 205.5 74t109.5 238l8 53q23 162 -25 234.5t-179 72.5q-137 0 -213 -80
t-107 -256q-31 -177 16.5 -256.5t184.5 -79.5z" />
    <glyph glyph-name="aacute.salt" horiz-adv-x="1339" 
d="M858 1554h283l-256 -344h-207zM973 844l37 209h272l-184 -1053h-273l41 238q-72 -129 -179 -199t-234 -70q-209 0 -306 153q-98 152 -53 404q45 253 196 405q150 152 357 152q123 0 209 -62.5t117 -176.5zM588 190q131 0 205.5 74t109.5 238l8 53q23 162 -25 234.5
t-179 72.5q-137 0 -213 -80t-107 -256q-31 -177 16.5 -256.5t184.5 -79.5z" />
    <glyph glyph-name="abreve.salt" horiz-adv-x="1339" 
d="M1035 1294q-101 -92 -246 -92t-216 92t-41 260h197q-16 -92 5.5 -135t82.5 -43q126 0 154 178h196q-32 -169 -132 -260zM973 844l37 209h272l-184 -1053h-273l41 238q-72 -129 -179 -199t-234 -70q-209 0 -306 153q-98 152 -53 404q45 253 196 405q150 152 357 152
q123 0 209 -62.5t117 -176.5zM588 190q131 0 205.5 74t109.5 238l8 53q23 162 -25 234.5t-179 72.5q-137 0 -213 -80t-107 -256q-31 -177 16.5 -256.5t184.5 -79.5z" />
    <glyph glyph-name="acircumflex.salt" horiz-adv-x="1339" 
d="M922 1210l-80 279l-180 -279h-238l244 344h368l123 -344h-237zM973 844l37 209h272l-184 -1053h-273l41 238q-72 -129 -179 -199t-234 -70q-209 0 -306 153q-98 152 -53 404q45 253 196 405q150 152 357 152q123 0 209 -62.5t117 -176.5zM588 190q131 0 205.5 74
t109.5 238l8 53q23 162 -25 234.5t-179 72.5q-137 0 -213 -80t-107 -256q-31 -177 16.5 -256.5t184.5 -79.5z" />
    <glyph glyph-name="adieresis.salt" horiz-adv-x="1339" 
d="M520 1522h271l-48 -271h-270zM899 1522h270l-47 -271h-272zM973 844l37 209h272l-184 -1053h-273l41 238q-72 -129 -179 -199t-234 -70q-209 0 -306 153q-98 152 -53 404q45 253 196 405q150 152 357 152q123 0 209 -62.5t117 -176.5zM588 190q131 0 205.5 74t109.5 238
l8 53q23 162 -25 234.5t-179 72.5q-137 0 -213 -80t-107 -256q-31 -177 16.5 -256.5t184.5 -79.5z" />
    <glyph glyph-name="uni1EA1.salt" horiz-adv-x="1339" 
d="M973 844l37 209h272l-184 -1053h-273l41 238q-72 -129 -179 -199t-234 -70q-209 0 -306 153q-98 152 -53 404q45 253 196 405q150 152 357 152q123 0 209 -62.5t117 -176.5zM588 190q131 0 205.5 74t109.5 238l8 53q23 162 -25 234.5t-179 72.5q-137 0 -213 -80
t-107 -256q-31 -177 16.5 -256.5t184.5 -79.5zM690 -418h-303l47 264h303z" />
    <glyph glyph-name="agrave.salt" horiz-adv-x="1339" 
d="M836 1554l61 -344h-207l-137 344h283zM973 844l37 209h272l-184 -1053h-273l41 238q-72 -129 -179 -199t-234 -70q-209 0 -306 153q-98 152 -53 404q45 253 196 405q150 152 357 152q123 0 209 -62.5t117 -176.5zM588 190q131 0 205.5 74t109.5 238l8 53
q23 162 -25 234.5t-179 72.5q-137 0 -213 -80t-107 -256q-31 -177 16.5 -256.5t184.5 -79.5z" />
    <glyph glyph-name="amacron.salt" horiz-adv-x="1339" 
d="M549 1499h581l-36 -219h-584zM973 844l37 209h272l-184 -1053h-273l41 238q-72 -129 -179 -199t-234 -70q-209 0 -306 153q-98 152 -53 404q45 253 196 405q150 152 357 152q123 0 209 -62.5t117 -176.5zM588 190q131 0 205.5 74t109.5 238l8 53q23 162 -25 234.5
t-179 72.5q-137 0 -213 -80t-107 -256q-31 -177 16.5 -256.5t184.5 -79.5z" />
    <glyph glyph-name="aogonek.salt" horiz-adv-x="1339" 
d="M1098 0l-160 -162q-42 -44 -47 -74q-3 -22 10.5 -32.5t44.5 -10.5h119l-31 -165h-241q-77 0 -115.5 37.5t-28.5 101.5q13 76 92 147l172 158h-88l41 238q-72 -129 -179 -199t-234 -70q-209 0 -306 153q-98 152 -53 404q45 253 196 405q150 152 357 152q123 0 209 -62.5
t117 -176.5l37 209h272zM588 190q131 0 205.5 74t109.5 238l8 53q23 162 -25 234.5t-179 72.5q-137 0 -213 -80t-107 -256q-31 -177 16.5 -256.5t184.5 -79.5z" />
    <glyph glyph-name="aring.salt" horiz-adv-x="1339" 
d="M788 1202q-92 0 -139 49t-33 131q12 82 78 132q65 49 158 49q90 0 138 -49.5t36 -131.5q-13 -81 -81 -131q-67 -49 -157 -49zM739 1382q-6 -36 11 -54t57 -17q80 0 94 71q12 72 -68 72q-81 0 -94 -72zM973 844l37 209h272l-184 -1053h-273l41 238q-72 -129 -179 -199
t-234 -70q-209 0 -306 153q-98 152 -53 404q45 253 196 405q150 152 357 152q123 0 209 -62.5t117 -176.5zM588 190q131 0 205.5 74t109.5 238l8 53q23 162 -25 234.5t-179 72.5q-137 0 -213 -80t-107 -256q-31 -177 16.5 -256.5t184.5 -79.5z" />
    <glyph glyph-name="aringacute.salt" horiz-adv-x="1339" 
d="M946 1251q-64 -49 -157 -49q-94 0 -140 49q-47 50 -32 131q13 82 79 132q64 49 156 49q13 0 25 -2l92 178h219l-195 -228q45 -45 33 -129q-16 -82 -80 -131zM741 1382q-7 -36 10 -54t58 -17q80 0 92 72q12 71 -68 71t-92 -72zM973 844l37 209h272l-184 -1053h-273l41 238
q-72 -129 -179 -199t-234 -70q-209 0 -306 153q-98 152 -53 404q45 253 196 405q150 152 357 152q123 0 209 -62.5t117 -176.5zM588 190q131 0 205.5 74t109.5 238l8 53q23 162 -25 234.5t-179 72.5q-137 0 -213 -80t-107 -256q-31 -177 16.5 -256.5t184.5 -79.5z" />
    <glyph glyph-name="atilde.salt" horiz-adv-x="1339" 
d="M668 1333q-88 0 -107 -90h-147q27 141 99.5 217t182.5 76q65 0 148 -47t131 -47q45 0 71.5 24t30.5 66h148q-23 -142 -94.5 -217.5t-184.5 -75.5q-65 0 -147 47q-83 47 -131 47zM973 844l37 209h272l-184 -1053h-273l41 238q-72 -129 -179 -199t-234 -70q-209 0 -306 153
q-98 152 -53 404q45 253 196 405q150 152 357 152q123 0 209 -62.5t117 -176.5zM588 190q131 0 205.5 74t109.5 238l8 53q23 162 -25 234.5t-179 72.5q-137 0 -213 -80t-107 -256q-31 -177 16.5 -256.5t184.5 -79.5z" />
    <glyph glyph-name="g.salt" horiz-adv-x="1335" 
d="M969 844l37 209h272l-174 -996q-38 -210 -207 -337q-170 -128 -412 -128q-243 0 -371 117t-96 309h279q-18 -113 35 -163t190 -50q133 0 207 76t105 246l24 141q-69 -106 -170.5 -164.5t-220.5 -58.5q-208 0 -308 145q-102 143 -61 373q40 232 193 377q152 143 360 143
q123 0 207 -62.5t111 -176.5zM602 262q132 0 206.5 72.5t100.5 226.5q29 158 -19 229.5t-181 71.5q-139 0 -214 -71.5t-104 -229.5q-29 -156 21.5 -227.5t189.5 -71.5z" />
    <glyph glyph-name="gbreve.salt" horiz-adv-x="1335" 
d="M1025 1294q-101 -92 -246 -92t-216 92t-41 260h197q-16 -93 5 -135.5t83 -42.5q63 0 100 43t54 135h196q-32 -169 -132 -260zM969 844l37 209h272l-174 -996q-38 -210 -207 -337q-170 -128 -412 -128q-243 0 -371 117t-96 309h279q-18 -113 35 -163t190 -50q133 0 207 76
t105 246l24 141q-69 -106 -170.5 -164.5t-220.5 -58.5q-208 0 -308 145q-102 143 -61 373q40 232 193 377q152 143 360 143q123 0 207 -62.5t111 -176.5zM602 262q132 0 206.5 72.5t100.5 226.5q29 158 -19 229.5t-181 71.5q-139 0 -214 -71.5t-104 -229.5
q-29 -156 21.5 -227.5t189.5 -71.5z" />
    <glyph glyph-name="gcaron.salt" horiz-adv-x="1335" 
d="M958 1210h-366l-125 344h240l79 -280l179 280h239zM969 844l37 209h272l-174 -996q-38 -210 -207 -337q-170 -128 -412 -128q-243 0 -371 117t-96 309h279q-18 -113 35 -163t190 -50q133 0 207 76t105 246l24 141q-69 -106 -170.5 -164.5t-220.5 -58.5q-208 0 -308 145
q-102 143 -61 373q40 232 193 377q152 143 360 143q123 0 207 -62.5t111 -176.5zM602 262q132 0 206.5 72.5t100.5 226.5q29 158 -19 229.5t-181 71.5q-139 0 -214 -71.5t-104 -229.5q-29 -156 21.5 -227.5t189.5 -71.5z" />
    <glyph glyph-name="gcircumflex.salt" horiz-adv-x="1335" 
d="M911 1210l-80 279l-180 -279h-237l243 344h369l123 -344h-238zM969 844l37 209h272l-174 -996q-38 -210 -207 -337q-170 -128 -412 -128q-243 0 -371 117t-96 309h279q-18 -113 35 -163t190 -50q133 0 207 76t105 246l24 141q-69 -106 -170.5 -164.5t-220.5 -58.5
q-208 0 -308 145q-102 143 -61 373q40 232 193 377q152 143 360 143q123 0 207 -62.5t111 -176.5zM602 262q132 0 206.5 72.5t100.5 226.5q29 158 -19 229.5t-181 71.5q-139 0 -214 -71.5t-104 -229.5q-29 -156 21.5 -227.5t189.5 -71.5z" />
    <glyph glyph-name="uni0123.salt" horiz-adv-x="1335" 
d="M807 1423l129 -53l-27 -160h-284l34 197q19 117 117 183q97 65 242 65l-21 -115q-171 0 -190 -117zM969 844l37 209h272l-174 -996q-38 -210 -207 -337q-170 -128 -412 -128q-243 0 -371 117t-96 309h279q-18 -113 35 -163t190 -50q133 0 207 76t105 246l24 141
q-69 -106 -170.5 -164.5t-220.5 -58.5q-208 0 -308 145q-102 143 -61 373q40 232 193 377q152 143 360 143q123 0 207 -62.5t111 -176.5zM602 262q132 0 206.5 72.5t100.5 226.5q29 158 -19 229.5t-181 71.5q-139 0 -214 -71.5t-104 -229.5q-29 -156 21.5 -227.5
t189.5 -71.5z" />
    <glyph glyph-name="gdotaccent.salt" horiz-adv-x="1335" 
d="M682 1522h303l-47 -271h-303zM969 844l37 209h272l-174 -996q-38 -210 -207 -337q-170 -128 -412 -128q-243 0 -371 117t-96 309h279q-18 -113 35 -163t190 -50q133 0 207 76t105 246l24 141q-69 -106 -170.5 -164.5t-220.5 -58.5q-208 0 -308 145q-102 143 -61 373
q40 232 193 377q152 143 360 143q123 0 207 -62.5t111 -176.5zM602 262q132 0 206.5 72.5t100.5 226.5q29 158 -19 229.5t-181 71.5q-139 0 -214 -71.5t-104 -229.5q-29 -156 21.5 -227.5t189.5 -71.5z" />
    <glyph glyph-name="l.salt" horiz-adv-x="579" 
d="M57 0l275 1554h282l-274 -1554h-283z" />
    <glyph glyph-name="lacute.salt" horiz-adv-x="579" 
d="M377 1645l180 344h283l-256 -344h-207zM57 0l275 1554h282l-274 -1554h-283z" />
    <glyph glyph-name="lcaron.salt" horiz-adv-x="579" 
d="M57 0l275 1554h282l-274 -1554h-283zM735 1395l29 159h276l-34 -196q-19 -118 -115 -186q-97 -68 -238 -68l21 115q162 0 182 120z" />
    <glyph glyph-name="uni013C.salt" horiz-adv-x="579" 
d="M57 0l275 1554h282l-274 -1554h-283zM2 -313l29 159h276l-35 -196q-20 -119 -115 -187q-95 -67 -237 -67l21 115q162 0 182 122z" />
    <glyph glyph-name="ldot.salt" horiz-adv-x="835" 
d="M57 0l275 1554h282l-274 -1554h-283zM535 618l51 289h286l-51 -289h-286z" />
    <glyph glyph-name="lslash.salt" horiz-adv-x="589" 
d="M498 889l194 133l-43 -256l-196 -133l-113 -633h-283l88 500l-151 -101l45 256l151 101l142 798h282z" />
    <glyph glyph-name="y.salt" horiz-adv-x="1175" 
d="M618 352l347 701h286l-710 -1440h-277l189 387h-197l-147 1053h294l95 -701l18 -237z" />
    <glyph glyph-name="yacute.salt" horiz-adv-x="1175" 
d="M772 1554h283l-256 -344h-207zM618 352l347 701h286l-710 -1440h-277l189 387h-197l-147 1053h294l95 -701l18 -237z" />
    <glyph glyph-name="ycircumflex.salt" horiz-adv-x="1175" 
d="M836 1210l-80 279l-181 -279h-237l244 344h368l123 -344h-237zM618 352l347 701h286l-710 -1440h-277l189 387h-197l-147 1053h294l95 -701l18 -237z" />
    <glyph glyph-name="ydieresis.salt" horiz-adv-x="1175" 
d="M434 1522h271l-48 -271h-270zM813 1522h270l-47 -271h-272zM618 352l347 701h286l-710 -1440h-277l189 387h-197l-147 1053h294l95 -701l18 -237z" />
    <glyph glyph-name="ygrave.salt" horiz-adv-x="1175" 
d="M750 1554l61 -344h-207l-137 344h283zM618 352l347 701h286l-710 -1440h-277l189 387h-197l-147 1053h294l95 -701l18 -237z" />
    <glyph glyph-name="uni0233.salt" horiz-adv-x="1175" 
d="M463 1499h581l-36 -219h-584zM618 352l347 701h286l-710 -1440h-277l189 387h-197l-147 1053h294l95 -701l18 -237z" />
    <glyph glyph-name="uni1EF9.salt" horiz-adv-x="1175" 
d="M582 1333q-88 0 -107 -90h-147q27 141 99.5 217t182.5 76q65 0 148 -47t131 -47q45 0 71.5 24t30.5 66h148q-23 -142 -94.5 -217.5t-184.5 -75.5q-65 0 -147 47q-83 47 -131 47zM618 352l347 701h286l-710 -1440h-277l189 387h-197l-147 1053h294l95 -701l18 -237z" />
    <glyph glyph-name="z.ss03" horiz-adv-x="1042" 
d="M868 0h-876l65 375l779 463l-222 -11h-467l41 226h856l-67 -381l-766 -457l209 10h487z" />
    <glyph glyph-name="zacute.ss03" horiz-adv-x="1042" 
d="M528 1210l181 344h282l-256 -344h-207zM868 0h-876l65 375l779 463l-222 -11h-467l41 226h856l-67 -381l-766 -457l209 10h487z" />
    <glyph glyph-name="zcaron.ss03" horiz-adv-x="1042" 
d="M821 1210h-366l-125 344h239l80 -280l178 280h240zM614 827h-467l41 226h856l-67 -381l-766 -457l209 10h487l-39 -225h-876l65 375l779 463z" />
    <glyph glyph-name="zdotaccent.ss03" horiz-adv-x="1042" 
d="M498 1251l47 271h303l-47 -271h-303zM868 0h-876l65 375l779 463l-222 -11h-467l41 226h856l-67 -381l-766 -457l209 10h487z" />
    <glyph glyph-name="f_f_j.dlig" horiz-adv-x="2107" 
d="M1333 1053h713l-193 -1098q-29 -163 -147 -264q-118 -99 -285 -99q-86 0 -155 21l34 205h115q73 0 109.5 37t50.5 127l149 852h-430l-145 -834h-283l148 834h-457l-147 -834h-283l145 834h-202l39 219h202l23 125q28 160 155 258q125 98 299 98q124 0 222 -18l-37 -207
h-187q-80 0 -119.5 -36t-54.5 -124l-16 -96h457l28 166q28 160 154 258q125 98 301 98q121 0 195 -23l-37 -202h-162q-80 0 -119 -36t-55 -124zM1788 1251l53 295h303l-53 -295h-303z" />
    <glyph glyph-name="f_iacute.dlig" horiz-adv-x="1357" 
d="M594 1053h713l-185 -1053h-284l147 834h-430l-145 -834h-283l145 834h-202l39 219h202l29 166q28 160 155 258t302 98q125 0 211 -21l-37 -204h-178q-80 0 -119 -36t-56 -124zM1264 1554h282l-258 -344h-207z" />
    <glyph glyph-name="f_j.dlig" horiz-adv-x="1368" 
d="M594 1053h713l-193 -1098q-28 -163 -147 -264q-119 -99 -285 -99q-86 0 -156 21l37 205h115q72 0 107.5 36.5t50.5 127.5l149 852h-430l-145 -834h-283l147 834h-204l39 219h204l29 166q28 160 154 258q125 98 301 98q117 0 194 -21l-37 -204h-161q-80 0 -119 -36
t-56 -124zM1049 1251l53 295h303l-51 -295h-305z" />
    <glyph glyph-name="f_t.dlig" horiz-adv-x="1642" 
d="M1661 834h-379l-82 -469q-14 -88 13 -124t110 -36h229l-34 -205q-140 -20 -277 -20q-176 0 -266 94t-64 250l90 510h-446l-145 -834h-283l145 834h-202l39 219h202l29 166q28 160 155 258t300 98q133 0 223 -21l-35 -204h-190q-80 0 -120 -36t-55 -124l-24 -137h448
l64 309h270l-55 -309h379z" />
    <glyph glyph-name="t_t.dlig" horiz-adv-x="1677" 
d="M1696 834h-379l-82 -469q-14 -88 13 -124t108 -36h231l-35 -205q-146 -20 -276 -20q-176 0 -267 94t-63 250l88 510h-483l-84 -469q-14 -88 13 -124t108 -36h203l-35 -205q-126 -20 -248 -20q-176 0 -266 94t-64 250l88 510h-205l39 219h207l58 268h272l-47 -268h485
l64 309h272l-55 -309h377z" />
    <glyph glyph-name="f_f_l.liga.salt" horiz-adv-x="2117" 
d="M1659 1053l-39 -219h-324l-147 -834h-283l146 834h-455l-147 -834h-283l147 834h-204l39 219h202l35 192q51 289 410 289q144 0 239 -21l-37 -204h-188q-80 0 -108 -24q-29 -26 -44 -103l-22 -129h455l41 233q51 289 409 289q144 0 256 -23l-35 -202h-206q-81 0 -109 -25
q-30 -27 -43 -102l-31 -170h326zM1593 0l275 1554h282l-274 -1554h-283z" />
    <glyph glyph-name="uniFB02.aalt" horiz-adv-x="1378" 
d="M920 1053l-39 -219h-326l-145 -834h-283l145 834h-202l39 219h202l29 166q28 160 155 258t302 98q140 0 221 -23l-35 -202h-190q-80 0 -119 -36t-56 -124l-24 -137h326zM854 0l274 1554h283l-272 -1554h-285z" />
    <glyph glyph-name="A.c2sc" horiz-adv-x="1280" 
d="M1165 0h-276l-43 252h-490l-133 -252h-282l563 1083h481zM631 776l-160 -305h338l-51 305l-27 209z" />
    <glyph glyph-name="Aacute.aalt" horiz-adv-x="1280" 
d="M842 1554h282l-256 -344h-206zM1165 0h-276l-43 252h-490l-133 -252h-282l563 1083h481zM631 776l-160 -305h338l-51 305l-27 209z" />
    <glyph glyph-name="Abreve.aalt" horiz-adv-x="1280" 
d="M1021 1294q-101 -92 -246 -92q-146 0 -217 92q-71 93 -40 260h197q-16 -93 5 -135.5t83 -42.5q63 0 100 43t53 135h197q-32 -169 -132 -260zM1165 0h-276l-43 252h-490l-133 -252h-282l563 1083h481zM631 776l-160 -305h338l-51 305l-27 209z" />
    <glyph glyph-name="Acircumflex.aalt" horiz-adv-x="1280" 
d="M907 1210l-80 279l-180 -279h-237l243 344h369l123 -344h-238zM1165 0h-276l-43 252h-490l-133 -252h-282l563 1083h481zM631 776l-160 -305h338l-51 305l-27 209z" />
    <glyph glyph-name="Adieresis.aalt" horiz-adv-x="1280" 
d="M504 1522h270l-47 -271h-270zM883 1522h270l-47 -271h-272zM1165 0h-276l-43 252h-490l-133 -252h-282l563 1083h481zM631 776l-160 -305h338l-51 305l-27 209z" />
    <glyph glyph-name="uni1EA0.aalt" horiz-adv-x="1280" 
d="M985 1083l180 -1083h-276l-43 252h-490l-133 -252h-282l563 1083h481zM631 776l-160 -305h338l-51 305l-27 209zM641 -418h-303l47 264h303z" />
    <glyph glyph-name="Agrave.aalt" horiz-adv-x="1280" 
d="M821 1554l62 -344h-207l-137 344h282zM1165 0h-276l-43 252h-490l-133 -252h-282l563 1083h481zM631 776l-160 -305h338l-51 305l-27 209z" />
    <glyph glyph-name="Amacron.aalt" horiz-adv-x="1280" 
d="M535 1499h581l-37 -219h-583zM1165 0h-276l-43 252h-490l-133 -252h-282l563 1083h481zM631 776l-160 -305h338l-51 305l-27 209z" />
    <glyph glyph-name="Aogonek.aalt" horiz-adv-x="1280" 
d="M1073 0l-160 -162q-42 -44 -47 -74q-6 -43 56 -43h118l-30 -165h-242q-78 0 -116 37.5t-27 101.5q13 76 92 147l172 158l-43 252h-490l-133 -252h-282l563 1083h481l180 -1083h-92zM631 776l-160 -305h338l-51 305l-27 209z" />
    <glyph glyph-name="Aring.aalt" horiz-adv-x="1280" 
d="M774 1202q-92 0 -139 49t-33 131q12 82 78 132q64 49 158 49q90 0 138 -49.5t36 -131.5q-13 -81 -81 -131q-67 -49 -157 -49zM725 1382q-6 -36 11 -54t57 -17q79 0 94 71q12 72 -68 72q-81 0 -94 -72zM1165 0h-276l-43 252h-490l-133 -252h-282l563 1083h481zM631 776
l-160 -305h338l-51 305l-27 209z" />
    <glyph glyph-name="Aringacute.aalt" horiz-adv-x="1280" 
d="M760 1202q-92 0 -139.5 49t-32.5 131q12 82 78 132q64 49 157 49q13 0 25 -2l92 178h217l-192 -228q45 -51 32 -129q-13 -81 -80 -131q-67 -49 -157 -49zM711 1382q-6 -36 10.5 -54t56.5 -17q82 0 95 72q12 71 -68 71q-81 0 -94 -72zM1165 0h-276l-43 252h-490l-133 -252
h-282l563 1083h481zM631 776l-160 -305h338l-51 305l-27 209z" />
    <glyph glyph-name="Atilde.aalt" horiz-adv-x="1280" 
d="M651 1333q-88 0 -106 -90h-148q27 142 99.5 217.5t183.5 75.5q65 0 148 -47q82 -47 130 -47q45 0 72 24t31 66h147q-23 -141 -95 -217t-183 -76q-65 0 -148 47t-131 47zM504 1083h481l180 -1083h-276l-43 252h-490l-133 -252h-282zM631 776l-160 -305h338l-51 305
l-27 209z" />
    <glyph glyph-name="AE.aalt" horiz-adv-x="1714" 
d="M1704 1083l-39 -223h-647l35 -213h557l-35 -201h-488l37 -223h430l-38 -223h-633l-43 252h-492l-131 -252h-276l563 1083h1200zM623 776l-160 -305h340l-53 305l-25 211z" />
    <glyph glyph-name="AEacute.aalt" horiz-adv-x="1714" 
d="M1100 1554h282l-256 -344h-206zM1704 1083l-39 -223h-647l35 -213h557l-35 -201h-488l37 -223h430l-38 -223h-633l-43 252h-492l-131 -252h-276l563 1083h1200zM623 776l-160 -305h340l-53 305l-25 211z" />
    <glyph glyph-name="B.aalt" horiz-adv-x="1230" 
d="M1186 819q-14 -88 -86 -148.5t-189 -82.5q126 -29 184 -103t38 -184q-22 -135 -139 -218q-118 -83 -285 -83h-629l190 1083h607q162 0 246 -72q83 -73 63 -192zM748 879h-232l-43 -248h232q161 0 180 129q10 63 -21.5 91t-115.5 28zM844 326q12 70 -19.5 100.5
t-115.5 30.5h-267l-43 -252h265q161 0 180 121z" />
    <glyph glyph-name="C.aalt" horiz-adv-x="1263" 
d="M98 537q46 255 229 412q182 155 433 155q231 0 351 -125q120 -124 85 -330h-285q20 120 -24.5 172.5t-167.5 52.5q-139 0 -217 -80.5t-111 -256.5q-29 -178 20.5 -258t188.5 -80q124 0 188 47t80 151h287q-34 -193 -197 -310q-163 -118 -399 -118q-251 0 -379 156
q-127 155 -82 412z" />
    <glyph glyph-name="Cacute.aalt" horiz-adv-x="1263" 
d="M668 1210l180 344h282l-256 -344h-206zM98 537q46 255 229 412q182 155 433 155q231 0 351 -125q120 -124 85 -330h-285q20 120 -24.5 172.5t-167.5 52.5q-139 0 -217 -80.5t-111 -256.5q-29 -178 20.5 -258t188.5 -80q124 0 188 47t80 151h287q-34 -193 -197 -310
q-163 -118 -399 -118q-251 0 -379 156q-127 155 -82 412z" />
    <glyph glyph-name="Ccaron.aalt" horiz-adv-x="1263" 
d="M963 1210h-367l-125 344h240l80 -280l178 280h239zM760 1104q231 0 351 -125q120 -124 85 -330h-285q20 120 -24.5 172.5t-167.5 52.5q-139 0 -217 -80.5t-111 -256.5q-29 -178 20.5 -258t188.5 -80q124 0 188 47t80 151h287q-34 -193 -197 -310q-163 -118 -399 -118
q-251 0 -379 156q-127 155 -82 412q46 255 229 412q182 155 433 155z" />
    <glyph glyph-name="Ccedilla.aalt" horiz-adv-x="1263" 
d="M1196 649h-285q20 120 -24.5 172.5t-167.5 52.5q-139 0 -217 -80.5t-111 -256.5q-29 -178 20.5 -258t188.5 -80q124 0 188 47t80 151h287q-31 -178 -175 -293q-145 -117 -357 -133l-37 -77h41q81 0 123.5 -45t27.5 -117q-14 -80 -77 -128q-65 -48 -154 -48h-207l25 135
h151q61 0 68 43q4 23 -7.5 33t-44.5 10h-135l21 112l47 86q-209 29 -307 181q-99 152 -60 381q46 255 229 412q182 155 433 155q231 0 351 -125q120 -124 85 -330z" />
    <glyph glyph-name="Ccircumflex.aalt" horiz-adv-x="1263" 
d="M913 1210l-79 279l-181 -279h-237l243 344h369l123 -344h-238zM1196 649h-285q20 120 -24.5 172.5t-167.5 52.5q-139 0 -217 -80.5t-111 -256.5q-29 -178 20.5 -258t188.5 -80q124 0 188 47t80 151h287q-34 -193 -197 -310q-163 -118 -399 -118q-251 0 -379 156
q-127 155 -82 412q46 255 229 412q182 155 433 155q231 0 351 -125q120 -124 85 -330z" />
    <glyph glyph-name="Cdotaccent.aalt" horiz-adv-x="1263" 
d="M637 1251l47 271h303l-47 -271h-303zM98 537q46 255 229 412q182 155 433 155q231 0 351 -125q120 -124 85 -330h-285q20 120 -24.5 172.5t-167.5 52.5q-139 0 -217 -80.5t-111 -256.5q-29 -178 20.5 -258t188.5 -80q124 0 188 47t80 151h287q-34 -193 -197 -310
q-163 -118 -399 -118q-251 0 -379 156q-127 155 -82 412z" />
    <glyph glyph-name="D.aalt" horiz-adv-x="1355" 
d="M270 1083h512q257 0 391 -149q132 -150 89 -391q-44 -245 -227 -393q-184 -150 -443 -150h-512zM967 543q31 164 -30.5 240.5t-223.5 76.5h-199l-113 -637h199q161 0 249.5 77.5t117.5 242.5z" />
    <glyph glyph-name="Eth.aalt" horiz-adv-x="1355" 
d="M270 1083h512q257 0 391 -149q132 -150 89 -391q-44 -245 -227 -393q-184 -150 -443 -150h-512l80 455h-137l32 184h138zM967 543q31 164 -30.5 240.5t-223.5 76.5h-199l-39 -221h266l-32 -184h-267l-41 -232h199q161 0 249.5 77.5t117.5 242.5z" />
    <glyph glyph-name="Dcaron.aalt" horiz-adv-x="1355" 
d="M979 1210h-367l-125 344h240l80 -280l178 280h240zM270 1083h512q257 0 391 -149q132 -150 89 -391q-44 -245 -227 -393q-184 -150 -443 -150h-512zM967 543q31 164 -30.5 240.5t-223.5 76.5h-199l-113 -637h199q161 0 249.5 77.5t117.5 242.5z" />
    <glyph glyph-name="Dcroat.aalt" horiz-adv-x="1355" 
d="M270 1083h512q257 0 391 -149q132 -150 89 -391q-44 -245 -227 -393q-184 -150 -443 -150h-512l80 455h-137l32 184h138zM967 543q31 164 -30.5 240.5t-223.5 76.5h-199l-39 -221h266l-32 -184h-267l-41 -232h199q161 0 249.5 77.5t117.5 242.5z" />
    <glyph glyph-name="E.aalt" horiz-adv-x="1114" 
d="M1104 1083l-41 -223h-549l-37 -213h533l-35 -201h-535l-39 -223h551l-37 -223h-835l190 1083h834z" />
    <glyph glyph-name="Eacute.aalt" horiz-adv-x="1114" 
d="M768 1554h283l-256 -344h-207zM1104 1083l-41 -223h-549l-37 -213h533l-35 -201h-535l-39 -223h551l-37 -223h-835l190 1083h834z" />
    <glyph glyph-name="Ebreve.aalt" horiz-adv-x="1114" 
d="M947 1294q-101 -92 -246 -92t-216 92t-41 260h197q-16 -92 5.5 -135t82.5 -43q63 0 100 43t54 135h196q-32 -169 -132 -260zM1104 1083l-41 -223h-549l-37 -213h533l-35 -201h-535l-39 -223h551l-37 -223h-835l190 1083h834z" />
    <glyph glyph-name="Ecaron.aalt" horiz-adv-x="1114" 
d="M883 1210h-367l-125 344h240l80 -280l178 280h239zM270 1083h834l-41 -223h-549l-37 -213h533l-35 -201h-535l-39 -223h551l-37 -223h-835z" />
    <glyph glyph-name="Ecircumflex.aalt" horiz-adv-x="1114" 
d="M834 1210l-80 279l-181 -279h-237l244 344h368l123 -344h-237zM1104 1083l-41 -223h-549l-37 -213h533l-35 -201h-535l-39 -223h551l-37 -223h-835l190 1083h834z" />
    <glyph glyph-name="Edieresis.aalt" horiz-adv-x="1114" 
d="M430 1522h270l-47 -271h-270zM809 1522h270l-47 -271h-272zM1104 1083l-41 -223h-549l-37 -213h533l-35 -201h-535l-39 -223h551l-37 -223h-835l190 1083h834z" />
    <glyph glyph-name="Edotaccent.aalt" horiz-adv-x="1114" 
d="M604 1522h303l-47 -271h-303zM1104 1083l-41 -223h-549l-37 -213h533l-35 -201h-535l-39 -223h551l-37 -223h-835l190 1083h834z" />
    <glyph glyph-name="uni1EB8.aalt" horiz-adv-x="1114" 
d="M1104 1083l-41 -223h-549l-37 -213h533l-35 -201h-535l-39 -223h551l-37 -223h-835l190 1083h834zM602 -418h-303l47 264h303z" />
    <glyph glyph-name="Egrave.aalt" horiz-adv-x="1114" 
d="M748 1554l61 -344h-207l-137 344h283zM1104 1083l-41 -223h-549l-37 -213h533l-35 -201h-535l-39 -223h551l-37 -223h-835l190 1083h834z" />
    <glyph glyph-name="Emacron.aalt" horiz-adv-x="1114" 
d="M461 1499h581l-36 -219h-584zM1104 1083l-41 -223h-549l-37 -213h533l-35 -201h-535l-39 -223h551l-37 -223h-835l190 1083h834z" />
    <glyph glyph-name="Eogonek.aalt" horiz-adv-x="1114" 
d="M1104 1083l-41 -223h-549l-37 -213h533l-35 -201h-535l-39 -223h551l-37 -223h-2l-159 -162q-42 -44 -47 -74q-3 -22 10.5 -32.5t44.5 -10.5h119l-31 -165h-242q-77 0 -115 37.5t-28 101.5q13 76 92 147l172 158h-649l190 1083h834z" />
    <glyph glyph-name="uni1EBC.aalt" horiz-adv-x="1114" 
d="M578 1333q-87 0 -107 -90h-147q27 141 99.5 217t182.5 76q65 0 148 -47t131 -47q45 0 71.5 24t30.5 66h148q-23 -142 -94.5 -217.5t-184.5 -75.5q-65 0 -147 47q-83 47 -131 47zM270 1083h834l-41 -223h-549l-37 -213h533l-35 -201h-535l-39 -223h551l-37 -223h-835z" />
    <glyph glyph-name="uni018F.aalt" horiz-adv-x="1282" 
d="M735 1104q248 0 373 -155q125 -156 80 -412t-226 -412t-434 -156q-238 0 -359 136q-122 136 -83 356l20 123h797q20 153 -31.5 224t-183.5 71q-238 0 -268 -187h-281q33 184 197 298t399 114zM569 195q218 0 295 221l-497 -2q-10 -115 37.5 -167t164.5 -52z" />
    <glyph glyph-name="F.aalt" horiz-adv-x="1069" 
d="M1096 1083l-41 -223h-541l-37 -213h524l-34 -201h-527l-78 -446h-282l190 1083h826z" />
    <glyph glyph-name="G.aalt" horiz-adv-x="1333" 
d="M1231 680h-285q20 102 -31 148t-184 46q-145 0 -226 -80t-114 -259q-29 -176 22.5 -256t196.5 -80q124 0 194 47t97 151h-280l32 181h568l-103 -578h-241l51 297q-54 -157 -165 -242.5t-269 -85.5q-221 0 -332 153q-111 152 -66 404q46 261 232 420q185 158 442 158
q242 0 369 -117q127 -116 92 -307z" />
    <glyph glyph-name="Gbreve.aalt" horiz-adv-x="1333" 
d="M1037 1294q-101 -92 -246 -92t-216 92q-71 93 -40 260h196q-16 -92 5.5 -135t82.5 -43q63 0 100 43t54 135h196q-32 -169 -132 -260zM1231 680h-285q20 102 -31 148t-184 46q-145 0 -226 -80t-114 -259q-29 -176 22.5 -256t196.5 -80q124 0 194 47t97 151h-280l32 181
h568l-103 -578h-241l51 297q-54 -157 -165 -242.5t-269 -85.5q-221 0 -332 153q-111 152 -66 404q46 261 232 420q185 158 442 158q242 0 369 -117q127 -116 92 -307z" />
    <glyph glyph-name="Gcaron.aalt" horiz-adv-x="1333" 
d="M973 1210h-367l-125 344h240l80 -280l178 280h240zM1231 680h-285q20 102 -31 148t-184 46q-145 0 -226 -80t-114 -259q-29 -176 22.5 -256t196.5 -80q124 0 194 47t97 151h-280l32 181h568l-103 -578h-241l51 297q-54 -157 -165 -242.5t-269 -85.5q-221 0 -332 153
q-111 152 -66 404q46 261 232 420q185 158 442 158q242 0 369 -117q127 -116 92 -307z" />
    <glyph glyph-name="Gcircumflex.aalt" horiz-adv-x="1333" 
d="M924 1210l-80 279l-180 -279h-238l244 344h368l123 -344h-237zM1231 680h-285q20 102 -31 148t-184 46q-145 0 -226 -80t-114 -259q-29 -176 22.5 -256t196.5 -80q124 0 194 47t97 151h-280l32 181h568l-103 -578h-241l51 297q-54 -157 -165 -242.5t-269 -85.5
q-221 0 -332 153q-111 152 -66 404q46 261 232 420q185 158 442 158q242 0 369 -117q127 -116 92 -307z" />
    <glyph glyph-name="uni0122.aalt" horiz-adv-x="1333" 
d="M1231 680h-285q20 102 -31 148t-184 46q-145 0 -226 -80t-114 -259q-29 -176 22.5 -256t196.5 -80q124 0 194 47t97 151h-280l32 181h568l-103 -578h-241l51 297q-54 -157 -165 -242.5t-269 -85.5q-221 0 -332 153q-111 152 -66 404q46 261 232 420q185 158 442 158
q242 0 369 -117q127 -116 92 -307zM514 -367l-121 54l29 159h276l-34 -196q-20 -119 -115 -187q-95 -67 -238 -67l21 115q162 0 182 122z" />
    <glyph glyph-name="Gdotaccent.aalt" horiz-adv-x="1333" 
d="M694 1522h303l-47 -271h-303zM1231 680h-285q20 102 -31 148t-184 46q-145 0 -226 -80t-114 -259q-29 -176 22.5 -256t196.5 -80q124 0 194 47t97 151h-280l32 181h568l-103 -578h-241l51 297q-54 -157 -165 -242.5t-269 -85.5q-221 0 -332 153q-111 152 -66 404
q46 261 232 420q185 158 442 158q242 0 369 -117q127 -116 92 -307z" />
    <glyph glyph-name="H.aalt" horiz-adv-x="1398" 
d="M969 659l73 424h283l-190 -1083h-283l76 436h-490l-76 -436h-282l190 1083h283l-74 -424h490z" />
    <glyph glyph-name="Hbar.aalt" horiz-adv-x="1398" 
d="M1303 950h120l-28 -159h-121l-139 -791h-283l76 436h-490l-76 -436h-282l139 791h-125l29 159h125l22 133h283l-23 -133h490l22 133h283zM479 659h490l22 132h-489z" />
    <glyph glyph-name="Hcircumflex.aalt" horiz-adv-x="1398" 
d="M942 1210l-80 279l-180 -279h-238l244 344h369l123 -344h-238zM969 659l73 424h283l-190 -1083h-283l76 436h-490l-76 -436h-282l190 1083h283l-74 -424h490z" />
    <glyph glyph-name="i.aalt" horiz-adv-x="626" 
d="M80 0l190 1083h283l-191 -1083h-282z" />
    <glyph glyph-name="iacute.aalt" horiz-adv-x="626" 
d="M322 1210l180 344h282l-256 -344h-206zM80 0l190 1083h283l-191 -1083h-282z" />
    <glyph glyph-name="ibreve.aalt" horiz-adv-x="626" 
d="M616 1554h197q-32 -169 -132 -260q-101 -92 -246 -92q-146 0 -217 92q-71 93 -40 260h197q-16 -93 5 -135.5t83 -42.5q63 0 100 43t53 135zM80 0l190 1083h283l-191 -1083h-282z" />
    <glyph glyph-name="icircumflex.aalt" horiz-adv-x="626" 
d="M313 1554h369l123 -344h-238l-80 279l-180 -279h-237zM362 0h-282l190 1083h283z" />
    <glyph glyph-name="idieresis.aalt" horiz-adv-x="626" 
d="M117 1251l47 271h270l-47 -271h-270zM494 1251l49 271h270l-47 -271h-272zM80 0l190 1083h283l-191 -1083h-282z" />
    <glyph glyph-name="Idotaccent.c2sc" horiz-adv-x="626" 
d="M291 1251l47 271h303l-47 -271h-303zM80 0l190 1083h283l-191 -1083h-282z" />
    <glyph glyph-name="uni1ECB.aalt" horiz-adv-x="626" 
d="M80 0l190 1083h283l-191 -1083h-282zM-4 -418l47 264h303l-47 -264h-303z" />
    <glyph glyph-name="igrave.aalt" horiz-adv-x="626" 
d="M199 1554h282l62 -344h-207zM80 0l190 1083h283l-191 -1083h-282z" />
    <glyph glyph-name="IJ.aalt" horiz-adv-x="1161" 
d="M115 201h393q169 0 197 166l126 716h283l-129 -733q-31 -173 -171 -277t-359 -104q-225 0 -375 33zM154 397l120 686h283l-121 -686h-282z" />
    <glyph glyph-name="imacron.aalt" horiz-adv-x="626" 
d="M195 1499h581l-37 -219h-583zM80 0l190 1083h283l-191 -1083h-282z" />
    <glyph glyph-name="iogonek.aalt" horiz-adv-x="626" 
d="M362 0l-159 -162q-42 -44 -47 -74q-3 -22 10.5 -32.5t44.5 -10.5h119l-31 -165h-242q-77 0 -115 37.5t-28 101.5q17 78 92 147l172 158h-98l190 1083h283z" />
    <glyph glyph-name="itilde.aalt" horiz-adv-x="626" 
d="M590 1239q-65 0 -148 47t-131 47q-88 0 -106 -90h-148q27 142 99.5 217.5t183.5 75.5q65 0 148 -47q82 -47 130 -47q45 0 72 24t31 66h147q-23 -142 -94 -217.5t-184 -75.5zM80 0l190 1083h283l-191 -1083h-282z" />
    <glyph glyph-name="J.aalt" horiz-adv-x="1069" 
d="M-14 406h278q-18 -110 14.5 -158.5t127.5 -48.5q92 0 142 45t68 145l121 694h285l-127 -716q-31 -179 -177 -288q-148 -110 -353 -110t-308 120q-104 119 -71 317z" />
    <glyph glyph-name="Jcircumflex.aalt" horiz-adv-x="1069" 
d="M776 1554h369l123 -344h-238l-80 279l-180 -279h-238zM616 389l121 694h285l-127 -716q-31 -179 -177 -288q-148 -110 -353 -110t-308 120q-104 119 -71 317h278q-18 -110 14.5 -158.5t127.5 -48.5q92 0 142 45t68 145z" />
    <glyph glyph-name="K.aalt" horiz-adv-x="1292" 
d="M1034 1083h332l-604 -536l438 -547h-344l-272 352l-129 172l-93 -524h-282l190 1083h283l-92 -520l188 174z" />
    <glyph glyph-name="uni0136.aalt" horiz-adv-x="1292" 
d="M1034 1083h332l-604 -536l438 -547h-344l-272 352l-129 172l-93 -524h-282l190 1083h283l-92 -520l188 174zM520 -367l-121 54l29 159h277l-35 -196q-20 -119 -115 -187q-95 -67 -238 -67l21 115q162 0 182 122z" />
    <glyph glyph-name="L.aalt" horiz-adv-x="1026" 
d="M553 1083l-152 -860h545l-37 -223h-829l190 1083h283z" />
    <glyph glyph-name="Lacute.aalt" horiz-adv-x="1026" 
d="M502 1554h282l-256 -344h-206zM553 1083l-152 -860h545l-37 -223h-829l190 1083h283z" />
    <glyph glyph-name="Lcaron.aalt" horiz-adv-x="1026" 
d="M270 1083h283l-152 -860h545l-37 -223h-829zM684 924l29 159h276l-35 -196q-19 -118 -115 -186q-97 -68 -237 -68l21 115q163 0 182 120z" />
    <glyph glyph-name="uni013B.aalt" horiz-adv-x="1026" 
d="M553 1083l-152 -860h545l-37 -223h-829l190 1083h283zM416 -367l-121 54l29 159h276l-35 -196q-20 -119 -115 -187q-95 -67 -237 -67l20 115q162 0 183 122z" />
    <glyph glyph-name="Ldot.aalt" horiz-adv-x="1026" 
d="M553 1083l-152 -860h545l-37 -223h-829l190 1083h283zM637 803h276l-49 -275h-274z" />
    <glyph glyph-name="Lslash.aalt" horiz-adv-x="1026" 
d="M444 471l-43 -248h545l-37 -223h-829l63 367l-131 -58l35 201l133 57l90 516h283l-72 -413l353 153l-35 -200z" />
    <glyph glyph-name="M.aalt" horiz-adv-x="1796" 
d="M1231 1083h491l-192 -1083h-281l135 772l43 209l-419 -981h-404l-76 991l-32 -219l-136 -772h-280l190 1083h500l61 -759l-4 -222l74 222z" />
    <glyph glyph-name="N.aalt" horiz-adv-x="1478" 
d="M1010 440l112 643h283l-193 -1083h-489l-199 983l-45 -315l-119 -668h-280l190 1083h494l197 -970z" />
    <glyph glyph-name="Nacute.aalt" horiz-adv-x="1478" 
d="M938 1554h283l-256 -344h-207zM1010 440l112 643h283l-193 -1083h-489l-199 983l-45 -315l-119 -668h-280l190 1083h494l197 -970z" />
    <glyph glyph-name="Ncaron.aalt" horiz-adv-x="1478" 
d="M1051 1210h-367l-125 344h240l80 -280l178 280h239zM1010 440l112 643h283l-193 -1083h-489l-199 983l-45 -315l-119 -668h-280l190 1083h494l197 -970z" />
    <glyph glyph-name="uni0145.aalt" horiz-adv-x="1478" 
d="M1010 440l112 643h283l-193 -1083h-489l-199 983l-45 -315l-119 -668h-280l190 1083h494l197 -970zM600 -367l-121 54l29 159h276l-34 -196q-20 -119 -115 -187q-95 -67 -238 -67l21 115q162 0 182 122z" />
    <glyph glyph-name="Eng.aalt" horiz-adv-x="1478" 
d="M1010 440l112 643h283l-193 -1083l-6 -45q-27 -162 -146 -263q-119 -100 -284 -100q-86 0 -155 21l34 205h115q73 0 110 35q35 37 50 129l4 18h-211l-199 983l-45 -315l-119 -668h-280l190 1083h494l197 -970z" />
    <glyph glyph-name="uni019D.aalt" horiz-adv-x="1478" 
d="M1010 440l112 643h283l-193 -1083h-489l-199 983l-45 -315l-119 -668l-8 -45q-27 -163 -145 -263t-285 -100q-88 0 -153 21l34 205h115q73 0 108 38q33 38 54 144l16 94l174 989h494l197 -970z" />
    <glyph glyph-name="Ntilde.aalt" horiz-adv-x="1478" 
d="M748 1333q-88 0 -107 -90h-147q27 141 99.5 217t182.5 76q65 0 148 -47t131 -47q45 0 71.5 24t30.5 66h148q-23 -142 -94.5 -217.5t-184.5 -75.5q-65 0 -147 47q-83 47 -131 47zM1010 440l112 643h283l-193 -1083h-489l-199 983l-45 -315l-119 -668h-280l190 1083h494
l197 -970z" />
    <glyph glyph-name="O.c2sc" horiz-adv-x="1339" 
d="M573 -31q-259 0 -389 157q-131 158 -86 411q45 254 232 411q186 156 442 156q257 0 388 -155q130 -155 85 -412q-45 -253 -230 -411q-185 -157 -442 -157zM612 199q147 0 227.5 79.5t112.5 258.5q31 178 -21 257.5t-198 79.5q-148 0 -229.5 -80t-112.5 -257
q-29 -178 23.5 -258t197.5 -80z" />
    <glyph glyph-name="Oacute.aalt" horiz-adv-x="1339" 
d="M680 1210l180 344h283l-256 -344h-207zM573 -31q-259 0 -389 157q-131 158 -86 411q45 254 232 411q186 156 442 156q257 0 388 -155q130 -155 85 -412q-45 -253 -230 -411q-185 -157 -442 -157zM612 199q147 0 227.5 79.5t112.5 258.5q31 178 -21 257.5t-198 79.5
q-148 0 -229.5 -80t-112.5 -257q-29 -178 23.5 -258t197.5 -80z" />
    <glyph glyph-name="Obreve.aalt" horiz-adv-x="1339" 
d="M973 1554h196q-32 -169 -132 -260q-101 -92 -246 -92t-216 92q-71 93 -40 260h196q-16 -92 5.5 -135t82.5 -43q63 0 100 43t54 135zM573 -31q-259 0 -389 157q-131 158 -86 411q45 254 232 411q186 156 442 156q257 0 388 -155q130 -155 85 -412q-45 -253 -230 -411
q-185 -157 -442 -157zM612 199q147 0 227.5 79.5t112.5 258.5q31 178 -21 257.5t-198 79.5q-148 0 -229.5 -80t-112.5 -257q-29 -178 23.5 -258t197.5 -80z" />
    <glyph glyph-name="Ocircumflex.aalt" horiz-adv-x="1339" 
d="M924 1210l-80 279l-180 -279h-238l244 344h368l123 -344h-237zM772 1104q257 0 388 -155q130 -155 85 -412q-45 -253 -230 -411q-185 -157 -442 -157q-259 0 -389 157q-131 158 -86 411q45 254 232 411q186 156 442 156zM952 537q31 178 -21 257.5t-198 79.5
q-148 0 -229.5 -80t-112.5 -257q-29 -178 23.5 -258t197.5 -80q147 0 227 80t113 258z" />
    <glyph glyph-name="Odieresis.aalt" horiz-adv-x="1339" 
d="M475 1251l47 271h271l-48 -271h-270zM852 1251l49 271h270l-47 -271h-272zM573 -31q-259 0 -389 157q-131 158 -86 411q45 254 232 411q186 156 442 156q257 0 388 -155q130 -155 85 -412q-45 -253 -230 -411q-185 -157 -442 -157zM612 199q147 0 227.5 79.5t112.5 258.5
q31 178 -21 257.5t-198 79.5q-148 0 -229.5 -80t-112.5 -257q-29 -178 23.5 -258t197.5 -80z" />
    <glyph glyph-name="uni1ECC.aalt" horiz-adv-x="1339" 
d="M573 -31q-259 0 -389 157q-131 158 -86 411q45 254 232 411q186 156 442 156q257 0 388 -155q130 -155 85 -412q-45 -253 -230 -411q-185 -157 -442 -157zM612 199q147 0 227.5 79.5t112.5 258.5q31 178 -21 257.5t-198 79.5q-148 0 -229.5 -80t-112.5 -257
q-29 -178 23.5 -258t197.5 -80zM354 -418l47 264h304l-48 -264h-303z" />
    <glyph glyph-name="Ograve.aalt" horiz-adv-x="1339" 
d="M555 1554h283l61 -344h-207zM573 -31q-259 0 -389 157q-131 158 -86 411q45 254 232 411q186 156 442 156q257 0 388 -155q130 -155 85 -412q-45 -253 -230 -411q-185 -157 -442 -157zM612 199q147 0 227.5 79.5t112.5 258.5q31 178 -21 257.5t-198 79.5
q-148 0 -229.5 -80t-112.5 -257q-29 -178 23.5 -258t197.5 -80z" />
    <glyph glyph-name="Ohungarumlaut.aalt" horiz-adv-x="1339" 
d="M535 1210l163 344h234l-191 -344h-206zM834 1210l182 344h282l-258 -344h-206zM573 -31q-259 0 -389 157q-131 158 -86 411q45 254 232 411q186 156 442 156q257 0 388 -155q130 -155 85 -412q-45 -253 -230 -411q-185 -157 -442 -157zM612 199q147 0 227.5 79.5
t112.5 258.5q31 178 -21 257.5t-198 79.5q-148 0 -229.5 -80t-112.5 -257q-29 -178 23.5 -258t197.5 -80z" />
    <glyph glyph-name="Omacron.aalt" horiz-adv-x="1339" 
d="M551 1499h582l-37 -219h-584zM573 -31q-259 0 -389 157q-131 158 -86 411q45 254 232 411q186 156 442 156q257 0 388 -155q130 -155 85 -412q-45 -253 -230 -411q-185 -157 -442 -157zM612 199q147 0 227.5 79.5t112.5 258.5q31 178 -21 257.5t-198 79.5
q-148 0 -229.5 -80t-112.5 -257q-29 -178 23.5 -258t197.5 -80z" />
    <glyph glyph-name="uni01EA.aalt" horiz-adv-x="1339" 
d="M772 1104q257 0 388 -155q130 -155 85 -412q-34 -198 -158 -341q-126 -144 -305 -196l-159 -162q-43 -45 -48 -74q-6 -43 56 -43h119l-31 -165h-242q-77 0 -115 37.5t-28 101.5q13 76 92 147l139 127q-257 5 -384 160q-128 157 -83 408q45 254 232 411q186 156 442 156z
M952 537q31 178 -21 257.5t-198 79.5q-148 0 -229.5 -80t-112.5 -257q-29 -178 23.5 -258t197.5 -80q147 0 227 80t113 258z" />
    <glyph glyph-name="Oslash.aalt" horiz-adv-x="1339" 
d="M1133 1208h225l-213 -243q147 -156 100 -428q-45 -253 -230 -411q-185 -157 -442 -157q-143 0 -251 51l-144 -163h-225l233 266q-133 156 -88 414q45 254 232 411q186 156 442 156q134 0 232 -43zM391 537q-18 -111 -6 -185l446 510q-43 12 -98 12q-148 0 -229.5 -80
t-112.5 -257zM952 537q23 137 0 208l-458 -528q45 -18 118 -18q147 0 227 80t113 258z" />
    <glyph glyph-name="Oslashacute.aalt" horiz-adv-x="1339" 
d="M840 1554h282l-256 -344h-207zM1133 1208h225l-213 -243q147 -156 100 -428q-45 -253 -230 -411q-185 -157 -442 -157q-143 0 -251 51l-144 -163h-225l233 266q-133 156 -88 414q45 254 232 411q186 156 442 156q134 0 232 -43zM391 537q-18 -111 -6 -185l446 510
q-43 12 -98 12q-148 0 -229.5 -80t-112.5 -257zM952 537q23 137 0 208l-458 -528q45 -18 118 -18q147 0 227 80t113 258z" />
    <glyph glyph-name="Otilde.aalt" horiz-adv-x="1339" 
d="M948 1239q-65 0 -147 47q-83 47 -131 47q-88 0 -107 -90h-147q27 141 99.5 217t182.5 76q65 0 148 -47t131 -47q45 0 71.5 24t30.5 66h148q-23 -142 -94.5 -217.5t-184.5 -75.5zM573 -31q-259 0 -389 157q-131 158 -86 411q45 254 232 411q186 156 442 156
q257 0 388 -155q130 -155 85 -412q-45 -253 -230 -411q-185 -157 -442 -157zM612 199q147 0 227.5 79.5t112.5 258.5q31 178 -21 257.5t-198 79.5q-148 0 -229.5 -80t-112.5 -257q-29 -178 23.5 -258t197.5 -80z" />
    <glyph glyph-name="OE.aalt" horiz-adv-x="1816" 
d="M1806 1083l-41 -223h-524l-37 -213h508l-35 -201h-510l-39 -223h529l-39 -223h-1040q-258 0 -389 150q-132 148 -91 393q44 243 229 391q185 149 443 149h1036zM647 223h199l112 637h-198q-162 0 -250 -76t-119 -241q-29 -165 32.5 -242.5t223.5 -77.5z" />
    <glyph glyph-name="P.aalt" horiz-adv-x="1161" 
d="M270 1083h588q168 0 253 -99t57 -261q-29 -162 -155 -260q-127 -98 -306 -98h-281l-66 -365h-280zM874 723q12 72 -21.5 104.5t-121.5 32.5h-217l-49 -276h217q165 0 192 139z" />
    <glyph glyph-name="Thorn.aalt" horiz-adv-x="1150" 
d="M522 907h305q168 0 252 -99q84 -100 56 -263q-27 -161 -153 -259q-127 -98 -306 -98h-283l-33 -188h-280l190 1083h283zM842 545q14 72 -20 104.5t-122 32.5h-219l-49 -274h219q168 0 191 137z" />
    <glyph glyph-name="Q.aalt" horiz-adv-x="1339" 
d="M1245 537q-39 -229 -201 -385l119 -134l-166 -143l-123 160q-136 -66 -303 -66q-257 0 -388 156q-130 155 -85 412q46 255 232 412q185 155 442 155q256 0 387 -156q131 -158 86 -411zM391 537q-31 -178 21.5 -258t199.5 -80q68 0 119 12l-113 131l160 137l113 -141
q42 76 61 199q31 178 -21 257.5t-199 79.5q-149 0 -228 -79q-80 -80 -113 -258z" />
    <glyph glyph-name="R.aalt" horiz-adv-x="1277" 
d="M1184 731q-38 -205 -234 -297l62 -102l164 -332h-324l-182 387h-240l-70 -387h-280l190 1083h604q169 0 254 -97t56 -255zM748 860h-234l-49 -270h235q88 0 132.5 31.5t58.5 103.5q12 72 -21.5 103.5t-121.5 31.5z" />
    <glyph glyph-name="Racute.aalt" horiz-adv-x="1277" 
d="M829 1554h283l-256 -344h-207zM1184 731q-38 -205 -234 -297l62 -102l164 -332h-324l-182 387h-240l-70 -387h-280l190 1083h604q169 0 254 -97t56 -255zM748 860h-234l-49 -270h235q88 0 132.5 31.5t58.5 103.5q12 72 -21.5 103.5t-121.5 31.5z" />
    <glyph glyph-name="Rcaron.aalt" horiz-adv-x="1277" 
d="M942 1210h-367l-124 344h239l80 -280l178 280h240zM1184 731q-38 -205 -234 -297l62 -102l164 -332h-324l-182 387h-240l-70 -387h-280l190 1083h604q169 0 254 -97t56 -255zM748 860h-234l-49 -270h235q88 0 132.5 31.5t58.5 103.5q12 72 -21.5 103.5t-121.5 31.5z" />
    <glyph glyph-name="uni0156.aalt" horiz-adv-x="1277" 
d="M1184 731q-38 -205 -234 -297l62 -102l164 -332h-324l-182 387h-240l-70 -387h-280l190 1083h604q169 0 254 -97t56 -255zM748 860h-234l-49 -270h235q88 0 132.5 31.5t58.5 103.5q12 72 -21.5 103.5t-121.5 31.5zM514 -367l-121 54l29 159h276l-34 -196
q-20 -119 -115 -187q-95 -67 -238 -67l21 115q162 0 182 122z" />
    <glyph glyph-name="S.aalt" horiz-adv-x="1196" 
d="M53 338h285q-14 -84 36 -122t177 -38q223 0 240 105q10 57 -40 86q-50 28 -221 55q-224 35 -314.5 115t-63.5 221q28 154 177 249t365 95q223 0 342 -104q119 -105 90 -275h-284q14 90 -29.5 130t-157.5 40q-203 0 -221 -107q-8 -58 44 -83q54 -28 220 -56
q232 -35 321 -114q88 -80 62 -224q-28 -153 -182 -248q-154 -94 -385 -94q-236 0 -363 102q-127 100 -98 267z" />
    <glyph glyph-name="Sacute.aalt" horiz-adv-x="1196" 
d="M604 1210l180 344h283l-256 -344h-207zM53 338h285q-14 -84 36 -122t177 -38q223 0 240 105q10 57 -40 86q-50 28 -221 55q-224 35 -314.5 115t-63.5 221q28 154 177 249t365 95q223 0 342 -104q119 -105 90 -275h-284q14 90 -29.5 130t-157.5 40q-203 0 -221 -107
q-8 -58 44 -83q54 -28 220 -56q232 -35 321 -114q88 -80 62 -224q-28 -153 -182 -248q-154 -94 -385 -94q-236 0 -363 102q-127 100 -98 267z" />
    <glyph glyph-name="Scaron.aalt" horiz-adv-x="1196" 
d="M897 1210h-367l-124 344h239l80 -280l178 280h240zM694 1104q223 0 342 -104q119 -105 90 -275h-284q14 90 -29.5 130t-157.5 40q-203 0 -221 -107q-8 -58 44 -83q54 -28 220 -56q232 -35 321 -114q88 -80 62 -224q-28 -153 -182 -248q-154 -94 -385 -94q-236 0 -362 102
q-128 101 -99 267h285q-14 -84 36 -122t177 -38q223 0 240 105q10 57 -40 86q-50 28 -221 55q-224 35 -314.5 115t-63.5 221q28 154 177 249t365 95z" />
    <glyph glyph-name="Scedilla.c2sc" horiz-adv-x="1196" 
d="M1126 725h-284q14 90 -29.5 130t-157.5 40q-203 0 -221 -107q-8 -58 44 -83q54 -28 220 -56q232 -35 321 -114q88 -80 62 -224q-27 -143 -162 -234q-134 -91 -341 -106l-37 -77h41q81 0 123.5 -45t27.5 -117q-14 -80 -77 -128q-64 -48 -154 -48h-207l24 135h152
q61 0 68 43q4 23 -7.5 33t-44.5 10h-135l21 112l45 84q-193 22 -292 120q-98 97 -73 245h285q-14 -84 36 -122t177 -38q223 0 240 105q10 57 -40 86q-50 28 -221 55q-224 35 -314.5 115t-63.5 221q28 154 177 249t365 95q223 0 342 -104q119 -105 90 -275z" />
    <glyph glyph-name="Scircumflex.aalt" horiz-adv-x="1196" 
d="M848 1210l-80 279l-180 -279h-238l244 344h369l122 -344h-237zM1126 725h-284q14 90 -29.5 130t-157.5 40q-203 0 -221 -107q-8 -58 44 -83q54 -28 220 -56q232 -35 321 -114q88 -80 62 -224q-28 -153 -182 -248q-154 -94 -385 -94q-236 0 -362 102q-128 101 -99 267h285
q-14 -84 36 -122t177 -38q223 0 240 105q10 57 -40 86q-50 28 -221 55q-224 35 -314.5 115t-63.5 221q28 154 177 249t365 95q223 0 342 -104q119 -105 90 -275z" />
    <glyph glyph-name="uni0218.aalt" horiz-adv-x="1196" 
d="M53 338h285q-14 -84 36 -122t177 -38q223 0 240 105q10 57 -40 86q-50 28 -221 55q-224 35 -314.5 115t-63.5 221q28 154 177 249t365 95q223 0 342 -104q119 -105 90 -275h-284q14 90 -29.5 130t-157.5 40q-203 0 -221 -107q-8 -58 44 -83q54 -28 220 -56
q232 -35 321 -114q88 -80 62 -224q-28 -153 -182 -248q-154 -94 -385 -94q-236 0 -363 102q-127 100 -98 267zM311 -313l29 159h276l-34 -196q-20 -119 -115 -187q-95 -67 -238 -67l21 115q162 0 182 122z" />
    <glyph glyph-name="T.aalt" horiz-adv-x="1050" 
d="M109 1083h1030l-39 -223h-373l-154 -860h-282l153 860h-374z" />
    <glyph glyph-name="Tbar.aalt" horiz-adv-x="1050" 
d="M1139 1083l-39 -223h-373l-49 -268h270l-30 -176h-271l-74 -416h-282l74 416h-279l31 176h278l49 268h-374l39 223h1030z" />
    <glyph glyph-name="Tcaron.aalt" horiz-adv-x="1050" 
d="M827 1210h-366l-125 344h239l80 -280l179 280h239zM109 1083h1030l-39 -223h-373l-154 -860h-282l153 860h-374z" />
    <glyph glyph-name="uni0162.c2sc" horiz-adv-x="1050" 
d="M727 860l-154 -860h-57l-51 -106h41q81 0 123.5 -45t27.5 -117q-14 -80 -77 -128q-64 -48 -154 -48h-207l25 135h151q61 0 68 43q4 23 -7.5 33t-43.5 10h-136l21 112l59 111h-65l153 860h-374l39 223h1030l-39 -223h-373z" />
    <glyph glyph-name="uni021A.aalt" horiz-adv-x="1050" 
d="M109 1083h1030l-39 -223h-373l-154 -860h-282l153 860h-374zM356 -367l-120 54l28 159h277l-35 -196q-20 -119 -115 -187q-95 -67 -237 -67l20 115q162 0 182 122z" />
    <glyph glyph-name="U.aalt" horiz-adv-x="1310" 
d="M123 406l121 677h282l-114 -657q-23 -120 21.5 -173.5t164.5 -53.5q121 0 184.5 54t83.5 173l115 657h283l-119 -677q-35 -197 -197 -317t-391 -120t-348 120q-119 121 -86 317z" />
    <glyph glyph-name="Uacute.aalt" horiz-adv-x="1310" 
d="M664 1210l180 344h282l-256 -344h-206zM123 406l121 677h282l-114 -657q-23 -120 21.5 -173.5t164.5 -53.5q121 0 184.5 54t83.5 173l115 657h283l-119 -677q-35 -197 -197 -317t-391 -120t-348 120q-119 121 -86 317z" />
    <glyph glyph-name="Ubreve.aalt" horiz-adv-x="1310" 
d="M958 1554h197q-32 -169 -132 -260q-101 -92 -246 -92q-146 0 -217 92q-71 93 -40 260h197q-16 -93 5 -135.5t83 -42.5q125 0 153 178zM123 406l121 677h282l-114 -657q-23 -120 21.5 -173.5t164.5 -53.5q121 0 184.5 54t83.5 173l115 657h283l-119 -677
q-35 -197 -197 -317t-391 -120t-348 120q-119 121 -86 317z" />
    <glyph glyph-name="Ucircumflex.aalt" horiz-adv-x="1310" 
d="M909 1210l-80 279l-180 -279h-237l243 344h369l123 -344h-238zM866 426l115 657h283l-119 -677q-35 -197 -197 -317t-391 -120t-348 120q-119 121 -86 317l121 677h282l-114 -657q-23 -120 21.5 -173.5t164.5 -53.5q121 0 184.5 54t83.5 173z" />
    <glyph glyph-name="Udieresis.aalt" horiz-adv-x="1310" 
d="M459 1251l47 271h270l-47 -271h-270zM836 1251l49 271h270l-47 -271h-272zM123 406l121 677h282l-114 -657q-23 -120 21.5 -173.5t164.5 -53.5q121 0 184.5 54t83.5 173l115 657h283l-119 -677q-35 -197 -197 -317t-391 -120t-348 120q-119 121 -86 317z" />
    <glyph glyph-name="uni1EE4.aalt" horiz-adv-x="1310" 
d="M123 406l121 677h282l-114 -657q-23 -120 21.5 -173.5t164.5 -53.5q121 0 184.5 54t83.5 173l115 657h283l-119 -677q-35 -197 -197 -317t-391 -120t-348 120q-119 121 -86 317zM338 -418l47 264h303l-47 -264h-303z" />
    <glyph glyph-name="Ugrave.aalt" horiz-adv-x="1310" 
d="M541 1554h282l62 -344h-207zM123 406l121 677h282l-114 -657q-23 -120 21.5 -173.5t164.5 -53.5q121 0 184.5 54t83.5 173l115 657h283l-119 -677q-35 -197 -197 -317t-391 -120t-348 120q-119 121 -86 317z" />
    <glyph glyph-name="Uhungarumlaut.aalt" horiz-adv-x="1310" 
d="M518 1210l164 344h233l-190 -344h-207zM817 1210l182 344h283l-258 -344h-207zM123 406l121 677h282l-114 -657q-23 -120 21.5 -173.5t164.5 -53.5q121 0 184.5 54t83.5 173l115 657h283l-119 -677q-35 -197 -197 -317t-391 -120t-348 120q-119 121 -86 317z" />
    <glyph glyph-name="Umacron.aalt" horiz-adv-x="1310" 
d="M537 1499h581l-37 -219h-583zM123 406l121 677h282l-114 -657q-23 -120 21.5 -173.5t164.5 -53.5q121 0 184.5 54t83.5 173l115 657h283l-119 -677q-35 -197 -197 -317t-391 -120t-348 120q-119 121 -86 317z" />
    <glyph glyph-name="Uogonek.aalt" horiz-adv-x="1310" 
d="M866 426l115 657h283l-119 -677q-27 -148 -126 -254q-99 -107 -251 -152l-160 -162q-42 -44 -47 -74q-3 -22 10.5 -32.5t44.5 -10.5h119l-30 -165h-242q-77 0 -115.5 37.5t-28.5 101.5q17 77 93 147l139 127q-224 1 -343 122q-118 120 -85 315l121 677h282l-114 -657
q-23 -120 21.5 -173.5t164.5 -53.5q121 0 184.5 54t83.5 173z" />
    <glyph glyph-name="Uring.aalt" horiz-adv-x="1310" 
d="M776 1202q-92 0 -139 49t-33 131q12 82 78 132q65 49 158 49q90 0 138 -49.5t36 -131.5q-13 -81 -81 -131q-67 -49 -157 -49zM727 1382q-12 -71 68 -71q79 0 94 71q12 72 -68 72q-81 0 -94 -72zM123 406l121 677h282l-114 -657q-23 -120 21.5 -173.5t164.5 -53.5
q121 0 184.5 54t83.5 173l115 657h283l-119 -677q-35 -197 -197 -317t-391 -120t-348 120q-119 121 -86 317z" />
    <glyph glyph-name="Utilde.aalt" horiz-adv-x="1310" 
d="M932 1239q-65 0 -148 47t-131 47q-88 0 -106 -90h-148q27 142 99.5 217.5t183.5 75.5q65 0 148 -47q82 -47 131 -47q45 0 71.5 24t30.5 66h147q-23 -142 -94 -217.5t-184 -75.5zM123 406l121 677h282l-114 -657q-23 -120 21.5 -173.5t164.5 -53.5q121 0 184.5 54
t83.5 173l115 657h283l-119 -677q-35 -197 -197 -317t-391 -120t-348 120q-119 121 -86 317z" />
    <glyph glyph-name="V.aalt" horiz-adv-x="1259" 
d="M657 307l408 776h283l-566 -1083h-495l-183 1083h295l133 -776l25 -209z" />
    <glyph glyph-name="W.aalt" horiz-adv-x="1943" 
d="M1405 303l330 780h290l-469 -1083h-450l-41 731l-2 256l-90 -256l-303 -731h-453l-84 1083h295l53 -780l6 -188l66 188l315 780h424l41 -780v-188z" />
    <glyph glyph-name="Wacute.aalt" horiz-adv-x="1943" 
d="M1178 1554h282l-256 -344h-207zM1405 303l330 780h290l-469 -1083h-450l-41 731l-2 256l-90 -256l-303 -731h-453l-84 1083h295l53 -780l6 -188l66 188l315 780h424l41 -780v-188z" />
    <glyph glyph-name="Wcircumflex.aalt" horiz-adv-x="1943" 
d="M1243 1210l-80 279l-180 -279h-238l244 344h369l123 -344h-238zM1405 303l330 780h290l-469 -1083h-450l-41 731l-2 256l-90 -256l-303 -731h-453l-84 1083h295l53 -780l6 -188l66 188l315 780h424l41 -780v-188z" />
    <glyph glyph-name="Wdieresis.aalt" horiz-adv-x="1943" 
d="M840 1522h270l-47 -271h-270zM1219 1522h270l-47 -271h-273zM1405 303l330 780h290l-469 -1083h-450l-41 731l-2 256l-90 -256l-303 -731h-453l-84 1083h295l53 -780l6 -188l66 188l315 780h424l41 -780v-188z" />
    <glyph glyph-name="Wgrave.aalt" horiz-adv-x="1943" 
d="M1157 1554l62 -344h-207l-138 344h283zM1405 303l330 780h290l-469 -1083h-450l-41 731l-2 256l-90 -256l-303 -731h-453l-84 1083h295l53 -780l6 -188l66 188l315 780h424l41 -780v-188z" />
    <glyph glyph-name="X.aalt" horiz-adv-x="1337" 
d="M1083 1083h310l-451 -508l295 -575h-313l-170 328l-82 182l-144 -184l-284 -326h-312l490 565l-275 518h318l151 -282l76 -176l139 176z" />
    <glyph glyph-name="Y.aalt" horiz-adv-x="1183" 
d="M1010 1083h290l-589 -749l-60 -334h-284l61 334l-330 749h303l144 -348l63 -186l131 186z" />
    <glyph glyph-name="Yacute.aalt" horiz-adv-x="1183" 
d="M791 1554h282l-256 -344h-207zM1010 1083h290l-589 -749l-60 -334h-284l61 334l-330 749h303l144 -348l63 -186l131 186z" />
    </font>
</defs>
</svg>
