<?xml version="1.0" standalone="no"?>
<!DOCTYPE svg PUBLIC "-//W3C//DTD SVG 1.1//EN" "http://www.w3.org/Graphics/SVG/1.1/DTD/svg11.dtd" >
<svg xmlns="http://www.w3.org/2000/svg" xmlns:xlink="http://www.w3.org/1999/xlink" version="1.1">
<metadata>
Created by FontForge 20170731 at Fri Apr 12 15:38:36 2019
 By Aleksey,,,
Copyright (c) 2018 by Alexis Navarro Miranda. All rights reserved. Desktop use is strictly prohibited.
</metadata>
<defs>
<font id="MenaGrotesk-BookItalic" horiz-adv-x="1310" >
  <font-face 
    font-family="Mena Grotesk Book Italic"
    font-weight="400"
    font-style="italic"
    font-stretch="normal"
    units-per-em="2048"
    panose-1="0 0 5 0 0 0 0 0 0 0"
    ascent="1638"
    descent="-410"
    x-height="1044"
    cap-height="1434"
    bbox="-684 -578 2382 2120"
    underline-thickness="0"
    underline-position="0"
    unicode-range="U+0020-FB02"
  />
<missing-glyph horiz-adv-x="1400" 
d="M1233 682h186l-12 -61h-125q-37 -144 -121 -251.5t-203 -162.5l-36 -207h-58l37 207q-74 -59 -188 -119l-8 170h-103l-65 -170q-106 65 -148 121l-37 -209h-55l37 209q-209 113 -182 412h-125l12 61h186q-51 -295 119 -414l23 125q-63 95 -35 260q32 183 139 281l90 520
h608l-92 -524q68 -99 37 -277q-27 -161 -123 -258l-22 -127q213 118 264 414zM635 1407l188 -193l256 193h-444zM848 1188l190 -197l70 393zM528 995l258 193l-188 192zM946 1024l-133 137l-182 -137q80 23 162 23q84 0 153 -23zM666 328q338 0 395 325q29 166 -42 252
t-237 86q-338 0 -397 -338q-29 -159 43 -242t238 -83zM608 922l92 30l-6 -34l-92 -31zM924 887l-82 31l6 34l82 -30zM721 819q-11 -51 -64 -51q-25 0 -38 14.5t-9 36.5q10 56 66 58q24 0 36.5 -15.5t8.5 -42.5zM848 877q25 0 39 -16.5t10 -41.5q-11 -51 -68 -51
q-23 0 -35 14.5t-8 36.5q10 58 62 58zM823 696l-180 -20l8 39l178 20zM518 160l49 119q-97 17 -155 63l-13 -74q44 -64 119 -108zM911 266l13 76q-72 -46 -176 -63l8 -119q80 37 155 106zM647 207q29 0 23 -31q-5 -29 -33 -29q-34 0 -29 29q6 31 39 31zM627 94q27 0 24 -28
q-6 -31 -35 -31q-33 0 -26 31q1 28 37 28z" />
    <glyph glyph-name="uniFB01" unicode="fi" horiz-adv-x="1355" 
d="M532 1044h717l-184 -1044h-199l156 885h-518l-156 -885h-198l155 885h-211l29 159h211l31 181q27 153 143 248q115 94 274 94q129 0 209 -19l-24 -145h-199q-97 0 -141 -43q-45 -44 -66 -154zM1081 1276l47 270h220l-48 -270h-219z" />
    <glyph glyph-name="uniFB02" unicode="fl" horiz-adv-x="1406" 
d="M561 1206l-29 -162h375l-28 -159h-375l-156 -885h-198l155 885h-211l29 159h211l31 181q27 153 143 248q115 94 274 94q139 0 230 -19l-25 -145h-219q-96 0 -142 -43q-47 -44 -65 -154zM1341 1546l-221 -1251q-14 -86 6.5 -119t87.5 -33h89l-25 -143q-63 -20 -129 -20
q-127 0 -190 80q-64 78 -41 212l225 1274h198z" />
    <glyph glyph-name="f_f.liga" unicode="ff" horiz-adv-x="1583" 
d="M1769 1403h-239q-97 0 -141 -43q-47 -44 -66 -154l-29 -162h396l-29 -159h-395l-156 -885h-199l156 885h-563l-156 -885h-198l155 885h-211l29 159h211l24 140q28 153 143 248q112 94 273 94q148 0 252 -19l-27 -145h-239q-97 0 -141 -43q-47 -44 -66 -154l-21 -121h564
l30 181q27 153 143 248q115 94 275 94q149 0 250 -19z" />
    <glyph glyph-name="f_f_i.liga" unicode="ffi" horiz-adv-x="2117" 
d="M1294 1044h717l-184 -1044h-199l156 885h-518l-156 -885h-199l156 885h-563l-156 -885h-198l155 885h-211l29 159h211l24 140q28 153 143 248q112 94 273 94q148 0 252 -19l-27 -145h-239q-97 0 -141 -43q-47 -44 -66 -154l-21 -121h564l30 181q27 153 143 248
q115 94 275 94q129 0 209 -19l-24 -145h-199q-97 0 -141 -43q-47 -44 -66 -154zM1843 1276l47 270h219l-47 -270h-219z" />
    <glyph glyph-name="f_f_l.liga" unicode="ffl" horiz-adv-x="2168" 
d="M1333 1264l-39 -220h375l-29 -159h-374l-156 -885h-199l156 885h-563l-156 -885h-198l155 885h-211l29 159h209l45 252q23 129 99 180q76 50 243 50q157 0 285 -21l-25 -143h-246q-95 0 -124 -24q-30 -27 -46 -115l-31 -179h564l51 293q23 129 99 180q76 50 243 50
q157 0 285 -21l-25 -143h-246q-97 0 -125 -24q-29 -26 -45 -115zM2103 1546l-221 -1251q-14 -86 6.5 -119t87.5 -33h88l-24 -143q-63 -20 -129 -20q-127 0 -190 80q-64 79 -42 212l226 1274h198z" />
    <glyph glyph-name=".notdef" horiz-adv-x="1400" 
d="M1233 682h186l-12 -61h-125q-37 -144 -121 -251.5t-203 -162.5l-36 -207h-58l37 207q-74 -59 -188 -119l-8 170h-103l-65 -170q-106 65 -148 121l-37 -209h-55l37 209q-209 113 -182 412h-125l12 61h186q-51 -295 119 -414l23 125q-63 95 -35 260q32 183 139 281l90 520
h608l-92 -524q68 -99 37 -277q-27 -161 -123 -258l-22 -127q213 118 264 414zM635 1407l188 -193l256 193h-444zM848 1188l190 -197l70 393zM528 995l258 193l-188 192zM946 1024l-133 137l-182 -137q80 23 162 23q84 0 153 -23zM666 328q338 0 395 325q29 166 -42 252
t-237 86q-338 0 -397 -338q-29 -159 43 -242t238 -83zM608 922l92 30l-6 -34l-92 -31zM924 887l-82 31l6 34l82 -30zM721 819q-11 -51 -64 -51q-25 0 -38 14.5t-9 36.5q10 56 66 58q24 0 36.5 -15.5t8.5 -42.5zM848 877q25 0 39 -16.5t10 -41.5q-11 -51 -68 -51
q-23 0 -35 14.5t-8 36.5q10 58 62 58zM823 696l-180 -20l8 39l178 20zM518 160l49 119q-97 17 -155 63l-13 -74q44 -64 119 -108zM911 266l13 76q-72 -46 -176 -63l8 -119q80 37 155 106zM647 207q29 0 23 -31q-5 -29 -33 -29q-34 0 -29 29q6 31 39 31zM627 94q27 0 24 -28
q-6 -31 -35 -31q-33 0 -26 31q1 28 37 28z" />
    <glyph glyph-name="glyph1" horiz-adv-x="0" 
 />
    <glyph glyph-name="glyph2" horiz-adv-x="681" 
 />
    <glyph glyph-name="space" unicode=" " horiz-adv-x="409" 
 />
    <glyph glyph-name="exclam" unicode="!" horiz-adv-x="665" 
d="M393 1434h199l-57 -330l-160 -674h-117l78 674zM113 0l45 256h256l-45 -256h-256z" />
    <glyph glyph-name="quotedbl" unicode="&#x22;" horiz-adv-x="696" 
d="M156 885l55 549h225l-137 -549h-143zM524 885l56 549h225l-137 -549h-144z" />
    <glyph glyph-name="numbersign" unicode="#" horiz-adv-x="1374" 
d="M1403 1006l-27 -148h-254l-86 -321h248l-27 -148h-260l-104 -389h-168l104 389h-385l-104 -389h-168l104 389h-227l27 148h239l86 321h-235l27 148h247l115 428h168l-115 -428h385l115 428h168l-115 -428h242zM483 537h385l86 321h-385z" />
    <glyph glyph-name="dollar" unicode="$" horiz-adv-x="1419" 
d="M1366 956h-215q27 150 -27.5 227t-201.5 93l-84 -475q2 0 6 -1t6 -1q266 -53 369 -150q102 -97 73 -264q-33 -174 -195 -285q-163 -112 -405 -129l-24 -135h-148l25 135q-242 20 -365 153q-123 132 -88 335h215q-25 -145 40 -218t231 -85l86 487q-254 53 -356 144
q-104 90 -75 249q33 181 190 296q159 117 384 130l24 135h148l-25 -137q224 -22 337 -159t75 -345zM442 1063q-14 -85 35 -134q50 -50 219 -95l78 444q-299 -17 -332 -215zM1083 367q16 82 -38 138q-54 55 -240 105l-80 -454q320 13 358 211z" />
    <glyph glyph-name="percent" unicode="%" horiz-adv-x="1431" 
d="M685 891q-110 -92 -261 -92q-152 0 -228 91q-76 92 -51 243q27 149 137 241q110 90 261 90q152 0 228 -91q77 -91 51 -240q-27 -150 -137 -242zM1262 1434h215l-496 -627h-174zM334 1003q39 -49 119 -49t135 49q56 48 69 130q14 80 -24.5 128t-118.5 48q-79 0 -134.5 -48
t-70.5 -128q-14 -83 25 -130zM1219 62q-109 -91 -260 -91q-152 0 -229 92t-50 242t136 241q107 91 260 91q151 0 229 -91q76 -91 51 -241q-28 -151 -137 -243zM524 627h174l-454 -627h-215zM868 177q39 -48 119 -48q81 0 136 48t69 128t-25 128t-118 48t-135 -48
q-57 -49 -70 -128q-15 -80 24 -128z" />
    <glyph glyph-name="ampersand" unicode="&#x26;" horiz-adv-x="1363" 
d="M1126 252l238 -252h-274l-109 115q-200 -144 -459 -146q-259 0 -399 107q-139 106 -111 282q19 122 125 223q104 98 275 148q-80 94 -110 176q-28 79 -7 197q27 162 163 262t330 100q190 0 289 -99t70 -263q-26 -144 -147 -241q-123 -99 -312 -144l320 -338
q62 111 94 287h209q-44 -242 -185 -414zM492 1083q-12 -70 17 -135q29 -67 109 -155q162 50 241 115q79 64 99 175q18 106 -27.5 153.5t-166.5 47.5q-125 0 -188.5 -47.5t-83.5 -153.5zM553 143q202 0 324 86l-400 426q-222 -82 -254 -258q-23 -133 55 -193.5t275 -60.5z
" />
    <glyph glyph-name="quotesingle" unicode="'" horiz-adv-x="327" 
d="M156 885l55 549h225l-137 -549h-143z" />
    <glyph glyph-name="parenleft" unicode="(" horiz-adv-x="534" 
d="M489 1546h154q-251 -463 -340 -962q-89 -494 0 -963h-153q-143 485 -58 963q85 484 397 962z" />
    <glyph glyph-name="parenright" unicode=")" horiz-adv-x="514" 
d="M45 -379h-154q255 475 340 963q86 485 0 962h154q143 -483 57 -962q-85 -485 -397 -963z" />
    <glyph glyph-name="asterisk" unicode="*" horiz-adv-x="692" 
d="M584 1464l-121 -286l-19 286h140zM324 1411l139 -233l-246 125zM754 1303l-291 -125l221 233zM168 1182l295 -4l-289 -134zM702 1044l-239 134l295 4zM236 950l227 228l-111 -289zM471 889l-8 289l145 -228z" />
    <glyph glyph-name="plus" unicode="+" horiz-adv-x="1024" 
d="M606 608h330l-27 -155h-329l-60 -332h-160l60 332h-330l27 155h329l60 332h160z" />
    <glyph glyph-name="comma" unicode="," horiz-adv-x="491" 
d="M51 57l35 199h256l-45 -256q-29 -164 -123 -249t-244 -85l21 111q93 0 144.5 47t70.5 151z" />
    <glyph glyph-name="hyphen" unicode="-" horiz-adv-x="655" 
d="M131 604h471l-29 -164h-471z" />
    <glyph glyph-name="period" unicode="." horiz-adv-x="481" 
d="M31 0l45 256h256l-45 -256h-256z" />
    <glyph glyph-name="slash" unicode="/" horiz-adv-x="559" 
d="M-139 -379l680 1925h178l-680 -1925h-178z" />
    <glyph glyph-name="zero" unicode="0" horiz-adv-x="1503" 
d="M1148 175q-211 -206 -492 -206q-283 0 -420 206q-138 206 -78 542q59 336 269 542q209 205 493 205q283 0 419 -205t76 -542q-57 -337 -267 -542zM397 288q74 -134 291 -134t339 134t173 429q51 297 -22 430t-291 133q-217 0 -340 -134t-174 -429t24 -429z" />
    <glyph glyph-name="one" unicode="1" horiz-adv-x="960" 
d="M530 1434h355l-252 -1434h-209l190 1077l52 264l-117 -96l-404 -301l43 238z" />
    <glyph glyph-name="two" unicode="2" horiz-adv-x="1333" 
d="M1135 0h-1104l51 285l653 383q183 108 243 173q60 66 81 181q25 137 -38 199.5t-226 62.5t-253.5 -90t-125.5 -289h-215q45 251 215 406q170 153 405 153q233 0 354 -120q121 -122 87 -318q-23 -135 -119 -247.5t-281 -219.5l-586 -340l-108 -53l276 8h721z" />
    <glyph glyph-name="three" unicode="3" horiz-adv-x="1370" 
d="M1255 1053q-20 -124 -120.5 -207.5t-264.5 -110.5q389 -41 332 -356q-33 -184 -200 -297q-169 -113 -410 -113q-254 0 -387 129t-96 340h215q-27 -150 45 -217t258 -67q174 0 261 50t107 163q25 139 -28.5 202.5t-194.5 63.5h-278l26 151h219q266 0 308 238
q25 137 -32 199.5t-204 62.5q-168 0 -255 -72q-88 -74 -116 -235h-215q39 220 208 353q170 134 407 134q222 0 335 -112q113 -113 80 -299z" />
    <glyph glyph-name="four" unicode="4" horiz-adv-x="1341" 
d="M729 324h-702l57 331l704 779h345l-166 -942h317l-29 -168h-317l-57 -324h-209zM915 1343l-776 -858l203 7h416l102 577z" />
    <glyph glyph-name="five" unicode="5" horiz-adv-x="1277" 
d="M1223 1260h-539l-174 2l-133 -539q156 178 426 178q197 0 295 -128q98 -129 61 -339q-38 -210 -205 -337q-169 -128 -405 -128q-241 0 -366 129q-124 129 -87 340h215q-27 -150 38 -217t235 -67q166 0 255 67t115 213q27 156 -36.5 226.5t-231.5 70.5q-122 0 -195 -26
q-72 -26 -143 -93h-180l205 822h880z" />
    <glyph glyph-name="six" unicode="6" horiz-adv-x="1380" 
d="M1352 1008h-215q27 143 -33 207.5t-217 64.5q-217 0 -340 -134t-174 -429l-8 -51q65 108 202 176q134 67 301 67q217 0 325 -125q107 -126 73 -329q-39 -217 -207 -351q-168 -135 -404 -135q-287 0 -423 198q-136 197 -74 550q59 336 269 542q209 205 493 205
q231 0 350 -125q119 -127 82 -331zM784 739q-199 0 -299 -61q-99 -61 -125 -201q-31 -170 47 -247.5t281 -77.5q168 0 256 71.5t117 231.5q27 149 -39.5 216.5t-237.5 67.5z" />
    <glyph glyph-name="seven" unicode="7" horiz-adv-x="1134" 
d="M211 1434h1012l-29 -168l-27 -148q-289 -225 -493 -532q-204 -306 -254 -586h-215q57 322 318 669q262 347 634 597l-340 -6h-637z" />
    <glyph glyph-name="eight" unicode="8" horiz-adv-x="1355" 
d="M1292 1061q-46 -256 -342 -328q316 -76 264 -368q-31 -177 -204 -287q-173 -109 -430 -109q-254 0 -390 109q-137 109 -106 287q53 293 395 368q-273 72 -227 328q33 182 195 293q161 110 397 110q234 0 358 -110q123 -111 90 -293zM1073 1042q23 125 -39.5 181.5
t-222.5 56.5q-161 0 -244.5 -56.5t-103.5 -181.5q-23 -127 39.5 -185t222.5 -58q159 0 242 58t106 185zM1006 397q23 133 -49 192.5t-256 59.5q-185 0 -279 -59.5t-117 -192.5q-23 -129 50 -186t258 -57t277.5 57t115.5 186z" />
    <glyph glyph-name="nine" unicode="9" horiz-adv-x="1376" 
d="M793 1464q287 0 422 -197t73 -550q-57 -337 -267 -542q-211 -206 -493 -206q-232 0 -350 126t-84 331h215q-25 -143 34.5 -207.5t217.5 -64.5q218 0 339 133q122 134 173 430l8 45q-70 -106 -204 -172q-133 -66 -297 -66q-216 0 -326 125t-72 330q39 217 207 351
q169 134 404 134zM662 694q201 0 301 63q100 61 124 199q29 171 -47.5 247.5t-279.5 76.5q-168 0 -257 -71.5t-116 -229.5q-27 -150 38.5 -217.5t236.5 -67.5z" />
    <glyph glyph-name="colon" unicode=":" horiz-adv-x="481" 
d="M145 645l45 256h256l-45 -256h-256zM31 0l45 256h256l-45 -256h-256z" />
    <glyph glyph-name="semicolon" unicode=";" horiz-adv-x="491" 
d="M154 645l45 256h256l-45 -256h-256zM51 57l35 199h256l-45 -256q-29 -164 -123 -249t-244 -85l21 111q93 0 144.5 47t70.5 151z" />
    <glyph glyph-name="less" unicode="&#x3c;" horiz-adv-x="937" 
d="M762 96l-682 295l45 258l784 295l-28 -162l-697 -262l607 -262z" />
    <glyph glyph-name="equal" unicode="=" horiz-adv-x="1228" 
d="M240 815h860l-27 -156h-860zM166 401h860l-27 -155h-860z" />
    <glyph glyph-name="greater" unicode="&#x3e;" horiz-adv-x="937" 
d="M811 391l-784 -295l28 162l699 262l-607 262l29 162l682 -295z" />
    <glyph glyph-name="question" unicode="?" horiz-adv-x="1021" 
d="M670 1464q211 0 320 -112q108 -113 75 -299q-25 -139 -131 -235.5t-277 -135.5l-71 -16l-56 -236h-118l41 344l161 31q125 26 182 80q59 56 78 164q27 135 -27.5 195.5t-201.5 60.5q-151 0 -232 -71.5t-110 -229.5h-188q37 207 190 334q152 126 365 126zM522 0h-256
l45 256h256z" />
    <glyph glyph-name="at" unicode="@" horiz-adv-x="2199" 
d="M517 1226q313 259 753 259q438 0 663 -253q224 -254 152 -669q-28 -165 -89 -285q-61 -119 -117 -175t-130 -86q-72 -31 -104 -34q-31 -3 -66 -3q-138 0 -189 54t-34 183q-155 -227 -414 -227q-219 0 -324 150q-107 149 -63 392q44 247 201 395t377 148q261 0 335 -209
l31 178h193l-138 -780q-13 -82 12 -107t101 -24q56 1 99 32t83 127q41 98 72 271q66 379 -107.5 578.5t-568.5 199.5q-397 0 -641 -204q-244 -205 -313 -594q-70 -390 102 -594.5t570 -204.5q161 0 330 36t286 93l-25 -149q-118 -54 -289 -89q-167 -34 -327 -34
q-440 0 -663 259q-224 260 -148 683t390 683zM789 241q58 -91 227 -91t260 91q93 93 127 292q35 199 -24 291q-60 91 -228 91q-169 0 -260 -91q-93 -93 -127 -291q-35 -201 25 -292z" />
    <glyph glyph-name="A" unicode="A" horiz-adv-x="1419" 
d="M1296 0h-215l-71 438h-621l-227 -438h-203l739 1434h363zM719 1075l-240 -463h504l-76 463l-45 287z" />
    <glyph glyph-name="B" unicode="B" horiz-adv-x="1415" 
d="M1391 1075q-19 -108 -103 -193q-83 -85 -201 -118q135 -41 197 -136.5t39 -226.5q-33 -181 -177 -290q-146 -111 -351 -111h-652l252 1434h600q205 0 315 -98q110 -99 81 -261zM1167 1028q20 121 -33 176.5t-190 55.5h-371l-81 -463h372q137 0 208.5 55t94.5 176z
M1014 230q72 57 94 176q22 120 -31 176q-52 55 -190 55h-422l-82 -463h422q136 0 209 56z" />
    <glyph glyph-name="C" unicode="C" horiz-adv-x="1564" 
d="M255 175q-157 205 -97 542q58 336 289 542q229 205 544 205q264 0 421 -142q158 -142 114 -390h-215q33 182 -51 265t-302 83q-256 0 -395 -133t-190 -430q-51 -298 40 -431q92 -134 347 -134q217 0 329 78q110 76 142 247h215q-44 -242 -248 -375q-205 -133 -471 -133
q-314 0 -472 206z" />
    <glyph glyph-name="D" unicode="D" horiz-adv-x="1605" 
d="M395 1434h557q311 0 467 -198t99 -519q-58 -323 -282 -519q-223 -198 -536 -198h-557zM383 174h334q489 0 586 543q96 543 -396 543h-334z" />
    <glyph glyph-name="E" unicode="E" horiz-adv-x="1294" 
d="M1335 1434l-30 -174h-732l-77 -447h690l-31 -174h-690l-82 -465h747l-30 -174h-957l252 1434h940z" />
    <glyph glyph-name="F" unicode="F" horiz-adv-x="1216" 
d="M1315 1434l-31 -174h-711l-79 -457h669l-30 -174h-670l-111 -629h-209l252 1434h920z" />
    <glyph glyph-name="G" unicode="G" horiz-adv-x="1624" 
d="M1534 944h-215q31 177 -54 256.5t-307 79.5q-256 0 -395 -133t-190 -430q-51 -298 40 -431q92 -134 347 -134q228 0 349 103q122 104 167 333h-522l28 164h727l-131 -752h-174l62 342q-162 -373 -559 -373q-305 0 -457 206t-92 542q58 336 289 542q229 205 544 205
q284 0 435 -143q149 -144 108 -377z" />
    <glyph glyph-name="H" unicode="H" horiz-adv-x="1669" 
d="M1276 815l108 619h209l-252 -1434h-208l112 641h-780l-113 -641h-209l252 1434h209l-108 -619h780z" />
    <glyph glyph-name="I" unicode="I" horiz-adv-x="679" 
d="M143 0l252 1434h209l-252 -1434h-209z" />
    <glyph glyph-name="J" unicode="J" horiz-adv-x="1286" 
d="M61 461h205q-29 -164 29 -237.5t215 -73.5q155 0 237 71t111 230l174 983h209l-174 -988q-39 -215 -200 -346q-163 -131 -390 -131q-225 0 -340 136q-115 135 -76 356z" />
    <glyph glyph-name="K" unicode="K" horiz-adv-x="1464" 
d="M1317 1434h280l-872 -711l647 -723h-285l-471 528l-141 170l-123 -698h-209l252 1434h209l-121 -689l197 168z" />
    <glyph glyph-name="L" unicode="L" horiz-adv-x="1202" 
d="M604 1434l-221 -1260h696l-30 -174h-906l252 1434h209z" />
    <glyph glyph-name="M" unicode="M" horiz-adv-x="2015" 
d="M1579 1434h360l-251 -1434h-209l207 1178l28 151l-647 -1329h-303l-180 1337l-25 -159l-207 -1178h-209l252 1434h371l156 -1153l18 -170l78 170z" />
    <glyph glyph-name="N" unicode="N" horiz-adv-x="1669" 
d="M1210 442l174 992h209l-252 -1434h-352l-414 1325l-38 -278l-185 -1047h-209l252 1434h359l409 -1313z" />
    <glyph glyph-name="O" unicode="O" horiz-adv-x="1667" 
d="M1290 175q-233 -206 -552 -206t-480 206q-160 205 -100 542q58 336 292 542q232 205 552 205q319 0 478 -205q158 -206 99 -542q-57 -337 -289 -542zM416 288q95 -134 354 -134t401 134q141 135 193 429q51 297 -42 430t-353 133q-259 0 -402 -134t-194 -429
q-51 -296 43 -429z" />
    <glyph glyph-name="P" unicode="P" horiz-adv-x="1325" 
d="M395 1434h592q207 0 312 -116q104 -116 71 -304q-34 -190 -180 -306t-350 -116h-383l-105 -592h-209zM1155 1014q23 129 -29.5 187.5t-189.5 58.5h-363l-86 -494h363q137 0 209.5 58.5t95.5 189.5z" />
    <glyph glyph-name="Q" unicode="Q" horiz-adv-x="1667" 
d="M1579 717q-55 -313 -264 -516l198 -232l-147 -125l-195 244q-197 -119 -434 -119q-318 0 -479 206q-160 205 -100 542q59 337 291 542q230 205 551 205q319 0 479 -205q159 -205 100 -542zM373 717q-53 -299 41 -431q95 -134 354 -134q184 0 305 57l-184 215l147 125
l178 -225q102 128 150 393q51 297 -42 430t-353 133q-259 0 -402 -134t-194 -429z" />
    <glyph glyph-name="R" unicode="R" horiz-adv-x="1366" 
d="M1393 1018q-29 -150 -135.5 -253t-270.5 -140l90 -144l248 -481h-233l-306 608h-327l-107 -608h-209l252 1434h613q206 0 312 -114t73 -302zM1178 1018q23 126 -30.5 184t-191.5 58h-383l-86 -486h385q139 0 211 57.5t95 186.5z" />
    <glyph glyph-name="S" unicode="S" horiz-adv-x="1419" 
d="M621 -31q-277 0 -422 136q-146 135 -107 354h215q-27 -162 55 -233.5t293 -71.5q389 0 428 213q18 94 -59 157q-80 63 -346 115q-262 52 -367 144q-106 91 -78 253q34 192 209 311q174 117 424 117q266 0 404 -139q136 -139 96 -369h-215q31 170 -45 247t-277 77
q-350 0 -387 -217q-10 -65 13 -107t116 -80q89 -39 279 -77q266 -53 369 -150q102 -97 73 -264q-33 -185 -218 -301q-184 -115 -453 -115z" />
    <glyph glyph-name="T" unicode="T" horiz-adv-x="1323" 
d="M190 1434h1262l-31 -174h-526l-221 -1260h-209l221 1260h-526z" />
    <glyph glyph-name="U" unicode="U" horiz-adv-x="1585" 
d="M199 487l166 947h208l-165 -942q-31 -178 45 -259t274 -81q199 0 303.5 80.5t134.5 259.5l166 942h209l-166 -947q-40 -233 -228 -375q-188 -143 -452 -143q-263 0 -400 143q-136 142 -95 375z" />
    <glyph glyph-name="V" unicode="V" horiz-adv-x="1419" 
d="M791 358l555 1076h202l-739 -1434h-363l-235 1434h215l176 -1076l45 -286z" />
    <glyph glyph-name="W" unicode="W" horiz-adv-x="2273" 
d="M1683 358l492 1076h207l-658 -1434h-338l-73 1047l-15 313l-124 -316l-443 -1044h-346l-154 1434h215l115 -1076l23 -268l106 268l453 1076h336l75 -1076l13 -268z" />
    <glyph glyph-name="X" unicode="X" horiz-adv-x="1533" 
d="M1401 1434h227l-643 -678l434 -756h-229l-277 479l-116 219l-195 -221l-444 -477h-228l697 754l-406 680h230l256 -433l108 -198l176 198z" />
    <glyph glyph-name="Y" unicode="Y" horiz-adv-x="1302" 
d="M1247 1434h205l-696 -963h-2l-82 -471h-209l84 473l-361 961h222l206 -553l74 -242l160 242z" />
    <glyph glyph-name="Z" unicode="Z" horiz-adv-x="1259" 
d="M1096 0h-1106l59 338l1178 928l-291 -6h-719l31 174h1093l-59 -338l-1176 -928l289 6h731z" />
    <glyph glyph-name="bracketleft" unicode="[" horiz-adv-x="606" 
d="M756 1546l-29 -160l-252 7l-287 -1618l256 6l-28 -160h-453l340 1925h453z" />
    <glyph glyph-name="backslash" unicode="\" horiz-adv-x="899" 
d="M201 1546h178l340 -1925h-178z" />
    <glyph glyph-name="bracketright" unicode="]" horiz-adv-x="606" 
d="M211 1546h453l-340 -1925h-453l29 160l252 -6l286 1618l-256 -7z" />
    <glyph glyph-name="asciicircum" unicode="^" horiz-adv-x="815" 
d="M696 1434l115 -447h-160l-94 383l-229 -383h-160l270 447h258z" />
    <glyph glyph-name="underscore" unicode="_" horiz-adv-x="1112" 
d="M-33 -31h981l-28 -164h-981z" />
    <glyph glyph-name="grave" unicode="`" horiz-adv-x="530" 
d="M252 1546h233l97 -327h-158z" />
    <glyph glyph-name="a" unicode="a" horiz-adv-x="1222" 
d="M1100 139h2l-25 -139q-85 -20 -151 -20q-94 0 -126 54t-16 183q-70 -116 -183 -182t-257 -66q-143 0 -218 72t-54 188q19 104 97 173q77 68 249 102q358 74 426 92v6q29 170 -14.5 247t-170.5 77t-195.5 -64.5t-92.5 -210.5h-199q34 189 175 307q139 117 339 117
q211 0 306 -110.5t59 -313.5l-70 -387q-13 -82 7 -103q19 -22 112 -22zM420 127q154 0 255.5 70t133.5 209l12 73q-29 -10 -344 -82q-103 -22 -142 -55q-38 -33 -50 -92q-10 -59 24.5 -91t110.5 -32z" />
    <glyph glyph-name="b" unicode="b" horiz-adv-x="1357" 
d="M850 1075q219 0 324 -151q104 -153 61 -402q-45 -249 -203 -401t-377 -152q-123 0 -211.5 52.5t-124.5 150.5l-30 -172h-193l273 1546h198l-121 -690q150 219 404 219zM1026 522q35 207 -24.5 300t-227.5 93t-260 -93q-93 -94 -127 -300q-37 -207 22.5 -300t227.5 -93
q169 0 260 93t129 300z" />
    <glyph glyph-name="c" unicode="c" horiz-adv-x="1218" 
d="M870 344h205q-28 -167 -175 -271q-146 -104 -357 -104q-233 0 -349 153q-116 152 -71 400q44 249 212 401q170 152 402 152q207 0 315 -109q107 -110 76 -288h-204q23 125 -28.5 181t-186.5 56q-162 0 -252 -93t-125 -300q-37 -207 20 -300t219 -93q138 0 208.5 50.5
t90.5 164.5z" />
    <glyph glyph-name="d" unicode="d" horiz-adv-x="1349" 
d="M1032 877l119 669h199l-273 -1546h-190l35 197q-157 -226 -416 -228q-219 0 -323 152q-105 151 -60 401q44 252 200 402q155 151 377 151q254 0 332 -198zM582 129q160 0 251 83.5t130 268.5l14 78q27 186 -34.5 271t-223.5 85q-169 0 -260 -93q-93 -94 -127 -300
q-37 -207 22.5 -300t227.5 -93z" />
    <glyph glyph-name="e" unicode="e" horiz-adv-x="1236" 
d="M737 1075q216 0 325 -130q109 -129 71 -343l-21 -121h-786q-27 -184 31.5 -268t213.5 -84q141 0 213 46t88 147h205q-27 -158 -174 -255q-148 -98 -360 -98q-233 0 -349 153q-116 152 -71 400q44 249 212 401q170 152 402 152zM352 616l242 5h338q20 154 -33 224t-190 70
q-144 0 -230 -71.5t-127 -227.5z" />
    <glyph glyph-name="f" unicode="f" horiz-adv-x="821" 
d="M1008 1403h-240q-97 0 -141 -43q-45 -44 -66 -154l-29 -162h396l-29 -159h-395l-156 -885h-198l155 885h-211l29 159h211l31 181q27 153 143 248q115 94 274 94q149 0 250 -19z" />
    <glyph glyph-name="g" unicode="g" horiz-adv-x="1107" 
d="M1237 1208l-29 -164q-104 0 -149 -19q-47 -20 -66 -64q84 -95 60 -240q-27 -156 -166 -256t-336 -100q-134 0 -225 47q-76 -39 -88 -113q-8 -53 18.5 -73.5t103.5 -20.5h353q161 0 247 -80q85 -80 62 -209q-26 -141 -184 -228q-160 -87 -395 -87t-365 77
q-129 78 -109 207q8 60 62 106t135 62q-115 52 -92 183q26 135 188 217q-122 104 -90 268q28 159 167 257q137 97 337 97q152 0 252 -61q34 100 106.5 147t202.5 47zM848 721q20 106 -27 153.5t-172 47.5t-189.5 -47.5t-82.5 -153.5q-18 -109 29 -157t172 -48
q123 0 186.5 48t83.5 157zM674 41h-455q-49 -44 -61 -125q-16 -93 46 -125q61 -31 267 -31t278 31q73 32 89 125q12 70 -24 97.5t-140 27.5z" />
    <glyph glyph-name="h" unicode="h" horiz-adv-x="1349" 
d="M868 1075q180 0 271 -106q91 -107 59 -283l-121 -686h-198l106 604q31 170 -15 237q-46 66 -194 66q-144 0 -247 -83q-102 -82 -128 -222l-106 -602h-199l273 1546h198l-123 -698q173 227 424 227z" />
    <glyph glyph-name="i" unicode="i" horiz-adv-x="591" 
d="M317 1276l41 229h220l-41 -229h-220zM102 0l185 1044h198l-184 -1044h-199z" />
    <glyph glyph-name="j" unicode="j" horiz-adv-x="585" 
d="M311 1276l41 229h219l-41 -229h-219zM92 -29l189 1073h198l-192 -1091q-28 -157 -134 -255q-106 -97 -251 -97q-90 0 -158 20l25 143h135q86 0 127 45q42 46 61 162z" />
    <glyph glyph-name="k" unicode="k" horiz-adv-x="1179" 
d="M999 1044h242l-627 -503l494 -541h-279l-340 381l-104 131l-90 -512h-199l273 1546h198l-178 -1009l152 135z" />
    <glyph glyph-name="l" unicode="l" horiz-adv-x="628" 
d="M563 1546l-221 -1251q-14 -86 6.5 -119t87.5 -33h88l-24 -143q-63 -20 -129 -20q-127 0 -190 80q-64 79 -42 212l226 1274h198z" />
    <glyph glyph-name="m" unicode="m" horiz-adv-x="2111" 
d="M1640 1075q175 0 263 -106q89 -107 57 -283l-121 -686h-199l107 604q31 168 -13 237q-44 66 -186 66q-144 0 -247 -83q-103 -82 -127 -222l-107 -602h-199l107 604q31 168 -13 237q-44 66 -186 66q-144 0 -247 -83q-102 -82 -128 -222l-106 -602h-199l185 1044h190
l-37 -208q176 241 434 239q138 0 224 -69.5t100 -190.5q180 260 448 260z" />
    <glyph glyph-name="n" unicode="n" horiz-adv-x="1349" 
d="M868 1075q180 0 271 -106q91 -107 59 -283l-121 -686h-198l106 604q31 170 -15 237q-46 66 -194 66q-144 0 -247 -83q-102 -82 -128 -222l-106 -602h-199l185 1044h192l-37 -206q176 237 432 237z" />
    <glyph glyph-name="o" unicode="o" horiz-adv-x="1302" 
d="M963 121q-173 -152 -410 -152q-238 0 -355 152q-118 151 -75 401q44 249 215 401q173 152 410 152t357 -152q120 -153 75 -401q-45 -250 -217 -401zM355 223q58 -94 227 -94q168 0 261 94q94 95 128 299q35 207 -24.5 300t-227.5 93q-167 0 -259 -93q-90 -92 -128 -300
q-37 -204 23 -299z" />
    <glyph glyph-name="p" unicode="p" horiz-adv-x="1357" 
d="M850 1075q219 0 324 -151q104 -153 61 -402q-45 -249 -203 -401t-377 -152q-251 0 -331 195l-97 -543h-198l252 1423h190l-37 -204q151 235 416 235zM1026 522q35 207 -24.5 300t-227.5 93t-260 -93q-93 -94 -127 -300q-37 -207 22.5 -300t227.5 -93q169 0 260 93
t129 300z" />
    <glyph glyph-name="q" unicode="q" horiz-adv-x="1357" 
d="M1036 864l33 180h193l-252 -1423h-199l98 561q-150 -213 -403 -213q-219 0 -323 152q-105 151 -60 401q44 252 200 402q155 151 377 151q124 0 212 -53t124 -158zM582 129q159 0 249.5 82t129.5 264l16 92q25 182 -36.5 265t-221.5 83q-169 0 -260 -93q-93 -94 -127 -300
q-37 -207 22.5 -300t227.5 -93z" />
    <glyph glyph-name="r" unicode="r" horiz-adv-x="811" 
d="M819 1075q54 0 86 -20l-28 -164h-115q-139 0 -238 -81q-100 -80 -127 -224l-102 -586h-199l185 1044h190l-41 -233q75 125 176 194.5t213 69.5z" />
    <glyph glyph-name="s" unicode="s" horiz-adv-x="1114" 
d="M487 -31q-221 0 -336 100q-116 100 -88 265h205q-20 -113 39 -164t209 -51q246 0 270 141q12 66 -41 108q-52 41 -233 76q-200 40 -280 114q-79 73 -60 200q26 143 157 230q132 87 324 87q207 0 313 -99q105 -99 76 -263h-204q20 111 -31 162t-182 51q-230 0 -258 -148
q-12 -69 40 -103q52 -35 238 -73q203 -40 282 -117q79 -76 56 -209q-23 -136 -159 -222q-136 -85 -337 -85z" />
    <glyph glyph-name="t" unicode="t" horiz-adv-x="876" 
d="M903 885h-407l-97 -545q-20 -113 12 -155q31 -42 132 -42h233l-24 -143q-146 -20 -258 -20q-160 0 -243 89t-56 232l102 584h-213l29 159h213l59 310h193l-56 -310h410z" />
    <glyph glyph-name="u" unicode="u" horiz-adv-x="1329" 
d="M924 422l110 622h199l-184 -1044h-191l33 190q-167 -221 -432 -221q-167 0 -253 108q-86 107 -54 281l120 686h199l-106 -604q-31 -169 14 -236t192 -67q136 0 234 77q96 77 119 208z" />
    <glyph glyph-name="v" unicode="v" horiz-adv-x="1114" 
d="M571 276l410 768h197l-564 -1044h-311l-194 1044h204l140 -768l26 -186z" />
    <glyph glyph-name="w" unicode="w" horiz-adv-x="1808" 
d="M1311 276l348 768h207l-502 -1044h-303l-60 729l-10 217l-88 -217l-317 -729h-312l-135 1044h215l80 -768l12 -215l86 215l332 768h289l61 -768l11 -208z" />
    <glyph glyph-name="x" unicode="x" horiz-adv-x="1257" 
d="M1044 1044h232l-465 -514l297 -530h-217l-172 324l-90 188l-164 -188l-289 -324h-231l520 561l-266 483h217l151 -278l80 -162z" />
    <glyph glyph-name="y" unicode="y" horiz-adv-x="1114" 
d="M571 276l410 768h197l-658 -1218q-53 -103 -147 -164t-197 -61q-112 0 -190 20l24 143h156q132 0 184 103l72 133h-119l-194 1044h204l140 -768l26 -188z" />
    <glyph glyph-name="z" unicode="z" horiz-adv-x="1036" 
d="M862 0h-852l56 309l860 572l-228 -4h-524l31 167h831l-55 -317l-850 -563l215 4h545z" />
    <glyph glyph-name="braceleft" unicode="{" horiz-adv-x="761" 
d="M739 1567q70 0 172 -21l-26 -143h-105q-86 0 -111 -21q-27 -24 -40 -104l-84 -481q-37 -213 -320 -213q142 0 202 -53t42 -160l-84 -482q-14 -84 4 -105q17 -20 103 -20h104l-25 -143q-112 -20 -178 -20q-144 0 -193 47t-26 170l96 544q14 80 -12.5 110t-110.5 30h-131
l29 164h131q84 0 121 30q37 28 51 109l96 545q23 124 87 170q64 47 208 47z" />
    <glyph glyph-name="bar" unicode="|" horiz-adv-x="659" 
d="M76 -379l340 1925h188l-340 -1925h-188z" />
    <glyph glyph-name="braceright" unicode="}" horiz-adv-x="763" 
d="M637 666h131l-29 -164h-131q-84 0 -120 -30q-37 -29 -52 -110l-96 -544q-20 -123 -86 -170q-67 -47 -211 -47q-72 0 -170 20l25 143h104q86 0 112 21q25 22 40 104l84 482q38 213 321 213q-143 0 -203.5 52.5t-42.5 160.5l84 481q13 84 -3 105q-17 20 -103 20h-105
l27 143q102 19 176 21q144 0 194 -47q48 -47 27 -170l-96 -545q-14 -80 12.5 -109.5t110.5 -29.5z" />
    <glyph glyph-name="asciitilde" unicode="~" horiz-adv-x="1181" 
d="M244 440h-156q22 128 120 220q98 90 222 90q64 0 118.5 -25t88.5 -59q80 -84 166 -84q61 0 103 43q41 43 55 102h155q-22 -128 -121 -219q-97 -90 -221 -90q-65 0 -119.5 24.5t-86.5 59.5q-80 84 -169 84q-61 0 -103 -44q-41 -43 -52 -102z" />
    <glyph glyph-name="exclamdown" unicode="&#xa1;" horiz-adv-x="665" 
d="M553 1044l-45 -256h-256l45 256h256zM272 -389h-198l57 330l160 673h117l-78 -673z" />
    <glyph glyph-name="cent" unicode="&#xa2;" horiz-adv-x="1220" 
d="M1163 872h-205q18 109 -16.5 164.5t-130.5 69.5l-137 -778q104 10 159.5 61t71.5 150h205q-27 -153 -153 -254t-310 -117l-24 -137h-148l25 137q-198 27 -289 174q-92 148 -53 375t184 375q146 147 350 174l25 137h147l-24 -137q176 -18 263 -125t60 -269zM367 717
q-33 -178 6 -272.5t155 -114.5l136 774q-123 -20 -194.5 -113.5t-102.5 -273.5z" />
    <glyph glyph-name="sterling" unicode="&#xa3;" horiz-adv-x="1230" 
d="M1257 1018h-215q25 139 -27.5 202.5t-193.5 63.5q-156 0 -239.5 -72t-110.5 -231q-16 -92 -4 -229h518l-29 -154h-477q0 -34 -6 -68q-23 -112 -111 -216q-88 -103 -249 -148l272 8h723l-31 -174h-1085l51 285q111 27 168.5 81t75.5 152q6 43 6 80h-197l29 154h145
q-23 119 -4 223q39 219 201 354t389 135q215 0 326 -122q110 -123 75 -324z" />
    <glyph glyph-name="currency" unicode="&#xa4;" horiz-adv-x="1409" 
d="M1337 1311l80 -99l-188 -161q70 -136 37 -332q-33 -193 -154 -332l131 -162l-115 -98l-131 158q-155 -109 -354 -109q-202 0 -315 109l-187 -158l-82 98l191 160q-70 139 -37 334q33 193 154 332l-134 161l117 99l129 -158q155 109 357 109q199 0 317 -109zM437 448
q80 -104 237 -104t273 104q117 105 145 271q28 168 -50 272q-79 103 -237 103t-273 -103q-117 -104 -145 -272q-29 -169 50 -271z" />
    <glyph glyph-name="yen" unicode="&#xa5;" horiz-adv-x="1302" 
d="M1247 1434h205l-582 -803h291l-22 -133h-365l-18 -27h-2l-23 -137h377l-23 -133h-378l-35 -201h-209l35 201h-396l23 133h397l25 139l-10 25h-381l22 133h309l-301 803h222l206 -553l74 -242l160 242z" />
    <glyph glyph-name="brokenbar" unicode="&#xa6;" horiz-adv-x="661" 
d="M471 780h-188l135 766h188zM266 -379h-188l135 770h188z" />
    <glyph glyph-name="section" unicode="&#xa7;" horiz-adv-x="1378" 
d="M1321 956h-215q29 170 -45.5 247t-269.5 77q-348 0 -388 -217q-18 -98 60 -154q79 -58 348 -110q265 -53 369 -150q102 -97 73 -264l-65 -369q-33 -185 -207 -301q-174 -114 -424 -114q-276 0 -421 133q-146 134 -107 352h215q-29 -159 53.5 -230t294.5 -71
q348 0 387 213q18 94 -59 157q-80 63 -347 115q-260 52 -367 145q-106 91 -77 253l66 368q34 192 208 311q173 117 422 117q263 0 399 -139t97 -369zM637 639q-227 47 -332 117l-8 -41q-14 -73 13 -116q26 -44 129 -86q104 -43 306 -83q228 -47 334 -123l6 39
q9 51 -2.5 85.5t-53.5 71.5q-88 76 -392 136z" />
    <glyph glyph-name="dieresis" unicode="&#xa8;" horiz-adv-x="710" 
d="M205 1276l41 229h219l-41 -229h-219zM553 1276l41 229h219l-41 -229h-219z" />
    <glyph glyph-name="copyright" unicode="&#xa9;" horiz-adv-x="1626" 
d="M1299 175q-245 -206 -582 -206q-338 0 -509 206t-111 542q59 337 303 542q242 205 581 205t508 -205q170 -206 110 -542q-57 -337 -300 -542zM345 279q132 -166 397 -166t456 166q192 166 238 438q50 271 -84 438q-133 166 -397 166q-265 0 -455 -166
q-190 -167 -240 -438q-47 -272 85 -438zM1014 594h166q-22 -127 -131 -204q-110 -77 -265 -77q-172 0 -257 111t-52 293t156 293q124 110 295 110q152 0 232 -81q79 -80 56 -214h-161q16 86 -20 126t-130 40q-111 0 -173 -65t-89 -209q-25 -141 15 -208t151 -67
q96 0 144 35.5t63 116.5z" />
    <glyph glyph-name="ordfeminine" unicode="&#xaa;" horiz-adv-x="911" 
d="M842 717h2l-15 -90q-63 -11 -116 -13q-69 0 -95 36t-12 116q-92 -158 -282 -158q-102 0 -156.5 46t-40.5 122q12 69 67 110q54 42 179 66q214 45 274 60v4q16 100 -10.5 144t-101.5 44q-76 0 -117 -37t-56 -120h-159q22 122 119 199q96 75 233 75q145 0 213 -71.5
t43 -202.5l-45 -248q-10 -53 4 -67q14 -15 72 -15zM373 715q211 0 252 176l8 39l-223 -53q-60 -13 -83 -33t-30 -56q-8 -35 11.5 -54t64.5 -19z" />
    <glyph glyph-name="guillemotleft" unicode="&#xab;" horiz-adv-x="1032" 
d="M401 907h217l-444 -379l311 -378h-217l-233 282l26 143l9 50zM852 907h217l-444 -379l311 -378h-217l-234 282l27 143l8 50z" />
    <glyph glyph-name="logicalnot" unicode="&#xac;" horiz-adv-x="1024" 
d="M115 629h819l-76 -426h-160l47 270h-659z" />
    <glyph glyph-name="registered" unicode="&#xae;" horiz-adv-x="942" 
d="M307 1347q139 117 332 117q192 0 291 -116q98 -117 63 -308q-33 -192 -171 -308q-139 -116 -332 -116q-194 0 -292 116t-65 308q34 190 174 307zM879 1040q27 142 -44 233q-71 89 -214 89q-144 0 -245 -89q-102 -89 -128 -233q-25 -144 46 -233q70 -88 214 -88t245 88
q101 89 126 233zM436 1229h226q53 0 79.5 -33t16.5 -86q-12 -82 -88 -109l12 -22l66 -125h-107l-68 137h-79l-25 -137h-100zM598 1157h-74l-18 -96h74q70 0 77 49q4 25 -9.5 36t-49.5 11z" />
    <glyph glyph-name="overscore" unicode="&#xaf;" horiz-adv-x="724" 
d="M240 1475h581l-28 -160h-582z" />
    <glyph glyph-name="degree" unicode="&#xb0;" horiz-adv-x="798" 
d="M709 890q-109 -91 -260 -91q-153 0 -229 91q-77 92 -50 243q27 150 136 241q108 90 260 90q151 0 229 -91q77 -91 51 -240q-28 -151 -137 -243zM340 989q43 -55 133 -55t153 54q63 55 76 145q16 88 -27.5 142t-131.5 54q-89 0 -150 -54q-64 -55 -80 -142q-17 -90 27 -144
z" />
    <glyph glyph-name="plusminus" unicode="&#xb1;" horiz-adv-x="999" 
d="M662 983l-46 -252h318l-27 -153h-317l-45 -252h-160l45 252h-317l26 153h318l45 252h160zM815 59h-795l27 156h795z" />
    <glyph glyph-name="uni00B2" unicode="&#xb2;" horiz-adv-x="737" 
d="M727 866h-594l41 238l326 147q69 32 93 56q24 23 32 65q8 49 -12.5 71.5t-71.5 22.5q-121 0 -142 -116h-178q19 114 115 187q95 71 227 71q125 0 191 -63q65 -65 47 -169q-14 -75 -66 -121q-55 -49 -180 -106l-246 -113l-92 -39l154 2h379z" />
    <glyph glyph-name="uni00B3" unicode="&#xb3;" horiz-adv-x="786" 
d="M829 1399q-22 -126 -194 -152q200 -23 168 -194q-16 -94 -115 -152q-101 -59 -248 -59q-140 0 -211 67q-73 65 -53 174h176q-8 -54 18.5 -77t98.5 -23q147 0 162 86q8 47 -15.5 67.5t-85.5 20.5h-141l23 125h110q112 0 125 76q10 55 -15 82t-85 26q-118 0 -137 -108h-179
q20 113 113 182q92 68 225 68t205 -57q71 -59 55 -152z" />
    <glyph glyph-name="acute" unicode="&#xb4;" horiz-adv-x="530" 
d="M195 1219l211 327h233l-287 -327h-157z" />
    <glyph glyph-name="paragraph" unicode="&#xb6;" horiz-adv-x="1581" 
d="M178 1034q32 181 176 290q145 110 351 110h81l-141 -801h-82q-205 0 -310 110q-107 109 -75 291zM786 1434h879l-31 -174h-252l-288 -1639h-209l289 1639h-209l-289 -1639h-209z" />
    <glyph glyph-name="middot" unicode="&#xb7;" horiz-adv-x="542" 
d="M125 416l45 256h256l-45 -256h-256z" />
    <glyph glyph-name="cedilla" unicode="&#xb8;" horiz-adv-x="522" 
d="M92 -111h62q84 0 127 -44t30 -115q-13 -76 -78 -123t-157 -47h-174l22 123h144q72 0 79 51q4 27 -10 39t-53 12h-125l18 102l56 113h106z" />
    <glyph glyph-name="uni00B9" unicode="&#xb9;" horiz-adv-x="538" 
d="M266 1577h316l-125 -711h-170l94 535l27 129l-60 -49l-254 -191l33 183z" />
    <glyph glyph-name="ordmasculine" unicode="&#xba;" horiz-adv-x="884" 
d="M718 706q-115 -98 -271 -98q-157 0 -237 98q-79 96 -50 259q28 159 142 258q113 98 270 98t237 -98q79 -99 51 -258q-28 -160 -142 -259zM339 787q35 -56 130 -56q96 0 152 56t75 178q20 121 -14.5 177t-130.5 56t-150.5 -56.5t-76.5 -176.5q-19 -123 15 -178z" />
    <glyph glyph-name="guillemotright" unicode="&#xbb;" horiz-adv-x="1036" 
d="M522 469h-2l-6 -37l-332 -282h-217l447 378l-314 379h217l234 -282l-6 -37l-2 -13zM999 625l-8 -50l-18 -106h-2l-6 -37l-332 -282h-217l446 378l-313 379h217z" />
    <glyph glyph-name="onequarter" unicode="&#xbc;" horiz-adv-x="1460" 
d="M-20 0l1394 1434h174l-1394 -1434h-174zM522 1280l21 106l-43 -36l-219 -166l30 172l103 78h288l-106 -615h-154zM973 614h246l-66 -372h100l-20 -117h-100l-23 -125h-147l22 125h-280l43 242zM760 240l88 2h158l34 196l29 140z" />
    <glyph glyph-name="onehalf" unicode="&#xbd;" horiz-adv-x="1460" 
d="M-23 0l1395 1434h174l-1394 -1434h-175zM541 1280l20 106l-43 -36l-219 -166l31 172l102 78h289l-107 -615h-153zM1106 645q109 0 165 -55t40 -146q-11 -66 -56 -106q-47 -41 -157 -92l-213 -99l-80 -32l133 2h330l-21 -117h-516l37 207l283 129q55 26 79 47q21 19 27 57
q13 82 -72 82q-106 0 -124 -102h-154q18 99 101 163q83 62 198 62z" />
    <glyph glyph-name="threequarters" unicode="&#xbe;" horiz-adv-x="1460" 
d="M391 799q-121 0 -184 57q-64 56 -47 152h153q-8 -45 15.5 -65.5t85.5 -20.5q129 0 141 73q6 41 -14.5 59.5t-73.5 18.5h-123l21 109h96q94 0 108 65q19 94 -88 94q-100 0 -119 -94h-153q18 98 98 158q80 59 195 59q116 0 176.5 -50t48.5 -132q-16 -109 -164 -133
q168 -19 142 -168q-17 -83 -101 -132q-86 -50 -213 -50zM-20 0l1394 1434h174l-1394 -1434h-174zM973 614h246l-66 -372h100l-20 -117h-100l-23 -125h-147l22 125h-280l43 242zM760 240l88 2h158l34 196l29 140z" />
    <glyph glyph-name="questiondown" unicode="&#xbf;" horiz-adv-x="1042" 
d="M520 1044h256l-45 -256h-256zM739 41h189q-37 -206 -189 -334q-152 -127 -366 -127q-211 0 -319 112q-109 112 -77 300q25 139 131 235.5t277 134.5l72 17l55 235h119l-41 -344l-162 -30q-124 -26 -181 -80q-60 -57 -79 -164q-27 -134 28 -195t201 -61q152 0 233.5 71.5
t108.5 229.5z" />
    <glyph glyph-name="Agrave" unicode="&#xc0;" horiz-adv-x="1419" 
d="M893 1935l96 -327h-158l-172 327h234zM1296 0h-215l-71 438h-621l-227 -438h-203l739 1434h363zM719 1075l-240 -463h504l-76 463l-45 287z" />
    <glyph glyph-name="Aacute" unicode="&#xc1;" horiz-adv-x="1419" 
d="M1038 1935h234l-287 -327h-158zM1296 0h-215l-71 438h-621l-227 -438h-203l739 1434h363zM719 1075l-240 -463h504l-76 463l-45 287z" />
    <glyph glyph-name="Acircumflex" unicode="&#xc2;" horiz-adv-x="1419" 
d="M1053 1608l-90 260l-185 -260h-186l250 327h262l135 -327h-186zM1296 0h-215l-71 438h-621l-227 -438h-203l739 1434h363zM719 1075l-240 -463h504l-76 463l-45 287z" />
    <glyph glyph-name="Atilde" unicode="&#xc3;" horiz-adv-x="1419" 
d="M778 1745q-92 0 -110 -96h-123q23 119 94 190q70 70 170 70q69 0 155 -50q86 -51 138 -51q95 0 108 97h123q-19 -118 -89 -189q-71 -71 -171 -71q-70 0 -156 50t-139 50zM698 1434h363l235 -1434h-215l-71 438h-621l-227 -438h-203zM719 1075l-240 -463h504l-76 463
l-45 287z" />
    <glyph glyph-name="Adieresis" unicode="&#xc4;" horiz-adv-x="1419" 
d="M678 1894h219l-41 -229h-219zM1026 1894h219l-41 -229h-219zM1296 0h-215l-71 438h-621l-227 -438h-203l739 1434h363zM719 1075l-240 -463h504l-76 463l-45 287z" />
    <glyph glyph-name="Aring" unicode="&#xc5;" horiz-adv-x="1419" 
d="M1057 1649q-62 -47 -148 -47t-131 47t-30 123q12 76 74 123t147 47q86 0 131 -47.5t33 -122.5q-13 -76 -76 -123zM850 1772q-8 -42 10 -61t66 -19q90 0 104 80q8 42 -10 60.5t-66 18.5q-90 2 -104 -79zM1296 0h-215l-71 438h-621l-227 -438h-203l739 1434h363zM719 1075
l-240 -463h504l-76 463l-45 287z" />
    <glyph glyph-name="AE" unicode="&#xc6;" horiz-adv-x="1939" 
d="M1980 1434l-30 -174h-860l73 -447h668l-31 -174h-608l76 -465h508l-31 -174h-664l-71 438h-621l-227 -438h-203l739 1434h1282zM719 1075l-240 -463h504l-76 463l-45 287z" />
    <glyph glyph-name="Ccedilla" unicode="&#xc7;" horiz-adv-x="1564" 
d="M1526 932h-215q33 182 -51 265t-302 83q-256 0 -395 -133t-190 -430q-51 -298 40 -431q92 -134 347 -134q217 0 329 78q110 76 142 247h215q-40 -235 -237 -369q-196 -133 -457 -139l-35 -80h61q84 0 127 -44t31 -115q-14 -76 -78 -123q-65 -47 -158 -47h-174l23 123h143
q72 0 80 51q4 27 -10 39t-53 12h-125l18 102l43 86q-276 28 -408 230q-133 199 -79 514q58 336 289 542q229 205 544 205q264 0 421 -142q158 -142 114 -390z" />
    <glyph glyph-name="Egrave" unicode="&#xc8;" horiz-adv-x="1294" 
d="M870 1935l97 -327h-158l-172 327h233zM1335 1434l-30 -174h-732l-77 -447h690l-31 -174h-690l-82 -465h747l-30 -174h-957l252 1434h940z" />
    <glyph glyph-name="Eacute" unicode="&#xc9;" horiz-adv-x="1294" 
d="M1016 1935h233l-286 -327h-158zM1335 1434l-30 -174h-732l-77 -447h690l-31 -174h-690l-82 -465h747l-30 -174h-957l252 1434h940z" />
    <glyph glyph-name="Ecircumflex" unicode="&#xca;" horiz-adv-x="1294" 
d="M1030 1608l-90 260l-184 -260h-187l250 327h262l136 -327h-187zM1335 1434l-30 -174h-732l-77 -447h690l-31 -174h-690l-82 -465h747l-30 -174h-957l252 1434h940z" />
    <glyph glyph-name="Edieresis" unicode="&#xcb;" horiz-adv-x="1294" 
d="M655 1894h219l-40 -229h-220zM1004 1894h219l-41 -229h-219zM1335 1434l-30 -174h-732l-77 -447h690l-31 -174h-690l-82 -465h747l-30 -174h-957l252 1434h940z" />
    <glyph glyph-name="Igrave" unicode="&#xcc;" horiz-adv-x="679" 
d="M279 1935h233l96 -327h-157zM143 0l252 1434h209l-252 -1434h-209z" />
    <glyph glyph-name="Iacute" unicode="&#xcd;" horiz-adv-x="679" 
d="M446 1608l211 327h234l-287 -327h-158zM143 0l252 1434h209l-252 -1434h-209z" />
    <glyph glyph-name="Icircumflex" unicode="&#xce;" horiz-adv-x="679" 
d="M461 1935h262l135 -327h-186l-90 260l-185 -260h-186zM352 0h-209l252 1434h209z" />
    <glyph glyph-name="Idieresis" unicode="&#xcf;" horiz-adv-x="679" 
d="M256 1665l41 229h219l-41 -229h-219zM604 1665l41 229h219l-41 -229h-219zM143 0l252 1434h209l-252 -1434h-209z" />
    <glyph glyph-name="Eth" unicode="&#xd0;" horiz-adv-x="1605" 
d="M395 1434h557q311 0 467 -198t99 -519q-58 -323 -282 -519q-223 -198 -536 -198h-557l111 625h-207l31 174h207zM383 174h334q489 0 586 543q96 543 -396 543h-334l-79 -461h352l-31 -174h-352z" />
    <glyph glyph-name="Ntilde" unicode="&#xd1;" horiz-adv-x="1669" 
d="M907 1745q-92 0 -110 -96h-123q22 119 94 190q70 70 170 70q69 0 155 -50q85 -51 138 -51q95 0 108 97h123q-19 -118 -89 -189q-71 -71 -171 -71q-70 0 -156 50t-139 50zM1210 442l174 992h209l-252 -1434h-352l-414 1325l-38 -278l-185 -1047h-209l252 1434h359
l409 -1313z" />
    <glyph glyph-name="Ograve" unicode="&#xd2;" horiz-adv-x="1667" 
d="M774 1935h234l96 -327h-158zM1290 175q-233 -206 -552 -206t-480 206q-160 205 -100 542q58 336 292 542q232 205 552 205q319 0 478 -205q158 -206 99 -542q-57 -337 -289 -542zM416 288q95 -134 354 -134t401 134q141 135 193 429q51 297 -42 430t-353 133
q-259 0 -402 -134t-194 -429q-51 -296 43 -429z" />
    <glyph glyph-name="Oacute" unicode="&#xd3;" horiz-adv-x="1667" 
d="M942 1608l211 327h233l-286 -327h-158zM1290 175q-233 -206 -552 -206t-480 206q-160 205 -100 542q58 336 292 542q232 205 552 205q319 0 478 -205q158 -206 99 -542q-57 -337 -289 -542zM416 288q95 -134 354 -134t401 134q141 135 193 429q51 297 -42 430t-353 133
q-259 0 -402 -134t-194 -429q-51 -296 43 -429z" />
    <glyph glyph-name="Ocircumflex" unicode="&#xd4;" horiz-adv-x="1667" 
d="M1167 1608l-90 260l-184 -260h-186l249 327h263l135 -327h-187zM450 1259q232 205 552 205q319 0 478 -205q158 -206 99 -542q-57 -337 -289 -542q-233 -206 -552 -206t-480 206q-160 205 -100 542q58 336 292 542zM1364 717q51 297 -42 430t-353 133q-259 0 -402 -134
t-194 -429q-51 -296 43 -429q95 -134 354 -134t401 134q141 135 193 429z" />
    <glyph glyph-name="Otilde" unicode="&#xd5;" horiz-adv-x="1667" 
d="M1188 1645q-70 0 -156 50t-139 50q-91 0 -111 -96h-123q23 119 94 190q70 70 171 70q69 0 155 -50q84 -51 138 -51q95 0 108 97h123q-20 -119 -90 -189q-71 -71 -170 -71zM1290 175q-233 -206 -552 -206t-480 206q-160 205 -100 542q58 336 292 542q232 205 552 205
q319 0 478 -205q158 -206 99 -542q-57 -337 -289 -542zM416 288q95 -134 354 -134t401 134q141 135 193 429q51 297 -42 430t-353 133q-259 0 -402 -134t-194 -429q-51 -296 43 -429z" />
    <glyph glyph-name="Odieresis" unicode="&#xd6;" horiz-adv-x="1667" 
d="M752 1665l41 229h219l-41 -229h-219zM1100 1665l41 229h219l-41 -229h-219zM1290 175q-233 -206 -552 -206t-480 206q-160 205 -100 542q58 336 292 542q232 205 552 205q319 0 478 -205q158 -206 99 -542q-57 -337 -289 -542zM416 288q95 -134 354 -134t401 134
q141 135 193 429q51 297 -42 430t-353 133q-259 0 -402 -134t-194 -429q-51 -296 43 -429z" />
    <glyph glyph-name="multiply" unicode="&#xd7;" horiz-adv-x="946" 
d="M807 901l86 -104l-313 -267l219 -266l-123 -104l-219 266l-314 -266l-86 104l314 266l-219 267l122 104l220 -266z" />
    <glyph glyph-name="Oslash" unicode="&#xd8;" horiz-adv-x="1667" 
d="M1452 1546h217l-221 -252q197 -206 131 -577q-57 -337 -289 -542q-233 -206 -553 -206q-215 0 -364 99l-168 -191h-217l266 303q-154 207 -96 537q58 336 292 542q232 205 551 205q184 0 318 -71zM373 717q-43 -249 16 -381l801 911q-86 33 -221 33q-259 0 -402 -134
t-194 -429zM1364 717q53 299 -43 432l-823 -936q98 -59 272 -59q259 0 401 134q141 135 193 429z" />
    <glyph glyph-name="Ugrave" unicode="&#xd9;" horiz-adv-x="1585" 
d="M731 1935h234l96 -327h-158zM199 487l166 947h208l-165 -942q-31 -178 45 -259t274 -81q199 0 303.5 80.5t134.5 259.5l166 942h209l-166 -947q-40 -233 -228 -375q-188 -143 -452 -143q-263 0 -400 143q-136 142 -95 375z" />
    <glyph glyph-name="Uacute" unicode="&#xda;" horiz-adv-x="1585" 
d="M899 1608l211 327h233l-286 -327h-158zM199 487l166 947h208l-165 -942q-31 -178 45 -259t274 -81q199 0 303.5 80.5t134.5 259.5l166 942h209l-166 -947q-40 -233 -228 -375q-188 -143 -452 -143q-263 0 -400 143q-136 142 -95 375z" />
    <glyph glyph-name="Ucircumflex" unicode="&#xdb;" horiz-adv-x="1585" 
d="M1124 1608l-90 260l-184 -260h-186l249 327h263l135 -327h-187zM1165 492l166 942h209l-166 -947q-40 -233 -228 -375q-188 -143 -452 -143q-263 0 -400 143q-136 142 -95 375l166 947h208l-165 -942q-31 -178 45 -259t274 -81q199 0 303.5 80.5t134.5 259.5z" />
    <glyph glyph-name="Udieresis" unicode="&#xdc;" horiz-adv-x="1585" 
d="M709 1665l41 229h219l-41 -229h-219zM1057 1665l41 229h219l-41 -229h-219zM199 487l166 947h208l-165 -942q-31 -178 45 -259t274 -81q199 0 303.5 80.5t134.5 259.5l166 942h209l-166 -947q-40 -233 -228 -375q-188 -143 -452 -143q-263 0 -400 143q-136 142 -95 375z
" />
    <glyph glyph-name="Yacute" unicode="&#xdd;" horiz-adv-x="1302" 
d="M977 1935h233l-286 -327h-158zM1247 1434h205l-696 -963h-2l-82 -471h-209l84 473l-361 961h222l206 -553l74 -242l160 242z" />
    <glyph glyph-name="Thorn" unicode="&#xde;" horiz-adv-x="1304" 
d="M553 1143h383q207 0 312 -116q104 -116 71 -304q-34 -190 -193 -306q-160 -116 -389 -116h-331l-54 -301h-209l252 1434h209zM1104 723q23 129 -29.5 187.5t-189.5 58.5h-363l-86 -494h363q137 0 209.5 58.5t95.5 189.5z" />
    <glyph glyph-name="germandbls" unicode="&#xdf;" horiz-adv-x="1429" 
d="M1038 623q222 -57 286 -136q65 -80 40 -217q-26 -136 -152 -218q-128 -83 -309 -83q-197 0 -298 102q-101 101 -73 269h205q-20 -117 26 -169t169 -52q111 0 167 33.5t68 107.5q14 80 -25 122q-41 43 -196 83q-154 40 -219 108t-49 158q18 101 86 169t207 126
q177 77 196 184q16 100 -54 146.5t-241 46.5q-174 0 -263 -56.5t-109 -181.5l-205 -1165h-199l209 1184q28 171 195 278q166 105 404 105t366 -97q129 -97 100 -256q-33 -189 -285 -299q-116 -50 -161 -85q-41 -33 -50 -78q-6 -45 28 -73q36 -29 136 -56z" />
    <glyph glyph-name="agrave" unicode="&#xe0;" horiz-adv-x="1222" 
d="M696 1546l97 -327h-158l-172 327h233zM1100 139h2l-25 -139q-85 -20 -151 -20q-94 0 -126 54t-16 183q-70 -116 -183 -182t-257 -66q-143 0 -218 72t-54 188q19 104 97 173q77 68 249 102q358 74 426 92v6q29 170 -14.5 247t-170.5 77t-195.5 -64.5t-92.5 -210.5h-199
q34 189 175 307q139 117 339 117q211 0 306 -110.5t59 -313.5l-70 -387q-13 -82 7 -103q19 -22 112 -22zM420 127q154 0 255.5 70t133.5 209l12 73q-29 -10 -344 -82q-103 -22 -142 -55q-38 -33 -50 -92q-10 -59 24.5 -91t110.5 -32z" />
    <glyph glyph-name="aacute" unicode="&#xe1;" horiz-adv-x="1222" 
d="M842 1546h233l-287 -327h-157zM1100 139h2l-25 -139q-85 -20 -151 -20q-94 0 -126 54t-16 183q-70 -116 -183 -182t-257 -66q-143 0 -218 72t-54 188q19 104 97 173q77 68 249 102q358 74 426 92v6q29 170 -14.5 247t-170.5 77t-195.5 -64.5t-92.5 -210.5h-199
q34 189 175 307q139 117 339 117q211 0 306 -110.5t59 -313.5l-70 -387q-13 -82 7 -103q19 -22 112 -22zM420 127q154 0 255.5 70t133.5 209l12 73q-29 -10 -344 -82q-103 -22 -142 -55q-38 -33 -50 -92q-10 -59 24.5 -91t110.5 -32z" />
    <glyph glyph-name="acircumflex" unicode="&#xe2;" horiz-adv-x="1222" 
d="M856 1219l-90 260l-184 -260h-187l250 327h262l135 -327h-186zM1100 139h2l-25 -139q-85 -20 -151 -20q-94 0 -126 54t-16 183q-70 -116 -183 -182t-257 -66q-143 0 -218 72t-54 188q19 104 97 173q77 68 249 102q358 74 426 92v6q29 170 -14.5 247t-170.5 77
t-195.5 -64.5t-92.5 -210.5h-199q34 189 175 307q139 117 339 117q211 0 306 -110.5t59 -313.5l-70 -387q-13 -82 7 -103q19 -22 112 -22zM420 127q154 0 255.5 70t133.5 209l12 73q-29 -10 -344 -82q-103 -22 -142 -55q-38 -33 -50 -92q-10 -59 24.5 -91t110.5 -32z" />
    <glyph glyph-name="atilde" unicode="&#xe3;" horiz-adv-x="1222" 
d="M582 1356q-92 0 -111 -96h-123q22 118 94 190q70 70 170 70q69 0 155 -50q85 -51 138 -51q94 0 109 97h123q-20 -120 -90 -190q-71 -71 -170 -71q-71 0 -156 51q-86 50 -139 50zM1051 651l-70 -387q-13 -82 7 -103q19 -22 112 -22h2l-25 -139q-85 -20 -151 -20
q-94 0 -126 54t-16 183q-70 -116 -183 -182t-257 -66q-143 0 -218 72t-54 188q19 104 97 173q77 68 249 102q358 74 426 92v6q29 170 -14.5 247t-170.5 77t-195.5 -64.5t-92.5 -210.5h-199q34 189 175 307q139 117 339 117q211 0 306 -110.5t59 -313.5zM420 127
q154 0 255.5 70t133.5 209l12 73q-29 -10 -344 -82q-103 -22 -142 -55q-38 -33 -50 -92q-10 -59 24.5 -91t110.5 -32z" />
    <glyph glyph-name="adieresis" unicode="&#xe4;" horiz-adv-x="1222" 
d="M481 1505h219l-41 -229h-219zM829 1505h220l-41 -229h-220zM1100 139h2l-25 -139q-85 -20 -151 -20q-94 0 -126 54t-16 183q-70 -116 -183 -182t-257 -66q-143 0 -218 72t-54 188q19 104 97 173q77 68 249 102q358 74 426 92v6q29 170 -14.5 247t-170.5 77t-195.5 -64.5
t-92.5 -210.5h-199q34 189 175 307q139 117 339 117q211 0 306 -110.5t59 -313.5l-70 -387q-13 -82 7 -103q19 -22 112 -22zM420 127q154 0 255.5 70t133.5 209l12 73q-29 -10 -344 -82q-103 -22 -142 -55q-38 -33 -50 -92q-10 -59 24.5 -91t110.5 -32z" />
    <glyph glyph-name="aring" unicode="&#xe5;" horiz-adv-x="1222" 
d="M861 1259q-62 -47 -148 -47t-131 48q-45 46 -31 122q12 76 74 123t147 47q86 0 131 -47t33 -123q-14 -76 -75 -123zM653 1382q-8 -42 10 -60.5t66 -18.5q90 0 105 79q8 42 -10 61t-66 19q-91 0 -105 -80zM1100 139h2l-25 -139q-85 -20 -151 -20q-94 0 -126 54t-16 183
q-70 -116 -183 -182t-257 -66q-143 0 -218 72t-54 188q19 104 97 173q77 68 249 102q358 74 426 92v6q29 170 -14.5 247t-170.5 77t-195.5 -64.5t-92.5 -210.5h-199q34 189 175 307q139 117 339 117q211 0 306 -110.5t59 -313.5l-70 -387q-13 -82 7 -103q19 -22 112 -22z
M420 127q154 0 255.5 70t133.5 209l12 73q-29 -10 -344 -82q-103 -22 -142 -55q-38 -33 -50 -92q-10 -59 24.5 -91t110.5 -32z" />
    <glyph glyph-name="ae" unicode="&#xe6;" horiz-adv-x="1957" 
d="M1458 1075q216 0 325 -130t70 -343l-20 -121h-786q-27 -184 31.5 -268t213.5 -84q141 0 213 46t88 147h205q-27 -158 -174 -255q-148 -98 -360 -98q-170 0 -275.5 83t-128.5 237q-58 -141 -187 -230q-127 -90 -308 -90q-152 0 -233 72t-60 188q19 103 103 171
q81 66 263 104q358 74 426 92v6q31 170 -13 247t-171 77t-195.5 -64.5t-93.5 -210.5h-198q34 189 175 307q140 117 339 117q264 0 327 -190q172 190 424 190zM1073 616l242 5h338q20 154 -33 224t-190 70q-144 0 -230 -71.5t-127 -227.5zM440 127q162 0 266 77.5t130 229.5
l8 45q-65 -22 -346 -82q-118 -26 -160 -56q-42 -31 -53 -91t28.5 -91.5t126.5 -31.5z" />
    <glyph glyph-name="ccedilla" unicode="&#xe7;" horiz-adv-x="1218" 
d="M1128 678h-204q23 125 -28.5 181t-186.5 56q-162 0 -252 -93t-125 -300q-37 -207 20 -300t219 -93q138 0 208.5 50.5t90.5 164.5h205q-27 -157 -158 -258q-130 -100 -321 -115l-35 -82h62q84 0 127 -44t30 -115q-14 -76 -78 -123q-65 -47 -157 -47h-174l22 123h144
q71 0 79 51q4 27 -10 39t-53 12h-125l18 102l41 84q-207 18 -306 168t-58 383q44 249 212 401q170 152 402 152q207 0 315 -109q107 -110 76 -288z" />
    <glyph glyph-name="egrave" unicode="&#xe8;" horiz-adv-x="1236" 
d="M743 1546l97 -327h-158l-172 327h233zM737 1075q216 0 325 -130q109 -129 71 -343l-21 -121h-786q-27 -184 31.5 -268t213.5 -84q141 0 213 46t88 147h205q-27 -158 -174 -255q-148 -98 -360 -98q-233 0 -349 153q-116 152 -71 400q44 249 212 401q170 152 402 152z
M352 616l242 5h338q20 154 -33 224t-190 70q-144 0 -230 -71.5t-127 -227.5z" />
    <glyph glyph-name="eacute" unicode="&#xe9;" horiz-adv-x="1236" 
d="M889 1546h233l-286 -327h-158zM737 1075q216 0 325 -130q109 -129 71 -343l-21 -121h-786q-27 -184 31.5 -268t213.5 -84q141 0 213 46t88 147h205q-27 -158 -174 -255q-148 -98 -360 -98q-233 0 -349 153q-116 152 -71 400q44 249 212 401q170 152 402 152zM352 616
l242 5h338q20 154 -33 224t-190 70q-144 0 -230 -71.5t-127 -227.5z" />
    <glyph glyph-name="ecircumflex" unicode="&#xea;" horiz-adv-x="1236" 
d="M903 1219l-90 260l-184 -260h-187l250 327h262l136 -327h-187zM737 1075q216 0 325 -130q109 -129 71 -343l-21 -121h-786q-27 -184 31.5 -268t213.5 -84q141 0 213 46t88 147h205q-27 -158 -174 -255q-148 -98 -360 -98q-233 0 -349 153q-116 152 -71 400
q44 249 212 401q170 152 402 152zM352 616l242 5h338q20 154 -33 224t-190 70q-144 0 -230 -71.5t-127 -227.5z" />
    <glyph glyph-name="edieresis" unicode="&#xeb;" horiz-adv-x="1236" 
d="M528 1505h220l-41 -229h-220zM877 1505h219l-41 -229h-219zM737 1075q216 0 325 -130q109 -129 71 -343l-21 -121h-786q-27 -184 31.5 -268t213.5 -84q141 0 213 46t88 147h205q-27 -158 -174 -255q-148 -98 -360 -98q-233 0 -349 153q-116 152 -71 400q44 249 212 401
q170 152 402 152zM352 616l242 5h338q20 154 -33 224t-190 70q-144 0 -230 -71.5t-127 -227.5z" />
    <glyph glyph-name="igrave" unicode="&#xec;" horiz-adv-x="567" 
d="M160 1546h233l96 -327h-157zM96 0l185 1044h198l-184 -1044h-199z" />
    <glyph glyph-name="iacute" unicode="&#xed;" horiz-adv-x="567" 
d="M328 1219l211 327h233l-287 -327h-157zM96 0l185 1044h198l-184 -1044h-199z" />
    <glyph glyph-name="icircumflex" unicode="&#xee;" horiz-adv-x="567" 
d="M342 1546h262l135 -327h-186l-90 260l-184 -260h-187zM295 0h-199l185 1044h198z" />
    <glyph glyph-name="idieresis" unicode="&#xef;" horiz-adv-x="567" 
d="M137 1276l41 229h219l-41 -229h-219zM485 1276l41 229h219l-40 -229h-220zM96 0l185 1044h198l-184 -1044h-199z" />
    <glyph glyph-name="eth" unicode="&#xf0;" horiz-adv-x="1251" 
d="M1198 1546l-215 -172q299 -219 221 -657q-57 -337 -241 -542q-185 -206 -428 -206q-229 0 -344 144q-115 142 -74 376q39 230 192 373q151 142 361 142q138 0 224 -67q88 -68 107 -179q38 209 3 319q-34 108 -160 170l-166 -131h-199l230 182q-4 0 -15.5 4.5t-13.5 4.5
l-303 82l33 188l272 -68q102 -27 186 -67l131 104h199zM351 226q57 -83 215 -83q157 0 243 83t119 266q33 180 -22.5 262t-211.5 82q-160 0 -248 -83t-120 -263q-33 -182 25 -264z" />
    <glyph glyph-name="ntilde" unicode="&#xf1;" horiz-adv-x="1349" 
d="M702 1356q-92 0 -110 -96h-123q23 118 94 190q70 70 170 70q69 0 155 -50q86 -51 138 -51q94 0 109 97h122q-20 -119 -89 -190q-71 -71 -171 -71q-71 0 -156 51q-86 50 -139 50zM868 1075q180 0 271 -106q91 -107 59 -283l-121 -686h-198l106 604q31 170 -15 237
q-46 66 -194 66q-144 0 -247 -83q-102 -82 -128 -222l-106 -602h-199l185 1044h192l-37 -206q176 237 432 237z" />
    <glyph glyph-name="ograve" unicode="&#xf2;" horiz-adv-x="1302" 
d="M522 1546h234l96 -327h-158zM963 121q-173 -152 -410 -152q-238 0 -355 152q-118 151 -75 401q44 249 215 401q173 152 410 152t357 -152q120 -153 75 -401q-45 -250 -217 -401zM355 223q58 -94 227 -94q168 0 261 94q94 95 128 299q35 207 -24.5 300t-227.5 93
q-167 0 -259 -93q-90 -92 -128 -300q-37 -204 23 -299z" />
    <glyph glyph-name="oacute" unicode="&#xf3;" horiz-adv-x="1302" 
d="M690 1219l211 327h234l-287 -327h-158zM963 121q-173 -152 -410 -152q-238 0 -355 152q-118 151 -75 401q44 249 215 401q173 152 410 152t357 -152q120 -153 75 -401q-45 -250 -217 -401zM355 223q58 -94 227 -94q168 0 261 94q94 95 128 299q35 207 -24.5 300
t-227.5 93q-167 0 -259 -93q-90 -92 -128 -300q-37 -204 23 -299z" />
    <glyph glyph-name="ocircumflex" unicode="&#xf4;" horiz-adv-x="1302" 
d="M915 1219l-90 260l-184 -260h-186l250 327h262l135 -327h-187zM338 923q173 152 410 152t357 -152q120 -153 75 -401q-45 -250 -217 -401q-173 -152 -410 -152q-238 0 -355 152q-118 151 -75 401q44 249 215 401zM971 522q35 207 -24.5 300t-227.5 93q-167 0 -259 -93
q-90 -92 -128 -300q-37 -205 22.5 -299t227.5 -94t261 94t128 299z" />
    <glyph glyph-name="otilde" unicode="&#xf5;" horiz-adv-x="1302" 
d="M936 1255q-70 0 -156 51q-86 50 -139 50q-91 0 -111 -96h-122q23 120 93.5 190t170.5 70q69 0 155 -50q84 -51 138 -51q95 0 108 97h123q-20 -120 -90 -190q-71 -71 -170 -71zM963 121q-173 -152 -410 -152q-238 0 -355 152q-118 151 -75 401q44 249 215 401
q173 152 410 152t357 -152q120 -153 75 -401q-45 -250 -217 -401zM355 223q58 -94 227 -94q168 0 261 94q94 95 128 299q35 207 -24.5 300t-227.5 93q-167 0 -259 -93q-90 -92 -128 -300q-37 -204 23 -299z" />
    <glyph glyph-name="odieresis" unicode="&#xf6;" horiz-adv-x="1302" 
d="M500 1276l41 229h219l-41 -229h-219zM848 1276l41 229h219l-41 -229h-219zM963 121q-173 -152 -410 -152q-238 0 -355 152q-118 151 -75 401q44 249 215 401q173 152 410 152t357 -152q120 -153 75 -401q-45 -250 -217 -401zM355 223q58 -94 227 -94q168 0 261 94
q94 95 128 299q35 207 -24.5 300t-227.5 93q-167 0 -259 -93q-90 -92 -128 -300q-37 -204 23 -299z" />
    <glyph glyph-name="divide" unicode="&#xf7;" horiz-adv-x="1064" 
d="M451 788l47 256h256l-47 -256h-256zM117 608h860l-27 -155h-860zM315 16l45 256h256l-45 -256h-256z" />
    <glyph glyph-name="oslash" unicode="&#xf8;" horiz-adv-x="1302" 
d="M1163 1188h209l-258 -277q110 -150 66 -389q-45 -250 -217 -401q-173 -152 -410 -152q-151 0 -258 66l-166 -178h-209l264 282q-102 150 -61 383q44 249 215 401q173 152 410 152q144 0 253 -61zM332 522q-26 -143 -6 -229l553 590q-59 34 -160 32q-167 0 -259 -93
q-90 -92 -128 -300zM971 522q25 152 2 238l-557 -596q64 -35 166 -35q168 0 261 94t128 299z" />
    <glyph glyph-name="ugrave" unicode="&#xf9;" horiz-adv-x="1329" 
d="M754 1546l96 -327h-158l-172 327h234zM924 422l110 622h199l-184 -1044h-191l33 190q-167 -221 -432 -221q-167 0 -253 108q-86 107 -54 281l120 686h199l-106 -604q-31 -169 14 -236t192 -67q136 0 234 77q96 77 119 208z" />
    <glyph glyph-name="uacute" unicode="&#xfa;" horiz-adv-x="1329" 
d="M899 1546h234l-287 -327h-158zM924 422l110 622h199l-184 -1044h-191l33 190q-167 -221 -432 -221q-167 0 -253 108q-86 107 -54 281l120 686h199l-106 -604q-31 -169 14 -236t192 -67q136 0 234 77q96 77 119 208z" />
    <glyph glyph-name="ucircumflex" unicode="&#xfb;" horiz-adv-x="1329" 
d="M913 1219l-90 260l-184 -260h-186l249 327h263l135 -327h-187zM924 422l110 622h199l-184 -1044h-191l33 190q-167 -221 -432 -221q-167 0 -253 108q-86 107 -54 281l120 686h199l-106 -604q-31 -169 14 -236t192 -67q136 0 234 77q96 77 119 208z" />
    <glyph glyph-name="udieresis" unicode="&#xfc;" horiz-adv-x="1329" 
d="M539 1505h219l-41 -229h-219zM887 1505h219l-41 -229h-219zM924 422l110 622h199l-184 -1044h-191l33 190q-167 -221 -432 -221q-167 0 -253 108q-86 107 -54 281l120 686h199l-106 -604q-31 -169 14 -236t192 -67q136 0 234 77q96 77 119 208z" />
    <glyph glyph-name="yacute" unicode="&#xfd;" horiz-adv-x="1114" 
d="M766 1546h233l-286 -327h-158zM571 276l410 768h197l-658 -1218q-53 -103 -147 -164t-197 -61q-112 0 -190 20l24 143h156q132 0 184 103l72 133h-119l-194 1044h204l140 -768l26 -188z" />
    <glyph glyph-name="thorn" unicode="&#xfe;" horiz-adv-x="1357" 
d="M850 1075q219 0 324 -151q104 -153 61 -402q-45 -249 -203 -401t-377 -152q-251 0 -331 191l-107 -600h-199l351 1986h190l-123 -704q155 233 414 233zM897 222q91 93 129 300q37 206 -22 300q-60 93 -228 93q-162 0 -253 -85t-130 -273l-12 -74q-27 -184 34 -269
t222 -85q169 0 260 93z" />
    <glyph glyph-name="ydieresis" unicode="&#xff;" horiz-adv-x="1114" 
d="M406 1505h219l-41 -229h-219zM754 1505h219l-41 -229h-219zM571 276l410 768h197l-658 -1218q-53 -103 -147 -164t-197 -61q-112 0 -190 20l24 143h156q132 0 184 103l72 133h-119l-194 1044h204l140 -768l26 -188z" />
    <glyph glyph-name="Amacron" unicode="&#x100;" horiz-adv-x="1419" 
d="M666 1864h581l-28 -160h-582zM1296 0h-215l-71 438h-621l-227 -438h-203l739 1434h363zM719 1075l-240 -463h504l-76 463l-45 287z" />
    <glyph glyph-name="amacron" unicode="&#x101;" horiz-adv-x="1222" 
d="M469 1475h582l-29 -160h-582zM1100 139h2l-25 -139q-85 -20 -151 -20q-94 0 -126 54t-16 183q-70 -116 -183 -182t-257 -66q-143 0 -218 72t-54 188q19 104 97 173q77 68 249 102q358 74 426 92v6q29 170 -14.5 247t-170.5 77t-195.5 -64.5t-92.5 -210.5h-199
q34 189 175 307q139 117 339 117q211 0 306 -110.5t59 -313.5l-70 -387q-13 -82 7 -103q19 -22 112 -22zM420 127q154 0 255.5 70t133.5 209l12 73q-29 -10 -344 -82q-103 -22 -142 -55q-38 -33 -50 -92q-10 -59 24.5 -91t110.5 -32z" />
    <glyph glyph-name="Abreve" unicode="&#x102;" horiz-adv-x="1419" 
d="M1143 1693q-98 -91 -234 -91q-135 0 -201 92q-67 91 -40 241h163q-18 -105 5.5 -152.5t95.5 -47.5t113.5 48t60.5 152h164q-28 -151 -127 -242zM1296 0h-215l-71 438h-621l-227 -438h-203l739 1434h363zM719 1075l-240 -463h504l-76 463l-45 287z" />
    <glyph glyph-name="abreve" unicode="&#x103;" horiz-adv-x="1222" 
d="M946 1303q-97 -91 -233 -91q-135 0 -202 93q-67 91 -40 241h164q-18 -105 5.5 -152.5t95.5 -47.5q71 0 113 48t60 152h164q-28 -150 -127 -243zM1100 139h2l-25 -139q-85 -20 -151 -20q-94 0 -126 54t-16 183q-70 -116 -183 -182t-257 -66q-143 0 -218 72t-54 188
q19 104 97 173q77 68 249 102q358 74 426 92v6q29 170 -14.5 247t-170.5 77t-195.5 -64.5t-92.5 -210.5h-199q34 189 175 307q139 117 339 117q211 0 306 -110.5t59 -313.5l-70 -387q-13 -82 7 -103q19 -22 112 -22zM420 127q154 0 255.5 70t133.5 209l12 73
q-29 -10 -344 -82q-103 -22 -142 -55q-38 -33 -50 -92q-10 -59 24.5 -91t110.5 -32z" />
    <glyph glyph-name="Aogonek" unicode="&#x104;" horiz-adv-x="1419" 
d="M1212 0l-190 -184q-50 -46 -55 -84q-4 -25 12 -37t51 -12h135l-22 -123h-201q-78 0 -119 38t-30 101q17 82 98 145l190 156l-71 438h-621l-227 -438h-203l739 1434h363l235 -1434h-84zM719 1075l-240 -463h504l-76 463l-45 287z" />
    <glyph glyph-name="aogonek" unicode="&#x105;" horiz-adv-x="1222" 
d="M991 -16l-174 -168q-50 -46 -55 -84q-4 -24 12.5 -36.5t50.5 -12.5h136l-23 -123h-201q-78 0 -118.5 37.5t-30.5 101.5q17 82 98 145l176 144q-55 16 -73.5 70.5t-4.5 158.5q-70 -116 -183 -182t-257 -66q-143 0 -218 72t-54 188q19 104 97 173q77 68 249 102
q358 74 426 92v6q29 170 -14.5 247t-170.5 77t-195.5 -64.5t-92.5 -210.5h-199q34 189 175 307q139 117 339 117q211 0 306 -110.5t59 -313.5l-70 -387q-13 -82 7 -103q19 -22 112 -22h2l-25 -139q-46 -11 -86 -16zM420 127q154 0 255.5 70t133.5 209l12 73
q-29 -10 -344 -82q-103 -22 -142 -55q-38 -33 -50 -92q-10 -59 24.5 -91t110.5 -32z" />
    <glyph glyph-name="Cacute" unicode="&#x106;" horiz-adv-x="1564" 
d="M924 1608l211 327h233l-287 -327h-157zM255 175q-157 205 -97 542q58 336 289 542q229 205 544 205q264 0 421 -142q158 -142 114 -390h-215q33 182 -51 265t-302 83q-256 0 -395 -133t-190 -430q-51 -298 40 -431q92 -134 347 -134q217 0 329 78q110 76 142 247h215
q-44 -242 -248 -375q-205 -133 -471 -133q-314 0 -472 206z" />
    <glyph glyph-name="cacute" unicode="&#x107;" horiz-adv-x="1218" 
d="M676 1219l211 327h233l-286 -327h-158zM870 344h205q-28 -167 -175 -271q-146 -104 -357 -104q-233 0 -349 153q-116 152 -71 400q44 249 212 401q170 152 402 152q207 0 315 -109q107 -110 76 -288h-204q23 125 -28.5 181t-186.5 56q-162 0 -252 -93t-125 -300
q-37 -207 20 -300t219 -93q138 0 208.5 50.5t90.5 164.5z" />
    <glyph glyph-name="Ccircumflex" unicode="&#x108;" horiz-adv-x="1564" 
d="M1149 1608l-90 260l-185 -260h-186l250 327h262l135 -327h-186zM1526 932h-215q33 182 -51 265t-302 83q-256 0 -395 -133t-190 -430q-51 -298 40 -431q92 -134 347 -134q217 0 329 78q110 76 142 247h215q-44 -242 -248 -375q-205 -133 -471 -133q-314 0 -472 206
q-157 205 -97 542q58 336 289 542q229 205 544 205q264 0 421 -142q158 -142 114 -390z" />
    <glyph glyph-name="ccircumflex" unicode="&#x109;" horiz-adv-x="1218" 
d="M901 1219l-90 260l-184 -260h-187l250 327h262l135 -327h-186zM1128 678h-204q23 125 -28.5 181t-186.5 56q-162 0 -252 -93t-125 -300q-37 -207 20 -300t219 -93q138 0 208.5 50.5t90.5 164.5h205q-28 -167 -175 -271q-146 -104 -357 -104q-233 0 -349 153
q-116 152 -71 400q44 249 212 401q170 152 402 152q207 0 315 -109q107 -110 76 -288z" />
    <glyph glyph-name="Cdotaccent" unicode="&#x10a;" horiz-adv-x="1564" 
d="M907 1665l41 229h219l-41 -229h-219zM255 175q-157 205 -97 542q58 336 289 542q229 205 544 205q264 0 421 -142q158 -142 114 -390h-215q33 182 -51 265t-302 83q-256 0 -395 -133t-190 -430q-51 -298 40 -431q92 -134 347 -134q217 0 329 78q110 76 142 247h215
q-44 -242 -248 -375q-205 -133 -471 -133q-314 0 -472 206z" />
    <glyph glyph-name="cdotaccent" unicode="&#x10b;" horiz-adv-x="1218" 
d="M659 1276l41 229h220l-41 -229h-220zM870 344h205q-28 -167 -175 -271q-146 -104 -357 -104q-233 0 -349 153q-116 152 -71 400q44 249 212 401q170 152 402 152q207 0 315 -109q107 -110 76 -288h-204q23 125 -28.5 181t-186.5 56q-162 0 -252 -93t-125 -300
q-37 -207 20 -300t219 -93q138 0 208.5 50.5t90.5 164.5z" />
    <glyph glyph-name="Ccaron" unicode="&#x10c;" horiz-adv-x="1564" 
d="M1135 1608h-263l-135 327h187l90 -260l184 260h186zM1526 932h-215q33 182 -51 265t-302 83q-256 0 -395 -133t-190 -430q-51 -298 40 -431q92 -134 347 -134q217 0 329 78q110 76 142 247h215q-44 -242 -248 -375q-205 -133 -471 -133q-314 0 -472 206q-157 205 -97 542
q58 336 289 542q229 205 544 205q264 0 421 -142q158 -142 114 -390z" />
    <glyph glyph-name="ccaron" unicode="&#x10d;" horiz-adv-x="1218" 
d="M887 1219h-262l-136 327h187l90 -260l184 260h187zM737 1075q207 0 315 -109q107 -110 76 -288h-204q23 125 -28.5 181t-186.5 56q-162 0 -252 -93t-125 -300q-37 -207 20 -300t219 -93q138 0 208.5 50.5t90.5 164.5h205q-28 -167 -175 -271q-146 -104 -357 -104
q-233 0 -349 153q-116 152 -71 400q44 249 212 401q170 152 402 152z" />
    <glyph glyph-name="Dcaron" unicode="&#x10e;" horiz-adv-x="1605" 
d="M1108 1608h-262l-135 327h186l90 -260l184 260h187zM395 1434h557q311 0 467 -198t99 -519q-58 -323 -282 -519q-223 -198 -536 -198h-557zM383 174h334q489 0 586 543q96 543 -396 543h-334z" />
    <glyph glyph-name="dcaron" unicode="&#x10f;" horiz-adv-x="1349" 
d="M1032 877l119 669h199l-273 -1546h-190l35 197q-157 -226 -416 -228q-219 0 -323 152q-105 151 -60 401q44 252 200 402q155 151 377 151q254 2 332 -198zM1468 1415l23 131h221l-29 -164q-20 -113 -97.5 -173t-199.5 -60l17 90q145 0 166 121zM582 129q160 0 251 83.5
t130 268.5l14 78q27 186 -34.5 271t-223.5 85q-169 0 -260 -93q-93 -94 -127 -300q-37 -207 22.5 -300t227.5 -93z" />
    <glyph glyph-name="Dcroat" unicode="&#x110;" horiz-adv-x="1605" 
d="M395 1434h557q311 0 467 -198t99 -519q-58 -323 -282 -519q-223 -198 -536 -198h-557l111 625h-207l31 174h207zM383 174h334q489 0 586 543q96 543 -396 543h-334l-79 -461h352l-31 -174h-352z" />
    <glyph glyph-name="dslash" unicode="&#x111;" horiz-adv-x="1349" 
d="M1327 1413h131l-26 -151h-132l-223 -1262h-190l35 197q-157 -226 -416 -228q-219 0 -323 152q-105 151 -60 401q44 252 200 402q155 151 377 151q254 0 332 -198l68 385h-426l26 151h428l23 133h199zM582 129q160 0 251 83.5t130 268.5l14 78q27 186 -34.5 271t-223.5 85
q-169 0 -260 -93q-93 -94 -127 -300q-37 -207 22.5 -300t227.5 -93z" />
    <glyph glyph-name="Emacron" unicode="&#x112;" horiz-adv-x="1294" 
d="M643 1864h582l-29 -160h-582zM1335 1434l-30 -174h-732l-77 -447h690l-31 -174h-690l-82 -465h747l-30 -174h-957l252 1434h940z" />
    <glyph glyph-name="emacron" unicode="&#x113;" horiz-adv-x="1236" 
d="M516 1475h582l-29 -160h-582zM737 1075q216 0 325 -130q109 -129 71 -343l-21 -121h-786q-27 -184 31.5 -268t213.5 -84q141 0 213 46t88 147h205q-27 -158 -174 -255q-148 -98 -360 -98q-233 0 -349 153q-116 152 -71 400q44 249 212 401q170 152 402 152zM352 616
l242 5h338q20 154 -33 224t-190 70q-144 0 -230 -71.5t-127 -227.5z" />
    <glyph glyph-name="Ebreve" unicode="&#x114;" horiz-adv-x="1294" 
d="M1120 1693q-97 -91 -233 -91q-134 0 -202 92q-67 91 -40 241h164q-18 -105 5.5 -152.5t95.5 -47.5q71 0 113 48t60 152h164q-28 -151 -127 -242zM1335 1434l-30 -174h-732l-77 -447h690l-31 -174h-690l-82 -465h747l-30 -174h-957l252 1434h940z" />
    <glyph glyph-name="ebreve" unicode="&#x115;" horiz-adv-x="1236" 
d="M993 1303q-97 -91 -233 -91q-135 0 -201 93q-67 91 -41 241h164q-18 -105 5.5 -152.5t95.5 -47.5q71 0 113 48t60 152h164q-28 -150 -127 -243zM737 1075q216 0 325 -130q109 -129 71 -343l-21 -121h-786q-27 -184 31.5 -268t213.5 -84q141 0 213 46t88 147h205
q-27 -158 -174 -255q-148 -98 -360 -98q-233 0 -349 153q-116 152 -71 400q44 249 212 401q170 152 402 152zM352 616l242 5h338q20 154 -33 224t-190 70q-144 0 -230 -71.5t-127 -227.5z" />
    <glyph glyph-name="Edotaccent" unicode="&#x116;" horiz-adv-x="1294" 
d="M829 1894h220l-41 -229h-220zM1335 1434l-30 -174h-732l-77 -447h690l-31 -174h-690l-82 -465h747l-30 -174h-957l252 1434h940z" />
    <glyph glyph-name="edotaccent" unicode="&#x117;" horiz-adv-x="1236" 
d="M702 1505h220l-41 -229h-219zM737 1075q216 0 325 -130q109 -129 71 -343l-21 -121h-786q-27 -184 31.5 -268t213.5 -84q141 0 213 46t88 147h205q-27 -158 -174 -255q-148 -98 -360 -98q-233 0 -349 153q-116 152 -71 400q44 249 212 401q170 152 402 152zM352 616
l242 5h338q20 154 -33 224t-190 70q-144 0 -230 -71.5t-127 -227.5z" />
    <glyph glyph-name="Eogonek" unicode="&#x118;" horiz-adv-x="1294" 
d="M1335 1434l-30 -174h-732l-77 -447h690l-31 -174h-690l-82 -465h747l-30 -174h-41l-191 -184q-50 -46 -55 -84q-4 -25 12.5 -37t51.5 -12h135l-23 -123h-201q-78 0 -118.5 37.5t-30.5 101.5q17 82 98 145l191 156h-785l252 1434h940z" />
    <glyph glyph-name="eogonek" unicode="&#x119;" horiz-adv-x="1236" 
d="M737 1075q216 0 325 -130q109 -129 71 -343l-21 -121h-786q-27 -184 31.5 -268t213.5 -84q141 0 213 46t88 147h205q-20 -115 -103.5 -199t-215.5 -123l-191 -184q-50 -46 -55 -84q-4 -24 12.5 -36.5t50.5 -12.5h136l-23 -123h-201q-78 0 -118.5 37.5t-30.5 101.5
q17 82 98 145l154 127q-18 -2 -47 -2q-233 0 -349 153q-116 152 -71 400q44 249 212 401q170 152 402 152zM352 616l242 5h338q20 154 -33 224t-190 70q-144 0 -230 -71.5t-127 -227.5z" />
    <glyph glyph-name="Ecaron" unicode="&#x11a;" horiz-adv-x="1294" 
d="M1016 1608h-262l-136 327h187l90 -260l184 260h187zM1335 1434l-30 -174h-732l-77 -447h690l-31 -174h-690l-82 -465h747l-30 -174h-957l252 1434h940z" />
    <glyph glyph-name="ecaron" unicode="&#x11b;" horiz-adv-x="1236" 
d="M889 1219h-262l-135 327h186l90 -260l184 260h187zM737 1075q216 0 325 -130q109 -129 71 -343l-21 -121h-786q-27 -184 31.5 -268t213.5 -84q141 0 213 46t88 147h205q-27 -158 -174 -255q-148 -98 -360 -98q-233 0 -349 153q-116 152 -71 400q44 249 212 401
q170 152 402 152zM352 616l242 5h338q20 154 -33 224t-190 70q-144 0 -230 -71.5t-127 -227.5z" />
    <glyph glyph-name="Gcircumflex" unicode="&#x11c;" horiz-adv-x="1624" 
d="M1169 1608l-90 260l-184 -260h-186l249 327h263l135 -327h-187zM1534 944h-215q31 177 -54 256.5t-307 79.5q-256 0 -395 -133t-190 -430q-51 -298 40 -431q92 -134 347 -134q228 0 349 103q122 104 167 333h-522l28 164h727l-131 -752h-174l62 342q-162 -373 -559 -373
q-305 0 -457 206t-92 542q58 336 289 542q229 205 544 205q284 0 435 -143q149 -144 108 -377z" />
    <glyph glyph-name="gcircumflex" unicode="&#x11d;" horiz-adv-x="1107" 
d="M842 1219l-90 260l-185 -260h-186l250 327h262l135 -327h-186zM1237 1208l-29 -164q-104 0 -149 -19q-47 -20 -66 -64q84 -95 60 -240q-27 -156 -166 -256t-336 -100q-134 0 -225 47q-76 -39 -88 -113q-8 -53 18.5 -73.5t103.5 -20.5h353q161 0 247 -80q85 -80 62 -209
q-26 -141 -184 -228q-160 -87 -395 -87t-365 77q-129 78 -109 207q8 60 62 106t135 62q-115 52 -92 183q26 135 188 217q-122 104 -90 268q28 159 167 257q137 97 337 97q152 0 252 -61q34 100 106.5 147t202.5 47zM848 721q20 106 -27 153.5t-172 47.5t-189.5 -47.5
t-82.5 -153.5q-18 -109 29 -157t172 -48q123 0 186.5 48t83.5 157zM674 41h-455q-49 -44 -61 -125q-16 -93 46 -125q61 -31 267 -31t278 31q73 32 89 125q12 70 -24 97.5t-140 27.5z" />
    <glyph glyph-name="Gbreve" unicode="&#x11e;" horiz-adv-x="1624" 
d="M1259 1693q-97 -91 -233 -91q-135 0 -201 92q-67 91 -41 241h164q-18 -105 5.5 -152.5t95.5 -47.5q71 0 113 48t61 152h163q-28 -151 -127 -242zM1534 944h-215q31 177 -54 256.5t-307 79.5q-256 0 -395 -133t-190 -430q-51 -298 40 -431q92 -134 347 -134q228 0 349 103
q122 104 167 333h-522l28 164h727l-131 -752h-174l62 342q-162 -373 -559 -373q-305 0 -457 206t-92 542q58 336 289 542q229 205 544 205q284 0 435 -143q149 -144 108 -377z" />
    <glyph glyph-name="gbreve" unicode="&#x11f;" horiz-adv-x="1107" 
d="M932 1303q-97 -91 -233 -91t-202 93q-67 91 -40 241h164q-18 -105 5 -152.5t95 -47.5t114 48t60 152h164q-28 -150 -127 -243zM1237 1208l-29 -164q-104 0 -149 -19q-47 -20 -66 -64q84 -95 60 -240q-27 -156 -166 -256t-336 -100q-134 0 -225 47q-76 -39 -88 -113
q-8 -53 18.5 -73.5t103.5 -20.5h353q161 0 247 -80q85 -80 62 -209q-26 -141 -184 -228q-160 -87 -395 -87t-365 77q-129 78 -109 207q8 60 62 106t135 62q-115 52 -92 183q26 135 188 217q-122 104 -90 268q28 159 167 257q137 97 337 97q152 0 252 -61q34 100 106.5 147
t202.5 47zM848 721q20 106 -27 153.5t-172 47.5t-189.5 -47.5t-82.5 -153.5q-18 -109 29 -157t172 -48q123 0 186.5 48t83.5 157zM674 41h-455q-49 -44 -61 -125q-16 -93 46 -125q61 -31 267 -31t278 31q73 32 89 125q12 70 -24 97.5t-140 27.5z" />
    <glyph glyph-name="Gdotaccent" unicode="&#x120;" horiz-adv-x="1624" 
d="M969 1894h219l-41 -229h-219zM1534 944h-215q31 177 -54 256.5t-307 79.5q-256 0 -395 -133t-190 -430q-51 -298 40 -431q92 -134 347 -134q228 0 349 103q122 104 167 333h-522l28 164h727l-131 -752h-174l62 342q-162 -373 -559 -373q-305 0 -457 206t-92 542
q58 336 289 542q229 205 544 205q284 0 435 -143q149 -144 108 -377z" />
    <glyph glyph-name="gdotaccent" unicode="&#x121;" horiz-adv-x="1107" 
d="M641 1505h219l-41 -229h-219zM1237 1208l-29 -164q-104 0 -149 -19q-47 -20 -66 -64q84 -95 60 -240q-27 -156 -166 -256t-336 -100q-134 0 -225 47q-76 -39 -88 -113q-8 -53 18.5 -73.5t103.5 -20.5h353q161 0 247 -80q85 -80 62 -209q-26 -141 -184 -228
q-160 -87 -395 -87t-365 77q-129 78 -109 207q8 60 62 106t135 62q-115 52 -92 183q26 135 188 217q-122 104 -90 268q28 159 167 257q137 97 337 97q152 0 252 -61q34 100 106.5 147t202.5 47zM848 721q20 106 -27 153.5t-172 47.5t-189.5 -47.5t-82.5 -153.5
q-18 -109 29 -157t172 -48q123 0 186.5 48t83.5 157zM674 41h-455q-49 -44 -61 -125q-16 -93 46 -125q61 -31 267 -31t278 31q73 32 89 125q12 70 -24 97.5t-140 27.5z" />
    <glyph glyph-name="uni0122" unicode="&#x122;" horiz-adv-x="1624" 
d="M1534 944h-215q31 177 -54 256.5t-307 79.5q-256 0 -395 -133t-190 -430q-51 -298 40 -431q92 -134 347 -134q228 0 349 103q122 104 167 333h-522l28 164h727l-131 -752h-174l62 342q-162 -373 -559 -373q-305 0 -457 206t-92 542q58 336 289 542q229 205 544 205
q284 0 435 -143q149 -144 108 -377zM668 -367l-101 56l23 131h221l-29 -164q-20 -113 -98 -173.5t-199 -60.5l17 91q145 0 166 120z" />
    <glyph glyph-name="uni0123" unicode="&#x123;" horiz-adv-x="1107" 
d="M715 1405l100 -55l-22 -131h-222l29 163q20 108 97 166t198 58l-14 -90q-145 0 -166 -111zM1237 1208l-29 -164q-104 0 -149 -19q-47 -20 -66 -64q84 -95 60 -240q-27 -156 -166 -256t-336 -100q-134 0 -225 47q-76 -39 -88 -113q-8 -53 18.5 -73.5t103.5 -20.5h353
q161 0 247 -80q85 -80 62 -209q-26 -141 -184 -228q-160 -87 -395 -87t-365 77q-129 78 -109 207q8 60 62 106t135 62q-115 52 -92 183q26 135 188 217q-122 104 -90 268q28 159 167 257q137 97 337 97q152 0 252 -61q34 100 106.5 147t202.5 47zM848 721q20 106 -27 153.5
t-172 47.5t-189.5 -47.5t-82.5 -153.5q-18 -109 29 -157t172 -48q123 0 186.5 48t83.5 157zM674 41h-455q-49 -44 -61 -125q-16 -93 46 -125q61 -31 267 -31t278 31q73 32 89 125q12 70 -24 97.5t-140 27.5z" />
    <glyph glyph-name="Hcircumflex" unicode="&#x124;" horiz-adv-x="1669" 
d="M1167 1608l-90 260l-184 -260h-186l249 327h263l135 -327h-187zM1276 815l108 619h209l-252 -1434h-208l112 641h-780l-113 -641h-209l252 1434h209l-108 -619h780z" />
    <glyph glyph-name="hcircumflex" unicode="&#x125;" horiz-adv-x="1349" 
d="M1034 1751l-90 260l-184 -260h-187l250 328h262l136 -328h-187zM868 1075q180 0 271 -106q91 -107 59 -283l-121 -686h-198l106 604q31 170 -15 237q-46 66 -194 66q-144 0 -247 -83q-102 -82 -128 -222l-106 -602h-199l273 1546h198l-123 -698q173 227 424 227z" />
    <glyph glyph-name="Hbar" unicode="&#x126;" horiz-adv-x="1669" 
d="M1556 1223h199l-29 -168h-200l-185 -1055h-208l112 641h-780l-113 -641h-209l185 1055h-209l28 168h211l37 211h209l-37 -211h781l36 211h209zM496 815h780l41 240h-780z" />
    <glyph glyph-name="hbar" unicode="&#x127;" horiz-adv-x="1349" 
d="M868 1075q180 0 271 -106q91 -107 59 -283l-121 -686h-198l106 604q31 170 -15 237q-46 66 -194 66q-144 0 -247 -83q-102 -82 -128 -222l-106 -602h-199l223 1262h-196l27 151h196l23 133h198l-22 -133h362l-26 -151h-363l-74 -414q173 227 424 227z" />
    <glyph glyph-name="Itilde" unicode="&#x128;" horiz-adv-x="679" 
d="M692 1645q-69 0 -155 50t-140 50q-92 0 -110 -96h-123q22 119 94 190q70 70 170 70q69 0 155 -50q85 -51 138 -51q95 0 108 97h123q-20 -119 -90 -189q-71 -71 -170 -71zM143 0l252 1434h209l-252 -1434h-209z" />
    <glyph glyph-name="itilde" unicode="&#x129;" horiz-adv-x="567" 
d="M573 1255q-69 0 -155 51q-86 50 -139 50q-91 0 -111 -96h-123q23 118 94 190q70 70 170 70q69 0 155 -50q86 -51 138 -51q94 0 109 97h123q-20 -120 -90 -190q-71 -71 -171 -71zM96 0l185 1044h198l-184 -1044h-199z" />
    <glyph glyph-name="Imacron" unicode="&#x12a;" horiz-adv-x="679" 
d="M285 1864h581l-28 -160h-582zM143 0l252 1434h209l-252 -1434h-209z" />
    <glyph glyph-name="imacron" unicode="&#x12b;" horiz-adv-x="567" 
d="M166 1475h582l-29 -160h-582zM96 0l185 1044h198l-184 -1044h-199z" />
    <glyph glyph-name="Ibreve" unicode="&#x12c;" horiz-adv-x="679" 
d="M725 1935h164q-28 -151 -127 -242q-97 -91 -233 -91t-202 92q-67 91 -40 241h164q-18 -105 5 -152.5t95 -47.5t114 48t60 152zM143 0l252 1434h209l-252 -1434h-209z" />
    <glyph glyph-name="ibreve" unicode="&#x12d;" horiz-adv-x="567" 
d="M606 1546h164q-28 -150 -127 -243q-97 -91 -233 -91t-202 93q-67 91 -40 241h164q-18 -105 5 -152.5t95 -47.5t114 48t60 152zM96 0l185 1044h198l-184 -1044h-199z" />
    <glyph glyph-name="Iogonek" unicode="&#x12e;" horiz-adv-x="679" 
d="M352 0l-190 -184q-52 -47 -56 -84q-4 -25 12.5 -37t51.5 -12h135l-22 -123h-201q-78 0 -119 37.5t-31 101.5q17 81 99 145l190 156h-78l252 1434h209z" />
    <glyph glyph-name="iogonek" unicode="&#x12f;" horiz-adv-x="567" 
d="M311 1276l41 229h219l-41 -229h-219zM164 0h-68l185 1044h198l-184 -1044l-191 -184q-50 -46 -55 -84q-4 -25 12.5 -37t51.5 -12h135l-23 -123h-200q-78 0 -119 37.5t-31 101.5q17 82 98 145z" />
    <glyph glyph-name="Idot" unicode="&#x130;" horiz-adv-x="679" 
d="M430 1665l41 229h219l-41 -229h-219zM143 0l252 1434h209l-252 -1434h-209z" />
    <glyph glyph-name="dotlessi" unicode="&#x131;" horiz-adv-x="567" 
d="M96 0l185 1044h198l-184 -1044h-199z" />
    <glyph glyph-name="IJ" unicode="&#x132;" horiz-adv-x="1263" 
d="M170 154h348q139 0 215 70.5t103 226.5l174 983h209l-175 -988q-39 -216 -192 -346q-155 -131 -367 -131q-165 0 -340 41zM221 410l180 1024h209l-180 -1024h-209z" />
    <glyph glyph-name="ij" unicode="&#x133;" horiz-adv-x="1177" 
d="M358 1505h220l-41 -229h-220zM903 1276l41 229h219l-41 -229h-219zM102 0l185 1044h198l-184 -1044h-199zM684 -29l188 1073h199l-192 -1091q-28 -157 -134 -255q-106 -97 -251 -97q-90 0 -158 20l24 143h136q86 0 127 45q42 46 61 162z" />
    <glyph glyph-name="Jcircumflex" unicode="&#x134;" horiz-adv-x="1286" 
d="M1081 1935h262l136 -327h-187l-90 260l-184 -260h-187zM858 451l174 983h209l-174 -988q-39 -215 -200 -346q-163 -131 -390 -131q-225 0 -339 136q-115 134 -77 356h205q-29 -164 29 -237.5t215 -73.5q155 0 237 71t111 230z" />
    <glyph glyph-name="jcircumflex" unicode="&#x135;" horiz-adv-x="575" 
d="M338 1546h262l135 -327h-186l-90 260l-185 -260h-186zM92 -29l189 1073h198l-192 -1091q-28 -157 -134 -255q-106 -97 -251 -97q-90 0 -158 20l25 143h135q86 0 127 45q42 46 61 162z" />
    <glyph glyph-name="uni0136" unicode="&#x136;" horiz-adv-x="1464" 
d="M1317 1434h280l-872 -711l647 -723h-285l-471 528l-141 170l-123 -698h-209l252 1434h209l-121 -689l197 168zM635 -367l-100 56l22 131h221l-28 -164q-20 -112 -98 -173t-199 -61l16 91q145 0 166 120z" />
    <glyph glyph-name="uni0137" unicode="&#x137;" horiz-adv-x="1179" 
d="M999 1044h242l-627 -503l494 -541h-279l-340 381l-104 131l-90 -512h-199l273 1546h198l-178 -1009l152 135zM461 -367l-101 56l23 131h221l-29 -164q-20 -113 -97.5 -173.5t-198.5 -60.5l16 91q145 0 166 120z" />
    <glyph glyph-name="kgreenlandic" unicode="&#x138;" horiz-adv-x="1179" 
d="M999 1044h242l-627 -503l494 -541h-279l-340 381l-104 131l-90 -512h-199l185 1044h198l-90 -505l152 133z" />
    <glyph glyph-name="Lacute" unicode="&#x139;" horiz-adv-x="1202" 
d="M659 1935h234l-287 -327h-157zM604 1434l-221 -1260h696l-30 -174h-906l252 1434h209z" />
    <glyph glyph-name="lacute" unicode="&#x13a;" horiz-adv-x="628" 
d="M608 1964h234l-287 -328h-158zM365 1546h198l-221 -1251q-14 -86 6.5 -119t87.5 -33h88l-24 -143q-63 -20 -129 -20q-127 0 -190 80q-64 79 -42 212z" />
    <glyph glyph-name="uni013B" unicode="&#x13b;" horiz-adv-x="1202" 
d="M604 1434l-221 -1260h696l-30 -174h-906l252 1434h209zM543 -367l-101 56l23 131h221l-29 -164q-20 -113 -98 -173.5t-199 -60.5l17 91q145 0 166 120z" />
    <glyph glyph-name="uni013C" unicode="&#x13c;" horiz-adv-x="628" 
d="M563 1546l-221 -1251q-14 -86 6.5 -119t87.5 -33h88l-24 -143q-63 -20 -129 -20q-127 0 -190 80q-64 79 -42 212l226 1274h198zM244 -367l-101 56l23 131h221l-29 -164q-20 -113 -98 -173.5t-199 -60.5l17 91q145 0 166 120z" />
    <glyph glyph-name="Lcaron" unicode="&#x13d;" horiz-adv-x="1202" 
d="M395 1434h209l-221 -1260h696l-30 -174h-906zM1090 1434l-29 -164q-20 -113 -98 -173.5t-199 -60.5l16 90q145 0 166 121l-100 56l22 131h222z" />
    <glyph glyph-name="lcaron" unicode="&#x13e;" horiz-adv-x="628" 
d="M365 1546h198l-221 -1251q-14 -86 6.5 -119t87.5 -33h88l-24 -143q-63 -20 -129 -20q-127 0 -190 80q-64 79 -42 212zM719 1415l22 131h222l-29 -164q-20 -113 -97.5 -173t-199.5 -60l16 90q145 0 166 121z" />
    <glyph glyph-name="Ldot" unicode="&#x13f;" horiz-adv-x="1202" 
d="M604 1434l-221 -1260h696l-30 -174h-906l252 1434h209zM750 932h256l-45 -256h-256z" />
    <glyph glyph-name="ldot" unicode="&#x140;" horiz-adv-x="761" 
d="M365 1546h198l-221 -1251q-14 -86 6.5 -119t87.5 -33h88l-24 -143q-63 -20 -129 -20q-127 0 -190 80q-64 79 -42 212zM573 653l39 221h222l-39 -221h-222z" />
    <glyph glyph-name="Lslash" unicode="&#x141;" horiz-adv-x="1202" 
d="M467 655l-84 -481h696l-30 -174h-906l101 573l-203 -92l31 172l202 92l121 689h209l-106 -605l477 215l-29 -172z" />
    <glyph glyph-name="lslash" unicode="&#x142;" horiz-adv-x="628" 
d="M633 831l-223 -155l-68 -381q-14 -86 6.5 -119t87.5 -33h88l-24 -143q-63 -20 -129 -20q-127 0 -190 80q-64 79 -42 212l51 295l-159 -110l32 182l160 111l142 796h198l-121 -690l224 158z" />
    <glyph glyph-name="Nacute" unicode="&#x143;" horiz-adv-x="1669" 
d="M1167 1935h234l-287 -327h-158zM1210 442l174 992h209l-252 -1434h-352l-414 1325l-38 -278l-185 -1047h-209l252 1434h359l409 -1313z" />
    <glyph glyph-name="nacute" unicode="&#x144;" horiz-adv-x="1349" 
d="M963 1546h233l-287 -327h-157zM868 1075q180 0 271 -106q91 -107 59 -283l-121 -686h-198l106 604q31 170 -15 237q-46 66 -194 66q-144 0 -247 -83q-102 -82 -128 -222l-106 -602h-199l185 1044h192l-37 -206q176 237 432 237z" />
    <glyph glyph-name="uni0145" unicode="&#x145;" horiz-adv-x="1669" 
d="M1210 442l174 992h209l-252 -1434h-352l-414 1325l-38 -278l-185 -1047h-209l252 1434h359l409 -1313zM674 -367l-101 56l23 131h221l-29 -164q-20 -113 -97.5 -173.5t-198.5 -60.5l16 91q145 0 166 120z" />
    <glyph glyph-name="uni0146" unicode="&#x146;" horiz-adv-x="1349" 
d="M868 1075q180 0 271 -106q91 -107 59 -283l-121 -686h-198l106 604q31 170 -15 237q-46 66 -194 66q-144 0 -247 -83q-102 -82 -128 -222l-106 -602h-199l185 1044h192l-37 -206q176 237 432 237zM524 -367l-100 56l22 131h222l-29 -164q-20 -113 -98 -173.5t-199 -60.5
l16 91q145 0 166 120z" />
    <glyph glyph-name="Ncaron" unicode="&#x147;" horiz-adv-x="1669" 
d="M1167 1608h-262l-135 327h186l91 -260l184 260h186zM1210 442l174 992h209l-252 -1434h-352l-414 1325l-38 -278l-185 -1047h-209l252 1434h359l409 -1313z" />
    <glyph glyph-name="ncaron" unicode="&#x148;" horiz-adv-x="1349" 
d="M963 1219h-263l-135 327h187l90 -260l184 260h186zM868 1075q180 0 271 -106q91 -107 59 -283l-121 -686h-198l106 604q31 170 -15 237q-46 66 -194 66q-144 0 -247 -83q-102 -82 -128 -222l-106 -602h-199l185 1044h192l-37 -206q176 237 432 237z" />
    <glyph glyph-name="napostrophe" unicode="&#x149;" horiz-adv-x="1419" 
d="M313 1434l-41 -236q-47 -266 -354 -266l21 110q184 0 213 152l-125 61l30 179h256zM938 1075q180 0 270 -106q90 -107 60 -283l-121 -686h-199l107 604q31 170 -15 237q-47 66 -194 66q-144 0 -247 -83q-102 -82 -128 -222l-106 -602h-199l184 1044h193l-37 -206
q176 237 432 237z" />
    <glyph glyph-name="Eng" unicode="&#x14a;" horiz-adv-x="1669" 
d="M1210 442l174 992h209l-252 -1434l-8 -47q-28 -157 -134 -255q-104 -97 -251 -97q-91 0 -157 20l24 143h135q88 0 130 50q42 51 63 186h-154l-414 1325l-38 -278l-185 -1047h-209l252 1434h359l409 -1313z" />
    <glyph glyph-name="eng" unicode="&#x14b;" horiz-adv-x="1349" 
d="M868 1075q180 0 271 -106q91 -107 59 -283l-129 -733q-28 -157 -134 -255q-106 -97 -251 -97q-90 0 -158 20l25 143h135q86 0 127 45q42 48 61 162l111 633q29 170 -16 237q-45 66 -193 66q-144 0 -247 -83q-102 -82 -128 -222l-106 -602h-199l185 1044h192l-37 -206
q176 237 432 237z" />
    <glyph glyph-name="Omacron" unicode="&#x14c;" horiz-adv-x="1667" 
d="M780 1864h582l-29 -160h-581zM1290 175q-233 -206 -552 -206t-480 206q-160 205 -100 542q58 336 292 542q232 205 552 205q319 0 478 -205q158 -206 99 -542q-57 -337 -289 -542zM416 288q95 -134 354 -134t401 134q141 135 193 429q51 297 -42 430t-353 133
q-259 0 -402 -134t-194 -429q-51 -296 43 -429z" />
    <glyph glyph-name="omacron" unicode="&#x14d;" horiz-adv-x="1302" 
d="M528 1475h582l-29 -160h-581zM963 121q-173 -152 -410 -152q-238 0 -355 152q-118 151 -75 401q44 249 215 401q173 152 410 152t357 -152q120 -153 75 -401q-45 -250 -217 -401zM355 223q58 -94 227 -94q168 0 261 94q94 95 128 299q35 207 -24.5 300t-227.5 93
q-167 0 -259 -93q-90 -92 -128 -300q-37 -204 23 -299z" />
    <glyph glyph-name="Obreve" unicode="&#x14e;" horiz-adv-x="1667" 
d="M1221 1935h163q-28 -151 -127 -242q-97 -91 -233 -91q-135 0 -201 92q-67 91 -41 241h164q-18 -105 5.5 -152.5t95.5 -47.5q71 0 113 48t61 152zM1290 175q-233 -206 -552 -206t-480 206q-160 205 -100 542q58 336 292 542q232 205 552 205q319 0 478 -205
q158 -206 99 -542q-57 -337 -289 -542zM416 288q95 -134 354 -134t401 134q141 135 193 429q51 297 -42 430t-353 133q-259 0 -402 -134t-194 -429q-51 -296 43 -429z" />
    <glyph glyph-name="obreve" unicode="&#x14f;" horiz-adv-x="1302" 
d="M969 1546h164q-28 -150 -127 -243q-98 -91 -234 -91q-135 0 -201 93q-67 91 -41 241h164q-18 -105 5.5 -152.5t95.5 -47.5q71 0 113 48t61 152zM963 121q-173 -152 -410 -152q-238 0 -355 152q-118 151 -75 401q44 249 215 401q173 152 410 152t357 -152
q120 -153 75 -401q-45 -250 -217 -401zM355 223q58 -94 227 -94q168 0 261 94q94 95 128 299q35 207 -24.5 300t-227.5 93q-167 0 -259 -93q-90 -92 -128 -300q-37 -204 23 -299z" />
    <glyph glyph-name="Ohungarumlaut" unicode="&#x150;" horiz-adv-x="1667" 
d="M813 1608l182 327h187l-211 -327h-158zM1073 1608l211 327h234l-287 -327h-158zM1290 175q-233 -206 -552 -206t-480 206q-160 205 -100 542q58 336 292 542q232 205 552 205q319 0 478 -205q158 -206 99 -542q-57 -337 -289 -542zM416 288q95 -134 354 -134t401 134
q141 135 193 429q51 297 -42 430t-353 133q-259 0 -402 -134t-194 -429q-51 -296 43 -429z" />
    <glyph glyph-name="ohungarumlaut" unicode="&#x151;" horiz-adv-x="1302" 
d="M561 1219l182 327h187l-211 -327h-158zM821 1219l211 327h234l-287 -327h-158zM963 121q-173 -152 -410 -152q-238 0 -355 152q-118 151 -75 401q44 249 215 401q173 152 410 152t357 -152q120 -153 75 -401q-45 -250 -217 -401zM355 223q58 -94 227 -94q168 0 261 94
q94 95 128 299q35 207 -24.5 300t-227.5 93q-167 0 -259 -93q-90 -92 -128 -300q-37 -204 23 -299z" />
    <glyph glyph-name="OE" unicode="&#x152;" horiz-adv-x="2179" 
d="M2220 1434l-31 -174h-690l-78 -447h650l-31 -174h-649l-82 -465h706l-30 -174h-1264q-311 0 -466 197t-97 520q57 324 282 520q224 197 533 197h1247zM766 174h334l190 1086h-334q-487 0 -583 -543t393 -543z" />
    <glyph glyph-name="oe" unicode="&#x153;" horiz-adv-x="2084" 
d="M1585 1075q216 0 325 -130t70 -343l-20 -121h-786q-27 -184 31.5 -268t213.5 -84q141 0 213 46t88 147h205q-27 -158 -174 -255q-148 -98 -360 -98q-136 0 -233 59t-142 167q-180 -225 -463 -226q-237 0 -356 153q-119 152 -74 400q44 249 215 401q173 152 410 152
q137 0 235.5 -59t146.5 -166q176 225 455 225zM355 223q58 -94 227 -94q168 0 260 93t129 300q35 207 -24.5 300t-227.5 93q-169 0 -260 -93q-93 -94 -127 -300q-37 -204 23 -299zM1200 616l242 5h338q20 154 -33 224t-191 70q-144 0 -229.5 -71.5t-126.5 -227.5z" />
    <glyph glyph-name="Racute" unicode="&#x154;" horiz-adv-x="1366" 
d="M1063 1935h233l-286 -327h-158zM1393 1018q-29 -150 -135.5 -253t-270.5 -140l90 -144l248 -481h-233l-306 608h-327l-107 -608h-209l252 1434h613q206 0 312 -114t73 -302zM1178 1018q23 126 -30.5 184t-191.5 58h-383l-86 -486h385q139 0 211 57.5t95 186.5z" />
    <glyph glyph-name="racute" unicode="&#x155;" horiz-adv-x="811" 
d="M772 1546h234l-287 -327h-158zM471 1044l-41 -233q75 124 176.5 194t212.5 70q54 0 86 -20l-28 -164h-115q-139 0 -238 -81q-100 -80 -127 -224l-102 -586h-199l185 1044h190z" />
    <glyph glyph-name="uni0156" unicode="&#x156;" horiz-adv-x="1366" 
d="M1393 1018q-29 -150 -135.5 -253t-270.5 -140l90 -144l248 -481h-233l-306 608h-327l-107 -608h-209l252 1434h613q206 0 312 -114t73 -302zM1178 1018q23 126 -30.5 184t-191.5 58h-383l-86 -486h385q139 0 211 57.5t95 186.5zM604 -367l-100 56l22 131h222l-29 -164
q-20 -113 -98 -173.5t-199 -60.5l16 91q145 0 166 120z" />
    <glyph glyph-name="uni0157" unicode="&#x157;" horiz-adv-x="811" 
d="M819 1075q54 0 86 -20l-28 -164h-115q-139 0 -238 -81q-100 -80 -127 -224l-102 -586h-199l185 1044h190l-41 -233q75 125 176 194.5t213 69.5zM133 -367l-100 56l22 131h221l-28 -164q-20 -113 -98 -173.5t-199 -60.5l16 91q145 0 166 120z" />
    <glyph glyph-name="Rcaron" unicode="&#x158;" horiz-adv-x="1366" 
d="M1063 1608h-262l-135 327h186l90 -260l184 260h187zM1393 1018q-29 -150 -135.5 -253t-270.5 -140l90 -144l248 -481h-233l-306 608h-327l-107 -608h-209l252 1434h613q206 0 312 -114t73 -302zM1178 1018q23 126 -30.5 184t-191.5 58h-383l-86 -486h385q139 0 211 57.5
t95 186.5z" />
    <glyph glyph-name="rcaron" unicode="&#x159;" horiz-adv-x="811" 
d="M772 1219h-262l-135 327h186l90 -260l185 260h186zM471 1044l-41 -233q75 124 176.5 194t212.5 70q54 0 86 -20l-28 -164h-115q-139 0 -238 -81q-100 -80 -127 -224l-102 -586h-199l185 1044h190z" />
    <glyph glyph-name="Sacute" unicode="&#x15a;" horiz-adv-x="1419" 
d="M836 1608l211 327h233l-287 -327h-157zM621 -31q-277 0 -422 136q-146 135 -107 354h215q-27 -162 55 -233.5t293 -71.5q389 0 428 213q18 94 -59 157q-80 63 -346 115q-262 52 -367 144q-106 91 -78 253q34 192 209 311q174 117 424 117q266 0 404 -139
q136 -139 96 -369h-215q31 170 -45 247t-277 77q-350 0 -387 -217q-10 -65 13 -107t116 -80q89 -39 279 -77q266 -53 369 -150q102 -97 73 -264q-33 -185 -218 -301q-184 -115 -453 -115z" />
    <glyph glyph-name="sacute" unicode="&#x15b;" horiz-adv-x="1114" 
d="M586 1219l211 327h233l-287 -327h-157zM487 -31q-221 0 -336 100q-116 100 -88 265h205q-20 -113 39 -164t209 -51q246 0 270 141q12 66 -41 108q-52 41 -233 76q-200 40 -280 114q-79 73 -60 200q26 143 157 230q132 87 324 87q207 0 313 -99q105 -99 76 -263h-204
q20 111 -31 162t-182 51q-230 0 -258 -148q-12 -69 40 -103q52 -35 238 -73q203 -40 282 -117q79 -76 56 -209q-23 -136 -159 -222q-136 -85 -337 -85z" />
    <glyph glyph-name="Scircumflex" unicode="&#x15c;" horiz-adv-x="1419" 
d="M1061 1608l-90 260l-185 -260h-186l250 327h262l135 -327h-186zM1366 956h-215q31 170 -45 247t-277 77q-350 0 -387 -217q-10 -65 13 -107t116 -80q89 -39 279 -77q266 -53 369 -150q102 -97 73 -264q-33 -185 -218 -301q-184 -115 -453 -115q-277 0 -422 136
q-146 135 -107 354h215q-27 -162 55 -233.5t293 -71.5q389 0 428 213q18 94 -59 157q-80 63 -346 115q-262 52 -367 144q-106 91 -78 253q34 192 209 311q174 117 424 117q266 0 404 -139q136 -139 96 -369z" />
    <glyph glyph-name="scircumflex" unicode="&#x15d;" horiz-adv-x="1114" 
d="M811 1219l-90 260l-184 -260h-187l250 327h262l135 -327h-186zM1042 713h-204q20 111 -31 162t-182 51q-230 0 -258 -148q-12 -69 40 -103q52 -35 238 -73q203 -40 282 -117q79 -76 56 -209q-23 -136 -159 -222q-136 -85 -337 -85q-221 0 -336 100q-116 100 -88 265h205
q-20 -113 39 -164t209 -51q246 0 270 141q12 66 -41 108q-52 41 -233 76q-200 40 -280 114q-79 73 -60 200q26 143 157 230q132 87 324 87q207 0 313 -99q105 -99 76 -263z" />
    <glyph glyph-name="Scedilla" unicode="&#x15e;" horiz-adv-x="1419" 
d="M1366 956h-215q31 170 -45 247t-277 77q-350 0 -387 -217q-10 -65 13 -107t116 -80q89 -39 279 -77q266 -53 369 -150q102 -97 73 -264q-33 -174 -195 -285q-164 -113 -407 -129l-35 -82h62q84 0 127 -44t30 -115q-14 -76 -78 -123q-65 -47 -157 -47h-174l22 123h144
q73 0 80 51q4 27 -10.5 39t-53.5 12h-125l19 102l41 82q-259 11 -392 145q-135 134 -98 345h215q-27 -162 55 -233.5t293 -71.5q389 0 428 213q18 94 -59 157q-80 63 -346 115q-262 52 -367 144q-106 91 -78 253q34 192 209 311q174 117 424 117q266 0 404 -139
q136 -139 96 -369z" />
    <glyph glyph-name="scedilla" unicode="&#x15f;" horiz-adv-x="1114" 
d="M1042 713h-204q20 111 -31 162t-182 51q-230 0 -258 -148q-12 -69 40 -103q52 -35 238 -73q203 -40 282 -117q79 -76 56 -209q-19 -128 -142 -211q-123 -84 -302 -94l-35 -82h61q84 0 127 -44t31 -115q-13 -76 -78 -123t-158 -47h-174l23 123h143q73 0 80 51q4 27 -10 39
t-53 12h-125l18 102l41 84q-194 13 -294 112q-98 97 -73 251h205q-20 -113 39 -164t209 -51q246 0 270 141q12 66 -41 108q-52 41 -233 76q-200 40 -280 114q-79 73 -60 200q26 143 157 230q132 87 324 87q207 0 313 -99q105 -99 76 -263z" />
    <glyph glyph-name="Scaron" unicode="&#x160;" horiz-adv-x="1419" 
d="M1047 1608h-263l-135 327h187l90 -260l184 260h186zM1366 956h-215q31 170 -45 247t-277 77q-350 0 -387 -217q-10 -65 13 -107t116 -80q89 -39 279 -77q266 -53 369 -150q102 -97 73 -264q-33 -185 -218 -301q-184 -115 -453 -115q-277 0 -422 136q-146 135 -107 354
h215q-27 -162 55 -233.5t293 -71.5q389 0 428 213q18 94 -59 157q-80 63 -346 115q-262 52 -367 144q-106 91 -78 253q34 192 209 311q174 117 424 117q266 0 404 -139q136 -139 96 -369z" />
    <glyph glyph-name="scaron" unicode="&#x161;" horiz-adv-x="1114" 
d="M797 1219h-262l-136 327h187l90 -260l184 260h187zM1042 713h-204q20 111 -31 162t-182 51q-230 0 -258 -148q-12 -69 40 -103q52 -35 238 -73q203 -40 282 -117q79 -76 56 -209q-23 -136 -159 -222q-136 -85 -337 -85q-221 0 -336 100q-116 100 -88 265h205
q-20 -113 39 -164t209 -51q246 0 270 141q12 66 -41 108q-52 41 -233 76q-200 40 -280 114q-79 73 -60 200q26 143 157 230q132 87 324 87q207 0 313 -99q105 -99 76 -263z" />
    <glyph glyph-name="uni0162" unicode="&#x162;" horiz-adv-x="1323" 
d="M895 1260l-221 -1260h-51l-48 -111h62q84 0 127 -44t31 -115q-13 -76 -79 -123q-65 -47 -157 -47h-174l23 123h143q73 0 80 51q4 27 -10.5 39t-53.5 12h-125l19 102l55 113h-51l221 1260h-526l30 174h1262l-31 -174h-526z" />
    <glyph glyph-name="uni0163" unicode="&#x163;" horiz-adv-x="876" 
d="M903 885h-407l-97 -545q-20 -113 12 -155q31 -42 132 -42h233l-24 -143q-125 -19 -246 -20l-39 -91h61q84 0 127 -44t31 -115q-14 -76 -78 -123q-65 -47 -157 -47h-175l23 123h143q72 0 80 51q4 27 -10 39t-53 12h-125l18 102l49 101q-117 25 -172 108.5t-34 204.5
l102 584h-213l29 159h213l59 310h193l-56 -310h410z" />
    <glyph glyph-name="Tcaron" unicode="&#x164;" horiz-adv-x="1323" 
d="M975 1608h-262l-135 327h186l90 -260l184 260h187zM190 1434h1262l-31 -174h-526l-221 -1260h-209l221 1260h-526z" />
    <glyph glyph-name="tcaron" unicode="&#x165;" horiz-adv-x="876" 
d="M764 1468l22 131h222l-29 -163q-20 -113 -98 -173.5t-199 -60.5l16 90q145 0 166 121zM385 1354h193l-56 -310h410l-29 -159h-407l-97 -545q-20 -113 12 -155q31 -42 132 -42h233l-24 -143q-146 -20 -258 -20q-160 0 -243 89t-56 232l102 584h-213l29 159h213z" />
    <glyph glyph-name="Tbar" unicode="&#x166;" horiz-adv-x="1323" 
d="M1452 1434l-31 -174h-526l-82 -469h358l-28 -168h-361l-108 -623h-209l108 623h-364l29 168h366l82 469h-526l30 174h1262z" />
    <glyph glyph-name="tbar" unicode="&#x167;" horiz-adv-x="876" 
d="M932 1044l-29 -159h-407l-45 -254h411l-26 -152h-412l-25 -139q-20 -113 12 -155q31 -42 132 -42h233l-24 -143q-146 -20 -258 -20q-160 0 -243 89t-56 232l30 178h-209l27 152h209l45 254h-213l29 159h213l59 310h193l-56 -310h410z" />
    <glyph glyph-name="Utilde" unicode="&#x168;" horiz-adv-x="1585" 
d="M1145 1645q-70 0 -156 50t-139 50q-92 0 -111 -96h-123q22 119 94 190q70 70 171 70q69 0 155 -50q84 -51 138 -51q95 0 108 97h123q-19 -119 -90 -189q-71 -71 -170 -71zM199 487l166 947h208l-165 -942q-31 -178 45 -259t274 -81q199 0 303.5 80.5t134.5 259.5l166 942
h209l-166 -947q-40 -233 -228 -375q-188 -143 -452 -143q-263 0 -400 143q-136 142 -95 375z" />
    <glyph glyph-name="utilde" unicode="&#x169;" horiz-adv-x="1329" 
d="M639 1356q-91 0 -111 -96h-122q23 120 93.5 190t170.5 70q69 0 155 -50q84 -51 138 -51q95 0 108 97h123q-20 -120 -90 -190q-71 -71 -170 -71q-70 0 -156 51q-86 50 -139 50zM924 422l110 622h199l-184 -1044h-191l33 190q-167 -221 -432 -221q-167 0 -253 108
q-86 107 -54 281l120 686h199l-106 -604q-31 -169 14 -236t192 -67q136 0 234 77q96 77 119 208z" />
    <glyph glyph-name="Umacron" unicode="&#x16a;" horiz-adv-x="1585" 
d="M737 1864h582l-29 -160h-581zM199 487l166 947h208l-165 -942q-31 -178 45 -259t274 -81q199 0 303.5 80.5t134.5 259.5l166 942h209l-166 -947q-40 -233 -228 -375q-188 -143 -452 -143q-263 0 -400 143q-136 142 -95 375z" />
    <glyph glyph-name="umacron" unicode="&#x16b;" horiz-adv-x="1329" 
d="M526 1475h582l-29 -160h-581zM924 422l110 622h199l-184 -1044h-191l33 190q-167 -221 -432 -221q-167 0 -253 108q-86 107 -54 281l120 686h199l-106 -604q-31 -169 14 -236t192 -67q136 0 234 77q96 77 119 208z" />
    <glyph glyph-name="Ubreve" unicode="&#x16c;" horiz-adv-x="1585" 
d="M1178 1935h163q-28 -151 -127 -242q-97 -91 -233 -91q-135 0 -201 92q-67 91 -41 241h164q-18 -105 5.5 -152.5t95.5 -47.5q71 0 113 48t61 152zM199 487l166 947h208l-165 -942q-31 -178 45 -259t274 -81q199 0 303.5 80.5t134.5 259.5l166 942h209l-166 -947
q-40 -233 -228 -375q-188 -143 -452 -143q-263 0 -400 143q-136 142 -95 375z" />
    <glyph glyph-name="ubreve" unicode="&#x16d;" horiz-adv-x="1329" 
d="M1003 1303q-97 -91 -233 -91q-135 0 -201 93q-67 91 -41 241h164q-18 -105 5.5 -152.5t95.5 -47.5q71 0 113 48t61 152h163q-28 -150 -127 -243zM924 422l110 622h199l-184 -1044h-191l33 190q-167 -221 -432 -221q-167 0 -253 108q-86 107 -54 281l120 686h199
l-106 -604q-31 -169 14 -236t192 -67q136 0 234 77q96 77 119 208z" />
    <glyph glyph-name="Uring" unicode="&#x16e;" horiz-adv-x="1585" 
d="M1129 1649q-62 -47 -148 -47t-131 47q-45 46 -31 123q12 76 74 123t147 47q86 0 131.5 -47.5t32.5 -122.5q-14 -76 -75 -123zM997 1692q90 0 105 80q8 42 -10 60.5t-66 18.5q-91 0 -104 -79q-8 -43 9.5 -61.5t65.5 -18.5zM199 487l166 947h208l-165 -942
q-31 -178 45 -259t274 -81q199 0 303.5 80.5t134.5 259.5l166 942h209l-166 -947q-40 -233 -228 -375q-188 -143 -452 -143q-263 0 -400 143q-136 142 -95 375z" />
    <glyph glyph-name="uring" unicode="&#x16f;" horiz-adv-x="1329" 
d="M918 1259q-62 -47 -148 -47t-131 48q-45 46 -31 122q12 76 74 123t147 47q86 0 131.5 -47t32.5 -123t-75 -123zM711 1382q-8 -42 9.5 -60.5t65.5 -18.5q90 0 105 79q8 42 -10 61t-66 19q-90 0 -104 -80zM924 422l110 622h199l-184 -1044h-191l33 190q-167 -221 -432 -221
q-167 0 -253 108q-86 107 -54 281l120 686h199l-106 -604q-31 -169 14 -236t192 -67q136 0 234 77q96 77 119 208z" />
    <glyph glyph-name="Uhungarumlaut" unicode="&#x170;" horiz-adv-x="1585" 
d="M770 1608l182 327h187l-211 -327h-158zM1030 1608l211 327h234l-287 -327h-158zM199 487l166 947h208l-165 -942q-31 -178 45 -259t274 -81q199 0 303.5 80.5t134.5 259.5l166 942h209l-166 -947q-40 -233 -228 -375q-188 -143 -452 -143q-263 0 -400 143
q-136 142 -95 375z" />
    <glyph glyph-name="uhungarumlaut" unicode="&#x171;" horiz-adv-x="1329" 
d="M741 1546h187l-211 -327h-158zM1264 1546l-287 -327h-158l211 327h234zM924 422l110 622h199l-184 -1044h-191l33 190q-167 -221 -432 -221q-167 0 -253 108q-86 107 -54 281l120 686h199l-106 -604q-31 -169 14 -236t192 -67q136 0 234 77q96 77 119 208z" />
    <glyph glyph-name="Uogonek" unicode="&#x172;" horiz-adv-x="1585" 
d="M1165 492l166 942h209l-166 -947q-33 -181 -153 -308q-122 -128 -301 -179l-191 -184q-50 -46 -55 -84q-4 -25 12 -37t51 -12h135l-22 -123h-201q-78 0 -119 38t-30 101q17 82 98 145l156 127q-26 -2 -60 -2q-263 0 -400 143q-136 142 -95 375l166 947h208l-165 -942
q-31 -178 45 -259t274 -81q199 0 303.5 80.5t134.5 259.5z" />
    <glyph glyph-name="uogonek" unicode="&#x173;" horiz-adv-x="1329" 
d="M1049 0l-191 -184q-50 -46 -55 -84q-4 -25 12 -37t51 -12h135l-22 -123h-201q-78 0 -119 38t-30 101q17 82 98 145l191 156h-60l33 190q-167 -221 -432 -221q-167 0 -253 108q-86 107 -54 281l120 686h199l-106 -604q-31 -169 14 -236t192 -67q136 0 234 77
q96 77 119 208l110 622h199z" />
    <glyph glyph-name="Wcircumflex" unicode="&#x174;" horiz-adv-x="2273" 
d="M1479 1608l-90 260l-185 -260h-186l250 327h262l135 -327h-186zM1683 358l492 1076h207l-658 -1434h-338l-73 1047l-15 313l-124 -316l-443 -1044h-346l-154 1434h215l115 -1076l23 -268l106 268l453 1076h336l75 -1076l13 -268z" />
    <glyph glyph-name="wcircumflex" unicode="&#x175;" horiz-adv-x="1808" 
d="M1180 1219l-90 260l-185 -260h-186l250 327h262l135 -327h-186zM1311 276l348 768h207l-502 -1044h-303l-60 729l-10 217l-88 -217l-317 -729h-312l-135 1044h215l80 -768l12 -215l86 215l332 768h289l61 -768l11 -208z" />
    <glyph glyph-name="Ycircumflex" unicode="&#x176;" horiz-adv-x="1302" 
d="M991 1608l-90 260l-184 -260h-187l250 327h262l136 -327h-187zM1247 1434h205l-696 -963h-2l-82 -471h-209l84 473l-361 961h222l206 -553l74 -242l160 242z" />
    <glyph glyph-name="ycircumflex" unicode="&#x177;" horiz-adv-x="1114" 
d="M780 1219l-90 260l-184 -260h-187l250 327h262l136 -327h-187zM571 276l410 768h197l-658 -1218q-53 -103 -147 -164t-197 -61q-112 0 -190 20l24 143h156q132 0 184 103l72 133h-119l-194 1044h204l140 -768l26 -188z" />
    <glyph glyph-name="Ydieresis" unicode="&#x178;" horiz-adv-x="1302" 
d="M616 1894h220l-41 -229h-220zM965 1894h219l-41 -229h-219zM1247 1434h205l-696 -963h-2l-82 -471h-209l84 473l-361 961h222l206 -553l74 -242l160 242z" />
    <glyph glyph-name="Zacute" unicode="&#x179;" horiz-adv-x="1259" 
d="M741 1608l211 327h234l-287 -327h-158zM1096 0h-1106l59 338l1178 928l-291 -6h-719l31 174h1093l-59 -338l-1176 -928l289 6h731z" />
    <glyph glyph-name="zacute" unicode="&#x17a;" horiz-adv-x="1036" 
d="M563 1219l211 327h234l-287 -327h-158zM862 0h-852l56 309l860 572l-228 -4h-524l31 167h831l-55 -317l-850 -563l215 4h545z" />
    <glyph glyph-name="Zdotaccent" unicode="&#x17b;" horiz-adv-x="1259" 
d="M725 1665l41 229h219l-41 -229h-219zM1096 0h-1106l59 338l1178 928l-291 -6h-719l31 174h1093l-59 -338l-1176 -928l289 6h731z" />
    <glyph glyph-name="zdotaccent" unicode="&#x17c;" horiz-adv-x="1036" 
d="M547 1276l41 229h219l-41 -229h-219zM862 0h-852l56 309l860 572l-228 -4h-524l31 167h831l-55 -317l-850 -563l215 4h545z" />
    <glyph glyph-name="Zcaron" unicode="&#x17d;" horiz-adv-x="1259" 
d="M952 1608h-262l-135 327h186l90 -260l185 260h186zM248 1434h1093l-59 -338l-1176 -928l289 6h731l-30 -174h-1106l59 338l1178 928l-291 -6h-719z" />
    <glyph glyph-name="zcaron" unicode="&#x17e;" horiz-adv-x="1036" 
d="M774 1219h-262l-135 327h186l90 -260l185 260h186zM205 1044h831l-55 -317l-850 -563l215 4h545l-29 -168h-852l56 309l860 572l-228 -4h-524z" />
    <glyph glyph-name="uni018F" unicode="&#x18f;" horiz-adv-x="1581" 
d="M930 1464q314 0 468 -205t95 -542q-57 -337 -286 -542q-230 -206 -545 -206q-266 0 -417 157q-76 79 -105 201t-3 273l29 154h1118q41 278 -50 401q-92 125 -337 125q-216 0 -329 -83t-146 -265h-215q44 248 251 390q208 142 472 142zM694 152q224 0 357 102.5t196 325.5
h-899q-35 -223 48 -325.5t298 -102.5z" />
    <glyph glyph-name="florin" unicode="&#x192;" horiz-adv-x="964" 
d="M997 1403h-239q-96 0 -142 -43q-47 -44 -65 -154l-29 -162h396l-29 -159h-395l-228 -1284h-198l227 1284h-211l29 159h209l32 181q27 153 143 248q115 94 275 94q149 0 250 -19z" />
    <glyph glyph-name="uni019D" unicode="&#x19d;" horiz-adv-x="1622" 
d="M1163 442l174 992h209l-252 -1434h-352l-414 1325l-39 -278l-184 -1047l-8 -47q-28 -157 -137 -255q-109 -97 -258 -97q-90 0 -158 20l25 143h135q86 0 128 50q41 50 64 186l252 1434h359l409 -1313z" />
    <glyph glyph-name="Gcaron" unicode="&#x1e6;" horiz-adv-x="1624" 
d="M1155 1608h-262l-135 327h186l90 -260l185 260h186zM1534 944h-215q31 177 -54 256.5t-307 79.5q-256 0 -395 -133t-190 -430q-51 -298 40 -431q92 -134 347 -134q228 0 349 103q122 104 167 333h-522l28 164h727l-131 -752h-174l62 342q-162 -373 -559 -373
q-305 0 -457 206t-92 542q58 336 289 542q229 205 544 205q284 0 435 -143q149 -144 108 -377z" />
    <glyph glyph-name="gcaron" unicode="&#x1e7;" horiz-adv-x="1107" 
d="M827 1219h-262l-135 327h186l91 -260l184 260h186zM1237 1208l-29 -164q-104 0 -149 -19q-47 -20 -66 -64q84 -95 60 -240q-27 -156 -166 -256t-336 -100q-134 0 -225 47q-76 -39 -88 -113q-8 -53 18.5 -73.5t103.5 -20.5h353q161 0 247 -80q85 -80 62 -209
q-26 -141 -184 -228q-160 -87 -395 -87t-365 77q-129 78 -109 207q8 60 62 106t135 62q-115 52 -92 183q26 135 188 217q-122 104 -90 268q28 159 167 257q137 97 337 97q152 0 252 -61q34 100 106.5 147t202.5 47zM848 721q20 106 -27 153.5t-172 47.5t-189.5 -47.5
t-82.5 -153.5q-18 -109 29 -157t172 -48q123 0 186.5 48t83.5 157zM674 41h-455q-49 -44 -61 -125q-16 -93 46 -125q61 -31 267 -31t278 31q73 32 89 125q12 70 -24 97.5t-140 27.5z" />
    <glyph glyph-name="uni01EA" unicode="&#x1ea;" horiz-adv-x="1667" 
d="M450 1259q232 205 552 205q319 0 478 -205q158 -206 99 -542q-46 -268 -211 -460q-164 -191 -401 -257l-191 -184q-50 -46 -55 -84q-4 -24 12.5 -36.5t50.5 -12.5h136l-23 -123h-201q-78 0 -118.5 37.5t-30.5 101.5q17 82 98 145l156 127q-26 -2 -64 -2q-318 0 -479 206
q-160 205 -100 542q58 336 292 542zM1364 717q51 297 -42 430t-353 133q-259 0 -402 -134t-194 -429q-51 -296 43 -429q95 -134 354 -134t401 134q141 135 193 429z" />
    <glyph glyph-name="uni01EB" unicode="&#x1eb;" horiz-adv-x="1302" 
d="M338 923q173 152 410 152t357 -152q120 -153 75 -401q-35 -196 -150 -332q-117 -138 -280 -190l-191 -184q-50 -46 -55 -84q-4 -25 12 -37t51 -12h135l-22 -123h-201q-78 0 -119 38t-30 101q17 82 98 145l154 125h-29q-238 0 -355 152q-118 151 -75 401q44 249 215 401z
M971 522q35 207 -24.5 300t-227.5 93q-167 0 -259 -93q-90 -92 -128 -300q-37 -205 22.5 -299t227.5 -94t261 94t128 299z" />
    <glyph glyph-name="Aringacute" unicode="&#x1fa;" horiz-adv-x="1419" 
d="M1057 1649q-62 -47 -148 -47q-87 0 -130 46q-44 47 -31 124q12 76 74 123t147 47q25 0 35 -3l118 181h166l-194 -219q52 -47 39 -129q-13 -76 -76 -123zM850 1772q-8 -42 10 -61t66 -19q90 0 104 80q8 42 -10 60.5t-66 18.5q-90 2 -104 -79zM1296 0h-215l-71 438h-621
l-227 -438h-203l739 1434h363zM719 1075l-240 -463h504l-76 463l-45 287z" />
    <glyph glyph-name="aringacute" unicode="&#x1fb;" horiz-adv-x="1222" 
d="M840 1259q-62 -47 -148 -47t-130 47t-32 123t74 123t148 47q22 0 34 -2l119 181h166l-194 -220q53 -47 38 -129q-13 -76 -75 -123zM633 1382q-8 -42 10 -60.5t66 -18.5q91 0 104 79q8 42 -10 61t-66 19q-90 0 -104 -80zM1100 139h2l-25 -139q-85 -20 -151 -20
q-94 0 -126 54t-16 183q-70 -116 -183 -182t-257 -66q-143 0 -218 72t-54 188q19 104 97 173q77 68 249 102q358 74 426 92v6q29 170 -14.5 247t-170.5 77t-195.5 -64.5t-92.5 -210.5h-199q34 189 175 307q139 117 339 117q211 0 306 -110.5t59 -313.5l-70 -387
q-13 -82 7 -103q19 -22 112 -22zM420 127q154 0 255.5 70t133.5 209l12 73q-29 -10 -344 -82q-103 -22 -142 -55q-38 -33 -50 -92q-10 -59 24.5 -91t110.5 -32z" />
    <glyph glyph-name="AEacute" unicode="&#x1fc;" horiz-adv-x="1939" 
d="M1411 1935h234l-287 -327h-158zM1980 1434l-30 -174h-860l73 -447h668l-31 -174h-608l76 -465h508l-31 -174h-664l-71 438h-621l-227 -438h-203l739 1434h1282zM719 1075l-240 -463h504l-76 463l-45 287z" />
    <glyph glyph-name="aeacute" unicode="&#x1fd;" horiz-adv-x="1957" 
d="M1237 1546h233l-286 -327h-158zM1458 1075q216 0 325 -130t70 -343l-20 -121h-786q-27 -184 31.5 -268t213.5 -84q141 0 213 46t88 147h205q-27 -158 -174 -255q-148 -98 -360 -98q-170 0 -275.5 83t-128.5 237q-58 -141 -187 -230q-127 -90 -308 -90q-152 0 -233 72
t-60 188q19 103 103 171q81 66 263 104q358 74 426 92v6q31 170 -13 247t-171 77t-195.5 -64.5t-93.5 -210.5h-198q34 189 175 307q140 117 339 117q264 0 327 -190q172 190 424 190zM1073 616l242 5h338q20 154 -33 224t-190 70q-144 0 -230 -71.5t-127 -227.5zM440 127
q162 0 266 77.5t130 229.5l8 45q-65 -22 -346 -82q-118 -26 -160 -56q-42 -31 -53 -91t28.5 -91.5t126.5 -31.5z" />
    <glyph glyph-name="Oslashacute" unicode="&#x1fe;" horiz-adv-x="1667" 
d="M1102 1935h233l-286 -327h-158zM1452 1546h217l-221 -252q197 -206 131 -577q-57 -337 -289 -542q-233 -206 -553 -206q-215 0 -364 99l-168 -191h-217l266 303q-154 207 -96 537q58 336 292 542q232 205 551 205q184 0 318 -71zM373 717q-43 -249 16 -381l801 911
q-86 33 -221 33q-259 0 -402 -134t-194 -429zM1364 717q53 299 -43 432l-823 -936q98 -59 272 -59q259 0 401 134q141 135 193 429z" />
    <glyph glyph-name="oslashacute" unicode="&#x1ff;" horiz-adv-x="1302" 
d="M899 1546h234l-287 -327h-158zM1163 1188h209l-258 -277q110 -150 66 -389q-45 -250 -217 -401q-173 -152 -410 -152q-151 0 -258 66l-166 -178h-209l264 282q-102 150 -61 383q44 249 215 401q173 152 410 152q144 0 253 -61zM332 522q-26 -143 -6 -229l553 590
q-59 34 -160 32q-167 0 -259 -93q-90 -92 -128 -300zM971 522q25 152 2 238l-557 -596q64 -35 166 -35q168 0 261 94t128 299z" />
    <glyph glyph-name="uni0218" unicode="&#x218;" horiz-adv-x="1419" 
d="M621 -31q-277 0 -422 136q-146 135 -107 354h215q-27 -162 55 -233.5t293 -71.5q389 0 428 213q18 94 -59 157q-80 63 -346 115q-262 52 -367 144q-106 91 -78 253q34 192 209 311q174 117 424 117q266 0 404 -139q136 -139 96 -369h-215q31 170 -45 247t-277 77
q-350 0 -387 -217q-10 -65 13 -107t116 -80q89 -39 279 -77q266 -53 369 -150q102 -97 73 -264q-33 -185 -218 -301q-184 -115 -453 -115zM483 -311l23 131h221l-29 -164q-20 -113 -98 -173.5t-199 -60.5l17 91q145 0 166 120z" />
    <glyph glyph-name="uni0219" unicode="&#x219;" horiz-adv-x="1114" 
d="M487 -31q-221 0 -336 100q-116 100 -88 265h205q-20 -113 39 -164t209 -51q246 0 270 141q12 66 -41 108q-52 41 -233 76q-200 40 -280 114q-79 73 -60 200q26 143 157 230q132 87 324 87q207 0 313 -99q105 -99 76 -263h-204q20 111 -31 162t-182 51q-230 0 -258 -148
q-12 -69 40 -103q52 -35 238 -73q203 -40 282 -117q79 -76 56 -209q-23 -136 -159 -222q-136 -85 -337 -85zM328 -311l22 131h221l-28 -164q-20 -113 -98 -173.5t-199 -60.5l16 91q145 0 166 120z" />
    <glyph glyph-name="uni021A" unicode="&#x21a;" horiz-adv-x="1323" 
d="M190 1434h1262l-31 -174h-526l-221 -1260h-209l221 1260h-526zM504 -367l-101 56l23 131h221l-29 -164q-20 -113 -97.5 -173.5t-198.5 -60.5l16 91q145 0 166 120z" />
    <glyph glyph-name="uni021B" unicode="&#x21b;" horiz-adv-x="876" 
d="M903 885h-407l-97 -545q-20 -113 12 -155q31 -42 132 -42h233l-24 -143q-146 -20 -258 -20q-160 0 -243 89t-56 232l102 584h-213l29 159h213l59 310h193l-56 -310h410zM391 -367l-100 56l22 131h222l-29 -164q-20 -113 -98 -173.5t-199 -60.5l16 91q145 0 166 120z" />
    <glyph glyph-name="uni0232" unicode="&#x232;" horiz-adv-x="1302" 
d="M604 1864h582l-29 -160h-582zM1247 1434h205l-696 -963h-2l-82 -471h-209l84 473l-361 961h222l206 -553l74 -242l160 242z" />
    <glyph glyph-name="uni0233" unicode="&#x233;" horiz-adv-x="1114" 
d="M393 1475h582l-29 -160h-581zM571 276l410 768h197l-658 -1218q-53 -103 -147 -164t-197 -61q-112 0 -190 20l24 143h156q132 0 184 103l72 133h-119l-194 1044h204l140 -768l26 -188z" />
    <glyph glyph-name="uni0237" unicode="&#x237;" horiz-adv-x="575" 
d="M92 -29l189 1073h198l-192 -1091q-28 -157 -134 -255q-106 -97 -251 -97q-90 0 -158 20l25 143h135q86 0 127 45q42 48 61 162z" />
    <glyph glyph-name="uni0259" unicode="&#x259;" horiz-adv-x="1241" 
d="M702 1075q231 0 347 -146q116 -148 73 -386q-45 -258 -215 -416t-403 -158q-215 0 -324 130q-110 131 -71 343l18 109h788q33 190 -24.5 277t-216.5 87q-139 0 -210 -49t-91 -159h-205q32 167 177 267q146 101 357 101zM532 129q138 0 223 69t130 218l-240 -4h-336
q-18 -147 35 -215t188 -68z" />
    <glyph glyph-name="uni0272" unicode="&#x272;" horiz-adv-x="1349" 
d="M868 1075q180 0 271 -106q91 -107 59 -283l-121 -686h-198l106 604q31 170 -15 237q-46 66 -194 66q-144 0 -247 -83q-102 -82 -128 -222l-114 -649q-28 -157 -134 -255q-106 -97 -251 -97q-90 0 -158 20l25 143h135q86 0 127 45q42 48 61 162l189 1073h192l-37 -206
q176 237 432 237z" />
    <glyph glyph-name="circumflex" unicode="&#x2c6;" horiz-adv-x="790" 
d="M707 1546l135 -327h-187l-90 260l-184 -260h-186l249 327h263z" />
    <glyph glyph-name="caron" unicode="&#x2c7;" horiz-adv-x="790" 
d="M528 1286l185 260h186l-250 -327h-262l-135 327h186z" />
    <glyph glyph-name="breve" unicode="&#x2d8;" horiz-adv-x="745" 
d="M690 1546h164q-28 -150 -127 -243q-97 -91 -233 -91t-202 93q-67 91 -40 241h164q-18 -105 5 -152.5t95 -47.5t114 48t60 152z" />
    <glyph glyph-name="dotaccent" unicode="&#x2d9;" horiz-adv-x="362" 
d="M205 1276l41 229h219l-41 -229h-219z" />
    <glyph glyph-name="ring" unicode="&#x2da;" horiz-adv-x="528" 
d="M533 1259q-62 -47 -148 -47t-131 48q-45 46 -31 122q12 76 74 123t147 47q86 0 131.5 -47t32.5 -123q-14 -76 -75 -123zM401 1303q90 0 105 79q8 42 -10 61t-66 19q-90 0 -104 -80q-8 -42 9.5 -60.5t65.5 -18.5z" />
    <glyph glyph-name="ogonek" unicode="&#x2db;" horiz-adv-x="518" 
d="M299 -317l-23 -123h-200q-78 0 -119 37.5t-31 101.5q17 81 99 145l190 156h131l-190 -184q-52 -47 -56 -84q-4 -25 12.5 -37t51.5 -12h135z" />
    <glyph glyph-name="tilde" unicode="&#x2dc;" horiz-adv-x="884" 
d="M729 1255q-71 0 -156 51q-86 50 -139 50q-92 0 -110 -96h-123q22 118 94 190q70 70 170 70q69 0 155 -50q86 -51 138 -51q95 0 108 97h123q-20 -120 -90 -190q-71 -71 -170 -71z" />
    <glyph glyph-name="hungarumlaut" unicode="&#x2dd;" horiz-adv-x="790" 
d="M195 1219l182 327h186l-211 -327h-157zM455 1219l211 327h233l-287 -327h-157z" />
    <glyph glyph-name="gravecomb" unicode="&#x300;" horiz-adv-x="0" 
d="M-279 1546h234l96 -327h-157z" />
    <glyph glyph-name="acutecomb" unicode="&#x301;" horiz-adv-x="0" 
d="M-336 1219l211 327h234l-287 -327h-158z" />
    <glyph glyph-name="uni0302" unicode="&#x302;" horiz-adv-x="0" 
d="M-84 1546l135 -327h-186l-90 260l-185 -260h-186l250 327h262z" />
    <glyph glyph-name="tildecomb" unicode="&#x303;" horiz-adv-x="0" 
d="M-156 1255q-70 0 -156 51q-86 50 -139 50q-92 0 -110 -96h-123q23 120 93 190t171 70q69 0 155 -50q85 -51 138 -51q94 0 109 97h122q-20 -120 -90 -190q-71 -71 -170 -71z" />
    <glyph glyph-name="uni0304" unicode="&#x304;" horiz-adv-x="0" 
d="M-485 1475h581l-28 -160h-582z" />
    <glyph glyph-name="uni0306" unicode="&#x306;" horiz-adv-x="0" 
d="M-55 1546h164q-28 -151 -128 -243q-97 -91 -233 -91q-134 0 -202 93q-66 91 -40 241h164q-18 -105 5.5 -152.5t94.5 -47.5q72 0 114 48t61 152z" />
    <glyph glyph-name="uni0307" unicode="&#x307;" horiz-adv-x="0" 
d="M-158 1276l41 229h219l-41 -229h-219z" />
    <glyph glyph-name="uni0308" unicode="&#x308;" horiz-adv-x="0" 
d="M-506 1276l41 229h219l-41 -229h-219zM-158 1276l41 229h219l-41 -229h-219z" />
    <glyph glyph-name="uni030A" unicode="&#x30a;" horiz-adv-x="0" 
d="M5 1259q-64 -47 -148 -47q-86 0 -131 48q-45 46 -31 122q12 77 73 123q62 47 148 47t131 -47t33 -123q-14 -76 -75 -123zM-127 1303q91 0 104 79q8 43 -9.5 61.5t-65.5 18.5q-90 0 -105 -80q-8 -42 10 -60.5t66 -18.5z" />
    <glyph glyph-name="uni030B" unicode="&#x30b;" horiz-adv-x="0" 
d="M-596 1219l182 327h187l-211 -327h-158zM-336 1219l211 327h234l-287 -327h-158z" />
    <glyph glyph-name="uni030C" unicode="&#x30c;" horiz-adv-x="0" 
d="M-262 1286l184 260h187l-250 -327h-262l-136 327h187z" />
    <glyph glyph-name="uni0312" unicode="&#x312;" horiz-adv-x="0" 
d="M39 1350l-23 -131h-221l29 163q20 108 97 166t198 58l-15 -90q-146 0 -165 -111z" />
    <glyph glyph-name="dotbelowcomb" unicode="&#x323;" horiz-adv-x="0" 
d="M-453 -399l39 219h219l-38 -219h-220z" />
    <glyph glyph-name="uni0326" unicode="&#x326;" horiz-adv-x="0" 
d="M-440 -311l22 131h221l-28 -164q-20 -113 -98 -173.5t-199 -60.5l16 91q145 0 166 120z" />
    <glyph glyph-name="uni0327" unicode="&#x327;" horiz-adv-x="0" 
d="M-430 -111h61q84 0 127 -44t31 -115q-13 -76 -79 -123q-65 -47 -156 -47h-175l23 123h143q73 0 80 51q4 27 -10 39t-53 12h-125l18 102l56 113h106z" />
    <glyph glyph-name="uni0328" unicode="&#x328;" horiz-adv-x="0" 
d="M-219 -317l-23 -123h-200q-78 0 -119 37.5t-31 101.5q17 82 98 145l191 156h131l-190 -184q-52 -47 -56 -84q-4 -25 12.5 -37t51.5 -12h135z" />
    <glyph glyph-name="uni0394" unicode="&#x394;" horiz-adv-x="1300" 
d="M639 1434h362l207 -1260l-30 -174h-1219l31 174zM803 1362l-144 -287l-466 -901h800l-145 901z" />
    <glyph glyph-name="uni03A9" unicode="&#x3a9;" horiz-adv-x="1667" 
d="M596 0h-549l29 166h241l267 -14q-232 32 -348 198q-115 166 -70 412q56 316 285 509t549 193q319 0 481 -193q161 -195 106 -509q-45 -248 -216 -414q-170 -166 -415 -196l267 14h241l-28 -166h-549l47 268q186 37 291.5 154t144.5 330q49 279 -47 404q-96 124 -356 124
q-259 0 -399 -125q-139 -124 -189 -403q-39 -213 25.5 -330t238.5 -154z" />
    <glyph glyph-name="uni03BC" unicode="&#x3bc;" horiz-adv-x="1329" 
d="M924 422l110 622h199l-184 -1044h-191l33 186q-162 -217 -412 -217q-119 0 -196 54l-72 -402h-191l185 1045l67 378h199l-106 -604q-31 -169 14 -236t192 -67q136 0 234 77q96 77 119 208z" />
    <glyph glyph-name="pi" unicode="&#x3c0;" horiz-adv-x="1413" 
d="M1444 885h-223l-101 -566q-16 -82 2.5 -113.5t81.5 -31.5h117l-25 -143q-66 -19 -147 -21q-127 0 -190 80q-64 79 -41 211l102 584h-500l-158 -885h-198l158 885h-228l29 159h1350z" />
    <glyph glyph-name="Wgrave" unicode="&#x1e80;" horiz-adv-x="2273" 
d="M1319 1935l96 -327h-158l-172 327h234zM1683 358l492 1076h207l-658 -1434h-338l-73 1047l-15 313l-124 -316l-443 -1044h-346l-154 1434h215l115 -1076l23 -268l106 268l453 1076h336l75 -1076l13 -268z" />
    <glyph glyph-name="wgrave" unicode="&#x1e81;" horiz-adv-x="1808" 
d="M1020 1546l96 -327h-158l-172 327h234zM1311 276l348 768h207l-502 -1044h-303l-60 729l-10 217l-88 -217l-317 -729h-312l-135 1044h215l80 -768l12 -215l86 215l332 768h289l61 -768l11 -208z" />
    <glyph glyph-name="Wacute" unicode="&#x1e82;" horiz-adv-x="2273" 
d="M1464 1935h234l-287 -327h-158zM1683 358l492 1076h207l-658 -1434h-338l-73 1047l-15 313l-124 -316l-443 -1044h-346l-154 1434h215l115 -1076l23 -268l106 268l453 1076h336l75 -1076l13 -268z" />
    <glyph glyph-name="wacute" unicode="&#x1e83;" horiz-adv-x="1808" 
d="M1165 1546h234l-287 -327h-158zM1311 276l348 768h207l-502 -1044h-303l-60 729l-10 217l-88 -217l-317 -729h-312l-135 1044h215l80 -768l12 -215l86 215l332 768h289l61 -768l11 -208z" />
    <glyph glyph-name="Wdieresis" unicode="&#x1e84;" horiz-adv-x="2273" 
d="M1104 1894h219l-41 -229h-219zM1452 1894h219l-41 -229h-219zM1683 358l492 1076h207l-658 -1434h-338l-73 1047l-15 313l-124 -316l-443 -1044h-346l-154 1434h215l115 -1076l23 -268l106 268l453 1076h336l75 -1076l13 -268z" />
    <glyph glyph-name="wdieresis" unicode="&#x1e85;" horiz-adv-x="1808" 
d="M805 1505h219l-41 -229h-219zM1153 1505h219l-41 -229h-219zM1311 276l348 768h207l-502 -1044h-303l-60 729l-10 217l-88 -217l-317 -729h-312l-135 1044h215l80 -768l12 -215l86 215l332 768h289l61 -768l11 -208z" />
    <glyph glyph-name="uni1EA0" unicode="&#x1ea0;" horiz-adv-x="1419" 
d="M1061 1434l235 -1434h-215l-71 438h-621l-227 -438h-203l739 1434h363zM719 1075l-240 -463h504l-76 463l-45 287zM668 -399h-219l38 219h220z" />
    <glyph glyph-name="uni1EA1" unicode="&#x1ea1;" horiz-adv-x="1222" 
d="M1100 139h2l-25 -139q-85 -20 -151 -20q-94 0 -126 54t-16 183q-70 -116 -183 -182t-257 -66q-143 0 -218 72t-54 188q19 104 97 173q77 68 249 102q358 74 426 92v6q29 170 -14.5 247t-170.5 77t-195.5 -64.5t-92.5 -210.5h-199q34 189 175 307q139 117 339 117
q211 0 306 -110.5t59 -313.5l-70 -387q-13 -82 7 -103q19 -22 112 -22zM420 127q154 0 255.5 70t133.5 209l12 73q-29 -10 -344 -82q-103 -22 -142 -55q-38 -33 -50 -92q-10 -59 24.5 -91t110.5 -32zM575 -399h-219l39 219h219z" />
    <glyph glyph-name="uni1EB8" unicode="&#x1eb8;" horiz-adv-x="1294" 
d="M1335 1434l-30 -174h-732l-77 -447h690l-31 -174h-690l-82 -465h747l-30 -174h-957l252 1434h940zM672 -399h-219l39 219h219z" />
    <glyph glyph-name="uni1EB9" unicode="&#x1eb9;" horiz-adv-x="1236" 
d="M737 1075q216 0 325 -130q109 -129 71 -343l-21 -121h-786q-27 -184 31.5 -268t213.5 -84q141 0 213 46t88 147h205q-27 -158 -174 -255q-148 -98 -360 -98q-233 0 -349 153q-116 152 -71 400q44 249 212 401q170 152 402 152zM352 616l242 5h338q20 154 -33 224t-190 70
q-144 0 -230 -71.5t-127 -227.5zM582 -399h-220l39 219h220z" />
    <glyph glyph-name="uni1EBC" unicode="&#x1ebc;" horiz-adv-x="1294" 
d="M756 1745q-92 0 -111 -96h-123q22 119 94 190q70 70 170 70q69 0 155 -50q85 -51 138 -51q94 0 109 97h123q-19 -119 -90 -189q-71 -71 -170 -71q-70 0 -156 50t-139 50zM1335 1434l-30 -174h-732l-77 -447h690l-31 -174h-690l-82 -465h747l-30 -174h-957l252 1434h940z
" />
    <glyph glyph-name="uni1EBD" unicode="&#x1ebd;" horiz-adv-x="1236" 
d="M629 1356q-91 0 -111 -96h-123q23 118 94 190q70 70 170 70q69 0 155 -50q86 -51 138 -51q94 0 109 97h123q-20 -120 -90 -190q-71 -71 -170 -71q-70 0 -156 51q-86 50 -139 50zM737 1075q216 0 325 -130q109 -129 71 -343l-21 -121h-786q-27 -184 31.5 -268t213.5 -84
q141 0 213 46t88 147h205q-27 -158 -174 -255q-148 -98 -360 -98q-233 0 -349 153q-116 152 -71 400q44 249 212 401q170 152 402 152zM352 616l242 5h338q20 154 -33 224t-190 70q-144 0 -230 -71.5t-127 -227.5z" />
    <glyph glyph-name="uni1ECA" unicode="&#x1eca;" horiz-adv-x="679" 
d="M143 0l252 1434h209l-252 -1434h-209zM68 -399l38 219h220l-39 -219h-219z" />
    <glyph glyph-name="uni1ECB" unicode="&#x1ecb;" horiz-adv-x="591" 
d="M317 1276l41 229h220l-41 -229h-220zM102 0l185 1044h198l-184 -1044h-199zM18 -399l39 219h219l-38 -219h-220z" />
    <glyph glyph-name="uni1ECC" unicode="&#x1ecc;" horiz-adv-x="1667" 
d="M1290 175q-233 -206 -552 -206t-480 206q-160 205 -100 542q58 336 292 542q232 205 552 205q319 0 478 -205q158 -206 99 -542q-57 -337 -289 -542zM416 288q95 -134 354 -134t401 134q141 135 193 429q51 297 -42 430t-353 133q-259 0 -402 -134t-194 -429
q-51 -296 43 -429zM563 -399l39 219h219l-39 -219h-219z" />
    <glyph glyph-name="uni1ECD" unicode="&#x1ecd;" horiz-adv-x="1302" 
d="M963 121q-173 -152 -410 -152q-238 0 -355 152q-118 151 -75 401q44 249 215 401q173 152 410 152t357 -152q120 -153 75 -401q-45 -250 -217 -401zM355 223q58 -94 227 -94q168 0 261 94q94 95 128 299q35 207 -24.5 300t-227.5 93q-167 0 -259 -93q-90 -92 -128 -300
q-37 -204 23 -299zM379 -399l39 219h219l-39 -219h-219z" />
    <glyph glyph-name="uni1EE4" unicode="&#x1ee4;" horiz-adv-x="1585" 
d="M199 487l166 947h208l-165 -942q-31 -178 45 -259t274 -81q199 0 303.5 80.5t134.5 259.5l166 942h209l-166 -947q-40 -233 -228 -375q-188 -143 -452 -143q-263 0 -400 143q-136 142 -95 375zM520 -399l39 219h219l-39 -219h-219z" />
    <glyph glyph-name="uni1EE5" unicode="&#x1ee5;" horiz-adv-x="1329" 
d="M924 422l110 622h199l-184 -1044h-191l33 190q-167 -221 -432 -221q-167 0 -253 108q-86 107 -54 281l120 686h199l-106 -604q-31 -169 14 -236t192 -67q136 0 234 77q96 77 119 208zM602 -399h-219l39 219h219z" />
    <glyph glyph-name="Ygrave" unicode="&#x1ef2;" horiz-adv-x="1302" 
d="M831 1935l97 -327h-158l-172 327h233zM1247 1434h205l-696 -963h-2l-82 -471h-209l84 473l-361 961h222l206 -553l74 -242l160 242z" />
    <glyph glyph-name="ygrave" unicode="&#x1ef3;" horiz-adv-x="1114" 
d="M621 1546l96 -327h-158l-172 327h234zM571 276l410 768h197l-658 -1218q-53 -103 -147 -164t-197 -61q-112 0 -190 20l24 143h156q132 0 184 103l72 133h-119l-194 1044h204l140 -768l26 -188z" />
    <glyph glyph-name="uni1EF8" unicode="&#x1ef8;" horiz-adv-x="1302" 
d="M717 1745q-91 0 -111 -96h-123q23 119 94 190q70 70 171 70q69 0 155 -50q84 -51 137 -51q94 0 109 97h123q-20 -119 -90 -189q-71 -71 -170 -71q-70 0 -156 50t-139 50zM1247 1434h205l-696 -963h-2l-82 -471h-209l84 473l-361 961h222l206 -553l74 -242l160 242z" />
    <glyph glyph-name="uni1EF9" unicode="&#x1ef9;" horiz-adv-x="1114" 
d="M506 1356q-92 0 -111 -96h-123q22 118 94 190q70 70 171 70q69 0 155 -50q84 -51 137 -51q94 0 109 97h123q-20 -120 -90 -190q-71 -71 -170 -71q-71 0 -156 51q-86 50 -139 50zM571 276l410 768h197l-658 -1218q-53 -103 -147 -164t-197 -61q-112 0 -190 20l24 143h156
q132 0 184 103l72 133h-119l-194 1044h204l140 -768l26 -188z" />
    <glyph glyph-name="endash" unicode="&#x2013;" horiz-adv-x="1144" 
d="M131 604h961l-29 -164h-961z" />
    <glyph glyph-name="emdash" unicode="&#x2014;" horiz-adv-x="1687" 
d="M131 604h1503l-28 -164h-1504z" />
    <glyph glyph-name="quoteleft" unicode="&#x2018;" horiz-adv-x="481" 
d="M467 1141l-31 -178h-256l41 235q47 266 354 266l-18 -110q-186 0 -213 -152z" />
    <glyph glyph-name="quoteright" unicode="&#x2019;" horiz-adv-x="481" 
d="M252 1255l31 179h256l-41 -236q-47 -266 -355 -266l21 110q184 0 213 152z" />
    <glyph glyph-name="quotesinglbase" unicode="&#x201a;" horiz-adv-x="491" 
d="M51 57l35 199h256l-45 -256q-29 -164 -123 -249t-244 -85l21 111q93 0 144.5 47t70.5 151z" />
    <glyph glyph-name="quotedblleft" unicode="&#x201c;" horiz-adv-x="884" 
d="M870 1141l-30 -178h-256l41 235q47 266 354 266l-18 -110q-186 0 -213 -152zM465 1130l-29 -167h-256l39 215q47 266 352 266l-18 -111q-189 0 -211 -141z" />
    <glyph glyph-name="quotedblright" unicode="&#x201d;" horiz-adv-x="884" 
d="M252 1255l31 179h256l-41 -236q-47 -266 -355 -266l21 110q184 0 213 152zM657 1266l29 168h256l-37 -215q-47 -265 -354 -267l18 111q189 0 211 141z" />
    <glyph glyph-name="quotedblbase" unicode="&#x201e;" horiz-adv-x="491" 
d="M51 57l35 199h256l-45 -256q-29 -164 -123 -249t-244 -85l21 111q93 0 144.5 47t70.5 151z" />
    <glyph glyph-name="dagger" unicode="&#x2020;" horiz-adv-x="768" 
d="M524 717h228l-31 -174h-227l-54 -307h-209l54 307h-230l31 174h229l127 717h209z" />
    <glyph glyph-name="daggerdbl" unicode="&#x2021;" horiz-adv-x="768" 
d="M838 1208l-31 -174h-227l-64 -358h227l-30 -174h-228l-47 -266h-209l47 266h-229l31 174h229l64 358h-230l31 174h229l39 226h209l-39 -226h228z" />
    <glyph glyph-name="bullet" unicode="&#x2022;" horiz-adv-x="612" 
d="M115 360l57 324h326l-58 -324h-325z" />
    <glyph glyph-name="ellipsis" unicode="&#x2026;" 
d="M31 0l43 244h243l-43 -244h-243zM451 0l43 244h243l-43 -244h-243zM872 0l43 244h244l-43 -244h-244z" />
    <glyph glyph-name="perthousand" unicode="&#x2030;" horiz-adv-x="1906" 
d="M685 891q-110 -92 -261 -92q-152 0 -228 91q-76 92 -51 243q27 149 137 241q110 90 261 90q152 0 228 -91q77 -91 51 -240q-27 -150 -137 -242zM1470 1434l-495 -627h-174l454 627h215zM381 1258q-55 -48 -69 -125q-15 -78 24 -125t117 -47q77 0 133 47q55 46 70 125
q14 77 -25 125q-39 47 -117 47q-77 0 -133 -47zM1571 637q143 0 215 -91t45 -241q-28 -151 -131 -243q-103 -91 -246 -91q-92 0 -151.5 50.5t-75.5 138.5q-102 -188 -295 -189q-144 0 -214 93q-71 92 -44 242q26 148 129 240q101 91 246 91q92 0 152.5 -50t76.5 -138
q48 88 124.5 138t168.5 50zM23 0l495 627h174l-454 -627h-215zM1114 180q55 46 70 125q14 79 -25 125q-39 47 -116 47t-133 -47q-57 -47 -70 -125q-15 -78 24 -125t117 -47q77 0 133 47zM1596 180q55 46 69 125q14 78 -24 125q-39 47 -117 47q-77 0 -133 -47
q-57 -47 -70 -125q-14 -79 25 -125q38 -47 116 -47t134 47z" />
    <glyph glyph-name="guilsinglleft" unicode="&#x2039;" horiz-adv-x="581" 
d="M268 150l-233 282l35 193l331 282h217l-444 -379l311 -378h-217z" />
    <glyph glyph-name="guilsinglright" unicode="&#x203a;" horiz-adv-x="583" 
d="M182 150h-217l447 378l-314 379h217l234 -282l-35 -193z" />
    <glyph glyph-name="fraction" unicode="&#x2044;" horiz-adv-x="303" 
d="M-594 0l1395 1434h174l-1395 -1434h-174z" />
    <glyph glyph-name="uni20AA" unicode="&#x20aa;" horiz-adv-x="1859" 
d="M395 1434h209l-252 -1434h-209zM975 1249h-402l31 185h420q164 0 248 -101t55 -270l-125 -698h-209l121 677q18 109 -14.5 158t-124.5 49zM745 0l33 184h402q92 0 142 49t71 158l182 1043h209l-187 -1063q-45 -172 -157 -271q-112 -100 -275 -100h-420zM934 1069
l-189 -1069h-208l188 1069h209z" />
    <glyph glyph-name="Euro" unicode="&#x20ac;" horiz-adv-x="1492" 
d="M564 1320q190 144 428 144q237 0 376 -142q140 -142 96 -390h-215q33 182 -36.5 265t-254.5 83q-180 0 -293.5 -85t-177.5 -267h490l-47 -133h-860l24 133h185q95 248 285 392zM760 152q184 0 281.5 77.5t127.5 247.5h215q-44 -242 -230 -375q-187 -133 -427 -133
q-238 0 -377 145q-140 144 -147 394h-185l25 133h834l-50 -133h-415q0 -183 85 -269.5t263 -86.5z" />
    <glyph glyph-name="uni2113" unicode="&#x2113;" horiz-adv-x="837" 
d="M453 1474q96 93 223 93q128 0 183 -127q56 -128 20 -336q-39 -226 -167 -378q-127 -151 -304 -181l-43 -250q-14 -86 6 -119t88 -33h129l-25 -143q-85 -20 -170 -20q-127 0 -190 80q-64 78 -41 212l47 267h-166l31 168h164l92 520q27 154 123 247zM700 1104
q29 170 18 235q-10 64 -71 64q-48 0 -74 -38q-25 -37 -45 -138l-92 -518q111 7 170 97q60 90 94 298z" />
    <glyph glyph-name="uni2116" unicode="&#x2116;" horiz-adv-x="2324" 
d="M2101 1464q139 0 209 -82t46 -217q-25 -134 -123 -217q-98 -82 -236 -82q-137 0 -206 82t-46 217q22 135 121 217q97 82 235 82zM1163 121l47 321l174 992h209l-252 -1434h-352l-414 1325l-38 -278l-185 -1047h-209l252 1434h359zM2202 1165q16 90 -13.5 131t-109.5 41
q-79 0 -122 -41q-41 -40 -58 -131q-17 -90 12 -131t108 -41q155 0 183 172zM2048 543h-215l31 174h215z" />
    <glyph glyph-name="trademark" unicode="&#x2122;" horiz-adv-x="1544" 
d="M680 1434l-21 -117h-231l-90 -508h-141l90 508h-230l21 117h602zM1384 1434h258l-110 -625h-141l90 512l16 72l-287 -584h-235l-78 577l-10 -65l-90 -512h-144l111 625h264l68 -504l8 -78l33 78z" />
    <glyph glyph-name="onethird" unicode="&#x2153;" horiz-adv-x="1460" 
d="M-20 0l1394 1434h174l-1394 -1434h-174zM543 1280l20 106l-43 -36l-219 -166l29 172l104 78h289l-109 -615h-153zM1096 645q117 0 179 -50t48 -132q-20 -111 -166 -131q170 -23 143 -170q-16 -82 -102 -132t-213 -50q-121 0 -184 57q-64 56 -47 151h153
q-8 -45 16.5 -65.5t86.5 -20.5q125 0 139 74q8 41 -12.5 59.5t-73.5 18.5h-123l18 108h97q99 0 110 66q13 94 -88 94q-104 0 -119 -94h-153q17 98 96 158q80 59 195 59z" />
    <glyph glyph-name="twothirds" unicode="&#x2154;" horiz-adv-x="1460" 
d="M346 936h330l-21 -117h-516l37 207l283 129q56 27 79 48q21 19 27 57q7 41 -10.5 61.5t-60.5 19.5q-104 0 -125 -102h-154q18 99 101 163q83 62 198 62q110 0 166 -55q57 -56 41 -145q-12 -67 -58 -107q-47 -41 -157 -92l-213 -98l-80 -33zM-20 0l1394 1434h174
l-1394 -1434h-174zM1100 645q117 0 179 -50t48 -132q-20 -111 -166 -131q170 -23 144 -170q-17 -82 -102 -132q-88 -50 -214 -50q-121 0 -184 57q-64 56 -47 151h153q-8 -45 16.5 -65.5t86.5 -20.5q125 0 139 74q8 41 -12.5 59.5t-73.5 18.5h-123l19 108h96q99 0 110 66
q13 94 -88 94q-105 0 -118 -94h-154q17 98 96 158q80 59 195 59z" />
    <glyph glyph-name="oneeighth" unicode="&#x215b;" horiz-adv-x="1462" 
d="M-31 0l1395 1434h174l-1395 -1434h-174zM512 1280l20 106l-43 -36l-219 -166l29 172l104 78h289l-108 -615h-154zM910 596q80 49 202 49t187 -49q64 -49 51 -131q-22 -114 -176 -146q166 -33 141 -163q-14 -80 -101 -128q-88 -48 -219 -48t-201 48q-71 48 -57 128
q25 133 199 163q-145 31 -123 146q16 82 97 131zM1190 436q8 45 -15.5 65.5t-82.5 20.5q-117 0 -131 -86q-6 -39 18.5 -57.5t83.5 -18.5q114 0 127 76zM1167 190q8 43 -20.5 62.5t-99.5 19.5q-135 0 -150 -82q-8 -45 20.5 -66.5t100.5 -21.5q136 0 149 88z" />
    <glyph glyph-name="threeeighths" unicode="&#x215c;" horiz-adv-x="1460" 
d="M399 799q-121 0 -184 57q-64 57 -47 152h154q-8 -45 15 -65.5t85 -20.5q126 0 139 73q8 41 -12.5 59.5t-73.5 18.5h-123l21 109h96q94 0 109 65q19 94 -89 94q-100 0 -118 -94h-154q17 98 97 158q82 59 196 59q117 0 178.5 -50t46.5 -132q-20 -111 -166 -131
q170 -23 144 -170q-17 -83 -101 -132q-86 -50 -213 -50zM-31 0l1395 1434h174l-1395 -1434h-174zM898 596q80 49 202 49t187 -49q65 -50 50 -131q-22 -114 -176 -146q166 -33 142 -163q-14 -80 -101 -128q-88 -48 -219 -48t-201 48q-71 48 -57 128q25 133 199 163
q-145 31 -123 146q16 82 97 131zM1178 436q8 45 -15.5 65.5t-83.5 20.5q-117 0 -131 -86q-6 -39 18.5 -57.5t84.5 -18.5q114 0 127 76zM1155 190q8 43 -20.5 62.5t-100.5 19.5q-136 0 -149 -82q-8 -45 20.5 -66.5t100.5 -21.5q136 0 149 88z" />
    <glyph glyph-name="fiveeighths" unicode="&#x215d;" horiz-adv-x="1460" 
d="M-31 0l1395 1434h174l-1395 -1434h-174zM643 859q-83 -60 -200 -60q-118 0 -182 56q-65 56 -48 146h154q-8 -45 15 -64t83 -19q103 0 123 96q20 104 -88 104q-91 0 -140 -61h-129l91 377h466l-20 -123h-266l-80 2l-45 -189q77 104 198 105q91 0 138 -59q45 -61 29 -156
q-17 -97 -99 -155zM898 596q80 49 202 49t187 -49q65 -50 50 -131q-22 -114 -176 -146q166 -33 142 -163q-14 -80 -101 -128q-88 -48 -219 -48t-201 48q-71 48 -57 128q25 133 199 163q-145 31 -123 146q16 82 97 131zM1178 436q8 45 -15.5 65.5t-83.5 20.5q-117 0 -131 -86
q-6 -39 18.5 -57.5t84.5 -18.5q114 0 127 76zM1155 190q8 43 -20.5 62.5t-100.5 19.5q-136 0 -149 -82q-8 -45 20.5 -66.5t100.5 -21.5q136 0 149 88z" />
    <glyph glyph-name="seveneighths" unicode="&#x215e;" horiz-adv-x="1464" 
d="M-31 0l1395 1434h174l-1395 -1434h-174zM750 1313l-127 -2h-293l20 123h455l-17 -101l-20 -114q-105 -71 -179 -177q-74 -107 -93 -223h-150q26 142 133 272q106 129 271 222zM912 596q80 49 202 49t187 -49q64 -49 51 -131q-22 -114 -176 -146q166 -33 141 -163
q-14 -80 -101 -128q-88 -48 -219 -48t-201 48q-71 48 -57 128q25 133 199 163q-145 31 -123 146q16 82 97 131zM1192 436q8 45 -15 65.5t-83 20.5q-117 0 -131 -86q-6 -39 18.5 -57.5t83.5 -18.5q114 0 127 76zM1169 190q8 43 -20.5 62.5t-99.5 19.5q-135 0 -150 -82
q-8 -45 20.5 -66.5t100.5 -21.5q136 0 149 88z" />
    <glyph glyph-name="arrowleft" unicode="&#x2190;" horiz-adv-x="1529" 
d="M455 809l1067 18l-37 -206l-1057 18l375 -442l-160 -136l-547 664l781 666l110 -138z" />
    <glyph glyph-name="arrowup" unicode="&#x2191;" horiz-adv-x="1533" 
d="M932 1448l547 -664l-160 -135l-363 453l-168 -1061h-206l204 1063l-522 -453l-114 133z" />
    <glyph glyph-name="arrowright" unicode="&#x2192;" horiz-adv-x="1529" 
d="M801 1253l155 138l547 -666l-780 -664l-111 136l531 442l-1065 -18l37 206l1059 -18z" />
    <glyph glyph-name="arrowdown" unicode="&#x2193;" horiz-adv-x="1533" 
d="M815 315l524 453l113 -133l-782 -664l-547 664l160 135l362 -453l168 1061h207z" />
    <glyph glyph-name="arrowboth" unicode="&#x2194;" horiz-adv-x="2125" 
d="M1376 1253l158 138l528 -646l-755 -643l-111 136l512 428h-1239l358 -426l-157 -138l-529 646l756 643l111 -136l-508 -424h1233z" />
    <glyph glyph-name="arrowupdn" unicode="&#x2195;" horiz-adv-x="1474" 
d="M961 1298l-216 -1214l498 430l113 -133l-758 -643l-530 643l159 135l351 -438l217 1222l-504 -434l-113 133l758 643l530 -643l-159 -135z" />
    <glyph glyph-name="uni2196" unicode="&#x2196;" horiz-adv-x="1222" 
d="M1169 1243l-34 -190l-635 6l637 -740l-174 -145l-605 764l-102 -635h-193l166 938z" />
    <glyph glyph-name="uni2197" unicode="&#x2197;" horiz-adv-x="1222" 
d="M285 1100l30 190l940 -2l-165 -938h-193l121 633l-873 -762l-120 146l895 739z" />
    <glyph glyph-name="uni2198" unicode="&#x2198;" horiz-adv-x="1222" 
d="M940 549l107 635l190 2l-168 -940h-938l35 192l633 -8l-635 737l172 148z" />
    <glyph glyph-name="uni2199" unicode="&#x2199;" horiz-adv-x="1220" 
d="M1165 1315l119 -148l-893 -737l637 8l-35 -192h-938l164 940l191 -2l-117 -635z" />
    <glyph glyph-name="partialdiff" unicode="&#x2202;" horiz-adv-x="1263" 
d="M379 1577l272 -68q310 -77 443 -280q133 -204 80 -512q-58 -335 -244 -542q-185 -206 -426 -206q-228 0 -344 144q-115 142 -74 376q39 230 192 373q151 142 361 142q135 0 223 -66.5t109 -179.5q40 264 -24 376q-66 112 -298 173l-303 82zM320 226q57 -83 215 -83
q157 0 243 83t119 266q33 180 -22.5 262t-210.5 82q-160 0 -248 -83t-121 -263q-33 -182 25 -264z" />
    <glyph glyph-name="product" unicode="&#x220f;" horiz-adv-x="1300" 
d="M221 1434h1178l-31 -174h-184l-289 -1639h-209l289 1639h-391l-289 -1639h-209l289 1639h-185z" />
    <glyph glyph-name="summation" unicode="&#x2211;" horiz-adv-x="1228" 
d="M987 -379h-1024l55 316l758 485l172 106l-135 103l-586 487l56 316h1024l-31 -174h-768l-186 2l690 -572l-58 -321l-897 -578l193 4h768z" />
    <glyph glyph-name="minus" unicode="&#x2212;" horiz-adv-x="962" 
d="M117 608h757l-26 -155h-758z" />
    <glyph glyph-name="uni2215" unicode="&#x2215;" horiz-adv-x="559" 
d="M-139 -379l680 1925h178l-680 -1925h-178z" />
    <glyph glyph-name="uni2219" unicode="&#x2219;" horiz-adv-x="671" 
d="M143 352l62 344h344l-62 -344h-344z" />
    <glyph glyph-name="radical" unicode="&#x221a;" horiz-adv-x="1216" 
d="M877 1434h561l-31 -174h-416l-618 -1639h-287l-133 1045h184l82 -666l21 -303l102 303z" />
    <glyph glyph-name="infinity" unicode="&#x221e;" horiz-adv-x="1910" 
d="M1497 930q197 0 296 -112t67 -297q-33 -185 -172 -297q-140 -113 -336 -113q-162 0 -263 89q-49 42 -84 88q-29 37 -71 107q-130 -137 -247 -210q-119 -74 -271 -74q-196 0 -297 113t-68 297q33 185 174 297q139 112 336 112q162 0 263 -89q49 -43 83 -86.5t72 -109.5
q132 140 247 211q118 74 271 74zM444 274q118 0 215 64q95 61 205 182q-71 122 -143 184q-74 62 -191 62q-123 0 -188 -58.5t-88 -187.5t22 -187.5t168 -58.5zM1569 333q66 60 88 187q22 129 -23 188q-45 58 -168 58q-118 0 -212 -63q-97 -66 -205 -183q67 -118 142 -182
q73 -64 189 -64q122 0 189 59z" />
    <glyph glyph-name="integral" unicode="&#x222b;" horiz-adv-x="882" 
d="M846 1464q88 0 147 -18l-24 -146h-138q-96 0 -142 -43t-64 -153l-205 -1161q-27 -154 -142 -248t-276 -94q-88 0 -147 18l24 145h137q97 0 143 43t64 154l205 1161q27 153 143 248q115 94 275 94z" />
    <glyph glyph-name="approxequal" unicode="&#x2248;" horiz-adv-x="1181" 
d="M268 584h-155q22 128 121 219q98 90 221 90q65 0 120 -24.5t87 -59.5q78 -84 165 -84q61 0 105 44q42 42 53 101h156q-22 -128 -121 -219q-98 -90 -221 -90q-65 0 -120 25t-86 59q-76 84 -167 84q-60 0 -104 -44q-43 -43 -54 -101zM197 174h-156q23 129 120 219t222 90
q65 0 120 -24.5t87 -58.5q79 -85 166 -85q61 0 103 43q42 44 54 103h156q-22 -128 -121 -219q-98 -90 -221 -90q-65 0 -119.5 24.5t-86.5 59.5q-79 83 -169 83q-61 0 -103 -44q-41 -43 -52 -101z" />
    <glyph glyph-name="notequal" unicode="&#x2260;" horiz-adv-x="1228" 
d="M1098 815l-29 -156h-266l-203 -258h424l-27 -155h-508l-159 -205h-168l160 205h-185l27 155h268l203 258h-426l29 156h503l158 205h168l-158 -205h189z" />
    <glyph glyph-name="lessequal" unicode="&#x2264;" horiz-adv-x="999" 
d="M852 268l-752 244l45 258l838 244l-27 -158l-739 -215l664 -215zM20 59l27 156h795l-27 -156h-795z" />
    <glyph glyph-name="greaterequal" unicode="&#x2265;" horiz-adv-x="999" 
d="M897 512l-838 -244l29 158l739 215l-663 215l26 158l752 -244zM49 215h795l-27 -156h-794z" />
    <glyph glyph-name="uni2460" unicode="&#x2460;" horiz-adv-x="1748" 
d="M1360 175q-245 -206 -582 -206q-338 0 -509 206t-111 542q59 337 303 542t582 205t507 -205q170 -206 111 -542q-57 -337 -301 -542zM407 279q132 -166 396 -166q265 0 456 166q192 166 238 438q49 271 -84 438q-133 166 -397 166t-454 -166q-190 -167 -240 -438
q-47 -272 85 -438zM877 975l-254 -191l32 183l140 104h315l-125 -706h-170l94 530l25 129z" />
    <glyph glyph-name="uni2461" unicode="&#x2461;" horiz-adv-x="1748" 
d="M1360 175q-245 -206 -582 -206q-338 0 -509 206t-111 542q59 337 303 542t582 205t507 -205q170 -206 111 -542q-57 -337 -301 -542zM407 279q132 -166 396 -166q265 0 456 166q192 166 238 438q49 271 -84 438q-133 166 -397 166t-454 -166q-190 -167 -240 -438
q-47 -272 85 -438zM1161 360h-594l41 238l326 150q68 32 93 54q24 22 30 64q18 94 -84 95q-121 0 -142 -117h-178q20 117 116 188q94 70 228 70q125 0 191 -63q65 -65 47 -167q-13 -75 -67 -124q-53 -48 -179 -105l-248 -113l-94 -38l158 4h379z" />
    <glyph glyph-name="uni2462" unicode="&#x2462;" horiz-adv-x="1748" 
d="M1360 175q-245 -206 -582 -206q-338 0 -509 206t-111 542q59 337 303 542t582 205t507 -205q170 -206 111 -542q-57 -337 -301 -542zM407 279q132 -166 396 -166q265 0 456 166q192 166 238 438q49 271 -84 438q-133 166 -397 166t-454 -166q-190 -167 -240 -438
q-47 -272 85 -438zM569 573h176q-8 -51 20 -74.5t99 -23.5q145 0 160 84q8 47 -15.5 68.5t-82.5 21.5h-142l21 125h110q114 0 127 76q18 110 -102 108q-117 0 -135 -108h-178q19 112 112 182q92 68 224 68q134 0 205 -58q71 -59 55 -153q-10 -57 -59 -97t-130 -55
q194 -23 162 -194q-16 -94 -115 -151q-100 -58 -247 -58q-136 0 -210 65q-73 64 -55 174z" />
    <glyph glyph-name="uni2463" unicode="&#x2463;" horiz-adv-x="1748" 
d="M1360 175q-245 -206 -582 -206q-338 0 -509 206t-111 542q59 337 303 542t582 205t507 -205q170 -206 111 -542q-57 -337 -301 -542zM407 279q132 -166 396 -166q265 0 456 166q192 166 238 438q49 271 -84 438q-133 166 -397 166t-454 -166q-190 -167 -240 -438
q-47 -272 85 -438zM891 508h-322l49 278l261 285h282l-76 -428h115l-24 -135h-115l-25 -143h-170zM989 1026l-352 -387l98 4h180l39 225z" />
    <glyph glyph-name="uni2464" unicode="&#x2464;" horiz-adv-x="1748" 
d="M1360 175q-245 -206 -582 -206q-338 0 -509 206t-111 542q59 337 303 542t582 205t507 -205q170 -206 111 -542q-57 -337 -301 -542zM407 279q132 -166 396 -166q265 0 456 166q192 166 238 438q49 271 -84 438q-133 166 -397 166t-454 -166q-190 -167 -240 -438
q-47 -272 85 -438zM584 571h176q-8 -51 17.5 -73.5t94.5 -22.5q121 0 142 111q10 63 -13.5 91t-89.5 28q-57 0 -92 -15.5t-67 -54.5h-150l107 432h536l-26 -141h-306l-90 2l-51 -215q86 119 225 118q106 0 160 -67q53 -68 33 -178q-19 -112 -113 -180q-95 -68 -231 -68
q-137 0 -208 65q-72 65 -54 168z" />
    <glyph glyph-name="uni2465" unicode="&#x2465;" horiz-adv-x="1748" 
d="M1360 175q-245 -206 -582 -206q-338 0 -509 206t-111 542q59 337 303 542t582 205t507 -205q170 -206 111 -542q-57 -337 -301 -542zM407 279q132 -166 396 -166q265 0 456 166q192 166 238 438q49 271 -84 438q-133 166 -397 166t-454 -166q-190 -167 -240 -438
q-47 -272 85 -438zM551 717q31 172 152 278q120 105 286 105q140 0 214 -64q75 -65 57 -170h-179q10 51 -17.5 75t-96.5 24q-102 0 -159.5 -59.5t-80.5 -188.5q-1 -10 -4 -29q33 55 104 89t158 34q121 0 185 -60q63 -62 44 -161q-19 -117 -119 -186q-100 -70 -241 -70
q-168 0 -252 102q-84 101 -51 281zM719 588q-10 -61 27.5 -89t132.5 -28q139 0 159 119q10 57 -18.5 81.5t-101.5 24.5q-94 0 -141.5 -25.5t-57.5 -82.5z" />
    <glyph glyph-name="uni2466" unicode="&#x2466;" horiz-adv-x="1748" 
d="M1360 175q-245 -206 -582 -206q-338 0 -509 206t-111 542q59 337 303 542t582 205t507 -205q170 -206 111 -542q-57 -337 -301 -542zM407 279q132 -166 396 -166q265 0 456 166q192 166 238 438q49 271 -84 438q-133 166 -397 166t-454 -166q-190 -167 -240 -438
q-47 -272 85 -438zM1030 930h-338l25 141h524l-43 -248q-128 -85 -208 -203q-82 -122 -105 -255h-172q28 161 152 312q121 150 309 255z" />
    <glyph glyph-name="uni2467" unicode="&#x2467;" horiz-adv-x="1748" 
d="M1360 175q-245 -206 -582 -206q-338 0 -509 206t-111 542q59 337 303 542t582 205t507 -205q170 -206 111 -542q-57 -337 -301 -542zM407 279q132 -166 396 -166q265 0 456 166q192 166 238 438q49 271 -84 438q-133 166 -397 166t-454 -166q-190 -167 -240 -438
q-47 -272 85 -438zM547 537q26 151 227 188q-166 37 -141 168q17 91 111 150q95 57 233 57q139 0 215 -57q76 -58 59 -150q-26 -131 -202 -168q186 -38 161 -188q-17 -92 -116 -147q-101 -56 -252 -56t-231 56t-64 147zM805 858q-10 -45 17.5 -65.5t97.5 -20.5q129 0 147 86
q8 53 -18.5 76.5t-96.5 23.5q-131 0 -147 -100zM729 575q-8 -51 25 -75.5t114 -24.5q154 0 172 100q8 51 -24.5 73t-114.5 22q-156 -1 -172 -95z" />
    <glyph glyph-name="uni2468" unicode="&#x2468;" horiz-adv-x="1748" 
d="M1360 175q-245 -206 -582 -206q-338 0 -509 206t-111 542q59 337 303 542t582 205t507 -205q170 -206 111 -542q-57 -337 -301 -542zM407 279q132 -166 396 -166q265 0 456 166q192 166 238 438q49 271 -84 438q-133 166 -397 166t-454 -166q-190 -167 -240 -438
q-47 -272 85 -438zM610 846q22 113 121 185q97 69 240 69q168 0 252 -101q84 -102 51 -284q-29 -170 -147 -275q-118 -106 -283 -106q-142 0 -219 66q-76 64 -58 171h178q-10 -53 20 -77.5t103 -24.5q96 0 151.5 58.5t78.5 187.5l6 28q-36 -56 -103.5 -89t-150.5 -33
q-125 0 -190 62q-66 62 -50 163zM786 846q-8 -57 21 -83t102 -26q181 0 197 109q12 61 -26 89t-132 28q-140 0 -162 -117z" />
    <glyph glyph-name="uni24EA" unicode="&#x24ea;" horiz-adv-x="1748" 
d="M1360 175q-245 -206 -582 -206q-338 0 -509 206t-111 542q59 337 303 542t582 205t507 -205q170 -206 111 -542q-57 -337 -301 -542zM407 279q132 -166 396 -166q265 0 456 166q192 166 238 438q49 271 -84 438q-133 166 -397 166t-454 -166q-190 -167 -240 -438
q-47 -272 85 -438zM1116 440q-116 -106 -274 -106t-236 106q-78 104 -49 277q31 171 147 278q116 105 273 105t237 -105q78 -106 48 -278q-28 -171 -146 -277zM746 542q31 -55 125 -55q92 0 143 55q51 54 72 175q19 121 -12 175q-32 54 -124 54t-144 -54q-53 -54 -72 -175
q-21 -121 12 -175z" />
    <glyph glyph-name="uni24FF" unicode="&#x24ff;" horiz-adv-x="1748" 
d="M1358 176q-244 -207 -582 -207t-508 207q-170 208 -110 543q57 335 301 540q242 205 581 205q338 0 509 -204q171 -205 112 -541t-303 -543zM604 440q78 -106 236 -106t274 106q118 106 146 277q31 172 -48 278q-80 105 -237 105t-273 -105q-116 -107 -147 -278
q-29 -173 49 -277zM1012 542q-51 -55 -143 -55q-94 0 -125 55q-33 54 -12 175q19 121 72 175q52 54 144 54t124 -54q31 -54 12 -175q-21 -121 -72 -175z" />
    <glyph glyph-name="lozenge" unicode="&#x25ca;" horiz-adv-x="1134" 
d="M578 1434h299l190 -717l-442 -717h-299l-189 717zM319 717l168 -643l398 643l-170 643z" />
    <glyph glyph-name="uni2766" unicode="&#x2766;" horiz-adv-x="833" 
d="M41 395h-33l49 275h33q-3 -19 -1.5 -24t13.5 -5q20 0 25 29h432l-49 -275h-432q5 29 -14 29q-18 0 -23 -29zM557 410l45 249q56 0 133 -47q76 -46 70 -77t-98 -78q-94 -47 -150 -47zM481 434l8 37h-372l-8 -37h372z" />
    <glyph glyph-name="uni2776" unicode="&#x2776;" horiz-adv-x="1748" 
d="M1358 176q-244 -207 -582 -207t-508 207q-170 208 -110 543q57 335 301 540q242 205 581 205q338 0 509 -204q171 -205 112 -541t-303 -543zM653 967l-32 -183l253 191l58 49l-25 -129l-94 -530h170l125 706h-315z" />
    <glyph glyph-name="uni2777" unicode="&#x2777;" horiz-adv-x="1748" 
d="M1360 175q-245 -206 -582 -206q-338 0 -509 206t-111 542q59 337 303 542t582 205t507 -205q170 -206 111 -542q-57 -337 -301 -542zM608 598l-41 -238h594l23 136h-379l-158 -4l94 38l248 113q127 58 179 106q54 49 67 123q18 101 -47 166q-65 64 -191 64
q-134 0 -228 -70q-95 -71 -116 -188h178q19 117 142 117q102 0 84 -95q-6 -42 -31 -64q-26 -25 -92 -54z" />
    <glyph glyph-name="uni2778" unicode="&#x2778;" horiz-adv-x="1748" 
d="M1360 175q-245 -206 -582 -206q-338 0 -509 206t-111 542q59 337 303 542t582 205t507 -205q170 -206 111 -542q-57 -337 -301 -542zM745 573h-176q-18 -110 55 -174q73 -65 210 -65q147 0 247 58q99 57 115 151q31 172 -162 194q81 14 129.5 53.5t59.5 98.5
q16 94 -55 153q-71 58 -205 58q-131 0 -223 -68q-93 -69 -113 -182h178q18 110 135 108q122 0 102 -108q-13 -76 -127 -76h-110l-21 -125h142q59 0 82.5 -21.5t15.5 -68.5q-14 -84 -160 -84q-72 0 -99.5 23.5t-19.5 74.5z" />
    <glyph glyph-name="uni2779" unicode="&#x2779;" horiz-adv-x="1748" 
d="M1360 175q-245 -206 -582 -206q-338 0 -509 206t-111 542q59 337 303 542t582 205t507 -205q170 -206 111 -542q-57 -337 -301 -542zM618 786l-49 -278h322l-25 -143h170l25 143h115l24 135h-115l76 428h-282zM735 643l-98 -4l352 387l-35 -158l-39 -225h-180z" />
    <glyph glyph-name="uni277A" unicode="&#x277a;" horiz-adv-x="1748" 
d="M1360 175q-245 -206 -582 -206q-338 0 -509 206t-111 542q59 337 303 542t582 205t507 -205q170 -206 111 -542q-57 -337 -301 -542zM760 571h-176q-18 -103 54 -168q71 -65 208 -65q136 0 230 68q93 68 114 180q19 111 -33 178t-160 67q-140 0 -225 -118l51 215l90 -2
h306l26 141h-536l-107 -432h150q33 39 67.5 54.5t91.5 15.5q66 0 89.5 -28t13.5 -91q-20 -111 -142 -111q-69 0 -94.5 22.5t-17.5 73.5z" />
    <glyph glyph-name="uni277B" unicode="&#x277b;" horiz-adv-x="1748" 
d="M1358 176q-244 -207 -582 -207t-508 207q-170 208 -110 543q57 335 301 540q242 205 581 205q338 0 509 -204q171 -205 112 -541t-303 -543zM549 717q-33 -180 51 -281q84 -102 252 -102q141 0 241 70q100 69 119 186q18 100 -45 161q-63 60 -184 60q-87 0 -158 -34
t-104 -89l4 29q23 129 80.5 188.5t159.5 59.5q70 0 97.5 -23.5t16.5 -75.5h178q18 104 -56 169q-76 65 -214 65q-166 0 -286 -105q-121 -106 -152 -278zM717 588q10 57 57 82.5t141 25.5q75 0 103.5 -24.5t17.5 -81.5q-20 -119 -159 -119q-94 0 -132 28t-28 89z" />
    <glyph glyph-name="uni277C" unicode="&#x277c;" horiz-adv-x="1748" 
d="M1358 176q-244 -207 -582 -207t-508 207q-170 208 -110 543q57 335 301 540q242 205 581 205q338 0 509 -204q171 -205 112 -541t-303 -543zM715 1071l-25 -141h338l143 2q-186 -104 -309 -255q-122 -151 -151 -312h172q22 132 106 255q81 120 207 203l43 248h-524z" />
    <glyph glyph-name="uni277D" unicode="&#x277d;" horiz-adv-x="1748" 
d="M1360 175q-245 -206 -582 -206q-338 0 -509 206t-111 542q59 337 303 542t582 205t507 -205q170 -206 111 -542q-57 -337 -301 -542zM547 537q-16 -91 64 -147t231 -56q152 0 252 55q99 55 116 148q26 152 -161 188q178 37 202 168q16 91 -59 150q-77 57 -215 57
q-139 0 -233 -57q-94 -59 -111 -150q-25 -131 141 -168q-201 -37 -227 -188zM805 858q16 100 147 100q70 0 96.5 -23.5t18.5 -76.5q-18 -86 -147 -86q-70 0 -97.5 20.5t-17.5 65.5zM729 575q16 94 172 95q83 0 115.5 -22t23.5 -73q-18 -100 -172 -100q-81 0 -114 24.5
t-25 75.5z" />
    <glyph glyph-name="uni277E" unicode="&#x277e;" horiz-adv-x="1748" 
d="M1360 175q-245 -206 -582 -206q-338 0 -509 206t-111 542q59 337 303 542t582 205t507 -205q170 -206 111 -542q-57 -337 -301 -542zM610 846q-16 -101 50 -163q65 -62 190 -62q83 0 150.5 33t103.5 89l-6 -28q-23 -129 -78 -187.5t-152 -58.5q-74 0 -103.5 24.5
t-19.5 77.5h-178q-18 -107 58 -171q75 -66 219 -66q165 0 283 106q118 105 147 275q33 182 -51 284q-84 101 -252 101q-141 0 -239 -69q-100 -71 -122 -185zM786 846q22 117 162 117q94 0 132 -28t26 -89q-16 -109 -197 -109q-74 0 -102.5 26t-20.5 83z" />
    <glyph glyph-name="uniF8FF" unicode="&#xf8ff;" horiz-adv-x="1204" 
d="M1116 1180l27 -230l-8 -6q-62 98 -139 122q-80 25 -343 26q-13 -207 -14 -295q87 1 148 44q59 43 110 144h6l-22 -145q-90 -75 -242 -80v-66q0 -119 4 -291q133 0 199 3q0 172 -15 284q-36 11 -88 19v6q143 27 246 71l2 -6q-41 -45 -54 -118q-13 -71 -13 -279
q0 -221 12 -340l78 -37v-6h-332v6l151 53q11 97 13 295q-88 2 -197 2q2 -34 2 -72q0 -41 2 -71l-108 -66l-4 7q7 56 20 202q-109 0 -197 -2q0 -198 13 -295l153 -53v-6h-333v6l77 37q11 113 13 340q0 207 -12 280q-14 73 -56 117l2 6q92 -42 246 -71v-6q-46 -7 -88 -19
q-13 -112 -15 -284q133 0 199 -3q6 125 6 291v70q-132 18 -215 103q-85 86 -92 210q-75 -12 -109 -39q-36 -28 -79 -94l-9 6q17 137 23 189l8 41q52 -33 168 -39q13 138 116 226q101 87 253 87q113 0 223 -65l31 57l12 -8q-20 -101 -21 -221h-4q-56 203 -241 204
q-114 2 -190 -77q-77 -80 -87 -207q82 -2 248 -2q286 0 374 9t138 36h4zM350 1087q4 -108 63 -185q59 -76 150 -99q-2 144 -12 289q-132 -2 -201 -5z" />
    <glyph glyph-name="I.ss02" horiz-adv-x="1028" 
d="M1075 1434l-31 -174h-296l-222 -1260h-506l31 174h297l221 1260h506zM539 1260h-297l30 174h297zM557 174h297l-31 -174h-297z" />
    <glyph glyph-name="Iacute.ss02" horiz-adv-x="1028" 
d="M831 1935h234l-287 -327h-157zM1075 1434l-31 -174h-296l-222 -1260h-506l31 174h297l221 1260h506zM539 1260h-297l30 174h297zM557 174h297l-31 -174h-297z" />
    <glyph glyph-name="Ibreve.ss02" horiz-adv-x="1028" 
d="M936 1693q-97 -91 -233 -91t-202 92q-67 91 -40 241h164q-18 -105 5 -152.5t95 -47.5t114 48t60 152h164q-28 -151 -127 -242zM1075 1434l-31 -174h-296l-222 -1260h-506l31 174h297l221 1260h506zM539 1260h-297l30 174h297zM557 174h297l-31 -174h-297z" />
    <glyph glyph-name="Icircumflex.ss02" horiz-adv-x="1028" 
d="M846 1608l-90 260l-185 -260h-186l250 327h262l135 -327h-186zM1075 1434l-31 -174h-296l-222 -1260h-506l31 174h297l221 1260h506zM539 1260h-297l30 174h297zM557 174h297l-31 -174h-297z" />
    <glyph glyph-name="Idieresis.ss02" horiz-adv-x="1028" 
d="M471 1894h219l-41 -229h-219zM819 1894h219l-41 -229h-219zM1075 1434l-31 -174h-296l-222 -1260h-506l31 174h297l221 1260h506zM539 1260h-297l30 174h297zM557 174h297l-31 -174h-297z" />
    <glyph glyph-name="Idotaccent.ss02" horiz-adv-x="1028" 
d="M645 1894h219l-41 -229h-219zM1075 1434l-31 -174h-296l-222 -1260h-506l31 174h297l221 1260h506zM539 1260h-297l30 174h297zM557 174h297l-31 -174h-297z" />
    <glyph glyph-name="uni1ECA.ss02" horiz-adv-x="1028" 
d="M1075 1434l-31 -174h-296l-222 -1260h-506l31 174h297l221 1260h506zM539 1260h-297l30 174h297zM557 174h297l-31 -174h-297zM461 -399h-219l39 219h219z" />
    <glyph glyph-name="Igrave.ss02" horiz-adv-x="1028" 
d="M686 1935l96 -327h-157l-172 327h233zM1075 1434l-31 -174h-296l-222 -1260h-506l31 174h297l221 1260h506zM539 1260h-297l30 174h297zM557 174h297l-31 -174h-297z" />
    <glyph glyph-name="Imacron.ss02" horiz-adv-x="1028" 
d="M459 1864h581l-28 -160h-582zM1075 1434l-31 -174h-296l-222 -1260h-506l31 174h297l221 1260h506zM539 1260h-297l30 174h297zM557 174h297l-31 -174h-297z" />
    <glyph glyph-name="Iogonek.ss02" horiz-adv-x="1028" 
d="M1075 1434l-31 -174h-296l-222 -1260l-190 -184q-50 -46 -55 -84q-4 -25 12 -37t51 -12h135l-22 -123h-201q-78 0 -119 37.5t-31 101.5q17 81 99 145l190 156h-375l31 174h297l221 1260h506zM539 1260h-297l30 174h297zM557 174h297l-31 -174h-297z" />
    <glyph glyph-name="Itilde.ss02" horiz-adv-x="1028" 
d="M571 1745q-92 0 -110 -96h-123q22 119 94 190q70 70 170 70q69 0 155 -50q85 -51 138 -51q94 0 109 97h122q-19 -118 -89 -189q-71 -71 -171 -71q-70 0 -156 50t-139 50zM348 174l221 1260h506l-31 -174h-296l-222 -1260h-506l31 174h297zM539 1260h-297l30 174h297z
M557 174h297l-31 -174h-297z" />
    <glyph glyph-name="Z.ss03" horiz-adv-x="1259" 
d="M1096 0h-1106l59 338l1157 928l-270 -6h-719l31 174h1093l-59 -338l-1155 -928l268 6h731z" />
    <glyph glyph-name="Zacute.ss03" horiz-adv-x="1259" 
d="M741 1608l211 327h234l-287 -327h-158zM1096 0h-1106l59 338l1157 928l-270 -6h-719l31 174h1093l-59 -338l-1155 -928l268 6h731z" />
    <glyph glyph-name="Zcaron.ss03" horiz-adv-x="1259" 
d="M952 1608h-262l-135 327h186l90 -260l185 260h186zM248 1434h1093l-59 -338l-1155 -928l268 6h731l-30 -174h-1106l59 338l1157 928l-270 -6h-719z" />
    <glyph glyph-name="Zdotaccent.ss03" horiz-adv-x="1259" 
d="M725 1665l41 229h219l-41 -229h-219zM1096 0h-1106l59 338l1157 928l-270 -6h-719l31 174h1093l-59 -338l-1155 -928l268 6h731z" />
    <glyph glyph-name="a.salt" horiz-adv-x="1357" 
d="M1036 864l33 180h193l-185 -1044h-192l33 193q-154 -222 -412 -224q-219 0 -323 152q-105 151 -60 401q44 252 200 402q155 151 377 151q124 0 212 -53t124 -158zM582 129q163 0 254 86q90 85 129 277l10 61q29 189 -32.5 275.5t-223.5 86.5q-169 0 -260 -93
q-93 -94 -127 -300q-37 -207 22.5 -300t227.5 -93z" />
    <glyph glyph-name="aacute.salt" horiz-adv-x="1357" 
d="M918 1546h233l-287 -327h-157zM1036 864l33 180h193l-185 -1044h-192l33 193q-154 -222 -412 -224q-219 0 -323 152q-105 151 -60 401q44 252 200 402q155 151 377 151q124 0 212 -53t124 -158zM582 129q163 0 254 86q90 85 129 277l10 61q29 189 -32.5 275.5
t-223.5 86.5q-169 0 -260 -93q-93 -94 -127 -300q-37 -207 22.5 -300t227.5 -93z" />
    <glyph glyph-name="abreve.salt" horiz-adv-x="1357" 
d="M1022 1303q-97 -91 -233 -91t-202 93q-67 91 -40 241h164q-18 -105 5 -152.5t95 -47.5t114 48t60 152h164q-28 -150 -127 -243zM1036 864l33 180h193l-185 -1044h-192l33 193q-154 -222 -412 -224q-219 0 -323 152q-105 151 -60 401q44 252 200 402q155 151 377 151
q124 0 212 -53t124 -158zM582 129q163 0 254 86q90 85 129 277l10 61q29 189 -32.5 275.5t-223.5 86.5q-169 0 -260 -93q-93 -94 -127 -300q-37 -207 22.5 -300t227.5 -93z" />
    <glyph glyph-name="acircumflex.salt" horiz-adv-x="1357" 
d="M932 1219l-90 260l-185 -260h-186l250 327h262l135 -327h-186zM1036 864l33 180h193l-185 -1044h-192l33 193q-154 -222 -412 -224q-219 0 -323 152q-105 151 -60 401q44 252 200 402q155 151 377 151q124 0 212 -53t124 -158zM582 129q163 0 254 86q90 85 129 277l10 61
q29 189 -32.5 275.5t-223.5 86.5q-169 0 -260 -93q-93 -94 -127 -300q-37 -207 22.5 -300t227.5 -93z" />
    <glyph glyph-name="adieresis.salt" horiz-adv-x="1357" 
d="M557 1505h219l-41 -229h-219zM905 1505h219l-41 -229h-219zM1036 864l33 180h193l-185 -1044h-192l33 193q-154 -222 -412 -224q-219 0 -323 152q-105 151 -60 401q44 252 200 402q155 151 377 151q124 0 212 -53t124 -158zM582 129q163 0 254 86q90 85 129 277l10 61
q29 189 -32.5 275.5t-223.5 86.5q-169 0 -260 -93q-93 -94 -127 -300q-37 -207 22.5 -300t227.5 -93z" />
    <glyph glyph-name="uni1EA1.salt" horiz-adv-x="1357" 
d="M1036 864l33 180h193l-185 -1044h-192l33 193q-154 -222 -412 -224q-219 0 -323 152q-105 151 -60 401q44 252 200 402q155 151 377 151q124 0 212 -53t124 -158zM582 129q163 0 254 86q90 85 129 277l10 61q29 189 -32.5 275.5t-223.5 86.5q-169 0 -260 -93
q-93 -94 -127 -300q-37 -207 22.5 -300t227.5 -93zM651 -399h-219l39 219h219z" />
    <glyph glyph-name="agrave.salt" horiz-adv-x="1357" 
d="M772 1546l96 -327h-157l-172 327h233zM1036 864l33 180h193l-185 -1044h-192l33 193q-154 -222 -412 -224q-219 0 -323 152q-105 151 -60 401q44 252 200 402q155 151 377 151q124 0 212 -53t124 -158zM582 129q163 0 254 86q90 85 129 277l10 61q29 189 -32.5 275.5
t-223.5 86.5q-169 0 -260 -93q-93 -94 -127 -300q-37 -207 22.5 -300t227.5 -93z" />
    <glyph glyph-name="amacron.salt" horiz-adv-x="1357" 
d="M545 1475h581l-28 -160h-582zM1036 864l33 180h193l-185 -1044h-192l33 193q-154 -222 -412 -224q-219 0 -323 152q-105 151 -60 401q44 252 200 402q155 151 377 151q124 0 212 -53t124 -158zM582 129q163 0 254 86q90 85 129 277l10 61q29 189 -32.5 275.5t-223.5 86.5
q-169 0 -260 -93q-93 -94 -127 -300q-37 -207 22.5 -300t227.5 -93z" />
    <glyph glyph-name="aogonek.salt" horiz-adv-x="1357" 
d="M1077 0l-190 -184q-52 -47 -56 -84q-4 -25 12.5 -37t51.5 -12h135l-22 -123h-201q-78 0 -119 37.5t-31 101.5q17 81 99 145l190 156h-61l33 193q-154 -222 -412 -224q-219 0 -323 152q-105 151 -60 401q44 252 200 402q155 151 377 151q124 0 212 -53t124 -158l33 180
h193zM582 129q163 0 254 86q90 85 129 277l10 61q29 189 -32.5 275.5t-223.5 86.5q-169 0 -260 -93q-93 -94 -127 -300q-37 -207 22.5 -300t227.5 -93z" />
    <glyph glyph-name="aring.salt" horiz-adv-x="1357" 
d="M936 1259q-62 -47 -148 -47t-131 48q-45 47 -30 122q12 76 74 123t147 47q86 0 131 -47t33 -123q-13 -76 -76 -123zM729 1382q-8 -42 10 -60.5t66 -18.5q91 0 104 79q8 43 -9.5 61.5t-65.5 18.5q-91 0 -105 -80zM1036 864l33 180h193l-185 -1044h-192l33 193
q-154 -222 -412 -224q-219 0 -323 152q-105 151 -60 401q44 252 200 402q155 151 377 151q124 0 212 -53t124 -158zM582 129q163 0 254 86q90 85 129 277l10 61q29 189 -32.5 275.5t-223.5 86.5q-169 0 -260 -93q-93 -94 -127 -300q-37 -207 22.5 -300t227.5 -93z" />
    <glyph glyph-name="aringacute.salt" horiz-adv-x="1357" 
d="M936 1259q-62 -47 -148 -47t-130 47t-31 123q12 76 74 123t147 47q21 0 35 -2l118 181h166l-194 -220q53 -47 39 -129q-13 -76 -76 -123zM729 1382q-8 -42 10 -60.5t66 -18.5q91 0 104 79q8 43 -9.5 61.5t-65.5 18.5q-91 0 -105 -80zM1036 864l33 180h193l-185 -1044
h-192l33 193q-154 -222 -412 -224q-219 0 -323 152q-105 151 -60 401q44 252 200 402q155 151 377 151q124 0 212 -53t124 -158zM582 129q163 0 254 86q90 85 129 277l10 61q29 189 -32.5 275.5t-223.5 86.5q-169 0 -260 -93q-93 -94 -127 -300q-37 -207 22.5 -300
t227.5 -93z" />
    <glyph glyph-name="atilde.salt" horiz-adv-x="1357" 
d="M657 1356q-92 0 -110 -96h-123q22 118 94 190q70 70 170 70q69 0 155 -50q85 -51 138 -51q94 0 109 97h122q-20 -119 -89 -190q-71 -71 -171 -71q-70 0 -156 51q-86 50 -139 50zM1036 864l33 180h193l-185 -1044h-192l33 193q-154 -222 -412 -224q-219 0 -323 152
q-105 151 -60 401q44 252 200 402q155 151 377 151q124 0 212 -53t124 -158zM582 129q163 0 254 86q90 85 129 277l10 61q29 189 -32.5 275.5t-223.5 86.5q-169 0 -260 -93q-93 -94 -127 -300q-37 -207 22.5 -300t227.5 -93z" />
    <glyph glyph-name="g.salt" horiz-adv-x="1353" 
d="M1034 874l29 170h194l-174 -987q-34 -205 -195 -331q-161 -125 -386 -125q-233 0 -357 109q-125 110 -94 290h205q-23 -129 41.5 -187.5t230.5 -58.5q160 0 248 90t123 291l19 103q-141 -188 -390 -189q-222 0 -331 142q-111 140 -70 372q39 228 200 371q161 141 382 141
q256 0 325 -201zM602 209q157 0 244.5 76t122.5 243l10 62q25 170 -35.5 247.5t-216.5 77.5q-174 0 -266 -83q-92 -85 -125 -271q-33 -184 30.5 -268t235.5 -84z" />
    <glyph glyph-name="gbreve.salt" horiz-adv-x="1353" 
d="M1006 1303q-98 -91 -234 -91q-135 0 -201 93q-67 91 -41 241h164q-18 -105 5.5 -152.5t95.5 -47.5q71 0 113 48t61 152h164q-28 -150 -127 -243zM1034 874l29 170h194l-174 -987q-34 -205 -195 -331q-161 -125 -386 -125q-233 0 -357 109q-125 110 -94 290h205
q-23 -129 41.5 -187.5t230.5 -58.5q160 0 248 90t123 291l19 103q-141 -188 -390 -189q-222 0 -331 142q-111 140 -70 372q39 228 200 371q161 141 382 141q256 0 325 -201zM602 209q157 0 244.5 76t122.5 243l10 62q25 170 -35.5 247.5t-216.5 77.5q-174 0 -266 -83
q-92 -85 -125 -271q-33 -184 30.5 -268t235.5 -84z" />
    <glyph glyph-name="gcaron.salt" horiz-adv-x="1353" 
d="M901 1219h-262l-135 327h186l90 -260l185 260h186zM1034 874l29 170h194l-174 -987q-34 -205 -195 -331q-161 -125 -386 -125q-233 0 -357 109q-125 110 -94 290h205q-23 -129 41.5 -187.5t230.5 -58.5q160 0 248 90t123 291l19 103q-141 -188 -390 -189q-222 0 -331 142
q-111 140 -70 372q39 228 200 371q161 141 382 141q256 0 325 -201zM602 209q157 0 244.5 76t122.5 243l10 62q25 170 -35.5 247.5t-216.5 77.5q-174 0 -266 -83q-92 -85 -125 -271q-33 -184 30.5 -268t235.5 -84z" />
    <glyph glyph-name="gcircumflex.salt" horiz-adv-x="1353" 
d="M915 1219l-90 260l-184 -260h-186l250 327h262l135 -327h-187zM1034 874l29 170h194l-174 -987q-34 -205 -195 -331q-161 -125 -386 -125q-233 0 -357 109q-125 110 -94 290h205q-23 -129 41.5 -187.5t230.5 -58.5q160 0 248 90t123 291l19 103q-141 -188 -390 -189
q-222 0 -331 142q-111 140 -70 372q39 228 200 371q161 141 382 141q256 0 325 -201zM602 209q157 0 244.5 76t122.5 243l10 62q25 170 -35.5 247.5t-216.5 77.5q-174 0 -266 -83q-92 -85 -125 -271q-33 -184 30.5 -268t235.5 -84z" />
    <glyph glyph-name="uni0123.salt" horiz-adv-x="1353" 
d="M788 1405l101 -55l-23 -131h-221l29 163q20 108 97 166t198 58l-15 -90q-145 0 -166 -111zM1034 874l29 170h194l-174 -987q-34 -205 -195 -331q-161 -125 -386 -125q-233 0 -357 109q-125 110 -94 290h205q-23 -129 41.5 -187.5t230.5 -58.5q160 0 248 90t123 291
l19 103q-141 -188 -390 -189q-222 0 -331 142q-111 140 -70 372q39 228 200 371q161 141 382 141q256 0 325 -201zM602 209q157 0 244.5 76t122.5 243l10 62q25 170 -35.5 247.5t-216.5 77.5q-174 0 -266 -83q-92 -85 -125 -271q-33 -184 30.5 -268t235.5 -84z" />
    <glyph glyph-name="gdotaccent.salt" horiz-adv-x="1353" 
d="M715 1505h219l-41 -229h-219zM1034 874l29 170h194l-174 -987q-34 -205 -195 -331q-161 -125 -386 -125q-233 0 -357 109q-125 110 -94 290h205q-23 -129 41.5 -187.5t230.5 -58.5q160 0 248 90t123 291l19 103q-141 -188 -390 -189q-222 0 -331 142q-111 140 -70 372
q39 228 200 371q161 141 382 141q256 0 325 -201zM602 209q157 0 244.5 76t122.5 243l10 62q25 170 -35.5 247.5t-216.5 77.5q-174 0 -266 -83q-92 -85 -125 -271q-33 -184 30.5 -268t235.5 -84z" />
    <glyph glyph-name="l.salt" horiz-adv-x="575" 
d="M96 0l273 1546h198l-272 -1546h-199z" />
    <glyph glyph-name="lacute.salt" horiz-adv-x="575" 
d="M401 1636l211 328h234l-287 -328h-158zM96 0l273 1546h198l-272 -1546h-199z" />
    <glyph glyph-name="lcaron.salt" horiz-adv-x="575" 
d="M96 0l273 1546h198l-272 -1546h-199zM723 1415l22 131h222l-29 -164q-20 -113 -97.5 -173t-199.5 -60l16 90q145 0 166 121z" />
    <glyph glyph-name="uni013C.salt" horiz-adv-x="575" 
d="M96 0l273 1546h198l-272 -1546h-199zM25 -311l22 131h221l-28 -164q-20 -112 -98 -173t-199 -61l16 91q145 0 166 120z" />
    <glyph glyph-name="ldot.salt" horiz-adv-x="702" 
d="M96 0l273 1546h198l-272 -1546h-199zM508 653l39 221h221l-39 -221h-221z" />
    <glyph glyph-name="lslash.salt" horiz-adv-x="575" 
d="M446 862l205 144l-30 -183l-207 -143l-119 -680h-199l101 571l-166 -114l32 182l166 115l140 792h198z" />
    <glyph glyph-name="y.salt" horiz-adv-x="1114" 
d="M569 276l412 768h197l-768 -1423h-197l205 379h-115l-194 1044h204l138 -768l26 -186z" />
    <glyph glyph-name="yacute.salt" horiz-adv-x="1114" 
d="M784 1546h234l-287 -327h-158zM569 276l412 768h197l-768 -1423h-197l205 379h-115l-194 1044h204l138 -768l26 -186z" />
    <glyph glyph-name="ycircumflex.salt" horiz-adv-x="1114" 
d="M799 1219l-90 260l-185 -260h-186l250 327h262l135 -327h-186zM569 276l412 768h197l-768 -1423h-197l205 379h-115l-194 1044h204l138 -768l26 -186z" />
    <glyph glyph-name="ydieresis.salt" horiz-adv-x="1114" 
d="M424 1505h219l-41 -229h-219zM772 1505h219l-41 -229h-219zM569 276l412 768h197l-768 -1423h-197l205 379h-115l-194 1044h204l138 -768l26 -186z" />
    <glyph glyph-name="ygrave.salt" horiz-adv-x="1114" 
d="M639 1546l96 -327h-157l-172 327h233zM569 276l412 768h197l-768 -1423h-197l205 379h-115l-194 1044h204l138 -768l26 -186z" />
    <glyph glyph-name="uni0233.salt" horiz-adv-x="1114" 
d="M412 1475h581l-28 -160h-582zM569 276l412 768h197l-768 -1423h-197l205 379h-115l-194 1044h204l138 -768l26 -186z" />
    <glyph glyph-name="uni1EF9.salt" horiz-adv-x="1114" 
d="M524 1356q-92 0 -110 -96h-123q23 118 94 190q70 70 170 70q69 0 155 -50q86 -51 138 -51q95 0 108 97h123q-20 -119 -89 -190q-71 -71 -171 -71q-71 0 -156 51q-86 50 -139 50zM569 276l412 768h197l-768 -1423h-197l205 379h-115l-194 1044h204l138 -768l26 -186z" />
    <glyph glyph-name="z.ss03" horiz-adv-x="1026" 
d="M852 0h-852l51 289l850 596l-213 -8h-524l31 167h831l-53 -296l-838 -588l201 8h545z" />
    <glyph glyph-name="zacute.ss03" horiz-adv-x="1026" 
d="M553 1219l211 327h233l-286 -327h-158zM852 0h-852l51 289l850 596l-213 -8h-524l31 167h831l-53 -296l-838 -588l201 8h545z" />
    <glyph glyph-name="zcaron.ss03" horiz-adv-x="1026" 
d="M764 1219h-262l-135 327h186l90 -260l184 260h187zM195 1044h831l-53 -296l-838 -588l201 8h545l-29 -168h-852l51 289l850 596l-213 -8h-524z" />
    <glyph glyph-name="zdotaccent.ss03" horiz-adv-x="1026" 
d="M537 1276l41 229h219l-41 -229h-219zM852 0h-852l51 289l850 596l-213 -8h-524l31 167h831l-53 -296l-838 -588l201 8h545z" />
    <glyph glyph-name="f_f_j.dlig" horiz-adv-x="2119" 
d="M1294 1044h717l-192 -1091q-28 -157 -134 -255q-106 -97 -251 -97q-90 0 -158 20l24 143h136q86 0 127 45q42 48 61 162l160 914h-518l-156 -885h-199l158 885h-563l-158 -885h-198l155 885h-209l27 159h211l24 140q27 153 143 248q115 94 275 94q152 0 250 -19l-25 -145
h-239q-96 0 -142 -43q-47 -44 -65 -154l-20 -121h561l32 181q27 154 142 248q113 94 274 94q125 0 211 -19l-26 -145h-199q-97 0 -141 -43q-47 -44 -66 -154zM1843 1276l49 270h219l-49 -270h-219z" />
    <glyph glyph-name="f_iacute.dlig" horiz-adv-x="1337" 
d="M532 1044h717l-184 -1044h-199l156 885h-518l-156 -885h-198l155 885h-211l29 159h211l31 181q27 153 143 248q115 94 274 94q129 0 209 -19l-24 -145h-199q-97 0 -141 -43q-45 -44 -66 -154zM1098 1219l211 327h233l-287 -327h-157z" />
    <glyph glyph-name="f_j.dlig" horiz-adv-x="1357" 
d="M532 1044h717l-192 -1091q-28 -157 -134 -255q-106 -97 -251 -97q-90 0 -158 20l25 143h135q86 0 127 45q42 48 61 162l160 914h-518l-156 -885h-198l157 885h-211l27 159h211l33 181q27 154 142 248q113 94 273 94q125 0 211 -19l-26 -145h-199q-97 0 -141 -43
q-45 -44 -66 -154zM1081 1276l49 270h220l-50 -270h-219z" />
    <glyph glyph-name="f_t.dlig" horiz-adv-x="1603" 
d="M1630 885h-407l-97 -545q-20 -113 12 -155t132 -42h233l-24 -143q-146 -20 -258 -20q-160 0 -243 89t-56 232l102 584h-522l-156 -885h-199l156 885h-209l29 159h209l30 181q27 153 143 248q115 94 275 94q139 0 230 -19l-25 -145h-219q-96 0 -142 -43q-45 -42 -65 -154
l-29 -162h525l63 310h187l-56 -310h410z" />
    <glyph glyph-name="t_t.dlig" horiz-adv-x="1644" 
d="M1671 885h-407l-97 -545q-20 -113 12 -155q31 -42 132 -42h233l-24 -143q-146 -20 -258 -20q-160 0 -243 89t-56 232l102 584h-569l-97 -545q-20 -113 12 -155q31 -42 132 -42h233l-24 -143q-146 -20 -258 -20q-160 0 -243 89t-56 232l102 584h-213l29 159h215l57 269
h186l-47 -269h572l63 310h187l-56 -310h410z" />
    <glyph glyph-name="f_f_l.liga.salt" horiz-adv-x="2111" 
d="M1669 1044l-29 -159h-374l-156 -885h-199l156 885h-563l-156 -885h-198l155 885h-211l29 159h211l45 252q22 129 98 180q74 50 242 50q153 0 287 -21l-27 -143h-246q-95 0 -124 -23q-30 -25 -46 -116l-31 -179h564l51 293q23 129 99 180q76 50 243 50q157 0 285 -21
l-25 -143h-246q-95 0 -124 -24q-30 -27 -46 -115l-39 -220h375zM1632 0l273 1546h198l-272 -1546h-199z" />
    <glyph glyph-name="uniFB02.aalt" horiz-adv-x="1349" 
d="M907 1044l-28 -159h-375l-156 -885h-198l155 885h-211l29 159h211l31 181q27 153 143 248q115 94 274 94q139 0 230 -19l-25 -145h-219q-97 0 -141 -43q-45 -44 -66 -154l-29 -162h375zM870 0l273 1546h198l-272 -1546h-199z" />
    <glyph glyph-name="A.c2sc" horiz-adv-x="1226" 
d="M1102 0h-195l-59 285h-535l-159 -285h-203l596 1075h340zM602 799l-194 -346h407l-72 346l-34 202z" />
    <glyph glyph-name="Aacute.aalt" horiz-adv-x="1226" 
d="M879 1546h233l-287 -327h-157zM547 1075h340l215 -1075h-195l-59 285h-535l-159 -285h-203zM602 799l-194 -346h407l-72 346l-34 202z" />
    <glyph glyph-name="Abreve.aalt" horiz-adv-x="1226" 
d="M983 1303q-97 -91 -233 -91t-202 93q-67 91 -40 241h164q-18 -105 5 -152.5t95 -47.5t114 48t60 152h164q-28 -150 -127 -243zM547 1075h340l215 -1075h-195l-59 285h-535l-159 -285h-203zM602 799l-194 -346h407l-72 346l-34 202z" />
    <glyph glyph-name="Acircumflex.aalt" horiz-adv-x="1226" 
d="M893 1219l-90 260l-185 -260h-186l250 327h262l135 -327h-186zM1102 0h-195l-59 285h-535l-159 -285h-203l596 1075h340zM602 799l-194 -346h407l-72 346l-34 202z" />
    <glyph glyph-name="Adieresis.aalt" horiz-adv-x="1226" 
d="M518 1505h219l-41 -229h-219zM866 1505h219l-41 -229h-219zM1102 0h-195l-59 285h-535l-159 -285h-203l596 1075h340zM602 799l-194 -346h407l-72 346l-34 202z" />
    <glyph glyph-name="uni1EA0.aalt" horiz-adv-x="1226" 
d="M887 1075l215 -1075h-195l-59 285h-535l-159 -285h-203l596 1075h340zM602 799l-194 -346h407l-72 346l-34 202zM575 -399h-219l39 219h219z" />
    <glyph glyph-name="Agrave.aalt" horiz-adv-x="1226" 
d="M733 1546l96 -327h-157l-172 327h233zM1102 0h-195l-59 285h-535l-159 -285h-203l596 1075h340zM602 799l-194 -346h407l-72 346l-34 202z" />
    <glyph glyph-name="Amacron.aalt" horiz-adv-x="1226" 
d="M506 1475h581l-28 -160h-582zM1102 0h-195l-59 285h-535l-159 -285h-203l596 1075h340zM602 799l-194 -346h407l-72 346l-34 202z" />
    <glyph glyph-name="Aogonek.aalt" horiz-adv-x="1226" 
d="M1038 0l-190 -184q-50 -46 -55 -84q-4 -25 12 -37t51 -12h135l-22 -123h-201q-78 0 -119 37.5t-31 101.5q17 81 99 145l190 156l-59 285h-535l-159 -285h-203l596 1075h340l215 -1075h-64zM602 799l-194 -346h407l-72 346l-34 202z" />
    <glyph glyph-name="Aring.aalt" horiz-adv-x="1226" 
d="M898 1259q-62 -47 -148 -47t-131 48q-46 46 -31 122q12 76 74 123t147 47q86 0 131 -47t33 -123q-13 -76 -75 -123zM690 1382q-8 -42 10 -60.5t66 -18.5q91 0 104 79q8 43 -9.5 61.5t-65.5 18.5q-91 0 -105 -80zM1102 0h-195l-59 285h-535l-159 -285h-203l596 1075h340z
M602 799l-194 -346h407l-72 346l-34 202z" />
    <glyph glyph-name="Aringacute.aalt" horiz-adv-x="1226" 
d="M885 1259q-62 -47 -148 -47t-130 47t-32 123t74 123t148 47q22 0 34 -2l119 181h166l-194 -220q52 -47 39 -129q-13 -76 -76 -123zM678 1382q-8 -42 10 -60.5t66 -18.5q91 0 104 79q8 42 -10 61t-66 19q-90 0 -104 -80zM547 1075h340l215 -1075h-195l-59 285h-535
l-159 -285h-203zM602 799l-194 -346h407l-72 346l-34 202z" />
    <glyph glyph-name="Atilde.aalt" horiz-adv-x="1226" 
d="M618 1356q-92 0 -110 -96h-123q23 118 94 190q70 70 170 70q69 0 155 -50q86 -51 138 -51q94 0 109 97h123q-20 -120 -90 -190q-71 -71 -171 -71q-71 0 -156 51q-86 50 -139 50zM547 1075h340l215 -1075h-195l-59 285h-535l-159 -285h-203zM602 799l-194 -346h407
l-72 346l-34 202z" />
    <glyph glyph-name="AE.aalt" horiz-adv-x="1636" 
d="M1610 1075l-31 -168h-666l58 -278h542l-28 -168h-481l59 -293h387l-29 -168h-526l-59 285h-535l-160 -285h-190l596 1075h1063zM590 799l-195 -346h408l-72 346l-35 202z" />
    <glyph glyph-name="AEacute.aalt" horiz-adv-x="1636" 
d="M1133 1546h233l-287 -327h-157zM1610 1075l-31 -168h-666l58 -278h542l-28 -168h-481l59 -293h387l-29 -168h-526l-59 285h-535l-160 -285h-190l596 1075h1063zM590 799l-195 -346h408l-72 346l-35 202z" />
    <glyph glyph-name="B.aalt" horiz-adv-x="1208" 
d="M1137 803q-14 -84 -81 -144.5t-171 -85.5q112 -29 165.5 -103t34.5 -175q-22 -133 -137 -214q-114 -81 -278 -81h-549l190 1075h510q163 0 252 -74q87 -75 64 -198zM922 772q14 74 -23.5 106.5t-134.5 32.5h-283l-53 -297h285q95 0 145 38t64 120zM879 305q14 82 -22 119
t-132 37h-324l-53 -297h324q184 0 207 141z" />
    <glyph glyph-name="C.aalt" horiz-adv-x="1267" 
d="M125 532q45 253 220 408q175 156 417 156q220 0 336 -120q114 -121 80 -314h-209q25 137 -31.5 198.5t-206.5 61.5q-171 0 -265.5 -93t-131.5 -297q-35 -205 26.5 -297t233.5 -92q152 0 229.5 55.5t98.5 180.5h208q-33 -184 -188 -297q-157 -113 -379 -113
q-242 0 -362 155q-121 154 -76 408z" />
    <glyph glyph-name="Cacute.aalt" horiz-adv-x="1267" 
d="M707 1219l211 327h233l-287 -327h-157zM125 532q45 253 220 408q175 156 417 156q220 0 336 -120q114 -121 80 -314h-209q25 137 -31.5 198.5t-206.5 61.5q-171 0 -265.5 -93t-131.5 -297q-35 -205 26.5 -297t233.5 -92q152 0 229.5 55.5t98.5 180.5h208
q-33 -184 -188 -297q-157 -113 -379 -113q-242 0 -362 155q-121 154 -76 408z" />
    <glyph glyph-name="Ccaron.aalt" horiz-adv-x="1267" 
d="M918 1219h-263l-135 327h187l90 -260l184 260h186zM1178 662h-209q25 137 -31.5 198.5t-206.5 61.5q-171 0 -265.5 -93t-131.5 -297q-35 -205 26.5 -297t233.5 -92q152 0 229.5 55.5t98.5 180.5h208q-33 -184 -188 -297q-157 -113 -379 -113q-242 0 -362 155
q-121 154 -76 408q45 253 220 408q175 156 417 156q220 0 336 -119q115 -119 80 -315z" />
    <glyph glyph-name="Ccedilla.aalt" horiz-adv-x="1267" 
d="M1178 662h-209q25 137 -31.5 198.5t-206.5 61.5q-171 0 -265.5 -93t-131.5 -297q-35 -205 26.5 -297t233.5 -92q152 0 229.5 55.5t98.5 180.5h208q-32 -179 -177 -288q-146 -112 -357 -122l-35 -80h62q84 0 127 -44t30 -115q-14 -76 -78 -123q-65 -47 -157 -47h-174
l22 123h144q71 0 79 51q4 27 -10 39t-53 12h-125l18 102l43 86q-207 25 -306 177q-99 151 -58 382q45 253 220 408q175 156 417 156q220 0 336 -119q115 -119 80 -315z" />
    <glyph glyph-name="Ccircumflex.aalt" horiz-adv-x="1267" 
d="M932 1219l-90 260l-185 -260h-186l250 327h262l135 -327h-186zM1178 662h-209q25 137 -31.5 198.5t-206.5 61.5q-171 0 -265.5 -93t-131.5 -297q-35 -205 26.5 -297t233.5 -92q152 0 229.5 55.5t98.5 180.5h208q-33 -184 -188 -297q-157 -113 -379 -113q-242 0 -362 155
q-121 154 -76 408q45 253 220 408q175 156 417 156q220 0 336 -119q115 -119 80 -315z" />
    <glyph glyph-name="Cdotaccent.aalt" horiz-adv-x="1267" 
d="M690 1276l41 229h219l-41 -229h-219zM125 532q45 253 220 408q175 156 417 156q220 0 336 -120q114 -121 80 -314h-209q25 137 -31.5 198.5t-206.5 61.5q-171 0 -265.5 -93t-131.5 -297q-35 -205 26.5 -297t233.5 -92q152 0 229.5 55.5t98.5 180.5h208
q-33 -184 -188 -297q-157 -113 -379 -113q-242 0 -362 155q-121 154 -76 408z" />
    <glyph glyph-name="D.aalt" horiz-adv-x="1353" 
d="M311 1075h465q248 0 374 -147q126 -149 83 -389q-41 -241 -219 -390q-179 -149 -428 -149h-465zM1024 539q35 193 -35.5 280.5t-259.5 87.5h-250l-129 -739h248q189 0 291 88.5t135 282.5z" />
    <glyph glyph-name="Eth.aalt" horiz-adv-x="1353" 
d="M311 1075h465q248 0 374 -147q126 -149 83 -389q-41 -241 -219 -390q-179 -149 -428 -149h-465l84 471h-154l25 143h153zM1024 539q35 193 -35.5 280.5t-259.5 87.5h-250l-51 -293h315l-24 -143h-316l-53 -303h248q189 0 291 88.5t135 282.5z" />
    <glyph glyph-name="Dcaron.aalt" horiz-adv-x="1353" 
d="M938 1219h-262l-135 327h186l90 -260l184 260h187zM311 1075h465q248 0 374 -147q126 -149 83 -389q-41 -241 -219 -390q-179 -149 -428 -149h-465zM1024 539q35 193 -35.5 280.5t-259.5 87.5h-250l-129 -739h248q189 0 291 88.5t135 282.5z" />
    <glyph glyph-name="Dcroat.aalt" horiz-adv-x="1353" 
d="M311 1075h465q248 0 374 -147q126 -149 83 -389q-41 -241 -219 -390q-179 -149 -428 -149h-465l84 471h-154l25 143h153zM1024 539q35 193 -35.5 280.5t-259.5 87.5h-250l-51 -293h315l-24 -143h-316l-53 -303h248q189 0 291 88.5t135 282.5z" />
    <glyph glyph-name="E.aalt" horiz-adv-x="1101" 
d="M1075 1075l-31 -168h-565l-49 -278h549l-29 -168h-549l-51 -293h565l-28 -168h-766l190 1075h764z" />
    <glyph glyph-name="Eacute.aalt" horiz-adv-x="1101" 
d="M834 1546h233l-287 -327h-157zM1075 1075l-31 -168h-565l-49 -278h549l-29 -168h-549l-51 -293h565l-28 -168h-766l190 1075h764z" />
    <glyph glyph-name="Ebreve.aalt" horiz-adv-x="1101" 
d="M938 1303q-97 -91 -233 -91t-202 93q-67 91 -40 241h164q-18 -105 5 -152.5t95 -47.5t114 48t60 152h164q-28 -150 -127 -243zM1075 1075l-31 -168h-565l-49 -278h549l-29 -168h-549l-51 -293h565l-28 -168h-766l190 1075h764z" />
    <glyph glyph-name="Ecaron.aalt" horiz-adv-x="1101" 
d="M834 1219h-263l-135 327h187l90 -260l184 260h186zM311 1075h764l-31 -168h-565l-49 -278h549l-29 -168h-549l-51 -293h565l-28 -168h-766z" />
    <glyph glyph-name="Ecircumflex.aalt" horiz-adv-x="1101" 
d="M848 1219l-90 260l-185 -260h-186l250 327h262l135 -327h-186zM1075 1075l-31 -168h-565l-49 -278h549l-29 -168h-549l-51 -293h565l-28 -168h-766l190 1075h764z" />
    <glyph glyph-name="Edieresis.aalt" horiz-adv-x="1101" 
d="M473 1505h219l-41 -229h-219zM821 1505h219l-41 -229h-219zM1075 1075l-31 -168h-565l-49 -278h549l-29 -168h-549l-51 -293h565l-28 -168h-766l190 1075h764z" />
    <glyph glyph-name="Edotaccent.aalt" horiz-adv-x="1101" 
d="M647 1505h219l-41 -229h-219zM1075 1075l-31 -168h-565l-49 -278h549l-29 -168h-549l-51 -293h565l-28 -168h-766l190 1075h764z" />
    <glyph glyph-name="uni1EB8.aalt" horiz-adv-x="1101" 
d="M1075 1075l-31 -168h-565l-49 -278h549l-29 -168h-549l-51 -293h565l-28 -168h-766l190 1075h764zM580 -399h-220l39 219h219z" />
    <glyph glyph-name="Egrave.aalt" horiz-adv-x="1101" 
d="M688 1546l96 -327h-157l-172 327h233zM1075 1075l-31 -168h-565l-49 -278h549l-29 -168h-549l-51 -293h565l-28 -168h-766l190 1075h764z" />
    <glyph glyph-name="Emacron.aalt" horiz-adv-x="1101" 
d="M461 1475h581l-28 -160h-582zM1075 1075l-31 -168h-565l-49 -278h549l-29 -168h-549l-51 -293h565l-28 -168h-766l190 1075h764z" />
    <glyph glyph-name="Eogonek.aalt" horiz-adv-x="1101" 
d="M1075 1075l-31 -168h-565l-49 -278h549l-29 -168h-549l-51 -293h565l-28 -168l-191 -184q-50 -46 -55 -84q-4 -25 12.5 -37t51.5 -12h135l-23 -123h-201q-78 0 -118.5 37.5t-30.5 101.5q17 82 98 145l191 156h-635l190 1075h764z" />
    <glyph glyph-name="uni1EBC.aalt" horiz-adv-x="1101" 
d="M573 1356q-92 0 -110 -96h-123q22 118 94 190q70 70 170 70q69 0 155 -50q85 -51 138 -51q94 0 109 97h122q-20 -119 -89 -190q-71 -71 -171 -71q-70 0 -156 51q-86 50 -139 50zM311 1075h764l-31 -168h-565l-49 -278h549l-29 -168h-549l-51 -293h565l-28 -168h-766z" />
    <glyph glyph-name="uni018F.aalt" horiz-adv-x="1282" 
d="M735 1096q235 0 354 -156q117 -156 72 -408q-45 -254 -219 -408q-175 -155 -416 -155q-225 0 -339 130q-115 130 -76 341l20 127h827q27 184 -33.5 269.5t-219.5 85.5q-152 0 -230 -55.5t-98 -178.5h-209q33 183 189 295q155 113 378 113zM354 208q59 -65 203 -65
q145 0 235 66q89 65 134 207h-611q-20 -143 39 -208z" />
    <glyph glyph-name="F.aalt" horiz-adv-x="1048" 
d="M1075 1075l-31 -168h-565l-49 -278h549l-29 -168h-549l-82 -461h-198l190 1075h764z" />
    <glyph glyph-name="G.aalt" horiz-adv-x="1339" 
d="M1210 686h-209q23 125 -39.5 180.5t-226.5 55.5q-174 0 -269 -93.5t-132 -298.5q-35 -203 27.5 -295t236.5 -92q156 0 241 63.5t117 205.5h-331l28 159h541l-100 -571h-158l53 299q-58 -157 -174 -243.5t-276 -86.5q-228 0 -344 155q-115 154 -70 406q45 254 221 410
t420 156q230 0 354 -113q123 -113 90 -297z" />
    <glyph glyph-name="Gbreve.aalt" horiz-adv-x="1339" 
d="M1022 1303q-97 -91 -233 -91t-202 93q-67 91 -40 241h164q-18 -105 5 -152.5t95 -47.5t114 48t60 152h164q-28 -150 -127 -243zM1210 686h-209q23 125 -39.5 180.5t-226.5 55.5q-174 0 -269 -93.5t-132 -298.5q-35 -203 27.5 -295t236.5 -92q156 0 241 63.5t117 205.5
h-331l28 159h541l-100 -571h-158l53 299q-58 -157 -174 -243.5t-276 -86.5q-228 0 -344 155q-115 154 -70 406q45 254 221 410t420 156q230 0 354 -113q123 -113 90 -297z" />
    <glyph glyph-name="Gcaron.aalt" horiz-adv-x="1339" 
d="M918 1219h-263l-135 327h187l90 -260l184 260h186zM1210 686h-209q23 125 -39.5 180.5t-226.5 55.5q-174 0 -269 -93.5t-132 -298.5q-35 -203 27.5 -295t236.5 -92q156 0 241 63.5t117 205.5h-331l28 159h541l-100 -571h-158l53 299q-58 -157 -174 -243.5t-276 -86.5
q-228 0 -344 155q-115 154 -70 406q45 254 221 410t420 156q230 0 354 -113q123 -113 90 -297z" />
    <glyph glyph-name="Gcircumflex.aalt" horiz-adv-x="1339" 
d="M932 1219l-90 260l-185 -260h-186l250 327h262l135 -327h-186zM1210 686h-209q23 125 -39.5 180.5t-226.5 55.5q-174 0 -269 -93.5t-132 -298.5q-35 -203 27.5 -295t236.5 -92q156 0 241 63.5t117 205.5h-331l28 159h541l-100 -571h-158l53 299q-58 -157 -174 -243.5
t-276 -86.5q-228 0 -344 155q-115 154 -70 406q45 254 221 410t420 156q230 0 354 -113q123 -113 90 -297z" />
    <glyph glyph-name="uni0122.aalt" horiz-adv-x="1339" 
d="M1210 686h-209q23 125 -39.5 180.5t-226.5 55.5q-174 0 -269 -93.5t-132 -298.5q-35 -203 27.5 -295t236.5 -92q156 0 241 63.5t117 205.5h-331l28 159h541l-100 -571h-158l53 299q-58 -157 -174 -243.5t-276 -86.5q-228 0 -344 155q-115 154 -70 406q45 254 221 410
t420 156q230 0 354 -113q123 -113 90 -297zM510 -367l-100 56l22 131h221l-28 -164q-20 -113 -98 -173.5t-199 -60.5l16 91q145 0 166 120z" />
    <glyph glyph-name="Gdotaccent.aalt" horiz-adv-x="1339" 
d="M731 1505h219l-41 -229h-219zM1210 686h-209q23 125 -39.5 180.5t-226.5 55.5q-174 0 -269 -93.5t-132 -298.5q-35 -203 27.5 -295t236.5 -92q156 0 241 63.5t117 205.5h-331l28 159h541l-100 -571h-158l53 299q-58 -157 -174 -243.5t-276 -86.5q-228 0 -344 155
q-115 154 -70 406q45 254 221 410t420 156q230 0 354 -113q123 -113 90 -297z" />
    <glyph glyph-name="H.aalt" horiz-adv-x="1396" 
d="M1004 629l79 446h199l-190 -1075h-199l82 461h-574l-82 -461h-198l190 1075h199l-80 -446h574z" />
    <glyph glyph-name="Hbar.aalt" horiz-adv-x="1396" 
d="M1255 924h142l-25 -144h-143l-137 -780h-199l82 461h-574l-82 -461h-198l137 780h-143l24 144h146l26 151h199l-27 -151h574l26 151h199zM430 629h574l26 151h-573z" />
    <glyph glyph-name="Hcircumflex.aalt" horiz-adv-x="1396" 
d="M963 1219l-91 260l-184 -260h-186l250 327h262l135 -327h-186zM1004 629l79 446h199l-190 -1075h-199l82 461h-574l-82 -461h-198l190 1075h199l-80 -446h574z" />
    <glyph glyph-name="i.aalt" horiz-adv-x="624" 
d="M121 0l190 1075h199l-191 -1075h-198z" />
    <glyph glyph-name="iacute.aalt" horiz-adv-x="624" 
d="M352 1219l211 327h234l-287 -327h-158zM121 0l190 1075h199l-191 -1075h-198z" />
    <glyph glyph-name="ibreve.aalt" horiz-adv-x="624" 
d="M631 1546h164q-28 -150 -127 -243q-98 -91 -234 -91q-135 0 -201 93q-67 91 -40 241h163q-18 -105 5.5 -152.5t95.5 -47.5q71 0 113 48t61 152zM121 0l190 1075h199l-191 -1075h-198z" />
    <glyph glyph-name="icircumflex.aalt" horiz-adv-x="624" 
d="M367 1546h262l135 -327h-186l-91 260l-184 -260h-186zM319 0h-198l190 1075h199z" />
    <glyph glyph-name="idieresis.aalt" horiz-adv-x="624" 
d="M162 1276l41 229h219l-41 -229h-219zM510 1276l41 229h219l-41 -229h-219zM121 0l190 1075h199l-191 -1075h-198z" />
    <glyph glyph-name="Idotaccent.c2sc" horiz-adv-x="624" 
d="M336 1276l41 229h219l-41 -229h-219zM121 0l190 1075h199l-191 -1075h-198z" />
    <glyph glyph-name="uni1ECB.aalt" horiz-adv-x="624" 
d="M121 0l190 1075h199l-191 -1075h-198zM41 -399l39 219h219l-39 -219h-219z" />
    <glyph glyph-name="igrave.aalt" horiz-adv-x="624" 
d="M184 1546h234l96 -327h-158zM121 0l190 1075h199l-191 -1075h-198z" />
    <glyph glyph-name="IJ.aalt" horiz-adv-x="1110" 
d="M145 143h304q112 0 171.5 50t79.5 159l127 723h199l-127 -725q-32 -173 -163 -276q-132 -105 -318 -105q-201 0 -297 31zM186 348l127 727h199l-127 -727h-199z" />
    <glyph glyph-name="imacron.aalt" horiz-adv-x="624" 
d="M190 1475h582l-29 -160h-581zM121 0l190 1075h199l-191 -1075h-198z" />
    <glyph glyph-name="iogonek.aalt" horiz-adv-x="624" 
d="M319 0l-190 -184q-50 -46 -55 -84q-4 -25 12 -37t51 -12h135l-22 -123h-201q-78 0 -119 38t-30 101q17 82 98 145l190 156h-67l190 1075h199z" />
    <glyph glyph-name="itilde.aalt" horiz-adv-x="624" 
d="M598 1255q-70 0 -156 51q-86 50 -139 50q-92 0 -110 -96h-123q23 120 93.5 190t170.5 70q69 0 155 -50q84 -51 138 -51q95 0 108 97h123q-20 -120 -90 -190q-71 -71 -170 -71zM121 0l190 1075h199l-191 -1075h-198z" />
    <glyph glyph-name="J.aalt" horiz-adv-x="1015" 
d="M-14 381h196q-23 -125 18.5 -181.5t154.5 -56.5q112 0 171.5 50t79.5 159l127 723h199l-127 -725q-32 -173 -163 -276q-132 -105 -318 -105q-184 0 -277 113q-94 112 -61 299z" />
    <glyph glyph-name="Jcircumflex.aalt" horiz-adv-x="1015" 
d="M784 1546h263l135 -327h-187l-90 260l-184 -260h-186zM606 352l127 723h199l-127 -725q-32 -173 -163 -276q-132 -105 -318 -105q-184 0 -277 113q-94 112 -61 299h196q-23 -125 18.5 -181.5t154.5 -56.5q112 0 171.5 50t79.5 159z" />
    <glyph glyph-name="K.aalt" horiz-adv-x="1208" 
d="M1059 1075h248l-666 -536l485 -539h-245l-310 348l-157 180l-95 -528h-198l190 1075h199l-92 -526l221 184z" />
    <glyph glyph-name="uni0136.aalt" horiz-adv-x="1208" 
d="M1059 1075h248l-666 -536l485 -539h-245l-310 348l-157 180l-95 -528h-198l190 1075h199l-92 -526l221 184zM508 -367l-100 56l22 131h221l-28 -164q-20 -112 -98 -173t-199 -61l16 91q145 0 166 120z" />
    <glyph glyph-name="L.aalt" horiz-adv-x="989" 
d="M510 1075l-160 -907h555l-28 -168h-756l190 1075h199z" />
    <glyph glyph-name="Lacute.aalt" horiz-adv-x="989" 
d="M563 1546h234l-287 -327h-158zM510 1075l-160 -907h555l-28 -168h-756l190 1075h199z" />
    <glyph glyph-name="Lcaron.aalt" horiz-adv-x="989" 
d="M311 1075h199l-160 -907h555l-28 -168h-756zM922 1075l-29 -164q-20 -113 -97.5 -173t-199.5 -60l16 90q145 0 166 121l-100 55l22 131h222z" />
    <glyph glyph-name="uni013B.aalt" horiz-adv-x="989" 
d="M510 1075l-160 -907h555l-28 -168h-756l190 1075h199zM440 -367l-100 56l22 131h222l-29 -164q-20 -113 -98 -173.5t-199 -60.5l16 91q145 0 166 120z" />
    <glyph glyph-name="Ldot.aalt" horiz-adv-x="989" 
d="M510 1075l-160 -907h555l-28 -168h-756l190 1075h199zM629 776h233l-41 -233h-233z" />
    <glyph glyph-name="Lslash.aalt" horiz-adv-x="989" 
d="M401 463l-51 -295h555l-28 -168h-756l67 385l-147 -68l27 152l147 68l96 538h199l-82 -461l371 168l-27 -151z" />
    <glyph glyph-name="M.aalt" horiz-adv-x="1748" 
d="M1282 1075h352l-190 -1075h-199l156 883l24 118l-487 -1001h-309l-135 997l-19 -114l-156 -883h-198l190 1075h361l114 -864l15 -131l59 131z" />
    <glyph glyph-name="N.aalt" horiz-adv-x="1447" 
d="M1004 332l131 743h198l-190 -1075h-342l-316 989l-26 -205l-140 -784h-198l190 1075h346l312 -985z" />
    <glyph glyph-name="Nacute.aalt" horiz-adv-x="1447" 
d="M987 1546h234l-287 -327h-158zM1004 332l131 743h198l-190 -1075h-342l-316 989l-26 -205l-140 -784h-198l190 1075h346l312 -985z" />
    <glyph glyph-name="Ncaron.aalt" horiz-adv-x="1447" 
d="M987 1219h-262l-135 327h186l90 -260l185 260h186zM1004 332l131 743h198l-190 -1075h-342l-316 989l-26 -205l-140 -784h-198l190 1075h346l312 -985z" />
    <glyph glyph-name="uni0145.aalt" horiz-adv-x="1447" 
d="M1004 332l131 743h198l-190 -1075h-342l-316 989l-26 -205l-140 -784h-198l190 1075h346l312 -985zM608 -367l-100 56l22 131h222l-29 -164q-20 -113 -98 -173.5t-199 -60.5l16 91q145 0 166 120z" />
    <glyph glyph-name="Eng.aalt" horiz-adv-x="1447" 
d="M1004 332l131 743h198l-190 -1075l-8 -47q-28 -157 -134 -255q-106 -97 -251 -97q-90 0 -158 20l24 143h136q88 0 129 44q41 46 59 163l4 29h-143l-316 989l-26 -205l-140 -784h-198l190 1075h346l312 -985z" />
    <glyph glyph-name="uni019D.aalt" horiz-adv-x="1447" 
d="M1004 332l131 743h198l-190 -1075h-342l-316 989l-26 -205l-140 -784l-8 -47q-28 -157 -134 -255q-104 -97 -251 -97q-91 0 -157 20l24 143h135q88 0 127 47q39 48 66 189l190 1075h346l312 -985z" />
    <glyph glyph-name="Ntilde.aalt" horiz-adv-x="1447" 
d="M727 1356q-91 0 -111 -96h-122q23 120 93.5 190t170.5 70q69 0 155 -50q84 -51 138 -51q95 0 108 97h123q-20 -120 -90 -190q-71 -71 -170 -71q-70 0 -156 51q-86 50 -139 50zM1004 332l131 743h198l-190 -1075h-342l-316 989l-26 -205l-140 -784h-198l190 1075h346
l312 -985z" />
    <glyph glyph-name="O.c2sc" horiz-adv-x="1339" 
d="M997 124q-179 -155 -423 -155q-246 0 -370 156t-79 407q47 254 224 409q178 155 423 155q246 0 369 -155t78 -408q-45 -255 -222 -409zM363 236q63 -93 241 -93t274 93q94 92 132 297q37 203 -26 297q-65 92 -242 92q-178 0 -276 -92q-98 -93 -132 -297q-35 -207 29 -297
z" />
    <glyph glyph-name="Oacute.aalt" horiz-adv-x="1339" 
d="M711 1219l211 327h233l-287 -327h-157zM997 124q-179 -155 -423 -155q-246 0 -370 156t-79 407q47 254 224 409q178 155 423 155q246 0 369 -155t78 -408q-45 -255 -222 -409zM363 236q63 -93 241 -93t274 93q94 92 132 297q37 203 -26 297q-65 92 -242 92
q-178 0 -276 -92q-98 -93 -132 -297q-35 -207 29 -297z" />
    <glyph glyph-name="Obreve.aalt" horiz-adv-x="1339" 
d="M989 1546h164q-28 -150 -127 -243q-97 -91 -233 -91t-202 93q-67 91 -40 241h164q-18 -105 5 -152.5t95 -47.5t114 48t60 152zM997 124q-179 -155 -423 -155q-246 0 -370 156t-79 407q47 254 224 409q178 155 423 155q246 0 369 -155t78 -408q-45 -255 -222 -409z
M363 236q63 -93 241 -93t274 93q94 92 132 297q37 203 -26 297q-65 92 -242 92q-178 0 -276 -92q-98 -93 -132 -297q-35 -207 29 -297z" />
    <glyph glyph-name="Ocircumflex.aalt" horiz-adv-x="1339" 
d="M936 1219l-90 260l-184 -260h-187l250 327h262l135 -327h-186zM349 941q178 155 423 155q246 0 369 -155t78 -408q-45 -255 -222 -409q-179 -155 -423 -155q-246 0 -370 156t-79 407q47 254 224 409zM878 236q94 92 132 297q37 203 -26 297q-65 92 -242 92
q-178 0 -276 -92q-98 -93 -132 -297q-35 -207 29 -297q63 -93 241 -93t274 93z" />
    <glyph glyph-name="Odieresis.aalt" horiz-adv-x="1339" 
d="M520 1276l41 229h219l-41 -229h-219zM868 1276l41 229h219l-41 -229h-219zM997 124q-179 -155 -423 -155q-246 0 -370 156t-79 407q47 254 224 409q178 155 423 155q246 0 369 -155t78 -408q-45 -255 -222 -409zM363 236q63 -93 241 -93t274 93q94 92 132 297
q37 203 -26 297q-65 92 -242 92q-178 0 -276 -92q-98 -93 -132 -297q-35 -207 29 -297z" />
    <glyph glyph-name="uni1ECC.aalt" horiz-adv-x="1339" 
d="M997 124q-179 -155 -423 -155q-246 0 -370 156t-79 407q47 254 224 409q178 155 423 155q246 0 369 -155t78 -408q-45 -255 -222 -409zM363 236q63 -93 241 -93t274 93q94 92 132 297q37 203 -26 297q-65 92 -242 92q-178 0 -276 -92q-98 -93 -132 -297q-35 -207 29 -297
zM399 -399l39 219h219l-39 -219h-219z" />
    <glyph glyph-name="Ograve.aalt" horiz-adv-x="1339" 
d="M543 1546h233l96 -327h-157zM997 124q-179 -155 -423 -155q-246 0 -370 156t-79 407q47 254 224 409q178 155 423 155q246 0 369 -155t78 -408q-45 -255 -222 -409zM363 236q63 -93 241 -93t274 93q94 92 132 297q37 203 -26 297q-65 92 -242 92q-178 0 -276 -92
q-98 -93 -132 -297q-35 -207 29 -297z" />
    <glyph glyph-name="Ohungarumlaut.aalt" horiz-adv-x="1339" 
d="M582 1219l182 327h186l-211 -327h-157zM842 1219l211 327h233l-287 -327h-157zM997 124q-179 -155 -423 -155q-246 0 -370 156t-79 407q47 254 224 409q178 155 423 155q246 0 369 -155t78 -408q-45 -255 -222 -409zM363 236q63 -93 241 -93t274 93q94 92 132 297
q37 203 -26 297q-65 92 -242 92q-178 0 -276 -92q-98 -93 -132 -297q-35 -207 29 -297z" />
    <glyph glyph-name="Omacron.aalt" horiz-adv-x="1339" 
d="M549 1475h581l-28 -160h-582zM997 124q-179 -155 -423 -155q-246 0 -370 156t-79 407q47 254 224 409q178 155 423 155q246 0 369 -155t78 -408q-45 -255 -222 -409zM363 236q63 -93 241 -93t274 93q94 92 132 297q37 203 -26 297q-65 92 -242 92q-178 0 -276 -92
q-98 -93 -132 -297q-35 -207 29 -297z" />
    <glyph glyph-name="uni01EA.aalt" horiz-adv-x="1339" 
d="M349 941q178 155 423 155q246 0 369 -155t78 -409q-35 -197 -153 -338q-119 -142 -290 -194l-190 -184q-52 -47 -56 -84q-4 -25 12.5 -37t51.5 -12h135l-22 -123h-201q-78 0 -119 37.5t-31 101.5q17 81 99 145l153 125h-35q-246 0 -369 156q-124 156 -79 407
q47 254 224 409zM878 236q94 92 132 297q37 203 -26 297q-65 92 -242 92q-178 0 -276 -92q-98 -93 -132 -297q-35 -207 29 -297q63 -93 241 -93t274 93z" />
    <glyph glyph-name="Oslash.aalt" horiz-adv-x="1339" 
d="M1171 1208h209l-243 -264q129 -154 82 -412q-45 -254 -222 -408q-179 -155 -424 -155q-156 0 -272 68l-166 -180h-209l264 286q-109 149 -65 389q47 254 224 409q178 155 423 155q145 0 246 -56zM334 532q-27 -152 0 -233l553 602q-56 20 -146 21q-178 0 -275 -92.5
t-132 -297.5zM1010 532q31 172 -9 265l-571 -621q66 -33 174 -33q177 0 274 92q94 91 132 297z" />
    <glyph glyph-name="Oslashacute.aalt" horiz-adv-x="1339" 
d="M901 1546h234l-287 -327h-158zM1171 1208h209l-243 -264q129 -154 82 -412q-45 -254 -222 -408q-179 -155 -424 -155q-156 0 -272 68l-166 -180h-209l264 286q-109 149 -65 389q47 254 224 409q178 155 423 155q145 0 246 -56zM334 532q-27 -152 0 -233l553 602
q-56 20 -146 21q-178 0 -275 -92.5t-132 -297.5zM1010 532q31 172 -9 265l-571 -621q66 -33 174 -33q177 0 274 92q94 91 132 297z" />
    <glyph glyph-name="Otilde.aalt" horiz-adv-x="1339" 
d="M956 1255q-70 0 -155 51q-86 50 -139 50q-92 0 -111 -96h-123q22 118 94 190q70 70 170 70q69 0 155 -50q85 -51 138 -51q94 0 109 97h123q-20 -120 -90 -190q-71 -71 -171 -71zM997 124q-179 -155 -423 -155q-246 0 -370 156t-79 407q47 254 224 409q178 155 423 155
q246 0 369 -155t78 -408q-45 -255 -222 -409zM363 236q63 -93 241 -93t274 93q94 92 132 297q37 203 -26 297q-65 92 -242 92q-178 0 -276 -92q-98 -93 -132 -297q-35 -207 29 -297z" />
    <glyph glyph-name="OE.aalt" horiz-adv-x="1789" 
d="M1763 1075l-30 -168h-525l-49 -278h508l-29 -168h-508l-51 -293h525l-29 -168h-991q-248 0 -374 148q-126 146 -85 391q44 242 222 389q179 147 427 147h989zM629 168h252l129 739h-250q-188 0 -289 -87q-102 -87 -137 -281q-33 -195 36.5 -283t258.5 -88z" />
    <glyph glyph-name="P.aalt" horiz-adv-x="1114" 
d="M311 1075h508q158 0 239 -92t54 -244q-29 -152 -151 -244q-124 -92 -299 -92h-273l-72 -403h-196zM834 611q54 42 70 128q16 88 -24 128t-145 40h-258l-59 -336h258q105 0 158 40z" />
    <glyph glyph-name="Thorn.aalt" horiz-adv-x="1093" 
d="M473 879h311q158 0 239 -92q81 -93 54 -244q-29 -152 -151 -244q-124 -92 -299 -92h-273l-37 -207h-196l190 1075h197zM799 415q54 42 70 128q16 88 -24 128t-145 40h-258l-59 -336h258q105 0 158 40z" />
    <glyph glyph-name="Q.aalt" horiz-adv-x="1339" 
d="M1219 532q-39 -234 -199 -385l133 -159l-133 -117l-141 174q-139 -76 -308 -76q-246 0 -368 155q-123 155 -78 409q45 253 222 408q178 155 423 155t370 -155q124 -154 79 -409zM1010 532q35 205 -28.5 297.5t-241.5 92.5t-275 -92q-97 -94 -131 -297q-35 -206 28 -297
q62 -93 240 -93q100 0 172 29l-119 141l136 115l122 -152q69 90 97 256z" />
    <glyph glyph-name="R.aalt" horiz-adv-x="1245" 
d="M1133 745q-18 -104 -87.5 -181t-177.5 -113l66 -95l199 -356h-236l-227 422h-279l-74 -422h-196l190 1075h529q158 0 239 -91q81 -92 54 -239zM924 745q16 84 -24 123t-144 39h-279l-57 -325h278q104 0 157 38.5t69 124.5z" />
    <glyph glyph-name="Racute.aalt" horiz-adv-x="1245" 
d="M874 1546h234l-287 -327h-157zM1133 745q-18 -104 -87.5 -181t-177.5 -113l66 -95l199 -356h-236l-227 422h-279l-74 -422h-196l190 1075h529q158 0 239 -91q81 -92 54 -239zM924 745q16 84 -24 123t-144 39h-279l-57 -325h278q104 0 157 38.5t69 124.5z" />
    <glyph glyph-name="Rcaron.aalt" horiz-adv-x="1245" 
d="M874 1219h-262l-135 327h187l90 -260l184 260h186zM1133 745q-18 -104 -87.5 -181t-177.5 -113l66 -95l199 -356h-236l-227 422h-279l-74 -422h-196l190 1075h529q158 0 239 -91q81 -92 54 -239zM924 745q16 84 -24 123t-144 39h-279l-57 -325h278q104 0 157 38.5
t69 124.5z" />
    <glyph glyph-name="uni0156.aalt" horiz-adv-x="1245" 
d="M1133 745q-18 -104 -87.5 -181t-177.5 -113l66 -95l199 -356h-236l-227 422h-279l-74 -422h-196l190 1075h529q158 0 239 -91q81 -92 54 -239zM924 745q16 84 -24 123t-144 39h-279l-57 -325h278q104 0 157 38.5t69 124.5zM518 -367l-100 56l22 131h222l-29 -164
q-20 -113 -98 -173.5t-199 -60.5l16 91q145 0 166 120z" />
    <glyph glyph-name="S.aalt" horiz-adv-x="1155" 
d="M78 338h209q-18 -106 41 -153.5t211 -47.5q135 0 201.5 32t78.5 101q14 77 -43 114q-57 38 -244 75q-216 44 -294 116q-80 73 -58 197q27 145 163 235q137 89 333 89q208 0 318 -102q108 -103 79 -273h-209q18 109 -33 158t-186 49q-241 0 -264 -135q-12 -72 45 -108
q56 -35 244 -73q212 -44 291 -120q80 -78 57 -209q-26 -142 -164 -227q-140 -87 -344 -87q-224 0 -342 102q-118 101 -90 267z" />
    <glyph glyph-name="Sacute.aalt" horiz-adv-x="1155" 
d="M614 1219l211 327h234l-287 -327h-158zM78 338h209q-18 -106 41 -153.5t211 -47.5q135 0 201.5 32t78.5 101q14 77 -43 114q-57 38 -244 75q-216 44 -294 116q-80 73 -58 197q27 145 163 235q137 89 333 89q208 0 318 -102q108 -103 79 -273h-209q18 109 -33 158t-186 49
q-241 0 -264 -135q-12 -72 45 -108q56 -35 244 -73q212 -44 291 -120q80 -78 57 -209q-26 -142 -164 -227q-140 -87 -344 -87q-224 0 -342 102q-118 101 -90 267z" />
    <glyph glyph-name="Scaron.aalt" horiz-adv-x="1155" 
d="M825 1219h-262l-135 327h186l91 -260l184 260h186zM1073 721h-209q18 109 -33 158t-186 49q-241 0 -264 -135q-12 -72 45 -108q56 -35 244 -73q212 -44 291 -120q80 -78 57 -209q-26 -142 -164 -227q-140 -87 -344 -87q-224 0 -342 102q-118 101 -90 267h209
q-18 -106 41 -153.5t211 -47.5q135 0 201.5 32t78.5 101q14 77 -43 114q-57 38 -244 75q-216 44 -294 116q-80 73 -58 197q27 145 163 235q137 89 333 89q208 0 318 -102q108 -103 79 -273z" />
    <glyph glyph-name="Scedilla.c2sc" horiz-adv-x="1155" 
d="M1073 721h-209q18 109 -33 158t-186 49q-241 0 -264 -135q-12 -72 45 -108q56 -35 244 -73q212 -44 291 -120q80 -78 57 -209q-26 -137 -157 -222q-133 -86 -326 -92l-35 -80h61q84 0 127 -44t31 -115q-13 -76 -79 -123q-65 -47 -157 -47h-174l23 123h143q73 0 80 51
q4 27 -10.5 39t-52.5 12h-125l18 102l43 86q-187 18 -281 117q-96 98 -69 248h209q-18 -106 41 -153.5t211 -47.5q135 0 201.5 32t78.5 101q14 77 -43 114q-57 38 -244 75q-216 44 -294 116q-80 73 -58 197q27 145 163 235q137 89 333 89q208 0 318 -102q108 -103 79 -273z
" />
    <glyph glyph-name="Scircumflex.aalt" horiz-adv-x="1155" 
d="M840 1219l-90 260l-185 -260h-186l250 327h262l135 -327h-186zM1073 721h-209q18 109 -33 158t-186 49q-241 0 -264 -135q-12 -72 45 -108q56 -35 244 -73q212 -44 291 -120q80 -78 57 -209q-26 -142 -164 -227q-140 -87 -344 -87q-224 0 -342 102q-118 101 -90 267h209
q-18 -106 41 -153.5t211 -47.5q135 0 201.5 32t78.5 101q14 77 -43 114q-57 38 -244 75q-216 44 -294 116q-80 73 -58 197q27 145 163 235q137 89 333 89q208 0 318 -102q108 -103 79 -273z" />
    <glyph glyph-name="uni0218.aalt" horiz-adv-x="1155" 
d="M78 338h209q-18 -106 41 -153.5t211 -47.5q135 0 201.5 32t78.5 101q14 77 -43 114q-57 38 -244 75q-216 44 -294 116q-80 73 -58 197q27 145 163 235q137 89 333 89q208 0 318 -102q108 -103 79 -273h-209q18 109 -33 158t-186 49q-241 0 -264 -135q-12 -72 45 -108
q56 -35 244 -73q212 -44 291 -120q80 -78 57 -209q-26 -142 -164 -227q-140 -87 -344 -87q-224 0 -342 102q-118 101 -90 267zM324 -311l22 131h221l-28 -164q-20 -112 -98 -173t-199 -61l16 91q145 0 166 120z" />
    <glyph glyph-name="T.aalt" horiz-adv-x="993" 
d="M109 1075h972l-30 -168h-387l-160 -907h-199l160 907h-387z" />
    <glyph glyph-name="Tbar.aalt" horiz-adv-x="993" 
d="M1081 1075l-30 -168h-387l-58 -334h271l-25 -143h-272l-76 -430h-199l76 430h-277l25 143h279l57 334h-387l31 168h972z" />
    <glyph glyph-name="Tcaron.aalt" horiz-adv-x="993" 
d="M748 1219h-263l-135 327h187l90 -260l184 260h186zM109 1075h972l-30 -168h-387l-160 -907h-199l160 907h-387z" />
    <glyph glyph-name="uni0162.c2sc" horiz-adv-x="993" 
d="M664 907l-160 -907h-45l-47 -111h61q84 0 127 -44t31 -115q-13 -76 -79 -123q-65 -47 -157 -47h-174l23 123h143q73 0 80 51q4 27 -10.5 39t-53.5 12h-124l18 102l55 113h-47l160 907h-387l31 168h972l-30 -168h-387z" />
    <glyph glyph-name="uni021A.aalt" horiz-adv-x="993" 
d="M109 1075h972l-30 -168h-387l-160 -907h-199l160 907h-387zM336 -367l-100 56l22 131h221l-28 -164q-20 -112 -98 -173t-199 -61l16 91q145 0 166 120z" />
    <glyph glyph-name="U.aalt" horiz-adv-x="1312" 
d="M160 399l119 676h198l-117 -669q-25 -139 29.5 -201t200.5 -62q145 0 222 62.5t101 200.5l117 669h199l-119 -676q-33 -192 -185 -311q-154 -119 -366 -119t-322 119t-77 311z" />
    <glyph glyph-name="Uacute.aalt" horiz-adv-x="1312" 
d="M696 1219l211 327h234l-287 -327h-158zM160 399l119 676h198l-117 -669q-25 -139 29.5 -201t200.5 -62q145 0 222 62.5t101 200.5l117 669h199l-119 -676q-33 -192 -185 -311q-154 -119 -366 -119t-322 119t-77 311z" />
    <glyph glyph-name="Ubreve.aalt" horiz-adv-x="1312" 
d="M975 1546h164q-28 -150 -127 -243q-98 -91 -234 -91q-135 0 -201 93q-67 91 -40 241h163q-18 -105 5.5 -152.5t95.5 -47.5q71 0 113 48t61 152zM160 399l119 676h198l-117 -669q-25 -139 29.5 -201t200.5 -62q145 0 222 62.5t101 200.5l117 669h199l-119 -676
q-33 -192 -185 -311q-154 -119 -366 -119t-322 119t-77 311z" />
    <glyph glyph-name="Ucircumflex.aalt" horiz-adv-x="1312" 
d="M922 1219l-91 260l-184 -260h-186l250 327h262l135 -327h-186zM913 406l117 669h199l-119 -676q-33 -192 -185 -311q-154 -119 -366 -119t-322 119t-77 311l119 676h198l-117 -669q-25 -139 29.5 -201t200.5 -62q145 0 222 62.5t101 200.5z" />
    <glyph glyph-name="Udieresis.aalt" horiz-adv-x="1312" 
d="M506 1276l41 229h219l-41 -229h-219zM854 1276l41 229h219l-41 -229h-219zM160 399l119 676h198l-117 -669q-25 -139 29.5 -201t200.5 -62q145 0 222 62.5t101 200.5l117 669h199l-119 -676q-33 -192 -185 -311q-154 -119 -366 -119t-322 119t-77 311z" />
    <glyph glyph-name="uni1EE4.aalt" horiz-adv-x="1312" 
d="M160 399l119 676h198l-117 -669q-25 -139 29.5 -201t200.5 -62q145 0 222 62.5t101 200.5l117 669h199l-119 -676q-33 -192 -185 -311q-154 -119 -366 -119t-322 119t-77 311zM385 -399l39 219h219l-39 -219h-219z" />
    <glyph glyph-name="Ugrave.aalt" horiz-adv-x="1312" 
d="M528 1546h234l96 -327h-158zM160 399l119 676h198l-117 -669q-25 -139 29.5 -201t200.5 -62q145 0 222 62.5t101 200.5l117 669h199l-119 -676q-33 -192 -185 -311q-154 -119 -366 -119t-322 119t-77 311z" />
    <glyph glyph-name="Uhungarumlaut.aalt" horiz-adv-x="1312" 
d="M567 1219l183 327h186l-211 -327h-158zM827 1219l211 327h234l-287 -327h-158zM160 399l119 676h198l-117 -669q-25 -139 29.5 -201t200.5 -62q145 0 222 62.5t101 200.5l117 669h199l-119 -676q-33 -192 -185 -311q-154 -119 -366 -119t-322 119t-77 311z" />
    <glyph glyph-name="Umacron.aalt" horiz-adv-x="1312" 
d="M535 1475h581l-29 -160h-581zM160 399l119 676h198l-117 -669q-25 -139 29.5 -201t200.5 -62q145 0 222 62.5t101 200.5l117 669h199l-119 -676q-33 -192 -185 -311q-154 -119 -366 -119t-322 119t-77 311z" />
    <glyph glyph-name="Uogonek.aalt" horiz-adv-x="1312" 
d="M913 406l117 669h199l-119 -676q-27 -144 -120 -249t-232 -150l-191 -184q-50 -46 -55 -84q-4 -24 12.5 -36.5t50.5 -12.5h136l-23 -123h-201q-78 0 -118.5 37.5t-30.5 101.5q17 82 98 145l154 125h-31q-212 0 -322 119t-77 311l119 676h198l-117 -669
q-25 -139 29.5 -201t200.5 -62q145 0 222 62.5t101 200.5z" />
    <glyph glyph-name="Uring.aalt" horiz-adv-x="1312" 
d="M926 1259q-62 -47 -148 -47t-131 48q-45 46 -31 122q12 76 74 123t148 47t131 -47t32 -123t-75 -123zM795 1303q91 0 104 79q8 42 -10 61t-66 19q-90 0 -104 -80q-8 -42 10 -60.5t66 -18.5zM160 399l119 676h198l-117 -669q-25 -139 29.5 -201t200.5 -62q145 0 222 62.5
t101 200.5l117 669h199l-119 -676q-33 -192 -185 -311q-154 -119 -366 -119t-322 119t-77 311z" />
    <glyph glyph-name="Utilde.aalt" horiz-adv-x="1312" 
d="M942 1255q-70 0 -156 51q-86 50 -139 50q-92 0 -110 -96h-123q22 118 94 190q70 70 170 70q69 0 155 -50q85 -51 138 -51q95 0 108 97h123q-20 -120 -90 -190q-71 -71 -170 -71zM160 399l119 676h198l-117 -669q-25 -139 29.5 -201t200.5 -62q145 0 222 62.5t101 200.5
l117 669h199l-119 -676q-33 -192 -185 -311q-154 -119 -366 -119t-322 119t-77 311z" />
    <glyph glyph-name="V.aalt" horiz-adv-x="1185" 
d="M625 276l448 799h201l-596 -1075h-354l-215 1075h210l164 -799l35 -202z" />
    <glyph glyph-name="W.aalt" horiz-adv-x="1857" 
d="M1364 268l377 807h194l-501 -1075h-324l-74 784l-10 222l-88 -222l-354 -784h-328l-121 1075h203l90 -807l14 -178l72 178l363 807h325l76 -807l10 -176z" />
    <glyph glyph-name="Wacute.aalt" horiz-adv-x="1857" 
d="M1188 1546h233l-286 -327h-158zM1364 268l377 807h194l-501 -1075h-324l-74 784l-10 222l-88 -222l-354 -784h-328l-121 1075h203l90 -807l14 -178l72 178l363 807h325l76 -807l10 -176z" />
    </font>
</defs>
</svg>
