<?xml version="1.0" standalone="no"?>
<!DOCTYPE svg PUBLIC "-//W3C//DTD SVG 1.1//EN" "http://www.w3.org/Graphics/SVG/1.1/DTD/svg11.dtd" >
<svg xmlns="http://www.w3.org/2000/svg" xmlns:xlink="http://www.w3.org/1999/xlink" version="1.1">
<metadata>
Created by FontForge 20170731 at Fri Apr 12 15:38:39 2019
 By Aleksey,,,
Copyright (c) 2018 by Alexis Navarro Miranda. All rights reserved. Desktop use is strictly prohibited.
</metadata>
<defs>
<font id="MenaGrotesk-BoldItalic" horiz-adv-x="0" >
  <font-face 
    font-family="Mena Grotesk Bold Italic"
    font-weight="700"
    font-style="italic"
    font-stretch="normal"
    units-per-em="2048"
    panose-1="0 0 8 0 0 0 0 0 0 0"
    ascent="1638"
    descent="-410"
    x-height="1057"
    cap-height="1446"
    bbox="-721 -618 2541.45 2132"
    underline-thickness="0"
    underline-position="0"
    unicode-range="U+0020-FB02"
  />
<missing-glyph horiz-adv-x="1402" 
d="M1233 682h186l-12 -61h-125q-37 -144 -121 -251.5t-203 -162.5l-36 -207h-58l37 207q-74 -59 -188 -119l-8 170h-103l-65 -170q-106 65 -148 121l-37 -209h-55l37 209q-209 113 -182 412h-125l12 61h186q-51 -295 119 -414l23 125q-63 95 -35 260q32 183 139 281l90 520
h608l-92 -524q68 -99 37 -277q-27 -161 -123 -258l-22 -127q213 118 264 414zM635 1407l188 -193l256 193h-444zM848 1188l190 -197l70 393zM528 995l258 193l-188 192zM946 1024l-133 137l-182 -137q80 23 162 23q84 0 153 -23zM666 328q338 0 395 325q29 166 -42 252
t-237 86q-338 0 -397 -338q-29 -159 43 -242t238 -83zM608 922l92 30l-6 -34l-92 -31zM924 887l-82 31l6 34l82 -30zM721 819q-11 -51 -64 -51q-25 0 -38 14.5t-9 36.5q10 56 66 58q24 0 36.5 -15.5t8.5 -42.5zM848 877q25 0 39 -16.5t10 -41.5q-11 -51 -68 -51
q-23 0 -35 14.5t-8 36.5q10 58 62 58zM823 696l-180 -20l8 39l178 20zM518 160l49 119q-97 17 -155 63l-13 -74q44 -64 119 -108zM911 266l13 76q-72 -46 -176 -63l8 -119q80 37 155 106zM647 207q29 0 23 -31q-5 -29 -33 -29q-34 0 -29 29q6 31 39 31zM627 94q27 0 24 -28
q-6 -31 -35 -31q-33 0 -26 31q1 28 37 28z" />
    <glyph glyph-name="uniFB01" unicode="fi" horiz-adv-x="1372" 
d="M627 1057h710l-188 -1057h-324l144 809h-385l-144 -809h-325l143 809h-203l45 248h201l29 157q29 164 160 265q130 100 313 100q117 0 186 -23l-41 -233h-141q-72 0 -107.5 -32.5t-50.5 -110.5zM1034 1241l53 305h345l-54 -305h-344z" />
    <glyph glyph-name="uniFB02" unicode="fl" horiz-adv-x="1466" 
d="M627 1057h301l-45 -248h-299l-142 -809h-325l141 809h-201l43 248h201l29 157q29 164 160 265q130 100 313 100q139 0 219 -23l-39 -233h-176q-72 0 -107.5 -32.5t-50.5 -110.5zM1448 1559l-213 -1199q-10 -68 10.5 -96t81.5 -28h59l-38 -236q-80 -20 -172 -20
q-150 0 -224 93q-75 92 -49 244l219 1242h326z" />
    <glyph glyph-name="f_f.liga" unicode="ff" horiz-adv-x="1613" 
d="M1765 1323h-231q-72 0 -107.5 -32.5t-50.5 -110.5l-22 -123h358l-45 -248h-356l-144 -809h-325l143 809h-401l-144 -809h-325l143 809h-203l45 248h203l21 117q27 163 158 264q130 100 313 100q132 0 204 -20l-41 -236h-159q-72 0 -108 -32.5t-50 -110.5l-14 -82h401
l29 157q29 164 160 265q130 100 313 100q153 0 278 -20z" />
    <glyph glyph-name="f_f_i.liga" unicode="ffi" horiz-adv-x="2101" 
d="M1354 1057h710l-186 -1057h-326l144 809h-385l-144 -809h-325l143 809h-401l-144 -809h-325l143 809h-203l45 248h203l21 117q27 163 158 264q130 100 313 100q132 0 204 -20l-41 -236h-159q-72 0 -108 -32.5t-50 -110.5l-14 -82h401l29 157q29 164 160 265
q130 100 313 100q117 0 186 -23l-41 -233h-141q-72 0 -107.5 -32.5t-50.5 -110.5zM1761 1241l54 305h346l-54 -305h-346z" />
    <glyph glyph-name="f_f_l.liga" unicode="ffl" horiz-adv-x="2195" 
d="M1354 1057h301l-43 -248h-301l-142 -809h-325l141 809h-401l-142 -809h-325l141 809h-201l43 248h201l29 162q27 156 141 237.5t303 81.5q129 0 217 -20l-41 -236h-159q-71 0 -103 -24q-31 -25 -43 -95l-18 -106h403l35 203q27 156 141 237.5t303 81.5q150 0 242 -23
l-41 -233h-186q-72 0 -101 -24q-30 -25 -43 -95zM2175 1559l-211 -1199q-12 -68 9 -96t81 -28h62l-41 -236q-80 -20 -172 -20q-149 0 -223 93q-73 93 -48 244l219 1242h324z" />
    <glyph glyph-name=".notdef" horiz-adv-x="1402" 
d="M1233 682h186l-12 -61h-125q-37 -144 -121 -251.5t-203 -162.5l-36 -207h-58l37 207q-74 -59 -188 -119l-8 170h-103l-65 -170q-106 65 -148 121l-37 -209h-55l37 209q-209 113 -182 412h-125l12 61h186q-51 -295 119 -414l23 125q-63 95 -35 260q32 183 139 281l90 520
h608l-92 -524q68 -99 37 -277q-27 -161 -123 -258l-22 -127q213 118 264 414zM635 1407l188 -193l256 193h-444zM848 1188l190 -197l70 393zM528 995l258 193l-188 192zM946 1024l-133 137l-182 -137q80 23 162 23q84 0 153 -23zM666 328q338 0 395 325q29 166 -42 252
t-237 86q-338 0 -397 -338q-29 -159 43 -242t238 -83zM608 922l92 30l-6 -34l-92 -31zM924 887l-82 31l6 34l82 -30zM721 819q-11 -51 -64 -51q-25 0 -38 14.5t-9 36.5q10 56 66 58q24 0 36.5 -15.5t8.5 -42.5zM848 877q25 0 39 -16.5t10 -41.5q-11 -51 -68 -51
q-23 0 -35 14.5t-8 36.5q10 58 62 58zM823 696l-180 -20l8 39l178 20zM518 160l49 119q-97 17 -155 63l-13 -74q44 -64 119 -108zM911 266l13 76q-72 -46 -176 -63l8 -119q80 37 155 106zM647 207q29 0 23 -31q-5 -29 -33 -29q-34 0 -29 29q6 31 39 31zM627 94q27 0 24 -28
q-6 -31 -35 -31q-33 0 -26 31q1 28 37 28z" />
    <glyph glyph-name="glyph1" 
 />
    <glyph glyph-name="glyph2" horiz-adv-x="681" 
 />
    <glyph glyph-name="space" unicode=" " horiz-adv-x="409" 
 />
    <glyph glyph-name="exclam" unicode="!" horiz-adv-x="647" 
d="M317 1446h332l-63 -367l-154 -575h-227l49 575zM49 0l62 348h360l-61 -348h-361z" />
    <glyph glyph-name="quotedbl" unicode="&#x22;" horiz-adv-x="843" 
d="M170 897l55 549h299l-137 -549h-217zM588 897l55 549h299l-137 -549h-217z" />
    <glyph glyph-name="numbersign" unicode="#" horiz-adv-x="1525" 
d="M1550 1090l-34 -199h-277l-92 -350h254l-35 -201h-274l-91 -340h-225l90 340h-334l-90 -340h-227l90 340h-272l35 201h292l93 350h-271l35 199h289l96 356h227l-96 -356h334l94 356h228l-97 -356h258zM588 541h332l94 350h-334z" />
    <glyph glyph-name="dollar" unicode="$" horiz-adv-x="1435" 
d="M1419 977h-344q20 117 -37 170t-204 53q-262 0 -287 -141q-12 -68 52 -107q63 -39 271 -78q296 -52 406 -159q108 -106 76 -293q-32 -176 -185 -294q-154 -118 -391 -148l-26 -156h-271l27 151q-243 29 -364 159q-122 131 -89 329h344q-20 -114 45 -165.5t230 -51.5
q293 0 319 137q7 43 -6 70q-14 27 -89 58q-79 33 -226 58q-291 51 -403 154q-112 102 -81 289q33 183 191 308q157 124 393 150l25 140h270l-25 -146q207 -38 310 -167q102 -130 69 -320z" />
    <glyph glyph-name="percent" unicode="%" horiz-adv-x="1521" 
d="M446 766q-168 0 -252 99q-85 97 -56 258q29 160 148 257t286 97q165 0 251 -98q86 -100 58 -257q-27 -161 -148 -258q-122 -98 -287 -98zM1278 1446h338l-477 -658h-297zM384 1010q32 -41 98 -41q65 0 113 42t60 111q12 68 -21.5 110t-98.5 42q-66 0 -113 -41.5
t-60 -110.5q-10 -70 22 -112zM1018 -31q-168 0 -253 99q-85 97 -56 258q29 159 147 258q119 98 287 98q167 0 253 -98q85 -98 56 -258q-28 -160 -148 -258q-120 -99 -286 -99zM461 657h297l-436 -657h-338zM956 215q32 -41 97 -41q64 0 113 41q47 40 61 111q12 69 -20 110
q-33 41 -99 41q-65 0 -114 -41q-48 -40 -60 -110q-10 -69 22 -111z" />
    <glyph glyph-name="ampersand" unicode="&#x26;" horiz-adv-x="1456" 
d="M1214 264l246 -264h-411l-72 78q-200 -109 -426 -109q-284 0 -438 113q-155 113 -123 299q20 118 118 211t261 143q-81 93 -106 168q-27 76 -9 182q33 176 191 284q157 108 384 108q231 0 353 -107q122 -108 90 -285q-23 -130 -143 -226.5t-324 -151.5l237 -256
q44 90 70 231h311q-44 -238 -209 -418zM590 1067q-18 -92 96 -229q125 39 187.5 93t76.5 136q14 80 -23.5 117t-133.5 37q-92 0 -139.5 -36.5t-63.5 -117.5zM594 223q134 0 221 29l-326 350q-132 -62 -151 -176q-20 -106 41 -154.5t215 -48.5z" />
    <glyph glyph-name="quotesingle" unicode="'" horiz-adv-x="425" 
d="M170 897l55 549h299l-137 -549h-217z" />
    <glyph glyph-name="parenleft" unicode="(" horiz-adv-x="649" 
d="M494 1559h282q-250 -469 -342 -975q-88 -500 0 -975h-284q-143 485 -58 975q88 496 402 975z" />
    <glyph glyph-name="parenright" unicode=")" horiz-adv-x="641" 
d="M166 -391h-283q258 482 344.5 974.5t-0.5 975.5h283q145 -485 59 -975q-90 -499 -403 -975z" />
    <glyph glyph-name="asterisk" unicode="*" horiz-adv-x="677" 
d="M594 1477l-139 -287l-37 287h176zM330 1438l125 -248l-258 110zM756 1300l-301 -110l213 248zM160 1212l295 -22l-287 -150zM688 1040l-233 150l305 22zM213 971l242 219l-97 -297zM449 893l6 297l163 -219z" />
    <glyph glyph-name="plus" unicode="+" horiz-adv-x="1034" 
d="M651 653h322l-39 -221h-322l-57 -321l-223 -2l57 323h-321l38 221h322l57 322h224z" />
    <glyph glyph-name="comma" unicode="," horiz-adv-x="575" 
d="M37 61l51 287h361l-64 -348q-29 -170 -152 -269q-125 -98 -309 -98l27 150q115 0 176 46t80 148z" />
    <glyph glyph-name="hyphen" unicode="-" horiz-adv-x="688" 
d="M98 647h551l-43 -250h-551z" />
    <glyph glyph-name="period" unicode="." horiz-adv-x="561" 
d="M10 0l62 348h360l-61 -348h-361z" />
    <glyph glyph-name="slash" unicode="/" horiz-adv-x="610" 
d="M-147 -391l688 1950h237l-688 -1950h-237z" />
    <glyph glyph-name="zero" unicode="0" horiz-adv-x="1515" 
d="M659 -31q-301 0 -449 207q-149 207 -89 547q58 339 281 547q220 207 524 207q302 0 451 -207q147 -206 88 -547q-60 -339 -281 -547q-222 -207 -525 -207zM715 270q163 0 258 108q95 106 135 345q41 238 -14.5 345.5t-220.5 107.5t-260 -107q-96 -110 -136 -346
q-41 -238 15.5 -345.5t222.5 -107.5z" />
    <glyph glyph-name="one" unicode="1" horiz-adv-x="1038" 
d="M479 1446h557l-254 -1446h-348l158 883l78 387l-209 -176l-363 -277l70 393z" />
    <glyph glyph-name="two" unicode="2" horiz-adv-x="1294" 
d="M1124 0h-1132l88 489l637 263q119 57 161 107q44 53 60 145q18 102 -23 149t-149 47q-109 0 -171.5 -67t-88.5 -213h-344q45 250 226 404q182 153 435 153q249 0 374 -129t87 -342q-51 -299 -412 -449l-456 -201l-217 -67l286 8h693z" />
    <glyph glyph-name="three" unicode="3" horiz-adv-x="1337" 
d="M1296 1079q-23 -126 -132.5 -204t-299.5 -99q213 -24 305 -121.5t62 -257.5q-34 -192 -217 -310q-182 -118 -447 -118q-266 0 -404 141q-138 139 -97 371h344q-20 -123 28.5 -178t175.5 -55q124 0 188 41.5t81 132.5q33 176 -168 176h-217l41 233h194q164 0 201 187
q16 96 -23 139t-141 43q-109 0 -169 -57.5t-83 -184.5h-344q41 233 221 376q181 143 434 143q243 0 370 -109q128 -110 97 -289z" />
    <glyph glyph-name="four" unicode="4" horiz-adv-x="1341" 
d="M657 270h-647l101 566l520 610h579l-159 -907h247l-47 -269h-247l-48 -270h-348zM854 1343l-686 -811l238 7h299l79 456z" />
    <glyph glyph-name="five" unicode="5" horiz-adv-x="1300" 
d="M1253 1149h-481l-209 4l-108 -451q156 225 424 226q188 0 281 -127t57 -334q-40 -223 -223 -360q-183 -138 -443 -138q-262 0 -397 140q-136 139 -95 366h344q-20 -119 26 -173t169 -54q121 0 186.5 51t85.5 162q20 115 -26.5 167t-169.5 52q-146 0 -246 -90h-301
l207 856h973z" />
    <glyph glyph-name="six" unicode="6" horiz-adv-x="1415" 
d="M1403 1004h-332q18 102 -28 148t-166 46q-167 0 -261 -114q-96 -116 -141 -367l-12 -66q62 120 191 193q128 71 286 71q212 0 322 -119q108 -120 73 -317q-40 -229 -224 -369q-183 -141 -445 -141q-322 0 -466 195q-146 194 -81 553q62 344 284 551q223 209 527 209
q252 0 382 -130t91 -343zM766 666q-276 0 -311 -197q-20 -115 37 -168t202 -53q131 0 197.5 50t87.5 163q20 108 -30.5 156.5t-182.5 48.5z" />
    <glyph glyph-name="seven" unicode="7" horiz-adv-x="1161" 
d="M207 1446h1063l-49 -287h-2l-43 -246q-241 -124 -425 -373q-186 -250 -237 -540h-362q63 351 333 674q268 321 680 483l-385 -8h-626z" />
    <glyph glyph-name="eight" unicode="8" horiz-adv-x="1433" 
d="M1395 1069q-47 -258 -375 -330q349 -78 297 -370q-32 -181 -223 -290q-194 -110 -476 -110q-284 0 -438 110q-152 109 -121 290q53 293 428 370q-307 72 -260 330q33 183 214 295q181 113 442 113q263 0 405 -113q140 -113 107 -295zM1036 1020q18 100 -28.5 145
t-169.5 45t-187.5 -45t-81.5 -145q-18 -102 29 -148.5t170 -46.5t186.5 46.5t81.5 148.5zM979 432q18 104 -40 151.5t-204 47.5q-147 0 -222 -47t-93 -152q-18 -102 40.5 -149t205.5 -47q145 0 220 47t93 149z" />
    <glyph glyph-name="nine" unicode="9" horiz-adv-x="1413" 
d="M819 1477q323 0 465 -195q143 -195 80 -553q-62 -343 -283 -551q-224 -209 -528 -209q-252 0 -381 130q-129 131 -92 343h332q-16 -103 29 -148.5t165 -45.5q166 0 262 114q95 113 140 367l10 59q-63 -117 -190 -187q-128 -71 -283 -71q-213 0 -321 120q-109 119 -74 317
q40 228 224 370q184 140 445 140zM719 780q276 0 311 197q20 115 -38 168t-204 53q-131 0 -197.5 -50t-84.5 -163q-20 -108 30.5 -156.5t182.5 -48.5z" />
    <glyph glyph-name="colon" unicode=":" horiz-adv-x="561" 
d="M125 645l61 348h361l-62 -348h-360zM10 0l62 348h360l-61 -348h-361z" />
    <glyph glyph-name="semicolon" unicode=";" horiz-adv-x="575" 
d="M139 645l62 348h360l-61 -348h-361zM37 61l51 287h361l-64 -348q-29 -170 -152 -269q-125 -98 -309 -98l27 150q115 0 176 46t80 148z" />
    <glyph glyph-name="less" unicode="&#x3c;" horiz-adv-x="927" 
d="M764 78l-711 270l68 381l805 270l-43 -235l-738 -225l660 -226z" />
    <glyph glyph-name="equal" unicode="=" horiz-adv-x="1116" 
d="M180 885h885l-39 -223h-885zM100 424h883l-39 -223h-883z" />
    <glyph glyph-name="greater" unicode="&#x3e;" horiz-adv-x="925" 
d="M809 348l-805 -270l43 235l737 226l-659 225l43 235l711 -270z" />
    <glyph glyph-name="question" unicode="?" horiz-adv-x="1099" 
d="M717 1477q229 0 350 -115t88 -301q-52 -288 -444 -389l-66 -17l-39 -176h-221l41 303l192 49q113 28 163 70q48 40 63 119q20 106 -21 154.5t-149 48.5q-121 0 -186.5 -59.5t-88.5 -192.5h-297q41 228 210 367t405 139zM592 0h-361l60 348h360z" />
    <glyph glyph-name="at" unicode="@" horiz-adv-x="2134" 
d="M480 1224q315 261 755 261t667 -248q226 -247 154 -655q-54 -287 -175 -434q-54 -66 -119 -107q-109 -68 -234 -68q-159 0 -228 70t-53 215q-72 -134 -179.5 -207.5t-231.5 -73.5q-200 0 -294 153q-96 154 -53 402q45 253 193 404q147 151 348 151q127 0 210 -67.5
t110 -192.5l34 205h314l-121 -692q-14 -79 4 -102q17 -25 78 -23q71 1 121 77q48 73 86 277q63 363 -106.5 554.5t-553.5 191.5q-382 0 -620 -200q-237 -198 -305 -578q-67 -379 99 -579q167 -200 550 -200q322 0 557 138l-35 -195q-243 -113 -551 -113q-441 0 -664 261
q-225 263 -149 688q77 427 392 687zM839 300q42 -73 163 -73q120 0 187 73q67 74 95 233t-12 232t-162 73t-189 -73q-69 -74 -96 -233q-29 -161 14 -232z" />
    <glyph glyph-name="A" unicode="A" horiz-adv-x="1564" 
d="M1458 0h-362l-47 356h-584l-174 -356h-352l708 1446h613zM788 1020l-192 -395h418l-53 395l-31 313z" />
    <glyph glyph-name="B" unicode="B" horiz-adv-x="1462" 
d="M1466 1104q-19 -119 -112 -203q-91 -82 -234 -106q158 -41 228.5 -142.5t46.5 -246.5q-33 -182 -175 -294t-346 -112h-806l256 1446h753q202 0 309 -94q107 -95 80 -248zM918 1174h-295l-60 -332h297q109 0 164 39t70 127q14 87 -28 126.5t-148 39.5zM1032 442
q14 88 -26 128t-146 40h-338l-59 -338h338q104 0 159.5 41t71.5 129z" />
    <glyph glyph-name="C" unicode="C" horiz-adv-x="1550" 
d="M224 176q-163 206 -103 547q58 339 296 547q235 207 562 207q290 0 448 -157q158 -158 113 -417h-344q25 143 -39.5 208t-230.5 65q-193 0 -300 -107q-109 -109 -149 -346q-41 -240 27.5 -348.5t261.5 -108.5q168 0 253 59.5t109 192.5h345q-43 -251 -255 -400t-505 -149
q-325 0 -489 207z" />
    <glyph glyph-name="D" unicode="D" horiz-adv-x="1599" 
d="M324 1446h624q326 0 492 -198q166 -199 109 -525q-59 -327 -293 -524q-235 -199 -564 -199h-624zM1192 723q74 432 -311 432h-263l-153 -870h264q385 0 463 438z" />
    <glyph glyph-name="E" unicode="E" horiz-adv-x="1308" 
d="M1376 1446l-51 -291h-707l-51 -293h672l-45 -266h-674l-53 -305h715l-52 -291h-1062l256 1446h1052z" />
    <glyph glyph-name="F" unicode="F" horiz-adv-x="1245" 
d="M1356 1446l-51 -291h-687l-53 -305h658l-45 -266h-660l-102 -584h-348l256 1446h1032z" />
    <glyph glyph-name="G" unicode="G" horiz-adv-x="1613" 
d="M1569 920h-344q25 133 -44 194.5t-243 61.5q-200 0 -310 -107q-111 -109 -151 -346q-41 -242 30 -350q70 -109 271 -109q177 0 269 67.5t122 219.5h-411l43 237h753l-137 -788h-303l66 369q-151 -398 -545 -400q-293 0 -434 202q-142 202 -82 540q62 349 301 557
q239 209 571 209q303 0 463 -153q160 -154 115 -404z" />
    <glyph glyph-name="H" unicode="H" horiz-adv-x="1656" 
d="M1208 874l101 572h348l-256 -1446h-346l102 584h-639l-102 -584h-348l256 1446h346l-101 -572h639z" />
    <glyph glyph-name="I" unicode="I" horiz-adv-x="671" 
d="M68 0l256 1446h346l-254 -1446h-348z" />
    <glyph glyph-name="J" unicode="J" horiz-adv-x="1318" 
d="M41 526h340q-25 -135 17 -196.5t161 -61.5q117 0 180.5 63.5t89.5 205.5l160 909h348l-168 -950q-43 -238 -225 -382q-181 -145 -438 -145q-255 0 -382 154q-128 153 -83 403z" />
    <glyph glyph-name="K" unicode="K" horiz-adv-x="1540" 
d="M1260 1446h413l-753 -713l546 -733h-442l-362 498l-123 194l-121 -692h-350l256 1446h348l-121 -684l188 194z" />
    <glyph glyph-name="L" unicode="L" horiz-adv-x="1228" 
d="M670 1446l-203 -1155h670l-52 -291h-1017l256 1446h346z" />
    <glyph glyph-name="M" unicode="M" horiz-adv-x="2082" 
d="M1489 1446h594l-256 -1446h-350l174 987l63 318l-532 -1305h-463l-78 1313l-47 -326l-174 -987h-352l256 1446h606l65 -942l-4 -305l103 305z" />
    <glyph glyph-name="N" unicode="N" horiz-adv-x="1710" 
d="M1227 655l137 791h344l-254 -1446h-602l-223 1309l-74 -498l-143 -811h-344l256 1446h606l221 -1288z" />
    <glyph glyph-name="O" unicode="O" horiz-adv-x="1654" 
d="M1304 176q-242 -207 -575 -207q-335 0 -501 207q-167 207 -107 547q58 340 300 547t575 207q334 0 500 -207t108 -547q-60 -340 -300 -547zM509 377q73 -109 274 -109q200 0 312 109t152 346q40 238 -30 346q-72 107 -275 107q-200 0 -312 -107q-113 -108 -153 -346
q-41 -239 32 -346z" />
    <glyph glyph-name="P" unicode="P" horiz-adv-x="1370" 
d="M324 1446h714q209 0 315 -130q105 -130 66 -343q-37 -213 -187 -343q-151 -130 -360 -130h-368l-88 -500h-348zM1063 973q20 106 -19.5 153.5t-146.5 47.5h-274l-72 -402h276q106 0 162 47.5t74 153.5z" />
    <glyph glyph-name="Q" unicode="Q" horiz-adv-x="1630" 
d="M418 1270q237 207 565 207q329 0 492 -207q163 -206 104 -547q-50 -277 -233 -477l165 -183l-239 -202l-150 211q-193 -101 -405 -103q-329 0 -492 207q-164 207 -104 547q58 340 297 547zM627 1069q-110 -108 -150 -346q-41 -240 29 -345q69 -108 264 -108q102 0 172 21
l-186 198l237 203l160 -215q43 94 70 246q41 238 -29 345.5t-264 107.5t-303 -107z" />
    <glyph glyph-name="R" unicode="R" horiz-adv-x="1417" 
d="M1452 1006q-25 -144 -111.5 -252t-218.5 -162l90 -164l187 -428h-389l-232 549h-266l-96 -549h-348l256 1446h741q209 0 316 -120q106 -120 71 -320zM924 1174h-301l-66 -373h301q106 0 161.5 45t74.5 145q16 96 -24 139.5t-146 43.5z" />
    <glyph glyph-name="S" unicode="S" horiz-adv-x="1435" 
d="M623 -31q-294 0 -452 137q-157 136 -118 357h344q-20 -114 45 -165.5t230 -51.5q293 0 319 137q7 43 -6 70q-14 27 -89 58q-79 33 -226 58q-291 51 -403 154q-112 102 -81 289q38 210 230 337q193 128 471 128q277 0 425 -137q146 -138 107 -363h-344q20 117 -37 170
t-204 53q-262 0 -287 -141q-12 -68 52 -107q63 -39 271 -78q296 -52 406 -159q108 -106 76 -293q-34 -204 -235 -329q-200 -124 -494 -124z" />
    <glyph glyph-name="T" unicode="T" horiz-adv-x="1351" 
d="M186 1446h1303l-51 -291h-477l-203 -1155h-348l202 1155h-477z" />
    <glyph glyph-name="U" unicode="U" horiz-adv-x="1568" 
d="M141 512l164 934h348l-159 -903q-25 -144 33 -208.5t213 -64.5t235 64.5t104 208.5l160 903h348l-166 -934q-44 -245 -245 -393q-202 -150 -490 -150q-290 0 -438 150q-150 149 -107 393z" />
    <glyph glyph-name="V" unicode="V" horiz-adv-x="1501" 
d="M825 426l486 1020h352l-696 -1446h-605l-186 1446h363l127 -1020l26 -295z" />
    <glyph glyph-name="W" unicode="W" horiz-adv-x="2412" 
d="M1757 426l397 1020h386l-594 -1446h-582l-27 936l6 338l-114 -338l-355 -936h-585l-86 1446h389l39 -1020v-279l92 279l379 1020h543l20 -1020l-6 -279z" />
    <glyph glyph-name="X" unicode="X" horiz-adv-x="1605" 
d="M1337 1446h385l-575 -678l369 -768h-392l-202 414l-99 245l-188 -247l-346 -412h-387l633 758l-345 688h394l176 -350l98 -240l180 240z" />
    <glyph glyph-name="Y" unicode="Y" horiz-adv-x="1419" 
d="M1237 1446h358l-727 -1045l-71 -401h-348l69 399l-358 1047h377l159 -483l62 -258l153 258z" />
    <glyph glyph-name="Z" unicode="Z" horiz-adv-x="1343" 
d="M1180 0h-1186l96 539l1176 622l-301 -6h-758l51 291h1172l-95 -533l-1194 -630l308 8h782z" />
    <glyph glyph-name="bracketleft" unicode="[" horiz-adv-x="733" 
d="M877 1559l-46 -261l-278 5l-252 -1438l279 4l-45 -260h-605l344 1950h603z" />
    <glyph glyph-name="backslash" unicode="\" horiz-adv-x="942" 
d="M197 1559h223l346 -1950h-225z" />
    <glyph glyph-name="bracketright" unicode="]" horiz-adv-x="733" 
d="M219 1559h602l-342 -1950h-604l45 260l279 -4l254 1438l-281 -5z" />
    <glyph glyph-name="asciicircum" unicode="^" horiz-adv-x="921" 
d="M815 1446l117 -496h-242l-78 432l-231 -432h-242l293 496h383z" />
    <glyph glyph-name="underscore" unicode="_" horiz-adv-x="1157" 
d="M-35 -31h1030l-43 -237h-1030z" />
    <glyph glyph-name="grave" unicode="`" horiz-adv-x="530" 
d="M242 1559h307l41 -353h-232z" />
    <glyph glyph-name="a" unicode="a" horiz-adv-x="1202" 
d="M1120 227h2l-41 -227q-80 -20 -166 -20q-126 0 -180.5 52t-42.5 163q-62 -103 -168 -164q-109 -62 -243 -62q-139 0 -213 72q-73 72 -54 190q41 226 357 281q314 56 381 80l6 33q20 114 -9.5 165.5t-113.5 51.5q-86 0 -133 -51t-68 -164h-311q38 210 193 335t372 125
q213 0 318 -116q104 -117 69 -318l-53 -301q-14 -83 2 -103q16 -22 96 -22zM457 190q100 0 168.5 52.5t91.5 152.5l10 58q-62 -19 -221 -58q-85 -19 -119 -43q-31 -24 -39 -71q-10 -43 18 -67t91 -24z" />
    <glyph glyph-name="b" unicode="b" horiz-adv-x="1329" 
d="M905 1087q201 0 295 -153q94 -154 49 -406t-192 -405q-148 -154 -348 -154q-125 0 -209 66.5t-111 187.5l-39 -223h-313l274 1559h326l-129 -725q151 253 397 253zM819 293q67 74 95 236q28 160 -13 235q-41 74 -162 74q-120 0 -187 -70.5t-95 -226.5l-4 -31
q-27 -152 16 -221.5t162 -69.5q120 0 188 74z" />
    <glyph glyph-name="c" unicode="c" horiz-adv-x="1222" 
d="M811 399h315q-34 -194 -193 -312q-158 -118 -388 -118q-255 0 -382 154q-128 153 -83 405t226 406q182 153 435 153q227 0 344 -124t82 -328h-315q18 106 -18.5 154.5t-135.5 48.5q-120 0 -186.5 -73.5t-95.5 -235.5t12.5 -236t161.5 -74q192 0 221 180z" />
    <glyph glyph-name="d" unicode="d" horiz-adv-x="1325" 
d="M934 856l123 703h325l-274 -1559h-311l43 252q-73 -134 -181.5 -208.5t-234.5 -74.5q-200 0 -294 154q-95 154 -50 405t194 406q148 153 349 153q117 0 198.5 -60t112.5 -171zM429 293q42 -74 163 -74t188 73q66 73 94 236q29 162 -13 236t-163 74q-119 0 -186 -74
t-96 -235q-29 -163 13 -236z" />
    <glyph glyph-name="e" unicode="e" horiz-adv-x="1243" 
d="M735 1087q239 0 360 -136q122 -137 83 -359l-25 -137h-747q-10 -126 34 -184t152 -58q198 0 221 137h315q-28 -172 -191 -276q-164 -105 -398 -105q-250 0 -377 154q-127 153 -82 405q45 251 225 406q180 153 430 153zM438 629l422 2q12 111 -28.5 162t-139.5 51
q-97 0 -159 -52.5t-95 -162.5z" />
    <glyph glyph-name="f" unicode="f" horiz-adv-x="886" 
d="M1038 1323h-231q-72 0 -107.5 -32.5t-50.5 -110.5l-22 -123h358l-45 -248h-356l-144 -809h-325l143 809h-203l45 248h201l29 157q29 164 160 265q130 100 313 100q154 0 276 -20z" />
    <glyph glyph-name="g" unicode="g" horiz-adv-x="1173" 
d="M1317 1264l-43 -244q-186 0 -223 -55q92 -98 65 -248q-32 -165 -184 -268q-154 -105 -385 -105q-139 0 -232 37q-18 -26 -24 -55q-8 -45 19.5 -63.5t99.5 -18.5h358q166 0 254 -82t65 -213q-29 -164 -204 -263q-176 -98 -445 -98q-265 0 -405 73q-142 73 -121 196
q8 59 59 103t129 60q-98 66 -80 181q27 144 201 227q-149 106 -115 289q29 169 183 269q154 101 387 101q154 0 262 -47q36 116 124.5 170t254.5 54zM788 717q14 78 -21 113.5t-128 35.5q-97 0 -143 -34t-63 -115t18.5 -116.5t134.5 -35.5q93 0 140.5 35.5t61.5 116.5z
M659 -16h-428q-16 -25 -22 -68q-13 -76 39 -103q54 -26 225 -26t231 22t72 91q8 47 -17.5 65.5t-99.5 18.5z" />
    <glyph glyph-name="h" unicode="h" horiz-adv-x="1320" 
d="M932 1087q172 0 251 -98t48 -274l-127 -715h-326l105 592q23 120 -10.5 171.5t-135.5 51.5q-231 0 -272 -242v2l-103 -575h-325l274 1559h326l-127 -725q75 121 184 187t238 66z" />
    <glyph glyph-name="i" unicode="i" horiz-adv-x="587" 
d="M248 1241l51 289h346l-51 -289h-346zM39 0l188 1057h324l-186 -1057h-326z" />
    <glyph glyph-name="j" unicode="j" horiz-adv-x="583" 
d="M246 1241l49 289h346l-51 -289h-344zM35 -12l188 1069h326l-195 -1100q-28 -166 -153 -268q-125 -101 -301 -101q-83 0 -154 21l39 235h104q66 0 99 33t47 111z" />
    <glyph glyph-name="k" unicode="k" horiz-adv-x="1284" 
d="M967 1057h368l-532 -504l414 -553h-422l-260 365l-84 135l-89 -500h-325l274 1559h326l-176 -998l131 139z" />
    <glyph glyph-name="l" unicode="l" horiz-adv-x="649" 
d="M629 1559l-211 -1199q-12 -68 9 -96t81 -28h61l-41 -236q-80 -20 -172 -20q-149 0 -223 93t-47 244l219 1242h324z" />
    <glyph glyph-name="m" unicode="m" horiz-adv-x="2048" 
d="M1663 1087q168 0 246 -98t47 -274l-125 -715h-326l105 592q20 121 -11.5 172t-128.5 51q-228 0 -272 -242v2l-102 -575h-324l102 592q23 121 -8.5 172t-128.5 51q-231 0 -272 -242l-2 5l-101 -578h-325l186 1057h314l-43 -244q75 130 188.5 202t245.5 72q143 0 221 -70
t82 -200q76 129 188.5 199.5t243.5 70.5z" />
    <glyph glyph-name="n" unicode="n" horiz-adv-x="1320" 
d="M932 1087q172 0 251 -98t48 -274l-127 -715h-326l105 592q23 120 -10.5 171.5t-135.5 51.5q-231 0 -272 -242l-2 5l-101 -578h-325l186 1057h314l-43 -246q74 131 188.5 203.5t249.5 72.5z" />
    <glyph glyph-name="o" unicode="o" horiz-adv-x="1290" 
d="M983 123q-181 -154 -436 -154q-254 0 -383 154q-129 153 -84 405q45 251 227 406q181 153 436 153q254 0 383 -153q129 -154 84 -406t-227 -405zM592 219q119 0 187 74t96 236q28 161 -14 235t-163 74q-119 0 -186 -74t-96 -235q-29 -162 13 -236t163 -74z" />
    <glyph glyph-name="p" unicode="p" horiz-adv-x="1331" 
d="M907 1087q199 0 293 -153q94 -154 51 -406q-45 -253 -193 -405q-148 -154 -349 -154q-117 0 -198 59.5t-114 170.5l-104 -590h-324l254 1448h314l-48 -260q70 138 179.5 214t238.5 76zM915 528q29 164 -13 237t-163 73t-187.5 -73t-94.5 -237q-29 -162 13 -235.5
t163 -73.5q119 0 186 73.5t96 235.5z" />
    <glyph glyph-name="q" unicode="q" horiz-adv-x="1329" 
d="M940 827l41 230h313l-256 -1448h-325l108 612q-72 -121 -175 -186.5t-222 -65.5q-200 0 -294 154q-95 154 -50 405t194 406q148 153 349 153q126 0 209 -67.5t108 -192.5zM429 293q42 -74 163 -74t188 73q66 73 94 236q29 162 -13 236t-163 74q-119 0 -186 -74t-96 -235
q-29 -163 13 -236z" />
    <glyph glyph-name="r" unicode="r" horiz-adv-x="860" 
d="M858 1087q60 0 92 -16l-53 -301h-188q-196 0 -248 -205l-99 -565h-325l186 1057h314l-50 -277q62 143 161 224q100 83 210 83z" />
    <glyph glyph-name="s" unicode="s" horiz-adv-x="1130" 
d="M475 -31q-236 0 -360 100q-125 100 -97 263h316q-12 -76 31 -110t151 -34q182 0 201 93q8 48 -35 74q-44 26 -193 48q-217 29 -307 108.5t-63 223.5q27 157 176 255q148 97 367 97q221 0 338 -102q115 -102 87 -268h-315q14 78 -22 114.5t-129 36.5q-167 0 -187 -98
q-10 -49 36 -74q48 -26 196 -47q226 -29 315 -108q89 -80 66 -224q-29 -159 -186 -253q-158 -95 -386 -95z" />
    <glyph glyph-name="t" unicode="t" horiz-adv-x="925" 
d="M940 809h-362l-76 -430q-14 -79 11 -111t99 -32h230l-41 -236q-162 -20 -285 -20q-184 0 -279 98q-96 97 -67 258l84 473h-203l43 248h205l59 309h318l-55 -309h362z" />
    <glyph glyph-name="u" unicode="u" horiz-adv-x="1308" 
d="M846 459l104 598h324l-184 -1057h-314l39 225q-157 -256 -432 -256q-167 0 -243 100q-77 100 -46 273l127 715h326l-105 -592q-23 -121 9 -172t133 -51q216 0 262 217z" />
    <glyph glyph-name="v" unicode="v" horiz-adv-x="1208" 
d="M645 389l311 668h330l-495 -1057h-558l-122 1057h338l73 -668l15 -266z" />
    <glyph glyph-name="w" unicode="w" horiz-adv-x="1861" 
d="M1362 389l258 668h317l-424 -1057h-501l-13 645l9 238l-76 -238l-242 -645h-516l-51 1057h340l22 -668l-8 -260l78 260l242 668h491l4 -668l-14 -260z" />
    <glyph glyph-name="x" unicode="x" horiz-adv-x="1284" 
d="M987 1057h363l-420 -533l241 -524h-352l-125 299l-57 184l-133 -184l-240 -299h-362l467 555l-228 502h353l120 -281l50 -155l108 155z" />
    <glyph glyph-name="y" unicode="y" horiz-adv-x="1208" 
d="M645 389l311 668h330l-557 -1184q-61 -133 -185 -209t-278 -76q-134 0 -252 21l41 235h199q142 0 186 95l31 61h-238l-122 1057h338l73 -668l15 -268z" />
    <glyph glyph-name="z" unicode="z" horiz-adv-x="1054" 
d="M887 0h-889l80 451l794 360l-284 -8h-438l45 254h868l-80 -457l-780 -354l270 8h459z" />
    <glyph glyph-name="braceleft" unicode="{" horiz-adv-x="802" 
d="M758 1579q65 0 194 -23l-39 -221h-92q-79 0 -101 -21q-25 -23 -38 -104l-64 -364q-23 -134 -116 -198t-271 -64h-2q178 0 249.5 -64.5t47.5 -197.5l-65 -365q-14 -85 2 -105q17 -20 94 -20h92l-39 -221q-146 -23 -202 -23q-182 0 -242 60q-60 62 -33 219l78 434
q13 89 -12 120q-27 32 -111 32h-106l47 262h106q84 0 122 32q39 33 52 119l76 434q27 158 109 219q82 60 264 60z" />
    <glyph glyph-name="bar" unicode="|" horiz-adv-x="552" 
d="M0 -391l344 1950h227l-342 -1950h-229z" />
    <glyph glyph-name="braceright" unicode="}" horiz-adv-x="802" 
d="M733 715h107l-47 -262h-107q-83 0 -121 -32q-37 -31 -51 -120l-78 -434q-27 -157 -108 -219q-83 -60 -265 -60q-65 0 -194 23l39 221h92q78 0 101 20q21 20 38 105l64 365q24 133 117.5 197.5t271.5 64.5v-2l2 4l-2 -2q-178 0 -248.5 64t-46.5 198l61 364q14 85 -1 105
t-93 20h-92l41 221q130 23 203 23q182 0 242 -60q58 -61 30 -219l-76 -434q-13 -88 12 -119q26 -32 109 -32z" />
    <glyph glyph-name="asciitilde" unicode="~" horiz-adv-x="1218" 
d="M262 377h-205q28 158 139 266q110 105 250 105q86 0 150 -36q66 -38 116 -72q53 -36 113 -36q56 0 93 40q39 42 49 93h204q-28 -166 -137 -267t-252 -101q-65 0 -120.5 21t-88.5 50q-82 70 -170 70q-58 0 -95 -40q-39 -42 -46 -93z" />
    <glyph glyph-name="exclamdown" unicode="&#xa1;" horiz-adv-x="647" 
d="M598 1057l-61 -348h-361l62 348h360zM330 -389h-332l63 366l154 576h227l-49 -576z" />
    <glyph glyph-name="cent" unicode="&#xa2;" horiz-adv-x="1185" 
d="M1202 829h-315q18 106 -19 154.5t-135 48.5q-120 0 -186.5 -73.5t-95.5 -235.5t12.5 -235.5t161.5 -73.5q193 0 221 180h315q-28 -166 -154 -280q-127 -114 -313 -142l-24 -141h-246l27 145q-192 39 -284 185q-91 145 -52 362t180 363q140 145 348 184l23 133h245
l-22 -131q173 -28 259 -148q86 -119 54 -295z" />
    <glyph glyph-name="sterling" unicode="&#xa3;" horiz-adv-x="1302" 
d="M1321 989h-344q20 113 -17.5 163t-144.5 50q-111 0 -170 -49t-80 -160q-14 -85 25 -198h442l-37 -203h-379q-19 -99 -112 -184q-91 -84 -271 -123l185 6h782l-51 -291h-1159l67 383q113 25 171.5 71t72.5 126q0 2 1 6.5t1 5.5h-205l37 203h113q-47 120 -29 229
q35 204 213 328q179 125 432 125q244 0 370 -134q126 -135 87 -354z" />
    <glyph glyph-name="currency" unicode="&#xa4;" horiz-adv-x="1411" 
d="M1317 1335l121 -147l-189 -162q57 -131 27 -307q-32 -175 -135 -309l131 -160l-172 -148l-131 158q-150 -84 -326 -84q-177 0 -295 84l-186 -158l-123 148l188 158q-59 132 -28 311q34 181 137 309l-131 160l174 147l129 -157q152 84 326 84q177 0 296 -86zM500 508
q63 -80 188 -80q124 0 215 80q90 80 113 211q26 131 -38 211q-63 80 -187 80q-125 0 -217 -80q-92 -79 -115 -211t41 -211z" />
    <glyph glyph-name="yen" unicode="&#xa5;" horiz-adv-x="1419" 
d="M1237 1446h358l-524 -754h229l-34 -194h-332l-66 -97l-4 -18h381l-35 -195h-381l-32 -188h-348l32 188h-389l35 195h389l2 16l-33 99h-338l35 194h236l-258 754h377l159 -483l62 -258l153 258z" />
    <glyph glyph-name="brokenbar" unicode="&#xa6;" horiz-adv-x="552" 
d="M436 786h-229l137 773h229zM229 -391h-229l137 774h230z" />
    <glyph glyph-name="section" unicode="&#xa7;" horiz-adv-x="1413" 
d="M1386 977h-344q23 117 -33.5 170t-201.5 53q-262 0 -289 -141q-12 -66 52 -102q62 -37 274 -76q296 -53 405 -162t74 -297l-68 -379v-2q-37 -205 -229 -329q-191 -124 -471 -124q-291 0 -443 135q-153 136 -112 357h344q-20 -113 42.5 -164t219.5 -51q262 0 289 137
q8 41 -6 67q-14 24 -89 56q-75 31 -227 57q-291 51 -403 157q-113 105 -80 292l68 381q38 210 230 337q193 128 471 128q277 0 423 -137q145 -137 104 -363zM676 633q-223 40 -344 100l-4 -22q-16 -81 7 -127q22 -44 115 -82q88 -36 287 -74q244 -44 357 -104l4 26
q12 76 -8 120q-22 45 -117 85q-96 41 -297 78z" />
    <glyph glyph-name="dieresis" unicode="&#xa8;" horiz-adv-x="808" 
d="M184 1241l52 289h296l-51 -289h-297zM580 1241l49 289h297l-52 -289h-294z" />
    <glyph glyph-name="copyright" unicode="&#xa9;" horiz-adv-x="1650" 
d="M1322 176q-249 -207 -595 -207q-345 0 -521 207q-175 206 -115 547q58 339 308 547q247 207 594 207t522 -207q175 -206 116 -547q-60 -340 -309 -547zM756 127q265 0 458 164q192 165 238 432q49 268 -85 432t-402 164q-265 0 -459 -164q-193 -163 -238 -432
q-46 -269 87 -432q134 -164 401 -164zM993 633h246q-27 -144 -145 -232q-118 -90 -287 -90q-189 0 -283 114q-96 114 -63 300q33 184 168 298t323 114q166 0 253 -93q86 -94 61 -245h-244q12 74 -12.5 107.5t-91.5 33.5q-82 0 -129.5 -52t-67.5 -163q-18 -115 10 -166
t111 -51q131 0 151 125z" />
    <glyph glyph-name="ordfeminine" unicode="&#xaa;" horiz-adv-x="894" 
d="M827 1040l-32 -192q-10 -52 1 -67q10 -15 62 -15l-24 -148q-74 -12 -127 -12q-86 0 -122 35t-26 109q-89 -150 -268 -150q-100 0 -152.5 46t-38.5 122q26 142 250 182q208 39 246 54l4 18q10 66 -8.5 95.5t-71.5 29.5q-100 0 -121 -123h-225q22 134 130 216
q106 81 255 81q147 0 220 -75q74 -75 48 -206zM406 748q139 0 167 124l7 37q-12 -4 -144 -37q-53 -14 -72.5 -27.5t-25.5 -41.5q-4 -27 12.5 -41t55.5 -14z" />
    <glyph glyph-name="guillemotleft" unicode="&#xab;" horiz-adv-x="1114" 
d="M313 913h357l-447 -385l309 -385h-354l-164 209l31 168l31 185zM801 913h356l-446 -385l309 -385h-354l-164 209l30 168l31 185z" />
    <glyph glyph-name="logicalnot" unicode="&#xac;" horiz-adv-x="1067" 
d="M104 662h900l-86 -488h-224l47 266h-675z" />
    <glyph glyph-name="registered" unicode="&#xae;" horiz-adv-x="1015" 
d="M320 1353q148 124 356 124q207 0 312 -124q104 -125 69 -327q-35 -204 -183 -325q-148 -123 -356 -123q-207 0 -312 123q-106 121 -71 325q34 202 185 327zM797 782q108 91 135 244q26 152 -49 245q-77 93 -228 93q-150 0 -258 -93t-137 -245q-27 -153 49 -244
q77 -92 228 -92q150 0 260 92zM442 1235h248q68 0 101.5 -35.5t23.5 -95.5q-17 -79 -80 -113l23 -37l53 -116h-152l-53 131h-78l-22 -131h-133zM631 1137h-72l-14 -78h71q54 0 62 41q2 20 -8.5 28.5t-38.5 8.5z" />
    <glyph glyph-name="overscore" unicode="&#xaf;" horiz-adv-x="702" 
d="M231 1511h586l-45 -247h-584z" />
    <glyph glyph-name="degree" unicode="&#xb0;" horiz-adv-x="827" 
d="M457 766q-167 0 -253 99q-86 98 -57 257q28 157 148 257q119 98 287 98q166 0 252 -98q86 -99 57 -257q-28 -160 -148 -258q-121 -98 -286 -98zM387 1005q33 -44 103 -44q69 0 119 44t65 117q12 72 -23 116t-104 44q-68 0 -118 -44t-64 -116q-12 -74 22 -117z" />
    <glyph glyph-name="plusminus" unicode="&#xb1;" horiz-adv-x="1026" 
d="M713 1024l-41 -229h317l-39 -222h-317l-39 -227l-225 -2l41 229h-318l39 222h318l40 229h224zM856 47h-856l39 221h856z" />
    <glyph glyph-name="uni00B2" unicode="&#xb2;" horiz-adv-x="772" 
d="M772 825h-661l55 324l350 106q92 29 105 105q13 90 -72 90q-94 0 -115 -123h-239q23 131 131 212t258 81q148 0 222 -70q75 -71 54 -188q-16 -82 -79 -139.5t-183 -96.5l-221 -75l-121 -33l147 2h402z" />
    <glyph glyph-name="uni00B3" unicode="&#xb3;" horiz-adv-x="815" 
d="M885 1407q-27 -141 -234 -162q231 -26 197 -211q-18 -104 -129 -167q-110 -64 -273 -64q-155 0 -235 77q-79 76 -57 201h237q-8 -48 13.5 -70t76.5 -22q119 0 131 76q5 34 -17 51t-71 17h-114l24 147h105q81 0 92 68q14 86 -72 86q-91 0 -110 -97h-238q22 127 126 205
q103 78 253 78q148 0 231 -59q82 -60 64 -154z" />
    <glyph glyph-name="acute" unicode="&#xb4;" horiz-adv-x="530" 
d="M178 1206l168 353h307l-243 -353h-232z" />
    <glyph glyph-name="paragraph" unicode="&#xb6;" horiz-adv-x="1697" 
d="M688 1446h1135l-51 -291h-211l-275 -1546h-323l274 1546h-201l-272 -1546h-324l168 956h-78q-209 0 -315 121q-106 120 -71 320q34 198 184 319q148 121 360 121z" />
    <glyph glyph-name="middot" unicode="&#xb7;" horiz-adv-x="561" 
d="M72 369l63 360h361l-64 -360h-360z" />
    <glyph glyph-name="cedilla" unicode="&#xb8;" horiz-adv-x="538" 
d="M160 -104h30q80 0 121 -45.5t29 -118.5q-16 -80 -78.5 -129t-150.5 -49h-224l25 139h158q53 0 61 41q4 20 -8 30.5t-41 10.5h-137l18 114l64 111h186z" />
    <glyph glyph-name="uni00B9" unicode="&#xb9;" horiz-adv-x="624" 
d="M283 1587h409l-133 -762h-240l82 463l41 211l-110 -102l-246 -189l45 262z" />
    <glyph glyph-name="ordmasculine" unicode="&#xba;" horiz-adv-x="872" 
d="M438 600q-166 0 -250 99q-84 97 -55 262q28 162 149 261q118 99 285 99t249 -99q82 -100 54 -261q-27 -162 -145 -261q-118 -100 -287 -100zM471 776q71 0 110.5 43.5t55.5 141.5q18 96 -6.5 140t-95.5 44q-70 0 -110 -44t-56 -140q-16 -99 7.5 -142t94.5 -43z" />
    <glyph glyph-name="guillemotright" unicode="&#xbb;" horiz-adv-x="1114" 
d="M612 705l-37 -205l-26 -148l-236 -209h-356l446 385l-311 385h357zM936 913l164 -208l-37 -205l-27 -148l-235 -209h-357l447 385l-311 385h356z" />
    <glyph glyph-name="onequarter" unicode="&#xbc;" horiz-adv-x="1531" 
d="M-14 0l1384 1446h254l-1384 -1446h-254zM473 1186l35 180l-94 -86l-213 -162l41 234l125 94h362l-115 -660h-211zM1032 659h334l-70 -389h99l-27 -153h-98l-21 -117h-209l21 117h-273l56 319zM860 268l115 2h115l30 174l35 177z" />
    <glyph glyph-name="onehalf" unicode="&#xbd;" horiz-adv-x="1544" 
d="M-14 0l1384 1446h254l-1384 -1446h-254zM481 1186l35 182l-94 -88l-213 -162l41 234l125 94h362l-114 -660h-213zM1210 690q127 0 191 -61q63 -62 47 -162q-10 -72 -63.5 -121t-161.5 -86l-193 -65l-104 -27l129 2h348l-31 -170h-575l49 281l307 94q74 23 86 90
q13 78 -59 78q-81 0 -101 -107h-207q22 113 115 185q91 69 223 69z" />
    <glyph glyph-name="threequarters" unicode="&#xbe;" horiz-adv-x="1572" 
d="M401 766q-135 0 -205 67q-70 66 -51 175h207q-8 -42 10.5 -61t67.5 -19q98 0 113 65q8 60 -74 60h-102l24 127h90q67 0 78 59q13 76 -61 76q-80 0 -97 -84h-206q22 112 112 180q88 66 217 66q131 0 202 -51q70 -52 54 -136q-19 -121 -198 -139q199 -25 168 -184
q-13 -89 -111 -145t-238 -56zM20 0l1385 1446h254l-1385 -1446h-254zM1073 659h332l-68 -389h97l-27 -153h-96l-21 -117h-209l21 117h-273l56 319zM899 268l117 2h112l31 174l35 177z" />
    <glyph glyph-name="questiondown" unicode="&#xbf;" horiz-adv-x="1107" 
d="M510 1057h360l-61 -348h-360zM702 86h297q-41 -227 -209 -367q-169 -139 -405 -139q-232 0 -351 115q-120 115 -87 301q51 288 444 389l66 16l39 177h219l-39 -304l-195 -49q-113 -29 -161 -69q-48 -41 -62 -119q-20 -106 20.5 -154.5t149.5 -48.5q121 0 186 59.5
t88 192.5z" />
    <glyph glyph-name="Agrave" unicode="&#xc0;" horiz-adv-x="1564" 
d="M1061 1948l41 -353h-232l-116 353h307zM1458 0h-362l-47 356h-584l-174 -356h-352l708 1446h613zM788 1020l-192 -395h418l-53 395l-31 313z" />
    <glyph glyph-name="Aacute" unicode="&#xc1;" horiz-adv-x="1564" 
d="M1024 1948h307l-244 -353h-231zM1458 0h-362l-47 356h-584l-174 -356h-352l708 1446h613zM788 1020l-192 -395h418l-53 395l-31 313z" />
    <glyph glyph-name="Acircumflex" unicode="&#xc2;" horiz-adv-x="1564" 
d="M1110 1595l-74 293l-178 -293h-264l244 353h417l119 -353h-264zM1458 0h-362l-47 356h-584l-174 -356h-352l708 1446h613zM788 1020l-192 -395h418l-53 395l-31 313z" />
    <glyph glyph-name="Atilde" unicode="&#xc3;" horiz-adv-x="1564" 
d="M864 1710q-86 0 -100 -86h-160q27 151 100 230t189 79q64 0 143 -45q80 -45 129 -45q86 0 101 86h159q-53 -309 -286 -309q-63 0 -144 45q-83 45 -131 45zM1458 0h-362l-47 356h-584l-174 -356h-352l708 1446h613zM788 1020l-192 -395h418l-53 395l-31 313z" />
    <glyph glyph-name="Adieresis" unicode="&#xc4;" horiz-adv-x="1564" 
d="M694 1919h297l-51 -289h-297zM1087 1919h297l-51 -289h-295zM1458 0h-362l-47 356h-584l-174 -356h-352l708 1446h613zM788 1020l-192 -395h418l-53 395l-31 313z" />
    <glyph glyph-name="Aring" unicode="&#xc5;" horiz-adv-x="1564" 
d="M981 1587q-94 0 -143 52q-50 51 -35 133q13 80 82 133q67 51 162 51t143.5 -51t34.5 -133q-15 -82 -81 -133q-67 -52 -163 -52zM940 1772q-14 -66 64 -66q74 0 86 66q12 65 -64 65q-78 2 -86 -65zM1458 0h-362l-47 356h-584l-174 -356h-352l708 1446h613zM788 1020
l-192 -395h418l-53 395l-31 313z" />
    <glyph glyph-name="AE" unicode="&#xc6;" horiz-adv-x="2093" 
d="M2163 1446l-52 -291h-811l39 -293h686l-47 -266h-602l41 -305h551l-53 -291h-819l-47 356h-584l-174 -356h-352l708 1446h1516zM788 1020l-192 -395h418l-53 395l-31 313z" />
    <glyph glyph-name="Ccedilla" unicode="&#xc7;" horiz-adv-x="1550" 
d="M1540 903h-344q25 143 -39.5 208t-230.5 65q-193 0 -300 -107q-109 -109 -149 -346q-41 -240 27.5 -348.5t261.5 -108.5q168 0 253 59.5t109 192.5h345q-40 -235 -229 -381q-188 -145 -456 -166l-38 -75h30q80 0 121 -45.5t29 -118.5q-17 -80 -79 -129t-151 -49h-223
l25 139h157q53 0 62 41q4 20 -8.5 30.5t-40.5 10.5h-137l18 114l49 86q-274 35 -405 237q-131 204 -76 511q58 339 296 547q235 207 562 207q290 0 448 -157q158 -158 113 -417z" />
    <glyph glyph-name="Egrave" unicode="&#xc8;" horiz-adv-x="1308" 
d="M954 1948l41 -353h-231l-117 353h307zM1376 1446l-51 -291h-707l-51 -293h672l-45 -266h-674l-53 -305h715l-52 -291h-1062l256 1446h1052z" />
    <glyph glyph-name="Eacute" unicode="&#xc9;" horiz-adv-x="1308" 
d="M918 1948h307l-244 -353h-231zM1376 1446l-51 -291h-707l-51 -293h672l-45 -266h-674l-53 -305h715l-52 -291h-1062l256 1446h1052z" />
    <glyph glyph-name="Ecircumflex" unicode="&#xca;" horiz-adv-x="1308" 
d="M1004 1595l-74 293l-178 -293h-265l244 353h418l119 -353h-264zM1376 1446l-51 -291h-707l-51 -293h672l-45 -266h-674l-53 -305h715l-52 -291h-1062l256 1446h1052z" />
    <glyph glyph-name="Edieresis" unicode="&#xcb;" horiz-adv-x="1308" 
d="M588 1919h297l-51 -289h-297zM981 1919h297l-51 -289h-295zM1376 1446l-51 -291h-707l-51 -293h672l-45 -266h-674l-53 -305h715l-52 -291h-1062l256 1446h1052z" />
    <glyph glyph-name="Igrave" unicode="&#xcc;" horiz-adv-x="671" 
d="M295 1948h307l41 -353h-231zM68 0l256 1446h346l-254 -1446h-348z" />
    <glyph glyph-name="Iacute" unicode="&#xcd;" horiz-adv-x="671" 
d="M395 1595l168 353h307l-243 -353h-232zM68 0l256 1446h346l-254 -1446h-348z" />
    <glyph glyph-name="Icircumflex" unicode="&#xce;" horiz-adv-x="671" 
d="M651 1595l-73 293l-179 -293h-264l244 353h418l118 -353h-264zM416 0h-348l256 1446h346z" />
    <glyph glyph-name="Idieresis" unicode="&#xcf;" horiz-adv-x="671" 
d="M182 1630l51 289h297l-51 -289h-297zM578 1630l49 289h297l-52 -289h-294zM68 0l256 1446h346l-254 -1446h-348z" />
    <glyph glyph-name="Eth" unicode="&#xd0;" horiz-adv-x="1599" 
d="M324 1446h624q326 0 492 -198q166 -199 109 -525q-59 -327 -293 -524q-235 -199 -564 -199h-624l106 604h-168l43 242h168zM1192 723q74 432 -311 432h-263l-53 -309h289l-43 -242h-289l-57 -319h264q385 0 463 438z" />
    <glyph glyph-name="Ntilde" unicode="&#xd1;" horiz-adv-x="1710" 
d="M940 1710q-86 0 -100 -86h-160q27 151 100 230t189 79q63 0 143 -45t129 -45q86 0 100 86h160q-53 -309 -287 -309q-63 0 -144 45t-130 45zM1227 655l137 791h344l-254 -1446h-602l-223 1309l-74 -498l-143 -811h-344l256 1446h606l221 -1288z" />
    <glyph glyph-name="Ograve" unicode="&#xd2;" horiz-adv-x="1654" 
d="M786 1948h308l41 -353h-232zM1304 176q-242 -207 -575 -207q-335 0 -501 207q-167 207 -107 547q58 340 300 547t575 207q334 0 500 -207t108 -547q-60 -340 -300 -547zM509 377q73 -109 274 -109q200 0 312 109t152 346q40 238 -30 346q-72 107 -275 107
q-200 0 -312 -107q-113 -108 -153 -346q-41 -239 32 -346z" />
    <glyph glyph-name="Oacute" unicode="&#xd3;" horiz-adv-x="1654" 
d="M889 1595l168 353h307l-244 -353h-231zM1304 176q-242 -207 -575 -207q-335 0 -501 207q-167 207 -107 547q58 340 300 547t575 207q334 0 500 -207t108 -547q-60 -340 -300 -547zM509 377q73 -109 274 -109q200 0 312 109t152 346q40 238 -30 346q-72 107 -275 107
q-200 0 -312 -107q-113 -108 -153 -346q-41 -239 32 -346z" />
    <glyph glyph-name="Ocircumflex" unicode="&#xd4;" horiz-adv-x="1654" 
d="M1143 1595l-74 293l-178 -293h-264l243 353h418l119 -353h-264zM421 1270q242 207 575 207q334 0 500 -207t108 -547q-60 -340 -300 -547q-242 -207 -575 -207q-335 0 -501 207q-167 207 -107 547q58 340 300 547zM1095 377q112 109 152 346q40 238 -30 346
q-72 107 -275 107q-200 0 -312 -107q-113 -108 -153 -346q-41 -239 32 -346q73 -109 274 -109q200 0 312 109z" />
    <glyph glyph-name="Otilde" unicode="&#xd5;" horiz-adv-x="1654" 
d="M1171 1620q-63 0 -144 45t-130 45q-86 0 -100 -86h-160q27 151 100 230t189 79q64 0 143 -45t129 -45q86 0 100 86h160q-54 -309 -287 -309zM1304 176q-242 -207 -575 -207q-335 0 -501 207q-167 207 -107 547q58 340 300 547t575 207q334 0 500 -207t108 -547
q-60 -340 -300 -547zM509 377q73 -109 274 -109q200 0 312 109t152 346q40 238 -30 346q-72 107 -275 107q-200 0 -312 -107q-113 -108 -153 -346q-41 -239 32 -346z" />
    <glyph glyph-name="Odieresis" unicode="&#xd6;" horiz-adv-x="1654" 
d="M676 1630l51 289h297l-51 -289h-297zM1071 1630l49 289h297l-51 -289h-295zM1304 176q-242 -207 -575 -207q-335 0 -501 207q-167 207 -107 547q58 340 300 547t575 207q334 0 500 -207t108 -547q-60 -340 -300 -547zM509 377q73 -109 274 -109q200 0 312 109t152 346
q40 238 -30 346q-72 107 -275 107q-200 0 -312 -107q-113 -108 -153 -346q-41 -239 32 -346z" />
    <glyph glyph-name="multiply" unicode="&#xd7;" horiz-adv-x="968" 
d="M811 942l121 -147l-297 -252l209 -254l-172 -146l-209 254l-299 -254l-121 144l299 256l-211 254l172 145l211 -254z" />
    <glyph glyph-name="Oslash" unicode="&#xd8;" horiz-adv-x="1654" 
d="M1356 1559h327l-210 -263q195 -212 131 -573q-58 -340 -300 -547t-575 -207q-156 0 -285 51l-125 -155h-327l244 303q-176 206 -115 555q58 340 300 547t574 207q142 0 260 -41zM477 723q-29 -165 -4 -260l567 704q-39 7 -98 9q-200 0 -312 -107q-113 -108 -153 -346z
M1247 723q31 186 -4 291l-588 -731q51 -14 127 -15q201 0 313 109t152 346z" />
    <glyph glyph-name="Ugrave" unicode="&#xd9;" horiz-adv-x="1568" 
d="M743 1948h308l41 -353h-232zM141 512l164 934h348l-159 -903q-25 -144 33 -208.5t213 -64.5t235 64.5t104 208.5l160 903h348l-166 -934q-44 -245 -245 -393q-202 -150 -490 -150q-290 0 -438 150q-150 149 -107 393z" />
    <glyph glyph-name="Uacute" unicode="&#xda;" horiz-adv-x="1568" 
d="M844 1595l168 353h307l-244 -353h-231zM141 512l164 934h348l-159 -903q-25 -144 33 -208.5t213 -64.5t235 64.5t104 208.5l160 903h348l-166 -934q-44 -245 -245 -393q-202 -150 -490 -150q-290 0 -438 150q-150 149 -107 393z" />
    <glyph glyph-name="Ucircumflex" unicode="&#xdb;" horiz-adv-x="1568" 
d="M1100 1595l-74 293l-178 -293h-264l243 353h418l119 -353h-264zM1079 543l160 903h348l-166 -934q-44 -245 -245 -393q-202 -150 -490 -150q-290 0 -438 150q-150 149 -107 393l164 934h348l-159 -903q-25 -144 33 -208.5t213 -64.5t235 64.5t104 208.5z" />
    <glyph glyph-name="Udieresis" unicode="&#xdc;" horiz-adv-x="1568" 
d="M631 1630l51 289h297l-51 -289h-297zM1026 1630l49 289h297l-51 -289h-295zM141 512l164 934h348l-159 -903q-25 -144 33 -208.5t213 -64.5t235 64.5t104 208.5l160 903h348l-166 -934q-44 -245 -245 -393q-202 -150 -490 -150q-290 0 -438 150q-150 149 -107 393z" />
    <glyph glyph-name="Yacute" unicode="&#xdd;" horiz-adv-x="1419" 
d="M956 1948h308l-244 -353h-232zM1237 1446h358l-727 -1045l-71 -401h-348l69 399l-358 1047h377l159 -483l62 -258l153 258z" />
    <glyph glyph-name="Thorn" unicode="&#xde;" horiz-adv-x="1361" 
d="M627 1202h368q209 0 315 -130q105 -130 66 -343q-37 -213 -193 -343q-157 -130 -376 -130h-346l-45 -256h-348l256 1446h346zM1020 729q18 105 -21 153t-145 48h-274l-72 -402h274q106 0 163 48t75 153z" />
    <glyph glyph-name="germandbls" unicode="&#xdf;" horiz-adv-x="1480" 
d="M1139 879q-94 -46 -126 -71q-30 -24 -36 -58q-4 -34 22.5 -55.5t102.5 -39.5q196 -41 273 -126t52 -222q-28 -151 -169 -245q-140 -93 -345 -93q-203 0 -309 100q-106 99 -78 261h303q-14 -78 14.5 -112t108.5 -34q131 0 146 92q10 50 -22 79q-30 27 -144 53
q-326 72 -287 297q19 112 88 190q67 76 203 141q84 38 122 72t46 76q12 72 -40.5 105.5t-180.5 33.5q-150 0 -226.5 -48t-95.5 -153l-196 -1122h-326l207 1174q32 187 218 299q187 112 462 112q261 0 401 -106q141 -107 111 -281q-33 -190 -299 -319z" />
    <glyph glyph-name="agrave" unicode="&#xe0;" horiz-adv-x="1202" 
d="M793 1559l41 -353h-232l-117 353h308zM1120 227h2l-41 -227q-80 -20 -166 -20q-126 0 -180.5 52t-42.5 163q-62 -103 -168 -164q-109 -62 -243 -62q-139 0 -213 72q-73 72 -54 190q41 226 357 281q314 56 381 80l6 33q20 114 -9.5 165.5t-113.5 51.5q-86 0 -133 -51
t-68 -164h-311q38 210 193 335t372 125q213 0 318 -116q104 -117 69 -318l-53 -301q-14 -83 2 -103q16 -22 96 -22zM457 190q100 0 168.5 52.5t91.5 152.5l10 58q-62 -19 -221 -58q-85 -19 -119 -43q-31 -24 -39 -71q-10 -43 18 -67t91 -24z" />
    <glyph glyph-name="aacute" unicode="&#xe1;" horiz-adv-x="1202" 
d="M752 1559h307l-244 -353h-231zM1120 227h2l-41 -227q-80 -20 -166 -20q-126 0 -180.5 52t-42.5 163q-62 -103 -168 -164q-109 -62 -243 -62q-139 0 -213 72q-73 72 -54 190q41 226 357 281q314 56 381 80l6 33q20 114 -9.5 165.5t-113.5 51.5q-86 0 -133 -51t-68 -164
h-311q38 210 193 335t372 125q213 0 318 -116q104 -117 69 -318l-53 -301q-14 -83 2 -103q16 -22 96 -22zM457 190q100 0 168.5 52.5t91.5 152.5l10 58q-62 -19 -221 -58q-85 -19 -119 -43q-31 -24 -39 -71q-10 -43 18 -67t91 -24z" />
    <glyph glyph-name="acircumflex" unicode="&#xe2;" horiz-adv-x="1202" 
d="M838 1206l-74 293l-178 -293h-264l243 353h418l119 -353h-264zM1120 227h2l-41 -227q-80 -20 -166 -20q-126 0 -180.5 52t-42.5 163q-62 -103 -168 -164q-109 -62 -243 -62q-139 0 -213 72q-73 72 -54 190q41 226 357 281q314 56 381 80l6 33q20 114 -9.5 165.5
t-113.5 51.5q-86 0 -133 -51t-68 -164h-311q38 210 193 335t372 125q213 0 318 -116q104 -117 69 -318l-53 -301q-14 -83 2 -103q16 -22 96 -22zM457 190q100 0 168.5 52.5t91.5 152.5l10 58q-62 -19 -221 -58q-85 -19 -119 -43q-31 -24 -39 -71q-10 -43 18 -67t91 -24z" />
    <glyph glyph-name="atilde" unicode="&#xe3;" horiz-adv-x="1202" 
d="M592 1321q-86 0 -100 -86h-160q27 151 100 230t189 79q63 0 143 -45t129 -45q86 0 100 86h160q-53 -309 -287 -309q-63 0 -144 45t-130 45zM1075 653l-53 -301q-14 -83 2 -103q16 -22 96 -22h2l-41 -227q-80 -20 -166 -20q-126 0 -180.5 52t-42.5 163q-62 -103 -168 -164
q-109 -62 -243 -62q-139 0 -213 72q-73 72 -54 190q41 226 357 281q314 56 381 80l6 33q20 114 -9.5 165.5t-113.5 51.5q-86 0 -133 -51t-68 -164h-311q38 210 193 335t372 125q213 0 318 -116q104 -117 69 -318zM457 190q100 0 168.5 52.5t91.5 152.5l10 58
q-62 -19 -221 -58q-85 -19 -119 -43q-31 -24 -39 -71q-10 -43 18 -67t91 -24z" />
    <glyph glyph-name="adieresis" unicode="&#xe4;" horiz-adv-x="1202" 
d="M422 1530h297l-51 -289h-297zM815 1530h297l-51 -289h-295zM1120 227h2l-41 -227q-80 -20 -166 -20q-126 0 -180.5 52t-42.5 163q-62 -103 -168 -164q-109 -62 -243 -62q-139 0 -213 72q-73 72 -54 190q41 226 357 281q314 56 381 80l6 33q20 114 -9.5 165.5t-113.5 51.5
q-86 0 -133 -51t-68 -164h-311q38 210 193 335t372 125q213 0 318 -116q104 -117 69 -318l-53 -301q-14 -83 2 -103q16 -22 96 -22zM457 190q100 0 168.5 52.5t91.5 152.5l10 58q-62 -19 -221 -58q-85 -19 -119 -43q-31 -24 -39 -71q-10 -43 18 -67t91 -24z" />
    <glyph glyph-name="aring" unicode="&#xe5;" horiz-adv-x="1202" 
d="M711 1198q-93 0 -143 51t-35 133q13 80 82 134q67 51 161 51q95 0 144 -51.5t35 -133.5q-15 -82 -81 -133q-68 -51 -163 -51zM670 1382q-7 -33 9 -49.5t54 -15.5q74 0 86 66q12 65 -63 65q-78 0 -86 -66zM1120 227h2l-41 -227q-80 -20 -166 -20q-126 0 -180.5 52
t-42.5 163q-62 -103 -168 -164q-109 -62 -243 -62q-139 0 -213 72q-73 72 -54 190q41 226 357 281q314 56 381 80l6 33q20 114 -9.5 165.5t-113.5 51.5q-86 0 -133 -51t-68 -164h-311q38 210 193 335t372 125q213 0 318 -116q104 -117 69 -318l-53 -301q-14 -83 2 -103
q16 -22 96 -22zM457 190q100 0 168.5 52.5t91.5 152.5l10 58q-62 -19 -221 -58q-85 -19 -119 -43q-31 -24 -39 -71q-10 -43 18 -67t91 -24z" />
    <glyph glyph-name="ae" unicode="&#xe6;" horiz-adv-x="1908" 
d="M1401 1087q239 0 360 -136t82 -359l-24 -137h-748q-10 -126 34.5 -184t151.5 -58q199 0 222 135l315 2q-28 -172 -191 -276q-163 -105 -399 -105q-162 0 -272.5 70t-153.5 199q-62 -120 -184 -194q-123 -75 -280 -75q-158 0 -239 72q-80 72 -61 190q41 225 365 281
q314 56 381 80l6 33q20 114 -9.5 165.5t-113.5 51.5q-86 0 -133 -51t-68 -164h-311q37 207 193 334q154 126 372 126q216 0 308 -137q170 137 397 137zM1104 629l422 2q12 111 -28.5 162t-139.5 51q-97 0 -159 -52.5t-95 -162.5zM465 190q105 0 175.5 57t88.5 167l8 37
q-113 -31 -223 -56q-90 -19 -125 -43q-33 -24 -41 -71q-18 -91 117 -91z" />
    <glyph glyph-name="ccedilla" unicode="&#xe7;" horiz-adv-x="1222" 
d="M1167 635h-315q18 106 -18.5 154.5t-135.5 48.5q-120 0 -186.5 -73.5t-95.5 -235.5t12.5 -236t161.5 -74q192 0 221 180h315q-32 -177 -167 -290q-136 -115 -336 -136l-39 -77h30q80 0 121 -45.5t29 -118.5q-16 -80 -78.5 -129t-150.5 -49h-224l25 139h158q53 0 61 41
q4 20 -8 30.5t-41 10.5h-137l18 114l51 88q-205 33 -301 181q-96 147 -57 370q45 252 226 406q182 153 435 153q227 0 344 -124t82 -328z" />
    <glyph glyph-name="egrave" unicode="&#xe8;" horiz-adv-x="1243" 
d="M836 1559l41 -353h-232l-117 353h308zM735 1087q239 0 360 -136q122 -137 83 -359l-25 -137h-747q-10 -126 34 -184t152 -58q198 0 221 137h315q-28 -172 -191 -276q-164 -105 -398 -105q-250 0 -377 154q-127 153 -82 405q45 251 225 406q180 153 430 153zM438 629
l422 2q12 111 -28.5 162t-139.5 51q-97 0 -159 -52.5t-95 -162.5z" />
    <glyph glyph-name="eacute" unicode="&#xe9;" horiz-adv-x="1243" 
d="M797 1559h307l-244 -353h-231zM735 1087q239 0 360 -136q122 -137 83 -359l-25 -137h-747q-10 -126 34 -184t152 -58q198 0 221 137h315q-28 -172 -191 -276q-164 -105 -398 -105q-250 0 -377 154q-127 153 -82 405q45 251 225 406q180 153 430 153zM438 629l422 2
q12 111 -28.5 162t-139.5 51q-97 0 -159 -52.5t-95 -162.5z" />
    <glyph glyph-name="ecircumflex" unicode="&#xea;" horiz-adv-x="1243" 
d="M883 1206l-74 293l-178 -293h-264l243 353h418l119 -353h-264zM735 1087q239 0 360 -136q122 -137 83 -359l-25 -137h-747q-10 -126 34 -184t152 -58q198 0 221 137h315q-28 -172 -191 -276q-164 -105 -398 -105q-250 0 -377 154q-127 153 -82 405q45 251 225 406
q180 153 430 153zM438 629l422 2q12 111 -28.5 162t-139.5 51q-97 0 -159 -52.5t-95 -162.5z" />
    <glyph glyph-name="edieresis" unicode="&#xeb;" horiz-adv-x="1243" 
d="M467 1530h297l-51 -289h-297zM860 1530h297l-51 -289h-295zM735 1087q239 0 360 -136q122 -137 83 -359l-25 -137h-747q-10 -126 34 -184t152 -58q198 0 221 137h315q-28 -172 -191 -276q-164 -105 -398 -105q-250 0 -377 154q-127 153 -82 405q45 251 225 406
q180 153 430 153zM438 629l422 2q12 111 -28.5 162t-139.5 51q-97 0 -159 -52.5t-95 -162.5z" />
    <glyph glyph-name="igrave" unicode="&#xec;" horiz-adv-x="579" 
d="M186 1559h308l41 -353h-232zM37 0l186 1057h326l-187 -1057h-325z" />
    <glyph glyph-name="iacute" unicode="&#xed;" horiz-adv-x="579" 
d="M285 1206l168 353h307l-244 -353h-231zM37 0l186 1057h326l-187 -1057h-325z" />
    <glyph glyph-name="icircumflex" unicode="&#xee;" horiz-adv-x="579" 
d="M541 1206l-74 293l-178 -293h-264l243 353h418l119 -353h-264zM362 0h-325l186 1057h326z" />
    <glyph glyph-name="idieresis" unicode="&#xef;" horiz-adv-x="579" 
d="M72 1241l51 289h297l-51 -289h-297zM467 1241l49 289h297l-51 -289h-295zM37 0l186 1057h326l-187 -1057h-325z" />
    <glyph glyph-name="eth" unicode="&#xf0;" horiz-adv-x="1253" 
d="M1184 1571l-178 -156q154 -104 215 -281.5t22 -404.5q-62 -343 -258 -551q-197 -209 -457 -209q-246 0 -369 151q-124 150 -81 394q39 221 188 358q148 136 350 136q128 0 213.5 -61t110.5 -169l2 13q35 180 1 268q-34 90 -152 127l-115 -101h-260l164 142l-269 35
l58 327l358 -63q85 -18 113 -29l84 74h260zM428 295q40 -70 158 -70q116 0 180 69q64 68 92 222q27 145 -13 212t-155 67q-119 0 -185.5 -68t-90.5 -213q-27 -149 14 -219z" />
    <glyph glyph-name="ntilde" unicode="&#xf1;" horiz-adv-x="1320" 
d="M684 1321q-86 0 -100 -86h-160q27 151 100 230t189 79q63 0 143 -45t129 -45q86 0 100 86h160q-53 -309 -287 -309q-63 0 -144 45t-130 45zM932 1087q172 0 251 -98t48 -274l-127 -715h-326l105 592q23 120 -10.5 171.5t-135.5 51.5q-231 0 -272 -242l-2 5l-101 -578
h-325l186 1057h314l-43 -246q74 131 188.5 203.5t249.5 72.5z" />
    <glyph glyph-name="ograve" unicode="&#xf2;" horiz-adv-x="1290" 
d="M539 1559h307l41 -353h-232zM983 123q-181 -154 -436 -154q-254 0 -383 154q-129 153 -84 405q45 251 227 406q181 153 436 153q254 0 383 -153q129 -154 84 -406t-227 -405zM592 219q119 0 187 74t96 236q28 161 -14 235t-163 74q-119 0 -186 -74t-96 -235
q-29 -162 13 -236t163 -74z" />
    <glyph glyph-name="oacute" unicode="&#xf3;" horiz-adv-x="1290" 
d="M637 1206l168 353h307l-244 -353h-231zM983 123q-181 -154 -436 -154q-254 0 -383 154q-129 153 -84 405q45 251 227 406q181 153 436 153q254 0 383 -153q129 -154 84 -406t-227 -405zM592 219q119 0 187 74t96 236q28 161 -14 235t-163 74q-119 0 -186 -74t-96 -235
q-29 -162 13 -236t163 -74z" />
    <glyph glyph-name="ocircumflex" unicode="&#xf4;" horiz-adv-x="1290" 
d="M891 1206l-74 293l-178 -293h-264l243 353h418l119 -353h-264zM307 934q181 153 436 153q254 0 383 -153q129 -154 84 -406t-227 -405q-181 -154 -436 -154q-254 0 -383 154q-129 153 -84 405q45 251 227 406zM779 293q67 73 96 236q29 161 -14 235q-42 74 -163 74
q-119 0 -186 -74t-96 -235q-29 -162 13 -236t163 -74q119 0 187 74z" />
    <glyph glyph-name="otilde" unicode="&#xf5;" horiz-adv-x="1290" 
d="M920 1231q-63 0 -144 45q-82 45 -131 45q-86 0 -100 -86h-160q27 151 100 230t189 79q64 0 143 -45t129 -45q86 0 101 86h159q-52 -309 -286 -309zM983 123q-181 -154 -436 -154q-254 0 -383 154q-129 153 -84 405q45 251 227 406q181 153 436 153q254 0 383 -153
q129 -154 84 -406t-227 -405zM592 219q119 0 187 74t96 236q28 161 -14 235t-163 74q-119 0 -186 -74t-96 -235q-29 -162 13 -236t163 -74z" />
    <glyph glyph-name="odieresis" unicode="&#xf6;" horiz-adv-x="1290" 
d="M424 1241l51 289h297l-51 -289h-297zM819 1241l49 289h297l-51 -289h-295zM983 123q-181 -154 -436 -154q-254 0 -383 154q-129 153 -84 405q45 251 227 406q181 153 436 153q254 0 383 -153q129 -154 84 -406t-227 -405zM592 219q119 0 187 74t96 236q28 161 -14 235
t-163 74q-119 0 -186 -74t-96 -235q-29 -162 13 -236t163 -74z" />
    <glyph glyph-name="divide" unicode="&#xf7;" horiz-adv-x="1050" 
d="M434 774l47 262h271l-47 -262h-271zM106 653h883l-39 -221h-882zM305 37l45 262h271l-48 -262h-268z" />
    <glyph glyph-name="oslash" unicode="&#xf8;" horiz-adv-x="1290" 
d="M1104 1188h235l-219 -248q135 -156 90 -412q-45 -252 -227 -405q-181 -154 -436 -154q-136 0 -244 47l-141 -159h-238l238 268q-125 155 -82 403q45 251 227 406q181 153 436 153q135 0 234 -43zM416 528q-11 -70 -13 -131l379 428q-33 11 -84 13q-119 0 -186 -74
t-96 -236zM874 528q16 86 11 148l-389 -440q32 -15 96 -17q119 0 186 73.5t96 235.5z" />
    <glyph glyph-name="ugrave" unicode="&#xf9;" horiz-adv-x="1308" 
d="M848 1559l41 -353h-232l-116 353h307zM846 459l104 598h324l-184 -1057h-314l39 225q-157 -256 -432 -256q-167 0 -243 100q-77 100 -46 273l127 715h326l-105 -592q-23 -121 9 -172t133 -51q216 0 262 217z" />
    <glyph glyph-name="uacute" unicode="&#xfa;" horiz-adv-x="1308" 
d="M807 1559h307l-244 -353h-231zM846 459l104 598h324l-184 -1057h-314l39 225q-157 -256 -432 -256q-167 0 -243 100q-77 100 -46 273l127 715h326l-105 -592q-23 -121 9 -172t133 -51q216 0 262 217z" />
    <glyph glyph-name="ucircumflex" unicode="&#xfb;" horiz-adv-x="1308" 
d="M895 1206l-74 293l-178 -293h-264l244 353h417l119 -353h-264zM846 459l104 598h324l-184 -1057h-314l39 225q-157 -256 -432 -256q-167 0 -243 100q-77 100 -46 273l127 715h326l-105 -592q-23 -121 9 -172t133 -51q216 0 262 217z" />
    <glyph glyph-name="udieresis" unicode="&#xfc;" horiz-adv-x="1308" 
d="M477 1530h297l-51 -289h-297zM870 1530h297l-51 -289h-295zM846 459l104 598h324l-184 -1057h-314l39 225q-157 -256 -432 -256q-167 0 -243 100q-77 100 -46 273l127 715h326l-105 -592q-23 -121 9 -172t133 -51q216 0 262 217z" />
    <glyph glyph-name="yacute" unicode="&#xfd;" horiz-adv-x="1208" 
d="M754 1559h307l-244 -353h-231zM645 389l311 668h330l-557 -1184q-61 -133 -185 -209t-278 -76q-134 0 -252 21l41 235h199q142 0 186 95l31 61h-238l-122 1057h338l73 -668l15 -268z" />
    <glyph glyph-name="thorn" unicode="&#xfe;" horiz-adv-x="1331" 
d="M905 1087q201 0 295 -153q94 -154 51 -406q-45 -253 -193 -405q-148 -154 -349 -154q-117 0 -198 58.5t-114 167.5l-110 -629h-326l350 1993h314l-133 -758q72 137 179 211.5t234 74.5zM820 293q67 73 96 236q28 160 -13 235q-41 74 -161 74q-121 0 -190 -74.5
t-95 -235.5q-29 -162 12 -235.5t162 -73.5t189 74z" />
    <glyph glyph-name="ydieresis" unicode="&#xff;" horiz-adv-x="1208" 
d="M424 1530h297l-51 -289h-297zM817 1530h297l-51 -289h-295zM645 389l311 668h330l-557 -1184q-61 -133 -185 -209t-278 -76q-134 0 -252 21l41 235h199q142 0 186 95l31 61h-238l-122 1057h338l73 -668l15 -268z" />
    <glyph glyph-name="Amacron" unicode="&#x100;" horiz-adv-x="1564" 
d="M743 1901h586l-45 -248h-584zM1458 0h-362l-47 356h-584l-174 -356h-352l708 1446h613zM788 1020l-192 -395h418l-53 395l-31 313z" />
    <glyph glyph-name="amacron" unicode="&#x101;" horiz-adv-x="1202" 
d="M471 1511h586l-45 -247h-584zM1120 227h2l-41 -227q-80 -20 -166 -20q-126 0 -180.5 52t-42.5 163q-62 -103 -168 -164q-109 -62 -243 -62q-139 0 -213 72q-73 72 -54 190q41 226 357 281q314 56 381 80l6 33q20 114 -9.5 165.5t-113.5 51.5q-86 0 -133 -51t-68 -164
h-311q38 210 193 335t372 125q213 0 318 -116q104 -117 69 -318l-53 -301q-14 -83 2 -103q16 -22 96 -22zM457 190q100 0 168.5 52.5t91.5 152.5l10 58q-62 -19 -221 -58q-85 -19 -119 -43q-31 -24 -39 -71q-10 -43 18 -67t91 -24z" />
    <glyph glyph-name="Abreve" unicode="&#x102;" horiz-adv-x="1564" 
d="M981 1587q-152 0 -221 93.5t-39 267.5h213q-16 -88 3 -127t79 -39q59 0 93 39t50 127h213q-30 -174 -133.5 -267.5t-257.5 -93.5zM1458 0h-362l-47 356h-584l-174 -356h-352l708 1446h613zM788 1020l-192 -395h418l-53 395l-31 313z" />
    <glyph glyph-name="abreve" unicode="&#x103;" horiz-adv-x="1202" 
d="M711 1198q-152 0 -221 93t-39 268h213q-16 -88 3 -127t79 -39q59 0 92.5 38.5t50.5 127.5h213q-30 -174 -133.5 -267.5t-257.5 -93.5zM1120 227h2l-41 -227q-80 -20 -166 -20q-126 0 -180.5 52t-42.5 163q-62 -103 -168 -164q-109 -62 -243 -62q-139 0 -213 72
q-73 72 -54 190q41 226 357 281q314 56 381 80l6 33q20 114 -9.5 165.5t-113.5 51.5q-86 0 -133 -51t-68 -164h-311q38 210 193 335t372 125q213 0 318 -116q104 -117 69 -318l-53 -301q-14 -83 2 -103q16 -22 96 -22zM457 190q100 0 168.5 52.5t91.5 152.5l10 58
q-62 -19 -221 -58q-85 -19 -119 -43q-31 -24 -39 -71q-10 -43 18 -67t91 -24z" />
    <glyph glyph-name="Aogonek" unicode="&#x104;" horiz-adv-x="1564" 
d="M1307 0l-144 -152q-42 -39 -43 -65q-4 -20 8.5 -31.5t40.5 -11.5h111l-33 -186h-262q-79 0 -115 37.5t-26 101.5q12 79 88 149l164 158l-47 356h-584l-174 -356h-352l708 1446h613l198 -1446h-151zM788 1020l-192 -395h418l-53 395l-31 313z" />
    <glyph glyph-name="aogonek" unicode="&#x105;" horiz-adv-x="1202" 
d="M1020 -12l-131 -140q-42 -39 -43 -65q-4 -21 8 -32t41 -11h111l-33 -186h-262q-79 0 -115.5 37.5t-26.5 101.5q12 79 88 149l154 150q-137 38 -119 203q-62 -103 -168 -164q-109 -62 -243 -62q-139 0 -213 72q-73 72 -54 190q41 226 357 281q314 56 381 80l6 33
q20 114 -9.5 165.5t-113.5 51.5q-86 0 -133 -51t-68 -164h-311q38 210 193 335t372 125q213 0 318 -116q104 -117 69 -318l-53 -301q-14 -83 2 -103q16 -22 96 -22h2l-41 -227q-19 -6 -61 -12zM457 190q100 0 168.5 52.5t91.5 152.5l10 58q-62 -19 -221 -58
q-85 -19 -119 -43q-31 -24 -39 -71q-10 -43 18 -67t91 -24z" />
    <glyph glyph-name="Cacute" unicode="&#x106;" horiz-adv-x="1550" 
d="M868 1595l168 353h307l-243 -353h-232zM224 176q-163 206 -103 547q58 339 296 547q235 207 562 207q290 0 448 -157q158 -158 113 -417h-344q25 143 -39.5 208t-230.5 65q-193 0 -300 -107q-109 -109 -149 -346q-41 -240 27.5 -348.5t261.5 -108.5q168 0 253 59.5
t109 192.5h345q-43 -251 -255 -400t-505 -149q-325 0 -489 207z" />
    <glyph glyph-name="cacute" unicode="&#x107;" horiz-adv-x="1222" 
d="M621 1206l167 353h308l-244 -353h-231zM811 399h315q-34 -194 -193 -312q-158 -118 -388 -118q-255 0 -382 154q-128 153 -83 405t226 406q182 153 435 153q227 0 344 -124t82 -328h-315q18 106 -18.5 154.5t-135.5 48.5q-120 0 -186.5 -73.5t-95.5 -235.5t12.5 -236
t161.5 -74q192 0 221 180z" />
    <glyph glyph-name="Ccircumflex" unicode="&#x108;" horiz-adv-x="1550" 
d="M1124 1595l-73 293l-179 -293h-264l244 353h418l119 -353h-265zM1540 903h-344q25 143 -39.5 208t-230.5 65q-193 0 -300 -107q-109 -109 -149 -346q-41 -240 27.5 -348.5t261.5 -108.5q168 0 253 59.5t109 192.5h345q-43 -251 -255 -400t-505 -149q-325 0 -489 207
q-163 206 -103 547q58 339 296 547q235 207 562 207q290 0 448 -157q158 -158 113 -417z" />
    <glyph glyph-name="ccircumflex" unicode="&#x109;" horiz-adv-x="1222" 
d="M874 1206l-73 293l-178 -293h-265l244 353h418l119 -353h-265zM1167 635h-315q18 106 -18.5 154.5t-135.5 48.5q-120 0 -186.5 -73.5t-95.5 -235.5t12.5 -236t161.5 -74q192 0 221 180h315q-34 -194 -193 -312q-158 -118 -388 -118q-255 0 -382 154q-128 153 -83 405
t226 406q182 153 435 153q227 0 344 -124t82 -328z" />
    <glyph glyph-name="Cdotaccent" unicode="&#x10a;" horiz-adv-x="1550" 
d="M829 1630l52 289h346l-51 -289h-347zM224 176q-163 206 -103 547q58 339 296 547q235 207 562 207q290 0 448 -157q158 -158 113 -417h-344q25 143 -39.5 208t-230.5 65q-193 0 -300 -107q-109 -109 -149 -346q-41 -240 27.5 -348.5t261.5 -108.5q168 0 253 59.5
t109 192.5h345q-43 -251 -255 -400t-505 -149q-325 0 -489 207z" />
    <glyph glyph-name="cdotaccent" unicode="&#x10b;" horiz-adv-x="1222" 
d="M580 1241l51 289h346l-51 -289h-346zM811 399h315q-34 -194 -193 -312q-158 -118 -388 -118q-255 0 -382 154q-128 153 -83 405t226 406q182 153 435 153q227 0 344 -124t82 -328h-315q18 106 -18.5 154.5t-135.5 48.5q-120 0 -186.5 -73.5t-95.5 -235.5t12.5 -236
t161.5 -74q192 0 221 180z" />
    <glyph glyph-name="Ccaron" unicode="&#x10c;" horiz-adv-x="1550" 
d="M1204 1595h-420l-116 353h262l76 -291l178 291h262zM1540 903h-344q25 143 -39.5 208t-230.5 65q-193 0 -300 -107q-109 -109 -149 -346q-41 -240 27.5 -348.5t261.5 -108.5q168 0 253 59.5t109 192.5h345q-43 -251 -255 -400t-505 -149q-325 0 -489 207
q-163 206 -103 547q58 339 296 547q235 207 562 207q290 0 448 -157q158 -158 113 -417z" />
    <glyph glyph-name="ccaron" unicode="&#x10d;" horiz-adv-x="1222" 
d="M956 1206h-419l-117 353h262l76 -291l178 291h262zM741 1087q227 0 344 -124t82 -328h-315q18 106 -18.5 154.5t-135.5 48.5q-120 0 -186.5 -73.5t-95.5 -235.5t12.5 -236t161.5 -74q192 0 221 180h315q-34 -194 -193 -312q-158 -118 -388 -118q-255 0 -382 154
q-128 153 -83 405t226 406q182 153 435 153z" />
    <glyph glyph-name="Dcaron" unicode="&#x10e;" horiz-adv-x="1599" 
d="M1194 1595h-420l-117 353h263l75 -291l179 291h262zM324 1446h624q326 0 492 -198q166 -199 109 -525q-59 -327 -293 -524q-235 -199 -564 -199h-624zM1192 723q74 432 -311 432h-263l-153 -870h264q385 0 463 438z" />
    <glyph glyph-name="dcaron" unicode="&#x10f;" horiz-adv-x="1325" 
d="M934 856l123 703h325l-274 -1559h-311l43 252q-73 -134 -181.5 -208.5t-234.5 -74.5q-200 0 -294 154q-95 154 -50 405t194 406q148 153 349 153q117 0 198.5 -60t112.5 -171zM1468 1386l31 173h303l-37 -213q-19 -120 -124 -193q-105 -72 -257 -72l23 129q90 0 135 29
t57 94zM429 293q42 -74 163 -74t188 73q66 73 94 236q29 162 -13 236t-163 74q-119 0 -186 -74t-96 -235q-29 -163 13 -236z" />
    <glyph glyph-name="Dcroat" unicode="&#x110;" horiz-adv-x="1599" 
d="M324 1446h624q326 0 492 -198q166 -199 109 -525q-59 -327 -293 -524q-235 -199 -564 -199h-624l106 604h-168l43 242h168zM1192 723q74 432 -311 432h-263l-53 -309h289l-43 -242h-289l-57 -319h264q385 0 463 438z" />
    <glyph glyph-name="dslash" unicode="&#x111;" horiz-adv-x="1325" 
d="M1360 1427h127l-39 -221h-127l-213 -1206h-311l43 252q-73 -134 -181.5 -208.5t-234.5 -74.5q-200 0 -294 154q-95 154 -50 405t194 406q148 153 349 153q117 0 198.5 -60t112.5 -171l61 350h-411l39 221h411l23 132h325zM429 293q42 -74 163 -74t188 73q66 73 94 236
q29 162 -13 236t-163 74q-119 0 -186 -74t-96 -235q-29 -163 13 -236z" />
    <glyph glyph-name="Emacron" unicode="&#x112;" horiz-adv-x="1308" 
d="M637 1901h586l-45 -248h-584zM1376 1446l-51 -291h-707l-51 -293h672l-45 -266h-674l-53 -305h715l-52 -291h-1062l256 1446h1052z" />
    <glyph glyph-name="emacron" unicode="&#x113;" horiz-adv-x="1243" 
d="M516 1511h586l-45 -247h-584zM735 1087q239 0 360 -136q122 -137 83 -359l-25 -137h-747q-10 -126 34 -184t152 -58q198 0 221 137h315q-28 -172 -191 -276q-164 -105 -398 -105q-250 0 -377 154q-127 153 -82 405q45 251 225 406q180 153 430 153zM438 629l422 2
q12 111 -28.5 162t-139.5 51q-97 0 -159 -52.5t-95 -162.5z" />
    <glyph glyph-name="Ebreve" unicode="&#x114;" horiz-adv-x="1308" 
d="M874 1587q-152 0 -221 93.5t-39 267.5h213q-16 -88 3.5 -127t79.5 -39q59 0 92.5 39t50.5 127h213q-30 -174 -134 -267.5t-258 -93.5zM1376 1446l-51 -291h-707l-51 -293h672l-45 -266h-674l-53 -305h715l-52 -291h-1062l256 1446h1052z" />
    <glyph glyph-name="ebreve" unicode="&#x115;" horiz-adv-x="1243" 
d="M754 1198q-152 0 -221 93t-39 268h213q-16 -88 3 -127t79 -39q59 0 92.5 38.5t50.5 127.5h213q-30 -174 -133.5 -267.5t-257.5 -93.5zM735 1087q239 0 360 -136q122 -137 83 -359l-25 -137h-747q-10 -126 34 -184t152 -58q198 0 221 137h315q-28 -172 -191 -276
q-164 -105 -398 -105q-250 0 -377 154q-127 153 -82 405q45 251 225 406q180 153 430 153zM438 629l422 2q12 111 -28.5 162t-139.5 51q-97 0 -159 -52.5t-95 -162.5z" />
    <glyph glyph-name="Edotaccent" unicode="&#x116;" horiz-adv-x="1308" 
d="M760 1919h346l-51 -289h-346zM1376 1446l-51 -291h-707l-51 -293h672l-45 -266h-674l-53 -305h715l-52 -291h-1062l256 1446h1052z" />
    <glyph glyph-name="edotaccent" unicode="&#x117;" horiz-adv-x="1243" 
d="M639 1530h346l-51 -289h-346zM735 1087q239 0 360 -136q122 -137 83 -359l-25 -137h-747q-10 -126 34 -184t152 -58q198 0 221 137h315q-28 -172 -191 -276q-164 -105 -398 -105q-250 0 -377 154q-127 153 -82 405q45 251 225 406q180 153 430 153zM438 629l422 2
q12 111 -28.5 162t-139.5 51q-97 0 -159 -52.5t-95 -162.5z" />
    <glyph glyph-name="Eogonek" unicode="&#x118;" horiz-adv-x="1308" 
d="M1376 1446l-51 -291h-707l-51 -293h672l-45 -266h-674l-53 -305h715l-52 -291h-16l-143 -152q-42 -39 -43 -65q-4 -21 8 -32t41 -11h110l-32 -186h-262q-79 0 -115.5 37.5t-26.5 101.5q12 79 88 149l164 158h-835l256 1446h1052z" />
    <glyph glyph-name="eogonek" unicode="&#x119;" horiz-adv-x="1243" 
d="M735 1087q239 0 360 -136q122 -137 83 -359l-25 -137h-747q-10 -126 34 -184t152 -58q198 0 221 137h315q-20 -128 -117 -219q-99 -93 -247 -133l-141 -150q-42 -39 -43 -65q-4 -21 8 -32t41 -11h110l-32 -186h-263q-79 0 -115 37.5t-26 101.5q12 79 88 149l131 127
q-244 4 -365 158q-122 155 -77 401q45 251 225 406q180 153 430 153zM438 629l422 2q12 111 -28.5 162t-139.5 51q-97 0 -159 -52.5t-95 -162.5z" />
    <glyph glyph-name="Ecaron" unicode="&#x11a;" horiz-adv-x="1308" 
d="M1085 1595h-419l-117 353h262l76 -291l178 291h262zM1376 1446l-51 -291h-707l-51 -293h672l-45 -266h-674l-53 -305h715l-52 -291h-1062l256 1446h1052z" />
    <glyph glyph-name="ecaron" unicode="&#x11b;" horiz-adv-x="1243" 
d="M965 1206h-420l-117 353h262l76 -291l178 291h262zM735 1087q239 0 360 -136q122 -137 83 -359l-25 -137h-747q-10 -126 34 -184t152 -58q198 0 221 137h315q-28 -172 -191 -276q-164 -105 -398 -105q-250 0 -377 154q-127 153 -82 405q45 251 225 406q180 153 430 153z
M438 629l422 2q12 111 -28.5 162t-139.5 51q-97 0 -159 -52.5t-95 -162.5z" />
    <glyph glyph-name="Gcircumflex" unicode="&#x11c;" horiz-adv-x="1613" 
d="M1145 1595l-74 293l-178 -293h-264l243 353h418l119 -353h-264zM1569 920h-344q25 133 -44 194.5t-243 61.5q-200 0 -310 -107q-111 -109 -151 -346q-41 -242 30 -350q70 -109 271 -109q177 0 269 67.5t122 219.5h-411l43 237h753l-137 -788h-303l66 369
q-151 -398 -545 -400q-293 0 -434 202q-142 202 -82 540q62 349 301 557q239 209 571 209q303 0 463 -153q160 -154 115 -404z" />
    <glyph glyph-name="gcircumflex" unicode="&#x11d;" horiz-adv-x="1173" 
d="M1317 1264l-43 -244q-186 0 -223 -55q92 -98 65 -248q-32 -165 -184 -268q-154 -105 -385 -105q-139 0 -232 37q-18 -26 -24 -55q-8 -45 19.5 -63.5t99.5 -18.5h358q166 0 254 -82t65 -213q-29 -164 -204 -263q-176 -98 -445 -98q-265 0 -405 73q-142 73 -121 196
q8 59 59 103t129 60q-98 66 -80 181q27 144 201 227q-149 106 -115 289q29 169 183 269q154 101 387 101q154 0 262 -47q34 115 119 166h-234l-73 293l-179 -293h-264l244 353h418l114 -338q85 43 234 43zM788 717q14 78 -21 113.5t-128 35.5q-97 0 -143 -34t-63 -115
t18.5 -116.5t134.5 -35.5q93 0 140.5 35.5t61.5 116.5zM659 -16h-428q-16 -25 -22 -68q-13 -76 39 -103q54 -26 225 -26t231 22t72 91q8 47 -17.5 65.5t-99.5 18.5z" />
    <glyph glyph-name="Gbreve" unicode="&#x11e;" horiz-adv-x="1613" 
d="M1016 1587q-152 0 -221 93.5t-39 267.5h213q-16 -88 3 -127t79 -39q59 0 93 39t50 127h213q-30 -174 -133.5 -267.5t-257.5 -93.5zM1569 920h-344q25 133 -44 194.5t-243 61.5q-200 0 -310 -107q-111 -109 -151 -346q-41 -242 30 -350q70 -109 271 -109q177 0 269 67.5
t122 219.5h-411l43 237h753l-137 -788h-303l66 369q-151 -398 -545 -400q-293 0 -434 202q-142 202 -82 540q62 349 301 557q239 209 571 209q303 0 463 -153q160 -154 115 -404z" />
    <glyph glyph-name="gbreve" unicode="&#x11f;" horiz-adv-x="1173" 
d="M696 1198q-152 0 -221 93t-39 268h213q-16 -88 3.5 -127t79.5 -39t93 38.5t49 127.5h213q-30 -174 -133.5 -267.5t-257.5 -93.5zM1317 1264l-43 -244q-186 0 -223 -55q92 -98 65 -248q-32 -165 -184 -268q-154 -105 -385 -105q-139 0 -232 37q-18 -26 -24 -55
q-8 -45 19.5 -63.5t99.5 -18.5h358q166 0 254 -82t65 -213q-29 -164 -204 -263q-176 -98 -445 -98q-265 0 -405 73q-142 73 -121 196q8 59 59 103t129 60q-98 66 -80 181q27 144 201 227q-149 106 -115 289q29 169 183 269q154 101 387 101q154 0 262 -47q36 116 124.5 170
t254.5 54zM788 717q14 78 -21 113.5t-128 35.5q-97 0 -143 -34t-63 -115t18.5 -116.5t134.5 -35.5q93 0 140.5 35.5t61.5 116.5zM659 -16h-428q-16 -25 -22 -68q-13 -76 39 -103q54 -26 225 -26t231 22t72 91q8 47 -17.5 65.5t-99.5 18.5z" />
    <glyph glyph-name="Gdotaccent" unicode="&#x120;" horiz-adv-x="1613" 
d="M901 1919h346l-51 -289h-346zM1569 920h-344q25 133 -44 194.5t-243 61.5q-200 0 -310 -107q-111 -109 -151 -346q-41 -242 30 -350q70 -109 271 -109q177 0 269 67.5t122 219.5h-411l43 237h753l-137 -788h-303l66 369q-151 -398 -545 -400q-293 0 -434 202
q-142 202 -82 540q62 349 301 557q239 209 571 209q303 0 463 -153q160 -154 115 -404z" />
    <glyph glyph-name="gdotaccent" unicode="&#x121;" horiz-adv-x="1173" 
d="M580 1530h346l-52 -289h-346zM1317 1264l-43 -244q-186 0 -223 -55q92 -98 65 -248q-32 -165 -184 -268q-154 -105 -385 -105q-139 0 -232 37q-18 -26 -24 -55q-8 -45 19.5 -63.5t99.5 -18.5h358q166 0 254 -82t65 -213q-29 -164 -204 -263q-176 -98 -445 -98
q-265 0 -405 73q-142 73 -121 196q8 59 59 103t129 60q-98 66 -80 181q27 144 201 227q-149 106 -115 289q29 169 183 269q154 101 387 101q154 0 262 -47q36 116 124.5 170t254.5 54zM788 717q14 78 -21 113.5t-128 35.5q-97 0 -143 -34t-63 -115t18.5 -116.5t134.5 -35.5
q93 0 140.5 35.5t61.5 116.5zM659 -16h-428q-16 -25 -22 -68q-13 -76 39 -103q54 -26 225 -26t231 22t72 91q8 47 -17.5 65.5t-99.5 18.5z" />
    <glyph glyph-name="uni0122" unicode="&#x122;" horiz-adv-x="1613" 
d="M1569 920h-344q25 133 -44 194.5t-243 61.5q-200 0 -310 -107q-111 -109 -151 -346q-41 -242 30 -350q70 -109 271 -109q177 0 269 67.5t122 219.5h-411l43 237h753l-137 -788h-303l66 369q-151 -398 -545 -400q-293 0 -434 202q-142 202 -82 540q62 349 301 557
q239 209 571 209q303 0 463 -153q160 -154 115 -404zM653 -369l-131 56l31 172h303l-37 -213q-19 -120 -124 -193q-106 -71 -257 -71l23 129q90 0 135 28.5t57 91.5z" />
    <glyph glyph-name="uni0123" unicode="&#x123;" horiz-adv-x="1173" 
d="M735 1434l142 -56l-31 -172h-316l37 213q22 120 130 191q107 69 264 69l-23 -129q-96 0 -144.5 -27.5t-58.5 -88.5zM1317 1264l-43 -244q-186 0 -223 -55q92 -98 65 -248q-32 -165 -184 -268q-154 -105 -385 -105q-139 0 -232 37q-18 -26 -24 -55q-8 -45 19.5 -63.5
t99.5 -18.5h358q166 0 254 -82t65 -213q-29 -164 -204 -263q-176 -98 -445 -98q-265 0 -405 73q-142 73 -121 196q8 59 59 103t129 60q-98 66 -80 181q27 144 201 227q-149 106 -115 289q29 169 183 269q154 101 387 101q154 0 262 -47q36 116 124.5 170t254.5 54zM788 717
q14 78 -21 113.5t-128 35.5q-97 0 -143 -34t-63 -115t18.5 -116.5t134.5 -35.5q93 0 140.5 35.5t61.5 116.5zM659 -16h-428q-16 -25 -22 -68q-13 -76 39 -103q54 -26 225 -26t231 22t72 91q8 47 -17.5 65.5t-99.5 18.5z" />
    <glyph glyph-name="Hcircumflex" unicode="&#x124;" horiz-adv-x="1656" 
d="M1137 1595l-74 293l-178 -293h-264l243 353h418l119 -353h-264zM1208 874l101 572h348l-256 -1446h-346l102 584h-639l-102 -584h-348l256 1446h346l-101 -572h639z" />
    <glyph glyph-name="hcircumflex" unicode="&#x125;" horiz-adv-x="1320" 
d="M786 1720l-73 293l-178 -293h-265l244 353h418l119 -353h-265zM932 1087q172 0 251 -98t48 -274l-127 -715h-326l105 592q23 120 -10.5 171.5t-135.5 51.5q-231 0 -272 -242v2l-103 -575h-325l274 1559h326l-127 -725q75 121 184 187t238 66z" />
    <glyph glyph-name="Hbar" unicode="&#x126;" horiz-adv-x="1656" 
d="M1630 1290h162l-43 -239h-162l-186 -1051h-346l102 584h-639l-102 -584h-348l186 1051h-174l43 239h174l27 156h346l-27 -156h639l27 156h348zM569 874h639l31 177h-639z" />
    <glyph glyph-name="hbar" unicode="&#x127;" horiz-adv-x="1320" 
d="M932 1087q172 0 251 -98t48 -274l-127 -715h-326l105 592q23 120 -10.5 171.5t-135.5 51.5q-231 0 -272 -242v2l-103 -575h-325l213 1204h-195l39 221h195l22 134h326l-23 -134h344l-38 -221h-345l-65 -370q75 121 184 187t238 66z" />
    <glyph glyph-name="Itilde" unicode="&#x128;" horiz-adv-x="671" 
d="M678 1620q-63 0 -144 45t-131 45q-86 0 -100 -86h-160q27 151 100 230t189 79q64 0 143 -45t130 -45q86 0 100 86h160q-54 -309 -287 -309zM68 0l256 1446h346l-254 -1446h-348z" />
    <glyph glyph-name="itilde" unicode="&#x129;" horiz-adv-x="579" 
d="M567 1231q-63 0 -144 45t-130 45q-86 0 -100 -86h-160q27 151 100 230t189 79q64 0 143 -45t129 -45q86 0 100 86h160q-54 -309 -287 -309zM37 0l186 1057h326l-187 -1057h-325z" />
    <glyph glyph-name="Imacron" unicode="&#x12a;" horiz-adv-x="671" 
d="M285 1901h585l-45 -248h-583zM68 0l256 1446h346l-254 -1446h-348z" />
    <glyph glyph-name="imacron" unicode="&#x12b;" horiz-adv-x="579" 
d="M174 1511h586l-45 -247h-584zM37 0l186 1057h326l-187 -1057h-325z" />
    <glyph glyph-name="Ibreve" unicode="&#x12c;" horiz-adv-x="671" 
d="M700 1948h213q-30 -174 -133.5 -267.5t-257.5 -93.5q-152 0 -221 93.5t-39 267.5h213q-16 -88 3.5 -127t78.5 -39t93 39t50 127zM68 0l256 1446h346l-254 -1446h-348z" />
    <glyph glyph-name="ibreve" unicode="&#x12d;" horiz-adv-x="579" 
d="M590 1559h213q-32 -177 -135 -268q-105 -93 -256 -93q-152 0 -221 93t-39 268h213q-16 -88 3 -127t79 -39q59 0 92.5 38.5t50.5 127.5zM37 0l186 1057h326l-187 -1057h-325z" />
    <glyph glyph-name="Iogonek" unicode="&#x12e;" horiz-adv-x="671" 
d="M416 0l-144 -152q-42 -39 -43 -65q-4 -21 8.5 -32t41.5 -11h110l-33 -186h-262q-79 0 -115 37.5t-26 101.5q12 79 88 149l164 158h-137l256 1446h346z" />
    <glyph glyph-name="iogonek" unicode="&#x12f;" horiz-adv-x="579" 
d="M246 1241l51 289h346l-51 -289h-346zM152 0h-115l186 1057h326l-187 -1057l-143 -152q-42 -39 -43 -65q-4 -20 8.5 -31.5t40.5 -11.5h111l-33 -186h-262q-79 0 -115.5 38t-25.5 101q12 79 88 149z" />
    <glyph glyph-name="Idot" unicode="&#x130;" horiz-adv-x="671" 
d="M356 1630l52 289h346l-52 -289h-346zM68 0l256 1446h346l-254 -1446h-348z" />
    <glyph glyph-name="dotlessi" unicode="&#x131;" horiz-adv-x="579" 
d="M37 0l186 1057h326l-187 -1057h-325z" />
    <glyph glyph-name="IJ" unicode="&#x132;" horiz-adv-x="1302" 
d="M117 264h483q86 0 132 42t63 136l178 1004h348l-182 -1034q-37 -200 -201 -321q-164 -122 -395 -122q-251 0 -469 51zM162 496l168 950h348l-168 -950h-348z" />
    <glyph glyph-name="ij" unicode="&#x133;" horiz-adv-x="1173" 
d="M299 1530h346l-51 -289h-346zM834 1241l49 289h346l-51 -289h-344zM227 1057h324l-186 -1057h-326zM623 -12l188 1069h326l-195 -1100q-28 -166 -153 -268q-125 -101 -302 -101q-84 0 -153 21l39 235h104q66 0 99 33t47 111z" />
    <glyph glyph-name="Jcircumflex" unicode="&#x134;" horiz-adv-x="1318" 
d="M1311 1595l-74 293l-178 -293h-264l243 353h418l119 -353h-264zM829 537l160 909h348l-168 -950q-43 -238 -225 -382q-181 -145 -438 -145q-255 0 -382 154q-128 153 -83 403h340q-25 -135 17 -196.5t161 -61.5q116 0 179.5 63.5t90.5 205.5z" />
    <glyph glyph-name="jcircumflex" unicode="&#x135;" horiz-adv-x="573" 
d="M537 1206l-74 293l-178 -293h-265l244 353h418l119 -353h-264zM35 -12l188 1069h326l-195 -1100q-28 -166 -153 -268q-125 -101 -301 -101q-83 0 -154 21l39 235h104q66 0 99 33t47 111z" />
    <glyph glyph-name="uni0136" unicode="&#x136;" horiz-adv-x="1540" 
d="M1260 1446h413l-753 -713l546 -733h-442l-362 498l-123 194l-121 -692h-350l256 1446h348l-121 -684l188 194zM637 -369l-131 56l31 172h303l-37 -213q-19 -121 -125 -193q-106 -71 -256 -71l22 129q90 0 135.5 28.5t57.5 91.5z" />
    <glyph glyph-name="uni0137" unicode="&#x137;" horiz-adv-x="1284" 
d="M967 1057h368l-532 -504l414 -553h-422l-260 365l-84 135l-89 -500h-325l274 1559h326l-176 -998l131 139zM479 -369l-131 56l31 172h303l-37 -213q-19 -120 -124 -193q-106 -71 -257 -71l23 129q90 0 135 28.5t57 91.5z" />
    <glyph glyph-name="kgreenlandic" unicode="&#x138;" horiz-adv-x="1284" 
d="M967 1057h368l-532 -504l414 -553h-422l-260 365l-84 135l-89 -500h-325l186 1057h326l-88 -496l131 139z" />
    <glyph glyph-name="Lacute" unicode="&#x139;" horiz-adv-x="1228" 
d="M565 1948h307l-243 -353h-232zM670 1446l-203 -1155h670l-52 -291h-1017l256 1446h346z" />
    <glyph glyph-name="lacute" unicode="&#x13a;" horiz-adv-x="649" 
d="M522 2003h307l-243 -352h-232zM305 1559h324l-211 -1199q-12 -68 9 -96t81 -28h61l-41 -236q-80 -20 -172 -20q-149 0 -223 93t-47 244z" />
    <glyph glyph-name="uni013B" unicode="&#x13b;" horiz-adv-x="1228" 
d="M670 1446l-203 -1155h670l-52 -291h-1017l256 1446h346zM510 -369l-131 56l31 172h303l-37 -213q-19 -121 -125 -193q-106 -71 -256 -71l22 129q90 0 135.5 28.5t57.5 91.5z" />
    <glyph glyph-name="uni013C" unicode="&#x13c;" horiz-adv-x="649" 
d="M629 1559l-211 -1199q-12 -68 9 -96t81 -28h61l-41 -236q-80 -20 -172 -20q-149 0 -223 93t-47 244l219 1242h324zM223 -369l-131 56l31 172h303l-37 -213q-19 -120 -124 -193q-106 -71 -257 -71l23 129q90 0 135 28.5t57 91.5z" />
    <glyph glyph-name="Lcaron" unicode="&#x13d;" horiz-adv-x="1228" 
d="M324 1446h346l-203 -1155h670l-52 -291h-1017zM840 1274l30 172h304l-37 -213q-19 -121 -125 -192q-105 -72 -256 -72l22 129q90 0 135 28.5t58 94.5z" />
    <glyph glyph-name="lcaron" unicode="&#x13e;" horiz-adv-x="649" 
d="M305 1559h324l-211 -1199q-12 -68 9 -96t81 -28h61l-41 -236q-80 -20 -172 -20q-149 0 -223 93t-47 244zM733 1386l31 173h303l-37 -213q-19 -120 -124 -193q-105 -72 -257 -72l23 129q90 0 135 29t57 94z" />
    <glyph glyph-name="Ldot" unicode="&#x13f;" horiz-adv-x="1228" 
d="M670 1446l-203 -1155h670l-52 -291h-1017l256 1446h346zM745 973h342l-61 -342h-340z" />
    <glyph glyph-name="ldot" unicode="&#x140;" horiz-adv-x="1091" 
d="M629 1559l-211 -1199q-12 -68 9 -96t81 -28h61l-41 -236q-80 -20 -172 -20q-149 0 -223 93t-47 244l219 1242h324zM629 602l57 322h320l-56 -322h-321z" />
    <glyph glyph-name="Lslash" unicode="&#x141;" horiz-adv-x="1228" 
d="M522 602l-55 -311h670l-52 -291h-1017l84 473l-150 -61l51 282l148 62l123 690h346l-99 -561l418 172l-49 -283z" />
    <glyph glyph-name="lslash" unicode="&#x142;" horiz-adv-x="649" 
d="M678 741l-219 -145l-41 -236q-12 -68 9 -96t81 -28h61l-41 -236q-80 -20 -172 -20q-149 0 -223 93t-47 244l25 142l-140 -90l54 293l137 90l143 807h324l-119 -670l219 145z" />
    <glyph glyph-name="Nacute" unicode="&#x143;" horiz-adv-x="1710" 
d="M1100 1948h307l-244 -353h-231zM1227 655l137 791h344l-254 -1446h-602l-223 1309l-74 -498l-143 -811h-344l256 1446h606l221 -1288z" />
    <glyph glyph-name="nacute" unicode="&#x144;" horiz-adv-x="1320" 
d="M844 1559h307l-244 -353h-231zM932 1087q172 0 251 -98t48 -274l-127 -715h-326l105 592q23 120 -10.5 171.5t-135.5 51.5q-231 0 -272 -242l-2 5l-101 -578h-325l186 1057h314l-43 -246q74 131 188.5 203.5t249.5 72.5z" />
    <glyph glyph-name="uni0145" unicode="&#x145;" horiz-adv-x="1710" 
d="M1227 655l137 791h344l-254 -1446h-602l-223 1309l-74 -498l-143 -811h-344l256 1446h606l221 -1288zM698 -369l-131 56l31 172h303l-37 -213q-19 -120 -124 -193q-106 -71 -257 -71l23 129q90 0 135 28.5t57 91.5z" />
    <glyph glyph-name="uni0146" unicode="&#x146;" horiz-adv-x="1320" 
d="M932 1087q172 0 251 -98t48 -274l-127 -715h-326l105 592q23 120 -10.5 171.5t-135.5 51.5q-231 0 -272 -242l-2 5l-101 -578h-325l186 1057h314l-43 -246q74 131 188.5 203.5t249.5 72.5zM496 -369l-131 56l30 172h303l-36 -213q-19 -121 -125 -193q-106 -71 -256 -71
l22 129q90 0 135 28.5t58 91.5z" />
    <glyph glyph-name="Ncaron" unicode="&#x147;" horiz-adv-x="1710" 
d="M1268 1595h-420l-117 353h262l76 -291l178 291h262zM1227 655l137 791h344l-254 -1446h-602l-223 1309l-74 -498l-143 -811h-344l256 1446h606l221 -1288z" />
    <glyph glyph-name="ncaron" unicode="&#x148;" horiz-adv-x="1320" 
d="M1012 1206h-420l-117 353h262l76 -291l178 291h262zM932 1087q172 0 251 -98t48 -274l-127 -715h-326l105 592q23 120 -10.5 171.5t-135.5 51.5q-231 0 -272 -242l-2 5l-101 -578h-325l186 1057h314l-43 -246q74 131 188.5 203.5t249.5 72.5z" />
    <glyph glyph-name="napostrophe" unicode="&#x149;" horiz-adv-x="1589" 
d="M467 1446l-45 -260q-27 -143 -136 -225t-280 -82l25 135q105 0 158 35.5t67 115.5l-147 76l34 205h324zM1200 1087q171 0 249.5 -98t47.5 -274l-125 -715h-325l104 592q23 120 -11 171.5t-134 51.5q-223 0 -271 -225l-104 -590h-326l187 1057h313l-43 -242
q159 272 438 272z" />
    <glyph glyph-name="Eng" unicode="&#x14a;" horiz-adv-x="1710" 
d="M1227 655l137 791h344l-254 -1446l-8 -55q-27 -160 -154 -259q-128 -98 -303 -98q-88 0 -166 21l41 235h105q66 0 98.5 34t46.5 120v2h-262l-223 1309l-74 -498l-143 -811h-344l256 1446h606l221 -1288z" />
    <glyph glyph-name="eng" unicode="&#x14b;" horiz-adv-x="1323" 
d="M932 1087q172 0 251 -98t48 -274l-135 -776q-31 -166 -156 -268q-125 -101 -301 -101q-82 0 -154 20l41 236h105q66 0 98.5 34t44.5 113l109 619q23 120 -10.5 171.5t-135.5 51.5q-221 0 -268 -219l-104 -596h-326l184 1057h314l-41 -242q75 130 188.5 201t247.5 71z" />
    <glyph glyph-name="Omacron" unicode="&#x14c;" horiz-adv-x="1654" 
d="M776 1901h586l-45 -248h-584zM1304 176q-242 -207 -575 -207q-335 0 -501 207q-167 207 -107 547q58 340 300 547t575 207q334 0 500 -207t108 -547q-60 -340 -300 -547zM509 377q73 -109 274 -109q200 0 312 109t152 346q40 238 -30 346q-72 107 -275 107
q-200 0 -312 -107q-113 -108 -153 -346q-41 -239 32 -346z" />
    <glyph glyph-name="omacron" unicode="&#x14d;" horiz-adv-x="1290" 
d="M524 1511h586l-45 -247h-584zM983 123q-181 -154 -436 -154q-254 0 -383 154q-129 153 -84 405q45 251 227 406q181 153 436 153q254 0 383 -153q129 -154 84 -406t-227 -405zM592 219q119 0 187 74t96 236q28 161 -14 235t-163 74q-119 0 -186 -74t-96 -235
q-29 -162 13 -236t163 -74z" />
    <glyph glyph-name="Obreve" unicode="&#x14e;" horiz-adv-x="1654" 
d="M1194 1948h213q-32 -177 -135 -268q-105 -93 -256 -93q-152 0 -221 93.5t-39 267.5h213q-16 -88 3 -127t79 -39q59 0 93 39t50 127zM1304 176q-242 -207 -575 -207q-335 0 -501 207q-167 207 -107 547q58 340 300 547t575 207q334 0 500 -207t108 -547
q-60 -340 -300 -547zM509 377q73 -109 274 -109q200 0 312 109t152 346q40 238 -30 346q-72 107 -275 107q-200 0 -312 -107q-113 -108 -153 -346q-41 -239 32 -346z" />
    <glyph glyph-name="obreve" unicode="&#x14f;" horiz-adv-x="1290" 
d="M942 1559h213q-32 -177 -135 -268q-105 -93 -256 -93q-152 0 -221 93t-39 268h213q-16 -88 3 -127t79 -39t93.5 38.5t49.5 127.5zM983 123q-181 -154 -436 -154q-254 0 -383 154q-129 153 -84 405q45 251 227 406q181 153 436 153q254 0 383 -153q129 -154 84 -406
t-227 -405zM592 219q119 0 187 74t96 236q28 161 -14 235t-163 74q-119 0 -186 -74t-96 -235q-29 -162 13 -236t163 -74z" />
    <glyph glyph-name="Ohungarumlaut" unicode="&#x150;" horiz-adv-x="1654" 
d="M739 1595l156 353h258l-182 -353h-232zM1059 1595l166 353h307l-242 -353h-231zM1304 176q-242 -207 -575 -207q-335 0 -501 207q-167 207 -107 547q58 340 300 547t575 207q334 0 500 -207t108 -547q-60 -340 -300 -547zM509 377q73 -109 274 -109q200 0 312 109
t152 346q40 238 -30 346q-72 107 -275 107q-200 0 -312 -107q-113 -108 -153 -346q-41 -239 32 -346z" />
    <glyph glyph-name="ohungarumlaut" unicode="&#x151;" horiz-adv-x="1290" 
d="M483 1206l156 353h258l-182 -353h-232zM803 1206l166 353h307l-242 -353h-231zM983 123q-181 -154 -436 -154q-254 0 -383 154q-129 153 -84 405q45 251 227 406q181 153 436 153q254 0 383 -153q129 -154 84 -406t-227 -405zM592 219q119 0 187 74t96 236
q28 161 -14 235t-163 74q-119 0 -186 -74t-96 -235q-29 -162 13 -236t163 -74z" />
    <glyph glyph-name="OE" unicode="&#x152;" horiz-adv-x="2220" 
d="M2290 1446l-54 -291h-688l-51 -293h655l-47 -266h-655l-55 -305h698l-51 -291h-1323q-326 0 -491 199t-107 524q57 326 292 525q234 198 562 198h1315zM784 285h263l153 870h-264q-386 0 -459 -432q-78 -438 307 -438z" />
    <glyph glyph-name="oe" unicode="&#x153;" horiz-adv-x="2031" 
d="M1526 1087q239 0 360 -136q121 -135 80 -359l-22 -137h-750q-10 -126 34.5 -184t151.5 -58q200 0 222 135l315 2q-28 -172 -191 -276q-164 -105 -399 -105q-247 0 -356 172q-175 -172 -424 -172q-254 0 -383 154q-129 153 -84 405q45 251 227 406q181 153 436 153
q251 0 363 -172q175 172 420 172zM1227 627l211 4h211q12 111 -28 162t-140 51q-99 0 -160 -52t-94 -165zM779 293q67 73 96 236q29 161 -14 235q-42 74 -163 74q-119 0 -186 -74t-96 -235q-29 -162 13 -236t163 -74q119 0 187 74z" />
    <glyph glyph-name="Racute" unicode="&#x154;" horiz-adv-x="1417" 
d="M977 1948h307l-244 -353h-231zM1452 1006q-25 -144 -111.5 -252t-218.5 -162l90 -164l187 -428h-389l-232 549h-266l-96 -549h-348l256 1446h741q209 0 316 -120q106 -120 71 -320zM924 1174h-301l-66 -373h301q106 0 161.5 45t74.5 145q16 96 -24 139.5t-146 43.5z" />
    <glyph glyph-name="racute" unicode="&#x155;" horiz-adv-x="860" 
d="M676 1559h307l-244 -353h-231zM537 1057l-50 -277q62 143 161 224q101 83 210 83q60 0 92 -16l-53 -301h-188q-196 0 -248 -205l-99 -565h-325l186 1057h314z" />
    <glyph glyph-name="uni0156" unicode="&#x156;" horiz-adv-x="1417" 
d="M1452 1006q-25 -144 -111.5 -252t-218.5 -162l90 -164l187 -428h-389l-232 549h-266l-96 -549h-348l256 1446h741q209 0 316 -120q106 -120 71 -320zM924 1174h-301l-66 -373h301q106 0 161.5 45t74.5 145q16 96 -24 139.5t-146 43.5zM616 -369l-131 56l31 172h303
l-37 -213q-19 -120 -124 -193q-106 -71 -257 -71l23 129q90 0 135 28.5t57 91.5z" />
    <glyph glyph-name="uni0157" unicode="&#x157;" horiz-adv-x="860" 
d="M858 1087q60 0 92 -16l-53 -301h-188q-196 0 -248 -205l-99 -565h-325l186 1057h314l-50 -277q62 143 161 224q100 83 210 83zM123 -369l-131 56l31 172h303l-37 -213q-19 -121 -125 -193q-106 -71 -256 -71l22 129q90 0 135.5 28.5t57.5 91.5z" />
    <glyph glyph-name="Rcaron" unicode="&#x158;" horiz-adv-x="1417" 
d="M1145 1595h-420l-117 353h262l76 -291l178 291h262zM1452 1006q-25 -144 -111.5 -252t-218.5 -162l90 -164l187 -428h-389l-232 549h-266l-96 -549h-348l256 1446h741q209 0 316 -120q106 -120 71 -320zM924 1174h-301l-66 -373h301q106 0 161.5 45t74.5 145
q16 96 -24 139.5t-146 43.5z" />
    <glyph glyph-name="rcaron" unicode="&#x159;" horiz-adv-x="860" 
d="M844 1206h-420l-117 353h262l76 -291l178 291h262zM537 1057l-50 -277q62 143 161 224q101 83 210 83q60 0 92 -16l-53 -301h-188q-196 0 -248 -205l-99 -565h-325l186 1057h314z" />
    <glyph glyph-name="Sacute" unicode="&#x15a;" horiz-adv-x="1435" 
d="M791 1595l167 353h308l-244 -353h-231zM623 -31q-294 0 -452 137q-157 136 -118 357h344q-20 -114 45 -165.5t230 -51.5q293 0 319 137q7 43 -6 70q-14 27 -89 58q-79 33 -226 58q-291 51 -403 154q-112 102 -81 289q38 210 230 337q193 128 471 128q277 0 425 -137
q146 -138 107 -363h-344q20 117 -37 170t-204 53q-262 0 -287 -141q-12 -68 52 -107q63 -39 271 -78q296 -52 406 -159q108 -106 76 -293q-34 -204 -235 -329q-200 -124 -494 -124z" />
    <glyph glyph-name="sacute" unicode="&#x15b;" horiz-adv-x="1130" 
d="M543 1206l168 353h307l-244 -353h-231zM475 -31q-236 0 -360 100q-125 100 -97 263h316q-12 -76 31 -110t151 -34q182 0 201 93q8 48 -35 74q-44 26 -193 48q-217 29 -307 108.5t-63 223.5q27 157 176 255q148 97 367 97q221 0 338 -102q115 -102 87 -268h-315
q14 78 -22 114.5t-129 36.5q-167 0 -187 -98q-10 -49 36 -74q48 -26 196 -47q226 -29 315 -108q89 -80 66 -224q-29 -159 -186 -253q-158 -95 -386 -95z" />
    <glyph glyph-name="Scircumflex" unicode="&#x15c;" horiz-adv-x="1435" 
d="M1044 1595l-73 293l-178 -293h-265l244 353h418l119 -353h-265zM1419 977h-344q20 117 -37 170t-204 53q-262 0 -287 -141q-12 -68 52 -107q63 -39 271 -78q296 -52 406 -159q108 -106 76 -293q-34 -204 -236 -329q-200 -124 -493 -124q-294 0 -452 137
q-157 136 -118 357h344q-20 -114 45 -165.5t230 -51.5q293 0 319 137q7 43 -6 70q-14 27 -89 58q-79 33 -226 58q-291 51 -403 154q-112 102 -81 289q38 210 230 337q193 128 471 128q277 0 425 -137q146 -138 107 -363z" />
    <glyph glyph-name="scircumflex" unicode="&#x15d;" horiz-adv-x="1130" 
d="M797 1206l-74 293l-178 -293h-264l243 353h418l119 -353h-264zM1087 717h-315q14 78 -22 114.5t-129 36.5q-167 0 -187 -98q-10 -49 36 -74q48 -26 196 -47q226 -29 315 -108q89 -80 66 -224q-29 -158 -185 -253q-158 -95 -387 -95q-236 0 -360 100q-125 100 -97 263h316
q-12 -76 31 -110t151 -34q182 0 201 93q8 48 -35 74q-44 26 -193 48q-217 29 -307 108.5t-63 223.5q27 157 176 255q148 97 367 97q221 0 338 -102q115 -102 87 -268z" />
    <glyph glyph-name="Scedilla" unicode="&#x15e;" horiz-adv-x="1435" 
d="M1419 977h-344q20 117 -37 170t-204 53q-262 0 -287 -141q-12 -68 52 -107q63 -39 271 -78q296 -52 406 -159q108 -106 76 -293q-33 -183 -201 -305q-168 -121 -420 -144l-41 -77h31q80 0 121 -45.5t28 -118.5q-16 -80 -78.5 -129t-150.5 -49h-223l24 139h158q53 0 62 41
q4 20 -8.5 30.5t-41.5 10.5h-137l19 114l47 82q-257 19 -390 154q-132 133 -98 338h344q-20 -114 45 -165.5t230 -51.5q293 0 319 137q7 43 -6 70q-14 27 -89 58q-79 33 -226 58q-291 51 -403 154q-112 102 -81 289q38 210 230 337q193 128 471 128q277 0 425 -137
q146 -138 107 -363z" />
    <glyph glyph-name="scedilla" unicode="&#x15f;" horiz-adv-x="1130" 
d="M1087 717h-315q14 78 -22 114.5t-129 36.5q-167 0 -187 -98q-10 -49 36 -74q48 -26 196 -47q226 -29 315 -108q89 -80 66 -224q-26 -138 -152 -229q-129 -92 -317 -113l-41 -79h30q80 0 121 -45.5t29 -118.5q-17 -80 -79 -129t-151 -49h-223l25 139h157q53 0 62 41
q4 20 -8.5 30.5t-40.5 10.5h-137l18 114l47 84q-196 18 -294 115q-99 96 -75 244h316q-12 -76 31 -110t151 -34q182 0 201 93q8 48 -35 74q-44 26 -193 48q-217 29 -307 108.5t-63 223.5q27 157 176 255q148 97 367 97q221 0 338 -102q115 -102 87 -268z" />
    <glyph glyph-name="Scaron" unicode="&#x160;" horiz-adv-x="1435" 
d="M1124 1595h-419l-117 353h262l76 -291l178 291h262zM1419 977h-344q20 117 -37 170t-204 53q-262 0 -287 -141q-12 -68 52 -107q63 -39 271 -78q296 -52 406 -159q108 -106 76 -293q-34 -204 -236 -329q-200 -124 -493 -124q-294 0 -452 137q-157 136 -118 357h344
q-20 -114 45 -165.5t230 -51.5q293 0 319 137q7 43 -6 70q-14 27 -89 58q-79 33 -226 58q-291 51 -403 154q-112 102 -81 289q38 210 230 337q193 128 471 128q277 0 425 -137q146 -138 107 -363z" />
    <glyph glyph-name="scaron" unicode="&#x161;" horiz-adv-x="1130" 
d="M879 1206h-420l-117 353h262l76 -291l178 291h262zM662 1087q221 0 338 -102q115 -102 87 -268h-315q14 78 -22 114.5t-129 36.5q-167 0 -187 -98q-10 -49 36 -74q48 -26 196 -47q226 -29 315 -108q89 -80 66 -224q-29 -158 -185 -253q-158 -95 -387 -95q-236 0 -360 100
q-125 100 -97 263h316q-12 -76 31 -110t151 -34q182 0 201 93q8 48 -35 74q-44 26 -193 48q-217 29 -307 108.5t-63 223.5q27 157 177 255q148 97 366 97z" />
    <glyph glyph-name="uni0162" unicode="&#x162;" horiz-adv-x="1351" 
d="M961 1155l-203 -1155h-78l-53 -104h30q80 0 121 -45.5t29 -118.5q-16 -80 -78.5 -129t-150.5 -49h-224l25 139h158q53 0 61 41q4 20 -8 30.5t-41 10.5h-137l18 114l64 111h-84l202 1155h-477l51 291h1303l-51 -291h-477z" />
    <glyph glyph-name="uni0163" unicode="&#x163;" horiz-adv-x="925" 
d="M940 809h-362l-76 -430q-14 -79 11 -111t99 -32h230l-41 -236q-136 -15 -238 -20l-43 -84h31q80 0 121 -45.5t28 -118.5q-16 -80 -78.5 -129t-150.5 -49h-223l24 139h158q53 0 62 41q4 20 -8.5 30.5t-41.5 10.5h-137l19 114l61 107q-123 33 -180.5 123.5t-34.5 216.5
l84 473h-203l43 248h205l59 309h318l-55 -309h362z" />
    <glyph glyph-name="Tcaron" unicode="&#x164;" horiz-adv-x="1351" 
d="M1071 1595h-420l-116 353h262l75 -291l179 291h262zM186 1446h1303l-51 -291h-477l-203 -1155h-348l202 1155h-477z" />
    <glyph glyph-name="tcaron" unicode="&#x165;" horiz-adv-x="925" 
d="M834 1479l30 172h303l-37 -213q-19 -121 -124 -192q-105 -72 -256 -72l22 129q90 0 135 28.5t58 93.5zM358 1366h318l-55 -309h362l-43 -248h-362l-76 -430q-14 -79 11 -111t99 -32h230l-41 -236q-162 -20 -285 -20q-184 0 -279 98q-96 97 -67 258l84 473h-203l43 248
h205z" />
    <glyph glyph-name="Tbar" unicode="&#x166;" horiz-adv-x="1351" 
d="M1489 1446l-51 -291h-477l-56 -317h365l-43 -238h-365l-104 -600h-348l104 600h-367l43 238h367l55 317h-477l51 291h1303z" />
    <glyph glyph-name="tbar" unicode="&#x167;" horiz-adv-x="929" 
d="M983 1057l-43 -248h-362l-31 -170h368l-32 -195h-369l-12 -65q-14 -79 11 -111t99 -32h230l-41 -236q-162 -20 -285 -20q-184 0 -279 98q-96 97 -67 258l18 108h-194l33 195h196l31 170h-203l43 248h205l59 309h318l-55 -309h362z" />
    <glyph glyph-name="Utilde" unicode="&#x168;" horiz-adv-x="1568" 
d="M1126 1620q-63 0 -144 45t-130 45q-86 0 -100 -86h-160q27 151 100 230t189 79q63 0 143 -45t129 -45q86 0 100 86h160q-54 -309 -287 -309zM141 512l164 934h348l-159 -903q-25 -144 33 -208.5t213 -64.5t235 64.5t104 208.5l160 903h348l-166 -934q-44 -245 -245 -393
q-202 -150 -490 -150q-290 0 -438 150q-150 149 -107 393z" />
    <glyph glyph-name="utilde" unicode="&#x169;" horiz-adv-x="1308" 
d="M647 1321q-86 0 -100 -86h-160q27 151 100 230t189 79q64 0 143 -45t129 -45q86 0 101 86h159q-52 -309 -286 -309q-63 0 -144 45q-83 45 -131 45zM846 459l104 598h324l-184 -1057h-314l39 225q-157 -256 -432 -256q-167 0 -243 100q-77 100 -46 273l127 715h326
l-105 -592q-23 -121 9 -172t133 -51q216 0 262 217z" />
    <glyph glyph-name="Umacron" unicode="&#x16a;" horiz-adv-x="1568" 
d="M733 1901h586l-45 -248h-584zM141 512l164 934h348l-159 -903q-25 -144 33 -208.5t213 -64.5t235 64.5t104 208.5l160 903h348l-166 -934q-44 -245 -245 -393q-202 -150 -490 -150q-290 0 -438 150q-150 149 -107 393z" />
    <glyph glyph-name="umacron" unicode="&#x16b;" horiz-adv-x="1308" 
d="M528 1511h586l-45 -247h-584zM846 459l104 598h324l-184 -1057h-314l39 225q-157 -256 -432 -256q-167 0 -243 100q-77 100 -46 273l127 715h326l-105 -592q-23 -121 9 -172t133 -51q216 0 262 217z" />
    <glyph glyph-name="Ubreve" unicode="&#x16c;" horiz-adv-x="1568" 
d="M1149 1948h213q-32 -177 -135 -268q-105 -93 -256 -93q-152 0 -221 93.5t-39 267.5h213q-16 -88 3 -127t79 -39q59 0 93 39t50 127zM141 512l164 934h348l-159 -903q-25 -144 33 -208.5t213 -64.5t235 64.5t104 208.5l160 903h348l-166 -934q-44 -245 -245 -393
q-202 -150 -490 -150q-290 0 -438 150q-150 149 -107 393z" />
    <glyph glyph-name="ubreve" unicode="&#x16d;" horiz-adv-x="1308" 
d="M766 1198q-152 0 -221 93t-39 268h213q-16 -88 3 -127t79 -39t93.5 38.5t49.5 127.5h213q-30 -174 -133.5 -267.5t-257.5 -93.5zM846 459l104 598h324l-184 -1057h-314l39 225q-157 -256 -432 -256q-167 0 -243 100q-77 100 -46 273l127 715h326l-105 -592
q-23 -121 9 -172t133 -51q216 0 262 217z" />
    <glyph glyph-name="Uring" unicode="&#x16e;" horiz-adv-x="1568" 
d="M971 1587q-94 0 -143 52q-50 51 -35 133q13 80 82 133q67 51 161 51q95 0 144 -51t35 -133q-15 -82 -81 -133q-67 -52 -163 -52zM993 1706q73 0 87 66q12 65 -64 65q-78 0 -86 -65q-15 -66 63 -66zM141 512l164 934h348l-159 -903q-25 -144 33 -208.5t213 -64.5t235 64.5
t104 208.5l160 903h348l-166 -934q-44 -245 -245 -393q-202 -150 -490 -150q-290 0 -438 150q-150 149 -107 393z" />
    <glyph glyph-name="uring" unicode="&#x16f;" horiz-adv-x="1308" 
d="M766 1198q-94 0 -143 51q-50 51 -35 133q13 80 82 134q68 51 161 51q95 0 144 -51.5t35 -133.5q-15 -82 -81 -133q-68 -51 -163 -51zM725 1382q-7 -33 9 -49.5t54 -15.5q74 0 87 66q12 65 -64 65q-79 0 -86 -66zM846 459l104 598h324l-184 -1057h-314l39 225
q-157 -256 -432 -256q-167 0 -243 100q-77 100 -46 273l127 715h326l-105 -592q-23 -121 9 -172t133 -51q216 0 262 217z" />
    <glyph glyph-name="Uhungarumlaut" unicode="&#x170;" horiz-adv-x="1568" 
d="M694 1595l156 353h258l-182 -353h-232zM1014 1595l166 353h307l-242 -353h-231zM141 512l164 934h348l-159 -903q-25 -144 33 -208.5t213 -64.5t235 64.5t104 208.5l160 903h348l-166 -934q-44 -245 -245 -393q-202 -150 -490 -150q-290 0 -438 150q-150 149 -107 393z
" />
    <glyph glyph-name="uhungarumlaut" unicode="&#x171;" horiz-adv-x="1308" 
d="M641 1559h258l-182 -353h-232zM1278 1559l-242 -353h-231l166 353h307zM846 459l104 598h324l-184 -1057h-314l39 225q-157 -256 -432 -256q-167 0 -243 100q-77 100 -46 273l127 715h326l-105 -592q-23 -121 9 -172t133 -51q216 0 262 217z" />
    <glyph glyph-name="Uogonek" unicode="&#x172;" horiz-adv-x="1568" 
d="M1079 543l160 903h348l-166 -934q-33 -188 -165 -323q-132 -137 -330 -189l-144 -152q-42 -39 -43 -65q-4 -20 8.5 -31.5t40.5 -11.5h111l-33 -186h-262q-79 0 -115 37.5t-26 101.5q12 79 88 149l131 127q-285 1 -435 151q-149 149 -106 392l164 934h348l-159 -903
q-25 -144 33 -208.5t213 -64.5t235 64.5t104 208.5z" />
    <glyph glyph-name="uogonek" unicode="&#x173;" horiz-adv-x="1308" 
d="M1090 0l-144 -152q-42 -39 -43 -65q-4 -20 8.5 -31.5t40.5 -11.5h111l-33 -186h-262q-79 0 -115.5 38t-25.5 101q12 79 88 149l164 158h-103l39 225q-157 -256 -432 -256q-167 0 -243 100q-77 100 -46 273l127 715h326l-105 -592q-23 -121 9 -172t133 -51q216 0 262 217
l104 598h324z" />
    <glyph glyph-name="Wcircumflex" unicode="&#x174;" horiz-adv-x="2412" 
d="M1526 1595l-74 293l-178 -293h-264l243 353h418l119 -353h-264zM1757 426l397 1020h386l-594 -1446h-582l-27 936l6 338l-114 -338l-355 -936h-585l-86 1446h389l39 -1020v-279l92 279l379 1020h543l20 -1020l-6 -279z" />
    <glyph glyph-name="wcircumflex" unicode="&#x175;" horiz-adv-x="1861" 
d="M1194 1206l-74 293l-178 -293h-264l244 353h417l119 -353h-264zM1362 389l258 668h317l-424 -1057h-501l-13 645l9 238l-76 -238l-242 -645h-516l-51 1057h340l22 -668l-8 -260l78 260l242 668h491l4 -668l-14 -260z" />
    <glyph glyph-name="Ycircumflex" unicode="&#x176;" horiz-adv-x="1419" 
d="M1042 1595l-73 293l-178 -293h-265l244 353h418l119 -353h-265zM1237 1446h358l-727 -1045l-71 -401h-348l69 399l-358 1047h377l159 -483l62 -258l153 258z" />
    <glyph glyph-name="ycircumflex" unicode="&#x177;" horiz-adv-x="1208" 
d="M840 1206l-74 293l-178 -293h-264l243 353h418l119 -353h-264zM645 389l311 668h330l-557 -1184q-61 -133 -185 -209t-278 -76q-134 0 -252 21l41 235h199q142 0 186 95l31 61h-238l-122 1057h338l73 -668l15 -268z" />
    <glyph glyph-name="Ydieresis" unicode="&#x178;" horiz-adv-x="1419" 
d="M627 1919h297l-52 -289h-297zM1020 1919h297l-51 -289h-295zM1237 1446h358l-727 -1045l-71 -401h-348l69 399l-358 1047h377l159 -483l62 -258l153 258z" />
    <glyph glyph-name="Zacute" unicode="&#x179;" horiz-adv-x="1343" 
d="M756 1595l168 353h307l-244 -353h-231zM1180 0h-1186l96 539l1176 622l-301 -6h-758l51 291h1172l-95 -533l-1194 -630l308 8h782z" />
    <glyph glyph-name="zacute" unicode="&#x17a;" horiz-adv-x="1054" 
d="M526 1206l168 353h307l-243 -353h-232zM887 0h-889l80 451l794 360l-284 -8h-438l45 254h868l-80 -457l-780 -354l270 8h459z" />
    <glyph glyph-name="Zdotaccent" unicode="&#x17b;" horiz-adv-x="1343" 
d="M715 1630l51 289h346l-51 -289h-346zM1180 0h-1186l96 539l1176 622l-301 -6h-758l51 291h1172l-95 -533l-1194 -630l308 8h782z" />
    <glyph glyph-name="zdotaccent" unicode="&#x17c;" horiz-adv-x="1054" 
d="M485 1241l52 289h346l-52 -289h-346zM887 0h-889l80 451l794 360l-284 -8h-438l45 254h868l-80 -457l-780 -354l270 8h459z" />
    <glyph glyph-name="Zcaron" unicode="&#x17d;" horiz-adv-x="1343" 
d="M1092 1595h-420l-117 353h262l76 -291l178 291h262zM258 1446h1172l-95 -533l-1194 -630l308 8h782l-51 -291h-1186l96 539l1176 622l-301 -6h-758z" />
    <glyph glyph-name="zcaron" unicode="&#x17e;" horiz-adv-x="1054" 
d="M862 1206h-420l-116 353h262l76 -291l178 291h262zM588 803h-438l45 254h868l-80 -457l-780 -354l270 8h459l-45 -254h-889l80 451l794 360z" />
    <glyph glyph-name="uni018F" unicode="&#x18f;" horiz-adv-x="1566" 
d="M926 1477q324 0 487 -207q162 -206 103 -547q-60 -339 -296 -547q-237 -207 -563 -207q-295 0 -454 161q-161 161 -111 437l39 217h1038q25 207 -45.5 299.5t-251.5 92.5q-170 0 -257 -61.5t-111 -199.5h-344q45 260 265 411t501 151zM711 264q156 0 254 70.5t151 220.5
h-682q-23 -152 43 -221.5t234 -69.5z" />
    <glyph glyph-name="florin" unicode="&#x192;" horiz-adv-x="1017" 
d="M1053 1323h-232q-72 0 -108.5 -33t-48.5 -110l-23 -123h356l-43 -248h-356l-213 -1208h-326l213 1208h-202l45 248h200l29 157q27 164 158 265q130 100 315 100q151 0 277 -20z" />
    <glyph glyph-name="uni019D" unicode="&#x19d;" horiz-adv-x="1677" 
d="M1194 655l139 791h344l-256 -1446h-602l-221 1305l-76 -494l-141 -811l-10 -55q-28 -159 -155 -259q-127 -98 -304 -98q-88 0 -166 21l39 235h104q66 0 100 35t48 121l18 109l236 1337h608l219 -1292z" />
    <glyph glyph-name="Gcaron" unicode="&#x1e6;" horiz-adv-x="1613" 
d="M1225 1595h-420l-117 353h262l76 -291l178 291h262zM1569 920h-344q25 133 -44 194.5t-243 61.5q-200 0 -310 -107q-111 -109 -151 -346q-41 -242 30 -350q70 -109 271 -109q177 0 269 67.5t122 219.5h-411l43 237h753l-137 -788h-303l66 369q-151 -398 -545 -400
q-293 0 -434 202q-142 202 -82 540q62 349 301 557q239 209 571 209q303 0 463 -153q160 -154 115 -404z" />
    <glyph glyph-name="gcaron" unicode="&#x1e7;" horiz-adv-x="1173" 
d="M905 1206h-420l-116 353h262l76 -291l178 291h262zM1317 1264l-43 -244q-186 0 -223 -55q92 -98 65 -248q-32 -165 -184 -268q-154 -105 -385 -105q-139 0 -232 37q-18 -26 -24 -55q-8 -45 19.5 -63.5t99.5 -18.5h358q166 0 254 -82t65 -213q-29 -164 -204 -263
q-176 -98 -445 -98q-265 0 -405 73q-142 73 -121 196q8 59 59 103t129 60q-98 66 -80 181q27 144 201 227q-149 106 -115 289q29 169 183 269q154 101 387 101q154 0 262 -47q36 116 124.5 170t254.5 54zM788 717q14 78 -21 113.5t-128 35.5q-97 0 -143 -34t-63 -115
t18.5 -116.5t134.5 -35.5q93 0 140.5 35.5t61.5 116.5zM659 -16h-428q-16 -25 -22 -68q-13 -76 39 -103q54 -26 225 -26t231 22t72 91q8 47 -17.5 65.5t-99.5 18.5z" />
    <glyph glyph-name="uni01EA" unicode="&#x1ea;" horiz-adv-x="1654" 
d="M421 1270q242 207 575 207q334 0 500 -207t108 -547q-49 -273 -219 -464q-172 -192 -416 -259l-144 -152q-42 -39 -43 -65q-4 -20 8.5 -31.5t40.5 -11.5h111l-33 -186h-262q-79 0 -115 37.5t-26 101.5q12 79 88 149l131 127q-331 1 -498 209q-166 207 -106 545
q58 340 300 547zM1095 377q112 109 152 346q40 238 -30 346q-72 107 -275 107q-200 0 -312 -107q-113 -108 -153 -346q-41 -239 32 -346q73 -109 274 -109q200 0 312 109z" />
    <glyph glyph-name="uni01EB" unicode="&#x1eb;" horiz-adv-x="1290" 
d="M307 934q181 153 436 153q254 0 383 -153q129 -154 84 -406q-38 -204 -164 -345t-317 -191l-135 -144q-42 -39 -43 -65q-4 -21 8 -32t41 -11h111l-33 -186h-262q-79 0 -115.5 37.5t-26.5 101.5q12 79 88 149l134 129q-232 17 -345 167q-114 152 -71 390q45 251 227 406z
M779 293q67 73 96 236q29 161 -14 235q-42 74 -163 74q-119 0 -186 -74t-96 -235q-29 -162 13 -236t163 -74q119 0 187 74z" />
    <glyph glyph-name="Aringacute" unicode="&#x1fa;" horiz-adv-x="1564" 
d="M981 1587q-93 0 -141.5 51.5t-34.5 133.5q13 80 81 133q66 51 161 51h18l82 176h244l-195 -234q43 -46 31 -126q-13 -84 -82 -134q-67 -51 -164 -51zM940 1772q-14 -66 64 -66q77 0 86 66q6 33 -10 49.5t-54 15.5q-74 2 -86 -65zM1458 0h-362l-47 356h-584l-174 -356
h-352l708 1446h613zM788 1020l-192 -395h418l-53 395l-31 313z" />
    <glyph glyph-name="aringacute" unicode="&#x1fb;" horiz-adv-x="1202" 
d="M700 1198q-94 0 -143 51t-34 133q13 80 82 134q67 51 161 51h18l82 176h244l-195 -234q43 -50 29 -127q-13 -82 -81 -133q-67 -51 -163 -51zM659 1382q-7 -33 9 -49.5t55 -15.5q74 0 86 66q12 65 -64 65q-74 0 -86 -66zM1120 227h2l-41 -227q-80 -20 -166 -20
q-126 0 -180.5 52t-42.5 163q-62 -103 -168 -164q-109 -62 -243 -62q-139 0 -213 72q-73 72 -54 190q41 226 357 281q314 56 381 80l6 33q20 114 -9.5 165.5t-113.5 51.5q-86 0 -133 -51t-68 -164h-311q38 210 193 335t372 125q213 0 318 -116q104 -117 69 -318l-53 -301
q-14 -83 2 -103q16 -22 96 -22zM457 190q100 0 168.5 52.5t91.5 152.5l10 58q-62 -19 -221 -58q-85 -19 -119 -43q-31 -24 -39 -71q-10 -43 18 -67t91 -24z" />
    <glyph glyph-name="AEacute" unicode="&#x1fc;" horiz-adv-x="2093" 
d="M1405 1948h307l-244 -353h-231zM2163 1446l-52 -291h-811l39 -293h686l-47 -266h-602l41 -305h551l-53 -291h-819l-47 356h-584l-174 -356h-352l708 1446h1516zM788 1020l-192 -395h418l-53 395l-31 313z" />
    <glyph glyph-name="aeacute" unicode="&#x1fd;" horiz-adv-x="1908" 
d="M1120 1559h307l-243 -353h-232zM1401 1087q239 0 360 -136t82 -359l-24 -137h-748q-10 -126 34.5 -184t151.5 -58q199 0 222 135l315 2q-28 -172 -191 -276q-163 -105 -399 -105q-162 0 -272.5 70t-153.5 199q-62 -120 -184 -194q-123 -75 -280 -75q-158 0 -239 72
q-80 72 -61 190q41 225 365 281q314 56 381 80l6 33q20 114 -9.5 165.5t-113.5 51.5q-86 0 -133 -51t-68 -164h-311q37 207 193 334q154 126 372 126q216 0 308 -137q170 137 397 137zM1104 629l422 2q12 111 -28.5 162t-139.5 51q-97 0 -159 -52.5t-95 -162.5zM465 190
q105 0 175.5 57t88.5 167l8 37q-113 -31 -223 -56q-90 -19 -125 -43q-33 -24 -41 -71q-18 -91 117 -91z" />
    <glyph glyph-name="Oslashacute" unicode="&#x1fe;" horiz-adv-x="1654" 
d="M1014 1948h307l-244 -353h-231zM1356 1559h327l-210 -263q195 -212 131 -573q-58 -340 -300 -547t-575 -207q-156 0 -285 51l-125 -155h-327l244 303q-176 206 -115 555q58 340 300 547t574 207q142 0 260 -41zM477 723q-29 -165 -4 -260l567 704q-39 7 -98 9
q-200 0 -312 -107q-113 -108 -153 -346zM1247 723q31 186 -4 291l-588 -731q51 -14 127 -15q201 0 313 109t152 346z" />
    <glyph glyph-name="oslashacute" unicode="&#x1ff;" horiz-adv-x="1290" 
d="M795 1559h307l-244 -353h-231zM1104 1188h235l-219 -248q135 -156 90 -412q-45 -252 -227 -405q-181 -154 -436 -154q-136 0 -244 47l-141 -159h-238l238 268q-125 155 -82 403q45 251 227 406q181 153 436 153q135 0 234 -43zM416 528q-11 -70 -13 -131l379 428
q-33 11 -84 13q-119 0 -186 -74t-96 -236zM874 528q16 86 11 148l-389 -440q32 -15 96 -17q119 0 186 73.5t96 235.5z" />
    <glyph glyph-name="uni0218" unicode="&#x218;" horiz-adv-x="1435" 
d="M623 -31q-294 0 -452 137q-157 136 -118 357h344q-20 -114 45 -165.5t230 -51.5q293 0 319 137q7 43 -6 70q-14 27 -89 58q-79 33 -226 58q-291 51 -403 154q-112 102 -81 289q38 210 230 337q193 128 471 128q277 0 425 -137q146 -138 107 -363h-344q20 117 -37 170
t-204 53q-262 0 -287 -141q-12 -68 52 -107q63 -39 271 -78q296 -52 406 -159q108 -106 76 -293q-34 -204 -235 -329q-200 -124 -494 -124zM438 -313l31 172h303l-37 -213q-19 -120 -124 -193q-106 -71 -257 -71l23 129q90 0 135 28.5t57 91.5z" />
    <glyph glyph-name="uni0219" unicode="&#x219;" horiz-adv-x="1130" 
d="M475 -31q-236 0 -360 100q-125 100 -97 263h316q-12 -76 31 -110t151 -34q182 0 201 93q8 48 -35 74q-44 26 -193 48q-217 29 -307 108.5t-63 223.5q27 157 176 255q148 97 367 97q221 0 338 -102q115 -102 87 -268h-315q14 78 -22 114.5t-129 36.5q-167 0 -187 -98
q-10 -49 36 -74q48 -26 196 -47q226 -29 315 -108q89 -80 66 -224q-29 -159 -186 -253q-158 -95 -386 -95zM283 -313l30 172h303l-36 -213q-19 -121 -125 -193q-106 -71 -256 -71l22 129q90 0 135 28.5t58 91.5z" />
    <glyph glyph-name="uni021A" unicode="&#x21a;" horiz-adv-x="1351" 
d="M186 1446h1303l-51 -291h-477l-203 -1155h-348l202 1155h-477zM506 -369l-131 56l31 172h303l-37 -213q-19 -121 -125 -193q-106 -71 -256 -71l22 129q90 0 135.5 28.5t57.5 91.5z" />
    <glyph glyph-name="uni021B" unicode="&#x21b;" horiz-adv-x="925" 
d="M940 809h-362l-76 -430q-14 -79 11 -111t99 -32h230l-41 -236q-162 -20 -285 -20q-184 0 -279 98q-96 97 -67 258l84 473h-203l43 248h205l59 309h318l-55 -309h362zM399 -369l-131 56l31 172h303l-37 -213q-19 -120 -124 -193q-106 -71 -257 -71l23 129q90 0 135 28.5
t57 91.5z" />
    <glyph glyph-name="uni0232" unicode="&#x232;" horiz-adv-x="1419" 
d="M676 1901h586l-45 -248h-584zM1237 1446h358l-727 -1045l-71 -401h-348l69 399l-358 1047h377l159 -483l62 -258l153 258z" />
    <glyph glyph-name="uni0233" unicode="&#x233;" horiz-adv-x="1208" 
d="M473 1511h586l-45 -247h-584zM645 389l311 668h330l-557 -1184q-61 -133 -185 -209t-278 -76q-134 0 -252 21l41 235h199q142 0 186 95l31 61h-238l-122 1057h338l73 -668l15 -268z" />
    <glyph glyph-name="uni0237" unicode="&#x237;" horiz-adv-x="573" 
d="M35 -12l188 1069h326l-195 -1100q-28 -166 -153 -268q-125 -101 -301 -101q-83 0 -154 21l39 235h104q65 0 98 32.5t48 111.5z" />
    <glyph glyph-name="uni0259" unicode="&#x259;" horiz-adv-x="1245" 
d="M709 1087q250 0 377 -151q126 -152 81 -399q-45 -254 -226 -411t-431 -157q-237 0 -359 137t-83 359l20 119h752q16 135 -28 197.5t-157 62.5q-195 0 -223 -150h-315q33 176 195 285q161 108 397 108zM553 213q181 0 248 199l-205 -4h-213q-8 -100 33 -147.5t137 -47.5z
" />
    <glyph glyph-name="uni0272" unicode="&#x272;" horiz-adv-x="1320" 
d="M932 1087q172 0 251 -98t48 -274l-127 -715h-326l105 592q23 120 -10.5 171.5t-135.5 51.5q-231 0 -272 -242l-2 2l-111 -636q-28 -166 -153 -268q-125 -101 -301 -101q-81 0 -156 20l41 236h104q65 0 98 33.5t48 113.5l190 1084h314l-43 -246q74 131 188.5 203.5
t249.5 72.5z" />
    <glyph glyph-name="circumflex" unicode="&#x2c6;" horiz-adv-x="899" 
d="M422 1559h418l118 -353h-264l-73 293l-179 -293h-264z" />
    <glyph glyph-name="caron" unicode="&#x2c7;" horiz-adv-x="899" 
d="M580 1268l178 291h262l-242 -353h-420l-116 353h262z" />
    <glyph glyph-name="breve" unicode="&#x2d8;" horiz-adv-x="770" 
d="M680 1559h213q-32 -177 -135 -268q-105 -93 -256 -93q-152 0 -221 93t-39 268h213q-16 -88 3 -127t79 -39t93.5 38.5t49.5 127.5z" />
    <glyph glyph-name="dotaccent" unicode="&#x2d9;" horiz-adv-x="464" 
d="M184 1241l52 289h346l-52 -289h-346z" />
    <glyph glyph-name="ring" unicode="&#x2da;" horiz-adv-x="540" 
d="M387 1198q-94 0 -143 51t-35 133q13 80 82 134q67 51 162 51t143.5 -51.5t34.5 -133.5q-15 -82 -81 -133q-68 -51 -163 -51zM410 1317q74 0 86 66q12 65 -64 65q-78 0 -86 -66q-14 -65 64 -65z" />
    <glyph glyph-name="ogonek" unicode="&#x2db;" horiz-adv-x="546" 
d="M348 -260l-33 -186h-262q-79 0 -115 37.5t-26 101.5q12 79 88 149l164 158h211l-144 -152q-42 -39 -43 -65q-4 -21 8.5 -32t41.5 -11h110z" />
    <glyph glyph-name="tilde" unicode="&#x2dc;" horiz-adv-x="886" 
d="M719 1231q-63 0 -144 45t-131 45q-86 0 -100 -86h-160q27 151 100 230t189 79q63 0 143 -45t129 -45q86 0 101 86h160q-54 -309 -287 -309z" />
    <glyph glyph-name="hungarumlaut" unicode="&#x2dd;" horiz-adv-x="849" 
d="M178 1206l156 353h258l-182 -353h-232zM498 1206l166 353h307l-242 -353h-231z" />
    <glyph glyph-name="gravecomb" unicode="&#x300;" 
d="M-289 1559h307l41 -353h-231z" />
    <glyph glyph-name="acutecomb" unicode="&#x301;" 
d="M-352 1206l168 353h307l-244 -353h-231z" />
    <glyph glyph-name="uni0302" unicode="&#x302;" 
d="M-477 1559h418l118 -353h-264l-74 293l-178 -293h-264z" />
    <glyph glyph-name="tildecomb" unicode="&#x303;" 
d="M-168 1231q-63 0 -144 45t-130 45q-86 0 -101 -86h-159q27 151 100 230t188 79q64 0 143 -45q81 -45 130 -45q86 0 100 86h160q-54 -309 -287 -309z" />
    <glyph glyph-name="uni0304" unicode="&#x304;" 
d="M-471 1511h586l-45 -247h-584z" />
    <glyph glyph-name="uni0306" unicode="&#x306;" 
d="M-90 1559h213q-32 -177 -136 -268q-103 -93 -255 -93t-221 93t-39 268h213q-16 -88 3 -127t78 -39q60 0 94 38.5t50 127.5z" />
    <glyph glyph-name="uni0307" unicode="&#x307;" 
d="M-281 1241l52 289h346l-51 -289h-347z" />
    <glyph glyph-name="uni0308" unicode="&#x308;" 
d="M-625 1241l52 289h297l-52 -289h-297zM-229 1241l49 289h297l-51 -289h-295z" />
    <glyph glyph-name="uni030A" unicode="&#x30a;" 
d="M-154 1198q-94 0 -143 51t-35 133q15 82 82 134q68 51 162 51q95 0 143.5 -51.5t34.5 -133.5q-13 -82 -81 -133t-163 -51zM-131 1317q74 0 86 66q12 65 -64 65q-79 0 -86 -66q-14 -65 64 -65z" />
    <glyph glyph-name="uni030B" unicode="&#x30b;" 
d="M-672 1206l156 353h258l-182 -353h-232zM-352 1206l166 353h307l-242 -353h-231z" />
    <glyph glyph-name="uni030C" unicode="&#x30c;" 
d="M-319 1268l178 291h262l-242 -353h-420l-116 353h262z" />
    <glyph glyph-name="uni0312" unicode="&#x312;" 
d="M59 1378l-30 -172h-316l37 213q22 120 129 191q107 69 264 69l-22 -129q-96 0 -144.5 -27.5t-58.5 -88.5z" />
    <glyph glyph-name="dotbelowcomb" unicode="&#x323;" 
d="M-573 -426l49 285h346l-49 -285h-346z" />
    <glyph glyph-name="uni0326" unicode="&#x326;" 
d="M-512 -313l31 172h303l-37 -213q-19 -121 -125 -193q-104 -71 -256 -71l23 129q90 0 135 28.5t57 91.5z" />
    <glyph glyph-name="uni0327" unicode="&#x327;" 
d="M-379 -104h31q80 0 121 -45.5t28 -118.5q-16 -80 -78.5 -129t-150.5 -49h-223l24 139h158q53 0 61 41q4 20 -8 30.5t-41 10.5h-137l19 114l63 111h186z" />
    <glyph glyph-name="uni0328" unicode="&#x328;" 
d="M-199 -260l-32 -186h-263q-79 0 -115 37.5t-26 101.5q12 79 88 149l164 158h211l-143 -152q-42 -39 -43 -65q-4 -21 8 -32t41 -11h110z" />
    <glyph glyph-name="uni0394" unicode="&#x394;" horiz-adv-x="1400" 
d="M563 1446h615l163 -1178l-47 -268h-1355l49 268zM846 1335l-139 -315l-369 -752h641l-102 752z" />
    <glyph glyph-name="uni03A9" unicode="&#x3a9;" horiz-adv-x="1638" 
d="M625 0h-625l47 268h158l346 -22q-226 39 -339 197q-112 157 -69 384q51 291 283 471q232 179 559 179q329 0 498 -178q170 -179 119 -472q-44 -230 -209 -385q-166 -157 -406 -196l354 22h158l-47 -268h-625l76 432q278 43 334 354q37 203 -36.5 296.5t-268.5 93.5
t-299 -92q-105 -93 -141 -298q-56 -310 210 -354z" />
    <glyph glyph-name="uni03BC" unicode="&#x3bc;" horiz-adv-x="1308" 
d="M848 471l102 586h324l-187 -1057h-311l39 225q-156 -248 -422 -248q-37 0 -53 3l-66 -371h-309l131 735q0 12 4 31l121 682h326l-105 -592q-23 -121 9 -172t133 -51q221 0 262 233z" />
    <glyph glyph-name="pi" unicode="&#x3c0;" horiz-adv-x="1443" 
d="M1466 809h-196l-78 -442q-12 -63 6.5 -91t73.5 -28h96l-39 -236q-80 -20 -155 -20q-169 0 -254 94t-60 250l84 473h-346l-143 -809h-326l143 809h-198l45 248h1390z" />
    <glyph glyph-name="Wgrave" unicode="&#x1e80;" horiz-adv-x="2412" 
d="M1477 1948l41 -353h-232l-117 353h308zM1757 426l397 1020h386l-594 -1446h-582l-27 936l6 338l-114 -338l-355 -936h-585l-86 1446h389l39 -1020v-279l92 279l379 1020h543l20 -1020l-6 -279z" />
    <glyph glyph-name="wgrave" unicode="&#x1e81;" horiz-adv-x="1861" 
d="M1147 1559l41 -353h-232l-116 353h307zM1362 389l258 668h317l-424 -1057h-501l-13 645l9 238l-76 -238l-242 -645h-516l-51 1057h340l22 -668l-8 -260l78 260l242 668h491l4 -668l-14 -260z" />
    <glyph glyph-name="Wacute" unicode="&#x1e82;" horiz-adv-x="2412" 
d="M1438 1948h307l-244 -353h-231zM1757 426l397 1020h386l-594 -1446h-582l-27 936l6 338l-114 -338l-355 -936h-585l-86 1446h389l39 -1020v-279l92 279l379 1020h543l20 -1020l-6 -279z" />
    <glyph glyph-name="wacute" unicode="&#x1e83;" horiz-adv-x="1861" 
d="M1108 1559h307l-244 -353h-231zM1362 389l258 668h317l-424 -1057h-501l-13 645l9 238l-76 -238l-242 -645h-516l-51 1057h340l22 -668l-8 -260l78 260l242 668h491l4 -668l-14 -260z" />
    <glyph glyph-name="Wdieresis" unicode="&#x1e84;" horiz-adv-x="2412" 
d="M1108 1919h297l-51 -289h-297zM1501 1919h297l-51 -289h-295zM1757 426l397 1020h386l-594 -1446h-582l-27 936l6 338l-114 -338l-355 -936h-585l-86 1446h389l39 -1020v-279l92 279l379 1020h543l20 -1020l-6 -279z" />
    <glyph glyph-name="wdieresis" unicode="&#x1e85;" horiz-adv-x="1861" 
d="M778 1530h297l-51 -289h-297zM1171 1530h297l-51 -289h-295zM1362 389l258 668h317l-424 -1057h-501l-13 645l9 238l-76 -238l-242 -645h-516l-51 1057h340l22 -668l-8 -260l78 260l242 668h491l4 -668l-14 -260z" />
    <glyph glyph-name="uni1EA0" unicode="&#x1ea0;" horiz-adv-x="1564" 
d="M1260 1446l198 -1446h-362l-47 356h-584l-174 -356h-352l708 1446h613zM788 1020l-192 -395h418l-53 395l-31 313zM801 -426h-346l49 285h346z" />
    <glyph glyph-name="uni1EA1" unicode="&#x1ea1;" horiz-adv-x="1202" 
d="M1120 227h2l-41 -227q-80 -20 -166 -20q-126 0 -180.5 52t-42.5 163q-62 -103 -168 -164q-109 -62 -243 -62q-139 0 -213 72q-73 72 -54 190q41 226 357 281q314 56 381 80l6 33q20 114 -9.5 165.5t-113.5 51.5q-86 0 -133 -51t-68 -164h-311q38 210 193 335t372 125
q213 0 318 -116q104 -117 69 -318l-53 -301q-14 -83 2 -103q16 -22 96 -22zM457 190q100 0 168.5 52.5t91.5 152.5l10 58q-62 -19 -221 -58q-85 -19 -119 -43q-31 -24 -39 -71q-10 -43 18 -67t91 -24zM629 -426h-346l49 285h346z" />
    <glyph glyph-name="uni1EB8" unicode="&#x1eb8;" horiz-adv-x="1308" 
d="M1376 1446l-51 -291h-707l-51 -293h672l-45 -266h-674l-53 -305h715l-52 -291h-1062l256 1446h1052zM705 -426h-347l50 285h346z" />
    <glyph glyph-name="uni1EB9" unicode="&#x1eb9;" horiz-adv-x="1243" 
d="M735 1087q239 0 360 -136q122 -137 83 -359l-25 -137h-747q-10 -126 34 -184t152 -58q198 0 221 137h315q-28 -172 -191 -276q-164 -105 -398 -105q-250 0 -377 154q-127 153 -82 405q45 251 225 406q180 153 430 153zM438 629l422 2q12 111 -28.5 162t-139.5 51
q-97 0 -159 -52.5t-95 -162.5zM641 -426h-346l49 285h346z" />
    <glyph glyph-name="uni1EBC" unicode="&#x1ebc;" horiz-adv-x="1308" 
d="M758 1710q-86 0 -101 -86h-159q27 151 100 230t188 79q63 0 144 -45q80 -45 129 -45q86 0 100 86h160q-53 -309 -287 -309q-63 0 -144 45t-130 45zM1376 1446l-51 -291h-707l-51 -293h672l-45 -266h-674l-53 -305h715l-52 -291h-1062l256 1446h1052z" />
    <glyph glyph-name="uni1EBD" unicode="&#x1ebd;" horiz-adv-x="1243" 
d="M637 1321q-86 0 -100 -86h-160q27 151 100 230t189 79q64 0 143 -45t129 -45q86 0 100 86h160q-52 -309 -287 -309q-63 0 -144 45t-130 45zM735 1087q239 0 360 -136q122 -137 83 -359l-25 -137h-747q-10 -126 34 -184t152 -58q198 0 221 137h315q-28 -172 -191 -276
q-164 -105 -398 -105q-250 0 -377 154q-127 153 -82 405q45 251 225 406q180 153 430 153zM438 629l422 2q12 111 -28.5 162t-139.5 51q-97 0 -159 -52.5t-95 -162.5z" />
    <glyph glyph-name="uni1ECA" unicode="&#x1eca;" horiz-adv-x="671" 
d="M68 0l256 1446h346l-254 -1446h-348zM-4 -426l49 285h346l-49 -285h-346z" />
    <glyph glyph-name="uni1ECB" unicode="&#x1ecb;" horiz-adv-x="587" 
d="M248 1241l51 289h346l-51 -289h-346zM39 0l188 1057h324l-186 -1057h-326zM-49 -426l49 285h346l-49 -285h-346z" />
    <glyph glyph-name="uni1ECC" unicode="&#x1ecc;" horiz-adv-x="1654" 
d="M1304 176q-242 -207 -575 -207q-335 0 -501 207q-167 207 -107 547q58 340 300 547t575 207q334 0 500 -207t108 -547q-60 -340 -300 -547zM509 377q73 -109 274 -109q200 0 312 109t152 346q40 238 -30 346q-72 107 -275 107q-200 0 -312 -107q-113 -108 -153 -346
q-41 -239 32 -346zM487 -426l50 285h346l-49 -285h-347z" />
    <glyph glyph-name="uni1ECD" unicode="&#x1ecd;" horiz-adv-x="1290" 
d="M983 123q-181 -154 -436 -154q-254 0 -383 154q-129 153 -84 405q45 251 227 406q181 153 436 153q254 0 383 -153q129 -154 84 -406t-227 -405zM592 219q119 0 187 74t96 236q28 161 -14 235t-163 74q-119 0 -186 -74t-96 -235q-29 -162 13 -236t163 -74zM305 -426
l49 285h346l-49 -285h-346z" />
    <glyph glyph-name="uni1EE4" unicode="&#x1ee4;" horiz-adv-x="1568" 
d="M141 512l164 934h348l-159 -903q-25 -144 33 -208.5t213 -64.5t235 64.5t104 208.5l160 903h348l-166 -934q-44 -245 -245 -393q-202 -150 -490 -150q-290 0 -438 150q-150 149 -107 393zM444 -426l50 285h346l-49 -285h-347z" />
    <glyph glyph-name="uni1EE5" unicode="&#x1ee5;" horiz-adv-x="1308" 
d="M846 459l104 598h324l-184 -1057h-314l39 225q-157 -256 -432 -256q-167 0 -243 100q-77 100 -46 273l127 715h326l-105 -592q-23 -121 9 -172t133 -51q216 0 262 217zM655 -426h-346l49 285h347z" />
    <glyph glyph-name="Ygrave" unicode="&#x1ef2;" horiz-adv-x="1419" 
d="M993 1948l41 -353h-231l-117 353h307zM1237 1446h358l-727 -1045l-71 -401h-348l69 399l-358 1047h377l159 -483l62 -258l153 258z" />
    <glyph glyph-name="ygrave" unicode="&#x1ef3;" horiz-adv-x="1208" 
d="M793 1559l41 -353h-232l-117 353h308zM645 389l311 668h330l-557 -1184q-61 -133 -185 -209t-278 -76q-134 0 -252 21l41 235h199q142 0 186 95l31 61h-238l-122 1057h338l73 -668l15 -268z" />
    <glyph glyph-name="uni1EF8" unicode="&#x1ef8;" horiz-adv-x="1419" 
d="M797 1710q-86 0 -101 -86h-159q27 151 100 230t188 79q63 0 144 -45q79 -45 129 -45q86 0 100 86h160q-52 -309 -287 -309q-63 0 -144 45t-130 45zM1237 1446h358l-727 -1045l-71 -401h-348l69 399l-358 1047h377l159 -483l62 -258l153 258z" />
    <glyph glyph-name="uni1EF9" unicode="&#x1ef9;" horiz-adv-x="1208" 
d="M594 1321q-86 0 -100 -86h-160q27 151 100 230t189 79q63 0 143 -45t129 -45q86 0 100 86h160q-53 -309 -287 -309q-63 0 -144 45t-130 45zM645 389l311 668h330l-557 -1184q-61 -133 -185 -209t-278 -76q-134 0 -252 21l41 235h199q142 0 186 95l31 61h-238l-122 1057
h338l73 -668l15 -268z" />
    <glyph glyph-name="endash" unicode="&#x2013;" horiz-adv-x="1169" 
d="M98 647h1035l-43 -250h-1035z" />
    <glyph glyph-name="emdash" unicode="&#x2014;" horiz-adv-x="1742" 
d="M98 647h1608l-43 -250h-1608z" />
    <glyph glyph-name="quoteleft" unicode="&#x2018;" horiz-adv-x="516" 
d="M516 1112l-35 -203h-323l45 260q26 142 134 225q110 83 279 83l-24 -138q-197 0 -225 -151z" />
    <glyph glyph-name="quoteright" unicode="&#x2019;" horiz-adv-x="516" 
d="M229 1241l35 205h324l-45 -260q-27 -143 -136 -225t-280 -82l25 135q103 0 156.5 35.5t68.5 115.5z" />
    <glyph glyph-name="quotesinglbase" unicode="&#x201a;" horiz-adv-x="575" 
d="M37 61l51 287h361l-64 -348q-29 -170 -152 -269q-125 -98 -309 -98l27 150q115 0 176 46t80 148z" />
    <glyph glyph-name="quotedblleft" unicode="&#x201c;" horiz-adv-x="935" 
d="M936 1112l-35 -203h-323l45 260q27 144 136 226t279 82l-24 -138q-104 0 -157.5 -35.5t-68.5 -115.5zM516 1104l-35 -195h-323l45 248q26 142 134 222q109 81 279 81l-24 -135q-200 0 -223 -143z" />
    <glyph glyph-name="quotedblright" unicode="&#x201d;" horiz-adv-x="935" 
d="M229 1241l35 205h324l-45 -260q-27 -143 -136 -225t-280 -82l25 135q103 0 156.5 35.5t68.5 115.5zM649 1249l35 197h324l-45 -248q-22 -140 -132 -223q-109 -82 -282 -82l24 137q201 0 224 144z" />
    <glyph glyph-name="quotedblbase" unicode="&#x201e;" horiz-adv-x="575" 
d="M37 61l51 287h361l-64 -348q-29 -170 -152 -269q-125 -98 -309 -98l27 150q115 0 176 46t80 148z" />
    <glyph glyph-name="dagger" unicode="&#x2020;" horiz-adv-x="905" 
d="M649 752h252l-45 -248h-252l-55 -320h-311l55 320h-252l43 248h254l121 694h311z" />
    <glyph glyph-name="daggerdbl" unicode="&#x2021;" horiz-adv-x="905" 
d="M981 1212l-43 -241h-252l-57 -322h252l-43 -241h-252l-43 -248h-312l43 248h-251l43 241h251l58 322h-252l41 241h254l41 234h311l-41 -234h252z" />
    <glyph glyph-name="bullet" unicode="&#x2022;" horiz-adv-x="663" 
d="M61 309l82 463h463l-82 -463h-463z" />
    <glyph glyph-name="ellipsis" unicode="&#x2026;" horiz-adv-x="1538" 
d="M12 0l58 332h344l-58 -332h-344zM508 0l57 332h344l-57 -332h-344zM1006 0l57 332h344l-59 -332h-342z" />
    <glyph glyph-name="perthousand" unicode="&#x2030;" horiz-adv-x="2093" 
d="M446 766q-168 0 -252 99q-85 97 -56 258q29 160 148 257t286 97q165 0 251 -98q86 -100 58 -257q-27 -161 -148 -258q-122 -98 -287 -98zM1614 1446l-477 -658h-297l436 658h338zM365 1122q-12 -70 19.5 -110.5t97.5 -40.5t113.5 41.5t57.5 109.5q12 68 -20.5 109
t-97.5 41q-66 0 -112 -41t-58 -109zM1735 682q157 0 237 -98q78 -99 51 -258q-28 -160 -143 -258q-116 -99 -270 -99q-112 0 -183 61t-86 167q-50 -105 -141 -166q-92 -62 -205 -62q-157 0 -237 99q-80 98 -51 258t142 258q115 98 271 98q114 0 184 -61t82 -168
q52 107 143.5 168t205.5 61zM-18 0l477 657h297l-437 -657h-337zM1163 217q46 40 60 109q12 67 -20 108t-97 41q-66 0 -114 -41.5t-58 -107.5q-12 -68 19.5 -109t97.5 -41q65 0 112 41zM1737 217q47 41 59 109t-19 108q-32 41 -97 41q-66 0 -114 -41t-59 -108
q-12 -68 20 -109t98 -41q65 0 112 41z" />
    <glyph glyph-name="guilsinglleft" unicode="&#x2039;" horiz-adv-x="626" 
d="M178 143l-164 209l62 353l237 208h357l-449 -385l311 -385h-354z" />
    <glyph glyph-name="guilsinglright" unicode="&#x203a;" horiz-adv-x="626" 
d="M313 143h-356l446 385l-311 385h357l163 -208l-63 -353z" />
    <glyph glyph-name="fraction" unicode="&#x2044;" horiz-adv-x="370" 
d="M-598 0l1384 1446h254l-1384 -1446h-254z" />
    <glyph glyph-name="uni20AA" unicode="&#x20aa;" horiz-adv-x="1861" 
d="M68 0l256 1446h321l-254 -1446h-323zM1358 416l180 1030h324l-181 -1026q-40 -189 -170 -305q-128 -115 -307 -115h-684l189 1063h247l-141 -805h363q84 0 124.5 36t55.5 122zM977 1188h-375l43 258h397q164 0 247 -101q83 -102 54 -270l-120 -692h-250l114 647
q14 87 -10.5 122.5t-99.5 35.5z" />
    <glyph glyph-name="Euro" unicode="&#x20ac;" horiz-adv-x="1525" 
d="M1018 1477q272 0 420 -157q147 -158 102 -417h-344q25 143 -30.5 208t-200.5 65q-246 0 -347 -224h367l-59 -182h-873l33 182h176q100 244 301 385q202 140 455 140zM805 266q147 0 224 59.5t101 192.5h345q-45 -252 -247 -400q-203 -149 -476 -149q-249 0 -398 139
q-151 138 -172 375h-180l33 183h854l-60 -183h-290q25 -217 266 -217z" />
    <glyph glyph-name="uni2113" unicode="&#x2113;" horiz-adv-x="1005" 
d="M764 1579q176 0 258 -139t43 -369q-45 -242 -198 -392q-154 -151 -365 -157l-29 -162q-12 -68 9 -96t81 -28h189l-41 -232q-133 -25 -262 -24q-176 0 -256 87.5t-52 249.5l35 205h-149l43 234h147l72 407q33 185 164 301q130 115 311 115zM782 1071q18 103 19 159
t-14.5 80.5t-51.5 26.5q-52 0 -77 -43q-27 -44 -48 -155l-67 -383h4q100 0 151 69q51 67 84 246z" />
    <glyph glyph-name="uni2116" unicode="&#x2116;" horiz-adv-x="2492" 
d="M1931 1384q119 93 289 93t256 -93q86 -95 59 -245q-29 -152 -147 -245t-289 -93q-169 0 -254 93q-86 94 -59 245q25 149 145 245zM1151 158l76 497l137 791h344l-254 -1446h-602l-223 1309l-74 -498l-143 -811h-344l256 1446h606zM2288 1139q14 78 -10.5 112.5
t-92.5 34.5q-66 0 -101.5 -34.5t-49.5 -112.5q-14 -76 10 -112t90 -36q127 1 154 148zM2187 432h-305l45 254h305z" />
    <glyph glyph-name="trademark" unicode="&#x2122;" horiz-adv-x="1851" 
d="M98 1446h684l-32 -186h-228l-84 -469h-227l82 469h-227zM1538 1446h408l-117 -655h-227l77 444l31 147l-240 -591h-352l-35 587l-20 -143l-78 -444h-229l114 655h414l31 -426l-2 -139l47 139z" />
    <glyph glyph-name="onethird" unicode="&#x2153;" horiz-adv-x="1562" 
d="M-14 0l1384 1446h254l-1384 -1446h-254zM485 1186l37 180l-94 -86l-213 -162l41 234l125 94h362l-114 -660h-213zM1214 690q132 0 202 -51t57 -135q-22 -121 -201 -139q200 -25 168 -183q-17 -91 -111 -146q-97 -56 -237 -56q-136 0 -206 67q-71 66 -50 174h204
q-14 -80 80 -80q98 0 113 66q6 31 -12.5 46t-61.5 15h-100l20 127h90q69 0 80 60q7 37 -8.5 55.5t-52.5 17.5q-82 0 -96 -84h-205q18 112 108 180q90 66 219 66z" />
    <glyph glyph-name="twothirds" unicode="&#x2154;" horiz-adv-x="1607" 
d="M369 956h348l-29 -170h-575l49 281l307 92q42 14 61 34.5t25 57.5q13 76 -59 76q-81 0 -101 -104h-207q19 114 114 185q93 69 224 69q130 0 194 -61t46 -163q-14 -72 -68 -121t-159 -85l-193 -66l-104 -27zM31 0l1384 1446h254l-1384 -1446h-254zM1253 690q130 0 200 -51
q71 -51 56 -135q-19 -121 -198 -139q199 -25 168 -183q-17 -91 -112 -146q-98 -56 -239 -56q-136 0 -204 67q-70 66 -52 174h207q-14 -80 80 -80q98 0 113 66q4 31 -14 46t-60 15h-102l22 127h90q70 0 80 60q7 37 -8.5 55.5t-52.5 17.5q-82 0 -97 -84h-206q19 112 109 180
q89 66 220 66z" />
    <glyph glyph-name="oneeighth" unicode="&#x215b;" horiz-adv-x="1576" 
d="M-20 0l1386 1446h254l-1387 -1446h-253zM467 1186l37 182l-96 -88l-213 -162l41 234l126 94h363l-117 -660h-211zM1227 690q136 0 207 -52q71 -53 55 -140q-22 -122 -193 -154q176 -38 152 -176q-13 -85 -109 -137q-96 -51 -237 -51q-144 0 -220 51q-77 51 -63 137
q26 137 215 176q-159 31 -137 154q13 87 106 140q91 52 224 52zM1098 461q-6 -39 11 -55.5t65 -16.5q88 0 100 72q13 76 -74 76q-90 0 -102 -76zM1245 213q8 39 -14 56.5t-76 17.5q-103 0 -117 -74q-6 -41 15.5 -60.5t74.5 -19.5q103 0 117 80z" />
    <glyph glyph-name="threeeighths" unicode="&#x215c;" horiz-adv-x="1611" 
d="M403 766q-136 0 -204 67q-70 66 -52 175h207q-8 -42 11 -61t67 -19q99 0 113 65q8 60 -74 60h-102l24 127h90q66 0 80 59q13 76 -63 76q-80 0 -94 -84h-207q19 112 109 180q88 66 220 66q128 0 199 -51q70 -52 55 -136q-19 -121 -198 -139q199 -25 168 -184
q-13 -89 -111 -145t-238 -56zM16 0l1385 1446h254l-1385 -1446h-254zM1257 690q136 0 207 -52q72 -53 56 -140q-22 -122 -193 -154q176 -38 152 -176q-13 -85 -109 -137q-96 -51 -237 -51q-143 0 -220 51t-63 137q26 137 215 176q-159 31 -137 154q13 87 105 140
q91 52 224 52zM1128 461q-6 -39 11.5 -55.5t64.5 -16.5q88 0 101 72q13 76 -74 76q-91 0 -103 -76zM1276 213q8 39 -14 56.5t-76 17.5q-103 0 -117 -74q-6 -41 15.5 -60.5t74.5 -19.5q103 0 117 80z" />
    <glyph glyph-name="fiveeighths" unicode="&#x215d;" horiz-adv-x="1597" 
d="M-10 0l1384 1446h254l-1384 -1446h-254zM637 831q-91 -65 -221 -65t-200 65q-69 65 -50 168h205q-7 -40 10.5 -60t60.5 -19q78 0 93 77q14 92 -64 93q-63 0 -109 -48h-182l96 404h517l-29 -168h-246l-98 2l-43 -176q74 110 203 108q92 0 137 -58t28 -153
q-18 -105 -108 -170zM1019 638q91 52 224 52q132 0 206 -53q73 -52 56 -139q-22 -122 -192 -154q176 -38 151 -176q-13 -85 -109 -137q-95 -51 -239 -51q-142 0 -218 51q-77 51 -62 137q25 139 215 176q-160 31 -138 154q13 87 106 140zM1112 461q-6 -39 12 -55.5t66 -16.5
q88 0 100 72q13 76 -73 76q-92 0 -105 -76zM1262 213q8 39 -14 56.5t-77 17.5q-104 0 -116 -74q-8 -41 14 -60.5t76 -19.5q103 0 117 80z" />
    <glyph glyph-name="seveneighths" unicode="&#x215e;" horiz-adv-x="1558" 
d="M-39 0l1387 1446h254l-1387 -1446h-254zM731 1278l-143 -2h-293l29 170h495l-26 -146l-25 -139q-91 -45 -162 -146q-72 -104 -94 -229h-213q27 152 141 287q112 134 291 205zM985 638q89 52 223 52q133 0 206 -52q72 -52 59 -140q-22 -122 -195 -154q178 -37 154 -176
q-13 -85 -109 -137q-96 -51 -239 -51q-144 0 -220 51t-61 137q25 138 213 176q-159 31 -137 154q16 88 106 140zM1079 461q-6 -39 11.5 -55.5t64.5 -16.5q89 0 102 72q13 76 -76 76q-90 0 -102 -76zM1227 213q8 39 -14 56.5t-76 17.5q-102 0 -117 -74q-6 -41 15.5 -60.5
t74.5 -19.5q103 0 117 80z" />
    <glyph glyph-name="arrowleft" unicode="&#x2190;" horiz-adv-x="1517" 
d="M573 838l953 22l-49 -276l-942 20l319 -366l-213 -179l-547 664l780 666l148 -183z" />
    <glyph glyph-name="arrowup" unicode="&#x2191;" horiz-adv-x="1484" 
d="M909 1466l547 -663l-213 -180l-299 381l-145 -945h-275l191 951l-439 -385l-149 178z" />
    <glyph glyph-name="arrowright" unicode="&#x2192;" horiz-adv-x="1517" 
d="M733 1206l209 183l547 -666l-780 -664l-148 179l445 366l-949 -20l49 276l945 -22z" />
    <glyph glyph-name="arrowdown" unicode="&#x2193;" horiz-adv-x="1484" 
d="M844 467l438 385l150 -178l-783 -664l-547 664l213 180l299 -381l146 944h274z" />
    <glyph glyph-name="arrowboth" unicode="&#x2194;" horiz-adv-x="2160" 
d="M1360 1214l209 183l530 -645l-758 -643l-145 180l432 354h-1102l308 -352l-209 -182l-531 643l758 645l147 -180l-428 -351h1090z" />
    <glyph glyph-name="arrowupdn" unicode="&#x2195;" horiz-adv-x="1425" 
d="M950 1231l-188 -1069l420 373l145 -175l-758 -645l-530 643l209 177l289 -377l190 1075l-426 -379l-145 170l757 645l531 -643l-203 -172z" />
    <glyph glyph-name="uni2196" unicode="&#x2196;" horiz-adv-x="1232" 
d="M1163 1284l-45 -254l-532 10l571 -655l-229 -195l-535 684l-80 -530h-254l164 938z" />
    <glyph glyph-name="uni2197" unicode="&#x2197;" horiz-adv-x="1232" 
d="M295 1049l45 256l938 -2l-166 -938l-256 -3l107 531l-773 -682l-161 195l802 653z" />
    <glyph glyph-name="uni2198" unicode="&#x2198;" horiz-adv-x="1234" 
d="M924 662l84 534h256l-168 -938h-938l43 256l528 -12l-567 651l227 197z" />
    <glyph glyph-name="uni2199" unicode="&#x2199;" horiz-adv-x="1234" 
d="M1133 1350l161 -197l-796 -651l532 12l-47 -256h-938l164 938h254l-105 -532z" />
    <glyph glyph-name="partialdiff" unicode="&#x2202;" horiz-adv-x="1261" 
d="M346 1589l359 -63q298 -56 434 -268q137 -216 82 -529q-62 -343 -258 -551q-197 -209 -457 -209q-246 0 -370 151q-124 150 -81 394q39 221 188 358q148 136 351 136q130 0 214.5 -60t109.5 -168l2 11q39 213 -15 301q-55 88 -246 120l-370 50zM405 295q40 -70 158 -70
t182 70t91 221q27 145 -13.5 212t-154.5 67q-118 0 -184 -67.5t-93 -213.5q-27 -149 14 -219z" />
    <glyph glyph-name="product" unicode="&#x220f;" horiz-adv-x="1523" 
d="M242 1446h1362l-52 -291h-196l-273 -1546h-335l272 1546h-297l-272 -1546h-336l272 1546h-197z" />
    <glyph glyph-name="summation" unicode="&#x2211;" horiz-adv-x="1157" 
d="M924 -393l-1012 2l92 522l660 313l200 84l-172 82l-547 316l93 520l1009 -2l-49 -291h-553l-381 12l725 -403l-84 -469l-874 -406l393 11h553z" />
    <glyph glyph-name="minus" unicode="&#x2212;" horiz-adv-x="1009" 
d="M106 653h842l-39 -221h-841z" />
    <glyph glyph-name="uni2215" unicode="&#x2215;" horiz-adv-x="684" 
d="M-147 -391l688 1950h311l-688 -1950h-311z" />
    <glyph glyph-name="uni2219" unicode="&#x2219;" horiz-adv-x="618" 
d="M63 324l78 436h437l-76 -436h-439z" />
    <glyph glyph-name="radical" unicode="&#x221a;" horiz-adv-x="1310" 
d="M928 1446h604l-51 -291h-361l-567 -1546h-514l-64 1057h295l31 -678l2 -301l100 301z" />
    <glyph glyph-name="infinity" unicode="&#x221e;" horiz-adv-x="1996" 
d="M1542 991q213 0 321 -123q107 -124 73 -323q-34 -200 -187 -324q-151 -123 -365 -123q-156 0 -253 67q-97 66 -168 185q-240 -252 -514 -252q-209 0 -313 123q-105 123 -70 324q35 200 183 323q149 123 357 123q158 0 257 -66q99 -69 169 -186q240 252 510 252zM526 336
q86 0 162.5 50t171.5 159q-56 103 -112 156q-59 53 -148 53q-108 0 -166.5 -50.5t-77.5 -158.5q-20 -109 20.5 -159t149.5 -50zM1647 545q18 109 -23 159t-149 50q-89 0 -167.5 -51t-170.5 -158q57 -102 116 -155q59 -54 148 -54q108 0 165.5 49t80.5 160z" />
    <glyph glyph-name="integral" unicode="&#x222b;" horiz-adv-x="927" 
d="M868 1477q102 0 189 -21l-41 -235h-144q-72 0 -107.5 -33t-49.5 -111l-199 -1124q-27 -164 -158 -265q-130 -100 -315 -100q-103 0 -186 21l41 235h141q72 0 108.5 33t49.5 111l198 1124q29 164 160 265q130 100 313 100z" />
    <glyph glyph-name="approxequal" unicode="&#x2248;" horiz-adv-x="1218" 
d="M301 596h-205q28 160 138 265q109 104 249 104q87 0 152 -36q53 -30 115 -71q52 -35 112 -35q58 0 95 40q39 42 49 93h204q-32 -166 -138 -267q-107 -101 -251 -101q-86 0 -149 36q-51 27 -116 70q-53 35 -114 35q-58 0 -95 -40q-39 -42 -46 -93zM215 113h-205
q28 161 138 264q109 104 251 104q65 0 121 -20.5t91 -49.5q84 -71 167 -71q56 0 93 40q39 42 49 93h204q-28 -166 -137 -267q-108 -102 -252 -102q-86 0 -149 36q-53 29 -116 71q-53 35 -114 35q-58 0 -95 -40q-39 -42 -46 -93z" />
    <glyph glyph-name="notequal" unicode="&#x2260;" horiz-adv-x="1116" 
d="M1063 885l-39 -223h-266l-183 -238h408l-39 -223h-534l-125 -156h-217l125 156h-134l39 223h260l183 238h-402l41 223h522l132 164h217l-131 -164h143z" />
    <glyph glyph-name="lessequal" unicode="&#x2264;" horiz-adv-x="1026" 
d="M899 285l-821 200l61 357l893 200l-39 -221l-796 -157l741 -156zM0 47l39 221h856l-39 -221h-856z" />
    <glyph glyph-name="greaterequal" unicode="&#x2265;" horiz-adv-x="1026" 
d="M936 485l-893 -200l39 223l797 156l-742 157l39 221l821 -200zM39 268h858l-39 -221h-858z" />
    <glyph glyph-name="uni2460" unicode="&#x2460;" horiz-adv-x="1712" 
d="M1353 176q-249 -207 -595 -207t-521 207q-176 207 -116 547q58 339 308 547q249 207 595 207t521 -207q175 -206 116 -547q-58 -339 -308 -547zM786 127q265 0 459 164q193 163 238 432q49 268 -85 432t-403 164q-266 0 -457 -164q-193 -164 -239 -432q-47 -270 86 -432
q134 -164 401 -164zM799 911l-246 -186l45 262l152 117h409l-133 -760h-240l80 459l43 213z" />
    <glyph glyph-name="uni2461" unicode="&#x2461;" horiz-adv-x="1712" 
d="M1353 176q-249 -207 -595 -207t-521 207q-176 207 -116 547q58 339 308 547q249 207 595 207t521 -207q175 -206 116 -547q-58 -339 -308 -547zM786 127q265 0 459 164q193 163 238 432q49 268 -85 432t-403 164q-266 0 -457 -164q-193 -164 -239 -432q-47 -270 86 -432
q134 -164 401 -164zM1169 342h-661l55 320l350 108q50 16 73.5 40t29.5 64q13 88 -70 89q-96 0 -117 -121h-237q23 131 131 212t258 81q147 0 221 -71t53 -187q-14 -84 -75.5 -140.5t-186.5 -97.5l-219 -76l-119 -31l146 3h401z" />
    <glyph glyph-name="uni2462" unicode="&#x2462;" horiz-adv-x="1712" 
d="M1353 176q-249 -207 -595 -207t-521 207q-176 207 -116 547q58 339 308 547q249 207 595 207t521 -207q175 -206 116 -547q-58 -339 -308 -547zM786 127q265 0 459 164q193 163 238 432q49 268 -85 432t-403 164q-266 0 -457 -164q-193 -164 -239 -432q-47 -270 86 -432
q134 -164 401 -164zM518 594h238q-8 -48 13.5 -70t76.5 -22q118 0 131 73q5 36 -16.5 54t-69.5 18h-117l27 146h102q82 0 92 67q17 86 -71 86q-94 0 -109 -94h-240q22 127 127 204q104 77 253 77q148 0 230 -59q81 -60 64 -156q-27 -138 -233 -158q229 -27 196 -213
q-16 -103 -126 -168q-110 -64 -275 -64q-156 0 -236 77t-57 202z" />
    <glyph glyph-name="uni2463" unicode="&#x2463;" horiz-adv-x="1712" 
d="M1353 176q-249 -207 -595 -207t-521 207q-176 207 -116 547q58 339 308 547q249 207 595 207t521 -207q175 -206 116 -547q-58 -339 -308 -547zM786 127q265 0 459 164q193 163 238 432q49 268 -85 432t-403 164q-266 0 -457 -164q-193 -164 -239 -432q-47 -270 86 -432
q134 -164 401 -164zM831 477h-313l66 367l215 260h383l-78 -449h110l-32 -178h-111l-22 -133h-242zM940 1059l-338 -408l90 2l170 2l35 199z" />
    <glyph glyph-name="uni2464" unicode="&#x2464;" horiz-adv-x="1712" 
d="M1353 176q-249 -207 -595 -207t-521 207q-176 207 -116 547q58 339 308 547q249 207 595 207t521 -207q175 -206 116 -547q-58 -339 -308 -547zM786 127q265 0 459 164q193 163 238 432q49 268 -85 432t-403 164q-266 0 -457 -164q-193 -164 -239 -432q-47 -270 86 -432
q134 -164 401 -164zM535 586h237q-8 -48 10.5 -70t69.5 -22q47 0 71.5 21t34.5 69q10 55 -7 79.5t-66 24.5q-72 0 -123 -51h-211l113 465h593l-34 -193h-283l-113 2l-47 -204q84 123 232 122q106 0 159 -66q52 -67 31 -175q-22 -121 -126 -196t-253 -75q-151 0 -230 74
q-78 73 -58 195z" />
    <glyph glyph-name="uni2465" unicode="&#x2465;" horiz-adv-x="1712" 
d="M1353 176q-249 -207 -595 -207t-521 207q-176 207 -116 547q58 339 308 547q249 207 595 207t521 -207q175 -206 116 -547q-58 -339 -308 -547zM786 127q265 0 459 164q193 163 238 432q49 268 -85 432t-403 164q-266 0 -457 -164q-193 -164 -239 -432q-47 -270 86 -432
q134 -164 401 -164zM516 721q33 187 159 299q127 113 300 113q155 0 238 -71q81 -70 61 -185h-240q8 41 -13.5 60t-76.5 19q-76 0 -121 -56.5t-65 -178.5q-3 -14 -8 -43q36 64 104.5 101.5t155.5 37.5q115 0 174 -62q59 -63 41 -165q-20 -125 -126 -200q-107 -75 -259 -75
q-189 0 -274 106t-50 300zM748 590q-8 -47 19.5 -68.5t94.5 -21.5q106 0 121 90q8 48 -12.5 69t-77.5 21q-127 0 -145 -90z" />
    <glyph glyph-name="uni2466" unicode="&#x2466;" horiz-adv-x="1712" 
d="M1353 176q-249 -207 -595 -207t-521 207q-176 207 -116 547q58 339 308 547q249 207 595 207t521 -207q175 -206 116 -547q-58 -339 -308 -547zM786 127q265 0 459 164q193 163 238 432q49 268 -85 432t-403 164q-266 0 -457 -164q-193 -164 -239 -432q-47 -270 86 -432
q134 -164 401 -164zM987 907h-336l33 197h567l-57 -330q-104 -50 -186 -165q-82 -116 -109 -265h-246q33 176 162 330q129 153 332 237z" />
    <glyph glyph-name="uni2467" unicode="&#x2467;" horiz-adv-x="1712" 
d="M1353 176q-249 -207 -595 -207t-521 207q-176 207 -116 547q58 339 308 547q249 207 595 207t521 -207q175 -206 116 -547q-58 -339 -308 -547zM786 127q265 0 459 164q193 163 238 432q49 268 -85 432t-403 164q-266 0 -457 -164q-193 -164 -239 -432q-47 -270 86 -432
q134 -164 401 -164zM496 532q32 160 243 201q-180 41 -155 180q17 98 121 159q103 61 258 61q153 0 236 -60q83 -62 67 -160q-26 -139 -219 -180q201 -40 172 -201q-17 -99 -126 -157q-110 -60 -274 -60t-251 60q-89 59 -72 157zM815 868q-8 -43 13.5 -62.5t74.5 -19.5
q98 0 117 82q8 47 -13 67.5t-75 20.5q-101 0 -117 -88zM748 584q-8 -48 16.5 -70t87.5 -22q119 0 133 92q8 45 -16.5 64.5t-87.5 19.5q-119 0 -133 -84z" />
    <glyph glyph-name="uni2468" unicode="&#x2468;" horiz-adv-x="1712" 
d="M1353 176q-249 -207 -595 -207t-521 207q-176 207 -116 547q58 339 308 547q249 207 595 207t521 -207q175 -206 116 -547q-58 -339 -308 -547zM786 127q265 0 459 164q193 163 238 432q49 268 -85 432t-403 164q-266 0 -457 -164q-193 -164 -239 -432q-47 -270 86 -432
q134 -164 401 -164zM569 860q19 123 128 198q108 75 259 75q189 0 273 -105.5t51 -302.5q-33 -185 -159 -297q-127 -113 -298 -113q-155 0 -238 72q-83 73 -61 188h238q-8 -43 13.5 -63t78.5 -20q74 0 118 56t66 177l6 43q-34 -62 -100.5 -99.5t-148.5 -37.5q-121 0 -182 63
q-62 62 -44 166zM811 860q-8 -47 13.5 -68.5t78.5 -21.5q129 0 144 90q8 45 -19 66.5t-94 21.5q-105 0 -123 -88z" />
    <glyph glyph-name="uni24EA" unicode="&#x24ea;" horiz-adv-x="1712" 
d="M1353 176q-249 -207 -595 -207t-521 207q-176 207 -116 547q58 339 308 547q249 207 595 207t521 -207q175 -206 116 -547q-58 -339 -308 -547zM786 127q265 0 459 164q193 163 238 432q49 268 -85 432t-403 164q-266 0 -457 -164q-193 -164 -239 -432q-47 -270 86 -432
q134 -164 401 -164zM1117 428q-127 -113 -298 -113q-172 0 -258 113q-86 114 -55 297q35 182 160 295t297 113t259 -113t54 -295q-33 -185 -159 -297zM758 574q24 -46 98 -46t116 45q41 44 61 150q18 104 -8 151q-25 46 -99 46q-75 0 -115 -46q-42 -48 -61 -151
q-16 -103 8 -149z" />
    <glyph glyph-name="uni24FF" unicode="&#x24ff;" horiz-adv-x="1712" 
d="M1353 177q-248 -208 -595 -208q-346 0 -521 208q-176 209 -116 548q59 338 308 545t595 207t521 -207q175 -206 116 -545q-58 -339 -308 -548zM560 428q87 -113 259 -113t297 113t158 297q33 182 -53 295t-258 113q-171 0 -298 -113q-126 -112 -159 -295
q-33 -185 54 -297zM972 574q-42 -46 -116 -46t-99 45q-26 46 -7 150q18 105 60 151t116 46q73 0 98 -46q26 -47 6 -151q-17 -105 -58 -149z" />
    <glyph glyph-name="lozenge" unicode="&#x25ca;" horiz-adv-x="1257" 
d="M524 1446h533l164 -723l-420 -723h-533l-162 723zM412 723l135 -653l368 653l-137 653z" />
    <glyph glyph-name="uni2766" unicode="&#x2766;" horiz-adv-x="915" 
d="M33 395h-33l53 299h33q-5 -30 14 -28q13 0 18 5.5t7 22.5h504l-54 -299h-501q2 18 -1 23.5t-16 5.5q-19 0 -24 -29zM625 408l49 274q94 0 162 -45t57 -92q-11 -48 -92 -92q-83 -45 -176 -45zM545 436l8 37h-438l-9 -37h439z" />
    <glyph glyph-name="uni2776" unicode="&#x2776;" horiz-adv-x="1712" 
d="M1353 178q-250 -209 -595 -209t-521 209t-116 547q59 338 308 545t595 207t521 -207q175 -206 116 -545q-59 -338 -308 -547zM598 987l-47 -262l246 186l112 105l-43 -213l-82 -459h240l135 760h-411z" />
    <glyph glyph-name="uni2777" unicode="&#x2777;" horiz-adv-x="1712" 
d="M1353 177q-248 -208 -595 -208q-346 0 -521 208q-176 209 -116 548q59 338 308 545t595 207t521 -207q175 -206 116 -545q-58 -339 -308 -548zM563 662l-55 -320h661l33 193h-401l-146 -3l119 31l219 76q125 41 186.5 97.5t75.5 140.5q20 118 -53 188t-221 70
q-150 0 -258 -81q-108 -80 -131 -212h237q19 121 117 121q84 0 70 -89q-6 -42 -29 -65t-74 -39z" />
    <glyph glyph-name="uni2778" unicode="&#x2778;" horiz-adv-x="1712" 
d="M1353 177q-248 -208 -595 -208q-346 0 -521 208q-176 209 -116 548q59 338 308 545t595 207t521 -207q175 -206 116 -545q-58 -339 -308 -548zM756 594h-238q-23 -125 57 -202t236 -77q165 0 275 64q110 63 126 168q33 186 -196 213q207 18 233 158q16 95 -64 156
q-82 59 -230 59q-149 0 -253 -77q-105 -77 -127 -204h240q13 94 109 94q88 0 71 -86q-11 -68 -92 -67h-102l-27 -146h117q48 0 69.5 -18t16.5 -54q-14 -75 -131 -73q-55 0 -76.5 22t-13.5 70z" />
    <glyph glyph-name="uni2779" unicode="&#x2779;" horiz-adv-x="1712" 
d="M1353 177q-248 -208 -595 -208q-346 0 -521 208q-176 209 -116 548q59 338 308 545t595 207t521 -207q175 -206 116 -545q-58 -339 -308 -548zM584 844l-66 -367h313l-24 -133h242l22 133h111l32 178h-110l78 449h-383zM692 653l-90 -2l338 408l-43 -205l-35 -199z" />
    <glyph glyph-name="uni277A" unicode="&#x277a;" horiz-adv-x="1712" 
d="M1353 177q-248 -208 -595 -208q-346 0 -521 208q-176 209 -116 548q59 338 308 545t595 207t521 -207q175 -206 116 -545q-58 -339 -308 -548zM772 586h-237q-20 -122 59 -195q79 -74 229 -74q151 0 254 75q102 74 125 196q20 110 -32 175q-52 66 -158 66
q-146 0 -232 -122l47 204l113 -2h283l34 193h-593l-113 -465h211q51 51 123 51q49 0 66.5 -25t6.5 -79q-10 -48 -34.5 -69t-71.5 -21q-51 0 -69.5 22t-10.5 70z" />
    <glyph glyph-name="uni277B" unicode="&#x277b;" horiz-adv-x="1712" 
d="M1353 178q-250 -209 -595 -209t-521 209t-116 547q59 338 308 545t595 207t521 -207q175 -206 116 -545q-59 -338 -308 -547zM514 721q-35 -195 50 -300.5t274 -105.5q154 0 260 75t127 200q18 102 -41 165q-60 62 -174 62q-87 0 -157.5 -38t-102.5 -101l8 43
q20 122 65 178.5t121 56.5q55 0 76.5 -19t13.5 -60h238q20 116 -61 186q-80 70 -236 70q-173 0 -301 -114q-127 -114 -160 -298zM745 590q18 90 148 90q57 0 77.5 -21t12.5 -69q-10 -48 -38 -69t-85 -21q-68 0 -95.5 21.5t-19.5 68.5z" />
    <glyph glyph-name="uni277C" unicode="&#x277c;" horiz-adv-x="1712" 
d="M1353 178q-250 -209 -595 -209t-521 209t-116 547q59 338 308 545t595 207t521 -207q175 -206 116 -545q-59 -338 -308 -547zM682 1104l-33 -197h338l160 4q-205 -84 -334 -237q-128 -154 -160 -330h246q25 147 108 264q81 116 187 166l57 330h-569z" />
    <glyph glyph-name="uni277D" unicode="&#x277d;" horiz-adv-x="1712" 
d="M1353 177q-248 -208 -595 -208q-346 0 -521 208q-176 209 -116 548q59 338 308 545t595 207t521 -207q175 -206 116 -545q-58 -339 -308 -548zM496 532q-17 -98 72 -157q87 -60 251 -60t274 60q109 58 126 157q29 161 -172 201q195 41 219 180q16 97 -67 159
q-82 61 -236 61q-155 0 -258 -60q-105 -61 -121 -160q-25 -139 155 -180q-211 -41 -243 -201zM815 868q16 88 117 88q54 0 75 -20.5t13 -67.5q-18 -82 -117 -82q-53 0 -74.5 19.5t-13.5 62.5zM748 584q14 84 133 84q63 0 87.5 -19.5t16.5 -64.5q-14 -92 -133 -92
q-63 0 -87.5 22t-16.5 70z" />
    <glyph glyph-name="uni277E" unicode="&#x277e;" horiz-adv-x="1712" 
d="M1353 177q-248 -208 -595 -208q-346 0 -521 208q-176 209 -116 548q59 338 308 545t595 207t521 -207q175 -206 116 -545q-58 -339 -308 -548zM569 860q-18 -104 44 -166q61 -63 182 -63q83 0 149.5 37.5t99.5 99.5l-6 -43q-23 -122 -66.5 -177.5t-117.5 -55.5
q-57 0 -78.5 20t-13.5 63h-238q-23 -118 61 -188q83 -72 238 -72q171 0 298 113q126 112 159 297q33 197 -51 302.5t-273 105.5q-152 0 -259 -75q-109 -75 -128 -198zM811 860q18 88 123 88q68 0 94.5 -21.5t18.5 -66.5q-13 -90 -144 -90q-57 0 -78.5 21.5t-13.5 68.5z" />
    <glyph glyph-name="uniF8FF" unicode="&#xf8ff;" horiz-adv-x="1204" 
d="M1116 1180l27 -230l-8 -6q-62 98 -139 122q-80 25 -343 26q-13 -207 -14 -295q87 1 148 44q59 43 110 144h6l-22 -145q-90 -75 -242 -80v-66q0 -119 4 -291q133 0 199 3q0 172 -15 284q-36 11 -88 19v6q143 27 246 71l2 -6q-41 -45 -54 -118q-13 -71 -13 -279
q0 -221 12 -340l78 -37v-6h-332v6l151 53q11 97 13 295q-88 2 -197 2q2 -34 2 -72q0 -41 2 -71l-108 -66l-4 7q7 56 20 202q-109 0 -197 -2q0 -198 13 -295l153 -53v-6h-333v6l77 37q11 113 13 340q0 207 -12 280q-14 73 -56 117l2 6q92 -42 246 -71v-6q-46 -7 -88 -19
q-13 -112 -15 -284q133 0 199 -3q6 125 6 291v70q-132 18 -215 103q-85 86 -92 210q-75 -12 -109 -39q-36 -28 -79 -94l-9 6q17 137 23 189l8 41q52 -33 168 -39q13 138 116 226q101 87 253 87q113 0 223 -65l31 57l12 -8q-20 -101 -21 -221h-4q-56 203 -241 204
q-114 2 -190 -77q-77 -80 -87 -207q82 -2 248 -2q286 0 374 9t138 36h4zM350 1087q4 -108 63 -185q59 -76 150 -99q-2 144 -12 289q-132 -2 -201 -5z" />
    <glyph glyph-name="I.ss02" horiz-adv-x="1148" 
d="M1196 1446l-51 -291h-287l-151 -864h286l-51 -291h-922l52 291h286l152 864h-287l51 291h922z" />
    <glyph glyph-name="Iacute.ss02" horiz-adv-x="1148" 
d="M803 1948h307l-244 -353h-231zM1196 1446l-51 -291h-287l-151 -864h286l-51 -291h-922l52 291h286l152 864h-287l51 291h922z" />
    <glyph glyph-name="Ibreve.ss02" horiz-adv-x="1148" 
d="M762 1587q-152 0 -221 93.5t-39 267.5h213q-16 -88 3 -127t79 -39q59 0 93 39t50 127h213q-30 -174 -133.5 -267.5t-257.5 -93.5zM1196 1446l-51 -291h-287l-151 -864h286l-51 -291h-922l52 291h286l152 864h-287l51 291h922z" />
    <glyph glyph-name="Icircumflex.ss02" horiz-adv-x="1148" 
d="M889 1595l-74 293l-178 -293h-264l243 353h418l119 -353h-264zM1196 1446l-51 -291h-287l-151 -864h286l-51 -291h-922l52 291h286l152 864h-287l51 291h922z" />
    <glyph glyph-name="Idieresis.ss02" horiz-adv-x="1148" 
d="M473 1919h297l-51 -289h-297zM866 1919h297l-51 -289h-295zM1196 1446l-51 -291h-287l-151 -864h286l-51 -291h-922l52 291h286l152 864h-287l51 291h922z" />
    <glyph glyph-name="Idotaccent.ss02" horiz-adv-x="1148" 
d="M645 1919h346l-51 -289h-346zM1196 1446l-51 -291h-287l-151 -864h286l-51 -291h-922l52 291h286l152 864h-287l51 291h922z" />
    <glyph glyph-name="uni1ECA.ss02" horiz-adv-x="1148" 
d="M1196 1446l-51 -291h-287l-151 -864h286l-51 -291h-922l52 291h286l152 864h-287l51 291h922zM580 -426h-347l50 285h346z" />
    <glyph glyph-name="Igrave.ss02" horiz-adv-x="1148" 
d="M840 1948l41 -353h-232l-117 353h308zM1196 1446l-51 -291h-287l-151 -864h286l-51 -291h-922l52 291h286l152 864h-287l51 291h922z" />
    <glyph glyph-name="Imacron.ss02" horiz-adv-x="1148" 
d="M522 1901h586l-45 -248h-584zM1196 1446l-51 -291h-287l-151 -864h286l-51 -291h-922l52 291h286l152 864h-287l51 291h922z" />
    <glyph glyph-name="Iogonek.ss02" horiz-adv-x="1148" 
d="M1196 1446l-51 -291h-287l-151 -864h286l-51 -291h-287l-143 -152q-42 -39 -43 -65q-4 -21 8 -32t41 -11h111l-33 -186h-262q-79 0 -115.5 38t-25.5 101q12 79 88 149l163 158h-424l52 291h286l152 864h-287l51 291h922z" />
    <glyph glyph-name="Itilde.ss02" horiz-adv-x="1148" 
d="M643 1710q-86 0 -100 -86h-160q27 151 100 230t189 79q64 0 143 -45t129 -45q86 0 100 86h160q-52 -309 -286 -309q-63 0 -144 45q-83 45 -131 45zM274 1446h922l-51 -291h-287l-151 -864h286l-51 -291h-922l52 291h286l152 864h-287z" />
    <glyph glyph-name="Z.ss03" horiz-adv-x="1331" 
d="M1174 0h-1186l94 526l1110 639l-234 -10h-757l51 291h1171l-92 -520l-1126 -647l237 12h783z" />
    <glyph glyph-name="Zacute.ss03" horiz-adv-x="1331" 
d="M750 1595l168 353h307l-244 -353h-231zM1174 0h-1186l94 526l1110 639l-234 -10h-757l51 291h1171l-92 -520l-1126 -647l237 12h783z" />
    <glyph glyph-name="Zcaron.ss03" horiz-adv-x="1331" 
d="M1085 1595h-419l-117 353h262l76 -291l178 291h262zM252 1446h1171l-92 -520l-1126 -647l237 12h783l-51 -291h-1186l94 526l1110 639l-234 -10h-757z" />
    <glyph glyph-name="Zdotaccent.ss03" horiz-adv-x="1331" 
d="M709 1630l51 289h346l-51 -289h-346zM1174 0h-1186l94 526l1110 639l-234 -10h-757l51 291h1171l-92 -520l-1126 -647l237 12h783z" />
    <glyph glyph-name="a.salt" horiz-adv-x="1331" 
d="M940 827l41 230h313l-186 -1057h-313l43 250q-70 -133 -178.5 -207t-235.5 -74q-200 0 -294 154q-95 154 -50 405t194 406q148 153 349 153q126 0 209 -67.5t108 -192.5zM429 293q42 -74 163 -74t188 73q66 73 94 236q29 162 -13 236t-163 74q-119 0 -186 -74t-96 -235
q-29 -163 13 -236z" />
    <glyph glyph-name="aacute.salt" horiz-adv-x="1331" 
d="M829 1559h308l-244 -353h-231zM940 827l41 230h313l-186 -1057h-313l43 250q-70 -133 -178.5 -207t-235.5 -74q-200 0 -294 154q-95 154 -50 405t194 406q148 153 349 153q126 0 209 -67.5t108 -192.5zM429 293q42 -74 163 -74t188 73q66 73 94 236q29 162 -13 236
t-163 74q-119 0 -186 -74t-96 -235q-29 -163 13 -236z" />
    <glyph glyph-name="abreve.salt" horiz-adv-x="1331" 
d="M788 1198q-152 0 -221 93t-39 268h213q-16 -88 3.5 -127t79.5 -39q59 0 92.5 38.5t50.5 127.5h213q-30 -174 -134 -267.5t-258 -93.5zM940 827l41 230h313l-186 -1057h-313l43 250q-70 -133 -178.5 -207t-235.5 -74q-200 0 -294 154q-95 154 -50 405t194 406
q148 153 349 153q126 0 209 -67.5t108 -192.5zM429 293q42 -74 163 -74t188 73q66 73 94 236q29 162 -13 236t-163 74q-119 0 -186 -74t-96 -235q-29 -163 13 -236z" />
    <glyph glyph-name="acircumflex.salt" horiz-adv-x="1331" 
d="M918 1206l-74 293l-178 -293h-265l244 353h418l119 -353h-264zM940 827l41 230h313l-186 -1057h-313l43 250q-70 -133 -178.5 -207t-235.5 -74q-200 0 -294 154q-95 154 -50 405t194 406q148 153 349 153q126 0 209 -67.5t108 -192.5zM429 293q42 -74 163 -74t188 73
q66 73 94 236q29 162 -13 236t-163 74q-119 0 -186 -74t-96 -235q-29 -163 13 -236z" />
    <glyph glyph-name="adieresis.salt" horiz-adv-x="1331" 
d="M500 1530h297l-52 -289h-296zM893 1530h297l-51 -289h-295zM940 827l41 230h313l-186 -1057h-313l43 250q-70 -133 -178.5 -207t-235.5 -74q-200 0 -294 154q-95 154 -50 405t194 406q148 153 349 153q126 0 209 -67.5t108 -192.5zM429 293q42 -74 163 -74t188 73
q66 73 94 236q29 162 -13 236t-163 74q-119 0 -186 -74t-96 -235q-29 -163 13 -236z" />
    <glyph glyph-name="uni1EA1.salt" horiz-adv-x="1331" 
d="M940 827l41 230h313l-186 -1057h-313l43 250q-70 -133 -178.5 -207t-235.5 -74q-200 0 -294 154q-95 154 -50 405t194 406q148 153 349 153q126 0 209 -67.5t108 -192.5zM429 293q42 -74 163 -74t188 73q66 73 94 236q29 162 -13 236t-163 74q-119 0 -186 -74t-96 -235
q-29 -163 13 -236zM709 -426h-347l50 285h346z" />
    <glyph glyph-name="agrave.salt" horiz-adv-x="1331" 
d="M870 1559l41 -353h-231l-117 353h307zM940 827l41 230h313l-186 -1057h-313l43 250q-70 -133 -178.5 -207t-235.5 -74q-200 0 -294 154q-95 154 -50 405t194 406q148 153 349 153q126 0 209 -67.5t108 -192.5zM429 293q42 -74 163 -74t188 73q66 73 94 236
q29 162 -13 236t-163 74q-119 0 -186 -74t-96 -235q-29 -163 13 -236z" />
    <glyph glyph-name="amacron.salt" horiz-adv-x="1331" 
d="M551 1511h586l-45 -247h-584zM940 827l41 230h313l-186 -1057h-313l43 250q-70 -133 -178.5 -207t-235.5 -74q-200 0 -294 154q-95 154 -50 405t194 406q148 153 349 153q126 0 209 -67.5t108 -192.5zM429 293q42 -74 163 -74t188 73q66 73 94 236q29 162 -13 236
t-163 74q-119 0 -186 -74t-96 -235q-29 -163 13 -236z" />
    <glyph glyph-name="aogonek.salt" horiz-adv-x="1331" 
d="M1108 0l-143 -152q-42 -39 -43 -65q-4 -21 8 -32t41 -11h110l-32 -186h-263q-79 0 -115 37.5t-26 101.5q12 79 88 149l164 158h-102l43 250q-70 -133 -178.5 -207t-235.5 -74q-200 0 -294 154q-95 154 -50 405t194 406q148 153 349 153q126 0 209 -67.5t108 -192.5
l41 230h313zM429 293q42 -74 163 -74t188 73q66 73 94 236q29 162 -13 236t-163 74q-119 0 -186 -74t-96 -235q-29 -163 13 -236z" />
    <glyph glyph-name="aring.salt" horiz-adv-x="1331" 
d="M788 1198q-94 0 -143 51t-34 133q13 80 82 134q67 51 161 51q95 0 144 -51.5t35 -133.5q-15 -82 -82 -133t-163 -51zM748 1382q-7 -33 9 -49.5t54 -15.5q74 0 86 66q12 65 -63 65q-78 0 -86 -66zM940 827l41 230h313l-186 -1057h-313l43 250q-70 -133 -178.5 -207
t-235.5 -74q-200 0 -294 154q-95 154 -50 405t194 406q148 153 349 153q126 0 209 -67.5t108 -192.5zM429 293q42 -74 163 -74t188 73q66 73 94 236q29 162 -13 236t-163 74q-119 0 -186 -74t-96 -235q-29 -163 13 -236z" />
    <glyph glyph-name="aringacute.salt" horiz-adv-x="1331" 
d="M951 1249q-67 -51 -162 -51t-144 51q-49 50 -34 133q13 80 82 134q67 51 161 51h18l82 176h242l-192 -234q43 -50 28 -127q-13 -82 -81 -133zM745 1382q-6 -33 10 -49.5t54 -15.5q76 0 88 66q12 65 -63 65q-76 0 -89 -66zM940 827l41 230h313l-186 -1057h-313l43 250
q-70 -133 -178.5 -207t-235.5 -74q-200 0 -294 154q-95 154 -50 405t194 406q148 153 349 153q126 0 209 -67.5t108 -192.5zM429 293q42 -74 163 -74t188 73q66 73 94 236q29 162 -13 236t-163 74q-119 0 -186 -74t-96 -235q-29 -163 13 -236z" />
    <glyph glyph-name="atilde.salt" horiz-adv-x="1331" 
d="M670 1321q-86 0 -101 -86h-159q27 151 100 230t188 79q63 0 144 -45q80 -45 129 -45q86 0 100 86h160q-53 -309 -287 -309q-63 0 -144 45t-130 45zM940 827l41 230h313l-186 -1057h-313l43 250q-70 -133 -178.5 -207t-235.5 -74q-200 0 -294 154q-95 154 -50 405t194 406
q148 153 349 153q126 0 209 -67.5t108 -192.5zM429 293q42 -74 163 -74t188 73q66 73 94 236q29 162 -13 236t-163 74q-119 0 -186 -74t-96 -235q-29 -163 13 -236z" />
    <glyph glyph-name="g.salt" horiz-adv-x="1325" 
d="M936 825l39 232h315l-178 -1002q-38 -212 -212 -339q-176 -128 -425 -128q-248 0 -378 121q-129 121 -95 320h315q-18 -102 30 -149.5t171 -47.5q121 0 187.5 68.5t93.5 220.5l26 155q-69 -110 -169 -171.5t-218 -61.5q-201 0 -299 146q-97 145 -57 374q40 235 190 380
q148 144 349 144q127 0 209.5 -68.5t105.5 -193.5zM604 289q207 0 264 229l17 94q12 119 -32 172.5t-153 53.5q-123 0 -190.5 -65.5t-91.5 -209.5q-25 -142 19.5 -208t166.5 -66z" />
    <glyph glyph-name="gbreve.salt" horiz-adv-x="1325" 
d="M778 1198q-152 0 -221 93t-39 268h213q-16 -88 3.5 -127t78.5 -39q60 0 93.5 38.5t49.5 127.5h213q-30 -174 -133.5 -267.5t-257.5 -93.5zM936 825l39 232h315l-178 -1002q-38 -212 -212 -339q-176 -128 -425 -128q-248 0 -378 121q-129 121 -95 320h315
q-18 -102 30 -149.5t171 -47.5q121 0 187.5 68.5t93.5 220.5l26 155q-69 -110 -169 -171.5t-218 -61.5q-201 0 -299 146q-97 145 -57 374q40 235 190 380q148 144 349 144q127 0 209.5 -68.5t105.5 -193.5zM604 289q207 0 264 229l17 94q12 119 -32 172.5t-153 53.5
q-123 0 -190.5 -65.5t-91.5 -209.5q-25 -142 19.5 -208t166.5 -66z" />
    <glyph glyph-name="gcaron.salt" horiz-adv-x="1325" 
d="M989 1206h-420l-116 353h262l76 -291l178 291h262zM936 825l39 232h315l-178 -1002q-38 -212 -212 -339q-176 -128 -425 -128q-248 0 -378 121q-129 121 -95 320h315q-18 -102 30 -149.5t171 -47.5q121 0 187.5 68.5t93.5 220.5l26 155q-69 -110 -169 -171.5t-218 -61.5
q-201 0 -299 146q-97 145 -57 374q40 235 190 380q148 144 349 144q127 0 209.5 -68.5t105.5 -193.5zM604 289q207 0 264 229l17 94q12 119 -32 172.5t-153 53.5q-123 0 -190.5 -65.5t-91.5 -209.5q-25 -142 19.5 -208t166.5 -66z" />
    <glyph glyph-name="gcircumflex.salt" horiz-adv-x="1325" 
d="M907 1206l-73 293l-179 -293h-264l244 353h418l118 -353h-264zM936 825l39 232h315l-178 -1002q-38 -212 -212 -339q-176 -128 -425 -128q-248 0 -378 121q-129 121 -95 320h315q-18 -102 30 -149.5t171 -47.5q121 0 187.5 68.5t93.5 220.5l26 155q-69 -110 -169 -171.5
t-218 -61.5q-201 0 -299 146q-97 145 -57 374q40 235 190 380q148 144 349 144q127 0 209.5 -68.5t105.5 -193.5zM604 289q207 0 264 229l17 94q12 119 -32 172.5t-153 53.5q-123 0 -190.5 -65.5t-91.5 -209.5q-25 -142 19.5 -208t166.5 -66z" />
    <glyph glyph-name="uni0123.salt" horiz-adv-x="1325" 
d="M819 1434l142 -56l-31 -172h-316l37 213q22 120 130 191q107 69 263 69l-22 -129q-96 0 -144.5 -27.5t-58.5 -88.5zM936 825l39 232h315l-178 -1002q-38 -212 -212 -339q-176 -128 -425 -128q-248 0 -378 121q-129 121 -95 320h315q-18 -102 30 -149.5t171 -47.5
q121 0 187.5 68.5t93.5 220.5l26 155q-69 -110 -169 -171.5t-218 -61.5q-201 0 -299 146q-97 145 -57 374q40 235 190 380q148 144 349 144q127 0 209.5 -68.5t105.5 -193.5zM604 289q207 0 264 229l17 94q12 119 -32 172.5t-153 53.5q-123 0 -190.5 -65.5t-91.5 -209.5
q-25 -142 19.5 -208t166.5 -66z" />
    <glyph glyph-name="gdotaccent.salt" horiz-adv-x="1325" 
d="M664 1530h346l-52 -289h-346zM936 825l39 232h315l-178 -1002q-38 -212 -212 -339q-176 -128 -425 -128q-248 0 -378 121q-129 121 -95 320h315q-18 -102 30 -149.5t171 -47.5q121 0 187.5 68.5t93.5 220.5l26 155q-69 -110 -169 -171.5t-218 -61.5q-201 0 -299 146
q-97 145 -57 374q40 235 190 380q148 144 349 144q127 0 209.5 -68.5t105.5 -193.5zM604 289q207 0 264 229l17 94q12 119 -32 172.5t-153 53.5q-123 0 -190.5 -65.5t-91.5 -209.5q-25 -142 19.5 -208t166.5 -66z" />
    <glyph glyph-name="l.salt" horiz-adv-x="583" 
d="M37 0l274 1559h326l-275 -1559h-325z" />
    <glyph glyph-name="lacute.salt" horiz-adv-x="583" 
d="M362 1651l168 352h308l-244 -352h-232zM37 0l274 1559h326l-275 -1559h-325z" />
    <glyph glyph-name="lcaron.salt" horiz-adv-x="583" 
d="M37 0l274 1559h326l-275 -1559h-325zM741 1386l31 173h303l-37 -213q-19 -120 -124 -193q-105 -72 -257 -72l23 129q90 0 135 29t57 94z" />
    <glyph glyph-name="uni013C.salt" horiz-adv-x="583" 
d="M37 0l274 1559h326l-275 -1559h-325zM-8 -313l31 172h303l-37 -213q-19 -121 -125 -193q-106 -71 -256 -71l22 129q90 0 135.5 28.5t57.5 91.5z" />
    <glyph glyph-name="ldot.salt" horiz-adv-x="901" 
d="M37 0l274 1559h326l-275 -1559h-325zM547 602l57 322h322l-58 -322h-321z" />
    <glyph glyph-name="lslash.salt" horiz-adv-x="598" 
d="M522 905l191 127l-51 -293l-191 -127l-109 -612h-325l82 463l-146 -94l54 293l143 94l141 803h326z" />
    <glyph glyph-name="y.salt" horiz-adv-x="1208" 
d="M645 389l311 668h330l-678 -1448h-317l178 391h-236l-122 1057h338l73 -668l15 -264z" />
    <glyph glyph-name="yacute.salt" horiz-adv-x="1208" 
d="M766 1559h307l-244 -353h-231zM645 389l311 668h330l-678 -1448h-317l178 391h-236l-122 1057h338l73 -668l15 -264z" />
    <glyph glyph-name="ycircumflex.salt" horiz-adv-x="1208" 
d="M854 1206l-74 293l-178 -293h-264l244 353h417l119 -353h-264zM645 389l311 668h330l-678 -1448h-317l178 391h-236l-122 1057h338l73 -668l15 -264z" />
    <glyph glyph-name="ydieresis.salt" horiz-adv-x="1208" 
d="M436 1530h297l-51 -289h-297zM829 1530h297l-51 -289h-295zM645 389l311 668h330l-678 -1448h-317l178 391h-236l-122 1057h338l73 -668l15 -264z" />
    <glyph glyph-name="ygrave.salt" horiz-adv-x="1208" 
d="M807 1559l41 -353h-232l-116 353h307zM645 389l311 668h330l-678 -1448h-317l178 391h-236l-122 1057h338l73 -668l15 -264z" />
    <glyph glyph-name="uni0233.salt" horiz-adv-x="1208" 
d="M487 1511h586l-45 -247h-584zM645 389l311 668h330l-678 -1448h-317l178 391h-236l-122 1057h338l73 -668l15 -264z" />
    <glyph glyph-name="uni1EF9.salt" horiz-adv-x="1208" 
d="M606 1321q-86 0 -100 -86h-160q27 151 100 230t189 79q63 0 143 -45t129 -45q86 0 101 86h159q-53 -309 -286 -309q-63 0 -144 45q-83 45 -131 45zM645 389l311 668h330l-678 -1448h-317l178 391h-236l-122 1057h338l73 -668l15 -264z" />
    <glyph glyph-name="z.ss03" horiz-adv-x="1050" 
d="M877 0h-889l73 418l740 395l-223 -10h-439l45 254h869l-76 -424l-727 -389l213 10h459z" />
    <glyph glyph-name="zacute.ss03" horiz-adv-x="1050" 
d="M516 1206l168 353h307l-243 -353h-232zM877 0h-889l73 418l740 395l-223 -10h-439l45 254h869l-76 -424l-727 -389l213 10h459z" />
    <glyph glyph-name="zcaron.ss03" horiz-adv-x="1050" 
d="M852 1206h-420l-117 353h263l75 -291l178 291h263zM578 803h-439l45 254h869l-76 -424l-727 -389l213 10h459l-45 -254h-889l73 418l740 395z" />
    <glyph glyph-name="zdotaccent.ss03" horiz-adv-x="1050" 
d="M475 1241l51 289h346l-51 -289h-346zM877 0h-889l73 418l740 395l-223 -10h-439l45 254h869l-76 -424l-727 -389l213 10h459z" />
    <glyph glyph-name="f_f_j.dlig" horiz-adv-x="2101" 
d="M1354 1057h710l-194 -1100q-28 -165 -154 -268q-125 -101 -301 -101q-84 0 -153 21l41 235h104q63 0 96 33t47 111l146 821h-385l-144 -809h-325l143 809h-401l-144 -809h-325l143 809h-201l43 248h203l21 117q27 163 158 264q130 100 315 100q133 0 202 -20l-41 -236
h-157q-73 0 -109.5 -33t-48.5 -110l-14 -82h399l29 157q29 164 160 265q130 100 313 100q116 0 188 -23l-43 -233h-141q-72 0 -107.5 -32.5t-50.5 -110.5zM1761 1241l54 305h346l-54 -305h-346z" />
    <glyph glyph-name="f_iacute.dlig" horiz-adv-x="1366" 
d="M627 1057h710l-188 -1057h-324l144 809h-385l-144 -809h-325l143 809h-203l45 248h201l29 157q29 164 160 265q130 100 313 100q119 0 211 -20l-41 -236h-166q-72 0 -107.5 -32.5t-50.5 -110.5zM1239 1559h307l-241 -353h-232z" />
    <glyph glyph-name="f_j.dlig" horiz-adv-x="1374" 
d="M627 1057h710l-194 -1100q-28 -165 -154 -268q-125 -101 -301 -101q-84 0 -153 21l38 235h105q66 0 98.5 32.5t46.5 111.5l146 821h-385l-144 -809h-325l143 809h-201l43 248h201l29 157q29 164 160 265q130 100 313 100q116 0 188 -23l-43 -233h-141q-72 0 -107.5 -32.5
t-50.5 -110.5zM1034 1241l53 305h347l-56 -305h-344z" />
    <glyph glyph-name="f_t.dlig" horiz-adv-x="1662" 
d="M1677 809h-362l-76 -430q-14 -80 10 -111.5t99 -31.5h231l-41 -236q-162 -20 -285 -20q-184 0 -279 98t-67 258l82 473h-405l-144 -809h-325l143 809h-201l43 248h201l29 157q27 164 158 265q130 100 315 100q127 0 219 -20l-41 -236h-174q-72 0 -108.5 -33t-49.5 -110
l-22 -123h407l64 309h315l-55 -309h362z" />
    <glyph glyph-name="t_t.dlig" horiz-adv-x="1691" 
d="M1706 809h-363l-75 -430q-14 -79 11 -111t99 -32h230l-41 -236q-158 -20 -285 -20q-182 0 -277 98q-96 98 -69 258l84 473h-442l-76 -430q-14 -79 11 -111t99 -32h185l-41 -234q-117 -23 -240 -22q-184 0 -279 98q-96 97 -67 258l84 473h-203l43 248h205l57 268h314
l-47 -268h442l63 309h314l-56 -309h365z" />
    <glyph glyph-name="f_f_l.liga.salt" horiz-adv-x="2119" 
d="M1655 1057l-45 -248h-299l-144 -809h-325l143 809h-401l-144 -809h-325l143 809h-203l45 248h203l29 162q27 156 140 237.5t300 81.5q127 0 219 -20l-41 -236h-162q-72 0 -101 -24q-30 -26 -42 -95l-18 -106h401l37 203q27 156 141 237.5t303 81.5q145 0 242 -23
l-43 -233h-184q-72 0 -101 -24q-30 -25 -43 -95l-26 -147h301zM1575 0l274 1559h326l-274 -1559h-326z" />
    <glyph glyph-name="uniFB02.aalt" horiz-adv-x="1392" 
d="M928 1057l-45 -248h-299l-144 -809h-325l143 809h-203l45 248h201l29 157q29 164 160 265q130 100 313 100q135 0 219 -23l-41 -233h-174q-72 0 -107.5 -32.5t-50.5 -110.5l-22 -123h301zM848 0l274 1559h326l-277 -1559h-323z" />
    <glyph glyph-name="A.c2sc" horiz-adv-x="1306" 
d="M1198 0h-317l-35 233h-469l-117 -233h-326l549 1087h549zM645 764l-143 -285h305l-43 285l-23 213z" />
    <glyph glyph-name="Aacute.aalt" horiz-adv-x="1306" 
d="M827 1559h308l-244 -353h-232zM1198 0h-317l-35 233h-469l-117 -233h-326l549 1087h549zM645 764l-143 -285h305l-43 285l-23 213z" />
    <glyph glyph-name="Abreve.aalt" horiz-adv-x="1306" 
d="M784 1198q-152 0 -221 93t-39 268h213q-16 -88 3.5 -127t79.5 -39q59 0 92.5 38.5t50.5 127.5h213q-30 -174 -134 -267.5t-258 -93.5zM1198 0h-317l-35 233h-469l-117 -233h-326l549 1087h549zM645 764l-143 -285h305l-43 285l-23 213z" />
    <glyph glyph-name="Acircumflex.aalt" horiz-adv-x="1306" 
d="M913 1206l-73 293l-178 -293h-265l244 353h418l119 -353h-265zM1198 0h-317l-35 233h-469l-117 -233h-326l549 1087h549zM645 764l-143 -285h305l-43 285l-23 213z" />
    <glyph glyph-name="Adieresis.aalt" horiz-adv-x="1306" 
d="M498 1530h297l-52 -289h-297zM891 1530h297l-51 -289h-295zM1198 0h-317l-35 233h-469l-117 -233h-326l549 1087h549zM645 764l-143 -285h305l-43 285l-23 213z" />
    <glyph glyph-name="uni1EA0.aalt" horiz-adv-x="1306" 
d="M1032 1087l166 -1087h-317l-35 233h-469l-117 -233h-326l549 1087h549zM645 764l-143 -285h305l-43 285l-23 213zM676 -426h-346l49 285h346z" />
    <glyph glyph-name="Agrave.aalt" horiz-adv-x="1306" 
d="M866 1559l41 -353h-231l-117 353h307zM1198 0h-317l-35 233h-469l-117 -233h-326l549 1087h549zM645 764l-143 -285h305l-43 285l-23 213z" />
    <glyph glyph-name="Amacron.aalt" horiz-adv-x="1306" 
d="M547 1511h586l-46 -247h-583zM1198 0h-317l-35 233h-469l-117 -233h-326l549 1087h549zM645 764l-143 -285h305l-43 285l-23 213z" />
    <glyph glyph-name="Aogonek.aalt" horiz-adv-x="1306" 
d="M1092 0l-144 -152q-42 -39 -43 -65q-4 -20 8.5 -31.5t40.5 -11.5h111l-33 -186h-262q-79 0 -115.5 38t-25.5 101q12 79 88 149l164 158l-35 233h-469l-117 -233h-326l549 1087h549l166 -1087h-106zM645 764l-143 -285h305l-43 285l-23 213z" />
    <glyph glyph-name="Aring.aalt" horiz-adv-x="1306" 
d="M784 1198q-94 0 -143 51t-34 133q13 80 82 134q67 51 161 51q95 0 143.5 -51.5t34.5 -133.5q-13 -82 -81 -133q-67 -51 -163 -51zM743 1382q-7 -33 9 -49.5t55 -15.5q74 0 86 66q12 65 -64 65q-79 0 -86 -66zM1198 0h-317l-35 233h-469l-117 -233h-326l549 1087h549z
M645 764l-143 -285h305l-43 285l-23 213z" />
    <glyph glyph-name="Aringacute.aalt" horiz-adv-x="1306" 
d="M770 1198q-94 0 -143 51t-35 133q13 80 82 134q68 51 162 51h18l82 176h244l-195 -234q43 -50 29 -127q-13 -82 -81 -133q-67 -51 -163 -51zM729 1382q-7 -33 9 -49.5t55 -15.5q74 0 86 66q12 65 -64 65q-74 0 -86 -66zM1198 0h-317l-35 233h-469l-117 -233h-326
l549 1087h549zM645 764l-143 -285h305l-43 285l-23 213z" />
    <glyph glyph-name="Atilde.aalt" horiz-adv-x="1306" 
d="M668 1321q-86 0 -101 -86h-159q27 151 100 230t188 79q63 0 144 -45q80 -45 129 -45q86 0 100 86h160q-53 -309 -287 -309q-63 0 -144 45t-130 45zM483 1087h549l166 -1087h-317l-35 233h-469l-117 -233h-326zM645 764l-143 -285h305l-43 285l-23 213z" />
    <glyph glyph-name="AE.aalt" horiz-adv-x="1755" 
d="M1751 1087l-45 -251h-637l27 -179h563l-37 -217h-494l29 -188h449l-43 -252h-689l-34 233h-467l-119 -233h-320l549 1087h1268zM641 764l-143 -285h305l-43 285l-23 211z" />
    <glyph glyph-name="AEacute.aalt" horiz-adv-x="1755" 
d="M1087 1559h308l-244 -353h-231zM1751 1087l-45 -251h-637l27 -179h563l-37 -217h-494l29 -188h449l-43 -252h-689l-34 233h-467l-119 -233h-320l549 1087h1268zM641 764l-143 -285h305l-43 285l-23 211z" />
    <glyph glyph-name="B.aalt" horiz-adv-x="1241" 
d="M1212 829q-34 -193 -290 -231q134 -29 195 -104t40 -189q-26 -137 -142 -221q-119 -84 -286 -84h-672l193 1087h655q157 0 243 -71q83 -72 64 -187zM737 862h-200l-41 -223h202q147 0 168 117q10 55 -20.5 80.5t-108.5 25.5zM827 338q10 61 -20 89t-105 28h-239l-41 -230
h240q78 0 116.5 27t48.5 86z" />
    <glyph glyph-name="C.aalt" horiz-adv-x="1261" 
d="M171 126q-130 157 -85 413q45 255 231 413q184 156 443 156q238 0 360 -128t84 -337h-323q20 109 -20 159t-146 50q-125 0 -194.5 -74.5t-98.5 -238.5t14 -239t168 -75q109 0 166 43t74 140h321q-33 -199 -199 -319q-167 -120 -407 -120q-258 0 -388 157z" />
    <glyph glyph-name="Cacute.aalt" horiz-adv-x="1261" 
d="M649 1206l168 353h307l-243 -353h-232zM171 126q-130 157 -85 413q45 255 231 413q184 156 443 156q238 0 360 -128t84 -337h-323q20 109 -20 159t-146 50q-125 0 -194.5 -74.5t-98.5 -238.5t14 -239t168 -75q109 0 166 43t74 140h321q-33 -199 -199 -319
q-167 -120 -407 -120q-258 0 -388 157z" />
    <glyph glyph-name="Ccaron.aalt" horiz-adv-x="1261" 
d="M983 1206h-420l-117 353h263l75 -291l179 291h262zM760 1108q238 0 360 -128t84 -337h-323q20 109 -20 159t-146 50q-125 0 -194.5 -74.5t-98.5 -238.5t14 -239t168 -75q109 0 166 43t74 140h321q-33 -199 -199 -319q-167 -120 -407 -120q-258 0 -388 157t-85 413
q45 255 231 413q184 156 443 156z" />
    <glyph glyph-name="Ccedilla.aalt" horiz-adv-x="1261" 
d="M1204 643h-323q20 109 -20 159t-146 50q-125 0 -194.5 -74.5t-98.5 -238.5t14 -239t168 -75q109 0 166 43t74 140h321q-32 -181 -173 -297q-143 -117 -353 -138l-39 -77h31q80 0 121 -45.5t28 -118.5q-16 -80 -78.5 -129t-150.5 -49h-223l24 139h158q53 0 61 41
q4 20 -8 30.5t-41 10.5h-137l18 114l52 88q-209 32 -308 183q-100 151 -61 379q45 255 231 413q184 156 443 156q238 0 360 -128t84 -337z" />
    <glyph glyph-name="Ccircumflex.aalt" horiz-adv-x="1261" 
d="M903 1206l-74 293l-178 -293h-264l244 353h418l118 -353h-264zM1204 643h-323q20 109 -20 159t-146 50q-125 0 -194.5 -74.5t-98.5 -238.5t14 -239t168 -75q109 0 166 43t74 140h321q-33 -199 -199 -319q-167 -120 -407 -120q-258 0 -388 157t-85 413q45 255 231 413
q184 156 443 156q238 0 360 -128t84 -337z" />
    <glyph glyph-name="Cdotaccent.aalt" horiz-adv-x="1261" 
d="M608 1241l51 289h347l-52 -289h-346zM171 126q-130 157 -85 413q45 255 231 413q184 156 443 156q238 0 360 -128t84 -337h-323q20 109 -20 159t-146 50q-125 0 -194.5 -74.5t-98.5 -238.5t14 -239t168 -75q109 0 166 43t74 140h321q-33 -199 -199 -319
q-167 -120 -407 -120q-258 0 -388 157z" />
    <glyph glyph-name="D.aalt" horiz-adv-x="1355" 
d="M250 1087h536q262 0 397 -149q134 -151 91 -393q-41 -247 -228 -395q-188 -150 -452 -150h-537zM830 324q83 71 110 221q27 149 -30 220q-59 71 -205 71h-175l-102 -584h172q148 0 230 72z" />
    <glyph glyph-name="Eth.aalt" horiz-adv-x="1355" 
d="M250 1087h536q262 0 397 -149q134 -151 91 -393q-41 -247 -228 -395q-188 -150 -452 -150h-537l80 446h-129l35 205h129zM830 324q83 71 110 221q27 149 -30 220q-59 71 -205 71h-175l-32 -185h241l-34 -205h-242l-35 -194h172q148 0 230 72z" />
    <glyph glyph-name="Dcaron.aalt" horiz-adv-x="1355" 
d="M997 1206h-419l-117 353h262l76 -291l178 291h262zM250 1087h536q262 0 397 -149q134 -151 91 -393q-41 -247 -228 -395q-188 -150 -452 -150h-537zM830 324q83 71 110 221q27 149 -30 220q-59 71 -205 71h-175l-102 -584h172q148 0 230 72z" />
    <glyph glyph-name="Dcroat.aalt" horiz-adv-x="1355" 
d="M250 1087h536q262 0 397 -149q134 -151 91 -393q-41 -247 -228 -395q-188 -150 -452 -150h-537l80 446h-129l35 205h129zM830 324q83 71 110 221q27 149 -30 220q-59 71 -205 71h-175l-32 -185h241l-34 -205h-242l-35 -194h172q148 0 230 72z" />
    <glyph glyph-name="E.aalt" horiz-adv-x="1120" 
d="M1116 1087l-43 -251h-543l-30 -179h524l-37 -217h-526l-33 -188h545l-45 -252h-871l193 1087h866z" />
    <glyph glyph-name="Eacute.aalt" horiz-adv-x="1120" 
d="M739 1559h308l-244 -353h-232zM1116 1087l-43 -251h-543l-30 -179h524l-37 -217h-526l-33 -188h545l-45 -252h-871l193 1087h866z" />
    <glyph glyph-name="Ebreve.aalt" horiz-adv-x="1120" 
d="M696 1198q-152 0 -221 93t-39 268h213q-16 -88 3.5 -127t79.5 -39t93 38.5t49 127.5h213q-30 -174 -133.5 -267.5t-257.5 -93.5zM1116 1087l-43 -251h-543l-30 -179h524l-37 -217h-526l-33 -188h545l-45 -252h-871l193 1087h866z" />
    <glyph glyph-name="Ecaron.aalt" horiz-adv-x="1120" 
d="M905 1206h-420l-116 353h262l76 -291l178 291h262zM250 1087h866l-43 -251h-543l-30 -179h524l-37 -217h-526l-33 -188h545l-45 -252h-871z" />
    <glyph glyph-name="Ecircumflex.aalt" horiz-adv-x="1120" 
d="M825 1206l-73 293l-179 -293h-264l244 353h418l119 -353h-265zM1116 1087l-43 -251h-543l-30 -179h524l-37 -217h-526l-33 -188h545l-45 -252h-871l193 1087h866z" />
    <glyph glyph-name="Edieresis.aalt" horiz-adv-x="1120" 
d="M410 1530h297l-52 -289h-297zM803 1530h297l-51 -289h-295zM1116 1087l-43 -251h-543l-30 -179h524l-37 -217h-526l-33 -188h545l-45 -252h-871l193 1087h866z" />
    <glyph glyph-name="Edotaccent.aalt" horiz-adv-x="1120" 
d="M582 1530h346l-51 -289h-347zM1116 1087l-43 -251h-543l-30 -179h524l-37 -217h-526l-33 -188h545l-45 -252h-871l193 1087h866z" />
    <glyph glyph-name="uni1EB8.aalt" horiz-adv-x="1120" 
d="M1116 1087l-43 -251h-543l-30 -179h524l-37 -217h-526l-33 -188h545l-45 -252h-871l193 1087h866zM616 -426h-346l49 285h347z" />
    <glyph glyph-name="Egrave.aalt" horiz-adv-x="1120" 
d="M778 1559l41 -353h-231l-117 353h307zM1116 1087l-43 -251h-543l-30 -179h524l-37 -217h-526l-33 -188h545l-45 -252h-871l193 1087h866z" />
    <glyph glyph-name="Emacron.aalt" horiz-adv-x="1120" 
d="M459 1511h585l-45 -247h-583zM1116 1087l-43 -251h-543l-30 -179h524l-37 -217h-526l-33 -188h545l-45 -252h-871l193 1087h866z" />
    <glyph glyph-name="Eogonek.aalt" horiz-adv-x="1120" 
d="M1116 1087l-43 -251h-543l-30 -179h524l-37 -217h-526l-33 -188h545l-45 -252h2l-144 -152q-42 -39 -43 -65q-4 -21 8.5 -32t41.5 -11h110l-33 -186h-262q-79 0 -115 37.5t-26 101.5q12 79 88 149l164 158h-662l193 1087h866z" />
    <glyph glyph-name="uni1EBC.aalt" horiz-adv-x="1120" 
d="M580 1321q-86 0 -101 -86h-160q27 151 100 230t189 79q64 0 143 -45t130 -45q86 0 100 86h160q-53 -309 -287 -309q-63 0 -144 45t-130 45zM250 1087h866l-43 -251h-543l-30 -179h524l-37 -217h-526l-33 -188h545l-45 -252h-871z" />
    <glyph glyph-name="uni018F.aalt" horiz-adv-x="1282" 
d="M735 1108q254 0 383 -156q128 -157 82 -413q-45 -256 -229 -413t-441 -157q-245 0 -369 139q-126 137 -85 361l20 125h776q16 138 -29 201t-161 63q-217 0 -242 -166h-317q33 185 201 301q166 115 411 115zM573 219q195 0 261 197l-396 -4l-47 18q-10 -109 34 -160
t148 -51z" />
    <glyph glyph-name="F.aalt" horiz-adv-x="1077" 
d="M1104 1087l-43 -251h-531l-30 -179h512l-37 -217h-514l-78 -440h-326l193 1087h854z" />
    <glyph glyph-name="G.aalt" horiz-adv-x="1329" 
d="M1243 678h-323q16 92 -29 133t-164 41q-131 0 -203.5 -74.5t-101.5 -238.5t17.5 -239t178.5 -75q209 0 252 166h-252l33 189h582l-100 -580h-285l55 313q-104 -344 -430 -344q-221 0 -327 151q-107 151 -62 402q46 267 236 427q188 159 454 159q246 0 375 -117
q128 -118 94 -313z" />
    <glyph glyph-name="Gbreve.aalt" horiz-adv-x="1329" 
d="M791 1198q-152 0 -221.5 93t-39.5 268h213q-16 -88 3.5 -127t79.5 -39q59 0 92.5 38.5t50.5 127.5h213q-30 -174 -133.5 -267.5t-257.5 -93.5zM1243 678h-323q16 92 -29 133t-164 41q-131 0 -203.5 -74.5t-101.5 -238.5t17.5 -239t178.5 -75q209 0 252 166h-252l33 189
h582l-100 -580h-285l55 313q-104 -344 -430 -344q-221 0 -327 151q-107 151 -62 402q46 267 236 427q188 159 454 159q246 0 375 -117q128 -118 94 -313z" />
    <glyph glyph-name="Gcaron.aalt" horiz-adv-x="1329" 
d="M999 1206h-419l-117 353h262l76 -291l178 291h262zM1243 678h-323q16 92 -29 133t-164 41q-131 0 -203.5 -74.5t-101.5 -238.5t17.5 -239t178.5 -75q209 0 252 166h-252l33 189h582l-100 -580h-285l55 313q-104 -344 -430 -344q-221 0 -327 151q-107 151 -62 402
q46 267 236 427q188 159 454 159q246 0 375 -117q128 -118 94 -313z" />
    <glyph glyph-name="Gcircumflex.aalt" horiz-adv-x="1329" 
d="M920 1206l-74 293l-178 -293h-265l244 353h418l119 -353h-264zM1243 678h-323q16 92 -29 133t-164 41q-131 0 -203.5 -74.5t-101.5 -238.5t17.5 -239t178.5 -75q209 0 252 166h-252l33 189h582l-100 -580h-285l55 313q-104 -344 -430 -344q-221 0 -327 151
q-107 151 -62 402q46 267 236 427q188 159 454 159q246 0 375 -117q128 -118 94 -313z" />
    <glyph glyph-name="uni0122.aalt" horiz-adv-x="1329" 
d="M1243 678h-323q16 92 -29 133t-164 41q-131 0 -203.5 -74.5t-101.5 -238.5t17.5 -239t178.5 -75q209 0 252 166h-252l33 189h582l-100 -580h-285l55 313q-104 -344 -430 -344q-221 0 -327 151q-107 151 -62 402q46 267 236 427q188 159 454 159q246 0 375 -117
q128 -118 94 -313zM518 -369l-131 56l31 172h303l-37 -213q-19 -120 -124 -193q-106 -71 -257 -71l23 129q90 0 135 28.5t57 91.5z" />
    <glyph glyph-name="Gdotaccent.aalt" horiz-adv-x="1329" 
d="M676 1530h346l-51 -289h-346zM1243 678h-323q16 92 -29 133t-164 41q-131 0 -203.5 -74.5t-101.5 -238.5t17.5 -239t178.5 -75q209 0 252 166h-252l33 189h582l-100 -580h-285l55 313q-104 -344 -430 -344q-221 0 -327 151q-107 151 -62 402q46 267 236 427
q188 159 454 159q246 0 375 -117q128 -118 94 -313z" />
    <glyph glyph-name="H.aalt" horiz-adv-x="1400" 
d="M948 676l74 411h326l-193 -1087h-326l76 424h-446l-76 -424h-326l193 1087h325l-73 -411h446z" />
    <glyph glyph-name="Hbar.aalt" horiz-adv-x="1400" 
d="M1325 963h111l-29 -168h-111l-141 -795h-326l76 424h-446l-76 -424h-326l142 795h-115l29 168h114l23 124h325l-22 -124h446l23 124h326zM502 676h446l23 119h-447z" />
    <glyph glyph-name="Hcircumflex.aalt" horiz-adv-x="1400" 
d="M930 1206l-74 293l-178 -293h-264l243 353h418l119 -353h-264zM948 676l74 411h326l-193 -1087h-326l76 424h-446l-76 -424h-326l193 1087h325l-73 -411h446z" />
    <glyph glyph-name="i.aalt" horiz-adv-x="628" 
d="M57 0l193 1087h325l-192 -1087h-326z" />
    <glyph glyph-name="iacute.aalt" horiz-adv-x="628" 
d="M307 1206l168 353h307l-243 -353h-232zM57 0l193 1087h325l-192 -1087h-326z" />
    <glyph glyph-name="ibreve.aalt" horiz-adv-x="628" 
d="M610 1559h213q-30 -174 -133.5 -267.5t-257.5 -93.5q-152 0 -221 93t-39 268h213q-16 -88 3.5 -127t78.5 -39q60 0 93.5 38.5t49.5 127.5zM57 0l193 1087h325l-192 -1087h-326z" />
    <glyph glyph-name="icircumflex.aalt" horiz-adv-x="628" 
d="M561 1206l-74 293l-178 -293h-264l244 353h418l118 -353h-264zM383 0h-326l193 1087h325z" />
    <glyph glyph-name="idieresis.aalt" horiz-adv-x="628" 
d="M94 1241l51 289h297l-51 -289h-297zM489 1241l50 289h297l-52 -289h-295zM57 0l193 1087h325l-192 -1087h-326z" />
    <glyph glyph-name="Idotaccent.c2sc" horiz-adv-x="628" 
d="M266 1241l51 289h347l-52 -289h-346zM57 0l193 1087h325l-192 -1087h-326z" />
    <glyph glyph-name="uni1ECB.aalt" horiz-adv-x="628" 
d="M57 0l193 1087h325l-192 -1087h-326zM-27 -426l50 285h346l-50 -285h-346z" />
    <glyph glyph-name="igrave.aalt" horiz-adv-x="628" 
d="M207 1559h307l41 -353h-231zM57 0l193 1087h325l-192 -1087h-326z" />
    <glyph glyph-name="IJ.aalt" horiz-adv-x="1187" 
d="M98 229h441q75 0 115 34t55 110l125 714h325l-129 -739q-32 -174 -177 -276q-145 -103 -378 -103q-250 0 -416 35zM137 422l117 665h326l-117 -665h-326z" />
    <glyph glyph-name="imacron.aalt" horiz-adv-x="628" 
d="M195 1511h585l-45 -247h-583zM57 0l193 1087h325l-192 -1087h-326z" />
    <glyph glyph-name="iogonek.aalt" horiz-adv-x="628" 
d="M383 0l-143 -152q-42 -39 -43 -65q-4 -21 8 -32t41 -11h110l-32 -186h-263q-79 0 -115 37.5t-26 101.5q12 79 88 149l164 158h-115l193 1087h325z" />
    <glyph glyph-name="itilde.aalt" horiz-adv-x="628" 
d="M590 1231q-63 0 -144 45t-131 45q-86 0 -100 -86h-160q27 151 100 230t189 79q64 0 143 -45t129 -45q86 0 101 86h160q-54 -309 -287 -309zM57 0l193 1087h325l-192 -1087h-326z" />
    <glyph glyph-name="J.aalt" horiz-adv-x="1093" 
d="M-12 420h317q-18 -100 12 -147.5t113 -47.5q82 0 128 43t63 138l120 681h324l-125 -710q-33 -183 -185 -296q-152 -112 -370 -112q-215 0 -324 124q-111 124 -73 327z" />
    <glyph glyph-name="Jcircumflex.aalt" horiz-adv-x="1093" 
d="M1044 1206l-73 293l-178 -293h-265l244 353h418l119 -353h-265zM621 406l120 681h324l-125 -710q-33 -183 -185 -296q-152 -112 -370 -112q-215 0 -324 124q-111 124 -73 327h317q-18 -100 12 -147.5t113 -47.5q82 0 128.5 44t62.5 137z" />
    <glyph glyph-name="K.aalt" horiz-adv-x="1333" 
d="M1024 1087h373l-572 -536l414 -551h-395l-256 356l-113 166l-92 -522h-326l193 1087h325l-92 -520l172 170z" />
    <glyph glyph-name="uni0136.aalt" horiz-adv-x="1333" 
d="M1024 1087h373l-572 -536l414 -551h-395l-256 356l-113 166l-92 -522h-326l193 1087h325l-92 -520l172 170zM526 -369l-131 56l31 172h303l-37 -213q-19 -120 -124 -193q-106 -71 -257 -71l23 129q90 0 135 28.5t57 91.5z" />
    <glyph glyph-name="L.aalt" horiz-adv-x="1044" 
d="M575 1087l-147 -835h541l-45 -252h-867l193 1087h325z" />
    <glyph glyph-name="Lacute.aalt" horiz-adv-x="1044" 
d="M475 1559h307l-243 -353h-232zM575 1087l-147 -835h541l-45 -252h-867l193 1087h325z" />
    <glyph glyph-name="Lcaron.aalt" horiz-adv-x="1044" 
d="M250 1087h325l-147 -835h541l-45 -252h-867zM686 915l31 172h303l-37 -213q-19 -121 -124 -192q-105 -72 -257 -72l23 129q90 0 135 29t57 94z" />
    <glyph glyph-name="uni013B.aalt" horiz-adv-x="1044" 
d="M575 1087l-147 -835h541l-45 -252h-867l193 1087h325zM406 -369l-132 56l31 172h303l-37 -213q-19 -120 -124 -193q-106 -71 -257 -71l23 129q90 0 135 28.5t58 91.5z" />
    <glyph glyph-name="Ldot.aalt" horiz-adv-x="1044" 
d="M575 1087l-147 -835h541l-45 -252h-867l193 1087h325zM643 815h293l-51 -293h-293z" />
    <glyph glyph-name="Lslash.aalt" horiz-adv-x="1044" 
d="M467 473l-39 -221h541l-45 -252h-867l64 356l-125 -51l41 225l123 52l90 505h325l-69 -387l346 146l-41 -225z" />
    <glyph glyph-name="M.aalt" horiz-adv-x="1818" 
d="M1206 1087h559l-190 -1087h-324l127 717l56 268l-392 -985h-448l-47 975l-39 -258l-127 -717h-324l193 1087h571l33 -708l-10 -254l78 254z" />
    <glyph glyph-name="N.aalt" horiz-adv-x="1492" 
d="M1014 494l104 593h322l-191 -1087h-565l-141 973l-56 -363l-106 -610h-324l193 1087h565l141 -966z" />
    <glyph glyph-name="Nacute.aalt" horiz-adv-x="1492" 
d="M913 1559h308l-244 -353h-232zM1014 494l104 593h322l-191 -1087h-565l-141 973l-56 -363l-106 -610h-324l193 1087h565l141 -966z" />
    <glyph glyph-name="Ncaron.aalt" horiz-adv-x="1492" 
d="M1081 1206h-419l-117 353h262l76 -291l178 291h262zM1014 494l104 593h322l-191 -1087h-565l-141 973l-56 -363l-106 -610h-324l193 1087h565l141 -966z" />
    <glyph glyph-name="uni0145.aalt" horiz-adv-x="1492" 
d="M1014 494l104 593h322l-191 -1087h-565l-141 973l-56 -363l-106 -610h-324l193 1087h565l141 -966zM594 -369l-131 56l31 172h303l-37 -213q-19 -121 -125 -193q-106 -71 -256 -71l22 129q90 0 135.5 28.5t57.5 91.5z" />
    <glyph glyph-name="Eng.aalt" horiz-adv-x="1492" 
d="M1014 494l104 593h322l-191 -1087l-8 -43q-27 -166 -151 -268q-125 -101 -302 -101q-84 0 -153 21l41 235h104q66 0 97.5 32t46.5 112l2 12h-242l-141 973l-56 -363l-106 -610h-324l193 1087h565l141 -966z" />
    <glyph glyph-name="uni019D.aalt" horiz-adv-x="1492" 
d="M1014 494l104 593h322l-191 -1087h-565l-141 973l-56 -363l-106 -610l-6 -43q-27 -166 -153 -268q-127 -101 -300 -101q-82 0 -155 21l40 235h105q66 0 98.5 34.5t46.5 121.5l193 1087h565l141 -966z" />
    <glyph glyph-name="Ntilde.aalt" horiz-adv-x="1492" 
d="M754 1321q-86 0 -101 -86h-159q27 151 100 230t188 79q63 0 144 -45q80 -45 129 -45q86 0 100 86h160q-53 -309 -287 -309q-63 0 -144 45t-130 45zM1014 494l104 593h322l-191 -1087h-565l-141 973l-56 -363l-106 -610h-324l193 1087h565l141 -966z" />
    <glyph glyph-name="O.c2sc" horiz-adv-x="1339" 
d="M571 -31q-263 0 -396 157q-134 158 -89 413q46 255 236 413q188 156 452 156q262 0 396 -156q133 -157 88 -413q-46 -255 -234 -413q-188 -157 -453 -157zM618 225q131 0 203 74.5t101 239.5q31 164 -15.5 238.5t-179.5 74.5q-131 0 -204.5 -75t-100.5 -238
q-29 -165 17 -239.5t179 -74.5z" />
    <glyph glyph-name="Oacute.aalt" horiz-adv-x="1339" 
d="M662 1206l167 353h308l-244 -353h-231zM571 -31q-263 0 -396 157q-134 158 -89 413q46 255 236 413q188 156 452 156q262 0 396 -156q133 -157 88 -413q-46 -255 -234 -413q-188 -157 -453 -157zM618 225q131 0 203 74.5t101 239.5q31 164 -15.5 238.5t-179.5 74.5
q-131 0 -204.5 -75t-100.5 -238q-29 -165 17 -239.5t179 -74.5z" />
    <glyph glyph-name="Obreve.aalt" horiz-adv-x="1339" 
d="M967 1559h213q-30 -174 -134 -267.5t-258 -93.5q-152 0 -221 93t-39 268h213q-16 -88 3.5 -127t79.5 -39q59 0 92.5 38.5t50.5 127.5zM571 -31q-263 0 -396 157q-134 158 -89 413q46 255 236 413q188 156 452 156q262 0 396 -156q133 -157 88 -413q-46 -255 -234 -413
q-188 -157 -453 -157zM618 225q131 0 203 74.5t101 239.5q31 164 -15.5 238.5t-179.5 74.5q-131 0 -204.5 -75t-100.5 -238q-29 -165 17 -239.5t179 -74.5z" />
    <glyph glyph-name="Ocircumflex.aalt" horiz-adv-x="1339" 
d="M918 1206l-74 293l-178 -293h-265l244 353h418l119 -353h-264zM774 1108q262 0 396 -156q133 -157 88 -413q-46 -255 -234 -413q-187 -157 -453 -157q-263 0 -396 157q-134 158 -89 413q46 255 236 413q188 156 452 156zM922 539q31 164 -15.5 238.5t-179.5 74.5
q-131 0 -204.5 -75t-100.5 -238q-29 -165 17 -239.5t179 -74.5q131 0 203 74.5t101 239.5z" />
    <glyph glyph-name="Odieresis.aalt" horiz-adv-x="1339" 
d="M449 1241l51 289h297l-52 -289h-296zM844 1241l49 289h297l-51 -289h-295zM571 -31q-263 0 -396 157q-134 158 -89 413q46 255 236 413q188 156 452 156q262 0 396 -156q133 -157 88 -413q-46 -255 -234 -413q-188 -157 -453 -157zM618 225q131 0 203 74.5t101 239.5
q31 164 -15.5 238.5t-179.5 74.5q-131 0 -204.5 -75t-100.5 -238q-29 -165 17 -239.5t179 -74.5z" />
    <glyph glyph-name="uni1ECC.aalt" horiz-adv-x="1339" 
d="M571 -31q-263 0 -396 157q-134 158 -89 413q46 255 236 413q188 156 452 156q262 0 396 -156q133 -157 88 -413q-46 -255 -234 -413q-188 -157 -453 -157zM618 225q131 0 203 74.5t101 239.5q31 164 -15.5 238.5t-179.5 74.5q-131 0 -204.5 -75t-100.5 -238
q-29 -165 17 -239.5t179 -74.5zM330 -426l49 285h346l-49 -285h-346z" />
    <glyph glyph-name="Ograve.aalt" horiz-adv-x="1339" 
d="M563 1559h307l41 -353h-231zM571 -31q-263 0 -396 157q-134 158 -89 413q46 255 236 413q188 156 452 156q262 0 396 -156q133 -157 88 -413q-46 -255 -234 -413q-188 -157 -453 -157zM618 225q131 0 203 74.5t101 239.5q31 164 -15.5 238.5t-179.5 74.5
q-131 0 -204.5 -75t-100.5 -238q-29 -165 17 -239.5t179 -74.5z" />
    <glyph glyph-name="Ohungarumlaut.aalt" horiz-adv-x="1339" 
d="M508 1206l156 353h258l-183 -353h-231zM827 1206l166 353h307l-241 -353h-232zM571 -31q-263 0 -396 157q-134 158 -89 413q46 255 236 413q188 156 452 156q262 0 396 -156q133 -157 88 -413q-46 -255 -234 -413q-188 -157 -453 -157zM618 225q131 0 203 74.5t101 239.5
q31 164 -15.5 238.5t-179.5 74.5q-131 0 -204.5 -75t-100.5 -238q-29 -165 17 -239.5t179 -74.5z" />
    <glyph glyph-name="Omacron.aalt" horiz-adv-x="1339" 
d="M551 1511h586l-45 -247h-584zM571 -31q-263 0 -396 157q-134 158 -89 413q46 255 236 413q188 156 452 156q262 0 396 -156q133 -157 88 -413q-46 -255 -234 -413q-188 -157 -453 -157zM618 225q131 0 203 74.5t101 239.5q31 164 -15.5 238.5t-179.5 74.5
q-131 0 -204.5 -75t-100.5 -238q-29 -165 17 -239.5t179 -74.5z" />
    <glyph glyph-name="uni01EA.aalt" horiz-adv-x="1339" 
d="M774 1108q262 0 396 -156q133 -157 87 -413q-34 -198 -159 -341q-124 -142 -310 -198l-143 -152q-42 -39 -43 -65q-4 -20 8.5 -31.5t40.5 -11.5h111l-33 -186h-262q-79 0 -115.5 38t-25.5 101q12 79 88 149l133 127q-251 7 -379 164q-127 155 -82 406q46 255 236 413
q188 156 452 156zM922 539q31 164 -15.5 238.5t-179.5 74.5q-131 0 -204.5 -75t-100.5 -238q-29 -165 17 -239.5t179 -74.5q131 0 203 74.5t101 239.5z" />
    <glyph glyph-name="Oslash.aalt" horiz-adv-x="1339" 
d="M1112 1208h234l-199 -233q160 -160 110 -436q-45 -255 -233 -413q-187 -157 -453 -157q-140 0 -239 43l-133 -155h-234l219 258q-147 161 -98 424q46 255 236 413q188 156 452 156q128 0 221 -37zM422 539q-16 -94 -10 -154l391 459q-34 8 -76 8q-132 0 -205 -74.5
t-100 -238.5zM922 539q19 109 6 178l-406 -479q39 -11 96 -13q131 0 203 74.5t101 239.5z" />
    <glyph glyph-name="Oslashacute.aalt" horiz-adv-x="1339" 
d="M813 1559h307l-243 -353h-232zM1112 1208h234l-199 -233q160 -160 110 -436q-45 -255 -233 -413q-187 -157 -453 -157q-140 0 -239 43l-133 -155h-234l219 258q-147 161 -98 424q46 255 236 413q188 156 452 156q128 0 221 -37zM422 539q-16 -94 -10 -154l391 459
q-34 8 -76 8q-132 0 -205 -74.5t-100 -238.5zM922 539q19 109 6 178l-406 -479q39 -11 96 -13q131 0 203 74.5t101 239.5z" />
    <glyph glyph-name="Otilde.aalt" horiz-adv-x="1339" 
d="M944 1231q-63 0 -144 45t-130 45q-86 0 -101 -86h-159q27 151 100 230t188 79q63 0 144 -45q80 -45 129 -45q86 0 100 86h160q-54 -309 -287 -309zM571 -31q-263 0 -396 157q-134 158 -89 413q46 255 236 413q188 156 452 156q262 0 396 -156q133 -157 88 -413
q-46 -255 -234 -413q-188 -157 -453 -157zM618 225q131 0 203 74.5t101 239.5q31 164 -15.5 238.5t-179.5 74.5q-131 0 -204.5 -75t-100.5 -238q-29 -165 17 -239.5t179 -74.5z" />
    <glyph glyph-name="OE.aalt" horiz-adv-x="1830" 
d="M1827 1087l-43 -251h-527l-30 -179h508l-37 -217h-510l-33 -188h526l-43 -252h-1063q-262 0 -397 150q-135 149 -92 395q44 245 231 393q188 149 449 149h1061zM655 252h174l103 584h-172q-147 0 -229 -71t-109 -220q-27 -152 29.5 -222.5t203.5 -70.5z" />
    <glyph glyph-name="P.aalt" horiz-adv-x="1183" 
d="M250 1087h627q172 0 260 -103t57 -271q-28 -164 -157 -266q-128 -101 -306 -101h-287l-61 -346h-326zM858 713q10 66 -19.5 94.5t-109.5 28.5h-201l-41 -244h199q80 0 121 29t51 92z" />
    <glyph glyph-name="Thorn.aalt" horiz-adv-x="1179" 
d="M545 920h303q172 0 259 -102q87 -103 58 -271q-32 -167 -157 -267q-128 -102 -306 -102h-288l-31 -178h-326l193 1087h323zM829 547q10 64 -21 93.5t-110 29.5h-198l-43 -246h198q155 0 174 123z" />
    <glyph glyph-name="Q.aalt" horiz-adv-x="1339" 
d="M1257 539q-39 -227 -198 -383l110 -121l-184 -160l-115 156q-139 -60 -299 -62q-263 0 -396 157q-134 158 -89 413q45 256 235 413q189 156 451 156q264 0 397 -156q133 -157 88 -413zM422 539q-29 -164 17 -239t177 -75q55 0 93 8l-111 123l172 150l107 -135
q27 61 45 168q29 164 -17.5 238.5t-177.5 74.5q-132 0 -205 -74.5t-100 -238.5z" />
    <glyph glyph-name="R.aalt" horiz-adv-x="1292" 
d="M1210 725q-35 -202 -219 -299l62 -107l145 -319h-369l-161 371h-219l-66 -371h-326l193 1087h641q172 0 260 -100q88 -99 59 -262zM743 836h-215l-41 -240h213q80 0 121 28.5t51 92.5q10 62 -20 90.5t-109 28.5z" />
    <glyph glyph-name="Racute.aalt" horiz-adv-x="1292" 
d="M807 1559h307l-244 -353h-231zM1210 725q-35 -202 -219 -299l62 -107l145 -319h-369l-161 371h-219l-66 -371h-326l193 1087h641q172 0 260 -100q88 -99 59 -262zM743 836h-215l-41 -240h213q80 0 121 28.5t51 92.5q10 62 -20 90.5t-109 28.5z" />
    <glyph glyph-name="Rcaron.aalt" horiz-adv-x="1292" 
d="M975 1206h-420l-117 353h262l76 -291l178 291h263zM1210 725q-35 -202 -219 -299l62 -107l145 -319h-369l-161 371h-219l-66 -371h-326l193 1087h641q172 0 260 -100q88 -99 59 -262zM743 836h-215l-41 -240h213q80 0 121 28.5t51 92.5q10 62 -20 90.5t-109 28.5z" />
    <glyph glyph-name="uni0156.aalt" horiz-adv-x="1292" 
d="M1210 725q-35 -202 -219 -299l62 -107l145 -319h-369l-161 371h-219l-66 -371h-326l193 1087h641q172 0 260 -100q88 -99 59 -262zM743 836h-215l-41 -240h213q80 0 121 28.5t51 92.5q10 62 -20 90.5t-109 28.5zM512 -369l-131 56l31 172h303l-37 -213
q-19 -120 -124 -193q-106 -71 -257 -71l22 129q90 0 135.5 28.5t57.5 91.5z" />
    <glyph glyph-name="S.aalt" horiz-adv-x="1216" 
d="M41 336h324q-14 -72 32.5 -105.5t161.5 -33.5q199 0 217 92q8 47 -37 71q-48 24 -209 46q-229 29 -325 113t-70 235q28 159 186 257q155 97 381 97q233 0 358 -104q125 -105 93 -275h-324q14 78 -26 115t-141 37q-182 0 -201 -97q-7 -46 42 -69q49 -22 208 -45
q249 -32 338 -112q90 -81 63 -230q-28 -163 -190 -261q-163 -98 -404 -98q-244 0 -375 101q-130 100 -102 266z" />
    <glyph glyph-name="Sacute.aalt" horiz-adv-x="1216" 
d="M596 1206l168 353h307l-244 -353h-231zM41 336h324q-14 -72 32.5 -105.5t161.5 -33.5q199 0 217 92q8 47 -37 71q-48 24 -209 46q-229 29 -325 113t-70 235q28 159 186 257q155 97 381 97q233 0 358 -104q125 -105 93 -275h-324q14 78 -26 115t-141 37q-182 0 -201 -97
q-7 -46 42 -69q49 -22 208 -45q249 -32 338 -112q90 -81 63 -230q-28 -163 -190 -261q-163 -98 -404 -98q-244 0 -375 101q-130 100 -102 266z" />
    <glyph glyph-name="Scaron.aalt" horiz-adv-x="1216" 
d="M932 1206h-420l-117 353h262l76 -291l178 291h263zM702 1108q233 0 358 -104q125 -105 93 -275h-324q14 78 -26 115t-141 37q-182 0 -201 -97q-7 -46 42 -69q49 -22 208 -45q249 -32 338 -112q90 -81 63 -230q-28 -163 -190 -261q-163 -98 -404 -98q-244 0 -375 101
q-130 100 -102 266h324q-14 -72 32.5 -105.5t161.5 -33.5q199 0 217 92q8 47 -37 71q-48 24 -209 46q-229 29 -325 113t-70 235q28 159 186 257q155 97 381 97z" />
    <glyph glyph-name="Scedilla.c2sc" horiz-adv-x="1216" 
d="M1153 729h-324q14 78 -26 115t-141 37q-182 0 -201 -97q-7 -46 42 -69q49 -22 208 -45q249 -32 338 -112q90 -81 63 -230q-26 -147 -163 -243q-138 -97 -351 -114l-39 -75h31q80 0 121 -45.5t28 -118.5q-16 -80 -78.5 -129t-150.5 -49h-223l24 139h158q53 0 61 41
q4 20 -8 30.5t-41 10.5h-137l18 114l50 86q-195 22 -297 118q-101 95 -74 243h324q-14 -72 32.5 -105.5t161.5 -33.5q199 0 217 92q8 47 -37 71q-48 24 -209 46q-229 29 -325 113t-70 235q28 159 186 257q155 97 381 97q233 0 358 -104q125 -105 93 -275z" />
    <glyph glyph-name="Scircumflex.aalt" horiz-adv-x="1216" 
d="M852 1206l-74 293l-178 -293h-264l244 353h417l119 -353h-264zM1153 729h-324q14 78 -26 115t-141 37q-182 0 -201 -97q-7 -46 42 -69q49 -22 208 -45q249 -32 338 -112q90 -81 63 -230q-28 -163 -190 -261q-163 -98 -404 -98q-244 0 -375 101q-130 100 -102 266h324
q-14 -72 32.5 -105.5t161.5 -33.5q199 0 217 92q8 47 -37 71q-48 24 -209 46q-229 29 -325 113t-70 235q28 159 186 257q155 97 381 97q233 0 358 -104q125 -105 93 -275z" />
    <glyph glyph-name="uni0218.aalt" horiz-adv-x="1216" 
d="M41 336h324q-14 -72 32.5 -105.5t161.5 -33.5q199 0 217 92q8 47 -37 71q-48 24 -209 46q-229 29 -325 113t-70 235q28 159 186 257q155 97 381 97q233 0 358 -104q125 -105 93 -275h-324q14 78 -26 115t-141 37q-182 0 -201 -97q-7 -46 42 -69q49 -22 208 -45
q249 -32 338 -112q90 -81 63 -230q-28 -163 -190 -261q-163 -98 -404 -98q-244 0 -375 101q-130 100 -102 266zM307 -313l31 172h303l-37 -213q-19 -120 -124 -193q-106 -71 -257 -71l23 129q90 0 135 28.5t57 91.5z" />
    <glyph glyph-name="T.aalt" horiz-adv-x="1081" 
d="M109 1087h1060l-45 -251h-368l-146 -836h-325l145 836h-367z" />
    <glyph glyph-name="Tbar.aalt" horiz-adv-x="1081" 
d="M1169 1087l-45 -251h-368l-41 -234h268l-33 -192h-268l-72 -410h-325l71 410h-278l33 192h278l41 234h-367l46 251h1060z" />
    <glyph glyph-name="Tcaron.aalt" horiz-adv-x="1081" 
d="M868 1206h-419l-117 353h262l76 -291l178 291h262zM109 1087h1060l-45 -251h-368l-146 -836h-325l145 836h-367z" />
    <glyph glyph-name="uni0162.c2sc" horiz-adv-x="1081" 
d="M756 836l-146 -836h-67l-54 -104h31q80 0 121 -45.5t29 -118.5q-17 -80 -79 -129t-151 -49h-223l25 139h157q53 0 62 41q4 20 -8.5 30.5t-40.5 10.5h-138l19 114l63 111h-71l145 836h-367l46 251h1060l-45 -251h-368z" />
    <glyph glyph-name="uni021A.aalt" horiz-adv-x="1081" 
d="M109 1087h1060l-45 -251h-368l-146 -836h-325l145 836h-367zM369 -369l-131 56l30 172h303l-36 -213q-19 -121 -125 -193q-106 -71 -256 -71l22 129q90 0 135 28.5t58 91.5z" />
    <glyph glyph-name="U.aalt" horiz-adv-x="1310" 
d="M106 408l119 679h326l-115 -653q-18 -111 21 -160t146 -49q106 0 163 50.5t76 158.5l114 653h326l-121 -679q-33 -197 -199 -318t-405 -121q-238 0 -362 121t-89 318z" />
    <glyph glyph-name="Uacute.aalt" horiz-adv-x="1310" 
d="M647 1206l168 353h307l-243 -353h-232zM106 408l119 679h326l-115 -653q-18 -111 21 -160t146 -49q106 0 163 50.5t76 158.5l114 653h326l-121 -679q-33 -197 -199 -318t-405 -121q-238 0 -362 121t-89 318z" />
    <glyph glyph-name="Ubreve.aalt" horiz-adv-x="1310" 
d="M950 1559h213q-30 -174 -133.5 -267.5t-257.5 -93.5q-152 0 -221 93t-39 268h213q-16 -88 3.5 -127t78.5 -39q60 0 93.5 38.5t49.5 127.5zM106 408l119 679h326l-115 -653q-18 -111 21 -160t146 -49q106 0 163 50.5t76 158.5l114 653h326l-121 -679q-33 -197 -199 -318
t-405 -121q-238 0 -362 121t-89 318z" />
    <glyph glyph-name="Ucircumflex.aalt" horiz-adv-x="1310" 
d="M901 1206l-74 293l-178 -293h-264l244 353h418l118 -353h-264zM842 434l114 653h326l-121 -679q-33 -197 -199 -318t-405 -121t-361 121q-124 122 -90 318l119 679h326l-115 -653q-18 -111 21 -160t146 -49q106 0 163 50.5t76 158.5z" />
    <glyph glyph-name="Udieresis.aalt" horiz-adv-x="1310" 
d="M434 1241l51 289h297l-51 -289h-297zM829 1241l50 289h297l-52 -289h-295zM106 408l119 679h326l-115 -653q-18 -111 21 -160t146 -49q106 0 163 50.5t76 158.5l114 653h326l-121 -679q-33 -197 -199 -318t-405 -121q-238 0 -362 121t-89 318z" />
    <glyph glyph-name="uni1EE4.aalt" horiz-adv-x="1310" 
d="M106 408l119 679h326l-115 -653q-18 -111 21 -160t146 -49q106 0 163 50.5t76 158.5l114 653h326l-121 -679q-33 -197 -199 -318t-405 -121q-238 0 -362 121t-89 318zM315 -426l50 285h346l-49 -285h-347z" />
    <glyph glyph-name="Ugrave.aalt" horiz-adv-x="1310" 
d="M547 1559h307l41 -353h-231zM106 408l119 679h326l-115 -653q-18 -111 21 -160t146 -49q106 0 163 50.5t76 158.5l114 653h326l-121 -679q-33 -197 -199 -318t-405 -121q-238 0 -362 121t-89 318z" />
    <glyph glyph-name="Uhungarumlaut.aalt" horiz-adv-x="1310" 
d="M494 1206l155 353h258l-182 -353h-231zM813 1206l166 353h307l-242 -353h-231zM106 408l119 679h326l-115 -653q-18 -111 21 -160t146 -49q106 0 163 50.5t76 158.5l114 653h326l-121 -679q-33 -197 -199 -318t-405 -121q-238 0 -362 121t-89 318z" />
    <glyph glyph-name="Umacron.aalt" horiz-adv-x="1310" 
d="M535 1511h585l-45 -247h-583zM106 408l119 679h326l-115 -653q-18 -111 21 -160t146 -49q106 0 163 50.5t76 158.5l114 653h326l-121 -679q-33 -197 -199 -318t-405 -121q-238 0 -362 121t-89 318z" />
    <glyph glyph-name="Uogonek.aalt" horiz-adv-x="1310" 
d="M842 434l114 653h326l-121 -679q-27 -148 -129 -254q-103 -108 -258 -154l-143 -152q-42 -39 -43 -65q-4 -21 8 -32t41 -11h111l-33 -186h-262q-79 0 -115.5 37.5t-26.5 101.5q12 79 88 149l133 127q-225 7 -342 127q-116 118 -84 312l119 679h326l-115 -653
q-18 -111 21 -160t146 -49q106 0 163 50.5t76 158.5z" />
    <glyph glyph-name="Uring.aalt" horiz-adv-x="1310" 
d="M772 1198q-94 0 -143 51t-35 133q13 80 82 134q68 51 162 51q95 0 143.5 -51.5t34.5 -133.5q-15 -82 -81 -133q-67 -51 -163 -51zM795 1317q74 0 86 66q12 65 -64 65q-79 0 -86 -66q-14 -65 64 -65zM106 408l119 679h326l-115 -653q-18 -111 21 -160t146 -49
q106 0 163 50.5t76 158.5l114 653h326l-121 -679q-33 -197 -199 -318t-405 -121q-238 0 -362 121t-89 318z" />
    <glyph glyph-name="Utilde.aalt" horiz-adv-x="1310" 
d="M930 1231q-63 0 -144 45t-131 45q-86 0 -100 -86h-160q27 151 100 230t189 79q64 0 143 -45t129 -45q86 0 101 86h160q-54 -309 -287 -309zM106 408l119 679h326l-115 -653q-18 -111 21 -160t146 -49q106 0 163 50.5t76 158.5l114 653h326l-121 -679q-33 -197 -199 -318
t-405 -121q-238 0 -362 121t-89 318z" />
    <glyph glyph-name="V.aalt" horiz-adv-x="1294" 
d="M676 324l383 763h323l-546 -1087h-570l-164 1087h336l117 -763l23 -215z" />
    <glyph glyph-name="W.aalt" horiz-adv-x="1984" 
d="M1425 319l306 768h337l-448 -1087h-514l-29 702l4 275l-90 -275l-276 -702h-516l-68 1087h342l37 -768l-2 -194l65 194l293 768h473l23 -768l-4 -190z" />
    <glyph glyph-name="Wacute.aalt" horiz-adv-x="1984" 
d="M1176 1559h307l-244 -353h-231zM1425 319l306 768h337l-448 -1087h-514l-29 702l4 275l-90 -275l-276 -702h-516l-68 1087h342l37 -768l-2 -194l65 194l293 768h473l23 -768l-4 -190z" />
    <glyph glyph-name="Wcircumflex.aalt" horiz-adv-x="1984" 
d="M1262 1206l-74 293l-178 -293h-265l244 353h418l119 -353h-264zM1425 319l306 768h337l-448 -1087h-514l-29 702l4 275l-90 -275l-276 -702h-516l-68 1087h342l37 -768l-2 -194l65 194l293 768h473l23 -768l-4 -190z" />
    <glyph glyph-name="Wdieresis.aalt" horiz-adv-x="1984" 
d="M846 1530h297l-51 -289h-297zM1239 1530h297l-51 -289h-295zM1425 319l306 768h337l-448 -1087h-514l-29 702l4 275l-90 -275l-276 -702h-516l-68 1087h342l37 -768l-2 -194l65 194l293 768h473l23 -768l-4 -190z" />
    <glyph glyph-name="Wgrave.aalt" horiz-adv-x="1984" 
d="M1214 1559l41 -353h-231l-117 353h307zM1425 319l306 768h337l-448 -1087h-514l-29 702l4 275l-90 -275l-276 -702h-516l-68 1087h342l37 -768l-2 -194l65 194l293 768h473l23 -768l-4 -190z" />
    <glyph glyph-name="X.aalt" horiz-adv-x="1382" 
d="M1081 1087h359l-434 -509l278 -578h-364l-152 311l-76 189l-143 -189l-260 -311h-359l476 567l-259 520h365l131 -264l74 -184l139 184z" />
    <glyph glyph-name="Y.aalt" horiz-adv-x="1218" 
d="M1001 1087h340l-596 -763l-57 -324h-323l55 324l-324 763h350l134 -342l53 -165l112 165z" />
    <glyph glyph-name="Yacute.aalt" horiz-adv-x="1218" 
d="M780 1559h307l-243 -353h-232zM1001 1087h340l-596 -763l-57 -324h-323l55 324l-324 763h350l134 -342l53 -165l112 165z" />
    <glyph glyph-name="Ycircumflex.aalt" horiz-adv-x="1218" 
d="M866 1206l-73 293l-179 -293h-264l244 353h418l118 -353h-264zM1001 1087h340l-596 -763l-57 -324h-323l55 324l-324 763h350l134 -342l53 -165l112 165z" />
    <glyph glyph-name="Ydieresis.aalt" horiz-adv-x="1218" 
d="M451 1530h297l-52 -289h-297zM844 1530h297l-51 -289h-295zM1001 1087h340l-596 -763l-57 -324h-323l55 324l-324 763h350l134 -342l53 -165l112 165z" />
    <glyph glyph-name="Ygrave.aalt" horiz-adv-x="1218" 
d="M819 1559l41 -353h-231l-117 353h307zM1001 1087h340l-596 -763l-57 -324h-323l55 324l-324 763h350l134 -342l53 -165l112 165z" />
    <glyph glyph-name="uni0232.aalt" horiz-adv-x="1218" 
d="M500 1511h585l-45 -247h-583zM1001 1087h340l-596 -763l-57 -324h-323l55 324l-324 763h350l134 -342l53 -165l112 165z" />
    <glyph glyph-name="uni1EF8.aalt" horiz-adv-x="1218" 
d="M621 1321q-86 0 -101 -86h-160q27 151 100 230t189 79q63 0 143 -45t130 -45q86 0 100 86h160q-52 -309 -287 -309q-63 0 -144 45t-130 45zM1001 1087h340l-596 -763l-57 -324h-323l55 324l-324 763h350l134 -342l53 -165l112 165z" />
    <glyph glyph-name="Z.c2sc" horiz-adv-x="1067" 
d="M905 0h-915l86 485l835 355l-172 -4h-596l45 251h904l-86 -487l-830 -352l160 4h612z" />
    <glyph glyph-name="Zacute.c2sc" horiz-adv-x="1067" 
d="M532 1206l168 353h308l-244 -353h-232zM905 0h-915l86 485l835 355l-172 -4h-596l45 251h904l-86 -487l-830 -352l160 4h612z" />
    <glyph glyph-name="Zcaron.c2sc" horiz-adv-x="1067" 
d="M868 1206h-419l-117 353h262l76 -291l178 291h262zM739 836h-596l45 251h904l-86 -487l-830 -352l160 4h612l-43 -252h-915l86 485l835 355z" />
    <glyph glyph-name="Zdotaccent.c2sc" horiz-adv-x="1067" 
d="M492 1241l51 289h346l-51 -289h-346zM905 0h-915l86 485l835 355l-172 -4h-596l45 251h904l-86 -487l-830 -352l160 4h612z" />
    <glyph glyph-name="i.aalt.aalt" horiz-adv-x="921" 
d="M950 1087l-43 -251h-229l-103 -584h228l-43 -252h-783l43 252h230l102 584h-227l45 251h780z" />
    </font>
</defs>
</svg>
